<?xml version="1.0" encoding="UTF-8" standalone="no"?>
<!-- Created with Inkscape (http://www.inkscape.org/) -->

<svg
   version="1.1"
   id="svg447"
   width="682.66669"
   height="682.66669"
   viewBox="0 0 682.66669 682.66669"
   sodipodi:docname="4pda.svg"
   inkscape:version="1.1.2 (b8e25be833, 2022-02-05)"
   xmlns:inkscape="http://www.inkscape.org/namespaces/inkscape"
   xmlns:sodipodi="http://sodipodi.sourceforge.net/DTD/sodipodi-0.dtd"
   xmlns="http://www.w3.org/2000/svg"
   xmlns:svg="http://www.w3.org/2000/svg">
  <defs
     id="defs451" />
  <sodipodi:namedview
     id="namedview449"
     pagecolor="#ffffff"
     bordercolor="#666666"
     borderopacity="1.0"
     inkscape:pageshadow="2"
     inkscape:pageopacity="0.0"
     inkscape:pagecheckerboard="0"
     showgrid="false"
     inkscape:zoom="1.040039"
     inkscape:cx="340.85259"
     inkscape:cy="341.33334"
     inkscape:window-width="1280"
     inkscape:window-height="961"
     inkscape:window-x="-8"
     inkscape:window-y="-8"
     inkscape:window-maximized="1"
     inkscape:current-layer="g453" />
  <g
     inkscape:groupmode="layer"
     inkscape:label="Image"
     id="g453">
    <g
       id="g573"
       transform="translate(-0.00207995,-0.02233346)">
      <path
         style="fill:#e4e4e4;stroke-width:1.33333"
         d="m 400.26668,626.40002 c -1.18315,-1.18315 -1.6,-13.68889 -1.6,-48 v -46.4 H 228.26667 c -130.755556,0 -170.772249,-0.37226 -172.000001,-1.6 -1.213627,-1.21363 -1.6,-23.88838 -1.6,-93.8977 v -92.29771 l 3.666666,-4.43093 C 64.691542,332.0902 310.84821,59.447635 313.63694,57.000002 c 2.49227,-2.18744 10.635,-2.333333 130.23066,-2.333333 140.37931,0 135.04023,-0.291806 151.07982,8.257208 8.94892,4.769727 20.03935,16.109615 25.34205,25.912085 8.14976,15.065478 7.71055,0.708182 7.71055,252.045218 0,162.07281 -0.43228,231.73348 -1.46895,236.71988 -4.73433,22.77211 -25.29332,43.74708 -48.01342,48.98491 -8.93931,2.06084 -176.17864,1.88638 -178.25097,-0.18595 z m -4.26667,-324.00001 c 0,-44.05665 -0.50588,-78.37366 -1.14492,-77.66667 -0.62969,0.69667 -32.42941,36.21667 -70.66604,78.93334 l -69.52113,77.66667 h 70.66604 70.66605 z"
         id="path587" />
      <path
         style="fill:#d1d1d1;stroke-width:1.33333"
         d="m 400.6414,625.03617 c -0.3498,-0.93655 -0.7872,-22.40282 -0.97203,-47.70282 l -0.33602,-46 -171.33334,-0.66667 -171.333341,-0.66666 -0.342248,-93.3623 -0.34225,-93.36229 47.008919,-52.04305 c 25.8549,-28.62368 83.23581,-92.21064 127.51312,-141.30437 44.27731,-49.09374 81.69379,-90.311341 83.14771,-91.594675 2.47876,-2.187913 10.67962,-2.333333 131.58714,-2.333333 113.77164,0 129.79575,0.248735 136.18563,2.113951 19.62354,5.728141 35.71221,21.51319 42.51788,41.715502 2.75564,8.179995 2.75965,8.587395 2.40884,244.584935 l -0.35139,236.3913 -4.93983,9.9947 c -6.34006,12.82782 -18.50498,24.83223 -31.31069,30.8976 l -9.08281,4.30203 -89.69465,0.36948 c -71.81651,0.29583 -89.82141,0.0301 -90.33064,-1.33333 z m -3.63085,-322.81745 c 0.19278,-44.72927 -0.16472,-79.58449 -0.81372,-79.33334 -1.95164,0.75524 -141.53015,157.03553 -141.53015,158.46547 0,0.88426 24.1193,1.22199 71,0.99418 l 71,-0.34502 z"
         id="path585" />
      <path
         style="fill:#a4a4a4;stroke-width:1.33333"
         d="m 401.64508,625.11175 c -1.24151,-1.2415 -1.64507,-13.02785 -1.64507,-48.04506 v -46.40001 h -170.4 c -130.755563,0 -170.772256,-0.37225 -172.000008,-1.6 -1.213148,-1.21314 -1.6,-23.57485 -1.6,-92.48685 v -90.88686 l 2.98676,-3.84648 C 63.182702,336.44277 310.23188,62.663581 314.21796,59.000002 l 3.26409,-3 h 125.86002 c 88.17204,0 127.97579,0.449269 132.92566,1.500349 23.27818,4.943002 44.12626,26.001052 48.98948,49.482879 1.02432,4.94587 1.34837,75.29166 1.09801,238.35012 -0.33371,217.33899 -0.49807,231.75206 -2.71692,238.25499 -5.67273,16.62544 -20.92148,32.44039 -37.87264,39.27885 l -7.76564,3.13283 -87.35494,0.3784 c -67.90913,0.29416 -87.72115,0.012 -89,-1.26667 z M 397.33335,301.8889 c 0,-44.76944 -0.51303,-80.57967 -1.1509,-80.33333 -1.85848,0.71769 -142.84911,158.50859 -142.84911,159.87083 0,0.74951 28.48991,1.24028 72,1.24028 h 72.00001 z"
         id="path583" />
      <path
         style="fill:#5a5a5a;stroke-width:1.33333"
         d="m 401.96087,623.66669 c -0.34218,-0.91667 -0.77334,-22.36667 -0.95816,-47.66667 l -0.33603,-46 L 229.33334,529.33335 58.000002,528.66668 57.65763,436.62807 57.315258,344.58944 186.13957,201.96139 C 256.99293,123.51596 315.647,58.892523 316.48194,58.353753 c 0.83494,-0.538771 58.54202,-0.988771 128.23794,-1 138.21914,-0.02227 134.55554,-0.209682 148.93938,7.618987 8.034,4.37265 20.91972,17.916516 24.93263,26.206084 7.02026,14.501946 6.70862,2.908171 6.72564,250.207726 0.0172,250.29762 0.41261,236.69215 -7.32216,251.95598 -6.7352,13.29128 -22.96323,26.00414 -38.46227,30.13092 -9.63091,2.56433 -176.61934,2.74605 -177.57223,0.19324 z m -3.6171,-321.58959 c 0.18907,-44.69093 -0.116,-81.71596 -0.67784,-82.27784 -1.28706,-1.28707 -147.22331,161.42621 -146.22731,163.03778 0.41747,0.67545 32.10876,1.03735 73.6471,0.84099 l 72.91429,-0.34468 z"
         id="path581" />
      <path
         style="fill:#2f2f2f;stroke-width:1.33333"
         d="m 402.66668,577.63662 c 0,-34.33957 -0.41681,-46.85342 -1.6,-48.0366 -1.22775,-1.22775 -41.24444,-1.6 -172.00001,-1.6 H 58.666669 v -91.71261 -91.7126 L 187.66667,201.65846 316.66668,58.74211 444.88123,58.704389 c 121.89783,-0.03587 128.61218,0.08604 136.28559,2.474274 11.1174,3.460123 18.34424,7.97021 26.37131,16.457649 7.59952,8.035371 11.12344,14.17468 14.31481,24.939028 1.93839,6.53809 2.14391,29.73621 2.11448,238.66667 -0.0213,151.09966 -0.50047,233.45414 -1.38059,237.2718 -3.87232,16.79666 -15.89512,31.36614 -32.76458,39.70482 l -10.34727,5.11472 -88.40415,0.36994 -88.40415,0.36993 z m -4.15295,-194.11899 c 2.2794,-2.74651 1.45518,-165.51762 -0.83813,-165.51762 -1.63369,0 -148.34226,162.80952 -148.34226,164.62252 0,0.51318 0.4,1.33304 0.8889,1.82192 0.48888,0.4889 33.71541,0.8889 73.83673,0.8889 59.92542,0 73.21687,-0.32414 74.45476,-1.81572 z"
         id="path579" />
      <path
         style="fill:#191919;stroke-width:1.33333"
         d="m 403.2942,622.33335 c -0.34217,-0.91666 -0.77333,-22.36666 -0.95816,-47.66666 l -0.33603,-46.00001 -171.33334,-0.66666 -171.333335,-0.66667 -0.342498,-90.7155 -0.3425,-90.71549 128.116753,-141.95118 c 70.4642,-78.07315 129.08301,-142.701178 130.264,-143.617845 1.68323,-1.306484 29.10594,-1.662408 126.89243,-1.646958 106.60587,0.01684 125.98859,0.312802 133.29633,2.035338 20.31529,4.788606 35.28896,18.337185 43.2533,39.136754 l 2.8622,7.474871 0.35559,229.91184 c 0.23572,152.41526 -0.10373,232.39681 -1.00724,237.28404 -4.29077,23.21097 -21.47851,41.37112 -44.93941,47.48191 -10.39531,2.70764 -173.44526,3.00881 -174.44809,0.32222 z m -3.61747,-321.42739 c 0.33899,-82.68689 0.30971,-83.75525 -2.28316,-83.33334 -3.44052,0.55984 -148.06023,162.02451 -148.06023,165.30595 0,2.38847 2.67979,2.46467 75,2.13255 l 75.00001,-0.34444 z"
         id="path577" />
      <path
         style="fill:#000000;stroke-width:1.33333"
         d="m 404.00001,576.30379 c 0,-34.33997 -0.41681,-46.85392 -1.6,-48.03711 -1.22774,-1.22774 -41.24444,-1.6 -172,-1.6 H 60.000002 v -90.44899 -90.449 l 129.000008,-142.88942 129,-142.889411 130.00001,0.338406 130,0.338404 10.37529,4.954207 c 16.88342,8.061833 29.16863,23.390538 32.89623,41.045794 1.15071,5.45016 1.44304,66.91015 1.13839,239.33334 l -0.40991,232.00001 -2.99051,7.33333 c -6.03314,14.79454 -18.88162,27.64302 -33.67616,33.67616 -7.30426,2.97866 -7.6781,2.99198 -94.33333,3.36095 l -87.00001,0.37044 z m -4.15309,-191.45264 c 1.09284,-1.31679 1.41239,-24.66652 1.16325,-85.00001 l -0.34349,-83.18447 h -2.92208 c -2.17901,0 -21.59036,20.83332 -76.33334,81.92517 -40.37618,45.05884 -73.41125,82.90884 -73.41125,84.11111 0,1.20228 0.4,2.58596 0.88889,3.07484 0.48888,0.48889 34.31542,0.88889 75.17007,0.88889 61.04666,0 74.54964,-0.32347 75.78795,-1.81553 z"
         id="path575" />
    </g>
  </g>
</svg>
