<svg xmlns="http://www.w3.org/2000/svg" xml:space="preserve" width="192" height="192" viewBox="0 0 192 192"><path d="M58.335 175.773c-18.671-1.959-35.258-14.207-40.936-30.228-1.255-3.542-1.393-4.637-1.399-11.079-.005-5.954.183-7.741 1.13-10.698 2.872-8.966 10.746-18.632 19.128-23.48 1.433-.829 2.004-1.52 2.214-2.68 1.278-7.056 4.67-13.912 9.687-19.582 3.973-4.49 7.839-7.504 13.286-10.359 8.117-4.253 16.372-6.259 25.651-6.232 12.598.036 22.518 3.187 32.246 10.241 8.557 6.206 14.638 15.48 16.414 25.038.754 4.052.74 46.464-.015 46.464-.31 0-3.751-1.928-7.648-4.284-7.906-4.78-7.778-4.756-11.857-2.19l-2.492 1.568v18.09c0 9.95-.146 18.09-.324 18.09-.179 0-3.715-2.024-7.859-4.498l-7.534-4.498-5.63 3.161c-3.097 1.74-7.417 3.749-9.6 4.465-6.988 2.295-17.36 3.436-24.462 2.691zm13.063-15.382c5.344-.964 10.055-3.142 14.415-6.664 3.328-2.688 7.47-7.455 7.47-8.597 0-.213-3.128-.397-6.952-.407-7.557-.02-11.295-.634-17.807-2.92-5.12-1.798-11.95-5.725-15.91-9.149-3.731-3.224-9.159-9.913-10.536-12.984-.483-1.077-1.087-1.958-1.343-1.958-.899 0-4.666 5.553-5.738 8.457-2.414 6.544-1.81 13.587 1.693 19.757 1.612 2.839 2.977 4.414 6.118 7.058 8.007 6.741 17.972 9.323 28.59 7.407zm22.147-31.02c1.416-.267 1.56-.452 1.439-1.845-.185-2.111-3.271-7.306-6.007-10.112-5.489-5.628-12.866-8.978-21.462-9.746-3.304-.295-9.724.308-10.474.985-.776.7 1.734 6.044 4.415 9.4 4.3 5.384 10.891 9.376 18.186 11.015 2.948.662 11.07.84 13.903.304zm20.167-12.118c3.023-3.983 4.29-7.49 4.598-12.72.477-8.145-2.339-14.425-9.017-20.112-6.678-5.687-14.054-8.085-23.618-7.678-8.197.348-14.762 2.809-20.475 7.673-2.175 1.852-6.544 7.09-6.544 7.846 0 .179 3.718.422 8.263.54 9.494.249 12.782.933 19.933 4.146 7.42 3.334 13.925 8.08 17.875 13.041 2.465 3.097 5.863 8.54 5.867 9.399.006 1.226 1.176.424 3.118-2.135zM136.06 72.88c-3.135-9.368-11.1-16.845-21.492-20.176-4.87-1.561-11.266-2.222-15.75-1.627-2.006.266-3.748.398-3.87.293-.284-.242-3.2-10.682-3.026-10.83.508-.433 6.519-1.01 10.484-1.008 6.092.004 10.494.612 15.915 2.195 13.794 4.03 24.774 13.375 29.575 25.17l1.499 3.682-1.167.326c-4.158 1.163-12.013 2.438-12.168 1.975zm26.753-5.37c-1.227-3.68-3.89-9.599-5.353-11.898-12.679-19.915-38.912-31.113-64.438-27.506-2.309.327-4.287.525-4.396.44-.277-.213-3.162-10.654-2.985-10.804.08-.068 1.89-.401 4.025-.741 6.468-1.031 12.954-1.263 19.633-.703 30.436 2.551 55.14 19.17 64.732 43.547 1.156 2.936 2.04 5.39 1.966 5.453-.075.064-3.034.701-6.575 1.417-4.426.895-6.493 1.144-6.609.796z" style="fill:#000;fill-opacity:1;stroke:none;stroke-width:7.99999;stroke-linecap:round;stroke-linejoin:round;stroke-dasharray:none;stroke-opacity:1"/></svg>