<?xml version="1.0" encoding="UTF-8" standalone="no"?>
<!-- Created with Inkscape (http://www.inkscape.org/) -->

<svg
   width="192px"
   height="192px"
   viewBox="0 0 192 192"
   version="1.1"
   id="SVGRoot"
   sodipodi:docname="aa_wireless.svg"
   xml:space="preserve"
   inkscape:version="1.2.2 (732a01da63, 2022-12-09)"
   xmlns:inkscape="http://www.inkscape.org/namespaces/inkscape"
   xmlns:sodipodi="http://sodipodi.sourceforge.net/DTD/sodipodi-0.dtd"
   xmlns="http://www.w3.org/2000/svg"
   xmlns:svg="http://www.w3.org/2000/svg"><sodipodi:namedview
     id="namedview187"
     pagecolor="#ffffff"
     bordercolor="#666666"
     borderopacity="1.0"
     inkscape:showpageshadow="2"
     inkscape:pageopacity="0.0"
     inkscape:pagecheckerboard="0"
     inkscape:deskcolor="#d1d1d1"
     inkscape:document-units="px"
     showgrid="false"
     inkscape:current-layer="layer1"
     inkscape:zoom="0.25"
     inkscape:cx="362.5"
     inkscape:cy="362.5" /><defs
     id="defs182" /><g
     inkscape:label="Ebene 1"
     inkscape:groupmode="layer"
     id="layer1"><path
       style="fill:#000000;fill-opacity:1;stroke:none;stroke-width:7.99999;stroke-linecap:round;stroke-linejoin:round;stroke-dasharray:none;stroke-opacity:1"
       d="m 58.335075,175.77323 c -18.67131,-1.9591 -35.25779,-14.2073 -40.935631,-30.22868 -1.255108,-3.54159 -1.393424,-4.63663 -1.39934,-11.07837 -0.0051,-5.95434 0.183367,-7.74127 1.130507,-10.69835 2.871672,-8.96569 10.745647,-18.63145 19.127025,-23.47953 1.43366,-0.829279 2.003902,-1.519629 2.214249,-2.680619 1.27841,-7.056154 4.66994,-13.911681 9.687596,-19.582144 3.972961,-4.489854 7.838187,-7.503381 13.285549,-10.358087 8.116706,-4.253585 16.371609,-6.259299 25.651129,-6.23251 12.598178,0.03637 22.518131,3.186945 32.246281,10.241428 8.55699,6.205196 14.63748,15.480332 16.41402,25.037773 0.75324,4.052199 0.73939,46.464049 -0.0152,46.464049 -0.30957,0 -3.75131,-1.92782 -7.64829,-4.28402 -7.90597,-4.78014 -7.77761,-4.75643 -11.85668,-2.18983 l -2.49208,1.56807 v 18.08981 c 0,9.9494 -0.14609,18.08983 -0.32468,18.08983 -0.17855,0 -3.71483,-2.02417 -7.85839,-4.49815 l -7.533773,-4.49817 -5.63084,3.16173 c -3.096959,1.73895 -7.41656,3.74813 -9.599096,4.46488 -6.988575,2.29501 -17.361102,3.43602 -24.462396,2.69089 z m 13.063049,-15.3823 c 5.343555,-0.96421 10.055215,-3.14234 14.414502,-6.66361 3.327882,-2.68813 7.470283,-7.45538 7.470283,-8.59712 0,-0.21358 -3.128223,-0.39685 -6.951608,-0.40729 -7.557455,-0.0205 -11.295354,-0.63359 -17.807567,-2.92038 -5.119812,-1.79785 -11.948835,-5.72437 -15.910607,-9.14825 -3.730559,-3.22405 -9.157742,-9.91301 -10.535332,-12.98474 -0.48277,-1.07647 -1.086932,-1.95721 -1.34258,-1.95721 -0.898863,0 -4.666682,5.55286 -5.737951,8.45637 -2.41451,6.54417 -1.811161,13.58719 1.692487,19.7568 1.612535,2.83954 2.977573,4.4143 6.11862,7.05869 8.00707,6.741 17.972067,9.32264 28.589753,7.40674 z m 22.14711,-31.01932 c 1.416064,-0.26792 1.560377,-0.45308 1.438644,-1.84592 -0.184479,-2.1107 -3.270992,-7.30612 -6.007284,-10.11187 -5.48817,-5.62746 -12.865617,-8.97753 -21.461693,-9.74573 -3.30411,-0.29528 -9.72432,0.30833 -10.473987,0.98471 -0.775746,0.69992 1.734178,6.04408 4.414963,9.40038 4.300361,5.38401 10.891283,9.37595 18.186141,11.01484 2.947684,0.66223 11.070036,0.83959 13.903216,0.30359 z m 20.167116,-12.11822 c 3.02303,-3.98291 4.29054,-7.49022 4.59718,-12.72077 0.47745,-8.144259 -2.3382,-14.424594 -9.01658,-20.111632 -6.67841,-5.687038 -14.053525,-8.084721 -23.617468,-7.678148 -8.19725,0.348488 -14.762854,2.809047 -20.475148,7.673384 -2.175116,1.852237 -6.544308,7.090557 -6.544308,7.846111 0,0.17827 3.718457,0.421405 8.263234,0.540307 9.494129,0.248385 12.781834,0.932092 19.933142,4.145269 7.419759,3.333809 13.924138,8.079419 17.874288,13.041119 2.4656,3.097 5.86317,8.53963 5.86711,9.39868 0.006,1.22591 1.17622,0.42476 3.11855,-2.13432 z m 22.34683,-44.374158 c -3.13546,-9.368587 -11.09991,-16.845615 -21.49179,-20.176475 -4.86964,-1.560851 -11.26603,-2.221508 -15.751233,-1.626883 -2.00538,0.265864 -3.746723,0.397718 -3.869689,0.293014 -0.283802,-0.241681 -3.199772,-10.681991 -3.025029,-10.830798 0.507837,-0.432449 6.518588,-1.009868 10.483291,-1.007071 6.09251,0.0044 10.49473,0.611547 15.91567,2.195412 13.79371,4.030177 24.77362,13.374792 29.57468,25.169988 l 1.49859,3.681705 -1.16708,0.326313 c -4.15731,1.162349 -12.01264,2.437285 -12.16741,1.974795 z m 26.75319,-5.369379 c -1.22687,-3.680729 -3.88986,-9.599384 -5.35348,-11.898505 -12.6784,-19.915783 -38.91157,-31.1136 -64.438307,-27.505952 -2.30846,0.326253 -4.286353,0.524489 -4.395331,0.440528 -0.277225,-0.213585 -3.161973,-10.654812 -2.985335,-10.805235 0.07931,-0.06752 1.890412,-0.401021 4.024729,-0.741125 6.468201,-1.030701 12.954744,-1.262953 19.633614,-0.70299 30.43603,2.551804 55.13964,19.170549 64.73219,43.547031 1.1554,2.936084 2.03972,5.390279 1.96516,5.453768 -0.0746,0.0635 -3.03334,0.701098 -6.57508,1.4169 -4.42559,0.894436 -6.49226,1.143252 -6.60816,0.79558 z"
       id="path456" /></g></svg>
