<?xml version="1.0" encoding="UTF-8" standalone="no"?>
<!-- Created with Inkscape (http://www.inkscape.org/) -->

<svg
   width="192px"
   height="192px"
   viewBox="0 0 192 192"
   version="1.1"
   id="SVGRoot"
   sodipodi:docname="acalendar_store.svg"
   inkscape:version="1.2.2 (732a01da63, 2022-12-09)"
   xmlns:inkscape="http://www.inkscape.org/namespaces/inkscape"
   xmlns:sodipodi="http://sodipodi.sourceforge.net/DTD/sodipodi-0.dtd"
   xmlns="http://www.w3.org/2000/svg"
   xmlns:svg="http://www.w3.org/2000/svg">
  <sodipodi:namedview
     id="namedview1256"
     pagecolor="#ffffff"
     bordercolor="#666666"
     borderopacity="1.0"
     inkscape:showpageshadow="2"
     inkscape:pageopacity="0.0"
     inkscape:pagecheckerboard="0"
     inkscape:deskcolor="#d1d1d1"
     inkscape:document-units="px"
     showgrid="false"
     inkscape:zoom="1"
     inkscape:cx="96.5"
     inkscape:cy="96"
     inkscape:current-layer="layer1" />
  <defs
     id="defs1251" />
  <g
     inkscape:label="Ebene 1"
     inkscape:groupmode="layer"
     id="layer1">
    <path
       style="fill:none;fill-opacity:1;stroke:#000000;stroke-width:8.00002;stroke-linecap:round;stroke-linejoin:round;stroke-dasharray:none;stroke-opacity:1"
       d="m 32.60186,171.63026 c -2.665625,-0.54196 -7.114417,-3.22334 -9.100227,-5.48486 -0.834451,-0.95033 -1.980193,-2.83956 -2.546101,-4.1983 -1.020499,-2.45025 -1.027825,-2.93235 -0.896095,-59.03323 l 0.132747,-56.562799 1.236545,-2.25042 c 1.585972,-2.88637 5.09334,-6.03819 8.282762,-7.44314 2.174729,-0.95798 3.345899,-1.12459 8.881134,-1.2634 l 6.376085,-0.15991 0.137102,-7.49395 0.137091,-7.49395 8.642531,-0.12314 8.642543,-0.12315 v 7.66203 7.66202 h 33.568084 33.568089 v -7.65139 -7.6514 h 8.51728 8.51726 v 7.60724 7.60723 l 6.63848,0.15756 c 5.65076,0.13411 6.97956,0.30842 8.93089,1.17151 3.52283,1.55815 6.12693,3.81308 8.01355,6.93904 l 1.71841,2.84723 v 57.160419 57.16044 l -1.29979,2.47545 c -1.64567,3.13414 -4.75188,5.92068 -8.38802,7.52479 l -2.83759,1.25182 -62.376519,0.0686 c -38.229984,0.0421 -63.197148,-0.0982 -64.496386,-0.36237 z M 73.840377,151.942 c 6.648234,-2.71252 6.713865,-11.16549 0.110781,-14.26443 -2.161808,-1.01457 -6.465122,-0.81689 -8.456159,0.38845 -2.757466,1.66935 -3.969163,3.6798 -3.967007,6.58204 0.0033,6.09083 6.226765,9.77691 12.312408,7.29394 z m 55.122513,-0.52457 c 2.23766,-1.24235 3.82313,-4.0374 3.82313,-6.73982 0,-4.49847 -3.54646,-7.63498 -8.63288,-7.63498 -2.96154,0 -4.87753,0.76883 -6.661,2.67289 -3.75599,4.00995 -2.45834,9.76605 2.73716,12.14143 2.63579,1.20508 6.084,1.03154 8.73359,-0.43952 z m 3.74604,-19.29109 c 1.14732,-1.03067 1.46452,-1.71946 1.46452,-3.18016 0,-1.0255 -0.2436,-2.27345 -0.54134,-2.77322 -1.2748,-2.13983 -1.94177,-2.18272 -33.947979,-2.18272 H 69.671776 l -0.335358,-2.81301 c -0.18444,-1.54716 -0.464106,-3.47126 -0.621488,-4.27578 l -0.28612,-1.46277 h 30.434351 c 21.647719,0 30.994689,-0.1508 32.375119,-0.52235 2.74128,-0.73781 5.66531,-3.15278 7.14719,-5.90291 1.12266,-2.08348 1.46859,-4.09327 3.03664,-17.642589 2.1925,-18.9452 2.19081,-18.83094 0.30511,-20.52491 -2.41264,-2.16739 -6.52432,-1.6342 -8.12565,1.05371 -0.31878,0.5351 -1.4299,8.13036 -2.46918,16.87835 -1.09801,9.24253 -2.14179,16.178469 -2.4917,16.557209 -0.51357,0.5559 -5.08514,0.65177 -31.080079,0.65177 h -30.47792 l -0.283987,-1.46277 c -0.50968,-2.62528 -5.272611,-33.627949 -5.272611,-34.320179 0,-0.56932 -1.205845,-0.67372 -7.781848,-0.67372 -10.528136,0 -12.258794,0.69124 -12.258794,4.89622 0,1.25788 0.365934,2.18751 1.207565,3.06764 1.099599,1.14989 1.580199,1.28295 5.374011,1.48787 l 4.166424,0.22504 1.560678,9.9018 c 0.858383,5.446 2.761889,17.648859 4.230023,27.117469 l 2.669344,17.21564 H 95.968961 131.24444 Z M 111.5553,84.045441 124.66579,70.430451 h -7.52108 -7.52106 v -9.90179 -9.90181 H 97.098261 84.572832 v 9.88978 9.88977 l -7.345862,0.12455 -7.345861,0.12456 8.68758,9.00163 c 18.109322,18.764 18.613242,19.25053 19.268802,18.60308 0.33404,-0.32988 6.507039,-6.72653 13.717809,-14.21478 z"
       id="path262" />
  </g>
</svg>
