<svg xmlns="http://www.w3.org/2000/svg" width="192" height="192" viewBox="0 0 192 192"><path d="M32.602 171.63c-2.666-.542-7.115-3.223-9.1-5.485-.835-.95-1.98-2.84-2.546-4.198-1.021-2.45-1.028-2.932-.897-59.033l.133-56.563 1.237-2.25c1.586-2.887 5.093-6.039 8.282-7.443 2.175-.958 3.346-1.125 8.882-1.264l6.376-.16.137-7.494.137-7.494 8.642-.123L62.528 20v15.324h67.136V20.021H146.7v15.215l6.638.157c5.65.134 6.98.309 8.931 1.172 3.523 1.558 6.127 3.813 8.014 6.939L172 46.35v114.32l-1.3 2.476c-1.645 3.135-4.752 5.921-8.388 7.525l-2.837 1.252-62.377.069c-38.23.042-63.197-.099-64.496-.363zm41.238-19.688c6.649-2.713 6.714-11.165.111-14.264-2.162-1.015-6.465-.817-8.456.388-2.757 1.67-3.97 3.68-3.967 6.582.003 6.09 6.227 9.777 12.312 7.294zm55.123-.525c2.238-1.242 3.823-4.037 3.823-6.74 0-4.498-3.546-7.634-8.633-7.634-2.961 0-4.877.768-6.66 2.673-3.757 4.01-2.46 9.766 2.736 12.14 2.636 1.206 6.084 1.032 8.734-.439zm3.746-19.29c1.147-1.031 1.464-1.72 1.464-3.18 0-1.026-.243-2.274-.54-2.774-1.276-2.14-1.943-2.183-33.949-2.183H69.672l-.336-2.813c-.184-1.547-.464-3.471-.621-4.276l-.286-1.462h30.434c21.648 0 30.995-.151 32.375-.523 2.742-.737 5.666-3.152 7.147-5.903 1.123-2.083 1.47-4.093 3.037-17.642 2.193-18.945 2.19-18.831.305-20.525-2.412-2.167-6.524-1.634-8.125 1.054-.32.535-1.43 8.13-2.47 16.878-1.098 9.243-2.141 16.178-2.491 16.557-.514.556-5.085.652-31.08.652H67.083l-.284-1.463c-.51-2.625-5.273-33.628-5.273-34.32 0-.57-1.206-.674-7.782-.674-10.528 0-12.259.692-12.259 4.897 0 1.257.366 2.187 1.208 3.067 1.1 1.15 1.58 1.283 5.374 1.488l4.166.225 1.561 9.902c.859 5.446 2.762 17.649 4.23 27.117l2.67 17.216h70.55Zm-21.154-48.082 13.11-13.615h-15.041V50.627H84.573v19.78l-7.346.124-7.346.125 8.688 9.001c18.109 18.764 18.613 19.25 19.268 18.603.335-.33 6.508-6.726 13.718-14.215z" style="fill:none;fill-opacity:1;stroke:#000;stroke-width:8.00002;stroke-linecap:round;stroke-linejoin:round;stroke-dasharray:none;stroke-opacity:1"/></svg>