<svg xmlns="http://www.w3.org/2000/svg" viewBox="0 0 192 192"><path fill="none" stroke="#000" stroke-linecap="round" stroke-linejoin="round" stroke-width="8" d="M95.234 146.636c-3.657 0-7.167.748-9.753 2.078-2.586 1.329-4.04 3.135-4.04 5.016 0 1.88 1.454 3.686 4.04 5.016 2.586 1.329 6.096 2.077 9.753 2.077 3.656 0 7.167-.748 9.753-2.077 2.585-1.33 4.039-3.136 4.039-5.016 0-1.881-1.454-3.687-4.039-5.016-2.586-1.33-6.097-2.078-9.753-2.078Z"/><path fill="none" stroke="#000" stroke-linecap="round" stroke-linejoin="round" stroke-width="8" d="M86.422 132.693h18.237c4.674 7.175 10.497 8.154 21.915 6.564l8.965 8.153c-11.417 3.833-12.107 8.847 0 13.78l-8.352 7.379c-15.709-3.139-21.379-.244-22.528 6.931H86.422c-1.226-8.154-9.808-9.377-22.988-6.931l-8.812-7.664c11.724-4.648 10.958-9.214 0-13.698l9.502-8.48c12.413 2.12 20.842.571 22.298-6.034Zm9.042-9.703 15.325-13.943c1.088-1.646 1.087-3.441-.002-5.087-1.088-1.646-3.201-3.046-5.987-3.966-2.786-.921-6.081-1.308-9.336-1.098-3.197-.189-6.419.227-9.098 1.173-2.68.947-4.65 2.366-5.564 4.006-.914 1.641-.715 3.402.563 4.972ZM59.986 45a537.494 537.494 0 0 1 71.185 0c2.545 15.757-.021 31.63-7.586 46.924a583.416 583.416 0 0 0-55.17 0c-8.837-15.139-11.706-31.087-8.429-46.843Z"/><path fill="none" stroke="#000" stroke-linecap="round" stroke-linejoin="round" stroke-width="8" d="M131.171 45c-6.519-9.686-16.601-18.584-29.654-26.174-5.824-2.894-6.666-3.302-12.183 0C76.294 26.392 66.305 35.3 59.986 45m63.599 46.924a198.945 198.945 0 0 1 21.915 3.14c-.46-5.626-2.912-12.231-17.394-14.351m-64.978 0C48.646 82.711 46.96 89.356 46.5 94.982a199.873 199.873 0 0 1 21.915-3.058"/></svg>