<svg xmlns="http://www.w3.org/2000/svg" viewBox="0 0 192 192"><path d="M96 16.5a58.222 58.222 0 0 0-34.144 10.92 57.546 57.546 0 0 0-21.122 28.787 57.13 57.13 0 0 0 0 35.615 57.548 57.548 0 0 0 21.122 28.786A58.215 58.215 0 0 0 96 131.528a58.215 58.215 0 0 0 34.144-10.92 57.548 57.548 0 0 0 21.122-28.786 57.13 57.13 0 0 0 0-35.615 57.546 57.546 0 0 0-21.122-28.787A58.222 58.222 0 0 0 96 16.5Z" fill="none" stroke="#000" stroke-width="8" stroke-linecap="round" stroke-linejoin="round"/><path d="M70.651 67.773c-2.113 0-4.142.916-5.636 2.545-1.494 1.629-2.335 3.84-2.335 6.144 0 2.303.841 4.514 2.335 6.143 1.494 1.629 3.523 2.545 5.636 2.545s4.142-.916 5.636-2.545c1.494-1.629 2.334-3.84 2.334-6.143 0-2.304-.84-4.515-2.334-6.144-1.494-1.629-3.523-2.545-5.636-2.545Zm50.698 0c-2.113 0-4.142.916-5.636 2.545-1.494 1.629-2.334 3.84-2.334 6.144 0 2.303.84 4.514 2.334 6.143 1.494 1.629 3.523 2.545 5.636 2.545s4.142-.916 5.636-2.545c1.494-1.629 2.335-3.84 2.335-6.143 0-2.304-.841-4.515-2.335-6.144-1.494-1.629-3.523-2.545-5.636-2.545Z" fill="none" stroke="#000" stroke-width="8" stroke-linecap="round" stroke-linejoin="round"/><path d="M96 52.151c26.582 0 47.288 8.158 47.288 27.737 0 13.094-7.6 16.969-17.502 16.969-8.751 0-16.434-5.099-29.786-5.099s-21.035 5.099-29.786 5.099c-9.902 0-17.502-3.875-17.502-16.969 0-19.457 20.706-27.737 47.288-27.737Zm43.18 76.522c0 15.704-35.333 46.827-43.18 46.827-7.847 0-43.18-31.041-43.18-46.827" fill="none" stroke="#000" stroke-width="8" stroke-linecap="round" stroke-linejoin="round"/></svg>