<svg xmlns="http://www.w3.org/2000/svg" viewBox="0 0 192 192"><path fill="none" stroke="#000" stroke-linecap="round" stroke-linejoin="round" stroke-width="8" d="M174.094 84.3c.001 26.858-16.176 51.072-40.989 61.35-24.819 10.288-53.39 4.607-72.385-14.393-19-18.995-24.681-47.567-14.393-72.385 10.278-24.813 34.491-40.991 61.349-40.99"/><path fill="none" stroke="#000" stroke-linecap="round" stroke-linejoin="round" stroke-width="8" d="M174.515 83.552c5.395 34.02-11.734 67.644-42.425 83.28-30.686 15.638-67.952 9.737-92.305-14.617C15.431 127.862 9.53 90.596 25.168 59.91c15.637-30.691 49.26-47.82 83.28-42.425m-4.962 65.413 41.149 24.782m-36.94-16.366.409-58.964m55.376 18.798-10.049-5.925-9.979 5.789 2.53-11.391-8.589-7.701 11.615-1.114 4.671-10.549 4.648 10.704 11.475 1.181-8.74 7.73 2.418 11.275Z"/></svg>