<svg xmlns="http://www.w3.org/2000/svg" viewBox="0 0 192 192"><path d="M68.355 175.688c-6.713-.778-13.319-4.085-17.165-8.593-5.449-6.389-6.192-14.963-1.874-21.643.683-1.056 3.56-4.372 6.395-7.371 9.766-10.329 8.541-8.62 14.051-19.603 5.675-11.313 7.356-14.28 10.401-18.353 5.173-6.918 10.387-10.093 16.481-10.036 4.867.047 8.966 1.938 12.909 5.957 3.852 3.926 5.199 6.158 12.389 20.522 2.845 5.685 5.669 11.024 6.275 11.865.605.841 2.96 3.49 5.233 5.888a879.382 879.382 0 0 1 6.845 7.302c4.177 4.532 5.967 8.513 5.967 13.271 0 10.606-9.506 19.508-22.223 20.813-3.87.398-5.091.264-10.22-1.114-5.348-1.437-8.832-2.044-13.361-2.327-7.206-.451-16.358.583-22.188 2.505-1.809.596-5.884 1.301-7.071 1.223a114.74 114.74 0 0 1-2.844-.306Zm-16.113-49.444c-3.323-1.747-6.952-6.252-9.655-11.985-2.953-6.263-3.83-9.935-3.83-16.037 0-10.781 3.98-18.867 9.285-18.867 5.042 0 15.151 8.828 19.301 16.857 2.146 4.152 2.825 7.2 2.169 9.728-.234.905-1.484 3.238-2.966 5.539-2.982 4.628-3.768 6.076-5.517 10.161-.708 1.652-1.607 3.348-1.999 3.767-1.747 1.871-4.237 2.178-6.788.837Zm82.064.24c-1.413-.893-2.171-1.978-3.325-4.759-1.528-3.681-2.725-5.951-4.901-9.292-3.642-5.592-3.767-5.865-3.767-8.234 0-7.474 8.697-19.048 17.746-23.615 2.218-1.12 2.757-1.268 4.196-1.153 4.1.327 7.188 4.859 8.521 12.507.628 3.598.622 9.672-.013 12.743-1.771 8.577-7.139 17.846-12.225 21.109-2.067 1.327-4.755 1.626-6.232.694ZM74.698 90.625c-2.633-.722-4.933-2.231-7.969-5.227-3.069-3.029-5.511-6.556-7.029-10.152-1.316-3.119-1.56-6.827-.747-11.395 2.06-11.59 10.381-26.557 17.351-31.212 2.502-1.67 3.999-2.088 5.789-1.615 1.92.507 4.833 3.563 6.355 6.665 2.277 4.642 2.271 4.588 2.316 20.355.025 8.855.179 15.166.413 16.858.705 5.104.309 8.99-1.07 10.514-.296.327-2.274 1.267-4.395 2.089-2.122.822-4.663 1.901-5.646 2.397-2.335 1.178-3.255 1.302-5.368.723Zm37.213-1.043c-1.837-.85-4.27-1.853-5.407-2.23-1.137-.376-2.508-.953-3.047-1.282-2.12-1.293-2.752-4.73-2.007-10.904.303-2.51.441-7.803.453-17.44.02-15.418.014-15.366 2.297-20.037a16.451 16.451 0 0 1 3.109-4.346c3.127-3.154 5.131-3.313 9.021-.716 6.999 4.674 15.303 19.601 17.369 31.224.822 4.624.572 8.269-.789 11.495-2.68 6.354-8.788 13.003-13.612 14.819-3.088 1.163-3.723 1.113-7.387-.583ZM42.71 77.685c.12-.744.433-2.781.695-4.527.514-3.424 1.107-5.053 2.66-7.31 1.132-1.646 1.817-1.831 2.098-.568.958 4.302 1.946 7.272 3.176 9.548 1.628 3.011 1.522 3.255-1.139 2.616-2.035-.488-4.076-.189-5.553.814-1.757 1.192-2.2 1.061-1.937-.573Zm104.826.728c-1.446-1.111-3.323-1.437-5.628-.979-2.498.497-3.042.196-2.088-1.156 1.631-2.311 2.823-5.562 4.033-10.998.293-1.318.95-1.062 2.233.872 1.651 2.487 2.021 3.532 2.554 7.225.26 1.801.565 3.811.679 4.467.178 1.03.125 1.192-.392 1.185-.329-.004-.955-.281-1.391-.616Zm-63.889-49.34c-2.114-1.148-3.224-1.163-5.374-.075-2.258 1.142-2.595.779-1.562-1.684.431-1.029.999-2.6 1.262-3.491.73-2.474 1.727-4.21 3.485-6.069 1.723-1.822 2.463-2.116 2.464-.978.001 2.561.773 7.959 1.434 10.031 1.19 3.725 1.128 3.807-1.709 2.266Zm22.793.812c-.094-.094.258-1.414.782-2.933.8-2.321.978-3.413 1.117-6.827.187-4.626.389-4.885 2.42-3.102 1.664 1.461 2.963 3.716 4.142 7.188.587 1.727 1.252 3.538 1.479 4.024.703 1.506.013 1.745-2.189.757-2.371-1.064-2.727-1.057-5.018.105-1.876.951-2.415 1.106-2.733.788Z"/></svg>