<svg xmlns="http://www.w3.org/2000/svg" viewBox="0 0 192 192"><path d="M97.13 145.386a18.414 18.414 0 0 0 8.564 9.884 18.271 18.271 0 0 0 12.935 1.669 18.348 18.348 0 0 0 10.772-7.389 18.508 18.508 0 0 0 3.164-12.713 18.465 18.465 0 0 0-6.042-11.614 18.299 18.299 0 0 0-12.194-4.647h-85.61M72.671 46.61a18.41 18.41 0 0 1 8.563-9.881 18.274 18.274 0 0 1 12.934-1.668 18.347 18.347 0 0 1 10.769 7.388 18.51 18.51 0 0 1 3.164 12.711 18.468 18.468 0 0 1-6.04 11.613 18.298 18.298 0 0 1-12.192 4.646H16.488m123.445-.23a18.41 18.41 0 0 1 8.563-9.881 18.269 18.269 0 0 1 12.934-1.668 18.35 18.35 0 0 1 10.769 7.387 18.51 18.51 0 0 1 3.164 12.711 18.465 18.465 0 0 1-6.04 11.613 18.296 18.296 0 0 1-12.191 4.647H22.601" fill="none" stroke="#000" stroke-width="12" stroke-linecap="round" stroke-linejoin="round"/></svg>