<svg
    xmlns="http://www.w3.org/2000/svg"
    viewBox="0 0 192 192"
    id="vector">
    <path
        id="path"
        d="M 97.13 145.386 C 98.683 149.622 101.732 153.141 105.694 155.27 C 109.655 157.399 114.261 157.993 118.629 156.939 C 122.998 155.885 126.833 153.255 129.401 149.55 C 131.969 145.846 133.095 141.32 132.565 136.837 C 132.035 132.354 129.884 128.219 126.523 125.223 C 123.163 122.226 118.821 120.572 114.329 120.576 L 28.719 120.576 M 72.671 46.61 C 74.224 42.375 77.273 38.857 81.234 36.729 C 85.196 34.601 89.8 34.007 94.168 35.061 C 98.536 36.115 102.369 38.745 104.937 42.449 C 107.504 46.153 108.631 50.678 108.101 55.16 C 107.571 59.642 105.421 63.777 102.061 66.773 C 98.701 69.769 94.361 71.423 89.869 71.419 L 16.488 71.419 M 139.933 71.189 C 141.486 66.954 144.535 63.436 148.496 61.308 C 152.458 59.179 157.062 58.586 161.43 59.64 C 165.798 60.694 169.631 63.324 172.199 67.027 C 174.766 70.731 175.893 75.256 175.363 79.738 C 174.833 84.221 172.683 88.355 169.323 91.351 C 165.964 94.347 161.623 96.002 157.132 95.998 L 22.601 95.998"
        fill="none"
        stroke="#000000"
        stroke-width="12"
        stroke-linecap="round"
        stroke-linejoin="round"/>
</svg>
