<svg xmlns="http://www.w3.org/2000/svg" viewBox="0 0 192 192"><path d="M96 16.5c44.002 0 79.5 35.498 79.5 79.5s-35.498 79.5-79.5 79.5S16.5 140.002 16.5 96 51.998 16.5 96 16.5Z" fill="none" stroke="#000" stroke-width="12" stroke-linecap="round" stroke-linejoin="round" stroke-miterlimit="90"/><path d="M96 33.14c34.758 0 62.86 28.102 62.86 62.86 0 34.758-28.102 62.86-62.86 62.86-34.758 0-62.86-28.102-62.86-62.86 0-34.758 28.102-62.86 62.86-62.86Z" fill="none" stroke="#000" stroke-width="12" stroke-linecap="round" stroke-linejoin="round" stroke-miterlimit="90"/><path d="M128.17 100.807c2.588-.74 4.437-3.328 3.697-5.916a4.748 4.748 0 0 0-3.697-3.698L77.881 62.351c-2.588-.739-5.176.74-5.916 3.328 0 .37-.37 1.109-.37 1.849v57.684c0 2.588 1.849 4.807 4.438 5.176.739 0 1.109 0 1.848-.369Z" fill="none" stroke="#000" stroke-width="12" stroke-linecap="round" stroke-linejoin="round" stroke-miterlimit="90"/></svg>