<svg
    xmlns="http://www.w3.org/2000/svg"
    viewBox="0 0 192 192"
    id="vector">
    <path
        id="path"
        d="M 113.626 106.606 L 96.15 116.696 M 95.521 80.055 L 95.521 136.992 M 131.817 137.844 L 59.196 137.844 M 94.851 116.225 L 75.879 105.271 M 96 16.5 C 74.923 16.5 54.688 24.882 39.785 39.785 C 24.882 54.688 16.5 74.923 16.5 96 C 16.5 117.077 24.882 137.312 39.785 152.215 C 54.688 167.118 74.923 175.5 96 175.5 C 117.077 175.5 137.312 167.118 152.215 152.215 C 167.118 137.312 175.5 117.077 175.5 96 C 175.5 74.923 167.118 54.688 152.215 39.785 C 137.312 24.882 117.077 16.5 96 16.5 Z"
        fill="none"
        stroke="#000000"
        stroke-width="12"
        stroke-linecap="round"
        stroke-linejoin="round"/>
    <path
        id="path_1"
        d="M 84.26 52.674 L 95.572 41.362 L 106.23 52.02 M 106.635 52.462 C 106.647 52.475 106.66 52.488 106.672 52.502 C 112.835 58.645 112.87 68.601 106.727 74.764 C 106.715 74.776 106.703 74.789 106.672 74.782 C 100.52 80.935 90.544 80.935 84.392 74.782 C 78.366 68.757 78.224 59.032 84.071 52.832 M 46.537 101.948 L 42.396 86.495 L 56.955 82.594 M 57.54 82.466 C 57.557 82.461 57.574 82.457 57.591 82.452 C 65.995 80.2 74.634 85.188 76.886 93.592 C 79.138 101.997 74.15 110.635 65.746 112.887 C 57.515 115.093 49.021 110.354 46.576 102.19 M 133.929 82.558 L 149.228 87.235 L 144.821 101.649 M 144.621 102.214 C 144.615 102.23 144.609 102.246 144.603 102.263 C 142.059 110.584 133.251 115.267 124.931 112.723 C 116.61 110.179 111.927 101.372 114.471 93.051 C 116.962 84.901 125.482 80.21 133.701 82.462"
        fill="none"
        stroke="#000000"
        stroke-width="12"
        stroke-linecap="round"
        stroke-linejoin="round"/>
</svg>
