<svg xmlns="http://www.w3.org/2000/svg" viewBox="0 0 192 192"><path d="m113.626 106.606-17.476 10.09m-.629-36.641v56.937m36.296.852H59.196m35.655-21.619-18.972-10.954M96 16.5a79.529 79.529 0 0 0-56.215 23.285A79.529 79.529 0 0 0 16.5 96a79.529 79.529 0 0 0 23.285 56.215A79.529 79.529 0 0 0 96 175.5a79.529 79.529 0 0 0 56.215-23.285A79.529 79.529 0 0 0 175.5 96a79.529 79.529 0 0 0-23.285-56.215A79.529 79.529 0 0 0 96 16.5Z" fill="none" stroke="#000" stroke-width="12" stroke-linecap="round" stroke-linejoin="round"/><path d="m84.26 52.674 11.312-11.312L106.23 52.02m.405.442.037.04c6.163 6.143 6.198 16.099.055 22.262-.012.012-.024.025-.055.018-6.152 6.153-16.128 6.153-22.28 0-6.026-6.025-6.168-15.75-.321-21.95m-37.534 49.116-4.141-15.453 14.559-3.901m.585-.128.051-.014c8.404-2.252 17.043 2.736 19.295 11.14 2.252 8.405-2.736 17.043-11.14 19.295-8.231 2.206-16.725-2.533-19.17-10.697m87.353-19.632 15.299 4.677-4.407 14.414m-.2.565-.018.049c-2.544 8.321-11.352 13.004-19.672 10.46-8.321-2.544-13.004-11.351-10.46-19.672 2.491-8.15 11.011-12.841 19.23-10.589" fill="none" stroke="#000" stroke-width="12" stroke-linecap="round" stroke-linejoin="round"/></svg>