<svg xmlns="http://www.w3.org/2000/svg" viewBox="0 0 192 192"><path d="M18.615 171.3c-1.564-1.095-2.615-3.063-2.615-4.894 0-3.206 21.977-39.748 26.186-43.54 2.154-1.941 5.883-2.067 53.065-1.795 27.912.161 51.931.565 53.375.899 1.444.334 3.377 2.055 4.296 3.825.918 1.77 6.487 10.875 12.374 20.233 11.588 18.421 12.746 22.182 7.82 25.409-3.834 2.512-6.581 1.458-12.019-4.612-9.538-10.646-23.987-19.353-40.391-24.341-12.683-3.856-36.673-3.865-49.412-.018-14.371 4.34-26.408 11.288-37.259 21.51-5.346 5.035-10.414 9.155-11.263 9.155-.848 0-2.719-.824-4.157-1.831Zm30.647-59.478c-4.493-1.298-6.696-4.802-5.647-8.981.416-1.656 3.562-7.828 6.992-13.714s13.267-22.878 21.86-37.761c8.593-14.882 16.702-28.25 18.019-29.705 2.639-2.918 7.544-3.469 10.474-1.177 3.604 2.819 32.687 54.654 32.687 58.259 0 6.528-3.169 7.867-19.734 8.338-17.371.494-23.323-.789-25.078-5.406-2.465-6.482 3.005-12.073 11.811-12.073 6.721 0 7.686-5.025 2.528-13.159-6.672-10.521-9.161-9.59-18.597 6.956-3.987 6.99-7.782 14.112-8.434 15.826-1.7 4.473.395 10.939 4.492 13.855 3.175 2.261 5.061 2.404 31.782 2.404 22.629 0 29.083.35 31.734 1.721 5.744 2.97 6.58 9.642 1.69 13.488-3.018 2.374-4.275 2.435-47.941 2.332-24.663-.058-46.55-.6-48.638-1.203Z"/></svg>