<svg xmlns="http://www.w3.org/2000/svg" viewBox="0 0 192 192"><path d="M79.912 56.613a5.637 5.637 0 0 1-3.543-1.217 5.58 5.58 0 0 1-1.986-3.162 5.556 5.556 0 0 1 .457-3.699 5.61 5.61 0 0 1 2.695-2.591 5.655 5.655 0 0 1 3.734-.33 5.623 5.623 0 0 1 3.113 2.078 5.564 5.564 0 0 1-.602 7.351 5.638 5.638 0 0 1-3.868 1.57Zm32.541 0a5.64 5.64 0 0 1-3.544-1.217 5.562 5.562 0 0 1-1.529-6.861 5.616 5.616 0 0 1 2.696-2.591 5.655 5.655 0 0 1 3.734-.33 5.627 5.627 0 0 1 3.113 2.078 5.564 5.564 0 0 1-.602 7.351 5.638 5.638 0 0 1-3.868 1.57Z" fill="none" stroke="#000" stroke-width="8" stroke-linecap="round" stroke-linejoin="round"/><path d="M56.055 71.105v-9.086a39.437 39.437 0 0 1 5.37-19.859 39.747 39.747 0 0 1 14.662-14.508 40.05 40.05 0 0 1 20.004-5.246c6.996 0 13.869 1.83 19.927 5.307a39.733 39.733 0 0 1 14.587 14.5 39.426 39.426 0 0 1 5.34 19.806v9.086M61.722 16.5l10.055 12.266M130.552 16.5l-10.329 12.266" fill="none" stroke="#000" stroke-width="8" stroke-linecap="round" stroke-linejoin="round"/><path d="M35.443 59.657V143.7a12.744 12.744 0 0 0 3.693 7.686 12.888 12.888 0 0 0 7.733 3.671h93.692V93.729h4.57a12.894 12.894 0 0 0 7.733-3.671 12.75 12.75 0 0 0 3.693-7.687 12.744 12.744 0 0 0-3.693-7.686 12.894 12.894 0 0 0-7.733-3.671H46.869a12.883 12.883 0 0 1-7.733-3.671 12.744 12.744 0 0 1-3.693-7.686 12.744 12.744 0 0 1 3.693-7.686 12.888 12.888 0 0 1 7.733-3.671h11.197" fill="none" stroke="#000" stroke-width="8" stroke-linecap="round" stroke-linejoin="round"/><path d="M140.561 155.057V175.5h4.57a12.888 12.888 0 0 0 7.733-3.671 12.744 12.744 0 0 0 3.693-7.686V82.371M96 96c-2.423 0-4.75.958-6.464 2.661a9.064 9.064 0 0 0-2.677 6.425c0 2.409.964 4.721 2.677 6.424A9.172 9.172 0 0 0 96 114.172c2.423 0 4.75-.958 6.464-2.662a9.061 9.061 0 0 0 2.677-6.424 9.064 9.064 0 0 0-2.677-6.425A9.176 9.176 0 0 0 96 96Zm-.001-1.305v-8.822" fill="none" stroke="#000" stroke-width="8" stroke-linecap="round" stroke-linejoin="round"/><path d="m123.422 170.957-27.423-56.786-27.421 56.786" fill="none" stroke="#000" stroke-width="8" stroke-linecap="round" stroke-linejoin="round"/></svg>