<svg xmlns="http://www.w3.org/2000/svg" viewBox="0 0 1204 1024"><path d="m925.15 180.72 124.83-120.18a35.195 35.195 0 0 0 8.183-34.56 35.204 35.204 0 0 0-9.783-15.58l-.81-.8c-14.4-12.75-36.01-12.75-51.2 0L861.93 139.34c-168.03-93.92-373.67-93.92-541.69 0L185.01 9.6C169.81-3.93 145.8-3.13 131.4 12c-12.81 13.53-12.81 35.02 0 49.34l124.82 119.38C126.01 277.63 48.99 429.68 48.19 591.44c0 19.89 16.81 35.01 36.01 35.01h1012.18c20.01 0 36.02-15.12 36.02-35.02-.8-161.58-77.62-313.61-207.24-410.71ZM402.36 380.77c-28.91-.8-52.2-24.59-51.4-53.93.81-28.55 24.9-51.56 54.62-50.76 28.1.8 51.39 23.79 51.39 52.35-.8 30.13-24.89 53.13-54.61 52.34Zm399.14 0c-28.91.8-53.01-21.42-54.61-50.76-.81-28.55 21.68-52.34 51.4-53.93h3.2c28.91-.8 53.01 21.42 54.62 50.76.8 28.55-21.68 52.34-51.4 53.93h-3.22Zm-156.69 415.9c-14.12-1.57-29.12-1.57-43.25-1.57h-22.92c-.89 10.99 0 22.77 0 33.76V843h19.4c15.9.78 31.78 0 47.66-2.36 14.12-4.71 20.3-18.84 15-31.41-2.65-5.49-8.82-10.2-15.88-12.56Zm-251.29 70.27h35.35c-6.42-14.28-12.05-29.35-17.67-44.42-5.61 15.07-12.05 30.14-17.66 44.42Zm714.78-168.2H96.37C44.17 697.93.81 739.59 0 792.46v137.8c.81 52.07 44.17 94.53 96.37 93.72h1011.92c52.2.81 95.57-40.85 96.37-92.93l.01-139.37c-.81-52.08-44.18-93.72-96.37-92.93ZM514 960.53c-1.62 2.39-3.22 3.17-5.63 3.98-9.64.78-20.08 1.57-29.72.78h-3.2c-3.22 0-5.63-1.59-7.23-4.76-4.02-9.52-8.03-18.24-11.25-27.75-3.2-8.72-6.42-17.46-10.43-25.38-11.25-.8-21.68-.8-33.73-.8h-33.73c-2.41 5.55-4.03 11.11-6.43 16.66a451.462 451.462 0 0 1-13.65 34.9 9.61 9.61 0 0 1-4.01 3.96c-4.82 2.37-10.44 3.17-15.26 3.17h-8.03c-3.2 0-6.42-.8-10.43 0-2.41 0-4.82-.8-6.43-2.37a6.116 6.116 0 0 1-1.6-6.35c2.41-7.94 4.82-15.87 8.83-23.79l4.82-11.9c8.03-19.83 16.07-39.66 24.09-58.69 12.85-30.92 25.71-63.45 39.36-95.17a9.605 9.605 0 0 1 4.01-3.97c7.23-3.17 15.26-3.96 23.3-2.37 3.2 0 5.61.8 8.83 0 3.22 0 6.42 1.59 8.03 4.76 24.09 54.73 48.98 113.42 81.92 189.55-.81 1.59-1.62 3.97-2.41 5.55Zm154.2-77.04c-22.72 4.72-42.09 9.59-64.81 8.01h-12.17l-.18 24.58c0 11.82.64 28.12-.18 40.72 0 3.94-7.83 7.01-11.89 7.01l-28.4-.01c-4.05 0-8.11-3.16-8.11-7.88 0-55.9-.81-122.84 0-188.98 0-3.94 4.06-7.88 8.11-7.88h85.99a84.44 84.44 0 0 1 54.33 17.32c17.05 16.54 23.54 40.16 17.85 62.21-4.05 21.26-20.27 37.79-40.55 44.89Zm246.75 74.8c-1.63 2.34-4.05 3.9-6.47 3.9-12.94.78-25.06.78-37.19.78-2.43 0-4.86-.78-6.47-3.13a1748.614 1748.614 0 0 1-34.77-46.9c-9.71-12.51-19.41-25.78-29.1-38.3l-7.28 7.04c-4.05 3.9-8.9 7.82-12.94 11.72l-.81.78v23.45c.81 13.29 0 25.79-.82 39.08 0 3.9-4.03 7.03-8.07 7.03h-27.52c-4.03 0-8.07-3.13-8.07-7.82a7311.186 7311.186 0 0 1 0-188.38c0-3.91 4.03-7.83 8.07-7.83H771c4.05 0 8.08 3.13 8.08 7.05.82 24.23 1.63 48.46.82 71.92 17.78-17.2 35.57-33.61 53.37-50.81 9.7-8.6 18.59-17.2 28.29-26.58a7.464 7.464 0 0 1 5.66-2.35h1.61c11.32 0 23.44 0 35.57.78 2.43 0 5.66 1.57 6.47 3.9a6.902 6.902 0 0 1 0 7.83 79.517 79.517 0 0 1-10.51 12.49c-10.52 8.6-20.22 18.77-30.72 28.14l-36.38 32.83c9.7 12.52 20.2 25.8 29.9 38.31 16.99 21.89 34.77 44.55 51.75 67.22.81 2.543.81 5.277 0 7.82Z"/></svg>