<svg
    xmlns="http://www.w3.org/2000/svg"
    viewBox="0 0 192 192"
    id="vector">
    <path
        id="path"
        d="M 79.912 56.613 C 78.626 56.623 77.375 56.193 76.369 55.396 C 75.362 54.599 74.661 53.483 74.383 52.234 C 74.105 50.986 74.266 49.68 74.84 48.535 C 75.413 47.391 76.365 46.476 77.535 45.944 C 78.705 45.413 80.023 45.296 81.269 45.614 C 82.515 45.932 83.615 46.666 84.382 47.692 C 85.15 48.718 85.54 49.975 85.488 51.253 C 85.43 52.687 84.818 54.045 83.78 55.043 C 82.742 56.041 81.356 56.603 79.912 56.613 Z M 112.453 56.613 C 111.167 56.623 109.915 56.193 108.909 55.396 C 107.903 54.599 107.202 53.483 106.924 52.234 C 106.646 50.986 106.807 49.68 107.38 48.535 C 107.954 47.391 108.906 46.476 110.076 45.944 C 111.246 45.413 112.564 45.296 113.81 45.614 C 115.056 45.932 116.155 46.666 116.923 47.692 C 117.691 48.718 118.081 49.975 118.029 51.253 C 117.971 52.687 117.359 54.045 116.321 55.043 C 115.283 56.041 113.897 56.603 112.453 56.613 Z"
        fill="none"
        stroke="#000000"
        stroke-width="8"
        stroke-linecap="round"
        stroke-linejoin="round"/>
    <path
        id="path_1"
        d="M 56.055 71.105 L 56.055 62.019 C 56.055 55.046 57.908 48.194 61.425 42.16 C 64.942 36.126 70.001 31.121 76.087 27.652 C 82.174 24.184 89.076 22.374 96.091 22.406 C 103.087 22.406 109.96 24.236 116.018 27.713 C 122.076 31.19 127.108 36.191 130.605 42.213 C 134.103 48.234 135.945 55.066 135.945 62.019 L 135.945 71.105 M 61.722 16.5 L 71.777 28.766 M 130.552 16.5 L 120.223 28.766"
        fill="none"
        stroke="#000000"
        stroke-width="8"
        stroke-linecap="round"
        stroke-linejoin="round"/>
    <path
        id="path_2"
        d="M 35.443 59.657 L 35.443 143.7 C 35.753 146.606 37.057 149.32 39.136 151.386 C 41.215 153.452 43.945 154.749 46.869 155.057 L 140.561 155.057 L 140.561 93.729 L 145.131 93.729 C 148.055 93.42 150.785 92.124 152.864 90.058 C 154.943 87.991 156.247 85.277 156.557 82.371 C 156.247 79.465 154.943 76.751 152.864 74.685 C 150.785 72.619 148.055 71.323 145.131 71.014 L 46.869 71.014 C 43.945 70.706 41.215 69.41 39.136 67.343 C 37.057 65.277 35.753 62.563 35.443 59.657 C 35.753 56.751 37.057 54.037 39.136 51.971 C 41.215 49.905 43.945 48.608 46.869 48.3 L 58.066 48.3"
        fill="none"
        stroke="#000000"
        stroke-width="8"
        stroke-linecap="round"
        stroke-linejoin="round"/>
    <path
        id="path_3"
        d="M 140.561 155.057 L 140.561 175.5 L 145.131 175.5 C 148.055 175.192 150.785 173.895 152.864 171.829 C 154.943 169.763 156.247 167.049 156.557 164.143 L 156.557 82.371 M 96 96 C 93.577 96 91.25 96.958 89.536 98.661 C 87.823 100.364 86.859 102.677 86.859 105.086 C 86.859 107.495 87.823 109.807 89.536 111.51 C 91.25 113.214 93.577 114.172 96 114.172 C 98.423 114.172 100.75 113.214 102.464 111.51 C 104.177 109.807 105.141 107.495 105.141 105.086 C 105.141 102.677 104.177 100.364 102.464 98.661 C 100.75 96.958 98.423 96 96 96 Z M 95.999 94.695 L 95.999 85.873"
        fill="none"
        stroke="#000000"
        stroke-width="8"
        stroke-linecap="round"
        stroke-linejoin="round"/>
    <path
        id="path_4"
        d="M 123.422 170.957 L 95.999 114.171 L 68.578 170.957"
        fill="none"
        stroke="#000000"
        stroke-width="8"
        stroke-linecap="round"
        stroke-linejoin="round"/>
</svg>
