<svg xmlns="http://www.w3.org/2000/svg" viewBox="0 0 192 192"><path d="m160.559 66.149 11.138-11.071c5.074-5.093 5.074-13.357 0-18.451a12.93 12.93 0 0 0-18.441 0l-11.097 11.071a78.83 78.83 0 0 0-92.531 0L38.939 36.791a13.01 13.01 0 0 0-18.482 0c-5.052 5.103-5.052 13.349 0 18.451l11.097 10.989A79.978 79.978 0 0 0 16.5 112.809V150.9c0 4.642 3.744 8.406 8.363 8.406H167.25c4.539-.112 8.161-3.843 8.16-8.406v-38.091a79.85 79.85 0 0 0-14.851-46.66Zm-97.916 59.412c-13.106.036-19.692-15.886-10.426-25.198 9.266-9.312 25.109-2.693 25.072 10.478.001 8.162-6.607 14.765-14.728 14.72Z" fill="none" stroke="#000" stroke-width="8" stroke-linecap="round" stroke-linejoin="round"/><path d="M129.177 91.56c-.989.081-1.473.326-1.631.831-.056.172-.059.26-.031.709.045.761.031 1.175-.049 1.427-.2.628-.747 1.074-1.719 1.393-1.249.414-2.108.358-2.683-.179-.207-.196-.358-.414-.656-.947-.291-.526-.442-.712-.67-.828-.368-.182-.814-.108-1.522.253-.845.431-1.564 1.006-1.771 1.42-.207.411-.137.705.336 1.417.165.246.348.54.404.649.273.537.27 1.042-.004 1.631-.305.659-1.108 1.505-1.782 1.876a1.746 1.746 0 0 1-1.623.074 8.565 8.565 0 0 1-.611-.344 6.299 6.299 0 0 0-.631-.343 1.011 1.011 0 0 0-.733.007c-.386.168-.88.806-1.322 1.701-.348.708-.453 1.196-.341 1.578.071.242.397.53.87.775 1.277.663 1.614 1.137 1.568 2.21-.046 1.126-.487 2.206-1.08 2.655-.365.274-.719.347-1.638.34-.761-.003-.916.028-1.158.235-.175.147-.294.397-.378.768-.095.428-.088 1.698.01 2.161.151.701.428 1.038.944 1.147.094.021.42.056.719.077 1.259.088 1.564.182 2.041.628.48.452.866 1.536.866 2.437 0 .593-.133.954-.487 1.309-.176.175-.421.336-1.102.715-.368.204-.526.344-.634.565-.183.365-.113.764.256 1.519.449.908.975 1.585 1.406 1.82.154.084.246.109.477.119.379.021.544-.031 1.315-.41.947-.47 1.231-.509 1.957-.277.453.143.604.224.923.498.726.62 1.15 1.35 1.15 1.967 0 .393-.091.635-.505 1.33-.329.554-.407.747-.407 1.013 0 .523.47.982 1.74 1.708.705.4 1.014.505 1.428.484.515-.028.712-.196 1.192-1.01.607-1.02.993-1.273 2.083-1.364.235-.018.463-.053.502-.074.14-.073.768.088 1.249.319.54.263.891.628 1.038 1.084.063.193.077.351.095 1.07.028.961.049 1.049.319 1.294.266.239.592.34 1.378.425.256.024.509.063.561.084.148.056.782.045 1.024-.014.498-.13.793-.348.972-.709l.112-.231.025-.793c.021-.68.035-.828.101-1.035.172-.536.495-.873 1.305-1.35.169-.098.337-.224.375-.277.169-.239 1.182-.396 1.761-.274.596.127.951.453 1.431 1.319.253.456.432.681.614.789.305.179.656.176 1.256-.014a3.77 3.77 0 0 1 .48-.122c.179-.029.579-.221.817-.393.249-.186.632-.611.758-.849.06-.112.137-.305.168-.424.092-.369.014-.593-.456-1.323a4.095 4.095 0 0 1-.336-.6 1.76 1.76 0 0 1-.056-.961c.052-.235.126-.399.505-1.136a3.64 3.64 0 0 0 .147-.319c.06-.165.515-.61.852-.835.404-.27.698-.375 1.098-.396.481-.028.666.038 1.554.547.47.266.691.337.971.309.263-.028.502-.169.779-.46.309-.326.53-.666.821-1.27.48-.999.505-1.578.084-1.995-.137-.134-.312-.242-.758-.463-.813-.407-1.098-.663-1.255-1.14-.306-.937-.099-2.283.487-3.136.116-.168.488-.431.912-.649l.295-.147.754-.024c.649-.025.782-.039.954-.102.586-.225.799-.905.726-2.322-.056-1.08-.256-1.592-.712-1.831-.183-.091-.53-.112-1.217-.067a5.134 5.134 0 0 1-.754 0c-.825-.108-1.466-.869-1.782-2.122-.179-.704-.196-1.238-.053-1.673.151-.445.474-.771 1.242-1.241.6-.372.831-.586.908-.849.109-.368.042-.701-.256-1.315-.428-.87-1.059-1.684-1.459-1.877a1.054 1.054 0 0 0-.75-.052c-.099.031-.397.203-.663.386a10.94 10.94 0 0 1-.656.413c-.887.446-1.82.141-2.852-.936-.712-.747-.978-1.396-.838-2.041.067-.316.186-.579.498-1.119.389-.67.442-.965.246-1.347-.186-.368-.768-.821-1.579-1.224-.599-.298-.891-.396-1.245-.417-.259-.018-.326-.007-.484.059-.273.119-.428.319-.764 1-.162.326-.362.684-.446.789-.512.645-1.385.81-2.641.491-1.206-.305-1.848-.824-2.013-1.627-.025-.113-.046-.523-.053-.912-.01-.786-.045-.965-.228-1.186-.133-.161-.466-.33-.785-.396-.313-.063-1.126-.091-1.6-.053Zm2.371 6.489c1.214.08 2.126.266 3.202.656a13.463 13.463 0 0 1 7.843 7.397c.214.491.544 1.487.68 2.055.267 1.08.372 1.996.372 3.202 0 .965-.035 1.421-.179 2.263a13.518 13.518 0 0 1-16.491 10.851 13.56 13.56 0 0 1-5.268-2.588c-.562-.449-1.645-1.529-2.077-2.073-2.427-3.058-3.423-6.878-2.778-10.68.267-1.568.884-3.223 1.68-4.507.772-1.241 1.039-1.62 1.575-2.224.397-.445.586-.613 1.003-.887.165-.109.526-.368.807-.572 1.049-.775 1.543-1.073 2.929-1.764 1.508-.754 1.802-.838 3.472-1.02 1.263-.141 2.238-.172 3.23-.109Z" stroke="#000" stroke-width="3"/></svg>