<svg xmlns="http://www.w3.org/2000/svg" viewBox="0 0 24 24"><path d="M2.034 17.161c.064-1.304.417-2.593 1.053-3.843a9.835 9.835 0 0 1 2.469-3.125l.493-.42-1.142-1.151C3.696 7.403 3.589 7.25 3.664 6.851c.049-.263.329-.567.595-.646.45-.135.56-.059 1.991 1.364l1.296 1.29.549-.227c1.25-.516 2.251-.736 3.549-.782 1.442-.051 2.702.174 4.059.723l.698.283 1.323-1.317c1.412-1.406 1.474-1.45 1.91-1.354.263.057.534.324.611.6.118.423.039.539-1.226 1.81l-1.146 1.151.14.112c.532.425 1.068.914 1.366 1.249 1.57 1.761 2.432 3.816 2.583 6.162l.038.577H2Zm14.77-.923c.016-.084.045-.268.065-.408.031-.23.058-.266.279-.384l.245-.13.352.141c.224.09.374.122.415.09.096-.08.58-.931.58-1.023 0-.044-.131-.184-.291-.311-.28-.224-.29-.242-.293-.516-.003-.278.004-.29.29-.514.162-.126.294-.263.294-.304 0-.099-.57-1.073-.628-1.073-.025 0-.199.062-.386.138l-.341.139-.243-.142c-.218-.128-.246-.169-.277-.404-.077-.567-.044-.541-.703-.547-.32-.003-.612.018-.648.045-.036.028-.083.212-.104.41-.038.352-.043.361-.286.496l-.247.138-.365-.137c-.202-.076-.386-.126-.41-.11-.025.015-.178.259-.342.541l-.297.515.276.241c.151.132.294.241.317.242.023 0 .042.138.042.305 0 .297-.006.307-.277.517-.152.117-.29.247-.307.287-.031.073.411.893.562 1.044.066.066.128.057.421-.062.289-.117.367-.129.497-.076.279.116.373.251.416.596.023.18.053.345.067.368.014.023.311.042.661.042h.635Zm-.973-1.534c-.392-.111-.672-.432-.76-.87-.077-.385.245-.952.632-1.114.349-.146.872-.059 1.155.193.277.246.394.833.24 1.203-.1.239-.429.522-.692.595-.247.069-.313.068-.575-.006Zm-7.55-.076c.798-.408.757-1.552-.068-1.896-.874-.365-1.729.533-1.335 1.401.237.523.894.755 1.403.495Z"/></svg>