<svg xmlns="http://www.w3.org/2000/svg" viewBox="0 0 192 192"><path d="m43.558 155.81-26.205-.117-.529-.676c-1.071-1.368-1.071-2.327.001-9.926 4.261-30.206 18.138-56.67 37.877-72.234 1.158-.913 2.105-1.737 2.105-1.831 0-.095-.302-.843-.671-1.664-1.772-3.943-12.359-27.999-12.609-28.649-.601-1.564-.173-3.595.916-4.345.706-.487 1.899-.453 2.538.071.505.415 1.144 1.782 5.914 12.662 2.966 6.763 7.96 18.096 8.196 18.596l.245.522.996-.669c.548-.368 2.287-1.348 3.865-2.178 10.395-5.467 20.473-7.855 31.651-7.501 10.751.341 20.445 3.19 30.3 8.905l2.353 1.365 4.841-10.91c2.662-6.001 5.577-12.579 6.477-14.618 2.371-5.372 2.563-5.752 3.131-6.199.791-.623 1.972-.532 2.627.202 1.068 1.197 1.318 2.656.721 4.211-.247.641-10.775 24.463-13.091 29.619l-.324.722 1.612 1.235c.886.679 2.864 2.356 4.394 3.725 14.799 13.245 25.942 32.863 31.569 55.582 1.473 5.947 2.92 14.529 3.403 20.174.15 1.761-.339 3.078-1.375 3.705-.712.431-1.942.44-52.726.39-28.599-.028-63.79-.104-78.202-.169Zm126.982-6.828c0-.655-1.051-7.21-1.579-9.85-5.996-29.961-21.978-54.498-43.478-66.751-17.526-9.99-37.674-10.656-55.634-1.839-21.807 10.705-38.715 34.188-45.878 63.717-1.045 4.307-2.641 13.149-2.641 14.63 0 .42 1.952.431 74.605.431 65.256 0 74.605-.042 74.605-.338Zm-38.146-21.081c-.689-2.055-1.283-2.252-2.825-.938l-.956.815-.604-.614c-.543-.552-.595-.699-.506-1.452l.18-1.555a2 2 0 0 0-.275-1.323c-.318-.537-.498-.613-1.612-.673-1.246-.067-1.256-.073-1.594-.914l-.34-.846.811-1.265c.724-1.129.801-1.355.711-2.093-.086-.704-.253-.952-1.124-1.668-1.048-.862-1.159-1.151-.913-2.375.081-.403.365-.623 1.269-.982.992-.393 1.205-.573 1.431-1.211.254-.715.243-.818-.252-2.226l-.518-1.477.53-.707.531-.707 1.155.387c1.081.362 1.186.362 1.651-.005.395-.31.52-.611.606-1.454.228-2.219.241-2.252.991-2.552l.703-.281.636.979c.35.538.698 1.119.775 1.29.076.172.397.312.713.312.473 0 .739-.231 1.494-1.294l.918-1.294.615.312c.654.332.799.701.981 2.508.085.846.204 1.119.634 1.447.497.379.599.381 1.663.024l1.133-.379.531.707.53.707-.518 1.476c-.483 1.375-.502 1.525-.27 2.177.202.567.476.804 1.434 1.239 1.052.477 1.196.615 1.289 1.233.177 1.178.135 1.274-.92 2.129-.901.729-1.034.93-1.098 1.67-.064.722.034 1.018.697 2.102l.77 1.26-.307.909-.308.91h-1.265c-1.162 0-1.295.05-1.629.615-.265.449-.339.825-.273 1.39l.183 1.573c.083.716.029.855-.541 1.371l-.634.573-.929-.791c-1.513-1.29-2.113-1.084-2.798.96l-.495 1.479h-1.566l-.495-1.479Zm2.423-9.044c1.405-1.226 1.481-3.811.162-5.453-.395-.492-.632-.58-1.568-.58s-1.172.088-1.567.58c-.627.78-.954 1.672-.954 2.599 0 2.538 2.341 4.24 3.927 2.854Zm-78.01 6.889c-.239-.06-.904-.394-1.478-.744-2.947-1.793-4.804-6.343-4.268-10.454 1.016-7.776 8.028-11.192 12.273-5.979 1.843 2.264 2.591 4.666 2.481 7.963-.079 2.372-.56 4.089-1.64 5.844-1.647 2.679-4.64 4.048-7.368 3.37Zm2.607-6.692c1.709-.911 2.063-3.791.681-5.554-.472-.603-.649-.676-1.645-.676-1.054 0-1.152.048-1.756.853-.542.723-.651 1.04-.714 2.085-.061 1.015-.002 1.377.336 2.044.438.867 1.373 1.621 2.009 1.622.213 0 .703-.168 1.089-.374Z"/></svg>