<svg
    xmlns="http://www.w3.org/2000/svg"
    viewBox="0 0 24 24"
    id="vector">
    <path
        id="path"
        d="M 2.034 17.161 C 2.098 15.857 2.451 14.568 3.087 13.318 C 3.711 12.09 4.502 11.089 5.556 10.193 L 6.049 9.773 L 4.907 8.622 C 3.696 7.403 3.589 7.25 3.664 6.851 C 3.713 6.588 3.993 6.284 4.259 6.205 C 4.709 6.07 4.819 6.146 6.25 7.569 L 7.546 8.859 L 8.095 8.632 C 9.345 8.116 10.346 7.896 11.644 7.85 C 13.086 7.799 14.346 8.024 15.703 8.573 L 16.401 8.856 L 17.724 7.539 C 19.136 6.133 19.198 6.089 19.634 6.185 C 19.897 6.242 20.168 6.509 20.245 6.785 C 20.363 7.208 20.284 7.324 19.019 8.595 L 17.873 9.746 L 18.013 9.858 C 18.545 10.283 19.081 10.772 19.379 11.107 C 20.949 12.868 21.811 14.923 21.962 17.269 L 22 17.846 L 2 17.846 Z M 16.804 16.238 C 16.82 16.154 16.849 15.97 16.869 15.83 C 16.9 15.6 16.927 15.564 17.148 15.446 L 17.393 15.316 L 17.745 15.457 C 17.969 15.547 18.119 15.579 18.16 15.547 C 18.256 15.467 18.74 14.616 18.74 14.524 C 18.74 14.48 18.609 14.34 18.449 14.213 C 18.169 13.989 18.159 13.971 18.156 13.697 C 18.153 13.419 18.16 13.407 18.446 13.183 C 18.608 13.057 18.74 12.92 18.74 12.879 C 18.74 12.78 18.17 11.806 18.112 11.806 C 18.087 11.806 17.913 11.868 17.726 11.944 L 17.385 12.083 L 17.142 11.941 C 16.924 11.813 16.896 11.772 16.865 11.537 C 16.788 10.97 16.821 10.996 16.162 10.99 C 15.842 10.987 15.55 11.008 15.514 11.035 C 15.478 11.063 15.431 11.247 15.41 11.445 C 15.372 11.797 15.367 11.806 15.124 11.941 L 14.877 12.079 L 14.512 11.942 C 14.31 11.866 14.126 11.816 14.102 11.832 C 14.077 11.847 13.924 12.091 13.76 12.373 L 13.463 12.888 L 13.739 13.129 C 13.89 13.261 14.033 13.37 14.056 13.371 C 14.079 13.371 14.098 13.509 14.098 13.676 C 14.098 13.973 14.092 13.983 13.821 14.193 C 13.669 14.31 13.531 14.44 13.514 14.48 C 13.483 14.553 13.925 15.373 14.076 15.524 C 14.142 15.59 14.204 15.581 14.497 15.462 C 14.786 15.345 14.864 15.333 14.994 15.386 C 15.273 15.502 15.367 15.637 15.41 15.982 C 15.433 16.162 15.463 16.327 15.477 16.35 C 15.491 16.373 15.788 16.392 16.138 16.392 L 16.773 16.392 Z M 15.831 14.704 C 15.439 14.593 15.159 14.272 15.071 13.834 C 14.994 13.449 15.316 12.882 15.703 12.72 C 16.052 12.574 16.575 12.661 16.858 12.913 C 17.135 13.159 17.252 13.746 17.098 14.116 C 16.998 14.355 16.669 14.638 16.406 14.711 C 16.159 14.78 16.093 14.779 15.831 14.705 Z M 8.281 14.628 C 9.079 14.22 9.038 13.076 8.213 12.732 C 7.339 12.367 6.484 13.265 6.878 14.133 C 7.115 14.656 7.772 14.888 8.281 14.628 Z"
        fill="#000000"
        stroke-width="0.055929"/>
</svg>
