<svg xmlns="http://www.w3.org/2000/svg" viewBox="0 0 192 192"><path d="M44.173 151.865h38.676M44.173 85.149l19.338-10.635m0 0v77.351m59.01-51.568a25.788 25.788 0 0 0-24.522 33.752 25.79 25.79 0 0 0 9.366 12.892 25.791 25.791 0 0 0 15.156 4.924 25.793 25.793 0 0 0 18.232-7.552 25.796 25.796 0 0 0 7.552-18.232 25.796 25.796 0 0 0-7.552-18.232 25.798 25.798 0 0 0-18.232-7.552Z" fill="none" stroke="#000" stroke-width="12" stroke-linecap="round" stroke-linejoin="round"/><path d="M145.44 84.063c-3.82-5.73-10.506-9.549-21.009-9.549h-1.91a25.679 25.679 0 0 0-22.362 12.869 25.676 25.676 0 0 0-3.422 12.914v25.784m35.79-96.689a10.744 10.744 0 0 0 0 21.486 10.74 10.74 0 0 0 10.249-14.069 10.742 10.742 0 0 0-10.249-7.417Zm-73.054 0a10.744 10.744 0 0 0 0 21.486 10.74 10.74 0 0 0 10.249-14.069 10.742 10.742 0 0 0-10.249-7.417Z" fill="none" stroke="#000" stroke-width="12" stroke-linecap="round" stroke-linejoin="round"/><path d="M25.095 16.5a8.599 8.599 0 0 0-6.078 2.517 8.599 8.599 0 0 0-2.517 6.078v141.81a8.6 8.6 0 0 0 4.297 7.444 8.6 8.6 0 0 0 4.298 1.151h141.81a8.6 8.6 0 0 0 7.444-4.297 8.6 8.6 0 0 0 1.151-4.298V25.095a8.6 8.6 0 0 0-4.297-7.444 8.6 8.6 0 0 0-4.298-1.151Z" fill="none" stroke="#000" stroke-width="12" stroke-linecap="round" stroke-linejoin="round"/></svg>