<?xml version="1.0" encoding="UTF-8" standalone="no"?>
<svg
   viewBox="0 0 48 48"
   version="1.1"
   id="svg2894"
   sodipodi:docname="arevelation.svg"
   inkscape:version="1.1.2 (b8e25be833, 2022-02-05)"
   xmlns:inkscape="http://www.inkscape.org/namespaces/inkscape"
   xmlns:sodipodi="http://sodipodi.sourceforge.net/DTD/sodipodi-0.dtd"
   xmlns="http://www.w3.org/2000/svg"
   xmlns:svg="http://www.w3.org/2000/svg">
  <sodipodi:namedview
     id="namedview2896"
     pagecolor="#ffffff"
     bordercolor="#666666"
     borderopacity="1.0"
     inkscape:pageshadow="2"
     inkscape:pageopacity="0.0"
     inkscape:pagecheckerboard="0"
     showgrid="false"
     inkscape:zoom="12.041667"
     inkscape:cx="24"
     inkscape:cy="24"
     inkscape:window-width="1280"
     inkscape:window-height="961"
     inkscape:window-x="-8"
     inkscape:window-y="-8"
     inkscape:window-maximized="1"
     inkscape:current-layer="svg2894" />
  <defs
     id="defs2884">
    <style
       id="style2882">.a{fill:none;stroke:#000;stroke-linecap:round;stroke-linejoin:round;}</style>
  </defs>
  <path
     class="a"
     d="M34.41,43.5h5.24a1.84,1.84,0,0,0,1.84-1.84h0V22a17.42,17.42,0,0,0-3.31-10.22l2.45-2.41a2.85,2.85,0,0,0,0-4h0a2.87,2.87,0,0,0-4,0L34.17,7.78a17.41,17.41,0,0,0-20.34,0L11.4,5.36a2.88,2.88,0,0,0-4.06,0h0a2.85,2.85,0,0,0,0,4l2.44,2.41A17.39,17.39,0,0,0,6.51,22V41.66A1.84,1.84,0,0,0,8.35,43.5H29.2849M16.64,24.78a3.22,3.22,0,1,1,3.22-3.22h0a3.22,3.22,0,0,1-3.22,3.21Zm14.72.01a3.22,3.22,0,1,1,3.22-3.22h0a3.22,3.22,0,0,1-3.22,3.21Z"
     id="path2886"
     style="stroke-width:2;stroke-miterlimit:4;stroke-dasharray:none" />
  <path
     class="a"
     d="M14.25,31.7763a4.84,4.84,0,0,1,9.5755-.5587l1.2227.1533,1.698-1.32,1.32,1.6981,1.714-1.332,1.32,1.698,1.6981-1.32,1.332,1.714,2.9894.3749,1.32,1.698-1.698,1.32L23.44,34.2344a4.8243,4.8243,0,0,1-.9,1.2982"
     id="path2888"
     style="stroke-width:2;stroke-miterlimit:4;stroke-dasharray:none" />
  <path
     class="a"
     d="M24.7313,40.9851l-3.7474-2.0692a4.8322,4.8322,0,1,1,1.4764-2.659l1.0787.5957,2.0663-.5962.5961,2.0663,2.0857-.6017.5961,2.0663,2.0663-.5962.6017,2.0857,2.6375,1.4563.5961,2.0663-2.0663.5962-7.9872-4.41"
     id="path2890"
     style="stroke-width:2;stroke-miterlimit:4;stroke-dasharray:none" />
  <path
     class="a"
     d="M14.8006,29.4785c-2.2045-.2764-4.11.4415-4.2555,1.6036s1.5233,2.3283,3.7278,2.6048a7.2262,7.2262,0,0,0,1.5744.0294"
     id="path2892"
     style="stroke-width:2;stroke-miterlimit:4;stroke-dasharray:none" />
</svg>
