<svg xmlns="http://www.w3.org/2000/svg" viewBox="0 0 192 192"><path d="M25.894 174.35c-4.245-1.288-8.372-5.153-8.372-7.841 0-.637 12.805-11.477 28.456-24.088a18887.88 18887.88 0 0 0 49.083-39.691c11.344-9.219 21.463-17.124 22.485-17.566 1.022-.442 5.273 1.876 9.447 5.15l7.589 5.954.065 14.863.065 14.863-14.839 11.774a11668.15 11668.15 0 0 0-31.37 25.003L71.971 176l-20.756-.133c-11.416-.073-22.81-.756-25.321-1.517Zm60.219-.799c1.746-2.14 10.252-9.082 41.189-33.617l7.41-5.876v22.907l-9.393 7.582c-13.654 11.021-14.444 11.338-28.462 11.398-11.45.049-12.54-.193-10.744-2.394ZM16 130.522v-27.083l22.3-17.906 22.299-17.906h38.015l7.503 5.806 7.503 5.805-5.054 4.369c-7.081 6.121-88.344 71.394-90.664 72.825-1.493.92-1.902-4.651-1.902-25.91Zm0-46.364c0-15.561 1.183-16.541 19.905-16.497 13.827.034 14.223.13 11.09 2.71a5730.377 5730.377 0 0 1-17.121 13.934L16 95.564Zm58.493-27.2c.461-.759 8.344-7.391 17.518-14.738l16.68-13.357 33.654.417 33.655.417-17.871 14.32-17.87 14.321h-33.303c-19.111 0-32.944-.588-32.463-1.38ZM63.18 38.506c0-16.427.326-18.692 3.044-21.195 3.029-2.788 3.044-2.704 3.044 16.736 0 17.953-.247 19.672-3.044 21.195-2.964 1.613-3.044 1.177-3.044-16.736Z"/></svg>