<svg width="512" height="512" viewBox="0 0 512 512" xmlns="http://www.w3.org/2000/svg"><path style="fill:#d1d1d1" d="M112.985 423.646c-9.761-3.606-12.163-5.04-20.581-12.293C86.627 406.376 77 393.748 77 391.147c0-.664-1.175-3.999-2.611-7.41-2.45-5.822-2.585-6.974-2.189-18.72.351-10.39.795-13.232 2.611-16.727 1.204-2.316 2.189-4.668 2.189-5.228 0-.86 6.643-12.918 19.198-34.849a322.95 322.95 0 0 0 4.793-8.713c1.152-2.2 3.189-5.8 4.527-8 3.264-5.366 6.98-12.105 9.439-17.118 1.11-2.265 2.7-4.682 3.531-5.372.832-.69 1.512-1.678 1.512-2.196 0-.813 5.13-10.14 15.196-27.63 1.483-2.576 3.407-6.034 4.275-7.684.868-1.65 2.805-5.09 4.304-7.646s6.1-10.554 10.225-17.775c6.917-12.11 8.67-15.217 14.987-26.579 2.277-4.096 4.152-7.43 8.842-15.725 2.735-4.837 15.543-27.25 20.351-35.613 1.475-2.564 3.126-5.61 3.671-6.769 6.37-13.55 21.585-28.015 33.577-31.922a207.85 207.85 0 0 0 8.072-2.855c6.016-2.298 22.792-2.12 28.116.297 2.264 1.028 5.63 2.202 7.48 2.608 1.85.406 6.39 2.733 10.089 5.17 9.602 6.326 18.367 16.268 24.075 27.309.995 1.925 2.908 5.3 4.25 7.5 1.343 2.2 3.464 5.873 4.715 8.162 1.889 3.455 9.678 17.264 24.635 43.671a713.573 713.573 0 0 0 4.71 8.167c1.294 2.2 3.285 5.8 4.425 8 1.141 2.2 3.296 6.064 4.79 8.586 1.493 2.523 6.09 10.552 10.215 17.843 9.955 17.596 11.252 19.872 13.996 24.571 4.274 7.318 8.033 13.966 9.615 17 .86 1.65 2.761 5.098 4.226 7.662 1.465 2.564 6.038 10.563 10.163 17.775 8.35 14.6 11.844 20.761 14.921 26.313l4.158 7.5c1.143 2.063 3.367 6 4.942 8.75 3.467 6.054 4.074 7.335 7.106 15 2.07 5.233 2.372 7.66 2.366 19-.006 11.264-.288 13.534-2.108 17-1.156 2.2-2.41 5.283-2.787 6.85-2.16 8.973-19.753 26.37-30.598 30.257a303.76 303.76 0 0 0-9.185 3.503c-4.52 1.823-9.507 1.886-140.5 1.786l-135.815-.103ZM394.5 391.088c5.722-3.45 8.39-5.978 11.64-11.034 2.61-4.057 2.86-5.24 2.86-13.527 0-6.827-.41-9.668-1.653-11.442-.909-1.297-3.215-5.335-5.124-8.972-1.91-3.637-4.046-7.288-4.748-8.113-.702-.825-2.016-3.075-2.92-5-.904-1.925-2.861-5.626-4.35-8.225a30459.253 30459.253 0 0 1-19.786-34.617 762.943 762.943 0 0 1-5.348-9.658c-1.798-3.3-4.234-7.575-5.413-9.5-2.598-4.24-4.85-8.182-7.71-13.5a442.634 442.634 0 0 0-4.8-8.615 15675.08 15675.08 0 0 1-7.648-13.357c-2.75-4.809-6.21-10.832-7.689-13.385-1.479-2.554-3.623-6.443-4.764-8.643-1.142-2.2-3.175-5.8-4.519-8-1.343-2.2-3.385-5.8-4.537-8-1.152-2.2-3.401-6.25-4.998-9-1.597-2.75-3.618-6.35-4.49-8-.872-1.65-4.258-7.5-7.526-13s-6.644-11.35-7.503-13c-.86-1.65-2.87-5.25-4.467-8-1.597-2.75-3.808-6.8-4.913-9-3.8-7.562-7.619-11.884-13.586-15.37-5.434-3.176-6.663-3.489-13.493-3.437-5.941.045-8.353.538-11.515 2.354-7.837 4.5-8.744 5.718-22.545 30.282-5.2 9.256-10.681 18.93-12.18 21.5-1.499 2.569-3.431 6.021-4.295 7.671-.863 1.65-2.786 5.126-4.274 7.725-3.463 6.047-16.891 29.525-20.369 35.613-1.465 2.564-3.369 6.012-4.231 7.662-.863 1.65-2.9 5.25-4.526 8s-3.823 6.575-4.881 8.5c-2.528 4.597-5.75 10.287-17.199 30.363-10.082 17.68-13.57 23.84-16.921 29.887-4.106 7.407-6.298 11.325-8.917 15.937-18.22 32.084-18.879 33.391-19.545 38.818-1.004 8.184.496 14.206 4.869 19.543 4.113 5.02 10.349 9.394 15.014 10.533 1.65.403 61.95.662 134 .576l131-.157Zm-197.177-54.082c-3.545-2.607-8.337-10.494-8.318-13.691.007-1.276 4.513-12.02 5.658-13.493.566-.727 3.01-4.863 5.433-9.19 2.422-4.327 5.614-9.952 7.093-12.5s3.635-6.432 4.792-8.632a172.8 172.8 0 0 1 4.312-7.635c1.214-2 4.682-8.017 7.707-13.373 3.025-5.356 6.437-11.37 7.581-13.365 1.145-1.995 3.795-6.777 5.889-10.627 5.32-9.783 8.643-13.703 13.796-16.276 5.593-2.793 6.711-2.778 12.517.174 5.285 2.687 6.982 4.714 13.308 15.896a2023.66 2023.66 0 0 0 6.55 11.5c2.3 3.984 4.084 7.108 11.859 20.769 2.75 4.831 6.222 10.844 7.715 13.36 1.494 2.518 3.659 6.377 4.811 8.577 2.434 4.644 4.117 7.61 9.286 16.363 5.418 9.174 8.69 17.416 7.984 20.114-1.254 4.794-3.935 8.958-7.683 11.936L313.725 340H201.394Zm81.318-31.514c.319-.829-.258-2.741-1.281-4.25-1.023-1.508-2.76-4.371-3.86-6.362-10.82-19.585-15.176-26.829-16.145-26.852-.63-.015-2.14 1.885-3.356 4.222a257.41 257.41 0 0 1-8.566 15.25c-1.335 2.2-3.323 5.853-4.419 8.118-1.095 2.265-2.67 4.682-3.502 5.372-1.562 1.296-2.016 4.172-.845 5.343.366.367 9.83.667 21.031.667 17.226 0 20.454-.232 20.943-1.508z" transform="translate(-1.262 .042)"/><path style="fill:#b2b2b2" d="M125 424.951c-3.025-.448-7.3-1.5-9.5-2.34-2.2-.837-4.71-1.543-5.579-1.567-2.735-.076-18.503-11.763-22.61-16.759-13.137-15.98-17.206-36.351-10.905-54.604 2.187-6.337 15.783-31.627 35.21-65.493a884.085 884.085 0 0 0 4.619-8.188c1.377-2.475 4.972-8.775 7.988-14s9.488-16.65 14.38-25.39c4.894-8.74 10.107-17.966 11.586-20.5a405.535 405.535 0 0 0 4.599-8.11c1.05-1.925 6.528-11.6 12.171-21.5 5.644-9.9 11.26-19.8 12.482-22a346.35 346.35 0 0 1 4.926-8.5c1.488-2.475 3.403-5.85 4.256-7.5.853-1.65 2.75-5.104 4.214-7.675 1.465-2.571 5.79-10.221 9.61-17C216.495 98.908 234.297 87 257.5 87c22.656 0 40.937 11.92 53.944 35.176 2.846 5.09 26.572 47.011 29.197 51.59 3.761 6.56 31.556 55.599 33.574 59.234 3.015 5.433 28.61 50.696 32.232 57 5.736 9.985 9.227 16.12 11.378 20a884.8 884.8 0 0 0 4.585 8.156C438.612 346.503 441 352.777 441 367c0 7.608-.528 11.078-2.658 17.474-3.885 11.665-8.86 18.899-18.342 26.673-7.597 6.228-11.475 8.41-20.613 11.6L391.5 425.5l-130.5.133c-71.775.073-132.975-.234-136-.682zm267.305-31.019c2.468-.685 6.035-3.243 10.154-7.282 7.45-7.305 9-11.434 8.314-22.15-.508-7.937.78-5.285-22.32-46-8.114-14.3-15.62-27.575-16.681-29.5-3.094-5.613-32.128-56.922-38.522-68.075-5.551-9.684-7.573-13.252-21.25-37.497-7.975-14.137-15.72-27.78-17.21-30.316-1.49-2.537-3.285-5.737-3.989-7.112-3.037-5.936-11.172-18.713-13.445-21.116-7.636-8.075-21.93-10.362-32.221-5.155-5.92 2.995-10.995 8.238-15.021 15.518-1.438 2.6-8.014 14.25-14.614 25.89-6.6 11.64-13.29 23.458-14.865 26.263a648.44 648.44 0 0 1-5.218 9.1c-1.295 2.2-3.054 5.35-3.91 7-.856 1.65-2.783 5.098-4.282 7.662-2.298 3.93-8.12 14.153-25.225 44.288a2140.382 2140.382 0 0 0-5 8.869c-2.45 4.375-24.472 43.284-28.59 50.512-1.15 2.018-3.222 5.694-4.606 8.169-1.384 2.475-6.294 11.025-10.91 19l-8.394 14.5V377.551l3.766 5.13c3.315 4.515 10.307 10.031 14.734 11.622 3.018 1.085 265.364.724 269.305-.37zM203.5 338.15c-7.942-2.582-12.045-8.44-11.237-16.04.538-5.064 1.4-7.305 5.495-14.281 2.45-4.175 17.086-29.895 24.607-43.244 1.576-2.797 3.826-6.757 5-8.8a6827.77 6827.77 0 0 0 9.403-16.5c8.829-15.53 9.849-16.786 15.771-19.405 4.444-1.966 4.888-1.989 8.899-.457 4.636 1.77 8.316 5.2 11.346 10.577 5.528 9.808 22.747 40.01 24.8 43.5 1.293 2.2 3.053 5.35 3.909 7 .856 1.65 2.783 5.097 4.282 7.659 15.17 25.935 16.725 29.192 16.725 35.018 0 6.816-2.092 10.153-8.486 13.534L309.685 339l-52.092-.1c-28.651-.054-52.993-.392-54.093-.75Zm77.072-31.478c.703-1.83-.248-3.772-11.348-23.172-7.431-12.989-10.193-17-11.704-17-1.814 0-7.982 9.625-18.263 28.5a223.112 223.112 0 0 1-3.753 6.582c-1.016 1.694-1.56 3.832-1.207 4.75.572 1.49 3.057 1.668 23.203 1.668 17.83 0 22.67-.278 23.072-1.328z" transform="translate(-1.262 .042)"/><path style="fill:#929292" d="M126 424.05c-13.525-2.141-23.17-6.805-33.337-16.122-15.847-14.52-21.67-35.41-15.712-56.362 2.043-7.182 9.913-22.157 30.049-57.174 1.375-2.391 8.125-14.29 15-26.444 6.875-12.152 13.44-23.75 14.59-25.772 1.15-2.022 3.211-5.701 4.582-8.176 1.37-2.475 3.542-6.3 4.826-8.5 1.283-2.2 3.497-6.07 4.918-8.6 2.922-5.202 25.447-44.926 28.724-50.657 2.923-5.112 5.338-9.398 16.3-28.926 12.912-23 15.526-26.95 22.119-33.43 13.846-13.607 35.647-19.201 53.913-13.835 17.776 5.223 27.771 13.724 38.828 33.023 5.335 9.313 27.736 48.863 29.41 51.925a461.964 461.964 0 0 0 4.601 8.14c1.48 2.55 9.214 16.19 17.189 30.307a18429.774 18429.774 0 0 0 16.75 29.61l4.5 7.885c1.238 2.169 8.775 15.494 16.75 29.611 7.975 14.118 15.71 27.756 17.189 30.308a607.73 607.73 0 0 1 4.629 8.139c1.067 1.925 4.442 7.95 7.5 13.39 3.059 5.44 6.742 13.45 8.185 17.8 6.777 20.432.105 44.354-16.429 58.908-7.234 6.368-12.599 9.464-22.074 12.74l-7.5 2.594-130.5.165c-71.775.09-132.525-.156-135-.548zm272.582-32.55c3.172-2.2 7.233-6.14 9.022-8.756 6.09-8.901 5.7-23.046-.944-34.244-1.958-3.3-4.421-7.575-5.474-9.5-1.053-1.925-8.56-15.2-16.681-29.5-8.122-14.3-15.615-27.575-16.65-29.5-1.037-1.925-3.115-5.627-4.62-8.226-1.504-2.6-9.26-16.22-17.235-30.268-7.975-14.047-15.46-27.22-16.635-29.273a1644.27 1644.27 0 0 1-5-8.833 19119.17 19119.17 0 0 0-14.865-26.314c-6.6-11.669-13.062-23.099-14.36-25.4a828.337 828.337 0 0 0-4.688-8.186c-1.281-2.2-3.498-6.154-4.926-8.786-3.505-6.461-8.905-12.264-14.442-15.52-4.06-2.386-5.611-2.694-13.584-2.694-8.033 0-9.506.298-13.711 2.77-5.258 3.09-11.884 10.286-15.141 16.444-1.787 3.378-20.702 36.85-28.288 50.06-2.446 4.259-2.554 4.449-19.36 34.226a21759.244 21759.244 0 0 1-14.59 25.824c-1.15 2.022-3.226 5.701-4.616 8.176-1.389 2.475-9.178 16.2-17.31 30.5-8.13 14.3-15.643 27.575-16.695 29.5a413.116 413.116 0 0 1-4.6 8.112c-15.324 26.284-19.248 34.162-19.84 39.83-1.066 10.188.272 16.398 4.75 22.064 3.976 5.03 10.125 9.607 14.854 11.056 1.401.43 62.692.704 136.203.61l133.657-.172ZM203.5 336.961c-1.65-.49-4.575-2.208-6.5-3.817-3.326-2.78-3.5-3.24-3.5-9.284 0-6.326.072-6.486 13.5-30.113 17.274-30.393 16.158-28.423 27.048-47.747 5.115-9.075 10.42-17.989 11.79-19.809 3.103-4.124 6.997-6.191 11.662-6.191 6.431 0 10.7 3.415 15.558 12.446.904 1.68 7.16 12.729 13.904 24.554 6.743 11.825 13.26 23.3 14.48 25.5 1.222 2.2 3.14 5.575 4.264 7.5 10.754 18.422 15.587 27.769 16.017 30.971.791 5.9-1.297 10.719-5.992 13.827l-4.083 2.702-52.574.177c-28.916.097-53.924-.225-55.574-.716Zm78.31-30.21c.343-1.787-.358-3.383-5.428-12.344a8865.648 8865.648 0 0 1-9.709-17.25c-8.724-15.535-9.574-15.74-16.16-3.907-2.525 4.537-4.999 8.925-5.497 9.75-11.407 18.89-13.435 23.181-11.749 24.867.84.84 7.768 1.093 24.687.9 21.48-.244 23.549-.419 23.856-2.017z" transform="translate(-1.262 .042)"/><path style="fill:#707070" d="M128.5 423.34c-8.121-1.047-17.641-3.962-23.5-7.196-7.56-4.173-18.425-14.616-22.15-21.288-7.183-12.872-8.967-27.793-5.074-42.432 1.946-7.318 12.673-27.882 30.216-57.924 1.285-2.2 9.969-17.5 19.298-34 9.33-16.5 18.143-32.07 19.586-34.6 1.443-2.53 8.024-14.151 14.624-25.826 6.6-11.675 13.226-23.33 14.725-25.9 1.499-2.57 3.426-6.024 4.282-7.674.856-1.65 2.61-4.8 3.896-7 1.287-2.2 6.804-11.875 12.26-21.5 15.264-26.924 17.844-30.537 26.866-37.617 16.691-13.1 42.157-14.948 60.783-4.41 10.596 5.994 18.576 14.62 25.984 28.085 2.746 4.99 30.66 54.248 34.252 60.442 1.276 2.2 3.183 5.575 4.238 7.5 2.52 4.599 26.794 47.352 29.808 52.5 1.288 2.2 3.043 5.35 3.899 7 .856 1.65 2.783 5.1 4.282 7.665 1.499 2.565 8.35 14.636 15.225 26.823 17.11 30.332 16.95 30.048 19.36 34.185 8.588 14.738 14.037 25.77 15.818 32.023 5.34 18.746-.136 39.602-14.12 53.78-7.22 7.322-15.961 12.516-25.718 15.284l-7.84 2.225-129 .12c-70.95.066-130.35-.053-132-.266zm267.438-28.713c6.452-3.515 13.752-11.843 15.48-17.66 3-10.103 1.766-18.977-4.042-29.072-2.023-3.517-4.538-7.97-5.589-9.895a407.587 407.587 0 0 0-4.598-8.112c-1.48-2.537-9.214-16.153-17.189-30.259a19799.366 19799.366 0 0 0-16.636-29.388c-3.966-6.945-31.554-55.707-33.8-59.741-1.225-2.2-3.278-5.8-4.561-8-2.396-4.107-25.454-44.832-29.441-52-6.373-11.457-12.392-21.41-15.051-24.894-1.305-1.708-4.973-4.681-8.153-6.606-5.489-3.324-6.236-3.499-14.82-3.475-17.052.048-20.611 3.466-40.538 38.92-7.975 14.189-15.625 27.762-17 30.162-1.375 2.4-9.025 15.907-17 30.016-7.975 14.109-15.705 27.728-17.178 30.265a686.004 686.004 0 0 0-5 8.782c-1.985 3.566-27.09 47.897-33.457 59.08-16.889 29.665-23.394 41.69-24.283 44.894-1.378 4.962-1.37 13.777.016 18.77 2.211 7.964 12.207 17.719 20.089 19.606 1.822.436 63.163.723 136.313.637 127.942-.151 133.13-.228 136.438-2.03zm-194.697-60.076c-3.487-1.636-5.592-3.345-6.25-5.074-1.412-3.714-1.214-10.546.39-13.477.752-1.375 6.886-12.175 13.63-24 6.745-11.825 13.274-23.3 14.51-25.5 22.915-40.776 23.715-42.054 27.614-44.07 3.52-1.82 9.19-1.832 12.665-.027 1.485.772 3.825 3.275 5.2 5.563a348.572 348.572 0 0 0 4.557 7.357c1.132 1.758 2.76 4.543 3.618 6.187.858 1.645 7.081 12.665 13.83 24.49 6.748 11.825 13.28 23.3 14.516 25.5 1.235 2.2 5.052 8.915 8.481 14.922 3.429 6.007 6.459 12.592 6.732 14.634.816 6.078-1.29 10.661-6.07 13.217-4.133 2.21-4.554 2.229-56.164 2.486l-52 .258-5.259-2.467zm81.771-26.065c1.444-1.74 1.37-1.894-12.519-26.486-4.815-8.525-9.543-16.335-10.506-17.355-2.808-2.973-5.156-1.264-9.751 7.096-2.346 4.268-5.619 10.009-7.274 12.759-1.656 2.75-3.562 6.125-4.236 7.5-.674 1.375-2.689 4.949-4.476 7.941-3.447 5.77-4.043 8.572-2 9.397.687.277 12.107.54 25.378.583 20.396.067 24.321-.155 25.384-1.435z" transform="translate(-1.262 .042)"/><path style="fill:#4e4e4e" d="M117.5 420.057c-3.85-.954-8.8-2.799-11-4.099-18.545-10.959-25.019-20.593-30.086-44.773-.714-3.409 2.46-20.98 4.731-26.185 1.615-3.701 10.784-20.324 22.49-40.771 1.174-2.051 3.424-6.024 5-8.829a19119.17 19119.17 0 0 1 14.865-26.314c6.6-11.669 13.062-23.099 14.36-25.4 1.298-2.303 3.323-5.87 4.5-7.929 1.97-3.444 22.307-39.287 29.027-51.157a987.391 987.391 0 0 0 4.812-8.6 473.585 473.585 0 0 1 4.612-8.12c1.48-2.542 7.833-13.792 14.119-25 14.878-26.528 19.07-32.826 25.911-38.937 21.727-19.405 55.081-18.286 75.695 2.54 3.32 3.354 7.573 8.78 9.451 12.058 5.224 9.116 6.67 11.66 8.789 15.459 1.073 1.925 8.585 15.2 16.692 29.5l17.006 30c14.724 25.996 32.23 56.82 34.074 60 1.276 2.2 3.183 5.575 4.238 7.5 2.52 4.599 26.794 47.352 29.808 52.5 1.288 2.2 3.043 5.35 3.899 7 .856 1.65 2.884 5.25 4.506 8 9.562 16.21 12.955 26.174 12.984 38.123.03 12.293-4.612 26.112-11.653 34.691-3.215 3.919-12.949 11.809-18.33 14.859-10.562 5.986-6.614 5.837-151.373 5.723-121.837-.096-132.672-.239-139.127-1.84Zm278.923-24.98c10.07-4.956 16.306-13.996 17.312-25.095.758-8.351-1.254-15.137-7.999-26.982-7.93-13.928-8.014-14.076-24.736-43.61-7.975-14.087-15.71-27.7-17.189-30.25a456.822 456.822 0 0 1-4.6-8.14c-1.617-2.96-7.281-12.946-34.093-60.105-1.44-2.533-8.018-14.157-14.618-25.831-6.6-11.675-12.94-22.877-14.09-24.895-1.15-2.018-3.213-5.694-4.586-8.169-10.99-19.815-16.274-24.928-27.996-27.088-12.604-2.322-23.262 1.564-31.108 11.343-1.874 2.335-8.54 13.416-14.813 24.625-6.274 11.209-12.617 22.459-14.096 25a425.997 425.997 0 0 0-4.6 8.12c-1.052 1.925-8.565 15.2-16.696 29.5-8.13 14.3-15.92 28.025-17.31 30.5-1.389 2.475-3.466 6.158-4.615 8.185-1.15 2.027-7.49 13.232-14.09 24.9-6.6 11.669-13.18 23.286-14.623 25.815-20.847 36.56-28.375 50.336-29.512 54.009-1.646 5.317-1.758 14.135-.249 19.572 2.478 8.926 11.475 17.62 20.88 20.178 3.464.942 34.97 1.18 136.504 1.033l132-.192ZM206.5 335.358c-4.746-1.073-9.352-3.737-10.385-6.005-3.174-6.967-2.307-8.975 22.885-52.972 1.375-2.401 7.63-13.482 13.898-24.624 13.061-23.211 15.708-27.23 18.9-28.7 2.979-1.371 8.464-1.35 11.524.044 2.064.94 7.486 8.94 13.662 20.152.834 1.514 5.791 10.243 11.016 19.398s10.663 18.716 12.084 21.247c1.421 2.531 3.501 6.177 4.622 8.102 12.448 21.386 14.642 25.783 15.08 30.234.548 5.577-1.16 8.826-6.045 11.495-2.97 1.623-7.505 1.784-54.241 1.926-28.05.086-51.9-.048-53-.297zm76.918-24.965c2.299-.882 1.947-3.866-1.084-9.2-1.467-2.581-3.666-6.493-4.887-8.693-15.231-27.449-16.928-30-19.954-30-2.659 0-3.461.883-8.174 9-2.874 4.95-6.087 10.575-7.139 12.5-1.052 1.925-4.222 7.55-7.044 12.5-4.811 8.439-6.045 12.258-4.47 13.833.834.833 50.59.89 52.752.06z" transform="translate(-1.262 .042)"/><path style="fill:#2d2d2d" d="M120 419.588c-8.914-1.63-18.24-6.85-26.053-14.588-7.988-7.91-12.496-15.727-14.464-25.08-3.098-14.728-1.067-27.882 6.556-42.464 2.862-5.476 5.737-10.631 6.39-11.456.651-.825 1.723-2.625 2.381-4 .659-1.375 2.433-4.6 3.944-7.165 1.51-2.565 8.371-14.636 15.246-26.823 15.785-27.983 16.762-29.712 19.36-34.255 3.425-5.99 25.862-45.563 29.005-51.157a1644.27 1644.27 0 0 1 5-8.833c1.737-3.037 22.125-38.912 33.827-59.525 1.481-2.608 3.263-5.867 3.959-7.242 3.36-6.636 12.316-19.244 15.77-22.2 12.384-10.6 27.776-14.984 44.796-12.757 10.53 1.377 17.833 4.663 26.547 11.943 7.766 6.488 11.323 11.773 26.94 40.014 1.064 1.925 3.018 5.3 4.341 7.5 1.323 2.2 3.43 5.895 4.68 8.212 1.251 2.317 6.775 12.128 12.275 21.802 5.5 9.675 11.02 19.48 12.267 21.788a315.82 315.82 0 0 0 4.618 8.198c2.482 4.223 30.513 53.524 33.83 59.5 1.068 1.925 3.144 5.621 4.614 8.214 16.442 29.017 32.278 57.119 34.83 61.807 3.414 6.274 6.341 18.283 6.341 26.02 0 25.5-18.542 48.188-42.937 52.54-10.33 1.843-263.98 1.85-274.063.007zm268.944-21.144c13.034-2.964 21.252-10.624 25.124-23.415 2.246-7.42 2.249-7.52.464-14.5-1.641-6.416-4.458-11.928-21.122-41.34-1.15-2.03-3.211-5.714-4.582-8.189a517.26 517.26 0 0 0-4.828-8.5c-1.285-2.2-3.337-5.8-4.56-8-1.224-2.2-6.834-12.1-12.467-22-5.634-9.9-11.11-19.575-12.17-21.5a467.989 467.989 0 0 0-4.614-8.112c-1.48-2.537-9.214-16.18-17.189-30.316-13.669-24.232-15.677-27.775-21.25-37.497-1.238-2.16-7.376-13.036-13.64-24.17-13.665-24.286-16.085-27.83-21.82-31.949-13.302-9.552-34.261-6.86-43.784 5.625-2.453 3.216-10.763 17.042-14.678 24.419-1.021 1.925-3.188 5.75-4.815 8.5-1.627 2.75-3.657 6.35-4.51 8-.854 1.65-2.779 5.098-4.278 7.662-3.655 6.253-25.555 44.811-30.01 52.838-1.069 1.925-8.588 15.2-16.71 29.5-8.122 14.3-15.648 27.575-16.725 29.5a1466.17 1466.17 0 0 1-4.618 8.173c-1.464 2.57-8.062 14.22-14.662 25.889-6.6 11.668-13.218 23.29-14.706 25.826-3.848 6.556-4.733 8.76-6.538 16.274-1.494 6.217-1.482 7.1.174 13.218 3.37 12.45 11.728 20.694 24.07 23.743 6.438 1.591 17.055 1.736 132.303 1.803 109.95.065 126.14-.117 132.141-1.482zM201.33 332.542c-3.925-1.707-5.329-4.213-5.329-9.513 0-3.195 1.358-6.47 6.143-14.815 3.38-5.893 7.019-12.289 8.089-14.214 1.07-1.925 3.142-5.598 4.606-8.162 2.984-5.226 16.391-28.784 20.022-35.18a1013.89 1013.89 0 0 1 4.5-7.835 790.024 790.024 0 0 0 5.563-9.814c4.407-7.899 7.108-10.009 12.81-10.009 6.485 0 7.232.937 22.632 28.392 1.576 2.81 3.826 6.781 5 8.826 1.899 3.307 18.803 33.05 24.215 42.609a926.131 926.131 0 0 0 4.407 7.673c4.513 7.758 5 9.04 5.007 13.14.007 4.888-2.064 7.667-6.893 9.247-5.423 1.775-106.623 1.46-110.772-.345zm83.105-20.87c3.559-2.602 2.336-5.693-11.74-29.672a267.01 267.01 0 0 1-3.681-6.5c-7.714-14.233-8.04-14.625-11.88-14.303-3.065.257-3.944.913-5.765 4.303-2.313 4.307-2.7 4.995-15.118 26.947-4.537 8.021-8.25 15.027-8.25 15.568 0 .542.9 1.885 2 2.985 1.895 1.895 3.333 2 27.309 2 19.461 0 25.728-.307 27.125-1.328z" transform="translate(-1.262 .042)"/><path style="fill:#040404" d="M120 417.968c-6.205-.904-11.993-3.683-20.027-9.618C88.25 399.688 81.483 387.77 80.47 374c-.344-4.675-.173-12.325.38-17 1.05-8.89 1.623-10.096 20.314-42.836 1.465-2.565 3.369-6.014 4.231-7.664.863-1.65 2.912-5.25 4.553-8s3.917-6.8 5.058-9c1.14-2.2 3.127-5.8 4.414-8 6.256-10.694 19.976-34.781 24.777-43.5 1.06-1.925 3.242-5.75 4.85-8.5 1.608-2.75 3.63-6.35 4.493-8 .863-1.65 2.782-5.098 4.265-7.662A4485.115 4485.115 0 0 0 168 196a4485.115 4485.115 0 0 1 10.196-17.838c1.483-2.564 3.407-6.012 4.275-7.662.868-1.65 2.922-5.25 4.563-8 1.641-2.75 3.666-6.35 4.5-8 .834-1.65 2.742-5.09 4.24-7.646 1.5-2.555 6.078-10.654 10.175-17.998 9.468-16.97 17.912-25.928 29.724-31.534l7.788-3.697 14.02.004 14.019.004 7.993 3.934c8.987 4.422 19.627 14.01 23.62 21.284a641.784 641.784 0 0 0 5.058 9 743.566 743.566 0 0 1 4.61 8.15c3.299 5.952 17.596 30.923 19.934 34.813 1.218 2.027 2.95 5.261 3.85 7.186.898 1.925 2.213 4.175 2.92 5 .707.825 3.025 4.739 5.15 8.697A958.59 958.59 0 0 0 351 203.358c4.17 7.45 17.325 30.592 20.189 35.517 1.479 2.544 3.634 6.425 4.789 8.625 1.155 2.2 3.153 5.8 4.44 8 4.911 8.394 17.95 31.153 19.766 34.5a503.158 503.158 0 0 0 4.77 8.5c1.58 2.75 3.606 6.35 4.503 8 .898 1.65 2.942 5.25 4.543 8s3.65 6.575 4.555 8.5c.904 1.925 2.233 4.175 2.952 5 .72.825 3.624 5.955 6.456 11.4 6.448 12.4 7.99 21.453 6.173 36.243-2.168 17.637-11.309 29.603-30.144 39.46L397.5 418.5l-136 .134c-74.8.074-138.475-.226-141.5-.666zm271.387-18.4c12.315-3.91 18.892-9.8 23.2-20.786 3.87-9.864 3.981-12.484.907-21.398-1.496-4.336-3.478-9.009-4.405-10.384-.928-1.375-2.245-3.625-2.928-5-.683-1.375-2.582-4.75-4.22-7.5s-3.684-6.35-4.547-8c-.862-1.65-2.766-5.098-4.231-7.662-1.465-2.564-6.038-10.591-10.163-17.838-4.125-7.247-8.698-15.274-10.162-17.838-4.386-7.682-6.497-11.46-8.637-15.458-1.118-2.087-2.458-4.337-2.98-5-.52-.662-2.758-4.579-4.971-8.704-2.213-4.125-7.514-13.575-11.78-21-4.265-7.425-8.627-15.075-9.691-17-2.723-4.921-5.847-10.439-17.279-30.515-5.5-9.659-11.024-19.456-12.275-21.773a223.688 223.688 0 0 0-4.707-8.212c-1.338-2.2-3.38-5.8-4.536-8-1.157-2.2-2.886-5.35-3.842-7-.956-1.65-3.273-5.7-5.15-9-1.876-3.3-5.813-8.325-8.749-11.167-4.271-4.135-6.707-5.583-12.194-7.25-8.647-2.627-12.48-2.616-21.282.057-5.971 1.814-7.934 3.03-12.882 7.977-3.21 3.21-6.546 7.31-7.414 9.11-.867 1.8-2.79 5.37-4.273 7.935A4485.115 4485.115 0 0 0 212 156a4485.115 4485.115 0 0 1-10.196 17.838c-1.483 2.564-3.407 6.012-4.275 7.662-.868 1.65-2.906 5.25-4.53 8-1.622 2.75-3.8 6.575-4.84 8.5-3.731 6.908-18.25 32.428-24.748 43.5-1.29 2.2-3.084 5.575-3.984 7.5-.9 1.925-2.151 4.12-2.781 4.878-1.133 1.362-7.692 12.87-11.755 20.622-2.111 4.028-3.252 6.045-12.391 21.909-9.566 16.604-10.42 18.108-11.98 21.091-.864 1.65-2.796 5.102-4.295 7.67-13.952 23.911-16.431 29.01-18.528 38.1-.803 3.481-.8 5.776.012 8.5 4.915 16.498 10.937 23.065 25.465 27.769l7.326 2.372 126.611.044 126.61.045 7.666-2.433zM201.4 330.571c-4.606-2.005-5.877-7.49-2.912-12.572.802-1.375 2.185-3.85 3.072-5.5.888-1.65 2.812-5.098 4.277-7.662a21464.138 21464.138 0 0 1 19.803-34.623c3.141-5.453 6.071-10.637 13.603-24.068 11.948-21.308 13.907-23.294 21.058-21.346 2.457.67 7.729 6.887 9.752 11.503.53 1.208 2.197 4.273 3.705 6.812 3.28 5.522 12.193 21.308 17.742 31.426 2.2 4.011 4.377 7.668 4.838 8.126.461.457 1.498 2.182 2.304 3.832.806 1.65 2.679 5.11 4.162 7.687 10.743 18.676 14.239 25.135 14.79 27.333.952 3.792-1.305 8.183-4.838 9.415-4.9 1.708-107.366 1.374-111.356-.363zm85.043-17.795c1.786-2.549 2.08-8.336.474-9.328-.595-.368-1.956-2.532-3.023-4.81-1.067-2.276-5.512-10.214-9.877-17.639-4.366-7.425-8.68-15.192-9.59-17.26-1.004-2.285-2.54-3.981-3.918-4.327-3.464-.87-7.715-.085-8.606 1.587-1.158 2.174-12.934 23.254-16.083 28.789a286.8 286.8 0 0 0-4.866 8.974c-1.202 2.344-2.584 4.508-3.07 4.809-1.511.934-.97 7.676.771 9.6 1.526 1.686 3.777 1.828 28.943 1.828 27.066 0 27.301-.018 28.845-2.223z" transform="translate(-1.262 .042)"/></svg>