<svg xmlns="http://www.w3.org/2000/svg" viewBox="0 0 192 192"><path d="m172.911 122.008-15.922 27.6a3.881 3.881 0 0 1-4.854 1.708l-19.844-7.997a59.663 59.663 0 0 1-13.437 7.764l-2.99 21.078a3.883 3.883 0 0 1-3.884 3.339H80.136a3.886 3.886 0 0 1-3.883-3.339l-2.99-21.078a60.843 60.843 0 0 1-13.437-7.764l-19.961 7.997a3.881 3.881 0 0 1-4.854-1.708l-15.922-27.6a3.883 3.883 0 0 1 .971-5.085l16.776-13.159A64.221 64.221 0 0 1 36.292 96c.026-2.596.207-5.189.544-7.764L20.06 75.077a3.883 3.883 0 0 1-.971-5.085l15.922-27.6a3.881 3.881 0 0 1 4.854-1.708l19.844 7.997a59.663 59.663 0 0 1 13.437-7.764l2.99-21.078A3.883 3.883 0 0 1 80.02 16.5h31.844a4.08 4.08 0 0 1 3.883 3.339l2.99 21.078a60.843 60.843 0 0 1 13.437 7.764l19.844-7.997a3.881 3.881 0 0 1 4.855 1.708l15.922 27.6a3.883 3.883 0 0 1-.971 5.085l-16.66 13.159c.338 2.575.52 5.167.544 7.764a64.221 64.221 0 0 1-.544 7.764l16.776 13.159a3.883 3.883 0 0 1 .971 5.085Zm-71.183-45.961a6.565 6.565 0 0 0-11.417 0l-18.99 33.462a6.555 6.555 0 0 0 1.511 8.258 6.564 6.564 0 0 0 4.197 1.524h37.98a6.567 6.567 0 0 0 6.448-5.38 6.56 6.56 0 0 0-.739-4.402ZM88.253 106.17l7.766-13.625 7.767 13.625Z" fill="none" stroke="#000" stroke-width="8" stroke-linecap="round" stroke-linejoin="round"/></svg>