<?xml version="1.0" encoding="UTF-8" standalone="no"?>
<!-- Created with Inkscape (http://www.inkscape.org/) -->

<svg
   version="1.1"
   id="svg1203"
   width="512"
   height="512"
   viewBox="0 0 512 512"
   sodipodi:docname="auroraservices.svg"
   inkscape:version="1.1.2 (b8e25be833, 2022-02-05)"
   xmlns:inkscape="http://www.inkscape.org/namespaces/inkscape"
   xmlns:sodipodi="http://sodipodi.sourceforge.net/DTD/sodipodi-0.dtd"
   xmlns="http://www.w3.org/2000/svg"
   xmlns:svg="http://www.w3.org/2000/svg">
  <defs
     id="defs1207" />
  <sodipodi:namedview
     id="namedview1205"
     pagecolor="#ffffff"
     bordercolor="#666666"
     borderopacity="1.0"
     inkscape:pageshadow="2"
     inkscape:pageopacity="0.0"
     inkscape:pagecheckerboard="0"
     showgrid="false"
     inkscape:zoom="1.1289062"
     inkscape:cx="256"
     inkscape:cy="256"
     inkscape:window-width="1280"
     inkscape:window-height="961"
     inkscape:window-x="-8"
     inkscape:window-y="-8"
     inkscape:window-maximized="1"
     inkscape:current-layer="g1209" />
  <g
     inkscape:groupmode="layer"
     inkscape:label="Image"
     id="g1209">
    <g
       id="g1329"
       transform="translate(-1.2616775,0.04159082)">
      <path
         style="fill:#d1d1d1"
         d="M 112.98493,423.64633 C 103.22382,420.03959 100.82239,418.60515 92.403758,411.35266 86.626837,406.37595 77,393.7478 77,391.14654 c 0,-0.66374 -1.174935,-3.99833 -2.610967,-7.41019 -2.450295,-5.82164 -2.584978,-6.97361 -2.18862,-18.71986 C 72.550986,354.62708 72.9947,351.78452 74.81138,348.28984 76.015121,345.97425 77,343.62155 77,343.06162 c 0,-0.8589 6.643025,-12.91727 19.198209,-34.84844 1.484015,-2.59225 3.640699,-6.51318 4.792631,-8.71318 1.15193,-2.2 3.1892,-5.8 4.52726,-8 3.26367,-5.36602 6.97964,-12.10533 9.43857,-17.11789 1.11102,-2.26484 2.70028,-4.68244 3.53169,-5.37245 0.8314,-0.69 1.51164,-1.67792 1.51164,-2.19537 0,-0.81299 5.13045,-10.14116 15.19625,-27.62976 1.48293,-2.57649 3.40662,-6.03453 4.27486,-7.68453 0.86824,-1.65 2.80493,-5.09078 4.30376,-7.64617 1.49882,-2.5554 6.10013,-10.55429 10.22513,-17.77532 6.91718,-12.10888 8.66923,-15.21608 14.98674,-26.57851 2.27756,-4.09632 4.15201,-7.4299 8.84191,-15.72468 2.7352,-4.83763 15.54316,-27.2503 20.35171,-35.61353 1.47421,-2.56398 3.12606,-5.60983 3.67079,-6.76854 6.37047,-13.55079 21.58473,-28.015587 33.57672,-31.922725 2.23967,-0.729711 5.87213,-2.014346 8.07213,-2.854743 6.01569,-2.297986 22.79163,-2.120601 28.116,0.297292 2.26379,1.028033 5.62948,2.20157 7.47931,2.60786 1.84983,0.40629 6.39005,2.73273 10.08939,5.169867 9.60182,6.325709 18.3669,16.268229 24.07511,27.309199 0.99524,1.925 2.90788,5.3 4.25033,7.5 1.34244,2.2 3.46434,5.87287 4.71533,8.16192 1.88846,3.45549 9.6774,17.26366 24.63436,43.67158 1.29791,2.29157 3.41776,5.9665 4.71078,8.1665 1.29302,2.2 3.28417,5.8 4.42477,8 1.1406,2.2 3.29574,6.06392 4.78922,8.5865 1.49347,2.52257 6.0904,10.55173 10.2154,17.84258 9.95537,17.5959 11.25195,19.87214 13.99592,24.57092 4.27365,7.31821 8.03335,13.96583 9.6147,17 0.85995,1.65 2.76185,5.09781 4.22646,7.66179 1.46461,2.56399 6.03792,10.56288 10.16292,17.77532 8.34999,14.5997 11.84403,20.76123 14.92135,26.31289 1.14326,2.0625 3.01404,5.4375 4.1573,7.5 1.14326,2.0625 3.36737,6 4.94248,8.75 3.46734,6.05367 4.07412,7.33455 7.10584,15 2.06985,5.23343 2.37213,7.6609 2.36598,19 -0.006,11.26404 -0.28761,13.53414 -2.1081,17 -1.15558,2.2 -2.40981,5.28264 -2.78718,6.85032 -2.15982,8.9723 -19.75298,26.36934 -30.59767,30.25657 -2.475,0.88715 -6.60842,2.46353 -9.18538,3.50306 -4.51905,1.82295 -9.50681,1.88637 -140.5,1.78638 L 121.5,426.79267 Z M 394.5,391.08823 c 5.72218,-3.45013 8.38982,-5.9787 11.6409,-11.03401 2.60923,-4.05725 2.8591,-5.23947 2.8591,-13.52749 0,-6.82715 -0.41029,-9.66749 -1.65272,-11.44131 -0.909,-1.29777 -3.21503,-5.3354 -5.12451,-8.9725 -1.90948,-3.63711 -4.04595,-7.28792 -4.74769,-8.11292 -0.70175,-0.825 -2.01572,-3.075 -2.91993,-5 -0.90421,-1.925 -2.86152,-5.62611 -4.34958,-8.22468 -5.21347,-9.10419 -17.72539,-30.99502 -19.78612,-34.61775 -1.1443,-2.01166 -3.55128,-6.35757 -5.34884,-9.65757 -1.79756,-3.3 -4.23322,-7.575 -5.41257,-9.5 -2.59793,-4.24049 -4.84953,-8.18248 -7.71096,-13.5 -1.18385,-2.2 -3.34374,-6.07672 -4.79977,-8.61492 -1.45602,-2.53821 -4.89731,-8.54903 -7.64731,-13.35738 -2.75,-4.80834 -6.20997,-10.83162 -7.68882,-13.38507 -1.47885,-2.55345 -3.62285,-6.44263 -4.76444,-8.64263 -1.14159,-2.2 -3.17494,-5.8 -4.51855,-8 -1.34361,-2.2 -3.38542,-5.8 -4.53735,-8 -1.15193,-2.2 -3.40112,-6.25 -4.9982,-9 -1.59708,-2.75 -3.61723,-6.35 -4.48923,-8 -0.87199,-1.65 -4.2589,-7.5 -7.52645,-13 -3.26756,-5.5 -6.64409,-11.35 -7.50342,-13 -0.85932,-1.65 -2.8691,-5.25 -4.46618,-8 -1.59708,-2.75 -3.80808,-6.8 -4.91333,-9 -3.79919,-7.56229 -7.61903,-11.8839 -13.58576,-15.3704 -5.4341,-3.17528 -6.66334,-3.48836 -13.49351,-3.43671 -5.94073,0.0449 -8.35259,0.53793 -11.51476,2.35374 -7.83719,4.50036 -8.74423,5.71871 -22.54492,30.28226 -5.2003,9.25589 -10.68139,18.93089 -12.18021,21.5 -1.49883,2.56911 -3.43132,6.02111 -4.29444,7.67111 -0.86311,1.65 -2.7868,5.12611 -4.27486,7.72468 -3.46305,6.04746 -16.89089,29.52553 -20.36849,35.61353 -1.46461,2.56398 -3.36878,6.01179 -4.23149,7.66179 -0.86271,1.65 -2.89925,5.25 -4.52565,8 -1.6264,2.75 -3.82301,6.575 -4.88135,8.5 -2.52746,4.59713 -5.75023,10.28675 -17.19859,30.36311 -10.08188,17.68004 -13.56938,23.83975 -16.92135,29.88689 -4.10558,7.40671 -6.29796,11.32504 -8.917,15.93695 -18.22025,32.08437 -18.87838,33.39151 -19.54451,38.81782 -1.00463,8.18377 0.49581,14.20672 4.8686,19.54313 4.11342,5.01989 10.34881,9.39435 15.01426,10.5333 1.65,0.40281 61.95,0.66182 134,0.57559 L 390.5,393.5 Z m -197.1773,-54.0823 c -3.54456,-2.6067 -8.33625,-10.49368 -8.31807,-13.69131 0.007,-1.27513 4.51318,-12.01913 5.65861,-13.49247 0.56534,-0.72718 3.00989,-4.86272 5.43233,-9.19008 2.42243,-4.32736 5.6144,-9.95236 7.09325,-12.5 1.47885,-2.54764 3.63554,-6.43207 4.79263,-8.63207 1.1571,-2.2 3.09713,-5.63574 4.31118,-7.63498 1.21405,-1.99924 4.68237,-8.01712 7.70737,-13.37305 3.025,-5.35594 6.43662,-11.3702 7.58137,-13.36502 1.14476,-1.99482 3.79462,-6.77695 5.88858,-10.62695 5.3206,-9.78256 8.64348,-13.70272 13.79634,-16.27618 5.59296,-2.79326 6.71085,-2.77768 12.51695,0.17436 5.28434,2.68675 6.98156,4.71411 13.30743,15.89585 2.42513,4.28672 5.37241,9.46172 6.5495,11.5 2.30076,3.98405 4.08443,7.10758 11.85983,20.76865 2.75,4.83164 6.22193,10.84412 7.7154,13.36106 1.49348,2.51694 3.65843,6.37626 4.81101,8.57626 2.43314,4.64426 4.1164,7.61055 9.28558,16.36331 5.41795,9.17398 8.68937,17.41549 7.98387,20.11332 -1.25374,4.79432 -3.93442,8.95873 -7.68336,11.93603 L 313.72499,340 H 257.5595 201.39401 Z m 81.31864,-31.51365 c 0.31821,-0.82925 -0.25842,-2.74175 -1.28139,-4.25 -1.02297,-1.50825 -2.75995,-4.37131 -3.85995,-6.36235 -10.81993,-19.58447 -15.17556,-26.82844 -16.1455,-26.85205 -0.63002,-0.0153 -2.13994,1.88462 -3.35537,4.22212 -2.83195,5.44636 -5.51575,10.22441 -8.56582,15.25 -1.3352,2.2 -3.32367,5.85305 -4.41883,8.11789 -1.09516,2.26484 -2.67143,4.68244 -3.50284,5.37245 -1.56124,1.29571 -2.01609,4.17187 -0.84497,5.34299 C 237.03333,306.7 246.49746,307 257.69805,307 c 17.22583,0 20.4539,-0.23239 20.94329,-1.50772 z"
         id="path1343" />
      <path
         style="fill:#b2b2b2"
         d="m 125,424.95113 c -3.025,-0.4483 -7.3,-1.50095 -9.5,-2.33922 -2.2,-0.83827 -4.71039,-1.54388 -5.57864,-1.56802 -2.73557,-0.0761 -18.503137,-11.76301 -22.609754,-16.75839 -13.137644,-15.98093 -17.206201,-36.35148 -10.906045,-54.60468 2.187316,-6.33722 15.783179,-31.62666 35.209789,-65.49313 1.16344,-2.02823 3.24224,-5.71269 4.61955,-8.18769 1.37731,-2.475 4.97205,-8.775 7.9883,-14 3.01625,-5.225 9.48745,-16.6508 14.38045,-25.39068 4.89299,-8.73987 10.10621,-17.96487 11.58492,-20.5 1.47872,-2.53512 3.54836,-6.18432 4.59921,-8.10932 1.05085,-1.925 6.52809,-11.6 12.17164,-21.5 5.64355,-9.9 11.26024,-19.8 12.48151,-22 1.22128,-2.2 3.4379,-6.025 4.92582,-8.5 1.48792,-2.475 3.40328,-5.85 4.25636,-7.5 0.85308,-1.65 2.74936,-5.10382 4.21397,-7.67516 1.46461,-2.57133 5.78939,-10.22133 9.61063,-17 C 216.49367,98.908119 234.29603,87 257.5,87 c 22.65616,0 40.93707,11.920794 53.94387,35.17625 2.84645,5.0893 26.57172,47.01079 29.19696,51.58972 3.76122,6.56029 31.55636,55.59892 33.57391,59.23403 3.01566,5.43346 28.61075,50.69649 32.23204,57 5.73617,9.98483 9.22698,16.12084 11.37811,20 1.37248,2.475 3.43584,6.14538 4.58526,8.1564 C 438.61218,346.50343 441,352.77727 441,367 c 0,7.60789 -0.52783,11.0781 -2.65782,17.47388 -3.88495,11.66546 -8.85927,18.89906 -18.34218,26.67302 -7.59723,6.22811 -11.47488,8.41026 -20.6132,11.60011 L 391.5,425.5 261,425.63311 c -71.775,0.0732 -132.975,-0.23367 -136,-0.68198 z m 267.30489,-31.01887 c 2.46826,-0.68541 6.03538,-3.24359 10.15432,-7.28223 7.45027,-7.30504 9.0003,-11.43447 8.31429,-22.15003 -0.50816,-7.93745 0.77902,-5.28479 -22.32112,-46 -8.11323,-14.3 -15.61946,-27.575 -16.6805,-29.5 -3.09362,-5.61259 -32.12834,-56.92217 -38.52188,-68.07509 -5.5513,-9.68371 -7.57349,-13.25195 -21.25,-37.49642 -7.975,-14.13736 -15.7194,-27.77973 -17.20978,-30.31639 -1.49038,-2.53665 -3.2854,-5.7371 -3.98894,-7.1121 -3.03724,-5.93601 -11.17263,-18.71294 -13.44534,-21.11636 -7.63567,-8.07487 -21.92968,-10.36158 -32.22104,-5.15463 -5.92007,2.99529 -10.99503,8.2381 -15.02086,15.51771 -1.43772,2.59971 -8.01404,14.25037 -14.61404,25.89034 -6.6,11.63997 -13.28936,23.45844 -14.86525,26.26326 -1.57589,2.80483 -3.92406,6.89968 -5.21817,9.09968 -1.2941,2.2 -3.05342,5.35 -3.90961,7 -0.85618,1.65 -2.78301,5.09774 -4.28184,7.66164 -2.29802,3.93102 -8.12021,14.15325 -25.22513,44.28865 -1.375,2.42247 -3.625,6.41341 -5,8.86875 -2.45021,4.37536 -24.47232,43.28372 -28.58985,50.51217 -1.14942,2.01783 -3.22231,5.69379 -4.60642,8.16879 -1.38411,2.475 -6.29368,11.025 -10.91015,19 L 104.5,356.5 v 10.52545 10.52546 l 3.76634,5.13079 c 3.31417,4.5148 10.30712,10.03057 14.73366,11.62135 3.01832,1.0847 265.36424,0.7235 269.30489,-0.37079 z M 203.5,338.15032 c -7.94224,-2.5825 -12.04548,-8.43975 -11.23742,-16.04107 0.5383,-5.06372 1.4006,-7.30444 5.49547,-14.28036 2.45082,-4.17515 17.08641,-29.89498 24.6072,-43.24343 1.57589,-2.797 3.82589,-6.7574 5,-8.80088 1.17411,-2.04348 5.40533,-9.46848 9.4027,-16.5 8.82866,-15.52993 9.84886,-16.78519 15.77128,-19.40496 4.44359,-1.96561 4.88747,-1.98838 8.89874,-0.45646 4.63608,1.77053 8.31554,5.20062 11.34582,10.57684 5.52828,9.80811 22.74693,40.0108 24.79949,43.5 1.29418,2.2 3.05356,5.35 3.90975,7 0.85618,1.65 2.78301,5.09656 4.28184,7.65903 15.1698,25.93505 16.72513,29.19147 16.72513,35.01764 0,6.81653 -2.09207,10.15314 -8.48614,13.5344 L 309.68543,339 257.59272,338.90032 C 228.94172,338.8455 204.6,338.508 203.5,338.15032 Z m 77.0722,-31.47787 c 0.70245,-1.83055 -0.24856,-3.77248 -11.34811,-23.17245 -7.43129,-12.98854 -10.19298,-17 -11.70364,-17 -1.81453,0 -7.98206,9.62465 -18.26297,28.5 -1.0485,1.925 -2.73759,4.88671 -3.75354,6.58158 -1.01594,1.69487 -1.55907,3.83237 -1.20694,4.75 0.57164,1.48968 3.05744,1.66842 23.203,1.66842 17.83068,0 22.66961,-0.27843 23.0722,-1.32755 z"
         id="path1341" />
      <path
         style="fill:#929292"
         d="M 126,424.04908 C 112.47454,421.90852 102.83058,417.24499 92.663126,407.92836 76.81623,393.40756 70.9931,372.51841 76.951436,351.56626 78.993943,344.3839 86.864048,329.40921 107,294.39196 c 1.375,-2.39118 8.125,-14.29077 15,-26.44353 6.875,-12.15276 13.44043,-23.75024 14.58985,-25.77218 1.14942,-2.02194 3.21119,-5.70125 4.58171,-8.17625 1.37053,-2.475 3.54226,-6.3 4.82607,-8.5 1.2838,-2.2 3.49703,-6.06985 4.91828,-8.59968 2.92259,-5.20221 25.44741,-44.92636 28.72426,-50.65733 2.92288,-5.1119 5.33806,-9.39775 16.30031,-28.92581 12.91103,-22.99958 15.52524,-26.95073 22.11837,-33.42986 13.84647,-13.607063 35.64739,-19.201595 53.91315,-13.835144 17.77612,5.222596 27.77142,13.723574 38.82779,33.022944 5.33504,9.31255 27.73627,48.86329 29.40984,51.92488 1.05227,1.925 3.12308,5.58764 4.6018,8.1392 1.47871,2.55156 9.21357,16.18995 17.18857,30.30754 7.975,14.11759 15.5125,27.44245 16.75,29.6108 1.2375,2.16835 3.2625,5.71657 4.5,7.88492 1.2375,2.16835 8.775,15.49321 16.75,29.6108 7.975,14.11759 15.70986,27.75598 17.18857,30.30754 1.47872,2.55156 3.56179,6.2142 4.62904,8.1392 1.06726,1.925 4.4427,7.95072 7.50099,13.39049 3.05829,5.43977 6.74118,13.44996 8.18419,17.80042 6.77699,20.43155 0.10556,44.35332 -16.42833,58.90705 -7.234,6.36762 -12.59943,9.46434 -22.07446,12.74052 l -7.5,2.59328 -130.5,0.16475 c -71.775,0.0906 -132.525,-0.15573 -135,-0.54743 z M 398.58157,391.5 c 3.17289,-2.2 7.23298,-6.14012 9.02243,-8.75583 6.08942,-8.90114 5.69934,-23.04639 -0.94433,-34.24417 -1.9579,-3.3 -4.42105,-7.575 -5.47366,-9.5 -1.05261,-1.925 -8.55921,-15.2 -16.68135,-29.5 -8.12213,-14.3 -15.6149,-27.575 -16.65061,-29.5 -1.03571,-1.925 -3.11407,-5.62685 -4.61858,-8.22634 C 361.73096,269.17417 353.975,255.55381 346,241.50618 c -7.975,-14.04763 -15.46064,-27.22078 -16.63475,-29.27366 -1.17411,-2.05289 -3.42411,-6.02737 -5,-8.8322 C 322.78936,200.5955 316.1,188.75387 309.5,177.08559 302.9,165.4173 296.43808,153.98716 295.14017,151.68526 293.84226,149.38337 291.7324,145.7 290.45159,143.5 c -1.28082,-2.2 -3.49716,-6.15366 -4.92521,-8.7859 -3.50543,-6.46136 -8.90584,-12.26437 -14.44274,-15.51944 C 267.0232,116.80758 265.4727,116.5 257.5,116.5 c -8.03275,0 -9.50633,0.29764 -13.71129,2.76947 -5.25812,3.09091 -11.88353,10.28673 -15.14075,16.44426 -1.7868,3.37783 -20.70152,36.85008 -28.28813,50.05982 -2.4463,4.25948 -2.55358,4.44914 -19.35983,34.22645 -6.875,12.18112 -13.44043,23.80181 -14.58985,25.82375 -1.14942,2.02194 -3.22651,5.70125 -4.61577,8.17625 -1.38925,2.475 -9.17858,16.2 -17.30962,30.5 -8.13104,14.3 -15.64409,27.575 -16.69566,29.5 -1.05157,1.925 -3.12181,5.57526 -4.60053,8.11168 -15.32344,26.28415 -19.24791,34.16272 -19.8403,39.83033 -1.06484,10.18787 0.27234,16.39843 4.75049,22.06372 3.97624,5.03031 10.12503,9.60699 14.85446,11.05648 1.40073,0.4293 62.69214,0.70343 136.20313,0.60917 L 392.8127,395.5 Z M 203.5,336.96134 c -1.65,-0.49091 -4.575,-2.20871 -6.5,-3.81734 -3.3265,-2.7798 -3.5,-3.24004 -3.5,-9.28439 0,-6.32576 0.0719,-6.48605 13.5,-30.11284 17.27382,-30.39327 16.15751,-28.42269 27.04807,-47.74677 5.11444,-9.075 10.41954,-17.98903 11.78911,-19.80895 C 248.94066,222.06706 252.83462,220 257.5,220 c 6.43116,0 10.70034,3.41522 15.55845,12.44633 0.90347,1.67952 7.15989,12.72867 13.90317,24.55367 6.74327,11.825 13.25979,23.3 14.48115,25.5 1.22136,2.2 3.14002,5.575 4.26369,7.5 10.75356,18.42239 15.58697,27.76879 16.01651,30.97128 0.79133,5.89979 -1.2969,10.71827 -5.99201,13.82623 l -4.08259,2.70249 -52.57418,0.17695 C 230.15838,337.77427 205.15,337.45224 203.5,336.96134 Z m 78.31013,-30.21122 c 0.34335,-1.78565 -0.35858,-3.38169 -5.4286,-12.34355 -1.58484,-2.80139 -5.95361,-10.56389 -9.70836,-17.25 -8.72379,-15.53447 -9.57405,-15.74002 -16.15999,-3.90657 -2.52536,4.5375 -4.99917,8.925 -5.49735,9.75 -11.40688,18.88989 -13.43445,23.18138 -11.74877,24.86706 0.84034,0.84034 7.76765,1.09303 24.68735,0.90053 21.48025,-0.24439 23.54841,-0.41929 23.85572,-2.01747 z"
         id="path1339" />
      <path
         style="fill:#707070"
         d="M 128.5,423.33909 C 120.37887,422.2927 110.85898,419.37802 105,416.14414 97.439941,411.97136 86.574808,401.52847 82.850923,394.85583 75.66718,381.98365 73.882639,367.06344 77.775831,352.42395 79.721925,345.10609 90.4493,324.54197 107.99215,294.5 c 1.28468,-2.2 9.96883,-17.5 19.2981,-34 9.32928,-16.5 18.14299,-32.06985 19.58604,-34.59968 1.44304,-2.52982 8.02371,-14.15173 14.62371,-25.82647 6.6,-11.67474 13.22631,-23.32988 14.72513,-25.90032 1.49883,-2.57044 3.42566,-6.02353 4.28184,-7.67353 0.85619,-1.65 2.6094,-4.8 3.89602,-7 1.28663,-2.2 6.8038,-11.875 12.26039,-21.5 15.26349,-26.92362 17.84386,-30.53669 26.86517,-37.61693 16.69167,-13.100187 42.15709,-14.94776 60.78383,-4.409999 10.59521,5.994059 18.57531,14.619569 25.98371,28.085199 2.74561,4.99046 30.65906,54.24747 34.25173,60.44173 1.27599,2.2 3.18304,5.575 4.23788,7.5 2.51991,4.59865 26.79447,47.35177 29.80869,52.5 1.28806,2.2 3.04245,5.35 3.89864,7 0.85618,1.65 2.78301,5.09908 4.28184,7.66462 1.49882,2.56555 8.35013,14.63623 15.22513,26.82375 17.11021,30.33179 16.94905,30.04721 19.35983,34.18454 8.5878,14.7382 14.03689,25.76955 15.81826,32.0231 5.33994,18.746 -0.13572,39.60216 -14.11966,53.78016 -7.22131,7.32151 -15.96166,12.51573 -25.71889,15.28423 l -7.83954,2.22438 -129,0.12042 c -70.95,0.0662 -130.35,-0.0535 -132,-0.26611 z m 267.43824,-28.71211 c 6.45181,-3.5147 13.75151,-11.84317 15.47911,-17.66061 3.0001,-10.10245 1.76653,-18.97646 -4.04126,-29.07171 -2.02336,-3.51706 -4.53836,-7.96966 -5.58889,-9.89466 -1.05053,-1.925 -3.11991,-5.57545 -4.59863,-8.1121 C 395.70986,327.35124 387.975,313.73485 380,299.62925 c -7.975,-14.1056 -15.46124,-27.33016 -16.63609,-29.3879 -3.96551,-6.94557 -31.55372,-55.7078 -33.79987,-59.74135 -1.22511,-2.2 -3.27765,-5.8 -4.56119,-8 -2.39623,-4.10712 -25.45392,-44.83247 -29.44113,-52 -6.37316,-11.45659 -12.39134,-21.41045 -15.05116,-24.89409 -1.30428,-1.70825 -4.97271,-4.68091 -8.15208,-6.60591 -5.48936,-3.32362 -6.23618,-3.49872 -14.81958,-3.47456 -17.05269,0.048 -20.61216,3.46524 -40.5389,38.91905 -7.975,14.18919 -15.625,27.76214 -17,30.16212 -1.375,2.39998 -9.025,15.90735 -17,30.01639 -7.975,14.10904 -15.70493,27.72824 -17.17762,30.2649 -1.47269,2.53665 -3.72269,6.48878 -5,8.7825 -1.98556,3.56556 -27.09086,47.89677 -33.45741,59.07947 -16.88889,29.66492 -23.39363,41.69073 -24.28305,44.89389 -1.37793,4.96246 -1.37035,13.77725 0.0162,18.77097 2.21085,7.96285 12.20662,17.71807 20.08872,19.6053 1.82226,0.43631 63.16321,0.72279 136.31321,0.63663 127.94153,-0.1507 133.13077,-0.2279 136.43824,-2.02968 z M 201.24119,334.55051 c -3.48758,-1.63586 -5.59266,-3.34474 -6.25,-5.07369 -1.41193,-3.71365 -1.2145,-10.54629 0.38941,-13.47682 0.75255,-1.375 6.8864,-12.175 13.63077,-24 6.74437,-11.825 13.27401,-23.3 14.5103,-25.5 22.91389,-40.77557 23.7148,-42.0538 27.61289,-44.06959 3.52058,-1.82056 9.1907,-1.83268 12.6651,-0.0271 1.48519,0.77184 3.82534,3.27499 5.20034,5.56258 1.375,2.28758 3.42571,5.59817 4.55713,7.35686 1.13142,1.7587 2.75933,4.54304 3.61757,6.18743 0.85825,1.64439 7.08166,12.6648 13.8298,24.4898 6.74815,11.825 13.28042,23.3 14.51615,25.5 1.23573,2.2 5.05232,8.915 8.48132,14.92222 3.429,6.00722 6.45854,12.59226 6.73232,14.63341 0.81528,6.07839 -1.28935,10.66164 -6.06948,13.21751 -4.13358,2.21016 -4.55471,2.2288 -56.16481,2.48545 l -52,0.25858 -5.25881,-2.46666 z m 81.77083,-26.06499 c 1.44381,-1.73969 1.37089,-1.89396 -12.51877,-26.48552 -4.81505,-8.525 -9.54293,-16.33461 -10.50641,-17.35469 -2.80818,-2.97315 -5.15572,-1.26478 -9.75116,7.09618 -2.34537,4.26718 -5.61871,10.00851 -7.27409,12.75851 -1.65538,2.75 -3.56143,6.125 -4.23568,7.5 -0.67425,1.375 -2.68841,4.94853 -4.47591,7.94117 -3.44657,5.77027 -4.04294,8.5722 -2,9.39655 0.6875,0.27741 12.1074,0.53991 25.37756,0.58333 20.396,0.0667 24.32194,-0.15528 25.38446,-1.43553 z"
         id="path1337" />
      <path
         style="fill:#4e4e4e"
         d="m 117.5,420.05692 c -3.85,-0.95434 -8.8,-2.79887 -11,-4.09894 -18.545005,-10.959 -25.018689,-20.59303 -30.085606,-44.77293 -0.714309,-3.40876 2.460308,-20.98056 4.730734,-26.18505 1.614594,-3.70113 10.78395,-20.32412 22.489622,-40.77111 1.17411,-2.05089 3.42411,-6.02374 5,-8.82857 1.57589,-2.80482 8.26525,-14.64645 14.86525,-26.31473 6.6,-11.66829 13.06192,-23.09843 14.35983,-25.40033 1.29791,-2.30189 3.32291,-5.86961 4.5,-7.92825 1.96937,-3.44428 22.30679,-39.28663 29.02733,-51.15733 1.58794,-2.80483 3.75308,-6.67468 4.81143,-8.59968 1.05834,-1.925 3.13412,-5.57914 4.61284,-8.12032 1.47871,-2.54118 7.83208,-13.79118 14.11859,-25 14.87815,-26.52766 19.06922,-32.82554 25.91124,-38.93649 21.72674,-19.405261 55.08124,-18.286175 75.69514,2.53967 3.32001,3.35415 7.57298,8.78016 9.45103,12.0578 5.22371,9.11657 6.66986,11.66042 8.78848,15.45934 1.07355,1.925 8.58507,15.2 16.69225,29.5 8.10718,14.3 15.75988,27.8 17.00599,30 14.72434,25.99573 32.2293,56.82005 34.07367,60 1.27599,2.2 3.18304,5.575 4.23788,7.5 2.51991,4.59865 26.79447,47.35177 29.80869,52.5 1.28806,2.2 3.04245,5.35 3.89864,7 0.85618,1.65 2.88389,5.25 4.50601,8 9.5619,16.21042 12.95507,26.17352 12.98382,38.12337 0.0296,12.29236 -4.61221,26.1114 -11.65264,34.69104 -3.21555,3.91855 -12.94874,11.8082 -18.33022,14.85834 -10.56211,5.98644 -6.61449,5.83719 -151.37267,5.7233 C 134.79024,421.8002 123.95483,421.65696 117.5,420.05692 Z m 278.92291,-24.97983 c 10.06961,-4.95597 16.306,-13.99592 17.31245,-25.09525 C 414.49262,361.63063 412.48106,354.84535 405.73634,343 397.80581,329.0721 397.72206,328.92446 381,299.38906 373.025,285.30319 365.29014,271.69076 363.81143,269.1392 362.33271,266.58764 360.26247,262.925 359.2109,261 357.59443,258.04091 351.92964,248.05394 325.11818,200.89484 323.67818,198.362 317.1,186.73796 310.5,175.06363 c -6.6,-11.67432 -12.94043,-22.877 -14.08985,-24.89484 -1.14942,-2.01783 -3.21304,-5.69379 -4.58583,-8.16879 -10.99087,-19.81544 -16.2748,-24.92782 -27.99655,-27.08764 -12.60391,-2.32236 -23.26151,1.56349 -31.10782,11.34217 -1.87358,2.33501 -8.53954,13.41633 -14.81323,24.62515 -6.2737,11.20882 -12.61658,22.45882 -14.09529,25 -1.47872,2.54118 -3.54896,6.19532 -4.60053,8.12032 -1.05157,1.925 -8.56462,15.2 -16.69566,29.5 -8.13104,14.3 -15.92037,28.025 -17.30962,30.5 -1.38926,2.475 -3.46635,6.15837 -4.61577,8.18526 -1.14942,2.0269 -7.48985,13.23204 -14.08985,24.90033 -6.6,11.66828 -13.1803,23.28491 -14.6229,25.81473 -20.84756,36.55962 -28.37529,50.33566 -29.51228,54.00861 -1.64602,5.31732 -1.75798,14.13471 -0.24853,19.57181 2.4782,8.92657 11.47459,17.62078 20.87915,20.17786 3.46489,0.94209 34.97071,1.18053 136.50456,1.03309 L 391.5,397.5 Z M 206.5,335.35822 c -4.74597,-1.07371 -9.35153,-3.73694 -10.38507,-6.00532 -3.17418,-6.96656 -2.30673,-8.97443 22.88507,-52.97172 1.375,-2.40143 7.62931,-13.48209 13.89846,-24.6237 13.06065,-23.21154 15.70725,-27.23074 18.89859,-28.69997 2.9796,-1.37174 8.4646,-1.35105 11.52526,0.0435 2.06344,0.94017 7.48618,8.93924 13.66149,20.15204 0.83391,1.51417 5.7912,10.24339 11.0162,19.39827 5.225,9.15487 10.66284,18.71601 12.08409,21.24696 1.42125,2.53096 3.50091,6.17674 4.62147,8.10174 12.44893,21.38587 14.64198,25.7827 15.07997,30.23374 0.54881,5.57725 -1.15945,8.82578 -6.04495,11.49545 -2.96965,1.62276 -7.50451,1.7838 -54.24058,1.92616 -28.05,0.0854 -51.9,-0.0483 -53,-0.29713 z m 76.91821,-24.96521 c 2.29852,-0.88202 1.94675,-3.86587 -1.08467,-9.20057 -1.46655,-2.58084 -3.66528,-6.49244 -4.88608,-8.69244 -15.23159,-27.44899 -16.92836,-30 -19.95414,-30 -2.65898,0 -3.46127,0.88334 -8.1742,9 -2.87421,4.95 -6.08673,10.575 -7.13893,12.5 -1.0522,1.925 -4.22216,7.55 -7.04436,12.5 -4.81123,8.43868 -6.04499,12.25751 -4.46916,13.83333 0.83309,0.8331 50.58936,0.88939 52.75154,0.0597 z"
         id="path1335" />
      <path
         style="fill:#2d2d2d"
         d="M 120,419.58792 C 111.08587,417.95893 101.76077,412.7375 93.947018,405 85.958577,397.08951 81.450578,389.27273 79.483156,379.91993 76.385144,365.19249 78.415829,352.03845 86.038581,337.45625 88.901092,331.98031 91.776426,326.825 92.428212,326 c 0.651786,-0.825 1.723723,-2.625 2.382084,-4 0.65836,-1.375 2.432873,-4.59908 3.943361,-7.16462 C 100.26415,312.26983 107.125,300.19915 114,288.01163 c 15.78481,-27.98221 16.76224,-29.71165 19.35983,-34.25462 3.42511,-5.99025 25.86211,-45.56275 29.00542,-51.15733 1.57589,-2.80483 3.82589,-6.77931 5,-8.8322 1.73711,-3.03726 22.12472,-38.91293 33.82723,-59.52509 1.48087,-2.60831 3.26216,-5.86739 3.95844,-7.24239 3.36036,-6.63604 12.31658,-19.24432 15.76964,-22.20001 12.38471,-10.600851 27.77613,-14.983985 44.79687,-12.757156 10.52896,1.377505 17.83254,4.663444 26.54647,11.943466 7.76568,6.4878 11.32359,11.77237 26.93981,40.0137 1.06444,1.925 3.01802,5.3 4.34129,7.5 1.32327,2.2 3.42948,5.89539 4.68047,8.21197 1.25099,2.31659 6.77453,12.12764 12.27453,21.80233 5.5,9.6747 11.02027,19.47931 12.26726,21.78803 1.24699,2.30872 3.32516,5.99767 4.61815,8.19767 2.48207,4.2232 30.51263,53.52416 33.82933,59.5 1.06841,1.925 3.14467,5.62142 4.61391,8.21427 16.4422,29.01641 32.27859,57.11833 34.83008,61.80652 3.41463,6.27419 6.34127,18.28336 6.34127,26.0208 0,25.49899 -18.5416,48.18706 -42.93731,52.53941 -10.33026,1.84298 -263.9804,1.84939 -274.06269,0.007 z m 268.9444,-21.14347 c 13.03342,-2.96438 21.25198,-10.62422 25.12346,-23.4155 2.24572,-7.41981 2.2489,-7.51927 0.46365,-14.5 -1.64091,-6.41632 -4.45704,-11.92828 -21.12136,-41.34041 -1.14942,-2.0287 -3.21119,-5.71354 -4.58171,-8.18854 -1.37053,-2.475 -3.54333,-6.3 -4.82844,-8.5 -1.28511,-2.2 -3.33734,-5.8 -4.56051,-8 -1.22317,-2.2 -6.83314,-12.1 -12.46659,-22 -5.63346,-9.9 -11.1096,-19.575 -12.1692,-21.5 -1.05961,-1.925 -3.13641,-5.57545 -4.61513,-8.1121 C 348.70986,240.35124 340.975,226.70887 333,212.57151 c -13.66896,-24.23108 -15.6771,-27.77455 -21.25,-37.49674 -1.2375,-2.15887 -7.37582,-13.03555 -13.64071,-24.17039 -13.66393,-24.28544 -16.0842,-27.82918 -21.8196,-31.94803 -13.30183,-9.55265 -34.26102,-6.86019 -43.78358,5.62452 -2.45311,3.21619 -10.76355,17.04189 -14.67802,24.41913 -1.02144,1.925 -3.18837,5.75 -4.81541,8.5 -1.62703,2.75 -3.65668,6.35 -4.51033,8 -0.85364,1.65 -2.77839,5.09774 -4.27722,7.66164 -3.6556,6.2533 -25.55537,44.81155 -30.01039,52.83836 -1.06841,1.925 -8.58794,15.2 -16.71008,29.5 -8.12213,14.3 -15.64812,27.575 -16.72443,29.5 -1.07631,1.925 -3.15467,5.603 -4.61858,8.17334 -1.46391,2.57034 -8.06165,14.22012 -14.66165,25.88842 -6.6,11.66829 -13.21789,23.29029 -14.70641,25.82666 -3.84735,6.55566 -4.73258,8.75918 -6.53769,16.27363 -1.493488,6.21719 -1.481852,7.09984 0.17425,13.21798 3.37017,12.4504 11.7274,20.6943 24.06985,23.74343 6.43829,1.59054 17.05478,1.73522 132.30259,1.80292 109.94999,0.0646 126.14057,-0.11697 132.14181,-1.48193 z M 201.32874,332.54224 C 197.40356,330.83481 196,328.32915 196,323.02925 c 0,-3.19518 1.35835,-6.47113 6.14328,-14.81574 3.3788,-5.89243 7.01856,-12.28851 8.08835,-14.21351 1.06978,-1.925 3.14281,-5.59781 4.60672,-8.16179 2.98376,-5.22597 16.39103,-28.78446 20.02148,-35.18064 1.29791,-2.28666 3.32291,-5.81231 4.5,-7.83476 1.17709,-2.02246 3.68065,-6.43864 5.56347,-9.81374 C 249.32959,225.11042 252.03067,223 257.73365,223 c 6.48465,0 7.23142,0.93683 22.6316,28.3919 1.57589,2.80946 3.82589,6.78109 5,8.82586 1.89875,3.30676 18.80233,33.0508 24.21476,42.609 1.14401,2.02028 3.12705,5.47324 4.40676,7.67324 4.51279,7.75811 5.00097,9.03916 5.00707,13.13922 0.007,4.88876 -2.06388,7.66755 -6.89306,9.24819 -5.42311,1.77502 -106.62289,1.45968 -110.77204,-0.34517 z m 83.10513,-20.87023 c 3.55878,-2.60224 2.33593,-5.69284 -11.74031,-29.67201 -1.13001,-1.925 -2.7863,-4.85 -3.68064,-6.5 -7.71441,-14.23256 -8.03997,-14.62452 -11.87988,-14.30289 -3.06479,0.25669 -3.94403,0.91296 -5.76486,4.30289 -2.31366,4.30745 -2.69964,4.99544 -15.11818,26.9473 -4.5375,8.0208 -8.25,15.02639 -8.25,15.56799 0,0.54159 0.9,1.88471 2,2.98471 1.89464,1.89464 3.33333,2 27.30887,2 19.46139,0 25.72848,-0.30682 27.125,-1.32799 z"
         id="path1333" />
      <path
         style="fill:#040404"
         d="m 120,417.96774 c -6.20476,-0.90327 -11.99268,-3.68301 -20.026879,-9.61822 C 88.248713,399.68819 81.482073,387.77131 80.468783,374 c -0.343985,-4.675 -0.173145,-12.325 0.379645,-17 1.051203,-8.89012 1.623154,-10.09615 20.314492,-42.83566 1.46461,-2.56539 3.36878,-6.01434 4.23149,-7.66434 0.86271,-1.65 2.91133,-5.25 4.55248,-8 1.64116,-2.75 3.91713,-6.8 5.05773,-9 1.1406,-2.2 3.12688,-5.8 4.41395,-8 6.25658,-10.6944 19.97608,-34.78115 24.77704,-43.5 1.05998,-1.925 3.24281,-5.75 4.85073,-8.5 1.60791,-2.75 3.62946,-6.35 4.49233,-8 0.86286,-1.65 2.78215,-5.09781 4.26508,-7.66179 C 159.28669,211.27422 163.875,203.24703 168,196 c 4.125,-7.24703 8.71331,-15.27422 10.19625,-17.83821 1.48293,-2.56398 3.40662,-6.01179 4.27486,-7.66179 0.86824,-1.65 2.92142,-5.25 4.56263,-8 1.64121,-2.75 3.66621,-6.35 4.5,-8 0.83379,-1.65 2.7423,-5.09069 4.24113,-7.64598 1.49882,-2.55528 6.07737,-10.65429 10.17455,-17.9978 9.4679,-16.96963 17.9117,-25.92788 29.72351,-31.534477 l 7.78819,-3.696743 14.01944,0.0042 14.01944,0.0042 7.99308,3.933349 c 8.98711,4.422501 19.62658,14.010131 23.61899,21.283951 1.31336,2.39283 3.59004,6.44283 5.05928,9 1.46924,2.55717 3.54401,6.2244 4.6106,8.1494 3.29809,5.95248 17.59555,30.92388 19.9328,34.81388 1.21812,2.02736 2.95043,5.26112 3.84959,7.18612 0.89916,1.925 2.21339,4.175 2.92052,5 0.70713,0.825 3.02482,4.73842 5.15042,8.6965 2.1256,3.95807 4.98972,9.20582 6.36472,11.66165 4.17082,7.44936 17.3255,30.59141 20.18882,35.51671 1.47885,2.54383 3.634,6.42514 4.78922,8.62514 1.15522,2.2 3.15346,5.8 4.44053,8 4.91072,8.39391 17.95007,31.15322 19.76587,34.5 1.04442,1.925 3.191,5.75 4.77017,8.5 1.57918,2.75 3.60541,6.35 4.50274,8 0.89733,1.65 2.94153,5.25 4.54265,8 1.60112,2.75 3.65094,6.575 4.55515,8.5 0.90421,1.925 2.23248,4.175 2.95172,5 0.71923,0.825 3.62433,5.95483 6.45579,11.39962 6.44865,12.40055 7.99049,21.45321 6.17292,36.24316 -2.16751,17.63734 -11.30849,29.60355 -30.14342,39.45987 L 397.5,418.5 l -136,0.13421 c -74.8,0.0738 -138.475,-0.2261 -141.5,-0.66647 z m 271.38729,-18.4006 c 12.3152,-3.90863 18.89134,-9.80005 23.20035,-20.7847 3.86975,-9.86488 3.9807,-12.4847 0.9062,-21.39885 -1.49548,-4.33598 -3.47782,-9.00859 -4.4052,-10.38359 -0.92738,-1.375 -2.24481,-3.625 -2.92761,-5 -0.68281,-1.375 -2.5817,-4.75 -4.21976,-7.5 -1.63806,-2.75 -3.68415,-6.35 -4.54686,-8 -0.86271,-1.65 -2.76688,-5.09781 -4.23149,-7.66179 C 393.69831,316.27422 389.125,308.24703 385,301 c -4.125,-7.24703 -8.69774,-15.27422 -10.16165,-17.83821 -4.38596,-7.68185 -6.49706,-11.45995 -8.63726,-15.45754 -1.11768,-2.08767 -2.45857,-4.33767 -2.97976,-5 -0.52119,-0.66234 -2.75837,-4.57925 -4.97152,-8.70425 -2.21315,-4.125 -7.51397,-13.575 -11.77961,-21 -4.26564,-7.425 -8.62686,-15.075 -9.6916,-17 -2.7221,-4.92141 -5.84634,-10.43903 -17.2786,-30.51513 -5.5,-9.65851 -11.02354,-19.45631 -12.27453,-21.7729 -1.25099,-2.31658 -3.3693,-6.01197 -4.70737,-8.21197 -1.33806,-2.2 -3.37948,-5.8 -4.53648,-8 -1.157,-2.2 -2.88572,-5.35 -3.84159,-7 -0.95588,-1.65 -3.27331,-5.7 -5.14986,-9 -1.87655,-3.3 -5.81366,-8.32524 -8.74913,-11.16721 -4.27101,-4.13495 -6.70708,-5.58328 -12.19437,-7.25 -8.64687,-2.6264 -12.48033,-2.61612 -21.28133,0.0571 -5.97182,1.81389 -7.93439,3.02916 -12.88218,7.97695 -3.21038,3.21038 -6.54662,7.30993 -7.41386,9.11011 -0.86724,1.80018 -2.79012,5.37086 -4.27305,7.93484 C 220.71331,140.72578 216.125,148.75297 212,156 c -4.125,7.24703 -8.71331,15.27422 -10.19625,17.83821 -1.48293,2.56398 -3.40662,6.01179 -4.27486,7.66179 -0.86824,1.65 -2.90638,5.25 -4.5292,8 -1.62282,2.75 -3.80125,6.575 -4.84095,8.5 -3.73103,6.90793 -18.24958,32.42792 -24.74755,43.5 -1.29114,2.2 -3.08383,5.575 -3.98376,7.5 -0.89993,1.925 -2.15176,4.12008 -2.78184,4.87796 -1.13215,1.3618 -7.69134,12.86912 -11.75459,20.62204 -2.11115,4.02819 -3.25206,6.04547 -12.391,21.90886 -9.56555,16.6039 -10.42026,18.10857 -11.98043,21.09114 -0.86312,1.65 -2.79561,5.10165 -4.29444,7.67032 -13.95192,23.91074 -16.431163,29.00881 -18.52791,38.09899 -0.803081,3.48166 -0.800012,5.77656 0.01137,8.5 4.91533,16.49861 10.93733,23.06544 25.4653,27.76921 l 7.32611,2.372 126.61095,0.0447 126.61095,0.0447 7.66539,-2.43286 z M 201.39966,330.57206 c -4.60595,-2.00509 -5.87633,-7.49038 -2.91167,-12.57206 0.80218,-1.375 2.18473,-3.85 3.07234,-5.5 0.8876,-1.65 2.81214,-5.09781 4.27675,-7.66179 9.8915,-17.31638 17.97233,-31.44453 19.80309,-34.62279 3.14104,-5.45297 6.07114,-10.63761 13.60245,-24.0687 11.94823,-21.30812 13.90742,-23.29402 21.05837,-21.34541 2.45749,0.66965 7.72875,6.8869 9.75222,11.50238 0.52959,1.20797 2.19677,4.27341 3.70484,6.81209 3.28055,5.52246 12.19272,21.30857 17.74195,31.42627 2.2,4.01118 4.37718,7.66765 4.83819,8.1255 0.461,0.45785 1.49769,2.18245 2.30375,3.83245 0.80606,1.65 2.67888,5.1091 4.16181,7.68689 10.74363,18.67567 14.23894,25.13503 14.79067,27.33328 0.95167,3.79178 -1.305,8.18329 -4.83808,9.41493 -4.9002,1.70821 -107.3661,1.37416 -111.35668,-0.36304 z m 85.04364,-17.79457 c 1.78557,-2.54926 2.07958,-8.3363 0.47394,-9.32864 -0.59552,-0.36805 -1.95599,-2.53211 -3.02328,-4.80902 -1.06729,-2.2769 -5.51209,-10.21483 -9.87735,-17.63983 -4.36526,-7.425 -8.68028,-15.1916 -9.58895,-17.25912 -1.00474,-2.28612 -2.54041,-3.98206 -3.91906,-4.32808 -3.46356,-0.8693 -7.71504,-0.0852 -8.60591,1.5872 -1.15806,2.17396 -12.9339,23.25362 -16.08249,28.78888 -1.47389,2.59111 -3.66365,6.62936 -4.86612,8.97387 -1.20248,2.34451 -2.58407,4.50857 -3.0702,4.80902 -1.51115,0.93394 -0.96957,7.67606 0.77111,9.59949 1.5263,1.68654 3.77682,1.82874 28.94329,1.82874 27.06535,0 27.30103,-0.0182 28.84502,-2.22251 z"
         id="path1331" />
    </g>
  </g>
</svg>
