<svg xmlns="http://www.w3.org/2000/svg" viewBox="0 0 192 192"><path d="M36.925 39.363h36.693L88.295 70.26c6.89 13.805 15.818 14.298 25.154 14.298h56.955a5.07 5.07 0 0 1 2.56.694 5.133 5.133 0 0 1 1.867 1.897c.445.787.676 1.679.669 2.585v12.532a5.172 5.172 0 0 1-.669 2.585 5.133 5.133 0 0 1-1.867 1.897 5.07 5.07 0 0 1-2.56.694h-7.216v22.063H152.18v-10.641h-10.845v22.68h-11.66v-34.102h-15.818c-9.459 0-18.469.452-25.399 14.421L73.781 152.76H37.088c-6.074 0-8.153-3.821-9.58-9.655l-7.543-32.869L16.5 96.062l3.262-14.298 7.542-32.869c1.345-5.834 3.506-9.655 9.621-9.655Zm0 0" fill="none" stroke="#000" stroke-width="12" stroke-linecap="round" stroke-linejoin="round"/></svg>