<?xml version="1.0" encoding="UTF-8" standalone="no"?>
<svg
   width="24"
   height="24"
   fill="none"
   version="1.1"
   viewBox="0 0 24 24"
   id="svg4"
   sodipodi:docname="autodoc.svg"
   inkscape:version="1.1.1 (3bf5ae0d25, 2021-09-20)"
   xmlns:inkscape="http://www.inkscape.org/namespaces/inkscape"
   xmlns:sodipodi="http://sodipodi.sourceforge.net/DTD/sodipodi-0.dtd"
   xmlns="http://www.w3.org/2000/svg"
   xmlns:svg="http://www.w3.org/2000/svg">
  <defs
     id="defs8" />
  <sodipodi:namedview
     id="namedview6"
     pagecolor="#505050"
     bordercolor="#eeeeee"
     borderopacity="1"
     inkscape:pageshadow="0"
     inkscape:pageopacity="0"
     inkscape:pagecheckerboard="0"
     showgrid="false"
     inkscape:zoom="31.66819"
     inkscape:cx="12.015212"
     inkscape:cy="8.952201"
     inkscape:window-width="2560"
     inkscape:window-height="1351"
     inkscape:window-x="-9"
     inkscape:window-y="-9"
     inkscape:window-maximized="1"
     inkscape:current-layer="svg4" />
  <path
     style="fill:#000000;stroke-width:0.0909089"
     d="m 8.8016043,19.340905 c -0.0247,-2.27133 -0.0509,-2.69886 -0.17986,-2.93182 -0.2218796,-0.40081 -0.6380496,-0.76402 -0.9916296,-0.86543 -0.17123,-0.0491 -1.50485,-0.0891 -2.97043,-0.0891 h -2.65969 v -2.95455 -2.9545499 h 3.68182 3.6818196 v -3.77272 -3.77273 h 2.9029307 2.90293 l 0.0289,2.65909 c 0.0247,2.27133 0.0509,2.69886 0.17986,2.93182 0.22188,0.40081 0.63805,0.76402 0.99163,0.86543 0.17123,0.0491 1.50485,0.0891 2.97043,0.0891 h 2.65969 v 2.9545499 2.95455 h -3.68182 -3.68182 v 3.77272 3.77273 h -2.90293 -2.9029307 z"
     id="path682" />
</svg>
