<svg xmlns="http://www.w3.org/2000/svg" viewBox="0 0 192 192"><path fill="none" stroke="#000" stroke-linecap="round" stroke-linejoin="round" stroke-width="12" d="M96 16.5a79.529 79.529 0 0 0-56.215 23.285A79.529 79.529 0 0 0 16.5 96a79.529 79.529 0 0 0 23.285 56.215A79.529 79.529 0 0 0 96 175.5a79.529 79.529 0 0 0 56.215-23.285A79.529 79.529 0 0 0 175.5 96a79.529 79.529 0 0 0-23.285-56.215A79.529 79.529 0 0 0 96 16.5Z"/><path fill="none" stroke="#000" stroke-linecap="round" stroke-linejoin="round" stroke-width="12" d="M69.654 132.977V59.023h41.599c4.901 0 9.607 1.949 13.073 5.415a18.496 18.496 0 0 1 5.415 13.074c0 4.901-1.949 9.607-5.415 13.073A18.495 18.495 0 0 1 111.253 96a18.5 18.5 0 0 1 13.066 5.419 18.498 18.498 0 0 1 5.411 13.069c0 4.9-1.948 9.604-5.411 13.07a18.5 18.5 0 0 1-13.066 5.419H91.84M111.253 96H91.84"/></svg>