<svg
    xmlns="http://www.w3.org/2000/svg"
    viewBox="0 0 192 192"
    id="vector">
    <path
        id="path"
        d="M 96 16.5 C 74.923 16.5 54.688 24.882 39.785 39.785 C 24.882 54.688 16.5 74.923 16.5 96 C 16.5 117.077 24.882 137.312 39.785 152.215 C 54.688 167.118 74.923 175.5 96 175.5 C 117.077 175.5 137.312 167.118 152.215 152.215 C 167.118 137.312 175.5 117.077 175.5 96 C 175.5 74.923 167.118 54.688 152.215 39.785 C 137.312 24.882 117.077 16.5 96 16.5 Z"
        fill="none"
        stroke="#000000"
        stroke-width="12"
        stroke-linecap="round"
        stroke-linejoin="round"/>
    <path
        id="path_1"
        d="M 69.654 132.977 L 69.654 59.023 L 111.253 59.023 C 116.154 59.023 120.86 60.972 124.326 64.438 C 127.792 67.904 129.741 72.61 129.741 77.512 C 129.741 82.413 127.792 87.119 124.326 90.585 C 120.86 94.051 116.154 96 111.253 96 C 116.152 96.003 120.855 97.954 124.319 101.419 C 127.782 104.885 129.73 109.589 129.73 114.488 C 129.73 119.388 127.782 124.092 124.319 127.558 C 120.855 131.023 116.152 132.974 111.253 132.977 L 91.84 132.977 M 111.253 96 L 91.84 96"
        fill="none"
        stroke="#000000"
        stroke-width="12"
        stroke-linecap="round"
        stroke-linejoin="round"/>
</svg>
