<svg xmlns="http://www.w3.org/2000/svg" xml:space="preserve" width="192" height="192" viewBox="0 0 50.8 50.8"><path d="M24.43 45.193c-2.963-.919-9.993-4.873-10.168-5.719-.019-.094.23-.497.554-.894 2.617-3.216 4.489-7.237 3.88-8.337-.283-.511-.421-.415-1.009.693-1.523 2.875-4.403 6.062-5.694 6.304-.58.108-.543-.172.207-1.537 1.166-2.122 1.688-3.945 1.32-4.61-.284-.514-.361-.491-.792.229-1.636 2.734-2.895 3.743-3.524 2.824-5.842-8.532-4.927-21.608 1.656-23.667 3.613-1.13 7.538 1.992 4.645 3.696-1.39.818 1.898 1.918 4.049 1.354 2.185-.573 3.503-4.417 2.062-6.017-.599-.665-2.287-1.05-3.14-.717-.647.252-.82.222-.902-.16-.299-1.398 1.537-2.715 3.792-2.72.485-.002.734-.06.973-.225.85-.587 3.443-.416 4.738.313 1.166.657 1.48 1.452 1.744 4.404.339 3.805 1.435 5.189 4.111 5.189 1.655 0 3.293-.907 2.41-1.333-2.236-1.08-.574-3.814 2.433-4.004 7.447-.47 10.273 12.05 4.958 21.967-.571 1.066-1.475 2.43-1.653 2.494-.311.111-2.025-1.784-2.932-3.243-.544-.875-.607-.902-.894-.384-.368.665.155 2.488 1.32 4.61.7 1.273.76 1.575.312 1.575-1.117 0-4.233-3.402-5.785-6.315-.628-1.18-.546-1.073-.761-.995-1.241.445.664 4.982 3.613 8.605.675.828.688.89.273 1.247-2.268 1.949-7.338 4.642-10.388 5.52-.279.08-.507.142-.507.139 0-.004-.405-.132-.9-.286zm2.636-.505c3.151-1.167 9.5-4.835 9.186-5.308a94.487 94.487 0 0 0-.97-1.281c-3.188-4.162-4.568-8.4-2.735-8.4.088 0 .413.477.735 1.08 1.267 2.37 3.565 5.146 4.945 5.974.835.5.862.371.182-.847-1.356-2.426-1.828-4.295-1.278-5.06.43-.596.633-.524 1.192.426.445.758 2.096 2.821 2.507 3.134.48.365 3.068-4.682 3.691-7.2 2.37-9.57-1.446-17.968-7.551-16.625-2.353.518-3.278 3.115-1.277 3.585 1.375.322-.829 1.587-2.76 1.584-2.92-.004-3.983-1.294-4.335-5.26-.239-2.687-.578-3.639-1.5-4.207-1.279-.79-3.956-1.006-4.692-.38-.174.149-.47.207-1.25.246-2.008.1-3.659 1.28-3.347 2.392.071.255.02.251.554.043 2.934-1.148 4.881 1.724 3.52 5.19-.865 2.202-4.76 2.969-6.557 1.29-.631-.59-.631-.592.038-1.066 1.996-1.416.039-3.731-2.98-3.526-7.47.506-9.3 13.756-3.203 23.19.592.917.592.917 1.098.398.77-.79 1.797-2.117 2.254-2.913.474-.824.691-.88 1.121-.29.517.71.017 2.709-1.234 4.932-.745 1.324-.751 1.376-.133 1.111 1.24-.532 3.87-3.624 5.206-6.122.322-.602.646-1.078.735-1.078 1.833 0 .453 4.237-2.735 8.399-.5.653-.937 1.23-.97 1.28-.31.468 5.886 4.064 9.062 5.26 1.725.65 1.854.651 3.48.05z" style="fill:#000;stroke:#000;stroke-width:2.17743;stroke-dasharray:none;stroke-opacity:1"/></svg>