<svg
    xmlns="http://www.w3.org/2000/svg"
    viewBox="0 0 192 192"
    id="vector">
    <path
        id="path"
        d="M 36.48 175.5 L 36.48 16.5 M 36.612 16.5 L 111.194 16.5 C 122.975 16.547 134.267 20.76 142.573 28.208 C 150.878 35.657 155.538 45.748 155.52 56.25 C 155.538 66.752 150.878 76.843 142.573 84.292 C 134.267 91.74 122.975 95.953 111.194 96 L 36.612 96 M 36.612 96 L 111.194 96 C 122.975 96.047 134.267 100.26 142.573 107.708 C 150.878 115.157 155.538 125.248 155.52 135.75 C 155.532 142.717 153.485 149.565 149.588 155.603 C 145.69 161.642 140.077 166.661 133.315 170.153 C 126.553 173.645 118.877 175.49 111.062 175.5 L 36.612 175.5"
        fill="none"
        stroke="#000000"
        stroke-width="12"
        stroke-linecap="round"
        stroke-linejoin="round"/>
</svg>
