<svg
    xmlns="http://www.w3.org/2000/svg"
    viewBox="0 0 192 192"
    id="vector">
    <g id="group">
        <path
            id="path_6"
            d="M 19.177 174 L 16 171.99 L 16 19.852 L 19.496 17.783 C 22.592 15.951 29.587 15.768 80.61 16.188 C 137.176 16.653 138.382 16.718 146.732 19.707 C 157.546 23.579 167.679 32.073 171.916 40.819 C 175.612 48.449 176.257 60.72 173.437 69.766 C 171.297 76.63 164.028 85.334 156.965 89.488 C 152.113 92.343 151.795 92.839 154.069 94.007 C 160.63 97.376 168.926 105.656 171.906 111.809 C 176.72 121.752 177.39 138.097 173.376 147.709 C 167.432 161.944 153.05 171.933 134.605 174.636 C 129.389 175.4 102.916 175.994 73.858 176 C 29.545 176.009 21.911 175.729 19.177 174 Z M 119.744 143.575 C 130.976 141.021 136.626 131.319 132.894 120.995 C 131.465 117.043 129.722 115.358 124.7 113.071 C 118.682 110.33 116.606 110.166 87.889 110.166 L 57.457 110.166 L 57.457 145.024 L 85.415 145.024 C 101.346 145.024 116.114 144.401 119.744 143.575 Z M 123.866 77.352 C 130.37 74.898 133.534 70.162 133.645 62.719 C 133.756 55.195 131.678 51.494 125.676 48.531 C 121.754 46.596 116.358 46.198 89.265 45.847 L 57.457 45.436 L 57.457 79.181 L 88.238 79.181 C 111.559 79.181 120.194 78.737 123.866 77.352 Z"
            fill="#000000"
            stroke-width="12"/>
    </g>
</svg>
