<svg xmlns="http://www.w3.org/2000/svg" viewBox="0 0 192 192"><path fill="none" stroke="#000" stroke-linecap="round" stroke-linejoin="round" stroke-width="12" d="M36.48 175.5v-159m.132 0h74.582c11.781.047 23.073 4.26 31.379 11.708 8.305 7.449 12.965 17.54 12.947 28.042.018 10.502-4.642 20.593-12.947 28.042-8.306 7.448-19.598 11.661-31.379 11.708H36.612m0 0h74.582c11.781.047 23.073 4.26 31.379 11.708 8.305 7.449 12.965 17.54 12.947 28.042.012 6.967-2.035 13.815-5.932 19.853-3.898 6.039-9.511 11.058-16.273 14.55-6.762 3.492-14.438 5.337-22.253 5.347h-74.45"/></svg>