<svg xmlns="http://www.w3.org/2000/svg" viewBox="0 0 192 192"><path fill="none" stroke="#000" stroke-linecap="round" stroke-linejoin="round" stroke-width="12" d="M175.345 87.146c-1.03-.044-2.039-.163-3.079-.163-41.167-.002-74.638 34.374-76.266 77.396-1.628-43.022-35.099-77.398-76.266-77.398-1.039 0-2.049.12-3.079.163-.04 1.086-.155 2.152-.155 3.248 0 44.54 34.215 80.645 76.422 80.645 1.039 0 2.049-.12 3.078-.163 1.029.044 2.038.163 3.078.163 42.207 0 76.422-36.105 76.422-80.645 0-1.094-.114-2.159-.155-3.246Z"/><path fill="none" stroke="#000" stroke-linecap="round" stroke-linejoin="round" stroke-width="12" d="M96 102.254c5.3-9.677 23.015-24 23.015-24A114.82 114.82 0 0 0 96 20.963a114.817 114.817 0 0 0-23.015 57.29S90.7 92.577 96 102.254Z"/></svg>