<svg xmlns="http://www.w3.org/2000/svg" viewBox="0 0 192 192"><path fill="none" stroke="#000" stroke-linecap="round" stroke-linejoin="round" stroke-width="12" d="M175.5 78.371v33.644a5.99 5.99 0 0 1-.546 2.522c-.358.766-.873 1.403-1.492 1.846a3.503 3.503 0 0 1-2.039.676h-12.231v23.353c0 1.771-.377 3.511-1.092 5.044-.716 1.533-1.745 2.807-2.985 3.692-1.239.886-2.645 1.352-4.077 1.352H24.654c-2.162 0-4.237-1.064-5.766-2.955-1.528-1.891-2.388-4.458-2.388-7.133V51.588c0-2.675.86-5.242 2.388-7.133 1.529-1.891 3.604-2.955 5.766-2.955h126.384c1.432 0 2.838.466 4.077 1.352 1.24.885 2.269 2.159 2.985 3.692.715 1.533 1.092 3.273 1.092 5.044v21.739h12.231c.716 0 1.419.233 2.039.676.619.443 1.134 1.08 1.492 1.846a5.99 5.99 0 0 1 .546 2.522ZM71.538 41.904v106.059m87.654-74.636v43.732M44.195 43.412v103.123m85.823-104.581v106.554M100.994 43.336v106.14"/></svg>