<svg viewBox="0 0 192 192" xmlns="http://www.w3.org/2000/svg"><path d="M95.96 16C51.76 16 16 51.843 16 96.04 16 140.243 51.76 176 95.96 176c44.2 0 80.04-35.757 80.04-79.96C176 51.843 140.16 16 95.96 16Zm5.48 5.161 6.114.952 1.825 5.48c.318.978.538 1.973.636 2.937l.08.08c.345-.784 1.267-2.201 1.666-2.78l3.256-4.525 5.876.953-9.052 11.116-1.111 7.227-5.4-.874 1.19-7.226zm-10.482.477 9.13 18.74-5.716.634-1.588-3.89-7.305.872-.874 4.13-5.32.636L84.13 22.43zm-3.176 4.367c-.067 1.1-.3 2.4-.477 3.256l-.953 4.764 4.765-.556-2.065-4.447a20.87 20.87 0 0 1-1.111-3.017zm37.955.397 12.15 6.352-1.907 3.573-7.464-3.89-1.667 3.255 6.987 3.653-1.905 3.573-6.989-3.653-1.826 3.415 7.702 4.05-1.825 3.573-12.388-6.512zm-59.791 1.27c1.633-.21 3.404.233 4.605 2.382 1.797 3.208-.207 5.019-.954 5.717l.08.16c1.531-.607 4.16-1.068 5.955 2.143 2.583 4.612-2.343 7.417-4.128 8.417l-7.068 3.97-9.607-17.23 7.225-4.05c.748-.42 2.257-1.3 3.892-1.51zm-.795 4.527a1.644 1.644 0 0 0-.556.08c-.266.079-.548.214-.873.395l-2.542 1.43 1.907 3.335 2.461-1.43c1.185-.66 1.597-1.537.954-2.7-.419-.746-.833-1.088-1.35-1.11zm81.152 6.59 6.114 6.67c1.01 1.096 4.504 4.792.396 8.575-1.813 1.672-3.871 2.326-6.192 1.271l-3.415 9.131-4.05-4.446 3.335-7.464-1.429-1.508-5.558 5.082-3.653-3.971zm-76.943.08c-.531-.072-1.126.083-1.827.476l-2.54 1.429 2.063 3.732 2.78-1.508c1.208-.678 1.588-1.884.953-3.018-.412-.736-.898-1.04-1.429-1.112zm77.736 6.431-3.175 2.939 1.905 2.064c.468.512 1.604 1.753 3.256.238.832-.772 1.118-1.874-.08-3.176zm-51.136.635c27.642 0 50.105 22.463 50.105 50.105 0 27.645-22.463 50.025-50.105 50.025-27.642 0-50.025-22.38-50.025-50.025 0-27.642 22.383-50.105 50.025-50.105zm-55.265 1.51c1.21-.093 2.367.164 3.335.555l-1.827 4.685c-.928-.394-2.83-1.024-4.129 1.033-.781 1.238-1.171 3.766 3.177 6.51 2.737 1.728 5.808 2.859 7.463.238 1.182-1.87-.075-3.484-.953-4.525l3.574-3.574c2.855 3.046 3.316 6.264.953 10.005-2.675 4.234-7.467 6.76-13.896 2.7-6.432-4.062-5.987-9.785-3.494-13.738 1.687-2.673 3.78-3.737 5.797-3.89zm122.6 13.657 2.065 6.431-7.623 7.543a26.759 26.759 0 0 1-3.494 2.938l.08.239c.816-.438 2.153-.943 3.89-1.508l9.132-3.018 1.588 4.844-18.74 6.035-2.144-6.433 8.02-7.94c1.166-1.159 2.554-2.223 3.177-2.541l-.08-.159c-.959.366-1.753.756-2.858 1.112l-10.243 3.256-1.51-4.765zM27.674 65.548l3.81 1.43-2.779 7.782 3.892 1.429 2.7-7.623 3.81 1.35-2.7 7.623 6.988 2.54-1.825 5.083-18.503-6.67zm14.61 46.294 3.811 7.225-7.463 7.226c-.414.403-1.558 1.325-2.462 1.985l.078.159c.896-.315 2.611-.736 3.415-.873l9.926-1.748 3.652 7.068-17.468 9.052-2.382-4.606 10.004-5.24c1.3-.68 3.31-1.566 4.05-1.826l-.16-.318c-.748.235-3.147.771-4.604 1.031l-11.514 2.145-1.826-3.494 9.132-9.052c.885-.867 2.136-1.902 2.7-2.382l-.16-.239c-.639.392-2.865 1.722-4.288 2.462l-9.528 5.003-2.382-4.447zM150.59 112l17.31 9.448-3.255 5.956-11.196-.318c-1.641-.04-3.389-.318-4.05-.556l-.078.16c.924.435 1.759.716 2.779 1.27l9.448 5.161-2.382 4.447-17.31-9.37 3.255-5.955 10.72.318c1.334.031 2.941.151 4.527.475l.08-.238c-.884-.289-2.126-.88-3.733-1.747l-8.497-4.605zm-11.037 19.294 2.7 2.938-6.115 5.718 2.463 2.62 5.795-5.32 2.7 2.938-5.716 5.4 2.62 2.858 6.352-5.876 2.78 2.938-10.244 9.528-13.419-14.45zm-84.089 3.892 4.288 3.255-7.623 9.846c-1.27 1.636-1.63 3.37.159 4.764 1.924 1.493 3.54.617 4.764-.953l7.623-9.766 4.13 3.176-7.625 9.767c-3.02 3.89-7.094 4.262-11.353.953-3.58-2.783-5.486-6.67-1.907-11.276zm5.48 4.128 2.699 2.144-4.845 3.335zm65.11 3.097 9.291 17.311-4.765 2.62-3.97-7.306-5.717 3.018 3.892 7.305-4.765 2.542-9.29-17.311 4.764-2.541 3.494 6.432 5.717-3.017-3.414-6.512zm-53.36 4.764 6.432 1.986 1.747 10.64c.225 1.318.413 2.906.397 4.526l.238.08c.115-.922.49-2.31 1.033-4.05l2.859-9.211 4.764 1.508-5.876 18.74-6.433-1.985-1.905-11.117c-.273-1.62-.26-3.354-.159-4.049l-.238-.08c-.254.995-.368 1.912-.714 3.018l-3.256 10.243-4.765-1.51zm29.301 3.971c3.864-.229 6.174 2.054 7.146 4.287l-4.605 2.065c-.391-.93-1.284-2.7-3.653-2.144-1.423.336-3.398 1.824-2.223 6.83.743 3.147 2.068 6.11 5.082 5.399 2.153-.502 2.354-2.532 2.461-3.891h5.082c-.098 4.167-1.966 6.772-6.272 7.781-4.873 1.147-10.17-.388-11.911-7.781-1.74-7.403 2.598-11.238 7.146-12.308a10.116 10.116 0 0 1 1.747-.238z"/><path d="M95.88 49.826c-18.069 0-33.715 10.361-41.29 25.489l6.908 11.832 1.827-21.52 10.243 17.549 1.747-21.439 10.323 17.549 1.826-21.44 10.243 17.548 1.827-21.519 10.243 17.629 1.587-19.057c-4.836-1.719-10.056-2.62-15.483-2.62Zm13.897 21.678-1.826 21.519 10.243 17.468 1.746-21.44zm-1.826 21.519-10.244-17.55-1.826 21.44-10.243-17.548-1.827 21.44-10.243-17.47-1.826 21.439 10.243 17.55 1.746-21.52 10.324 17.628 1.826-21.44 10.243 17.47zm-13.896 25.409-1.827 21.519-10.243-17.548-1.43 17.071a46.01 46.01 0 0 0 15.326 2.62c17.66 0 32.982-9.886 40.734-24.457l-6.351-11.036-1.828 21.518-10.242-17.548-1.826 21.519-10.244-17.548-1.826 21.518zm36.209-11.83 1.746-21.52-10.163-17.47-1.827 21.44zm-58.522-1.828L61.498 87.226l-1.746 21.519 10.163 17.468ZM113.51 53.32l8.338 14.213.713-9.21a45.759 45.759 0 0 0-9.05-5.003zm19.93 15.802-1.35 16.04 9.608 16.436c.225-1.852.318-3.728.318-5.637 0-10.003-3.17-19.28-8.576-26.84zM49.906 91.91a47.382 47.382 0 0 0-.159 4.05 46.028 46.028 0 0 0 8.734 26.997l1.191-14.293zm20.01 34.382-.635 7.384c2.312 1.633 4.786 3.015 7.384 4.21z"/></svg>