<?xml version="1.0" encoding="UTF-8" standalone="no"?>
<svg
   viewBox="0 0 192 192"
   id="vector"
   version="1.1"
   sodipodi:docname="bauern.svg"
   inkscape:version="1.1.2 (b8e25be833, 2022-02-05)"
   xmlns:inkscape="http://www.inkscape.org/namespaces/inkscape"
   xmlns:sodipodi="http://sodipodi.sourceforge.net/DTD/sodipodi-0.dtd"
   xmlns="http://www.w3.org/2000/svg"
   xmlns:svg="http://www.w3.org/2000/svg">
  <defs
     id="defs878" />
  <sodipodi:namedview
     id="namedview876"
     pagecolor="#ffffff"
     bordercolor="#666666"
     borderopacity="1.0"
     inkscape:pageshadow="2"
     inkscape:pageopacity="0.0"
     inkscape:pagecheckerboard="0"
     showgrid="false"
     inkscape:zoom="3.0104167"
     inkscape:cx="96"
     inkscape:cy="96"
     inkscape:window-width="1280"
     inkscape:window-height="961"
     inkscape:window-x="-8"
     inkscape:window-y="-8"
     inkscape:window-maximized="1"
     inkscape:current-layer="vector" />
  <path
     id="path_2"
     d="m 95.960285,16 c -44.200291,0 -79.96028,35.842551 -79.96028,80.0403 0,44.20243 35.75999,79.9597 79.96028,79.9597 C 140.15941,176 176,140.24273 176,96.0403 176,51.842551 140.15941,16 95.960285,16 Z m 5.478895,5.161253 6.1144,0.952109 1.8259,5.479011 c 0.31776,0.97898 0.53738,1.973146 0.63551,2.938106 l 0.0794,0.07944 c 0.34579,-0.783885 1.2675,-2.200951 1.66703,-2.779226 l 3.25579,-4.525734 5.87608,0.953278 -9.05243,11.115735 -1.11097,7.226688 -5.39945,-0.873838 1.1904,-7.22552 z m -10.481165,0.476639 9.130715,18.739622 -5.717205,0.63435 -1.5876,-3.890215 -7.304798,0.87267 -0.873819,4.129703 -5.320015,0.635519 4.843387,-20.328419 z m -3.176352,4.366853 c -0.06659,1.099308 -0.299061,2.400718 -0.476628,3.255865 l -0.953257,4.764053 4.765117,-0.556079 -2.065389,-4.446294 c -0.519851,-1.134354 -0.914708,-2.289736 -1.110965,-3.017545 z m 37.955057,0.397199 12.14936,6.351682 -1.90652,3.573624 -7.46367,-3.890215 -1.66704,3.254697 6.98705,3.653064 -1.90535,3.573624 -6.98821,-3.653064 -1.82591,3.414745 7.70199,4.049095 -1.82591,3.573624 -12.38767,-6.51173 z m -59.791186,1.269869 c 1.633154,-0.209114 3.404156,0.233647 4.605073,2.382027 1.797871,3.207968 -0.206772,5.018729 -0.953256,5.717331 l 0.07944,0.158881 c 1.53152,-0.606313 4.161154,-1.066597 5.955521,2.143707 2.582906,4.612183 -2.343424,7.41711 -4.128445,8.417117 L 64.436214,50.4617 54.828878,33.230266 62.054239,29.18117 c 0.747653,-0.419395 2.256977,-1.300243 3.891298,-1.509357 z m -0.79438,4.526902 c -0.172895,-0.0082 -0.355135,0.01869 -0.556067,0.07944 -0.266351,0.07944 -0.547889,0.214955 -0.872651,0.396031 l -2.542019,1.429917 1.906514,3.335305 2.461413,-1.429917 c 1.184562,-0.660052 1.596939,-1.537395 0.953257,-2.699786 -0.418218,-0.746501 -0.832932,-1.088793 -1.350447,-1.11099 z m 81.151856,6.590001 6.11439,6.670611 c 1.00934,1.095802 4.50344,4.792091 0.39603,8.574828 -1.81306,1.671741 -3.87144,2.325951 -6.19267,1.271038 l -3.41467,9.130907 -4.05017,-4.446294 3.33523,-7.463839 -1.42872,-1.508189 -5.55833,5.081813 -3.65298,-3.970823 z m -76.942806,0.07944 c -0.531534,-0.07126 -1.126152,0.08411 -1.827076,0.476639 l -2.540851,1.428749 2.064223,3.732504 2.779164,-1.508189 c 1.207927,-0.677575 1.588762,-1.884359 0.953258,-3.017545 -0.412378,-0.735987 -0.898352,-1.040895 -1.428718,-1.112158 z m 77.736016,6.43229 -3.17519,2.938106 1.90535,2.064267 c 0.46728,0.511686 1.60395,1.753517 3.25579,0.238319 0.83177,-0.772201 1.11798,-1.873845 -0.0794,-3.176425 z m -51.135935,0.634352 c 27.642125,0 50.104405,22.462779 50.104405,50.105502 0,27.64506 -22.46228,50.0249 -50.104405,50.0249 -27.642122,0 -50.024972,-22.37984 -50.024972,-50.0249 0,-27.642723 22.38285,-50.105502 50.024972,-50.105502 z m -55.265549,1.509355 c 1.210263,-0.09229 2.366788,0.164721 3.335231,0.556079 l -1.827076,4.684614 c -0.927556,-0.393695 -2.829397,-1.023372 -4.128444,1.032717 -0.78153,1.238327 -1.171712,3.766384 3.176355,6.510563 2.73711,1.727816 5.808327,2.858665 7.463676,0.238319 1.181058,-1.87034 -0.07593,-3.484838 -0.953257,-4.525734 l 3.573546,-3.573624 c 2.855098,3.045583 3.31654,6.264065 0.953257,10.004746 -2.675194,4.233676 -7.46718,6.759395 -13.895825,2.699786 -6.432148,-4.061945 -5.987061,-9.785118 -3.494107,-13.737249 1.686891,-2.672917 3.77915,-3.737177 5.796644,-3.890217 z m 122.601014,13.65781 2.06422,6.431122 -7.62255,7.543279 c -0.94742,0.943932 -2.16702,2.014033 -3.49411,2.938105 l 0.0794,0.23832 c 0.81658,-0.438088 2.15301,-0.942764 3.89013,-1.508189 l 9.13188,-3.017545 1.58876,4.843493 -18.74038,6.035091 -2.14366,-6.43229 8.01974,-7.940478 c 1.16587,-1.158887 2.5537,-2.223148 3.17636,-2.540907 l -0.0794,-0.158879 c -0.9591,0.365656 -1.75348,0.755846 -2.85861,1.112157 l -10.24284,3.255865 -1.50932,-4.765222 z m -135.62302,4.446294 3.810692,1.429917 -2.779165,7.781599 3.891298,1.428748 2.699727,-7.622719 3.810692,1.349309 -2.699727,7.623887 6.988216,2.540907 -1.825908,5.081812 -18.502066,-6.670609 z m 14.609599,46.293563 3.811861,7.22552 -7.463676,7.22552 c -0.413546,0.40304 -1.55722,1.32477 -2.461413,1.98483 l 0.07827,0.15888 c 0.896015,-0.31426 2.610943,-0.73599 3.41467,-0.87267 l 9.926256,-1.74768 3.651816,7.06781 -17.468202,9.05147 -2.381975,-4.60518 10.004527,-5.24069 c 1.299046,-0.67991 3.309531,-1.56543 4.049006,-1.82595 l -0.158876,-0.31776 c -0.748821,0.23482 -3.147151,0.77104 -4.605073,1.03155 l -11.51385,2.14488 -1.825908,-3.49419 9.131876,-9.05263 c 0.885501,-0.86683 2.136651,-1.90189 2.699726,-2.38203 l -0.158876,-0.23832 c -0.639009,0.39136 -2.865612,1.72198 -4.288488,2.46147 l -9.527898,5.00354 -2.381975,-4.44746 z m 108.308001,0.15888 17.31049,9.44866 -3.25579,5.95566 -11.1961,-0.31776 c -1.64133,-0.0409 -3.38897,-0.31776 -4.049,-0.55608 l -0.0794,0.15888 c 0.92405,0.43575 1.75932,0.71729 2.77916,1.27103 l 9.44846,5.16126 -2.38197,4.44629 -17.3105,-9.37039 3.2558,-5.95449 10.71947,0.31776 c 1.33409,0.0315 2.94154,0.15187 4.5268,0.47547 l 0.0794,-0.23832 c -0.88317,-0.28855 -2.12497,-0.87968 -3.73242,-1.7465 l -8.49638,-4.60518 z m -11.03722,19.29453 2.69972,2.93811 -6.11439,5.71733 2.46258,2.62034 5.79547,-5.32013 2.69973,2.93811 -5.71604,5.39957 2.62029,2.85866 6.35154,-5.87621 2.77917,2.93811 -10.24284,9.52811 -13.4192,-14.45104 z m -84.08873,3.89138 4.28732,3.25587 -7.622552,9.84587 c -1.271009,1.63552 -1.629649,3.37035 0.158876,4.76405 1.924037,1.493 3.540836,0.61683 4.763949,-0.95328 l 7.622552,-9.76643 4.129613,3.17643 -7.623721,9.76643 c -3.019815,3.89138 -7.094522,4.26288 -11.353805,0.95327 -3.580556,-2.78273 -5.485901,-6.67061 -1.906515,-11.27578 z m 5.478891,4.12854 2.699727,2.14371 -4.844555,3.3353 z m 65.111199,3.09698 9.29075,17.31088 -4.76511,2.62034 -3.96957,-7.30612 -5.71721,3.01754 3.8913,7.30496 -4.76512,2.54208 -9.28958,-17.31088 4.76395,-2.5409 3.49411,6.43229 5.7172,-3.01755 -3.41467,-6.51173 z m -53.360203,4.76406 6.432149,1.98599 1.74647,10.64027 c 0.225464,1.31776 0.413545,2.90539 0.397191,4.52573 l 0.238314,0.0794 c 0.114484,-0.92173 0.489479,-2.3096 1.032695,-4.05026 l 2.858603,-9.21035 4.763946,1.50819 -5.876079,18.73962 -6.432149,-1.98483 -1.905345,-11.1169 c -0.273361,-1.61917 -0.26051,-3.354 -0.158877,-4.04909 l -0.238314,-0.0794 c -0.253501,0.99416 -0.367986,1.91122 -0.713775,3.01754 l -3.255793,10.24307 -4.765118,-1.50936 z m 29.300983,3.97082 c 3.86326,-0.22897 6.17397,2.05375 7.14592,4.28742 l -4.60507,2.06426 c -0.39135,-0.92991 -1.28386,-2.69978 -3.65299,-2.1437 -1.422875,0.33645 -3.398315,1.82361 -2.223105,6.82948 0.74298,3.14722 2.067735,6.11103 5.081715,5.39958 2.153,-0.50234 2.35393,-2.53156 2.46141,-3.89139 h 5.0817 c -0.0981,4.16709 -1.96609,6.77225 -6.27211,7.7816 -4.87259,1.14721 -10.170415,-0.38785 -11.911045,-7.7816 -1.74062,-7.40309 2.5981,-11.23723 7.145935,-12.30733 0.61564,-0.14486 1.19507,-0.20561 1.74764,-0.23832 z"
     fill="#000000"
     stroke-width="7.99999" />
  <path
     id="path_3"
     d="m 95.880845,49.82618 c -18.06983,0 -33.715629,10.361057 -41.290284,25.488503 l 6.907609,11.831863 1.827076,-21.518848 10.24284,17.548025 1.74647,-21.438241 10.323447,17.548024 1.825908,-21.439408 10.242844,17.548025 1.827071,-21.518848 10.242844,17.628633 1.5876,-19.057382 C 106.52789,50.728056 101.30834,49.82618 95.880845,49.82618 Z m 13.895825,21.677728 -1.8259,21.518852 10.24284,17.46858 1.74647,-21.43941 z M 107.95077,93.022761 97.706755,75.473563 95.880845,96.91297 85.638003,79.364947 83.810927,100.80435 73.568086,83.334602 l -1.825907,21.439408 10.24284,17.54919 1.74647,-21.51885 10.323446,17.62747 1.82591,-21.439409 10.242845,17.469749 z m -13.895835,25.409059 -1.82707,21.51885 -10.242846,-17.54803 -1.429885,17.07139 c 4.8025,1.69043 9.944951,2.62034 15.325711,2.62034 17.659795,0 32.981995,-9.88675 40.734225,-24.45695 l -6.35155,-11.03629 -1.82707,21.51768 -10.24284,-17.54803 -1.82591,21.51885 -10.24401,-17.54803 -1.82591,21.51885 z m 36.208585,-11.83069 1.74647,-21.518851 -10.1634,-17.469754 -1.82708,21.439406 z M 71.742179,104.77401 61.49817,87.225986 59.7517,108.74483 69.915103,126.21342 Z m 41.766921,-51.453645 8.33749,14.212721 0.71378,-9.210348 c -2.80721,-1.995342 -5.82469,-3.668251 -9.05127,-5.002373 z m 19.92961,15.801517 -1.34928,16.039836 9.60734,16.435862 c 0.22546,-1.851639 0.31775,-3.727829 0.31775,-5.636719 0,-10.002408 -3.16935,-19.280513 -8.57581,-26.838979 z M 49.90605,91.9106 c -0.114485,1.324771 -0.158877,2.69394 -0.158877,4.05026 0,10.06783 3.25813,19.41253 8.733517,26.99669 l 1.191572,-14.29216 z m 20.009053,34.38226 -0.634337,7.3844 c 2.311882,1.63319 4.786146,3.01521 7.384238,4.20914 z"
     fill="#000000"
     stroke-width="7.99999" />
</svg>
