<svg xmlns="http://www.w3.org/2000/svg" viewBox="0 0 192 192"><path d="M86.475 175.528c-27.93-2.694-54.295-22.832-64.855-49.537-8.11-20.505-7.138-46.484 2.453-65.618 4.493-8.962 11.907-18.135 19.877-24.591 2.027-1.642 3.837-3.205 4.023-3.474.189-.274 13.679 12.856 30.558 29.742l30.221 30.231-6.231 6.244c-3.427 3.435-6.376 6.19-6.554 6.122-.178-.067-10.984-10.633-24.013-23.481C58.925 68.319 48.09 57.742 47.876 57.662c-.591-.221-5.453 7.336-7.684 11.945-7.814 16.139-7.681 38.154.327 54.184 3.74 7.485 12.194 17.306 19.561 22.723 20.354 14.967 50.793 15.07 71.6.243 7.296-5.199 15.097-14.023 19.123-21.63 7.754-14.655 9.142-34.397 3.504-49.846-5.074-13.904-15.875-26.456-28.948-33.642-5.502-3.024-16.326-6.71-19.707-6.71-.242 0-.498 3.728-.57 8.309l-.132 8.308H87.129V16.387l9.392.054c10.203.06 16.447.934 24.222 3.39 22.982 7.26 42.822 26.558 50.876 49.486 4.737 13.486 5.607 31.471 2.216 45.789-4.569 19.295-16.53 36.327-33.504 47.71-15.633 10.484-33.423 14.683-53.856 12.712Zm5.952-26.88c-2.638-1.218-4.128-2.975-4.814-5.675-.983-3.874.492-8.064 3.57-10.138 6.893-4.646 15.623 2.077 13.29 10.234-1.498 5.242-7.127 7.849-12.046 5.579Zm-41.902-43.622c-.265-.096-1.061-.303-1.769-.458-3.005-.661-6.144-4.918-6.167-8.366-.025-3.793 2.699-7.435 6.38-8.527 5.883-1.748 11.911 2.513 11.911 8.417 0 2.111-1.262 5.051-2.718 6.328-1.918 1.684-6.181 3.139-7.637 2.606Zm88.062-.239c-6.441-1.535-9.326-8.278-5.807-13.573 2.777-4.18 10.088-5.086 13.774-1.708 5.042 4.622 3.071 13.079-3.503 15.031-1.317.391-2.518.689-2.668.661a70.908 70.908 0 0 1-1.796-.411Z"/></svg>