<svg xmlns="http://www.w3.org/2000/svg" viewBox="0 0 192 192"><path d="M53.628 175.577c-2.159-.526-4.1-1.676-5.776-3.423-3.157-3.292-2.982-.235-2.982-52.221 0-42.112.077-47.121.729-47.121.949 0 4.3-1.691 6.254-3.156l1.538-1.153v80.531h84.744v-40.242c0-22.133.116-40.241.258-40.241.141 0 .804.507 1.473 1.127 1.092 1.013 4.219 2.625 6.442 3.321.791.247.828 2.724.71 47.261l-.124 47.001-1.465 2.604c-1.636 2.91-4.999 5.334-8.114 5.849-2.508.415-81.956.284-83.687-.137Zm53.766-13.347c.391-.731.399-1.315.027-2.13l-.512-1.124H96.286c-5.843 0-10.961.129-11.373.287-.752.289-1.075 3.016-.433 3.658.173.174 5.279.316 11.346.316 10.764 0 11.043-.024 11.568-1.007Zm-23.898-45.919c-4.385-1.028-7.224-4.393-7.714-9.141-.506-4.903 1.624-9.116 5.706-11.287 1.591-.846 2.753-1.047 6.085-1.051 2.265-.004 4.338.214 4.606.482.33.33.336 1.04.016 2.196l-.472 1.709-1.874-.476c-7.356-1.867-12.105 6.943-6.587 12.22 1.348 1.289 1.687 1.379 5.151 1.358l3.707-.022.268 1.654c.148.91.206 1.717.129 1.794-.262.263-5.165 1.094-6.169 1.046-.55-.026-1.833-.243-2.852-.482Zm22.209-.161c-1.041-.381-2.332-1.239-2.868-1.907-1.115-1.39-1.629-1.143-1.629.783 0 1.274-.107 1.341-2.131 1.341h-2.13v-31.72h5.208v13.434l1.302-1.242c3.534-3.372 9.158-2.988 12.314.84 2.783 3.377 3.199 9.518.942 13.904-2.018 3.923-7.054 6.012-11.008 4.567Zm4.921-4.784c2.432-2.046 3.065-6.073 1.497-9.525-1.683-3.707-5.568-4.434-8.325-1.556-1.151 1.201-1.393 1.9-1.559 4.496-.117 1.837.043 3.65.398 4.506 1.386 3.347 5.278 4.36 7.989 2.079ZM36.305 64.501c-2.898-.892-6.453-4.096-7.832-7.058-1.043-2.239-1.111-2.938-1.116-11.446l-.004-9.062 13.611-10.466 13.611-10.465 7.906-.002L70.387 16l-7.991 10.5L54.405 37l-.152 9.752-.152 9.751-1.553 2.419c-3.417 5.322-9.876 7.541-16.243 5.579Zm55.904.322c-3.813-1.251-6.711-3.616-8.414-6.868-1.231-2.351-1.274-2.702-1.42-11.655l-.15-9.232 3.496-10.416 3.496-10.415h13.566l3.496 10.415 3.496 10.416-.15 9.232c-.146 8.953-.189 9.304-1.42 11.655-2.307 4.406-6.298 6.873-11.495 7.107-1.823.082-3.848-.025-4.501-.239Zm53.944-.476c-3.084-1.207-4.985-2.752-6.731-5.471l-1.523-2.373-.152-9.751-.152-9.752-7.991-10.5-7.991-10.5 7.906.002 7.906.002 13.611 10.465 13.611 10.466-.004 9.062c-.005 8.508-.073 9.207-1.116 11.446-2.918 6.268-10.897 9.438-17.374 6.904Z"/></svg>