<svg xmlns="http://www.w3.org/2000/svg" viewBox="0 0 192 192"><path d="M101.411 54.419h12.809l-13.032 62.757h44.608l-34.483-45.212m-10.127 45.211L57.601 61.141 46.211 116l16.51-79.5 16.518 5.712" fill="none" stroke="#000" stroke-width="8" stroke-linecap="round" stroke-linejoin="round"/><path d="M117.143 107.032a44.758 44.758 0 0 1 3.028-9.253m11.908-14.61c6.205-4.166 13.356-5.372 20.183-3.403 6.827 1.968 12.9 6.986 17.142 14.164 4.241 7.178 6.384 16.064 6.049 25.08-.335 9.016-3.129 17.596-7.884 24.216-4.755 6.621-11.173 10.865-18.114 11.98-6.941 1.116-13.97-.969-19.838-5.882-5.868-4.914-10.206-12.348-12.244-20.983M61.699 83.287c6.122 4.824 10.688 12.35 12.847 21.178 2.159 8.827 1.769 18.372-1.097 26.858-2.867 8.485-8.021 15.351-14.502 19.317-6.482 3.967-13.862 4.773-20.768 2.268-6.906-2.505-12.88-8.155-16.811-15.898-3.931-7.743-5.558-17.068-4.579-26.238.979-9.17 4.499-17.58 9.906-23.663 5.407-6.083 12.343-9.438 19.516-9.44" fill="none" stroke="#000" stroke-width="8" stroke-linecap="round" stroke-linejoin="round"/></svg>