<svg xmlns="http://www.w3.org/2000/svg" viewBox="0 0 192 192"><path fill="none" stroke="#000" stroke-linecap="round" stroke-linejoin="round" stroke-width="6" d="M100.284 176h19.72V16.008h-19.72Zm-36.8-8.68a8.623 8.623 0 0 1-8.6 8.624h-38.88l.016-159.936h38.912a8.608 8.608 0 0 1 8.552 8.632v56.056c0 4.52-3.712 8.176-8.224 8.176h-.864c5 0 9.088 4.056 9.088 9.04ZM35.732 35.76h8.096v45.576h-8.096Zm0 65.16h8.096v55.232h-8.096ZM175.996 176V16h-19.728v27.84h-19.2a8.592 8.592 0 0 0-8.52 8.64l-.024 114.832a8.624 8.624 0 0 0 8.592 8.632Zm-19.72-112.608h-8.096v92.76h8.096Zm-84.248-27.64h19.72V16h-19.72Zm0 140.24h19.72V43.848h-19.72Z"/></svg>