<svg width="24" height="24" fill="none" viewBox="0 0 24 24" xmlns="http://www.w3.org/2000/svg"><path d="M12.535 22H15V2.001h-2.465zm-4.6-1.085a1.078 1.078 0 0 1-1.075 1.078H2l.002-19.992h4.864A1.076 1.076 0 0 1 7.935 3.08v7.007c0 .565-.464 1.022-1.028 1.022h-.108c.625 0 1.136.507 1.136 1.13v8.676zM4.466 4.47h1.012v5.697H4.466zm0 8.145h1.012v6.904H4.466zM21.999 22V2h-2.466v3.48h-2.4a1.074 1.074 0 0 0-1.065 1.08l-.003 14.354a1.078 1.078 0 0 0 1.074 1.079l4.86.006zM19.534 7.924h-1.012v11.595h1.012zM9.003 4.469h2.465V2H9.003zm0 17.53h2.465V5.481H9.003z" fill="#000" fill-rule="evenodd"/></svg>