<svg xmlns="http://www.w3.org/2000/svg" viewBox="0 0 192 192"><path fill="none" stroke="#000" stroke-linecap="round" stroke-linejoin="round" stroke-width="12" d="M166.905 175.5H25.095a8.6 8.6 0 0 1-7.444-4.297 8.6 8.6 0 0 1-1.151-4.298V25.095c0-2.279.906-4.467 2.517-6.078a8.599 8.599 0 0 1 6.078-2.517h141.81a8.6 8.6 0 0 1 7.444 4.297 8.6 8.6 0 0 1 1.151 4.298v141.81a8.6 8.6 0 0 1-4.297 7.444 8.6 8.6 0 0 1-4.298 1.151Z"/><path fill="none" stroke="#000" stroke-linecap="round" stroke-linejoin="round" stroke-width="12" d="M111.814 102.618a19 19 0 0 1 5.563-13.388 19 19 0 0 1 13.388-5.563c5.024 0 9.848 1.998 13.401 5.55a18.962 18.962 0 0 1 5.55 13.401v12.333c0 5.024-1.998 9.848-5.55 13.401a18.962 18.962 0 0 1-13.401 5.55 19 19 0 0 1-13.388-5.563 19 19 0 0 1-5.563-13.388m0 18.951V58.098M73.525 96c5.023.002 9.845 2 13.397 5.553a18.958 18.958 0 0 1 5.548 13.398c0 5.023-1.997 9.846-5.548 13.398a18.956 18.956 0 0 1-13.397 5.553H42.284V58.098h31.241c5.024 0 9.848 1.998 13.401 5.55a18.962 18.962 0 0 1 5.55 13.401c0 5.024-1.998 9.848-5.55 13.4A18.959 18.959 0 0 1 73.525 96Zm0 0H42.284"/></svg>