<svg xmlns="http://www.w3.org/2000/svg" viewBox="0 0 192 192"><path d="M166.905 16.5H25.095a8.595 8.595 0 0 0-8.595 8.595v141.81a8.595 8.595 0 0 0 8.595 8.595h141.81a8.595 8.595 0 0 0 8.595-8.595V25.095a8.595 8.595 0 0 0-8.595-8.595Z" fill="none" stroke="#000" stroke-width="6" stroke-linecap="round" stroke-linejoin="round"/><path d="M52.455 68.826c5.887-26.788 25.09-35.576 52.843-36.565 52.188-1.86 48.291 27.223 54.431 51.719 14.848 26.22 2.855 39.513-16.076 49.465l.287 42.055m9.928-77.438c9.558 54.116-95.04 62.175-94.282 4.109" fill="none" stroke="#000" stroke-width="6" stroke-linecap="round" stroke-linejoin="round"/><path d="M94.566 116.626c3.62-.338 15.943 4.214 25.175-4.259 3.269 14.215-18.678 24.654-25.175 4.259ZM82.136 175.5c-4.526-13.787-4.522-25.787-39.852-51.72-15.944-12.298-25.019-26.081-4.16-46.395 4.799-4.675 9.56-5.826 14.331-8.559M30.117 86.965C-4.852 19.976 62.053.422 76.339 37.873" fill="none" stroke="#000" stroke-width="6" stroke-linecap="round" stroke-linejoin="round"/><path d="M52.455 68.826s8.802-4.087 13.528-4.922c9.411-1.663 28.67-.023 28.67-.023l-.181 11.022-4.212 7.337-.873 3.986-5.991.141-2.302 4.098-16.047-1.591c-4.645 7.006-19.656 15.613-5.1 19.653m59.755-42.242-14.006-15.91-12.869 13.18m-22.833 85.309c-3.943 10.852-10.012 19.389-17.266 26.636m-17.762-58.041c-20.565 21.878-8.756 40.198 7.389 58.041m17.231-73.329c4.871-13.86 71.494-18.316 94.281-4.109m-66.795-2.413.03 3.372m37.34-3.698.082 4.299" fill="none" stroke="#000" stroke-width="6" stroke-linecap="round" stroke-linejoin="round"/><path d="m83.027 69.417 7.151.879 4.294 4.607M73.56 73.887l11.349 1.938-1.512 10.541" fill="none" stroke="#000" stroke-width="4" stroke-linecap="round" stroke-linejoin="round"/></svg>