<svg
    xmlns="http://www.w3.org/2000/svg"
    viewBox="0 0 192 192"
    id="vector">
    <path
        id="path"
        d="M 166.905 16.5 L 25.095 16.5 C 20.348 16.5 16.5 20.348 16.5 25.095 L 16.5 166.905 C 16.5 171.652 20.348 175.5 25.095 175.5 L 166.905 175.5 C 171.652 175.5 175.5 171.652 175.5 166.905 L 175.5 25.095 C 175.5 20.348 171.652 16.5 166.905 16.5 Z"
        fill="none"
        stroke="#000000"
        stroke-width="6"
        stroke-linecap="round"
        stroke-linejoin="round"/>
    <path
        id="path_1"
        d="M 52.455 68.826 C 58.342 42.038 77.545 33.25 105.298 32.261 C 157.486 30.401 153.589 59.484 159.729 83.98 C 174.577 110.2 162.584 123.493 143.653 133.445 L 143.94 175.5 M 153.868 98.062 C 163.426 152.178 58.828 160.237 59.586 102.171"
        fill="none"
        stroke="#000000"
        stroke-width="6"
        stroke-linecap="round"
        stroke-linejoin="round"/>
    <path
        id="path_2"
        d="M 94.566 116.626 C 98.186 116.288 110.509 120.84 119.741 112.367 C 123.01 126.582 101.063 137.021 94.566 116.626 Z M 82.136 175.5 C 77.61 161.713 77.614 149.713 42.284 123.78 C 26.34 111.482 17.265 97.699 38.124 77.385 C 42.923 72.71 47.684 71.559 52.455 68.826 M 30.117 86.965 C -4.852 19.976 62.053 0.422 76.339 37.873"
        fill="none"
        stroke="#000000"
        stroke-width="6"
        stroke-linecap="round"
        stroke-linejoin="round"/>
    <path
        id="path_3"
        d="M 52.455 68.826 C 52.455 68.826 61.257 64.739 65.983 63.904 C 75.394 62.241 94.653 63.881 94.653 63.881 L 94.472 74.903 L 90.26 82.24 L 89.387 86.226 L 83.396 86.367 L 81.094 90.465 L 65.047 88.874 C 60.402 95.88 45.391 104.487 59.947 108.527 M 119.702 66.285 L 105.696 50.375 L 92.827 63.555 M 69.994 148.864 C 66.051 159.716 59.982 168.253 52.728 175.5 M 34.966 117.459 C 14.401 139.337 26.21 157.657 42.355 175.5 M 59.586 102.171 C 64.457 88.311 131.08 83.855 153.867 98.062 M 87.072 95.649 L 87.102 99.021 M 124.442 95.323 L 124.524 99.622"
        fill="none"
        stroke="#000000"
        stroke-width="6"
        stroke-linecap="round"
        stroke-linejoin="round"/>
    <path
        id="path_4"
        d="M 83.027 69.417 L 90.178 70.296 L 94.472 74.903 M 73.56 73.887 L 84.909 75.825 L 83.397 86.366"
        fill="none"
        stroke="#000000"
        stroke-width="4"
        stroke-linecap="round"
        stroke-linejoin="round"/>
</svg>
