<svg xmlns="http://www.w3.org/2000/svg" viewBox="0 0 192 192"><path d="M44.114 175.374c-4.398-1.407-7.821-4.986-8.991-9.403-.283-1.067-.351-12.979-.284-49.357l.089-47.952.968-2.03c1.272-2.669 3.389-4.965 5.727-6.211l1.891-1.008-.579-1.154c-2.571-5.121-3.553-12.932-2.356-18.74 2.47-11.989 12.151-21.237 24.277-23.192 3.147-.507 8.625-.218 11.932.631 6.127 1.573 12.049 5.553 15.981 10.741 1.992 2.629 4.319 7.602 5.136 10.976.697 2.88.985 9.481.479 10.995-.204.611.093.518 2.676-.84 1.598-.84 4.171-1.912 5.717-2.382 2.556-.776 3.266-.854 7.81-.859 4.206-.004 5.394.105 7.497.686 3.245.897 7.59 3.028 10.178 4.992 2.112 1.604 5.256 4.861 6.16 6.384.478.805.647.859 2.707.869 7.668.036 12.348 2.554 14.948 8.042l.995 2.1.089 47.952c.067 36.378-.001 48.29-.284 49.357-1.184 4.468-4.619 8.026-9.094 9.418-1.775.553-4.062.578-51.889.562-47.192-.016-50.131-.049-51.78-.577Zm14.4-14.933v-10.216l-3.905-3.947-3.905-3.946V127.56l-1.172-.602c-2.46-1.266-4.12-3.99-4.132-6.783-.013-3.07 1.532-5.742 4.161-7.195 1.345-.744 1.973-.891 3.798-.887 2.506.006 3.886.552 5.601 2.218 1.547 1.502 2.109 2.734 2.293 5.021.262 3.264-1.307 6.222-4.038 7.615l-1.201.613v12.63l3.983 3.992 3.983 3.991.09 11.242.089 11.242h7.787v-32.362l-1.634-1.078c-.997-.659-2.002-1.678-2.577-2.616-.834-1.359-.942-1.813-.936-3.905.008-2.745.668-4.317 2.478-5.906 2.247-1.973 4.571-2.599 7.247-1.951 5.993 1.449 8.171 9.056 3.837 13.4-.57.57-1.431 1.242-1.914 1.492l-.878.454v32.472h7.81v-7.003c0-3.852.09-7.238.199-7.524.189-.491 10.421-8.379 11.885-9.162.39-.208 2.02-.365 3.797-.365h3.115l.795-1.357c2.528-4.314 8.227-5.262 11.948-1.986 5.688 5.007 2.42 13.964-5.095 13.964-1.351 0-2.411-.206-3.366-.655-1.49-.7-3.44-2.638-3.916-3.891-.273-.718-.435-.764-2.647-.764h-2.355l-4.511 3.358-4.512 3.358-.013 6.021-.014 6.022 27.569-.086c27.214-.085 27.586-.095 28.973-.739.774-.359 1.925-1.23 2.56-1.934 2.061-2.289 2.126-2.846 2.126-18.244v-13.688l-23.663-.003c-19.395-.003-23.924-.083-25.106-.441-6.652-2.019-10.663-8.204-9.634-14.854.775-5.012 4.233-9.045 9.208-10.74 1.352-.46 4.028-.515 25.353-.515h23.842V85.333l-.944.672c-.519.369-1.749.976-2.733 1.348l-1.79.677H45.549l-1.789-.677c-.984-.372-2.214-.979-2.734-1.348l-.943-.672v39.012c0 43.41-.112 41.087 2.102 43.539 2.152 2.381 3.404 2.7 10.784 2.741l5.545.032Zm55.15-9.294c.971-.972 1.04-2.709.142-3.607-1.02-1.02-2.658-.934-3.671.191-2.113 2.349 1.296 5.649 3.529 3.416ZM76.49 132.404c2.279-2.28-1.158-5.76-3.508-3.553-.954.896-.975 2.606-.044 3.596.93.991 2.537.971 3.552-.043Zm75.427-9.699v-7.966h-23.233c-25.235 0-24.629-.039-26.955 1.735-3.981 3.037-3.783 9.82.369 12.61 2.273 1.528 2.534 1.544 26.937 1.566l22.882.021Zm-97.086-.582c.889-.675 1.266-2.056.842-3.079-.426-1.029-1.146-1.493-2.314-1.493-1.168 0-1.888.464-2.314 1.493a2.502 2.502 0 0 0 2.314 3.485c.516 0 1.178-.182 1.472-.406Zm31.385-40.262c-.722-3.027-.906-5.022-.769-8.335l.152-3.708-1.471.905c-2.093 1.288-5.498 2.637-8.336 3.303-3.547.831-10.283.749-13.686-.167-4.924-1.326-10.029-4.279-13.506-7.811-1.229-1.249-1.922-1.727-2.389-1.648-1.867.314-4.243 2.261-5.39 4.419-.466.875-.582 1.778-.582 4.529 0 3.938.402 5.109 2.426 7.073 2.21 2.145 1.596 2.091 23.77 2.118l19.949.025-.168-.703Zm11.195.156c-.119-.301-.504-1.67-.855-3.043-2.396-9.37 3.394-19.372 12.817-22.141 8.65-2.542 18.039 1.568 21.92 9.595.677 1.401 1.396 3.316 1.597 4.255.545 2.55.208 8.191-.612 10.241l-.657 1.64h5.59l.509-1.64c.279-.902.584-3.261.676-5.241.207-4.433-.455-7.483-2.541-11.706-7.005-14.181-25.885-17.547-37.497-6.684-6.337 5.928-8.968 14.823-6.862 23.204l.519 2.067h2.807c2.548 0 2.787-.051 2.589-.547Zm29.105-1.814c2.328-4.902 1.51-10.411-2.132-14.363-2.804-3.041-6.16-4.361-10.547-4.147-6.36.309-11.04 4.538-12.247 11.063-.41 2.219.133 5.396 1.344 7.854l.961 1.954h21.5Zm20.18 1.867c1.693-.577 3.583-2.296 4.452-4.049.928-1.873.889-7.594-.065-9.375-1.514-2.828-3.784-4.256-7.084-4.457-2.082-.127-2.13-.113-1.795.514.19.355.648 1.883 1.019 3.396.805 3.286.896 9.397.186 12.512l-.445 1.953h1.141c.627 0 1.793-.223 2.591-.494ZM74.617 68.653c2.955-.658 5.231-1.616 7.703-3.242 13.034-8.573 14.627-26.696 3.286-37.391-3.942-3.718-8.5-5.819-13.721-6.324-17.556-1.697-30.73 14.908-25.058 31.585 1.988 5.847 6.29 10.653 12.171 13.6 4.569 2.289 10.352 2.945 15.619 1.772Zm-9.231-4.987c-6.782-1.531-12.635-7.289-14.212-13.98-.968-4.103-.431-8.699 1.478-12.651 1.469-3.042 5.242-6.795 8.361-8.317 4.831-2.357 9.735-2.637 14.687-.837 7.495 2.725 12.268 9.538 12.268 17.509 0 8.444-5.173 15.332-13.523 18.005-2.114.676-6.662.813-9.059.271Zm9.773-6.498c9.791-4.839 9.8-18.713.015-23.549-2.045-1.011-2.7-1.177-5.097-1.291-2.244-.108-3.13-.005-4.818.557-3.524 1.172-6.347 3.691-7.873 7.026-3.298 7.203.48 15.63 8.139 18.154.785.259 2.408.39 4.27.344 2.763-.068 3.19-.167 5.364-1.241Zm28.651-23.805v-6.717h5.623v13.433h-5.623Zm10.76 6.317c-.084-.22-.115-3.207-.068-6.638l.085-6.239 2.733-.091 2.734-.09v13.457h-2.665c-1.876 0-2.711-.118-2.819-.399Zm-10.76-20.999v-2.656h5.623v5.311h-5.623Zm10.686.078.091-2.578 2.733-.09 2.734-.09v5.335h-5.649Z"/></svg>