<svg xmlns="http://www.w3.org/2000/svg" viewBox="0 0 192 192"><path fill="none" stroke="#000" stroke-linecap="round" stroke-linejoin="round" stroke-width="8" d="M80.86 16.5c11.727 12.842 14.177 36.611 18.903 47.023 4.726 10.413 10.152 3.297 29.055 18.567 18.903 15.269 22.054 28.63 22.054 51.882 0 23.251-34.481 30.365-38.682 30.365-4.2 0-12.952.347-16.628-3.817a34.673 34.673 0 0 1-17.852 3.824c-5.426 0-36.582-6.601-36.582-35.751 0-29.151 21.529-50.668 35.706-58.3 14.178-7.633 20.48-8.329 15.364-31.742"/><path fill="none" stroke="#000" stroke-linecap="round" stroke-linejoin="round" stroke-width="8" d="M94.007 44.604c2.645 24.462 1.38 102.728 1.555 115.916A48.695 48.695 0 0 0 96 175.5"/><path fill="none" stroke="#000" stroke-linecap="round" stroke-linejoin="round" stroke-width="6" d="M81.336 67.924c1.274 2.713 11.743 7.664 14.21 8.66 1.452.585 8.768-3.691 11.054-6.427"/><path fill="none" stroke="#000" stroke-linecap="round" stroke-linejoin="round" stroke-width="8" d="M69.278 75.231a77.5 77.5 0 0 0 26.437 22.128 152.176 152.176 0 0 0 25.437-20.775"/><path fill="none" stroke="#000" stroke-linecap="round" stroke-linejoin="round" stroke-width="8" d="M56.223 88.009c3.634 5.359 32.79 30.172 39.479 33.295 1.363-.693 32.94-23.599 39.748-33.295"/><path fill="none" stroke="#000" stroke-linecap="round" stroke-linejoin="round" stroke-width="8" d="M43.377 112.448c7.203 7.989 42.034 24.647 52.623 28.637 8.664-2.082 43.145-25.506 51.87-33.361"/><path fill="none" stroke="#000" stroke-linecap="round" stroke-linejoin="round" stroke-width="8" d="M42.027 136.742c9.603 6.079 39.85 17.878 53.519 19.266 12.619-2.949 53.361-22.561 55.305-24.988"/></svg>