<svg xmlns="http://www.w3.org/2000/svg" viewBox="0 0 192 192"><path d="M102.663 71.771h.071a21.25 21.25 0 0 1 14.994 6.189 21.097 21.097 0 0 1 6.21 14.94v55.392a21.095 21.095 0 0 1-6.21 14.941 21.253 21.253 0 0 1-14.994 6.188h-.071a21.257 21.257 0 0 1-14.994-6.188 21.096 21.096 0 0 1-6.211-14.941V92.9c0-5.601 2.236-10.98 6.211-14.94a21.254 21.254 0 0 1 14.994-6.189" fill="none" stroke="#000" stroke-width="12" stroke-linecap="round" stroke-linejoin="round"/><path d="M170.717 157.184c-1.401 0-2.746.968-3.737 2.689-.99 1.72-1.548 4.056-1.548 6.49 0 2.433.558 4.769 1.548 6.488.991 1.721 2.336 2.688 3.737 2.688 1.4 0 2.745-.967 3.735-2.688.991-1.719 1.548-4.055 1.548-6.488 0-2.434-.557-4.77-1.548-6.49-.99-1.721-2.335-2.689-3.735-2.689Z"/><path d="M141.269 22.089v128.977c0 4.898 1.121 9.603 3.116 13.065 1.994 3.465 4.701 5.414 7.521 5.414h3.452M22 108.726c0-6.443.977-12.774 2.832-18.354 1.855-5.581 4.522-10.216 7.736-13.437 3.212-3.222 6.857-4.92 10.566-4.92 3.71 0 7.356 1.698 10.568 4.92 3.212 3.221 5.881 7.856 7.736 13.437 1.854 5.58 2.831 11.911 2.831 18.354V133.2c0 6.444-.977 12.776-2.831 18.355-1.855 5.581-4.524 10.215-7.736 13.438-3.212 3.221-6.858 4.918-10.568 4.918-3.709 0-7.354-1.697-10.566-4.918-3.214-3.223-5.881-7.857-7.736-13.438C22.977 145.976 22 139.644 22 133.2m0 36.345V22.089" fill="none" stroke="#000" stroke-width="12" stroke-linecap="round" stroke-linejoin="round"/></svg>