<svg xmlns="http://www.w3.org/2000/svg" xml:space="preserve" width="192" height="192" fill="none" viewBox="0 0 192 192"><g style="stroke-width:9.10243539;stroke-dasharray:none"><path d="M136.576 122.409v27.794H56.034V40.373v0l40.271 29.491 40.271-29.491v56.952" style="display:inline;fill:none;stroke:#000;stroke-width:9.10243539;stroke-linecap:round;stroke-linejoin:round;stroke-dasharray:none;paint-order:stroke fill markers" transform="matrix(1.31833 0 0 1.31833 -34.375 -29.517)"/><g style="stroke-width:9.84478399;stroke-dasharray:none"><path d="M70.677 96.915a23.288 23.288 0 0 0 .028.414 23.288 23.288 0 0 0 11.618 19.755 23.288 23.288 0 0 0 23.287 0 23.288 23.288 0 0 0 11.616-19.755 23.288 23.288 0 0 0 .028-.414zm46.577 0a23.288 23.288 0 0 0 .027.414 23.288 23.288 0 0 0 11.617 19.755 23.288 23.288 0 0 0 23.289 0 23.288 23.288 0 0 0 11.616-19.755 23.288 23.288 0 0 0 .028-.414z" style="fill:none;stroke:#000;stroke-width:9.84478399;stroke-linecap:round;stroke-linejoin:round;stroke-dasharray:none;stroke-opacity:1;paint-order:stroke fill markers" transform="matrix(1.21892 0 0 1.21892 -22.718 -16.971)"/></g></g></svg>