<svg xmlns="http://www.w3.org/2000/svg" viewBox="0 0 192 192"><path d="M117.1 175.756c-13.945-1.376-31.077-7.509-49.061-17.563-23.105-12.916-38.246-26.578-44.811-40.434-5.237-11.053-5.079-22.915.453-34.067 10.181-20.521 39.926-40.842 82.303-56.226 18.559-6.738 37.08-11.331 46.156-11.447 4.882-.062 4.91-.056 6.098 1.43 2.418 3.026 6.205 15.641 9.121 30.381 5.217 26.374 6.653 55.088 3.748 74.958-3.707 25.361-13.352 41.587-29.146 49.037-7.12 3.358-16.169 4.789-24.861 3.931Zm14.881-11.417c6.83-1.544 14.275-6.83 18.589-13.2 5.489-8.104 9.413-20.981 10.829-35.531.669-6.877.677-26.56.014-34.406-.93-10.995-3.124-26.353-5.029-35.188-.732-3.398-.871-3.071-3.214 7.544-9.473 42.92-23.558 75.169-40.037 91.671-5.005 5.012-8.694 7.68-14.887 10.766-5.946 2.962-6.063 2.644 1.943 5.292 12.577 4.161 22.618 5.124 31.792 3.052Zm-44.497-15.416c13.404-3.46 24.625-14.988 35.132-36.092 5.86-11.771 11.037-26.05 15.933-43.951 3.33-12.175 9.837-41.483 9.323-41.997-.361-.36-12.116 2.238-19.216 4.247-30.58 8.655-60.636 22.899-78.057 36.992-13.805 11.168-20.664 22.106-20.664 32.951 0 5.081.956 8.828 3.501 13.719 5.194 9.985 15.786 19.776 32.426 29.975 3.659 2.242 7.214 4.248 7.901 4.457 2.244.682 10.624.498 13.721-.301Z"/></svg>