<svg
    xmlns="http://www.w3.org/2000/svg"
    viewBox="0 0 192 192"
    id="vector">
    <g id="group">
        <path
            id="path_6"
            d="M 16 96 L 16 16 L 36 17.471 C 47 18.279 64.64 21.343 75.2 24.279 C 100.833 31.405 128.297 31.189 154.469 23.656 L 176 17.459 L 176 52.24 L 160.8 56.824 C 138.571 63.527 75.52 62.731 59.836 55.549 L 47.672 49.979 L 48.636 67 C 49.571 83.505 49.989 84.174 62.4 89.033 C 80.351 96.06 144.001 96.029 162.4 88.983 L 176 83.774 L 176 97.93 C 176 110.274 174.874 112.552 167.2 115.73 C 134.769 129.164 89.147 128.638 53.6 114.42 C 48.506 112.383 48 115.061 48 144.09 L 48 176 L 16 176 Z"
            fill="#000000"
            stroke-width="12"/>
    </g>
</svg>
