<svg xmlns="http://www.w3.org/2000/svg" viewBox="0 0 192 192"><path fill="none" stroke="#000" stroke-linecap="round" stroke-linejoin="round" stroke-width="8" d="M166.905 16.5H25.095c-4.727 0-8.595 3.868-8.595 8.595v141.81c0 4.727 3.868 8.595 8.595 8.595h141.81c4.727 0 8.595-3.868 8.595-8.595V25.095c0-4.727-3.868-8.595-8.595-8.595ZM16.93 96h158.14M96 175.07V16.93"/><path fill="none" stroke="#000" stroke-linecap="round" stroke-linejoin="round" stroke-width="8" d="M64.63 115.768c11.173 2.148 18.478 12.462 16.329 23.205-1.289 8.165-8.164 15.041-16.329 16.33"/><path fill="none" stroke="#000" stroke-linecap="round" stroke-linejoin="round" stroke-width="8" d="M65.919 129.089c3.867.86 6.016 4.297 5.586 7.735-.429 2.579-2.578 5.157-5.586 5.587M31.111 127.37v16.76h13.321l13.322 11.602v-40.394L44.432 127.37Zm109.581 14.181v12.463c0 .859.859 1.718 1.719 1.718h8.594c.86 0 1.719-.859 1.719-1.718v-15.9h2.579c1.719 0 3.008-1.29 3.008-3.009 0-.859-.43-1.719-.86-2.148l-19.767-16.76c-1.289-1.289-3.438-1.289-4.727 0l-19.768 16.76c-1.289.859-1.289 3.008-.43 3.867.43.86 1.29.86 2.149.86h2.578v15.9c0 .859.86 1.719 1.719 1.719h8.595c.859 0 1.719-.86 1.719-1.719v-12.462Zm-6.876-100.127-17.619 17.19 17.619 17.618-17.619-17.618h39.106M34.119 46.581h36.527v28.792H34.119Z"/><path fill="none" stroke="#000" stroke-linecap="round" stroke-linejoin="round" stroke-width="8" d="M46.581 37.986h32.23v27.503"/></svg>