<svg
    xmlns="http://www.w3.org/2000/svg"
    viewBox="0 0 192 192"
    id="vector">
    <path
        id="path"
        d="M 166.905 16.5 L 25.095 16.5 C 20.368 16.5 16.5 20.368 16.5 25.095 L 16.5 166.905 C 16.5 171.632 20.368 175.5 25.095 175.5 L 166.905 175.5 C 171.632 175.5 175.5 171.632 175.5 166.905 L 175.5 25.095 C 175.5 20.368 171.632 16.5 166.905 16.5 Z M 16.93 96 L 175.07 96 M 96 175.07 L 96 16.93"
        fill="none"
        stroke="#000000"
        stroke-width="8"
        stroke-linecap="round"
        stroke-linejoin="round"/>
    <path
        id="path_1"
        d="M 64.63 115.768 C 75.803 117.916 83.108 128.23 80.959 138.973 C 79.67 147.138 72.795 154.014 64.63 155.303"
        fill="none"
        stroke="#000000"
        stroke-width="8"
        stroke-linecap="round"
        stroke-linejoin="round"/>
    <path
        id="path_2"
        d="M 65.919 129.089 C 69.786 129.949 71.935 133.386 71.505 136.824 C 71.076 139.403 68.927 141.981 65.919 142.411 M 31.111 127.37 L 31.111 144.13 L 44.432 144.13 L 57.754 155.732 L 57.754 115.338 L 44.432 127.37 Z M 140.692 141.551 L 140.692 154.014 C 140.692 154.873 141.551 155.732 142.411 155.732 L 151.005 155.732 C 151.865 155.732 152.724 154.873 152.724 154.014 L 152.724 138.114 L 155.303 138.114 C 157.022 138.114 158.311 136.824 158.311 135.105 C 158.311 134.246 157.881 133.386 157.451 132.957 L 137.684 116.197 C 136.395 114.908 134.246 114.908 132.957 116.197 L 113.189 132.957 C 111.9 133.816 111.9 135.965 112.759 136.824 C 113.189 137.684 114.049 137.684 114.908 137.684 L 117.486 137.684 L 117.486 153.584 C 117.486 154.443 118.346 155.303 119.205 155.303 L 127.8 155.303 C 128.659 155.303 129.519 154.443 129.519 153.584 L 129.519 141.122 Z"
        fill="none"
        stroke="#000000"
        stroke-width="8"
        stroke-linecap="round"
        stroke-linejoin="round"/>
    <path
        id="path_3"
        d="M 133.816 41.424 L 116.197 58.614 L 133.816 76.232 L 116.197 58.614 L 155.303 58.614"
        fill="none"
        stroke="#000000"
        stroke-width="8"
        stroke-linecap="round"
        stroke-linejoin="round"/>
    <path
        id="path_4"
        d="M 34.119 46.581 L 70.646 46.581 L 70.646 75.373 L 34.119 75.373 Z"
        fill="none"
        stroke="#000000"
        stroke-width="8"
        stroke-linecap="round"
        stroke-linejoin="round"/>
    <path
        id="path_5"
        d="M 46.581 37.986 L 78.811 37.986 L 78.811 65.489"
        fill="none"
        stroke="#000000"
        stroke-width="8"
        stroke-linecap="round"
        stroke-linejoin="round"/>
</svg>
