<svg xmlns="http://www.w3.org/2000/svg" viewBox="0 0 192 192"><path d="M54.43 175.288c-.334-.391-4.507-11.879-9.274-25.528-4.767-13.648-8.914-25.307-9.216-25.908-.712-1.416-1.189-1.689-3.403-1.948-1.715-.2-1.831-.291-1.831-1.434v-1.221l10.272-.108 10.272-.109v1.431c0 1.381-.053 1.431-1.525 1.437-.839.003-1.722.141-1.962.305-1.27.869-1.549-.156 8.629 31.771 1.238 3.885 2.391 6.906 2.562 6.713.827-.938 10.59-29.947 10.881-32.332.265-2.171-.363-4.419-1.528-5.473-.448-.405-1.585-.839-2.528-.965-1.58-.211-1.724-.332-1.841-1.551l-.128-1.322h21.206v2.848h-2.02c-2.107 0-2.867.615-2.857 2.312.006 1.13 11.134 36.51 11.556 36.742.801.44 11.608-33.695 11.624-36.715.007-1.329-1.485-2.339-3.454-2.339-1.821 0-1.831-.008-1.831-1.424v-1.424h21.095l8.813 11.086c17.261 21.71 23.592 29.546 23.893 29.57.426.035.356-22.63-.09-29.088-.202-2.924-.597-5.821-.879-6.438-.686-1.506-2.322-2.282-4.808-2.282h-2.054v-2.848h17.493v1.424c0 1.415-.011 1.424-1.821 1.424-2.589 0-3.055.879-3.497 6.602-.668 8.637-1.188 24.113-1.189 35.401-.002 14.496.393 14.341-8.826 3.473-5.533-6.522-21.474-25.942-27.382-33.358-1.902-2.387-3.687-4.351-3.967-4.364-.39-.019-.508 1.798-.506 7.806.002 10.563.756 29.443 1.249 31.31.518 1.962 1.714 2.761 4.128 2.761h1.943v2.848h-17.544l.127-1.322c.124-1.284.192-1.329 2.325-1.526 4.405-.408 4.602-1.499 4.668-25.833.049-18.198.028-18.752-.786-20.137-.46-.783-.996-1.424-1.192-1.424-.196 0-4.536 11.348-9.646 25.218-5.109 13.87-9.631 25.559-10.047 25.975-.599.599-.928.666-1.571.322-.863-.462-1.377-1.858-10.525-28.626-2.656-7.773-4.93-14.134-5.053-14.137-.123-.003-.433.59-.69 1.317C59.457 168.923 56.687 176 55.336 176c-.164 0-.572-.32-.906-.712Zm-15.256-72.372c.145-.145.679-.471 1.187-.723.874-.435.928-.723 1.04-5.533.14-6.033-.006-6.81-1.344-7.146-2.494-.626-.511-.979 5.498-.979h6.509v1.83c0 1.007-.073 1.831-.163 1.831-.089 0-.803-.641-1.586-1.424-1.255-1.255-1.67-1.424-3.499-1.424h-2.075v3.051c0 3.005.016 3.052 1.044 3.052 1.445 0 2.495-.637 3.204-1.943.574-1.057.602-.958.616 2.146l.015 3.255-.77-1.263c-.683-1.12-2.086-1.789-3.753-1.789-.549 0-.429 5.46.132 6.021.269.269 1.443.488 2.609.488 2.179 0 2.832-.448 4.507-3.098.409-.646.488-.4.509 1.573l.024 2.339h-6.984c-3.841 0-6.865-.119-6.72-.264Zm27.535-.114c0-.209.412-.437.916-.509.896-.127.917-.256 1.028-6.134l.112-6.005-1.028-.468c-1.844-.84-1.093-1.151 2.782-1.151 4.504 0 7.849.561 8.875 1.49 1.164 1.053.998 3.837-.307 5.141-1.032 1.033-1.53 1.205-4.972 1.726l-1.747.264.12 2.503c.108 2.244.215 2.518 1.035 2.634.504.072.916.3.916.509 0 .208-1.739.378-3.865.378-2.126 0-3.865-.17-3.865-.378Zm7.678-6.987c1.496-.522 2.086-1.428 2.086-3.204 0-1.562-1.58-3.263-3.033-3.263-1.028 0-1.035.025-1.035 3.458 0 1.902.155 3.458.346 3.458.19 0 .926-.202 1.636-.449Zm8.188 6.958c0-.223.246-.407.547-.407 1.002 0 1.789-1.374 4.376-7.646 2.396-5.809 2.634-6.215 3.572-6.103.886.107 1.298.846 3.512 6.306 2.602 6.417 3.169 7.443 4.112 7.443.308 0 .561.184.561.407 0 .243-1.56.407-3.865.407-2.306 0-3.865-.164-3.865-.407 0-.223.458-.407 1.017-.407 1.208 0 1.287-.626.332-2.63-.679-1.422-.713-1.438-3.265-1.438-2.424 0-2.604.066-2.994 1.092-.614 1.615-.324 2.752.74 2.903 2.035.289.733.887-1.932.887-1.627 0-2.848-.174-2.848-.407Zm8.509-7.409c-1.322-3.354-1.472-3.538-1.923-2.354-.213.559-.683 1.726-1.046 2.592-.362.866-.658 1.644-.658 1.729 0 .084 1.004.154 2.231.154h2.232Zm10.611 7.409c0-.223.33-.407.733-.407 1.493 0 1.708-.802 1.708-6.358 0-4.349-.122-5.504-.639-6.02-.352-.352-.901-.64-1.22-.64-.32 0-.582-.209-.582-.464 0-.336 1.534-.406 5.532-.254 4.62.177 5.705.341 6.585.998 1.59 1.187 1.932 2.67 1.037 4.492-.815 1.659-2.121 2.309-5.545 2.758l-1.952.256.121 2.311c.102 1.945.266 2.375 1.037 2.713 1.709.75.923 1.022-2.95 1.022-2.305 0-3.865-.164-3.865-.407Zm9.025-7.594c.872-.788 1.011-3.676.229-4.745-.28-.384-1.196-.809-2.034-.945l-1.524-.247v7.124l1.295-.259c.713-.143 1.628-.56 2.034-.928Zm8.062 7.623c0-.209.412-.437.915-.509.896-.127.918-.256 1.028-6.134l.113-6.005-1.028-.468c-.566-.257-1.028-.622-1.028-.81 0-.188 2.837-.341 6.305-.341h6.306l-.011 1.932-.011 1.932-1.149-1.385c-1.004-1.21-1.439-1.409-3.447-1.576l-2.298-.19v3.101c0 2.796.078 3.102.787 3.102 1.51 0 2.851-.783 3.111-1.817.5-1.993.984-1 .984 2.02 0 2.986-.483 4.018-.971 2.075-.155-.618-.716-1.141-1.528-1.424-2.266-.79-2.383-.684-2.383 2.163 0 3.782.086 3.898 2.862 3.898 2.061 0 2.475-.136 3.194-1.05.455-.578.938-1.402 1.074-1.831.682-2.147 1.378.435.75 2.78-.242.902-.342.915-6.91.915-3.84 0-6.665-.16-6.665-.378Zm17.493 0c0-.209.412-.437.915-.509.896-.127.918-.256 1.028-6.134l.113-6.005-1.028-.468c-1.845-.84-1.094-1.151 2.781-1.151 4.505 0 7.849.561 8.875 1.49 1.223 1.106.986 3.52-.465 4.74-.663.558-1.44 1.093-1.728 1.189-.711.237 3.895 5.906 5.31 6.535.98.436.814.493-1.766.607-3.178.141-2.7.462-5.856-3.935-2.23-3.108-2.891-3.206-2.891-.429 0 2.287.534 3.634 1.438 3.634.328 0 .596.184.596.407 0 .241-1.491.407-3.661.407-2.014 0-3.661-.17-3.661-.378Zm8.51-7.657c2.21-1.805 1.17-5.386-1.603-5.523l-1.415-.07-.119 3.153-.119 3.152h1.193c.655 0 1.584-.32 2.063-.712Zm-87.839 2.543c0-.988.081-1.017 2.847-1.017 2.767 0 2.848.029 2.848 1.017 0 .988-.081 1.017-2.848 1.017-2.766 0-2.847-.029-2.847-1.017Zm79.736-25.071c-1.679-.2-11.458-.499-21.732-.665-13.018-.209-18.725-.436-18.829-.749-.082-.247 2.271-3.817 5.229-7.933 22.18-30.865 31.263-43.632 31.263-43.941 0-.198-4.305-.36-9.573-.36-7.549 0-9.879.128-11.02.605-1.626.679-5.482 4.558-9.176 9.229-2.267 2.868-2.544 3.087-3.407 2.694l-.94-.428 1.764-4.931c3.897-10.894 3.589-10.235 4.7-10.07.553.082 9.915.174 20.804.203 10.889.03 19.924.18 20.078.334.154.154-5.114 7.751-11.707 16.883a20565.853 20565.853 0 0 0-18.714 25.959l-6.727 9.357 12.061.118c6.633.065 12.639.014 13.346-.113 1.523-.274 5.733-4.037 9.281-8.297 1.326-1.592 2.695-2.892 3.042-2.889 1.717.017 1.62.595-1.23 7.328-1.559 3.685-2.987 6.975-3.173 7.311-.417.754-1.438.822-5.34.355Zm-92.206-1.066c-.453-1.806.029-2.137 3.121-2.137h2.881l.59-1.41c.489-1.173.589-5.075.587-23.087-.002-13.727-.157-22.234-.425-23.197-.539-1.94-1.336-2.344-4.631-2.344h-2.671V16.47l16.171.15c15.351.143 16.307.196 18.857 1.044 5.475 1.823 8.158 5.623 8.158 11.556 0 2.687-.185 3.618-1.09 5.467-1.264 2.583-3.806 4.785-7.245 6.275-1.261.546-2.295 1.115-2.299 1.265-.004.15.954.587 2.129.971 5.294 1.734 8.949 4.532 10.746 8.23.991 2.037 1.131 2.801 1.137 6.189.007 3.384-.134 4.168-1.128 6.305-1.492 3.209-3.964 5.697-6.664 6.707-3.998 1.496-7.154 1.744-22.822 1.791l-15.172.046Zm29.852-2.794c3.01-1.504 4.683-3.887 5.401-7.691.701-3.714.289-7.129-1.236-10.24-2.219-4.529-6.1-6.586-13.106-6.946l-3.966-.204v10.045c0 11.069.28 13.064 2.091 14.875 1.41 1.409 2.176 1.604 5.731 1.452 2.039-.087 3.337-.416 5.085-1.291Zm-4.007-28.046c4.386-1.302 7.062-5.273 7.118-10.561.059-5.516-2.279-8.795-7.399-10.377-2.902-.896-7.377-1.07-8.131-.316-.355.355-.488 3.409-.488 11.188v10.699h3.384c1.878 0 4.333-.282 5.516-.633Z"/></svg>