<svg xmlns="http://www.w3.org/2000/svg" viewBox="0 0 192 192"><path d="M88.749 175.745c-34.051-3.381-62.063-27.365-70.388-60.265-3.753-14.834-2.999-31.61 2.063-45.926 4.071-11.513 9.723-20.539 18.456-29.473 13.282-13.586 29.51-21.507 48.526-23.686 4.341-.497 17.374-.403 17.906.129.131.131-.516 1.406-1.438 2.834-.922 1.428-2.054 3.435-2.515 4.46l-.839 1.864-5.114.002c-15.317.008-30.361 5.229-42.593 14.783-4.013 3.134-10.118 9.303-13.077 13.214-7.234 9.561-12.082 21.627-13.618 33.893-.742 5.929-.313 16.819.885 22.441 6.046 28.376 28.179 49.965 56.675 55.281 6.604 1.232 19.487 1.12 25.795-.225 25.297-5.392 45.254-22.859 53.132-46.503 2.76-8.28 3.463-12.731 3.497-22.117.019-5.231-.189-9.537-.553-11.464-.565-2.983-.553-3.109.356-3.748.518-.364 2.411-1.799 4.207-3.19l3.265-2.529.433 1.647c1.871 7.126 2.68 18.942 1.833 26.78-4.098 37.913-33.46 67.485-71.114 71.622-3.983.438-12.22.529-15.78.176Zm-12.687-58.038c-9.553-9.588-9.801-9.882-9.801-11.629 0-1.129.329-2.21.889-2.922 1.049-1.333 3.435-2.224 4.944-1.845.589.148 3.732 2.934 6.983 6.192 3.251 3.258 6.118 5.924 6.37 5.924.252 0 7.283-7.342 15.624-16.315 8.341-8.972 15.197-16.314 15.236-16.314.038 0 1.637.893 3.552 1.984 1.915 1.092 3.723 1.984 4.017 1.984.295 0 .659.199.809.442.208.337-27.367 30.474-37.222 40.679l-1.6 1.656Zm55.143-58.2c.231-3.276 1.153-7.832 2.072-10.236.634-1.66 1.839-6.03 1.694-6.143-.08-.063-2.344-.345-5.031-.628-6.3-.663-12.751-2.252-12.751-3.141 0-1.033 3.256-2.558 6.618-3.101 2.781-.449 8.869-.29 10.9.285.549.155.211-.679-1.213-2.988-1.159-1.881-1.975-3.736-1.975-4.493 0-1.265.039-1.286 1.944-1.071 2.309.26 5.357 1.666 8.021 3.699l1.931 1.474 3.201-1.953a274.829 274.829 0 0 1 6.068-3.58c1.576-.894 3.606-2.096 4.51-2.67.904-.574 2.07-1.043 2.59-1.043.81 0 .91.185.691 1.278-.326 1.632-3.76 7.022-6.55 10.281l-2.157 2.52 2.713 2.771c3.528 3.603 5.709 6.847 8.862 13.18 2.53 5.083 3.009 6.567 2.115 6.567-.249 0-1.588-.579-2.976-1.287-2.59-1.321-5.176-3.113-12.736-8.824a659.781 659.781 0 0 0-5.736-4.296l-1.399-1.018-.757 2.311c-2.154 6.582-8.091 15.76-10.195 15.76-.619 0-.678-.478-.454-3.654Zm-8.394 1.633c-1.327-1.046-1.433-1.322-1.433-3.729 0-2.387.127-2.726 1.558-4.157 1.305-1.305 1.868-1.558 3.473-1.558 2.218 0 2.665.412 3.39 3.121 1.497 5.599-2.88 9.56-6.988 6.323Zm3.505-13.5c-.791-.791-.638-2.763.277-3.591 1.183-1.071 3.407-.939 4.24.25.903 1.29.867 2.247-.12 3.14-.937.848-3.627.971-4.397.201Z"/></svg>