<svg xmlns="http://www.w3.org/2000/svg" viewBox="0 0 192 192"><path d="M63.938 160.024c-2.063-2.062.795-21.581 6.776-46.269 2.062-8.51 3.942-16.528 4.179-17.818.424-2.31.312-2.361-7.614-3.486-13.515-1.917-38.905-7.19-44.245-9.188-8.528-3.191-9.002-6.111-1.306-8.049 6.75-1.7 24.858-3.76 38.485-4.38 7.26-.329 13.398-.921 13.642-1.315.243-.393-1.039-3.03-2.849-5.859-4.678-7.313-6.722-12.194-6.745-16.105-.017-2.851.337-3.485 2.207-3.955 4.017-1.008 15.585 4.006 28.856 12.507l6.963 4.459 11.697-7.618c22.053-14.365 36.343-21.566 42.797-21.566h3.272l-.483 3.597c-.265 1.978-2.028 6.142-3.918 9.253-3.648 6.005-15.847 21.831-21.02 27.269l-3.098 3.256 8.795 11.762c18.791 25.135 33.944 50.037 35.503 58.346.769 4.098-1.14 5.978-4.957 4.884-7.058-2.024-14.371-6.814-31.997-20.955-14.522-11.651-24.954-19.637-33.186-25.403l-5.384-3.772-11.103 22.542c-15.373 31.212-21.995 41.136-25.267 37.863ZM40.075 154.8c-10.823-4.714-12.085-24.44-1.958-30.614 8.575-5.229 18.832 2.238 19.054 13.872.164 8.565-3.268 14.662-9.6 17.054-3.222 1.217-4.065 1.182-7.496-.312Zm8.693-43.921c-3.093-1.225-5.462-4.328-5.462-7.153 0-5.272 6.232-8.618 12.317-6.613 8.843 2.914 7.127 12.723-2.436 13.923-1.68.211-3.669.14-4.419-.157Z"/></svg>