<svg xmlns="http://www.w3.org/2000/svg" xml:space="preserve" width="192" height="192"><g style="stroke-width:.855612"><path d="M105.52 96.115h18.58m-9.175-10.896v20.645M135.226 96h18.58m-9.176-10.896v20.645" style="fill:#000;fill-opacity:1;stroke:#000;stroke-width:6.8449;stroke-linecap:square;stroke-dasharray:none" transform="matrix(1.1672 0 0 1.17031 -12.513 -17.81)"/><path d="M109.97 131.074a46.5 46.5 0 0 1-65.028-2.268 46.5 46.5 0 0 1 .904-65.061 46.5 46.5 0 0 1 65.066-.462" style="fill:none;fill-opacity:1;stroke:#000;stroke-width:6.8449;stroke-linecap:square;stroke-dasharray:none" transform="matrix(1.1672 0 0 1.17031 -12.513 -17.81)"/><path d="M98.293 119.899a29.718 30.269 0 0 1-41.559-1.477 29.718 30.269 0 0 1 .578-42.351 29.718 30.269 0 0 1 41.583-.301" style="fill:none;fill-opacity:1;stroke:#000;stroke-width:6.84491;stroke-linecap:square;stroke-dasharray:none" transform="matrix(1.1672 0 0 1.17031 -12.513 -17.81)"/><path d="m110.108 64.23-11.24 11.469m.229 43.355 10.322 11.47" style="fill:none;fill-opacity:1;stroke:#000;stroke-width:6.8449;stroke-linecap:square;stroke-dasharray:none" transform="matrix(1.1672 0 0 1.17031 -12.513 -17.81)"/></g></svg>