<svg
    xmlns="http://www.w3.org/2000/svg"
    viewBox="0 0 192 192"
    id="vector">
    <path
        id="path"
        d="M 82.199 173.364 C 74.767 168.56 61.357 156.651 56.115 150.198 C 51.497 144.514 44.684 134.482 44.684 133.366 C 44.684 132.996 44.47 132.692 44.207 132.689 C 43.944 132.686 43.419 132.041 43.041 131.256 C 42.662 130.471 41.502 128.252 40.464 126.325 C 37.09 120.065 33.674 111.159 30.998 101.648 L 29.521 96.394 L 31.035 96.394 C 32.333 96.394 32.697 96.915 33.586 100.055 C 38.02 115.702 41.313 122.803 50.805 137.186 C 60.49 151.86 76.477 166.41 90.55 173.355 C 92.538 174.337 94.914 173.447 101.389 169.297 C 112.139 162.406 124.579 150.617 131.719 140.553 C 141.639 126.569 147.304 114.979 151.044 101.011 C 152.289 96.363 152.62 95.757 153.914 95.757 C 155.538 95.757 155.552 95.449 153.583 102.79 C 151.008 112.394 145.998 124.219 141.393 131.568 C 139.692 134.281 138.301 136.653 138.301 136.84 C 138.301 137.026 135.85 140.491 132.854 144.54 C 124.662 155.612 112.75 166.945 102.416 173.502 C 98.565 175.945 98.393 175.988 92.388 175.994 C 86.302 176 86.261 175.99 82.199 173.364 Z M 90.428 170.109 C 89.615 169.456 89.191 165.2 88.061 146.386 C 87.305 133.777 86.692 122.87 86.701 122.15 C 86.711 121.305 86.095 120.594 84.965 120.148 C 83.352 119.51 83.327 119.45 84.647 119.388 C 85.435 119.351 86.08 119.176 86.08 118.999 C 86.08 118.822 84.2 116.458 81.903 113.745 C 79.606 111.032 77.164 107.737 76.477 106.424 C 75.79 105.11 74.978 104.036 74.674 104.036 C 74.37 104.036 74.134 103.677 74.151 103.24 C 74.248 100.63 73.887 99.578 72.897 99.578 C 72.055 99.578 71.984 99.408 72.578 98.814 C 72.999 98.393 73.343 97.39 73.343 96.585 C 73.343 95.198 73.109 95.12 68.946 95.12 L 64.55 95.12 L 69.414 107.292 C 73.357 117.163 74.562 119.573 75.782 120.037 C 77.264 120.601 77.268 120.625 76.048 121.716 C 74.837 122.798 74.829 123.225 75.673 140.655 C 76.147 150.462 76.462 159.146 76.372 159.953 C 76.227 161.25 76.075 161.322 75.057 160.572 C 74.037 159.82 73.773 157.472 72.741 139.999 L 71.576 120.275 L 65.572 107.538 L 59.569 94.801 L 46.714 94.629 C 39.643 94.534 33.858 94.37 33.858 94.265 C 33.858 94.159 34.32 92.717 34.885 91.059 C 35.45 89.402 35.808 87.964 35.681 87.864 C 35.554 87.764 30.959 87.851 25.471 88.058 C 19.982 88.264 15.608 88.317 15.75 88.176 C 16.239 87.691 51.285 72.213 51.472 72.4 C 51.574 72.502 51.367 74.396 51.01 76.609 C 50.654 78.821 50.454 80.722 50.565 80.834 C 50.677 80.945 51.692 80.452 52.821 79.737 C 54.839 78.459 54.874 78.355 54.886 73.564 L 54.899 68.691 L 59.822 65.345 C 62.53 63.505 65.318 62.004 66.019 62.01 C 66.763 62.017 68.617 60.559 70.477 58.504 C 73.539 55.122 73.856 54.949 78.756 53.962 C 81.558 53.398 85.49 52.111 87.494 51.102 C 90.815 49.429 91.728 49.267 97.791 49.267 L 104.444 49.267 L 105.846 51.535 C 106.867 53.187 107.529 53.68 108.286 53.351 C 108.857 53.102 110.706 52.594 112.394 52.222 C 115.628 51.508 116.608 51.827 122.858 55.631 L 124.927 56.89 L 124.927 64.497 C 124.927 71.902 124.966 72.11 126.36 72.308 C 127.281 72.439 127.866 73.024 127.997 73.945 C 128.182 75.247 128.545 75.378 131.977 75.378 C 134.054 75.378 135.744 75.163 135.731 74.9 C 135.719 74.637 134.583 72.573 133.207 70.313 C 131.831 68.053 130.805 66.103 130.928 65.981 C 131.223 65.685 167.095 60.652 167.312 60.875 C 167.576 61.146 176.4 83.325 176.291 83.442 C 176.238 83.5 170.462 83.028 163.457 82.393 C 156.451 81.759 150.615 81.34 150.486 81.461 C 150.358 81.583 151.576 83.976 153.193 86.779 C 154.81 89.583 156.133 92.033 156.133 92.224 C 156.133 92.416 150.258 92.572 143.078 92.572 L 130.022 92.572 L 130.022 97.826 L 130.021 103.08 L 119.832 113.693 L 109.644 124.305 L 109.644 142.676 C 109.644 159.932 109.571 161.091 108.452 161.79 C 107.306 162.506 107.246 161.99 106.85 148.091 C 106.624 140.148 106.266 130.998 106.055 127.758 L 105.671 121.867 L 101.766 120.629 L 97.862 119.392 L 100.728 119.352 C 104.779 119.297 108.216 118.213 111.492 115.959 C 115.399 113.271 123.562 105.425 124.66 103.302 C 125.283 102.096 125.548 99.511 125.509 94.992 C 125.443 87.117 124.758 77.543 124.224 77.009 C 124.012 76.796 121.157 77.646 117.88 78.897 C 112.168 81.076 104.089 83.378 100.728 83.783 C 99.277 83.958 99.153 84.211 99.332 86.634 C 99.441 88.096 99.876 90.675 100.3 92.365 L 101.07 95.438 L 103.952 95.297 C 105.537 95.219 108.899 94.304 111.423 93.263 C 113.947 92.223 116.012 91.618 116.012 91.92 C 116.012 92.746 112.152 94.923 109.81 95.419 C 107.143 95.983 106.614 96.885 108.651 97.396 C 110.097 97.759 111.433 97.476 114.898 96.072 C 116.593 95.385 116.311 97.442 114.552 98.594 C 113.338 99.39 112.168 99.446 107.593 98.926 C 101.69 98.255 99.888 98.596 97.945 100.753 C 96.961 101.846 96.802 102.819 97.029 106.383 L 97.304 110.692 L 96.127 108.16 C 95.288 106.354 95.034 104.688 95.239 102.349 L 95.528 99.07 L 92.84 98.667 C 90.788 98.359 89.898 97.833 89.077 96.443 L 88.002 94.623 L 82.424 94.956 C 79.356 95.139 76.725 95.395 76.577 95.526 C 76.005 96.032 77.933 104.345 79.199 106.831 C 79.932 108.271 82.47 111.455 84.839 113.907 L 89.145 118.365 L 90.48 141.928 C 91.214 154.888 91.951 166.71 92.119 168.198 C 92.438 171.029 92.079 171.436 90.428 170.109 Z M 98.18 95.916 C 98.181 95.653 97.715 93.092 97.146 90.224 L 96.111 85.009 L 92.846 85.377 C 91.051 85.58 89.492 85.82 89.381 85.91 C 89.271 86.001 89.505 87.322 89.902 88.846 C 90.299 90.37 90.902 92.692 91.242 94.005 C 91.852 96.361 91.903 96.394 95.02 96.394 C 96.758 96.394 98.18 96.179 98.18 95.916 Z M 74.198 91.458 C 74.36 91.195 74.697 89.613 74.947 87.943 L 75.402 84.905 L 73.694 85.555 C 72.755 85.912 71.032 86.204 69.865 86.204 C 67.852 86.204 67.732 86.334 67.499 88.784 C 67.363 90.204 67.381 91.493 67.538 91.65 C 68.022 92.134 73.886 91.965 74.198 91.458 Z M 84.169 91.522 L 86.238 91.108 L 85.894 87.774 C 85.702 85.913 85.83 84.161 86.184 83.806 C 86.606 83.385 85.893 83.351 84.061 83.705 C 82.544 83.998 80.969 84.25 80.56 84.266 C 79.939 84.289 78.437 89.286 78.437 91.33 C 78.437 92.03 81.172 92.121 84.169 91.522 Z M 63.172 89.011 C 63.588 87.753 63.682 86.514 63.381 86.259 C 63.081 86.003 61.591 84.839 60.072 83.672 L 57.309 81.55 L 52.748 83.178 C 50.24 84.074 47.686 85.008 47.073 85.255 C 46.09 85.65 45.958 85.28 45.958 82.133 C 45.958 80.169 45.684 78.562 45.349 78.562 C 45.014 78.562 41.646 79.842 37.866 81.406 L 30.992 84.25 L 35.842 84.272 L 40.692 84.293 L 40.169 87 C 39.881 88.489 39.633 90.065 39.617 90.503 C 39.596 91.111 42.282 91.299 51.004 91.299 L 62.417 91.299 L 63.172 89.011 Z M 149.765 88.408 C 149.765 88.219 148.719 85.778 147.441 82.983 C 146.164 80.188 145.274 77.745 145.465 77.555 C 145.655 77.364 150.999 77.441 157.341 77.726 C 164.947 78.067 168.872 78.027 168.876 77.606 C 168.879 77.256 167.862 74.677 166.616 71.875 L 164.352 66.78 L 151.278 67.519 C 144.087 67.925 138.064 68.397 137.893 68.568 C 137.722 68.739 138.596 70.892 139.835 73.352 L 142.088 77.825 L 135.658 78.281 L 129.229 78.737 L 129.62 81.993 C 129.835 83.784 130.014 86.037 130.017 87 L 130.023 88.751 L 139.894 88.751 C 145.323 88.751 149.765 88.597 149.765 88.408 Z M 72.547 83.037 C 74.035 82.361 75.253 81.603 75.253 81.351 C 75.253 80.399 71.875 68.004 71.326 66.939 C 70.399 65.143 65.413 65.417 63.459 67.371 C 61.702 69.128 61.778 69.592 65.421 79.358 C 67.492 84.91 67.927 85.134 72.547 83.037 Z M 63.474 80.632 C 61.85 76.627 60.606 72.37 60.606 70.82 C 60.606 68.737 60.214 68.59 58.586 70.063 C 57.74 70.829 57.429 72.003 57.447 74.362 C 57.472 77.416 57.631 77.726 60.154 79.64 C 63.212 81.959 64.123 82.231 63.474 80.632 Z M 84.53 81.074 C 91.313 79.867 90.742 80.784 90.404 71.647 C 90.083 62.957 89.2 60.109 85.863 56.995 C 84.332 55.565 84.083 55.529 80.976 56.274 C 79.176 56.706 77.565 57.42 77.395 57.861 C 77.226 58.301 77.518 60.345 78.043 62.402 C 78.776 65.272 80.331 78.013 80.346 81.268 C 80.348 81.86 80.029 81.874 84.53 81.074 Z M 104.306 79.108 L 106.929 78.443 L 106.657 72.611 C 106.205 62.93 105.317 58.147 103.389 54.998 L 101.634 52.133 L 97.268 51.942 L 92.902 51.752 L 93.296 55.763 C 93.513 57.97 94.01 64.073 94.4 69.327 C 94.791 74.581 95.226 79.256 95.367 79.716 C 95.644 80.62 99.338 80.369 104.306 79.108 Z M 76.84 65.957 C 76.552 63.209 75.986 61.448 75.04 60.351 L 73.661 58.751 L 71.222 61.252 L 68.783 63.753 L 70.992 64.168 C 73.481 64.635 73.894 65.365 75.712 72.512 L 76.845 76.97 L 77.052 73.467 C 77.166 71.541 77.071 68.161 76.84 65.957 Z M 117.922 74.236 L 121.425 72.512 L 121.604 65.095 L 121.782 57.679 L 118.784 56.657 C 115.569 55.562 110.496 55.316 109.12 56.188 C 108.427 56.628 108.447 57.548 109.237 61.432 C 109.763 64.023 110.396 68.529 110.642 71.445 L 111.089 76.746 L 112.754 76.353 C 113.67 76.137 115.996 75.184 117.922 74.236 Z M 90.916 53.97 C 90.531 52.965 89.362 52.844 88.053 53.673 C 87.322 54.135 87.495 54.798 89.008 57.325 L 90.856 60.412 L 91.055 57.632 C 91.165 56.103 91.102 54.456 90.916 53.97 Z M 25.996 70.124 C 25.245 63.805 24.209 44.487 24.416 40.672 L 24.624 36.854 L 29.4 36.141 C 43.093 34.096 44.959 33.754 52.008 31.999 C 62.45 29.4 73.004 25.434 84.351 19.847 C 88.479 17.814 92.1 16.151 92.399 16.151 C 92.697 16.151 96.484 17.839 100.815 19.904 C 120.849 29.453 130.909 32.439 155.496 36.131 C 161.225 36.991 160.929 36.109 160.269 50.381 L 159.82 60.093 L 158.136 60.094 L 156.451 60.095 L 156.658 50.461 C 156.771 45.162 156.616 40.579 156.312 40.275 C 156.008 39.971 152.906 39.266 149.418 38.709 C 133.933 36.233 129.061 35.145 119.833 32.103 C 115.251 30.593 106.805 27.066 99.186 23.482 C 95.826 21.902 92.794 20.608 92.448 20.608 C 92.102 20.608 89.023 21.921 85.606 23.526 C 76.638 27.736 75.936 28.049 72.069 29.57 C 60.713 34.035 51.572 36.339 35.536 38.775 C 32.08 39.3 28.957 39.913 28.595 40.136 C 28.152 40.41 28.084 45.899 28.387 57.005 C 28.822 72.964 28.799 73.467 27.615 73.467 C 26.616 73.467 26.321 72.857 25.996 70.124 Z"
        fill="#000000"
        stroke-width="12"/>
</svg>
