<svg
    xmlns="http://www.w3.org/2000/svg"
    viewBox="0 0 192 192"
    id="vector">
    <path
        id="path"
        d="M 87.884 173.259 C 83.474 170.889 79.389 168.119 73.821 163.723 C 67.413 158.665 56.116 147.663 53.73 144.158 C 44.119 130.037 40.301 123.407 36.339 113.954 C 34.921 110.573 31.477 99.477 30.315 94.548 L 29.177 89.718 L 22.593 90.069 C 15.189 90.463 15.049 90.753 24.262 86.596 L 28.103 84.863 L 27.804 81.284 C 27.64 79.315 27.248 74.892 26.932 71.454 C 26.617 68.017 26.169 59.103 25.937 51.645 L 25.514 38.086 L 27.011 37.755 C 27.835 37.573 32.868 36.703 38.196 35.822 C 55.738 32.921 65.622 29.796 81.857 22.017 C 86.449 19.817 90.604 18.017 91.09 18.017 C 91.576 18.017 94.147 19.108 96.804 20.441 C 113.272 28.706 125.981 32.819 144.446 35.859 C 149.774 36.736 154.657 37.609 155.298 37.8 C 156.405 38.129 156.44 38.792 156.004 51.274 L 155.546 64.402 L 157.965 64.039 C 159.295 63.839 161.685 63.5 163.275 63.287 L 166.167 62.898 L 170.587 74.031 C 173.018 80.154 174.919 85.252 174.813 85.358 C 174.706 85.465 170.041 85.114 164.446 84.579 C 158.851 84.044 154.214 83.684 154.141 83.78 C 154.068 83.876 153.705 85.187 153.335 86.694 C 152.729 89.16 152.812 89.673 154.162 91.812 L 155.663 94.19 L 153.685 94.385 C 151.813 94.569 151.649 94.8 150.653 98.642 C 144 124.318 129.29 146.848 108.105 163.814 C 104.789 166.469 101.935 168.642 101.762 168.642 C 101.59 168.642 99.582 169.776 97.301 171.162 C 92.354 174.167 90.387 174.605 87.884 173.259 Z M 101.321 163.259 C 102.524 162.462 104.301 161.142 105.27 160.324 L 107.032 158.839 L 106.365 141.137 C 105.998 131.401 105.627 123.38 105.541 123.312 C 105.454 123.244 103.696 122.609 101.634 121.902 L 97.884 120.615 L 101.009 120.539 C 104.816 120.445 108.052 119.345 111.457 116.985 C 115.804 113.974 123.339 106.577 124.228 104.449 C 124.729 103.251 125.059 100.203 125.041 96.943 C 125.006 90.665 124.179 79.416 123.718 78.955 C 123.548 78.785 120.337 79.806 116.584 81.223 C 112.83 82.641 107.448 84.271 104.624 84.846 C 101.8 85.42 99.335 86.044 99.147 86.232 C 98.562 86.818 100.636 96.341 101.469 96.894 C 102.577 97.63 105.877 96.953 111.165 94.905 C 113.657 93.94 115.696 93.406 115.696 93.718 C 115.696 94.577 111.898 96.713 109.595 97.148 C 106.976 97.643 106.459 98.496 108.472 99.001 C 109.892 99.357 111.202 99.079 114.602 97.701 C 116.266 97.027 115.99 99.046 114.264 100.176 C 113.072 100.957 111.923 101.012 107.434 100.502 C 98.871 99.529 96.575 101.208 97.072 108.081 L 97.347 111.886 L 96.134 109.521 C 95.208 107.717 95 106.384 95.257 103.9 L 95.593 100.643 L 92.828 100.228 C 90.659 99.903 89.871 99.442 89.17 98.088 C 88.279 96.365 88.267 96.362 82.768 96.639 C 79.738 96.792 77.157 97.008 77.032 97.12 C 76.488 97.609 78.384 105.936 79.571 108.265 C 80.289 109.675 82.79 112.804 85.129 115.219 L 89.382 119.608 L 90.798 144.109 L 92.215 168.609 L 95.674 166.658 C 97.577 165.585 100.118 164.055 101.321 163.259 Z M 89.441 166.61 C 89.437 165.837 88.877 156.626 88.196 146.142 C 87.515 135.657 86.955 126.034 86.952 124.755 C 86.947 122.866 86.625 122.257 85.227 121.499 C 83.607 120.62 83.589 120.565 84.915 120.542 C 85.688 120.528 86.321 120.366 86.321 120.183 C 86.321 119.999 84.465 117.678 82.196 115.026 C 79.927 112.374 77.466 109.152 76.727 107.865 C 75.988 106.579 74.998 105.524 74.526 105.522 C 73.921 105.519 73.853 105.287 74.298 104.735 C 75.183 103.637 74.114 101.146 72.747 101.123 C 71.692 101.105 71.691 101.07 72.727 100.467 C 73.329 100.116 73.821 99.14 73.821 98.298 C 73.821 96.83 73.653 96.767 69.759 96.767 C 67.524 96.767 65.696 97.039 65.696 97.373 C 65.696 97.706 67.728 103.081 70.211 109.316 C 73.915 118.619 74.998 120.757 76.241 121.23 C 77.683 121.778 77.7 121.847 76.602 122.65 C 75.495 123.46 75.479 124.241 76.205 141.809 C 76.86 157.635 77.111 160.288 78.048 161.326 C 79.121 162.514 88.071 167.984 88.977 168.005 C 89.235 168.011 89.444 167.384 89.441 166.61 Z M 73.168 140.128 L 72.123 121.927 L 66.187 109.19 L 60.252 96.454 L 47.661 96.285 C 40.737 96.192 35.071 96.016 35.071 95.895 C 35.071 95.773 35.493 94.478 36.009 93.017 C 37.253 89.49 37.238 89.44 35.071 89.758 C 33.928 89.926 33.196 90.406 33.196 90.987 C 33.196 92.348 36.701 104.408 38.6 109.579 C 44.343 125.22 53.772 139.374 66.478 151.425 C 70.646 155.379 74.092 158.55 74.135 158.472 C 74.178 158.393 73.743 150.139 73.168 140.128 Z M 119.823 147.282 C 124.291 142.675 133.821 130.185 133.821 128.936 C 133.821 128.726 134.616 127.379 135.587 125.942 C 139.25 120.524 144.012 109.17 146.662 99.537 L 148.113 94.267 L 129.446 94.267 L 129.446 104.921 L 119.446 115.128 L 109.446 125.334 L 109.446 156.883 L 112.415 154.371 C 114.048 152.99 117.381 149.8 119.823 147.282 Z M 97.762 95.36 C 97.541 94.243 97.051 91.933 96.674 90.226 L 95.989 87.122 L 92.874 87.312 C 91.16 87.417 89.673 87.587 89.567 87.69 C 89.396 87.859 90.978 94.667 91.64 96.61 C 91.806 97.096 93.091 97.392 95.036 97.392 L 98.165 97.392 Z M 74.683 92.548 C 74.86 91.946 75.199 90.359 75.437 89.02 C 75.79 87.031 75.71 86.685 75.001 87.129 C 74.524 87.427 72.868 87.82 71.321 88 C 68.791 88.296 68.488 88.507 68.306 90.101 C 67.969 93.039 68.525 93.642 71.572 93.642 C 73.69 93.642 74.439 93.378 74.683 92.548 Z M 83.418 93.245 L 86.314 92.848 L 86.161 89.187 C 86.077 87.174 85.727 85.528 85.384 85.529 C 85.04 85.529 83.729 85.701 82.471 85.909 C 80.432 86.246 80.138 86.534 79.772 88.558 C 79.546 89.807 79.209 91.462 79.023 92.235 C 78.645 93.809 78.891 93.865 83.418 93.245 Z M 63.84 90.772 C 64.248 89.537 64.34 88.321 64.045 88.07 C 63.75 87.819 62.302 86.688 60.827 85.556 L 58.146 83.497 L 53.451 85.164 C 50.869 86.081 48.349 86.987 47.851 87.178 C 47.127 87.456 46.946 86.823 46.946 84.021 C 46.946 82.094 46.723 80.517 46.45 80.517 C 46.177 80.517 42.872 81.77 39.106 83.302 L 32.259 86.087 L 37.018 86.114 L 41.778 86.142 L 41.264 88.798 C 40.982 90.259 40.738 91.806 40.723 92.235 C 40.703 92.832 43.339 93.017 51.898 93.017 L 63.099 93.017 L 63.84 90.772 Z M 148.821 90.239 C 148.821 90.086 147.837 87.801 146.634 85.161 C 145.43 82.521 144.446 80.115 144.446 79.814 C 144.446 79.513 145.82 79.267 147.498 79.267 C 151.012 79.267 151.298 78.803 151.313 73.079 L 151.322 69.704 L 144.382 70.071 C 140.566 70.272 137.314 70.566 137.155 70.725 C 136.996 70.884 137.855 72.977 139.063 75.376 L 141.26 79.738 L 138.947 80.121 C 137.675 80.331 134.838 80.506 132.643 80.51 L 128.652 80.517 L 129.049 83.416 C 129.268 85.011 129.447 87.261 129.447 88.416 L 129.447 90.517 L 139.134 90.517 C 144.462 90.517 148.822 90.392 148.822 90.239 Z M 73.977 84.488 C 74.923 84.005 75.696 83.514 75.696 83.397 C 75.696 82.714 71.992 69.222 71.655 68.676 C 71.431 68.314 69.986 68.017 68.443 68.017 C 66.304 68.017 65.278 68.378 64.113 69.543 L 62.588 71.068 L 64.829 77.511 C 67.904 86.347 67.879 86.309 70.271 85.794 C 71.364 85.559 73.032 84.971 73.977 84.488 Z M 62.878 79.505 C 62.022 77.229 61.321 74.604 61.321 73.671 C 61.321 71.388 60.715 70.931 59.341 72.175 C 58.508 72.928 58.203 74.079 58.222 76.395 C 58.246 79.392 58.402 79.696 60.878 81.575 C 62.325 82.672 63.717 83.586 63.972 83.606 C 64.227 83.626 63.735 81.78 62.878 79.505 Z M 85.696 82.704 C 91.294 81.9 90.91 82.613 90.549 73.7 C 90.201 65.142 89.34 62.367 86.092 59.335 C 84.57 57.915 84.345 57.881 81.5 58.646 C 79.855 59.089 78.29 59.642 78.024 59.875 C 77.757 60.108 77.949 62.106 78.45 64.314 C 79.215 67.687 80.696 79.912 80.696 82.855 C 80.696 83.385 81.124 83.605 81.79 83.417 C 82.391 83.247 84.149 82.926 85.696 82.704 Z M 42.28 78.632 C 47.7 76.22 52.243 74.355 52.375 74.487 C 52.506 74.619 52.352 76.381 52.032 78.403 C 51.711 80.425 51.541 82.177 51.654 82.296 C 51.767 82.416 52.744 81.994 53.824 81.359 C 55.773 80.213 55.787 80.169 55.602 75.676 L 55.415 71.148 L 60.186 67.707 C 62.975 65.696 65.615 64.267 66.541 64.267 C 67.412 64.267 68.493 63.747 68.942 63.112 C 72.295 58.372 73.726 57.383 78.656 56.397 C 81.325 55.863 85.337 54.527 87.571 53.429 C 91.497 51.498 91.86 51.438 98.352 51.639 C 102.989 51.783 105.075 52.077 105.085 52.588 C 105.093 52.996 105.609 53.993 106.233 54.804 C 107.328 56.227 107.436 56.244 109.313 55.273 C 112.581 53.583 116.136 54.043 120.384 56.705 L 124.134 59.055 L 124.31 66.372 C 124.479 73.384 124.547 73.711 125.943 74.242 C 126.745 74.547 127.553 75.38 127.74 76.094 C 128.032 77.213 128.562 77.392 131.575 77.392 C 133.498 77.392 135.061 77.181 135.049 76.923 C 135.037 76.665 133.922 74.639 132.571 72.421 C 131.221 70.203 130.237 68.267 130.386 68.118 C 130.535 67.97 135.348 67.187 141.083 66.38 C 146.818 65.572 151.636 64.785 151.79 64.631 C 151.945 64.476 152.225 59.16 152.412 52.817 C 152.735 41.879 152.692 41.265 151.568 40.926 C 150.917 40.73 146.727 39.991 142.259 39.285 C 125.75 36.674 114.437 33.125 98.497 25.557 L 90.985 21.991 L 88.497 23.291 C 87.128 24.007 84.04 25.478 81.634 26.562 C 64.932 34.082 56.472 36.683 40.384 39.241 C 35.915 39.952 31.626 40.675 30.852 40.849 C 29.491 41.155 29.446 41.401 29.455 48.497 C 29.46 52.53 29.879 61.454 30.387 68.329 C 30.896 75.204 31.313 81.321 31.316 81.923 C 31.319 82.525 31.57 83.017 31.873 83.017 C 32.177 83.017 36.86 81.044 42.28 78.632 Z M 104.384 80.898 L 106.51 80.204 L 106.38 74.505 C 106.153 64.602 105.134 59.741 102.513 56.06 C 101.329 54.398 100.937 54.267 97.137 54.267 L 93.037 54.267 L 93.39 57.548 C 93.584 59.353 94.069 65.329 94.468 70.829 C 94.867 76.329 95.293 81.169 95.415 81.585 C 95.669 82.448 100.853 82.051 104.384 80.898 Z M 167.22 78.52 C 166.981 77.766 165.989 75.375 165.016 73.208 L 163.248 69.267 L 155.249 69.267 L 154.848 73.108 C 154.073 80.519 153.499 79.892 161.051 79.892 C 167.566 79.892 167.649 79.873 167.22 78.52 Z M 117.571 76.26 L 121.009 74.541 L 121.184 67.273 L 121.36 60.005 L 118.147 58.938 C 115.254 57.977 109.391 57.863 108.503 58.751 C 108.344 58.911 108.623 61.184 109.124 63.803 C 109.625 66.423 110.226 70.853 110.459 73.648 C 110.883 78.725 110.885 78.73 112.508 78.354 C 113.402 78.148 115.68 77.205 117.571 76.26 Z M 77.283 70.936 C 76.97 66.769 76.479 64.454 75.601 63.011 L 74.361 60.971 L 71.871 63.4 L 69.381 65.829 L 71.553 66.349 C 73.9 66.91 75.143 69.029 76.042 74.001 C 77.109 79.905 77.823 78.142 77.283 70.936 Z M 91.031 58.262 C 90.653 55.743 90.473 55.502 89.247 55.878 C 87.261 56.488 87.261 56.458 89.214 59.547 C 91.215 62.711 91.652 62.402 91.031 58.262 Z"
        fill="#000000"
        stroke-width="12"/>
    <path
        id="path_1"
        d="M 87.884 173.259 C 83.474 170.889 79.389 168.119 73.821 163.723 C 67.413 158.665 56.116 147.663 53.73 144.158 C 44.119 130.037 40.301 123.407 36.339 113.954 C 34.921 110.573 31.477 99.477 30.315 94.548 L 29.177 89.718 L 22.593 90.069 C 15.189 90.463 15.049 90.753 24.262 86.596 L 28.103 84.863 L 27.804 81.284 C 27.64 79.315 27.248 74.892 26.932 71.454 C 26.617 68.017 26.169 59.103 25.937 51.645 L 25.514 38.086 L 27.011 37.755 C 27.835 37.573 32.868 36.703 38.196 35.822 C 55.738 32.921 65.622 29.796 81.857 22.017 C 86.449 19.817 90.604 18.017 91.09 18.017 C 91.576 18.017 94.147 19.108 96.804 20.441 C 113.272 28.706 125.981 32.819 144.446 35.859 C 149.774 36.736 154.657 37.609 155.298 37.8 C 156.405 38.129 156.44 38.792 156.004 51.274 L 155.546 64.402 L 157.965 64.039 C 159.295 63.839 161.685 63.5 163.275 63.287 L 166.167 62.898 L 170.587 74.031 C 173.018 80.154 174.919 85.252 174.813 85.358 C 174.706 85.465 170.041 85.114 164.446 84.579 C 158.851 84.044 154.214 83.684 154.141 83.78 C 154.068 83.876 153.705 85.187 153.335 86.694 C 152.729 89.16 152.812 89.673 154.162 91.812 L 155.663 94.19 L 153.685 94.385 C 151.813 94.569 151.649 94.8 150.653 98.642 C 144 124.318 129.29 146.848 108.105 163.814 C 104.789 166.469 101.935 168.642 101.762 168.642 C 101.59 168.642 99.582 169.776 97.301 171.162 C 92.354 174.167 90.387 174.605 87.884 173.259 Z M 101.321 163.259 C 102.524 162.462 104.301 161.142 105.27 160.324 L 107.032 158.839 L 106.365 141.137 C 105.998 131.401 105.627 123.38 105.541 123.312 C 105.454 123.244 103.696 122.609 101.634 121.902 L 97.884 120.615 L 101.009 120.539 C 104.816 120.445 108.052 119.345 111.457 116.985 C 115.804 113.974 123.339 106.577 124.228 104.449 C 124.729 103.251 125.059 100.203 125.041 96.943 C 125.006 90.665 124.179 79.416 123.718 78.955 C 123.548 78.785 120.337 79.806 116.584 81.223 C 112.83 82.641 107.448 84.271 104.624 84.846 C 101.8 85.42 99.335 86.044 99.147 86.232 C 98.562 86.818 100.636 96.341 101.469 96.894 C 102.577 97.63 105.877 96.953 111.165 94.905 C 113.657 93.94 115.696 93.406 115.696 93.718 C 115.696 94.577 111.898 96.713 109.595 97.148 C 106.976 97.643 106.459 98.496 108.472 99.001 C 109.892 99.357 111.202 99.079 114.602 97.701 C 116.266 97.027 115.99 99.046 114.264 100.176 C 113.072 100.957 111.923 101.012 107.434 100.502 C 98.871 99.529 96.575 101.208 97.072 108.081 L 97.347 111.886 L 96.134 109.521 C 95.208 107.717 95 106.384 95.257 103.9 L 95.593 100.643 L 92.828 100.228 C 90.659 99.903 89.871 99.442 89.17 98.088 C 88.279 96.365 88.267 96.362 82.768 96.639 C 79.738 96.792 77.157 97.008 77.032 97.12 C 76.488 97.609 78.384 105.936 79.571 108.265 C 80.289 109.675 82.79 112.804 85.129 115.219 L 89.382 119.608 L 90.798 144.109 L 92.215 168.609 L 95.674 166.658 C 97.577 165.585 100.118 164.055 101.321 163.259 Z M 89.441 166.61 C 89.437 165.837 88.877 156.626 88.196 146.142 C 87.515 135.657 86.955 126.034 86.952 124.755 C 86.947 122.866 86.625 122.257 85.227 121.499 C 83.607 120.62 83.589 120.565 84.915 120.542 C 85.688 120.528 86.321 120.366 86.321 120.183 C 86.321 119.999 84.465 117.678 82.196 115.026 C 79.927 112.374 77.466 109.152 76.727 107.865 C 75.988 106.579 74.998 105.524 74.526 105.522 C 73.921 105.519 73.853 105.287 74.298 104.735 C 75.183 103.637 74.114 101.146 72.747 101.123 C 71.692 101.105 71.691 101.07 72.727 100.467 C 73.329 100.116 73.821 99.14 73.821 98.298 C 73.821 96.83 73.653 96.767 69.759 96.767 C 67.524 96.767 65.696 97.039 65.696 97.373 C 65.696 97.706 67.728 103.081 70.211 109.316 C 73.915 118.619 74.998 120.757 76.241 121.23 C 77.683 121.778 77.7 121.847 76.602 122.65 C 75.495 123.46 75.479 124.241 76.205 141.809 C 76.86 157.635 77.111 160.288 78.048 161.326 C 79.121 162.514 88.071 167.984 88.977 168.005 C 89.235 168.011 89.444 167.384 89.441 166.61 Z M 73.168 140.128 L 72.123 121.927 L 66.187 109.19 L 60.252 96.454 L 47.661 96.285 C 40.737 96.192 35.071 96.016 35.071 95.895 C 35.071 95.773 35.493 94.478 36.009 93.017 C 37.253 89.49 37.238 89.44 35.071 89.758 C 33.928 89.926 33.196 90.406 33.196 90.987 C 33.196 92.348 36.701 104.408 38.6 109.579 C 44.343 125.22 53.772 139.374 66.478 151.425 C 70.646 155.379 74.092 158.55 74.135 158.472 C 74.178 158.393 73.743 150.139 73.168 140.128 Z M 119.823 147.282 C 124.291 142.675 133.821 130.185 133.821 128.936 C 133.821 128.726 134.616 127.379 135.587 125.942 C 139.25 120.524 144.012 109.17 146.662 99.537 L 148.113 94.267 L 129.446 94.267 L 129.446 104.921 L 119.446 115.128 L 109.446 125.334 L 109.446 156.883 L 112.415 154.371 C 114.048 152.99 117.381 149.8 119.823 147.282 Z M 97.762 95.36 C 97.541 94.243 97.051 91.933 96.674 90.226 L 95.989 87.122 L 92.874 87.312 C 91.16 87.417 89.673 87.587 89.567 87.69 C 89.396 87.859 90.978 94.667 91.64 96.61 C 91.806 97.096 93.091 97.392 95.036 97.392 L 98.165 97.392 Z M 74.683 92.548 C 74.86 91.946 75.199 90.359 75.437 89.02 C 75.79 87.031 75.71 86.685 75.001 87.129 C 74.524 87.427 72.868 87.82 71.321 88 C 68.791 88.296 68.488 88.507 68.306 90.101 C 67.969 93.039 68.525 93.642 71.572 93.642 C 73.69 93.642 74.439 93.378 74.683 92.548 Z M 83.418 93.245 L 86.314 92.848 L 86.161 89.187 C 86.077 87.174 85.727 85.528 85.384 85.529 C 85.04 85.529 83.729 85.701 82.471 85.909 C 80.432 86.246 80.138 86.534 79.772 88.558 C 79.546 89.807 79.209 91.462 79.023 92.235 C 78.645 93.809 78.891 93.865 83.418 93.245 Z M 63.84 90.772 C 64.248 89.537 64.34 88.321 64.045 88.07 C 63.75 87.819 62.302 86.688 60.827 85.556 L 58.146 83.497 L 53.451 85.164 C 50.869 86.081 48.349 86.987 47.851 87.178 C 47.127 87.456 46.946 86.823 46.946 84.021 C 46.946 82.094 46.723 80.517 46.45 80.517 C 46.177 80.517 42.872 81.77 39.106 83.302 L 32.259 86.087 L 37.018 86.114 L 41.778 86.142 L 41.264 88.798 C 40.982 90.259 40.738 91.806 40.723 92.235 C 40.703 92.832 43.339 93.017 51.898 93.017 L 63.099 93.017 L 63.84 90.772 Z M 148.821 90.239 C 148.821 90.086 147.837 87.801 146.634 85.161 C 145.43 82.521 144.446 80.115 144.446 79.814 C 144.446 79.513 145.82 79.267 147.498 79.267 C 151.012 79.267 151.298 78.803 151.313 73.079 L 151.322 69.704 L 144.382 70.071 C 140.566 70.272 137.314 70.566 137.155 70.725 C 136.996 70.884 137.855 72.977 139.063 75.376 L 141.26 79.738 L 138.947 80.121 C 137.675 80.331 134.838 80.506 132.643 80.51 L 128.652 80.517 L 129.049 83.416 C 129.268 85.011 129.447 87.261 129.447 88.416 L 129.447 90.517 L 139.134 90.517 C 144.462 90.517 148.822 90.392 148.822 90.239 Z M 73.977 84.488 C 74.923 84.005 75.696 83.514 75.696 83.397 C 75.696 82.714 71.992 69.222 71.655 68.676 C 71.431 68.314 69.986 68.017 68.443 68.017 C 66.304 68.017 65.278 68.378 64.113 69.543 L 62.588 71.068 L 64.829 77.511 C 67.904 86.347 67.879 86.309 70.271 85.794 C 71.364 85.559 73.032 84.971 73.977 84.488 Z M 62.878 79.505 C 62.022 77.229 61.321 74.604 61.321 73.671 C 61.321 71.388 60.715 70.931 59.341 72.175 C 58.508 72.928 58.203 74.079 58.222 76.395 C 58.246 79.392 58.402 79.696 60.878 81.575 C 62.325 82.672 63.717 83.586 63.972 83.606 C 64.227 83.626 63.735 81.78 62.878 79.505 Z M 85.696 82.704 C 91.294 81.9 90.91 82.613 90.549 73.7 C 90.201 65.142 89.34 62.367 86.092 59.335 C 84.57 57.915 84.345 57.881 81.5 58.646 C 79.855 59.089 78.29 59.642 78.024 59.875 C 77.757 60.108 77.949 62.106 78.45 64.314 C 79.215 67.687 80.696 79.912 80.696 82.855 C 80.696 83.385 81.124 83.605 81.79 83.417 C 82.391 83.247 84.149 82.926 85.696 82.704 Z M 42.28 78.632 C 47.7 76.22 52.243 74.355 52.375 74.487 C 52.506 74.619 52.352 76.381 52.032 78.403 C 51.711 80.425 51.541 82.177 51.654 82.296 C 51.767 82.416 52.744 81.994 53.824 81.359 C 55.773 80.213 55.787 80.169 55.602 75.676 L 55.415 71.148 L 60.186 67.707 C 62.975 65.696 65.615 64.267 66.541 64.267 C 67.412 64.267 68.493 63.747 68.942 63.112 C 72.295 58.372 73.726 57.383 78.656 56.397 C 81.325 55.863 85.337 54.527 87.571 53.429 C 91.497 51.498 91.86 51.438 98.352 51.639 C 102.989 51.783 105.075 52.077 105.085 52.588 C 105.093 52.996 105.609 53.993 106.233 54.804 C 107.328 56.227 107.436 56.244 109.313 55.273 C 112.581 53.583 116.136 54.043 120.384 56.705 L 124.134 59.055 L 124.31 66.372 C 124.479 73.384 124.547 73.711 125.943 74.242 C 126.745 74.547 127.553 75.38 127.74 76.094 C 128.032 77.213 128.562 77.392 131.575 77.392 C 133.498 77.392 135.061 77.181 135.049 76.923 C 135.037 76.665 133.922 74.639 132.571 72.421 C 131.221 70.203 130.237 68.267 130.386 68.118 C 130.535 67.97 135.348 67.187 141.083 66.38 C 146.818 65.572 151.636 64.785 151.79 64.631 C 151.945 64.476 152.225 59.16 152.412 52.817 C 152.735 41.879 152.692 41.265 151.568 40.926 C 150.917 40.73 146.727 39.991 142.259 39.285 C 125.75 36.674 114.437 33.125 98.497 25.557 L 90.985 21.991 L 88.497 23.291 C 87.128 24.007 84.04 25.478 81.634 26.562 C 64.932 34.082 56.472 36.683 40.384 39.241 C 35.915 39.952 31.626 40.675 30.852 40.849 C 29.491 41.155 29.446 41.401 29.455 48.497 C 29.46 52.53 29.879 61.454 30.387 68.329 C 30.896 75.204 31.313 81.321 31.316 81.923 C 31.319 82.525 31.57 83.017 31.873 83.017 C 32.177 83.017 36.86 81.044 42.28 78.632 Z M 104.384 80.898 L 106.51 80.204 L 106.38 74.505 C 106.153 64.602 105.134 59.741 102.513 56.06 C 101.329 54.398 100.937 54.267 97.137 54.267 L 93.037 54.267 L 93.39 57.548 C 93.584 59.353 94.069 65.329 94.468 70.829 C 94.867 76.329 95.293 81.169 95.415 81.585 C 95.669 82.448 100.853 82.051 104.384 80.898 Z M 167.22 78.52 C 166.981 77.766 165.989 75.375 165.016 73.208 L 163.248 69.267 L 155.249 69.267 L 154.848 73.108 C 154.073 80.519 153.499 79.892 161.051 79.892 C 167.566 79.892 167.649 79.873 167.22 78.52 Z M 117.571 76.26 L 121.009 74.541 L 121.184 67.273 L 121.36 60.005 L 118.147 58.938 C 115.254 57.977 109.391 57.863 108.503 58.751 C 108.344 58.911 108.623 61.184 109.124 63.803 C 109.625 66.423 110.226 70.853 110.459 73.648 C 110.883 78.725 110.885 78.73 112.508 78.354 C 113.402 78.148 115.68 77.205 117.571 76.26 Z M 77.283 70.936 C 76.97 66.769 76.479 64.454 75.601 63.011 L 74.361 60.971 L 71.871 63.4 L 69.381 65.829 L 71.553 66.349 C 73.9 66.91 75.143 69.029 76.042 74.001 C 77.109 79.905 77.823 78.142 77.283 70.936 Z M 91.031 58.262 C 90.653 55.743 90.473 55.502 89.247 55.878 C 87.261 56.488 87.261 56.458 89.214 59.547 C 91.215 62.711 91.652 62.402 91.031 58.262 Z"
        fill="#000000"
        stroke-width="12"/>
    <path
        id="path_2"
        d="M 87.884 173.259 C 83.474 170.889 79.389 168.119 73.821 163.723 C 67.413 158.665 56.116 147.663 53.73 144.158 C 44.119 130.037 40.301 123.407 36.339 113.954 C 34.921 110.573 31.477 99.477 30.315 94.548 L 29.177 89.718 L 22.593 90.069 C 15.189 90.463 15.049 90.753 24.262 86.596 L 28.103 84.863 L 27.804 81.284 C 27.64 79.315 27.248 74.892 26.932 71.454 C 26.617 68.017 26.169 59.103 25.937 51.645 L 25.514 38.086 L 27.011 37.755 C 27.835 37.573 32.868 36.703 38.196 35.822 C 55.738 32.921 65.622 29.796 81.857 22.017 C 86.449 19.817 90.604 18.017 91.09 18.017 C 91.576 18.017 94.147 19.108 96.804 20.441 C 113.272 28.706 125.981 32.819 144.446 35.859 C 149.774 36.736 154.657 37.609 155.298 37.8 C 156.405 38.129 156.44 38.792 156.004 51.274 L 155.546 64.402 L 157.965 64.039 C 159.295 63.839 161.685 63.5 163.275 63.287 L 166.167 62.898 L 170.587 74.031 C 173.018 80.154 174.919 85.252 174.813 85.358 C 174.706 85.465 170.041 85.114 164.446 84.579 C 158.851 84.044 154.214 83.684 154.141 83.78 C 154.068 83.876 153.705 85.187 153.335 86.694 C 152.729 89.16 152.812 89.673 154.162 91.812 L 155.663 94.19 L 153.685 94.385 C 151.813 94.569 151.649 94.8 150.653 98.642 C 144 124.318 129.29 146.848 108.105 163.814 C 104.789 166.469 101.935 168.642 101.762 168.642 C 101.59 168.642 99.582 169.776 97.301 171.162 C 92.354 174.167 90.387 174.605 87.884 173.259 Z M 101.321 163.259 C 102.524 162.462 104.301 161.142 105.27 160.324 L 107.032 158.839 L 106.365 141.137 C 105.998 131.401 105.627 123.38 105.541 123.312 C 105.454 123.244 103.696 122.609 101.634 121.902 L 97.884 120.615 L 101.009 120.539 C 104.816 120.445 108.052 119.345 111.457 116.985 C 115.804 113.974 123.339 106.577 124.228 104.449 C 124.729 103.251 125.059 100.203 125.041 96.943 C 125.006 90.665 124.179 79.416 123.718 78.955 C 123.548 78.785 120.337 79.806 116.584 81.223 C 112.83 82.641 107.448 84.271 104.624 84.846 C 101.8 85.42 99.335 86.044 99.147 86.232 C 98.562 86.818 100.636 96.341 101.469 96.894 C 102.577 97.63 105.877 96.953 111.165 94.905 C 113.657 93.94 115.696 93.406 115.696 93.718 C 115.696 94.577 111.898 96.713 109.595 97.148 C 106.976 97.643 106.459 98.496 108.472 99.001 C 109.892 99.357 111.202 99.079 114.602 97.701 C 116.266 97.027 115.99 99.046 114.264 100.176 C 113.072 100.957 111.923 101.012 107.434 100.502 C 98.871 99.529 96.575 101.208 97.072 108.081 L 97.347 111.886 L 96.134 109.521 C 95.208 107.717 95 106.384 95.257 103.9 L 95.593 100.643 L 92.828 100.228 C 90.659 99.903 89.871 99.442 89.17 98.088 C 88.279 96.365 88.267 96.362 82.768 96.639 C 79.738 96.792 77.157 97.008 77.032 97.12 C 76.488 97.609 78.384 105.936 79.571 108.265 C 80.289 109.675 82.79 112.804 85.129 115.219 L 89.382 119.608 L 90.798 144.109 L 92.215 168.609 L 95.674 166.658 C 97.577 165.585 100.118 164.055 101.321 163.259 Z M 89.441 166.61 C 89.437 165.837 88.877 156.626 88.196 146.142 C 87.515 135.657 86.955 126.034 86.952 124.755 C 86.947 122.866 86.625 122.257 85.227 121.499 C 83.607 120.62 83.589 120.565 84.915 120.542 C 85.688 120.528 86.321 120.366 86.321 120.183 C 86.321 119.999 84.465 117.678 82.196 115.026 C 79.927 112.374 77.466 109.152 76.727 107.865 C 75.988 106.579 74.998 105.524 74.526 105.522 C 73.921 105.519 73.853 105.287 74.298 104.735 C 75.183 103.637 74.114 101.146 72.747 101.123 C 71.692 101.105 71.691 101.07 72.727 100.467 C 73.329 100.116 73.821 99.14 73.821 98.298 C 73.821 96.83 73.653 96.767 69.759 96.767 C 67.524 96.767 65.696 97.039 65.696 97.373 C 65.696 97.706 67.728 103.081 70.211 109.316 C 73.915 118.619 74.998 120.757 76.241 121.23 C 77.683 121.778 77.7 121.847 76.602 122.65 C 75.495 123.46 75.479 124.241 76.205 141.809 C 76.86 157.635 77.111 160.288 78.048 161.326 C 79.121 162.514 88.071 167.984 88.977 168.005 C 89.235 168.011 89.444 167.384 89.441 166.61 Z M 73.168 140.128 L 72.123 121.927 L 66.187 109.19 L 60.252 96.454 L 47.661 96.285 C 40.737 96.192 35.071 96.016 35.071 95.895 C 35.071 95.773 35.493 94.478 36.009 93.017 C 37.253 89.49 37.238 89.44 35.071 89.758 C 33.928 89.926 33.196 90.406 33.196 90.987 C 33.196 92.348 36.701 104.408 38.6 109.579 C 44.343 125.22 53.772 139.374 66.478 151.425 C 70.646 155.379 74.092 158.55 74.135 158.472 C 74.178 158.393 73.743 150.139 73.168 140.128 Z M 119.823 147.282 C 124.291 142.675 133.821 130.185 133.821 128.936 C 133.821 128.726 134.616 127.379 135.587 125.942 C 139.25 120.524 144.012 109.17 146.662 99.537 L 148.113 94.267 L 129.446 94.267 L 129.446 104.921 L 119.446 115.128 L 109.446 125.334 L 109.446 156.883 L 112.415 154.371 C 114.048 152.99 117.381 149.8 119.823 147.282 Z M 97.762 95.36 C 97.541 94.243 97.051 91.933 96.674 90.226 L 95.989 87.122 L 92.874 87.312 C 91.16 87.417 89.673 87.587 89.567 87.69 C 89.396 87.859 90.978 94.667 91.64 96.61 C 91.806 97.096 93.091 97.392 95.036 97.392 L 98.165 97.392 Z M 74.683 92.548 C 74.86 91.946 75.199 90.359 75.437 89.02 C 75.79 87.031 75.71 86.685 75.001 87.129 C 74.524 87.427 72.868 87.82 71.321 88 C 68.791 88.296 68.488 88.507 68.306 90.101 C 67.969 93.039 68.525 93.642 71.572 93.642 C 73.69 93.642 74.439 93.378 74.683 92.548 Z M 83.418 93.245 L 86.314 92.848 L 86.161 89.187 C 86.077 87.174 85.727 85.528 85.384 85.529 C 85.04 85.529 83.729 85.701 82.471 85.909 C 80.432 86.246 80.138 86.534 79.772 88.558 C 79.546 89.807 79.209 91.462 79.023 92.235 C 78.645 93.809 78.891 93.865 83.418 93.245 Z M 63.84 90.772 C 64.248 89.537 64.34 88.321 64.045 88.07 C 63.75 87.819 62.302 86.688 60.827 85.556 L 58.146 83.497 L 53.451 85.164 C 50.869 86.081 48.349 86.987 47.851 87.178 C 47.127 87.456 46.946 86.823 46.946 84.021 C 46.946 82.094 46.723 80.517 46.45 80.517 C 46.177 80.517 42.872 81.77 39.106 83.302 L 32.259 86.087 L 37.018 86.114 L 41.778 86.142 L 41.264 88.798 C 40.982 90.259 40.738 91.806 40.723 92.235 C 40.703 92.832 43.339 93.017 51.898 93.017 L 63.099 93.017 L 63.84 90.772 Z M 148.821 90.239 C 148.821 90.086 147.837 87.801 146.634 85.161 C 145.43 82.521 144.446 80.115 144.446 79.814 C 144.446 79.513 145.82 79.267 147.498 79.267 C 151.012 79.267 151.298 78.803 151.313 73.079 L 151.322 69.704 L 144.382 70.071 C 140.566 70.272 137.314 70.566 137.155 70.725 C 136.996 70.884 137.855 72.977 139.063 75.376 L 141.26 79.738 L 138.947 80.121 C 137.675 80.331 134.838 80.506 132.643 80.51 L 128.652 80.517 L 129.049 83.416 C 129.268 85.011 129.447 87.261 129.447 88.416 L 129.447 90.517 L 139.134 90.517 C 144.462 90.517 148.822 90.392 148.822 90.239 Z M 73.977 84.488 C 74.923 84.005 75.696 83.514 75.696 83.397 C 75.696 82.714 71.992 69.222 71.655 68.676 C 71.431 68.314 69.986 68.017 68.443 68.017 C 66.304 68.017 65.278 68.378 64.113 69.543 L 62.588 71.068 L 64.829 77.511 C 67.904 86.347 67.879 86.309 70.271 85.794 C 71.364 85.559 73.032 84.971 73.977 84.488 Z M 62.878 79.505 C 62.022 77.229 61.321 74.604 61.321 73.671 C 61.321 71.388 60.715 70.931 59.341 72.175 C 58.508 72.928 58.203 74.079 58.222 76.395 C 58.246 79.392 58.402 79.696 60.878 81.575 C 62.325 82.672 63.717 83.586 63.972 83.606 C 64.227 83.626 63.735 81.78 62.878 79.505 Z M 85.696 82.704 C 91.294 81.9 90.91 82.613 90.549 73.7 C 90.201 65.142 89.34 62.367 86.092 59.335 C 84.57 57.915 84.345 57.881 81.5 58.646 C 79.855 59.089 78.29 59.642 78.024 59.875 C 77.757 60.108 77.949 62.106 78.45 64.314 C 79.215 67.687 80.696 79.912 80.696 82.855 C 80.696 83.385 81.124 83.605 81.79 83.417 C 82.391 83.247 84.149 82.926 85.696 82.704 Z M 42.28 78.632 C 47.7 76.22 52.243 74.355 52.375 74.487 C 52.506 74.619 52.352 76.381 52.032 78.403 C 51.711 80.425 51.541 82.177 51.654 82.296 C 51.767 82.416 52.744 81.994 53.824 81.359 C 55.773 80.213 55.787 80.169 55.602 75.676 L 55.415 71.148 L 60.186 67.707 C 62.975 65.696 65.615 64.267 66.541 64.267 C 67.412 64.267 68.493 63.747 68.942 63.112 C 72.295 58.372 73.726 57.383 78.656 56.397 C 81.325 55.863 85.337 54.527 87.571 53.429 C 91.497 51.498 91.86 51.438 98.352 51.639 C 102.989 51.783 105.075 52.077 105.085 52.588 C 105.093 52.996 105.609 53.993 106.233 54.804 C 107.328 56.227 107.436 56.244 109.313 55.273 C 112.581 53.583 116.136 54.043 120.384 56.705 L 124.134 59.055 L 124.31 66.372 C 124.479 73.384 124.547 73.711 125.943 74.242 C 126.745 74.547 127.553 75.38 127.74 76.094 C 128.032 77.213 128.562 77.392 131.575 77.392 C 133.498 77.392 135.061 77.181 135.049 76.923 C 135.037 76.665 133.922 74.639 132.571 72.421 C 131.221 70.203 130.237 68.267 130.386 68.118 C 130.535 67.97 135.348 67.187 141.083 66.38 C 146.818 65.572 151.636 64.785 151.79 64.631 C 151.945 64.476 152.225 59.16 152.412 52.817 C 152.735 41.879 152.692 41.265 151.568 40.926 C 150.917 40.73 146.727 39.991 142.259 39.285 C 125.75 36.674 114.437 33.125 98.497 25.557 L 90.985 21.991 L 88.497 23.291 C 87.128 24.007 84.04 25.478 81.634 26.562 C 64.932 34.082 56.472 36.683 40.384 39.241 C 35.915 39.952 31.626 40.675 30.852 40.849 C 29.491 41.155 29.446 41.401 29.455 48.497 C 29.46 52.53 29.879 61.454 30.387 68.329 C 30.896 75.204 31.313 81.321 31.316 81.923 C 31.319 82.525 31.57 83.017 31.873 83.017 C 32.177 83.017 36.86 81.044 42.28 78.632 Z M 104.384 80.898 L 106.51 80.204 L 106.38 74.505 C 106.153 64.602 105.134 59.741 102.513 56.06 C 101.329 54.398 100.937 54.267 97.137 54.267 L 93.037 54.267 L 93.39 57.548 C 93.584 59.353 94.069 65.329 94.468 70.829 C 94.867 76.329 95.293 81.169 95.415 81.585 C 95.669 82.448 100.853 82.051 104.384 80.898 Z M 167.22 78.52 C 166.981 77.766 165.989 75.375 165.016 73.208 L 163.248 69.267 L 155.249 69.267 L 154.848 73.108 C 154.073 80.519 153.499 79.892 161.051 79.892 C 167.566 79.892 167.649 79.873 167.22 78.52 Z M 117.571 76.26 L 121.009 74.541 L 121.184 67.273 L 121.36 60.005 L 118.147 58.938 C 115.254 57.977 109.391 57.863 108.503 58.751 C 108.344 58.911 108.623 61.184 109.124 63.803 C 109.625 66.423 110.226 70.853 110.459 73.648 C 110.883 78.725 110.885 78.73 112.508 78.354 C 113.402 78.148 115.68 77.205 117.571 76.26 Z M 77.283 70.936 C 76.97 66.769 76.479 64.454 75.601 63.011 L 74.361 60.971 L 71.871 63.4 L 69.381 65.829 L 71.553 66.349 C 73.9 66.91 75.143 69.029 76.042 74.001 C 77.109 79.905 77.823 78.142 77.283 70.936 Z M 91.031 58.262 C 90.653 55.743 90.473 55.502 89.247 55.878 C 87.261 56.488 87.261 56.458 89.214 59.547 C 91.215 62.711 91.652 62.402 91.031 58.262 Z"
        fill="#000000"
        stroke-width="12"/>
    <path
        id="path_3"
        d="M 87.884 173.259 C 83.474 170.889 79.389 168.119 73.821 163.723 C 67.413 158.665 56.116 147.663 53.73 144.158 C 44.119 130.037 40.301 123.407 36.339 113.954 C 34.921 110.573 31.477 99.477 30.315 94.548 L 29.177 89.718 L 22.593 90.069 C 15.189 90.463 15.049 90.753 24.262 86.596 L 28.103 84.863 L 27.804 81.284 C 27.64 79.315 27.248 74.892 26.932 71.454 C 26.617 68.017 26.169 59.103 25.937 51.645 L 25.514 38.086 L 27.011 37.755 C 27.835 37.573 32.868 36.703 38.196 35.822 C 55.738 32.921 65.622 29.796 81.857 22.017 C 86.449 19.817 90.604 18.017 91.09 18.017 C 91.576 18.017 94.147 19.108 96.804 20.441 C 113.272 28.706 125.981 32.819 144.446 35.859 C 149.774 36.736 154.657 37.609 155.298 37.8 C 156.405 38.129 156.44 38.792 156.004 51.274 L 155.546 64.402 L 157.965 64.039 C 159.295 63.839 161.685 63.5 163.275 63.287 L 166.167 62.898 L 170.587 74.031 C 173.018 80.154 174.919 85.252 174.813 85.358 C 174.706 85.465 170.041 85.114 164.446 84.579 C 158.851 84.044 154.214 83.684 154.141 83.78 C 154.068 83.876 153.705 85.187 153.335 86.694 C 152.729 89.16 152.812 89.673 154.162 91.812 L 155.663 94.19 L 153.685 94.385 C 151.813 94.569 151.649 94.8 150.653 98.642 C 144 124.318 129.29 146.848 108.105 163.814 C 104.789 166.469 101.935 168.642 101.762 168.642 C 101.59 168.642 99.582 169.776 97.301 171.162 C 92.354 174.167 90.387 174.605 87.884 173.259 Z M 101.321 163.259 C 102.524 162.462 104.301 161.142 105.27 160.324 L 107.032 158.839 L 106.365 141.137 C 105.998 131.401 105.627 123.38 105.541 123.312 C 105.454 123.244 103.696 122.609 101.634 121.902 L 97.884 120.615 L 101.009 120.539 C 104.816 120.445 108.052 119.345 111.457 116.985 C 115.804 113.974 123.339 106.577 124.228 104.449 C 124.729 103.251 125.059 100.203 125.041 96.943 C 125.006 90.665 124.179 79.416 123.718 78.955 C 123.548 78.785 120.337 79.806 116.584 81.223 C 112.83 82.641 107.448 84.271 104.624 84.846 C 101.8 85.42 99.335 86.044 99.147 86.232 C 98.562 86.818 100.636 96.341 101.469 96.894 C 102.577 97.63 105.877 96.953 111.165 94.905 C 113.657 93.94 115.696 93.406 115.696 93.718 C 115.696 94.577 111.898 96.713 109.595 97.148 C 106.976 97.643 106.459 98.496 108.472 99.001 C 109.892 99.357 111.202 99.079 114.602 97.701 C 116.266 97.027 115.99 99.046 114.264 100.176 C 113.072 100.957 111.923 101.012 107.434 100.502 C 98.871 99.529 96.575 101.208 97.072 108.081 L 97.347 111.886 L 96.134 109.521 C 95.208 107.717 95 106.384 95.257 103.9 L 95.593 100.643 L 92.828 100.228 C 90.659 99.903 89.871 99.442 89.17 98.088 C 88.279 96.365 88.267 96.362 82.768 96.639 C 79.738 96.792 77.157 97.008 77.032 97.12 C 76.488 97.609 78.384 105.936 79.571 108.265 C 80.289 109.675 82.79 112.804 85.129 115.219 L 89.382 119.608 L 90.798 144.109 L 92.215 168.609 L 95.674 166.658 C 97.577 165.585 100.118 164.055 101.321 163.259 Z M 89.441 166.61 C 89.437 165.837 88.877 156.626 88.196 146.142 C 87.515 135.657 86.955 126.034 86.952 124.755 C 86.947 122.866 86.625 122.257 85.227 121.499 C 83.607 120.62 83.589 120.565 84.915 120.542 C 85.688 120.528 86.321 120.366 86.321 120.183 C 86.321 119.999 84.465 117.678 82.196 115.026 C 79.927 112.374 77.466 109.152 76.727 107.865 C 75.988 106.579 74.998 105.524 74.526 105.522 C 73.921 105.519 73.853 105.287 74.298 104.735 C 75.183 103.637 74.114 101.146 72.747 101.123 C 71.692 101.105 71.691 101.07 72.727 100.467 C 73.329 100.116 73.821 99.14 73.821 98.298 C 73.821 96.83 73.653 96.767 69.759 96.767 C 67.524 96.767 65.696 97.039 65.696 97.373 C 65.696 97.706 67.728 103.081 70.211 109.316 C 73.915 118.619 74.998 120.757 76.241 121.23 C 77.683 121.778 77.7 121.847 76.602 122.65 C 75.495 123.46 75.479 124.241 76.205 141.809 C 76.86 157.635 77.111 160.288 78.048 161.326 C 79.121 162.514 88.071 167.984 88.977 168.005 C 89.235 168.011 89.444 167.384 89.441 166.61 Z M 73.168 140.128 L 72.123 121.927 L 66.187 109.19 L 60.252 96.454 L 47.661 96.285 C 40.737 96.192 35.071 96.016 35.071 95.895 C 35.071 95.773 35.493 94.478 36.009 93.017 C 37.253 89.49 37.238 89.44 35.071 89.758 C 33.928 89.926 33.196 90.406 33.196 90.987 C 33.196 92.348 36.701 104.408 38.6 109.579 C 44.343 125.22 53.772 139.374 66.478 151.425 C 70.646 155.379 74.092 158.55 74.135 158.472 C 74.178 158.393 73.743 150.139 73.168 140.128 Z M 119.823 147.282 C 124.291 142.675 133.821 130.185 133.821 128.936 C 133.821 128.726 134.616 127.379 135.587 125.942 C 139.25 120.524 144.012 109.17 146.662 99.537 L 148.113 94.267 L 129.446 94.267 L 129.446 104.921 L 119.446 115.128 L 109.446 125.334 L 109.446 156.883 L 112.415 154.371 C 114.048 152.99 117.381 149.8 119.823 147.282 Z M 97.762 95.36 C 97.541 94.243 97.051 91.933 96.674 90.226 L 95.989 87.122 L 92.874 87.312 C 91.16 87.417 89.673 87.587 89.567 87.69 C 89.396 87.859 90.978 94.667 91.64 96.61 C 91.806 97.096 93.091 97.392 95.036 97.392 L 98.165 97.392 Z M 74.683 92.548 C 74.86 91.946 75.199 90.359 75.437 89.02 C 75.79 87.031 75.71 86.685 75.001 87.129 C 74.524 87.427 72.868 87.82 71.321 88 C 68.791 88.296 68.488 88.507 68.306 90.101 C 67.969 93.039 68.525 93.642 71.572 93.642 C 73.69 93.642 74.439 93.378 74.683 92.548 Z M 83.418 93.245 L 86.314 92.848 L 86.161 89.187 C 86.077 87.174 85.727 85.528 85.384 85.529 C 85.04 85.529 83.729 85.701 82.471 85.909 C 80.432 86.246 80.138 86.534 79.772 88.558 C 79.546 89.807 79.209 91.462 79.023 92.235 C 78.645 93.809 78.891 93.865 83.418 93.245 Z M 63.84 90.772 C 64.248 89.537 64.34 88.321 64.045 88.07 C 63.75 87.819 62.302 86.688 60.827 85.556 L 58.146 83.497 L 53.451 85.164 C 50.869 86.081 48.349 86.987 47.851 87.178 C 47.127 87.456 46.946 86.823 46.946 84.021 C 46.946 82.094 46.723 80.517 46.45 80.517 C 46.177 80.517 42.872 81.77 39.106 83.302 L 32.259 86.087 L 37.018 86.114 L 41.778 86.142 L 41.264 88.798 C 40.982 90.259 40.738 91.806 40.723 92.235 C 40.703 92.832 43.339 93.017 51.898 93.017 L 63.099 93.017 L 63.84 90.772 Z M 148.821 90.239 C 148.821 90.086 147.837 87.801 146.634 85.161 C 145.43 82.521 144.446 80.115 144.446 79.814 C 144.446 79.513 145.82 79.267 147.498 79.267 C 151.012 79.267 151.298 78.803 151.313 73.079 L 151.322 69.704 L 144.382 70.071 C 140.566 70.272 137.314 70.566 137.155 70.725 C 136.996 70.884 137.855 72.977 139.063 75.376 L 141.26 79.738 L 138.947 80.121 C 137.675 80.331 134.838 80.506 132.643 80.51 L 128.652 80.517 L 129.049 83.416 C 129.268 85.011 129.447 87.261 129.447 88.416 L 129.447 90.517 L 139.134 90.517 C 144.462 90.517 148.822 90.392 148.822 90.239 Z M 73.977 84.488 C 74.923 84.005 75.696 83.514 75.696 83.397 C 75.696 82.714 71.992 69.222 71.655 68.676 C 71.431 68.314 69.986 68.017 68.443 68.017 C 66.304 68.017 65.278 68.378 64.113 69.543 L 62.588 71.068 L 64.829 77.511 C 67.904 86.347 67.879 86.309 70.271 85.794 C 71.364 85.559 73.032 84.971 73.977 84.488 Z M 62.878 79.505 C 62.022 77.229 61.321 74.604 61.321 73.671 C 61.321 71.388 60.715 70.931 59.341 72.175 C 58.508 72.928 58.203 74.079 58.222 76.395 C 58.246 79.392 58.402 79.696 60.878 81.575 C 62.325 82.672 63.717 83.586 63.972 83.606 C 64.227 83.626 63.735 81.78 62.878 79.505 Z M 85.696 82.704 C 91.294 81.9 90.91 82.613 90.549 73.7 C 90.201 65.142 89.34 62.367 86.092 59.335 C 84.57 57.915 84.345 57.881 81.5 58.646 C 79.855 59.089 78.29 59.642 78.024 59.875 C 77.757 60.108 77.949 62.106 78.45 64.314 C 79.215 67.687 80.696 79.912 80.696 82.855 C 80.696 83.385 81.124 83.605 81.79 83.417 C 82.391 83.247 84.149 82.926 85.696 82.704 Z M 42.28 78.632 C 47.7 76.22 52.243 74.355 52.375 74.487 C 52.506 74.619 52.352 76.381 52.032 78.403 C 51.711 80.425 51.541 82.177 51.654 82.296 C 51.767 82.416 52.744 81.994 53.824 81.359 C 55.773 80.213 55.787 80.169 55.602 75.676 L 55.415 71.148 L 60.186 67.707 C 62.975 65.696 65.615 64.267 66.541 64.267 C 67.412 64.267 68.493 63.747 68.942 63.112 C 72.295 58.372 73.726 57.383 78.656 56.397 C 81.325 55.863 85.337 54.527 87.571 53.429 C 91.497 51.498 91.86 51.438 98.352 51.639 C 102.989 51.783 105.075 52.077 105.085 52.588 C 105.093 52.996 105.609 53.993 106.233 54.804 C 107.328 56.227 107.436 56.244 109.313 55.273 C 112.581 53.583 116.136 54.043 120.384 56.705 L 124.134 59.055 L 124.31 66.372 C 124.479 73.384 124.547 73.711 125.943 74.242 C 126.745 74.547 127.553 75.38 127.74 76.094 C 128.032 77.213 128.562 77.392 131.575 77.392 C 133.498 77.392 135.061 77.181 135.049 76.923 C 135.037 76.665 133.922 74.639 132.571 72.421 C 131.221 70.203 130.237 68.267 130.386 68.118 C 130.535 67.97 135.348 67.187 141.083 66.38 C 146.818 65.572 151.636 64.785 151.79 64.631 C 151.945 64.476 152.225 59.16 152.412 52.817 C 152.735 41.879 152.692 41.265 151.568 40.926 C 150.917 40.73 146.727 39.991 142.259 39.285 C 125.75 36.674 114.437 33.125 98.497 25.557 L 90.985 21.991 L 88.497 23.291 C 87.128 24.007 84.04 25.478 81.634 26.562 C 64.932 34.082 56.472 36.683 40.384 39.241 C 35.915 39.952 31.626 40.675 30.852 40.849 C 29.491 41.155 29.446 41.401 29.455 48.497 C 29.46 52.53 29.879 61.454 30.387 68.329 C 30.896 75.204 31.313 81.321 31.316 81.923 C 31.319 82.525 31.57 83.017 31.873 83.017 C 32.177 83.017 36.86 81.044 42.28 78.632 Z M 104.384 80.898 L 106.51 80.204 L 106.38 74.505 C 106.153 64.602 105.134 59.741 102.513 56.06 C 101.329 54.398 100.937 54.267 97.137 54.267 L 93.037 54.267 L 93.39 57.548 C 93.584 59.353 94.069 65.329 94.468 70.829 C 94.867 76.329 95.293 81.169 95.415 81.585 C 95.669 82.448 100.853 82.051 104.384 80.898 Z M 167.22 78.52 C 166.981 77.766 165.989 75.375 165.016 73.208 L 163.248 69.267 L 155.249 69.267 L 154.848 73.108 C 154.073 80.519 153.499 79.892 161.051 79.892 C 167.566 79.892 167.649 79.873 167.22 78.52 Z M 117.571 76.26 L 121.009 74.541 L 121.184 67.273 L 121.36 60.005 L 118.147 58.938 C 115.254 57.977 109.391 57.863 108.503 58.751 C 108.344 58.911 108.623 61.184 109.124 63.803 C 109.625 66.423 110.226 70.853 110.459 73.648 C 110.883 78.725 110.885 78.73 112.508 78.354 C 113.402 78.148 115.68 77.205 117.571 76.26 Z M 77.283 70.936 C 76.97 66.769 76.479 64.454 75.601 63.011 L 74.361 60.971 L 71.871 63.4 L 69.381 65.829 L 71.553 66.349 C 73.9 66.91 75.143 69.029 76.042 74.001 C 77.109 79.905 77.823 78.142 77.283 70.936 Z M 91.031 58.262 C 90.653 55.743 90.473 55.502 89.247 55.878 C 87.261 56.488 87.261 56.458 89.214 59.547 C 91.215 62.711 91.652 62.402 91.031 58.262 Z"
        fill="#000000"
        stroke-width="12"/>
    <path
        id="path_4"
        d="M 87.884 173.259 C 83.474 170.889 79.389 168.119 73.821 163.723 C 67.413 158.665 56.116 147.663 53.73 144.158 C 44.119 130.037 40.301 123.407 36.339 113.954 C 34.921 110.573 31.477 99.477 30.315 94.548 L 29.177 89.718 L 22.593 90.069 C 15.189 90.463 15.049 90.753 24.262 86.596 L 28.103 84.863 L 27.804 81.284 C 27.64 79.315 27.248 74.892 26.932 71.454 C 26.617 68.017 26.169 59.103 25.937 51.645 L 25.514 38.086 L 27.011 37.755 C 27.835 37.573 32.868 36.703 38.196 35.822 C 55.738 32.921 65.622 29.796 81.857 22.017 C 86.449 19.817 90.604 18.017 91.09 18.017 C 91.576 18.017 94.147 19.108 96.804 20.441 C 113.272 28.706 125.981 32.819 144.446 35.859 C 149.774 36.736 154.657 37.609 155.298 37.8 C 156.405 38.129 156.44 38.792 156.004 51.274 L 155.546 64.402 L 157.965 64.039 C 159.295 63.839 161.685 63.5 163.275 63.287 L 166.167 62.898 L 170.587 74.031 C 173.018 80.154 174.919 85.252 174.813 85.358 C 174.706 85.465 170.041 85.114 164.446 84.579 C 158.851 84.044 154.214 83.684 154.141 83.78 C 154.068 83.876 153.705 85.187 153.335 86.694 C 152.729 89.16 152.812 89.673 154.162 91.812 L 155.663 94.19 L 153.685 94.385 C 151.813 94.569 151.649 94.8 150.653 98.642 C 144 124.318 129.29 146.848 108.105 163.814 C 104.789 166.469 101.935 168.642 101.762 168.642 C 101.59 168.642 99.582 169.776 97.301 171.162 C 92.354 174.167 90.387 174.605 87.884 173.259 Z M 101.321 163.259 C 102.524 162.462 104.301 161.142 105.27 160.324 L 107.032 158.839 L 106.365 141.137 C 105.998 131.401 105.627 123.38 105.541 123.312 C 105.454 123.244 103.696 122.609 101.634 121.902 L 97.884 120.615 L 101.009 120.539 C 104.816 120.445 108.052 119.345 111.457 116.985 C 115.804 113.974 123.339 106.577 124.228 104.449 C 124.729 103.251 125.059 100.203 125.041 96.943 C 125.006 90.665 124.179 79.416 123.718 78.955 C 123.548 78.785 120.337 79.806 116.584 81.223 C 112.83 82.641 107.448 84.271 104.624 84.846 C 101.8 85.42 99.335 86.044 99.147 86.232 C 98.562 86.818 100.636 96.341 101.469 96.894 C 102.577 97.63 105.877 96.953 111.165 94.905 C 113.657 93.94 115.696 93.406 115.696 93.718 C 115.696 94.577 111.898 96.713 109.595 97.148 C 106.976 97.643 106.459 98.496 108.472 99.001 C 109.892 99.357 111.202 99.079 114.602 97.701 C 116.266 97.027 115.99 99.046 114.264 100.176 C 113.072 100.957 111.923 101.012 107.434 100.502 C 98.871 99.529 96.575 101.208 97.072 108.081 L 97.347 111.886 L 96.134 109.521 C 95.208 107.717 95 106.384 95.257 103.9 L 95.593 100.643 L 92.828 100.228 C 90.659 99.903 89.871 99.442 89.17 98.088 C 88.279 96.365 88.267 96.362 82.768 96.639 C 79.738 96.792 77.157 97.008 77.032 97.12 C 76.488 97.609 78.384 105.936 79.571 108.265 C 80.289 109.675 82.79 112.804 85.129 115.219 L 89.382 119.608 L 90.798 144.109 L 92.215 168.609 L 95.674 166.658 C 97.577 165.585 100.118 164.055 101.321 163.259 Z M 89.441 166.61 C 89.437 165.837 88.877 156.626 88.196 146.142 C 87.515 135.657 86.955 126.034 86.952 124.755 C 86.947 122.866 86.625 122.257 85.227 121.499 C 83.607 120.62 83.589 120.565 84.915 120.542 C 85.688 120.528 86.321 120.366 86.321 120.183 C 86.321 119.999 84.465 117.678 82.196 115.026 C 79.927 112.374 77.466 109.152 76.727 107.865 C 75.988 106.579 74.998 105.524 74.526 105.522 C 73.921 105.519 73.853 105.287 74.298 104.735 C 75.183 103.637 74.114 101.146 72.747 101.123 C 71.692 101.105 71.691 101.07 72.727 100.467 C 73.329 100.116 73.821 99.14 73.821 98.298 C 73.821 96.83 73.653 96.767 69.759 96.767 C 67.524 96.767 65.696 97.039 65.696 97.373 C 65.696 97.706 67.728 103.081 70.211 109.316 C 73.915 118.619 74.998 120.757 76.241 121.23 C 77.683 121.778 77.7 121.847 76.602 122.65 C 75.495 123.46 75.479 124.241 76.205 141.809 C 76.86 157.635 77.111 160.288 78.048 161.326 C 79.121 162.514 88.071 167.984 88.977 168.005 C 89.235 168.011 89.444 167.384 89.441 166.61 Z M 73.168 140.128 L 72.123 121.927 L 66.187 109.19 L 60.252 96.454 L 47.661 96.285 C 40.737 96.192 35.071 96.016 35.071 95.895 C 35.071 95.773 35.493 94.478 36.009 93.017 C 37.253 89.49 37.238 89.44 35.071 89.758 C 33.928 89.926 33.196 90.406 33.196 90.987 C 33.196 92.348 36.701 104.408 38.6 109.579 C 44.343 125.22 53.772 139.374 66.478 151.425 C 70.646 155.379 74.092 158.55 74.135 158.472 C 74.178 158.393 73.743 150.139 73.168 140.128 Z M 119.823 147.282 C 124.291 142.675 133.821 130.185 133.821 128.936 C 133.821 128.726 134.616 127.379 135.587 125.942 C 139.25 120.524 144.012 109.17 146.662 99.537 L 148.113 94.267 L 129.446 94.267 L 129.446 104.921 L 119.446 115.128 L 109.446 125.334 L 109.446 156.883 L 112.415 154.371 C 114.048 152.99 117.381 149.8 119.823 147.282 Z M 97.762 95.36 C 97.541 94.243 97.051 91.933 96.674 90.226 L 95.989 87.122 L 92.874 87.312 C 91.16 87.417 89.673 87.587 89.567 87.69 C 89.396 87.859 90.978 94.667 91.64 96.61 C 91.806 97.096 93.091 97.392 95.036 97.392 L 98.165 97.392 Z M 74.683 92.548 C 74.86 91.946 75.199 90.359 75.437 89.02 C 75.79 87.031 75.71 86.685 75.001 87.129 C 74.524 87.427 72.868 87.82 71.321 88 C 68.791 88.296 68.488 88.507 68.306 90.101 C 67.969 93.039 68.525 93.642 71.572 93.642 C 73.69 93.642 74.439 93.378 74.683 92.548 Z M 83.418 93.245 L 86.314 92.848 L 86.161 89.187 C 86.077 87.174 85.727 85.528 85.384 85.529 C 85.04 85.529 83.729 85.701 82.471 85.909 C 80.432 86.246 80.138 86.534 79.772 88.558 C 79.546 89.807 79.209 91.462 79.023 92.235 C 78.645 93.809 78.891 93.865 83.418 93.245 Z M 63.84 90.772 C 64.248 89.537 64.34 88.321 64.045 88.07 C 63.75 87.819 62.302 86.688 60.827 85.556 L 58.146 83.497 L 53.451 85.164 C 50.869 86.081 48.349 86.987 47.851 87.178 C 47.127 87.456 46.946 86.823 46.946 84.021 C 46.946 82.094 46.723 80.517 46.45 80.517 C 46.177 80.517 42.872 81.77 39.106 83.302 L 32.259 86.087 L 37.018 86.114 L 41.778 86.142 L 41.264 88.798 C 40.982 90.259 40.738 91.806 40.723 92.235 C 40.703 92.832 43.339 93.017 51.898 93.017 L 63.099 93.017 L 63.84 90.772 Z M 148.821 90.239 C 148.821 90.086 147.837 87.801 146.634 85.161 C 145.43 82.521 144.446 80.115 144.446 79.814 C 144.446 79.513 145.82 79.267 147.498 79.267 C 151.012 79.267 151.298 78.803 151.313 73.079 L 151.322 69.704 L 144.382 70.071 C 140.566 70.272 137.314 70.566 137.155 70.725 C 136.996 70.884 137.855 72.977 139.063 75.376 L 141.26 79.738 L 138.947 80.121 C 137.675 80.331 134.838 80.506 132.643 80.51 L 128.652 80.517 L 129.049 83.416 C 129.268 85.011 129.447 87.261 129.447 88.416 L 129.447 90.517 L 139.134 90.517 C 144.462 90.517 148.822 90.392 148.822 90.239 Z M 73.977 84.488 C 74.923 84.005 75.696 83.514 75.696 83.397 C 75.696 82.714 71.992 69.222 71.655 68.676 C 71.431 68.314 69.986 68.017 68.443 68.017 C 66.304 68.017 65.278 68.378 64.113 69.543 L 62.588 71.068 L 64.829 77.511 C 67.904 86.347 67.879 86.309 70.271 85.794 C 71.364 85.559 73.032 84.971 73.977 84.488 Z M 62.878 79.505 C 62.022 77.229 61.321 74.604 61.321 73.671 C 61.321 71.388 60.715 70.931 59.341 72.175 C 58.508 72.928 58.203 74.079 58.222 76.395 C 58.246 79.392 58.402 79.696 60.878 81.575 C 62.325 82.672 63.717 83.586 63.972 83.606 C 64.227 83.626 63.735 81.78 62.878 79.505 Z M 85.696 82.704 C 91.294 81.9 90.91 82.613 90.549 73.7 C 90.201 65.142 89.34 62.367 86.092 59.335 C 84.57 57.915 84.345 57.881 81.5 58.646 C 79.855 59.089 78.29 59.642 78.024 59.875 C 77.757 60.108 77.949 62.106 78.45 64.314 C 79.215 67.687 80.696 79.912 80.696 82.855 C 80.696 83.385 81.124 83.605 81.79 83.417 C 82.391 83.247 84.149 82.926 85.696 82.704 Z M 42.28 78.632 C 47.7 76.22 52.243 74.355 52.375 74.487 C 52.506 74.619 52.352 76.381 52.032 78.403 C 51.711 80.425 51.541 82.177 51.654 82.296 C 51.767 82.416 52.744 81.994 53.824 81.359 C 55.773 80.213 55.787 80.169 55.602 75.676 L 55.415 71.148 L 60.186 67.707 C 62.975 65.696 65.615 64.267 66.541 64.267 C 67.412 64.267 68.493 63.747 68.942 63.112 C 72.295 58.372 73.726 57.383 78.656 56.397 C 81.325 55.863 85.337 54.527 87.571 53.429 C 91.497 51.498 91.86 51.438 98.352 51.639 C 102.989 51.783 105.075 52.077 105.085 52.588 C 105.093 52.996 105.609 53.993 106.233 54.804 C 107.328 56.227 107.436 56.244 109.313 55.273 C 112.581 53.583 116.136 54.043 120.384 56.705 L 124.134 59.055 L 124.31 66.372 C 124.479 73.384 124.547 73.711 125.943 74.242 C 126.745 74.547 127.553 75.38 127.74 76.094 C 128.032 77.213 128.562 77.392 131.575 77.392 C 133.498 77.392 135.061 77.181 135.049 76.923 C 135.037 76.665 133.922 74.639 132.571 72.421 C 131.221 70.203 130.237 68.267 130.386 68.118 C 130.535 67.97 135.348 67.187 141.083 66.38 C 146.818 65.572 151.636 64.785 151.79 64.631 C 151.945 64.476 152.225 59.16 152.412 52.817 C 152.735 41.879 152.692 41.265 151.568 40.926 C 150.917 40.73 146.727 39.991 142.259 39.285 C 125.75 36.674 114.437 33.125 98.497 25.557 L 90.985 21.991 L 88.497 23.291 C 87.128 24.007 84.04 25.478 81.634 26.562 C 64.932 34.082 56.472 36.683 40.384 39.241 C 35.915 39.952 31.626 40.675 30.852 40.849 C 29.491 41.155 29.446 41.401 29.455 48.497 C 29.46 52.53 29.879 61.454 30.387 68.329 C 30.896 75.204 31.313 81.321 31.316 81.923 C 31.319 82.525 31.57 83.017 31.873 83.017 C 32.177 83.017 36.86 81.044 42.28 78.632 Z M 104.384 80.898 L 106.51 80.204 L 106.38 74.505 C 106.153 64.602 105.134 59.741 102.513 56.06 C 101.329 54.398 100.937 54.267 97.137 54.267 L 93.037 54.267 L 93.39 57.548 C 93.584 59.353 94.069 65.329 94.468 70.829 C 94.867 76.329 95.293 81.169 95.415 81.585 C 95.669 82.448 100.853 82.051 104.384 80.898 Z M 167.22 78.52 C 166.981 77.766 165.989 75.375 165.016 73.208 L 163.248 69.267 L 155.249 69.267 L 154.848 73.108 C 154.073 80.519 153.499 79.892 161.051 79.892 C 167.566 79.892 167.649 79.873 167.22 78.52 Z M 117.571 76.26 L 121.009 74.541 L 121.184 67.273 L 121.36 60.005 L 118.147 58.938 C 115.254 57.977 109.391 57.863 108.503 58.751 C 108.344 58.911 108.623 61.184 109.124 63.803 C 109.625 66.423 110.226 70.853 110.459 73.648 C 110.883 78.725 110.885 78.73 112.508 78.354 C 113.402 78.148 115.68 77.205 117.571 76.26 Z M 77.283 70.936 C 76.97 66.769 76.479 64.454 75.601 63.011 L 74.361 60.971 L 71.871 63.4 L 69.381 65.829 L 71.553 66.349 C 73.9 66.91 75.143 69.029 76.042 74.001 C 77.109 79.905 77.823 78.142 77.283 70.936 Z M 91.031 58.262 C 90.653 55.743 90.473 55.502 89.247 55.878 C 87.261 56.488 87.261 56.458 89.214 59.547 C 91.215 62.711 91.652 62.402 91.031 58.262 Z"
        fill="#000000"
        stroke-width="12"/>
    <path
        id="path_5"
        d="M 87.884 173.259 C 83.474 170.889 79.389 168.119 73.821 163.723 C 67.413 158.665 56.116 147.663 53.73 144.158 C 44.119 130.037 40.301 123.407 36.339 113.954 C 34.921 110.573 31.477 99.477 30.315 94.548 L 29.177 89.718 L 22.593 90.069 C 15.189 90.463 15.049 90.753 24.262 86.596 L 28.103 84.863 L 27.804 81.284 C 27.64 79.315 27.248 74.892 26.932 71.454 C 26.617 68.017 26.169 59.103 25.937 51.645 L 25.514 38.086 L 27.011 37.755 C 27.835 37.573 32.868 36.703 38.196 35.822 C 55.738 32.921 65.622 29.796 81.857 22.017 C 86.449 19.817 90.604 18.017 91.09 18.017 C 91.576 18.017 94.147 19.108 96.804 20.441 C 113.272 28.706 125.981 32.819 144.446 35.859 C 149.774 36.736 154.657 37.609 155.298 37.8 C 156.405 38.129 156.44 38.792 156.004 51.274 L 155.546 64.402 L 157.965 64.039 C 159.295 63.839 161.685 63.5 163.275 63.287 L 166.167 62.898 L 170.587 74.031 C 173.018 80.154 174.919 85.252 174.813 85.358 C 174.706 85.465 170.041 85.114 164.446 84.579 C 158.851 84.044 154.214 83.684 154.141 83.78 C 154.068 83.876 153.705 85.187 153.335 86.694 C 152.729 89.16 152.812 89.673 154.162 91.812 L 155.663 94.19 L 153.685 94.385 C 151.813 94.569 151.649 94.8 150.653 98.642 C 144 124.318 129.29 146.848 108.105 163.814 C 104.789 166.469 101.935 168.642 101.762 168.642 C 101.59 168.642 99.582 169.776 97.301 171.162 C 92.354 174.167 90.387 174.605 87.884 173.259 Z M 101.321 163.259 C 102.524 162.462 104.301 161.142 105.27 160.324 L 107.032 158.839 L 106.365 141.137 C 105.998 131.401 105.627 123.38 105.541 123.312 C 105.454 123.244 103.696 122.609 101.634 121.902 L 97.884 120.615 L 101.009 120.539 C 104.816 120.445 108.052 119.345 111.457 116.985 C 115.804 113.974 123.339 106.577 124.228 104.449 C 124.729 103.251 125.059 100.203 125.041 96.943 C 125.006 90.665 124.179 79.416 123.718 78.955 C 123.548 78.785 120.337 79.806 116.584 81.223 C 112.83 82.641 107.448 84.271 104.624 84.846 C 101.8 85.42 99.335 86.044 99.147 86.232 C 98.562 86.818 100.636 96.341 101.469 96.894 C 102.577 97.63 105.877 96.953 111.165 94.905 C 113.657 93.94 115.696 93.406 115.696 93.718 C 115.696 94.577 111.898 96.713 109.595 97.148 C 106.976 97.643 106.459 98.496 108.472 99.001 C 109.892 99.357 111.202 99.079 114.602 97.701 C 116.266 97.027 115.99 99.046 114.264 100.176 C 113.072 100.957 111.923 101.012 107.434 100.502 C 98.871 99.529 96.575 101.208 97.072 108.081 L 97.347 111.886 L 96.134 109.521 C 95.208 107.717 95 106.384 95.257 103.9 L 95.593 100.643 L 92.828 100.228 C 90.659 99.903 89.871 99.442 89.17 98.088 C 88.279 96.365 88.267 96.362 82.768 96.639 C 79.738 96.792 77.157 97.008 77.032 97.12 C 76.488 97.609 78.384 105.936 79.571 108.265 C 80.289 109.675 82.79 112.804 85.129 115.219 L 89.382 119.608 L 90.798 144.109 L 92.215 168.609 L 95.674 166.658 C 97.577 165.585 100.118 164.055 101.321 163.259 Z M 89.441 166.61 C 89.437 165.837 88.877 156.626 88.196 146.142 C 87.515 135.657 86.955 126.034 86.952 124.755 C 86.947 122.866 86.625 122.257 85.227 121.499 C 83.607 120.62 83.589 120.565 84.915 120.542 C 85.688 120.528 86.321 120.366 86.321 120.183 C 86.321 119.999 84.465 117.678 82.196 115.026 C 79.927 112.374 77.466 109.152 76.727 107.865 C 75.988 106.579 74.998 105.524 74.526 105.522 C 73.921 105.519 73.853 105.287 74.298 104.735 C 75.183 103.637 74.114 101.146 72.747 101.123 C 71.692 101.105 71.691 101.07 72.727 100.467 C 73.329 100.116 73.821 99.14 73.821 98.298 C 73.821 96.83 73.653 96.767 69.759 96.767 C 67.524 96.767 65.696 97.039 65.696 97.373 C 65.696 97.706 67.728 103.081 70.211 109.316 C 73.915 118.619 74.998 120.757 76.241 121.23 C 77.683 121.778 77.7 121.847 76.602 122.65 C 75.495 123.46 75.479 124.241 76.205 141.809 C 76.86 157.635 77.111 160.288 78.048 161.326 C 79.121 162.514 88.071 167.984 88.977 168.005 C 89.235 168.011 89.444 167.384 89.441 166.61 Z M 73.168 140.128 L 72.123 121.927 L 66.187 109.19 L 60.252 96.454 L 47.661 96.285 C 40.737 96.192 35.071 96.016 35.071 95.895 C 35.071 95.773 35.493 94.478 36.009 93.017 C 37.253 89.49 37.238 89.44 35.071 89.758 C 33.928 89.926 33.196 90.406 33.196 90.987 C 33.196 92.348 36.701 104.408 38.6 109.579 C 44.343 125.22 53.772 139.374 66.478 151.425 C 70.646 155.379 74.092 158.55 74.135 158.472 C 74.178 158.393 73.743 150.139 73.168 140.128 Z M 119.823 147.282 C 124.291 142.675 133.821 130.185 133.821 128.936 C 133.821 128.726 134.616 127.379 135.587 125.942 C 139.25 120.524 144.012 109.17 146.662 99.537 L 148.113 94.267 L 129.446 94.267 L 129.446 104.921 L 119.446 115.128 L 109.446 125.334 L 109.446 156.883 L 112.415 154.371 C 114.048 152.99 117.381 149.8 119.823 147.282 Z M 97.762 95.36 C 97.541 94.243 97.051 91.933 96.674 90.226 L 95.989 87.122 L 92.874 87.312 C 91.16 87.417 89.673 87.587 89.567 87.69 C 89.396 87.859 90.978 94.667 91.64 96.61 C 91.806 97.096 93.091 97.392 95.036 97.392 L 98.165 97.392 Z M 74.683 92.548 C 74.86 91.946 75.199 90.359 75.437 89.02 C 75.79 87.031 75.71 86.685 75.001 87.129 C 74.524 87.427 72.868 87.82 71.321 88 C 68.791 88.296 68.488 88.507 68.306 90.101 C 67.969 93.039 68.525 93.642 71.572 93.642 C 73.69 93.642 74.439 93.378 74.683 92.548 Z M 83.418 93.245 L 86.314 92.848 L 86.161 89.187 C 86.077 87.174 85.727 85.528 85.384 85.529 C 85.04 85.529 83.729 85.701 82.471 85.909 C 80.432 86.246 80.138 86.534 79.772 88.558 C 79.546 89.807 79.209 91.462 79.023 92.235 C 78.645 93.809 78.891 93.865 83.418 93.245 Z M 63.84 90.772 C 64.248 89.537 64.34 88.321 64.045 88.07 C 63.75 87.819 62.302 86.688 60.827 85.556 L 58.146 83.497 L 53.451 85.164 C 50.869 86.081 48.349 86.987 47.851 87.178 C 47.127 87.456 46.946 86.823 46.946 84.021 C 46.946 82.094 46.723 80.517 46.45 80.517 C 46.177 80.517 42.872 81.77 39.106 83.302 L 32.259 86.087 L 37.018 86.114 L 41.778 86.142 L 41.264 88.798 C 40.982 90.259 40.738 91.806 40.723 92.235 C 40.703 92.832 43.339 93.017 51.898 93.017 L 63.099 93.017 L 63.84 90.772 Z M 148.821 90.239 C 148.821 90.086 147.837 87.801 146.634 85.161 C 145.43 82.521 144.446 80.115 144.446 79.814 C 144.446 79.513 145.82 79.267 147.498 79.267 C 151.012 79.267 151.298 78.803 151.313 73.079 L 151.322 69.704 L 144.382 70.071 C 140.566 70.272 137.314 70.566 137.155 70.725 C 136.996 70.884 137.855 72.977 139.063 75.376 L 141.26 79.738 L 138.947 80.121 C 137.675 80.331 134.838 80.506 132.643 80.51 L 128.652 80.517 L 129.049 83.416 C 129.268 85.011 129.447 87.261 129.447 88.416 L 129.447 90.517 L 139.134 90.517 C 144.462 90.517 148.822 90.392 148.822 90.239 Z M 73.977 84.488 C 74.923 84.005 75.696 83.514 75.696 83.397 C 75.696 82.714 71.992 69.222 71.655 68.676 C 71.431 68.314 69.986 68.017 68.443 68.017 C 66.304 68.017 65.278 68.378 64.113 69.543 L 62.588 71.068 L 64.829 77.511 C 67.904 86.347 67.879 86.309 70.271 85.794 C 71.364 85.559 73.032 84.971 73.977 84.488 Z M 62.878 79.505 C 62.022 77.229 61.321 74.604 61.321 73.671 C 61.321 71.388 60.715 70.931 59.341 72.175 C 58.508 72.928 58.203 74.079 58.222 76.395 C 58.246 79.392 58.402 79.696 60.878 81.575 C 62.325 82.672 63.717 83.586 63.972 83.606 C 64.227 83.626 63.735 81.78 62.878 79.505 Z M 85.696 82.704 C 91.294 81.9 90.91 82.613 90.549 73.7 C 90.201 65.142 89.34 62.367 86.092 59.335 C 84.57 57.915 84.345 57.881 81.5 58.646 C 79.855 59.089 78.29 59.642 78.024 59.875 C 77.757 60.108 77.949 62.106 78.45 64.314 C 79.215 67.687 80.696 79.912 80.696 82.855 C 80.696 83.385 81.124 83.605 81.79 83.417 C 82.391 83.247 84.149 82.926 85.696 82.704 Z M 42.28 78.632 C 47.7 76.22 52.243 74.355 52.375 74.487 C 52.506 74.619 52.352 76.381 52.032 78.403 C 51.711 80.425 51.541 82.177 51.654 82.296 C 51.767 82.416 52.744 81.994 53.824 81.359 C 55.773 80.213 55.787 80.169 55.602 75.676 L 55.415 71.148 L 60.186 67.707 C 62.975 65.696 65.615 64.267 66.541 64.267 C 67.412 64.267 68.493 63.747 68.942 63.112 C 72.295 58.372 73.726 57.383 78.656 56.397 C 81.325 55.863 85.337 54.527 87.571 53.429 C 91.497 51.498 91.86 51.438 98.352 51.639 C 102.989 51.783 105.075 52.077 105.085 52.588 C 105.093 52.996 105.609 53.993 106.233 54.804 C 107.328 56.227 107.436 56.244 109.313 55.273 C 112.581 53.583 116.136 54.043 120.384 56.705 L 124.134 59.055 L 124.31 66.372 C 124.479 73.384 124.547 73.711 125.943 74.242 C 126.745 74.547 127.553 75.38 127.74 76.094 C 128.032 77.213 128.562 77.392 131.575 77.392 C 133.498 77.392 135.061 77.181 135.049 76.923 C 135.037 76.665 133.922 74.639 132.571 72.421 C 131.221 70.203 130.237 68.267 130.386 68.118 C 130.535 67.97 135.348 67.187 141.083 66.38 C 146.818 65.572 151.636 64.785 151.79 64.631 C 151.945 64.476 152.225 59.16 152.412 52.817 C 152.735 41.879 152.692 41.265 151.568 40.926 C 150.917 40.73 146.727 39.991 142.259 39.285 C 125.75 36.674 114.437 33.125 98.497 25.557 L 90.985 21.991 L 88.497 23.291 C 87.128 24.007 84.04 25.478 81.634 26.562 C 64.932 34.082 56.472 36.683 40.384 39.241 C 35.915 39.952 31.626 40.675 30.852 40.849 C 29.491 41.155 29.446 41.401 29.455 48.497 C 29.46 52.53 29.879 61.454 30.387 68.329 C 30.896 75.204 31.313 81.321 31.316 81.923 C 31.319 82.525 31.57 83.017 31.873 83.017 C 32.177 83.017 36.86 81.044 42.28 78.632 Z M 104.384 80.898 L 106.51 80.204 L 106.38 74.505 C 106.153 64.602 105.134 59.741 102.513 56.06 C 101.329 54.398 100.937 54.267 97.137 54.267 L 93.037 54.267 L 93.39 57.548 C 93.584 59.353 94.069 65.329 94.468 70.829 C 94.867 76.329 95.293 81.169 95.415 81.585 C 95.669 82.448 100.853 82.051 104.384 80.898 Z M 167.22 78.52 C 166.981 77.766 165.989 75.375 165.016 73.208 L 163.248 69.267 L 155.249 69.267 L 154.848 73.108 C 154.073 80.519 153.499 79.892 161.051 79.892 C 167.566 79.892 167.649 79.873 167.22 78.52 Z M 117.571 76.26 L 121.009 74.541 L 121.184 67.273 L 121.36 60.005 L 118.147 58.938 C 115.254 57.977 109.391 57.863 108.503 58.751 C 108.344 58.911 108.623 61.184 109.124 63.803 C 109.625 66.423 110.226 70.853 110.459 73.648 C 110.883 78.725 110.885 78.73 112.508 78.354 C 113.402 78.148 115.68 77.205 117.571 76.26 Z M 77.283 70.936 C 76.97 66.769 76.479 64.454 75.601 63.011 L 74.361 60.971 L 71.871 63.4 L 69.381 65.829 L 71.553 66.349 C 73.9 66.91 75.143 69.029 76.042 74.001 C 77.109 79.905 77.823 78.142 77.283 70.936 Z M 91.031 58.262 C 90.653 55.743 90.473 55.502 89.247 55.878 C 87.261 56.488 87.261 56.458 89.214 59.547 C 91.215 62.711 91.652 62.402 91.031 58.262 Z"
        fill="#000000"
        stroke-width="12"/>
    <path
        id="path_6"
        d="M 87.884 173.259 C 83.474 170.889 79.389 168.119 73.821 163.723 C 67.413 158.665 56.116 147.663 53.73 144.158 C 44.119 130.037 40.301 123.407 36.339 113.954 C 34.921 110.573 31.477 99.477 30.315 94.548 L 29.177 89.718 L 22.593 90.069 C 15.189 90.463 15.049 90.753 24.262 86.596 L 28.103 84.863 L 27.804 81.284 C 27.64 79.315 27.248 74.892 26.932 71.454 C 26.617 68.017 26.169 59.103 25.937 51.645 L 25.514 38.086 L 27.011 37.755 C 27.835 37.573 32.868 36.703 38.196 35.822 C 55.738 32.921 65.622 29.796 81.857 22.017 C 86.449 19.817 90.604 18.017 91.09 18.017 C 91.576 18.017 94.147 19.108 96.804 20.441 C 113.272 28.706 125.981 32.819 144.446 35.859 C 149.774 36.736 154.657 37.609 155.298 37.8 C 156.405 38.129 156.44 38.792 156.004 51.274 L 155.546 64.402 L 157.965 64.039 C 159.295 63.839 161.685 63.5 163.275 63.287 L 166.167 62.898 L 170.587 74.031 C 173.018 80.154 174.919 85.252 174.813 85.358 C 174.706 85.465 170.041 85.114 164.446 84.579 C 158.851 84.044 154.214 83.684 154.141 83.78 C 154.068 83.876 153.705 85.187 153.335 86.694 C 152.729 89.16 152.812 89.673 154.162 91.812 L 155.663 94.19 L 153.685 94.385 C 151.813 94.569 151.649 94.8 150.653 98.642 C 144 124.318 129.29 146.848 108.105 163.814 C 104.789 166.469 101.935 168.642 101.762 168.642 C 101.59 168.642 99.582 169.776 97.301 171.162 C 92.354 174.167 90.387 174.605 87.884 173.259 Z M 101.321 163.259 C 102.524 162.462 104.301 161.142 105.27 160.324 L 107.032 158.839 L 106.365 141.137 C 105.998 131.401 105.627 123.38 105.541 123.312 C 105.454 123.244 103.696 122.609 101.634 121.902 L 97.884 120.615 L 101.009 120.539 C 104.816 120.445 108.052 119.345 111.457 116.985 C 115.804 113.974 123.339 106.577 124.228 104.449 C 124.729 103.251 125.059 100.203 125.041 96.943 C 125.006 90.665 124.179 79.416 123.718 78.955 C 123.548 78.785 120.337 79.806 116.584 81.223 C 112.83 82.641 107.448 84.271 104.624 84.846 C 101.8 85.42 99.335 86.044 99.147 86.232 C 98.562 86.818 100.636 96.341 101.469 96.894 C 102.577 97.63 105.877 96.953 111.165 94.905 C 113.657 93.94 115.696 93.406 115.696 93.718 C 115.696 94.577 111.898 96.713 109.595 97.148 C 106.976 97.643 106.459 98.496 108.472 99.001 C 109.892 99.357 111.202 99.079 114.602 97.701 C 116.266 97.027 115.99 99.046 114.264 100.176 C 113.072 100.957 111.923 101.012 107.434 100.502 C 98.871 99.529 96.575 101.208 97.072 108.081 L 97.347 111.886 L 96.134 109.521 C 95.208 107.717 95 106.384 95.257 103.9 L 95.593 100.643 L 92.828 100.228 C 90.659 99.903 89.871 99.442 89.17 98.088 C 88.279 96.365 88.267 96.362 82.768 96.639 C 79.738 96.792 77.157 97.008 77.032 97.12 C 76.488 97.609 78.384 105.936 79.571 108.265 C 80.289 109.675 82.79 112.804 85.129 115.219 L 89.382 119.608 L 90.798 144.109 L 92.215 168.609 L 95.674 166.658 C 97.577 165.585 100.118 164.055 101.321 163.259 Z M 89.441 166.61 C 89.437 165.837 88.877 156.626 88.196 146.142 C 87.515 135.657 86.955 126.034 86.952 124.755 C 86.947 122.866 86.625 122.257 85.227 121.499 C 83.607 120.62 83.589 120.565 84.915 120.542 C 85.688 120.528 86.321 120.366 86.321 120.183 C 86.321 119.999 84.465 117.678 82.196 115.026 C 79.927 112.374 77.466 109.152 76.727 107.865 C 75.988 106.579 74.998 105.524 74.526 105.522 C 73.921 105.519 73.853 105.287 74.298 104.735 C 75.183 103.637 74.114 101.146 72.747 101.123 C 71.692 101.105 71.691 101.07 72.727 100.467 C 73.329 100.116 73.821 99.14 73.821 98.298 C 73.821 96.83 73.653 96.767 69.759 96.767 C 67.524 96.767 65.696 97.039 65.696 97.373 C 65.696 97.706 67.728 103.081 70.211 109.316 C 73.915 118.619 74.998 120.757 76.241 121.23 C 77.683 121.778 77.7 121.847 76.602 122.65 C 75.495 123.46 75.479 124.241 76.205 141.809 C 76.86 157.635 77.111 160.288 78.048 161.326 C 79.121 162.514 88.071 167.984 88.977 168.005 C 89.235 168.011 89.444 167.384 89.441 166.61 Z M 73.168 140.128 L 72.123 121.927 L 66.187 109.19 L 60.252 96.454 L 47.661 96.285 C 40.737 96.192 35.071 96.016 35.071 95.895 C 35.071 95.773 35.493 94.478 36.009 93.017 C 37.253 89.49 37.238 89.44 35.071 89.758 C 33.928 89.926 33.196 90.406 33.196 90.987 C 33.196 92.348 36.701 104.408 38.6 109.579 C 44.343 125.22 53.772 139.374 66.478 151.425 C 70.646 155.379 74.092 158.55 74.135 158.472 C 74.178 158.393 73.743 150.139 73.168 140.128 Z M 119.823 147.282 C 124.291 142.675 133.821 130.185 133.821 128.936 C 133.821 128.726 134.616 127.379 135.587 125.942 C 139.25 120.524 144.012 109.17 146.662 99.537 L 148.113 94.267 L 129.446 94.267 L 129.446 104.921 L 119.446 115.128 L 109.446 125.334 L 109.446 156.883 L 112.415 154.371 C 114.048 152.99 117.381 149.8 119.823 147.282 Z M 97.762 95.36 C 97.541 94.243 97.051 91.933 96.674 90.226 L 95.989 87.122 L 92.874 87.312 C 91.16 87.417 89.673 87.587 89.567 87.69 C 89.396 87.859 90.978 94.667 91.64 96.61 C 91.806 97.096 93.091 97.392 95.036 97.392 L 98.165 97.392 Z M 74.683 92.548 C 74.86 91.946 75.199 90.359 75.437 89.02 C 75.79 87.031 75.71 86.685 75.001 87.129 C 74.524 87.427 72.868 87.82 71.321 88 C 68.791 88.296 68.488 88.507 68.306 90.101 C 67.969 93.039 68.525 93.642 71.572 93.642 C 73.69 93.642 74.439 93.378 74.683 92.548 Z M 83.418 93.245 L 86.314 92.848 L 86.161 89.187 C 86.077 87.174 85.727 85.528 85.384 85.529 C 85.04 85.529 83.729 85.701 82.471 85.909 C 80.432 86.246 80.138 86.534 79.772 88.558 C 79.546 89.807 79.209 91.462 79.023 92.235 C 78.645 93.809 78.891 93.865 83.418 93.245 Z M 63.84 90.772 C 64.248 89.537 64.34 88.321 64.045 88.07 C 63.75 87.819 62.302 86.688 60.827 85.556 L 58.146 83.497 L 53.451 85.164 C 50.869 86.081 48.349 86.987 47.851 87.178 C 47.127 87.456 46.946 86.823 46.946 84.021 C 46.946 82.094 46.723 80.517 46.45 80.517 C 46.177 80.517 42.872 81.77 39.106 83.302 L 32.259 86.087 L 37.018 86.114 L 41.778 86.142 L 41.264 88.798 C 40.982 90.259 40.738 91.806 40.723 92.235 C 40.703 92.832 43.339 93.017 51.898 93.017 L 63.099 93.017 L 63.84 90.772 Z M 148.821 90.239 C 148.821 90.086 147.837 87.801 146.634 85.161 C 145.43 82.521 144.446 80.115 144.446 79.814 C 144.446 79.513 145.82 79.267 147.498 79.267 C 151.012 79.267 151.298 78.803 151.313 73.079 L 151.322 69.704 L 144.382 70.071 C 140.566 70.272 137.314 70.566 137.155 70.725 C 136.996 70.884 137.855 72.977 139.063 75.376 L 141.26 79.738 L 138.947 80.121 C 137.675 80.331 134.838 80.506 132.643 80.51 L 128.652 80.517 L 129.049 83.416 C 129.268 85.011 129.447 87.261 129.447 88.416 L 129.447 90.517 L 139.134 90.517 C 144.462 90.517 148.822 90.392 148.822 90.239 Z M 73.977 84.488 C 74.923 84.005 75.696 83.514 75.696 83.397 C 75.696 82.714 71.992 69.222 71.655 68.676 C 71.431 68.314 69.986 68.017 68.443 68.017 C 66.304 68.017 65.278 68.378 64.113 69.543 L 62.588 71.068 L 64.829 77.511 C 67.904 86.347 67.879 86.309 70.271 85.794 C 71.364 85.559 73.032 84.971 73.977 84.488 Z M 62.878 79.505 C 62.022 77.229 61.321 74.604 61.321 73.671 C 61.321 71.388 60.715 70.931 59.341 72.175 C 58.508 72.928 58.203 74.079 58.222 76.395 C 58.246 79.392 58.402 79.696 60.878 81.575 C 62.325 82.672 63.717 83.586 63.972 83.606 C 64.227 83.626 63.735 81.78 62.878 79.505 Z M 85.696 82.704 C 91.294 81.9 90.91 82.613 90.549 73.7 C 90.201 65.142 89.34 62.367 86.092 59.335 C 84.57 57.915 84.345 57.881 81.5 58.646 C 79.855 59.089 78.29 59.642 78.024 59.875 C 77.757 60.108 77.949 62.106 78.45 64.314 C 79.215 67.687 80.696 79.912 80.696 82.855 C 80.696 83.385 81.124 83.605 81.79 83.417 C 82.391 83.247 84.149 82.926 85.696 82.704 Z M 42.28 78.632 C 47.7 76.22 52.243 74.355 52.375 74.487 C 52.506 74.619 52.352 76.381 52.032 78.403 C 51.711 80.425 51.541 82.177 51.654 82.296 C 51.767 82.416 52.744 81.994 53.824 81.359 C 55.773 80.213 55.787 80.169 55.602 75.676 L 55.415 71.148 L 60.186 67.707 C 62.975 65.696 65.615 64.267 66.541 64.267 C 67.412 64.267 68.493 63.747 68.942 63.112 C 72.295 58.372 73.726 57.383 78.656 56.397 C 81.325 55.863 85.337 54.527 87.571 53.429 C 91.497 51.498 91.86 51.438 98.352 51.639 C 102.989 51.783 105.075 52.077 105.085 52.588 C 105.093 52.996 105.609 53.993 106.233 54.804 C 107.328 56.227 107.436 56.244 109.313 55.273 C 112.581 53.583 116.136 54.043 120.384 56.705 L 124.134 59.055 L 124.31 66.372 C 124.479 73.384 124.547 73.711 125.943 74.242 C 126.745 74.547 127.553 75.38 127.74 76.094 C 128.032 77.213 128.562 77.392 131.575 77.392 C 133.498 77.392 135.061 77.181 135.049 76.923 C 135.037 76.665 133.922 74.639 132.571 72.421 C 131.221 70.203 130.237 68.267 130.386 68.118 C 130.535 67.97 135.348 67.187 141.083 66.38 C 146.818 65.572 151.636 64.785 151.79 64.631 C 151.945 64.476 152.225 59.16 152.412 52.817 C 152.735 41.879 152.692 41.265 151.568 40.926 C 150.917 40.73 146.727 39.991 142.259 39.285 C 125.75 36.674 114.437 33.125 98.497 25.557 L 90.985 21.991 L 88.497 23.291 C 87.128 24.007 84.04 25.478 81.634 26.562 C 64.932 34.082 56.472 36.683 40.384 39.241 C 35.915 39.952 31.626 40.675 30.852 40.849 C 29.491 41.155 29.446 41.401 29.455 48.497 C 29.46 52.53 29.879 61.454 30.387 68.329 C 30.896 75.204 31.313 81.321 31.316 81.923 C 31.319 82.525 31.57 83.017 31.873 83.017 C 32.177 83.017 36.86 81.044 42.28 78.632 Z M 104.384 80.898 L 106.51 80.204 L 106.38 74.505 C 106.153 64.602 105.134 59.741 102.513 56.06 C 101.329 54.398 100.937 54.267 97.137 54.267 L 93.037 54.267 L 93.39 57.548 C 93.584 59.353 94.069 65.329 94.468 70.829 C 94.867 76.329 95.293 81.169 95.415 81.585 C 95.669 82.448 100.853 82.051 104.384 80.898 Z M 167.22 78.52 C 166.981 77.766 165.989 75.375 165.016 73.208 L 163.248 69.267 L 155.249 69.267 L 154.848 73.108 C 154.073 80.519 153.499 79.892 161.051 79.892 C 167.566 79.892 167.649 79.873 167.22 78.52 Z M 117.571 76.26 L 121.009 74.541 L 121.184 67.273 L 121.36 60.005 L 118.147 58.938 C 115.254 57.977 109.391 57.863 108.503 58.751 C 108.344 58.911 108.623 61.184 109.124 63.803 C 109.625 66.423 110.226 70.853 110.459 73.648 C 110.883 78.725 110.885 78.73 112.508 78.354 C 113.402 78.148 115.68 77.205 117.571 76.26 Z M 77.283 70.936 C 76.97 66.769 76.479 64.454 75.601 63.011 L 74.361 60.971 L 71.871 63.4 L 69.381 65.829 L 71.553 66.349 C 73.9 66.91 75.143 69.029 76.042 74.001 C 77.109 79.905 77.823 78.142 77.283 70.936 Z M 91.031 58.262 C 90.653 55.743 90.473 55.502 89.247 55.878 C 87.261 56.488 87.261 56.458 89.214 59.547 C 91.215 62.711 91.652 62.402 91.031 58.262 Z"
        fill="#000000"
        stroke-width="12"/>
</svg>
