<svg xmlns="http://www.w3.org/2000/svg" width="192" height="192"><path fill="#FFF" d="M25.904 101.865h-.007c-2.625 0-5.344-.06-7.13-.825-.928-.392-1.57-.92-2.024-1.657-.5-.812-.743-1.867-.743-3.214 0-1.028.149-2.232.433-3.592.068-.312 1.617-7.55 1.718-7.935.413-1.509.927-2.754 1.583-3.796 1.13-1.793 2.638-2.95 4.742-3.64 1.753-.568 3.985-.825 7.226-.825h.027c1.705 0 3.105.122 4.282.366 1.387.29 2.45.77 3.153 1.413a3.25 3.25 0 0 1 1.008 1.759c.074.345.108.73.108 1.143 0 .96-.196 1.969-.352 2.773-.02.122-.048.23-.068.345l-.007.034h-6.278l.007-.047s.02-.19.027-.278c0-.007.026-.257.026-.623 0-.548-.257-.973-.777-1.305-.413-.236-.947-.318-1.455-.379-.541-.068-1.15-.074-1.725-.074-1.056 0-1.854.081-2.51.264-.521.143-.96.352-1.326.629-.52.392-.928.96-1.239 1.732-.29.716-.5 1.576-.73 2.638l-.846 4.059c-.278 1.305-.474 2.293-.474 3.146 0 .494.068.88.21 1.225.222.548.696.974 1.339 1.204.615.223 1.4.324 2.537.324.758 0 1.38-.013 1.948-.082.981-.114 1.684-.413 2.212-.927.575-.554.96-1.38 1.217-2.59l.088-.414h6.21v.04c0 .048-.352 1.679-.535 2.334a11.617 11.617 0 0 1-.629 1.773c-.602 1.313-1.441 2.328-2.645 3.187-1.164.811-2.402 1.312-3.897 1.577-1.286.223-2.604.243-4.066.243.005.002-.563-.005-.637-.005zm69.566 0v0c-2.632 0-5.35-.06-7.137-.825-.927-.392-1.57-.92-2.023-1.657-.5-.812-.744-1.867-.744-3.214 0-1.028.149-2.232.433-3.592.068-.31 1.617-7.55 1.718-7.935.406-1.509.927-2.754 1.583-3.796 1.13-1.793 2.638-2.95 4.742-3.64 1.754-.568 3.986-.825 7.226-.825h.027c1.705 0 3.105.122 4.282.366 1.387.29 2.45.77 3.153 1.413a3.25 3.25 0 0 1 1.007 1.759c.075.345.109.73.109 1.143 0 .96-.196 1.969-.352 2.78-.02.115-.048.23-.068.345l-.007.034h-6.278l.007-.047s.02-.19.026-.278c0-.007.027-.257.027-.623 0-.548-.257-.973-.777-1.305-.413-.236-.947-.318-1.455-.379-.541-.068-1.15-.074-1.726-.074-1.055 0-1.853.082-2.51.264-.52.143-.954.352-1.326.63-.52.392-.927.96-1.238 1.73-.291.717-.5 1.578-.73 2.639l-.86 4.046c-.278 1.305-.474 2.293-.474 3.146 0 .494.068.88.21 1.225.223.548.697.973 1.339 1.204.615.223 1.4.324 2.537.324.758 0 1.38-.014 1.948-.082.981-.114 1.685-.413 2.212-.927.575-.555.96-1.38 1.218-2.59l.087-.414h6.21v.04c0 .048-.352 1.678-.534 2.334a11.617 11.617 0 0 1-.63 1.773c-.601 1.32-1.44 2.327-2.645 3.187-1.164.811-2.402 1.312-3.897 1.576-1.28.225-4.615.245-4.69.245zm-13.476-.202H63.931l.014-.048 5.053-23.773c.088-.44.25-.737.514-.94.27-.21.643-.311 1.137-.311h15.242c.38 0 .65.087.812.25.122.128.189.31.189.534v.021c0 .095-.014.183-.034.278l-.785 3.707H74.276l-1.022 4.918H84.33l-1.008 4.634H72.246l-1.26 5.933H83.03zm32.392 0h-6.02l.013-.048 5.032-23.685c.122-.514.311-.866.596-1.082.223-.17.507-.25.873-.25h3.565c.385 0 .67.088.853.264.143.135.217.339.217.575 0 .075-.007.149-.02.223zm16.581 0h-7.59l-.014-.027-5.62-13.002.02-.021 9.721-10.554c.602-.657.955-.988 1.273-1.184.338-.21.636-.284 1.123-.284h4.898c.23 0 .371.074.453.142a.39.39 0 0 1 .101.122c.013.027.027.06.027.101h.007l-.007.082c-.007.101-.061.27-.264.493L124.6 88.81Zm-76.148 0h-.048l.014-.048 2.137-10.127h-9.924l-2.165 10.175h-6.021l.013-.048c.204-.96 4.986-23.543 5.02-23.67.175-.745.473-1.002.71-1.138.257-.148.615-.216 1.123-.216h3.254c.17 0 .446.074.657.223a.822.822 0 0 1 .257.277.825.825 0 0 1 .101.413c0 .069-.007.143-.02.217-.027.143-1.679 7.861-1.84 8.625h9.93c.806-3.809 1.774-8.348 1.787-8.402.176-.744.474-1.001.71-1.137.258-.148.616-.216 1.124-.216h3.254c.169 0 .446.074.656.223a.822.822 0 0 1 .257.277.825.825 0 0 1 .102.413c0 .069-.008.143-.021.217-.027.149-4.878 22.934-5.088 23.909l-.007.034zm93.907-20.173c.466.121.832.351 1.028.736v0c.128.258.189.555.189.913v0c0 .366-.06.792-.162 1.292v0c-.143.657-.278 1.198-.487 1.665v0c-.21.466-.494.852-.907 1.177v0c-.825.65-2.11 1.042-4.39 1.556v0c-3.018.67-5.094 1.224-6.563 1.954v0c-1.468.731-2.32 1.604-2.963 2.984v0c-.427.92-.75 2.07-1.063 3.524v0l-.853 4.33h19.532l.912-4.385h-13.59s.21-1.055.385-1.441v0c.223-.501.514-.873.893-1.15v0c.379-.279.838-.461 1.394-.616v0c1.116-.311 2.659-.52 4.925-1.096v0c2.795-.724 4.682-1.516 6.014-2.794v0c1.333-1.278 2.145-3.078 2.74-5.899v0c.223-1.042.344-2.07.344-2.848v0c0-1.116-.216-1.975-.602-2.632v0c-.385-.657-.94-1.13-1.67-1.482v0c-1.448-.697-3.58-.859-6.103-.859v0c-3.213 0-5.743.332-7.624 1.488v0c-1.88 1.15-3.187 3.248-3.917 6.663v0l-.203.968h5.939l.23-1.069c.23-1.021.446-1.718.833-2.212v0c.385-.5.946-.737 1.704-.832v0c.515-.068 1.13-.081 1.894-.081v0h.352v0c.74-.01 1.322.023 1.789.145zm16.386-2.416c-.69.717-6.488 6.779-8.863 9.268-.474.507-.981 1.07-1.204 1.536-.183.339-.42 1.278-.541 1.948-.25 1.4-.44 2.679-.555 3.2-.026.136-.04.257-.04.372 0 .433.183.717.427.927.236.204.561.298.88.298h11.506l-1.062 5 6.055-.576.94-4.43h2.166l.94-4.431h-2.165s2.166-10.107 2.233-10.486c.744-4.093-.954-5.29-4.783-5.29-.976.019-3.188-.185-5.934 2.664zm2.543 13.124h-8.693l10.344-10.716h.629zm-16.101 23.421v0c-3.91 0-7.665-1.042-10.859-3.017-3.139-1.935-4.965-4.221-5.832-5.514l-1.143 2.943a.627.627 0 0 1-1.21-.217l-.06-5.771v-.007c0-.162.067-.318.182-.427a.65.65 0 0 1 .446-.182h5.879a.628.628 0 0 1 .596.507c.007.04.013.074.013.114a.63.63 0 0 1-.4.581l-2.86 1.11c2.51 2.24 7.685 5.838 14.95 5.838.623 0 1.252-.027 1.874-.082a30.013 30.013 0 0 0 8.944-2.179c2.442-1.02 4.593-2.32 6.237-3.768l-2.956-.872a.623.623 0 0 1-.453-.596v-.06a.628.628 0 0 1 .568-.563l5.73-.52c.026 0 .047-.007.06-.007.149 0 .292.054.4.143a.63.63 0 0 1 .223.426c.474 5.636.474 5.636.474 5.655a.628.628 0 0 1-.623.623.636.636 0 0 1-.568-.345l-1.386-2.651c-1.11 1.501-3.044 3.619-6.075 5.459-3.07 1.867-6.501 2.977-10.195 3.288l-.371.034v0a22.45 22.45 0 0 1-1.585.057z" style="fill:#000;fill-opacity:1;stroke:#000;stroke-width:1;stroke-linecap:round;stroke-linejoin:round;stroke-dasharray:none;stroke-opacity:1"/></svg>