<?xml version="1.0" encoding="UTF-8"?>
<svg id="SVGRoot" width="192px" height="192px" version="1.1" viewBox="0 0 192 192" xmlns="http://www.w3.org/2000/svg">
 <g>
  <path d="m27.974 122.1h-0.0072c-2.6248 0-5.3446-0.16827-7.131-2.2787-0.92726-1.0838-1.5695-2.5411-2.0228-4.5774-0.49977-2.2417-0.74346-5.1564-0.74346-8.8754 0-2.8406 0.14869-6.166 0.43265-9.922 0.06815-0.8613 1.617-20.854 1.7182-21.917 0.41303-4.1667 0.92726-7.6062 1.5829-10.484 1.1296-4.951 2.6382-8.1481 4.7426-10.053 1.7523-1.5686 3.9847-2.2787 7.226-2.2787h0.02684c1.7048 0 3.105 0.33653 4.2821 1.0096 1.3868 0.80426 2.4493 2.1304 3.1525 3.9044 0.52765 1.3461 0.86633 2.9718 1.0078 4.8569 0.07434 0.95256 0.10842 2.0192 0.10842 3.1571 0 2.6523-0.19619 5.4387-0.35211 7.6604-0.02065 0.33653-0.0475 0.63599-0.06815 0.95256l-0.0072 0.09411h-6.2781l0.0072-0.13119s0.02065-0.52191 0.02685-0.76718c0-0.01997 0.02684-0.71014 0.02684-1.7197 0-1.5144-0.25711-2.6894-0.77753-3.6049-0.41303-0.6531-0.94688-0.87841-1.4549-1.0467-0.54107-0.18823-1.1503-0.20534-1.7254-0.20534-1.0553 0-1.8535 0.22531-2.5102 0.73011-0.52042 0.39357-0.9603 0.97253-1.3258 1.7369-0.52042 1.0838-0.92726 2.6523-1.2381 4.7828-0.29119 1.9793-0.5008 4.355-0.73106 7.2868l-0.84568 11.211c-0.27776 3.6049-0.47395 6.3342-0.47395 8.69 0 1.3632 0.06815 2.4299 0.20961 3.3824 0.22304 1.5144 0.69699 2.6894 1.3393 3.3254 0.61542 0.61602 1.4002 0.89552 2.537 0.89552 0.75791 0 1.3806-0.0371 1.9485-0.22531 0.98095-0.31657 1.6841-1.1408 2.2118-2.5611 0.57515-1.5315 0.9603-3.8131 1.2174-7.1556l0.08777-1.1408h6.2099v0.11122c0 0.13119-0.35211 4.6345-0.53488 6.4455-0.18896 1.888-0.39238 3.4766-0.62884 4.8968-0.60199 3.6249-1.4415 6.4284-2.6455 8.8012-1.1637 2.2417-2.4018 3.6249-3.897 4.355-1.2856 0.61602-2.6042 0.67306-4.0663 0.67306 0.0051 5e-3 -0.56276-0.0142-0.6371-0.0142z"/>
  <path d="m97.539 122.1c-2.632 0-5.3508-0.16827-7.1372-2.2787-0.92726-1.0838-1.5695-2.5411-2.0228-4.5774-0.5008-2.2417-0.74449-5.1564-0.74449-8.8754 0-2.8406 0.14869-6.166 0.43265-9.922 0.06815-0.85845 1.617-20.854 1.7182-21.917 0.4058-4.1667 0.92726-7.6062 1.5829-10.484 1.1296-4.951 2.6382-8.1481 4.7426-10.053 1.7533-1.5686 3.9858-2.2787 7.226-2.2787h0.0269c1.7048 0 3.105 0.33653 4.2821 1.0096 1.3868 0.80426 2.4493 2.1304 3.1525 3.9044 0.52765 1.3461 0.86633 2.9718 1.0078 4.8569 0.0743 0.95256 0.10841 2.0192 0.10841 3.1571 0 2.6523-0.19618 5.4387-0.35211 7.6804-0.0206 0.31657-0.0475 0.63599-0.0682 0.95256l-7e-3 0.09411h-6.2781l7e-3 -0.13119s0.0206-0.52191 0.0269-0.76718c0-0.01997 0.0269-0.71014 0.0269-1.7197 0-1.5144-0.25711-2.6894-0.77753-3.6049-0.41304-0.6531-0.94688-0.87841-1.4549-1.0467-0.54108-0.18823-1.1503-0.20534-1.7254-0.20534-1.0553 0-1.8535 0.22531-2.5102 0.73011-0.52042 0.39357-0.9541 0.97252-1.3258 1.7369-0.52042 1.0838-0.92726 2.6523-1.2381 4.7828-0.29119 1.9793-0.5008 4.355-0.73107 7.2868l-0.8591 11.174c-0.27776 3.6049-0.47395 6.3342-0.47395 8.69 0 1.3632 0.06815 2.4299 0.20961 3.3824 0.22304 1.5144 0.69699 2.6894 1.3393 3.3254 0.61542 0.61603 1.4002 0.89553 2.537 0.89553 0.75791 0 1.3806-0.0371 1.9485-0.22531 0.98095-0.31657 1.6841-1.1408 2.2118-2.5611 0.57514-1.5315 0.96029-3.8131 1.2174-7.1556l0.0878-1.1408h6.2099v0.11123c0 0.13119-0.35211 4.6345-0.53488 6.4455-0.18896 1.888-0.39239 3.4766-0.62884 4.8968-0.60199 3.6448-1.4415 6.4284-2.6455 8.8012-1.1637 2.2416-2.4018 3.6249-3.897 4.355-1.2804 0.62173-4.6156 0.67592-4.69 0.67592z"/>
  <path d="m84.063 121.54h-18.063l0.01343-0.13113 5.0534-65.661c0.08777-1.2149 0.24988-2.0363 0.51422-2.5982 0.27054-0.57895 0.64226-0.85845 1.1369-0.85845h15.242c0.37896 0 0.64949 0.24242 0.81161 0.69018 0.12184 0.35365 0.18896 0.85845 0.18896 1.4773v0.05705c0 0.26238-0.01343 0.5048-0.03407 0.76718l-0.78477 10.239h-11.797l-1.0212 13.584h11.074l-1.0078 12.8h-11.075l-1.2587 16.387h12.042z"/>
  <path d="m116.46 121.54h-6.021l0.0135-0.13113 5.0328-65.419c0.12184-1.4203 0.31081-2.3928 0.5958-2.9889 0.22304-0.46772 0.50699-0.69018 0.87252-0.69018h3.5655c0.38515 0 0.67014 0.24242 0.85291 0.73011 0.1425 0.37361 0.21684 0.93545 0.21684 1.5886 0 0.20534-7e-3 0.41068-0.0206 0.61603z"/>
  <path d="m133.04 121.54h-7.5905l-0.0134-0.0741-5.6214-35.912 0.0206-0.05705 9.7217-29.15c0.602-1.8139 0.95411-2.7293 1.2721-3.2712 0.33868-0.57895 0.63607-0.7843 1.1234-0.7843h4.8975c0.23026 0 0.37172 0.20534 0.4533 0.39357 0.0475 0.11122 0.0816 0.22531 0.10122 0.33653 0.0135 0.07415 0.0269 0.16827 0.0269 0.27949h7e-3l-7e-3 0.2253c-7e-3 0.2795-0.0609 0.74722-0.26434 1.3632l-10.493 31.149z"/>
  <path d="m56.888 121.54h-0.0475l0.01343-0.13113 2.1374-27.972h-9.9241l-2.1653 28.103h-6.021l0.01343-0.13114c0.20342-2.6523 4.9863-65.025 5.0194-65.379 0.17554-2.0563 0.47395-2.7664 0.71042-3.14 0.25711-0.41069 0.61542-0.59892 1.1234-0.59892h3.2537c0.16934 0 0.44608 0.20534 0.65672 0.61603 0.11462 0.22531 0.20342 0.48484 0.25711 0.76718 0.06815 0.33653 0.1012 0.71014 0.1012 1.1408 0 0.18823-0.0072 0.39358-0.02065 0.59892-0.02684 0.39357-1.6779 21.712-1.8401 23.823h9.9313c0.80541-10.521 1.7729-23.058 1.7864-23.207 0.17554-2.0563 0.47396-2.7664 0.71042-3.14 0.25711-0.41069 0.61542-0.59892 1.1234-0.59892h3.2537c0.16934 0 0.44608 0.20534 0.65672 0.61603 0.11462 0.22531 0.20342 0.48484 0.25711 0.76718 0.06815 0.33653 0.1012 0.71014 0.1012 1.1408 0 0.18823-0.0072 0.39358-0.02065 0.59892-0.02684 0.41068-4.8779 63.342-5.0875 66.035l-0.0072 0.0941z"/>
  <path d="m150.79 65.818c0.46673 0.33653 0.83226 0.97253 1.0284 2.0363 0.12804 0.71014 0.18896 1.5315 0.18896 2.5212 0 1.0096-0.0609 2.1875-0.16212 3.5678-0.14249 1.8139-0.27776 3.3083-0.48737 4.5974s-0.49358 2.3557-0.90661 3.2513c-0.82503 1.7939-2.1106 2.8776-4.3905 4.2979-3.0172 1.8509-5.0937 3.3824-6.562 5.3988-1.4683 2.0192-2.3202 4.4291-2.9635 8.2394-0.42646 2.5411-0.75069 5.7182-1.0625 9.7338l-0.85291 11.958h19.531l0.91281-12.11h-13.591s0.20961-2.9147 0.38515-3.9814c0.22303-1.3832 0.51422-2.4099 0.89318-3.1771 0.37895-0.76718 0.83845-1.272 1.394-1.6998 1.1162-0.85844 2.6589-1.4374 4.9254-3.0259 2.7942-1.9992 4.6817-4.1867 6.0137-7.7175 1.3331-3.5308 2.1447-8.5018 2.7394-16.293 0.22304-2.8776 0.34488-5.7182 0.34488-7.8658 0-3.083-0.21683-5.4558-0.60199-7.2697-0.38515-1.8139-0.94067-3.1201-1.6707-4.0926-1.4477-1.9251-3.5789-2.3728-6.1025-2.3728-3.2134 0-5.7432 0.91548-7.6246 4.1097-1.8803 3.1771-3.1865 8.9695-3.9166 18.404l-0.20342 2.6723h5.9394l0.23027-2.9518c0.23027-2.8206 0.44608-4.7457 0.83226-6.1089 0.38515-1.3832 0.94688-2.0363 1.7048-2.2987 0.51422-0.18823 1.1296-0.22531 1.8938-0.22531h0.3521c0.74036-0.02852 1.3217 0.0656 1.7884 0.40213z"/>
  <path d="m167.18 59.147c-0.68977 1.9793-6.4877 18.723-8.8626 25.599-0.47395 1.4003-0.98095 2.9518-1.204 4.2409-0.18276 0.93545-0.41923 3.5308-0.54107 5.3817-0.24988 3.8673-0.43988 7.398-0.55449 8.8383-0.0268 0.3736-0.0402 0.71014-0.0402 1.0267 0 1.195 0.18276 1.9793 0.42645 2.5611 0.23646 0.56184 0.56173 0.82137 0.87976 0.82137h11.507l-1.0625 13.809 6.055-1.5886 0.94068-12.238h2.1653l0.94068-12.238h-2.1653s2.1653-27.915 2.2324-28.962c0.7445-11.305-0.95409-14.611-4.7829-14.611-0.97578 0.05133-3.1876-0.5105-5.9342 7.3581zm2.5432 36.249h-8.6933l10.344-29.598h0.62884z"/>
  <path d="m152.55 171.71c-3.9104 0-7.6648-2.8776-10.859-8.3335-3.139-5.3446-4.9657-11.659-5.832-15.23l-1.1431 8.1281c-0.10122 0.74722-0.38515 1.2149-0.68976 1.0838-0.29738-0.1483-0.52042-0.85845-0.52042-1.6827l-0.061-15.94v-0.0199c0-0.44777 0.0682-0.87841 0.18277-1.1779 0.12185-0.31658 0.27776-0.5048 0.44608-0.5048h5.8793c0.29118 0.0199 0.54107 0.61602 0.59579 1.4003 7e-3 0.11122 0.0134 0.20534 0.0134 0.31656 0 0.71015-0.16211 1.3462-0.39961 1.6057l-2.8613 3.063c2.5102 6.186 7.6855 16.125 14.951 16.125 0.62265 0 1.2515-0.0741 1.8741-0.22531 3.0647-0.71014 6.1562-2.8035 8.9432-6.0177 2.442-2.8206 4.5939-6.4084 6.2378-10.407l-2.9563-2.4099c-0.26433-0.20533-0.4533-0.87841-0.4533-1.6456v-0.16827c0.0269-0.82138 0.27054-1.4773 0.56792-1.5515l5.7298-1.4374c0.0268 0 0.0475-0.0199 0.0609-0.0199 0.14869 0 0.29119 0.14832 0.3996 0.39358 0.12804 0.29946 0.20962 0.73011 0.22304 1.1779 0.47396 15.566 0.47396 15.566 0.47396 15.62 0 0.76718-0.18897 1.4574-0.46053 1.6627-0.0537 0.0371-0.10843 0.057-0.16211 0.057-0.2437 0-0.46054-0.37361-0.56792-0.95255l-1.3868-7.3239c-1.109 4.1468-3.044 9.9962-6.0747 15.078-3.0709 5.1564-6.5011 8.2222-10.195 9.0807l-0.37173 0.0942c-0.52249 0.10269-1.0574 0.15971-1.585 0.15971z"/>
 </g>
</svg>
