<svg xmlns="http://www.w3.org/2000/svg" width="192" height="192" viewBox="0 0 50.8 50.8"><path d="M44.979 33.275a20.377 18.62 0 0 1-22.813 11.03A20.377 18.62 0 0 1 5.82 26.052 20.377 18.62 0 0 1 22.167 7.802a20.377 18.62 0 0 1 22.812 11.03" style="fill:none;stroke:#000;stroke-width:3.175;stroke-linecap:round;stroke-miterlimit:4;stroke-dasharray:none;stroke-opacity:1;paint-order:normal"/><path d="M9.806 39.758c.22 3.617-2.194 5.393-2.192 5.4.002.004 5.007.476 7.221-1.538l-5.24-5.1Z" style="fill:none;fill-opacity:1;stroke:#000;stroke-width:.308737;stroke-linecap:butt;stroke-linejoin:miter;stroke-miterlimit:4;stroke-dasharray:none;stroke-opacity:1"/><path d="M9.795 39.309s.171 1.67-.369 3.24c-.54 1.57-1.918 2.628-1.918 2.628s2.155.154 4.128-.187c1.973-.34 3.024-1.231 3.186-1.387 1.424-1.378.033-.791.033-.791l-.165-1.067-4.586-3.425-.464-.424.092.736z" style="fill:#000;fill-opacity:1;stroke:#000;stroke-width:1.85243;stroke-linecap:butt;stroke-linejoin:round;stroke-miterlimit:4;stroke-dasharray:none;stroke-opacity:1"/><circle cx="16.863" cy="26.053" r="3.705" style="fill:#000;fill-opacity:1;stroke:none;stroke-width:3.70484;stroke-linecap:butt;stroke-linejoin:round;stroke-miterlimit:4;stroke-dasharray:none;stroke-opacity:1;paint-order:normal"/><circle cx="26.198" cy="26.053" r="3.705" style="fill:#000;fill-opacity:1;stroke:none;stroke-width:3.70484;stroke-linecap:butt;stroke-linejoin:round;stroke-miterlimit:4;stroke-dasharray:none;stroke-opacity:1;paint-order:normal"/><circle cx="35.533" cy="26.053" r="3.705" style="fill:#000;fill-opacity:1;stroke:none;stroke-width:3.70484;stroke-linecap:butt;stroke-linejoin:round;stroke-miterlimit:4;stroke-dasharray:none;stroke-opacity:1;paint-order:normal"/></svg>