<svg
    xmlns="http://www.w3.org/2000/svg"
    viewBox="0 0 192 192"
    id="vector">
    <g id="group">
        <path
            id="path_6"
            d="M 54.086 169.613 C 40.809 166.47 29.86 160.757 22.201 152.978 C 19.448 150.183 16.827 147.206 16.376 146.364 C 15.373 144.489 14.81 144.62 36.298 141.74 C 45.149 140.554 53.44 139.37 54.721 139.109 C 56.47 138.753 57.05 138.965 57.05 139.957 C 57.05 142.255 60.994 142.403 72.1 140.522 C 84.237 138.467 86.697 137.675 86.697 135.823 C 86.697 135.114 86.983 134.536 87.332 134.538 C 87.682 134.541 94.963 133.539 103.512 132.314 C 117.062 130.371 119.483 130.225 122.381 131.182 C 125.447 132.194 125.91 132.128 128.329 130.34 C 130.539 128.705 134.096 127.963 150.965 125.615 C 178.835 121.736 176.112 121.873 175.776 124.37 C 175.331 127.669 169.974 139.566 166.73 144.458 C 158.294 157.178 145.23 165.564 127.601 169.573 C 119.293 171.463 62.03 171.494 54.086 169.613 Z M 56.576 136.693 C 54.5 133.524 55.675 131.304 60.007 130.213 L 63.695 129.284 L 60.808 126.75 C 56.022 122.547 54.869 114.087 58.357 108.764 C 60.824 104.998 66.642 102.776 87.274 97.718 C 102.508 93.983 107.279 93.105 108.574 93.798 C 109.646 94.371 111.408 97.915 113.504 103.714 L 116.767 112.737 L 122.908 116.885 C 128.194 120.455 129.05 121.379 129.05 123.519 C 129.05 126.221 127.148 127.758 123.805 127.758 C 120.613 127.758 108.96 118.799 107.731 115.401 C 107.156 113.812 106.376 112.511 105.997 112.511 C 105.339 112.511 83.27 123.358 82.529 124.046 C 82.333 124.228 83 125.257 84.012 126.334 C 86.099 128.556 86.425 132.156 84.669 133.613 C 83.661 134.449 62.173 138.77 59.02 138.77 C 58.424 138.77 57.324 137.835 56.576 136.693 Z M 63.168 120.185 C 62.896 118.331 63.357 117.139 64.97 115.526 C 68.12 112.376 71.731 112.622 75.34 116.231 C 77.77 118.662 78.154 118.825 77.83 117.29 C 77.619 116.292 77.023 113.284 76.506 110.604 C 75.598 105.906 75.484 105.752 73.296 106.266 C 62.299 108.848 58.554 113.923 62.28 121.193 C 63.359 123.299 63.587 123.04 63.168 120.185 Z M 116.674 94.734 C 110.642 93.37 107.034 88.765 107.044 82.441 C 107.053 77.294 108.2 74.896 112.196 71.676 C 117.731 67.216 126.567 68.616 131.079 74.668 C 133.666 78.14 133.569 85.683 130.889 89.442 C 127.751 93.842 122.074 95.955 116.674 94.734 Z M 31.395 88.976 C 29.2 86.748 27.404 84.552 27.404 84.099 C 27.404 83.026 63.162 47.288 64.235 47.288 C 64.684 47.288 67.357 49.573 70.175 52.366 L 75.298 57.444 L 85.428 47.287 L 95.558 37.131 L 101.723 43.255 L 107.889 49.379 L 115.703 41.565 L 123.517 33.751 L 117.18 27.372 L 110.843 20.993 L 127.782 21.223 L 144.72 21.454 L 145.017 23.995 C 145.18 25.392 145.042 32.773 144.711 40.396 L 144.108 54.256 L 138.468 48.66 L 132.829 43.063 L 120.578 55.336 L 108.328 67.609 L 102.167 61.489 L 96.007 55.37 L 85.886 65.464 L 75.765 75.559 L 69.937 70.379 L 64.109 65.199 L 50.213 79.114 C 42.57 86.767 36.108 93.029 35.852 93.029 C 35.596 93.029 33.591 91.205 31.395 88.976 Z"
            fill="#000000"
            stroke-width="12"/>
    </g>
</svg>
