<svg xmlns="http://www.w3.org/2000/svg" viewBox="0 0 192 192"><path d="M54.086 169.613c-13.277-3.143-24.226-8.856-31.885-16.635-2.753-2.795-5.374-5.772-5.825-6.614-1.003-1.875-1.566-1.744 19.922-4.624 8.851-1.186 17.142-2.37 18.423-2.631 1.749-.356 2.329-.144 2.329.848 0 2.298 3.944 2.446 15.05.565 12.137-2.055 14.597-2.847 14.597-4.699 0-.709.286-1.287.635-1.285.35.003 7.631-.999 16.18-2.224 13.55-1.943 15.971-2.089 18.869-1.132 3.066 1.012 3.529.946 5.948-.842 2.21-1.635 5.767-2.377 22.636-4.725 27.87-3.879 25.147-3.742 24.811-1.245-.445 3.299-5.802 15.196-9.046 20.088-8.436 12.72-21.5 21.106-39.129 25.115-8.308 1.89-65.571 1.921-73.515.04Zm2.49-32.92c-2.076-3.169-.901-5.389 3.431-6.48l3.688-.929-2.887-2.534c-4.786-4.203-5.939-12.663-2.451-17.986 2.467-3.766 8.285-5.988 28.917-11.046 15.234-3.735 20.005-4.613 21.3-3.92 1.072.573 2.834 4.117 4.93 9.916l3.263 9.023 6.141 4.148c5.286 3.57 6.142 4.494 6.142 6.634 0 2.702-1.902 4.239-5.245 4.239-3.192 0-14.845-8.959-16.074-12.357-.575-1.589-1.355-2.89-1.734-2.89-.658 0-22.727 10.847-23.468 11.535-.196.182.471 1.211 1.483 2.288 2.087 2.222 2.413 5.822.657 7.279-1.008.836-22.496 5.157-25.649 5.157-.596 0-1.696-.935-2.444-2.077Zm6.592-16.508c-.272-1.854.189-3.046 1.802-4.659 3.15-3.15 6.761-2.904 10.37.705 2.43 2.431 2.814 2.594 2.49 1.059a562.33 562.33 0 0 1-1.324-6.686c-.908-4.698-1.022-4.852-3.21-4.338-10.997 2.582-14.742 7.657-11.016 14.927 1.079 2.106 1.307 1.847.888-1.008Zm53.506-25.451c-6.032-1.364-9.64-5.969-9.63-12.293.009-5.147 1.156-7.545 5.152-10.765 5.535-4.46 14.371-3.06 18.883 2.992 2.587 3.472 2.49 11.015-.19 14.774-3.138 4.4-8.815 6.513-14.215 5.292Zm-85.279-5.758c-2.195-2.228-3.991-4.424-3.991-4.877 0-1.073 35.758-36.811 36.831-36.811.449 0 3.122 2.285 5.94 5.078l5.123 5.078 10.13-10.157 10.13-10.156 6.165 6.124 6.166 6.124 7.814-7.814 7.814-7.814-6.337-6.379-6.337-6.379 16.939.23 16.938.231.297 2.541c.163 1.397.025 8.778-.306 16.401l-.603 13.86-5.64-5.596-5.639-5.597-12.251 12.273-12.25 12.273-6.161-6.12-6.16-6.119-10.121 10.094-10.121 10.095-5.828-5.18-5.828-5.18-13.896 13.915c-7.643 7.653-14.105 13.915-14.361 13.915-.256 0-2.261-1.824-4.457-4.053Z"/></svg>