<?xml version="1.0" encoding="UTF-8" standalone="no"?>
<svg
   viewBox="0 0 192 192"
   id="vector"
   version="1.1"
   sodipodi:docname="chipolo.svg"
   inkscape:version="1.1.2 (b8e25be833, 2022-02-05)"
   xmlns:inkscape="http://www.inkscape.org/namespaces/inkscape"
   xmlns:sodipodi="http://sodipodi.sourceforge.net/DTD/sodipodi-0.dtd"
   xmlns="http://www.w3.org/2000/svg"
   xmlns:svg="http://www.w3.org/2000/svg">
  <defs
     id="defs1144" />
  <sodipodi:namedview
     id="namedview1142"
     pagecolor="#ffffff"
     bordercolor="#666666"
     borderopacity="1.0"
     inkscape:pageshadow="2"
     inkscape:pageopacity="0.0"
     inkscape:pagecheckerboard="0"
     showgrid="false"
     inkscape:zoom="3.7447917"
     inkscape:cx="96.133519"
     inkscape:cy="95.866481"
     inkscape:window-width="1280"
     inkscape:window-height="961"
     inkscape:window-x="-8"
     inkscape:window-y="-8"
     inkscape:window-maximized="1"
     inkscape:current-layer="vector" />
  <g
     id="group"
     transform="matrix(1.0040773,0,0,0.63830202,-0.71784762,34.692923)"
     style="stroke-width:1.24911">
    <path
       id="path_6"
       d="M 54.455,173.9 C 40.186,168.159 26.304,149.601 19.961,127.788 15.529,112.547 15.55,79.077 20.002,63.713 33.135,18.387 68.178,2.28 95.204,29.147 c 8.318,8.269 17.91,27.498 19.892,39.877 l 1.18,7.371 H 103.625 C 91.402,76.395 90.79,76.069 85.565,66.74 75.397,48.585 58.935,48.449 47.468,66.425 37.28,82.394 37.269,109.271 47.444,125.22 c 11.493,18.016 27.935,17.909 38.105,-0.249 5.229,-9.335 5.873,-9.684 17.884,-9.684 7.214,0 12.459,1.182 12.459,2.808 0,7.216 -8.1,28.567 -13.83,36.452 -12.341,16.986 -32.81,25.307 -47.607,19.354 z m 90.536,-2.735 c -15.183,-14.514 -10.412,-51.896 7.289,-57.101 8.389,-2.467 17.497,4.64 21.07,16.442 3.502,11.569 3.529,18.946 0.107,29.319 -5.184,15.713 -18.389,20.973 -28.466,11.34 z"
       fill="#000000"
       stroke-width="14.9895" />
  </g>
</svg>
