<svg viewBox="0 0 192 192" xmlns="http://www.w3.org/2000/svg"><path d="M54.455 173.9c-14.269-5.741-28.151-24.299-34.494-46.112-4.432-15.241-4.411-48.711.041-64.075C33.135 18.387 68.178 2.28 95.204 29.147c8.318 8.269 17.91 27.498 19.892 39.877l1.18 7.371h-12.651c-12.223 0-12.835-.326-18.06-9.655-10.168-18.155-26.63-18.291-38.097-.315-10.188 15.969-10.199 42.846-.024 58.795 11.493 18.016 27.935 17.909 38.105-.249 5.229-9.335 5.873-9.684 17.884-9.684 7.214 0 12.459 1.182 12.459 2.808 0 7.216-8.1 28.567-13.83 36.452-12.341 16.986-32.81 25.307-47.607 19.354zm90.536-2.735c-15.183-14.514-10.412-51.896 7.289-57.101 8.389-2.467 17.497 4.64 21.07 16.442 3.502 11.569 3.529 18.946.107 29.319-5.184 15.713-18.389 20.973-28.466 11.34z" transform="matrix(1.00408 0 0 .6383 -.718 34.693)" style="stroke-width:1.24911"/></svg>