<svg xmlns="http://www.w3.org/2000/svg" viewBox="0 0 192 192"><path d="M76.04 172.869c-15.714-4.222-29.826-15.502-37.321-29.829-3.375-6.452-3.971-9.5-4.002-20.465-.032-11.744.366-13.533 4.505-20.233 4.166-6.746 15.62-17.221 18.829-17.221.743 0 .859 2.193.259 4.883-4.994 22.389 6.251 43.702 23.06 43.702 9.001 0 14.168-4.69 14.168-12.859 0-7.464-2.683-12.53-12.419-23.445C72.407 85.391 68.226 76.513 67.32 63.857c-.836-11.696 1.513-19.688 8.707-29.62C79.741 29.111 95.028 16 97.292 16c.402 0 .443 1.956.093 4.347-1.1 7.494 3.889 14.841 18.658 27.473 26.252 22.455 36.941 37.423 41.104 57.555 6.33 30.617-13.903 61.078-45.394 68.342-9.228 2.129-26.129 1.728-35.713-.848Z"/></svg>