<svg
    xmlns="http://www.w3.org/2000/svg"
    viewBox="0 0 192 192"
    id="vector">
    <path
        id="path_6"
        d="M 76.04 172.869 C 60.326 168.647 46.214 157.367 38.719 143.04 C 35.344 136.588 34.748 133.54 34.717 122.575 C 34.685 110.831 35.083 109.042 39.222 102.342 C 43.388 95.596 54.842 85.121 58.051 85.121 C 58.794 85.121 58.91 87.314 58.31 90.004 C 53.316 112.393 64.561 133.706 81.37 133.706 C 90.371 133.706 95.538 129.016 95.538 120.847 C 95.538 113.383 92.855 108.317 83.119 97.402 C 72.407 85.391 68.226 76.513 67.32 63.857 C 66.484 52.161 68.833 44.169 76.027 34.237 C 79.741 29.111 95.028 16 97.292 16 C 97.694 16 97.735 17.956 97.385 20.347 C 96.285 27.841 101.274 35.188 116.043 47.82 C 142.295 70.275 152.984 85.243 157.147 105.375 C 163.477 135.992 143.244 166.453 111.753 173.717 C 102.525 175.846 85.624 175.445 76.04 172.869 Z"
        fill="#000000"
        stroke-width="12"/>
</svg>
