<svg xmlns="http://www.w3.org/2000/svg" width="192" height="192" viewBox="0 0 192 192"><g fill="none" stroke="#000" stroke-linecap="round" stroke-linejoin="round" stroke-width="8"><path d="m159.41 153.22-12-11.722.5-42.604.5-42.604 11.761 11.63 11.761 11.631-.26 42.696-.262 42.696z"/><path d="M95.721 171.42 20 171.122V20.002h152v52.412L145.678 45.92l-99.413.588-.291 48.37c-.21 34.772.064 48.803.975 49.91 1.034 1.258 10.112 1.54 49.57 1.54h48.306l8.314 8.177c4.572 4.498 10.744 10.334 13.715 12.971 2.97 2.637 5.217 4.67 4.994 4.52-.223-.15-34.48-.408-76.127-.572z"/></g></svg>