<?xml version="1.0" encoding="UTF-8"?>
<svg id="SVGRoot" width="192px" height="192px" version="1.1" viewBox="0 0 192 192" xmlns="http://www.w3.org/2000/svg">
 <g fill="none" stroke="#000" stroke-linecap="round" stroke-linejoin="round" stroke-width="8">
  <path d="m159.41 153.22-12-11.722 0.5-42.604 0.50003-42.604 11.761 11.63 11.761 11.631-0.26079 42.696-0.26078 42.696z"/>
  <path d="m95.721 171.42-75.721-0.29783v-151.12h152v52.412l-26.322-26.494-99.413 0.58734-0.2914 48.37c-0.20938 34.772 0.06463 48.803 0.97504 49.91 1.0347 1.2581 10.112 1.5402 49.571 1.5402h48.305l8.3139 8.1773c4.5726 4.4975 10.744 10.334 13.715 12.971 2.9704 2.6365 5.2179 4.6703 4.9946 4.5196-0.22337-0.15043-34.48-0.40796-76.127-0.57184z"/>
 </g>
</svg>
