<svg
    xmlns="http://www.w3.org/2000/svg"
    viewBox="0 0 192 192"
    id="vector">
    <path
        id="path"
        d="M 165.137 25.394 C 153.339 25.033 141.53 25.306 129.761 26.209 C 120.203 19.899 108.996 16.523 97.534 16.5 C 74.182 16.5 64.816 21.559 61.953 23.599 C 61.62 23.833 61.341 24.136 61.136 24.489 C 60.931 24.841 60.806 25.233 60.767 25.638 C 59.8 32.712 60.921 39.916 63.993 46.364 C 67.065 52.812 71.957 58.229 78.067 61.947 C 85.551 66.598 95.448 70.106 97.943 78.265 C 85.674 84.915 62.935 97.277 62.935 98.99 C 62.935 100.703 79.294 99.724 91.277 101.275 C 85.178 111.753 77.257 121.065 67.884 128.771 C 67.5 129.062 67.046 129.247 66.568 129.306 C 66.09 129.366 65.604 129.299 65.16 129.112 C 64.716 128.925 64.329 128.625 64.039 128.241 L 63.753 127.874 C 52.588 105.436 25.8 102.213 25.31 104.538 C 24.369 109.475 49.603 113.881 54.428 139.99 C 59.95 170.261 52.833 173.402 55.655 175.32 C 58.477 177.237 65.961 164.305 67.352 146.11 C 67.402 145.526 67.635 144.972 68.016 144.526 C 68.397 144.08 68.909 143.763 69.479 143.621 C 101.705 136.237 123.994 122.652 137.531 107.965 C 143.502 116.124 151.232 136.726 152.541 136.726 C 154.545 136.726 151.273 103.722 148.655 92.544 C 152.195 86.302 154.199 79.311 154.504 72.146 C 154.424 64.563 152.869 57.067 149.923 50.075 C 154.85 42.293 160.316 34.863 166.282 27.841 C 166.562 27.559 166.719 27.178 166.719 26.781 C 166.719 26.384 166.562 26.002 166.282 25.72 C 165.955 25.472 165.546 25.355 165.137 25.394 Z M 105.713 48.647 C 99.415 47.546 84.324 45.547 81.175 47.75 C 80.345 48.29 79.704 49.077 79.345 49.999 C 78.985 50.921 78.925 51.932 79.171 52.89 C 79.194 53.034 79.179 53.181 79.126 53.316 C 79.073 53.452 78.985 53.57 78.871 53.66 C 78.757 53.751 78.62 53.809 78.476 53.829 C 78.374 53.879 78.262 53.905 78.149 53.905 C 78.035 53.905 77.923 53.879 77.822 53.829 C 74.223 51.218 69.642 46.322 73.936 40.774 C 78.231 35.225 97.125 39.02 106.368 47.179 C 106.507 47.232 106.629 47.323 106.721 47.441 C 106.812 47.558 106.87 47.699 106.887 47.847 C 106.904 47.995 106.88 48.145 106.818 48.28 C 106.735 48.49 106.573 48.66 106.366 48.752 C 106.16 48.843 105.925 48.85 105.713 48.77 Z M 106.163 30.615 C 103.996 29.351 102.851 29.024 104.118 26.536 C 104.627 25.658 105.445 25.001 106.412 24.691 C 107.38 24.382 108.429 24.444 109.353 24.863 L 110.089 25.353 C 110.772 25.636 111.365 26.099 111.805 26.692 C 112.245 27.285 112.515 27.985 112.588 28.719 C 112.66 29.453 112.532 30.193 112.216 30.86 C 112.223 30.969 112.223 31.078 112.216 31.187 C 110.212 34.369 108.372 31.839 106.163 30.615 Z"
        fill="none"
        stroke="#000000"
        stroke-width="6"
        stroke-linecap="round"
        stroke-linejoin="round"/>
</svg>
