<svg xmlns="http://www.w3.org/2000/svg" viewBox="0 0 192 192"><path d="M91.517 34.385c-10.473-.347-20.137 5.271-24.485 14.233-4.142 8.549-2.684 18.575 3.747 25.766l-4.38 9.939 3.097 9.489-6.485 4.841 1.352 4.568-6.313 6.803-.36 8.251-7.443 5.951-3.747 7.72 3.713 9.36 11.498-4.02 26.401-54.362c.223.003.445.003.667 0-2.607-4.265-3.998-9.09-4.038-14.008.031-13.343 9.882-24.888 23.732-27.809a26.025 26.025 0 0 0-7.117-4.535 27.251 27.251 0 0 0-9.839-2.187Z" fill="none" stroke="#000" stroke-width="8" stroke-linecap="round" stroke-linejoin="round"/><path d="M115.129 40.352c-16.779-.004-30.384 12.779-30.388 28.552v.012c.013 11.015 6.765 21.04 17.35 25.765l.479 12.61 8.23 8.717-4.414 8.122 3.815 4.262-3.217 10.148 3.902 8.959-4.86 9.763v9.955l8.812 8.283 10.181-9.553V95.856c12.234-3.964 20.454-14.777 20.481-26.94.003-15.77-13.593-28.558-30.371-28.564Z" fill="none" stroke="#000" stroke-width="8" stroke-linecap="round" stroke-linejoin="round"/><path d="M92.585 32.741c2.803-10.531 13.536-17.432 24.993-16.07 11.457 1.362 20.025 10.556 19.951 21.411-.073 10.855-8.765 19.946-20.239 21.171" fill="none" stroke="#000" stroke-width="8" stroke-linecap="round" stroke-linejoin="round"/><path d="M122.582 60.215c0 3.309-2.853 5.991-6.373 5.991s-6.373-2.682-6.373-5.991c0-3.308 2.853-5.99 6.373-5.99s6.373 2.682 6.373 5.99Zm-33.368-5.782c-2.093-.829-3.391-2.819-3.229-4.948.162-2.129 1.75-3.924 3.946-4.465 2.197-.54 4.516.296 5.767 2.077l-4.426 2.744-2.059 4.592Z" fill="none" stroke="#000" stroke-width="8" stroke-linecap="round" stroke-linejoin="round"/></svg>