<svg xmlns="http://www.w3.org/2000/svg" viewBox="0 0 48 48"><path d="M9.46 34.61 18 43.06a1.487 1.487 0 0 0 1.442.391c.253-.069.484-.204.668-.391l18-18a1.497 1.497 0 0 0 .387-1.441 1.497 1.497 0 0 0-.387-.669l-18-18a1.488 1.488 0 0 0-2.12 0l-8.5 8.5" fill="none" stroke="#000" stroke-width="2" stroke-linecap="round" stroke-linejoin="round"/><path d="m9.46 34.61 9.36-9.36a1.738 1.738 0 0 0 .449-1.674 1.738 1.738 0 0 0-.449-.776l-9.36-9.36Z" fill="none" stroke="#000" stroke-width="2" stroke-linecap="round" stroke-linejoin="round"/></svg>