<svg xmlns="http://www.w3.org/2000/svg" xml:space="preserve" width="192" height="192" viewBox="0 0 192 192"><path d="M43.376 172.405c-4.458-1.598-7.7-4.706-9.49-9.096-.978-2.4-1.34-5.207-2.73-21.173-2.006-23.04-3.919-44.134-4.269-47.075l-.267-2.246h137.54l-.295 2.775c-.162 1.526-1.463 16.09-2.89 32.367-1.429 16.276-2.917 30.971-3.307 32.656-1.2 5.174-3.398 8.113-8.22 10.996l-2.117 1.265-51.037.103c-40.294.081-51.432-.04-52.918-.572zm63.114-8.556c7.257-2.363 13.33-6.52 18.373-12.575 3.385-4.065 6.71-10.084 6.71-12.145 0-3.473-2.464-6.152-5.66-6.152-2.71 0-3.463.605-5.884 4.734-7.38 12.583-19.837 17.925-31.99 13.718-4.173-1.446-5.811-2.401-9.801-5.718-2.835-2.357-3.52-2.694-5.491-2.694-1.887 0-2.486.264-3.699 1.626-1.221 1.372-1.447 2.03-1.447 4.21 0 3.078 1.426 5.216 5.61 8.403 10.324 7.868 22.16 10.213 33.279 6.593zm-32.234-35.947c1.828-1.83 2.283-4.012 2.272-10.894-.008-5.17-.188-6.928-.881-8.644-2.11-5.219-8.421-5.103-10.506.193-.8 2.028-.9 3.283-.76 9.38.175 7.6.638 9.116 3.265 10.703 1.553.938 5.36.513 6.61-.738zm45.667-7.65c2.006-2.254 3.185-3.027 4.83-3.167 3.11-.266 3.905.053 6.04 2.417 2.705 2.996 4.783 3.246 6.93.833 3.88-4.357-1.421-11.752-9.467-13.209-4.736-.857-9.32.578-12.655 3.962-3.603 3.657-4.235 6.668-1.939 9.247 1.928 2.166 4.287 2.135 6.26-.083zM23.395 84.757c-6.09-3.496-5.966-12.315.225-16.165 1.264-.786 4.766-.905 33.632-1.142l32.222-.264 1.881-3.18c1.035-1.749 7.14-12.142 13.569-23.097 10.632-18.12 11.866-20.014 13.672-20.996 7.078-3.85 14.094 4.323 10.64 12.396-.497 1.162-5.14 9.247-10.317 17.967-5.178 8.719-9.423 16.15-9.434 16.514-.016.52 5.811.66 27.615.663 28.593.003 30.056.102 32.702 2.215 2.63 2.1 3.843 6.789 2.665 10.298-.742 2.213-3.233 4.863-5.124 5.453-1.06.331-27.215.522-71.772.524l-70.105.003zm77.213-8.67c1.785-1.814.529-5.466-1.88-5.466-2.516 0-3.813 3.28-2.126 5.375.97 1.203 2.87 1.247 4.006.091z" style="fill:none;fill-opacity:1;stroke:#000;stroke-width:5.99999;stroke-linecap:round;stroke-linejoin:round;stroke-dasharray:none;stroke-opacity:1"/></svg>