<?xml version="1.0" encoding="UTF-8" standalone="no"?>
<!-- Created with Inkscape (http://www.inkscape.org/) -->

<svg
   width="192px"
   height="192px"
   viewBox="0 0 192 192"
   version="1.1"
   id="SVGRoot"
   sodipodi:docname="collectandgo.svg"
   xml:space="preserve"
   inkscape:version="1.2.2 (732a01da63, 2022-12-09)"
   xmlns:inkscape="http://www.inkscape.org/namespaces/inkscape"
   xmlns:sodipodi="http://sodipodi.sourceforge.net/DTD/sodipodi-0.dtd"
   xmlns="http://www.w3.org/2000/svg"
   xmlns:svg="http://www.w3.org/2000/svg"><sodipodi:namedview
     id="namedview187"
     pagecolor="#ffffff"
     bordercolor="#666666"
     borderopacity="1.0"
     inkscape:showpageshadow="2"
     inkscape:pageopacity="0.0"
     inkscape:pagecheckerboard="0"
     inkscape:deskcolor="#d1d1d1"
     inkscape:document-units="px"
     showgrid="false"
     inkscape:current-layer="layer1"
     inkscape:zoom="0.25"
     inkscape:cx="362.5"
     inkscape:cy="362.5" /><defs
     id="defs182" /><g
     inkscape:label="Ebene 1"
     inkscape:groupmode="layer"
     id="layer1"><path
       style="fill:none;fill-opacity:1;stroke:#000000;stroke-width:5.99999;stroke-linecap:round;stroke-linejoin:round;stroke-dasharray:none;stroke-opacity:1"
       d="m 43.376221,172.40513 c -4.458469,-1.59801 -7.700729,-4.70583 -9.489961,-9.09641 -0.977803,-2.39943 -1.339717,-5.2063 -2.730025,-21.17286 -2.006196,-23.03959 -3.919181,-44.134224 -4.269008,-47.07467 l -0.267196,-2.245877 h 68.770054 68.770045 l -0.29492,2.774319 c -0.16221,1.525877 -1.46315,16.091038 -2.89097,32.367038 -1.42782,16.27601 -2.91583,30.97148 -3.30669,32.6566 -1.2,5.17354 -3.39746,8.11293 -8.22028,10.99571 l -2.11672,1.26524 -51.036399,0.10265 c -40.294313,0.0811 -51.432427,-0.0393 -52.91793,-0.57174 z M 106.48995,163.849 c 7.25725,-2.36265 13.33001,-6.51912 18.37259,-12.575 3.38511,-4.06536 6.71023,-10.08353 6.71023,-12.14492 0,-3.47327 -2.46416,-6.15221 -5.65896,-6.15221 -2.71149,0 -3.46377,0.60514 -5.88496,4.73394 -7.3789,12.58293 -19.83676,17.9252 -31.989012,13.71775 -4.174246,-1.44524 -5.812102,-2.40069 -9.802079,-5.71803 -2.834583,-2.35672 -3.520706,-2.69327 -5.490797,-2.69327 -1.886922,0 -2.485756,0.26325 -3.698764,1.62598 -1.221407,1.37217 -1.447326,2.02919 -1.447326,4.20914 0,3.07909 1.426526,5.21619 5.60955,8.40379 10.324424,7.86754 22.161271,10.21247 33.279528,6.59283 z M 74.255904,127.90163 c 1.827635,-1.82931 2.282834,-4.01192 2.271893,-10.89315 -0.008,-5.1706 -0.1874,-6.92835 -0.881105,-8.64424 -2.109945,-5.21902 -8.420906,-5.10352 -10.506113,0.19229 -0.798867,2.02888 -0.900456,3.28321 -0.759685,9.38001 0.175495,7.60075 0.637771,9.11598 3.265323,10.70302 1.553085,0.93805 5.359833,0.51306 6.609687,-0.73793 z m 45.667006,-7.64928 c 2.00645,-2.25411 3.18513,-3.02723 4.82933,-3.16761 3.10983,-0.26554 3.90575,0.0529 6.04015,2.41687 2.70557,2.99652 4.78361,3.24635 6.93152,0.83331 3.8782,-4.35689 -1.42216,-11.75143 -9.46788,-13.20867 -4.73575,-0.85773 -9.32078,0.57752 -12.65474,3.96134 -3.60373,3.65762 -4.23505,6.66811 -1.9392,9.24733 1.92778,2.16574 4.28723,2.13461 6.26082,-0.0826 z M 23.394614,84.756577 c -6.088731,-3.495209 -5.965659,-12.314298 0.225581,-16.164651 1.26423,-0.786227 4.765672,-0.905099 33.632283,-1.141815 l 32.221134,-0.26422 1.881532,-3.179788 c 1.03484,-1.748882 7.140733,-12.142422 13.568646,-23.096755 10.63264,-18.119932 11.86622,-20.014367 13.67198,-20.996422 7.0783,-3.84949 14.09423,4.323501 10.64092,12.395811 -0.49733,1.162572 -5.14048,9.24773 -10.31808,17.967019 -5.17761,8.719288 -9.42282,16.1505 -9.4338,16.513803 -0.0157,0.521171 5.81129,0.661176 27.61494,0.663501 28.59352,0.0032 30.05576,0.1021 32.70216,2.215291 2.62951,2.099679 3.84298,6.788314 2.6652,10.297849 -0.74248,2.212438 -3.23316,4.862874 -5.12447,5.453148 -1.05965,0.33071 -27.21499,0.521403 -71.771995,0.523274 l -70.104776,0.003 z m 77.213536,-8.669081 c 1.78481,-1.8146 0.5286,-5.466735 -1.880368,-5.466735 -2.516069,0 -3.813148,3.279959 -2.125537,5.374918 0.969303,1.203267 2.869848,1.246833 4.005905,0.09181 z"
       id="path4912" /></g></svg>
