<svg width="192" height="192" fill="none" xmlns="http://www.w3.org/2000/svg"><path d="M103.67 155.73H87.4V172h16.27v-16.27Zm67.3 0H154.7V172h16.27v-16.27Zm-33.626 0h-16.27V172h16.27v-16.27Zm33.626-33.761H154.7v16.27h16.27v-16.27Zm-33.626 0h-16.27v16.27h16.27v-16.27ZM36.27 155.73H20V172h16.27v-16.27Zm0-67.872H20v16.27h16.27v-16.27Zm0 34.111H20v16.27h16.27v-16.27Zm33.674 0h-16.27v16.27h16.27v-16.27ZM36.27 53.896H20v16.27h16.27v-16.27Zm33.674 0h-16.27v16.27h16.27v-16.27Zm33.726 0H87.4v16.27h16.27v-16.27Zm33.625 33.962h-16.269v16.27h16.269v-16.27Zm-33.625 0H87.4v16.27h16.27v-16.27Zm67.3-33.962H154.7v16.27h16.27v-16.27Zm-33.626 0h-16.27v16.27h16.27v-16.27ZM171.317 20h-16.27v16.27h16.27V20ZM69.755 20h-16.27v16.27h16.27V20Zm67.937 0h-16.27v16.27h16.27V20Z" stroke="#000" stroke-width="8" stroke-miterlimit="6" stroke-linecap="round" stroke-linejoin="round"/></svg>