<svg width="192" height="192" viewBox="0 0 192 192" xmlns="http://www.w3.org/2000/svg"><g fill="none"><path style="fill-opacity:0;stroke:#000;stroke-width:8;stroke-linecap:round;stroke-linejoin:round;stroke-miterlimit:6;paint-order:stroke fill markers;stroke-dasharray:none" d="M88.107 155.634h16.224v16.224H88.107ZM155.215 155.634h16.223v16.224h-16.223zM121.685 155.634h16.224v16.224h-16.224ZM155.215 121.97h16.223v16.223h-16.223zM121.685 121.97h16.224v16.223h-16.224ZM20.898 155.635h16.224v16.223H20.898ZM20.898 87.955h16.224v16.224H20.898ZM20.898 121.97h16.224v16.223H20.898ZM54.476 121.97H70.7v16.223H54.476ZM20.898 54.09h16.224v16.224H20.898ZM54.476 54.09H70.7v16.224H54.476ZM88.107 54.09h16.224v16.224H88.107ZM121.637 87.955h16.223v16.224h-16.223ZM88.107 87.955h16.224v16.224H88.107ZM155.215 54.09h16.223v16.224h-16.223zM121.685 54.09h16.224v16.224h-16.224ZM155.562 20.29h16.223v16.224h-16.223zM54.289 20.29h16.223v16.224H54.29ZM122.032 20.29h16.224v16.224h-16.224Z"/></g></svg>