<svg width="192" height="192" viewBox="0 0 192 192" xmlns="http://www.w3.org/2000/svg"><path style="fill-opacity:0;stroke:#000;stroke-width:8;stroke-linecap:round;stroke-linejoin:round;stroke-miterlimit:6;paint-order:stroke fill markers;stroke-dasharray:none" d="M88.107 155.634h16.224v16.224H88.107Zm67.108 0h16.223v16.224h-16.223zm-33.53 0h16.224v16.224h-16.224Zm33.53-33.664h16.223v16.223h-16.223zm-33.53 0h16.224v16.223h-16.224ZM20.898 155.635h16.224v16.223H20.898Zm0-67.68h16.224v16.224H20.898Zm0 34.015h16.224v16.223H20.898Zm33.578 0H70.7v16.223H54.476ZM20.898 54.09h16.224v16.224H20.898Zm33.578 0H70.7v16.224H54.476Zm33.631 0h16.224v16.224H88.107Zm33.53 33.865h16.223v16.224h-16.223Zm-33.53 0h16.224v16.224H88.107Zm67.108-33.865h16.223v16.224h-16.223zm-33.53 0h16.224v16.224h-16.224Zm33.877-33.8h16.223v16.224h-16.223zm-101.273 0h16.223v16.224H54.29Zm67.743 0h16.224v16.224h-16.224Z" fill="none"/></svg>