<svg xmlns="http://www.w3.org/2000/svg" viewBox="0 0 192 192"><path d="m63.162 146.205-42.368-22.812-.228-29.986c-.22-29.096-.278-30-1.945-30.436-1.639-.428-1.718-1.213-1.718-17.08v-16.63l10.592-1.117c5.826-.615 10.981-1.396 11.457-1.737.982-.704 14.963-2.272 27.341-3.068 6.863-.441 16.849.392 57.067 4.761 26.812 2.913 49.625 5.482 50.695 5.709l1.945.414v40.486l-1.945.276-1.946.276-.225 39.055-.225 39.055-32.016 7.853c-17.608 4.319-32.487 7.839-33.064 7.823-.577-.016-20.114-10.295-43.417-22.842Zm71.941 12.906c14.634-3.578 28.071-6.901 29.861-7.383l3.254-.876v-36.715c0-30.517-.2-36.714-1.185-36.714-.652 0-13.867 2.334-29.368 5.188-15.5 2.853-28.974 5.188-29.942 5.188-1.744 0-1.76.35-1.76 38.909 0 33.602.173 38.91 1.267 38.91.697 0 13.24-2.928 27.873-6.507Zm-8.347-37.513c-.802-1.498-.477-1.753 3.208-2.515 2.255-.466 8.312-1.722 13.46-2.79 5.148-1.068 9.914-2.497 10.592-3.175.686-.687 1.232-2.887 1.232-4.969 0-3.421.919-4.786 3.22-4.786.585 0-.34 9.489-1.123 11.531-.609 1.587-5.113 3.051-17.661 5.741-4.517.969-9.074 1.957-10.125 2.196-1.304.296-2.194-.095-2.803-1.233Zm-2.16-13.768c1.124-.986 32.178-7.284 33.491-6.792 1.656.62-.254 1.117-17.106 4.445-16.858 3.33-17.632 3.441-16.385 2.347Zm-21.227 17.311V86.393L65.108 75.744 25.322 64.67c-1.438-.401-1.512 1.216-1.297 28.38l.228 28.805 39.341 21.014c21.639 11.558 39.44 21.015 39.559 21.017.118.002.216-17.434.216-38.745ZM139.2 78.272c16.198-2.861 30.326-5.398 31.396-5.636 1.936-.432 1.945-.517 1.945-17.224v-16.79l-3.242.483c-1.783.265-3.745 1.116-4.358 1.891-1.598 2.016-13.117 3.754-14.881 2.246-1.778-1.521-17.226.804-18.791 2.829-1.415 1.83-14.586 3.843-15.775 2.41-.448-.54-2.193-.821-3.876-.625l-3.061.358v17.63c0 9.697.268 17.631.597 17.631.328 0 13.849-2.341 30.046-5.203Zm-34.102-13.387c0-9.749-.161-17.725-.358-17.725-.197 0-19.296-3.113-42.443-6.918-23.146-3.804-42.245-6.917-42.442-6.917-.197 0-.358 5.984-.358 13.298V59.92l8.43 2.291c4.637 1.261 23.216 6.339 41.288 11.286 18.071 4.947 33.538 9.022 34.37 9.054 1.394.055 1.513-1.338 1.513-17.666Zm20.027-18.126c2.481-.337 4.23-1.068 4.551-1.903.451-1.176-.144-1.277-4.463-.76-7.993.959-9.083 1.338-7.911 2.751.556.669 1.636 1.046 2.401.837.765-.208 3.205-.625 5.422-.925Zm10.448-6.968c14.146-2.129 26.176-3.872 26.733-3.872.557 0 .806-.206.553-.459-.252-.253-20.421-2.79-44.818-5.639-41.861-4.887-44.85-5.128-53.078-4.284-19.224 1.974-41.149 4.912-41.845 5.608-.248.248-.094.465.342.482.436.018 19.08 2.883 41.431 6.368 22.352 3.485 41.612 6.186 42.801 6.002 1.189-.183 13.736-2.076 27.881-4.206Zm24.131 1.775c1.738-.278 3.396-1.124 3.686-1.879.453-1.181-.049-1.294-3.591-.809-8.213 1.127-9.046 1.413-7.952 2.731.553.666 1.836 1.042 2.852.837 1.015-.206 3.268-.602 5.005-.88Z"/></svg>