<svg xmlns="http://www.w3.org/2000/svg" viewBox="0 0 192 192"><path fill="none" stroke="#000" stroke-linecap="round" stroke-linejoin="round" stroke-width="8" d="M115.447 104.517H76.431a.486.486 0 0 0-.273.225.489.489 0 0 0-.053.351 22.223 22.223 0 0 0 7.88 9.978A21.924 21.924 0 0 0 96 119.042a21.92 21.92 0 0 0 12.006-3.954 22.224 22.224 0 0 0 7.889-9.954.531.531 0 0 0-.192-.506.54.54 0 0 0-.256-.111Zm12.435-28.267c-.053-.027-.113-.036-.172-.027a.298.298 0 0 0-.155.078.295.295 0 0 0-.081.155c-.371.902-1 1.673-1.805 2.215a4.853 4.853 0 0 1-2.721.829 4.977 4.977 0 0 1-2.683-.86 5.046 5.046 0 0 1-1.801-2.184 5.027 5.027 0 0 1 .012-3.779 4.96 4.96 0 0 1 2.638-2.681.29.29 0 0 0 .247-.144.292.292 0 0 0 .038-.144.333.333 0 0 0-.08-.22.33.33 0 0 0-.205-.109 11.555 11.555 0 0 0-4.892-.33 11.34 11.34 0 0 0-7.198 3.689 11.537 11.537 0 0 0-2.96 7.58 11.54 11.54 0 0 0 2.769 7.653 11.35 11.35 0 0 0 7.103 3.872c2.756.37 5.554-.292 7.859-1.861a11.474 11.474 0 0 0 4.657-6.655c.567-2.281.41-4.685-.448-6.871a.336.336 0 0 0-.122-.206Z"/><path fill="none" stroke="#000" stroke-linecap="round" stroke-linejoin="round" stroke-width="8" d="M165.308 68.515a33.308 33.308 0 0 0-11.427-18.907 32.762 32.762 0 0 0-20.659-7.468h-74.24a32.762 32.762 0 0 0-20.659 7.468 33.303 33.303 0 0 0-11.427 18.907 14.879 14.879 0 0 0-7.494 5.41 15.113 15.113 0 0 0-2.902 8.826v24.029a17.547 17.547 0 0 0 4.11 11.279 17.252 17.252 0 0 0 10.363 5.92 47.234 47.234 0 0 0 17.3 18.891 46.646 46.646 0 0 0 24.529 6.99h46.029a46.686 46.686 0 0 0 24.549-6.985 47.285 47.285 0 0 0 17.321-18.896 17.247 17.247 0 0 0 10.565-5.825 17.55 17.55 0 0 0 4.234-11.374V82.751a15.119 15.119 0 0 0-2.819-8.779 14.894 14.894 0 0 0-7.373-5.457Zm-17.246 39.088a27.208 27.208 0 0 1-7.857 19.062 26.71 26.71 0 0 1-18.887 7.93H70.886a26.756 26.756 0 0 1-18.902-7.927 27.253 27.253 0 0 1-7.883-19.065V78.472c0-6.254 2.461-12.26 6.84-16.686a23.302 23.302 0 0 1 16.521-6.932h57.076a23.343 23.343 0 0 1 16.495 6.929 23.778 23.778 0 0 1 6.866 16.648Z"/><path fill="none" stroke="#000" stroke-linecap="round" stroke-linejoin="round" stroke-width="8" d="M85.4 83.204c.614-2.22.529-4.579-.245-6.748a.322.322 0 0 0-.203-.206.284.284 0 0 0-.408.206 4.925 4.925 0 0 1-2.077 2.392 4.853 4.853 0 0 1-5.916-.796 4.977 4.977 0 0 1-.751-5.975 4.905 4.905 0 0 1 2.384-2.081.286.286 0 0 0 .285-.288.333.333 0 0 0-.08-.22.33.33 0 0 0-.205-.109 9.902 9.902 0 0 0-1.835-.453 11.258 11.258 0 0 0-8.37 1.969 11.455 11.455 0 0 0-4.594 7.33 11.58 11.58 0 0 0 1.497 8.662 11.39 11.39 0 0 0 7.126 5.057c2.945.665 6.034.122 8.583-1.508a11.495 11.495 0 0 0 5.013-7.191Z"/></svg>