<svg xmlns="http://www.w3.org/2000/svg" viewBox="0 0 192 192"><path fill="none" stroke="#000" stroke-linecap="round" stroke-linejoin="round" stroke-width="8" d="m129.501 60.501 35.898-13.565c-16.891-19.099-45.512-32.341-71.182-30.211a88.843 88.843 0 0 0-38.455 13.396 88.797 88.797 0 0 0-28.431 29.146 79.75 79.75 0 0 0-.92 71.832 87.403 87.403 0 0 0 27.958 30.087 87.432 87.432 0 0 0 38.621 13.999c26.116 2.003 42.205-5.751 59.829-16.648a59.89 59.89 0 0 0 20.864-24.355l-31.603-9.865c-3.002-.938-6.608-1.86-8.897 2.773l-18.141 36.726a4.667 4.667 0 0 1-7.374 1.56 4.673 4.673 0 0 1-1.447-2.484l-8.399-44.395a8.377 8.377 0 0 0-6.98-8.054L43.592 98.42c-3.408-.867-2.364-5.676 0-6.474L84.36 78.188c3.729-1.257 4.229-4.48 3.683-7.823l-6.712-41.003c-.486-2.968 4.268-5.701 6.405-3.468l31.64 33.064a9.682 9.682 0 0 0 10.125 1.542Z"/></svg>