<svg xmlns="http://www.w3.org/2000/svg" viewBox="0 0 192 192"><path fill="none" stroke="#000" stroke-linecap="round" stroke-linejoin="round" stroke-width="12" d="M99.954 157.66v-15.246c12.125-12.193 22.289-16.063 37.773-16.063 15.484 0 25.647 3.87 37.773 16.063v15.246H99.953Zm37.773-86.596a20.212 20.212 0 0 0-11.922 3.895 20.401 20.401 0 0 0-7.369 10.199 20.515 20.515 0 0 0 0 12.606 20.395 20.395 0 0 0 7.369 10.198 20.206 20.206 0 0 0 11.922 3.896 20.21 20.21 0 0 0 11.923-3.896 20.393 20.393 0 0 0 7.368-10.198 20.515 20.515 0 0 0 0-12.606 20.4 20.4 0 0 0-7.368-10.199 20.215 20.215 0 0 0-11.923-3.895Z"/><path fill="none" stroke="#000" stroke-linecap="round" stroke-linejoin="round" stroke-width="12" d="M99.954 157.66H16.5v-25.781c20.505-20.62 37.692-27.164 63.877-27.164 23.506 0 39.76 5.273 57.674 21.269M80.377 34.34a27.852 27.852 0 0 0-19.743 8.223 28.165 28.165 0 0 0-8.178 19.854c0 7.444 2.943 14.59 8.178 19.853a27.849 27.849 0 0 0 19.743 8.224c7.402 0 14.508-2.96 19.743-8.224a28.164 28.164 0 0 0 8.177-19.853c0-7.444-2.943-14.59-8.177-19.854a27.855 27.855 0 0 0-19.743-8.223Z"/></svg>