<svg
    xmlns="http://www.w3.org/2000/svg"
    viewBox="0 0 192 192"
    id="vector">
    <path
        id="path"
        d="M 99.954 157.66 L 99.954 142.414 C 112.079 130.221 122.243 126.351 137.727 126.351 C 153.211 126.351 163.374 130.221 175.5 142.414 L 175.5 157.66 L 99.953 157.66 Z M 137.727 71.064 C 133.444 71.064 129.27 72.428 125.805 74.959 C 122.34 77.491 119.76 81.062 118.436 85.158 C 117.113 89.254 117.113 93.668 118.436 97.764 C 119.76 101.86 122.34 105.431 125.805 107.962 C 129.27 110.494 133.444 111.858 137.727 111.858 C 142.01 111.858 146.185 110.494 149.65 107.962 C 153.114 105.431 155.695 101.86 157.018 97.764 C 158.341 93.668 158.341 89.254 157.018 85.158 C 155.695 81.062 153.114 77.491 149.65 74.959 C 146.185 72.428 142.01 71.064 137.727 71.064 Z"
        fill="none"
        stroke="#000000"
        stroke-width="12"
        stroke-linecap="round"
        stroke-linejoin="round"/>
    <path
        id="path_1"
        d="M 99.954 157.66 L 16.5 157.66 L 16.5 131.879 C 37.005 111.259 54.192 104.715 80.377 104.715 C 103.883 104.715 120.137 109.988 138.051 125.984 M 80.377 34.34 C 72.974 34.34 65.868 37.3 60.634 42.563 C 55.399 47.827 52.456 54.973 52.456 62.417 C 52.456 69.861 55.399 77.007 60.634 82.27 C 65.868 87.534 72.974 90.494 80.377 90.494 C 87.779 90.494 94.885 87.534 100.12 82.27 C 105.354 77.007 108.297 69.861 108.297 62.417 C 108.297 54.973 105.354 47.827 100.12 42.563 C 94.885 37.3 87.779 34.34 80.377 34.34 Z"
        fill="none"
        stroke="#000000"
        stroke-width="12"
        stroke-linecap="round"
        stroke-linejoin="round"/>
</svg>
