<svg xmlns="http://www.w3.org/2000/svg" viewBox="0 0 192 192"><path d="M80.45 175.091c-30.457-6.466-54.475-29.305-62.172-59.12-2.633-10.198-3.031-24.925-.947-35.029 4.295-20.827 15.878-38.605 32.886-50.475 13.894-9.696 27.55-14.024 44.758-14.187 17.591-.166 30.819 3.675 45.185 13.121 42.676 28.057 48.19 88.212 11.42 124.573-5.368 5.307-15.698 12.439-22.264 15.371-10.67 4.764-17.744 6.257-31.113 6.569-8.517.198-14.181-.064-17.753-.823Zm35.103-15.79c20.275-6.761 34.164-19.727 42.009-39.218 9.267-23.024 3.745-50.892-13.703-69.15-11.433-11.965-24.388-18.402-41.374-20.561-20.264-2.575-43.731 7.051-57.11 23.426-11.829 14.477-18.007 35.903-14.923 51.747 2.729 14.015 8.155 24.933 17.193 34.594 9.296 9.937 18.913 15.921 31.651 19.694 7.828 2.319 9.247 2.475 19.714 2.164 7.644-.226 10.561-.702 16.543-2.696Zm-32.596-16.693-10-9.078 5.45-5.111c2.997-2.811 7.588-6.981 10.202-9.267l4.752-4.156v14.01h3.547c8.281 0 20.93-6.197 25.931-12.705 4.069-5.295 5.178-7.412 6.437-12.292 1.636-6.342 1.517-10.474-.493-17.043l-1.699-5.551 2.897-2.681c1.594-1.474 3.216-2.68 3.606-2.68 1.345 0 4.933 9.514 5.732 15.199 1.761 12.535-2.499 24.163-12.16 33.193-8.665 8.098-16.165 11.388-29.934 13.13l-3.802.481-.233 6.814-.232 6.814Zm-30.184-30.506c-1.142-2.576-2.51-7.219-3.041-10.316-2.72-15.873 6.682-32.993 22.628-41.201 4.616-2.376 13.318-4.894 16.964-4.908 6.295-.025 6.458-.224 6.458-7.865v-6.871l10.193 9.204 10.194 9.205-6.361 5.964c-3.498 3.28-8.084 7.439-10.193 9.242l-3.833 3.279V63.834l-3.833.009c-7.217.017-16.441 3.913-22.923 9.684-9.343 8.319-12.583 21.486-8.337 33.874l1.391 4.056-3.054 2.664c-1.679 1.466-3.307 2.665-3.616 2.665-.309 0-1.496-2.108-2.637-4.684Z"/></svg>