<svg xmlns="http://www.w3.org/2000/svg" viewBox="0 0 192 192"><path d="M16.322 137.995c.26-19.155.333-19.987 2.255-25.715 5.982-17.829 20.819-31.505 38.484-35.474 6.061-1.362 8.557-1.408 68.064-1.272L176 75.65v19.197l-57.535.206-57.534.207-5.812 2.775c-13.064 6.238-20.242 18.317-19.589 32.966l.241 5.402 17.39-19.998 17.39-19.997 11.47-.008c6.308-.004 11.877.252 12.375.568.607.386-9.028 10.498-29.251 30.698l-30.156 30.123H16.054Zm75.789-66.23c.808-.916 3.725-4.232 6.483-7.37l5.014-5.704-2.099-.555c-1.154-.304-9.625-.568-18.824-.585-16.72-.031-16.725-.031-14.43-1.428 10.494-6.387 34.084-14.571 52.245-18.125 9.408-1.842 23.43-3.787 27.291-3.787 3.076 0 5.269 1.72 5.269 4.134 0 .875-6.513 7.936-16.841 18.256l-16.84 16.829H90.643Z"/></svg>