<svg xmlns="http://www.w3.org/2000/svg" viewBox="0 0 192 192"><path d="m101.504 163.81.445-12.191-3.456-4.045c-4.698-5.5-5.787-8.196-6.31-15.629-.43-6.107 1.414-25.05 2.804-28.808.729-1.971 1.621 10.23 1.627 22.257.003 6.884.211 8.385 1.159 8.385 1.56 0 1.796-1.562 2.36-15.6.686-17.101 1.512-20.073 2.188-7.872.295 5.322.537 12.616.537 16.209 0 5.27.241 6.625 1.248 7.011 2.126.816 2.624-1.34 2.737-11.838.059-5.577.341-12.597.625-15.6l.517-5.46.535 6.63c.294 3.647.808 11.015 1.141 16.373.521 8.375.798 9.78 1.972 10.002 1.247.237 1.372-.738 1.449-11.303.047-6.359.31-13.668.585-16.242l.501-4.68 1.419 7.41c.879 4.59 1.472 11.566 1.557 18.33.154 12.263-.236 13.581-5.811 19.677-1.658 1.814-3.076 3.745-3.149 4.29-.074.546-.162 6.258-.195 12.693l-.061 11.7-3.435.245-3.434.246.445-12.19Zm49.085-7.996c-7.543-10.685-15.241-39.342-13.465-50.125.941-5.711 2.01-8.31 3.818-9.277 2.996-1.604 3.321-.831 15.041 35.807 2.951 9.223 5.367 17.354 5.369 18.069.005 1.215-7.253 7.671-8.624 7.671-.343 0-1.306-.965-2.139-2.145Zm-25.111-108.29v-7.475l-3.08 2.439c-4.584 3.63-9.292 4.975-15.908 4.543-6.006-.392-10.563-2.23-13.598-5.483l-1.776-1.903-2.674 2.522c-5.313 5.011-15.228 6.468-23.344 3.432-4.036-1.51-4.42-1.528-6.75-.323-1.36.703-4.993 1.468-8.074 1.702-14.565 1.101-23.859-7.16-21.341-18.968C30.438 20.954 38.098 16 47.501 16c3.643 0 8.799 1.038 9.998 2.012.149.121-.728 1.473-1.95 3.004-1.98 2.482-2.618 2.784-5.889 2.784-4.874 0-7.303 1.22-8.828 4.435-1.645 3.466-.92 6.667 2.083 9.194 1.909 1.606 3.163 1.969 6.768 1.959 2.434-.007 4.776-.27 5.205-.585.429-.315.78-3.408.78-6.874 0-5.656.217-6.585 2.124-9.085 6.239-8.18 22.846-9.171 30.632-1.828l2.692 2.539 1.776-1.904c7.942-8.512 26.801-7.036 32.446 2.539.911 1.545.928 1.545 1.829.033 3.332-5.595 10.775-8.657 19.522-8.031 11.529.825 18.872 9.488 16.261 19.185-1.081 4.017-4.01 7.513-8.126 9.702-2.616 1.39-4.601 1.725-10.627 1.791l-7.41.082-.235 4.024-.236 4.024h-10.838Zm-46.662-9.58c2.216-1.981 2.502-2.705 2.502-6.344 0-3.64-.286-4.364-2.502-6.344-3.983-3.558-9.184-2.608-11.41 2.085-1.526 3.214-1.525 5.306.003 8.525 2.236 4.712 7.404 5.654 11.407 2.078Zm34.242-.044c1.93-1.93 2.28-2.897 2.28-6.3s-.35-4.37-2.28-6.3c-5.994-5.993-14.458.725-11.855 9.41 1.668 5.568 7.821 7.224 11.855 3.19Zm35.048 1.105c1.548-.8 2.569-2.166 3.205-4.29 2.603-8.69-5.858-15.411-11.854-9.415-1.93 1.93-2.28 2.897-2.28 6.3s.35 4.37 2.28 6.3c2.563 2.562 5.184 2.897 8.649 1.105Z"/></svg>