<svg width="24" height="24" fill="none" viewBox="0 0 24 24" xmlns="http://www.w3.org/2000/svg"><path d="M13.739 15.321v1.75a.833.833 0 0 1-.277 1.62.832.832 0 0 1-.831-.835c0-.363.231-.67.554-.786v-1.749a3.314 3.314 0 0 1-1.871-.776l-1.235 1.238a.835.835 0 0 1-.16.947.834.834 0 0 1-1.178-1.179.834.834 0 0 1 .947-.161l1.235-1.238a3.329 3.329 0 0 1-.775-1.875H8.401A.83.83 0 0 1 6.787 12a.83.83 0 0 1 1.614-.277h1.747c.059-.712.34-1.36.775-1.875L9.688 8.609a.834.834 0 0 1-.947-.16.834.834 0 0 1 1.177-1.18.834.834 0 0 1 .161.947l1.235 1.239a3.314 3.314 0 0 1 1.87-.777V6.93a.836.836 0 0 1-.553-.786.832.832 0 1 1 1.108.786v1.75a3.307 3.307 0 0 1 2.074.964l4.703-4.715A9.927 9.927 0 0 0 13.462 2C7.95 2 3.483 6.477 3.483 12c0 5.522 4.468 10 9.979 10a9.927 9.927 0 0 0 7.054-2.929l-4.703-4.715a3.307 3.307 0 0 1-2.074.965z" fill="#000"/></svg>