<svg xmlns="http://www.w3.org/2000/svg" viewBox="0 0 192 192"><path d="M88.864 175.829c-4.493-.854-7.227-2.015-9.08-3.855-2.092-2.077-2.131-3.149-.192-5.204.998-1.057 2.435-1.936 4.667-2.857 1.774-.731 3.552-1.625 3.951-1.986 2.08-1.883 4.123-8.573 4.154-13.606.016-2.507.66-3.607 2.459-4.201 1.496-.494 2.76-.133 3.876 1.106.589.653.801 1.657 1.007 4.755.528 7.972 2.685 12.056 7.264 13.759 5.867 2.181 7.961 5.006 5.773 7.787-.953 1.213-4.739 3.104-7.868 3.931-3.3.871-12.282 1.08-16.011.371Zm41.006-20.859-1.923-.678-.1-15.477-.101-15.478h5.392v10.229l3.557-.019c2.942-.016 3.827.125 5.121.818 1.649.882 4.396 3.651 4.396 4.43 0 .252.506-.339 1.124-1.313 1.468-2.315 3.948-3.772 6.869-4.037 5.651-.512 10.08 4.105 10.08 10.509v2.071h-6.729c-4.634 0-6.729.131-6.729.422 0 1.057 1.354 3.1 2.54 3.833 1.595.986 5.145 1.077 7.276.187.786-.328 1.478-.597 1.538-.597.06 0 .375.781.701 1.736.573 1.683.566 1.752-.253 2.277-1.807 1.159-4.839 1.844-7.501 1.694-3.648-.206-6.003-1.454-7.761-4.112l-1.345-2.033-.573.892c-1.041 1.621-2.861 3.113-5.005 4.104-2.8 1.293-7.729 1.546-10.574.542Zm8.656-4.812c2.053-1.397 2.812-2.724 2.993-5.23.312-4.314-1.773-6.699-5.689-6.506l-2.115.104-.107 5.751c-.059 3.164-.021 5.975.084 6.249.324.844 3.397.61 4.834-.368Zm19.812-9.421c-.899-3.624-5.542-4.064-6.965-.659-.3.719-.546 1.4-.546 1.512 0 .113 1.749.205 3.887.205h3.887Zm-36.266 13.918c-.657-.46-.854-.98-.854-2.248 0-2.023.858-2.922 2.79-2.922 1.558 0 2.978 1.376 2.978 2.884 0 .472-.359 1.314-.797 1.871-.929 1.18-2.76 1.365-4.117.415Zm-49.305-4.785c-.423-.423-.769-1.096-.769-1.495 0-1.011 3.728-9.729 4.321-10.106.952-.604 2.547-.334 3.155.535.329.47.599 1.081.599 1.358 0 1.023-3.583 9.154-4.321 9.804-1.004.885-2.038.852-2.985-.096Zm-17.911-1.087c-6.697-2.306-14.398-12.849-11.38-15.581.957-.865 1.914-.802 4.903.323 3.436 1.293 5.457.722 9.714-2.746 2.276-1.854 2.585-1.941 3.821-1.075 1.331.932 1.073 2.292-.864 4.559-1.99 2.329-3.26 4.9-3.272 6.625-.004.664.334 1.962.753 2.884 1.926 4.244.348 6.395-3.675 5.011Zm-12.6-29.61c-.83-.917-.812-2.488.036-3.211.371-.316 2.715-1.409 5.209-2.429l4.536-1.855 1.04.773c2.47 1.837 1.292 3.404-4.29 5.704-4.618 1.903-5.593 2.055-6.531 1.018Zm-21.403-6.314c-1.603-1.093-3.238-4.26-4.121-7.979-1.065-4.492-.947-14.54.219-18.65 2.731-9.623 7.9-10.629 11.165-2.172.62 1.606 1.649 3.469 2.286 4.138 2.268 2.383 7.136 3.994 12.07 3.994 2.578 0 4.667.74 5.269 1.865.694 1.297.479 3-.531 4.2-.885 1.052-1.182 1.142-4.545 1.379-6.514.458-10.954 2.144-12.97 4.927-.632.873-1.15 1.778-1.15 2.011-.001 1.048-2.318 5.171-3.436 6.111-1.506 1.268-2.589 1.312-4.256.176Zm145.983.068c-1.255-.987-2.645-3.378-3.492-6.004-1.415-4.392-5.831-6.642-14.31-7.294-4.128-.317-5.304-1.105-5.304-3.553 0-1.2.248-1.826 1.033-2.611.94-.94 1.384-1.055 4.99-1.294 4.424-.294 6.566-.787 9.188-2.116 2.349-1.19 3.502-2.628 4.772-5.953 1.353-3.541 3.372-5.76 5.223-5.742 6.688.065 9.615 21.198 4.371 31.548-1.761 3.474-4.354 4.684-6.471 3.019Zm-83.014-8.509c-8.023-8.072-8.236-8.443-5.96-10.389 2.255-1.927 3.216-1.596 7.492 2.583 2.055 2.01 3.907 3.653 4.114 3.653.208 0 1.038.645 1.844 1.432l1.466 1.432 10.665-10.661c5.866-5.863 10.968-10.66 11.336-10.66.369 0 .671-.26.671-.577 0-.406.41-.577 1.384-.577 1.953 0 3.999 2.046 3.999 3.999 0 .762-.189 1.385-.42 1.385-.231 0-6.244 5.795-13.362 12.879-12.864 12.801-12.952 12.878-14.481 12.816-1.459-.059-1.908-.435-8.748-7.315ZM46.618 78.109c-2.22-.943-4.253-2-4.518-2.35-1.149-1.519-.141-3.564 1.758-3.565 1.32-.001 8.45 2.954 9.586 3.973 1.017.912 1.089 1.689.267 2.864-.88 1.256-2.441 1.053-7.093-.922Zm91.533 1.032c-.679-1.268-.467-2.654.503-3.289.495-.325 2.77-1.352 5.054-2.283 4.503-1.836 5.345-1.853 6.327-.129.942 1.655-.091 2.631-4.941 4.666-4.655 1.953-6.32 2.201-6.943 1.035ZM60.077 62.657c-.317-.107-1.355-.878-2.307-1.713-3.494-3.065-6.239-3.87-9.014-2.642-2.904 1.284-4.242 1.406-5.178.47-1.103-1.103-1.01-2.485.36-5.381 2.224-4.702 9.622-10.805 13.097-10.805 2.293 0 2.911 2.292 1.504 5.575-1.388 3.238-.799 5.528 2.443 9.492.983 1.201 1.787 2.509 1.787 2.906 0 1.369-1.467 2.513-2.692 2.098Zm69.43-.93c-.851-1.215-.761-1.651.676-3.278 2.026-2.293 3.009-3.871 3.568-5.728.483-1.605.449-1.935-.47-4.596-1.118-3.239-1.006-4.569.443-5.229 3.038-1.384 11.215 4.567 14.038 10.216 1.467 2.937 1.527 4.97.171 5.858-.917.6-1.105.587-3.365-.238-1.316-.48-3.086-.889-3.932-.908-1.865-.042-4.379 1.195-6.624 3.261-1.916 1.763-3.556 1.997-4.505.642Zm-53.382-8.278c-.699-.776-4.127-8.982-4.127-9.879 0-.898 1.415-2.138 2.439-2.138.496 0 1.171.303 1.5.673.694.782 4.136 9.008 4.136 9.886 0 .892-1.419 2.131-2.44 2.131-.496 0-1.175-.303-1.508-.673Zm36.5-.031c-.35-.386-.636-1.14-.636-1.673 0-1.301 3.326-9.226 4.127-9.832 1.455-1.103 3.564-.047 3.564 1.783 0 1.232-3.383 9.373-4.132 9.945-.904.69-2.185.592-2.923-.223ZM93.45 47.013c-.841-.84-.986-1.406-1.209-4.71-.541-8.037-2.708-12.315-7.066-13.945-6.048-2.263-8.09-4.686-6.327-7.511.864-1.385 4.346-3.322 7.57-4.209 3.425-.943 12.259-1.201 16.342-.477 8.236 1.46 12.469 4.963 10.106 8.362-1.07 1.539-2.064 2.211-4.915 3.324-1.48.577-3.113 1.368-3.627 1.757-2.494 1.882-4.204 6.153-4.504 11.251-.245 4.149-.687 5.764-1.789 6.536-1.305.914-3.468.736-4.581-.378Z"/></svg>