<svg xmlns="http://www.w3.org/2000/svg" width="192" height="192" viewBox="0 0 192 192"><g fill="none" stroke="#000" stroke-linecap="round" stroke-linejoin="round"><g stroke-width="8"><path d="m121.82 82.691 46.092-23.493a7.478 7.526 0 0 0 3.293-10.115l-1.53-3.046a12.942 13.025 0 0 0-13.82-6.938l-36.429 5.846" class="a"/><ellipse cx="110.56" cy="50.563" class="a" rx="10.482" ry="10.549"/><path d="M86.62 147.8a47.323 47.629 0 0 1-62.745-18.574 35.98 36.212 0 0 1 15.843-48.664l60.414-30.792" class="a"/><path d="M86.62 147.8a5.476 5.512 0 1 0-4.948-9.834c-6.06 3.088-16.383 6.356-22.236-5.275a21.378 21.516 0 0 1-1.464-14.502" class="a"/><path d="m62.164 102.6-1.516-3.014a6.536 6.578 0 0 0-8.784-2.897 6.536 6.578 0 0 0-2.878 8.841l4.521 8.988a7.125 7.171 0 0 0 9.576 3.158l19.91-10.148a13.778 13.867 0 0 0-18.516-6.107zM103.68 81.441l-1.517-3.014a6.536 6.578 0 0 0-8.784-2.896 6.536 6.579 0 0 0-2.878 8.84l4.522 8.989a7.125 7.171 0 0 0 9.575 3.157l5.306-2.704 14.604-7.444a13.779 13.868 0 0 0-18.518-6.106zM96.31 95.16l-16.393 8.35M44.026 78.364l-1.125 6.685M55.317 72.609l-1.125 6.685M66.608 66.854l-1.125 6.685M77.899 61.1l-1.125 6.685M89.19 55.345l-1.125 6.684" class="a"/></g><path stroke-width="2.046" d="m30.987 15.798 2.63.669 1.017-2.516 2.629.669 1.018-2.516 2.632.668 1.019-2.517" class="a" transform="matrix(3.8981 0 0 3.9233 2.444 1.85)"/></g><ellipse cx="110.56" cy="50.563" class="b" rx="2.924" ry="2.942"/></svg>