<?xml version="1.0" encoding="UTF-8"?>
<svg id="SVGRoot" width="192px" height="192px" version="1.1" viewBox="0 0 192 192" xmlns="http://www.w3.org/2000/svg">
 <g fill="none" stroke="#000" stroke-linecap="round" stroke-linejoin="round">
  <g stroke-width="8">
   <path class="a" d="m121.82 82.691 46.092-23.493a7.4782 7.5264 0 0 0 3.2928-10.115l-1.5304-3.046a12.942 13.025 0 0 0-13.819-6.9379l-36.429 5.8457"/>
   <ellipse class="a" cx="110.56" cy="50.563" rx="10.482" ry="10.549"/>
   <path class="a" d="m86.62 147.8a47.323 47.629 0 0 1-62.745-18.574 35.98 36.212 0 0 1 15.843-48.664l60.414-30.792"/>
   <path class="a" d="m86.62 147.8a5.4765 5.5118 0 1 0-4.9483-9.8341c-6.0589 3.088-16.383 6.3557-22.236-5.2748a21.378 21.516 0 0 1-1.4641-14.502"/>
   <path class="a" d="m62.164 102.6-1.5164-3.0139a6.536 6.5782 0 0 0-8.7841-2.8966 6.536 6.5782 0 0 0-2.878 8.8407l4.5218 8.9882a7.125 7.171 0 0 0 9.5754 3.1574l19.91-10.148a13.778 13.867 0 0 0-18.516-6.1066z"/>
   <path class="a" d="m103.68 81.441-1.5168-3.0135a6.536 6.5782 0 0 0-8.7841-2.8969 6.5364 6.5785 0 0 0-2.878 8.8407l4.5218 8.9886a7.125 7.171 0 0 0 9.5754 3.1574l5.3058-2.7043 14.604-7.4436a13.779 13.868 0 0 0-18.518-6.1066z"/>
   <line class="a" x1="96.31" x2="79.917" y1="95.16" y2="103.51"/>
   <line class="a" x1="44.026" x2="42.901" y1="78.364" y2="85.049"/>
   <line class="a" x1="55.317" x2="54.192" y1="72.609" y2="79.294"/>
   <line class="a" x1="66.608" x2="65.483" y1="66.854" y2="73.539"/>
   <line class="a" x1="77.899" x2="76.774" y1="61.1" y2="67.785"/>
   <line class="a" x1="89.19" x2="88.065" y1="55.345" y2="62.029"/>
  </g>
  <polyline class="a" transform="matrix(3.8981 0 0 3.9233 2.4444 1.85)" points="30.987 15.798 33.617 16.467 34.634 13.951 37.263 14.62 38.281 12.104 40.913 12.772 41.932 10.255" stroke-width="2.0457"/>
 </g>
 <ellipse class="b" cx="110.56" cy="50.563" rx="2.9236" ry="2.9425"/>
</svg>
