<svg
    xmlns="http://www.w3.org/2000/svg"
    viewBox="0 0 192 192"
    id="vector">
    <path
        id="path"
        d="M 172.646 133.66 L 175.5 123.535 L 170.2 111.833 L 165.634 110.544 L 154.952 93.206 C 154.952 80.167 148.429 77.158 139.99 77.444 L 139.99 100.991 L 155.972 115.654 L 152.751 119.905 L 153.811 133.899 L 161.679 137.768 M 156.42 115.559 L 166.082 110.353 M 96 90.961 C 98.335 90.964 100.595 91.938 102.375 93.708 C 104.155 95.478 105.342 97.932 105.723 100.631 C 106.105 103.33 105.657 106.101 104.459 108.449 C 103.261 110.797 101.389 112.573 99.18 113.457 L 103.502 137.911 L 96 140.347 L 88.417 137.911 L 92.738 113.457 C 90.522 112.57 88.646 110.787 87.449 108.429 C 86.251 106.071 85.809 103.289 86.201 100.584 C 86.593 97.879 87.795 95.424 89.59 93.661 C 91.385 91.899 93.658 90.941 96 90.961 Z M 109.291 161.171 C 109.862 168.24 111.003 175.5 112.267 175.5 L 140.112 175.5 C 149.204 175.5 149.326 133.087 140.765 133.087 L 135.995 133.087 M 19.354 133.66 L 16.5 123.535 L 21.8 111.833 L 26.366 110.544 L 37.048 93.206 C 37.048 80.167 43.571 77.158 52.01 77.444 L 52.01 100.991 L 36.028 115.559 L 39.249 119.809 L 38.189 133.804 L 30.321 137.672 M 36.028 115.559 L 26.366 110.353 M 83.198 161.171 C 82.628 168.24 81.486 175.5 80.182 175.5 L 52.336 175.5 C 43.285 175.5 43.122 133.087 51.684 133.087 L 56.495 133.087 M 120.176 57.289 L 107.945 57.289 L 107.945 53.659 C 108.183 51.96 108.929 50.414 110.049 49.3 C 111.169 48.185 112.591 47.573 114.061 47.573 C 115.53 47.573 116.953 48.185 118.073 49.3 C 119.193 50.414 119.939 51.96 120.176 53.659 Z M 84.258 57.289 L 72.028 57.289 L 72.028 53.659 C 72.265 51.96 73.011 50.414 74.131 49.3 C 75.251 48.185 76.674 47.573 78.143 47.573 C 79.613 47.573 81.035 48.185 82.155 49.3 C 83.275 50.414 84.021 51.96 84.258 53.659 Z"
        fill="none"
        stroke="#000000"
        stroke-width="8"
        stroke-linecap="round"
        stroke-linejoin="round"/>
    <path
        id="path_1"
        d="M 133.956 75.152 L 58.044 75.152 C 56.985 75.152 55.944 75.479 55.027 76.099 C 54.11 76.719 53.348 77.612 52.818 78.686 C 52.289 79.761 52.01 80.98 52.01 82.221 L 52.01 112.024 C 52.047 125.659 56.701 138.734 64.943 148.36 C 73.186 157.986 84.362 163.397 96 163.397 C 107.638 163.397 118.814 157.986 127.057 148.36 C 135.299 138.734 139.953 125.659 139.99 112.024 L 139.99 82.221 C 139.99 80.98 139.711 79.761 139.182 78.686 C 138.652 77.612 137.89 76.719 136.973 76.099 C 136.056 75.479 135.015 75.152 133.956 75.152 Z M 96 16.5 C 103.721 16.5 111.308 18.882 117.995 23.404 C 124.682 27.927 130.236 34.434 134.096 42.268 C 137.957 50.101 139.99 58.99 139.99 68.035 C 139.99 69.284 139.709 70.512 139.176 71.594 C 138.643 72.675 137.876 73.574 136.953 74.198 C 136.029 74.823 134.982 75.152 133.915 75.152 L 58.044 75.152 C 56.978 75.152 55.93 74.823 55.007 74.198 C 54.083 73.574 53.316 72.675 52.783 71.594 C 52.25 70.512 51.969 69.284 51.969 68.035 C 51.969 58.984 54.005 50.091 57.87 42.254 C 61.735 34.417 67.295 27.909 73.988 23.389 C 80.681 18.868 88.274 16.492 96 16.5 Z"
        fill="none"
        stroke="#000000"
        stroke-width="8"
        stroke-linecap="round"
        stroke-linejoin="round"/>
</svg>
