<svg xmlns="http://www.w3.org/2000/svg" viewBox="0 0 192 192"><path fill="none" stroke="#000" stroke-linecap="round" stroke-linejoin="round" stroke-width="8" d="m172.646 133.66 2.854-10.125-5.3-11.702-4.566-1.289-10.682-17.338c0-13.039-6.523-16.048-14.962-15.762v23.547l15.982 14.663-3.221 4.251 1.06 13.994 7.868 3.869m-5.259-22.209 9.662-5.206M96 90.961c2.335.003 4.595.977 6.375 2.747 1.78 1.77 2.967 4.224 3.348 6.923.382 2.699-.066 5.47-1.264 7.818s-3.07 4.124-5.279 5.008l4.322 24.454L96 140.347l-7.583-2.436 4.321-24.454c-2.216-.887-4.092-2.67-5.289-5.028-1.198-2.358-1.64-5.14-1.248-7.845.392-2.705 1.594-5.16 3.389-6.923 1.795-1.762 4.068-2.72 6.41-2.7Zm13.291 70.21c.571 7.069 1.712 14.329 2.976 14.329h27.845c9.092 0 9.214-42.413.653-42.413h-4.77m-116.641.573L16.5 123.535l5.3-11.702 4.566-1.289 10.682-17.338c0-13.039 6.523-16.048 14.962-15.762v23.547l-15.982 14.568 3.221 4.25-1.06 13.995-7.868 3.868m5.707-22.113-9.662-5.206m56.832 50.818c-.57 7.069-1.712 14.329-3.016 14.329H52.336c-9.051 0-9.214-42.413-.652-42.413h4.811m63.681-75.798h-12.231v-3.63c.238-1.699.984-3.245 2.104-4.359 1.12-1.115 2.542-1.727 4.012-1.727 1.469 0 2.892.612 4.012 1.727 1.12 1.114 1.866 2.66 2.103 4.359Zm-35.918 0h-12.23v-3.63c.237-1.699.983-3.245 2.103-4.359 1.12-1.115 2.543-1.727 4.012-1.727 1.47 0 2.892.612 4.012 1.727 1.12 1.114 1.866 2.66 2.103 4.359Z"/><path fill="none" stroke="#000" stroke-linecap="round" stroke-linejoin="round" stroke-width="8" d="M133.956 75.152H58.044c-1.059 0-2.1.327-3.017.947-.917.62-1.679 1.513-2.209 2.587a8.033 8.033 0 0 0-.808 3.535v29.803c.037 13.635 4.691 26.71 12.933 36.336 8.243 9.626 19.419 15.037 31.057 15.037 11.638 0 22.814-5.411 31.057-15.037 8.242-9.626 12.896-22.701 12.933-36.336V82.221c0-1.241-.279-2.46-.808-3.535-.53-1.074-1.292-1.967-2.209-2.587a5.375 5.375 0 0 0-3.017-.947ZM96 16.5c7.721 0 15.308 2.382 21.995 6.904 6.687 4.523 12.241 11.03 16.101 18.864 3.861 7.833 5.894 16.722 5.894 25.767a8.083 8.083 0 0 1-.814 3.559c-.533 1.081-1.3 1.98-2.223 2.604a5.407 5.407 0 0 1-3.038.954H58.044a5.404 5.404 0 0 1-3.037-.954c-.924-.624-1.691-1.523-2.224-2.604a8.083 8.083 0 0 1-.814-3.559c0-9.051 2.036-17.944 5.901-25.781 3.865-7.837 9.425-14.345 16.118-18.865C80.681 18.868 88.274 16.492 96 16.5Z"/></svg>