<svg xmlns="http://www.w3.org/2000/svg" viewBox="0 0 192 192"><path d="M175.5 149.38a8.947 8.947 0 0 1-2.612 6.302 8.851 8.851 0 0 1-6.278 2.6H25.361a8.83 8.83 0 0 1-4.434-1.201 8.892 8.892 0 0 1-3.244-3.269 8.954 8.954 0 0 1-1.183-4.461V42.62a8.958 8.958 0 0 1 1.197-4.457 8.902 8.902 0 0 1 3.255-3.259 8.837 8.837 0 0 1 4.438-1.186v.008h40.367c9.202 0 25.38 16.927 33.382 17.367h68.934a7.41 7.41 0 0 1 5.252 2.187 7.488 7.488 0 0 1 2.175 5.279Zm-16.308-47.423-29.975 39.93m29.975 0-29.975-39.93" fill="none" stroke="#000" stroke-width="12" stroke-linecap="round" stroke-linejoin="round"/><path d="M116.887 134.298a15.025 15.025 0 0 1-5.491 5.556 14.928 14.928 0 0 1-15.017.014 15.021 15.021 0 0 1-5.486-5.515 15.128 15.128 0 0 1-2.008-7.534v-9.793c0-2.644.693-5.243 2.008-7.533a15.031 15.031 0 0 1 5.486-5.516 14.93 14.93 0 0 1 15.005.006 15.031 15.031 0 0 1 5.49 5.537" fill="none" stroke="#000" stroke-width="12" stroke-linecap="round" stroke-linejoin="round"/></svg>