<svg xmlns="http://www.w3.org/2000/svg" viewBox="0 0 192 192"><path fill="none" stroke="#000" stroke-linecap="round" stroke-linejoin="round" stroke-width="12" d="M45.895 175.5a8.087 8.087 0 0 0 4.57-1.415 8.031 8.031 0 0 0 2.958-3.746l56.055-146.097a12.05 12.05 0 0 1 4.438-5.619 12.119 12.119 0 0 1 6.854-2.123h40.697a8.086 8.086 0 0 0-4.569 1.415 8.031 8.031 0 0 0-2.958 3.746L97.885 167.758a12.05 12.05 0 0 1-4.438 5.619 12.119 12.119 0 0 1-6.854 2.123H45.895"/><path fill="none" stroke="#000" stroke-linecap="round" stroke-linejoin="round" stroke-width="12" d="m67.236 134.339-8.131-78.41a4.064 4.064 0 0 0-1.076-2.36 4.107 4.107 0 0 0-4.861-.85 4.08 4.08 0 0 0-1.819 1.854L32.173 94.068a16.251 16.251 0 0 0-1.588 8.305l4.858 65.279a8.146 8.146 0 0 0 2.502 5.567 8.206 8.206 0 0 0 5.679 2.281h2.271"/></svg>