<svg xmlns="http://www.w3.org/2000/svg" viewBox="0 0 192 192"><path d="M55.132 175.431c-5.333-1.372-8.992-5.129-8.992-9.23v-1.676l-2.497-.209c-3.119-.262-7.121-1.711-8.921-3.231-1.806-1.525-3.191-3.903-3.53-6.06l-.277-1.763-2.399-.213c-4.979-.443-9.274-2.617-11.344-5.742L16 145.538V23.663l1.1-1.718c1.361-2.127 3.549-3.809 6.409-4.927l2.186-.855h110.021l2.409.877c4.364 1.589 7.497 5.192 7.497 8.624v1.508l2.742.163c3.597.214 6.801 1.389 9.213 3.377 2.068 1.706 3.116 3.586 3.502 6.287l.253 1.774 2.156.207c4.794.461 9.077 2.671 11.102 5.727l1.172 1.769.116 21.49.117 21.491-1.046.775c-1.272.943-2.711.989-4.178.134l-1.099-.641-.117-21.156-.117-21.156-.927-1.105c-1.147-1.367-3.747-2.488-5.769-2.488h-1.523v87.21l4.109-.09 4.11-.089.211-16.25c.116-8.937.372-16.434.568-16.66 1.087-1.247 4.296-1.033 5.288.353.364.508.459 9.533.372 35.37l-.115 34.687-1.105 1.746c-1.345 2.126-3.468 3.752-6.392 4.895l-2.199.859-54.378.07c-51.341.067-54.499.039-56.556-.49Zm110.091-4.699c.928-.316 2.036-.866 2.464-1.222 1.851-1.543 1.924-2.242 1.944-18.425l.018-15.39h-8.379l-.131 10.39c-.127 10.051-.163 10.442-1.092 11.936-1.316 2.116-2.732 3.422-4.919 4.537-3.821 1.95-1.994 1.887-54.699 1.887H52.463v1.26c0 2.34 2.17 4.686 4.891 5.29.672.149 24.837.28 53.702.291 50.066.019 52.559-.006 54.167-.554Zm-16.71-11.265c2.152-.308 3.695-1.084 5.013-2.519l.948-1.033v-32.117l-4.321.089-4.32.089-.211 10.938-.211 10.937-1.121 1.575c-1.181 1.659-4.069 3.841-6.102 4.611-2.944 1.114-4.943 1.158-53.077 1.158H37.709v1.36c0 2.269 2.554 4.439 5.769 4.9 2.25.323 102.785.334 105.035.012Zm-12.261-12.158c.759-.401 1.755-1.274 2.213-1.941.798-1.159.834-1.888.834-17.005V112.57H87.09l-.907-.855c-1.088-1.026-.884-2.452.472-3.286.825-.508 2.74-.547 26.766-.547h25.878V66.496c0-28.424-.14-41.661-.448-42.265-.665-1.309-2.897-2.876-4.592-3.225-.944-.195-20.731-.306-53.764-.303-49.821.005-52.35.032-53.957.579-.927.316-2.036.866-2.464 1.223-1.973 1.646-1.924.516-1.943 44.205l-.019 41.172h26.51c24.628 0 26.573.039 27.399.547 1.355.834 1.56 2.26.472 3.286l-.907.855H22.083l.12 16.015c.115 15.375.154 16.058.963 17.058.464.573 1.602 1.381 2.529 1.796l1.686.754 53.746-.077 53.746-.078Zm-96.729-8.863c-1.953-.7-2.065-3.233-.176-3.982.573-.228 14.091-.332 43.017-.332 41.619 0 42.192.008 43.024.625 1.255.931 1.124 2.604-.267 3.415-1.108.646-1.24.648-42.892.627-28.55-.015-42.073-.127-42.706-.353Zm.49-12.111c-2.294-.689-2.753-2.774-.875-3.971l1.147-.732 16.522.005c12.416.003 16.782.102 17.569.398 2.18.818 2.194 3.29.021 4.123-1.046.401-3.733.472-17.382.455-8.879-.011-16.53-.136-17.002-.278Zm50.388.081c-2.225-.625-2.913-2.897-1.221-4.032.843-.565 1.767-.595 18.164-.595h17.276l.805.737c1.029.942 1.03 2.27.001 3.212l-.806.738-16.793.059c-9.237.032-17.078-.021-17.426-.119ZM35.18 88.263c-1.132-.265-2.529-1.412-2.529-2.076 0-.634 21.385-42.57 22.589-44.295.662-.95 2.561-1.822 3.967-1.822 1.493 0 3.225.857 3.917 1.939 1.431 2.237 22.218 43.428 22.218 44.026 0 1.675-2.232 2.691-4.449 2.024-1.111-.335-1.51-.899-3.791-5.354l-2.55-4.979H43.546l-2.419 4.702c-1.33 2.586-2.548 4.857-2.707 5.047-.39.468-2.459.972-3.24.788Zm36.673-15.609c0-.33-12.31-24.575-12.607-24.829-.177-.152-11.159 20.701-13.036 24.754-.089.192 4.598.303 12.751.303 7.091 0 12.892-.102 12.892-.228Zm49.473 15.488c-1.286-.462-1.839-1.578-1.839-3.707v-1.856l-2.177 1.222c-3.166 1.776-6.208 2.559-10.68 2.748-7.454.314-13.321-1.652-17.702-5.935-9.383-9.17-2.124-22.369 13.368-24.306 5.095-.637 10.487.338 14.975 2.708l2.005 1.06.211-2.219c.175-1.847.377-2.319 1.206-2.815 1.29-.774 3.209-.762 4.274.028.82.608.843 1.041.843 16.383v15.759l-1.111.648c-1.216.709-2.001.774-3.373.282Zm-9.427-7.472c2.86-1.131 4.927-2.724 6.396-4.933 1.357-2.038 1.391-6.407.068-8.535-1.224-1.968-4.072-4.195-6.658-5.207-1.89-.739-2.589-.831-6.34-.831-3.748 0-4.448.092-6.323.828-4.804 1.887-7.415 4.892-7.7 8.859-.216 3.008.742 5.248 3.128 7.315 3.101 2.686 6.802 3.853 11.6 3.659 2.64-.106 3.712-.319 5.828-1.155Zm42.575-3.131c0-38.069-.059-41.686-.698-42.684-.934-1.458-3.306-2.572-5.98-2.806l-2.174-.191v87.274h8.852Z"/></svg>