<?xml version="1.0" encoding="UTF-8" standalone="no"?>
<svg
   viewBox="0 0 48 48"
   version="1.1"
   id="svg842"
   sodipodi:docname="dazn.svg"
   inkscape:version="1.1.2 (b8e25be833, 2022-02-05)"
   xmlns:inkscape="http://www.inkscape.org/namespaces/inkscape"
   xmlns:sodipodi="http://sodipodi.sourceforge.net/DTD/sodipodi-0.dtd"
   xmlns="http://www.w3.org/2000/svg"
   xmlns:svg="http://www.w3.org/2000/svg">
  <sodipodi:namedview
     id="namedview844"
     pagecolor="#ffffff"
     bordercolor="#666666"
     borderopacity="1.0"
     inkscape:pageshadow="2"
     inkscape:pageopacity="0.0"
     inkscape:pagecheckerboard="0"
     showgrid="false"
     inkscape:zoom="12.041667"
     inkscape:cx="24"
     inkscape:cy="24"
     inkscape:window-width="1280"
     inkscape:window-height="961"
     inkscape:window-x="-8"
     inkscape:window-y="-8"
     inkscape:window-maximized="1"
     inkscape:current-layer="svg842" />
  <defs
     id="defs826">
    <style
       id="style824">.a{fill:none;stroke:#000;stroke-linecap:round;stroke-linejoin:round;}</style>
  </defs>
  <path
     class="a"
     d="M42.5,5.5H5.5V20l4,4-4,4V42.5h37V28l-4-4,4-4Z"
     id="path828"
     style="stroke-width:3.02362205;stroke-miterlimit:4;stroke-dasharray:none" />
  <path
     class="a"
     d="M13.7362,22.2167V10.5h2.6362a5.1261,5.1261,0,0,1,5.1261,5.1261v1.4646a5.126,5.126,0,0,1-5.1261,5.126Z"
     id="path830"
     style="stroke-width:3.02362205;stroke-miterlimit:4;stroke-dasharray:none" />
  <polyline
     class="a"
     points="26.568 37.5 26.568 25.783 34.33 37.5 34.33 25.783"
     id="polyline832"
     style="stroke-width:3.02362205;stroke-miterlimit:4;stroke-dasharray:none" />
  <polyline
     class="a"
     points="13.67 25.783 21.432 25.783 13.67 37.5 21.432 37.5"
     id="polyline834"
     style="stroke-width:3.02362205;stroke-miterlimit:4;stroke-dasharray:none" />
  <line
     class="a"
     x1="26.6408"
     y1="22.1819"
     x2="30.5293"
     y2="10.5"
     id="line836"
     style="stroke-width:3.02362205;stroke-miterlimit:4;stroke-dasharray:none" />
  <line
     class="a"
     x1="34.2567"
     y1="22.2168"
     x2="30.5293"
     y2="10.5"
     id="line838"
     style="stroke-width:3.02362205;stroke-miterlimit:4;stroke-dasharray:none" />
  <line
     class="a"
     x1="33.0098"
     y1="18.2973"
     x2="27.9339"
     y2="18.2973"
     id="line840"
     style="stroke-width:3.02362205;stroke-miterlimit:4;stroke-dasharray:none" />
</svg>
