<svg xmlns="http://www.w3.org/2000/svg" viewBox="0 0 192 192"><path d="M91.809 163.202c5.97-2.413 7.222-9.819 7.222-42.74 0-21.942-.653-27.911-3.346-30.604-3.041-3.041-.38-3.345 29.274-3.337 28.543.007 33.467.524 39.402 4.144 8.972 5.47 11.736 11.158 11.636 23.953-.158 20.459-9.511 27.717-37.318 28.961-15.94.713-18.946.37-16.762-1.912 1.822-1.904 2.662-10.708 2.662-27.903 0-25.05-.015-25.122-5.075-25.122-6.827 0-7.635 3.954-7.67 37.502-.026 24.999-.491 28.509-4.442 33.532-3.391 4.31-6.225 5.578-12.242 5.474-6.468-.111-7.049-.45-3.341-1.948Zm61.725-27.223c4.802-3.207 7.238-11.24 7.238-23.875 0-10.975-.818-13.829-5.226-18.237-2.874-2.874-7.665-5.225-10.645-5.225h-5.419v48.966l5.854-.032c3.22-.018 6.909-.737 8.198-1.597Zm-124.026 4.123c2.816-3.111 3.524-8.46 3.524-26.612V90.771H26.97c-4.182 0-6.778 1.485-8.372 4.79-2.179 4.518-2.318 4.397-2.454-2.129L16 86.513l36.725.032c23.984.021 35.617.733 33.532 2.051-4.404 2.784-4.633 46.624-.272 51.879 2.661 3.206 1.815 3.52-9.474 3.52-9.641 0-11.828-.567-9.841-2.554 1.698-1.699 2.555-10.977 2.555-27.677 0-20.912-.535-25.122-3.194-25.122-1.873 0-3.22 1.98-3.258 4.79-.058 4.278-.297 4.392-2.235 1.064-1.318-2.264-4.726-3.725-8.686-3.725h-6.517l.808 23.62c.695 20.283 1.387 24.043 4.901 26.612 3.661 2.678 2.558 2.992-10.484 2.992-13.985 0-14.432-.157-11.052-3.893ZM18.661 81.593c3.144-2.533 3.726-6.688 3.726-26.612 0-20.24-.532-23.92-3.726-25.781-6.128-3.569 32.26-2.888 40.91.727 18.135 7.577 18.642 39.993.773 49.381-9.4 4.938-47.575 7.031-41.683 2.285Zm34.669-7.934c5.536-6.118 6.841-26.86 2.249-35.741-3.555-6.875-11.267-10.404-17.503-8.011-2.819 1.081-3.225 3.21-2.134 11.171.741 5.41 1.348 15.93 1.348 23.377 0 13.463.035 13.542 6.057 13.542 3.39 0 7.785-1.91 9.983-4.338Zm20.81 6.916c5.402-5.969 5.299-48.215-.125-51.375-2.718-1.583 1.889-2.187 17.032-2.235l20.758-.064v5.652c0 5.341-.215 5.459-3.894 2.129-2.141-1.938-6.931-3.523-10.645-3.523-6.682 0-6.751.109-6.751 10.645 0 10.433.128 10.645 6.454 10.645 3.772 0 6.962-1.327 7.679-3.194 2.204-5.745 5.028-3.353 5.028 4.258 0 4.098-.958 7.452-2.129 7.452a2.135 2.135 0 0 1-2.129-2.129c0-1.171-3.404-2.129-7.563-2.129h-7.563l.644 11.177c.61 10.606.962 11.213 6.886 11.888 4.541.517 7.317-.643 10.183-4.258l3.939-4.969-.602 6.387-.602 6.387-20.1.618c-19.513.599-19.995.501-16.5-3.362Z"/></svg>