<svg xmlns="http://www.w3.org/2000/svg" viewBox="0 0 192 192"><path d="M46.223 75.387 57.693 175.5h82.58l11.468-100.113Z" fill="none" stroke="#000" stroke-width="8" stroke-linecap="round" stroke-linejoin="round"/><path d="M151.743 75.387 67.171 16.5" fill="none" stroke="#000" stroke-width="8" stroke-linecap="round" stroke-miterlimit="4.75"/><path d="M55.934 54.199a3.045 3.045 0 0 1-.903-2.162c0-.81.325-1.589.903-2.162a3.096 3.096 0 0 1 2.18-.895c.817 0 1.601.322 2.179.895.578.573.903 1.352.903 2.162 0 .811-.325 1.589-.903 2.162a3.103 3.103 0 0 1-4.359 0Zm15.709 15.582a3.042 3.042 0 0 1-.431-3.789 3.079 3.079 0 0 1 1.592-1.259 3.103 3.103 0 0 1 3.629 1.259 3.042 3.042 0 0 1-.431 3.789 3.096 3.096 0 0 1-2.18.895 3.096 3.096 0 0 1-2.179-.895Z"/><path d="M85.79 75.388a26.802 26.802 0 0 0 1.527-15.579 26.937 26.937 0 0 0-7.446-13.801 27.332 27.332 0 0 0-19.24-7.905 27.33 27.33 0 0 0-19.24 7.905 3.837 3.837 0 0 0-1.138 2.724c0 1.021.41 2.002 1.138 2.724l24.127 23.931m.615-48.712-.968 11.804m34.196 21.156-11.9.959" fill="none" stroke="#000" stroke-width="8" stroke-linecap="round" stroke-linejoin="round"/></svg>