<svg xmlns="http://www.w3.org/2000/svg" viewBox="0 0 192 192"><path d="M88.662 132.958c-13.006 0-27.112 17.563-41.911 17.563-14.799 0-30.251-15.013-30.251-15.013m86.838-2.55c13.006 0 27.112 17.563 41.911 17.563 14.799 0 30.251-14.89 30.251-14.89" fill="none" stroke="#000" stroke-width="8" stroke-linecap="round" stroke-linejoin="round"/><path d="M96 125.431c-1.549 0-3.06.495-4.313 1.414a7.4 7.4 0 0 0-2.666 3.702 7.462 7.462 0 0 0 0 4.575 7.4 7.4 0 0 0 2.666 3.702A7.294 7.294 0 0 0 96 140.238c1.549 0 3.06-.495 4.313-1.414a7.4 7.4 0 0 0 2.666-3.702 7.462 7.462 0 0 0 0-4.575 7.4 7.4 0 0 0-2.666-3.702A7.294 7.294 0 0 0 96 125.431Zm0 0v-19.126M25.225 77.142l35.347-35.661M173.625 41.481l-35.347 35.661-15.615-15.753m-49.249 44.916h45.172L96 59.291ZM25.225 41.481l35.347 35.661M96 140.238v2.921" fill="none" stroke="#000" stroke-width="8" stroke-linecap="round" stroke-linejoin="round"/></svg>