<svg xmlns="http://www.w3.org/2000/svg" viewBox="0 0 192 192"><path d="M98.527 96V30.799h5.071v130.402h-5.071Zm-29.072 49.625c-.102-.299-.927-5.515-1.833-11.591-.906-6.077-3.163-21.045-5.015-33.264L59.24 78.554l-.604 2.475c-.333 1.361-2.292 10.176-4.354 19.589-2.062 9.413-3.851 17.115-3.975 17.115-.124 0-2.708-3.993-5.744-8.874-3.035-4.881-5.572-8.875-5.637-8.875-.065 0-2.52 3.844-5.455 8.541-3.449 5.52-5.429 8.37-5.598 8.06-.564-1.038-11.969-29.363-11.864-29.465.062-.06 1.049-.522 2.193-1.027 1.936-.854 2.105-.874 2.418-.288.186.346 2.078 4.942 4.204 10.212 2.127 5.27 3.973 9.696 4.102 9.835.129.139 2.25-2.993 4.713-6.959 2.463-3.967 4.67-7.475 4.905-7.797.361-.493 1.129.546 4.94 6.678 3.383 5.443 4.579 7.105 4.776 6.638.144-.343 1.802-7.633 3.684-16.2 7.044-32.059 7.947-36.041 8.173-36.041.127 0 .5 1.915.83 4.256.33 2.341 2.489 16.644 4.799 31.785 2.311 15.141 4.297 28.308 4.416 29.259.118.951.269 1.675.335 1.609.066-.066 2.089-9.076 4.495-20.022 2.407-10.946 4.461-20.146 4.565-20.445.227-.652-.104-1.406 6.186 14.127 2.702 6.674 5.02 12.255 5.151 12.403.13.147 1.121-1.523 2.202-3.713 1.08-2.19 2.051-3.981 2.158-3.981.107-.001.162 2.404.123 5.342l-.07 5.344-2.273 4.618c-1.25 2.54-2.36 4.618-2.466 4.618-.107 0-2.231-5.037-4.72-11.193-2.49-6.157-4.608-11.117-4.708-11.023-.099.094-2.727 11.61-5.84 25.592-3.112 13.982-5.742 25.177-5.845 24.878Zm-17.671-7.516c-2.225-1.988-1.689-5.529 1.032-6.82 1.749-.83 3.377-.428 4.793 1.185 1.029 1.172 1.134 1.494.968 2.965-.257 2.284-1.788 3.666-4.06 3.666-1.254 0-1.87-.225-2.733-.996Zm80.654-.854c-.085-.278-2.554-12.404-5.487-26.947-2.932-14.543-5.413-26.582-5.512-26.752-.161-.276-2.799 7.818-7.391 22.677-.847 2.739-1.629 4.975-1.739 4.969-.109-.006-1.467-1.875-3.017-4.152l-2.819-4.142.102-4.21.102-4.211 2.006 2.908 2.006 2.907 1.958-6.226c8.092-25.733 9.747-30.793 9.914-30.314.105.299 2.191 10.446 4.636 22.548 2.444 12.103 4.533 22.005 4.64 22.004.108-.001 2.39-15.446 5.072-34.321 5.64-39.699 5.587-39.358 5.879-38.122.117.498 2.636 16.839 5.596 36.313 2.96 19.474 5.464 35.405 5.564 35.403.099-.002 2.123-6.237 4.496-13.855s4.394-13.997 4.49-14.174c.097-.178.377.066.623.543.824 1.599 12.58 30.778 12.442 30.881-.312.232-4.415 1.688-4.503 1.598-.053-.055-1.811-4.337-3.907-9.517-3.326-8.221-3.853-9.302-4.149-8.512-.187.498-2.752 8.608-5.7 18.021-2.949 9.413-5.434 17.042-5.524 16.953-.089-.089-2.242-13.74-4.784-30.336-2.543-16.596-4.707-29.93-4.811-29.631-.103.298-2.343 15.702-4.978 34.23-2.634 18.528-4.848 33.751-4.919 33.829-.072.079-.2-.085-.286-.362Zm-46.475-6.807c-1.47-.92-1.925-1.787-1.925-3.671 0-2.062 1.821-3.972 3.785-3.972 3.18 0 5.208 2.785 4.049 5.559-.99 2.371-3.844 3.377-5.909 2.084Zm-50.68-8.875c-3.835-3.834 1.787-9.533 5.702-5.782 2.784 2.667.832 7.014-3.149 7.014-1.02 0-1.603-.281-2.553-1.232Zm5.65-35.246c-1.113-.405-2.533-2.084-2.753-3.255-.486-2.588 1.397-4.821 4.064-4.821 4.297 0 5.685 5.905 1.82 7.739-1.265.6-2.147.695-3.131.337Zm40.464-14.24c-1.077-.846-1.867-2.924-1.567-4.12.352-1.399 1.645-2.719 3.089-3.151 2.653-.795 5.104 1.23 5.104 4.216 0 1.021-.281 1.603-1.232 2.554-1.033 1.033-1.492 1.232-2.849 1.232-1.073 0-1.93-.246-2.545-.731Zm-13.745-8.872c-1.256-.707-2.087-2.3-2.087-3.999 0-1.868 1.917-3.785 3.785-3.785 2.827 0 4.878 2.282 4.39 4.885-.479 2.55-3.852 4.156-6.088 2.899Z"/></svg>