<svg xmlns="http://www.w3.org/2000/svg" width="192" height="192" viewBox="0 0 192 192"><path d="M24.607 171.486c.11-.478 2.966-7.248 6.346-15.045s7.757-17.913 9.725-22.48c1.968-4.566 5.984-13.862 8.923-20.656a4491.65 4491.65 0 0 0 6.46-14.987c1.414-3.332 5.1-11.781 6.184-14.176a223.393 223.393 0 0 0 1.932-4.456c.61-1.448 3.516-8.192 6.46-14.986a4224.082 4224.082 0 0 0 8.799-20.455c1.895-4.455 4.27-10.014 5.278-12.353 1.008-2.34 2.412-5.62 3.12-7.291 2.88-6.788 2.614-12.931 2.632 60.785l.016 66.253-7.794 2.467a2815.414 2815.414 0 0 1-13.26 4.16c-3.007.93-8.837 2.754-12.957 4.05-34.189 10.762-32.093 10.159-31.864 9.17zm138.35-.859a4267.84 4267.84 0 0 1-9.11-2.847 797.414 797.414 0 0 0-7.895-2.435c-3.213-.962-40.575-12.542-42.817-13.27l-1.316-.428.012-66.257c.008-43.361.15-66.023.408-65.578.218.373 1.58 3.471 3.028 6.885 1.447 3.414 2.892 6.754 3.211 7.422.534 1.12 8.78 20.282 11.764 27.34 2.688 6.357 8.964 20.971 13.535 31.516 1.574 3.634 2.863 6.698 2.863 6.81 0 .112.436 1.149.969 2.305a277.623 277.623 0 0 1 2.602 5.949c.899 2.116 2.815 6.582 4.258 9.923 1.443 3.342 4.007 9.357 5.7 13.367 1.691 4.01 3.334 7.837 3.65 8.506.315.668 1.94 4.404 3.611 8.303 4.335 10.116 8.328 19.359 9.243 21.396.432.963.73 1.9.661 2.083-.068.183-2.038-.263-4.376-.99z" style="fill:none;fill-opacity:1;stroke:#000;stroke-width:8;stroke-linecap:round;stroke-linejoin:round;stroke-dasharray:none;stroke-opacity:1"/></svg>