<?xml version="1.0" encoding="UTF-8" standalone="no"?>
<!-- Created with Inkscape (http://www.inkscape.org/) -->

<svg
   width="192px"
   height="192px"
   viewBox="0 0 192 192"
   version="1.1"
   id="SVGRoot"
   sodipodi:docname="destiny.svg"
   inkscape:version="1.2.2 (732a01da63, 2022-12-09)"
   xmlns:inkscape="http://www.inkscape.org/namespaces/inkscape"
   xmlns:sodipodi="http://sodipodi.sourceforge.net/DTD/sodipodi-0.dtd"
   xmlns="http://www.w3.org/2000/svg"
   xmlns:svg="http://www.w3.org/2000/svg">
  <sodipodi:namedview
     id="namedview187"
     pagecolor="#ffffff"
     bordercolor="#666666"
     borderopacity="1.0"
     inkscape:showpageshadow="2"
     inkscape:pageopacity="0.0"
     inkscape:pagecheckerboard="0"
     inkscape:deskcolor="#d1d1d1"
     inkscape:document-units="px"
     showgrid="false"
     inkscape:zoom="1"
     inkscape:cx="18"
     inkscape:cy="84"
     inkscape:current-layer="layer1" />
  <defs
     id="defs182" />
  <g
     inkscape:label="Ebene 1"
     inkscape:groupmode="layer"
     id="layer1">
    <path
       style="fill:none;fill-opacity:1;stroke:#000000;stroke-width:8;stroke-linecap:round;stroke-linejoin:round;stroke-dasharray:none;stroke-opacity:1"
       d="m 24.606538,171.48579 c 0.11019,-0.47757 2.96606,-7.24765 6.34648,-15.04465 3.38045,-7.79701 7.75673,-17.91283 9.72507,-22.47965 1.96836,-4.56681 5.98367,-13.86247 8.92292,-20.65699 2.93923,-6.79453 5.84666,-13.53843 6.46092,-14.98642 1.4135,-3.33207 5.09868,-11.78142 6.18303,-14.17638 0.45389,-1.00247 1.32352,-3.00741 1.9325,-4.45542 0.60897,-1.44802 3.51581,-8.19192 6.45962,-14.98645 2.94378,-6.79452 6.90311,-15.99903 8.79846,-20.45446 1.89536,-4.45542 4.27069,-10.014587 5.27849,-12.353689 1.00782,-2.339103 2.41212,-5.619905 3.12068,-7.290705 2.87884,-6.788272 2.61296,-12.931289 2.631,60.784814 l 0.0162,66.25281 -7.79421,2.46695 c -4.28681,1.3568 -10.25393,3.22886 -13.26026,4.1601 -3.00636,0.93124 -8.83681,2.75415 -12.95661,4.05094 -34.18872,10.76155 -32.09242,10.15833 -31.86429,9.1692 z m 138.351352,-0.85864 c -2.33827,-0.72708 -6.43783,-2.00834 -9.11011,-2.84726 -2.6723,-0.83892 -6.22525,-1.93463 -7.89542,-2.43491 -3.21313,-0.96245 -40.57521,-12.54194 -42.81752,-13.27027 l -1.31589,-0.42743 0.0123,-66.25716 c 0.008,-43.36135 0.14905,-66.022634 0.40817,-65.578455 0.21771,0.373283 1.58009,3.471823 3.02749,6.885652 1.4474,3.413819 2.89253,6.753769 3.21141,7.42208 0.5338,1.118823 8.77945,20.282043 11.76405,27.340113 2.68779,6.35619 8.96391,20.97068 13.53431,31.51583 1.57471,3.63325 2.8631,6.69752 2.8631,6.80948 0,0.1119 0.43598,1.14917 0.96885,2.30494 0.53285,1.15575 1.70401,3.83291 2.6026,5.94925 0.89858,2.11631 2.81438,6.58189 4.25734,9.92344 1.44296,3.34157 4.00789,9.35639 5.69986,13.36629 1.69195,4.00988 3.33453,7.83748 3.65016,8.50581 0.3156,0.66832 1.9408,4.4048 3.61149,8.30329 4.33542,10.11645 8.32801,19.35885 9.24269,21.39576 0.43254,0.96326 0.7302,1.9008 0.66145,2.08343 -0.0687,0.18263 -2.0381,-0.26282 -4.37636,-0.98988 z"
       id="path388" />
  </g>
</svg>
