<svg xmlns="http://www.w3.org/2000/svg" viewBox="0 0 192 192"><path fill="none" stroke="#000" stroke-linecap="round" stroke-linejoin="round" stroke-width="8" d="M69.693 91.289c8.55-4.856 19.634-9.952 25.883-9.952 6.064 0-15.733 62.315-11.466 62.315a43.463 43.463 0 0 0 25.421-9.884m-10.575-85.42a10.581 10.581 0 0 0-7.478 3.097 10.579 10.579 0 0 0 0 14.955 10.579 10.579 0 0 0 14.955 0 10.579 10.579 0 0 0 0-14.955 10.579 10.579 0 0 0-7.477-3.097Z"/><path fill="none" stroke="#000" stroke-linecap="round" stroke-linejoin="round" stroke-width="8" d="M96 16.5a79.529 79.529 0 0 0-56.215 23.285A79.529 79.529 0 0 0 16.5 96a79.529 79.529 0 0 0 23.285 56.215A79.529 79.529 0 0 0 96 175.5a79.529 79.529 0 0 0 56.215-23.285A79.529 79.529 0 0 0 175.5 96a79.529 79.529 0 0 0-23.285-56.215A79.529 79.529 0 0 0 96 16.5Z"/></svg>