<svg xmlns="http://www.w3.org/2000/svg" viewBox="0 0 192 192"><path fill="none" stroke="#000" stroke-width="6" d="M47.678 174.8c-5.357-1.296-10.805-4.895-13.529-8.937-3.756-5.574-3.522-9.721.775-13.736 3.143-2.935 7.766-4.266 15.22-4.381l5.635-.087-2.274-1.913c-3.288-2.767-7.247-10.8-8.944-18.15-1.96-8.488-2.64-36.594-1.346-55.606.924-13.583 3.225-35.315 5.138-48.517.473-3.272.869-6.236.878-6.587.03-1.11 16.578-.69 26.55.674 26.602 3.639 47.735 12.91 62.552 27.443 29.111 28.553 29.6 73.127 1.131 103.144-13.489 14.221-30.204 22.821-51.65 26.572-9.341 1.634-33.514 1.683-40.136.081Zm57-35.894.243-8.238 4.866-1.443c2.675-.793 6.513-2.408 8.529-3.59 7.57-4.435 15.105-14.728 16.334-22.31.299-1.845.72-4.214.936-5.266.364-1.776.095-1.913-3.766-1.913h-4.157l-.572 3.577c-1.383 8.647-6.677 15.8-14.686 19.84-4.294 2.168-5.87 2.491-12.158 2.499-6.162.008-7.922-.333-11.958-2.316-8.619-4.232-15.214-13.07-15.233-20.412l-.009-3.188h-8.736l.516 4.365c.75 6.327 4.88 14.475 9.863 19.459 4.314 4.313 12.5 8.868 17.694 9.845l2.762.52v16.81h9.289Zm.923-28.835c3.547-1.792 6.415-4.44 7.9-7.295 1.758-3.378 1.727-40.535-.036-43.945-5.764-11.144-21.794-10.981-26.906.275-1.373 3.022-1.577 5.787-1.593 21.556-.024 22.478.902 25.51 8.906 29.185 4.22 1.939 8.186 2.014 11.73.224Z"/></svg>