<svg
    xmlns="http://www.w3.org/2000/svg"
    viewBox="0 0 192 192"
    id="vector">
    <path
        id="path"
        d="M 15.992 137.615 C 15.728 136.927 15.63 117.69 15.774 94.865 L 16.035 53.366 L 76.535 53.103 C 116.9 52.927 138.772 53.198 142.254 53.917 C 164.4 58.491 179.833 81.247 175.589 103.071 C 172.148 120.767 159.347 134.282 142.736 137.757 C 134.724 139.433 16.639 139.301 15.992 137.615 Z M 114.154 125.735 C 130.594 119.585 138.893 98.785 131.347 82.646 C 127.846 75.158 120.977 68.549 113.968 65.927 C 108.935 64.044 106.263 63.866 82.997 63.866 L 57.535 63.866 L 57.535 127.866 L 82.997 127.866 C 106.531 127.866 108.891 127.705 114.154 125.735 Z"
        fill="#000000"
        stroke-width="12"/>
</svg>
