<svg xmlns="http://www.w3.org/2000/svg" viewBox="0 0 192 192"><path fill="none" stroke="#000" stroke-linecap="round" stroke-linejoin="round" stroke-width="12" d="M38.765 125.31v42.036c0 2.162.862 4.237 2.395 5.766a8.19 8.19 0 0 0 5.781 2.388h110.383c2.167 0 4.248-.86 5.781-2.388a8.146 8.146 0 0 0 2.395-5.766v-106h-36.794a8.2 8.2 0 0 1-4.088-1.092 8.161 8.161 0 0 1-4.089-7.062V16.5H46.941a8.19 8.19 0 0 0-5.781 2.388 8.146 8.146 0 0 0-2.395 5.766v57.627M120.529 16.5 165.5 61.346"/><path fill="none" stroke="#000" stroke-linecap="round" stroke-linejoin="round" stroke-width="12" d="M107.843 87.541c-.174 0-.341.022-.513.026a29.407 29.407 0 0 0-8.329-15.943 29.55 29.55 0 0 0-16.075-8.136 29.584 29.584 0 0 0-17.821 2.706 29.472 29.472 0 0 0-12.917 12.539c-.178-.004-.35-.027-.529-.027a25.203 25.203 0 0 0-17.787 7.35 25.067 25.067 0 0 0-7.367 17.739 25.067 25.067 0 0 0 7.367 17.74 25.203 25.203 0 0 0 17.787 7.35h56.184a20.77 20.77 0 0 0 12.218-3.925 20.679 20.679 0 0 0 7.558-10.347 20.617 20.617 0 0 0 0-12.8 20.679 20.679 0 0 0-7.558-10.347 20.77 20.77 0 0 0-12.218-3.925Z"/></svg>