<svg xmlns="http://www.w3.org/2000/svg" viewBox="0 0 192 192"><path d="M24.165 47.562a7.638 7.638 0 0 0-3.833 1.033 7.688 7.688 0 0 0-2.805 2.823 7.743 7.743 0 0 0-1.027 3.855v93.637c0 1.353.354 2.683 1.027 3.855a7.695 7.695 0 0 0 2.805 2.823 7.638 7.638 0 0 0 3.833 1.033H59.96l7.257-12.633h15.451v12.633H96l7.257-12.633h31.433L90.17 90.669l-4.403-4.881 60.216-38.431Zm110.525 96.426 10.6 12.633h22.545a7.644 7.644 0 0 0 5.42-2.259 7.735 7.735 0 0 0 2.245-5.452V97.395H95.674" fill="none" stroke="#000" stroke-width="12" stroke-linecap="round" stroke-linejoin="round"/><path d="m145.983 47.562 19.08-12.181v62.014" fill="none" stroke="#000" stroke-width="12" stroke-linecap="round" stroke-linejoin="round"/></svg>