<svg xmlns="http://www.w3.org/2000/svg" viewBox="0 0 192 192"><path d="m88.638 95.158.194.04c1.441.285 2.857.664 3.941 1.37 1.004.646 1.593 1.465 2.131 2.923.817 2.211.87 5.31.132 7.655-.552 1.744-1.763 3.207-2.869 3.983-1.149.812-2.28 1.198-3.578 1.414-2.27.364-4.721-.321-6.764-1.761-1.208-.86-2.683-2.342-3.428-4.25-.547-1.398-.53-3.217.136-4.545 1.062-2.118 3.335-2.584 5.047-2.496 1.306.074 3.656.662 4.896 1.305.343.181 1.61.9 1.832 1.23.155.23.256.563.186.871-.283 1.263-2.388 1.929-2.996 2.063-1.627.363-2.471-.535-4.321-1.6-.459-.262-1.071-.553-1.539-.615-.84-.117-1.854.226-2.014 1.562-.08.689.474 1.333.897 1.604.992.621 1.799.845 2.775.864 2.885.069 6.128-.623 8.488-3.061.323-.336.64-.828.643-1.448.01-1.252-1.496-2.018-1.496-2.018-1.589-.966-4.526-1.436-6.039-1.618-1.588-.2-4.087-.5-4.686-.628-.618-.129-1.289-.311-1.824-.66-.537-.354-1.063-1.146-1.219-2.022-.276-1.579.077-3.517.678-4.778 1.577-3.305 5.271-4.56 8.03-5.058 2.671-.484 6.988-.479 9.611 1.552.405.317.612.611.528 1.242-.171 1.185-.782 1.949-1.523 2.283-.776.361-2.383.501-3.089.566-3.163.258-6.984.123-9.997 1.32-.236.099-.643.259-.776.475-.471.746.875.959 1.164 1.044.086.03.102.034.192.048l6.657 1.144M69.824 74.602s.514-1.124.945-1.978c.785-1.553 2.205-3.708 3.275-5.042.327-.408.713-.869.713-.869s-.603.091-.945.193c-.812.23-2.002 1.383-2.596 2.128-.981 1.224-2.06 3.214-1.572 4.982.071.25.18.586.18.586m5.454 2.128c1.55-.156 3.002-.807 4.353-1.899 1.326-1.082 3.276-3.19 3.074-5.669-.062-.802-.422-1.408-.877-1.69-.591-.374-.9-.314-1.655.014-.548.234-.796.376-1.314.808-1.52 1.287-3.676 4.043-4.846 6.243-.271.518-.544 1.098-.758 1.496-.135.245-.24.47-.227.53.047.25 1.645.227 2.25.167m-3.946 4.225c-.16.246-.329.841-.505 1.271-.093.23-.267.527-.382.646-.403.432-.745.452-1.134-.048-.546-.704-.862-1.793-.885-2.852-.011-.462.043-.974-.017-1.363-.099-.658-.551-1.336-.794-1.965-.286-.741-.518-2.033-.547-2.867-.098-2.602.843-4.998 2.065-6.888 1.23-1.911 2.84-3.499 4.591-4.58 1.655-1.017 4.081-1.709 5.898-.792.592.296 1.416 1.03 1.83 1.799.088.159.16.332.25.416.081.075.292.105.46.15.58.146 1.415.786 1.756 1.212.685.862 1.06 1.685 1.233 2.88.349 2.404-.601 5.042-1.683 6.647-1.852 2.763-3.682 4.705-6.051 6.058-1.041.592-2.662 1.146-3.843.991-.366-.044-.743-.185-1.1-.22-.182-.023-.849-.273-.92-.344-.088-.099-.202-.185-.222-.151m2.116 5.33c.072.018.183.065.279.119.831.46 1.173 1.581 1.377 2.812.474 2.858.677 9.182.756 11.658.058 1.857.09 3.685.143 5.522.045 1.555.13 3.623-.092 5.08-.081.524-.321 1.133-.666 1.445-.394.368-1.292.396-1.785.248-1.217-.367-1.612-1.507-1.785-3.26-.413-4.184-.214-12.396.029-15.86.081-1.145.377-4.812.787-6.349.14-.519.438-1.563.957-1.415m-37.002 6.961s-1.81.187-3.056.389c-1.585.249-4.564.998-6.283 1.893-.516.269-1.563.908-1.654 1.681-.096.801.245 1.428.625 2.076.219.376 1.461 2.118 1.809 2.541 1.459 1.776 4.418 4.515 6.598 5.845.749.451 1.987 1.098 1.987 1.098s-.092-5.141-.075-10.206c.009-2.672.049-5.317.049-5.317m33.192 2.047c.104 1.381-.139 3.992-.182 4.337-.077.794-.487 2.625-.556 2.848a40.077 40.077 0 0 1-1.004 2.935c-.594 1.557-2.005 4.026-2.843 5.082-3.116 3.926-7.94 6.162-12.078 6.898-2.808.494-6.035.422-9.01-.381-1.024-.271-2.548-.783-2.548-.783s.005.888-.044 1.513a8.707 8.707 0 0 1-.253 1.278c-.217.651-.572.987-1.088 1.132-.624.169-1.285.225-1.861-.134-.946-.58-1.285-1.87-1.45-3.358-.133-1.189-.273-3.257-.273-3.257s-.707-.489-1.297-.918c-1.812-1.301-3.533-2.878-5.039-4.5-.417-.454-2.209-2.641-2.604-3.185-1.109-1.534-2.107-3.061-2.866-5.021-.59-1.53-.76-2.889-.311-4.511.618-2.261 2.842-3.963 4.364-4.933 1.117-.719 4.59-2.372 6.033-2.678.681-.142 1.738-.418 1.803-.48a.519.519 0 0 0 .064-.086c.033-.069.089-2.307.079-3.125-.014-.805.408-6.091.544-7.209.071-.605.385-2.932.706-3.543.209-.413.58-.379.883-.108 1.654 1.5 2.157 6.701 2.28 9.348.074 1.613.11 4.038.11 4.038s1.899-.082 3.066-.033c1.135.038 2.386.299 3.564.573 1.507.352 4.446 1.287 6.132 2.532 1.388 1.026 2.687 2.754 3.108 4.583.391 1.677.333 2.837-.263 4.351-.67 1.708-1.937 2.978-3.221 3.084-.382.032-1.821-.246-2.264-.746-.173-.199-.164-.558-.039-.802.047-.086.72-.607 1.117-.911.187-.146.362-.326.519-.534.33-.424.626-.89.593-1.436-.045-.709-.56-1.146-1.051-1.427-2.301-1.333-6.897-2.44-9.118-2.631a74.493 74.493 0 0 0-2.106-.138l.262 17.876s1.022.284 1.828.474c.462.102 2.42.359 2.941.378 3.963.152 8.386-.365 12.023-2.867 1.596-1.095 3.061-2.458 4.17-4.304 1.462-2.443 2.227-5.786 2.025-9.278-.223-3.813-2.064-8.34-3.534-11.096-3.885-7.282-10.543-13.273-16.401-16.785-5.981-3.583-11.892-5.644-18.24-5.989-1.636-.089-5.204.032-7.007.759-.258.106-.518.232-.757.311-.189.067-.487.249-.568.346a1.106 1.106 0 0 0-.09.127s.111.09.217.155c.191.122.995.194 1.411.305.373.103.76.388.914.785.146.378.164.676-.01.992-.409.724-1.947.602-2.624.446-.704-.164-1.581-.478-1.741-1.371-.187-1.052.156-2.084.526-3.037.744-1.908 1.81-2.9 3.371-3.521 2.217-.889 5.017-1.511 7.11-1.628 4.739-.261 9.224.947 13.815 2.979 2.628 1.158 6.068 3.102 8.586 4.869 1.807 1.271 4.655 3.606 6.254 5.133.505.485 3.457 3.647 3.916 4.203a61.68 61.68 0 0 1 3.113 4.089c1.753 2.532 3.934 6.414 4.993 9.495.255.737.452 1.463.781 2.318.113.293.597 2.045.677 2.551.08.501.197 1.237.213 1.266.024.269.248 1.774.23 2.355m59.572-3.953c-2.219.746-8.054 1.16-8.054 1.16l-.736 3.36s2.916-.363 5.037-.04c0 0 .688-.116.769 1.138a28.304 28.304 0 0 1-.069 2.424s-.044.759-.782.952c-.8.194-6.285.504-6.285.504l-.888 4.379s-.331 1.013.409.724c.688-.269 6.435-1.841 7.184-1.614.802.29 1.69 1.849 1.434 3.27-.306 1.761-6.043 7.094-9.537 6.722 0 0-1.836.173-3.387-3.439-1.445-3.441.547-9.958.547-9.958s-.913-3.042-.251-4.073c0 0 .394-.521 1.542-.639l1.406-4.24s-1.601.16-2.554-1.557c-.888-1.629-.962-2.378-.282-2.828.728-.524 7.398-2.299 11.987-2.073 0 0 1.595-.229 2.979 3.804 0 0 .67 1.631-.469 2.024m-17.263 16.304c-.588 2.017-2.141 4.169-4.072 2.831-1.905-1.34-4.94-10.395-4.94-10.395s-1.152-3.377-1.374-3.29c0 0-.249-.659-.401 3.031-.159 3.674.03 10.838-.975 11.966-.953 1.13-2.106.68-2.704-.641-.544-1.301-.77-4.394-.473-9.825.348-5.442 1.215-11.231 2.323-13.034 1.107-1.791 1.995-.491 2.341-.019 0 0 1.48 1.955 3.921 7.697l.431 1.062s2.218 5.425 2.449 5.412c0 0 .182.25.343.071.233-.098.139-1.837.139-1.837s-.46-5.912-2.483-15.918c0 0-.306-1.248-.099-2.417.205-1.182 1.017-.627 1.017-.627s3.136 2.298 4.659 9.741c1.512 7.445.496 14.16-.101 16.192m33.751-4.457c-1.428 3.631-5.458 11.233-10.814 9.438-1.768 6.252-3.254 12.576-4.104 22.04 0 0-.186 1.839-1.235 1.2-1.039-.53-2.751-3.048-3.097-6.532-.372-4.576 1.025-12.312 3.882-21.183-.833-1.974-1.401-4.795-.915-8.811 0 0 .717-7.458 5.856-14.181 0 0 .616-.775.973-.537.394.241.211 2.668-.101 3.848-.324 1.173-2.612 6.947-2.612 6.947s-1.427 3.9-1.025 6.976c2.695-6.04 8.821-18.22 12.619-14.379 1.275 1.331 1.863 4.224 1.863 7.342.001 2.739-.452 5.65-1.29 7.832m-1.109-9.566s-.211-2.401-1.821.244c-1.386 2.233-3.884 6.416-5.896 12.097 2.111-.346 4.146-2.015 4.762-2.865 1-1.294 3.331-4.805 2.955-9.476m30.613-.547h-9.816c-.196-4.863-.598-9.6-1.231-14.479a1.24 1.24 0 0 0-.251-.624c-.131-.159-.296-.246-.467-.247h-2.263a.504.504 0 0 0-.282.094.769.769 0 0 0-.229.26 1.23 1.23 0 0 0-.132.38 1.408 1.408 0 0 0-.008.425c.643 4.721 1.05 9.368 1.251 14.196h-9.443c-.44 0-.798.519-.798 1.158v2.975c.001.309.085.604.234.822.15.218.352.341.564.342h9.578c.006.734.011 1.391.011 2.008 0 4.288-.127 7.82-.423 11.806-.012.152-.001.305.032.45.032.145.086.279.157.391a.84.84 0 0 0 .247.264.55.55 0 0 0 .3.094h2.098c.197 0 .388-.107.534-.3.146-.193.237-.458.256-.744.287-4.013.41-7.589.41-11.961 0-.614-.004-1.274-.011-2.008h9.682c.439 0 .797-.524.797-1.164v-2.975c0-.308-.084-.604-.234-.821-.149-.218-.352-.341-.563-.342"/><path d="M43.954 82.67a.792.792 0 0 0 .099 1.006.812.812 0 0 0 .307.193l1.76.592a.982.982 0 0 0 1.129-.381 64.645 64.645 0 0 1 22.559-20.387c9.286-5.029 19.808-7.689 30.43-7.689 12.83 0 25.209 3.784 35.8 10.944 10.334 6.983 18.36 16.726 23.21 28.176a.923.923 0 0 0 .85.564h2.101a.733.733 0 0 0 .679-1.01c-5.001-12.311-13.457-22.806-24.459-30.345-11.262-7.719-24.465-11.8-38.181-11.8-22.675 0-43.717 11.267-56.284 30.137"/></svg>