<svg xmlns="http://www.w3.org/2000/svg" viewBox="0 0 192 192"><path d="M16 96V16h14.912c16.153 0 20.394 2.937 27.494 19.041 8.56 19.415 12.196 53.454 8.849 82.855-2.651 23.289-7.378 38.476-15.266 49.049C45.91 175.094 43.771 176 30.617 176H16Zm29.285 31.561c5.298-8.69 7.691-26.933 5.681-43.314-1.963-15.993-4.97-22.462-12.112-26.051l-6.044-3.037v79.102l4.203-.011c2.312-.005 6.034-3.016 8.272-6.687ZM74.19 96V16h18.104l.006 28.696.006 28.695 6.136-28.673 6.136-28.672 9.375-.024c5.156-.011 9.375.884 9.375 1.992s-3.492 16.512-7.759 34.23c-4.267 17.719-7.75 34.421-7.739 37.116.01 2.695 3.991 22.9 8.845 44.9l8.827 40-8.394 1.041c-4.617.572-9.098.314-9.958-.574-.86-.888-4.409-15.264-7.887-31.948l-6.323-30.333-.372 31.776-.372 31.777H74.189Zm55.604 0V16h14.999c16.916 0 22.622 4.683 25.791 21.166 2.63 13.679 2.346 31.964-.656 42.228l-2.538 8.679 3.081 7.786c6.612 16.707 7.376 41.823 1.848 60.727C167.472 173.16 163.625 176 146.022 176h-16.228Zm26.897 37.565c.853-2.295 1.551-7.461 1.551-11.478 0-10.434-2.457-15.652-7.37-15.652-4.196 0-4.268.264-4.268 15.652 0 15.389.072 15.652 4.268 15.652 2.347 0 4.965-1.878 5.819-4.174Zm-.222-64.193c.994-10.658-2.294-19.52-6.622-17.851-1.983.764-2.691 4.083-2.997 14.044-.395 12.82-.323 13.044 4.178 13.044 3.877 0 4.711-1.415 5.441-9.237Z"/></svg>