<svg xmlns="http://www.w3.org/2000/svg" viewBox="0 0 192 192"><path d="M17.172 133.522c-1.693-3.726-1.494-69.655.222-73.656 1.298-3.025 1.488-3.065 16.249-3.402 17.633-.403 22.93.995 30.888 8.151l5.341 4.803.681-5.021c1.079-7.946 1.543-8.205 14.7-8.205 9.597 0 11.943.354 12.684 1.915.825 1.736 1.035 1.736 2.258 0 1.158-1.643 5.051-1.915 27.476-1.915 14.37 0 27.713.536 29.652 1.192 11.321 3.824 17.846 16.974 14.824 29.87-.932 3.974-.759 5.39 1.188 9.754 1.632 3.658 2.274 7.226 2.261 12.583-.024 10.297-4.005 17.972-11.812 22.777l-5.56 3.421h-27.888c-27.144 0-27.93-.068-29.417-2.568l-1.527-2.569-1.167 2.569c-1.085 2.388-2.038 2.568-13.568 2.568-14.084 0-14.553-.321-14.553-9.964v-5.228l-3.898 4.405c-7.949 8.982-11.192 10.103-30.582 10.572-16.505.399-17.383.301-18.452-2.052Zm37.94-11.475c9.017-5.516 13.099-13.753 13.216-26.668.084-9.289-2.386-16.09-7.794-21.462-5.639-5.601-9.811-6.994-22.914-7.652l-12.214-.612v60.598l12.214-.487c10.701-.427 12.868-.888 17.492-3.717Zm-17.573-8.877c-1.436-1.691-1.738-4.663-1.738-17.077 0-13.116.247-15.293 1.94-17.098 1.646-1.755 2.68-1.873 6.823-.78 9.295 2.454 13.069 7.661 13.062 18.021-.006 10.205-4.895 16.447-14.261 18.211-3.076.58-4.519.263-5.826-1.277Zm10.944-13.555c1.337-3.457.181-9.191-2.027-10.055-.936-.366-1.3 1.404-1.3 6.329 0 7.316 1.353 8.831 3.327 3.726Zm41.372 18.04c0-9.511 1.448-12.927 5.21-12.29 1.878.318 3.672 2.842 7.264 10.219l4.77 9.796 6.063.372c7.234.444 7.367 1.591-1.975-16.95-3.729-7.4-6.779-14.293-6.779-15.319 0-1.027 2.724-6.944 6.055-13.149 3.33-6.206 6.398-11.972 6.818-12.814.575-1.153-.744-1.531-5.341-1.531h-6.103l-3.526 7.384c-1.939 4.061-4.353 8.267-5.365 9.345-1.689 1.801-2.056 1.795-4.466-.064-2.323-1.793-2.625-2.87-2.625-9.346v-7.319H79.46v60.004h10.395Zm70.408 5.526c4.274-2.706 6.515-7.811 6.515-14.841 0-4.397-.639-6.385-3.119-9.713-3.5-4.697-3.803-6.611-1.592-10.056 1.771-2.757 2.081-11.87.522-15.302-2.144-4.72-7.121-6.474-19.98-7.042l-12.214-.54v60.552l13.254-.465c10.028-.352 14.071-.983 16.614-2.593Zm-17.666-9.111c-2.11-2.748-2.48-12.51-.559-14.773 2.028-2.39 8.873-1.792 11.226.98 2.681 3.158 2.75 9.927.129 12.72-3.111 3.317-8.649 3.867-10.796 1.073Zm-.559-23.835c-1.532-1.804-1.632-8.867-.172-12.081 1.464-3.221 7.177-3.148 10.163.128 4.685 5.142 1.691 13.423-4.853 13.423-2.14 0-4.452-.661-5.138-1.47Zm-21.206-2.912-.312-6.832-3.416 6.659-3.416 6.658 3.416 6.81 3.416 6.811.312-6.638c.171-3.65.171-9.711 0-13.468Z"/></svg>