<svg xmlns="http://www.w3.org/2000/svg" viewBox="0 0 192 192"><path d="M61.37 167.738v-8.261l14.514.408c8.629.243 15.41.905 16.723 1.633 4.616 2.558 3.788 11.571-1.238 13.482-1.447.55-8.789 1-16.315 1H61.37Zm21.389 4.911c2.872-1.447 3.73-4.69 2.065-7.8-.95-1.777-2.105-2.09-7.703-2.09h-6.584v4.923c0 2.708.305 5.228.679 5.602 1.146 1.147 8.849.723 11.543-.635Zm16.297-4.797v-8.149l13.495.015c8.801.011 14.382.462 16.042 1.299 4.554 2.295 3.526 8.837-1.398 8.899-1.902.024-1.732.394 1.398 3.028l3.565 3.001-5.719.028c-4.207.02-6.404-.512-8.309-2.01-1.424-1.121-4.007-2.037-5.739-2.037-2.471 0-3.15.439-3.15 2.037 0 1.765-.679 2.037-5.093 2.037h-5.092v-8.148Zm22.825-.639c1.12-2.917-1.352-4.454-7.163-4.454-5.407 0-5.477.039-5.477 3.056 0 3.049.012 3.055 6.002 3.055 4.604 0 6.151-.386 6.638-1.657Zm-21.807-83.391V43.59h15.278v80.464h-15.278Zm24.445-3.565V56.831h14.26v46.853h-14.26Zm23.427-16.806V23.219h15.278v80.465h-15.278Zm-119.17-7.129V16.089h14.26v80.465h-14.26Zm23.427 26.991V70.072h15.278v26.482H52.203Zm24.445-16.297V43.59h14.259v46.853H76.648Z"/></svg>