<svg
    xmlns="http://www.w3.org/2000/svg"
    viewBox="0 0 192 192"
    id="vector">
    <g id="group">
        <path
            id="path_6"
            d="M 61.37 167.738 L 61.37 159.477 L 75.884 159.885 C 84.513 160.128 91.294 160.79 92.607 161.518 C 97.223 164.076 96.395 173.089 91.369 175 C 89.922 175.55 82.58 176 75.054 176 L 61.37 176 Z M 82.759 172.649 C 85.631 171.202 86.489 167.959 84.824 164.849 C 83.874 163.072 82.719 162.759 77.121 162.759 L 70.537 162.759 L 70.537 167.682 C 70.537 170.39 70.842 172.91 71.216 173.284 C 72.362 174.431 80.065 174.007 82.759 172.649 Z M 99.056 167.852 L 99.056 159.703 L 112.551 159.718 C 121.352 159.729 126.933 160.18 128.593 161.017 C 133.147 163.312 132.119 169.854 127.195 169.916 C 125.293 169.94 125.463 170.31 128.593 172.944 L 132.158 175.945 L 126.439 175.973 C 122.232 175.993 120.035 175.461 118.13 173.963 C 116.706 172.842 114.123 171.926 112.391 171.926 C 109.92 171.926 109.241 172.365 109.241 173.963 C 109.241 175.728 108.562 176 104.148 176 L 99.056 176 L 99.056 167.852 Z M 121.881 167.213 C 123.001 164.296 120.529 162.759 114.718 162.759 C 109.311 162.759 109.241 162.798 109.241 165.815 C 109.241 168.864 109.253 168.87 115.243 168.87 C 119.847 168.87 121.394 168.484 121.881 167.213 Z M 100.074 83.822 L 100.074 43.59 L 115.352 43.59 L 115.352 124.054 L 100.074 124.054 Z M 124.519 80.257 L 124.519 56.831 L 138.779 56.831 L 138.779 103.684 L 124.519 103.684 Z M 147.946 63.451 L 147.946 23.219 L 163.224 23.219 L 163.224 103.684 L 147.946 103.684 Z M 28.776 56.322 L 28.776 16.089 L 43.036 16.089 L 43.036 96.554 L 28.776 96.554 Z M 52.203 83.313 L 52.203 70.072 L 67.481 70.072 L 67.481 96.554 L 52.203 96.554 Z M 76.648 67.016 L 76.648 43.59 L 90.907 43.59 L 90.907 90.443 L 76.648 90.443 Z"
            fill="#000000"
            stroke-width="12"/>
    </g>
</svg>
