<svg
    xmlns="http://www.w3.org/2000/svg"
    viewBox="0 0 192 192"
    id="vector">
    <g id="group">
        <path
            id="path_6"
            d="M 35.649 161.901 L 35.649 147.862 L 59.425 147.882 C 80.822 147.9 83.581 148.074 86.991 149.622 C 91.742 151.779 93.617 155.255 93.617 161.901 C 93.617 168.547 91.742 172.023 86.991 174.18 C 83.581 175.728 80.822 175.902 59.425 175.92 L 35.649 175.94 Z M 74.073 168.763 C 75.996 166.954 76.408 165.744 76.408 161.901 C 76.408 158.058 75.996 156.848 74.073 155.039 C 71.903 152.998 71.057 152.844 62.072 152.844 L 52.406 152.844 L 52.142 160.924 C 51.997 165.368 52.1 169.583 52.371 170.29 C 52.765 171.316 54.777 171.514 62.302 171.267 C 70.816 170.989 71.966 170.744 74.073 168.763 Z M 100.864 161.861 L 100.864 147.782 L 126.757 148.049 L 152.651 148.315 L 154.835 150.856 C 157.398 153.837 157.763 159.079 155.621 162.137 C 154.852 163.235 152.383 164.67 150.136 165.326 L 146.05 166.517 L 152.559 171.002 L 159.069 175.487 L 148.468 175.743 L 137.868 175.999 L 133.506 172.347 C 129.455 168.955 128.748 168.694 123.608 168.694 L 118.073 168.694 L 118.073 175.94 L 100.864 175.94 Z M 137.094 162.999 C 138.777 162.152 139.429 161.015 139.634 158.57 C 140.059 153.504 137.769 152.391 126.929 152.391 L 118.073 152.391 L 118.073 157.674 C 118.073 160.58 118.345 163.229 118.677 163.562 C 119.756 164.641 134.742 164.183 137.094 162.999 Z M 85.664 91.646 C 78.053 90.719 64.222 86.316 58.293 82.933 C 47.131 76.564 35.13 65.237 30.567 56.764 C 28.988 53.833 28.997 53.771 31.557 49.886 C 36.276 42.721 41.463 37.211 48.346 32.05 C 55.618 26.597 61.555 23.111 62.302 23.857 C 62.553 24.109 61.739 26.839 60.492 29.925 C 54.493 44.779 58.008 60.721 69.726 71.803 C 88.704 89.753 118.636 83.572 130.118 59.332 C 132.758 53.758 133.015 52.441 132.988 44.606 C 132.963 37.371 132.571 35.071 130.529 30.158 C 129.192 26.944 128.305 24.109 128.557 23.857 C 129.264 23.15 136.529 27.365 143.164 32.33 C 148.723 36.49 156.786 45.335 160.804 51.682 L 162.513 54.381 L 156.935 61.783 C 140.507 83.585 113.248 95.006 85.664 91.646 Z M 86.102 71.378 C 77.715 68.386 70.422 60.841 68.104 52.758 C 63.336 36.129 73.194 19.989 90.221 16.547 C 110.084 12.531 128.123 31.44 123.107 51.018 C 119.715 64.261 108.769 72.74 95.193 72.645 C 92.085 72.623 87.994 72.053 86.102 71.378 Z"
            fill="#000000"
            stroke-width="12"/>
    </g>
</svg>
