<svg xmlns="http://www.w3.org/2000/svg" viewBox="0 0 192 192"><path d="M35.649 161.901v-14.039l23.776.02c21.397.018 24.156.192 27.566 1.74 4.751 2.157 6.626 5.633 6.626 12.279s-1.875 10.122-6.626 12.279c-3.41 1.548-6.169 1.722-27.566 1.74l-23.776.02Zm38.424 6.862c1.923-1.809 2.335-3.019 2.335-6.862s-.412-5.053-2.335-6.862c-2.17-2.041-3.016-2.195-12.001-2.195h-9.666l-.264 8.08c-.145 4.444-.042 8.659.229 9.366.394 1.026 2.406 1.224 9.931.977 8.514-.278 9.664-.523 11.771-2.504Zm26.791-6.902v-14.079l25.893.267 25.894.266 2.184 2.541c2.563 2.981 2.928 8.223.786 11.281-.769 1.098-3.238 2.533-5.485 3.189l-4.086 1.191 6.509 4.485 6.51 4.485-10.601.256-10.6.256-4.362-3.652c-4.051-3.392-4.758-3.653-9.898-3.653h-5.535v7.246h-17.209Zm36.23 1.138c1.683-.847 2.335-1.984 2.54-4.429.425-5.066-1.865-6.179-12.705-6.179h-8.856v5.283c0 2.906.272 5.555.604 5.888 1.079 1.079 16.065.621 18.417-.563Zm-51.43-71.353c-7.611-.927-21.442-5.33-27.371-8.713-11.162-6.369-23.163-17.696-27.726-26.169-1.579-2.931-1.57-2.993.99-6.878 4.719-7.165 9.906-12.675 16.789-17.836 7.272-5.453 13.209-8.939 13.956-8.193.251.252-.563 2.982-1.81 6.068-5.999 14.854-2.484 30.796 9.234 41.878 18.978 17.95 48.91 11.769 60.392-12.471 2.64-5.574 2.897-6.891 2.87-14.726-.025-7.235-.417-9.535-2.459-14.448-1.337-3.214-2.224-6.049-1.972-6.301.707-.707 7.972 3.508 14.607 8.473 5.559 4.16 13.622 13.005 17.64 19.352l1.709 2.699-5.578 7.402c-16.428 21.802-43.687 33.223-71.271 29.863Zm.438-20.268c-8.387-2.992-15.68-10.537-17.998-18.62-4.768-16.629 5.09-32.769 22.117-36.211 19.863-4.016 37.902 14.893 32.886 34.471-3.392 13.243-14.338 21.722-27.914 21.627-3.108-.022-7.199-.592-9.091-1.267Z"/></svg>