<svg xmlns="http://www.w3.org/2000/svg" viewBox="0 0 192 192"><path fill="none" stroke="#000" stroke-width="8" d="M33.252 122.476c-8.933-13.989-12.28-30.516-9.443-46.609 2.841-16.093 11.686-30.723 24.943-41.256C62.009 24.077 78.837 18.313 96.2 18.359c17.36.043 34.152 5.892 47.351 16.493 13.199 10.6 21.956 25.276 24.703 41.384 2.746 16.106-.698 32.617-9.713 46.56"/><path fill="none" stroke="#000" stroke-width="8" d="M95.999 104.177c-4.502 0-8.125 4.221-8.125 9.461v36.288l-15.74-14.788c-2.951-2.772-7.703-2.772-10.654 0l-.834.784c-2.951 2.772-2.951 7.237 0 10.009l29.776 27.975c1.513 1.421 3.499 2.11 5.473 2.077.036 0 .072.006.107.006.036 0 .072-.003.107-.006 1.974.036 3.961-.656 5.473-2.077l29.777-27.975c2.95-2.772 2.95-7.237 0-10.009l-.835-.784c-2.95-2.772-7.703-2.772-10.653 0l-15.741 14.788v-36.288c0-5.243-3.622-9.461-8.125-9.461ZM67.654 70.692c0-1.818.769-3.565 2.139-4.849 1.367-1.287 3.227-2.01 5.162-2.01 1.934 0 3.794.723 5.161 2.01 1.37 1.284 2.139 3.031 2.139 4.849 0 1.817-.769 3.565-2.139 4.849-1.367 1.287-3.227 2.01-5.161 2.01-1.935 0-3.795-.723-5.162-2.01-1.37-1.284-2.139-3.032-2.139-4.849m44.663 0c0-1.818.769-3.565 2.139-4.849 1.367-1.287 3.227-2.01 5.162-2.01 1.934 0 3.794.723 5.161 2.01 1.37 1.284 2.139 3.031 2.139 4.849 0 1.817-.769 3.565-2.139 4.849-1.367 1.287-3.227 2.01-5.161 2.01-1.935 0-3.795-.723-5.162-2.01-1.37-1.284-2.139-3.032-2.139-4.849M168.037 17.273l1.418 1.333a4.248 4.248 0 0 1 1.185 1.93 3.997 3.997 0 0 1 0 2.227 4.238 4.238 0 0 1-1.185 1.93l-14.779 13.882a4.738 4.738 0 0 1-3.237 1.26 4.737 4.737 0 0 1-3.239-1.26l-1.419-1.329a4.246 4.246 0 0 1-1.185-1.931 3.993 3.993 0 0 1 0-2.226 4.238 4.238 0 0 1 1.185-1.93l14.776-13.886a4.652 4.652 0 0 1 2.055-1.113 4.802 4.802 0 0 1 2.37 0c.779.195 1.487.58 2.055 1.113zM24.241 17.273l-1.419 1.333a4.238 4.238 0 0 0-1.184 1.93 3.997 3.997 0 0 0 0 2.227 4.227 4.227 0 0 0 1.184 1.93l14.78 13.882a4.654 4.654 0 0 0 2.055 1.114 4.798 4.798 0 0 0 2.369 0 4.654 4.654 0 0 0 2.055-1.114l1.415-1.329a4.246 4.246 0 0 0 1.185-1.931 3.993 3.993 0 0 0 0-2.226 4.238 4.238 0 0 0-1.185-1.93L30.72 17.273a4.652 4.652 0 0 0-2.055-1.113 4.798 4.798 0 0 0-2.369 0 4.652 4.652 0 0 0-2.055 1.113Z"/></svg>