<?xml version="1.0" encoding="UTF-8" standalone="no"?>
<svg
   viewBox="0 0 192 192"
   id="vector"
   version="1.1"
   sodipodi:docname="droidify.svg"
   inkscape:version="1.1.2 (b8e25be833, 2022-02-05)"
   xmlns:inkscape="http://www.inkscape.org/namespaces/inkscape"
   xmlns:sodipodi="http://sodipodi.sourceforge.net/DTD/sodipodi-0.dtd"
   xmlns="http://www.w3.org/2000/svg"
   xmlns:svg="http://www.w3.org/2000/svg">
  <defs
     id="defs10" />
  <sodipodi:namedview
     id="namedview8"
     pagecolor="#ffffff"
     bordercolor="#666666"
     borderopacity="1.0"
     inkscape:pageshadow="2"
     inkscape:pageopacity="0.0"
     inkscape:pagecheckerboard="0"
     showgrid="false"
     inkscape:zoom="3.7447917"
     inkscape:cx="96.133519"
     inkscape:cy="95.866481"
     inkscape:window-width="1280"
     inkscape:window-height="961"
     inkscape:window-x="-8"
     inkscape:window-y="-8"
     inkscape:window-maximized="1"
     inkscape:current-layer="vector" />
  <path
     id="path"
     d="M 33.252 122.476 C 24.319 108.487 20.972 91.96 23.809 75.867 C 26.65 59.774 35.495 45.144 48.752 34.611 C 62.009 24.077 78.837 18.313 96.2 18.359 C 113.56 18.402 130.352 24.251 143.551 34.852 C 156.75 45.452 165.507 60.128 168.254 76.236 C 171 92.342 167.556 108.853 158.541 122.796"
     fill="none"
     stroke="#000000"
     stroke-width="8" />
  <path
     id="path_1"
     d="M 95.999 104.177 C 91.497 104.177 87.874 108.398 87.874 113.638 L 87.874 149.926 L 72.134 135.138 C 69.183 132.366 64.431 132.366 61.48 135.138 L 60.646 135.922 C 57.695 138.694 57.695 143.159 60.646 145.931 L 90.422 173.906 C 91.935 175.327 93.921 176.016 95.895 175.983 C 95.931 175.983 95.967 175.989 96.002 175.989 C 96.038 175.989 96.074 175.986 96.109 175.983 C 98.083 176.019 100.07 175.327 101.582 173.906 L 131.359 145.931 C 134.309 143.159 134.309 138.694 131.359 135.922 L 130.524 135.138 C 127.574 132.366 122.821 132.366 119.871 135.138 L 104.13 149.926 L 104.13 113.638 C 104.13 108.395 100.508 104.177 96.005 104.177 Z"
     fill="none"
     stroke="#000000"
     stroke-width="8" />
  <path
     id="path_2"
     d="M 67.654 70.692 C 67.654 68.874 68.423 67.127 69.793 65.843 C 71.16 64.556 73.02 63.833 74.955 63.833 C 76.889 63.833 78.749 64.556 80.116 65.843 C 81.486 67.127 82.255 68.874 82.255 70.692 C 82.255 72.509 81.486 74.257 80.116 75.541 C 78.749 76.828 76.889 77.551 74.955 77.551 C 73.02 77.551 71.16 76.828 69.793 75.541 C 68.423 74.257 67.654 72.509 67.654 70.692 M 112.317 70.692 C 112.317 68.874 113.086 67.127 114.456 65.843 C 115.823 64.556 117.683 63.833 119.618 63.833 C 121.552 63.833 123.412 64.556 124.779 65.843 C 126.149 67.127 126.918 68.874 126.918 70.692 C 126.918 72.509 126.149 74.257 124.779 75.541 C 123.412 76.828 121.552 77.551 119.618 77.551 C 117.683 77.551 115.823 76.828 114.456 75.541 C 113.086 74.257 112.317 72.509 112.317 70.692"
     fill="none"
     stroke="#000000"
     stroke-width="8" />
  <path
     id="path_3"
     d="m 168.037,17.273 1.418,1.333 c 0.568,0.534 0.977,1.199 1.185,1.93 0.211,0.729 0.211,1.498 0,2.227 -0.208,0.732 -0.617,1.397 -1.185,1.93 l -14.779,13.882 c -0.857,0.806 -2.026,1.26 -3.237,1.26 -1.214,0 -2.382,-0.454 -3.239,-1.26 l -1.419,-1.329 c -0.568,-0.534 -0.977,-1.199 -1.185,-1.931 -0.211,-0.729 -0.211,-1.497 0,-2.226 0.208,-0.732 0.617,-1.397 1.185,-1.93 l 14.776,-13.886 c 0.568,-0.533 1.276,-0.918 2.055,-1.113 0.776,-0.198 1.594,-0.198 2.37,0 0.779,0.195 1.487,0.58 2.055,1.113 z"
     fill="none"
     stroke="#000000"
     stroke-width="8" />
  <path
     id="path_4"
     d="M 24.241 17.273 L 22.822 18.606 C 22.254 19.14 21.845 19.805 21.638 20.536 C 21.427 21.265 21.427 22.034 21.638 22.763 C 21.845 23.495 22.254 24.16 22.822 24.693 L 37.602 38.575 C 38.17 39.109 38.878 39.493 39.657 39.689 C 40.432 39.887 41.25 39.887 42.026 39.689 C 42.805 39.493 43.513 39.109 44.081 38.575 L 45.496 37.246 C 46.064 36.712 46.473 36.047 46.681 35.315 C 46.892 34.586 46.892 33.818 46.681 33.089 C 46.473 32.357 46.064 31.692 45.496 31.159 L 30.72 17.273 C 30.152 16.74 29.444 16.355 28.665 16.16 C 27.89 15.962 27.072 15.962 26.296 16.16 C 25.517 16.355 24.809 16.74 24.241 17.273 Z"
     fill="none"
     stroke="#000000"
     stroke-width="8" />
</svg>
