<svg xmlns="http://www.w3.org/2000/svg" viewBox="0 0 192 192"><path fill="none" stroke="#000" stroke-linecap="round" stroke-linejoin="round" stroke-width="8" d="M16.522 109.987v55.026c0 2.221.882 4.353 2.451 5.923a8.361 8.361 0 0 0 5.916 2.454h142.243a8.363 8.363 0 0 0 7.247-4.188 8.39 8.39 0 0 0 1.121-4.189v-55.026Zm143.959-58.23 11.13-10.974a13.014 13.014 0 0 0-.037-18.386 12.989 12.989 0 0 0-9.19-3.791 12.988 12.988 0 0 0-9.175 3.824l-.007.008-10.963 11.182A79.072 79.072 0 0 0 96.01 18.692 79.073 79.073 0 0 0 49.78 33.62L38.736 22.564a13.634 13.634 0 0 0-9.329-3.938 12.802 12.802 0 0 0-9.12 3.77 12.995 12.995 0 0 0 0 18.345l11.17 10.974a79.653 79.653 0 0 0-14.935 46.492v11.78H175.5v-11.78a79.653 79.653 0 0 0-15.019-46.45Zm-85.389 30.03c0 3.331-1.323 6.53-3.676 8.885a12.546 12.546 0 0 1-17.75 0 12.576 12.576 0 0 1 0-17.77 12.546 12.546 0 0 1 19.745 2.603 12.572 12.572 0 0 1 1.682 6.283Zm54.387 12.565a12.547 12.547 0 0 1-8.875-3.68 12.578 12.578 0 0 1 0-17.77 12.547 12.547 0 0 1 8.875-3.68c3.327 0 6.522 1.324 8.875 3.68a12.578 12.578 0 0 1 1.995 15.168 12.548 12.548 0 0 1-10.869 6.283Z"/><path fill="none" stroke="#000" stroke-linecap="round" stroke-linejoin="round" stroke-width="8" d="M84.683 137.365v-6.023a11.336 11.336 0 0 1 3.316-8.008c2.121-2.122 5-3.316 7.999-3.316 3 0 5.879 1.194 8 3.316a11.336 11.336 0 0 1 3.316 8.008v6.023m-28.492 0h34.353v25.672H78.822Zm17.176 15.468v-5.263"/></svg>