<svg xmlns="http://www.w3.org/2000/svg" viewBox="0 0 192 192"><path d="M65.599 163.137c-13.64-6.924-30.38-15.28-37.199-18.57l-12.398-5.981L16 100.325c-.001-21.044.382-38.261.851-38.261s10.369 4.826 22 10.725a10870.283 10870.283 0 0 0 36.748 18.543l15.6 7.819v38.321c0 21.077-.18 38.306-.4 38.288-.22-.019-11.56-5.699-25.2-12.623Zm35.2-25.594V99.087l6.8-3.271c6.763-3.253 46.289-23.441 60.801-31.053l7.6-3.987-.002 38.905-.001 38.905-12.399 5.969c-6.819 3.283-19.598 9.637-28.398 14.121-8.8 4.485-20.141 10.217-25.201 12.739l-9.2 4.585Zm-32-58.926c-13.64-7.024-29.805-15.223-35.922-18.22-6.117-2.998-11.362-5.661-11.655-5.918-.294-.258 5.791-3.647 13.522-7.533a19757.49 19757.49 0 0 0 37.655-19.005L95.999 16l23.6 11.941c12.981 6.568 29.926 15.12 37.656 19.005 7.73 3.886 13.85 7.204 13.6 7.373-.25.17-8.015 4.124-17.255 8.788-9.24 4.664-25.606 12.971-36.369 18.461-10.763 5.49-20.483 9.945-21.601 9.901-1.117-.045-13.191-5.828-26.831-12.852Z"/></svg>