<svg xmlns="http://www.w3.org/2000/svg" viewBox="0 0 192 192"><path d="M110.505 174.646c-12.51-2.696-19.816-9.193-31.696-28.191a3529.03 3529.03 0 0 0-14.65-23.185 3326.236 3326.236 0 0 1-15.306-24.263A13240.393 13240.393 0 0 0 35.71 77.984c-8.998-14.348-10.326-25.739-4.447-38.166 3.301-6.977 13.661-17.158 20.572-20.215 7.207-3.188 17.569-4.408 25.997-3.062 14.437 2.306 24.093 9.795 34.51 26.762 2.787 4.54 8.578 13.836 12.87 20.656 4.291 6.821 11.008 17.497 14.928 23.725 25.621 40.711 23.777 36.861 23.76 49.605-.016 12.181-1.852 16.629-10.61 25.699-11.032 11.425-25.531 15.375-42.785 11.658Zm-11.833-73.251c11.931-6.306 15.664-9.432 17.345-14.525 1.873-5.675.675-8.901-9.435-25.406C95.625 43.576 91.265 37.591 86.78 34.282c-10.457-7.715-28.99-5.713-37.205 4.019-8.88 10.52-9.124 19.929-.854 32.886 1.97 3.085 3.581 5.859 3.581 6.164 0 1.666 16.605 25.463 18.747 26.867 3.856 2.526 9.405 3.821 13.604 3.173 2.076-.32 8.385-3.018 14.019-5.996Z"/></svg>