<svg xmlns="http://www.w3.org/2000/svg" viewBox="0 0 192 192"><path d="M16 153.018c0-1.995 1.87-5.103 4.156-6.906 3.907-3.082 4.156-6.121 4.156-50.741 0-45.256-.194-47.527-4.156-48.836C17.87 45.78 16 43.528 16 41.532c0-2.877 4.853-3.628 23.377-3.616 12.857.008 26.908 1.253 31.225 2.767 35.544 12.467 38.836 85.084 4.858 107.169-8.693 5.65-13.577 6.729-34.787 7.684-20.04.903-24.673.43-24.673-2.518Zm53.2-15.606c9.261-10.927 12.044-20.517 12.125-41.779.058-15.197-.893-21.781-4.166-28.86-6.073-13.134-16.253-20.999-27.181-20.999h-9.043v100.379l11.445-1.199c8.36-.876 12.893-2.908 16.82-7.542Zm42.384-1.095c0-14.977.685-19.683 2.865-19.683 1.576 0 3.989 3.426 5.362 7.614 3.107 9.472 9.674 17.4 17.527 21.159 7.394 3.538 18.984-.568 22.055-7.815 5.912-13.952-1.089-25.882-20.76-35.375-18.366-8.864-24.971-18.016-24.971-34.599 0-24.804 21.874-38.941 42.458-27.441 8.199 4.581 9.857 4.82 10.846 1.566.642-2.113 2.469-3.842 4.062-3.842 2.196 0 2.894 4.396 2.894 18.216 0 10.019-.899 18.918-1.998 19.776-1.099.858-3.878-3.094-6.176-8.782-5.662-14.018-13.509-21.337-22.878-21.337-9.074 0-13.972 4.128-15.705 13.236-2.034 10.688 5.002 19.131 22.755 27.309C169.787 95.471 176 103.907 176 121.73c0 8.918-1.308 14.668-4.505 19.8-9.125 14.653-30.031 19.058-43.01 9.064l-6.995-5.386-2.993 5.396c-5.225 9.422-6.913 5.935-6.913-14.287Z"/></svg>