<svg
    xmlns="http://www.w3.org/2000/svg"
    viewBox="0 0 192 192"
    id="vector">
    <g id="group">
        <path
            id="path_3"
            d="M 25.468 166.231 C 28.464 164.486 28.472 148.257 25.477 146.581 C 23.063 145.23 23.495 144.687 27.808 143.653 C 30.244 143.068 31.025 143.312 31.025 144.658 C 31.025 146.926 32.662 146.937 34.535 144.68 C 36.44 142.385 42.065 142.432 44.396 144.764 C 45.75 146.118 46.235 148.984 46.235 155.645 C 46.235 161.118 46.789 165.241 47.639 166.091 C 48.731 167.183 47.919 167.495 43.986 167.495 C 39.771 167.495 39.156 167.221 40.295 165.848 C 41.142 164.827 41.53 160.937 41.316 155.611 L 40.97 147.02 L 32.78 147.02 L 32.434 155.611 C 32.22 160.937 32.607 164.827 33.455 165.848 C 34.598 167.226 33.891 167.489 29.121 167.459 C 24.679 167.432 23.872 167.16 25.468 166.231 Z M 54.828 165.355 C 57.466 162.441 57.609 147.856 55.01 146.858 C 52.183 145.774 52.982 144.401 56.765 143.846 L 60.275 143.331 L 60.275 153.273 C 60.275 160.883 60.729 163.718 62.211 165.355 C 64.061 167.4 63.897 167.495 58.52 167.495 C 53.142 167.495 52.978 167.4 54.828 165.355 Z M 71.135 164.862 C 66.17 159.456 66.813 148.544 72.324 144.684 C 78.193 140.573 86.014 143.799 86.014 150.33 C 86.014 153.34 85.776 153.455 79.543 153.455 C 72.361 153.455 71.144 154.63 73.073 159.703 C 74.682 163.933 79.21 165.966 83.089 164.198 C 84.698 163.465 86.014 163.275 86.014 163.776 C 86.014 168.149 74.899 168.961 71.135 164.862 Z M 82.504 149.503 C 82.504 143.172 75.455 142.651 73.303 148.823 L 72.096 152.285 L 77.3 152.285 C 82 152.285 82.504 152.015 82.504 149.503 Z M 94.245 165.232 C 93.579 163.987 93.034 159.249 93.034 154.702 C 93.034 149.971 92.534 146.435 91.864 146.435 C 91.221 146.435 90.694 145.909 90.694 145.265 C 90.694 144.622 92.252 144.095 94.157 144.095 L 97.619 144.095 L 97.959 153.624 C 98.229 161.184 98.722 163.419 100.346 164.441 C 101.835 165.377 102.953 165.377 104.441 164.441 C 107.307 162.641 108.143 146.435 105.37 146.435 C 104.377 146.435 103.564 145.909 103.564 145.265 C 103.564 144.622 105.407 144.095 107.659 144.095 L 111.754 144.095 L 111.754 154.077 C 111.754 161.87 112.138 164.206 113.509 164.732 C 116.666 165.943 115.352 167.495 111.169 167.495 C 108.764 167.495 107.074 166.916 107.074 166.091 C 107.074 164.999 106.762 164.999 105.67 166.091 C 103.336 168.425 95.644 167.846 94.245 165.232 Z M 121.802 156.677 C 120.021 150.727 117.953 145.47 117.206 144.995 C 116.46 144.52 118.218 144.131 121.114 144.131 C 124.353 144.131 125.79 144.505 124.848 145.102 C 123.606 145.889 123.717 147.433 125.433 153.272 C 126.596 157.232 127.901 160.473 128.332 160.473 C 128.763 160.474 129.981 157.87 131.038 154.686 C 132.504 150.274 132.655 148.326 131.676 146.496 C 130.485 144.27 130.714 144.097 134.82 144.113 C 137.596 144.125 138.681 144.491 137.729 145.095 C 136.499 145.875 136.591 147.433 138.213 153.267 C 139.315 157.231 140.592 160.475 141.051 160.475 C 142.664 160.475 145.468 146.688 144.128 145.348 C 143.238 144.458 143.831 144.095 146.177 144.095 C 148.665 144.095 149.19 144.456 148.307 145.558 C 147.662 146.362 145.647 151.627 143.828 157.258 C 142.009 162.888 139.916 167.495 139.176 167.495 C 138.437 167.495 137.093 164.731 136.19 161.353 C 135.287 157.974 134.084 155.21 133.518 155.21 C 132.951 155.21 131.438 157.974 130.154 161.353 C 128.87 164.731 127.195 167.495 126.43 167.495 C 125.666 167.495 123.583 162.627 121.802 156.677 Z M 152.707 162.822 L 152.712 158.72 L 155.076 162.597 C 156.965 165.696 158.081 166.401 160.629 166.107 C 163.128 165.819 163.898 165.042 164.189 162.515 C 164.516 159.676 163.924 159.016 159.253 157.014 C 153.871 154.707 151.6 150.998 153.129 147.013 C 154.2 144.223 159.124 142.552 163.729 143.416 C 167.332 144.092 167.902 144.641 167.834 147.366 C 167.758 150.412 167.709 150.435 166.53 147.999 C 164.173 143.126 157.383 143.82 157.383 148.934 C 157.383 150.399 159.175 152.016 162.689 153.724 C 168.847 156.715 170.328 160.156 167.389 164.642 C 165.634 167.32 164.792 167.586 159.07 167.273 L 152.703 166.923 L 152.708 162.822 Z M 56.157 134.698 C 55.702 133.963 55.881 132.811 56.554 132.138 C 58.126 130.566 61.792 131.937 61.152 133.859 C 60.501 135.814 57.19 136.371 56.157 134.698 Z M 133.026 116.578 C 130.891 115.651 127.637 113.818 125.794 112.506 L 122.443 110.12 L 120.356 113.653 C 119.003 115.943 117.329 117.186 115.596 117.186 C 112.95 117.186 112.924 117.037 112.924 101.976 C 112.924 86.83 112.935 86.766 115.649 86.766 C 117.796 86.766 118.974 88.068 121.206 92.906 C 128.933 109.656 145.886 116.224 156.625 106.629 C 160.001 103.612 160.308 102.737 160.308 96.132 C 160.308 89.356 160.057 88.697 156.105 85.074 C 153.793 82.956 148.791 80.09 144.99 78.706 C 141.188 77.322 135.881 75.383 133.195 74.395 C 121.027 69.924 114.094 60.931 114.094 49.619 C 114.094 46.324 114.654 42.147 115.338 40.336 C 120.565 26.501 142.623 20.195 157.824 28.191 L 164.352 31.625 L 166.797 28.191 C 168.142 26.303 169.996 24.757 170.917 24.757 C 172.288 24.757 172.593 27.626 172.593 40.552 C 172.593 59.472 171.338 60.766 165.068 48.316 C 162.844 43.899 159.391 38.911 157.395 37.232 C 149.734 30.786 137.476 30.445 131.411 36.509 C 128.755 39.165 128.133 40.825 128.133 45.259 C 128.133 53.461 132.349 57.022 149.452 63.268 C 171.259 71.233 176.817 77.632 175.907 93.728 C 175.25 105.367 169.257 112.94 157.501 116.987 C 152.041 118.866 137.745 118.627 133.026 116.578 Z M 16.985 114.489 C 16.985 112.256 17.744 111.477 20.445 110.936 C 27.048 109.616 27.515 106.96 27.515 70.705 C 27.515 34.906 27.324 33.862 20.494 32.362 C 17.53 31.711 16.985 31.037 16.985 28.018 L 16.985 24.444 L 41.262 25.068 C 67.942 25.754 74.131 26.927 83.945 33.158 C 94.673 39.97 101.224 53.594 101.224 69.094 C 101.224 89.869 92.409 104.979 75.661 112.914 L 67.879 116.601 L 42.432 116.975 L 16.985 117.349 Z M 65.539 107.943 C 76.75 102.742 82.6 91.984 83.42 75.061 C 84.42 54.442 79.498 42.465 67.453 36.208 C 62.244 33.501 59.709 32.947 52.536 32.947 L 43.895 32.947 L 43.895 110.166 L 52.377 110.14 C 58.133 110.123 62.364 109.417 65.539 107.943 Z"
            fill="#000000"
            stroke-width="12"/>
    </g>
</svg>
