<svg xmlns="http://www.w3.org/2000/svg" viewBox="0 0 192 192"><path d="M25.468 166.231c2.996-1.745 3.004-17.974.009-19.65-2.414-1.351-1.982-1.894 2.331-2.928 2.436-.585 3.217-.341 3.217 1.005 0 2.268 1.637 2.279 3.51.022 1.905-2.295 7.53-2.248 9.861.084 1.354 1.354 1.839 4.22 1.839 10.881 0 5.473.554 9.596 1.404 10.446 1.092 1.092.28 1.404-3.653 1.404-4.215 0-4.83-.274-3.691-1.647.847-1.021 1.235-4.911 1.021-10.237l-.346-8.591h-8.19l-.346 8.591c-.214 5.326.173 9.216 1.021 10.237 1.143 1.378.436 1.641-4.334 1.611-4.442-.027-5.249-.299-3.653-1.228Zm29.36-.876c2.638-2.914 2.781-17.499.182-18.497-2.827-1.084-2.028-2.457 1.755-3.012l3.51-.515v9.942c0 7.61.454 10.445 1.936 12.082 1.85 2.045 1.686 2.14-3.691 2.14-5.378 0-5.542-.095-3.692-2.14Zm16.307-.493c-4.965-5.406-4.322-16.318 1.189-20.178 5.869-4.111 13.69-.885 13.69 5.646 0 3.01-.238 3.125-6.471 3.125-7.182 0-8.399 1.175-6.47 6.248 1.609 4.23 6.137 6.263 10.016 4.495 1.609-.733 2.925-.923 2.925-.422 0 4.373-11.115 5.185-14.879 1.086Zm11.369-15.359c0-6.331-7.049-6.852-9.201-.68l-1.207 3.462H77.3c4.7 0 5.204-.27 5.204-2.782Zm11.741 15.729c-.666-1.245-1.211-5.983-1.211-10.53 0-4.731-.5-8.267-1.17-8.267-.643 0-1.17-.526-1.17-1.17 0-.643 1.558-1.17 3.463-1.17h3.462l.34 9.529c.27 7.56.763 9.795 2.387 10.817 1.489.936 2.607.936 4.095 0 2.866-1.8 3.702-18.006.929-18.006-.993 0-1.806-.526-1.806-1.17 0-.643 1.843-1.17 4.095-1.17h4.095v9.982c0 7.793.384 10.129 1.755 10.655 3.157 1.211 1.843 2.763-2.34 2.763-2.405 0-4.095-.579-4.095-1.404 0-1.092-.312-1.092-1.404 0-2.334 2.334-10.026 1.755-11.425-.859Zm27.557-8.555c-1.781-5.95-3.849-11.207-4.596-11.682-.746-.475 1.012-.864 3.908-.864 3.239 0 4.676.374 3.734.971-1.242.787-1.131 2.331.585 8.17 1.163 3.96 2.468 7.201 2.899 7.201.431.001 1.649-2.603 2.706-5.787 1.466-4.412 1.617-6.36.638-8.19-1.191-2.226-.962-2.399 3.144-2.383 2.776.012 3.861.378 2.909.982-1.23.78-1.138 2.338.484 8.172 1.102 3.964 2.379 7.208 2.838 7.208 1.613 0 4.417-13.787 3.077-15.127-.89-.89-.297-1.253 2.049-1.253 2.488 0 3.013.361 2.13 1.463-.645.804-2.66 6.069-4.479 11.7-1.819 5.63-3.912 10.237-4.652 10.237-.739 0-2.083-2.764-2.986-6.142-.903-3.379-2.106-6.143-2.672-6.143-.567 0-2.08 2.764-3.364 6.143-1.284 3.378-2.959 6.142-3.724 6.142-.764 0-2.847-4.868-4.628-10.818Zm30.905 6.145.005-4.102 2.364 3.877c1.889 3.099 3.005 3.804 5.553 3.51 2.499-.288 3.269-1.065 3.56-3.592.327-2.839-.265-3.499-4.936-5.501-5.382-2.307-7.653-6.016-6.124-10.001 1.071-2.79 5.995-4.461 10.6-3.597 3.603.676 4.173 1.225 4.105 3.95-.076 3.046-.125 3.069-1.304.633-2.357-4.873-9.147-4.179-9.147.935 0 1.465 1.792 3.082 5.306 4.79 6.158 2.991 7.639 6.432 4.7 10.918-1.755 2.678-2.597 2.944-8.319 2.631l-6.367-.35.005-4.101Zm-96.55-28.124c-.455-.735-.276-1.887.397-2.56 1.572-1.572 5.238-.201 4.598 1.721-.651 1.955-3.962 2.512-4.995.839Zm76.869-18.12c-2.135-.927-5.389-2.76-7.232-4.072l-3.351-2.386-2.087 3.533c-1.353 2.29-3.027 3.533-4.76 3.533-2.646 0-2.672-.149-2.672-15.21 0-15.146.011-15.21 2.725-15.21 2.147 0 3.325 1.302 5.557 6.14 7.727 16.75 24.68 23.318 35.419 13.723 3.376-3.017 3.683-3.892 3.683-10.497 0-6.776-.251-7.435-4.203-11.058-2.312-2.118-7.314-4.984-11.115-6.368a4683.338 4683.338 0 0 1-11.795-4.311c-12.168-4.471-19.101-13.464-19.101-24.776 0-3.295.56-7.472 1.244-9.283 5.227-13.835 27.285-20.141 42.486-12.145l6.528 3.434 2.445-3.434c1.345-1.888 3.199-3.434 4.12-3.434 1.371 0 1.676 2.869 1.676 15.795 0 18.92-1.255 20.214-7.525 7.764-2.224-4.417-5.677-9.405-7.673-11.084-7.661-6.446-19.919-6.787-25.984-.723-2.656 2.656-3.278 4.316-3.278 8.75 0 8.202 4.216 11.763 21.319 18.009 21.807 7.965 27.365 14.364 26.455 30.46-.657 11.639-6.65 19.212-18.406 23.259-5.46 1.879-19.756 1.64-24.475-.409Zm-116.041-2.089c0-2.233.759-3.012 3.46-3.553 6.603-1.32 7.07-3.976 7.07-40.231 0-35.799-.191-36.843-7.021-38.343-2.964-.651-3.509-1.325-3.509-4.344v-3.574l24.277.624c26.68.686 32.869 1.859 42.683 8.09 10.728 6.812 17.279 20.436 17.279 35.936 0 20.775-8.815 35.885-25.563 43.82l-7.782 3.687-25.447.374-25.447.374Zm48.554-6.546C76.75 102.742 82.6 91.984 83.42 75.061c1-20.619-3.922-32.596-15.967-38.853-5.209-2.707-7.744-3.261-14.917-3.261h-8.641v77.219l8.482-.026c5.756-.017 9.987-.723 13.162-2.197Z"/></svg>