<svg xmlns="http://www.w3.org/2000/svg" viewBox="0 0 192 192"><path d="M131.077 174.229c-19.511-3.853-52.166-3.8-82.951.135-6.897.881-7.433.764-5.764-1.26 1.012-1.228 4.586-3.562 7.942-5.186 3.356-1.625 6.4-3.438 6.766-4.029.365-.591-1.654-3.526-4.486-6.523-9.103-9.633-10.068-14.585-9.39-48.195.662-32.84 1.312-35.481 11.032-44.818 2.728-2.62 4.96-5.906 4.96-7.302 0-3.281 3.801-4.714 7.077-2.668 3.103 1.938 3.983 2.006 3.983.311 0-.709-1.18-1.664-2.621-2.121-2.465-.783-7.057-11.477-7.057-16.437 0-2.25 18.965-9.184 27.963-10.223 5.093-.589 5.218-.495 5.218 3.91 0 2.483 1.013 5.633 2.251 7.001 2.054 2.27 2.062 2.884.089 7.042-1.189 2.505-2.832 6.32-3.652 8.477-1.058 2.781-2.14 3.673-3.721 3.066-4.113-1.578-6.216 1.828-5.221 8.46.902 6.019.877 6.068-2.713 5.167-4.431-1.112-4.806.981-.513 2.864 3.406 1.494 8.601 11.093 10.02 18.513.774 4.048.354 5.152-3.004 7.9-5.541 4.533-2.662 4.005 8.538-1.567 5.323-2.648 11.383-4.815 13.467-4.816 2.766 0 4.603-1.243 6.805-4.602 3.141-4.792 11.894-11.391 13.276-10.009.438.438-.663 2.349-2.446 4.247-2.43 2.586-2.716 3.451-1.142 3.451 2.33 0 5.794-3.534 7.115-7.259.472-1.33 1.76-2.419 2.863-2.419 1.643 0 1.753.918.607 5.068-1.986 7.193-6.389 12.579-12.479 15.266-4.256 1.878-5.254 3.044-5.254 6.137 0 4.721-7.671 10.935-22.619 18.32-12.619 6.236-23.169 7.893-27.174 4.269-1.509-1.365-2.743-3.243-2.743-4.173 0-.93-1.023-2.539-2.274-3.577-2.034-1.688-2.163-1.525-1.227 1.559.575 1.895 2.648 5.156 4.606 7.247 3.892 4.158 9.544 4.917 18.174 2.442 3.759-1.078 5.242-.911 7.137.803 2.242 2.03 2.067 2.49-2.816 7.372-3.645 3.646-5.478 6.9-6.109 10.85-1.055 6.597-3.817 9.809-9.392 10.924-4.706.941-6.699 3.21-2.82 3.21 8.046 0 15.458-6.633 15.458-13.833 0-1.453 2.477-5.244 5.503-8.426 5.426-5.704 5.608-5.774 13.043-5.006 10.444 1.078 29.343 10.185 38.065 18.343 6.478 6.06 6.986 7.008 6.986 13.044 0 4.55-.761 7.198-2.529 8.797-2.92 2.643-4.6 2.668-16.827.254ZM60.082 27.987c1.428-7.764 6.069-11.191 16.003-11.817 7.365-.465 9.264-.085 12.552 2.509 2.132 1.681 3.593 3.338 3.249 3.683-.344.344-4.663 1.47-9.598 2.503-4.934 1.032-11.805 3.168-15.269 4.746-3.465 1.578-6.629 2.869-7.031 2.869-.403 0-.361-2.022.094-4.493Z"/></svg>