<svg xmlns="http://www.w3.org/2000/svg" xml:space="preserve" id="Layer_1" width="192" height="192" x="0" y="0" style="enable-background:new 0 0 192 192" version="1.1" viewBox="0 0 192 192"><style>.st1{fill:none;stroke:#000;stroke-width:6;stroke-linejoin:round;stroke-miterlimit:10}</style><path d="M22 76.2v39.6h22.7c10.5-1.6 18-10.9 17.4-21-.5-9.3-7.8-17.2-17.4-18.6H22zm54.3 0h39.9v39.6h-21c-1.3 0-8-.3-13.4-5.8-5-5.2-5.3-11.5-5.4-12.9 0-7-.1-13.9-.1-20.9zm73.9 0c10.9 0 19.8 8.9 19.8 19.8s-8.9 19.8-19.8 19.8-19.8-8.9-19.8-19.8 8.9-19.8 19.8-19.8z" style="fill:none;stroke:#000;stroke-width:12;stroke-linejoin:round;stroke-miterlimit:10"/><path d="M22 96h40.2M96.2 76.2v39.6M130.4 96H170" class="st1"/></svg>