<svg
    xmlns="http://www.w3.org/2000/svg"
    viewBox="0 0 192 192"
    id="vector">
    <path
        id="path"
        d="M 64.937 102.61 C 62.931 102.61 61.006 103.393 59.588 104.786 C 58.169 106.178 57.372 108.069 57.372 110.038 C 57.372 112.007 58.169 113.898 59.588 115.29 C 61.006 116.683 62.931 117.466 64.937 117.466 C 66.943 117.466 68.868 116.683 70.286 115.29 C 71.705 113.898 72.502 112.007 72.502 110.038 C 72.502 108.069 71.705 106.178 70.286 104.786 C 68.868 103.393 66.943 102.61 64.937 102.61 Z M 64.937 141.287 C 63.336 141.282 61.775 141.776 60.478 142.697 C 59.181 143.619 58.215 144.921 57.72 146.415 C 57.224 147.909 57.224 149.52 57.72 151.015 C 58.215 152.509 59.181 153.811 60.478 154.732 C 61.775 155.654 63.336 156.148 64.937 156.143 C 66.538 156.148 68.099 155.654 69.396 154.732 C 70.693 153.811 71.659 152.509 72.154 151.015 C 72.65 149.52 72.65 147.909 72.154 146.415 C 71.659 144.921 70.693 143.619 69.396 142.697 C 68.099 141.776 66.538 141.282 64.937 141.287 Z M 76.552 121.967 C 74.547 121.967 72.621 122.751 71.203 124.143 C 69.785 125.535 68.987 127.426 68.987 129.395 C 68.987 131.364 69.785 133.255 71.203 134.647 C 72.621 136.04 74.547 136.823 76.552 136.823 C 78.558 136.823 80.483 136.04 81.902 134.647 C 83.32 133.255 84.117 131.364 84.117 129.395 C 84.117 127.426 83.32 125.535 81.902 124.143 C 80.483 122.751 78.558 121.967 76.552 121.967 Z M 80.106 160.644 C 78.508 160.644 76.951 161.141 75.659 162.063 C 74.367 162.985 73.404 164.285 72.911 165.777 C 72.417 167.268 72.417 168.876 72.911 170.367 C 73.404 171.859 74.367 173.159 75.659 174.081 C 76.951 175.003 78.508 175.5 80.106 175.5 C 81.706 175.505 83.268 175.011 84.565 174.09 C 85.861 173.168 86.827 171.866 87.323 170.372 C 87.818 168.878 87.818 167.267 87.323 165.772 C 86.827 164.278 85.861 162.976 84.565 162.055 C 83.268 161.133 81.706 160.639 80.106 160.644 Z M 99.095 71.061 C 91.033 71.061 61.613 65.584 61.613 40.374 C 61.613 15.165 83.124 16.516 98.101 16.516 C 113.079 16.516 134.628 15.128 134.628 40.374 C 134.628 65.621 105.208 71.061 97.146 71.061 Z"
        fill="none"
        stroke="#000000"
        stroke-width="8"
        stroke-linecap="round"
        stroke-linejoin="round"/>
    <path
        id="path_1"
        d="M 98.101 71.061 C 98.101 77.063 117.205 86.854 125.879 102.535 C 143.607 134.535 91.262 156.818 85.455 162.82 M 72.426 147.627 C 81.94 145.676 111.474 126.657 122.516 97.358 M 82.169 124.368 C 89.381 120.009 95.607 114.244 100.463 107.431 C 105.32 100.618 108.703 92.9 110.404 84.754 M 71.547 106.399 C 81.061 104.448 95.121 94.057 98.292 71.061 M 85.149 30.433 L 111.092 30.433 M 85.149 56.205 L 111.092 56.205 M 134.628 41.8 L 117.664 41.8 M 78.577 41.8 L 61.613 41.8"
        fill="none"
        stroke="#000000"
        stroke-width="8"
        stroke-linecap="round"
        stroke-linejoin="round"/>
</svg>
