<svg xmlns="http://www.w3.org/2000/svg" viewBox="0 0 192 192"><path fill="none" stroke="#000" stroke-linecap="round" stroke-linejoin="round" stroke-width="8" d="M64.937 102.61a7.636 7.636 0 0 0-5.349 2.176 7.359 7.359 0 0 0-2.216 5.252c0 1.969.797 3.86 2.216 5.252a7.636 7.636 0 0 0 5.349 2.176 7.636 7.636 0 0 0 5.349-2.176 7.359 7.359 0 0 0 2.216-5.252c0-1.969-.797-3.86-2.216-5.252a7.636 7.636 0 0 0-5.349-2.176Zm0 38.677a7.663 7.663 0 0 0-4.459 1.41 7.437 7.437 0 0 0-2.758 3.718 7.296 7.296 0 0 0 0 4.6 7.43 7.43 0 0 0 2.758 3.717 7.657 7.657 0 0 0 4.459 1.411 7.657 7.657 0 0 0 4.459-1.411 7.43 7.43 0 0 0 2.758-3.717 7.296 7.296 0 0 0 0-4.6 7.437 7.437 0 0 0-2.758-3.718 7.663 7.663 0 0 0-4.459-1.41Zm11.615-19.32a7.642 7.642 0 0 0-5.349 2.176 7.363 7.363 0 0 0-2.216 5.252c0 1.969.798 3.86 2.216 5.252a7.637 7.637 0 0 0 5.349 2.176 7.64 7.64 0 0 0 5.35-2.176 7.362 7.362 0 0 0 2.215-5.252c0-1.969-.797-3.86-2.215-5.252a7.644 7.644 0 0 0-5.35-2.176Zm3.554 38.677a7.66 7.66 0 0 0-4.447 1.419 7.434 7.434 0 0 0-2.748 3.714 7.293 7.293 0 0 0 0 4.59 7.434 7.434 0 0 0 2.748 3.714 7.66 7.66 0 0 0 4.447 1.419 7.665 7.665 0 0 0 4.459-1.41 7.449 7.449 0 0 0 2.758-3.718 7.31 7.31 0 0 0 0-4.6 7.442 7.442 0 0 0-2.758-3.717 7.66 7.66 0 0 0-4.459-1.411Zm18.989-89.583c-8.062 0-37.482-5.477-37.482-30.687 0-25.209 21.511-23.858 36.488-23.858 14.978 0 36.527-1.388 36.527 23.858 0 25.247-29.42 30.687-37.482 30.687Z"/><path fill="none" stroke="#000" stroke-linecap="round" stroke-linejoin="round" stroke-width="8" d="M98.101 71.061c0 6.002 19.104 15.793 27.778 31.474 17.728 32-34.617 54.283-40.424 60.285m-13.029-15.193c9.514-1.951 39.048-20.97 50.09-50.269m-40.347 27.01a61.548 61.548 0 0 0 18.294-16.937 60.297 60.297 0 0 0 9.941-22.677m-38.857 21.645c9.514-1.951 23.574-12.342 26.745-35.338M85.149 30.433h25.943M85.149 56.205h25.943M134.628 41.8h-16.964m-39.087 0H61.613"/></svg>