<svg xmlns="http://www.w3.org/2000/svg" viewBox="0 0 192 192"><path d="M79.098 77.976c-11.641 0-14.647 6.007-14.647 6.007V64.075h-8.262v30.424a17.05 17.05 0 0 0-2.822-9.095 16.99 16.99 0 0 0-16.708-7.428C25.392 77.976 16 82.48 16 97.127c0 11.646 6.385 18.405 21.033 18.405 17.275 0 18.405-11.268 18.405-11.268h-8.64a9.705 9.705 0 0 1-4.122 5.067 9.723 9.723 0 0 1-6.395 1.319 11.296 11.296 0 0 1-5.75-1.178 11.279 11.279 0 0 1-4.393-3.894 11.297 11.297 0 0 1-1.857-5.571q-.034-.499-.019-.999h31.927v9.765l-.378 6.008h8.262l.378-5.256a16.487 16.487 0 0 0 6.502 5.081 16.464 16.464 0 0 0 8.145 1.304c3.38.146 6.735-.664 9.678-2.332a18.062 18.062 0 0 0 9.105-16.824 17.751 17.751 0 0 0-2.167-9.634 17.751 17.751 0 0 0-16.616-9.144ZM24.262 93.748c.097-1.944.703-3.83 1.755-5.469a11.126 11.126 0 0 1 4.252-3.86 11.111 11.111 0 0 1 5.615-1.212q.198.01.397.025c1.94-.19 3.898.174 5.634 1.056a10.262 10.262 0 0 1 5.634 9.46Zm52.582 16.528a12.214 12.214 0 0 1-12.427-11.985q-.01-.582.034-1.164a12.238 12.238 0 0 1 1.227-6.695 12.256 12.256 0 0 1 4.601-5.024 12.244 12.244 0 0 1 6.565-1.798 11.996 11.996 0 0 1 6.516 1.653 12.026 12.026 0 0 1 5.881 11.491 12.585 12.585 0 0 1-1.202 6.39 12.5 12.5 0 0 1-4.238 4.936 12.519 12.519 0 0 1-6.138 2.158q-.407.033-.819.038Z"/><path d="m167.36 79.474-13.518 27.045-13.9-27.045h-9.387l1.552 2.894a20.156 20.156 0 0 0-14.323-4.392c-17.275 0-18.026 9.386-18.026 10.516h8.261s.752-5.26 9.014-5.26c11.641 0 10.138 9.013 10.138 9.013h-10.138c-13.145 0-19.908 4.131-19.908 11.646 0 7.51 6.385 12.019 15.025 12.019 12.02 0 15.399-6.385 15.399-6.385l.378 5.256h7.511V91.493a16.25 16.25 0 0 0-.408-3.689l14.303 26.603-6.758 13.518h9.013L176 79.474Zm-53.333 31.176c-6.008 0-8.635-3.006-8.635-6.759 0-6.386 9.013-6.386 21.784-6.386a11.8 11.8 0 0 1-1.256 6.919 11.764 11.764 0 0 1-4.975 4.97 11.766 11.766 0 0 1-6.918 1.256Z"/></svg>