<svg xmlns="http://www.w3.org/2000/svg" width="192" height="192" fill="none" viewBox="0 0 192 192"><g stroke="#000" stroke-linecap="round" stroke-linejoin="round" stroke-width="12" clip-path="url(#a)" style="stroke-width:9.1364;stroke-dasharray:none" transform="matrix(.87156 0 0 .87156 12.33 21.063)"><path d="M65 96c0-18.857 9.216-30 31-30M65 96c0 18.857 9.216 30 31 30m0 0c14.85 0 24.204-4.282 29-12" style="stroke-width:9.1364;stroke-dasharray:none"/><path d="M95.761 66C117.713 66 127 77.143 127 96H66" style="stroke-width:9.1364;stroke-dasharray:none"/></g><defs><clipPath id="a"><path fill="#fff" d="M0 0h192v192H0Z"/></clipPath></defs><path fill="none" d="M111.023 70.541s-6.665-7.272-36.955-5.17C44.348 67.433 20 74.107 20 103.07c0 30.77 32.216 39.698 66.916 39.698 34.592 0 85.084-18.945 85.084-60.815 0-35.25-37.609-32.665-47.927-32.665-27.888 0-63.578 24.762-63.578 24.762" style="fill:#000;fill-opacity:0;stroke:#000;stroke-width:8.00002;stroke-linecap:round;stroke-linejoin:round;stroke-dasharray:none;paint-order:stroke fill markers"/></svg>