<svg xmlns="http://www.w3.org/2000/svg" viewBox="0 0 192 192"><path d="M39.882 159.167c-12.006-2.879-19.88-9.503-22.562-18.979-1.775-6.269-1.762-10.642.052-18.109 6.865-28.263 36.307-60.095 71.379-77.174 25.17-12.256 55.687-16.61 71.866-10.251 14.373 5.648 19.183 19.707 12.263 35.842-9.723 22.672-40.062 46.849-73.461 58.541-19.699 6.896-33.902 6.985-41.287.256-3.054-2.782-3.611-3.956-4.023-8.47-.605-6.64 1.334-12.201 6.95-19.927 11.287-15.525 34.102-29.103 51.643-30.733l6.167-.573-5.218 1.507c-2.87.829-9.151 3.579-13.958 6.111-23.145 12.194-33.355 33.202-19.775 40.693 5.389 2.973 18.923 2.905 29.323-.146 30.513-8.952 57.571-37.337 57.803-60.636.156-15.704-11.985-23.768-33.376-22.167-27.497 2.057-57.868 18.289-81.69 43.66C38.027 93.47 28.49 109.578 25.411 123.48c-2.458 11.096 1.165 21.79 9.2 27.161 14.192 9.486 45.352 7.374 72.377-4.906 4.708-2.14 8.561-3.687 8.561-3.438 0 .862-15.703 8.084-24.195 11.127-4.697 1.683-11.955 3.814-16.13 4.736-10.466 2.309-27.847 2.805-35.342 1.007Zm97.042-72.458c-1.212-4.026-2.905-4.431-9.181-2.197-3.235 1.151-6.048 1.918-6.251 1.704-.204-.214 1.977-2.118 4.846-4.231l5.216-3.841-1.913-3.263-1.913-3.262h6.117c4.448 0 6.734-.495 8.379-1.816 1.245-.999 3.918-3.121 5.94-4.715l3.677-2.898-2.484 5.167-2.484 5.167 5.923.298 5.923.297-7.116 2.565c-6.782 2.445-7.241 2.809-9.785 7.75-2.86 5.555-3.982 6.306-4.894 3.275Z"/></svg>