<svg xmlns="http://www.w3.org/2000/svg" viewBox="0 0 192 192"><path fill="#00000000" stroke="#000" stroke-linecap="round" stroke-width="12" d="M48 78v36c0 26.51 21.49 48 48 48h0c26.51 0 48-21.49 48-48V78"/><path fill="#00000000" stroke="#000" stroke-width="12" d="M48 120h-3.5C32.07 120 22 109.93 22 97.5 22 60.22 52.22 30 89.5 30h13c37.28 0 67.5 30.22 67.5 67.5 0 12.43-10.07 22.5-22.5 22.5H145"/><path fill="#00000000" stroke="#000" stroke-linecap="round" stroke-linejoin="round" stroke-width="12" d="m96 138 9-14H87l9 14Zm0 0v22"/><path d="M68 96a8.002 8.002 0 0 1 8-8 8.002 8.002 0 0 1 8 8 8.002 8.002 0 0 1-8 8 8.002 8.002 0 0 1-8-8m40 0a8.002 8.002 0 0 1 8-8 8.002 8.002 0 0 1 8 8 8.002 8.002 0 0 1-8 8 8.002 8.002 0 0 1-8-8"/></svg>