<svg
    xmlns="http://www.w3.org/2000/svg"
    viewBox="0 0 192 192"
    id="vector">
    <path
        id="path"
        d="M 19.886 138.929 C 18.025 135.04 16.502 131.621 16.502 131.332 C 16.502 131.042 17.748 130.805 19.27 130.805 L 22.038 130.805 L 24.655 136.56 C 26.095 139.725 27.544 142.314 27.875 142.313 C 28.206 142.313 29.691 139.724 31.176 136.559 C 33.636 131.313 34.007 130.805 35.38 130.805 C 36.208 130.805 36.872 131.01 36.856 131.259 C 36.84 131.509 35.276 134.848 33.381 138.68 L 29.935 145.646 L 26.602 145.823 L 23.27 146 Z M 36.376 145.573 C 36.376 145.367 37.923 141.962 39.815 138.007 L 43.255 130.815 L 46.599 130.81 L 49.942 130.805 L 53.35 137.961 C 55.225 141.896 56.759 145.304 56.759 145.533 C 56.759 145.762 55.503 145.949 53.969 145.949 C 51.385 145.949 51.121 145.815 50.389 144.132 C 49.605 142.33 49.561 142.314 45.293 142.314 C 41.025 142.314 40.981 142.33 40.197 144.132 C 39.588 145.533 39.06 145.949 37.891 145.949 C 37.058 145.949 36.376 145.781 36.376 145.574 Z M 48.096 139.564 C 48.096 138.441 45.908 134.44 45.293 134.44 C 44.679 134.44 42.491 138.441 42.491 139.564 C 42.491 139.744 43.752 139.891 45.293 139.891 C 46.835 139.891 48.096 139.744 48.096 139.564 Z M 60.326 138.377 L 60.326 130.805 L 65.894 130.805 L 66.04 136.711 L 66.186 142.617 L 70.9 142.791 C 75.529 142.962 75.613 142.992 75.613 144.457 L 75.613 145.949 L 60.326 145.949 Z M 79.18 138.377 L 79.18 130.805 L 95.996 130.805 L 95.996 133.834 L 84.786 133.834 L 84.786 135.348 C 84.786 136.845 84.836 136.862 89.117 136.862 C 93.397 136.862 93.448 136.88 93.448 138.377 C 93.448 139.873 93.397 139.891 89.117 139.891 C 84.836 139.891 84.786 139.909 84.786 141.405 L 84.786 142.92 L 95.996 142.92 L 95.996 145.949 L 79.18 145.949 Z M 100.582 138.377 L 100.582 130.805 L 109.596 130.805 L 112.303 135.348 C 113.791 137.847 115.317 139.891 115.694 139.891 C 116.207 139.891 116.379 138.749 116.379 135.348 L 116.379 130.805 L 119.946 130.805 L 119.946 145.949 L 112.314 145.949 L 108.879 140.497 C 106.99 137.498 105.153 135.045 104.797 135.045 C 104.321 135.045 104.149 136.494 104.149 140.497 L 104.149 145.949 L 100.582 145.949 Z M 127.783 145.078 C 125.479 143.886 124.533 141.935 124.533 138.377 C 124.533 132.636 126.955 130.63 133.96 130.567 C 139.177 130.521 141.349 131.037 141.349 132.325 C 141.349 133.051 140.54 133.189 136.974 133.07 C 132.745 132.93 132.558 132.982 131.369 134.625 C 129.822 136.761 129.76 139.762 131.218 141.965 C 132.255 143.533 132.469 143.592 136.696 143.471 C 140.282 143.368 141.122 143.514 141.246 144.265 C 141.335 144.803 140.91 145.341 140.227 145.559 C 138.028 146.259 129.423 145.927 127.783 145.078 Z M 145.935 138.377 L 145.935 130.805 L 151.031 130.805 L 151.031 145.949 L 145.935 145.949 Z M 154.598 145.532 C 154.598 145.303 156.131 141.896 158.006 137.961 L 161.414 130.805 L 164.758 130.812 L 168.102 130.819 L 171.541 137.959 C 173.433 141.886 174.981 145.29 174.981 145.524 C 174.981 145.758 173.726 145.949 172.191 145.949 C 169.607 145.949 169.343 145.815 168.611 144.132 C 167.828 142.331 167.782 142.315 163.531 142.315 C 159.305 142.315 159.228 142.342 158.339 144.132 C 157.679 145.459 157.053 145.949 156.017 145.949 C 155.236 145.949 154.598 145.762 154.598 145.533 Z M 165.969 139.499 C 166.439 138.94 164.218 134.44 163.472 134.44 C 162.855 134.44 160.713 138.229 160.713 139.32 C 160.713 139.956 165.448 140.117 165.969 139.499 Z M 86.314 126.565 L 85.04 125.38 L 86.617 125.367 C 87.559 125.359 88.566 125.842 89.117 126.565 C 90.015 127.745 90.007 127.776 88.814 127.763 C 88.14 127.756 87.015 127.216 86.314 126.565 Z M 16.52 117.519 C 15.9 116.142 15.805 95.143 16.414 94.005 C 16.736 93.4 33.048 93.277 96.282 93.399 L 175.745 93.552 L 175.884 105.286 C 175.98 113.428 175.844 117.275 175.439 117.855 C 174.948 118.558 162.39 118.69 95.952 118.69 C 18.463 118.69 17.038 118.669 16.52 117.519 Z M 16.793 81.394 C 16.105 80.576 15.994 78.174 16 64.282 C 16.005 55.167 16.219 47.726 16.491 47.213 C 16.903 46.438 19.706 46.279 35.592 46.132 C 48.12 46.015 54.544 46.171 55.23 46.607 C 56.03 47.117 56.249 47.875 56.249 50.142 C 56.249 51.729 55.974 53.355 55.638 53.755 C 55.196 54.28 51.652 54.482 42.898 54.482 L 30.77 54.482 L 30.77 59.934 L 39.646 59.934 C 44.528 59.934 48.885 60.099 49.328 60.301 C 50.485 60.829 50.485 67.519 49.328 68.046 C 48.885 68.249 44.528 68.414 39.646 68.414 L 30.77 68.414 L 30.77 73.866 L 42.898 73.866 C 51.652 73.866 55.196 74.068 55.638 74.593 C 56.43 75.535 56.43 80.677 55.638 81.619 C 55.184 82.158 50.188 82.346 36.31 82.346 C 19.975 82.346 17.492 82.225 16.793 81.394 Z M 66.222 81.394 C 65.02 79.964 65.02 48.383 66.222 46.954 C 66.896 46.152 68.622 46.002 77.137 46.002 C 82.699 46.002 87.61 46.166 88.05 46.367 C 88.49 46.567 90.702 50.929 92.966 56.058 C 95.23 61.188 97.239 65.381 97.431 65.376 C 97.623 65.371 99.614 61.16 101.856 56.019 C 104.634 49.648 106.258 46.566 106.952 46.344 C 108.826 45.745 124.574 45.985 125.585 46.629 C 126.523 47.226 126.571 48.066 126.571 64.074 C 126.571 76.347 126.406 81.089 125.959 81.619 C 125.267 82.442 113.999 82.646 112.951 81.855 C 112.497 81.512 112.286 77.976 112.186 68.992 C 112.053 57.061 112.01 56.602 111.029 56.602 C 110.221 56.602 108.877 59.169 104.551 68.97 C 101.549 75.772 98.797 81.56 98.436 81.833 C 98.075 82.105 96.229 82.332 94.333 82.337 C 90.251 82.348 91.219 83.748 83.979 67.354 C 80.235 58.874 78.87 56.299 78.12 56.299 C 77.188 56.299 77.142 56.876 77.142 68.596 C 77.142 77.352 76.966 81.101 76.53 81.619 C 75.563 82.769 67.226 82.587 66.222 81.394 Z M 148.585 81.619 C 148.149 81.102 147.973 77.356 147.973 68.614 L 147.973 56.335 L 141.476 56.166 L 134.979 55.996 L 134.828 51.507 C 134.72 48.324 134.869 46.872 135.337 46.519 C 136.333 45.768 173.825 45.872 175.014 46.629 C 175.828 47.146 176 47.919 176 51.051 C 176 53.195 175.734 55.162 175.389 55.572 C 174.982 56.056 172.761 56.299 168.764 56.299 L 162.751 56.299 L 162.751 68.371 C 162.751 78.537 162.625 80.592 161.95 81.394 C 161.313 82.151 159.927 82.346 155.173 82.346 C 151.204 82.346 148.991 82.102 148.585 81.619 Z"
        fill="#000000"
        stroke-width="12"/>
</svg>
