<svg xmlns="http://www.w3.org/2000/svg" viewBox="0 0 192 192"><path d="M19.886 138.929c-1.861-3.889-3.384-7.308-3.384-7.597 0-.29 1.246-.527 2.768-.527h2.768l2.617 5.755c1.44 3.165 2.889 5.754 3.22 5.753.331 0 1.816-2.589 3.301-5.754 2.46-5.246 2.831-5.754 4.204-5.754.828 0 1.492.205 1.476.454-.016.25-1.58 3.589-3.475 7.421l-3.446 6.966-3.333.177-3.332.177Zm16.49 6.644c0-.206 1.547-3.611 3.439-7.566l3.44-7.192 3.344-.005 3.343-.005 3.408 7.156c1.875 3.935 3.409 7.343 3.409 7.572 0 .229-1.256.416-2.79.416-2.584 0-2.848-.134-3.58-1.817-.784-1.802-.828-1.818-5.096-1.818s-4.312.016-5.096 1.818c-.609 1.401-1.137 1.817-2.306 1.817-.833 0-1.515-.168-1.515-.375Zm11.72-6.009c0-1.123-2.188-5.124-2.803-5.124-.614 0-2.802 4.001-2.802 5.124 0 .18 1.261.327 2.802.327 1.542 0 2.803-.147 2.803-.327Zm12.23-1.187v-7.572h5.568l.146 5.906.146 5.906 4.714.174c4.629.171 4.713.201 4.713 1.666v1.492H60.326Zm18.854 0v-7.572h16.816v3.029h-11.21v1.514c0 1.497.05 1.514 4.331 1.514 4.28 0 4.331.018 4.331 1.515 0 1.496-.051 1.514-4.331 1.514-4.281 0-4.331.018-4.331 1.514v1.515h11.21v3.029H79.18Zm21.402 0v-7.572h9.014l2.707 4.543c1.488 2.499 3.014 4.543 3.391 4.543.513 0 .685-1.142.685-4.543v-4.543h3.567v15.144h-7.632l-3.435-5.452c-1.889-2.999-3.726-5.452-4.082-5.452-.476 0-.648 1.449-.648 5.452v5.452h-3.567Zm27.201 6.701c-2.304-1.192-3.25-3.143-3.25-6.701 0-5.741 2.422-7.747 9.427-7.81 5.217-.046 7.389.47 7.389 1.758 0 .726-.809.864-4.375.745-4.229-.14-4.416-.088-5.605 1.555-1.547 2.136-1.609 5.137-.151 7.34 1.037 1.568 1.251 1.627 5.478 1.506 3.586-.103 4.426.043 4.55.794.089.538-.336 1.076-1.019 1.294-2.199.7-10.804.368-12.444-.481Zm18.152-6.701v-7.572h5.096v15.144h-5.096Zm8.663 7.155c0-.229 1.533-3.636 3.408-7.571l3.408-7.156 3.344.007 3.344.007 3.439 7.14c1.892 3.927 3.44 7.331 3.44 7.565 0 .234-1.255.425-2.79.425-2.584 0-2.848-.134-3.58-1.817-.783-1.801-.829-1.817-5.08-1.817-4.226 0-4.303.027-5.192 1.817-.66 1.327-1.286 1.817-2.322 1.817-.781 0-1.419-.187-1.419-.416Zm11.371-6.033c.47-.559-1.751-5.059-2.497-5.059-.617 0-2.759 3.789-2.759 4.88 0 .636 4.735.797 5.256.179Zm-79.655-12.934-1.274-1.185 1.577-.013c.942-.008 1.949.475 2.5 1.198.898 1.18.89 1.211-.303 1.198-.674-.007-1.799-.547-2.5-1.198Zm-69.794-9.046c-.62-1.377-.715-22.376-.106-23.514.322-.605 16.634-.728 79.868-.606l79.463.153.139 11.734c.096 8.142-.04 11.989-.445 12.569-.491.703-13.049.835-79.487.835-77.489 0-78.914-.021-79.432-1.171Zm.273-36.125c-.688-.818-.799-3.22-.793-17.112.005-9.115.219-16.556.491-17.069.412-.775 3.215-.934 19.101-1.081 12.528-.117 18.952.039 19.638.475.8.51 1.019 1.268 1.019 3.535 0 1.587-.275 3.213-.611 3.613-.442.525-3.986.727-12.74.727H30.77v5.452h8.876c4.882 0 9.239.165 9.682.367 1.157.528 1.157 7.218 0 7.745-.443.203-4.8.368-9.682.368H30.77v5.452h12.128c8.754 0 12.298.202 12.74.727.792.942.792 6.084 0 7.026-.454.539-5.45.727-19.328.727-16.335 0-18.818-.121-19.517-.952Zm49.429 0c-1.202-1.43-1.202-33.011 0-34.44.674-.802 2.4-.952 10.915-.952 5.562 0 10.473.164 10.913.365.44.2 2.652 4.562 4.916 9.691 2.264 5.13 4.273 9.323 4.465 9.318.192-.005 2.183-4.216 4.425-9.357 2.778-6.371 4.402-9.453 5.096-9.675 1.874-.599 17.622-.359 18.633.285.938.597.986 1.437.986 17.445 0 12.273-.165 17.015-.612 17.545-.692.823-11.96 1.027-13.008.236-.454-.343-.665-3.879-.765-12.863-.133-11.931-.176-12.39-1.157-12.39-.808 0-2.152 2.567-6.478 12.368-3.002 6.802-5.754 12.59-6.115 12.863-.361.272-2.207.499-4.103.504-4.082.011-3.114 1.411-10.354-14.983-3.744-8.48-5.109-11.055-5.859-11.055-.932 0-.978.577-.978 12.297 0 8.756-.176 12.505-.612 13.023-.967 1.15-9.304.968-10.308-.225Zm82.363.225c-.436-.517-.612-4.263-.612-13.005V56.335l-6.497-.169-6.497-.17-.151-4.489c-.108-3.183.041-4.635.509-4.988.996-.751 38.488-.647 39.677.11.814.517.986 1.29.986 4.422 0 2.144-.266 4.111-.611 4.521-.407.484-2.628.727-6.625.727h-6.013v12.072c0 10.166-.126 12.221-.801 13.023-.637.757-2.023.952-6.777.952-3.969 0-6.182-.244-6.588-.727Z"/></svg>