<svg
    xmlns="http://www.w3.org/2000/svg"
    viewBox="0 0 192 192"
    id="vector">
    <path
        id="path"
        d="M 166.905 16.5 L 25.095 16.5 C 22.816 16.5 20.628 17.406 19.017 19.017 C 17.406 20.628 16.5 22.816 16.5 25.095 L 16.5 166.905 C 16.5 168.414 16.897 169.896 17.651 171.203 C 18.406 172.509 19.491 173.594 20.797 174.349 C 22.104 175.103 23.586 175.5 25.095 175.5 L 166.905 175.5 C 168.414 175.5 169.896 175.103 171.203 174.349 C 172.509 173.594 173.594 172.509 174.349 171.203 C 175.103 169.896 175.5 168.414 175.5 166.905 L 175.5 25.095 C 175.5 22.816 174.594 20.628 172.983 19.017 C 171.372 17.406 169.184 16.5 166.905 16.5 Z"
        fill="none"
        stroke="#000000"
        stroke-width="12"
        stroke-linecap="round"
        stroke-linejoin="round"/>
    <path
        id="path_1"
        d="M 76.083 61.763 L 142.221 33.689 C 147.36 45.796 140.68 57.314 128.437 62.51 L 62.299 90.583 C 57.162 78.481 63.942 66.916 76.083 61.763 Z M 55.872 105.586 L 122.01 77.513 C 127.15 89.62 120.469 101.137 108.227 106.334 L 42.088 134.407 C 36.951 122.305 43.73 110.74 55.872 105.586 Z M 83.76 129.49 L 149.898 101.417 C 155.038 113.524 148.357 125.041 136.114 130.237 L 69.976 158.311 C 64.839 146.209 71.618 134.644 83.76 129.49 Z"
        fill="none"
        stroke="#000000"
        stroke-width="8"
        stroke-linecap="round"
        stroke-linejoin="round"/>
</svg>
