<svg xmlns="http://www.w3.org/2000/svg" viewBox="0 0 192 192"><path fill="none" stroke="#000" stroke-linecap="round" stroke-linejoin="round" stroke-width="12" d="M166.905 16.5H25.095a8.599 8.599 0 0 0-6.078 2.517 8.599 8.599 0 0 0-2.517 6.078v141.81a8.6 8.6 0 0 0 4.297 7.444 8.6 8.6 0 0 0 4.298 1.151h141.81a8.6 8.6 0 0 0 7.444-4.297 8.6 8.6 0 0 0 1.151-4.298V25.095a8.599 8.599 0 0 0-2.517-6.078 8.599 8.599 0 0 0-6.078-2.517Z"/><path fill="none" stroke="#000" stroke-linecap="round" stroke-linejoin="round" stroke-width="8" d="m76.083 61.763 66.138-28.074c5.139 12.107-1.541 23.625-13.784 28.821L62.299 90.583c-5.137-12.102 1.643-23.667 13.784-28.82Zm-20.211 43.823 66.138-28.073c5.14 12.107-1.541 23.624-13.783 28.821l-66.139 28.073c-5.137-12.102 1.642-23.667 13.784-28.821ZM83.76 129.49l66.138-28.073c5.14 12.107-1.541 23.624-13.784 28.82l-66.138 28.074c-5.137-12.102 1.642-23.667 13.784-28.821Z"/></svg>