<svg xmlns="http://www.w3.org/2000/svg" viewBox="0 0 192 192"><path d="M42.707 152.746h96.213a1.634 1.634 0 1 1 0 3.267H42.707a1.633 1.633 0 1 1 0-3.267Zm96.213 6.043H42.707a1.634 1.634 0 0 0 0 3.268h96.213a1.635 1.635 0 0 0 0-3.268Zm25.18-108.52-5.473 1.635 5.474 1.636a1.634 1.634 0 0 1 1.165 1.565v19.204c0 .723-.474 1.359-1.166 1.566l-5.473 1.634 5.474 1.637a1.633 1.633 0 0 1 1.165 1.565v19.204c0 .722-.474 1.358-1.166 1.565l-5.473 1.634 5.474 1.637a1.634 1.634 0 0 1 1.165 1.565v19.204c0 .722-.474 1.358-1.166 1.565l-5.473 1.634 5.474 1.637a1.634 1.634 0 0 1 1.165 1.565v19.204c0 .722-.474 1.359-1.166 1.565l-9.545 2.851v18.825c0 .903-.731 1.634-1.633 1.634H44.578c-8.232 0-17.845-4.946-17.845-18.886V30.753C26.733 22.618 33.351 16 41.486 16h111.436c.903 0 1.634.731 1.634 1.634v7.447l9.545 2.854a1.634 1.634 0 0 1 1.166 1.565v19.204c0 .722-.475 1.358-1.167 1.565Zm-118.946 98.69c-4.497 0-8.156 3.658-8.156 8.155s3.659 8.156 8.156 8.156h106.134v-16.311h-11.902Zm106.134 23.774v-4.196H45.154c-6.299 0-11.423-5.124-11.423-11.423 0-6.298 5.124-11.422 11.423-11.422h106.135v-3.397H42.394c-1.822 0-3.983.821-6.086 2.311a1.635 1.635 0 0 1-2.277-.389 1.634 1.634 0 0 1 .388-2.278c2.65-1.877 5.483-2.911 7.975-2.911h.55v-5.027a1.634 1.634 0 0 1 3.268 0v5.027h105.077V19.267H46.211v102.189a1.633 1.633 0 1 1-3.267 0V19.267h-1.458c-6.333 0-11.485 5.153-11.485 11.486v126.361c0 14.866 12.142 15.619 14.577 15.619Zm10.711-39.595-7.443-2.226v21.219l7.443-2.222Zm0-25.605-7.443-2.226v21.219l7.443-2.223Zm0-25.606-7.443-2.226v21.22l7.443-2.223Zm0-25.605-7.443-2.226v21.219l7.443-2.223Zm0-25.605-7.443-2.226V49.71l7.443-2.223ZM58.305 89.69l13.776-27.553a1.635 1.635 0 0 1 2.923 0l9.222 18.446.011.021 4.543 9.086a1.631 1.631 0 0 1-1.46 2.364 1.633 1.633 0 0 1-1.462-.903l-4.141-8.282H65.368l-4.14 8.282a1.633 1.633 0 0 1-2.923-1.461Zm8.697-10.088h13.082L73.542 66.52ZM110.28 92.06h27.552a1.635 1.635 0 0 0 0-3.268h-23.609l24.764-24.764c.468-.467.607-1.17.354-1.78a1.632 1.632 0 0 0-1.509-1.009h-24.439a1.633 1.633 0 0 0 0 3.267h20.495l-24.763 24.765a1.634 1.634 0 0 0 1.155 2.789ZM91.911 77.698h13.776a1.634 1.634 0 1 0 0-3.268H91.911a1.635 1.635 0 0 0 0 3.268Z"/></svg>