<svg xmlns="http://www.w3.org/2000/svg" viewBox="0 0 192 192"><path d="M61.295 173.015c-15.861-4.199-26.218-10.604-32.642-20.188-7.137-10.647-11.467-24.825-12.295-40.257-.716-13.351.334-14.372 3.798-3.693 1.099 3.386 4.211 9.753 6.917 14.151 5.235 8.508 29.223 33.677 37.512 39.358 6.804 4.664 16.466 9.412 21.263 10.449 7.565 1.635 5.506 3.135-4.222 3.076-5.94-.037-13.708-1.143-20.331-2.896Zm48.179-.972c12.412-4.766 21.191-11.017 35.756-25.46 15.903-15.77 20.493-21.852 25.878-34.293l3.609-8.337.044 9.933c.024 5.517-.817 12.905-1.892 16.619-3.229 11.146-10.05 23.957-15.266 28.669-10.352 9.353-28.486 15.607-44.941 15.5l-9.873-.064Zm-56.113-52.33c-2.133-1.064-4.487-3.27-5.232-4.904-1.756-3.855-1.77-33.83-.017-37.678 2.358-5.175 7.261-7.032 18.551-7.027 16.417.007 20.713 4.28 20.731 20.615l.007 6.463H72.652c-14.716 0-14.751.007-15.524 3.086-.426 1.697-.414 5.005.026 7.352.68 3.626 1.509 4.478 5.529 5.683 7.432 2.226 12.073.065 14.126-6.58.47-1.519 1.947-2.154 5.013-2.154 3.995 0 4.348.295 4.348 3.635 0 9.503-6.139 13.644-20.047 13.521-5.459-.049-10.378-.824-12.762-2.012ZM76.1 86.296c.545-5.691-2.524-8.81-8.668-8.81-6.634 0-9.334 1.764-10.261 6.705-1.182 6.303-.177 6.983 9.714 6.58l8.821-.359Zm23.611 9.655V70.099h5.54c4.719 0 5.54.365 5.54 2.462 0 1.355.279 2.463.62 2.463.341 0 2.687-1.108 5.213-2.463 6.904-3.7 18.605-3.438 22.867.511 4.397 4.076 4.676 5.93 4.274 28.419l-.352 19.697h-11.079l-.299-17.85c-.164-9.818-.575-19.036-.913-20.484-.798-3.428-5.798-4.644-11.53-2.805-8.67 2.781-8.801 3.131-8.801 23.479v18.275h-11.08ZM16.486 79.332c.665-15.378 4.768-28.916 12.096-39.911 4.286-6.429 6.826-8.776 13.62-12.582 11.291-6.324 22.649-9.634 36.086-10.517 13.719-.901 16.006.855 5.088 3.906-11.839 3.309-15.154 5.495-31.567 20.817C34.3 57.39 28.343 64.737 22.763 76.87a8059.137 8059.137 0 0 1-5.386 11.695c-1.153 2.494-1.323.742-.891-9.233Zm154.626-.228c-3.946-10.532-11.44-20.507-26.628-35.444-13.415-13.194-20.794-18.52-31.78-22.937-6.345-2.551-6.871-2.996-3.947-3.338 1.855-.217 8.113.185 13.908.894 8.373 1.024 12.889 2.434 22.003 6.867 12.257 5.962 16.002 9.427 21.135 19.557 5.385 10.627 7.71 19.075 8.554 31.087.446 6.349.591 11.54.322 11.536-.269-.004-1.874-3.704-3.567-8.222Z"/></svg>