<svg xmlns="http://www.w3.org/2000/svg" viewBox="0 0 192 192"><path d="M37.639 169.151v-6.849h10.465V176H37.639Zm32.556-5.708v-12.556H59.858l-.354-5.422-.355-5.423-4.941-.351c-4.918-.349-4.942-.372-4.942-4.851v-4.5h20.929v-11.415h25.579v10.273H80.659v10.142l-4.941.351-4.942.351-.354 5.423-.355 5.422h10.592v14.839h15.115V176H70.195Zm37.206 7.42v-5.137H96.937v-14.839h10.464v-31.962H96.937v-10.274h20.928v42.236h-10.464v14.839h10.464V176h-10.464Zm20.929-18.264v-23.401H176V176h-47.67Zm37.206-.571V138.33h-26.742v27.396h26.742Zm-18.603.571v-5.137h10.464v10.274h-10.464Zm-97.667 3.425v-5.137h9.302v10.273h-9.302ZM37.639 145.75v-5.137h10.465v10.274H37.639Zm48.834 0v-5.137h9.301v10.274h-9.301Zm-48.834-26.825v-10.274h20.929v10.274H48.104v10.273H37.639Zm90.691-10.274V98.377h10.464v10.274h10.464v10.274H128.33Zm32.555 5.137v-5.137H176v10.274h-15.115ZM59.731 102.943v-4.566h10.464v9.132H59.731Zm22.091 0v-4.566h13.952v9.132H81.822Zm67.436 0v-4.566h10.464v9.132h-10.464ZM33.651 95.862c-1.526-2.139-1.559-2.865-.224-4.852.863-1.284 2.895-2.493 4.514-2.685 1.62-.193 3.842-1.323 4.939-2.513 1.89-2.05 1.865-2.324-.475-5.244-1.358-1.695-2.791-5.059-3.184-7.476l-.716-4.394h-6.014c-3.307 0-6.577.554-7.267 1.231-.689.677-2.756 1.062-4.593.856-2.968-.333-3.339-.818-3.339-4.37 0-3.316.461-4.059 2.712-4.372 1.492-.208 3.66.465 4.819 1.494 1.487 1.321 3.753 1.768 7.71 1.519 5.26-.332 5.65-.576 6.354-3.982.413-1.995 1.895-5.532 3.294-7.86l2.543-4.232-2.615-2.732c-1.437-1.503-3.267-2.486-4.066-2.185-.799.301-2.637-.394-4.084-1.545-2.314-1.839-2.464-2.452-1.244-5.079 2.361-5.088 9.575-3.431 9.575 2.2 0 1.347 1.068 3.397 2.373 4.557 2.204 1.958 2.596 1.979 5.523.29 1.732-1 5.373-2.402 8.091-3.117l4.942-1.299v-7.375c0-4.061-.513-7.376-1.141-7.376-1.864 0-2.743-5.576-1.172-7.435 4.073-4.819 11.131.51 7.627 5.759-1.147 1.719-1.826 5.282-1.826 9.582v6.845l4.36 1.172c2.398.644 6.007 2.166 8.02 3.381l3.66 2.209 2.444-2.554c1.344-1.405 2.444-3.614 2.444-4.91 0-5.079 5.884-6.415 8.857-2.01 1.344 1.99 1.311 2.707-.218 4.851-.987 1.383-2.992 2.515-4.455 2.515s-3.551.966-4.639 2.147c-1.869 2.027-1.835 2.415.611 7.022 5.891 11.097 3.699 23.834-5.464 31.753-8.838 7.638-20.775 8.956-30.835 3.405-4.373-2.413-4.573-2.425-6.853-.399-1.292 1.148-2.349 3.188-2.349 4.535 0 5.243-5.575 6.967-8.639 2.673Zm38.828-14.893c19.185-9.658 5.315-38.113-14.404-29.55-13.113 5.695-13.501 23.778-.647 30.119 5.378 2.653 8.917 2.519 15.051-.569ZM59.731 66.415v-4.566h10.464v9.132H59.731Zm37.206 15.981V67.557h10.464V77.83h10.464v10.274h-10.464v9.132H96.937Zm31.393-18.264V40.16H176v47.944h-47.67Zm37.206 0V50.434h-26.742V77.83h26.742Zm-18.603 0v-4.566h10.464v9.132h-10.464Zm-39.532-10.844V40.16h10.464v26.255h-10.464Z"/></svg>