<svg xmlns="http://www.w3.org/2000/svg" viewBox="0 0 192 192"><path d="M44.338 158.469v-4.217H28.526v-3.066c0-2.273 2.067-5.543 7.996-12.65 7.86-9.42 8.076-9.583 12.65-9.583h4.653v10.014c0 9.98.01 10.015 2.636 10.015 2.108 0 2.635.527 2.635 2.635 0 2.108-.527 2.635-2.635 2.635-2.372 0-2.636.422-2.636 4.217v4.217h-9.487Zm0-14.839v-5.352l-2.834 3.507a519.872 519.872 0 0 1-4.38 5.352c-1.432 1.709-1.223 1.845 2.834 1.845h4.38Zm39.004 14.839v-4.217H67.529v-3.066c0-2.273 2.067-5.543 7.997-12.65 7.86-9.42 8.075-9.583 12.65-9.583h4.653v10.014c0 9.98.01 10.015 2.635 10.015 2.109 0 2.636.527 2.636 2.635 0 2.108-.527 2.635-2.636 2.635-2.371 0-2.635.422-2.635 4.217v4.217h-9.487Zm0-14.293c0-5.422-.561-5.358-5.283.604l-3.328 4.202h8.611Zm23.191 15.874c0-2.309.457-2.635 3.69-2.635h3.689v-17.921h-3.689c-3.243 0-3.69-.322-3.69-2.661 0-2.13.649-2.792 3.246-3.311 1.786-.358 3.797-1.532 4.471-2.609.84-1.346 2.465-1.96 5.186-1.96h3.963v28.462h3.69c3.233 0 3.69.326 3.69 2.635v2.636h-24.246Zm32.679.064c0-2.211.554-2.618 3.953-2.899l3.953-.327.306-8.697.306-8.697h-4.259c-3.823 0-4.259-.266-4.259-2.594 0-2.124.745-2.796 4.108-3.701 2.259-.609 4.379-1.813 4.711-2.676.376-.981 2-1.57 4.325-1.57h3.722v28.462h3.69c3.232 0 3.689.326 3.689 2.635v2.636h-24.245v-2.572Zm-89.34-45.54c-2.865-.635-2.853-.268-.335-10.113 2.731-10.679 7.355-19.52 13.338-25.503l4.941-4.941 2.756 2.629c3.571 3.406 12.875 7.683 19.885 9.14 3.69.767 5.535 1.675 5.535 2.723 0 1.01-.814 1.455-2.274 1.243-1.251-.181-2.467.236-2.703.927-.626 1.832 9.295 4.526 19.391 5.266l8.617.631-.57-4.245c-.454-3.389-.124-4.691 1.638-6.452 3.959-3.959 8.185.509 6.84 7.232-.621 3.106-.554 3.163 3.716 3.163 4.652 0 6.22 2.427 2.24 3.468-1.16.303-2.108 1.07-2.108 1.704 0 .634.948 1.153 2.108 1.153 1.226 0 2.108.703 2.108 1.68 0 .924-.949 1.928-2.108 2.231-2.153.563-2.962 2.414-1.054 2.414.579 0 1.054.773 1.054 1.717 0 1.491-.962 1.623-7.277 1.001-18.527-1.826-36.72-8.71-45.061-17.051-2.553-2.553-5.136-4.642-5.739-4.642-2.394 0 2.875 10.136 7.349 14.139 2.102 1.88 2.137 2.144.521 3.931-4.126 4.559-23.948 8.519-32.808 6.555Zm-17.493-12.849c-2.758-3.047-2.169-7.015 1.499-10.101 3.444-2.899 4.698-3.303 13.221-4.264l5.396-.609-2.688 6.84c-2.131 5.422-3.392 7.175-6.083 8.451-4.557 2.163-9.219 2.033-11.345-.317Zm1.556-18.183c-15.028-2.953-22.326-13.072-15.16-21.021 3.718-4.124 9.176-5.105 15.331-2.754 5.602 2.139 14.477 11.038 18.011 18.059l2.654 5.271-3.899.73c-5.064.948-11.188.845-16.937-.285Zm49.757-3.037c-4.698-1.119-12.74-6.021-14.126-8.61-.962-1.799-.78-2.445 1.053-3.729 2.911-2.039 1.797-3.776-1.468-2.289-6.751 3.076-11.502-3.533-9.06-12.601.657-2.441 1.445-4.439 1.751-4.439 1.408 0 5.323 2.56 6.851 4.479.93 1.169 2.289 1.925 3.019 1.682.907-.302.441-1.498-1.468-3.766-2.632-3.128-2.71-3.526-1.334-6.812 2.149-5.128 6.73-10.124 11.665-12.722 4.016-2.114 5.937-2.296 25.167-2.379 11.451-.05 20.82.312 20.82.804 0 1.881-5.685 6.047-9.135 6.694-4.143.777-4.206 3.229-.069 2.73 1.893-.228 3.088.332 3.884 1.819 1.008 1.884.79 2.226-1.772 2.775-4.697 1.006-7.829 2.526-7.223 3.507.309.5 2.398.419 4.642-.18 5.566-1.485 7.149-.602 7.955 4.441 1.523 9.525-1.511 16.722-9.673 22.947-7.621 5.813-20.834 8.184-31.479 5.649Zm4.688-4.848c1.289-.903 2.796-1.363 3.348-1.022 1.347.832 6.372-.482 6.372-1.667 0-.516-1.985-.939-4.411-.939-2.426 0-6.528-1.025-9.115-2.277-4.554-2.205-4.749-2.216-6.13-.326-2.015 2.755-1.781 4.344.916 6.232 2.978 2.087 6.04 2.086 9.02-.001Zm12.618-12.88c2.824-2.173 4.501-7.309 3.348-10.25-.723-1.843-.837-1.75-.901.741-.168 6.445-4.089 10.327-10.431 10.327-4.182 0-7.381-2.695-8.166-6.882-.378-2.012-1.168-3.659-1.755-3.659-1.752 0 .066 6.522 2.557 9.173 2.885 3.071 11.664 3.386 15.348.55Zm-3.61-6.2c.381-.382.16-1.336-.491-2.121-.89-1.073-1.541-1.133-2.615-.242-.786.653-1.17 1.608-.852 2.122.678 1.096 2.964 1.235 3.958.241Zm33.391 2.31c0-4.101.271-4.491 4.596-6.592 4.327-2.102 4.639-2.549 5.313-7.63.606-4.575 1.231-5.715 4.1-7.488 4.377-2.704 9.59-2.352 10.022.677.454 3.175-2.958 6.82-7.19 7.681l-3.665.746-.306 6.846-.306 6.846-6.282 1.637-6.282 1.637Zm16.029-2.934c.281-6.923.525-7.673 2.595-7.968 3.328-.474 7.671-4.918 8.408-8.603.616-3.081.84-3.195 6.305-3.195 5.353 0 7.428 1.207 4.203 2.445-3.541 1.358-3.535 21.163.006 22.522 4.032 1.547.301 2.441-10.185 2.441h-11.642Zm22.667 2.767c-1.566-1.566-.628-2.504 2.503-2.504 2.129 0 3.101.455 2.817 1.318-.493 1.495-4.187 2.319-5.32 1.186Zm-.718-6.158c-1.993-2.402-.784-4.043 3.058-4.153 4.119-.119 5.555 2.169 2.681 4.27-2.517 1.841-4.142 1.808-5.739-.117Zm.557-7.846c-1.004-1.625.591-4.312 2.56-4.312 2.282 0 4.666 2.663 3.735 4.17-.837 1.354-5.482 1.458-6.295.142Z"/></svg>