<svg xmlns="http://www.w3.org/2000/svg" viewBox="0 0 24 24"><path d="m7.633 21.977.025-7.611c.142-.412.381-.714.761-.962.503-.328.179-.309 5.311-.309 2.496 0 4.548.014 4.558.032.019.029-1.721 3.535-1.805 3.638l-5.18.048-.001.087-.042 5.05-3.627.027Zm2.11-6.436a.799.799 0 0 0 .338-.463c.08-.471-.333-.851-.809-.744-.399.09-.624.636-.399.971a.672.672 0 0 0 .87.236Zm-6.375 6.362c-.639-.172-1.182-.75-1.317-1.403L2.01 3.51c.131-.915.565-1.397 1.369-1.51h17.199l.222.089c.513.208.965.678 1.114 1.158.097.314.104.837.016 1.137-.187.635-.765 1.149-1.43 1.272l-14.774.042v7.331c0 8.077.016 7.533-.24 8.014-.372.698-1.308 1.077-2.118.859Zm.846-17.501c.162-.084.277-.297.299-.554.017-.189.006-.242-.072-.357a.73.73 0 0 0-.574-.309c-.208-.001-.374.091-.527.292-.212.277-.124.735.176.921.129.08.548.084.698.007Zm4.804 6.811c-.697-.183-1.212-.681-1.378-1.331-.095-.37-.061-.87.081-1.221.148-.365.55-.777.934-.959l.266-.126 12.112-.024-1.783 3.674-10.232-.013Zm.693-1.234c.284-.147.438-.475.35-.75-.173-.54-.865-.639-1.165-.167-.203.321-.126.668.196.885.154.104.45.119.619.032Z"/></svg>