<svg xmlns="http://www.w3.org/2000/svg" width="192" height="192" viewBox="0 0 192 192"><g fill="none" stroke="#000" stroke-linecap="round" stroke-linejoin="round" stroke-width="12"><path d="M84.36 102.29s-25.349 33.924-44.57 14.834C26.578 103.88 52.126 90.04 52.126 90.04s-27.379.994-27.379-11.931 19.897-23.862 19.897-23.862c-7.959-4.613-7.959-15.67 3.343-23.862 11.302-8.193 24.036 5.886 24.036 5.886s-3.98-5.011 10.426-11.93c14.406-6.921 31.557 7.953 31.557 7.953s.796-7.954 13.65-7.954c20.693 0 23.28 23.862 23.28 23.862s15.918-4.176 15.918 11.653c0 15.83-19.221 13.124-19.221 13.124s19.619 5.21 19.619 25.095c0 19.885-21.847 13.761-21.847 13.761a20.892 20.88 0 0 1-16.276 9.028 32.234 32.214 0 0 1-22.882-11.215 109.16 109.09 0 0 0-3.98 18.812 70.636 70.593 0 0 0 3.383 21.675 20.654 20.641 0 0 1-14.764 6.602 17.43 17.42 0 0 1-15.321-9.108s11.938-.437 12.137-7.954c.199-7.516 3.223-24.936-3.343-37.384z" class="a"/><path d="M105.53 150.22c13.849 0 30.085-.557 45.605 3.102 11.302 2.665 11.62 16.187 11.62 16.187H29.325c-.279-7.954 12.734-16.505 15.003-17.26a138.61 138.52 0 0 1 31.239-4.613" class="a"/></g></svg>