<svg xmlns="http://www.w3.org/2000/svg" viewBox="0 0 192 192"><path d="m145.205 92.782 13.422-16.949c.947-1.195 1.382-2.659 1.226-4.12-.156-1.461-.894-2.824-2.077-3.835l-57.134-48.857c-1.888-1.614-4.396-2.515-7.001-2.515-2.605 0-5.113.901-7.001 2.515L29.503 67.876c-1.183 1.012-1.92 2.374-2.076 3.835-.157 1.461.279 2.925 1.226 4.121l56.709 71.612c1.258 1.588 3.048 2.773 5.107 3.381 2.06.609 4.282.609 6.342 0 2.059-.608 3.849-1.793 5.107-3.381l7.8-9.852" fill="none" stroke="#000" stroke-width="8" stroke-linecap="round" stroke-linejoin="round"/><path d="m27.52 73.34 66.12-5.427 66.12 5.427M55.598 109.86l38.042-2.724 15.471 1.109" fill="none" stroke="#000" stroke-width="8" stroke-linecap="round" stroke-linejoin="round"/><path d="m174.256 117.621-33.901-28.988c-1.12-.958-2.609-1.493-4.154-1.493-1.546 0-3.034.535-4.155 1.493l-33.9 28.988c-.702.6-1.14 1.408-1.232 2.275a3.35 3.35 0 0 0 .727 2.445l33.648 42.491c.747.942 1.809 1.646 3.031 2.007a6.67 6.67 0 0 0 3.762 0c1.222-.361 2.284-1.065 3.03-2.007l33.648-42.491c.562-.709.82-1.578.728-2.445-.093-.867-.531-1.675-1.232-2.275Z" fill="none" stroke="#000" stroke-width="8" stroke-linecap="round" stroke-linejoin="round"/><path d="m96.971 120.863 39.229-3.221 39.234 3.221m-61.805 21.668 22.571-1.614 22.572 1.614M141.112 164.832c-6.051 5.519-13.837 9.242-22.307 10.668l.952-6.323-6.127-5.214a54.282 54.282 0 0 0 13.741-4.077m-25.453-12.442c-1.901 2.4-7.523 9.94-11.609 9.94H62.763c-5.794 0-27.831-31.789-35.368-31.789a12.75 12.75 0 0 0-6.308 1.278c-1.926.952-3.515 2.374-4.583 4.103l10.164 2.479 5.738 6.781 6.104-6.516" fill="none" stroke="#000" stroke-width="8" stroke-linecap="round" stroke-linejoin="round"/><path d="M86.742 157.384c-5.794 0-27.831-31.789-35.367-31.789H27.398m53.435 16.129a24.891 24.891 0 0 1-4.956 6.564" fill="none" stroke="#000" stroke-width="8" stroke-linecap="round" stroke-linejoin="round"/></svg>