<?xml version="1.0" encoding="UTF-8"?>
<svg id="SVGRoot" width="192px" height="192px" version="1.1" viewBox="0 0 192 192" xmlns="http://www.w3.org/2000/svg">
 <g fill="none" stroke="#000" stroke-linecap="round" stroke-linejoin="round" stroke-width="12">
  <path class="a" d="m84.36 102.29s-25.349 33.924-44.57 14.834c-13.212-13.244 12.336-27.084 12.336-27.084s-27.379 0.99426-27.379-11.931 19.897-23.862 19.897-23.862c-7.959-4.6134-7.959-15.67 3.3428-23.862 11.302-8.1928 24.036 5.8861 24.036 5.8861s-3.9795-5.0111 10.426-11.931c14.406-6.9201 31.557 7.9541 31.557 7.9541s0.79589-7.9541 13.65-7.9541c20.693 0 23.28 23.862 23.28 23.862s15.918-4.1759 15.918 11.653c0 15.829-19.221 13.124-19.221 13.124s19.619 5.21 19.619 25.095c0 19.885-21.847 13.761-21.847 13.761a20.892 20.88 0 0 1-16.276 9.0279 32.234 32.214 0 0 1-22.882-11.215 109.16 109.09 0 0 0-3.9795 18.812 70.636 70.593 0 0 0 3.3826 21.675 20.654 20.641 0 0 1-14.764 6.6019 17.43 17.42 0 0 1-15.321-9.1075s11.938-0.43748 12.137-7.9541c0.19898-7.5167 3.2234-24.936-3.3428-37.384z"/>
  <path class="a" d="m105.53 150.22c13.849 0 30.085-0.55679 45.605 3.1021 11.302 2.6646 11.62 16.187 11.62 16.187h-133.43c-0.27856-7.9541 12.734-16.505 15.003-17.26a138.61 138.52 0 0 1 31.239-4.6134"/>
 </g>
</svg>
