<svg
    xmlns="http://www.w3.org/2000/svg"
    viewBox="0 0 192 192"
    id="vector">
    <path
        id="path"
        d="M 71.514 175.511 C 60.481 173.001 52.189 165.257 49.303 154.766 C 48.195 150.739 48.321 141.516 49.545 136.98 C 52.001 127.887 57.296 121.022 64.747 117.269 C 68.52 115.369 71.976 114.604 76.819 114.596 C 81.434 114.589 84.583 115.294 88.729 117.263 C 93.691 119.619 96.254 121.814 102.17 128.774 C 102.5 129.161 104.069 124.69 104.514 122.096 C 104.89 119.905 104.882 118.631 104.481 116.451 C 103.515 111.207 102.083 109.194 92.736 99.942 C 81.062 88.387 78.942 84.457 79.416 75.253 C 79.769 68.402 81.934 63.898 87.683 58.063 C 91.089 54.605 94.939 51.913 98.726 50.339 L 100.353 49.663 L 98.881 51.68 C 93.659 58.842 92.986 65.415 96.864 71.379 C 98.486 73.872 105.891 81.947 106.556 81.947 C 106.764 81.947 106.934 81.416 106.934 80.767 C 106.934 79.257 108.044 75.509 109.112 73.413 C 110.345 70.992 113.542 67.777 115.924 66.564 C 118.437 65.284 123.126 64.823 125.536 65.618 C 129.31 66.864 131.604 70.342 131.613 74.832 C 131.617 77.092 131.406 77.921 130.369 79.731 C 127.68 84.419 122.023 85.724 117.662 82.662 C 115.217 80.946 114.148 76.152 115.492 72.936 C 115.826 72.137 115.926 71.484 115.716 71.484 C 114.892 71.484 112.27 74.229 111.339 76.067 C 110.177 78.36 109.345 82.436 109.723 83.986 C 109.87 84.591 111.12 86.299 112.499 87.782 C 119.441 95.244 122.149 102.917 120.755 111.178 C 119.583 118.128 115.548 123.248 105.01 131.158 C 101.534 133.767 97.987 136.68 97.127 137.631 C 95.215 139.749 92.346 144.131 92.018 145.436 C 91.886 145.964 91.656 146.395 91.509 146.393 C 91.361 146.391 90.503 145.245 89.602 143.846 C 85.678 137.757 80.547 134.178 74.684 133.442 C 68.037 132.608 62.439 134.368 58.619 138.493 C 55.841 141.494 54.615 144.522 54.316 149.117 C 53.772 157.51 58.374 165.414 66 169.18 C 70.096 171.204 72.849 171.9 77.848 172.178 C 84.636 172.555 90.507 171.129 96.371 167.679 C 99.688 165.728 106.431 158.971 108.878 155.147 C 110.757 152.209 111.956 151.359 111.956 152.963 C 111.956 154.234 109.338 159.042 106.841 162.356 C 102.552 168.047 95.546 172.829 88.508 174.869 C 84.472 176.039 75.351 176.384 71.514 175.511 Z M 55.578 65.881 C 49.72 63.965 44.932 58.543 43.35 52.036 C 42.641 49.117 42.74 42.075 43.532 39.076 C 45.19 32.804 47.683 28.588 52.216 24.391 C 58.973 18.135 69.338 15.112 80.209 16.228 C 86.068 16.829 90.35 17.905 99.61 21.104 C 123.645 29.405 127.19 30.311 134.137 29.929 C 140.528 29.578 144.278 27.837 147.542 23.708 C 149.431 21.319 149.521 21.559 148.395 25.962 C 146.859 31.967 143.741 37.252 139.373 41.255 C 133.956 46.219 127.814 48.467 119.668 48.467 C 112.02 48.467 106.878 47.148 92.705 41.553 C 76.42 35.125 71.626 33.819 64.308 33.819 C 56.386 33.819 51.532 36.132 48.979 41.125 C 47.809 43.412 47.716 43.922 47.716 48.018 C 47.716 51.91 47.847 52.719 48.802 54.744 C 50.194 57.695 52.957 60.448 55.877 61.794 C 60.118 63.749 66.799 63.502 71.746 61.209 C 73.057 60.601 74.169 60.314 74.383 60.528 C 74.949 61.094 71.953 63.496 68.895 64.926 C 66.504 66.045 65.653 66.212 61.761 66.327 C 58.809 66.414 56.756 66.266 55.578 65.881 Z"
        fill="#000000"
        stroke-width="8"/>
</svg>
