<svg xmlns="http://www.w3.org/2000/svg" viewBox="0 0 192 192"><path d="M71.514 175.511c-11.033-2.51-19.325-10.254-22.211-20.745-1.108-4.027-.982-13.25.242-17.786 2.456-9.093 7.751-15.958 15.202-19.711 3.773-1.9 7.229-2.665 12.072-2.673 4.615-.007 7.764.698 11.91 2.667 4.962 2.356 7.525 4.551 13.441 11.511.33.387 1.899-4.084 2.344-6.678.376-2.191.368-3.465-.033-5.645-.966-5.244-2.398-7.257-11.745-16.509-11.674-11.555-13.794-15.485-13.32-24.689.353-6.851 2.518-11.355 8.267-17.19 3.406-3.458 7.256-6.15 11.043-7.724l1.627-.676-1.472 2.017c-5.222 7.162-5.895 13.735-2.017 19.699 1.622 2.493 9.027 10.568 9.692 10.568.208 0 .378-.531.378-1.18 0-1.51 1.11-5.258 2.178-7.354 1.233-2.421 4.43-5.636 6.812-6.849 2.513-1.28 7.202-1.741 9.612-.946 3.774 1.246 6.068 4.724 6.077 9.214.004 2.26-.207 3.089-1.244 4.899-2.689 4.688-8.346 5.993-12.707 2.931-2.445-1.716-3.514-6.51-2.17-9.726.334-.799.434-1.452.224-1.452-.824 0-3.446 2.745-4.377 4.583-1.162 2.293-1.994 6.369-1.616 7.919.147.605 1.397 2.313 2.776 3.796 6.942 7.462 9.65 15.135 8.256 23.396-1.172 6.95-5.207 12.07-15.745 19.98-3.476 2.609-7.023 5.522-7.883 6.473-1.912 2.118-4.781 6.5-5.109 7.805-.132.528-.362.959-.509.957-.148-.002-1.006-1.148-1.907-2.547-3.924-6.089-9.055-9.668-14.918-10.404-6.647-.834-12.245.926-16.065 5.051-2.778 3.001-4.004 6.029-4.303 10.624-.544 8.393 4.058 16.297 11.684 20.063 4.096 2.024 6.849 2.72 11.848 2.998 6.788.377 12.659-1.049 18.523-4.499 3.317-1.951 10.06-8.708 12.507-12.532 1.879-2.938 3.078-3.788 3.078-2.184 0 1.271-2.618 6.079-5.115 9.393-4.289 5.691-11.295 10.473-18.333 12.513-4.036 1.17-13.157 1.515-16.994.642ZM55.578 65.881c-5.858-1.916-10.646-7.338-12.228-13.845-.709-2.919-.61-9.961.182-12.96 1.658-6.272 4.151-10.488 8.684-14.685 6.757-6.256 17.122-9.279 27.993-8.163 5.859.601 10.141 1.677 19.401 4.876 24.035 8.301 27.58 9.207 34.527 8.825 6.391-.351 10.141-2.092 13.405-6.221 1.889-2.389 1.979-2.149.853 2.254-1.536 6.005-4.654 11.29-9.022 15.293-5.417 4.964-11.559 7.212-19.705 7.212-7.648 0-12.79-1.319-26.963-6.914-16.285-6.428-21.079-7.734-28.397-7.734-7.922 0-12.776 2.313-15.329 7.306-1.17 2.287-1.263 2.797-1.263 6.893 0 3.892.131 4.701 1.086 6.726 1.392 2.951 4.155 5.704 7.075 7.05 4.241 1.955 10.922 1.708 15.869-.585 1.311-.608 2.423-.895 2.637-.681.566.566-2.43 2.968-5.488 4.398-2.391 1.119-3.242 1.286-7.134 1.401-2.952.087-5.005-.061-6.183-.446Z"/></svg>