<svg
    xmlns="http://www.w3.org/2000/svg"
    viewBox="0 0 192 192"
    id="vector">
    <path
        id="path"
        d="M 65.658 48.369 C 62.92 48.369 60.252 49.233 58.037 50.836 C 55.822 52.44 54.172 54.702 53.326 57.296 C 52.48 59.891 52.48 62.687 53.326 65.281 C 54.172 67.876 55.822 70.138 58.037 71.741 C 60.252 73.345 62.92 74.209 65.658 74.209 C 68.396 74.209 71.065 73.345 73.28 71.741 C 75.495 70.138 77.144 67.876 77.99 65.281 C 78.836 62.687 78.836 59.891 77.99 57.296 C 77.144 54.702 75.495 52.44 73.28 50.836 C 71.065 49.233 68.396 48.369 65.658 48.369 Z M 126.255 48.369 C 123.518 48.369 120.849 49.233 118.634 50.836 C 116.419 52.44 114.769 54.702 113.923 57.296 C 113.077 59.891 113.077 62.687 113.923 65.281 C 114.769 67.876 116.419 70.138 118.634 71.741 C 120.849 73.345 123.518 74.209 126.255 74.209 C 128.993 74.209 131.662 73.345 133.877 71.741 C 136.092 70.138 137.741 67.876 138.587 65.281 C 139.433 62.687 139.433 59.891 138.587 57.296 C 137.741 54.702 136.092 52.44 133.877 50.836 C 131.662 49.233 128.993 48.369 126.255 48.369 Z"
        fill="none"
        stroke="#000000"
        stroke-width="12"
        stroke-linecap="round"
        stroke-linejoin="round"/>
    <path
        id="path_1"
        d="M 49.061 32.133 L 142.939 32.133 C 146.148 32.133 149.228 33.409 151.497 35.678 C 153.765 37.946 155.041 41.027 155.041 44.235 L 155.041 75.974 C 155.041 79.182 153.765 82.262 151.497 84.531 C 149.228 86.8 146.148 88.076 142.939 88.076 L 49.061 88.076 C 45.852 88.076 42.772 86.8 40.503 84.531 C 38.235 82.262 36.959 79.182 36.959 75.974 L 36.959 44.235 C 36.959 41.027 38.235 37.946 40.503 35.678 C 42.772 33.409 45.852 32.133 49.061 32.133"
        fill="none"
        stroke="#000000"
        stroke-width="12"
        stroke-linecap="round"
        stroke-linejoin="round"/>
    <path
        id="path_2"
        d="M 41.411 88.033 L 150.589 88.033 C 154.061 88.033 157.395 89.413 159.85 91.869 C 162.305 94.324 163.686 97.657 163.686 101.129 L 163.686 162.404 C 163.686 165.876 162.305 169.209 159.85 171.664 C 157.395 174.119 154.061 175.5 150.589 175.5 L 41.411 175.5 C 37.939 175.5 34.605 174.119 32.15 171.664 C 29.695 169.209 28.314 165.876 28.314 162.404 L 28.314 101.129 C 28.314 97.657 29.695 94.324 32.15 91.869 C 34.605 89.413 37.939 88.033 41.411 88.033 M 36.959 61.289 L 32.637 61.289 C 31.491 61.289 30.391 60.835 29.58 60.027 C 28.77 59.22 28.314 58.124 28.314 56.982 L 28.314 16.5 M 155.041 61.289 L 159.363 61.289 C 160.509 61.289 161.609 60.835 162.42 60.027 C 163.23 59.22 163.686 58.124 163.686 56.982 L 163.686 16.5 M 89.733 18.481 L 102.267 18.481 C 103.184 18.485 104.076 18.779 104.814 19.321 C 105.552 19.862 106.098 20.624 106.373 21.496 L 109.745 32.219 L 82.255 32.219 L 85.627 21.496 C 85.902 20.624 86.448 19.862 87.186 19.321 C 87.924 18.779 88.816 18.485 89.733 18.481 Z"
        fill="none"
        stroke="#000000"
        stroke-width="12"
        stroke-linecap="round"
        stroke-linejoin="round"/>
</svg>
