<svg xmlns="http://www.w3.org/2000/svg" viewBox="0 0 192 192"><path d="M65.658 48.369c-2.738 0-5.406.864-7.621 2.467a12.93 12.93 0 0 0-4.711 6.46 12.878 12.878 0 0 0 0 7.985 12.92 12.92 0 0 0 4.711 6.46 12.998 12.998 0 0 0 15.243 0 12.919 12.919 0 0 0 4.71-6.46c.846-2.594.846-5.39 0-7.985a12.928 12.928 0 0 0-4.71-6.46 13.004 13.004 0 0 0-7.622-2.467Zm60.597 0c-2.737 0-5.406.864-7.621 2.467a12.93 12.93 0 0 0-4.711 6.46 12.878 12.878 0 0 0 0 7.985 12.92 12.92 0 0 0 4.711 6.46 12.997 12.997 0 0 0 15.243 0 12.919 12.919 0 0 0 4.71-6.46c.846-2.594.846-5.39 0-7.985a12.928 12.928 0 0 0-4.71-6.46 13.004 13.004 0 0 0-7.622-2.467Z" fill="none" stroke="#000" stroke-width="12" stroke-linecap="round" stroke-linejoin="round"/><path d="M49.061 32.133h93.878c3.209 0 6.289 1.276 8.558 3.545a12.107 12.107 0 0 1 3.544 8.557v31.739c0 3.208-1.276 6.288-3.544 8.557a12.106 12.106 0 0 1-8.558 3.545H49.061a12.106 12.106 0 0 1-8.558-3.545 12.109 12.109 0 0 1-3.544-8.557V44.235c0-3.208 1.276-6.289 3.544-8.557a12.106 12.106 0 0 1 8.558-3.545" fill="none" stroke="#000" stroke-width="12" stroke-linecap="round" stroke-linejoin="round"/><path d="M41.411 88.033h109.178a13.098 13.098 0 0 1 13.097 13.096v61.275a13.1 13.1 0 0 1-13.097 13.096H41.411a13.1 13.1 0 0 1-13.097-13.096v-61.275a13.1 13.1 0 0 1 13.097-13.096m-4.452-26.744h-4.322a4.332 4.332 0 0 1-3.057-1.262 4.3 4.3 0 0 1-1.266-3.045V16.5m126.727 44.789h4.322a4.332 4.332 0 0 0 3.057-1.262 4.3 4.3 0 0 0 1.266-3.045V16.5m-73.953 1.981h12.534a4.335 4.335 0 0 1 2.547.84 4.3 4.3 0 0 1 1.559 2.175l3.372 10.723h-27.49l3.372-10.723a4.3 4.3 0 0 1 1.559-2.175 4.335 4.335 0 0 1 2.547-.84Z" fill="none" stroke="#000" stroke-width="12" stroke-linecap="round" stroke-linejoin="round"/></svg>