<svg
    xmlns="http://www.w3.org/2000/svg"
    viewBox="0 0 192 192"
    id="vector">
    <path
        id="path"
        d="M 40.694 175.5 L 151.306 175.5 C 152.745 175.5 154.158 175.123 155.403 174.408 C 156.649 173.692 157.683 172.663 158.402 171.423 C 159.121 170.184 159.5 168.777 159.5 167.346 L 159.5 24.654 C 159.5 23.223 159.121 21.816 158.402 20.577 C 157.683 19.337 156.649 18.308 155.403 17.592 C 154.158 16.877 152.745 16.5 151.306 16.5 L 40.694 16.5 C 39.255 16.5 37.842 16.877 36.597 17.592 C 35.351 18.308 34.317 19.337 33.598 20.577 C 32.879 21.816 32.5 23.223 32.5 24.654 L 32.5 167.346 C 32.5 168.777 32.879 170.184 33.598 171.423 C 34.317 172.663 35.351 173.692 36.597 174.408 C 37.842 175.123 39.255 175.5 40.694 175.5 Z"
        fill="none"
        stroke="#000000"
        stroke-width="12"
        stroke-linecap="round"
        stroke-linejoin="round"/>
    <path
        id="path_1"
        d="M 96 136.402 C 95.185 136.402 94.403 136.725 93.827 137.298 C 93.251 137.871 92.927 138.649 92.927 139.46 C 92.927 140.271 93.251 141.049 93.827 141.622 C 94.403 142.195 95.185 142.518 96 142.518 C 96.815 142.518 97.597 142.195 98.173 141.622 C 98.749 141.049 99.073 140.271 99.073 139.46 C 99.073 138.649 98.749 137.871 98.173 137.298 C 97.597 136.725 96.815 136.402 96 136.402 Z"
        fill="#000000"
        stroke-width="12"/>
    <path
        id="path_2"
        d="M 68.265 78.51 C 68.264 72.681 70.118 67 73.56 62.284 C 77.002 57.568 81.858 54.057 87.428 52.255 C 92.999 50.454 99.001 50.454 104.572 52.255 C 110.142 54.057 114.998 57.568 118.44 62.284 C 121.882 67 123.736 72.681 123.735 78.51 C 123.902 82.165 123.254 85.812 121.838 89.188 C 120.421 92.564 118.271 95.587 115.542 98.038 C 109.806 102.605 95.836 110.269 95.836 121.807 L 95.836 125.109"
        fill="none"
        stroke="#000000"
        stroke-width="12"
        stroke-linecap="round"
        stroke-linejoin="round"/>
</svg>
