<svg xmlns="http://www.w3.org/2000/svg" viewBox="0 0 192 192"><path d="M40.694 175.5h110.612a8.228 8.228 0 0 0 4.097-1.092 8.17 8.17 0 0 0 2.999-2.985 8.125 8.125 0 0 0 1.098-4.077V24.654a8.125 8.125 0 0 0-1.098-4.077 8.17 8.17 0 0 0-2.999-2.985 8.228 8.228 0 0 0-4.097-1.092H40.694a8.228 8.228 0 0 0-4.097 1.092 8.17 8.17 0 0 0-2.999 2.985 8.125 8.125 0 0 0-1.098 4.077v142.692c0 1.431.379 2.838 1.098 4.077a8.17 8.17 0 0 0 2.999 2.985 8.228 8.228 0 0 0 4.097 1.092Z" fill="none" stroke="#000" stroke-width="12" stroke-linecap="round" stroke-linejoin="round"/><path d="M96 136.402c-.815 0-1.597.323-2.173.896a3.05 3.05 0 0 0 0 4.324 3.083 3.083 0 0 0 4.346 0 3.05 3.05 0 0 0 0-4.324 3.083 3.083 0 0 0-2.173-.896Z"/><path d="M68.265 78.51a27.515 27.515 0 0 1 5.295-16.226 27.735 27.735 0 0 1 13.868-10.029 27.875 27.875 0 0 1 17.144 0 27.735 27.735 0 0 1 13.868 10.029 27.515 27.515 0 0 1 5.295 16.226 24.692 24.692 0 0 1-1.897 10.678 24.796 24.796 0 0 1-6.296 8.85c-5.736 4.567-19.706 12.231-19.706 23.769v3.302" fill="none" stroke="#000" stroke-width="12" stroke-linecap="round" stroke-linejoin="round"/></svg>