<svg xmlns="http://www.w3.org/2000/svg" viewBox="0 0 192 192"><path d="M26.072 145.119c.89-.484 8.903-.88 17.807-.88 8.903 0 16.916.396 17.806.88.891.485-7.122.881-17.806.881-10.684 0-18.698-.396-17.807-.881Zm68.374-2.033c-.211-.578.472-9.884 1.517-20.68 1.044-10.797 2.095-21.962 2.335-24.812l.436-5.182-6.06-.317c-4.871-.256-6.059-.642-6.059-1.968 0-1.289 1.336-1.837 6.118-2.509 3.365-.473 6.224-1.04 6.353-1.26.129-.219.665-5.029 1.19-10.688.525-5.659 1.401-12.617 1.945-15.462 1.673-8.742 6.573-14.176 11.221-12.442 3.65 1.362 4.342 6.921.708 5.687-3.785-1.286-5.821 4.586-7.425 21.413-.554 5.821-1.008 10.923-1.008 11.336 0 .414 1.238.6 2.752.414 2.53-.311 2.882-.745 4.371-5.398 2.577-8.056 5.063-12.942 7.781-15.298 2.796-2.422 6.85-2.845 9.276-.968 2.931 2.269 3.915 10.231 2.029 16.425-1.225 4.025-6.407 8.648-10.652 9.502-1.716.345-3.44.963-3.832 1.374-.933.98-1.657 13.033-1.09 18.165.513 4.647 2.388 8.305 4.256 8.305.711 0 2.423-1.734 3.804-3.853 2.213-3.396 2.609-3.651 3.343-2.151.703 1.441.448 2.369-1.66 6.036-4.342 7.553-8.882 8.298-12.48 2.049-2.452-4.261-3.532-10.647-3.468-20.503l.052-7.974h-5.013l-.726 7.424-2.5 25.571-1.773 18.148-2.68.333c-1.473.183-2.851-.139-3.061-.717Zm28.172-59.708c4.438-2.519 7.069-9.288 4.985-12.828-1.881-3.195-5.507.374-7.659 7.539-2.066 6.88-1.634 7.735 2.674 5.289Zm-85.376 54.366c-1.881-.615-1.848-1.797.101-3.568 2.453-2.23 3.591-7.102 5.793-24.802l2.052-16.497 13.196-.298 13.197-.299-.345 6.348c-.896 16.493-8.457 31.88-18.487 37.619-3.778 2.162-11.266 2.885-15.507 1.497Zm-12.429-11.991c-2.628-4.133-4.546-8.397-5.812-12.923-1.823-6.514-3.491-17.959-2.868-19.672.438-1.203 24.684-1.027 25.124.182.464 1.277-3.195 29.96-4.252 33.331-1.215 3.873-2.604 5.177-5.554 5.215-2.412.031-3.153-.654-6.638-6.133Zm126.828-4.746c-1.647-2.798-1.893-4.024-1.893-9.457 0-11.728 2.827-17.317 10.834-21.424 5.725-2.935 7.685-5.423 8.67-11.006.638-3.621.589-4.726-.316-7.073-.591-1.53-1.757-3.073-2.592-3.429-1.464-.624-4.708 1.287-7.027 4.14-1.561 1.92-3.067-.498-2.046-3.283 1.49-4.06 5.543-6.807 10.072-6.826 3.701-.015 4.604.386 6.292 2.798 3.075 4.396 3.115 7.879.333 29.322-1.357 10.453-2.512 20.985-2.567 23.404-.099 4.275-.172 4.41-2.596 4.755-1.771.252-2.725-.183-3.293-1.502-.743-1.726-.956-1.693-3.016.469-1.514 1.59-3.285 2.327-5.589 2.327-2.865 0-3.659-.484-5.266-3.215Zm11.271-6.621c2.279-4.285 3.208-8.27 4.052-17.387l.433-4.676-3.806 2.843c-4.575 3.417-6.518 6.29-7.052 10.425-1.644 12.709 1.779 17.432 6.373 8.795Zm-32.805 8.003c-.942-1.598-.289-4.505 3.035-13.515 8.097-21.949 13.369-36.791 13.369-37.638 0-.498-2.623-.906-5.828-.906-5.802 0-5.828-.012-5.828-2.781v-2.78l8.904.306c8.638.297 8.909.378 9.107 2.745.131 1.569-1.849 8.049-5.546 18.148-8.525 23.288-10.522 29.062-10.522 30.424 0 .817 1.96 1.231 5.827 1.231 5.785 0 5.828.021 5.828 2.75v2.75h-8.957c-4.927 0-9.152-.33-9.389-.734ZM16.614 83.253c.628-6.972 3.849-17.322 7.176-23.053 5.956-10.261 12.724-14.624 21.478-13.843 2.966.264 5.571.784 5.789 1.155.219.371-.598 2.366-1.816 4.433-1.772 3.01-2.509 5.711-3.7 13.547a5949.432 5949.432 0 0 1-2.469 16.111l-.983 6.324H16.194Zm29.523 3.85c-.004-.454.922-7.247 2.059-15.097 2.453-16.93 3.426-19.274 8.004-19.274 2.744 0 3.302.504 6.752 6.094 4.083 6.613 7.44 16.66 8.174 24.456l.438 4.645h-12.71c-6.99 0-12.713-.371-12.717-.824Z"/></svg>