<svg
    xmlns="http://www.w3.org/2000/svg"
    viewBox="0 0 192 192"
    id="vector">
    <g id="group">
        <path
            id="path_6"
            d="M 26.072 145.119 C 26.962 144.635 34.975 144.239 43.879 144.239 C 52.782 144.239 60.795 144.635 61.685 145.119 C 62.576 145.604 54.563 146 43.879 146 C 33.195 146 25.181 145.604 26.072 145.119 Z M 94.446 143.086 C 94.235 142.508 94.918 133.202 95.963 122.406 C 97.007 111.609 98.058 100.444 98.298 97.594 L 98.734 92.412 L 92.674 92.095 C 87.803 91.839 86.615 91.453 86.615 90.127 C 86.615 88.838 87.951 88.29 92.733 87.618 C 96.098 87.145 98.957 86.578 99.086 86.358 C 99.215 86.139 99.751 81.329 100.276 75.67 C 100.801 70.011 101.677 63.053 102.221 60.208 C 103.894 51.466 108.794 46.032 113.442 47.766 C 117.092 49.128 117.784 54.687 114.15 53.453 C 110.365 52.167 108.329 58.039 106.725 74.866 C 106.171 80.687 105.717 85.789 105.717 86.202 C 105.717 86.616 106.955 86.802 108.469 86.616 C 110.999 86.305 111.351 85.871 112.84 81.218 C 115.417 73.162 117.903 68.276 120.621 65.92 C 123.417 63.498 127.471 63.075 129.897 64.952 C 132.828 67.221 133.812 75.183 131.926 81.377 C 130.701 85.402 125.519 90.025 121.274 90.879 C 119.558 91.224 117.834 91.842 117.442 92.253 C 116.509 93.233 115.785 105.286 116.352 110.418 C 116.865 115.065 118.74 118.723 120.608 118.723 C 121.319 118.723 123.031 116.989 124.412 114.87 C 126.625 111.474 127.021 111.219 127.755 112.719 C 128.458 114.16 128.203 115.088 126.095 118.755 C 121.753 126.308 117.213 127.053 113.615 120.804 C 111.163 116.543 110.083 110.157 110.147 100.301 L 110.199 92.327 L 105.186 92.327 L 104.46 99.751 C 104.06 103.834 102.935 115.341 101.96 125.322 L 100.187 143.47 L 97.507 143.803 C 96.034 143.986 94.656 143.664 94.446 143.086 Z M 122.618 83.378 C 127.056 80.859 129.687 74.09 127.603 70.55 C 125.722 67.355 122.096 70.924 119.944 78.089 C 117.878 84.969 118.31 85.824 122.618 83.378 Z M 37.242 137.744 C 35.361 137.129 35.394 135.947 37.343 134.176 C 39.796 131.946 40.934 127.074 43.136 109.374 L 45.188 92.877 L 58.384 92.579 L 71.581 92.28 L 71.236 98.628 C 70.34 115.121 62.779 130.508 52.749 136.247 C 48.971 138.409 41.483 139.132 37.242 137.744 Z M 24.813 125.753 C 22.185 121.62 20.267 117.356 19.001 112.83 C 17.178 106.316 15.51 94.871 16.133 93.158 C 16.571 91.955 40.817 92.131 41.257 93.34 C 41.721 94.617 38.062 123.3 37.005 126.671 C 35.79 130.544 34.401 131.848 31.451 131.886 C 29.039 131.917 28.298 131.232 24.813 125.753 Z M 151.641 121.007 C 149.994 118.209 149.748 116.983 149.748 111.55 C 149.748 99.822 152.575 94.233 160.582 90.126 C 166.307 87.191 168.267 84.703 169.252 79.12 C 169.89 75.499 169.841 74.394 168.936 72.047 C 168.345 70.517 167.179 68.974 166.344 68.618 C 164.88 67.994 161.636 69.905 159.317 72.758 C 157.756 74.678 156.25 72.26 157.271 69.475 C 158.761 65.415 162.814 62.668 167.343 62.649 C 171.044 62.634 171.947 63.035 173.635 65.447 C 176.71 69.843 176.75 73.326 173.968 94.769 C 172.611 105.222 171.456 115.754 171.401 118.173 C 171.302 122.448 171.229 122.583 168.805 122.928 C 167.034 123.18 166.08 122.745 165.512 121.426 C 164.769 119.7 164.556 119.733 162.496 121.895 C 160.982 123.485 159.211 124.222 156.907 124.222 C 154.042 124.222 153.248 123.738 151.641 121.007 Z M 162.912 114.386 C 165.191 110.101 166.12 106.116 166.964 96.999 L 167.397 92.323 L 163.591 95.166 C 159.016 98.583 157.073 101.456 156.539 105.591 C 154.895 118.3 158.318 123.023 162.912 114.386 Z M 130.107 122.389 C 129.165 120.791 129.818 117.884 133.142 108.874 C 141.239 86.925 146.511 72.083 146.511 71.236 C 146.511 70.738 143.888 70.33 140.683 70.33 C 134.881 70.33 134.855 70.318 134.855 67.549 L 134.855 64.769 L 143.759 65.075 C 152.397 65.372 152.668 65.453 152.866 67.82 C 152.997 69.389 151.017 75.869 147.32 85.968 C 138.795 109.256 136.798 115.03 136.798 116.392 C 136.798 117.209 138.758 117.623 142.625 117.623 C 148.41 117.623 148.453 117.644 148.453 120.373 L 148.453 123.123 L 139.496 123.123 C 134.569 123.123 130.344 122.793 130.107 122.389 Z M 16.614 83.253 C 17.242 76.281 20.463 65.931 23.79 60.2 C 29.746 49.939 36.514 45.576 45.268 46.357 C 48.234 46.621 50.839 47.141 51.057 47.512 C 51.276 47.883 50.459 49.878 49.241 51.945 C 47.469 54.955 46.732 57.656 45.541 65.492 C 44.724 70.875 43.612 78.125 43.072 81.603 L 42.089 87.927 L 16.194 87.927 Z M 46.137 87.103 C 46.133 86.649 47.059 79.856 48.196 72.006 C 50.649 55.076 51.622 52.732 56.2 52.732 C 58.944 52.732 59.502 53.236 62.952 58.826 C 67.035 65.439 70.392 75.486 71.126 83.282 L 71.564 87.927 L 58.854 87.927 C 51.864 87.927 46.141 87.556 46.137 87.103 Z"
            fill="#000000"
            stroke-width="12"/>
    </g>
</svg>
