<svg xmlns="http://www.w3.org/2000/svg" viewBox="0 0 192 192"><path d="M160.459 145.419V46.581m-15.04-15.04H46.581m-15.04 15.04v98.838m14.546 10.412 65.62-20.88m.782-11.822-37.43-19.961m-.02-14.323 37.567-20.034M31.541 16.5a15.05 15.05 0 0 0-10.636 4.405A15.05 15.05 0 0 0 16.5 31.541c0 3.987 1.586 7.815 4.405 10.635a15.05 15.05 0 0 0 10.636 4.405c3.987 0 7.815-1.586 10.635-4.405a15.049 15.049 0 0 0 4.405-10.635 15.05 15.05 0 0 0-4.405-10.636A15.049 15.049 0 0 0 31.541 16.5Z" fill="none" stroke="#000" stroke-width="12" stroke-linecap="round" stroke-linejoin="round"/><path d="M31.541 16.5a15.05 15.05 0 0 0-10.636 4.405A15.05 15.05 0 0 0 16.5 31.541c0 3.987 1.586 7.815 4.405 10.635a15.05 15.05 0 0 0 10.636 4.405c3.987 0 7.815-1.586 10.635-4.405a15.049 15.049 0 0 0 4.405-10.635 15.05 15.05 0 0 0-4.405-10.636A15.049 15.049 0 0 0 31.541 16.5Zm0 128.919a15.05 15.05 0 0 0-10.636 4.405 15.049 15.049 0 0 0-4.405 10.635 15.05 15.05 0 0 0 4.405 10.636 15.05 15.05 0 0 0 10.636 4.405c3.987 0 7.815-1.586 10.635-4.405a15.05 15.05 0 0 0 4.405-10.636c0-3.987-1.586-7.815-4.405-10.635a15.049 15.049 0 0 0-10.635-4.405Zm128.918 0a15.049 15.049 0 0 0-10.635 4.405 15.049 15.049 0 0 0-4.405 10.635 15.05 15.05 0 0 0 4.405 10.636 15.049 15.049 0 0 0 10.635 4.405 15.05 15.05 0 0 0 10.636-4.405 15.05 15.05 0 0 0 4.405-10.636c0-3.987-1.586-7.815-4.405-10.635a15.05 15.05 0 0 0-10.636-4.405Zm0-128.919a15.049 15.049 0 0 0-10.635 4.405 15.05 15.05 0 0 0-4.405 10.636c0 3.987 1.586 7.815 4.405 10.635a15.049 15.049 0 0 0 10.635 4.405 15.05 15.05 0 0 0 10.636-4.405 15.049 15.049 0 0 0 4.405-10.635 15.05 15.05 0 0 0-4.405-10.636 15.05 15.05 0 0 0-10.636-4.405ZM61.622 80.959a15.046 15.046 0 0 0-10.636 4.406A15.047 15.047 0 0 0 46.581 96c0 3.987 1.586 7.816 4.405 10.635a15.046 15.046 0 0 0 10.636 4.406c3.987 0 7.815-1.586 10.635-4.406A15.047 15.047 0 0 0 76.662 96c0-3.987-1.586-7.816-4.405-10.635a15.046 15.046 0 0 0-10.635-4.406Zm64.459 34.379a15.041 15.041 0 1 0 0 30.081 15.041 15.041 0 1 0 0-30.081Zm0-68.757a15.047 15.047 0 0 0-10.635 4.405 15.045 15.045 0 0 0 0 21.271 15.047 15.047 0 0 0 10.635 4.405 15.045 15.045 0 0 0 15.041-15.04 15.045 15.045 0 0 0-15.041-15.041Z" fill="none" stroke="#000" stroke-width="12" stroke-linecap="round" stroke-linejoin="round"/></svg>