<svg xmlns="http://www.w3.org/2000/svg" viewBox="0 0 192 192"><path fill="none" stroke="#000" stroke-width="12" d="M96.005 16.001c-21.176 0-89.32 123.568-78.936 144.44 10.384 20.864 147.601 20.624 157.881 0 10.28-20.632-57.761-144.44-78.953-144.44Zm51.744 126.352c-6.736 13.52-96.64 13.68-103.456 0-6.8-13.68 37.856-94.656 51.712-94.656 13.856 0 58.48 81.112 51.744 94.656Z"/><path fill="none" stroke="#000" stroke-width="12" d="M64.431 122.178c2.591-11.83 12.749-21.118 25.596-23.346 3.261-.566 8.68-.566 11.941 0 12.846 2.228 23.005 11.516 25.595 23.346.708 3.23-2.043 5.953-5.357 5.953H69.789c-3.314 0-6.065-2.723-5.358-5.953Z"/><path fill="none" stroke="#000" stroke-linecap="round" stroke-width="8" d="m75.768 92.68 5.151 9.109m35.3-9.113-5.151 9.109"/></svg>