<svg
    xmlns="http://www.w3.org/2000/svg"
    viewBox="0 0 192 192"
    id="vector">
    <path
        id="path"
        d="M 96.005 16.001 C 74.829 16.001 6.685 139.569 17.069 160.441 C 27.453 181.305 164.67 181.065 174.95 160.441 C 185.23 139.809 117.189 16.001 95.997 16.001 Z M 147.749 142.353 C 141.013 155.873 51.109 156.033 44.293 142.353 C 37.493 128.673 82.149 47.697 96.005 47.697 C 109.861 47.697 154.485 128.809 147.749 142.353 Z"
        fill="none"
        stroke="#000000"
        stroke-width="12"/>
    <path
        id="path_1"
        d="M 64.431 122.178 C 67.022 110.348 77.18 101.06 90.027 98.832 C 93.288 98.266 98.707 98.266 101.968 98.832 C 114.814 101.06 124.973 110.348 127.563 122.178 C 128.271 125.408 125.52 128.131 122.206 128.131 L 69.789 128.131 C 66.475 128.131 63.724 125.408 64.431 122.178 Z"
        fill="none"
        stroke="#000000"
        stroke-width="12"/>
    <path
        id="path_2"
        d="M 75.768 92.68 L 80.919 101.789 M 116.219 92.676 L 111.068 101.785"
        fill="none"
        stroke="#000000"
        stroke-width="8"
        stroke-linecap="round"/>
</svg>
