<svg xmlns="http://www.w3.org/2000/svg" viewBox="0 0 192 192"><path d="M87.784 174.511c-.419-.82-1.853-4.636-3.187-8.481l-2.426-6.992-5.681-1.799c-3.125-.989-7.801-2.924-10.392-4.301l-4.711-2.503-8.518 3.547-8.517 3.548-5.722-5.649-5.722-5.648 3.646-7.257c2.005-3.991 3.646-7.664 3.646-8.161 0-.498-1.328-3.652-2.951-7.009-1.624-3.357-3.568-8.21-4.322-10.785l-1.371-4.681-7.533-2.978-7.534-2.979-.245-8.099L16 86.185l8.13-2.821 8.13-2.821 1.903-5.25c1.046-2.888 3.231-7.628 4.854-10.535l2.952-5.284-3.205-7.736-3.206-7.736 5.75-5.675 5.749-5.675 7.794 3.77c7.366 3.564 7.946 3.709 10.582 2.635 1.534-.625 5.505-2.143 8.825-3.373 3.319-1.231 6.49-2.528 7.045-2.884.555-.356 2.236-4.281 3.735-8.724L87.764 16h16.079l2.651 6.284c1.458 3.457 3.002 7.197 3.431 8.312.602 1.562 2.239 2.489 7.13 4.035 3.492 1.104 8.266 2.96 10.608 4.125l4.259 2.117 7.617-3.685 7.617-3.685 5.736 5.661 5.736 5.662-3.136 7.312-3.136 7.312 3.338 6.255c1.836 3.44 4.031 8.505 4.879 11.254.848 2.749 1.647 5.146 1.774 5.325.128.18 3.252 1.379 6.943 2.665l6.71 2.338v16.502l-6.75 2.763-6.749 2.762-2.153 6.322c-1.184 3.477-3.356 8.485-4.826 11.128l-2.672 4.807 3.327 7.369 3.326 7.37-5.613 5.54-5.612 5.54-7.945-3.138-7.944-3.139-6.648 2.953c-3.656 1.624-8.394 3.417-10.529 3.984l-3.881 1.031-3.448 8.454c-2.93 7.184-3.739 8.454-5.388 8.459-1.925.006-1.94-.09-1.94-12.68v-12.686l4.491-.61c20.349-2.762 38.333-17.192 45.39-36.421 1.976-5.382 2.244-7.422 2.263-17.171.025-13.325-1.849-20.147-8.155-29.682-22.205-33.575-72.669-33.575-94.875 0-6.306 9.535-8.18 16.357-8.155 29.682.019 9.749.288 11.789 2.263 17.171 6.98 19.017 24.255 33.022 44.923 36.417l3.233.531v12.728c0 12.084-.085 12.727-1.694 12.727-.932 0-2.037-.67-2.455-1.489Zm2.136-39.402c-4.801-.795-15.321-5.664-19.111-8.845l-2.587-2.17 8.298-.005 8.298-.004 4.587-7.021c6.774-10.369 6.75-10.347 8.546-8.061.817 1.04 1.64 2.274 1.829 2.742.189.468 2.028 3.436 4.086 6.595l3.742 5.745h8.617c4.739 0 8.487-.298 8.329-.662-.158-.363-3.779-5.76-8.047-11.992-4.268-6.232-8.43-12.369-9.249-13.638l-1.488-2.306 6.388-8.893c3.514-4.89 7.787-10.807 9.497-13.147l3.109-4.256-7.88-.245c-4.536-.142-8.335.126-8.952.632-.59.483-3.326 4.154-6.081 8.158l-5.009 7.279-5.274-7.912-5.274-7.912-8.812-.242-8.811-.242 2.793 4.003c1.537 2.202 5.787 8.366 9.445 13.698l6.652 9.696-2.814 3.99c-13.334 18.912-16.416 23.139-16.868 23.13-1.262-.025-7.009-9.481-8.556-14.079-2.451-7.285-3.005-12.963-1.872-19.182 3.658-20.08 21.57-34.183 41.767-32.885 12.218.786 22.209 6.035 29.509 15.506 17.94 23.277 3.736 57.993-25.585 62.535-6.272.972-7.303.971-13.222-.01Z"/><path d="M87.784 174.511c-.419-.82-1.853-4.636-3.187-8.481l-2.426-6.992-5.681-1.799c-3.125-.989-7.801-2.924-10.392-4.301l-4.711-2.503-8.518 3.547-8.517 3.548-5.722-5.649-5.722-5.648 3.646-7.257c2.005-3.991 3.646-7.664 3.646-8.161 0-.498-1.328-3.652-2.951-7.009-1.624-3.357-3.568-8.21-4.322-10.785l-1.371-4.681-7.533-2.978-7.534-2.979-.245-8.099L16 86.185l8.13-2.821 8.13-2.821 1.903-5.25c1.046-2.888 3.231-7.628 4.854-10.535l2.952-5.284-3.205-7.736-3.206-7.736 5.75-5.675 5.749-5.675 7.794 3.77c7.366 3.564 7.946 3.709 10.582 2.635 1.534-.625 5.505-2.143 8.825-3.373 3.319-1.231 6.49-2.528 7.045-2.884.555-.356 2.236-4.281 3.735-8.724L87.764 16h16.079l2.651 6.284c1.458 3.457 3.002 7.197 3.431 8.312.602 1.562 2.239 2.489 7.13 4.035 3.492 1.104 8.266 2.96 10.608 4.125l4.259 2.117 7.617-3.685 7.617-3.685 5.736 5.661 5.736 5.662-3.136 7.312-3.136 7.312 3.338 6.255c1.836 3.44 4.031 8.505 4.879 11.254.848 2.749 1.647 5.146 1.774 5.325.128.18 3.252 1.379 6.943 2.665l6.71 2.338v16.502l-6.75 2.763-6.749 2.762-2.153 6.322c-1.184 3.477-3.356 8.485-4.826 11.128l-2.672 4.807 3.327 7.369 3.326 7.37-5.613 5.54-5.612 5.54-7.945-3.138-7.944-3.139-6.648 2.953c-3.656 1.624-8.394 3.417-10.529 3.984l-3.881 1.031-3.448 8.454c-2.93 7.184-3.739 8.454-5.388 8.459-1.925.006-1.94-.09-1.94-12.68v-12.686l4.491-.61c20.349-2.762 38.333-17.192 45.39-36.421 1.976-5.382 2.244-7.422 2.263-17.171.025-13.325-1.849-20.147-8.155-29.682-22.205-33.575-72.669-33.575-94.875 0-6.306 9.535-8.18 16.357-8.155 29.682.019 9.749.288 11.789 2.263 17.171 6.98 19.017 24.255 33.022 44.923 36.417l3.233.531v12.728c0 12.084-.085 12.727-1.694 12.727-.932 0-2.037-.67-2.455-1.489Z"/></svg>