<svg
    xmlns="http://www.w3.org/2000/svg"
    viewBox="0 0 192 192"
    id="vector">
    <g id="group">
        <path
            id="path_4"
            d="M 87.784 174.511 C 87.365 173.691 85.931 169.875 84.597 166.03 L 82.171 159.038 L 76.49 157.239 C 73.365 156.25 68.689 154.315 66.098 152.938 L 61.387 150.435 L 52.869 153.982 L 44.352 157.53 L 38.63 151.881 L 32.908 146.233 L 36.554 138.976 C 38.559 134.985 40.2 131.312 40.2 130.815 C 40.2 130.317 38.872 127.163 37.249 123.806 C 35.625 120.449 33.681 115.596 32.927 113.021 L 31.556 108.34 L 24.023 105.362 L 16.489 102.383 L 16.244 94.284 L 16 86.185 L 24.13 83.364 L 32.26 80.543 L 34.163 75.293 C 35.209 72.405 37.394 67.665 39.017 64.758 L 41.969 59.474 L 38.764 51.738 L 35.558 44.002 L 41.308 38.327 L 47.057 32.652 L 54.851 36.422 C 62.217 39.986 62.797 40.131 65.433 39.057 C 66.967 38.432 70.938 36.914 74.258 35.684 C 77.577 34.453 80.748 33.156 81.303 32.8 C 81.858 32.444 83.539 28.519 85.038 24.076 L 87.764 16 L 103.843 16 L 106.494 22.284 C 107.952 25.741 109.496 29.481 109.925 30.596 C 110.527 32.158 112.164 33.085 117.055 34.631 C 120.547 35.735 125.321 37.591 127.663 38.756 L 131.922 40.873 L 139.539 37.188 L 147.156 33.503 L 152.892 39.164 L 158.628 44.826 L 155.492 52.138 L 152.356 59.45 L 155.694 65.705 C 157.53 69.145 159.725 74.21 160.573 76.959 C 161.421 79.708 162.22 82.105 162.347 82.284 C 162.475 82.464 165.599 83.663 169.29 84.949 L 176 87.287 L 176 103.789 L 169.25 106.552 L 162.501 109.314 L 160.348 115.636 C 159.164 119.113 156.992 124.121 155.522 126.764 L 152.85 131.571 L 156.177 138.94 L 159.503 146.31 L 153.89 151.85 L 148.278 157.39 L 140.333 154.252 L 132.389 151.113 L 125.741 154.066 C 122.085 155.69 117.347 157.483 115.212 158.05 L 111.331 159.081 L 107.883 167.535 C 104.953 174.719 104.144 175.989 102.495 175.994 C 100.57 176 100.555 175.904 100.555 163.314 L 100.555 150.628 L 105.046 150.018 C 125.395 147.256 143.379 132.826 150.436 113.597 C 152.412 108.215 152.68 106.175 152.699 96.426 C 152.724 83.101 150.85 76.279 144.544 66.744 C 122.339 33.169 71.875 33.169 49.669 66.744 C 43.363 76.279 41.489 83.101 41.514 96.426 C 41.533 106.175 41.802 108.215 43.777 113.597 C 50.757 132.614 68.032 146.619 88.7 150.014 L 91.933 150.545 L 91.933 163.273 C 91.933 175.357 91.848 176 90.239 176 C 89.307 176 88.202 175.33 87.784 174.511 Z M 89.92 135.109 C 85.119 134.314 74.599 129.445 70.809 126.264 L 68.222 124.094 L 76.52 124.089 L 84.818 124.085 L 89.405 117.064 C 96.179 106.695 96.155 106.717 97.951 109.003 C 98.768 110.043 99.591 111.277 99.78 111.745 C 99.969 112.213 101.808 115.181 103.866 118.34 L 107.608 124.085 L 116.225 124.085 C 120.964 124.085 124.712 123.787 124.554 123.423 C 124.396 123.06 120.775 117.663 116.507 111.431 C 112.239 105.199 108.077 99.062 107.258 97.793 L 105.77 95.487 L 112.158 86.594 C 115.672 81.704 119.945 75.787 121.655 73.447 L 124.764 69.191 L 116.884 68.946 C 112.348 68.804 108.549 69.072 107.932 69.578 C 107.342 70.061 104.606 73.732 101.851 77.736 L 96.842 85.015 L 91.568 77.103 L 86.294 69.191 L 77.482 68.949 L 68.671 68.707 L 71.464 72.71 C 73.001 74.912 77.251 81.076 80.909 86.408 L 87.561 96.104 L 84.747 100.094 C 71.413 119.006 68.331 123.233 67.879 123.224 C 66.617 123.199 60.87 113.743 59.323 109.145 C 56.872 101.86 56.318 96.182 57.451 89.963 C 61.109 69.883 79.021 55.78 99.218 57.078 C 111.436 57.864 121.427 63.113 128.727 72.584 C 146.667 95.861 132.463 130.577 103.142 135.119 C 96.87 136.091 95.839 136.09 89.92 135.109 Z"
            fill="#000000"
            stroke-width="12"/>
        <path
            id="path_6"
            d="M 87.784 174.511 C 87.365 173.691 85.931 169.875 84.597 166.03 L 82.171 159.038 L 76.49 157.239 C 73.365 156.25 68.689 154.315 66.098 152.938 L 61.387 150.435 L 52.869 153.982 L 44.352 157.53 L 38.63 151.881 L 32.908 146.233 L 36.554 138.976 C 38.559 134.985 40.2 131.312 40.2 130.815 C 40.2 130.317 38.872 127.163 37.249 123.806 C 35.625 120.449 33.681 115.596 32.927 113.021 L 31.556 108.34 L 24.023 105.362 L 16.489 102.383 L 16.244 94.284 L 16 86.185 L 24.13 83.364 L 32.26 80.543 L 34.163 75.293 C 35.209 72.405 37.394 67.665 39.017 64.758 L 41.969 59.474 L 38.764 51.738 L 35.558 44.002 L 41.308 38.327 L 47.057 32.652 L 54.851 36.422 C 62.217 39.986 62.797 40.131 65.433 39.057 C 66.967 38.432 70.938 36.914 74.258 35.684 C 77.577 34.453 80.748 33.156 81.303 32.8 C 81.858 32.444 83.539 28.519 85.038 24.076 L 87.764 16 L 103.843 16 L 106.494 22.284 C 107.952 25.741 109.496 29.481 109.925 30.596 C 110.527 32.158 112.164 33.085 117.055 34.631 C 120.547 35.735 125.321 37.591 127.663 38.756 L 131.922 40.873 L 139.539 37.188 L 147.156 33.503 L 152.892 39.164 L 158.628 44.826 L 155.492 52.138 L 152.356 59.45 L 155.694 65.705 C 157.53 69.145 159.725 74.21 160.573 76.959 C 161.421 79.708 162.22 82.105 162.347 82.284 C 162.475 82.464 165.599 83.663 169.29 84.949 L 176 87.287 L 176 103.789 L 169.25 106.552 L 162.501 109.314 L 160.348 115.636 C 159.164 119.113 156.992 124.121 155.522 126.764 L 152.85 131.571 L 156.177 138.94 L 159.503 146.31 L 153.89 151.85 L 148.278 157.39 L 140.333 154.252 L 132.389 151.113 L 125.741 154.066 C 122.085 155.69 117.347 157.483 115.212 158.05 L 111.331 159.081 L 107.883 167.535 C 104.953 174.719 104.144 175.989 102.495 175.994 C 100.57 176 100.555 175.904 100.555 163.314 L 100.555 150.628 L 105.046 150.018 C 125.395 147.256 143.379 132.826 150.436 113.597 C 152.412 108.215 152.68 106.175 152.699 96.426 C 152.724 83.101 150.85 76.279 144.544 66.744 C 122.339 33.169 71.875 33.169 49.669 66.744 C 43.363 76.279 41.489 83.101 41.514 96.426 C 41.533 106.175 41.802 108.215 43.777 113.597 C 50.757 132.614 68.032 146.619 88.7 150.014 L 91.933 150.545 L 91.933 163.273 C 91.933 175.357 91.848 176 90.239 176 C 89.307 176 88.202 175.33 87.784 174.511 Z"
            fill="#000000"
            stroke-width="12"/>
    </g>
</svg>
