<svg xmlns="http://www.w3.org/2000/svg" viewBox="0 0 192 192"><path fill="none" stroke="#000" stroke-linecap="round" stroke-linejoin="round" stroke-width="8" d="M92.869 88.777a7.353 7.353 0 0 0 6.348 12.463 7.353 7.353 0 0 0 4.049-2.066m-1.718-49.323-2.621 14.994a18.85 18.85 0 0 1-.816 3.524 8.592 8.592 0 0 1-1.117 2.148 18.96 18.96 0 0 1-2.449 2.664L17.81 149.915a4.304 4.304 0 0 0 0 6.101l18.088 18.216a4.29 4.29 0 0 0 4.168 1.123 4.29 4.29 0 0 0 1.933-1.123l76.864-76.734c.807-.9 1.699-1.72 2.663-2.449a8.598 8.598 0 0 1 2.149-1.117 18.822 18.822 0 0 1 3.523-.816l14.994-2.621a46.31 46.31 0 0 0 19.635-11.686l-48.593-48.593a46.32 46.32 0 0 0-11.686 19.635Zm-8.593 38.926a7.352 7.352 0 0 1 10.397 10.397l-10.397 10.44a7.397 7.397 0 0 1-5.152 1.934 7.393 7.393 0 0 1-7.222-7.223 7.387 7.387 0 0 1 1.934-5.151Zm68.872-9.968a184.806 184.806 0 0 0 12.89-14.049 9.799 9.799 0 0 0 0-7.476 24.494 24.494 0 0 0-5.629-6.66l-27.669-27.669a24.484 24.484 0 0 0-6.702-5.714 9.799 9.799 0 0 0-7.476 0 185.014 185.014 0 0 0-14.05 12.889"/></svg>