<svg
    xmlns="http://www.w3.org/2000/svg"
    viewBox="0 0 192 192"
    id="vector">
    <path
        id="path"
        d="M 92.869 88.777 C 91.77 89.874 91.047 91.292 90.803 92.826 C 90.56 94.359 90.808 95.932 91.513 97.315 C 92.218 98.699 93.344 99.825 94.727 100.53 C 96.111 101.235 97.684 101.483 99.217 101.24 C 100.751 100.996 102.169 100.273 103.266 99.174 M 101.548 49.851 L 98.927 64.845 C 98.769 66.043 98.495 67.223 98.111 68.369 C 97.842 69.134 97.466 69.857 96.994 70.517 C 96.265 71.481 95.444 72.373 94.545 73.181 L 17.81 149.915 C 17.271 150.448 16.884 151.115 16.687 151.847 C 16.49 152.579 16.49 153.351 16.687 154.083 C 16.884 154.815 17.271 155.482 17.81 156.016 L 35.898 174.232 C 36.432 174.771 37.099 175.158 37.831 175.355 C 38.563 175.553 39.334 175.553 40.066 175.355 C 40.798 175.158 41.465 174.771 41.999 174.232 L 118.863 97.498 C 119.67 96.598 120.562 95.778 121.526 95.049 C 122.186 94.577 122.91 94.201 123.675 93.932 C 124.82 93.548 126 93.274 127.198 93.116 L 142.192 90.495 C 149.61 88.301 156.361 84.283 161.827 78.809 L 113.234 30.216 C 107.761 35.682 103.742 42.433 101.548 49.851 Z M 92.955 88.777 C 94.334 87.4 96.204 86.626 98.153 86.627 C 100.101 86.627 101.971 87.402 103.349 88.78 C 104.727 90.158 105.502 92.028 105.502 93.976 C 105.503 95.925 104.729 97.795 103.352 99.174 L 92.955 109.614 C 91.551 110.897 89.705 111.59 87.803 111.548 C 85.902 111.505 84.089 110.73 82.744 109.385 C 81.399 108.04 80.624 106.227 80.581 104.325 C 80.538 102.424 81.231 100.578 82.515 99.174 Z"
        fill="none"
        stroke="#000000"
        stroke-width="8"
        stroke-linecap="round"
        stroke-linejoin="round"/>
    <path
        id="path_1"
        d="M 161.827 78.809 C 166.363 74.351 170.665 69.661 174.717 64.76 C 175.705 62.367 175.705 59.677 174.717 57.284 C 173.254 54.745 171.348 52.49 169.088 50.624 L 141.419 22.955 C 139.549 20.661 137.278 18.725 134.717 17.241 C 132.324 16.253 129.634 16.253 127.241 17.241 C 122.339 21.293 117.65 25.595 113.191 30.13"
        fill="none"
        stroke="#000000"
        stroke-width="8"
        stroke-linecap="round"
        stroke-linejoin="round"/>
</svg>
