<svg width="192" height="192" viewBox="0 0 192 192" fill="none" xmlns="http://www.w3.org/2000/svg"><path d="M156 30H36c-3.74 0-6 2.26-6 6v120c0 3.74 2.26 6 6 6h48l6.784-35.311H75.58c-.346 0-35.008-1.636-35.008-1.636l31.486-2.22-.53-2.484-13.425-1.934 12.774-1.072-.842-3.048-20.87-3.17s22.676-2.531 23.022-2.531h21.936L95.8 99.56c1.961-10.968 6.414-19.052 13.391-25.066 7.011-6.054 15.91-9.04 26.722-9.04 4.364 0 7.147 1.025 8.355 3.142.8 1.263 1.364 3.503 1.894 5.83.502 2.39.95 4.555.644 6.13-.387 2.341-3.129 3.156-8.124 3.156h-1.717c-9.007 0-14.484 5.178-16.324 15.678l-1.649 9.197h10.452c3.896 0 5.301 2.729 4.222 8.864-1.154 6.387-3.658 9.231-7.54 9.231h-10.44L108 162h48c3.74 0 6-2.26 6-6V36c0-3.746-2.254-5.996-6-6z" style="fill:none;fill-opacity:1;stroke:#000;stroke-width:12;stroke-dasharray:none;stroke-opacity:1"/></svg>