<svg xmlns="http://www.w3.org/2000/svg" viewBox="0 0 192 192"><path fill="none" stroke="#000" stroke-linecap="round" stroke-linejoin="round" stroke-width="12" d="M69.271 113.361a8.9 8.9 0 0 0-8.46 6.147 8.894 8.894 0 1 0 8.46-6.147Zm-26.686 0a8.897 8.897 0 0 0-8.46 11.644 8.888 8.888 0 0 0 8.46 6.147 8.894 8.894 0 0 0 0-17.791Zm0-53.072a8.9 8.9 0 0 0-8.487 11.65 8.894 8.894 0 0 0 8.487 6.141 8.902 8.902 0 0 0 6.29-2.605 8.9 8.9 0 0 0 0-12.58 8.899 8.899 0 0 0-6.29-2.606Zm26.686 0a8.9 8.9 0 0 0-8.487 11.65 8.894 8.894 0 0 0 8.487 6.141 8.902 8.902 0 0 0 6.29-2.605 8.9 8.9 0 0 0 0-12.58 8.899 8.899 0 0 0-6.29-2.606Zm80.144 53.072a8.894 8.894 0 1 0 0 17.789 8.894 8.894 0 0 0 0-17.789Zm0-53.072a8.907 8.907 0 0 0-5.243 1.689 8.892 8.892 0 0 0 0 14.413 8.893 8.893 0 0 0 5.243 1.689 8.898 8.898 0 0 0 8.896-8.895 8.897 8.897 0 0 0-8.896-8.896Zm-26.729 80.231a8.902 8.902 0 0 0-6.29 2.605 8.898 8.898 0 0 0 6.29 15.186 8.895 8.895 0 0 0 0-17.791Zm26.729-106.831a8.894 8.894 0 1 0 0 17.789 8.894 8.894 0 0 0 0-17.789ZM96 113.361a8.9 8.9 0 0 0-8.46 6.147 8.9 8.9 0 0 0 3.231 9.945 8.9 8.9 0 0 0 10.458 0A8.894 8.894 0 0 0 96 113.361Zm26.686 0a8.894 8.894 0 1 0 0 17.789 8.894 8.894 0 0 0 0-17.789Zm0-44.176V51.48m-80.101-8.895H96"/><path fill="none" stroke="#000" stroke-linecap="round" stroke-linejoin="round" stroke-width="12" d="M166.905 16.5H25.095a8.599 8.599 0 0 0-6.078 2.517 8.599 8.599 0 0 0-2.517 6.078v141.81a8.6 8.6 0 0 0 4.297 7.444 8.6 8.6 0 0 0 4.298 1.151h141.81a8.6 8.6 0 0 0 7.444-4.297 8.6 8.6 0 0 0 1.151-4.298V25.095a8.599 8.599 0 0 0-2.517-6.078 8.599 8.599 0 0 0-6.078-2.517ZM96 113.361V69.185M96 16.5v26.085M96 175.5v-26.085m-53.415 0h52.556m54.274-18.263v18.263m-17.833 0h17.833M175.5 95.312h-26.085m0-17.232v17.232m-26.729 18.049V42.585m17.834 0h-17.834m-80.101 88.567v18.263M16.5 95.312h52.384M42.585 60.289V42.585m35.581 26.6H96m-26.729 44.176V95.312"/></svg>