<svg xmlns="http://www.w3.org/2000/svg" viewBox="0 0 192 192"><path d="M16.5 102.82a361.352 361.352 0 0 1 159 0v48.285a8.675 8.675 0 0 1-1.151 4.319 8.624 8.624 0 0 1-3.146 3.161 8.566 8.566 0 0 1-4.298 1.158H25.095c-1.509 0-2.991-.4-4.298-1.158a8.624 8.624 0 0 1-3.146-3.161 8.675 8.675 0 0 1-1.151-4.319Zm79.5 8.551c0-23.883 0-42.325-19.982-51.006m18.951 26.864c1.59-10.452 5.371-13.562 14.997-16.93" fill="none" stroke="#000" stroke-width="8" stroke-linecap="round" stroke-linejoin="round"/><path d="M89.855 71.767c1.461-16.455-9.11-47.94-59.904-37.402 18.091 12.957 7.477 25.655 26.17 35.934a42.345 42.345 0 0 0 33.734 1.468Zm12.032 2.289c.86-12.741 8.595-23.883 35.926-20.256 16.458 2.203 18.048-7.73 18.048-7.73s-5.285 33.773-32.186 33.773c-20.327 0-21.788-5.787-21.788-5.787Z" fill="none" stroke="#000" stroke-width="8" stroke-linecap="round" stroke-linejoin="round"/></svg>