<svg
    xmlns="http://www.w3.org/2000/svg"
    viewBox="0 0 192 192"
    id="vector">
    <path
        id="path"
        d="M 16.5 102.82 C 68.847 91.015 123.153 91.015 175.5 102.82 L 175.5 151.105 C 175.5 152.621 175.103 154.111 174.349 155.424 C 173.594 156.737 172.509 157.827 171.203 158.585 C 169.896 159.343 168.414 159.743 166.905 159.743 L 25.095 159.743 C 23.586 159.743 22.104 159.343 20.797 158.585 C 19.491 157.827 18.406 156.737 17.651 155.424 C 16.897 154.111 16.5 152.621 16.5 151.105 Z M 96 111.371 C 96 87.488 96 69.046 76.018 60.365 M 94.969 87.229 C 96.559 76.777 100.34 73.667 109.966 70.299"
        fill="none"
        stroke="#000000"
        stroke-width="8"
        stroke-linecap="round"
        stroke-linejoin="round"/>
    <path
        id="path_1"
        d="M 89.855 71.767 C 91.316 55.312 80.745 23.827 29.951 34.365 C 48.042 47.322 37.428 60.02 56.121 70.299 C 61.346 72.844 67.035 74.288 72.837 74.54 C 78.638 74.793 84.43 73.849 89.855 71.767 Z M 101.887 74.056 C 102.747 61.315 110.482 50.173 137.813 53.8 C 154.271 56.003 155.861 46.07 155.861 46.07 C 155.861 46.07 150.576 79.843 123.675 79.843 C 103.348 79.843 101.887 74.056 101.887 74.056 Z"
        fill="none"
        stroke="#000000"
        stroke-width="8"
        stroke-linecap="round"
        stroke-linejoin="round"/>
</svg>
