<svg xmlns="http://www.w3.org/2000/svg" viewBox="0 0 192 192"><path fill="none" stroke="#000" stroke-linecap="round" stroke-linejoin="round" stroke-width="12" d="M166.905 16.5H25.095a8.599 8.599 0 0 0-6.078 2.517 8.599 8.599 0 0 0-2.517 6.078v141.81a8.6 8.6 0 0 0 4.297 7.444 8.6 8.6 0 0 0 4.298 1.151h141.81a8.6 8.6 0 0 0 7.444-4.297 8.6 8.6 0 0 0 1.151-4.298V25.095a8.599 8.599 0 0 0-2.517-6.078 8.599 8.599 0 0 0-6.078-2.517ZM96 175.5v-159M16.5 96h159M33.714 68.068h17.189M33.714 38.369l8.595-4.68m0 0v34.379"/></svg>