<svg xmlns="http://www.w3.org/2000/svg" viewBox="0 0 192 192"><path fill="none" stroke="#000" stroke-linecap="round" stroke-linejoin="round" stroke-width="8" d="m94.543 52.548.037-33.563M31.957 54.638V16.491h19.098M31.957 35.564h12.414m13.775 23.842V27.128H68.65c2.312-.014 4.57.706 6.446 2.057a10.89 10.89 0 0 1 3.991 12.216 10.894 10.894 0 0 1-3.991 5.458 10.926 10.926 0 0 1-6.446 2.057H58.146M113.715 59V25.99m-9.733-.367h19.466m5.325-7.339h19.466l-19.466 33.013h19.466m-68.681 8.11L69.421 48.88m90.571-28.761-1.837 18.34"/><path d="M157.605 42.861a2.933 2.933 0 1 0 0 5.869 2.94 2.94 0 0 0 2.938-2.935 2.933 2.933 0 0 0-2.938-2.934Z"/><path fill="none" stroke="#000" stroke-linecap="round" stroke-linejoin="round" stroke-width="8" d="M119.646 137.401a31.518 31.518 0 0 0-40.225-.109v.109m20.033 12.873a12.634 12.634 0 0 0-8.926 3.693 12.603 12.603 0 0 0-3.697 8.914c0 3.342 1.331 6.551 3.697 8.915a12.636 12.636 0 0 0 17.852 0 12.594 12.594 0 0 0 2.006-15.218 12.623 12.623 0 0 0-10.932-6.304Zm39.392-34.67a61.967 61.967 0 0 0-78.785 0m97.712-22.879a91.612 91.612 0 0 0-116.763 0"/></svg>