<svg xmlns="http://www.w3.org/2000/svg" viewBox="0 0 192 192"><path fill="none" stroke="#000" stroke-linecap="round" stroke-linejoin="round" stroke-width="8" d="M125.829 53.348v30.717M78.73 18.969h15.359M78.73 34.328h9.968M78.73 18.969v30.717m17.211 17.19V36.159h10.045a10.32 10.32 0 0 1 10.25 10.316c0 2.724-1.079 5.34-2.998 7.272a10.324 10.324 0 0 1-7.252 3.045H95.941m10.045 0 10.045 10.084m19.347 3.662H155.7m-10.161 30.717V70.538M155.088 87.727h20.322l-20.322 30.718h20.322"/><path fill="none" stroke="#000" stroke-linecap="round" stroke-linejoin="round" stroke-width="8" d="M159.388 128.385a251.728 251.728 0 0 1-25.56-4.504 12.626 12.626 0 0 0-12.171 2.353c-2.149 2.192-8.358 8.318-14.809 14.647a116.426 116.426 0 0 1-53.149-53.19c6.289-6.451 12.171-12.618 14.565-14.768a12.615 12.615 0 0 0 2.353-12.172 251.076 251.076 0 0 1-4.503-25.601 8.107 8.107 0 0 0-4.759-6.572 8.103 8.103 0 0 0-4.147-.664q-.215.022-.426.055H22.215a6.088 6.088 0 0 0-5.518 5.559c-2.231 31.198 15.174 64.589 18.704 71v.243l.487.933a143.801 143.801 0 0 0 52.743 52.743l1.786 1.014c8.114 4.301 40.368 20.529 70.513 18.298a6.085 6.085 0 0 0 5.64-5.518v-34.526a8.115 8.115 0 0 0-6.755-9.276q-.213-.033-.426-.055ZM113.579 18.969A128.945 128.945 0 0 1 175.5 69.112m-89.949 3.147a128.94 128.94 0 0 1 45.076 36.502"/></svg>