<svg xmlns="http://www.w3.org/2000/svg" viewBox="0 0 192 192"><path fill="none" stroke="#000" stroke-linecap="round" stroke-linejoin="round" stroke-width="12" d="M96 16.5v159m79.5-119.25-159 79.5m159 0-159-79.5m53.329 52.837v40.443m52.341-40.443v40.443m0-66.617V42.47m-52.341 0v40.443m0 0L29.35 103.135M96 122.174l-40.433 20.221m66.603-33.308 40.48-20.222m-26.217-39.26L96 69.826m0 52.348-40.433 20.221m66.603-33.308 40.48-20.222M96 69.826 55.567 49.605m14.262 59.482L29.397 88.865M96 122.174l40.433 20.221m26.17-39.26L122.17 82.913"/></svg>