<svg
    xmlns="http://www.w3.org/2000/svg"
    viewBox="0 0 192 192"
    id="vector">
    <path
        id="path"
        d="M 96 16.5 L 96 175.5 M 175.5 56.25 L 16.5 135.75 M 175.5 135.75 L 16.5 56.25 M 69.829 109.087 L 69.829 149.53 M 122.17 109.087 L 122.17 149.53 M 122.17 82.913 L 122.17 42.47 M 69.829 42.47 L 69.829 82.913 M 69.829 82.913 L 29.35 103.135 M 96 122.174 L 55.567 142.395 M 122.17 109.087 L 162.65 88.865 M 136.433 49.605 L 96 69.826 M 96 122.174 L 55.567 142.395 M 122.17 109.087 L 162.65 88.865 M 96 69.826 L 55.567 49.605 M 69.829 109.087 L 29.397 88.865 M 96 122.174 L 136.433 142.395 M 162.603 103.135 L 122.17 82.913"
        fill="none"
        stroke="#000000"
        stroke-width="12"
        stroke-linecap="round"
        stroke-linejoin="round"/>
</svg>
