<svg xmlns="http://www.w3.org/2000/svg" viewBox="0 0 192 192"><path fill="none" stroke="#000" stroke-linecap="round" stroke-linejoin="round" stroke-width="8" d="M96 53.477a42.534 42.534 0 0 0-30.068 12.455A42.534 42.534 0 0 0 53.477 96a42.534 42.534 0 0 0 12.455 30.068 42.527 42.527 0 0 0 70.51-16.928 42.52 42.52 0 0 0-15.447-47.542A42.527 42.527 0 0 0 96 53.477Z"/><path fill="none" stroke="#000" stroke-linecap="round" stroke-linejoin="round" stroke-width="8" d="M86.494 63.827a8.76 8.76 0 0 0-5.163 15.856 8.754 8.754 0 0 0 5.163 1.663 8.758 8.758 0 1 0 0-17.519Zm-30.571 40.219 15.52-14.173 15.743 13.726 1.109 1.155 25.368-23.983 22.449 22.449m-48.171 1.701-21.784 20.197"/><path fill="none" stroke="#000" stroke-linecap="round" stroke-linejoin="round" stroke-width="8" d="M96 16.5a79.529 79.529 0 0 0-56.215 23.285A79.529 79.529 0 0 0 16.5 96a79.529 79.529 0 0 0 23.285 56.215A79.529 79.529 0 0 0 96 175.5a79.529 79.529 0 0 0 56.215-23.285A79.529 79.529 0 0 0 175.5 96a79.529 79.529 0 0 0-23.285-56.215A79.529 79.529 0 0 0 96 16.5Zm11.006 120.574 9.57 35.717M84.994 54.926l-9.57-35.717m61.65 87.797 35.717 9.57M54.926 84.994l-35.717-9.57m106.859-9.492 26.147-26.147m-86.283 86.283-26.147 26.147"/></svg>