<svg xmlns="http://www.w3.org/2000/svg" viewBox="0 0 192 192"><path d="M90.476 173.646a699.356 699.356 0 0 0-7.839-3.714l-3.024-1.397-1.424-3.276-4.791-11.014-3.366-7.738-5.777-2.842-12.432-6.111-6.655-3.269-11.611-.663c-6.386-.364-11.77-.723-11.965-.797-.194-.073-.352-.361-.351-.638.002-.278 3.93-10.153 8.729-21.946L38.695 88.8l-1.069-8.294a16413.39 16413.39 0 0 1-3.081-24.152c-1.107-8.722-2.642-20.758-3.412-26.746-.769-5.989-1.399-11.359-1.399-11.935 0-.924.342-1.39 1.021-1.39.114 0 19.716 18.519 32.537 30.738 2.803 2.672 5.546 5.247 6.094 5.723l.996.864 12.738-1.441 12.738-1.441 12.989 1.359 12.989 1.359 2.162-2.107c2.809-2.738 6.343-6.101 16.027-15.252 4.355-4.116 10.909-10.319 14.563-13.784 3.654-3.466 6.74-6.301 6.858-6.301.492 0 1.094.934.972 1.507-.073.339-1.036 7.753-2.14 16.475-1.104 8.723-3.127 24.588-4.494 35.257l-2.486 19.399 1.052 2.549c.578 1.401 3.251 7.964 5.939 14.584 2.689 6.619 6.145 15.115 7.68 18.88 1.536 3.764 2.793 7.038 2.793 7.275 0 .237-.141.518-.313.624-.171.106-5.579.495-12.016.864l-11.704.671-7.736 3.862a1212.449 1212.449 0 0 1-12.35 6.082l-4.613 2.221-.671 1.495c-.369.822-1.389 3.152-2.266 5.177a422.828 422.828 0 0 1-1.859 4.247c-.146.312-1.276 2.924-2.512 5.804-1.236 2.881-2.418 5.336-2.626 5.456-2.193 1.264-15.683 7.568-16.166 7.553-.351-.01-2.805-1.062-5.454-2.336Zm12.986-3.16c6.081-2.957 7.264-3.63 7.264-4.129 0-.736.794-20.017.941-22.856.059-1.132.064-2.015.011-1.963-.101.102-2.582 8.384-4.132 13.794-.987 3.447-.936 3.362-5.599 9.342-.701.899-2.162 2.795-3.248 4.215-1.085 1.42-2.174 2.581-2.421 2.581-.574 0-11.038-12.263-11.042-12.941-.004-.591-4.439-15.666-4.68-15.907-.089-.088-.089.982-.002 2.379.088 1.397.297 6.936.465 12.31.168 5.373.336 9.801.373 9.839.19.194 14.228 6.823 14.494 6.844.172.014 3.581-1.565 7.576-3.508Zm-8.312-5.061v-2.082l-2.8-1.317c-1.54-.724-2.884-1.317-2.986-1.317-.103 0 1.11 1.529 2.695 3.399 1.584 1.869 2.928 3.398 2.986 3.398.058 0 .105-.937.105-2.081Zm4.821-1.356c1.448-1.89 2.515-3.388 2.372-3.328-.143.061-1.374.682-2.735 1.382l-2.475 1.273v2.055c0 1.13.046 2.055.103 2.055.056 0 1.287-1.547 2.735-3.437Zm-21.127-13.413c-.22-6.386-.432-11.787-.472-12.003-.066-.363-5.734 6.63-6.058 7.474-.079.206.898 2.775 2.172 5.709l3.457 7.962c.629 1.445 1.178 2.592 1.222 2.548.043-.043-.101-5.304-.321-11.69Zm37.646 3.427c1.814-4.19 3.298-7.769 3.298-7.953 0-.185-1.338-2.029-2.974-4.098-2.626-3.323-2.976-3.667-2.994-2.95-.011.447-.234 5.808-.495 11.914s-.398 11.012-.304 10.903c.094-.109 1.655-3.627 3.469-7.816Zm-12.73 3.619c.503-.299.462-.434-.71-2.338l-1.245-2.021-5.783.072-5.783.073-1.209 1.982c-.665 1.091-1.121 2.071-1.013 2.178.107.108 1.979 1.082 4.16 2.165l3.965 1.969 3.542-1.882c1.949-1.034 3.783-2.024 4.076-2.198Zm-15.972-4.323 1.158-1.95 6.855-.123c3.77-.068 6.989-.078 7.153-.023.165.055.784.996 1.375 2.09.591 1.095 1.11 1.951 1.152 1.903.155-.178 5.856-19.626 5.877-20.046.011-.238-1.26-3.242-2.826-6.677-1.838-4.031-2.808-6.49-2.738-6.938.722-4.594 1.534-10.247 1.534-10.684 0-.523-10.749-11.674-11.253-11.674-.122 0-2.763 2.544-5.869 5.652l-5.646 5.652.879 5.989.878 5.988-2.804 6.175c-1.543 3.396-2.805 6.397-2.805 6.669 0 .271.776 3.118 1.726 6.326 3.033 10.254 3.938 13.35 3.938 13.487 0 .415.381-.074 1.416-1.816Zm-13.623-12.965c1.73-2.207 3.145-4.077 3.145-4.155 0-.078-.797-.22-1.77-.315-2.036-.199-23.866-1.571-24.996-1.571-.719 0 .661.716 15.155 7.863 2.57 1.267 4.819 2.278 4.997 2.247.179-.031 1.74-1.863 3.469-4.069Zm67.895-6.235c-.087-.088-26.645 1.553-27.265 1.684-.176.037 1.194 2.001 3.044 4.365l3.365 4.298 10.472-5.129c5.76-2.821 10.433-5.169 10.384-5.218Zm-65.883-.233c0-.06-2.262-1.861-5.027-4.002a3497.395 3497.395 0 0 1-9.416-7.322c-2.414-1.885-4.538-3.518-4.719-3.628-.212-.129-1.533 1.535-3.682 4.636a681.59 681.59 0 0 1-4.576 6.54c-.674.938-1.151 1.78-1.06 1.871.092.092 4.785.462 10.429.823l13.597.87c1.834.118 3.586.238 3.894.267.308.029.56.004.56-.055Zm48.85-.692a2452.21 2452.21 0 0 1 13.734-.885c3.038-.183 5.568-.374 5.624-.423.119-.105-.288-.715-5.324-7.975l-3.777-5.447-.637.491c-.35.27-1.766 1.373-3.146 2.452s-3.338 2.602-4.35 3.386c-5.173 4.005-10.934 8.497-11.172 8.711-.359.323-.415.325 9.048-.31Zm-43.311-5.319c1.392-3.074 2.512-5.782 2.489-6.018-.024-.236-.196-1.538-.382-2.894l-.338-2.464-1.318-.415c-.725-.228-3.93-1.138-7.123-2.021-3.193-.884-6.36-1.783-7.037-1.999l-1.232-.391-4.217 2.753c-2.32 1.515-4.186 2.85-4.148 2.968.078.243 20.37 16.052 20.616 16.063.087.004 1.297-2.509 2.69-5.582Zm41.919-2.787c5.516-4.294 10.029-7.864 10.029-7.934 0-.069-1.829-1.326-4.065-2.793l-4.064-2.668-7.051 1.969a2025.578 2025.578 0 0 0-8.503 2.387l-1.452.419-.425 2.755-.424 2.754 2.556 5.616c1.895 4.161 2.662 5.575 2.964 5.459.224-.086 4.92-3.67 10.435-7.964Zm-74.356.92c2.362-3.399 4.251-6.217 4.198-6.262-.071-.06-18.077 7.629-26.15 11.168l-.567.248.567.041c1.994.145 16.796 1.003 17.183.995.293-.006 2.113-2.368 4.769-6.19Zm108.598 5.436c3.582-.183 6.612-.419 6.732-.524.121-.104-5.666-2.698-12.859-5.763-7.194-3.066-13.115-5.538-13.158-5.495-.043.043 1.851 2.862 4.208 6.264l4.287 6.184 2.138-.166c1.176-.091 5.069-.316 8.652-.5Zm-120.78-12.466c6.152-4.897 13.989-11.14 17.416-13.875l6.23-4.972 4.515-10.024c2.483-5.514 4.929-10.94 5.435-12.059l.922-2.035-1.767.76c-.972.418-7.905 3.437-15.406 6.707l-13.638 5.947-1.403 3.399c-3.557 8.614-14.481 35.569-14.481 35.73 0 .099.223-.012.495-.248.273-.235 5.53-4.434 11.682-9.33Zm124.792-4.211a6968.211 6968.211 0 0 1-7.86-19.362l-2.382-5.916-1.416-.643c-1.741-.79-15.878-6.95-21.098-9.193a8401.85 8401.85 0 0 1-6.146-2.644c-2.2-.947-2.311-.967-2.086-.379.13.341 1.379 3.105 2.775 6.142 1.397 3.038 3.735 8.183 5.195 11.435l2.656 5.912 1.848 1.504c1.015.826 6.625 5.305 12.466 9.952 5.841 4.648 13.041 10.379 16 12.737 2.96 2.358 5.414 4.2 5.454 4.094.04-.106-2.393-6.244-5.406-13.639Zm-119.412 7.511c7.087-3.057 12.977-5.648 13.088-5.758.241-.236 3.955-12.551 3.825-12.682-.05-.049-6.01 4.629-13.245 10.395-15.814 12.605-17.527 13.994-16.977 13.775.233-.094 6.223-2.672 13.309-5.73Zm119.923 4.991c-.457-.434-20.466-16.4-27.674-22.082-1.051-.829-1.909-1.401-1.906-1.271.012.515 3.664 12.374 3.875 12.585.193.192 25.753 11.226 26.13 11.279.073.011-.118-.219-.425-.511ZM62.371 112.336c1.519-1.011 2.761-1.92 2.761-2.02 0-.101-.637-1.381-1.415-2.846-.779-1.465-1.416-2.75-1.416-2.855 0-.105-.171-.332-.379-.505-.35-.291-1.187 2.167-3.491 10.251-.133.465-.078.483.515.166.366-.195 1.907-1.181 3.425-2.191Zm70.256-2.046a398.02 398.02 0 0 1-1.581-5.445c-.23-.859-.361-1.004-.674-.744-.214.178-.389.419-.389.535 0 .117-.638 1.367-1.416 2.779-.779 1.412-1.416 2.687-1.416 2.835 0 .272 6.521 4.669 6.684 4.506.048-.048-.495-2.058-1.208-4.466Zm-49.654 3.591c0-.212-.079-.968-.177-1.68-.153-1.113-.301-1.343-1.062-1.648-.487-.195-4.644-1.937-9.239-3.872a4160.82 4160.82 0 0 0-8.696-3.656c-.349-.141 2.818 6.007 3.413 6.626.252.261 14.55 4.484 15.549 4.592.117.013.212-.15.212-.362Zm34.778-2.185 7.45-2.093 1.712-3.209c.941-1.765 1.666-3.249 1.612-3.299-.055-.05-1.056.327-2.224.837-1.168.511-5.373 2.29-9.345 3.955-3.971 1.665-7.238 3.049-7.26 3.075-.021.026-.132.735-.245 1.576-.189 1.403-.162 1.517.322 1.389.29-.076 3.881-1.08 7.978-2.231Zm-35.768-3.447c-.169-.489-2.849-10.174-3.819-13.806-1.246-4.662-4.483-16.241-4.695-16.794-.133-.347-1.177 1.68-3.431 6.661a2428.6 2428.6 0 0 1-5.205 11.431c-1.081 2.349-1.966 4.396-1.966 4.549 0 .154.733.577 1.628.941 2.702 1.097 10.771 4.516 14.089 5.969 3.461 1.516 3.574 1.551 3.399 1.049Zm33.218-1.748c2.289-.974 6.431-2.712 9.205-3.863 3.798-1.575 5.014-2.198 4.926-2.524-.064-.237-2.451-5.57-5.304-11.85-3.143-6.92-5.267-11.271-5.39-11.044-.112.205-1.691 5.789-3.508 12.409-3.924 14.296-4.992 18.134-5.191 18.652-.196.511.159.391 5.262-1.78Zm-25.728-3.411 5.226-5.226-1.957-2.064a2236.679 2236.679 0 0 1-4.356-4.613 1043.68 1043.68 0 0 0-4.97-5.239c-1.415-1.48-3.75-3.937-5.189-5.46-1.439-1.523-2.615-2.734-2.612-2.69.002.043 1.193 4.411 2.645 9.707 1.453 5.296 3.331 12.144 4.173 15.219.842 3.076 1.595 5.592 1.673 5.592.078 0 2.493-2.352 5.367-5.226Zm20.67-2.629c1.153-4.166 2.321-8.404 2.597-9.416.275-1.012 1.201-4.387 2.058-7.498.856-3.112 1.521-5.693 1.478-5.737-.044-.044-4.321 4.397-9.504 9.868l-9.425 9.947 5.2 5.206c2.86 2.863 5.267 5.205 5.35 5.205.083 0 1.094-3.409 2.246-7.575ZM95.044 86.585c-.086-4.79-.161-13.912-.167-20.272-.006-7.276-.111-11.528-.282-11.469-.15.052-4.611 4.416-9.913 9.699-9.47 9.434-9.632 9.615-9.15 10.195.27.324 1.576 1.737 2.904 3.139a6742.97 6742.97 0 0 1 7.223 7.646c6.362 6.742 9.283 9.77 9.425 9.77.065 0 .047-3.919-.04-8.708Zm12.036-2.008c5.354-5.66 9.771-10.389 9.815-10.508.045-.12-4.347-4.582-9.76-9.916-5.413-5.334-9.869-9.589-9.902-9.456-.17.674-.254 40.315-.086 40.249.109-.043 4.578-4.709 9.933-10.369Zm-53.841-2.728c5.685-2.45 11.842-5.1 13.683-5.89 2.097-.9 3.207-1.514 2.973-1.645-.205-.114-3.113-1.039-6.462-2.055-3.348-1.016-9.066-2.754-12.705-3.864-3.639-1.109-6.677-1.956-6.75-1.883-.145.145-2.917 19.204-2.917 20.055 0 .479.074.49.921.129.506-.216 5.572-2.397 11.257-4.847Zm96.433-5.009c-.714-5.037-1.366-9.497-1.449-9.912l-.15-.754-1.753.511c-.964.281-6.851 2.059-13.081 3.95-6.23 1.892-11.439 3.472-11.576 3.512-.257.075 4.424 2.149 20.072 8.894 7.442 3.208 9.078 3.822 9.149 3.432.048-.261-.497-4.596-1.212-9.633ZM40.906 73.557c.553-3.933 1.005-7.586 1.005-8.119 0-.532-1.022-4.96-2.271-9.84a5094.67 5094.67 0 0 1-4.144-16.315c-1.03-4.094-1.924-7.392-1.987-7.329-.102.101 1.468 12.685 5.014 40.189.617 4.79 1.133 8.804 1.145 8.92.062.59.318-.963 1.238-7.506Zm112.707-2.644c2.912-22.604 4.974-38.932 4.951-39.196-.062-.718-8.477 32.443-8.479 33.416-.003 1.046 2.05 15.748 2.18 15.618.051-.051.658-4.479 1.348-9.838Zm-83.144.804c-.356-.506-2.824-3.787-5.484-7.292a118069.482 118069.482 0 0 0-26.805-35.33c-2.514-3.312-4.621-5.97-4.684-5.907-.062.062 1.105 4.874 2.594 10.693 6.64 25.952 7.769 30.321 7.854 30.394.05.043 3.277 1.044 7.171 2.224 5.492 1.664 19.396 5.929 19.913 6.108.05.017-.202-.383-.559-.89Zm51.888.23c1.361-.443 2.637-.832 15.413-4.696 4.673-1.413 8.903-2.698 9.401-2.856 1.07-.339.793.503 4.049-12.288 5.667-22.261 6.595-25.884 7.088-27.682.288-1.051.487-1.912.443-1.912-.045 0-2.554 3.263-5.575 7.25l-10.14 13.38a5143.775 5143.775 0 0 1-7.667 10.096 7519.643 7519.643 0 0 0-8.493 11.186c-3.01 3.972-5.597 7.381-5.749 7.575-.346.445-.296.443 1.23-.053ZM88.882 57.734c3.186-3.09 4.486-4.524 4.162-4.589-.391-.078-21.686 2.207-21.887 2.349-.059.041 2.563 14.404 2.919 15.99.14.625.607.237 5.163-4.284 2.755-2.734 7.094-6.993 9.643-9.466Zm30.604 5.428c.776-4.199 1.355-7.69 1.286-7.758-.218-.218-21.253-2.394-21.701-2.244-.171.057 3.942 4.273 9.141 9.37 7.649 7.499 9.491 9.172 9.658 8.767.114-.275.841-3.936 1.616-8.135Zm-48.268 3.6c-.347-1.831-.981-5.204-1.409-7.497l-.777-4.168-9.8-9.283C41.464 28.983 38.651 26.339 38.964 26.765c.513.699 9.869 13.1 13.992 18.545 6.437 8.503 11.606 15.335 15.264 20.177 1.913 2.531 3.511 4.602 3.553 4.602.042 0-.208-1.497-.555-3.327Zm58.856-9.755C141.93 41.3 151.097 29.19 152.339 27.592c.946-1.218.95-1.234.141-.551-.812.686-3.606 3.31-8.769 8.234a5305.874 5305.874 0 0 1-11.038 10.448 4664.598 4664.598 0 0 0-9.112 8.619c-.51.494-.838 1.81-1.913 7.676-1.414 7.721-1.397 7.602-1.063 7.395.127-.078 4.397-5.661 9.489-12.406Z"/></svg>