<svg viewBox="0 0 48 48" version="1.1" id="svg3653" xmlns="http://www.w3.org/2000/svg"><defs id="defs3637"><style id="style3635">.a{fill:none;stroke:#000;stroke-linecap:round;stroke-linejoin:round}</style></defs><path class="a" d="M40.5 42.5h-33a2 2 0 0 1-2-2v-33a2 2 0 0 1 2-2h33a2 2 0 0 1 2 2v33a2 2 0 0 1-2 2Z" id="path3639" style="stroke-width:2;stroke-miterlimit:4;stroke-dasharray:none"/><path class="a" id="polyline3641" style="stroke-width:2;stroke-miterlimit:4;stroke-dasharray:none" d="m20.35 19.23-2.39 9.54-2.39-9.54-2.38 9.54-2.39-9.54"/><path class="a" d="M34.81 24.83a2.39 2.39 0 0 1 2.39-2.38h0" id="path3643" style="stroke-width:2;stroke-miterlimit:4;stroke-dasharray:none"/><path class="a" id="line3645" style="stroke-width:2;stroke-miterlimit:4;stroke-dasharray:none" d="M34.81 22.45v6.32"/><path class="a" d="M25.64 27.57a2.39 2.39 0 0 1-2.08 1.2h0a2.39 2.39 0 0 1-2.38-2.38v-1.56a2.39 2.39 0 0 1 2.38-2.38h0A2.39 2.39 0 0 1 26 24.83v.78h-4.82" id="path3647" style="stroke-width:2;stroke-miterlimit:4;stroke-dasharray:none"/><path class="a" d="M32.72 26.39a2.39 2.39 0 0 1-2.38 2.38h0A2.39 2.39 0 0 1 28 26.39v-1.56a2.39 2.39 0 0 1 2.39-2.38h0a2.39 2.39 0 0 1 2.38 2.38" id="path3649" style="stroke-width:2;stroke-miterlimit:4;stroke-dasharray:none"/><path class="a" id="line3651" style="stroke-width:2;stroke-miterlimit:4;stroke-dasharray:none" d="M32.72 28.77v-6.32"/></svg>