<svg xmlns="http://www.w3.org/2000/svg" viewBox="0 0 192 192"><path d="M75.954 175.761c-4.123-1.084-7.686-4.541-10.525-10.213-1.099-2.195-1.998-4.343-1.998-4.772 0-.438 1.113-1.621 2.527-2.688 4.352-3.283 13.652-12.679 18.442-18.631 7.937-9.863 14.667-20.696 19.079-30.71l1.914-4.345.598 2.808c.388 1.823.604 5.965.617 11.815.017 7.97-.114 9.695-1.136 14.975-2.183 11.281-6.327 23.542-10.15 30.029-2.388 4.052-7.255 8.93-10.453 10.475-2.677 1.294-6.646 1.854-8.915 1.257Zm-20.212-23.536c-6.481-4.007-11.3-10.246-12.515-16.203-.889-4.354.303-9.506 3.275-14.15 5.857-9.157 21.805-19.136 36.586-22.894 3.948-1.003 5.711-1.207 10.662-1.233 3.262-.017 6.66.124 7.551.314l1.62.344-2.165 4.635c-7.198 15.416-17.126 29.407-28.72 40.477-3.963 3.784-12.448 10.712-13.026 10.636-.106-.013-1.577-.88-3.268-1.926Zm72.061.681c-3.208-.827-6.304-3.496-8.061-6.948-1.237-2.432-2.628-7.201-3.428-11.749-.784-4.462-1.358-26.739-.818-31.779l.315-2.941 3.372 3.507c7.412 7.708 14.1 20.292 18.946 35.647 1.392 4.411 1.399 4.483.714 6.838-.873 3.004-2.809 5.702-4.756 6.626-1.896.9-4.573 1.24-6.284.799Zm13.644-20.594c-4.04-11.881-10.603-23.278-17.875-31.041l-3.666-3.913 2.732.309c9.321 1.054 20.244 8.93 24.595 17.733 1.443 2.92 1.643 3.734 1.788 7.3.126 3.107-.031 4.628-.695 6.727-.836 2.647-3.689 8.22-4.447 8.688-.209.129-1.303-2.482-2.432-5.803Zm-23.19-42.96c-.176-.182 1.612-2.23 3.973-4.552 9.333-9.18 16.155-19.826 20.304-31.684.803-2.296 1.54-4.272 1.637-4.391.373-.458 2.771 2.957 3.597 5.123 1.228 3.218 1.506 6.078.912 9.374-1.833 10.169-11.387 21.9-20.438 25.093-2.675.944-9.403 1.643-9.985 1.037Zm-34.614-.511c-14.113-1.51-28.819-9.165-35.446-18.452-6.515-9.13-6.931-18.954-1.127-26.609 1.956-2.58 5.894-5.648 9.607-7.484l2.693-1.331 4.337 2.85c15.29 10.047 28.066 24.353 36.33 40.679 3.939 7.783 3.882 7.262.911 8.399-4.681 1.791-11.546 2.564-17.305 1.948Zm29.701-4.173c-.984-4.805-.193-21.895 1.46-31.561 2.512-14.69 7.57-22.4 14.692-22.4 4.33 0 8.4 4.769 9.587 11.234.451 2.461.395 2.952-.732 6.371-2.771 8.405-7.656 17.817-12.872 24.798-3.089 4.134-7.786 9.292-10.21 11.212l-1.717 1.36Zm-9.351-9.061C96.299 59.639 85.312 46.216 71.56 35.982c-2.175-1.619-4.813-3.482-5.862-4.14-1.685-1.057-1.873-1.334-1.614-2.374 1.126-4.532 6.132-11.227 9.349-12.504 4.095-1.626 8.257-1.202 13.02 1.327 3.308 1.756 8.946 7.59 11.362 11.756 5.213 8.991 8.254 21.042 9.066 35.922.297 5.429 0 13.707-.509 14.216-.064.064-1.135-1.996-2.379-4.578Z"/></svg>