<svg
    xmlns="http://www.w3.org/2000/svg"
    viewBox="0 0 192 192"
    id="vector">
    <path
        id="path"
        d="M 75.954 175.761 C 71.831 174.677 68.268 171.22 65.429 165.548 C 64.33 163.353 63.431 161.205 63.431 160.776 C 63.431 160.338 64.544 159.155 65.958 158.088 C 70.31 154.805 79.61 145.409 84.4 139.457 C 92.337 129.594 99.067 118.761 103.479 108.747 L 105.393 104.402 L 105.991 107.21 C 106.379 109.033 106.595 113.175 106.608 119.025 C 106.625 126.995 106.494 128.72 105.472 134 C 103.289 145.281 99.145 157.542 95.322 164.029 C 92.934 168.081 88.067 172.959 84.869 174.504 C 82.192 175.798 78.223 176.358 75.954 175.761 Z M 55.742 152.225 C 49.261 148.218 44.442 141.979 43.227 136.022 C 42.338 131.668 43.53 126.516 46.502 121.872 C 52.359 112.715 68.307 102.736 83.088 98.978 C 87.036 97.975 88.799 97.771 93.75 97.745 C 97.012 97.728 100.41 97.869 101.301 98.059 L 102.921 98.403 L 100.756 103.038 C 93.558 118.454 83.63 132.445 72.036 143.515 C 68.073 147.299 59.588 154.227 59.01 154.151 C 58.904 154.138 57.433 153.271 55.742 152.225 Z M 127.803 152.906 C 124.595 152.079 121.499 149.41 119.742 145.958 C 118.505 143.526 117.114 138.757 116.314 134.209 C 115.53 129.747 114.956 107.47 115.496 102.43 L 115.811 99.489 L 119.183 102.996 C 126.595 110.704 133.283 123.288 138.129 138.643 C 139.521 143.054 139.528 143.126 138.843 145.481 C 137.97 148.485 136.034 151.183 134.087 152.107 C 132.191 153.007 129.514 153.347 127.803 152.906 Z M 141.447 132.312 C 137.407 120.431 130.844 109.034 123.572 101.271 L 119.906 97.358 L 122.638 97.667 C 131.959 98.721 142.882 106.597 147.233 115.4 C 148.676 118.32 148.876 119.134 149.021 122.7 C 149.147 125.807 148.99 127.328 148.326 129.427 C 147.49 132.074 144.637 137.647 143.879 138.115 C 143.67 138.244 142.576 135.633 141.447 132.312 Z M 118.257 89.352 C 118.081 89.17 119.869 87.122 122.23 84.8 C 131.563 75.62 138.385 64.974 142.534 53.116 C 143.337 50.82 144.074 48.844 144.171 48.725 C 144.544 48.267 146.942 51.682 147.768 53.848 C 148.996 57.066 149.274 59.926 148.68 63.222 C 146.847 73.391 137.293 85.122 128.242 88.315 C 125.567 89.259 118.839 89.958 118.257 89.352 Z M 83.643 88.841 C 69.53 87.331 54.824 79.676 48.197 70.389 C 41.682 61.259 41.266 51.435 47.07 43.78 C 49.026 41.2 52.964 38.132 56.677 36.296 L 59.37 34.965 L 63.707 37.815 C 78.997 47.862 91.773 62.168 100.037 78.494 C 103.976 86.277 103.919 85.756 100.948 86.893 C 96.267 88.684 89.402 89.457 83.643 88.841 Z M 113.344 84.668 C 112.36 79.863 113.151 62.773 114.804 53.107 C 117.316 38.417 122.374 30.707 129.496 30.707 C 133.826 30.707 137.896 35.476 139.083 41.941 C 139.534 44.402 139.478 44.893 138.351 48.312 C 135.58 56.717 130.695 66.129 125.479 73.11 C 122.39 77.244 117.693 82.402 115.269 84.322 L 113.552 85.682 Z M 103.993 75.607 C 96.299 59.639 85.312 46.216 71.56 35.982 C 69.385 34.363 66.747 32.5 65.698 31.842 C 64.013 30.785 63.825 30.508 64.084 29.468 C 65.21 24.936 70.216 18.241 73.433 16.964 C 77.528 15.338 81.69 15.762 86.453 18.291 C 89.761 20.047 95.399 25.881 97.815 30.047 C 103.028 39.038 106.069 51.089 106.881 65.969 C 107.178 71.398 106.881 79.676 106.372 80.185 C 106.308 80.249 105.237 78.189 103.993 75.607 Z"
        fill="#000000"
        stroke-width="12"/>
</svg>
