<svg xmlns="http://www.w3.org/2000/svg" viewBox="0 0 192 192"><path d="m43.558 140.887-26.205-.088-.537-.515c-1.112-1.065-1.098-2.136.107-8.267 2.007-10.209 6.012-19.901 11.965-28.955 2.795-4.252 5.95-8.067 10.076-12.184 5.296-5.284 10.559-9.368 16.249-12.61.876-.499 1.593-.927 1.593-.95 0-.024-.614-1.088-1.365-2.366l-3.767-6.41a5381.692 5381.692 0 0 1-4.437-7.565c-1.12-1.913-2.477-4.228-3.016-5.146-.771-1.312-.979-1.823-.979-2.399 0-1.508.939-2.455 2.435-2.455 1.179 0 1.699.379 2.565 1.872.375.644 1.724 2.933 2.998 5.085a5475.025 5475.025 0 0 1 9.261 15.693c.375.645.741 1.209.813 1.254.073.045 1.386-.457 2.918-1.115 10.016-4.305 20.604-6.473 31.616-6.474 4.406-.001 6.867.163 11.13.743a80.151 80.151 0 0 1 21.431 6.083c1.1.488 2.057.822 2.127.742.123-.139 3.17-5.264 6.962-11.709 7.355-12.502 7.12-12.172 8.66-12.173 1.486-.001 2.468.969 2.469 2.437.001.864.394.155-7.48 13.475-5.202 8.799-6.084 10.308-6.084 10.41 0 .05.724.517 1.609 1.038 19.485 11.473 33.422 30.741 38.04 52.592.651 3.081 1.219 6.527 1.219 7.398 0 1.027-.591 2.005-1.445 2.393-.712.323-1.942.33-52.726.293-28.599-.021-63.79-.078-78.202-.127Zm126.981-5.001c-.001-.452-.826-4.379-1.397-6.652-4.542-18.059-15.772-33.908-31.383-44.293-12.344-8.21-26.798-12.609-41.563-12.649-13.872-.037-27.268 3.656-39.216 10.813-18.503 11.084-31.659 30.127-35.393 51.234a36.744 36.744 0 0 0-.254 1.547c-.002.072 33.569.13 74.602.13 41.032 0 74.605-.058 74.604-.13ZM56.211 118.175c-3.462-1.102-5.773-4.784-5.178-8.252.434-2.531 1.967-4.568 4.252-5.649 6.093-2.883 12.562 3.229 10.095 9.536-.681 1.741-2.017 3.12-3.878 4.006-.98.467-1.351.544-2.783.585-1.133.032-1.92-.039-2.508-.226Zm3.804-5.304c1.653-1.451.828-4.056-1.355-4.277-1.919-.195-3.245 1.713-2.402 3.456.471.973 1.092 1.348 2.238 1.354.769.004 1-.077 1.519-.533Zm71.309 5.337c-2.401-.761-4.095-2.385-4.953-4.748-.333-.917-.381-1.338-.323-2.796.061-1.503.139-1.858.628-2.852.733-1.489 1.99-2.745 3.508-3.504 4.468-2.235 9.787.569 10.653 5.615.601 3.507-1.757 7.214-5.248 8.251-1.108.329-3.28.346-4.265.034Zm3.412-5.1c.706-.417 1.268-1.627 1.135-2.445-.211-1.302-1.367-2.2-2.661-2.069-.988.1-1.711.661-2.072 1.606-.389 1.019-.15 1.91.716 2.671.512.45.757.538 1.493.538.522 0 1.087-.122 1.389-.301Z" stroke="#000" stroke-width="8"/></svg>