<svg
    xmlns="http://www.w3.org/2000/svg"
    viewBox="0 0 192 192"
    id="vector">
    <path
        id="path"
        d="M 43.558 140.887 L 17.353 140.799 L 16.816 140.284 C 15.704 139.219 15.718 138.148 16.923 132.017 C 18.93 121.808 22.935 112.116 28.888 103.062 C 31.683 98.81 34.838 94.995 38.964 90.878 C 44.26 85.594 49.523 81.51 55.213 78.268 C 56.089 77.769 56.806 77.341 56.806 77.318 C 56.806 77.294 56.192 76.23 55.441 74.952 C 54.691 73.674 52.995 70.789 51.674 68.542 C 50.353 66.294 48.356 62.89 47.237 60.977 C 46.117 59.064 44.76 56.749 44.221 55.831 C 43.45 54.519 43.242 54.008 43.242 53.432 C 43.242 51.924 44.181 50.977 45.677 50.977 C 46.856 50.977 47.376 51.356 48.242 52.849 C 48.617 53.493 49.966 55.782 51.24 57.934 C 54.654 63.7 59.719 72.283 60.501 73.627 C 60.876 74.272 61.242 74.836 61.314 74.881 C 61.387 74.926 62.7 74.424 64.232 73.766 C 74.248 69.461 84.836 67.293 95.848 67.292 C 100.254 67.291 102.715 67.455 106.978 68.035 C 114.274 69.028 121.666 71.126 128.409 74.118 C 129.509 74.606 130.466 74.94 130.536 74.86 C 130.659 74.721 133.706 69.596 137.498 63.151 C 144.853 50.649 144.618 50.979 146.158 50.978 C 147.644 50.977 148.626 51.947 148.627 53.415 C 148.628 54.279 149.021 53.57 141.147 66.89 C 135.945 75.689 135.063 77.198 135.063 77.3 C 135.063 77.35 135.787 77.817 136.672 78.338 C 156.157 89.811 170.094 109.079 174.712 130.93 C 175.363 134.011 175.931 137.457 175.931 138.328 C 175.931 139.355 175.34 140.333 174.486 140.721 C 173.774 141.044 172.544 141.051 121.76 141.014 C 93.161 140.993 57.97 140.936 43.558 140.887 Z M 170.539 135.886 C 170.538 135.434 169.713 131.507 169.142 129.234 C 164.6 111.175 153.37 95.326 137.759 84.941 C 125.415 76.731 110.961 72.332 96.196 72.292 C 82.324 72.255 68.928 75.948 56.98 83.105 C 38.477 94.189 25.321 113.232 21.587 134.339 C 21.449 135.118 21.335 135.814 21.333 135.886 C 21.331 135.958 54.902 136.016 95.935 136.016 C 136.967 136.016 170.54 135.958 170.539 135.886 Z M 56.211 118.175 C 52.749 117.073 50.438 113.391 51.033 109.923 C 51.467 107.392 53 105.355 55.285 104.274 C 61.378 101.391 67.847 107.503 65.38 113.81 C 64.699 115.551 63.363 116.93 61.502 117.816 C 60.522 118.283 60.151 118.36 58.719 118.401 C 57.586 118.433 56.799 118.362 56.211 118.175 Z M 60.015 112.871 C 61.668 111.42 60.843 108.815 58.66 108.594 C 56.741 108.399 55.415 110.307 56.258 112.05 C 56.729 113.023 57.35 113.398 58.496 113.404 C 59.265 113.408 59.496 113.327 60.015 112.871 Z M 131.324 118.208 C 128.923 117.447 127.229 115.823 126.371 113.46 C 126.038 112.543 125.99 112.122 126.048 110.664 C 126.109 109.161 126.187 108.806 126.676 107.812 C 127.409 106.323 128.666 105.067 130.184 104.308 C 134.652 102.073 139.971 104.877 140.837 109.923 C 141.438 113.43 139.08 117.137 135.589 118.174 C 134.481 118.503 132.309 118.52 131.324 118.208 Z M 134.736 113.108 C 135.442 112.691 136.004 111.481 135.871 110.663 C 135.66 109.361 134.504 108.463 133.21 108.594 C 132.222 108.694 131.499 109.255 131.138 110.2 C 130.749 111.219 130.988 112.11 131.854 112.871 C 132.366 113.321 132.611 113.409 133.347 113.409 C 133.869 113.409 134.434 113.287 134.736 113.108 Z"
        fill="#000000"
        stroke="#000000"
        stroke-width="8"/>
</svg>
