<svg xmlns="http://www.w3.org/2000/svg" viewBox="0 0 192 192"><path d="M16.942 165.639c1.418-15.601 2.95-24.17 6.812-38.089 6.684-24.09 17.049-43.904 30.784-58.847.729-.793.092-3.16-4.586-17.039a7332.785 7332.785 0 0 1-6.19-18.42c-.417-1.266-1.022-2.924-1.344-3.684-1.943-4.591-.849-11.155 2.147-12.883 3.527-2.032 5.138.341 9.376 13.804.717 2.28 1.872 5.857 2.566 7.949.694 2.093 2.567 7.817 4.162 12.721 2.405 7.394 3.08 8.838 3.955 8.46.58-.25 3.19-1.677 5.8-3.171 9.404-5.382 12.623-6.157 25.576-6.157 12.953 0 16.172.775 25.576 6.157 2.61 1.494 5.22 2.917 5.8 3.162 1.068.452 1.36-.301 7.702-19.825 6.462-19.897 7.232-21.898 8.883-23.092 3.143-2.274 6.369 1.37 6.332 7.155-.017 2.686-1.483 7.756-6.847 23.68-5.854 17.379-6.705 20.393-5.981 21.183 8.973 9.796 17.331 22.835 22.56 35.196 5.871 13.879 10.881 31.381 13.295 46.448.434 2.712 1.215 9.593 1.735 15.292L176 176H16Zm47.242-27.235c3.093-2.892 4.859-9.828 4.16-16.338-.449-4.182-3.504-10.117-5.926-11.513-7.302-4.209-13.952 10.137-10.265 22.144 2.243 7.304 7.602 9.846 12.031 5.707Zm73.347-.78c4.295-5.601 4.391-18.307.184-24.489-3.447-5.067-8.049-4.466-11.463 1.497-6.331 11.057-1.002 28.162 7.905 25.375 1.119-.35 2.637-1.422 3.374-2.383Z"/></svg>