<svg
    xmlns="http://www.w3.org/2000/svg"
    viewBox="0 0 192 192"
    id="vector">
    <path
        id="path"
        d="M 16.942 165.639 C 18.36 150.038 19.892 141.469 23.754 127.55 C 30.438 103.46 40.803 83.646 54.538 68.703 C 55.267 67.91 54.63 65.543 49.952 51.664 C 46.965 42.799 44.179 34.51 43.762 33.244 C 43.345 31.978 42.74 30.32 42.418 29.56 C 40.475 24.969 41.569 18.405 44.565 16.677 C 48.092 14.645 49.703 17.018 53.941 30.481 C 54.658 32.761 55.813 36.338 56.507 38.43 C 57.201 40.523 59.074 46.247 60.669 51.151 C 63.074 58.545 63.749 59.989 64.624 59.611 C 65.204 59.361 67.814 57.934 70.424 56.44 C 79.828 51.058 83.047 50.283 96 50.283 C 108.953 50.283 112.172 51.058 121.576 56.44 C 124.186 57.934 126.796 59.357 127.376 59.602 C 128.444 60.054 128.736 59.301 135.078 39.777 C 141.54 19.88 142.31 17.879 143.961 16.685 C 147.104 14.411 150.33 18.055 150.293 23.84 C 150.276 26.526 148.81 31.596 143.446 47.52 C 137.592 64.899 136.741 67.913 137.465 68.703 C 146.438 78.499 154.796 91.538 160.025 103.899 C 165.896 117.778 170.906 135.28 173.32 150.347 C 173.754 153.059 174.535 159.94 175.055 165.639 L 176 176 L 16 176 Z M 64.184 138.404 C 67.277 135.512 69.043 128.576 68.344 122.066 C 67.895 117.884 64.84 111.949 62.418 110.553 C 55.116 106.344 48.466 120.69 52.153 132.697 C 54.396 140.001 59.755 142.543 64.184 138.404 Z M 137.531 137.624 C 141.826 132.023 141.922 119.317 137.715 113.135 C 134.268 108.068 129.666 108.669 126.252 114.632 C 119.921 125.689 125.25 142.794 134.157 140.007 C 135.276 139.657 136.794 138.585 137.531 137.624 Z"
        fill="#000000"
        stroke-width="12"/>
</svg>
