<svg xmlns="http://www.w3.org/2000/svg" viewBox="0 0 192 192"><path fill="none" stroke="#000" stroke-width="8" d="M96 21.999a74.03 74.03 0 0 0-52.327 21.674A74.03 74.03 0 0 0 21.999 96a74.03 74.03 0 0 0 21.674 52.327A74.03 74.03 0 0 0 96 170.001a74.03 74.03 0 0 0 52.327-21.674A74.03 74.03 0 0 0 170.001 96a74.03 74.03 0 0 0-21.674-52.327A74.03 74.03 0 0 0 96 21.999Z"/><path fill="none" stroke="#000" stroke-width="8" d="M27.567 67.838c9.999-6.67 16.362-10.935 19.95-11.612 3.588-.677 8.259-2.369 8.53-.068.27 2.302-.542 3.791 1.083 5.822 1.624 2.031.677 3.114.677 3.791s1.353 1.692 1.624 2.775c.271 1.083.745 2.167.203 2.844-.541.677.61 1.15.948 1.692.339.541.135 1.828-.135 2.505-.271.677-1.219 1.317-1.287 1.927-.067.609-.473 1.895-.406 4.197.068 2.301 2.37 5.28 3.52 7.175 1.151 1.896.813 4.062 1.963 5.822 1.151 1.76 1.219 3.213 2.031 3.958.813.745 2.234 2.166 2.708 3.385.474 1.218 1.828 1.895 1.692 3.452-.135 1.557 1.287 2.099 1.964 2.437.677.338 4.332.406 4.941-.068.61-.473 4.671-1.827 5.28-3.587.61-1.76 2.911-3.927 3.318-4.604.406-.677 2.843-2.707 2.843-4.264 0-1.557-1.49-3.182.135-3.994 1.625-.813 2.708.067 3.249-1.219.542-1.286-.541-5.077-.812-5.822-.271-.744 2.085-4.517 3.249-5.397 1.165-.88 3.859-1.386 4.4-2.942.542-1.557.745-6.431.136-7.515-.609-1.083-2.979-3.299-2.573-4.991.407-1.692 1.828-5.416 3.453-6.769 1.624-1.354 4.942-3.859 6.702-4.536 1.76-.677 6.837-5.989 7.243-9.576.406-3.588-.948-.745-1.692-.61-.745.136-6.702.88-8.191.271-1.49-.609-3.453-3.57-5.416-4.044-1.963-.473-5.213-4.67-5.348-5.415-.135-.745-1.692-1.286-1.828-2.099-.135-.812-1.76-1.15-1.827-1.827-.068-.677.125-6.691.125-6.691m20.201 66.011c1.963-6.223 4.787-13.116 2.872-15.509-1.915-2.393-1.197.622-1.34 1.101-.144.479-2.92 3.255-3.495 3.255-.574 0-2.728.431-2.824.67-.095.239-1.101 1.628-.574 2.776.526 1.149.909 3.064.048 4.356-.862 1.293-1.867 1.388-1.532 2.106.335.718.718 2.633.67 3.399-.048.766 1.005 1.58 1.675 1.723.671.144 2.25.335 3.064-.335.814-.67 1.436-3.542 1.436-3.542Z"/><path fill="none" stroke="#000" stroke-width="8" d="M123.12 35.23c-2.132 1.76-7.074 2.945-8.563 3.249-1.49.305-7.717 1.794-8.733 1.727-1.015-.068-1.963 1.218-4.197-2.742s-3.622-3.554-4.095-3.825c-.474-.271-2.031-2.538-2.471-2.741-.44-.203-2.234-1.591-2.505-2.031-.271-.44-2.54-6.625-2.54-6.625"/><path fill="none" stroke="#000" stroke-width="8" d="M123.12 35.23c-1.377-1.675-2.73-2.014-3.949-2.521-1.218-.508-2.911-.779-3.622-.745-.71.034-2.233-.072-2.978-.372-.745-.3-2.471-1.354-2.742-1.828-.271-.474-2.731-2.437-3.261-2.606-.53-.17-8.931-5.14-8.931-5.14M77.871 167.75c-2.586-6.579-1.841-6.782-2.62-7.628-.778-.846-1.794-1.693-1.049-2.911.745-1.218 2.403-2.471 4.163-2.911 1.76-.44 5.111-1.354 5.551-1.354.44 0 3.08.846 4.231.609 1.151-.236 5.517-1.929 5.72-2.166.203-.237 2.132-.169 2.674.068.542.237 4.265-1.286 4.874-1.489.609-.203 2.335-.643 3.689-.508s5.314 1.692 5.856 2.031c.541.338 1.413 1.726 1.413 1.726s.542 1.219 1.185 1.286c.643.068 5.686-1.151 6.194-1.794.507-.643.372-1.184.507-1.523.136-.338.779-.507 1.659-.237.88.271 4.569.677 4.942.711.372.034 3.114.948 3.418 1.219.305.27 4.889 5.911 4.889 5.911"/><path fill="none" stroke="#000" stroke-width="8" d="M144.73 51.877c-2.004-2.377-3.123-3.27-4.754-5.453-1.631-2.184-2.657-3.682-2.75-4.148-.093-.467-.653-1.539-1.445-.746-.792.792-1.911-1.165-2.191-1.445-.279-.28-2.47-2.61-3.216-2.797-.746-.186-2.8-1.025-3.076-1.351-.276-.327-1.352-1.306-2.237-1.306-.886 0-7.515-2.422-7.515-2.422m27.184 19.668c1.072 1.725 2.33 3.449 3.542 1.818 1.212-1.632.886-2.237 1.212-2.89.326-.653 2.327-3.404 2.327-3.404M170 96c-4.635-2.198-5.893-3.922-6.499-4.668-.606-.746.513-2.563.792-2.936.28-.373 3.53-3.032 4.911-3.217"/></svg>