<svg xmlns="http://www.w3.org/2000/svg" viewBox="0 0 192 192"><path d="M71.405 96.336v18.504a4.103 4.103 0 0 0 4.102 4.103h15.275v15.273a4.103 4.103 0 0 0 4.102 4.102h18.504a4.104 4.104 0 0 0 4.102-4.102v-15.273h15.273a4.103 4.103 0 0 0 4.102-4.103V96.336a4.103 4.103 0 0 0-4.102-4.102H117.49V76.96a4.104 4.104 0 0 0-4.102-4.103H94.884a4.102 4.102 0 0 0-4.102 4.103v15.274H75.507a4.103 4.103 0 0 0-4.102 4.102Zm8.205 4.103h15.274a4.103 4.103 0 0 0 4.103-4.102V81.063h10.299v15.274a4.103 4.103 0 0 0 4.102 4.102h15.272v10.299h-15.272a4.102 4.102 0 0 0-4.102 4.102v15.273H98.987V114.84a4.103 4.103 0 0 0-4.103-4.102H79.61ZM157.02 16H34.978a4.103 4.103 0 0 0-4.102 4.102v151.581a4.102 4.102 0 0 0 4.102 4.102h122.044a4.103 4.103 0 0 0 4.102-4.102V20.103A4.104 4.104 0 0 0 157.02 16Zm-85.587 8.205h10.733v18l-3.001-2.12a4.107 4.107 0 0 0-4.731 0l-3.001 2.12v-18ZM47.148 167.581h-8.067V24.205h8.067v143.376Zm105.769 0H55.353V24.205h7.875v25.914a4.1 4.1 0 0 0 6.468 3.351l7.104-5.012 7.103 5.012a4.105 4.105 0 0 0 6.469-3.351V24.205h62.546v143.376Zm0 0"/></svg>