<svg
    xmlns="http://www.w3.org/2000/svg"
    viewBox="0 0 192 192"
    id="vector">
    <path
        id="path"
        d="M 52.025 91.616 C 52.025 91.616 53.542 65.502 34.394 65.502 C 15.246 65.502 16.004 92.301 16.004 92.301 C 16.004 96.535 16.501 100.11 17.202 103.063 C 19.115 111.104 24.208 117.046 30.257 117.873 C 37.122 118.825 42.043 113.648 42.043 113.648 L 42.043 123.619 C 42.043 125.282 41.82 126.945 41.278 128.431 C 39.073 134.47 33.986 134.221 30.48 133.189 C 28.759 132.682 27.14 131.668 25.623 130.432 C 24.221 129.285 21.868 128.164 19.861 131.064 C 16.769 135.529 19.21 138.633 19.21 138.633 C 21.894 143 27.134 144.815 30.614 145.553 C 32.992 146.06 35.414 146.167 37.798 145.713 C 52.847 142.884 52.032 123.112 52.032 123.112 L 52.032 91.616 Z M 34.286 105.243 C 29.792 105.243 26.146 98.936 26.146 91.162 C 26.146 83.389 29.792 77.082 34.286 77.082 C 38.779 77.082 42.425 83.389 42.425 91.162 C 42.425 98.936 38.779 105.243 34.286 105.243 Z M 91.272 109.886 C 90.22 108.169 88.537 106.683 86.994 107.778 C 86.484 108.142 85.981 108.516 85.388 108.872 C 83.833 109.797 80.607 110.473 78.842 110.793 C 77.803 110.98 76.751 111.006 75.718 110.766 C 68.484 109.112 68.624 98.874 68.624 98.874 L 81.207 98.874 C 88.824 99.354 91.998 94.48 93.292 89.766 C 94.771 84.403 94.019 78.31 91.495 73.773 C 88.964 69.219 84.088 64.514 74.858 65.493 C 57.717 67.307 57.985 95.396 57.985 95.396 C 58.202 107.582 63.142 115.534 63.142 115.534 C 63.142 115.534 67.266 122.8 77.082 122.8 C 86.899 122.8 91.622 115.836 91.622 115.836 C 93.146 113.319 92.374 111.691 91.272 109.886 Z M 83.093 81.005 C 83.718 82.17 84.145 83.655 83.826 85.354 C 83.52 86.982 82.59 88.227 81.449 88.77 C 79.53 89.686 75.655 90.931 71.307 89.063 C 69.797 88.414 69.153 85.941 69.962 84.047 C 71.224 81.067 73.761 77.402 78.498 77.767 C 80.289 77.901 82.022 79.004 83.093 81.005 Z M 101.49 109.29 C 100.674 106.363 100.304 103.232 100.304 100.093 L 100.304 58.537 C 100.304 58.537 100.368 55.086 101.509 51.67 C 102.758 47.917 105.62 45.631 108.565 46.049 C 109.77 46.218 110.802 46.805 110.802 48.317 L 110.802 61.775 C 110.802 61.775 110.516 66.035 113.001 66.035 C 115.487 66.035 120.408 65.866 120.408 65.866 C 120.408 65.866 123.621 65.244 120.899 72.448 C 120.899 72.448 119.153 76.878 114.799 76.993 L 111.159 76.993 L 111.159 96.979 C 111.159 96.979 110.611 110.375 117.769 110.775 L 121.39 110.775 C 121.919 110.775 122.442 110.739 122.964 110.704 C 123.953 110.65 126.101 111.166 123.908 117.419 C 123.908 117.419 121.467 122.809 115.118 122.809 L 114.927 122.809 C 109.113 122.72 104.014 117.597 101.738 110.135 C 101.655 109.85 101.572 109.574 101.49 109.29 Z M 136.191 46.44 C 139.046 46.44 141.361 49.67 141.361 53.654 C 141.361 57.638 139.046 60.867 136.191 60.867 C 133.336 60.867 131.022 57.638 131.022 53.654 C 131.022 49.67 133.336 46.44 136.191 46.44 Z M 130.575 78.292 C 130.575 78.292 129.868 70.491 133.833 68.303 C 133.833 68.303 140.398 64.977 140.398 69.744 L 140.398 105.705 C 140.398 105.705 140.22 111.291 143.152 111.291 L 145.759 111.291 C 145.759 111.291 148.85 110.553 146.817 117.766 C 146.817 117.766 145.638 122.818 139.41 122.818 C 137.855 122.818 136.523 122.311 135.394 121.537 C 132.347 119.456 130.531 114.973 130.537 110.241 Z M 152.331 112.207 L 152.331 91.785 C 152.331 87.222 152.93 82.677 154.224 78.488 C 155.92 72.991 159.037 67.174 164.646 67.174 L 169.548 67.174 C 170.956 67.174 172.359 67.067 173.761 67.014 C 174.979 66.96 176.814 67.583 175.603 72.244 C 173.869 78.906 169.146 78.372 169.146 78.372 C 169.146 78.372 162.205 79.279 162.205 87.302 L 162.205 118.14 C 162.205 118.896 162.236 119.652 162.249 120.408 C 162.268 121.262 162.077 122.8 160.471 122.8 C 158.246 122.8 152.713 122.649 152.331 112.207 Z"
        fill="#000000"
        stroke-width="12"/>
</svg>
