<svg
    xmlns="http://www.w3.org/2000/svg"
    viewBox="0 0 256 256"
    id="vector">
    <path
        id="path"
        d="M 59.01 123.08 C 59.01 123.08 61.39 93.72 31.35 93.72 C 1.31 93.72 2.5 123.85 2.5 123.85 C 2.5 128.61 3.28 132.63 4.38 135.95 C 7.38 144.99 15.37 151.67 24.86 152.6 C 35.63 153.67 43.35 147.85 43.35 147.85 L 43.35 159.06 C 43.35 160.93 43 162.8 42.15 164.47 C 38.69 171.26 30.71 170.98 25.21 169.82 C 22.51 169.25 19.97 168.11 17.59 166.72 C 15.39 165.43 11.7 164.17 8.55 167.43 C 3.7 172.45 7.53 175.94 7.53 175.94 C 11.74 180.85 19.96 182.89 25.42 183.72 C 29.15 184.29 32.95 184.41 36.69 183.9 C 60.3 180.72 59.02 158.49 59.02 158.49 L 59.02 123.08 Z M 31.18 138.4 C 24.13 138.4 18.41 131.31 18.41 122.57 C 18.41 113.83 24.13 106.74 31.18 106.74 C 38.23 106.74 43.95 113.83 43.95 122.57 C 43.95 131.31 38.23 138.4 31.18 138.4 Z"
        fill="#000000"
        stroke-width="12"/>
    <path
        id="path_1"
        d="M 120.58 143.62 C 118.93 141.69 116.29 140.02 113.87 141.25 C 113.07 141.66 112.28 142.08 111.35 142.48 C 108.91 143.52 103.85 144.28 101.08 144.64 C 99.45 144.85 97.8 144.88 96.18 144.61 C 84.83 142.75 85.05 131.24 85.05 131.24 L 104.79 131.24 C 116.74 131.78 121.72 126.3 123.75 121 C 126.07 114.97 124.89 108.12 120.93 103.02 C 116.96 97.9 109.31 92.61 94.83 93.71 C 67.94 95.75 68.36 127.33 68.36 127.33 C 68.7 141.03 76.45 149.97 76.45 149.97 C 76.45 149.97 82.92 158.14 98.32 158.14 C 113.72 158.14 121.13 150.31 121.13 150.31 C 123.52 147.48 122.31 145.65 120.58 143.62 Z M 107.75 111.15 C 108.73 112.46 109.4 114.13 108.9 116.04 C 108.42 117.87 106.96 119.27 105.17 119.88 C 102.16 120.91 96.08 122.31 89.26 120.21 C 86.89 119.48 85.88 116.7 87.15 114.57 C 89.13 111.22 93.11 107.1 100.54 107.51 C 103.35 107.66 106.07 108.9 107.75 111.15 Z"
        fill="#000000"
        stroke-width="12"/>
    <path
        id="path_2"
        d="M 136.61 142.95 C 135.33 139.66 134.75 136.14 134.75 132.61 L 134.75 85.89 C 134.75 85.89 134.85 82.01 136.64 78.17 C 138.6 73.95 143.09 71.38 147.71 71.85 C 149.6 72.04 151.22 72.7 151.22 74.4 C 151.22 78.49 151.22 89.53 151.22 89.53 C 151.22 89.53 150.77 94.32 154.67 94.32 C 158.57 94.32 166.29 94.13 166.29 94.13 C 166.29 94.13 171.33 93.43 167.06 101.53 C 167.06 101.53 164.32 106.51 157.49 106.64 L 151.78 106.64 L 151.78 129.11 C 151.78 129.11 150.92 144.17 162.15 144.62 L 167.83 144.62 C 168.66 144.62 169.48 144.58 170.3 144.54 C 171.85 144.48 175.22 145.06 171.78 152.09 C 171.78 152.09 167.95 158.15 157.99 158.15 C 157.89 158.15 157.79 158.15 157.69 158.15 C 148.57 158.05 140.57 152.29 137 143.9 C 136.87 143.58 136.74 143.27 136.61 142.95 Z"
        fill="#000000"
        stroke-width="12"/>
    <path
        id="path_3"
        d="M 191.05 72.29 C 195.529 72.29 199.16 75.921 199.16 80.4 C 199.16 84.879 195.529 88.51 191.05 88.51 C 186.571 88.51 182.94 84.879 182.94 80.4 C 182.94 75.921 186.571 72.29 191.05 72.29 Z"
        fill="#000000"
        stroke-width="12"/>
    <path
        id="path_4"
        d="M 182.24 108.1 C 182.24 108.1 181.13 99.33 187.35 96.87 C 187.35 96.87 197.65 93.13 197.65 98.49 C 197.65 103.85 197.65 138.92 197.65 138.92 C 197.65 138.92 197.37 145.2 201.97 145.2 C 206.57 145.2 206.06 145.2 206.06 145.2 C 206.06 145.2 210.91 144.37 207.72 152.48 C 207.72 152.48 205.87 158.16 196.1 158.16 C 193.66 158.16 191.57 157.59 189.8 156.72 C 185.02 154.38 182.17 149.34 182.18 144.02 L 182.24 108.1 Z"
        fill="#000000"
        stroke-width="12"/>
    <path
        id="path_5"
        d="M 216.37 146.23 L 216.37 123.27 C 216.37 118.14 217.31 113.03 219.34 108.32 C 222 102.14 226.89 95.6 235.69 95.6 L 243.38 95.6 C 245.59 95.6 247.79 95.48 249.99 95.42 C 251.9 95.36 254.78 96.06 252.88 101.3 C 250.16 108.79 242.75 108.19 242.75 108.19 C 242.75 108.19 231.86 109.21 231.86 118.23 L 231.86 152.9 C 231.86 153.75 231.91 154.6 231.93 155.45 C 231.96 156.41 231.66 158.14 229.14 158.14 C 225.65 158.14 216.97 157.97 216.37 146.23 Z"
        fill="#000000"
        stroke-width="12"/>
</svg>
