<svg xmlns="http://www.w3.org/2000/svg" viewBox="0 0 192 192"><path d="M52.025 91.616s1.517-26.114-17.631-26.114-18.39 26.799-18.39 26.799c0 4.234.497 7.809 1.198 10.762 1.913 8.041 7.006 13.983 13.055 14.81 6.865.952 11.786-4.225 11.786-4.225v9.971c0 1.663-.223 3.326-.765 4.812-2.205 6.039-7.292 5.79-10.798 4.758-1.721-.507-3.34-1.521-4.857-2.757-1.402-1.147-3.755-2.268-5.762.632-3.092 4.465-.651 7.569-.651 7.569 2.684 4.367 7.924 6.182 11.404 6.92 2.378.507 4.8.614 7.184.16 15.049-2.829 14.234-22.601 14.234-22.601V91.616Zm-17.739 13.627c-4.494 0-8.14-6.307-8.14-14.081 0-7.773 3.646-14.08 8.14-14.08 4.493 0 8.139 6.307 8.139 14.08 0 7.774-3.646 14.081-8.139 14.081Zm56.986 4.643c-1.052-1.717-2.735-3.203-4.278-2.108-.51.364-1.013.738-1.606 1.094-1.555.925-4.781 1.601-6.546 1.921-1.039.187-2.091.213-3.124-.027-7.234-1.654-7.094-11.892-7.094-11.892h12.583c7.617.48 10.791-4.394 12.085-9.108 1.479-5.363.727-11.456-1.797-15.993-2.531-4.554-7.407-9.259-16.637-8.28-17.141 1.814-16.873 29.903-16.873 29.903.217 12.186 5.157 20.138 5.157 20.138s4.124 7.266 13.94 7.266c9.817 0 14.54-6.964 14.54-6.964 1.524-2.517.752-4.145-.35-5.95Zm-8.179-28.881c.625 1.165 1.052 2.65.733 4.349-.306 1.628-1.236 2.873-2.377 3.416-1.919.916-5.794 2.161-10.142.293-1.51-.649-2.154-3.122-1.345-5.016 1.262-2.98 3.799-6.645 8.536-6.28 1.791.134 3.524 1.237 4.595 3.238Zm18.397 28.285c-.816-2.927-1.186-6.058-1.186-9.197V58.537s.064-3.451 1.205-6.867c1.249-3.753 4.111-6.039 7.056-5.621 1.205.169 2.237.756 2.237 2.268v13.458s-.286 4.26 2.199 4.26c2.486 0 7.407-.169 7.407-.169s3.213-.622.491 6.582c0 0-1.746 4.43-6.1 4.545h-3.64v19.986s-.548 13.396 6.61 13.796h3.621c.529 0 1.052-.036 1.574-.071.989-.054 3.137.462.944 6.715 0 0-2.441 5.39-8.79 5.39h-.191c-5.814-.089-10.913-5.212-13.189-12.674-.083-.285-.166-.561-.248-.845Zm34.701-62.85c2.855 0 5.17 3.23 5.17 7.214 0 3.984-2.315 7.213-5.17 7.213s-5.169-3.229-5.169-7.213 2.314-7.214 5.169-7.214Zm-5.616 31.852s-.707-7.801 3.258-9.989c0 0 6.565-3.326 6.565 1.441v35.961s-.178 5.586 2.754 5.586h2.607s3.091-.738 1.058 6.475c0 0-1.179 5.052-7.407 5.052-1.555 0-2.887-.507-4.016-1.281-3.047-2.081-4.863-6.564-4.857-11.296Zm21.756 33.915V91.785c0-4.563.599-9.108 1.893-13.297 1.696-5.497 4.813-11.314 10.422-11.314h4.902c1.408 0 2.811-.107 4.213-.16 1.218-.054 3.053.569 1.842 5.23-1.734 6.662-6.457 6.128-6.457 6.128s-6.941.907-6.941 8.93v30.838c0 .756.031 1.512.044 2.268.019.854-.172 2.392-1.778 2.392-2.225 0-7.758-.151-8.14-10.593Z"/></svg>