<svg xmlns="http://www.w3.org/2000/svg" viewBox="0 0 192 192"><path d="M106.267 145.661c-11.765-1.069-24.634-4.776-49.777-14.339-11.8-4.488-27.183-10.707-28.227-11.412-.492-.332-.315-.437.75-.445 3.123-.024 41.063-1.88 44.202-2.163 3.284-.295 2.821-.389-15.53-3.162-10.404-1.572-19.274-2.945-19.712-3.053-.438-.107 2.429-.788 6.371-1.512 14.898-2.737 25.468-4.776 24.962-4.815-.288-.022-12.198-1.904-26.465-4.182C28.573 98.3 16.623 96.42 16.286 96.4c-1.672-.1 3.514-1.249 28.188-6.246 16.778-3.399 26.464-5.547 25.885-5.742-.51-.171-10.11-.892-21.334-1.601s-20.274-1.427-20.11-1.594c.163-.168 8.779-2.036 19.146-4.151C58.428 74.95 66.76 73.17 66.578 73.11c-.182-.061-6.951-.847-15.041-1.748s-14.79-1.732-14.889-1.846c-.73-.845 19.945-8.081 31.988-11.197 26.871-6.951 52.366-8.424 68.874-3.98l2.372.639 5.592-3.195c4.909-2.804 11.765-6.155 11.765-5.75 0 .079-.889 2.184-1.975 4.678-1.76 4.039-3.589 10.757-3.597 13.211-.002.469.777 1.855 1.73 3.081 2.495 3.207 6.506 10.12 7.831 13.498 1.173 2.99 2.52 8.542 2.993 12.34.234 1.872.43 2.222 1.482 2.646 1.801.726 4.161.596 7.269-.4 1.525-.489 2.839-.812 2.921-.718.165.191-.611 16.582-.964 20.363l-.226 2.418-4.849 4.768c-6.005 5.905-10.002 9.237-14.954 12.471-12.816 8.369-31.9 12.792-48.633 11.272Zm12.037-23.664c7.504-1.838 11.38-6.597 11.769-14.452.21-4.221-.289-6.598-2.009-9.568-1.64-2.832-4.639-4.937-8.112-5.695-3.079-.671-7.156-.344-8.932.718-.683.408-1.337.633-1.452.5-.116-.133.1-1.702.478-3.486l.687-3.243h16.242V76.633l-12.429.121-12.429.122-2.477 12.656c-1.363 6.961-2.49 13.019-2.505 13.462-.024.73.493.806 5.534.806 5.151 0 5.593-.068 5.987-.919.726-1.569 3.483-2.896 5.477-2.636 3.288.428 5.489 4.441 4.51 8.22-1.264 4.876-7.359 5.983-10.022 1.82l-.911-1.423H96.647l.28 1.496c.745 3.986 3.535 8.045 6.908 10.051 3.724 2.215 9.377 2.835 14.469 1.588Zm33.505-39.862c2.104-1.912.925-5.949-1.738-5.949-2.755 0-3.853 3.683-1.749 5.868 1.239 1.286 2.139 1.307 3.487.081Z"/></svg>