<svg xmlns="http://www.w3.org/2000/svg" viewBox="0 0 192 192"><path fill="none" stroke="#000" stroke-linecap="round" stroke-linejoin="round" stroke-width="12" d="M47.935 145.82c-3.954 0-7.75 1.565-10.546 4.347a14.803 14.803 0 0 0-4.369 10.493c0 3.934 1.572 7.711 4.369 10.493a14.958 14.958 0 0 0 10.546 4.347 14.96 14.96 0 0 0 10.547-4.347 14.807 14.807 0 0 0 4.368-10.493c0-3.934-1.572-7.711-4.368-10.493a14.96 14.96 0 0 0-10.547-4.347Zm0-111.952c-3.149 0-6.219.992-8.767 2.834a14.845 14.845 0 0 0-5.418 7.42 14.775 14.775 0 0 0 0 9.172 14.845 14.845 0 0 0 5.418 7.42 14.975 14.975 0 0 0 17.534 0 14.845 14.845 0 0 0 5.418-7.42 14.76 14.76 0 0 0 0-9.172 14.845 14.845 0 0 0-5.418-7.42 14.966 14.966 0 0 0-8.767-2.834Zm96.13 0c-3.15 0-6.219.992-8.767 2.834a14.845 14.845 0 0 0-5.418 7.42 14.76 14.76 0 0 0 0 9.172 14.845 14.845 0 0 0 5.418 7.42 14.973 14.973 0 0 0 17.534 0 14.845 14.845 0 0 0 5.418-7.42 14.775 14.775 0 0 0 0-9.172 14.845 14.845 0 0 0-5.418-7.42 14.968 14.968 0 0 0-8.767-2.834Zm0 111.952a14.96 14.96 0 0 0-10.547 4.347 14.807 14.807 0 0 0-4.368 10.493c0 3.934 1.572 7.711 4.368 10.493a14.96 14.96 0 0 0 10.547 4.347c3.954 0 7.75-1.565 10.546-4.347a14.803 14.803 0 0 0 4.369-10.493c0-3.934-1.572-7.711-4.369-10.493a14.958 14.958 0 0 0-10.546-4.347ZM96 89.762a14.96 14.96 0 0 0-10.547 4.347 14.807 14.807 0 0 0-4.368 10.493c0 3.935 1.572 7.712 4.368 10.494A14.96 14.96 0 0 0 96 119.442a14.97 14.97 0 0 0 8.791-2.817 14.851 14.851 0 0 0 5.439-7.428 14.77 14.77 0 0 0 0-9.189 14.851 14.851 0 0 0-5.439-7.428A14.964 14.964 0 0 0 96 89.762ZM47.935 33.868V16.5m0 47.048v82.272m96.13 0V63.548"/><path fill="none" stroke="#000" stroke-linecap="round" stroke-linejoin="round" stroke-width="12" d="M62.85 48.708h12.662a20.549 20.549 0 0 1 14.487 5.97A20.34 20.34 0 0 1 96 69.092v20.67m0 29.68v20.833c0 5.405 2.16 10.593 6.001 14.414a20.545 20.545 0 0 0 14.487 5.971h12.662"/></svg>