<svg xmlns="http://www.w3.org/2000/svg" viewBox="0 0 192 192"><path d="M85.967 175.737c-23.882-2.153-45.786-11.108-62.546-25.569-2.56-2.208-5.108-4.996-5.663-6.194-.854-1.841-1.083-9.099-1.486-46.975-.357-33.69-.281-45.387.31-47.178 1.014-3.072 8.311-9.804 16.747-15.449 27.991-18.733 65.758-23.487 99.659-12.545 9.038 2.917 22.215 9.698 29.423 15.141 9.799 7.399 11.225 9.407 8.087 11.383-1.439.906-2.056.543-10.891-6.398-11.18-8.782-25.582-15.276-41.374-18.656-6.424-1.375-9.012-1.551-22.595-1.535-16.522.021-21.42.696-34.015 4.693-6.329 2.009-18.398 7.81-24.01 11.542-5.324 3.539-13.449 10.439-14.464 12.282-1.25 2.269-.775 89.466.501 91.933.502.971 2.798 3.349 5.103 5.285 12.646 10.618 28.104 17.821 46.055 21.46 6.422 1.302 9.489 1.514 21.497 1.491 12.672-.025 14.824-.202 22.596-1.856 8.87-1.887 18.455-5.136 25.425-8.618 9.348-4.67 23.668-15.481 24.779-18.706.279-.81.414-10.94.301-22.51-.226-23.076-.241-22.988 3.702-22.53 1.45.168 1.938.648 2.255 2.216.736 3.633.783 41.908.055 43.817-1.064 2.79-4.99 6.764-11.655 11.796-18.675 14.098-39.583 21.142-64.457 21.713-5.685.131-11.688.116-13.339-.033Zm10.038-22.562c-1.073-1.293-.631-4.41.749-5.273 1.85-1.159 4.553.474 4.553 2.75 0 1.035-.36 2.242-.8 2.682-1.094 1.094-3.533 1.008-4.502-.159Zm.037-11.961c-.536-.646-.708-6.088-.582-18.508l.178-17.593 1.875-.215c3.744-.429 3.794-.183 3.794 18.505 0 12.431-.219 17.345-.8 17.926-1.077 1.077-3.528 1.014-4.465-.115ZM56.821 99.575c-4.237-1.512-8.132-4.141-10.123-6.833-3.102-4.196-3.416-6.407-3.416-24.069 0-15.461.096-16.801 1.398-19.572 1.696-3.606 5.698-7.348 9.859-9.217 4.797-2.154 13.924-2.365 19.035-.439 6.643 2.503 12.393 8.994 12.393 13.991 0 2.012-.072 2.061-2.782 1.861-2.617-.193-2.839-.373-3.711-3.001-1.272-3.83-5.198-7.22-9.967-8.606-7.435-2.162-15.622.921-18.722 7.05-1.427 2.823-1.5 3.718-1.5 18.423v15.456l1.866 3.572c1.56 2.988 2.496 3.895 5.707 5.537 6.477 3.313 14.522 2.416 19.329-2.156 2.996-2.849 3.423-4.071 3.778-10.803l.333-6.336h6.003l-.029 6.336c-.024 5.137-.297 6.842-1.444 9.004-1.956 3.687-5.902 7.324-9.866 9.093-4.655 2.078-13.349 2.418-18.141.709Zm59.96-10.268c-.441-.441-.801-1.307-.801-1.925 0-.618 7.615-8.512 16.922-17.541 17.861-17.328 19.337-18.368 21.18-14.924.75 1.402-.256 2.525-16.438 18.341-17.123 16.738-18.847 18.065-20.863 16.049Z"/></svg>