<svg
    xmlns="http://www.w3.org/2000/svg"
    viewBox="0 0 192 192"
    id="vector">
    <path
        id="path"
        d="M 85.967 175.737 C 62.085 173.584 40.181 164.629 23.421 150.168 C 20.861 147.96 18.313 145.172 17.758 143.974 C 16.904 142.133 16.675 134.875 16.272 96.999 C 15.915 63.309 15.991 51.612 16.582 49.821 C 17.596 46.749 24.893 40.017 33.329 34.372 C 61.32 15.639 99.087 10.885 132.988 21.827 C 142.026 24.744 155.203 31.525 162.411 36.968 C 172.21 44.367 173.636 46.375 170.498 48.351 C 169.059 49.257 168.442 48.894 159.607 41.953 C 148.427 33.171 134.025 26.677 118.233 23.297 C 111.809 21.922 109.221 21.746 95.638 21.762 C 79.116 21.783 74.218 22.458 61.623 26.455 C 55.294 28.464 43.225 34.265 37.613 37.997 C 32.289 41.536 24.164 48.436 23.149 50.279 C 21.899 52.548 22.374 139.745 23.65 142.212 C 24.152 143.183 26.448 145.561 28.753 147.497 C 41.399 158.115 56.857 165.318 74.808 168.957 C 81.23 170.259 84.297 170.471 96.305 170.448 C 108.977 170.423 111.129 170.246 118.901 168.592 C 127.771 166.705 137.356 163.456 144.326 159.974 C 153.674 155.304 167.994 144.493 169.105 141.268 C 169.384 140.458 169.519 130.328 169.406 118.758 C 169.18 95.682 169.165 95.77 173.108 96.228 C 174.558 96.396 175.046 96.876 175.363 98.444 C 176.099 102.077 176.146 140.352 175.418 142.261 C 174.354 145.051 170.428 149.025 163.763 154.057 C 145.088 168.155 124.18 175.199 99.306 175.77 C 93.621 175.901 87.618 175.886 85.967 175.737 Z M 96.005 153.175 C 94.932 151.882 95.374 148.765 96.754 147.902 C 98.604 146.743 101.307 148.376 101.307 150.652 C 101.307 151.687 100.947 152.894 100.507 153.334 C 99.413 154.428 96.974 154.342 96.005 153.175 Z M 96.042 141.214 C 95.506 140.568 95.334 135.126 95.46 122.706 L 95.638 105.113 L 97.513 104.898 C 101.257 104.469 101.307 104.715 101.307 123.403 C 101.307 135.834 101.088 140.748 100.507 141.329 C 99.43 142.406 96.979 142.343 96.042 141.214 Z M 56.821 99.575 C 52.584 98.063 48.689 95.434 46.698 92.742 C 43.596 88.546 43.282 86.335 43.282 68.673 C 43.282 53.212 43.378 51.872 44.68 49.101 C 46.376 45.495 50.378 41.753 54.539 39.884 C 59.336 37.73 68.463 37.519 73.574 39.445 C 80.217 41.948 85.967 48.439 85.967 53.436 C 85.967 55.448 85.895 55.497 83.185 55.297 C 80.568 55.104 80.346 54.924 79.474 52.296 C 78.202 48.466 74.276 45.076 69.507 43.69 C 62.072 41.528 53.885 44.611 50.785 50.74 C 49.358 53.563 49.285 54.458 49.285 69.163 L 49.285 84.619 L 51.151 88.191 C 52.711 91.179 53.647 92.086 56.858 93.728 C 63.335 97.041 71.38 96.144 76.187 91.572 C 79.183 88.723 79.61 87.501 79.965 80.769 L 80.298 74.433 L 86.301 74.433 L 86.272 80.769 C 86.248 85.906 85.975 87.611 84.828 89.773 C 82.872 93.46 78.926 97.097 74.962 98.866 C 70.307 100.944 61.613 101.284 56.821 99.575 Z M 116.781 89.307 C 116.34 88.866 115.98 88 115.98 87.382 C 115.98 86.764 123.595 78.87 132.902 69.841 C 150.763 52.513 152.239 51.473 154.082 54.917 C 154.832 56.319 153.826 57.442 137.644 73.258 C 120.521 89.996 118.797 91.323 116.781 89.307 Z"
        fill="#000000"
        stroke-width="12"/>
</svg>
