<svg xmlns="http://www.w3.org/2000/svg" viewBox="0 0 192 192"><path d="M89.316 168.709c-3.463-1.235-7.632-5.065-9.011-8.279-.559-1.302-1.016-4.047-1.016-6.1 0-8.243 6.472-14.713 14.718-14.713 16.751 0 20.405 23.477 4.536 29.145-3.439 1.229-5.667 1.216-9.227-.053Zm33.583-3.073c1.378-2.987 1.648-4.842 1.642-11.3-.006-6.826-.236-8.219-1.972-11.936-2.173-4.651-7.591-10.883-11.762-13.526-13.622-8.635-32.138-4.688-41.121 8.765-5.215 7.81-6.533 17.162-3.7 26.263l1.415 4.547-1.967-.491c-1.082-.27-4.703-1.665-8.048-3.1-4.822-2.07-6.175-2.99-6.541-4.45-.824-3.28.334-15.116 1.953-19.967 4.71-14.108 17.5-25.605 32.389-29.114 21.88-5.157 44.388 8.056 51.952 30.498 1 2.968 1.368 6.239 1.378 12.264.007 4.519-.191 8.422-.441 8.672-.637.639-12.37 5.356-14.809 5.954l-2.017.495Zm-93.328-20.315C21.143 136.679 16 129.941 16 127.545c0-1.208 11.308-12.988 15.676-16.331l2.798-2.141-1.22-4.414c-1.63-5.9-2.21-19.486-1.102-25.847.483-2.77 1.738-7.586 2.79-10.703l1.913-5.666-2.682-5.867c-5.745-12.567-5.295-20.043 1.658-27.587 7.855-8.522 20.473-8.909 29.339-.899l2.996 2.707 6.481-2.201c7.615-2.586 18.512-4.049 25.248-3.39 6.105.597 16.327 2.94 19.115 4.382 2.974 1.538 4.366 1.398 5.937-.599.741-.942 3.438-2.829 5.993-4.194 3.926-2.097 5.389-2.48 9.43-2.467 5.994.02 11.216 2.498 15.004 7.121 6.711 8.19 6.98 16.256.942 28.233l-2.493 4.945 2.054 5.931c2.123 6.133 3.627 14.829 3.627 20.974 0 3.284-1.719 14.773-2.552 17.061-.216.594.787 1.828 2.431 2.988 4.676 3.301 10.008 8.388 13.4 12.784l3.217 4.17-1.746 3.046c-.96 1.675-2.755 4.37-3.987 5.989-2.789 3.663-15.315 16.558-16.084 16.558-.312 0-.566-.951-.566-2.114 0-3.965-3.605-16.333-6.304-21.629-7.746-15.199-21.186-26.004-37.9-30.469-6.492-1.735-21.376-1.735-27.868 0-20.008 5.345-36.197 20.738-41.737 39.687-.975 3.334-1.976 7.966-2.224 10.293-.249 2.328-.66 4.232-.914 4.232s-3.448-3.063-7.099-6.807Zm42.573-66.05c9.448-1.595 12.094-2.621 14.439-5.603 3.444-4.379.81-13.831-5.316-19.075-5.674-4.857-14.517-5.939-21.035-2.573-3.563 1.84-7.834 6.375-9.286 9.86-1.664 3.993-1.565 11.666.188 14.668 2.702 4.626 6.683 5.142 21.01 2.723Zm-10.959-2.77c-1.644-1.097-2.502-3.868-2.502-8.075 0-3.918.222-4.53 2.392-6.583 1.315-1.245 3.115-2.635 3.999-3.088 2.203-1.13 6.216-1.067 6.065.095-.606 4.669 4.32 8.141 8.13 5.731 1.492-.943 2.203.385 2.216 4.139.015 3.87-2.682 6.381-8.098 7.543-4.254.912-10.995 1.044-12.202.238Zm78.386 3.171c2.856-1.476 4.479-5.276 4.479-10.486 0-11.292-10.43-20.5-21.549-19.025-9.484 1.258-16.809 9.086-16.945 18.107-.1 6.646 3.114 8.916 15.609 11.023 9.772 1.648 15.719 1.771 18.406.381Zm-20.035-3.415c-4.239-.998-5.68-2.008-6.847-4.799-1.407-3.369-.23-7.426 3.089-10.644 1.924-1.864 3.231-2.433 6.266-2.724 3.708-.356 3.819-.313 3.392 1.32-.608 2.327 1.329 5.762 3.568 6.323 1.019.256 2.881.26 4.137.009l2.284-.457-.424 4.107c-.233 2.259-.949 4.909-1.592 5.889-1.054 1.609-1.651 1.776-6.118 1.709-2.723-.04-6.213-.37-7.755-.733Z"/></svg>