<svg xmlns="http://www.w3.org/2000/svg" viewBox="0 0 192 192"><path d="M50.445 144.709c-12.397-2.486-25.227-14.43-30.788-28.662-4.225-10.809-4.338-29.552-.242-39.8 4.078-10.201 12.915-20.644 21.621-25.549 6.017-3.39 9.378-4.202 17.738-4.282 9.019-.087 11.434.535 19.213 4.945 9.846 5.583 11.269 7.733 8.322 12.579-2.591 4.26-4.191 4.139-12.734-.966-9.821-5.868-19.535-5.702-29.532.507-23.307 14.474-22.43 51.746 1.549 65.836 4.623 2.716 7.438 3.217 15.45 2.751 8.272-.481 10.696-1.298 15.581-5.252 5.287-4.28 11.883-13.341 11.883-16.325 0-.672-1.969-1.441-4.375-1.708-3.994-.444-4.411-.992-4.792-6.299l-.418-5.813h23.41l-.867 7.288c-3.213 26.997-26.571 45.654-51.019 40.75Zm83.151-18.467c-15.266-11.411-14.745-10.54-15.281-25.574-.262-7.348-.092-15.125.378-17.282l.855-3.922 8.143 5.115c4.478 2.814 10.539 7.649 13.468 10.745l5.325 5.629-.387 15.28c-.463 18.262-.946 18.648-12.501 10.009Zm16.376 5.048c-1.406-1.618-1.05-29.843.415-32.997 1.375-2.959 21.729-18.674 24.187-18.674.913 0 1.42 6.281 1.42 17.587 0 20.07.722 18.569-13.82 28.744-9.36 6.55-10.659 7.118-12.202 5.34Zm-17.457-47.862c-5.746-3.874-10.083-7.722-9.638-8.551 1.608-2.996 21.509-15.409 24.705-15.409 4.105 0 24.665 13.723 24 16.019-.27.932-4.687 4.666-9.817 8.296-12.327 8.726-15.843 8.683-29.25-.355Z"/></svg>