<?xml version="1.0" encoding="UTF-8" standalone="no"?>
<!-- Created with Inkscape (http://www.inkscape.org/) -->

<svg
   version="1.1"
   id="svg348"
   width="682.66669"
   height="682.66669"
   viewBox="0 0 682.66669 682.66669"
   sodipodi:docname="google_opinion_rewards.svg"
   inkscape:version="1.1.2 (b8e25be833, 2022-02-05)"
   xmlns:inkscape="http://www.inkscape.org/namespaces/inkscape"
   xmlns:sodipodi="http://sodipodi.sourceforge.net/DTD/sodipodi-0.dtd"
   xmlns="http://www.w3.org/2000/svg"
   xmlns:svg="http://www.w3.org/2000/svg">
  <defs
     id="defs352" />
  <sodipodi:namedview
     id="namedview350"
     pagecolor="#ffffff"
     bordercolor="#666666"
     borderopacity="1.0"
     inkscape:pageshadow="2"
     inkscape:pageopacity="0.0"
     inkscape:pagecheckerboard="0"
     showgrid="false"
     inkscape:zoom="0.84667966"
     inkscape:cx="341.33334"
     inkscape:cy="341.33334"
     inkscape:window-width="1280"
     inkscape:window-height="961"
     inkscape:window-x="-8"
     inkscape:window-y="-8"
     inkscape:window-maximized="1"
     inkscape:current-layer="g354" />
  <g
     inkscape:groupmode="layer"
     inkscape:label="Image"
     id="g354">
    <g
       id="g492"
       transform="translate(3.3799796,6.5604657)">
      <path
         style="fill:#d1d1d1;stroke-width:1.33333"
         d="m 211.68343,567.24617 c -5.68954,-3.08711 -7.68342,-8.39742 -7.68342,-20.46326 0,-15.29133 3.43828,-23.71059 14.27526,-34.95552 12.51796,-12.98921 17.69451,-14.73325 46.05807,-15.51755 l 22.33334,-0.61754 v -18.54139 c 0,-17.97248 -0.092,-18.57937 -3,-19.77916 -24.33475,-10.04021 -33.0559,-14.71848 -47.00001,-25.21215 -10.74684,-8.08755 -31.05101,-28.76579 -38.06836,-38.76971 -3.71442,-5.29528 -6.89008,-8.38464 -9.14448,-8.896 -26.25884,-5.95625 -46.24303,-17.18936 -64.18664,-36.07932 -30.132011,-31.72116 -42.600521,-74.33427 -42.600521,-145.594 0,-24.01115 1.920119,-30.91552 11.10438,-39.92919 8.671011,-8.50996 13.690351,-9.55804 45.774191,-9.55804 h 27.12143 v -16.04283 c 0,-21.55629 3.05251,-28.65381 14.94688,-34.7536 4.778,-2.4503 10.18494,-2.53691 158.37617,-2.53691 127.68946,0 154.14907,0.3095 157.71979,1.84482 2.35977,1.01466 6.68841,4.34142 9.61919,7.39282 l 5.32868,5.548 0.87038,18.94051 c 0.47871,10.41729 0.9308,19.09052 1.00466,19.27386 0.0739,0.18333 10.60473,0.33333 23.40197,0.33333 30.32444,0 35.20242,1.0688 44.34611,9.71652 10.82001,10.23312 11.61064,14.1574 10.66579,52.93908 -1.11118,45.6075 -6.1945,73.34851 -18.2037,99.3424 -7.23605,15.66239 -14.75792,25.81868 -29.70364,40.10689 -14.21629,13.59086 -26.28871,20.67224 -45.28757,26.56456 -11.54468,3.58046 -11.60571,3.62301 -18.94926,13.21065 -9.99433,13.04849 -31.2922,33.46575 -43.46877,41.67145 -11.33466,7.63835 -18.82972,11.58857 -33.66667,17.74378 l -10.33333,4.28687 v 18.39356 18.39356 l 23.66666,0.58984 c 28.70169,0.71532 34.03678,2.35002 46.10115,14.12562 11.68938,11.40958 15.52632,20.61634 15.5511,37.31478 0.0167,11.24103 -2.15032,16.58293 -7.94194,19.57788 -5.84253,3.02131 -253.45339,2.95953 -259.02689,-0.0647 z m 246.7246,-24.58639 c -0.71503,-9.88511 -5.74732,-17.7671 -14.46721,-22.65976 -5.67382,-3.18354 -7.18922,-3.3633 -33.71962,-4 l -27.77881,-0.66667 -3.95924,-4.43427 -3.95924,-4.43426 0.40472,-29.12795 c 0.39776,-28.62679 0.45962,-29.18633 3.59622,-32.52219 1.75534,-1.86682 6.25534,-4.3988 10,-5.62658 11.7143,-3.84086 34.40271,-15.89537 45.49812,-24.17347 12.38073,-9.23707 22.4017,-19.5456 33.01955,-33.9671 8.8671,-12.04357 10.78231,-13.4563 22.2137,-16.38558 15.50589,-3.97336 33.59521,-13.75388 44.78736,-24.21561 14.12548,-13.20364 28.6284,-41.71789 33.79589,-66.44633 5.78274,-27.67255 7.94052,-84.65754 3.57388,-94.38266 -2.368,-5.27386 -7.48356,-6.28022 -32.34712,-6.36349 -28.99147,-0.0971 -35.43741,-1.02008 -40.17427,-5.75253 -3.48101,-3.47778 -3.57314,-4.00655 -4.22528,-24.24715 -0.52904,-16.42039 -1.07953,-20.9521 -2.66666,-21.95259 -1.2253,-0.7724 -59.87517,-1.26866 -151.41184,-1.28117 -117.53685,-0.0161 -149.86335,0.33514 -151.52831,1.64625 -1.70462,1.34235 -2.2334,5.43641 -2.71737,21.03956 -0.94548,30.48224 0.0789,29.73456 -41.56462,30.33623 -17.76794,0.25672 -32.35437,1.05517 -34.50742,1.88892 -7.42884,2.87676 -8.02503,6.26073 -7.22379,41.00188 1.02997,44.65843 5.34841,66.44747 18.38513,92.76372 7.88035,15.90747 15.83108,26.42027 26.24579,34.70326 9.66479,7.68657 31.5339,18.45767 43.4512,21.40084 10.88684,2.68868 14.79892,5.72899 24.65144,19.15816 17.69763,24.12216 41.72274,41.84745 73.30745,54.08489 5.9498,2.30525 11.02025,5.28377 13,7.63657 3.21746,3.82374 3.24566,4.10522 3.24566,32.40058 v 28.54334 l -3.88764,4.35436 -3.88762,4.35437 -26.44571,0.66667 c -25.10141,0.63277 -26.74768,0.8361 -32.3865,4 -8.71989,4.89266 -13.75218,12.77465 -14.46721,22.65976 l -0.57916,8.00691 H 341.33334 458.98719 Z M 278.22576,349.39908 c -3.32948,-3.06901 -6.42891,-7.28876 -6.88762,-9.3772 -0.49749,-2.26507 1.08172,-13.25206 3.91394,-27.23019 2.61136,-12.88816 4.74793,-23.97093 4.74793,-24.6284 0,-0.65747 -7.05,-7.58492 -15.66667,-15.39435 -19.85489,-17.99481 -23,-22.04654 -23,-29.62999 0,-4.78702 0.8392,-6.72682 4.8131,-11.12545 5.57536,-6.17125 8.92421,-7.26605 28.52024,-9.32384 24.577,-2.58083 26.50904,-2.89199 27.76818,-4.47221 0.67963,-0.85292 5.24348,-10.31571 10.1419,-21.0284 5.99701,-13.11527 10.43034,-20.95487 13.57213,-24 4.261,-4.12994 5.36693,-4.52238 12.74428,-4.52238 7.8021,0 8.24416,0.18891 12.92594,5.52343 2.6877,3.06243 7.99521,12.60624 11.91208,21.41997 10.68194,24.03655 10.6712,24.023 19.85114,25.01215 39.7292,4.2808 41.5868,4.73032 47.7529,11.55544 3.93249,4.35281 4.67004,6.15697 4.69828,11.49285 l 0.0335,6.3295 -19.57306,18.87641 -19.57307,18.87643 4.38267,22.09681 c 5.36788,27.06419 5.11953,32.34951 -1.84735,39.31639 -4.3248,4.32482 -5.56891,4.83396 -11.81173,4.83396 -6.30106,0 -9.00696,-1.1379 -27.90087,-11.733 l -20.92311,-11.733 -5.74356,2.9146 c -3.15897,1.60301 -12.57303,6.82857 -20.92013,11.61235 -11.18739,6.41156 -16.84576,8.85815 -21.52698,9.30796 -5.96088,0.57276 -6.72177,0.26791 -12.40405,-4.96984 z m 33.37992,-27.06574 c 26.74942,-14.97696 27.2589,-14.97845 53.72767,-0.1575 10.63333,5.95405 19.53073,10.30804 19.772,9.67553 0.24126,-0.63251 -1.46688,-10.30781 -3.79588,-21.50068 -6.08439,-29.24083 -6.69054,-27.35233 15.56713,-48.50052 l 18.40036,-17.48316 -11.9718,-1.5677 c -6.58449,-0.86222 -17.07181,-2.23896 -23.30515,-3.0594 -6.23333,-0.82045 -12.8728,-2.25581 -14.75437,-3.1897 -4.95056,-2.45714 -9.51197,-9.71175 -17.95825,-28.56142 -4.10471,-9.16049 -7.87357,-17.0692 -8.37523,-17.57489 -0.50168,-0.50569 -4.79168,7.59431 -9.53332,18 -5.2214,11.45853 -10.47943,20.91284 -13.33334,23.97432 -5.10362,5.47481 -6.77177,5.88535 -42.33854,10.41971 l -12.29306,1.56721 9.62639,8.75367 c 5.29451,4.81451 13.67639,12.72665 18.62639,17.58255 l 9,8.82888 v 8.39569 c 0,7.36568 -5.14191,37.20584 -7.44558,43.20911 -0.46185,1.20356 -0.4847,2.1883 -0.0508,2.1883 0.43392,0 9.62983,-4.95 20.43538,-11 z m -140.59039,2.96411 c -5.48138,-2.20415 -20.49786,-19.0006 -25.03023,-27.99719 -9.72099,-19.29576 -15.91716,-50.27408 -15.10371,-75.51236 0.43384,-13.46072 0.60216,-14.15273 4.193,-17.23911 3.57885,-3.07606 4.57268,-3.21545 22.92566,-3.21545 18.04554,0 19.39438,0.18043 22.71749,3.03884 2.26421,1.9476 3.94587,5.17949 4.68295,9 0.63254,3.27864 1.17622,28.35732 1.20816,55.73039 l 0.0581,49.76924 -3.89744,3.89743 c -4.02841,4.02842 -6.631,4.58822 -11.75395,2.52821 z m -4.34862,-69.29744 v -36 h -8.58909 -8.58909 l 0.66454,9.66666 c 0.92496,13.45502 4.19884,33.72302 6.73039,41.66667 2.30657,7.23772 8.29333,20.66667 9.21341,20.66667 0.31342,0 0.56984,-16.2 0.56984,-36 z m 330.37089,65.24268 -4.09065,-4.09067 0.85988,-12.11417 c 0.47295,-6.6628 0.85989,-30.682 0.85989,-53.376 v -41.26184 l 4.63467,-4.63467 4.63467,-4.63467 18.66544,0.43467 c 17.2608,0.40196 18.89037,0.65991 21.65468,3.42772 3.86995,3.87488 4.68692,16.15521 2.44868,36.80716 -4.19103,38.66978 -12.64138,60.2954 -29.96174,76.67628 -8.87514,8.39374 -13.43752,9.03419 -19.70552,2.76619 z m 25.62372,-54.57601 c 2.25952,-9.19363 4.4673,-24.52661 5.80751,-40.33334 l 0.537,-6.33333 h -7.97112 -7.97112 l 0.46823,35.28101 0.46824,35.281 3.10177,-6.94766 c 1.70597,-3.82123 4.20775,-11.44768 5.55949,-16.94768 z"
         id="path506" />
      <path
         style="fill:#a9a9a9;stroke-width:1.33333"
         d="m 212.14677,566.13934 c -5.28028,-2.92663 -6.71531,-7.19861 -6.76514,-20.13932 -0.0405,-10.54546 0.42024,-12.9697 3.80183,-20 4.70004,-9.77136 15.70993,-20.7716 24.81655,-24.7948 5.73565,-2.53394 9.92521,-3.05651 30,-3.7419 l 23.33333,-0.79664 0.36798,-19.49056 0.36796,-19.49056 -4.36796,-1.64658 c -28.02702,-10.56532 -45.7103,-21.89642 -65.99687,-42.28949 -6.02922,-6.06086 -13.96602,-15.14962 -17.63734,-20.19722 -6.64729,-9.1392 -6.71552,-9.18716 -16.3711,-11.50816 -20.38282,-4.8996 -42.32155,-17.94256 -57.82699,-34.37915 C 95.900266,315.8965 83.953119,274.48838 84.033842,202.66667 c 0.02759,-24.54961 1.326254,-29.69264 9.708265,-38.44709 8.228033,-8.59364 9.248853,-8.82083 42.924563,-9.55291 L 167.33334,154.00001 168.00001,136 c 0.82572,-22.29447 2.74725,-26.67244 14.26712,-32.50588 3.8609,-1.95509 18.93984,-2.16078 158.39955,-2.16078 171.01747,0 157.39171,-0.75736 166.43354,9.25085 l 4.8998,5.4235 v 13.14339 c 0,7.22887 0.37461,15.87655 0.83249,19.21706 l 0.83248,6.07365 28.16752,0.45606 c 31.7695,0.51436 32.42216,0.68414 41.8194,10.87894 8.22976,8.92823 8.78999,12.47 7.94422,50.22322 -1.01864,45.47008 -4.85828,68.43541 -15.67202,93.73612 -8.00357,18.72581 -12.98461,25.98617 -28.59076,41.67375 -12.48681,12.55197 -16.45019,15.64828 -26.66667,20.8328 -11.09153,5.62859 -20.01396,9.01673 -28.88702,10.96939 -2.40122,0.52842 -6.34559,4.35033 -12.16259,11.785 -11.30639,14.45057 -29.80265,32.13094 -42.7624,40.87609 -9.5515,6.4453 -22.28576,13.03891 -38.55828,19.96491 l -6.37031,2.71137 0.37031,19.05862 0.37029,19.05862 24.66667,0.77172 c 22.66352,0.70906 25.2622,1.04551 32,4.14307 9.99497,4.59497 21.33149,16.6954 25.11476,26.80711 3.27929,8.76469 3.98479,26.40604 1.29232,32.31536 -3.45784,7.58913 1.91103,7.30016 -134.67421,7.24883 -101.80357,-0.0383 -126.33935,-0.38338 -128.91945,-1.81343 z m 247.58041,-20.83171 c 0.69186,-10.58604 -5.8954,-21.54209 -16.22822,-26.99105 -4.98017,-2.62626 -8.12031,-2.96667 -33.2848,-3.6082 l -27.78585,-0.70836 -3.21415,-3.74102 c -3.18119,-3.70266 -3.21415,-4.03526 -3.21415,-32.4359 v -28.69488 l 3.68598,-3.68598 c 2.02729,-2.02729 6.97729,-4.7659 11,-6.08581 11.2145,-3.67963 31.60384,-14.31776 41.98069,-21.9034 12.8818,-9.4168 23.30023,-19.92395 34.2237,-34.51512 10.0574,-13.43434 10.65017,-13.82955 29.4835,-19.65683 26.5571,-8.21713 46.29923,-25.49934 59.34194,-51.94774 13.71557,-27.81288 19.53709,-60.31449 19.16077,-106.97477 -0.25597,-31.73804 -0.93225,-32.32788 -37.16708,-32.41663 -41.33632,-0.1012 -40.7764,0.28471 -41.70949,-28.75034 -0.59628,-18.55434 -0.93995,-20.94431 -3.25484,-22.63483 -3.96499,-2.89556 -300.14573,-2.82827 -304.28233,0.0691 -2.57616,1.80441 -2.84308,3.51646 -3.3779,21.66667 -0.34805,11.81157 -1.22817,20.89716 -2.19672,22.67688 -3.0828,5.66471 -6.10966,6.1982 -39.55489,6.97173 -34.73857,0.80344 -36.4304,1.15596 -40.15999,8.3682 -1.90958,3.69272 -2.09489,8.13562 -1.45817,34.96049 1.14392,48.19313 7.40845,75.56052 23.69288,103.50529 13.03056,22.36099 35.34087,38.56204 64.01497,46.4857 12.08668,3.33997 14.78815,5.23626 23.04024,16.17312 20.93671,27.74828 41.22065,43.44724 72.2485,55.91749 20.14745,8.09738 19.28824,6.28194 19.28824,40.754 0,28.10179 -0.0352,28.45343 -3.21399,32.15354 l -3.21398,3.74101 -26.45268,0.68704 c -23.89342,0.62056 -26.9847,0.96966 -31.95163,3.6082 -6.33699,3.36635 -11.75235,9.33184 -14.55042,16.02856 -2.00149,4.79026 -2.65478,15.19428 -1.05454,16.79451 0.49284,0.49285 53.74284,0.74285 118.33334,0.55556 l 117.43724,-0.34053 z M 277.82457,347.50879 c -4.18401,-4.18403 -5.82409,-6.90674 -5.82292,-9.66667 8.9e-4,-2.11316 2.10089,-14.18019 4.66667,-26.81563 2.56576,-12.63543 4.66502,-23.22775 4.66502,-23.53847 0,-0.31072 -7.35,-7.27024 -16.33333,-15.46561 -19.70937,-17.9806 -22.33334,-21.38059 -22.33334,-28.93838 0,-4.38334 0.8997,-6.6826 3.99387,-10.20666 5.16158,-5.87871 8.29888,-6.93744 26.00614,-8.77616 25.39762,-2.6373 27.2918,-2.96908 29.843,-5.22744 1.37129,-1.21391 6.28876,-10.6071 10.92769,-20.87376 5.63265,-12.46591 10.06453,-20.32759 13.34167,-23.66667 4.44113,-4.52508 5.57498,-5 11.93722,-5 6.42822,0 7.44031,0.43752 11.82354,5.11125 3.05431,3.25675 8.10025,12.42271 13.9072,25.2624 l 9.11367,20.15115 6.88633,1.27736 c 3.78749,0.70256 13.78635,1.98649 22.21968,2.85319 19.41243,1.99501 22.92589,3.1026 27.93336,8.80578 3.28741,3.74416 4.07247,5.83632 4.09707,10.9186 l 0.0304,6.28694 -19.49376,18.76777 -19.49378,18.76778 4.13002,20.46402 c 2.27152,11.25522 4.13002,23.73031 4.13002,27.72243 0,6.6537 -0.43125,7.68966 -5.17646,12.43487 -8.40127,8.40125 -12.20544,7.7198 -38.39876,-6.87848 l -21.62987,-12.05496 -6.39746,3.26456 c -3.5186,1.7955 -13.29745,7.21702 -21.73078,12.04783 -19.70744,11.28882 -24.12623,11.68884 -32.84211,2.97296 z m 34.40825,-24.17545 c 26.80343,-14.94286 25.56751,-14.94454 52.75407,0.0712 11.3566,6.27254 20.97792,11.07506 21.3807,10.67227 0.40278,-0.40279 -1.16515,-9.93409 -3.4843,-21.18068 -2.31913,-11.24653 -4.21661,-23.05251 -4.21661,-26.23543 0,-6.27953 0.37092,-6.7147 27.66667,-32.46006 5.31666,-5.0147 9.66666,-9.56423 9.66666,-10.11008 0,-0.54587 -6.15,-1.71402 -13.66666,-2.5959 -21.14324,-2.48059 -32.0056,-4.20547 -35.9029,-5.70115 -4.94302,-1.89701 -9.27508,-8.64172 -17.93033,-27.9163 -8.34638,-18.5867 -10.53228,-21.82439 -12.00442,-17.78059 -4.34818,11.94393 -19.2935,40.44343 -22.72136,43.32775 -4.20621,3.53925 -5.32977,3.76952 -39.10766,8.01472 -6.96667,0.87557 -13.09804,1.97133 -13.62527,2.43504 -0.52724,0.46369 5.68552,6.83172 13.80611,14.15115 22.22949,20.03638 22.48582,20.3881 22.48582,30.8536 0,7.66634 -5.08656,37.45198 -7.44557,43.59949 -0.46185,1.20356 -0.19716,2.18831 0.58821,2.18831 0.78536,0 10.57595,-5.1 21.75684,-11.33334 z M 166.9487,321.00001 C 144.36819,302.96864 132,268.6767 132,224.10162 c 0,-14.03081 0.18874,-15.07823 3.27274,-18.16221 3.17244,-3.17246 3.86246,-3.27274 22.51895,-3.27274 21.98006,0 24.11372,0.81306 26.24232,10 0.67964,2.93334 1.25002,28.0106 1.26752,55.72727 l 0.0319,50.39395 -3.27273,3.27272 c -4.41359,4.4136 -8.62693,4.11789 -15.11191,-1.0606 z m 0.4246,-100.71002 c -0.48269,-1.25784 -3.19136,-1.63565 -9.68832,-1.35132 l -9.01831,0.39467 0.42115,10 c 0.99149,23.54242 7.134,48.35554 15.51319,62.66667 l 2.73233,4.66667 0.35497,-37.31534 c 0.19524,-20.52344 0.0535,-38.10104 -0.31501,-39.06135 z m 330.37368,100.24486 c -3.39278,-3.39277 -3.44736,-3.73404 -2.61296,-16.33333 0.4687,-7.0775 0.8553,-31.06434 0.8591,-53.30407 l 0.007,-40.43591 3.89744,-3.89743 3.89743,-3.89744 h 18.16317 c 17.50658,0 18.28148,0.11827 21.4359,3.27274 2.98076,2.98074 3.27273,4.32346 3.27273,15.05066 0,13.96986 -2.9926,39.48937 -6.06959,51.75849 -4.96032,19.77876 -12.70821,34.00177 -24.56249,45.09008 -7.87871,7.3696 -12.87728,8.10656 -18.28763,2.69621 z m 19.91969,-35.53484 c 6.32793,-14.675 11.66668,-41.3938 11.66668,-58.38818 v -8.0724 l -8.33333,0.39695 -8.33334,0.39696 v 36.9995 c 0,20.34973 0.31648,36.99973 0.70331,37 0.38681,2.8e-4 2.32032,-3.7495 4.29668,-8.33283 z"
         id="path504" />
      <path
         style="fill:#939393;stroke-width:1.33333"
         d="m 209.93941,563.39395 c -3.053,-3.05298 -3.27186,-4.19438 -3.25971,-17 0.0107,-11.70404 0.48831,-14.74808 3.23776,-20.65337 4.43972,-9.53567 12.93449,-18.32336 21.89207,-22.64695 7.07868,-3.41671 8.92705,-3.67481 31.24217,-4.36259 19.06454,-0.58758 23.96583,-1.12345 24.97959,-2.73102 1.68028,-2.66452 1.66251,-34.16846 -0.0211,-37.31422 -0.7277,-1.35972 -3.5777,-3.20717 -6.33333,-4.10542 -8.84544,-2.88339 -26.06457,-11.58224 -35.97508,-18.17409 -19.2048,-12.77382 -27.84848,-21.10922 -47.30782,-45.62053 -5.41784,-6.8244 -6.30377,-7.36772 -16.39401,-10.05387 -14.20199,-3.78074 -23.56355,-8.24996 -38.0171,-18.1494 -17.53134,-12.00745 -29.16679,-25.88957 -40.01127,-47.73701 -13.06762,-26.32619 -18.638274,-59.77791 -18.638274,-111.92267 0,-23.62878 0.0502,-24.04772 3.72449,-31.08111 2.322052,-4.44492 5.877859,-8.64424 9.443253,-11.15225 l 5.718761,-4.02278 31.2747,-0.66666 c 25.84055,-0.55083 31.49391,-1.01418 32.53632,-2.66667 0.69391,-1.1 1.27084,-9.41831 1.28207,-18.48514 0.0236,-19.08096 1.9839,-24.4632 10.69246,-29.35768 l 5.02436,-2.82385 h 155.66109 c 155.10071,0 155.67716,0.01 160.12794,2.76067 8.42949,5.20971 9.4161,7.94977 10.16565,28.23221 0.41571,11.24921 1.2904,19.06502 2.26503,20.23938 1.26649,1.52601 7.32473,1.99964 29.93765,2.34045 l 28.34987,0.42729 5.55347,3.67806 c 3.05441,2.02292 7.2086,6.18473 9.23152,9.24845 l 3.67805,5.5704 -0.12093,37.41821 c -0.0903,27.91918 -0.69231,41.14151 -2.37151,52.08489 -9.4138,61.35017 -39.75787,100.86325 -88.99006,115.88 l -11.43709,3.48852 -8.69988,11.64908 c -18.8486,25.23813 -45.6259,45.50158 -76.1435,57.6208 -11.20156,4.44839 -11.87709,5.98763 -11.34713,25.85504 0.24392,9.14392 0.94141,17.12359 1.54999,17.7326 0.60858,0.60902 12.30858,1.4328 26,1.83064 23.63359,0.68675 25.27429,0.90755 32.41731,4.36259 8.36645,4.04681 16.71709,12.3164 21.32177,21.11485 2.49333,4.76416 3.13041,8.46204 3.5694,20.71849 0.52151,14.56029 0.45221,15.00141 -2.87971,18.33333 l -3.41412,3.41407 H 341.33334 213.21213 Z m 249.2987,-12.15584 c 4.53293,-4.53293 0.94443,-18.14192 -6.96192,-26.40223 -9.21533,-9.62789 -13.44638,-10.73269 -43.15222,-11.26785 -23.76424,-0.42812 -26.46973,-0.71472 -29,-3.07204 -2.67069,-2.48812 -2.79062,-3.87689 -2.79062,-32.31549 0,-34.2092 -0.3404,-33.24427 13.39692,-37.97568 29.53306,-10.17181 58.11024,-31.58311 77.26975,-57.89395 8.41666,-11.55822 10.75822,-13.23963 22.66666,-16.27634 20.1684,-5.14302 40.71971,-18.59864 53.75903,-35.1978 10.88051,-13.85099 20.60447,-35.88613 25.37583,-57.50339 6.94025,-31.44372 8.72209,-85.24829 3.10696,-93.81807 -5.02027,-7.6619 -6.99331,-8.11692 -38.8473,-8.95889 -16.16698,-0.42732 -30.36016,-1.20915 -31.5404,-1.73737 -4.01538,-1.79718 -5.07577,-6.79994 -5.46514,-25.78375 -0.3628,-17.68885 -0.5933,-19.16897 -3.42602,-22.00001 L 490.5926,118 H 340.66668 190.74075 l -3.03704,3.03302 c -2.79725,2.79355 -3.10112,4.5832 -3.84861,22.66666 -0.85893,20.77938 -1.39864,23.50898 -4.95819,25.0759 -1.22662,0.53997 -16.73714,1.33636 -34.4678,1.76976 -29.81416,0.72876 -32.5204,0.99559 -36,3.54944 -7.2418,5.31513 -8.42475,9.82083 -8.42703,32.09729 -0.0045,43.65027 6.26005,75.79703 20.35926,104.47461 6.02306,12.25081 8.4753,15.60294 19.62697,26.82953 11.35119,11.42744 14.27038,13.56878 26.71115,19.59367 7.68197,3.72028 17.84061,7.74539 22.57476,8.94469 12.58821,3.18899 15.06019,4.87968 22.80641,15.59832 19.17804,26.53714 43.65866,45.08638 76.96183,58.31487 6.07335,2.41243 11.62335,5.47163 12.33334,6.79826 0.72021,1.34572 1.29088,15.39544 1.29088,31.78106 0,37.7075 2.33469,34.80627 -28.00942,34.80627 -24.71997,0 -32.00047,1.3994 -40.92879,7.86704 -6.10164,4.42001 -11.09765,13.54489 -12.05205,22.01228 -1.23357,10.94427 -10.97084,10.12068 119.65692,10.12068 103.50362,0 116.03217,-0.22264 117.90477,-2.09524 z M 277.71624,347.12403 c -4.30195,-4.5614 -4.56656,-5.35711 -4.10131,-12.33334 0.27353,-4.10153 2.24281,-16.35751 4.37619,-27.23548 l 3.87886,-19.77813 -18.96236,-18.22187 -18.96234,-18.22187 0.0273,-7.48685 c 0.0309,-8.44814 2.78552,-13.21683 8.98217,-15.54946 2.04152,-0.76849 10.31186,-2.08418 18.37852,-2.92376 20.2471,-2.1073 31.02396,-4.0494 32.45692,-5.84908 0.6675,-0.8383 5.3133,-10.52418 10.32403,-21.52418 11.13433,-24.4431 13.7262,-27.33334 24.51157,-27.33334 9.70345,0 12.74319,2.75434 19.70525,17.85508 2.74152,5.94638 7.38856,15.61159 10.32674,21.47826 l 5.34216,10.66666 8,1.54859 c 4.4,0.85171 14.9,2.27419 23.33334,3.16105 23.32942,2.45336 28,5.55203 28,18.57642 v 7.35937 l -18.70951,18.01062 c -12.66216,12.18917 -18.69565,18.92102 -18.66667,20.82726 0.0236,1.54916 1.54284,10.18167 3.37618,19.18336 1.83333,9.0017 3.33333,20.43806 3.33333,25.41414 0,8.32516 -0.32751,9.37491 -4.10256,13.14997 -3.50821,3.50822 -5.08732,4.10256 -10.89992,4.10256 -6.06004,0 -9.01849,-1.24384 -27.27411,-11.467 -14.73152,-8.24967 -21.30632,-11.2542 -23.43341,-10.70853 -1.62618,0.41714 -11.4551,5.57729 -21.84207,11.467 -16.94461,9.60807 -19.60035,10.70853 -25.84256,10.70853 -6.28072,0 -7.40429,-0.47409 -11.55581,-4.87598 z m 33.42744,-22.45735 c 27.23957,-15.23376 27.29728,-15.23448 53.60433,-0.66667 16.89343,9.35492 23.252,12.11815 23.252,10.10453 0,-0.30917 -1.8,-9.1552 -4,-19.65782 -2.2,-10.50263 -4,-22.56242 -4,-26.79952 0,-7.51047 0.1757,-7.88056 7,-14.74526 3.85,-3.87278 12.37687,-11.99622 18.94859,-18.05209 7.95201,-7.32779 11.40788,-11.34484 10.332,-12.00976 -0.88913,-0.54952 -8.066,-1.73684 -15.9486,-2.63851 -30.79267,-3.52225 -33.9686,-4.26085 -38.43449,-8.93837 -2.27759,-2.38552 -7.95392,-12.81538 -12.76062,-23.44674 -4.7951,-10.60572 -9.44369,-19.1498 -10.41884,-19.1498 -2.11912,0 -1.70548,-0.73377 -13.206,23.42656 -5.81451,12.21511 -10.43781,20.20667 -12.45452,21.52807 -3.11937,2.04389 -10.29684,3.3494 -35.05752,6.37661 -15.10311,1.8465 -18,2.45592 -18,3.78674 0,0.58695 7.55323,7.90825 16.78496,16.26956 9.23172,8.36132 17.62105,16.81924 18.64296,18.79537 2.25713,4.36483 0.84568,21.4857 -3.38169,41.01948 -2.85267,13.1816 -3.20744,16.13095 -1.94032,16.13095 0.4249,0 9.8919,-5.1 21.03776,-11.33333 z m -148.96039,-8.69372 c -18.79201,-17.579 -28.82261,-49.14539 -28.84209,-90.7663 -0.0104,-22.20481 -1.16987,-21.21285 24.76379,-21.18624 10.94226,0.0107 20.65598,0.50341 21.58604,1.09375 3.67587,2.33314 4.30898,11.50857 4.30898,62.44847 0,57.96282 0.2355,56.43737 -8.71312,56.43737 -3.69027,0 -6.10196,-1.47737 -13.1036,-8.02705 z m 7.15005,-57.28974 c 0,-42.19116 0.20717,-41.34988 -10.18289,-41.34988 -9.74531,0 -11.15044,1.40471 -11.15044,11.14705 0,11.26746 4.53553,35.80305 8.83318,47.78443 4.1367,11.53263 9.60254,21.36863 11.29368,20.32346 0.67304,-0.41598 1.20647,-17.17528 1.20647,-37.90506 z m 328.57233,61.69863 c -2.0062,-2.0062 -2.18041,-4.22676 -1.42857,-18.20933 0.47093,-8.75848 0.85625,-33.23031 0.85625,-54.38184 0,-36.67957 0.1232,-38.58061 2.66667,-41.12401 2.4188,-2.4188 4.44444,-2.66666 21.79334,-2.66666 24.09577,0 23.53999,-0.42866 23.53999,18.15566 0,23.89045 -4.18849,50.03575 -10.76188,67.17767 -3.54943,9.25607 -13.19171,23.84566 -19.30991,29.21751 -5.47329,4.80561 -13.5312,5.65571 -17.35589,1.831 z m 20.27419,-34.83776 c 4.29216,-9.60521 8.03406,-24.0142 10.52673,-40.53531 2.62399,-17.39139 2.57725,-25.81997 -0.14896,-26.86612 -3.79804,-1.45745 -11.99373,-0.84903 -14.63611,1.08655 -2.45058,1.79508 -2.58817,3.79749 -2.58817,37.66667 0,19.67393 0.19145,36.23058 0.42547,36.79254 0.86637,2.08062 3.14141,-0.80501 6.42104,-8.14433 z"
         id="path502" />
      <path
         style="fill:#6a6a6a;stroke-width:1.33333"
         d="m 210.12437,562.79649 c -3.64143,-3.80083 -3.69967,-4.11751 -3.24946,-17.66667 0.37416,-11.26039 1.03016,-14.89939 3.56871,-19.79647 4.53861,-8.7554 14.49373,-18.48969 22.88972,-22.38197 6.72825,-3.11915 9.31357,-3.46368 31.33334,-4.17551 l 24,-0.77585 0.36778,-20.28128 0.36778,-20.28128 -3.96823,-2.05206 c -2.18253,-1.12862 -4.58301,-2.05205 -5.3344,-2.05205 -2.234,0 -18.82876,-7.88372 -27.43293,-13.03264 -18.69994,-11.19043 -38.19086,-29.01936 -51.71171,-47.30227 l -7.3198,-9.89785 -9.81759,-2.36027 c -20.13385,-4.84043 -42.56282,-18.02447 -57.09873,-33.5634 -29.473693,-31.50747 -41.365707,-72.80063 -41.380958,-143.68889 -0.0052,-23.97241 1.073376,-29.15194 7.676681,-36.86642 8.251447,-9.63996 9.232497,-9.87508 44.318767,-10.6216 L 168.66667,155.33334 169.33334,136 c 0.74844,-21.7048 1.69991,-24.33953 10.883,-30.13656 l 5.06401,-3.19677 h 154.75938 c 170.82762,0 158.26575,-0.65251 166.42903,8.64495 4.13596,4.7106 4.19906,4.99206 4.27476,19.06811 0.0423,7.85782 0.50126,16.68694 1.01998,19.62028 l 0.94313,5.33333 28.6467,0.68797 c 31.99417,0.76836 33.16398,1.06264 41.67516,10.48348 7.45005,8.24632 8.06425,12.44855 7.2343,49.49522 -1.58224,70.6276 -13.26417,106.05048 -45.11725,136.80807 -15.91592,15.36855 -32.72411,24.51872 -53.43024,29.0868 -2.49623,0.55071 -6.66963,4.61823 -13.45983,13.11833 -19.58501,24.51692 -40.32703,41.33656 -64.80728,52.55205 -7.02983,3.22066 -14.88151,6.88625 -17.44818,8.14574 l -4.66666,2.28998 -0.37194,18.48305 c -0.23382,11.61927 0.15338,19.11601 1.04263,20.18751 1.01832,1.227 8.21899,1.8694 25.70527,2.29328 28.18816,0.68332 33.07479,2.10049 44.06199,12.77845 10.84934,10.54401 14.17762,19.01989 14.20848,36.18379 0.0187,10.41709 -0.24807,11.54044 -3.56255,15 l -3.58279,3.73963 H 341.33334 213.83225 Z m 250.93477,-16.82547 c 0.67145,-11.45543 -6.39086,-23.09563 -17.59955,-29.00786 -4.92562,-2.5981 -8.15224,-2.94904 -32.99123,-3.58812 -24.61341,-0.63328 -27.82863,-0.97758 -30.33333,-3.24834 -2.684,-2.4333 -2.80168,-3.7659 -2.80168,-31.72727 0,-33.68481 -0.14314,-33.28224 13.41546,-37.73053 11.96684,-3.92607 31.96015,-14.54645 43.27802,-22.98915 13.62865,-10.16646 22.66904,-19.33236 33.99445,-34.46644 9.67314,-12.92616 9.16011,-12.5901 28.3526,-18.57223 26.77363,-8.34512 47.50887,-26.56054 60.68201,-53.30774 13.7145,-27.8464 19.53025,-60.32718 19.15404,-106.97477 -0.26499,-32.85514 -0.14179,-32.75575 -41.83705,-33.75224 -38.9868,-0.93178 -36.12038,1.19062 -37.03953,-27.42523 -0.63637,-19.81208 -0.80971,-20.87095 -3.81437,-23.3015 -3.0563,-2.47231 -7.49468,-2.54626 -152.82021,-2.54626 -146.80315,0 -149.73638,0.0503 -153.00578,2.62197 -3.24524,2.55271 -3.35,3.17128 -3.96528,23.41509 -0.87,28.62462 2.52004,26.28357 -39.42009,27.22218 -46.989217,1.0516 -45.009079,-0.96241 -43.92577,44.67728 0.76194,32.10034 2.4618,46.01592 8.06998,66.06348 13.03378,46.59178 39.11152,73.86342 81.68814,85.42797 12.19504,3.31238 13.24048,4.08288 22.58249,16.64324 19.34945,26.01538 42.09447,43.54409 71.08223,54.78028 20.21172,7.83444 18.86199,4.98348 18.86199,39.84096 0,28.34035 -0.11574,29.6658 -2.8015,32.10091 -2.4934,2.26065 -5.6827,2.61554 -29,3.22702 -23.57128,0.61814 -26.746,0.97796 -31.65808,3.58811 -6.48912,3.44816 -13.11088,10.65133 -15.8766,17.27065 -2.02776,4.85311 -2.73713,16.60311 -1.10115,18.23911 0.49282,0.4928 54.34282,0.7428 119.66668,0.55555 l 118.77065,-0.34045 z M 278.15516,346.66284 c -3.07688,-3.40575 -4.82123,-6.66268 -4.82018,-9 9e-4,-2.01456 2.13184,-14.15336 4.73543,-26.97512 l 4.7338,-23.31228 -19.40211,-18.47023 -19.40209,-18.47024 v -6.95592 c 0,-6.16018 0.51859,-7.45856 4.53316,-11.34964 4.86961,-4.71982 3.25807,-4.36998 37.46684,-8.13344 19.52029,-2.14752 16.60291,0.50041 28.64137,-25.99596 1.99911,-4.4 4.90754,-10.78398 6.46318,-14.1866 4.20565,-9.19903 9.5665,-13.14674 17.85281,-13.14674 5.91102,0 7.25022,0.54016 10.74343,4.33334 2.19487,2.38333 8.26523,13.63333 13.48971,25 l 9.49904,20.66666 7.32189,1.55528 c 4.02705,0.85542 13.92191,2.2364 21.98857,3.06888 20.28239,2.09312 21.59522,2.43524 26.76571,6.97499 4.07152,3.57484 4.57283,4.75573 4.61548,10.87231 l 0.0479,6.86188 -19.52758,18.68668 -19.52757,18.68669 4.14639,20.54511 c 2.2805,11.29981 4.14637,23.8008 4.14637,27.77999 0,6.45011 -0.49172,7.72659 -4.53333,11.7682 -7.66428,7.66428 -12.01975,6.79551 -37.70856,-7.52162 l -21.62987,-12.05496 -6.39746,3.26456 c -3.5186,1.79551 -13.29745,7.21703 -21.73078,12.04783 -12.81815,7.34251 -16.34676,8.78443 -21.51152,8.79039 -5.5207,0.007 -6.69132,-0.56085 -11,-5.33004 z m 34.07766,-21.99616 c 27.9384,-15.57562 24.39259,-15.84012 60.93979,4.54573 8.64806,4.82384 12.93316,6.54851 13.89088,5.59079 0.95772,-0.95772 0.0819,-7.7043 -2.83926,-21.87016 -2.32332,-11.26687 -4.22422,-23.08596 -4.22422,-26.26467 0,-6.30989 0.88116,-7.34349 27.10562,-31.79488 5.74142,-5.35324 10.15457,-10.47427 9.80698,-11.38006 -0.37852,-0.98641 -5.9018,-2.29498 -13.77229,-3.2629 -34.49125,-4.24179 -35.63929,-4.47611 -39.66348,-8.09539 -3.33512,-2.99956 -11.75631,-19.04429 -20.21973,-38.52435 -3.84883,-8.85872 -6.33235,-7.30549 -13.41385,8.38922 -10.23617,22.68641 -12.72104,27.27393 -16.49164,30.44668 -3.74649,3.15246 -7.4142,3.87122 -39.68494,7.77713 -10.7523,1.3014 -13.66015,2.09365 -13.6361,3.71516 0.0168,1.13356 8.11682,9.44646 18,18.47307 l 17.96943,16.41205 v 9.42043 c 0,8.21583 -5.53944,40.85289 -7.46184,43.9634 -0.85497,1.38339 0.51651,3.79208 2.15915,3.79208 0.66362,0 10.35461,-5.1 21.5355,-11.33333 z m -144.83924,-4.61879 c -17.08065,-13.574 -27.37814,-35.09764 -31.99987,-66.88567 -2.77315,-19.07355 -2.76551,-42.2288 0.0152,-46.19887 1.99097,-2.8425 2.90684,-2.96334 22.46003,-2.96334 19.02568,0 20.55371,0.18697 22.92439,2.80498 2.39578,2.64575 2.56356,5.90863 2.95532,57.47109 0.38092,50.1375 0.22573,54.87558 -1.87332,57.19501 -3.30587,3.65293 -8.76999,3.11595 -14.48178,-1.4232 z m 1.62627,-62.38121 -0.35318,-39.66667 -9.12001,-0.39699 c -5.14785,-0.22408 -9.87079,0.22609 -10.84377,1.0336 -2.07739,1.72408 -1.54076,13.10132 1.54037,32.65764 2.41784,15.34639 5.64111,25.93983 11.47272,37.70575 7.3,14.72855 7.69875,13.01792 7.30387,-31.33333 z m 329.47675,62.79376 c -1.50221,-1.81115 -1.74598,-11.89952 -1.36121,-56.33334 0.45525,-52.57187 0.54812,-54.21329 3.23243,-57.12709 2.61002,-2.83319 3.78872,-3 21.19794,-3 23.57277,0 23.76759,0.13977 23.76759,17.05068 0,13.91672 -2.99754,39.44847 -6.06958,51.69787 -4.75506,18.96026 -10.94053,30.8399 -22.32565,42.878 -5.72302,6.05125 -7.35729,7.04012 -11.63492,7.04012 -3.0043,0 -5.7019,-0.87439 -6.8066,-2.20624 z m 19.51687,-33.47935 c 1.29872,-3.47293 2.80713,-6.91441 3.35204,-7.64775 3.4514,-4.64485 9.85493,-43.18561 9.08284,-54.66667 l -0.44833,-6.66666 -8.25348,-0.39488 c -6.97904,-0.33391 -8.46234,-0.004 -9.60602,2.13233 -0.85473,1.59709 -1.17741,15.97328 -0.87673,39.06155 0.26168,20.09388 0.53437,36.7578 0.606,37.03092 0.46461,1.77172 4.16536,-3.55853 6.14368,-8.84884 z"
         id="path500" />
      <path
         style="fill:#545454;stroke-width:1.33333"
         d="m 213.35962,564.96505 c -4.88376,-2.48724 -6.65131,-7.18154 -6.67329,-17.72303 -0.0311,-14.89479 2.70245,-21.83738 12.8215,-32.56411 12.45579,-13.2038 17.27967,-14.85144 46.49218,-15.87989 l 22.66667,-0.798 0.36985,-19.81939 c 0.24308,-13.02604 -0.13485,-20.42751 -1.10261,-21.59359 -0.80986,-0.97581 -4.5763,-2.7906 -8.36986,-4.03286 -19.77588,-6.47588 -41.00072,-20.54475 -60.23072,-39.92383 -8.06667,-8.12922 -16.76499,-17.88935 -19.32959,-21.68919 -5.19941,-7.70367 -4.48588,-7.27937 -19.73253,-11.73368 -20.89963,-6.10581 -37.35287,-16.28113 -53.05473,-32.81111 -5.1912,-5.46499 -11.39766,-12.78383 -13.79215,-16.26409 -10.06368,-14.62706 -19.530101,-40.61235 -23.36334,-64.13227 -4.874637,-29.90972 -6.328266,-76.12619 -2.771116,-88.10442 2.147219,-7.23046 10.426367,-16.49052 17.376786,-19.43557 2.63529,-1.11663 14.23533,-1.93913 34,-2.41079 l 30,-0.71589 0.66667,-18.727 c 0.73909,-20.76162 1.46095,-22.85019 10.20184,-29.51756 l 4.92337,-3.75544 152.77074,-0.39528 c 100.79108,-0.26079 154.36695,0.0662 157.4621,0.96105 2.58025,0.74599 7.07191,3.79422 9.98145,6.77386 l 5.29007,5.41753 0.91241,19.62142 c 0.50182,10.79178 0.96018,19.77142 1.01855,19.95475 0.0584,0.18334 10.87661,0.33334 24.04052,0.33334 30.38203,0 35.85426,1.1149 44.3147,9.02866 10.03778,9.38918 10.9749,14.15366 10.02504,50.96878 -0.82152,31.8402 -2.99466,50.2472 -8.31335,70.41616 -7.74491,29.36931 -15.79541,43.68731 -35.82756,63.72002 -18.2957,18.29621 -30.35006,25.30109 -53.61662,31.15702 -4.5896,1.15516 -6.6978,2.96563 -12.93366,11.1071 -9.41551,12.29278 -32.44835,34.74113 -42.91626,41.8272 -8.73569,5.91348 -25.71368,14.68871 -35.60139,18.40091 -10.36578,3.89169 -10.5262,4.30749 -10.10302,26.18752 l 0.37108,19.18664 24,0.78938 c 30.60617,1.00667 35.22555,2.53188 47.69191,15.74688 7.3237,7.76352 8.92316,10.36711 10.93525,17.80038 3.26505,12.06205 2.461,26.50101 -1.70789,30.67031 l -2.99279,2.99305 -126.29658,0.32464 c -99.62443,0.25607 -126.99498,-0.0311 -129.60363,-1.35961 z m 247.687,-20.29836 c 0.3343,-7.03931 -0.14604,-8.87489 -4,-15.28546 -2.9544,-4.91425 -6.51442,-8.60292 -10.93808,-11.33333 l -6.55816,-4.04788 -27.89331,-0.66667 -27.89331,-0.66667 -3.28871,-3.82646 -3.28869,-3.82646 0.40683,-27.95816 0.40682,-27.95816 3.58486,-3.08105 c 1.97166,-1.69457 6.77166,-4.12604 10.66666,-5.40324 18.02356,-5.91011 43.65743,-21.65503 58.17682,-35.73356 3.90224,-3.78376 10.44705,-11.37958 14.54401,-16.87958 12.24691,-16.44093 12.49404,-16.6271 29.27271,-22.05076 11.65292,-3.76677 18.05189,-6.79345 26.85948,-12.7044 14.73852,-9.89133 15.98002,-11.01334 24.19442,-21.86608 13.28597,-17.5532 23.40666,-42.87936 27.26916,-68.23873 4.77934,-31.37903 5.16109,-78.43166 0.69345,-85.47375 -3.78492,-5.96596 -8.6436,-6.99382 -33.46307,-7.0791 -41.99317,-0.14429 -41.52449,0.16276 -42.46516,-27.82036 -0.57321,-17.052 -1.02273,-20.22472 -3.20665,-22.6328 l -2.53999,-2.80069 H 340.71144 c -146.59558,0 -150.95271,0.0721 -153.60533,2.54343 -2.43838,2.2717 -2.79956,4.59074 -3.38061,21.70623 -0.36785,10.83529 -1.33197,20.43602 -2.21859,22.09267 -2.97489,5.55866 -6.15398,6.11523 -39.50691,6.91664 -34.36865,0.82583 -35.66285,1.09122 -39.84468,8.17048 -4.208618,7.12463 -2.515819,65.1273 2.63316,90.22378 4.63825,22.60713 14.39857,45.2654 26.36873,61.21415 11.96954,15.94792 34.12129,30.06243 57.50946,36.64348 11.71355,3.29601 16.27146,6.62923 24.37079,17.82248 9.29387,12.84411 17.88284,21.95473 27.57337,29.24803 14.9331,11.23897 29.64121,19.70868 42.79734,24.64497 7.26847,2.72719 13.35699,5.97287 15.59184,8.31175 l 3.66667,3.83732 v 27.23795 c 0,26.86325 -0.0443,27.28941 -3.215,30.97897 l -3.21499,3.74101 -26.56264,0.66667 -26.56264,0.66667 -6.5557,4.04788 c -9.28736,5.73457 -15.22237,15.87329 -15.22237,26.00425 0,4.12688 0.4032,7.90663 0.89601,8.39944 0.49282,0.4928 54.34282,0.7428 119.66668,0.55555 l 118.77065,-0.34045 z M 280.75201,347.89608 c -7.96233,-6.99102 -8.0456,-8.046 -2.71271,-34.36607 2.61764,-12.91913 4.437,-24.77364 4.04304,-26.34335 -0.39397,-1.5697 -8.44796,-9.87408 -17.89776,-18.45416 -9.44978,-8.58008 -17.85714,-17.08316 -18.68301,-18.89572 -2.82468,-6.19951 -1.82828,-10.92568 3.49844,-16.59408 5.47448,-5.82563 3.28476,-5.31169 39,-9.15356 6.23333,-0.67051 12.41503,-1.64123 13.73709,-2.15713 2.44254,-0.95315 8.87786,-12.95219 16.92083,-31.54987 2.47043,-5.71235 6.45776,-12.23271 8.96899,-14.66667 3.85596,-3.73734 5.47836,-4.38213 11.02626,-4.38213 9.42181,0 12.48473,3.60707 23.31481,27.45688 5.59834,12.32859 10.27978,20.85095 12.11376,22.05261 1.64404,1.07723 8.29821,2.51588 14.78705,3.19704 21.72901,2.28098 32.51485,3.89323 35.02213,5.23508 5.0393,2.69696 9.44176,9.44014 9.46282,14.49403 0.0191,4.56362 -1.29978,6.17748 -19.33334,23.6594 -12.35352,11.97564 -19.35373,19.7372 -19.35373,21.45866 0,1.4833 1.83661,11.64053 4.08137,22.57161 4.89487,23.83619 4.68122,29.72749 -1.29484,35.70355 -7.19838,7.19839 -11.88981,6.22445 -36.66241,-7.61111 -13.38104,-7.47333 -22.03071,-11.53785 -23.65162,-11.11397 -1.4055,0.36754 -11.22577,5.57517 -21.82282,11.5725 -23.3531,13.21654 -27.43339,14.14753 -34.56435,7.88646 z m 30.12659,-21.88442 c 11.1694,-6.22693 22.25192,-11.68637 24.6278,-12.13209 5.58917,-1.04853 10.84099,0.7574 23.87611,8.21024 20.16792,11.531 25.83834,14.23867 28.04524,13.39181 1.57221,-0.60332 1.95345,-1.77608 1.3539,-4.16488 -4.13828,-16.48821 -8.87376,-43.23281 -8.24546,-46.5679 0.57317,-3.04242 5.61198,-8.72168 19.7831,-22.29758 12.63647,-12.10572 18.56684,-18.65971 17.68072,-19.54003 -0.73333,-0.72852 -7.03333,-2.0221 -14,-2.87461 -34.01073,-4.16188 -37.75038,-5.00964 -41.48745,-9.40488 -1.91809,-2.25591 -7.27887,-12.32092 -11.91281,-22.36669 -9.64465,-20.90828 -10.90461,-22.77846 -13.75331,-20.41423 -1.07475,0.89196 -5.70119,9.96608 -10.28099,20.16472 -5.27443,11.74549 -9.8962,20.064 -12.60784,22.69223 -4.56365,4.42326 -2.77893,4.01954 -42.51463,9.61721 -6.57957,0.92688 -12.12421,2.37852 -12.41392,3.25009 -0.28794,0.8663 3.86272,5.65838 9.22371,10.64907 5.36097,4.99071 13.79724,13.02848 18.74724,17.86172 8.89457,8.68476 9,8.87128 9,15.92103 0,3.92332 -1.82521,16.04328 -4.05601,26.93324 -3.5598,17.37756 -3.98835,22.39321 -1.91335,22.39321 0.29696,0 9.67853,-5.09476 20.84795,-11.32168 z m -138.70825,-3.44682 c -4.65941,-1.86518 -18.04309,-16.27579 -22.57689,-24.30924 -9.50752,-16.84642 -16.99592,-52.67175 -16.06612,-76.86219 0.65762,-17.10934 1.05732,-17.3934 24.47267,-17.3934 20.64017,0 22.85305,0.95858 24.73552,10.71505 0.63158,3.27339 1.17448,27.72888 1.20641,54.34555 l 0.0581,48.39395 -3.27273,3.27272 c -3.59704,3.59705 -3.96441,3.67594 -8.55692,1.83756 z m -3.1508,-64.2315 -0.35288,-40.33333 -9.45841,-0.38755 c -6.70003,-0.27452 -9.89348,0.13668 -10.95024,1.40999 -1.86988,2.25308 -0.0877,26.20663 3.09823,41.64423 3.22301,15.6168 13.02669,38 16.6437,38 0.91863,0 1.25579,-13.33782 1.0196,-40.33334 z m 330.06807,60.87548 c -3.29764,-3.29764 -3.41838,-3.92472 -2.60606,-13.5345 0.46848,-5.54215 0.85179,-28.93228 0.85179,-51.97804 v -41.90141 l 4.00333,-4.00332 4.00332,-4.00333 17.2862,0.43923 c 14.17542,0.36018 17.69814,0.85186 19.57534,2.73217 3.1616,3.16685 3.82368,15.17557 1.8438,33.44212 -4.22607,38.98995 -12.46248,60.474 -29.11015,75.9316 -7.76591,7.21076 -10.93692,7.78614 -15.84757,2.87548 z m 17.2884,-27.54214 c 9.27532,-19.96502 13.47978,-38.69482 14.59117,-65.00001 l 0.36616,-8.66666 -8.44975,-0.39998 c -5.22704,-0.24742 -9.19305,0.21691 -10.39866,1.21748 -1.64326,1.36378 -1.88734,7.54338 -1.55626,39.39998 0.40603,39.06848 1.03694,42.94251 5.44734,33.44919 z"
         id="path498" />
      <path
         style="fill:#2c2c2c;stroke-width:1.33333"
         d="m 210.77443,562.11471 c -2.81281,-2.99409 -2.9918,-4.18005 -2.56576,-17 0.37383,-11.24845 1.02995,-14.88412 3.56992,-19.78136 4.53178,-8.73756 13.17112,-17.16915 21.55475,-21.03641 6.69312,-3.08746 9.40397,-3.45179 31.05138,-4.17319 19.01684,-0.63373 23.9681,-1.18683 24.97958,-2.7904 1.95395,-3.09772 1.6421,-37.69627 -0.36429,-40.41724 -0.91667,-1.24315 -5.60955,-3.68701 -10.42863,-5.43084 -28.40468,-10.27845 -56.66033,-31.95294 -76.3322,-58.55327 -7.44576,-10.06815 -9.26383,-11.27604 -21.57251,-14.33248 -10.06246,-2.49867 -24.76217,-9.5842 -35.99897,-17.3522 C 115.94808,341.39347 97.36009,308.2771 90.831818,265.33334 86.610919,237.56775 85.170586,187.30287 88.296863,176.86829 90.474727,169.59923 99.225603,160.67447 106,158.81339 c 3.07286,-0.84417 17.01919,-1.46833 32.90476,-1.47261 23.28038,-0.007 27.89753,-0.33353 29.66667,-2.10268 1.68176,-1.68176 2.09524,-5.39149 2.09524,-18.7985 0,-19.44158 1.54596,-24.19031 9.5124,-29.2193 L 185.28035,104 h 154.75938 c 167.97985,0 158.04541,-0.43939 165.29362,7.31084 3.14033,3.35783 3.37992,4.67531 4.13791,22.75459 0.495,11.80653 1.4193,19.9311 2.40224,21.11546 1.27717,1.5389 7.26752,2.0168 29.86209,2.38237 31.3441,0.50712 32.95626,0.89095 40.67707,9.68447 6.69395,7.62398 7.33136,12.39249 6.5168,48.75228 -1.58483,70.74301 -13.45717,106.63116 -45.27315,136.85323 -12.22443,11.61201 -24.67725,19.13065 -39.65629,23.94331 -6.23334,2.00272 -12.83334,4.15446 -14.66667,4.78166 -1.87579,0.64174 -6.76244,5.78404 -11.17551,11.76018 -19.05656,25.80626 -45.88089,46.17091 -77.20375,58.61193 -11.12577,4.41903 -11.6244,5.53716 -11.60033,26.01304 0.0107,9.5535 0.58808,18.26999 1.28187,19.36999 1.01708,1.61255 6.11458,2.15463 26.31292,2.7982 28.67981,0.91381 33.92163,2.37151 44.15841,12.28001 10.15852,9.83276 13.50935,18.66535 13.53948,35.68938 0.0181,10.24227 -0.30145,11.73645 -3.06569,14.33333 l -3.08593,2.89908 H 341.14649 213.79818 Z m 249.79701,-9.54326 c 5.09954,-5.09954 1.15926,-20.26191 -7.71516,-29.68827 -8.71666,-9.2588 -11.8246,-10.05492 -42.32355,-10.84147 -20.47905,-0.52813 -28.02685,-1.17393 -29.66666,-2.53828 -1.92084,-1.59817 -2.19939,-5.52424 -2.19939,-31 0,-33.43551 -0.33565,-32.4282 12.17288,-36.53133 11.84863,-3.88669 31.88453,-14.52885 43.18727,-22.93913 13.68295,-10.18138 24.03247,-20.63444 34.79139,-35.13941 5.17662,-6.97904 10.05488,-12.14051 12.23002,-12.94004 1.99014,-0.73155 8.88668,-2.97215 15.32564,-4.97911 42.79838,-13.33989 70.11355,-51.72597 78.25674,-109.9744 4.14895,-29.67756 3.969,-71.16726 -0.33719,-77.73932 -5.11522,-7.80683 -6.85618,-8.1975 -40.06651,-8.99091 -38.17973,-0.91213 -35.56024,0.91597 -35.56024,-24.81703 0,-18.93149 -1.29329,-24.24367 -6.59281,-27.07989 C 490.35824,116.45468 439.98763,116 339.9851,116 H 190.46154 l -3.70685,3.70686 c -3.66048,3.66049 -3.71504,3.96177 -4.36088,24.08249 -0.52832,16.4593 -1.07246,20.79407 -2.83099,22.5526 -1.8534,1.8534 -7.09512,2.28704 -35.26602,2.91751 -36.50965,0.81711 -37.58169,1.06107 -43.12085,9.81299 -2.561401,4.04704 -2.664336,5.8335 -2.05092,35.59422 0.676603,32.82625 2.28922,46.27573 7.99347,66.66667 13.09782,46.82071 40.15708,75.10079 83.02147,86.7671 5.78968,1.57576 11.37777,3.5478 12.41794,4.38231 1.04019,0.83449 5.08187,5.82408 8.98152,11.08796 19.54595,26.38382 43.14638,44.65625 72.26526,55.95076 7.07409,2.74387 13.91199,5.86703 15.19532,6.94035 2.09405,1.75138 2.33333,4.99894 2.33333,31.66924 0,29.19798 -0.0519,29.75405 -2.96334,31.79336 -2.3997,1.68081 -7.40843,2.08673 -26.33334,2.13412 -25.10326,0.0629 -29.47677,0.88081 -38.63136,7.22494 -6.86809,4.75959 -13.40529,17.01994 -13.40529,25.14127 0,11.11659 -10.36176,10.24194 121.33333,10.24194 104.71574,0 117.36514,-0.22228 119.2381,-2.09524 z M 278.8048,345.95361 c -2.45719,-2.79857 -4.13751,-6.18364 -4.13662,-8.33333 8.3e-4,-1.99115 2.05622,-13.73744 4.56754,-26.10287 2.51133,-12.36543 4.27665,-23.23675 3.92293,-24.15849 -0.35371,-0.92176 -9.00909,-9.60175 -19.2342,-19.28887 L 245.33334,250.4571 v -6.97909 c 0,-5.96568 0.56327,-7.51874 3.87904,-10.69544 4.09758,-3.92574 4.10975,-3.92818 37.01151,-7.43655 6.72315,-0.71689 13.71175,-1.98136 15.53023,-2.80992 3.14746,-1.43408 9.2392,-12.81333 19.96761,-37.2992 4.31661,-9.85196 8.72943,-13.23689 17.25648,-13.23689 9.08616,0 11.59896,3.06584 22.85922,27.89024 10.17597,22.43398 11.06569,23.36682 23.62074,24.76582 37.46002,4.17415 37.82216,4.24386 42.50259,8.18218 3.55895,2.99465 4.03925,4.23712 4.03925,10.44862 v 7.04982 l -18.05714,17.02611 c -9.93144,9.36434 -18.62348,18.08428 -19.31566,19.37761 -0.86669,1.61944 -0.0187,8.47284 2.72382,22.01359 2.19028,10.81413 3.98232,22.9146 3.98232,26.88993 0,6.21092 -0.54836,7.77624 -3.89744,11.12531 -6.8638,6.8638 -12.02142,5.78959 -35.70166,-7.4359 -11.1608,-6.23333 -21.67745,-11.33333 -23.37035,-11.33333 -1.69289,0 -12.06732,5.08968 -23.05428,11.3104 -17.06828,9.66391 -20.87813,11.31374 -26.17149,11.33334 -5.43601,0.0201 -6.70231,-0.55463 -10.33333,-4.69014 z m 33.42802,-19.9536 c 27.99126,-15.60508 24.658,-15.84591 60.7245,4.38736 12.255,6.87505 16.37603,7.60681 16.37603,2.90785 0,-1.33072 -1.8,-11.01254 -4,-21.51517 -2.2,-10.50263 -4,-21.74567 -4,-24.98453 0,-6.47947 0.79189,-7.41372 26.33333,-31.06714 6.05,-5.60278 11,-11.09328 11,-12.20111 0,-2.46224 -1.61915,-2.93994 -16,-4.72049 -35.0792,-4.34329 -35.84781,-4.502 -39.31145,-8.11727 -1.82326,-1.90306 -7.47956,-12.43673 -12.56959,-23.40814 -12.01831,-25.90516 -12.44816,-26.03216 -21.59595,-6.38015 -16.03652,34.45097 -14.40259,32.67201 -32.109,34.95919 -40.59631,5.2439 -38.41483,4.79546 -38.41189,7.89612 0.001,1.23391 8.10116,9.63589 18,18.67107 l 17.99788,16.4276 v 9.40488 c 0,8.03282 -5.52572,40.81514 -7.38747,43.82753 -1.03372,1.67259 0.884,5.24573 2.8154,5.24573 0.99512,0 10.95732,-5.1 22.13821,-11.33333 z m -144.44388,-7 c -16.50703,-13.22173 -26.48764,-34.37632 -31.0619,-65.83779 -2.35094,-16.16964 -2.73045,-41.4188 -0.68013,-45.24987 1.27253,-2.37776 2.97661,-2.57901 21.83675,-2.57901 17.39445,0 20.73041,0.32977 22.28643,2.20309 2.50602,3.01708 3.53082,110.2775 1.0818,113.22839 -2.4974,3.00919 -8.48219,2.22467 -13.46295,-1.76481 z m 2.56436,-59.90259 c 0.40891,-44.98561 0.91393,-43.09741 -11.52703,-43.09741 -11.39364,0 -12.83373,1.57206 -12.39696,13.53306 0.78992,21.63189 6.01796,43.47873 14.37667,60.0769 3.37603,6.70389 5.26965,9.10941 6.92085,8.79177 2.07027,-0.39825 2.30471,-3.90672 2.62647,-39.30432 z m 328.72541,60.56926 c -0.59328,-0.91667 -0.86579,-25.96667 -0.60557,-55.66667 0.40677,-46.42759 0.76296,-54.3272 2.53998,-56.33334 1.77979,-2.00924 4.61764,-2.33333 20.43164,-2.33333 14.91748,0 18.75809,0.39331 20.46002,2.09524 2.73843,2.73841 2.80384,19.62725 0.15863,40.95082 -4.0814,32.90093 -10.98613,50.74325 -25.74154,66.51797 -5.15351,5.50951 -6.75024,6.43597 -11.09228,6.43597 -2.78971,0 -5.5576,-0.75 -6.15088,-1.66666 z m 15.93855,-24.66667 c 2.60456,-2.8978 9.83048,-20.93639 11.76921,-29.38035 2.72132,-11.8524 5.16572,-30.28971 5.18963,-39.14367 0.0272,-10.05865 -0.391,-10.47598 -10.49696,-10.47598 -11.83907,0 -11.46214,-1.30712 -11.60055,40.22837 -0.122,36.62888 0.0963,41.10496 2.00463,41.10496 0.57025,0 1.98057,-1.05 3.13404,-2.33333 z"
         id="path496" />
      <path
         style="fill:#040404;stroke-width:1.33333"
         d="m 211.53999,561.5617 c -1.74608,-1.9294 -2.20054,-5.19932 -2.17737,-15.66667 0.0351,-15.85981 2.293,-21.97397 11.70669,-31.70063 10.26096,-10.60208 14.3449,-11.82537 42.53279,-12.74013 17.21086,-0.55853 24.77226,-1.2906 26,-2.51723 1.92735,-1.92556 3.25174,-30.63432 1.7761,-38.5002 -0.91738,-4.88998 -0.36635,-4.53354 -19.37819,-12.53481 -26.09356,-10.98167 -51.29632,-31.33562 -69.82707,-56.39291 -6.23825,-8.43539 -8.29944,-10.27829 -12.80404,-11.44815 -2.95289,-0.76685 -7.91889,-2.05712 -11.03556,-2.86722 -15.88425,-4.1288 -37.29499,-17.46791 -50.22629,-31.29151 -29.054275,-31.05911 -40.107047,-70.33168 -40.107047,-142.50785 0,-25.58242 0.921072,-30.00789 7.737398,-37.1758 6.361609,-6.68972 7.217219,-6.84913 40.532579,-7.55192 23.38693,-0.49334 32.05309,-1.11652 33.33333,-2.39697 1.18458,-1.18476 1.94022,-7.70064 2.3967,-20.66667 0.72734,-20.66 1.5939,-23.50818 8.41842,-27.66939 4.14262,-2.52593 8.13515,-2.59046 160.57774,-2.59532 l 156.3295,-0.005 5.15019,4.65288 5.15018,4.65289 0.77182,18.34711 c 0.89041,21.16671 1.46538,23.81891 5.39209,24.87231 1.5822,0.42445 13.97673,0.78326 27.5434,0.79737 13.56667,0.0141 26.84903,0.63183 29.51638,1.37272 6.44198,1.78935 15.35528,11.48785 16.58576,18.04688 1.59682,8.5118 -0.37188,72.05075 -2.70362,87.25784 -4.15778,27.1162 -13.19122,51.62928 -25.25754,68.53871 -3.25482,4.56123 -10.99975,13.10358 -17.21096,18.983 -12.83679,12.1511 -25.74943,19.564 -43.59669,25.02804 -6.23333,1.90838 -11.93333,3.91539 -12.66666,4.46002 -0.73334,0.54462 -4.77582,5.54744 -8.98328,11.11736 -4.20747,5.56992 -12.92484,15.21213 -19.37194,21.42714 -17.54561,16.91403 -28.99021,24.16406 -59.31745,37.57697 -5.36828,2.37424 -8.07132,4.44192 -9,6.88456 -2.60675,6.85626 -1.22984,38.04154 1.8031,40.83796 0.1116,0.10293 11.9029,0.60905 26.2029,1.12481 29.78681,1.07431 32.86759,1.91785 43.10769,11.80343 10.10244,9.75264 12.00142,14.45109 12.6429,31.28099 0.47213,12.38688 0.21982,14.75974 -1.80759,17 C 468.97032,563.94445 466.19802,564 341.33334,564 c -121.9106,0 -127.68487,-0.10853 -129.79335,-2.43832 z m 247.63484,-6.83475 c 7.69687,-2.92633 5.23568,-20.00757 -4.47187,-31.03593 -3.10205,-3.52412 -8.16876,-7.28114 -12.31937,-9.13494 -6.46726,-2.88848 -9.2002,-3.18961 -33.05024,-3.64158 -15.11286,-0.2864 -26.6979,-1.06812 -27.66667,-1.86687 -2.51528,-2.0738 -2.37988,-60.12919 0.14513,-62.22475 0.99648,-0.82701 5.04648,-2.61805 9,-3.98009 12.31222,-4.24175 33.44031,-15.54354 44.54835,-23.82971 13.6682,-10.19595 22.67132,-19.3354 34.12767,-34.64445 8.85903,-11.83826 9.4946,-12.38096 16.85913,-14.39536 26.86592,-7.34856 46.19263,-19.51432 60.13495,-37.8537 11.43804,-15.04531 21.21214,-37.15628 25.9863,-58.78623 7.194,-32.59337 8.70106,-84.51896 2.74884,-94.71059 -5.30512,-9.08361 -8.39352,-9.8771 -41.34578,-10.62274 -22.22284,-0.50286 -30.00376,-1.11631 -31.66667,-2.49659 -1.83792,-1.52559 -2.2171,-4.74108 -2.27984,-19.33334 -0.09,-20.92666 -1.45034,-25.93368 -7.92474,-29.168 -4.35772,-2.17693 -14.35722,-2.3314 -151.04284,-2.33334 -154.91411,-0.002 -151.88583,-0.11787 -156.95717,5.996 -1.50208,1.81087 -2.18736,7.51012 -2.75258,22.89244 -0.49396,13.44352 -1.31274,21.04148 -2.38281,22.11155 -1.1546,1.1546 -11.04968,1.82978 -33.91411,2.3141 -37.07448,0.78532 -39.15149,1.34479 -44.72675,12.04768 -3.046494,5.84839 -3.095858,6.55111 -2.433062,34.63616 1.106429,46.88349 8.124162,76.65027 24.804042,105.21018 13.42992,22.9952 39.06793,41.73412 66.7386,48.7795 11.51619,2.93218 13.42063,4.33488 22.25445,16.39118 18.54954,25.3162 43.08887,43.84719 74.66634,56.38463 5.72691,2.2738 11.16255,4.75522 12.07921,5.51427 2.33275,1.93167 2.39484,59.79208 0.0667,62.12025 -1.11567,1.11567 -8.48149,1.61318 -24.33333,1.64354 -24.47935,0.0468 -31.58778,1.42026 -41.10542,7.94186 -12.24953,8.39351 -18.84143,32.3941 -9.88767,36.00027 4.04572,1.62944 231.8224,1.70142 236.10124,0.0745 z M 279.5828,345.59372 c -4.66875,-4.87312 -4.61748,-8.92115 0.43322,-34.20136 2.1912,-10.96754 3.98399,-21.20666 3.98399,-22.75358 0,-1.8852 -6.15503,-8.6438 -18.66667,-20.49714 L 246.66668,250.4571 v -7.11003 c 0,-6.15858 0.50202,-7.53245 3.75164,-10.26681 3.14216,-2.64395 6.33717,-3.42991 19.66666,-4.83793 20.82295,-2.19956 31.99131,-4.16206 34.41674,-6.04767 1.08098,-0.84039 6.19522,-10.77325 11.365,-22.07303 11.66042,-25.4867 12.77622,-26.78829 22.96452,-26.78829 7.14099,0 7.93215,0.31445 10.90259,4.33333 1.76157,2.38334 7.03553,12.72676 11.71992,22.9854 4.68437,10.25863 9.50728,19.64228 10.71756,20.85256 2.30749,2.3075 10.10445,3.81486 36.29589,7.01696 19.53817,2.3887 22.19948,4.17079 22.19948,14.8654 v 6.92217 l -18.66667,17.64369 c -15.24137,14.40612 -18.66666,18.31989 -18.66666,21.32873 0,2.02678 1.5,11.05007 3.33333,20.05176 1.83333,9.0017 3.33333,20.37962 3.33333,25.28427 0,11.43482 -2.82092,14.71574 -12.65252,14.71574 -5.66232,0 -9.06632,-1.44798 -26.9574,-11.46701 -14.73152,-8.24966 -21.30632,-11.2542 -23.43341,-10.70853 -1.62618,0.41715 -11.4551,5.57729 -21.84207,11.467 -16.51037,9.36184 -19.70683,10.70854 -25.4172,10.70854 -5.41601,0 -7.14385,-0.63883 -10.11461,-3.73963 z m 31.56088,-18.26038 c 27.23957,-15.23376 27.29728,-15.23448 53.60433,-0.66666 19.03016,10.53816 24.03958,12.30698 25.33006,8.94405 0.36357,-0.94744 -1.15527,-10.39345 -3.37518,-20.99116 -2.21992,-10.59769 -4.03621,-22.64676 -4.03621,-26.77569 v -7.50716 l 17.66667,-16.41118 c 18.32845,-17.0259 21.08972,-20.36915 18.75325,-22.70561 -0.74785,-0.74786 -8.19828,-2.23738 -16.55649,-3.31003 -33.34947,-4.27993 -35.00458,-4.62991 -38.78455,-8.20125 -1.99351,-1.88346 -7.59237,-12.26382 -12.59967,-23.35991 -4.95652,-10.98359 -9.87357,-20.30083 -10.92677,-20.70497 -3.58912,-1.37728 -5.71031,1.68724 -14.9208,21.55632 -5.06518,10.92672 -10.4712,21.20986 -12.01339,22.85145 -2.91564,3.10355 -6.30912,3.79441 -36.61825,7.45487 -15.99008,1.93113 -19.33334,2.99757 -19.33334,6.16706 0,1.38271 6.87516,8.62671 16.16395,17.03113 21.80453,19.72853 21.36671,19.09014 20.4578,29.8296 -0.40959,4.83953 -2.296,16.71068 -4.19201,26.38033 -3.34991,17.08445 -3.42838,21.75215 -0.36568,21.75215 0.8146,0 10.60042,-5.1 21.74628,-11.33334 z M 162.71291,313.06913 C 144.71127,294.92212 135.37646,263.463 136.28356,224.00001 l 0.38311,-16.66667 h 21.24858 21.24857 l 1.10032,4.24624 c 0.60517,2.33544 0.94331,27.83544 0.75143,56.66667 l -0.3489,52.42043 -4.80932,0.40245 c -4.34701,0.36376 -5.61053,-0.40524 -13.14444,-8 z m 8.63423,-17.40245 c 0.44072,-2.38334 0.61791,-20.65431 0.39376,-40.60216 -0.30947,-27.53973 -0.82473,-36.6855 -2.14089,-38.00001 -2.39334,-2.39034 -19.15295,-2.31533 -22.06175,0.0988 -3.07715,2.55382 -2.89778,15.85595 0.46569,34.53505 5.75232,31.94568 20.4479,59.62572 23.34319,43.96837 z m 328.42325,23.65925 c -1.33585,-1.33585 0.52603,-109.29684 1.91476,-111.02714 1.02037,-1.27133 6.28649,-1.60825 20.84013,-1.33333 l 19.47474,0.36788 0.42945,12 c 0.491,13.7196 -1.67482,36.98914 -4.71424,50.64967 -4.30589,19.35264 -10.46313,31.89573 -21.39336,43.58103 -5.09404,5.44594 -6.77827,6.43597 -10.94876,6.43597 -2.71076,0 -5.23199,-0.30333 -5.60272,-0.67408 z m 15.28504,-23.01881 c 7.80567,-8.62518 18.22229,-48.79076 18.23359,-70.30711 0.005,-9.69243 -1.01722,-10.66667 -11.19275,-10.66667 -13.9892,0 -13.42959,-1.71061 -13.42959,41.0508 0,42.17551 0.65366,46.26018 6.38875,39.92298 z"
         id="path494" />
    </g>
  </g>
</svg>
