<svg xmlns="http://www.w3.org/2000/svg" viewBox="0 0 192 192"><path fill="none" stroke="#000" stroke-linecap="round" stroke-linejoin="round" stroke-width="12" d="M155.074 103.751c.318-2.544.556-5.127.556-7.751 0-2.624-.238-5.207-.556-7.751l16.821-13.158c1.511-1.192 1.949-3.339.955-5.088l-15.907-27.546c-.995-1.71-3.062-2.425-4.852-1.71l-19.803 7.99c-4.097-3.14-8.59-5.803-13.442-7.831l-2.982-21.067c-.358-1.868-1.989-3.339-3.977-3.339H80.074c-1.989 0-3.619 1.471-3.937 3.339l-2.983 21.067a58.906 58.906 0 0 0-13.441 7.831l-19.804-7.99a3.978 3.978 0 0 0-4.851 1.71L19.151 70.003c-.994 1.71-.557 3.856.954 5.088l16.782 13.158A62.595 62.595 0 0 0 36.33 96c0 2.623.239 5.207.557 7.751l-16.782 13.158c-1.511 1.192-1.948 3.339-.954 5.088l15.907 27.546c.994 1.71 3.062 2.425 4.851 1.71l19.804-7.99c4.096 3.14 8.59 5.803 13.441 7.831l2.983 21.067c.318 1.868 1.948 3.339 3.937 3.339h31.813c1.988 0 3.619-1.471 3.937-3.339l2.982-21.067a58.891 58.891 0 0 0 13.442-7.831l19.803 7.99a3.979 3.979 0 0 0 4.852-1.71l15.907-27.546c.994-1.71.556-3.856-.955-5.088Z"/><path fill="none" stroke="#000" stroke-linecap="round" stroke-linejoin="round" stroke-width="12" d="M95.98 60.074A35.93 35.93 0 0 0 60.039 96a35.93 35.93 0 0 0 35.941 35.926 35.962 35.962 0 0 0 25.415-10.522A35.935 35.935 0 0 0 131.922 96c0-9.525-3.79-18.669-10.527-25.404A35.962 35.962 0 0 0 95.98 60.074Zm0 0h70.376m-43.154 59.412-45.984 54.778M36.887 88.249l29.062 27.496"/></svg>