<svg
    xmlns="http://www.w3.org/2000/svg"
    viewBox="0 0 192 192"
    id="vector">
    <path
        id="path"
        d="M 155.074 103.751 C 155.392 101.207 155.63 98.624 155.63 96 C 155.63 93.376 155.392 90.793 155.074 88.249 L 171.895 75.091 C 173.406 73.899 173.844 71.752 172.85 70.003 L 156.943 42.457 C 155.948 40.747 153.881 40.032 152.091 40.747 L 132.288 48.737 C 128.191 45.597 123.698 42.934 118.846 40.906 L 115.864 19.839 C 115.506 17.971 113.875 16.5 111.887 16.5 L 80.074 16.5 C 78.085 16.5 76.455 17.971 76.137 19.839 L 73.154 40.906 C 68.347 42.911 63.827 45.544 59.713 48.737 L 39.909 40.747 C 38.092 40.054 36.039 40.778 35.058 42.457 L 19.151 70.003 C 18.157 71.713 18.594 73.859 20.105 75.091 L 36.887 88.249 C 36.541 90.818 36.355 93.407 36.33 96 C 36.33 98.623 36.569 101.207 36.887 103.751 L 20.105 116.909 C 18.594 118.101 18.157 120.248 19.151 121.997 L 35.058 149.543 C 36.052 151.253 38.12 151.968 39.909 151.253 L 59.713 143.263 C 63.809 146.403 68.303 149.066 73.154 151.094 L 76.137 172.161 C 76.455 174.029 78.085 175.5 80.074 175.5 L 111.887 175.5 C 113.875 175.5 115.506 174.029 115.824 172.161 L 118.806 151.094 C 123.614 149.089 128.134 146.456 132.248 143.263 L 152.051 151.253 C 153.869 151.946 155.922 151.222 156.903 149.543 L 172.81 121.997 C 173.804 120.287 173.366 118.141 171.855 116.909 Z"
        fill="none"
        stroke="#000000"
        stroke-width="12"
        stroke-linecap="round"
        stroke-linejoin="round"/>
    <path
        id="path_1"
        d="M 95.98 60.074 C 86.452 60.074 77.304 63.861 70.566 70.596 C 63.828 77.331 60.039 86.475 60.039 96 C 60.039 105.525 63.828 114.669 70.566 121.404 C 77.304 128.139 86.452 131.926 95.98 131.926 C 105.509 131.926 114.657 128.139 121.395 121.404 C 128.132 114.669 131.922 105.525 131.922 96 C 131.922 86.475 128.132 77.331 121.395 70.596 C 114.657 63.861 105.509 60.074 95.98 60.074 Z M 95.98 60.074 L 166.356 60.074 M 123.202 119.486 L 77.218 174.264 M 36.887 88.249 L 65.949 115.745"
        fill="none"
        stroke="#000000"
        stroke-width="12"
        stroke-linecap="round"
        stroke-linejoin="round"/>
</svg>
