<svg xmlns="http://www.w3.org/2000/svg" viewBox="0 0 192 192"><path d="m163.408 127.477 4.614-7.991c.97-1.668.543-3.764-.932-4.967l-16.378-12.844c.31-2.483.543-5.005.543-7.567 0-2.561-.233-5.083-.543-7.567l16.417-12.844c1.475-1.164 1.902-3.259.932-4.967l-15.525-26.891c-.97-1.669-2.988-2.367-4.735-1.669l-19.328 7.8c-3.998-3.065-8.383-5.665-13.118-7.644l-2.912-20.566c-.349-1.824-1.94-3.26-3.881-3.26H77.513c-1.941 0-3.532 1.436-3.842 3.26L70.76 40.326a57.43 57.43 0 0 0-13.119 7.644l-19.328-7.8a3.883 3.883 0 0 0-4.735 1.669L18.053 68.73c-.97 1.669-.543 3.764.932 4.967l16.378 12.844a61.008 61.008 0 0 0-.543 7.567c0 2.561.233 5.083.543 7.567l-16.378 12.844c-1.475 1.164-1.902 3.26-.932 4.967l15.525 26.891c.97 1.669 2.989 2.367 4.735 1.669l19.328-7.8c3.998 3.065 8.384 5.665 13.119 7.644l2.911 20.567c.31 1.823 1.901 3.259 3.842 3.259h31.049c1.941 0 3.532-1.436 3.842-3.259l2.912-20.567a57.364 57.364 0 0 0 6.499-3.205" fill="none" stroke="#000" stroke-width="12" stroke-linecap="round" stroke-linejoin="round"/><path d="M93.038 59.037a35.09 35.09 0 0 0-24.804 10.272 35.08 35.08 0 0 0-10.275 24.799 35.08 35.08 0 0 0 68.44 10.838 35.069 35.069 0 0 0-33.361-45.909Zm0 0h68.686m-42.119 57.998L74.726 170.51M35.363 86.541l28.365 26.843" fill="none" stroke="#000" stroke-width="12" stroke-linecap="round" stroke-linejoin="round"/><path d="M151.263 149a7.571 7.571 0 1 1 0 15.143h-12.495v-30.286h12.495a7.571 7.571 0 1 1 0 15.143Zm0 0h-12.495" fill="none" stroke="#000" stroke-width="8" stroke-linecap="round" stroke-linejoin="round"/><path d="M147.961 122.499A26.507 26.507 0 0 0 121.455 149a26.506 26.506 0 0 0 53.011 0 26.507 26.507 0 0 0-26.505-26.501Z" fill="none" stroke="#000" stroke-width="8" stroke-linecap="round" stroke-linejoin="round"/></svg>