<svg width="682.667" height="682.667" viewBox="0 0 682.667 682.667" xmlns="http://www.w3.org/2000/svg"><path style="fill:#d1d1d1;stroke-width:1.33333" d="M211.683 567.246c-5.69-3.087-7.683-8.397-7.683-20.463 0-15.291 3.438-23.71 14.275-34.956 12.518-12.989 17.695-14.733 46.058-15.517l22.334-.618v-18.541c0-17.973-.092-18.58-3-19.78-24.335-10.04-33.056-14.718-47-25.211-10.747-8.088-31.051-28.766-38.069-38.77-3.714-5.295-6.89-8.385-9.144-8.896-26.259-5.956-46.243-17.19-64.187-36.08-30.132-31.72-42.6-74.334-42.6-145.593 0-24.012 1.92-30.916 11.104-39.93 8.671-8.51 13.69-9.558 45.774-9.558h27.122v-16.042c0-21.557 3.052-28.654 14.947-34.754 4.778-2.45 10.184-2.537 158.376-2.537 127.69 0 154.149.31 157.72 1.845 2.36 1.014 6.688 4.341 9.619 7.393l5.328 5.548.87 18.94c.48 10.417.932 19.09 1.005 19.274.074.183 10.605.333 23.402.333 30.325 0 35.203 1.07 44.346 9.717 10.82 10.233 11.611 14.157 10.666 52.939-1.11 45.607-6.194 73.348-18.203 99.342-7.236 15.663-14.758 25.819-29.704 40.107-14.216 13.591-26.289 20.672-45.288 26.565-11.544 3.58-11.605 3.623-18.949 13.21-9.994 13.049-31.292 33.466-43.469 41.672-11.334 7.638-18.83 11.588-33.666 17.744l-10.334 4.287v36.787l23.667.59c28.702.715 34.037 2.35 46.101 14.125 11.69 11.41 15.526 20.616 15.551 37.315.017 11.24-2.15 16.583-7.942 19.578-5.842 3.021-253.453 2.96-259.027-.065zm246.725-24.586c-.715-9.885-5.747-17.767-14.467-22.66-5.674-3.184-7.19-3.363-33.72-4l-27.779-.667-3.959-4.434-3.96-4.434.406-29.128c.397-28.627.46-29.186 3.596-32.522 1.755-1.867 6.255-4.4 10-5.627 11.714-3.84 34.403-15.895 45.498-24.173 12.38-9.237 22.402-19.546 33.02-33.967 8.867-12.044 10.782-13.457 22.213-16.386 15.506-3.973 33.595-13.754 44.788-24.216 14.125-13.203 28.628-41.718 33.795-66.446 5.783-27.673 7.941-84.658 3.574-94.383-2.368-5.274-7.483-6.28-32.347-6.363-28.991-.097-35.437-1.02-40.174-5.753-3.481-3.477-3.573-4.006-4.225-24.247-.53-16.42-1.08-20.952-2.667-21.952-1.225-.773-59.875-1.27-151.412-1.282-117.537-.016-149.863.336-151.528 1.647-1.705 1.342-2.234 5.436-2.718 21.04-.945 30.481.08 29.734-41.564 30.335-17.768.257-32.354 1.056-34.508 1.89-7.428 2.876-8.025 6.26-7.223 41.001 1.03 44.659 5.348 66.448 18.385 92.764 7.88 15.907 15.83 26.42 26.246 34.703 9.664 7.687 31.533 18.458 43.45 21.401 10.888 2.689 14.8 5.73 24.652 19.158 17.698 24.122 41.723 41.848 73.308 54.085 5.95 2.305 11.02 5.284 13 7.637 3.217 3.823 3.245 4.105 3.245 32.4v28.544l-3.887 4.354-3.888 4.354-26.446.667c-25.101.633-26.747.836-32.386 4-8.72 4.893-13.752 12.775-14.467 22.66l-.58 8.007h235.308ZM278.226 349.4c-3.33-3.07-6.43-7.29-6.888-9.378-.497-2.265 1.082-13.252 3.914-27.23 2.611-12.888 4.748-23.971 4.748-24.629 0-.657-7.05-7.585-15.667-15.394-19.855-17.995-23-22.047-23-29.63 0-4.787.84-6.727 4.813-11.125 5.576-6.172 8.925-7.267 28.52-9.324 24.578-2.581 26.51-2.892 27.769-4.473.68-.852 5.243-10.315 10.142-21.028 5.997-13.115 10.43-20.955 13.572-24 4.26-4.13 5.367-4.522 12.744-4.522 7.802 0 8.244.189 12.926 5.523 2.688 3.063 7.995 12.606 11.912 21.42 10.682 24.037 10.671 24.023 19.851 25.012 39.73 4.281 41.587 4.73 47.753 11.556 3.933 4.352 4.67 6.157 4.699 11.493l.033 6.329-19.573 18.876-19.573 18.877 4.383 22.097c5.367 27.064 5.12 32.35-1.848 39.316-4.325 4.325-5.569 4.834-11.812 4.834-6.3 0-9.006-1.138-27.9-11.733l-20.924-11.733-5.743 2.915c-3.159 1.603-12.573 6.828-20.92 11.612-11.188 6.412-16.846 8.858-21.527 9.308-5.961.573-6.722.268-12.404-4.97zm33.38-27.067c26.75-14.977 27.259-14.978 53.727-.157 10.634 5.954 19.531 10.308 19.772 9.675.242-.632-1.467-10.307-3.796-21.5-6.084-29.241-6.69-27.353 15.568-48.5l18.4-17.484-11.972-1.568A43015.94 43015.94 0 0 1 380 239.74c-6.233-.82-12.873-2.255-14.754-3.189-4.95-2.457-9.512-9.712-17.959-28.561-4.104-9.16-7.873-17.07-8.375-17.575-.502-.506-4.792 7.594-9.533 18-5.222 11.458-10.48 20.913-13.334 23.974-5.103 5.475-6.771 5.886-42.338 10.42l-12.293 1.567 9.626 8.754c5.295 4.814 13.677 12.726 18.627 17.582l9 8.83v8.395c0 7.366-5.142 37.206-7.446 43.209-.462 1.204-.485 2.188-.05 2.188.433 0 9.63-4.95 20.435-11zm-140.59 2.964c-5.482-2.204-20.499-19-25.03-27.997-9.722-19.295-15.918-50.274-15.105-75.512.434-13.46.603-14.153 4.193-17.24 3.58-3.075 4.573-3.215 22.926-3.215 18.046 0 19.394.18 22.718 3.04 2.264 1.947 3.945 5.179 4.682 9 .633 3.278 1.177 28.357 1.209 55.73l.058 49.769-3.898 3.897c-4.028 4.029-6.63 4.588-11.754 2.528zM166.665 256v-36H149.489l.665 9.667c.925 13.455 4.199 33.723 6.73 41.666 2.307 7.238 8.294 20.667 9.214 20.667.313 0 .57-16.2.57-36zm330.372 65.243-4.091-4.091.86-12.114c.473-6.663.86-30.682.86-53.376V210.4l4.634-4.635 4.635-4.634 18.665.434c17.261.402 18.89.66 21.655 3.428 3.87 3.875 4.687 16.155 2.449 36.807-4.191 38.67-12.642 60.296-29.962 76.677-8.875 8.393-13.437 9.034-19.705 2.766zm25.623-54.576c2.26-9.194 4.468-24.527 5.808-40.334l.537-6.333h-15.942l.468 35.281.468 35.281 3.102-6.948c1.706-3.82 4.208-11.447 5.56-16.947z" transform="translate(3.38 6.56)"/><path style="fill:#a9a9a9;stroke-width:1.33333" d="M212.147 566.14c-5.28-2.927-6.716-7.2-6.765-20.14-.04-10.545.42-12.97 3.801-20 4.7-9.771 15.71-20.772 24.817-24.795 5.736-2.534 9.925-3.056 30-3.742l23.333-.796.368-19.49.368-19.491-4.368-1.647c-28.027-10.565-45.71-21.896-65.997-42.29-6.029-6.06-13.966-15.15-17.637-20.197-6.647-9.139-6.715-9.187-16.371-11.508-20.383-4.9-42.322-17.942-57.827-34.379-29.969-31.769-41.916-73.177-41.835-144.998.027-24.55 1.326-29.693 9.708-38.447 8.228-8.594 9.249-8.821 42.925-9.553l30.666-.667.667-18c.826-22.294 2.747-26.672 14.267-32.506 3.861-1.955 18.94-2.16 158.4-2.16 171.017 0 157.391-.758 166.433 9.25l4.9 5.424v13.143c0 7.229.375 15.877.833 19.217l.832 6.074 28.168.456c31.769.514 32.422.684 41.819 10.879 8.23 8.928 8.79 12.47 7.944 50.223-1.019 45.47-4.858 68.435-15.672 93.736-8.003 18.726-12.984 25.986-28.59 41.674-12.487 12.552-16.45 15.648-26.667 20.833-11.092 5.628-20.014 9.016-28.887 10.97-2.402.527-6.346 4.35-12.163 11.784-11.306 14.45-29.803 32.131-42.762 40.876-9.552 6.445-22.286 13.04-38.559 19.965l-6.37 2.711.37 19.06.37 19.058 24.667.771c22.664.71 25.263 1.046 32 4.143 9.995 4.595 21.332 16.696 25.115 26.808 3.28 8.764 3.985 26.406 1.292 32.315-3.457 7.59 1.911 7.3-134.674 7.249-101.803-.039-126.34-.384-128.92-1.814zm247.58-20.832c.692-10.586-5.895-21.542-16.228-26.991-4.98-2.627-8.12-2.967-33.285-3.609L382.428 514l-3.214-3.741c-3.181-3.703-3.214-4.035-3.214-32.436v-28.695l3.686-3.686c2.027-2.027 6.977-4.766 11-6.086 11.214-3.68 31.604-14.317 41.98-21.903 12.882-9.417 23.3-19.924 34.224-34.515 10.058-13.434 10.65-13.83 29.484-19.657 26.557-8.217 46.3-25.5 59.342-51.948 13.715-27.813 19.537-60.314 19.16-106.974-.255-31.738-.932-32.328-37.166-32.417-41.337-.101-40.777.285-41.71-28.75-.596-18.555-.94-20.945-3.255-22.635-3.965-2.896-300.146-2.829-304.282.069-2.576 1.804-2.843 3.516-3.378 21.667-.348 11.811-1.228 20.897-2.197 22.676-3.083 5.665-6.11 6.199-39.555 6.972-34.738.804-36.43 1.156-40.16 8.368-1.91 3.693-2.095 8.136-1.458 34.96 1.144 48.194 7.409 75.561 23.693 103.506 13.03 22.361 35.34 38.562 64.015 46.486 12.087 3.34 14.788 5.236 23.04 16.173 20.937 27.748 41.22 43.447 72.249 55.917C304.859 445.45 304 443.633 304 478.105c0 28.102-.035 28.454-3.214 32.154L297.572 514l-26.453.687c-23.893.62-26.984.97-31.951 3.608-6.337 3.367-11.753 9.332-14.55 16.029-2.002 4.79-2.655 15.194-1.055 16.794.493.493 53.743.743 118.333.556l117.437-.34zm-181.902-197.8c-4.184-4.183-5.825-6.906-5.823-9.666 0-2.113 2.1-14.18 4.666-26.816 2.566-12.635 4.665-23.227 4.665-23.538 0-.31-7.35-7.27-16.333-15.466-19.71-17.98-22.333-21.38-22.333-28.938 0-4.383.9-6.683 3.994-10.207 5.161-5.878 8.298-6.937 26.006-8.776 25.397-2.637 27.291-2.969 29.843-5.227 1.371-1.214 6.288-10.607 10.927-20.874 5.633-12.466 10.065-20.328 13.342-23.667 4.441-4.525 5.575-5 11.937-5 6.428 0 7.44.438 11.824 5.112 3.054 3.256 8.1 12.422 13.907 25.262l9.114 20.151 6.886 1.277c3.787.703 13.786 1.987 22.22 2.854 19.412 1.995 22.926 3.102 27.933 8.805 3.287 3.745 4.073 5.837 4.097 10.92l.03 6.286-19.493 18.768-19.494 18.768L399.87 308c2.272 11.255 4.13 23.73 4.13 27.722 0 6.654-.431 7.69-5.176 12.435-8.402 8.401-12.206 7.72-38.4-6.879l-21.63-12.055-6.397 3.265c-3.518 1.795-13.297 7.217-21.73 12.048-19.708 11.289-24.127 11.689-32.842 2.973zm34.408-24.175c26.803-14.943 25.567-14.944 52.754.072 11.356 6.272 20.978 11.075 21.38 10.672.403-.403-1.165-9.934-3.484-21.18-2.319-11.247-4.216-23.053-4.216-26.236 0-6.28.37-6.715 27.666-32.46 5.317-5.015 9.667-9.565 9.667-10.11 0-.546-6.15-1.714-13.667-2.596-21.143-2.48-32.005-4.206-35.903-5.701-4.943-1.898-9.275-8.642-17.93-27.917-8.346-18.586-10.532-21.824-12.004-17.78-4.348 11.944-19.294 40.443-22.722 43.327-4.206 3.54-5.33 3.77-39.107 8.015-6.967.876-13.098 1.971-13.626 2.435-.527.464 5.686 6.832 13.807 14.151 22.229 20.037 22.485 20.388 22.485 30.854 0 7.666-5.086 37.452-7.445 43.6-.462 1.203-.197 2.188.588 2.188.785 0 10.576-5.1 21.757-11.334zM166.949 321C144.369 302.969 132 268.677 132 224.102c0-14.031.189-15.079 3.273-18.163 3.172-3.172 3.862-3.272 22.519-3.272 21.98 0 24.113.813 26.242 10 .68 2.933 1.25 28.01 1.268 55.727l.031 50.394-3.272 3.273c-4.414 4.413-8.627 4.118-15.112-1.061zm.424-100.71c-.482-1.258-3.191-1.636-9.688-1.351l-9.018.394.42 10c.992 23.543 7.135 48.356 15.514 62.667l2.732 4.667.355-37.316c.196-20.523.054-38.1-.315-39.061zm330.374 100.245c-3.393-3.393-3.447-3.734-2.613-16.333.469-7.078.855-31.065.86-53.305l.006-40.435 3.898-3.898 3.897-3.897h18.163c17.507 0 18.282.118 21.436 3.272 2.98 2.981 3.273 4.324 3.273 15.051 0 13.97-2.993 39.49-6.07 51.759-4.96 19.778-12.708 34.001-24.562 45.09-7.879 7.37-12.878 8.106-18.288 2.696zM517.667 285c6.328-14.675 11.666-41.394 11.666-58.388v-8.073l-8.333.397-8.333.397v37c0 20.35.316 37 .703 37 .387 0 2.32-3.75 4.297-8.333z" transform="translate(3.38 6.56)"/><path style="fill:#939393;stroke-width:1.33333" d="M209.94 563.394c-3.054-3.053-3.272-4.194-3.26-17 .01-11.704.488-14.748 3.237-20.653 4.44-9.536 12.935-18.324 21.893-22.647 7.078-3.417 8.927-3.675 31.242-4.363 19.064-.588 23.966-1.123 24.98-2.731 1.68-2.664 1.662-34.168-.022-37.314-.728-1.36-3.578-3.207-6.333-4.106-8.846-2.883-26.065-11.582-35.975-18.174-19.205-12.774-27.849-21.109-47.308-45.62-5.418-6.825-6.304-7.368-16.394-10.054-14.202-3.78-23.564-8.25-38.017-18.15-17.531-12.007-29.167-25.89-40.011-47.737-13.068-26.326-18.639-59.777-18.639-111.922 0-23.629.05-24.048 3.725-31.081 2.322-4.445 5.878-8.645 9.443-11.153l5.719-4.022 31.275-.667c25.84-.55 31.493-1.014 32.536-2.667.694-1.1 1.27-9.418 1.282-18.485.024-19.08 1.984-24.463 10.692-29.357l5.025-2.824h155.66c155.102 0 155.678.01 160.129 2.76 8.43 5.21 9.416 7.95 10.165 28.233.416 11.249 1.29 19.065 2.265 20.239 1.267 1.526 7.325 2 29.938 2.34l28.35.428 5.553 3.678c3.055 2.023 7.209 6.184 9.232 9.248l3.678 5.57-.12 37.419c-.091 27.919-.693 41.141-2.372 52.085-9.414 61.35-39.758 100.863-88.99 115.88l-11.438 3.488-8.7 11.65c-18.848 25.237-45.625 45.5-76.143 57.62-11.202 4.448-11.877 5.988-11.347 25.855.244 9.144.941 17.124 1.55 17.733.608.609 12.308 1.433 26 1.83 23.633.687 25.274.908 32.417 4.363 8.367 4.047 16.717 12.316 21.322 21.115 2.493 4.764 3.13 8.462 3.57 20.718.52 14.56.452 15.002-2.88 18.334l-3.414 3.414H213.213Zm249.298-12.156c4.533-4.533.945-18.142-6.962-26.402-9.215-9.628-13.446-10.733-43.152-11.268-23.764-.428-26.47-.715-29-3.072-2.67-2.488-2.79-3.877-2.79-32.315 0-34.21-.341-33.245 13.396-37.976 29.533-10.172 58.11-31.583 77.27-57.894 8.417-11.558 10.758-13.24 22.667-16.276 20.168-5.143 40.72-18.6 53.759-35.198 10.88-13.851 20.604-35.886 25.376-57.504 6.94-31.443 8.722-85.248 3.106-93.818-5.02-7.662-6.993-8.117-38.847-8.959-16.167-.427-30.36-1.209-31.54-1.737-4.016-1.797-5.076-6.8-5.465-25.784-.363-17.689-.594-19.169-3.426-22L490.593 118H190.74l-3.037 3.033c-2.798 2.794-3.101 4.583-3.849 22.667-.859 20.78-1.399 23.509-4.958 25.076-1.227.54-16.737 1.336-34.468 1.77-29.814.728-32.52.995-36 3.549-7.242 5.315-8.425 9.82-8.427 32.097-.004 43.65 6.26 75.797 20.36 104.475 6.022 12.25 8.475 15.603 19.626 26.83 11.351 11.427 14.27 13.568 26.711 19.593 7.682 3.72 17.841 7.745 22.575 8.945 12.588 3.189 15.06 4.88 22.807 15.598 19.178 26.537 43.658 45.086 76.961 58.315 6.074 2.412 11.624 5.471 12.334 6.798.72 1.346 1.29 15.395 1.29 31.781 0 37.708 2.335 34.806-28.009 34.806-24.72 0-32 1.4-40.929 7.867-6.101 4.42-11.097 13.545-12.052 22.013-1.233 10.944-10.97 10.12 119.657 10.12 103.504 0 116.033-.222 117.905-2.095zM277.716 347.124c-4.302-4.561-4.566-5.357-4.101-12.333.273-4.102 2.243-16.358 4.376-27.236l3.879-19.778-18.962-18.222-18.963-18.222.028-7.487c.03-8.448 2.785-13.216 8.982-15.549 2.041-.768 10.312-2.084 18.378-2.924 20.247-2.107 31.024-4.05 32.457-5.849.668-.838 5.313-10.524 10.324-21.524 11.135-24.443 13.726-27.333 24.512-27.333 9.703 0 12.743 2.754 19.705 17.855 2.742 5.946 7.389 15.611 10.327 21.478L374 220.667l8 1.548c4.4.852 14.9 2.274 23.333 3.161 23.33 2.454 28 5.552 28 18.577v7.36l-18.71 18.01c-12.661 12.189-18.695 18.92-18.666 20.827.024 1.55 1.543 10.182 3.376 19.183 1.834 9.002 3.334 20.438 3.334 25.414 0 8.326-.328 9.375-4.103 13.15-3.508 3.509-5.087 4.103-10.9 4.103-6.06 0-9.018-1.244-27.274-11.467-14.732-8.25-21.306-11.254-23.433-10.709-1.627.418-11.455 5.578-21.842 11.467C298.17 350.9 295.515 352 289.272 352c-6.28 0-7.404-.474-11.556-4.876zm33.428-22.457c27.24-15.234 27.297-15.235 53.604-.667C381.641 333.355 388 336.118 388 334.105c0-.31-1.8-9.156-4-19.658-2.2-10.503-4-22.563-4-26.8 0-7.51.176-7.88 7-14.745 3.85-3.873 12.377-11.996 18.949-18.052 7.952-7.328 11.407-11.345 10.332-12.01-.89-.55-8.066-1.737-15.949-2.638-30.793-3.523-33.969-4.261-38.434-8.939-2.278-2.385-7.954-12.815-12.761-23.447-4.795-10.605-9.444-19.15-10.419-19.15-2.12 0-1.705-.733-13.206 23.427-5.814 12.215-10.438 20.207-12.454 21.528-3.12 2.044-10.297 3.35-35.058 6.377-15.103 1.846-18 2.456-18 3.787 0 .587 7.553 7.908 16.785 16.27 9.232 8.36 17.621 16.818 18.643 18.795 2.257 4.364.846 21.485-3.382 41.02-2.852 13.18-3.207 16.13-1.94 16.13.425 0 9.892-5.1 21.038-11.333zm-148.96-8.694c-18.793-17.579-28.823-49.145-28.843-90.766-.01-22.205-1.17-21.213 24.764-21.187 10.942.011 20.656.504 21.586 1.094 3.676 2.333 4.309 11.509 4.309 62.449 0 57.962.236 56.437-8.713 56.437-3.69 0-6.102-1.477-13.104-8.027zm7.15-57.29c0-42.19.207-41.35-10.184-41.35-9.745 0-11.15 1.405-11.15 11.147 0 11.268 4.536 35.803 8.833 47.785 4.137 11.532 9.603 21.368 11.294 20.323.673-.416 1.206-17.175 1.206-37.905zm328.572 61.699c-2.007-2.006-2.18-4.227-1.429-18.21.471-8.758.856-33.23.856-54.381 0-36.68.124-38.58 2.667-41.124 2.419-2.42 4.444-2.667 21.793-2.667 24.096 0 23.54-.429 23.54 18.156 0 23.89-4.188 50.035-10.762 67.177-3.549 9.256-13.191 23.846-19.31 29.218-5.473 4.805-13.53 5.656-17.355 1.83zm20.274-34.838c4.292-9.605 8.034-24.014 10.527-40.535 2.624-17.392 2.577-25.82-.15-26.866-3.797-1.458-11.993-.85-14.635 1.086-2.451 1.795-2.589 3.798-2.589 37.667 0 19.674.192 36.23.426 36.792.866 2.081 3.141-.805 6.42-8.144z" transform="translate(3.38 6.56)"/><path style="fill:#6a6a6a;stroke-width:1.33333" d="M210.124 562.796c-3.641-3.8-3.7-4.117-3.25-17.666.375-11.26 1.031-14.9 3.57-19.797 4.538-8.755 14.493-18.49 22.89-22.382 6.728-3.119 9.313-3.463 31.333-4.175l24-.776.367-20.281.368-20.282-3.968-2.052c-2.183-1.128-4.583-2.052-5.334-2.052-2.234 0-18.83-7.883-27.433-13.032-18.7-11.19-38.191-29.02-51.712-47.303l-7.32-9.897-9.817-2.36c-20.134-4.841-42.563-18.025-57.1-33.564-29.473-31.508-41.365-72.8-41.38-143.689-.005-23.972 1.073-29.152 7.677-36.866 8.251-9.64 9.232-9.875 44.318-10.622l31.334-.667.666-19.333c.749-21.705 1.7-24.34 10.883-30.137l5.064-3.196h154.76c170.827 0 158.265-.653 166.429 8.645 4.136 4.71 4.199 4.992 4.275 19.068.042 7.858.5 16.687 1.02 19.62l.943 5.333 28.646.688c31.995.769 33.164 1.063 41.675 10.484 7.45 8.246 8.065 12.448 7.235 49.495-1.582 70.628-13.264 106.05-45.117 136.808-15.916 15.369-32.725 24.519-53.43 29.087-2.497.55-6.67 4.618-13.46 13.118-19.586 24.517-40.328 41.337-64.808 52.552-7.03 3.22-14.881 6.887-17.448 8.146l-4.667 2.29-.372 18.483c-.233 11.62.154 19.116 1.043 20.188 1.018 1.227 8.219 1.869 25.705 2.293 28.188.683 33.075 2.1 44.062 12.778 10.85 10.544 14.178 19.02 14.209 36.184.018 10.417-.248 11.54-3.563 15l-3.583 3.74H213.832Zm250.935-16.825c.672-11.455-6.39-23.096-17.6-29.008-4.925-2.598-8.152-2.949-32.99-3.588-24.614-.633-27.83-.978-30.334-3.248-2.684-2.434-2.802-3.766-2.802-31.728 0-33.684-.143-33.282 13.416-37.73 11.967-3.926 31.96-14.547 43.278-22.99 13.628-10.166 22.669-19.332 33.994-34.466 9.673-12.926 9.16-12.59 28.353-18.572 26.774-8.345 47.509-26.56 60.682-53.308 13.714-27.846 19.53-60.327 19.154-106.974-.265-32.856-.142-32.756-41.837-33.753-38.987-.931-36.12 1.19-37.04-27.425-.636-19.812-.81-20.87-3.814-23.301-3.056-2.473-7.495-2.547-152.82-2.547-146.803 0-149.737.05-153.006 2.622-3.245 2.553-3.35 3.172-3.965 23.415-.87 28.625 2.52 26.284-39.42 27.223-46.99 1.051-45.01-.963-43.926 44.677.762 32.1 2.462 46.016 8.07 66.063 13.034 46.592 39.111 73.864 81.688 85.428 12.195 3.313 13.24 4.083 22.582 16.644 19.35 26.015 42.095 43.544 71.083 54.78 20.211 7.834 18.862 4.983 18.862 39.84 0 28.341-.116 29.667-2.802 32.102-2.493 2.26-5.683 2.615-29 3.227-23.571.618-26.746.978-31.658 3.588-6.489 3.448-13.11 10.651-15.876 17.27-2.028 4.854-2.738 16.604-1.102 18.24.493.492 54.343.742 119.667.555l118.77-.34zM278.155 346.663c-3.077-3.406-4.821-6.663-4.82-9 0-2.015 2.132-14.154 4.735-26.975l4.734-23.313-19.402-18.47L244 250.435v-6.956c0-6.16.519-7.459 4.533-11.35 4.87-4.72 3.258-4.37 37.467-8.133 19.52-2.148 16.603.5 28.641-25.996 2-4.4 4.908-10.784 6.464-14.187 4.205-9.199 9.566-13.146 17.852-13.146 5.911 0 7.25.54 10.744 4.333 2.195 2.383 8.265 13.633 13.49 25l9.499 20.667 7.321 1.555c4.027.855 13.922 2.236 21.989 3.069 20.282 2.093 21.595 2.435 26.766 6.975 4.071 3.575 4.573 4.756 4.615 10.872l.048 6.862-19.527 18.687-19.528 18.686 4.146 20.545c2.28 11.3 4.147 23.801 4.147 27.78 0 6.45-.492 7.727-4.534 11.769-7.664 7.664-12.02 6.795-37.708-7.522l-21.63-12.055-6.398 3.265c-3.518 1.795-13.297 7.217-21.73 12.047-12.818 7.343-16.347 8.785-21.512 8.79-5.52.008-6.691-.56-11-5.33zm34.078-21.996c27.938-15.576 24.392-15.84 60.94 4.545 8.648 4.824 12.933 6.549 13.89 5.591.958-.958.082-7.704-2.839-21.87-2.323-11.267-4.224-23.086-4.224-26.265 0-6.31.881-7.343 27.106-31.795 5.741-5.353 10.154-10.474 9.807-11.38-.379-.986-5.902-2.295-13.773-3.262-34.49-4.242-35.639-4.477-39.663-8.096-3.335-3-11.756-19.044-20.22-38.524-3.849-8.859-6.332-7.306-13.414 8.389-10.236 22.686-12.72 27.274-16.491 30.447-3.747 3.152-7.415 3.87-39.685 7.777-10.753 1.301-13.66 2.093-13.636 3.715.016 1.134 8.116 9.446 18 18.473L296 278.824v9.42c0 8.216-5.54 40.853-7.462 43.964-.855 1.383.517 3.792 2.16 3.792.663 0 10.354-5.1 21.535-11.333zm-144.84-4.62c-17.08-13.573-27.378-35.097-32-66.885-2.772-19.073-2.765-42.229.016-46.199 1.99-2.842 2.907-2.963 22.46-2.963 19.026 0 20.554.187 22.924 2.805 2.396 2.646 2.564 5.909 2.956 57.471.38 50.138.225 54.876-1.874 57.195-3.306 3.653-8.77 3.116-14.481-1.423zm1.627-62.38L168.667 218l-9.12-.397c-5.148-.224-9.871.226-10.844 1.034-2.078 1.724-1.54 13.1 1.54 32.657 2.418 15.347 5.641 25.94 11.473 37.706 7.3 14.729 7.699 13.018 7.304-31.333zm329.477 62.793c-1.503-1.81-1.746-11.9-1.362-56.333.456-52.572.549-54.213 3.233-57.127 2.61-2.833 3.789-3 21.198-3 23.573 0 23.767.14 23.767 17.05 0 13.917-2.997 39.45-6.07 51.699-4.754 18.96-10.94 30.84-22.325 42.878-5.723 6.05-7.357 7.04-11.635 7.04-3.004 0-5.702-.875-6.806-2.207zm19.516-33.479c1.3-3.473 2.808-6.914 3.353-7.648 3.45-4.645 9.854-43.185 9.082-54.666L530 218l-8.253-.395c-6.98-.334-8.463-.004-9.606 2.132-.855 1.598-1.178 15.974-.877 39.062.261 20.094.534 36.758.606 37.03.464 1.773 4.165-3.558 6.143-8.848z" transform="translate(3.38 6.56)"/><path style="fill:#545454;stroke-width:1.33333" d="M213.36 564.965c-4.884-2.487-6.652-7.181-6.674-17.723-.03-14.895 2.703-21.837 12.822-32.564 12.456-13.204 17.28-14.852 46.492-15.88l22.667-.798.37-19.82c.243-13.025-.135-20.427-1.103-21.593-.81-.976-4.576-2.79-8.37-4.033-19.776-6.476-41-20.545-60.23-39.924-8.067-8.129-16.766-17.889-19.33-21.689-5.2-7.704-4.486-7.28-19.733-11.734-20.9-6.105-37.353-16.28-53.055-32.81-5.19-5.466-11.397-12.784-13.792-16.265-10.063-14.627-19.53-40.612-23.363-64.132-4.875-29.91-6.328-76.126-2.771-88.104 2.147-7.23 10.426-16.49 17.377-19.436 2.635-1.117 14.235-1.94 34-2.41l30-.717.666-18.727c.74-20.761 1.461-22.85 10.202-29.517l4.924-3.756 152.77-.395c100.791-.26 154.367.066 157.462.961 2.58.746 7.072 3.794 9.982 6.774l5.29 5.417.912 19.622c.502 10.792.96 19.771 1.019 19.955.058.183 10.876.333 24.04.333 30.382 0 35.855 1.115 44.315 9.029 10.038 9.389 10.975 14.153 10.025 50.968-.821 31.84-2.995 50.248-8.313 70.417-7.745 29.369-15.796 43.687-35.828 63.72-18.295 18.296-30.35 25.3-53.616 31.157-4.59 1.155-6.698 2.965-12.934 11.107-9.416 12.293-32.448 34.74-42.916 41.827-8.736 5.913-25.714 14.689-35.602 18.4-10.365 3.893-10.526 4.308-10.103 26.188l.371 19.187 24 .79c30.607 1.006 35.226 2.531 47.692 15.746 7.324 7.764 8.923 10.367 10.936 17.8 3.265 12.063 2.46 26.502-1.708 30.671L469.26 566l-126.297.325c-99.624.256-126.995-.031-129.603-1.36zm247.687-20.298c.334-7.04-.146-8.875-4-15.286-2.955-4.914-6.515-8.603-10.938-11.333L439.55 514l-27.893-.667-27.893-.666-3.289-3.827-3.289-3.826.407-27.958.407-27.959 3.585-3.08c1.972-1.695 6.772-4.127 10.667-5.404 18.023-5.91 43.657-21.655 58.176-35.733 3.903-3.784 10.447-11.38 14.544-16.88 12.247-16.44 12.494-16.627 29.273-22.05 11.653-3.768 18.052-6.794 26.86-12.705 14.738-9.891 15.98-11.013 24.194-21.866 13.286-17.553 23.407-42.88 27.27-68.239 4.778-31.379 5.16-78.432.693-85.474-3.785-5.966-8.644-6.994-33.463-7.079-41.994-.144-41.525.163-42.466-27.82-.573-17.052-1.022-20.225-3.206-22.633l-2.54-2.8H340.71c-146.595 0-150.952.071-153.605 2.543-2.438 2.271-2.8 4.59-3.38 21.706-.368 10.835-1.332 20.436-2.22 22.093-2.974 5.558-6.153 6.115-39.506 6.916-34.369.826-35.663 1.092-39.845 8.17-4.208 7.125-2.515 65.128 2.633 90.225 4.639 22.607 14.399 45.265 26.37 61.214 11.969 15.948 34.12 30.062 57.509 36.643 11.713 3.296 16.271 6.63 24.37 17.823 9.294 12.844 17.883 21.954 27.574 29.248 14.933 11.239 29.641 19.708 42.797 24.645 7.269 2.727 13.357 5.973 15.592 8.311l3.667 3.838v27.238c0 26.863-.045 27.29-3.215 30.979l-3.215 3.74-26.563.667-26.563.667-6.555 4.048c-9.288 5.734-15.223 15.873-15.223 26.004 0 4.127.404 7.907.896 8.4.493.492 54.343.742 119.667.555l118.77-.34zm-180.295-196.77c-7.962-6.992-8.046-8.047-2.713-34.367 2.618-12.92 4.437-24.774 4.043-26.343-.394-1.57-8.448-9.874-17.897-18.454-9.45-8.58-17.858-17.084-18.683-18.896-2.825-6.2-1.829-10.926 3.498-16.594 5.474-5.826 3.285-5.312 39-9.154 6.233-.67 12.415-1.641 13.737-2.157 2.443-.953 8.878-12.952 16.92-31.55 2.471-5.712 6.459-12.233 8.97-14.667 3.856-3.737 5.478-4.382 11.026-4.382 9.422 0 12.485 3.607 23.315 27.457 5.598 12.329 10.28 20.851 12.114 22.053 1.644 1.077 8.298 2.516 14.787 3.197 21.729 2.28 32.515 3.893 35.022 5.235 5.04 2.697 9.442 9.44 9.463 14.494.019 4.564-1.3 6.177-19.334 23.66-12.353 11.975-19.353 19.737-19.353 21.458 0 1.483 1.836 11.64 4.081 22.572 4.895 23.836 4.681 29.727-1.295 35.703-7.198 7.199-11.89 6.225-36.662-7.61-13.381-7.474-22.03-11.539-23.652-11.115-1.405.368-11.226 5.575-21.823 11.573-23.353 13.216-27.433 14.147-34.564 7.886zm30.127-21.885c11.169-6.227 22.252-11.687 24.627-12.132 5.59-1.049 10.841.757 23.877 8.21 20.167 11.53 25.838 14.238 28.045 13.392 1.572-.604 1.953-1.776 1.354-4.165-4.139-16.488-8.874-43.233-8.246-46.568.573-3.043 5.612-8.722 19.783-22.298 12.637-12.105 18.567-18.66 17.681-19.54-.733-.728-7.033-2.022-14-2.874-34.01-4.162-37.75-5.01-41.487-9.405-1.919-2.256-7.28-12.321-11.913-22.367-9.645-20.908-10.905-22.778-13.754-20.414-1.074.892-5.7 9.966-10.28 20.165-5.275 11.745-9.897 20.064-12.608 22.692-4.564 4.423-2.78 4.02-42.515 9.617-6.58.927-12.124 2.379-12.414 3.25-.288.866 3.863 5.658 9.224 10.65 5.36 4.99 13.797 13.028 18.747 17.86 8.895 8.686 9 8.872 9 15.922 0 3.923-1.825 16.043-4.056 26.933-3.56 17.378-3.988 22.393-1.913 22.393.297 0 9.678-5.094 20.848-11.321zm-138.709-3.447c-4.66-1.865-18.043-16.276-22.577-24.31-9.507-16.846-16.995-52.671-16.066-76.862C134.185 204.284 134.585 204 158 204c20.64 0 22.853.959 24.736 10.715.631 3.273 1.174 27.729 1.206 54.346l.058 48.394-3.273 3.272c-3.597 3.597-3.964 3.676-8.557 1.838zm-3.15-64.232L168.667 218l-9.459-.388c-6.7-.274-9.893.137-10.95 1.41-1.87 2.254-.088 26.207 3.098 41.645 3.223 15.616 13.027 38 16.644 38 .919 0 1.256-13.338 1.02-40.334zm330.068 60.876c-3.298-3.298-3.419-3.925-2.606-13.535.468-5.542.851-28.932.851-51.978v-41.901l4.004-4.003 4.003-4.004 17.286.44c14.176.36 17.698.851 19.576 2.732 3.161 3.166 3.823 15.175 1.843 33.442-4.226 38.99-12.462 60.474-29.11 75.931-7.766 7.211-10.937 7.786-15.847 2.876zm17.288-27.542c9.275-19.965 13.48-38.695 14.591-65l.366-8.667-8.45-.4c-5.226-.247-9.192.217-10.398 1.218-1.643 1.363-1.887 7.543-1.556 39.4.406 39.068 1.037 42.942 5.447 33.449z" transform="translate(3.38 6.56)"/><path style="fill:#2c2c2c;stroke-width:1.33333" d="M210.774 562.115c-2.812-2.994-2.991-4.18-2.565-17 .373-11.249 1.03-14.884 3.57-19.782 4.531-8.737 13.17-17.169 21.554-21.036 6.693-3.088 9.404-3.452 31.052-4.173 19.017-.634 23.968-1.187 24.98-2.79 1.953-3.098 1.641-37.697-.365-40.418-.917-1.243-5.61-3.687-10.429-5.43-28.404-10.28-56.66-31.954-76.332-58.554-7.446-10.068-9.264-11.276-21.572-14.332-10.063-2.5-24.763-9.585-36-17.353-28.719-19.854-47.307-52.97-53.835-95.914-4.221-27.765-5.661-78.03-2.535-88.465 2.178-7.269 10.929-16.194 17.703-18.055 3.073-.844 17.02-1.468 32.905-1.472 23.28-.007 27.897-.334 29.666-2.103 1.682-1.682 2.096-5.391 2.096-18.798 0-19.442 1.546-24.19 9.512-29.22l5.101-3.22h154.76c167.98 0 158.045-.44 165.293 7.31 3.14 3.359 3.38 4.676 4.138 22.755.495 11.807 1.42 19.932 2.402 21.116 1.278 1.539 7.268 2.017 29.863 2.382 31.344.507 32.956.891 40.677 9.685 6.694 7.624 7.331 12.392 6.516 48.752-1.584 70.743-13.457 106.631-45.273 136.853-12.224 11.612-24.677 19.13-39.656 23.944-6.233 2.002-12.833 4.154-14.667 4.781-1.875.642-6.762 5.784-11.175 11.76-19.057 25.807-45.881 46.171-77.204 58.612-11.126 4.42-11.624 5.537-11.6 26.013.01 9.554.588 18.27 1.282 19.37 1.017 1.613 6.114 2.155 26.313 2.799 28.68.913 33.921 2.371 44.158 12.28 10.158 9.832 13.51 18.665 13.54 35.689.018 10.242-.302 11.736-3.066 14.333l-3.086 2.9H213.798Zm249.797-9.544c5.1-5.1 1.16-20.261-7.715-29.688-8.716-9.259-11.824-10.055-42.323-10.841-20.48-.528-28.027-1.174-29.667-2.539-1.92-1.598-2.2-5.524-2.2-31 0-33.435-.335-32.428 12.174-36.53 11.848-3.888 31.884-14.53 43.187-22.94 13.683-10.181 24.032-20.634 34.791-35.14 5.177-6.978 10.055-12.14 12.23-12.94 1.99-.731 8.887-2.972 15.326-4.979 42.798-13.34 70.113-51.726 78.257-109.974 4.149-29.678 3.969-71.167-.338-77.74-5.115-7.806-6.856-8.197-40.066-8.99-38.18-.912-35.56.916-35.56-24.817 0-18.932-1.294-24.244-6.593-27.08-1.716-.918-52.086-1.373-152.089-1.373H190.462l-3.707 3.707c-3.66 3.66-3.715 3.962-4.361 24.082-.529 16.46-1.073 20.794-2.831 22.553-1.854 1.853-7.095 2.287-35.266 2.917-36.51.818-37.582 1.062-43.121 9.813-2.561 4.047-2.664 5.834-2.051 35.595.677 32.826 2.29 46.275 7.993 66.666 13.098 46.821 40.158 75.101 83.022 86.767 5.79 1.576 11.378 3.548 12.418 4.383 1.04.834 5.082 5.824 8.981 11.088 19.546 26.384 43.147 44.656 72.266 55.95 7.074 2.744 13.912 5.868 15.195 6.94 2.094 1.752 2.333 5 2.333 31.67 0 29.198-.052 29.754-2.963 31.793-2.4 1.681-7.408 2.087-26.333 2.135-25.104.062-29.477.88-38.632 7.224-6.868 4.76-13.405 17.02-13.405 25.142 0 11.116-10.362 10.242 121.333 10.242 104.716 0 117.365-.223 119.238-2.096zM278.805 345.954c-2.457-2.799-4.138-6.184-4.137-8.334.001-1.99 2.056-13.737 4.568-26.103 2.511-12.365 4.276-23.236 3.923-24.158-.354-.922-9.01-9.602-19.235-19.289l-18.59-17.613v-6.979c0-5.966.563-7.519 3.878-10.695 4.098-3.926 4.11-3.929 37.012-7.437 6.723-.717 13.712-1.981 15.53-2.81 3.148-1.434 9.24-12.813 19.968-37.3 4.316-9.851 8.73-13.236 17.256-13.236 9.086 0 11.6 3.066 22.86 27.89 10.175 22.434 11.065 23.367 23.62 24.766 37.46 4.174 37.822 4.244 42.503 8.182 3.559 2.995 4.039 4.237 4.039 10.449v7.05l-18.057 17.026c-9.932 9.364-18.624 18.084-19.316 19.377-.866 1.62-.018 8.473 2.724 22.014 2.19 10.814 3.982 22.915 3.982 26.89 0 6.21-.548 7.776-3.897 11.125-6.864 6.864-12.022 5.79-35.702-7.436C350.574 333.1 340.057 328 338.364 328c-1.693 0-12.067 5.09-23.054 11.31-17.069 9.664-20.879 11.314-26.172 11.334-5.436.02-6.702-.555-10.333-4.69zM312.233 326c27.991-15.605 24.658-15.846 60.724 4.387 12.255 6.875 16.376 7.607 16.376 2.908 0-1.33-1.8-11.012-4-21.515s-4-21.746-4-24.984c0-6.48.792-7.414 26.334-31.068 6.05-5.602 11-11.093 11-12.2 0-2.463-1.62-2.94-16-4.721-35.08-4.344-35.848-4.502-39.312-8.117-1.823-1.904-7.48-12.437-12.57-23.409-12.018-25.905-12.448-26.032-21.595-6.38-16.037 34.451-14.403 32.672-32.11 34.96-40.596 5.243-38.414 4.795-38.411 7.896 0 1.233 8.101 9.635 18 18.67l17.998 16.428v9.405c0 8.033-5.526 40.815-7.388 43.828-1.034 1.672.884 5.245 2.816 5.245.995 0 10.957-5.1 22.138-11.333zm-144.444-7c-16.507-13.222-26.488-34.376-31.062-65.838-2.35-16.17-2.73-41.419-.68-45.25 1.272-2.377 2.977-2.579 21.837-2.579 17.394 0 20.73.33 22.286 2.203 2.506 3.018 3.53 110.278 1.082 113.229-2.498 3.009-8.482 2.224-13.463-1.765zm2.564-59.903c.41-44.985.914-43.097-11.527-43.097-11.393 0-12.833 1.572-12.397 13.533.79 21.632 6.018 43.479 14.377 60.077 3.376 6.704 5.27 9.11 6.92 8.792 2.071-.399 2.306-3.907 2.627-39.305zm328.726 60.57c-.594-.917-.866-25.967-.606-55.667.407-46.428.763-54.327 2.54-56.333 1.78-2.01 4.618-2.334 20.432-2.334 14.917 0 18.758.394 20.46 2.096 2.738 2.738 2.804 19.627.158 40.95-4.081 32.901-10.986 50.744-25.741 66.518-5.154 5.51-6.75 6.436-11.092 6.436-2.79 0-5.558-.75-6.151-1.666zM515.017 295c2.605-2.898 9.83-20.936 11.77-29.38 2.72-11.853 5.165-30.29 5.19-39.144.026-10.059-.392-10.476-10.498-10.476-11.839 0-11.462-1.307-11.6 40.228-.122 36.63.096 41.105 2.004 41.105.57 0 1.98-1.05 3.134-2.333z" transform="translate(3.38 6.56)"/><path style="fill:#040404;stroke-width:1.33333" d="M211.54 561.562c-1.746-1.93-2.2-5.2-2.177-15.667.035-15.86 2.293-21.974 11.706-31.7 10.261-10.603 14.345-11.826 42.533-12.74 17.211-.56 24.772-1.291 26-2.518 1.927-1.926 3.252-30.634 1.776-38.5-.917-4.89-.366-4.534-19.378-12.535-26.094-10.982-51.296-31.336-69.827-56.393-6.238-8.435-8.3-10.278-12.804-11.448l-11.036-2.867c-15.884-4.13-37.295-17.468-50.226-31.292C99.053 314.843 88 275.571 88 203.394c0-25.582.921-30.008 7.737-37.175 6.362-6.69 7.218-6.85 40.533-7.552 23.387-.494 32.053-1.117 33.333-2.397 1.185-1.185 1.94-7.7 2.397-20.667.727-20.66 1.594-23.508 8.418-27.67 4.143-2.525 8.136-2.59 160.578-2.595l156.33-.005 5.15 4.653 5.15 4.653.772 18.347c.89 21.167 1.465 23.82 5.392 24.873 1.582.424 13.977.783 27.543.797 13.567.014 26.85.632 29.517 1.373 6.442 1.789 15.355 11.487 16.585 18.046 1.597 8.512-.371 72.051-2.703 87.258-4.158 27.117-13.191 51.63-25.258 68.539-3.254 4.561-11 13.104-17.21 18.983-12.837 12.151-25.75 19.564-43.597 25.028-6.234 1.908-11.934 3.915-12.667 4.46-.733.545-4.776 5.548-8.983 11.117-4.208 5.57-12.925 15.213-19.372 21.428-17.546 16.914-28.99 24.164-59.318 37.577-5.368 2.374-8.071 4.441-9 6.884-2.606 6.856-1.23 38.042 1.803 40.838.112.103 11.903.61 26.203 1.125 29.787 1.074 32.868 1.918 43.108 11.803 10.102 9.753 12.001 14.451 12.643 31.281.472 12.387.22 14.76-1.808 17-2.306 2.548-5.078 2.604-129.943 2.604-121.91 0-127.685-.109-129.793-2.438zm247.635-6.835c7.697-2.926 5.236-20.008-4.472-31.036-3.102-3.524-8.169-7.281-12.32-9.135-6.467-2.888-9.2-3.19-33.05-3.642-15.113-.286-26.698-1.068-27.666-1.866-2.516-2.074-2.38-60.13.145-62.225.996-.827 5.046-2.618 9-3.98 12.312-4.242 33.44-15.544 44.548-23.83 13.668-10.196 22.671-19.335 34.128-34.644 8.859-11.839 9.494-12.381 16.859-14.396 26.866-7.348 46.193-19.514 60.135-37.853 11.438-15.046 21.212-37.157 25.986-58.787 7.194-32.593 8.701-84.519 2.75-94.71-5.306-9.084-8.394-9.877-41.347-10.623-22.223-.503-30.003-1.116-31.666-2.497-1.838-1.525-2.218-4.74-2.28-19.333-.09-20.927-1.45-25.934-7.925-29.168-4.358-2.177-14.357-2.331-151.043-2.333-154.914-.002-151.886-.118-156.957 5.996-1.502 1.81-2.187 7.51-2.753 22.892-.494 13.444-1.312 21.042-2.382 22.112-1.155 1.154-11.05 1.83-33.914 2.314-37.075.785-39.152 1.345-44.727 12.048-3.047 5.848-3.096 6.55-2.433 34.636 1.106 46.883 8.124 76.65 24.804 105.21 13.43 22.995 39.068 41.734 66.738 48.78 11.517 2.932 13.421 4.334 22.255 16.39 18.55 25.317 43.089 43.848 74.666 56.385 5.727 2.274 11.163 4.755 12.08 5.514 2.332 1.932 2.394 59.793.066 62.12-1.116 1.116-8.481 1.614-24.333 1.644-24.48.047-31.588 1.42-41.106 7.942-12.25 8.394-18.841 32.394-9.887 36 4.045 1.63 231.822 1.702 236.1.075zM279.583 345.594c-4.669-4.873-4.618-8.921.433-34.202 2.191-10.967 3.984-21.206 3.984-22.753 0-1.885-6.155-8.644-18.667-20.497l-18.666-17.685v-7.11c0-6.159.502-7.532 3.751-10.267 3.142-2.644 6.337-3.43 19.667-4.838 20.823-2.2 31.991-4.162 34.417-6.047 1.08-.84 6.195-10.774 11.365-22.073 11.66-25.487 12.776-26.789 22.964-26.789 7.141 0 7.932.315 10.903 4.334 1.761 2.383 7.035 12.726 11.72 22.985 4.684 10.259 9.507 19.642 10.717 20.853 2.308 2.307 10.105 3.814 36.296 7.017 19.538 2.388 22.2 4.17 22.2 14.865v6.922L412 267.953c-15.241 14.406-18.667 18.32-18.667 21.329 0 2.026 1.5 11.05 3.334 20.051 1.833 9.002 3.333 20.38 3.333 25.285 0 11.434-2.82 14.715-12.653 14.715-5.662 0-9.066-1.448-26.957-11.467-14.731-8.25-21.306-11.254-23.433-10.708-1.626.417-11.455 5.577-21.842 11.467-16.51 9.362-19.707 10.708-25.418 10.708-5.416 0-7.143-.638-10.114-3.74zm31.56-18.26c27.24-15.234 27.298-15.235 53.605-.667 19.03 10.538 24.04 12.307 25.33 8.944.364-.948-1.155-10.394-3.375-20.991-2.22-10.598-4.036-22.647-4.036-26.776v-7.507l17.666-16.411c18.329-17.026 21.09-20.37 18.754-22.706-.748-.748-8.199-2.237-16.557-3.31-33.35-4.28-35.004-4.63-38.784-8.201-1.994-1.884-7.593-12.264-12.6-23.36-4.957-10.984-9.874-20.301-10.927-20.705-3.589-1.378-5.71 1.687-14.92 21.556-5.066 10.927-10.472 21.21-12.014 22.852-2.916 3.103-6.31 3.794-36.618 7.454-15.99 1.932-19.334 2.998-19.334 6.167 0 1.383 6.875 8.627 16.164 17.032 21.805 19.728 21.367 19.09 20.458 29.83-.41 4.839-2.296 16.71-4.192 26.38-3.35 17.084-3.428 21.752-.366 21.752.815 0 10.6-5.1 21.747-11.334zm-148.43-14.265c-18.002-18.147-27.337-49.606-26.43-89.069l.384-16.667h42.497l1.1 4.247c.605 2.335.943 27.835.752 56.666l-.35 52.42-4.809.403c-4.347.364-5.61-.405-13.144-8zm8.634-17.402c.44-2.384.618-20.655.394-40.602-.31-27.54-.825-36.686-2.141-38-2.393-2.39-19.153-2.316-22.062.098-3.077 2.554-2.898 15.856.466 34.535 5.752 31.946 20.448 59.626 23.343 43.969zm328.423 23.659c-1.335-1.336.526-109.297 1.915-111.027 1.02-1.272 6.287-1.608 20.84-1.334l19.475.368.43 12c.49 13.72-1.675 36.99-4.715 50.65-4.306 19.353-10.463 31.896-21.393 43.581-5.094 5.446-6.778 6.436-10.949 6.436-2.71 0-5.232-.303-5.603-.674zm15.285-23.019c7.806-8.625 18.223-48.79 18.234-70.307.005-9.692-1.017-10.667-11.193-10.667-13.989 0-13.43-1.71-13.43 41.051 0 42.176.654 46.26 6.39 39.923z" transform="translate(3.38 6.56)"/></svg>