<svg xmlns="http://www.w3.org/2000/svg" viewBox="0 0 192 192"><path fill="none" stroke="#000" stroke-linecap="round" stroke-linejoin="round" stroke-width="12" d="M72.231 38.396 35.68 17.346a6.375 6.375 0 0 0-8.062 1.418 6.339 6.339 0 0 0-1.489 4.083v146.307a6.34 6.34 0 0 0 1.489 4.082 6.375 6.375 0 0 0 8.062 1.418l127.024-73.153a6.362 6.362 0 0 0 2.8-3.329 6.335 6.335 0 0 0 0-4.344 6.356 6.356 0 0 0-2.8-3.328l-11.206-6.454"/><path fill="none" stroke="#000" stroke-linecap="round" stroke-linejoin="round" stroke-width="12" d="M99.742 137.761H52.539a6.375 6.375 0 0 1-5.515-3.176 6.336 6.336 0 0 1-.853-3.175V38.396h105.327v69.558M46.171 60.299h105.327"/><path fill="none" stroke="#000" stroke-linecap="round" stroke-linejoin="round" stroke-width="8" d="M69.557 101.137a6.376 6.376 0 0 0-4.502 1.86 6.342 6.342 0 0 0 0 8.982 6.377 6.377 0 0 0 9.005 0 6.347 6.347 0 0 0 1.865-4.491c0-1.684-.672-3.3-1.865-4.491a6.378 6.378 0 0 0-4.503-1.86Zm21.495-21.441a6.384 6.384 0 0 0-3.753 1.206 6.339 6.339 0 0 0 0 10.291 6.377 6.377 0 0 0 3.753 1.206 6.376 6.376 0 0 0 4.502-1.86 6.342 6.342 0 0 0 0-8.982 6.377 6.377 0 0 0-4.502-1.861Zm15.284 15.246c-1.688 0-3.309.67-4.502 1.861a6.342 6.342 0 0 0 0 8.982 6.374 6.374 0 0 0 4.502 1.86 6.374 6.374 0 0 0 4.502-1.86 6.342 6.342 0 0 0 0-8.982 6.375 6.375 0 0 0-4.502-1.861Zm22.947-22.888a6.375 6.375 0 0 0-3.743 1.213 6.347 6.347 0 0 0-2.313 7.101 6.347 6.347 0 0 0 2.313 3.175 6.375 6.375 0 0 0 7.485 0 6.347 6.347 0 0 0 2.313-7.101 6.372 6.372 0 0 0-6.055-4.388Zm-4.503 10.842-13.942 13.907m-15.284-6.264 6.28 6.264m-27.774 6.195 12.49-12.459"/></svg>