<svg xmlns="http://www.w3.org/2000/svg" viewBox="0 0 192 192"><path d="M69.778 57.698a14.723 14.723 0 0 1-4.451-8.777 14.748 14.748 0 0 1 2.067-9.627 14.665 14.665 0 0 1 7.658-6.159 14.603 14.603 0 0 1 9.813.073 14.661 14.661 0 0 1 7.566 6.272 14.742 14.742 0 0 1-2.654 18.367M57.21 46.94a44.644 44.644 0 0 0-27.964 13.645 44.936 44.936 0 0 0-12.329 28.647c-4.029 40.065 22.512 73.824 22.512 73.824H58.91a64.658 64.658 0 0 0 7.467-9.533h25.358a40.449 40.449 0 0 0 7.468 9.533h19.481a101.709 101.709 0 0 0 7.319-11.352s33.824-8.199 33.824-31.347H175.5V87.822h-11.864a50.621 50.621 0 0 0-10.979-24.107A50.357 50.357 0 0 0 131.03 48.5a24.052 24.052 0 0 0-8.446-14.192 23.898 23.898 0 0 0-15.581-5.359c-3.102 0-1.398 6.121-1.398 16.101 0 1.706.056 1.614-3.674 1.669" fill="none" stroke="#000" stroke-width="12" stroke-linecap="round" stroke-linejoin="round"/><path d="M124.857 90.715s.775-6.121 10.572-6.121c9.798 0 10.573 6.121 10.573 6.121M59.428 58.069h41.032m-33.27 48.227s-1.012 12.947 15.044 12.947c16.057 0 15.044-9.533 15.044-9.533 0-12.315-30.09-6.455-30.09-18.808 0 0-1.013-9.905 15.044-9.905 16.056 0 15.044 12.947 15.044 12.947m-14.93 30.903V74.763" fill="none" stroke="#000" stroke-width="12" stroke-linecap="round" stroke-linejoin="round"/></svg>