<svg width="192" height="192" viewBox="0 0 192 192" fill="none" version="1.1" id="svg1011" xml:space="preserve" xmlns="http://www.w3.org/2000/svg"><defs id="defs1009"><filter id="mask-powermask-path-effect5363_inverse" style="color-interpolation-filters:sRGB" height="100" width="100" x="-50" y="-50"><feColorMatrix id="mask-powermask-path-effect5363_primitive1" values="1" type="saturate" result="fbSourceGraphic"/><feColorMatrix id="mask-powermask-path-effect5363_primitive2" values="-1 0 0 0 1 0 -1 0 0 1 0 0 -1 0 1 0 0 0 1 0" in="fbSourceGraphic"/></filter><filter id="mask-powermask-path-effect5414_inverse" style="color-interpolation-filters:sRGB" height="100" width="100" x="-50" y="-50"><feColorMatrix id="mask-powermask-path-effect5414_primitive1" values="1" type="saturate" result="fbSourceGraphic"/><feColorMatrix id="mask-powermask-path-effect5414_primitive2" values="-1 0 0 0 1 0 -1 0 0 1 0 0 -1 0 1 0 0 0 1 0" in="fbSourceGraphic"/></filter><filter id="mask-powermask-path-effect5444_inverse" style="color-interpolation-filters:sRGB" height="100" width="100" x="-50" y="-50"><feColorMatrix id="mask-powermask-path-effect5444_primitive1" values="1" type="saturate" result="fbSourceGraphic"/><feColorMatrix id="mask-powermask-path-effect5444_primitive2" values="-1 0 0 0 1 0 -1 0 0 1 0 0 -1 0 1 0 0 0 1 0" in="fbSourceGraphic"/></filter><filter id="mask-powermask-path-effect5462_inverse" style="color-interpolation-filters:sRGB" height="100" width="100" x="-50" y="-50"><feColorMatrix id="mask-powermask-path-effect5462_primitive1" values="1" type="saturate" result="fbSourceGraphic"/><feColorMatrix id="mask-powermask-path-effect5462_primitive2" values="-1 0 0 0 1 0 -1 0 0 1 0 0 -1 0 1 0 0 0 1 0" in="fbSourceGraphic"/></filter><filter id="mask-powermask-path-effect5473_inverse" style="color-interpolation-filters:sRGB" height="100" width="100" x="-50" y="-50"><feColorMatrix id="mask-powermask-path-effect5473_primitive1" values="1" type="saturate" result="fbSourceGraphic"/><feColorMatrix id="mask-powermask-path-effect5473_primitive2" values="-1 0 0 0 1 0 -1 0 0 1 0 0 -1 0 1 0 0 0 1 0" in="fbSourceGraphic"/></filter><filter id="mask-powermask-path-effect7499_inverse" style="color-interpolation-filters:sRGB" height="100" width="100" x="-50" y="-50"><feColorMatrix id="mask-powermask-path-effect7499_primitive1" values="1" type="saturate" result="fbSourceGraphic"/><feColorMatrix id="mask-powermask-path-effect7499_primitive2" values="-1 0 0 0 1 0 -1 0 0 1 0 0 -1 0 1 0 0 0 1 0" in="fbSourceGraphic"/></filter><filter id="mask-powermask-path-effect7510_inverse" style="color-interpolation-filters:sRGB" height="100" width="100" x="-50" y="-50"><feColorMatrix id="mask-powermask-path-effect7510_primitive1" values="1" type="saturate" result="fbSourceGraphic"/><feColorMatrix id="mask-powermask-path-effect7510_primitive2" values="-1 0 0 0 1 0 -1 0 0 1 0 0 -1 0 1 0 0 0 1 0" in="fbSourceGraphic"/></filter><clipPath id="a"><path fill="#fff" d="M0 0h192v192H0z" id="path1006"/></clipPath><clipPath clipPathUnits="userSpaceOnUse" id="clipPath7516"><path d="M18.79 67.427a5.31 5.31 0 0 1-4.034-5.146V33.623c0-2.763 2.61-4.789 5.304-4.116l17.054 4.26a5.31 5.31 0 0 1 4.033 5.146V67.57c0 2.762-2.61 4.789-5.304 4.116z" fill="#fff" id="path7518" style="display:block;fill:#fff;fill-opacity:1;stroke:none;stroke-width:4.4;stroke-dasharray:none;stroke-opacity:1"/></clipPath><clipPath clipPathUnits="userSpaceOnUse" id="clipPath7528"><path d="M34.838 60.83a5.31 5.31 0 0 1-4.033-5.147V27.026c0-2.763 2.61-4.79 5.303-4.117l17.054 4.26a5.31 5.31 0 0 1 4.034 5.146v28.658c0 2.763-2.61 4.79-5.304 4.116z" fill="#fff" id="path7530" style="display:block;fill:#fff;fill-opacity:1;stroke:none;stroke-width:4.4;stroke-dasharray:none;stroke-opacity:1"/></clipPath><style type="text/css" id="style1182">.fil4{fill:#fefefe}.fil3{fill:#00ae42}.fil5{fill:red}.fil0{fill:#00ae42;fill-rule:nonzero}</style></defs><path d="M49.84 74.12C39.75 79.104 24.13 68.375 20 62.059c28.63 4.473 1.074-7.018 18.858-6.6 6.355.33 16.697 11.401 21.614 12.954-2.205 2.6-8.104 4.248-10.632 5.707z" id="path1189" style="clip-rule:evenodd;display:inline;fill:none;fill-opacity:0;fill-rule:evenodd;stroke:#000;stroke-width:12;stroke-linecap:round;stroke-linejoin:round;stroke-dasharray:none;stroke-opacity:1;image-rendering:optimizeQuality;shape-rendering:geometricPrecision;text-rendering:geometricPrecision"/><path d="M103.083 150.29V80.846H73.948V41.712h70.638v106.433zm54.678-6.115 10.117-9.26-10.092-9.711 10.21-10.882-10.206-10.885 10.206-10.882-10.206-10.877L168 70.801l-10.21-10.877 10.206-10.877-9.798-7.336" id="path25" style="clip-rule:evenodd;display:inline;fill:none;fill-opacity:0;fill-rule:nonzero;stroke:#000;stroke-width:12;stroke-linecap:round;stroke-linejoin:round;stroke-dasharray:none;stroke-opacity:1;image-rendering:optimizeQuality;shape-rendering:geometricPrecision;text-rendering:geometricPrecision"/><path d="M127.804 66.718h-19.07v-3.305c0-9.161 6.694-11.325 9.594-11.325 3.323 0 9.476 2.677 9.476 10.146z" style="clip-rule:evenodd;display:inline;fill:#000;fill-opacity:1;fill-rule:nonzero;stroke:none;stroke-width:12;stroke-linecap:round;stroke-linejoin:round;stroke-dasharray:none;stroke-opacity:1;image-rendering:optimizeQuality;shape-rendering:geometricPrecision;text-rendering:geometricPrecision" id="path1980"/></svg>