<svg xmlns="http://www.w3.org/2000/svg" viewBox="0 0 192 192"><path d="M81.007 175.207c-5.103-.749-14.655-4.025-20.897-7.166-21.99-11.069-39.04-33.487-43.078-56.64-1.178-6.753-1.343-21.665-.319-28.849.906-6.366 3.588-14.437 7.304-21.99 9.58-19.468 27.032-34.445 48.175-41.344 7.306-2.384 13.29-3.172 24.214-3.189 14.754-.022 25.598 2.593 37.4 9.019 21.805 11.873 38.31 34.617 41.479 57.159.972 6.91.764 24.215-.361 30.093-2.722 14.22-11.129 29.725-22.023 40.619-10.901 10.902-26.398 19.3-40.643 22.027-5.461 1.045-24.809 1.207-31.251.261Zm34.03-4.669c21.839-6.288 39.608-20.615 48.999-39.507 7.098-14.279 8.923-22.85 8.267-38.826-.495-12.047-2.242-18.675-7.979-30.277-8.999-18.197-24.111-31.461-43.896-38.529-12.528-4.475-30.453-5.098-43.755-1.521-7.973 2.144-21.346 8.748-27.165 13.413-11.434 9.169-19.111 19.372-24.853 33.03-4.756 11.312-6.401 26.98-4.209 40.088 4.147 24.802 19.864 45.676 42.497 56.441 13.78 6.554 19.4 7.709 35.794 7.353 8.869-.193 12.462-.56 16.3-1.665Zm-24.943-5.764c-.927-1.991-1.689-3.215-1.692-2.721-.008.963-3.514 5.652-4.227 5.652-.235 0-.819-1.401-1.299-3.112-.705-2.52-.701-3.913.02-7.313l.892-4.2 2.476.482c2.819.549 5.085.825 7.819.953 1.852.087 1.896.187 1.896 4.305 0 4.109-2.058 9.574-3.606 9.574-.327 0-1.352-1.629-2.279-3.62Zm-.522-7.576c-.165-.858-.306-.318-.314 1.198-.007 1.517.128 2.219.3 1.56.173-.659.179-1.9.014-2.758Zm8.609 8.203c-1.248-2.354-1.543-3.863-1.377-7.067l.21-4.075 3.275.044c1.801.024 3.275-.175 3.275-.442s1.13-.617 2.511-.778c2.089-.244 2.575-.054 2.891 1.131.357 1.335.406 1.319.787-.265.322-1.335 1.198-1.925 4.176-2.811 2.073-.617 4.477-1.502 5.343-1.966 1.487-.799 1.666-.642 3.284 2.892 1.595 3.486 2.225 9.714 1.054 10.438-1.089.673-5.508-4.607-6.596-7.883-.649-1.953-1.335-3.396-1.524-3.207-.19.19.173 1.904.806 3.81 1.11 3.343.937 9.725-.264 9.725-.686 0-4.645-4.292-5.089-5.516-.234-.645-.396-.415-.43.609-.075 2.274-1.539 6.975-2.172 6.975-.287 0-1.479-1.302-2.649-2.894-1.484-2.017-2.128-3.675-2.128-5.475 0-1.42-.233-2.726-.517-2.903-.285-.177-.415 1.461-.289 3.641.221 3.837-1.177 9.01-2.435 9.01-.305 0-1.268-1.347-2.142-2.993Zm12.059-8.858c-.22-.55-.383-.386-.416.417-.03.727.133 1.134.362.905.229-.229.254-.824.054-1.322Zm-34.607 7.542c-.704-3.822-.625-4.883.648-8.681l1.234-3.683 2.51.469c1.38.258 2.608.566 2.729.685.122.119-.137 2.032-.573 4.252-.583 2.962-1.424 4.722-3.16 6.617-1.301 1.42-2.503 2.582-2.67 2.582-.168 0-.49-1.009-.718-2.241Zm-7.32-2.241c-.047-.948-.136-2.422-.198-3.275-.109-1.507 1.961-7.157 3.06-8.349.547-.594 5.498.699 5.498 1.437 0 .216-.659 2.201-1.465 4.412-.987 2.706-2.211 4.588-3.746 5.759-2.826 2.155-3.042 2.156-3.149.016Zm-7.09-1.546c-.224-.224-.408-1.737-.408-3.361 0-2.63 2.025-6.871 4.835-10.126.263-.305 1.567.089 2.899.874l2.42 1.428-2.074 3.952c-1.943 3.702-6.71 8.196-7.672 7.233Zm66.287-3.306c-2.143-1.457-6.694-8.318-5.893-8.885.12-.085 1.215-.843 2.433-1.683l2.214-1.529 1.642 2.614c.903 1.437 2.001 3.291 2.44 4.12.889 1.679 1.095 7.112.268 7.112-.291 0-1.688-.787-3.104-1.749Zm-72.905-4.083c.257-1.691 1.331-4.321 2.387-5.845 2.984-4.305 3.46-4.534 5.867-2.82 1.151.82 2.093 1.629 2.093 1.799 0 1.433-5.319 7.851-7.282 8.787-3.413 1.628-3.587 1.519-3.065-1.921Zm79.192.304c-1.609-.85-3.271-2.633-4.6-4.935l-2.081-3.605 2.139-1.578c2.01-1.483 2.216-1.509 3.415-.424 2.207 1.997 4.226 5.842 4.696 8.944.518 3.413.165 3.571-3.569 1.598Zm-86.082-2.096c0-3.168 1.807-6.989 4.535-9.589l3.031-2.889 2.077 1.479c1.143.814 2.078 1.718 2.078 2.009 0 1.608-5.377 7.14-8.119 8.353-3.595 1.59-3.602 1.592-3.602.637Zm38.956.279c-6.185-.983-16.893-5.306-22.262-8.987-4.578-3.138-12.481-11.161-15.396-15.63-5.947-9.117-9.316-21.682-8.625-32.161.997-15.091 6.171-26.478 16.954-37.311 5.702-5.728 7.488-7.06 13.137-9.794 9.969-4.826 15.943-6.276 25.845-6.276 9.621 0 15.638 1.408 24.736 5.788 24.804 11.942 36.431 41.703 26.612 68.12-6.113 16.448-18.301 28.109-35.681 34.139-5.257 1.824-7.098 2.108-14.633 2.264-4.74.097-9.549.029-10.687-.152Zm10.828-8.341.204-4.654h6.206v2.758c0 2.298-.23 2.758-1.379 2.758-.906 0-1.455-.533-1.6-1.551-.148-1.044.134-1.552.862-1.552.595 0 1.082-.31 1.082-.689 0-1.032-1.782-.831-2.726.307-.455.548-.726 1.711-.602 2.585.19 1.337.636 1.59 2.812 1.59 2.003 0 2.586.271 2.585 1.206 0 1.237 1.027 1.645 1.64.653.306-.496-.436-4.811-1.344-7.82-.256-.845.438-1.4 2.729-2.18 1.689-.576 3.251-.867 3.471-.648.702.703.428 1.549-.504 1.549-.496 0-1.504.444-2.241.988-1.072.791-1.167 1.161-.476 1.861.474.481.862 1.71.862 2.731 0 2.018 1.114 2.741 4.021 2.612 1.805-.08 1.801-.09-.229-.524-1.626-.347-2.068-.809-2.068-2.159 0-1.256.416-1.776 1.551-1.937.853-.121 1.551.111 1.551.517 0 .405.311.737.69.737.379 0 .689-.492.689-1.093 0-.86-.612-1.044-2.867-.862-3.409.275-4.184-.87-1.32-1.951 1.548-.585 1.944-1.093 1.67-2.145-.199-.758-.034-1.58.366-1.826.417-.259 1.618 1.319 2.828 3.714 1.155 2.29 2.407 4.163 2.781 4.163.983 0 .897-.298-1.402-4.851l-2.081-4.123 2.467-1.176c2.143-1.022 2.55-1.044 3.104-.167.937 1.484.371 2.412-1.352 2.217-3.209-.363.879 2.561 4.942 3.535 2.572.617 2.416-.635-.193-1.544-1.758-.613-2.022-.993-1.667-2.405.231-.923.085-1.885-.325-2.138-.41-.254-.745-1.066-.745-1.806 0-1.201-.39-1.088-3.62 1.052-9.25 6.126-23.507 7.881-34.647 4.266-6.226-2.02-11.456-5.282-15.698-9.79-3.391-3.603-4.89-4.079-2.348-.746l1.769 2.319-1.897 1.818c-2.185 2.093-3.025 2.241-4.264.749-.733-.883-.686-1.27.272-2.227.959-.96 1.394-1.012 2.526-.305.762.476 1.368.557 1.368.183 0-.369-.62-1.003-1.379-1.409-3.035-1.624-5.749 2.63-3.087 4.84.606.503.878 1.413.643 2.153-.388 1.222.701 1.888 1.18.722.635-1.544 5.895-5.503 6.674-5.022.615.38-.065 1.563-2.373 4.13-2.192 2.438-3.009 3.824-2.534 4.299.475.475 1.16-.042 2.125-1.602.782-1.267 2.208-3.041 3.167-3.942l1.744-1.639 2.449 1.868c2.827 2.156 2.627 3.654-.287 2.148-2.117-1.096-2.806-.82-2.806 1.124 0 .695-.444 1.264-.988 1.264-.543 0-1.196.657-1.451 1.461-.5 1.574.84 4.744 2.004 4.744.423 0 .376-.334-.117-.827-.455-.455-.827-1.562-.827-2.459 0-1.373.3-1.597 1.896-1.414 1.256.145 1.899.624 1.904 1.419.008 1.472 1.289 1.681 1.586.259.118-.565-.58-1.548-1.552-2.185-.971-.636-1.765-1.587-1.765-2.112 0-1.255.714-1.205 2.705.19 1.531 1.072 1.69 1.066 2.531-.083.859-1.175 1.032-1.173 4.048.062 4.797 1.963 3.45 4.38-1.528 2.742-1.263-.416-1.551-.254-1.551.874 0 .761.31 1.576.689 1.811.38.234.69.097.69-.304 0-1.121 2.749-.867 3.195.295.216.564.068 1.96-.331 3.103-.572 1.64-.529 2.077.206 2.077.543 0 1.267-1.409 1.743-3.392 1.181-4.922 1.824-5.485 5.397-4.726 1.634.347 3.144 1.081 3.355 1.631.514 1.341-2.891 4.693-4.242 4.175-1.56-.599-1.269-2.466.502-3.22l1.552-.66-1.654.166c-3.886.389-3.692 4.647.212 4.647 1.317 0 2.605.34 2.862.756.257.415 1.361.624 2.454.464 1.57-.231 1.986-.028 1.986.968 0 .692.296 1.259.658 1.259.362 0 .75-2.094.862-4.654Zm-5.198 1.119c-1.216-.707-1.212-.785.115-2.021.866-.807 1.243-1.809 1.012-2.691-.284-1.088-.037-1.406 1.092-1.406 1.265 0 1.459.404 1.459 3.029 0 2.126-.325 3.154-1.09 3.448-1.306.501-1.047.537-2.588-.359Zm17.74-16.705c20.787-9.604 26.642-36.472 11.543-52.965-14.036-15.331-34.402-15.862-49.102-1.279-13.743 13.633-13.6 33.372.342 47.302 7.803 7.796 13.759 10.067 25.288 9.641 5.842-.215 7.233-.53 11.929-2.699Zm-.623-4.593c-.239-.385-.701-.535-1.028-.333-1.224.756-1.395-1.072-.298-3.193 1.062-2.053 1.057-2.434-.077-5.771-1.117-3.284-1.127-3.748-.128-5.751 1.006-2.016 1-2.178-.085-2.178-.951 0-1.122-.519-.909-2.758.148-1.551-.038-2.758-.425-2.758-.904 0-1.525 1.699-1.525 4.17 0 1.094-.507 3.053-1.128 4.353-.927 1.946-1.935 2.672-5.688 4.105-2.508.958-5.255 1.941-6.104 2.185-2.303.662-5.395-1.508-8.313-5.833a352.727 352.727 0 0 0-5.485-7.838c-2.853-3.945-3.587-6.171-2.297-6.968.349-.216 1.1.073 1.669.642 1.19 1.19 4.943.758 6.717-.773.6-.517 1.248-.783 1.441-.59.192.192.915-.274 1.606-1.037 1.683-1.861 1.217-2.118-2.375-1.311-1.665.374-3.885.491-4.934.261-2.261-.497-7.283-5.712-7.912-8.218-.243-.97-.845-1.764-1.337-1.764-.581 0-.762-.545-.516-1.552.627-2.558 1.529-3.247 3.689-2.815 1.815.363 2.008.226 2.008-1.432 0-1.81.047-1.828 3.62-1.379 1.991.25 3.914.726 4.275 1.058.849.783 3.644.782 3.941-.002.127-.333 1.198-.814 2.381-1.069 1.845-.398 2.209-.244 2.556 1.084.396 1.513.437 1.519 1.814.273.775-.701 1.408-1.829 1.408-2.507 0-.677.233-1.358.518-1.514 1.066-.582 10.681.735 11.173 1.531.942 1.523 4.282 2.882 5.204 2.117 1.196-.993 2.46.7 1.957 2.623-.295 1.13-.092 1.515.799 1.515.902 0 1.114.422.866 1.719-.187.979.076 2.055.61 2.498.515.428.937 1.13.937 1.56 0 .43.885 1.173 1.967 1.652 2.259 1 5.227 6.159 4.554 7.914-.244.634-1.076 1.353-1.849 1.599-1.102.35-1.201.573-.459 1.032.754.466.773.759.091 1.441-.471.471-.856 1.58-.856 2.464 0 1.02-.547 1.811-1.494 2.161-.964.357-1.521 1.18-1.571 2.323-.071 1.626.107 1.74 2.183 1.403 2.557-.415 3.153.817.762 1.576-2.435.773-4.04 2.605-3.302 3.772.921 1.457.811 2.967-.328 4.504-.793 1.069-1.244 1.186-2.241.58-1.106-.673-1.269-.476-1.428 1.723-.233 3.243-3.361 5.599-4.654 3.506Zm25.863 6.3c0-.334-1.397-1.751-3.103-3.149-1.707-1.398-3.103-2.836-3.103-3.195 0-1.166 3.079-5.443 3.924-5.452 1.459-.015 1.739 1.389.617 3.1-1.461 2.231-1.378 3.097.299 3.097 1.139 0 1.314-.312.961-1.717-.566-2.256 1.043-2.89 3.82-1.505 3.975 1.983 2.81-.161-1.321-2.43-2.28-1.252-4.14-2.432-4.133-2.622.008-.19.43-.893.939-1.563 1.028-1.355 3.168-.948 3.168.602 0 1.108 1.261 1.236 2.758.279.817-.522.437-.897-1.813-1.785-2.216-.875-2.771-1.412-2.507-2.425.355-1.355 1.371-1.334 5.974.122 2.488.788 4.055.814 3.59.06-.195-.315-2.07-.956-4.166-1.426-4.11-.919-4.761-1.412-4.109-3.11.538-1.403 1.939-1.4 3.346.006 1.542 1.542 3.454.082 2.303-1.76-1.221-1.955-.174-3.708 1.902-3.187.962.242 2.123.204 2.579-.083.813-.51-9.005-2.22-10.029-1.746-.285.131-.517 1.228-.517 2.437 0 1.208-.789 4.566-1.753 7.462l-1.754 5.264-4.038 1.473c-2.221.809-4.232 1.976-4.468 2.592-.518 1.35.132 3.683 1.027 3.683.354 0 .643.611.643 1.357 0 .8.354 1.224.862 1.032.474-.179 2.258.903 3.965 2.405 3.136 2.761 4.137 3.289 4.137 2.184Zm-9.581-8.222c-.366-.684-.444-1.603-.172-2.042.592-.958 5.62-3.145 6.109-2.656.533.533-3.489 5.911-4.434 5.927-.46.008-1.137-.545-1.503-1.229Zm12.93-17.148c-1.818-.477-.758-2.983 1.261-2.983 1.344 0 1.646.308 1.471 1.498-.235 1.595-.91 1.962-2.732 1.485Zm-83.825 15.128c1.978-1.036 4.062-1.897 4.631-1.912 1.073-.029 1.06-2.438-.016-3.106-.861-.535-3.431-10.927-3.431-13.871 0-1.423-.311-2.779-.69-3.014-.379-.234-.689.213-.689.994 0 1.022-.445 1.42-1.586 1.42-.872 0-1.904-.318-2.292-.706-.481-.482-1.107-.262-1.968.689-1.131 1.25-1.144 1.395-.122 1.395.628 0 1.141.285 1.141.634 0 .348.174 1.085.386 1.639.278.724-.302 1.135-2.068 1.466-1.569.295-2.455.85-2.455 1.538 0 .743.374.932 1.207.61 1.924-.743 7.949-1.787 8.298-1.438 1.015 1.015-.95 2.345-4.615 3.123-2.31.49-4.2 1.159-4.2 1.486 0 .834 1.194.747 5.538-.401 3.423-.905 3.85-.892 4.641.144 1.262 1.654.661 2.584-1.628 2.521-1.998-.055-3.005.698-3.025 2.261-.008.602.667.544 2.483-.215 2.526-1.056 4.402-.889 4.402.391 0 .386-1.862 1.641-4.137 2.789-2.276 1.149-4.137 2.395-4.137 2.768 0 .981.343.885 4.332-1.205Zm-3.643-16.313c0-1.458.326-1.798 1.724-1.798 1.264 0 1.724.368 1.724 1.379 0 .759-.285 1.379-.633 1.379-.349 0-1.124.189-1.724.419-.823.316-1.091-.023-1.091-1.379Zm13.445 10.613c-.234-.379-1.106-.667-1.936-.641-1.457.047-1.462.07-.132.641 1.898.816 2.572.816 2.068 0Zm78.628-26.323c1.985.22 1.991.21.71-1.206-1.249-1.38-1.251-1.477-.046-2.808 1.219-1.347 1.205-1.379-.604-1.379-1.248 0-2.027-.469-2.384-1.436-.516-1.395-.553-1.387-1.317.291-.597 1.308-1.149 1.631-2.284 1.334-1.362-.356-1.423-.254-.674 1.146.684 1.278.61 1.775-.438 2.945-1.249 1.393-1.238 1.403.979.922 1.916-.415 2.241-.295 2.241.833 0 2.031.98 2.542 1.421.741.318-1.296.78-1.562 2.397-1.383Zm-87.119-1.472 2.204.441-1.509-1.621-1.51-1.62 1.481-1.576 1.48-1.576-2.117.607c-2.032.583-2.143.505-2.732-1.915l-.614-2.522-.861 2.552c-.791 2.345-1.001 2.499-2.587 1.896-2.591-.985-2.723-.823-.904 1.114l1.663 1.77-1.715 1.372-1.715 1.373 2.247-.441c2.117-.415 2.274-.308 2.707 1.857l.46 2.297.908-2.225c.826-2.022 1.109-2.184 3.114-1.783Zm78.839-12.266c2.084-1.176 4.252-1.962 4.816-1.745 3.174 1.218-1.927-5.998-8.497-12.02-4.636-4.249-16.342-10.756-18.216-10.127-.482.162.288.68 1.71 1.15 2.653.878 2.891 1.22 2.167 3.106-.593 1.545-1.98 1.351-3.305-.461-1.1-1.506-1.122-1.46-.723 1.551.563 4.255.972 5.516 1.79 5.516.417 0 .515-.833.244-2.068-.408-1.854-.281-2.069 1.213-2.069 1.11 0 1.931-.576 2.453-1.724.886-1.943 1.346-2.062 3.026-.785 1.084.823.985 1.178-1.251 4.498-3.386 5.028-2.541 6.055 1.018 1.237l2.919-3.951 3.14 2.255c3.919 2.815 7.992 7.264 7.637 8.343-.382 1.16-3.259 1.463-3.278.345-.009-.5-.592-1.659-1.296-2.576-1.26-1.638-1.289-1.642-1.735-.236-.538 1.695-2.415 2.578-3.395 1.597-.468-.467-.447-1.505.063-3.165.572-1.866.56-2.405-.049-2.201-.444.148-.992 1.403-1.217 2.79-.31 1.905-.112 2.792.81 3.626 1.242 1.124 4.076.814 4.076-.446 0-.354.499-.643 1.108-.643.789 0 .962.347.601 1.206-1.141 2.715-1.149 4.403-.025 5.644.764.845.912 1.443.43 1.741-.748.461-1.027 1.751-.38 1.751.196 0 2.061-.962 4.146-2.139Zm-3.763-2.597c-.856-1.6-.339-2.159 1.997-2.159.999 0 2.209-.388 2.69-.862.7-.69 1.069-.597 1.858.472.891 1.207.805 1.451-.909 2.581-2.441 1.61-4.764 1.597-5.636-.032Zm-61.567 2.973c2.276-1.594 1.904-3.498-1.053-5.39-1.422-.91-3.817-2.732-5.323-4.049l-2.737-2.394 2.048-1.815c3.366-2.985 8.498-6.106 9.262-5.634 1.278.79.756 2.188-1.138 3.051l-1.852.844 2.024 1.629c1.559 1.253 1.839 1.819 1.216 2.455-.787.803-1.691.64-5.913-1.072-.664-.269-1.207-.183-1.207.191 0 1.087 3.766 2.345 6.296 2.103 1.74-.166 2.374-.583 2.528-1.661.114-.792-.274-1.838-.861-2.326-1.335-1.107-1.356-1.838-.068-2.332.635-.244 1.535.483 2.469 1.995.809 1.308 1.901 2.378 2.427 2.378.651 0 .191-1.27-1.433-3.964-1.315-2.181-2.392-4.19-2.393-4.464-.002-.559 2.969-2.176 5.347-2.909 1.231-.38 1.68-.146 2.154 1.119.729 1.951-.239 2.739-2.67 2.175-1.537-.357-1.614-.287-.696.63 1.526 1.522 7.585 4.882 7.583 4.204-.001-.321-.917-1.196-2.035-1.945-1.856-1.243-1.94-1.464-.97-2.536.682-.754.891-1.717.582-2.689-.48-1.512.473-2.688 2.196-2.711.443-.005 1.365 2.162 2.049 4.816 1.459 5.663 2.677 6.427 1.925 1.207-.982-6.808-1.275-6.378 4.357-6.378 5.644 0 6.845 1.189 1.74 1.724-2.701.283-3.329.608-3.501 1.814-.226 1.579 2.873 5.746 3.677 4.945.265-.265-.174-1.315-.976-2.334-2.213-2.813-1.891-3.736 1.3-3.736h2.758v3.103c0 3.512 1.349 4.321 1.436.862.091-3.577.665-6.359 1.365-6.608.356-.126.647-.559.647-.961 0-1.174-13.411-.134-19.554 1.517-6.517 1.751-14.022 5.414-18.699 9.125-4.787 3.797-11.887 12.268-10.285 12.268.256 0 .87-.543 1.363-1.206.723-.972 1.141-1.051 2.145-.409.686.438 1.169 1.136 1.074 1.551-.204.894 3.026 1.026 3.57.146.206-.334-.704-1.342-2.023-2.241-1.32-.898-2.401-1.828-2.404-2.066-.01-.948 2.058-2.067 2.896-1.566 2.3 1.374 6.039 4.846 6.051 5.619.006.474.296.862.644.862.348 0 .776-.388.952-.862.239-.645.614-.582 1.485.246 1.082 1.028 1.084 1.19.034 2.241-.623.623-1.731 1.133-2.463 1.133-.731 0-1.329.31-1.329.689 0 1.044 2.256.826 3.983-.384Zm70.604 74.905c-1.861-.732-3.88-2.308-5.371-4.193l-2.39-3.021 2.097-2.097 2.098-2.098 2.783 2.784c2.631 2.63 5.393 8.823 4.243 9.512-.264.157-1.821-.242-3.46-.887Zm-97.155-6.204c1.339-2.952 6.592-8.41 7.981-8.293.249.021 1.192.975 2.097 2.119l1.646 2.081-2.936 2.992c-1.973 2.01-3.914 3.238-5.916 3.742-4.442 1.118-4.537 1.031-2.872-2.641Zm102.781 1.112c-1.955-.443-3.799-1.596-5.782-3.617l-2.912-2.967 1.645-2.081c.905-1.144 1.81-2.098 2.01-2.119.2-.02 1.816 1.281 3.591 2.893 2.984 2.709 5.9 7.76 4.795 8.306-.262.129-1.768-.057-3.347-.415Zm-109.172-4.393c0-.354.938-2.123 2.086-3.932 1.147-1.809 1.703-3.053 1.235-2.764-1.282.793-7.458.92-7.458.154 0-.367.775-1.685 1.723-2.928.949-1.243 1.724-2.463 1.724-2.712 0-.249-1.533-.452-3.407-.452-1.873 0-3.554-.239-3.735-.531-.726-1.175 4.321-5.656 7.905-7.019 2.046-.777 3.894-1.413 4.108-1.413.215 0 .889 1.047 1.5 2.327.85 1.783.92 2.518.3 3.143-.622.627-.558.721.274.404.757-.288 1.483.344 2.413 2.102 1.319 2.493 1.318 2.521-.05 3.444-3.321 2.241-3.88 3.042-1.017 1.46l3.119-1.724 1.512 2.306 1.511 2.306-3.474 2.909c-2.787 2.334-4.146 2.973-6.872 3.235-1.872.18-3.397.038-3.397-.315Zm4.137-15.083c0-.189-.931.137-2.069.725-1.137.588-2.068 1.225-2.068 1.415 0 .189.931-.137 2.068-.725 1.138-.589 2.069-1.225 2.069-1.415Zm108.263 12.973c-.942-.176-2.958-1.279-4.482-2.452a267.487 267.487 0 0 0-3.01-2.297c-.479-.328 2.281-4.396 2.974-4.383 1.94.036 7.342 4.333 8.637 6.871l1.413 2.769-1.91-.094c-1.051-.052-2.681-.238-3.622-.414Zm-.514-8.113-3.587-2.415 1.413-2.394 1.412-2.393 3.556 1.802c3.581 1.814 4.256 2.447 6.314 5.919l1.125 1.896h-3.324c-2.656 0-4.043-.484-6.909-2.415Zm3.087-5.969c-1.801-.794-3.275-1.731-3.275-2.08 0-.798 1.998-4.705 2.406-4.705.165 0 1.864.617 3.775 1.37 3.072 1.211 7.533 4.966 7.589 6.387.043 1.107-7.329.424-10.495-.972Zm-122.385-4.149c-1.612-.356-2.931-.904-2.931-1.217 0-.313 1.242-1.691 2.76-3.062 1.982-1.79 2.419-2.495 1.552-2.497-2.096-.007-6.38-1.412-6.38-2.093 0-.359 1.246-1.556 2.77-2.659 1.983-1.437 3.952-2.144 6.937-2.491 2.292-.266 4.299-.352 4.46-.191.161.161.405 1.544.543 3.073.137 1.529.416 3.059.618 3.4.202.341.579 1.605.837 2.809.446 2.08.315 2.258-2.615 3.554-4.432 1.961-5.284 2.098-8.551 1.374Zm8.604-7.879c-.229-.229-.824-.253-1.322-.054-.55.22-.386.383.417.417.727.029 1.134-.133.905-.363Zm115.554 5.244-2.881-1.281.768-2.502c.747-2.433.844-2.491 3.571-2.144l2.802.357-2.585-.731c-2.159-.611-2.584-1.034-2.575-2.559.019-3.252.843-3.799 5.07-3.362 3.622.373 8.709 3.099 8.709 4.665 0 .765-4.791 2.304-6.895 2.216-.948-.04-1.258.097-.689.304.568.207 2.213 1.503 3.653 2.879 2.56 2.445 2.584 2.512 1.035 2.951-2.928.828-7.079.498-9.983-.793ZM25.478 103.127c-1.422-.589-2.583-1.272-2.58-1.515.012-1.013 5.632-3.554 8.061-3.644l2.621-.098-2.413-.419c-2.723-.474-8.274-3.246-8.274-4.132 0-.87 5.564-2.827 8.297-2.917l2.39-.08-2.541-.494c-2.835-.552-7.893-4.05-6.998-4.841.317-.279 2.031-.899 3.811-1.378 2.59-.696 3.964-.698 6.895-.01 2.012.472 3.86.971 4.104 1.108.857.481-.945 5.703-2.071 6.003-.986.262-.977.311.075.381.935.062 1.207.701 1.207 2.838 0 2.535-.153 2.762-1.896 2.812l-1.897.054 1.897.693c1.612.589 1.896 1.083 1.896 3.299 0 2.579-.035 2.612-3.199 3.046-4.644.636-6.483.498-9.385-.706Zm132.211-.066c-4.247-.31-4.775-.799-4.197-3.881l.457-2.437 4.61.431c3.831.357 9.128 2.305 9.128 3.355 0 .405-3.64 2.155-5.171 2.486-.759.164-2.931.185-4.827.046Zm-4.224-8.892c-.253-1.005-.115-2.379.306-3.053.468-.75.507-1.312.101-1.448-.366-.122-.743-1.436-.837-2.919l-.172-2.698 3.736-.964c3.089-.796 4.254-.81 6.723-.082 1.642.485 2.984 1.202 2.981 1.593-.007 1.151-4.684 4.003-7.445 4.539l-2.548.496 3.152.079c1.734.044 4.306.641 5.716 1.327 2.418 1.176 2.494 1.308 1.33 2.324-2.327 2.032-4.251 2.634-8.415 2.634-3.936 0-4.195-.102-4.628-1.828ZM33.333 82.533c-3.291-.802-7.682-3.778-7.682-5.207 0-1.201 6.615-1.703 9.997-.758 4.497 1.256 5.144 1.964 4.37 4.777-.688 2.502-1.04 2.564-6.685 1.188Zm118.136-1.773c-.568-2.588-.268-2.894 4.278-4.369 3.422-1.11 8.053-.969 8.818.269.67 1.084-4.222 4.804-7.22 5.492-4.81 1.102-5.357.973-5.876-1.392ZM35.903 75.762c-3.791-1.45-8.221-5.468-7.178-6.512.674-.675 7.308-.59 8.992.115.758.318.416-.044-.762-.803-1.877-1.212-5.099-5.384-5.099-6.604 0-.24 1.484-.436 3.297-.436 2.587 0 4.146.531 7.24 2.467 2.168 1.356 3.943 2.579 3.943 2.718 0 .139-.663 1.376-1.473 2.749-1.041 1.764-1.689 2.281-2.207 1.763-.403-.403-1.041-.733-1.417-.733-.375 0-.129.405.548.9 1.142.835 1.154 1.085.167 3.447-.585 1.401-1.312 2.517-1.616 2.48-.304-.037-2.299-.735-4.435-1.551Zm114.29 0c-.235-.935-.61-2.177-.833-2.758-.291-.758.581-1.557 3.077-2.822 3.456-1.751 5.915-2.123 8.846-1.337 1.51.405 1.504.434-.605 3.058-1.28 1.593-3.262 3.047-4.972 3.646-1.564.548-3.348 1.203-3.965 1.455-.811.332-1.239-.011-1.548-1.242Zm-3.084-6.974-1.408-2.387 4.016-2.439c2.878-1.749 4.821-2.44 6.856-2.44 1.562 0 2.84.161 2.84.359 0 .197-.776 1.588-1.726 3.092-1.102 1.746-2.962 3.36-5.148 4.468-1.882.954-3.557 1.734-3.722 1.734-.165 0-.933-1.074-1.708-2.387ZM42.38 63.181c-2.404-1.583-4.073-3.333-4.994-5.24-.761-1.575-1.262-2.985-1.114-3.133.148-.148 1.837.016 3.753.364 2.302.419 4.649 1.522 6.92 3.254l3.435 2.62-1.759 2.306c-.968 1.269-1.955 2.285-2.195 2.257-.239-.028-2.06-1.12-4.046-2.428Zm102.127 1.616c-.279-.474-.93-1.522-1.445-2.33-.874-1.37-.694-1.643 2.678-4.065 2.383-1.712 4.623-2.711 6.575-2.931 1.629-.183 2.961-.126 2.961.128 0 1.974-3.14 5.954-6.195 7.854-4.07 2.53-3.904 2.481-4.574 1.344Zm-97.762-7.349c-2.334-1.849-3.753-3.654-4.574-5.819-.656-1.725-1.056-3.273-.89-3.439.166-.165 1.756.137 3.533.672 2.113.636 4.367 2.09 6.508 4.199l3.276 3.227-1.847 1.927c-1.016 1.061-2.022 1.925-2.235 1.921-.213-.004-1.911-1.214-3.771-2.688Zm93.19.992c-.664-.912-1.207-1.924-1.207-2.248 0-1.381 6.054-6.322 8.58-7.001 1.496-.403 2.847-.604 3.004-.448.156.157-.255 1.695-.914 3.42-1.092 2.861-6.072 8.019-7.683 7.959-.316-.012-1.117-.769-1.78-1.682Zm-88.333-6.475c-2.327-2.362-3.496-4.22-3.963-6.296-.364-1.62-.551-3.056-.416-3.191.136-.136 1.776.407 3.644 1.205 2.183.933 4.317 2.587 5.968 4.625l2.57 3.173-1.837 1.918c-1.011 1.055-2.024 1.918-2.251 1.918-.228 0-1.9-1.508-3.715-3.352Zm83.469 1.424-1.847-1.928 3.269-3.164c3.443-3.331 5.583-4.702 7.344-4.702.826 0 .968.499.638 2.241-.234 1.233-.739 2.862-1.123 3.62-.786 1.554-5.138 5.861-5.923 5.861-.281 0-1.342-.868-2.358-1.928Zm-4.889-3.813-1.996-1.598 2.407-3.762c1.722-2.692 3.224-4.132 5.278-5.058 1.579-.712 3.02-1.146 3.202-.964.817.817-1.677 7.493-3.774 10.102-1.275 1.586-2.498 2.882-2.719 2.88-.221-.002-1.3-.722-2.398-1.6Zm-73.204-2.198c-2.321-2.833-4.408-8.868-3.41-9.866.186-.186 1.63.245 3.209.957 2.023.912 3.553 2.36 5.179 4.901 1.268 1.984 2.307 3.896 2.307 4.25 0 .724-3.041 2.87-4.067 2.87-.367 0-1.815-1.4-3.218-3.112Zm68.472-.965c-1.046-.671-2.069-1.387-2.273-1.592-.842-.841 3.392-7.893 5.613-9.349 3.235-2.12 3.733-1.946 3.733 1.31 0 2.041-.694 3.982-2.463 6.895-1.355 2.231-2.519 4.033-2.586 4.005-.067-.028-.978-.599-2.024-1.269Zm-62.124-3.152c-2.052-3.09-2.511-4.414-2.511-7.24 0-1.902.158-3.458.351-3.458.193 0 1.666.95 3.275 2.112 1.812 1.308 3.639 3.516 4.802 5.803l1.879 3.692-2.435 1.436c-1.339.79-2.528 1.437-2.642 1.437-.115 0-1.338-1.702-2.719-3.782Zm6.258-3.63c-1.357-3.054-1.678-4.678-1.398-7.068.2-1.706.491-3.237.646-3.402.155-.165 1.506.895 3.002 2.355 2.397 2.341 4.839 7.248 4.839 9.721 0 .724-3.351 2.358-4.835 2.358-.271 0-1.285-1.784-2.254-3.964Zm49.321 3.253c-1.848-.743-1.858-.852-.454-5.199 1.093-3.387 5.359-8.232 6.582-7.477 1.103.683.605 6.283-.876 9.848-1.513 3.64-2.248 4.036-5.252 2.828Zm-42.293-6.087c-1.293-4.026-1.369-4.953-.629-7.681l.841-3.103 2.521 2.837c1.829 2.058 2.751 3.936 3.362 6.847.463 2.206.715 4.137.561 4.291-.154.154-1.383.529-2.732.834l-2.453.553Zm36.26 4.117c-1.783-.381-2.049-.726-1.929-2.5.132-1.935.108-1.955-.386-.335-.45 1.471-.874 1.691-2.898 1.496-1.304-.126-2.591-.439-2.86-.696-.268-.256-.214-2.403.12-4.77.579-4.092 2.547-7.797 4.62-8.694 1.088-.471 2.537 5.753 2.017 8.669-.378 2.129-.338 2.101.641-.454 1.025-2.675 4.852-7.117 5.54-6.43 1.114 1.114 1.027 7.348-.147 10.477-1.387 3.7-1.662 3.889-4.718 3.237Zm-28.587-2.428c-1.671-4.427-1.357-10.83.64-13.022.929-1.019 4.464 4.575 4.915 7.778l.439 3.114.092-3.648c.055-2.174.673-4.786 1.53-6.466l1.439-2.819 1.643 2.674c1.326 2.158 1.647 3.638 1.664 7.673l.022 4.999h-2.758c-1.674 0-2.758-.323-2.758-.821 0-.491-.347-.382-.862.271-.474.601-1.897 1.231-3.162 1.4-1.858.248-2.404.031-2.844-1.133Zm13.763-4.277c0-3.418.379-5.235 1.513-7.253.832-1.481 1.815-2.591 2.185-2.468 1.465.488 2.522 5.545 2.074 9.922l-.447 4.359h-5.325Z"/></svg>