<svg xmlns="http://www.w3.org/2000/svg" viewBox="0 0 192 192"><path fill="none" stroke="#000" stroke-linecap="round" stroke-linejoin="round" stroke-width="12" d="M25.095 16.5a8.6 8.6 0 0 0-7.444 4.297 8.6 8.6 0 0 0-1.151 4.298v141.81c0 2.279.906 4.467 2.517 6.078a8.599 8.599 0 0 0 6.078 2.517h141.81a8.6 8.6 0 0 0 7.444-4.297 8.6 8.6 0 0 0 1.151-4.298V25.095a8.6 8.6 0 0 0-4.297-7.444 8.6 8.6 0 0 0-4.298-1.151Z"/><path fill="none" stroke="#000" stroke-linecap="round" stroke-linejoin="round" stroke-width="8" d="M51.196 131.118v30.081h15.041m57.435 0h15.041m-15.041-30.081h15.041m-15.041 15.04h9.806m-9.806-15.04v30.081M71.683 40.885a10.072 10.072 0 0 0-10.602-10.069 10.457 10.457 0 0 0-9.521 10.64v9.343a10.076 10.076 0 0 0 5.027 8.729 10.07 10.07 0 0 0 5.035 1.354 10.066 10.066 0 0 0 8.717-5.045 10.066 10.066 0 0 0 1.344-5.038H61.622m78.818 40.244a10.072 10.072 0 0 0-10.603-10.069 10.461 10.461 0 0 0-9.52 10.639v9.344a10.079 10.079 0 0 0 2.942 7.126 10.078 10.078 0 0 0 7.119 2.958 10.08 10.08 0 0 0 7.12-2.958 10.079 10.079 0 0 0 2.942-7.126h-10.062m-78.832 10.084V80.959h9.848a10.107 10.107 0 0 1 7.14 17.245 10.107 10.107 0 0 1-7.14 2.96h-9.848m9.848 0 9.847 9.869m49.061-80.232v20.117a9.967 9.967 0 0 0 16.988 7.004 9.967 9.967 0 0 0 2.941-7.004V30.801"/></svg>