<svg xmlns="http://www.w3.org/2000/svg" viewBox="0 0 192 192"><path d="M68.15 170.428c-1.148-1.064-2.215-1.868-2.371-1.784-.156.083-.185-.007-.064-.201s-7.537-8.138-17.017-17.654l-17.237-17.302 3.51-3.577 3.51-3.576 10.992 10.918c13.903 13.811 19.49 21.533 23.211 32.081 1.032 2.923 1.007 3.032-.688 3.032-.967 0-2.697-.872-3.846-1.937Zm-21.704-45.787-5.36-5.681-8.912 4.436-8.913 4.437-.818-1.797c-.735-1.612-.542-1.896 1.881-2.772l2.699-.976V87.561l-5.354-.235c-4.865-.213-5.378-.398-5.608-2.019-.247-1.739-.066-1.785 6.941-1.785h7.194v18.244c0 10.035.171 18.245.379 18.245.209 0 2.359-.971 4.778-2.157 3.234-1.587 4.265-2.479 3.895-3.372-2.301-5.545-2.892-10.308-3.278-26.399l-.413-17.253h-8.942c-7.441 0-9.022-.212-9.425-1.261-.266-.694-.283-1.587-.038-1.983.249-.404 9.485-.722 20.931-.722h20.485l.478-1.785c.752-2.805.611-3.117-1.155-2.556-2.597.824-6.799-.292-9.427-2.504l-2.403-2.022-2.403 2.022c-4.327 3.641-10.812 3.483-14.941-.365l-1.738-1.619-2.419 2.035c-2.409 2.027-5.469 2.732-5.469 1.26 0-.425 1.269-1.928 2.82-3.34 2.064-1.878 2.707-3.019 2.397-4.254-.555-2.212 1.224-4.574 3.164-4.2 1.186.229 1.553.999 1.615 3.395.174 6.645 8.631 9.092 13.45 3.893 1.416-1.528 1.707-2.393 1.153-3.428-.984-1.839.782-4.254 2.82-3.857 1.077.21 1.563 1.004 1.631 2.665.142 3.493 1.02 5.063 3.569 6.381l2.283 1.18V54.84c0-5.555 2.065-10.787 5.244-13.287 1.796-1.413 1.876-1.775 1.129-5.108-.442-1.973-.573-5.271-.291-7.329l.513-3.742-3.373 1.896c-1.856 1.043-5.157 4.165-7.337 6.939-2.18 2.774-5.499 5.991-7.375 7.149-3.043 1.877-3.467 2.51-3.916 5.841-.531 3.929-1.142 4.848-2.62 3.935-.587-.363-.745-2.205-.46-5.355.428-4.72.495-4.832 3.936-6.658 3.333-1.768 4.565-2.975 10.29-10.088l2.483-3.083-1.946-2.262c-1.718-1.997-1.808-2.4-.772-3.436s1.438-.879 3.429 1.341l2.256 2.515 3.471-1.229c2.93-1.038 8.039-1.694 8.028-1.031-.002.109-.894 1.954-1.983 4.1-2.33 4.592-2.462 7.624-.522 11.944l1.416 3.154-2.355 1.605c-4.125 2.811-5.572 5.528-5.929 11.133-.28 4.404-.137 5.148.993 5.148 2.121 0 5.256-3.902 4.752-5.914-.511-2.035 1.284-3.867 3.395-3.464 1.832.349 2.299 3.565.766 5.278-.651.728-2.506 4.526-4.121 8.44-2.916 7.065-2.935 7.184-2.599 16.261.293 7.898.644 9.819 2.575 14.091 3.431 7.594 4.016 7.639 5.565.434 2.528-11.755 2.242-11.329 7.615-11.329 4.463 0 4.706.102 5.166 2.181.551 2.486 3.363 13.377 3.995 15.468.334 1.107-.064 1.388-1.959 1.388-1.862 0-2.433-.387-2.632-1.784-.221-1.556-.79-1.816-4.422-2.025-3.839-.221-4.229-.08-4.938 1.785-.423 1.113-1.388 2.024-2.144 2.024-.999 0-.466.926 1.954 3.392l3.328 3.391-10.907 10.887c-6 5.988-11.128 10.887-11.397 10.887-.268 0-2.9-2.557-5.848-5.682Zm14.863-7.605 8.478-8.527-3.166-3.371-3.166-3.372H50.027V82.729h3.966v15.864h3.655c3.172 0 3.578-.183 3.074-1.388-2.577-6.161-3.556-11.256-3.556-18.513V70.83H38.71l.44 16.46c.458 17.1 1.137 21.329 4.467 27.842 1.685 3.296 7.64 10.432 8.706 10.432.279 0 4.323-3.838 8.986-8.528Zm18.063-23.797c-.011-3.461-1.685-7.337-3.168-7.337-1.071 0-1.753.866-2.338 2.974-1.439 5.183-1.209 5.751 2.338 5.751 2.495 0 3.172-.297 3.168-1.388Zm37.383 7.964c-5.468-2.694-6.475-11.668-1.831-16.312 4.319-4.319 12.246-3.12 14.788 2.237 4.538 9.563-3.778 18.597-12.957 14.075Zm8.269-4.557c1.227-1.227 1.947-2.853 1.947-4.398 0-2.808-3.027-6.346-5.429-6.346-2.991 0-5.243 2.725-5.243 6.346 0 5.74 4.908 8.215 8.725 4.398Zm10.673-4.2v-9.717h7.139c6.081 0 7.374.235 8.726 1.586 2.352 2.353 2.206 8.184-.252 10.038l-1.838 1.387 1.815 3.248 1.816 3.248-2.811-.328c-2.248-.263-3.061-.852-4.056-2.938-.887-1.861-1.895-2.705-3.512-2.942-2.178-.32-2.268-.205-2.268 2.901 0 3.064-.124 3.234-2.379 3.234h-2.38Zm12.533-1.15c2.613-2.614.064-5.394-4.945-5.394-2.771 0-2.829.064-2.829 3.173v3.173h3.411c1.876 0 3.839-.429 4.363-.952Zm-57.748.952v-9.519h7.083c5.381 0 7.382.299 8.329 1.246 1.386 1.386 1.695 6.315.444 7.088-.507.314-.361 1.123.397 2.206 1.65 2.356 1.5 5.023-.388 6.911-1.351 1.351-2.644 1.586-8.726 1.586h-7.139Zm12.546 4.164c-.234-2.035-.531-2.198-4.415-2.421l-4.165-.24v2.421c0 2.41.022 2.421 4.416 2.421 4.349 0 4.412-.033 4.164-2.181Zm-.251-8.131c0-1.833-.315-2.001-4.164-2.223l-4.165-.239v4.925l4.165-.24c3.849-.221 4.164-.39 4.164-2.223Zm55.13 12.494c-.001-.546.95-4.845 2.113-9.554l2.114-8.561 4.759.232 4.758.233 2.244 8.329c2.794 10.374 2.794 10.48.076 10.167-1.562-.18-2.254-.758-2.435-2.036-.227-1.596-.701-1.785-4.475-1.785-3.842 0-4.267.179-4.72 1.983-.363 1.449-1.028 1.983-2.466 1.983-1.082 0-1.968-.446-1.968-.991Zm12.391-7.536c-.224-.763-.645-2.727-.935-4.363-.432-2.441-.86-2.974-2.386-2.974-1.53 0-1.947.526-2.36 2.974-.276 1.636-.673 3.6-.883 4.363-.323 1.177.178 1.388 3.296 1.388 3.128 0 3.615-.207 3.268-1.388Z"/></svg>