<svg
    xmlns="http://www.w3.org/2000/svg"
    viewBox="0 0 192 192"
    id="vector">
    <path
        id="path"
        d="M 83.13 174.793 C 82.466 174.129 81.692 173.818 81.409 174.101 C 81.126 174.384 80.894 174.088 80.894 173.445 C 80.894 172.801 72.583 163.957 62.426 153.792 L 43.957 135.31 L 47.653 131.544 L 51.349 127.778 L 63.666 140.048 C 70.441 146.796 77.234 154.188 78.763 156.475 C 82.13 161.512 86.579 170.148 87.548 173.528 C 88.192 175.772 88.076 176 86.297 176 C 85.219 176 83.794 175.457 83.13 174.793 Z M 98.627 142.446 C 91.698 140.185 87.153 135.066 84.628 126.677 L 83.544 123.075 L 88.967 122.076 C 91.949 121.527 94.608 121.296 94.875 121.563 C 95.142 121.83 95.496 123.059 95.661 124.294 C 96.524 130.735 102.609 134.971 109.98 134.263 C 119.106 133.386 124.542 123.255 119.723 116.104 C 117.249 112.434 113.741 110.141 106.414 107.406 C 95.469 103.321 92.013 100.886 89.118 95.22 C 87.224 91.514 87.033 84.344 88.72 80.331 C 91.434 73.878 98.997 69.543 108.538 68.974 C 114.508 68.617 115.392 68.786 120.35 71.226 C 125.481 73.752 131.421 79.377 130.119 80.477 C 129.782 80.762 127.757 81.991 125.62 83.209 L 121.733 85.423 L 120.218 83.523 C 116.428 78.769 109.99 77.359 103.828 79.934 C 98.736 82.062 96.747 87.757 99.649 91.901 C 101.056 93.91 106.712 97.018 112.056 98.719 C 120.384 101.369 127.446 106.248 130.792 111.662 C 132.985 115.21 133.284 124.945 131.343 129.59 C 129.626 133.7 124.513 139.188 120.422 141.313 C 116.16 143.526 103.893 144.164 98.627 142.446 Z M 59.692 126.006 L 54.077 120.054 L 44.741 124.702 L 35.404 129.349 L 34.547 127.468 C 33.777 125.778 33.979 125.481 36.517 124.563 L 39.345 123.541 L 39.345 87.085 L 33.528 87.085 C 27.878 87.085 27.711 87.026 27.711 85.007 C 27.711 82.945 27.767 82.93 35.19 82.93 L 42.669 82.93 L 42.669 102.043 C 42.669 112.555 42.848 121.155 43.066 121.155 C 43.284 121.155 45.537 120.138 48.071 118.895 C 51.489 117.219 52.536 116.307 52.127 115.364 C 50.119 110.73 49.108 103.77 48.38 89.578 C 47.923 80.666 47.709 72.532 47.903 71.504 C 48.252 69.655 48.152 69.634 38.903 69.634 C 31.121 69.634 29.466 69.412 29.044 68.313 C 28.765 67.586 28.747 66.651 29.004 66.235 C 29.265 65.813 38.94 65.479 50.931 65.479 L 72.39 65.479 L 72.892 63.61 C 73.679 60.671 73.531 60.345 71.681 60.932 C 68.948 61.799 64.555 60.622 61.766 58.276 L 59.209 56.124 L 57.379 57.838 C 55.152 59.924 51.636 61.326 48.639 61.321 C 46.432 61.318 41.103 58.595 40.043 56.929 C 39.706 56.399 38.476 56.923 36.863 58.28 C 34.258 60.471 31.035 61.247 31.035 59.683 C 31.035 59.237 32.349 57.676 33.954 56.215 C 36.495 53.903 36.807 53.205 36.362 50.831 C 35.908 48.41 36.088 48.044 37.966 47.572 C 40.8 46.861 41.982 47.738 41.773 50.396 C 41.526 53.539 42.525 55.39 45.221 56.785 C 48.672 58.569 51.352 58.278 54.298 55.799 C 56.36 54.065 56.806 53.168 56.403 51.565 C 55.81 49.202 57.167 47.198 59.361 47.198 C 60.917 47.198 62.955 49.902 62.068 50.789 C 60.957 51.9 62.81 55.567 65.074 56.738 L 67.512 57.998 L 67.489 53.146 C 67.462 47.501 68.864 43.668 72.45 39.583 C 74.829 36.874 74.953 36.431 74.151 33.525 C 73.668 31.775 73.541 28.533 73.863 26.187 L 74.441 21.984 L 71.048 23.996 C 69.181 25.102 65.857 28.251 63.66 30.994 C 61.463 33.736 57.946 37.101 55.844 38.472 C 52.427 40.702 51.965 41.379 51.477 44.878 C 51.176 47.031 50.643 48.969 50.292 49.186 C 48.704 50.167 47.851 48.088 47.956 43.499 L 48.07 38.553 L 51.98 36.587 C 55.692 34.721 57.03 33.433 63.136 25.849 L 65.736 22.618 L 63.698 20.249 C 61.899 18.157 61.804 17.735 62.889 16.65 C 63.975 15.564 64.396 15.724 66.482 18.013 C 68.826 20.584 68.871 20.595 72.169 19.396 C 75.294 18.259 80.894 17.672 80.894 18.481 C 80.894 18.684 80.066 20.253 79.054 21.968 C 76.821 25.752 76.621 32.281 78.622 36.071 C 79.95 38.589 79.935 38.68 78.033 39.546 C 74.328 41.234 71.464 46.091 71.085 51.328 C 70.709 56.521 71.497 57.81 74.173 56.378 C 75.924 55.441 76.989 52.999 77.091 49.691 C 77.144 47.951 77.56 47.613 79.648 47.613 C 81.627 47.613 82.197 48.013 82.415 49.551 C 82.566 50.618 82.132 52.113 81.449 52.875 C 80.767 53.638 78.824 57.616 77.132 61.717 C 74.075 69.122 74.057 69.238 74.4 78.854 C 74.717 87.751 74.965 88.983 77.465 94.061 C 78.962 97.101 82.193 101.756 84.647 104.406 L 89.108 109.224 L 77.719 120.591 C 71.455 126.843 66.1 131.958 65.819 131.958 C 65.537 131.958 62.78 129.28 59.692 126.006 Z M 74.989 118.336 C 81.08 112.224 83.394 109.37 82.906 108.572 C 82.527 107.951 80.651 105.515 78.735 103.157 C 73.311 96.479 71.527 90.925 71.105 79.398 L 70.747 69.634 L 51.601 69.634 L 52.031 86.462 C 52.479 103.991 53.358 109.431 56.851 116.277 C 58.519 119.548 64.766 126.972 65.849 126.972 C 66.142 126.972 70.255 123.086 74.989 118.336 Z M 139.063 74.244 C 139.063 72.148 131.277 65.161 126.138 62.645 C 122.534 60.881 119.567 60.121 115.172 59.835 L 109.148 59.444 L 109.148 50.522 L 113.095 50.534 C 118.065 50.549 126.518 52.516 130.629 54.613 C 137.194 57.963 147.373 67.654 147.373 70.555 C 147.373 71.221 140.669 75.451 139.613 75.451 C 139.311 75.451 139.063 74.908 139.063 74.244 Z M 154.064 62.223 C 149.213 54.663 139.286 46.971 130.338 43.838 C 127.283 42.768 122.214 41.907 117.25 41.616 L 109.148 41.139 L 109.148 31.996 L 116.834 32.467 C 125.007 32.969 136.004 35.925 142.038 39.242 C 150.018 43.63 159.804 53.215 164.249 60.998 C 164.553 61.531 163.073 62.844 160.733 64.118 L 156.691 66.317 Z"
        fill="#000000"
        stroke-width="12"/>
</svg>
