<svg xmlns="http://www.w3.org/2000/svg" viewBox="0 0 192 192"><path d="M83.13 174.793c-.664-.664-1.438-.975-1.721-.692-.283.283-.515-.013-.515-.656 0-.644-8.311-9.488-18.468-19.653L43.957 135.31l3.696-3.766 3.696-3.766 12.317 12.27c6.775 6.748 13.568 14.14 15.097 16.427 3.367 5.037 7.816 13.673 8.785 17.053.644 2.244.528 2.472-1.251 2.472-1.078 0-2.503-.543-3.167-1.207Zm15.497-32.347c-6.929-2.261-11.474-7.38-13.999-15.769l-1.084-3.602 5.423-.999c2.982-.549 5.641-.78 5.908-.513.267.267.621 1.496.786 2.731.863 6.441 6.948 10.677 14.319 9.969 9.126-.877 14.562-11.008 9.743-18.159-2.474-3.67-5.982-5.963-13.309-8.698-10.945-4.085-14.401-6.52-17.296-12.186-1.894-3.706-2.085-10.876-.398-14.889 2.714-6.453 10.277-10.788 19.818-11.357 5.97-.357 6.854-.188 11.812 2.252 5.131 2.526 11.071 8.151 9.769 9.251-.337.285-2.362 1.514-4.499 2.732l-3.887 2.214-1.515-1.9c-3.79-4.754-10.228-6.164-16.39-3.589-5.092 2.128-7.081 7.823-4.179 11.967 1.407 2.009 7.063 5.117 12.407 6.818 8.328 2.65 15.39 7.529 18.736 12.943 2.193 3.548 2.492 13.283.551 17.928-1.717 4.11-6.83 9.598-10.921 11.723-4.262 2.213-16.529 2.851-21.795 1.133Zm-38.935-16.44-5.615-5.952-9.336 4.648-9.337 4.647-.857-1.881c-.77-1.69-.568-1.987 1.97-2.905l2.828-1.022V87.085h-5.817c-5.65 0-5.817-.059-5.817-2.078 0-2.062.056-2.077 7.479-2.077h7.479v19.113c0 10.512.179 19.112.397 19.112.218 0 2.471-1.017 5.005-2.26 3.418-1.676 4.465-2.588 4.056-3.531-2.008-4.634-3.019-11.594-3.747-25.786-.457-8.912-.671-17.046-.477-18.074.349-1.849.249-1.87-9-1.87-7.782 0-9.437-.222-9.859-1.321-.279-.727-.297-1.662-.04-2.078.261-.422 9.936-.756 21.927-.756H72.39l.502-1.869c.787-2.939.639-3.265-1.211-2.678-2.733.867-7.126-.31-9.915-2.656l-2.557-2.152-1.83 1.714c-2.227 2.086-5.743 3.488-8.74 3.483-2.207-.003-7.536-2.726-8.596-4.392-.337-.53-1.567-.006-3.18 1.351-2.605 2.191-5.828 2.967-5.828 1.403 0-.446 1.314-2.007 2.919-3.468 2.541-2.312 2.853-3.01 2.408-5.384-.454-2.421-.274-2.787 1.604-3.259 2.834-.711 4.016.166 3.807 2.824-.247 3.143.752 4.994 3.448 6.389 3.451 1.784 6.131 1.493 9.077-.986 2.062-1.734 2.508-2.631 2.105-4.234-.593-2.363.764-4.367 2.958-4.367 1.556 0 3.594 2.704 2.707 3.591-1.111 1.111.742 4.778 3.006 5.949l2.438 1.26-.023-4.852c-.027-5.645 1.375-9.478 4.961-13.563 2.379-2.709 2.503-3.152 1.701-6.058-.483-1.75-.61-4.992-.288-7.338l.578-4.203-3.393 2.012c-1.867 1.106-5.191 4.255-7.388 6.998-2.197 2.742-5.714 6.107-7.816 7.478-3.417 2.23-3.879 2.907-4.367 6.406-.301 2.153-.834 4.091-1.185 4.308-1.588.981-2.441-1.098-2.336-5.687l.114-4.946 3.91-1.966c3.712-1.866 5.05-3.154 11.156-10.738l2.6-3.231-2.038-2.369c-1.799-2.092-1.894-2.514-.809-3.599 1.086-1.086 1.507-.926 3.593 1.363 2.344 2.571 2.389 2.582 5.687 1.383 3.125-1.137 8.725-1.724 8.725-.915 0 .203-.828 1.772-1.84 3.487-2.233 3.784-2.433 10.313-.432 14.103 1.328 2.518 1.313 2.609-.589 3.475-3.705 1.688-6.569 6.545-6.948 11.782-.376 5.193.412 6.482 3.088 5.05 1.751-.937 2.816-3.379 2.918-6.687.053-1.74.469-2.078 2.557-2.078 1.979 0 2.549.4 2.767 1.938.151 1.067-.283 2.562-.966 3.324-.682.763-2.625 4.741-4.317 8.842-3.057 7.405-3.075 7.521-2.732 17.137.317 8.897.565 10.129 3.065 15.207 1.497 3.04 4.728 7.695 7.182 10.345l4.461 4.818-11.389 11.367c-6.264 6.252-11.619 11.367-11.9 11.367-.282 0-3.039-2.678-6.127-5.952Zm15.297-7.67c6.091-6.112 8.405-8.966 7.917-9.764-.379-.621-2.255-3.057-4.171-5.415-5.424-6.678-7.208-12.232-7.63-23.759l-.358-9.764H51.601l.43 16.828c.448 17.529 1.327 22.969 4.82 29.815 1.668 3.271 7.915 10.695 8.998 10.695.293 0 4.406-3.886 9.14-8.636Zm64.074-44.092c0-2.096-7.786-9.083-12.925-11.599-3.604-1.764-6.571-2.524-10.966-2.81l-6.024-.391v-8.922l3.947.012c4.97.015 13.423 1.982 17.534 4.079 6.565 3.35 16.744 13.041 16.744 15.942 0 .666-6.704 4.896-7.76 4.896-.302 0-.55-.543-.55-1.207Zm15.001-12.021c-4.851-7.56-14.778-15.252-23.726-18.385-3.055-1.07-8.124-1.931-13.088-2.222l-8.102-.477v-9.143l7.686.471c8.173.502 19.17 3.458 25.204 6.775 7.98 4.388 17.766 13.973 22.211 21.756.304.533-1.176 1.846-3.516 3.12l-4.042 2.199Z"/></svg>