<svg xmlns="http://www.w3.org/2000/svg" viewBox="0 0 192 192"><path d="M57.379 96c0-52.414.476-80 1.38-80 .885 0 1.386 13.462 1.4 37.586.012 20.673.521 38.373 1.131 39.335.858 1.352 8.907 1.665 35.496 1.379l34.386-.369.367-38.965c.313-33.371.66-38.966 2.414-38.966C135.739 16 136 26.181 136 96s-.261 80-2.047 80c-1.754 0-2.101-5.595-2.414-38.966l-.367-38.965-34.386-.369c-26.589-.286-34.638.027-35.496 1.379-.61.962-1.119 18.662-1.131 39.335-.014 24.124-.515 37.586-1.4 37.586-.904 0-1.38-27.586-1.38-80Zm-9.655 0c0-57.931.259-66.207 2.069-66.207S51.862 38.069 51.862 96s-.259 66.207-2.069 66.207-2.069-8.276-2.069-66.207Zm18.547 64.444c-.372-.97-.507-14.159-.301-29.31l.375-27.548h59.31v28.851c0 21.854-.418 28.99-1.724 29.425-1.341.447-1.724-5.578-1.724-27.126v-27.702H69.793v27.587c0 18.031-.493 27.586-1.422 27.586-.783 0-1.728-.793-2.1-1.763ZM141.517 96c0-43.218.479-66.207 1.38-66.207.9 0 1.379 22.989 1.379 66.207 0 43.218-.479 66.207-1.379 66.207-.901 0-1.38-22.989-1.38-66.207ZM38.069 96c0-45.67.266-52.414 2.069-52.414S42.207 50.33 42.207 96s-.266 52.414-2.069 52.414S38.069 141.67 38.069 96Zm37.241 34.483v-17.931h41.38v18.046c0 13.822-.404 17.912-1.724 17.474-1.21-.402-1.841-5.168-2.115-15.977l-.39-15.405H79.448v15.862c0 13.18-.35 15.862-2.069 15.862-1.733 0-2.069-2.912-2.069-17.931ZM149.793 96c0-45.67.266-52.414 2.069-52.414s2.069 6.744 2.069 52.414-.266 52.414-2.069 52.414-2.069-6.744-2.069-52.414ZM28.414 96c0-33.41.279-38.621 2.069-38.621S32.552 62.59 32.552 96c0 33.41-.279 38.621-2.069 38.621S28.414 129.41 28.414 96Zm56.552 32.414v-6.207h22.068v6.207c0 7.112-2.366 8.465-3.016 1.724-.421-4.372-.612-4.493-7.673-4.9l-7.242-.417v4.9c0 3.436-.618 4.9-2.069 4.9-1.532 0-2.068-1.61-2.068-6.207ZM159.448 96c0-33.41.279-38.621 2.069-38.621s2.069 5.211 2.069 38.621c0 33.41-.279 38.621-2.069 38.621s-2.069-5.211-2.069-38.621ZM65.972 59.217c.279-21.308.808-28.651 2.097-29.08 1.341-.446 1.724 5.58 1.724 27.127v27.702h52.414V57.379c0-23.601.299-27.586 2.069-27.586 1.773 0 2.069 4.138 2.069 28.966v28.965H65.599ZM76.23 78.529c-.506-.506-.92-8.575-.92-17.931 0-14.202.342-17.012 2.069-17.012 1.719 0 2.069 2.682 2.069 15.862V75.31h33.104V59.448c0-13.18.35-15.862 2.069-15.862 1.733 0 2.069 2.912 2.069 17.931v17.931H96.92c-10.874 0-20.184-.414-20.69-.919Zm8.736-14.943c0-7.537 3.695-8.986 4.395-1.724.365 3.787 1.047 4.553 4.392 4.935 7.338.839 10.523-.767 10.523-5.306 0-2.261.621-4.112 1.379-4.112.759 0 1.379 2.793 1.379 6.207v6.207H84.966Z"/></svg>