<svg xmlns="http://www.w3.org/2000/svg" viewBox="0 0 192 192"><path d="M16 94.792V46.251h7.045v18.897c0 22 .058 22.109 11.101 20.891l6.51-.719.293-19.534.292-19.535h6.963v97.081h-7.045v-42.621H23.045v42.621H16Zm41.261 0V46.251h27.173v16.575H64.196l.307 11.247.306 11.247 8.303.688 8.303.688v14.015H64.306v28.414h20.128v14.207H57.261Zm35.224 0V46.251h9.919l2.18 13.615a7610.822 7610.822 0 0 1 5.199 33.15c1.661 10.744 3.332 19.534 3.715 19.534.382 0 2.981-14.651 5.776-32.557l5.08-32.558 5.2-.716 5.199-.716v97.329h-7.045v-34.728c0-19.101-.332-33.948-.737-32.994-.406.954-3.012 16.316-5.792 34.136-4.524 28.998-5.319 32.475-7.567 33.095-2.372.653-2.821-1.265-8.046-34.334l-5.533-35.026-.279 34.926-.278 34.925h-6.991Zm47.767 44.558c.405-2.368 3.006-19.755 5.78-38.639 2.774-18.883 5.723-38.917 6.555-44.52 1.474-9.934 1.612-10.169 5.549-9.471l4.038.715 6.277 42.621c3.453 23.441 6.598 45.018 6.988 47.948.642 4.812.378 5.328-2.727 5.328-3.082 0-3.603-.99-5.035-9.569l-1.598-9.57-8.28.69-8.28.69-1.177 8.288c-1.036 7.294-1.635 8.378-5.001 9.041-3.355.661-3.734.225-3.089-3.552Zm23.155-34.103c-3.258-24.152-5.365-35.998-5.861-32.95-2.087 12.825-5.685 36.232-5.685 36.983 0 .497 2.748.902 6.106.902 5.73 0 6.065-.303 5.44-4.935Z"/></svg>