<svg xmlns="http://www.w3.org/2000/svg" viewBox="0 0 192 192"><path d="M141.625 163.782c-5.639-4.546-14.34-11.568-19.337-15.604l-9.085-7.338 3.05.006c2.859.005 3.804.616 15.052 9.736 6.601 5.353 12.46 9.799 13.02 9.881.559.082 1.569.649 2.243 1.259 1.155 1.045 1.211.631.983-7.224-.133-4.583-.322-9.531-.419-10.995-.169-2.547-.081-2.663 2.045-2.663h2.221l.51 15.333c.28 8.434.388 15.455.239 15.604-.148.148-4.883-3.449-10.522-7.995Zm-61.534-5.37c-.753-1.269-3.495-5.742-6.094-9.94l-4.725-7.632h2.781c2.729 0 2.847.111 6.414 6.015 1.998 3.308 3.896 6.178 4.218 6.376.321.199 3.084-2.508 6.14-6.015 5.199-5.968 5.73-6.376 8.296-6.376 2.007 0 2.597.237 2.202.887-1.004 1.652-16.856 18.993-17.362 18.993-.276 0-1.118-1.039-1.87-2.308Zm17.873-24.011c-3.508-1.019-5.522-3.697-5.522-7.344 0-5.608 2.952-8.219 10.531-9.315 4.744-.686 6.171-1.504 5.901-3.383-.449-3.126-7.159-3.439-8.288-.386-.445 1.203-1.192 1.506-3.875 1.576-2.88.075-3.323-.103-3.32-1.334.006-2.739 2.599-5.826 5.978-7.117 5.411-2.066 14.101-.391 15.956 3.076.373.698.782 6.286.909 12.418l.229 11.15-3.372-.001c-2.882 0-3.373-.204-3.373-1.399 0-1.327-.133-1.308-2.584.355-1.421.964-3.152 1.753-3.847 1.753-.694 0-1.688.131-2.208.29-.52.16-1.922.008-3.115-.339Zm9.174-6.392c1.432-1.127 1.87-2.102 1.87-4.16v-2.688l-4.437 1.156c-4.251 1.108-4.447 1.257-4.668 3.553-.138 1.438.146 2.635.71 2.992 1.653 1.048 4.597.663 6.525-.853Zm19.975 6.106c-6.8-2.436-9.746-10.413-7.117-19.267 1.6-5.388 5.916-8.797 11.136-8.797 2.168 0 6.276 1.959 6.276 2.993 0 .306.239.557.532.558.293.001.43-2.874.305-6.39l-.228-6.391h7.911v36.919h-3.55c-3.127 0-3.55-.177-3.55-1.483 0-1.427-.083-1.414-2.185.355-1.201 1.011-2.559 1.842-3.017 1.848-.458.005-1.472.159-2.253.341-.781.182-2.698-.126-4.26-.686Zm9.157-6.983c4.507-4.506 2.027-14.692-3.577-14.692-2.516 0-3.79.753-4.896 2.891-2 3.867-.789 11.856 1.963 12.964 2.188.88 4.963.384 6.51-1.163Zm17.822 7.032c-3.603-1.591-4.976-3.706-4.918-7.582.079-5.32 3.147-7.96 10.31-8.873 4.998-.637 6.465-1.431 6.189-3.35-.458-3.184-7.021-3.419-8.444-.302-.596 1.305-1.299 1.578-4.059 1.578-3.145 0-3.325-.102-3.117-1.775.302-2.439 2.342-5.126 4.807-6.333 4.862-2.38 13.114-1.504 16.354 1.736 1.646 1.646 1.693 2.017 1.693 13.268v11.574l-3.195-.254c-2.667-.212-3.195-.495-3.195-1.712 0-1.356-.089-1.378-1.268-.311-1.579 1.429-6.071 3.341-7.761 3.304-.696-.015-2.224-.451-3.396-.968Zm9.973-6.427c1.166-1.166 1.742-2.54 1.742-4.156v-2.413l-3.372.895c-6.011 1.593-6.363 1.91-5.871 5.287.388 2.664 4.987 2.901 7.501.387Zm-138.781 4.875c-2.102-1.769-2.184-1.782-2.184-.355 0 1.306-.423 1.483-3.55 1.483H16V96.821h7.1v13.755l2.019-1.934c4.486-4.299 12.145-2.836 15.559 2.972 1.671 2.842 1.941 4.066 1.905 8.636-.074 9.319-4.001 14.192-11.441 14.197-2.918.002-4.122-.375-5.858-1.835Zm6.659-4.283c4.201-1.612 4.201-13.836 0-15.448-4.03-1.546-7.826.931-8.52 5.561-1.05 7 3.197 11.93 8.52 9.887Zm17.697 4.765c-3.186-1.942-3.821-4.625-3.821-16.145v-10.188h7.1v9.426c0 7.383.24 9.769 1.106 11.005 1.515 2.164 4.84 2.087 7.091-.165 1.673-1.672 1.743-2.117 1.743-11.004v-9.262h7.716l-.121 13.489-.121 13.49h-3.382c-3.198 0-3.382-.104-3.382-1.911 0-1.64-.126-1.755-.887-.814-2.907 3.593-8.974 4.56-13.042 2.079Zm25.289-12.844v-13.489h6.854l-.272 2.307-.272 2.307 1.638-1.861c1.945-2.211 4.188-3.463 6.205-3.463 1.287 0 1.467.435 1.467 3.549 0 3.296-.125 3.55-1.742 3.55-2.624 0-5.108 1.372-5.99 3.307-.433.952-.788 5.23-.788 9.507v7.776h-7.1Zm-2.13-41.476c0-9.535-.194-17.842-.431-18.46-.358-.933.18-1.123 3.195-1.123 3.462 0 3.626.087 3.626 1.908v1.908l2.097-2.009c4.556-4.365 12.776-2.552 15.945 3.518 1.124 2.153 1.48 4.129 1.471 8.165-.019 8.762-3.391 13.377-10.256 14.037-3.371.324-7.837-1.212-7.837-2.695a.703.703 0 0 0-.71-.692c-.421 0-.71 2.603-.71 6.39v6.39h-6.39ZM88.95 80.11c3.238-2.268 3.66-9.779.757-13.47-1.959-2.491-6.071-2.46-8.442.063-1.457 1.552-1.721 2.54-1.721 6.452 0 4.181.189 4.782 1.992 6.332 2.282 1.963 5.156 2.205 7.414.623Zm73.974 9.008c-4.894-3.846-9.23-7.121-9.636-7.277-.663-.257 13.811-28.846 17.042-33.661l1.328-1.979-1.683.466c-1.893.523-26.946 2.764-27.266 2.439-.113-.115-.037-1.088.169-2.162.356-1.853.579-1.953 4.375-1.962 2.2-.005 9.431-.478 16.069-1.05 6.639-.573 12.328-1.048 12.642-1.056.315-.008-1.48 3.899-3.989 8.683a6843.206 6843.206 0 0 0-9.911 18.992l-5.351 10.295 9.117 7.086c8.342 6.485 9.688 8.123 6.712 8.168-.396.006-4.724-3.136-9.618-6.982ZM53.338 86.786c-3.838-.885-6.904-2.926-8.584-5.713-1.901-3.155-2-12.61-.168-15.988 3.849-7.095 14.739-8.953 20.879-3.562 3.131 2.749 4.494 5.803 4.494 10.07v3.218h-9.94c-6.467 0-9.94.26-9.94.745 0 1.411 2.08 4.764 3.227 5.204 2.478.951 6.489.446 7.778-.979.982-1.085 2.187-1.42 5.105-1.42 3.732 0 3.801.037 2.996 1.598-2.929 5.68-9.166 8.368-15.847 6.827Zm8.811-18.255c0-1.626-1.907-3.405-4.287-3.999-2.613-.651-5.418.667-6.702 3.149l-1.117 2.16h6.053c5.41 0 6.053-.139 6.053-1.31Zm43.501 17.297c-2.377-1.033-5.154-4.767-5.159-6.934-.002-1.018.639-1.243 3.547-1.243 1.953 0 3.55.32 3.55.71 0 .391.639 1.349 1.42 2.13 2.518 2.518 9.23 1.529 9.23-1.359 0-1.439-1.912-2.386-7.455-3.692-6.561-1.546-9.585-3.981-9.585-7.72 0-2.797 2.345-6.51 5.014-7.941 3.153-1.691 9.344-1.679 13.091.025 3.273 1.489 4.235 2.522 4.886 5.245.456 1.908.395 1.952-2.71 1.952-2.441 0-3.587-.41-4.951-1.775-2.74-2.74-8.23-2.026-8.23 1.07 0 1.071.905 1.624 4.083 2.499 10.964 3.017 13.339 4.902 12.755 10.127-.615 5.508-4.468 7.977-12.377 7.931-2.649-.015-5.848-.476-7.109-1.025ZM16 67.711V49.252h7.1v12.021l2.511-1.481c3.826-2.258 9.59-1.606 12.625 1.426l2.259 2.257.226 11.348.226 11.348H33.75v-8.414c0-4.628-.352-9.422-.781-10.654-.95-2.725-3.603-3.633-6.26-2.142-2.985 1.676-3.587 3.828-3.599 12.868l-.01 8.342H16Zm112.178 4.97v-13.49h3.727l3.728-.001-.207 13.49-.208 13.491h-7.04Zm.761-17.49c-1.763-2.242-1.772-2.354-.366-4.361 2.083-2.975 7.415-1.188 7.415 2.484 0 1.377-2.663 3.747-4.209 3.747-.752 0-2.03-.841-2.84-1.87Zm-74.6-4.022c0-.899.292-1.937.648-2.308.356-.371.822-2.432 1.036-4.579.91-9.139 2.26-18.39 2.754-18.879.293-.29.532-1.593.532-2.894 0-2.691.674-3.015 1.965-.947.488.781 1.284 1.418 1.769 1.415.484-.002 3.277 2.359 6.206 5.247 9.816 9.68 16.78 16.058 17.536 16.058.413 0 1.148.479 1.634 1.065 1.407 1.696 3.53 1.252 6.791-1.42 1.668-1.367 3.204-2.485 3.414-2.485.479 0 5.609-3.464 6.109-4.125 1.475-1.95 4.985-2.517 4.985-.806 0 .366 1.518 2.841 3.373 5.499 4.874 6.986 5.19 7.624 4.244 8.57-1.098 1.099-2.647 1.009-2.647-.153 0-.526-.639-1.534-1.42-2.24-.781-.707-1.42-1.699-1.42-2.205s-.443-1.175-.986-1.488c-.542-.312-1.101-1.172-1.242-1.911-.335-1.754-2.789-3.287-3.247-2.029-.178.488-.935.888-1.684.888-.748 0-1.361.288-1.361.64 0 .56-4.058 3.419-6.034 4.251-.391.164-2.021 1.368-3.624 2.674-1.602 1.306-3.213 2.375-3.579 2.375-.367 0-2.078-1.438-3.802-3.195-1.725-1.758-3.52-3.195-3.989-3.195-.47 0-3.969-3.355-7.776-7.455-3.808-4.1-7.253-7.455-7.658-7.455-.404 0-1.627-.855-2.718-1.901-1.091-1.045-2.163-1.722-2.381-1.504-.218.218-.588 2.681-.822 5.474-.234 2.792-.698 5.245-1.031 5.451-.332.205-.605 2.253-.605 4.55 0 2.297-.319 4.373-.71 4.615-.39.241-.71 1.698-.71 3.236 0 2.512-.182 2.798-1.775 2.798-1.379 0-1.775-.364-1.775-1.632Z"/></svg>