<svg xmlns="http://www.w3.org/2000/svg" viewBox="0 0 192 192"><path d="M49.806 173.121c-7.652-3.146-14.67-9.261-18.87-16.442-4.634-7.925-5.531-16.408-5.025-47.559.664-40.937.749-41.113 33.813-69.986 11.629-10.156 23.102-19.521 25.493-20.811 5.558-2.997 15.684-3.112 21.35-.242 6.51 3.298 47.074 39.533 51.286 45.813 6.914 10.309 7.713 14.758 8.233 45.879.512 30.6-.382 38.991-5.007 46.973-4.088 7.056-12.208 13.947-19.769 16.776-6.345 2.374-8.703 2.502-45.633 2.475-38.523-.027-39.016-.058-45.871-2.876Zm84.937-19.667c2.872-1.451 6.413-4.431 7.869-6.622 2.57-3.866 2.648-4.833 2.636-32.83-.015-38.825 1.849-35.084-31.809-63.842-8.795-7.515-16.636-13.663-17.424-13.663-1.363 0-27.647 21.915-38.538 32.13-2.816 2.642-6.372 7.442-7.903 10.666-2.692 5.674-2.782 6.793-2.793 34.709-.011 27.997.066 28.964 2.636 32.83 1.456 2.191 4.997 5.171 7.87 6.622 5.052 2.553 6.31 2.639 38.728 2.639 32.417 0 33.675-.086 38.728-2.639Z"/></svg>