<svg
    xmlns="http://www.w3.org/2000/svg"
    viewBox="0 0 192 192"
    id="vector">
    <g id="group">
        <path
            id="path_6"
            d="M 49.806 173.121 C 42.154 169.975 35.136 163.86 30.936 156.679 C 26.302 148.754 25.405 140.271 25.911 109.12 C 26.575 68.183 26.66 68.007 59.724 39.134 C 71.353 28.978 82.826 19.613 85.217 18.323 C 90.775 15.326 100.901 15.211 106.567 18.081 C 113.077 21.379 153.641 57.614 157.853 63.894 C 164.767 74.203 165.566 78.652 166.086 109.773 C 166.598 140.373 165.704 148.764 161.079 156.746 C 156.991 163.802 148.871 170.693 141.31 173.522 C 134.965 175.896 132.607 176.024 95.677 175.997 C 57.154 175.97 56.661 175.939 49.806 173.121 Z M 134.743 153.454 C 137.615 152.003 141.156 149.023 142.612 146.832 C 145.182 142.966 145.26 141.999 145.248 114.002 C 145.233 75.177 147.097 78.918 113.439 50.16 C 104.644 42.645 96.803 36.497 96.015 36.497 C 94.652 36.497 68.368 58.412 57.477 68.627 C 54.661 71.269 51.105 76.069 49.574 79.293 C 46.882 84.967 46.792 86.086 46.781 114.002 C 46.77 141.999 46.847 142.966 49.417 146.832 C 50.873 149.023 54.414 152.003 57.287 153.454 C 62.339 156.007 63.597 156.093 96.015 156.093 C 128.432 156.093 129.69 156.007 134.743 153.454 Z"
            fill="#000000"
            stroke-width="12"/>
    </g>
</svg>
