<svg xmlns="http://www.w3.org/2000/svg" viewBox="0 0 192 192"><path d="M89.014 174.449c-20.56-7.444-38.462-23.744-48.709-44.351-8.481-17.055-9.532-22.94-10.15-56.874l-.51-28 32.728-14.612C80.373 22.575 95.505 16 96 16c.495 0 15.627 6.575 33.627 14.612l32.728 14.612-.51 28c-.369 20.249-.903 29.676-1.928 34.054-7.205 30.757-27.676 55.482-54.796 66.181-7.95 3.136-9.856 3.253-16.107.99Zm21.871-20.436c17.876-11.243 31.224-31.476 35.286-53.488l.816-4.424H96.024l-.245-31.942-.245-31.943-25.381 11.219-25.381 11.218v41.448H96v65.096l4.89-1.987c2.689-1.092 7.187-3.431 9.995-5.197Z"/></svg>