<svg xmlns="http://www.w3.org/2000/svg" viewBox="0 0 192 192"><path d="M87.3 37.483c31.39 0 82.741 20.905 82.741 57.403 0 33.071-75.064 53.462-101.678 53.462-26.614 0-51.863-12.166-51.863-42.324 0-30.158 27.296-68.541 70.8-68.541Z" fill="none" stroke="#000" stroke-width="8" stroke-linecap="round" stroke-linejoin="round"/><path d="M16.5 106.024c0 40.439 11.43 54.661 41.115 54.661 29.684 0 84.106-26.788 105.082-48.306M43.435 53.05c22.539-18.765 36.017-21.735 57.683-21.735 26.102 0 74.382 16.107 74.382 51.748 0 19.077-12.804 29.316-12.804 29.316" fill="none" stroke="#000" stroke-width="8" stroke-linecap="round" stroke-linejoin="round"/><path d="M98.782 109.853V79.462h9.906c5.6 0 10.14 4.57 10.14 10.207 0 5.637-4.54 10.207-10.14 10.207h-9.906M42.049 79.462v30.391m20.045-30.391v30.391M42.049 94.6h20.045M90.79 79.462 80.767 94.658 70.744 79.462m10.023 30.391V94.658m46.053 15.195h15.129M126.82 79.462h15.129M126.82 94.658h9.864m-9.864-15.196v30.391" fill="none" stroke="#000" stroke-width="8" stroke-linecap="round" stroke-linejoin="round"/></svg>