<?xml version="1.0" encoding="UTF-8"?>
<svg id="SVGRoot" width="192px" height="192px" version="1.1" viewBox="0 0 192 192" xmlns="http://www.w3.org/2000/svg">
 <path d="m145.92 174.86c-4.9886-1.3712-7.6803-3.2226-14.734-10.135l-6.7547-6.6188 16.688-16.72 16.688-16.72 5.8802 5.86c8.2116 8.1832 10.481 11.842 11.566 18.645 1.7294 10.844-5.9881 22.366-17.187 25.661-2.9104 0.85629-9.0806 0.87042-12.146 0.0265zm10.453-11.17c2.8859-1.2787 5.4132-3.7677 6.9464-6.841 2.5329-5.0773 1.5373-10.185-2.9146-14.952l-2.0931-2.2416-18.802 18.818 0.98181 1.0553c4.6716 5.0208 10.497 6.5471 15.882 4.1612zm-40.687-18.027c-5.891-1.6445-12.201-6.6939-14.958-11.969-4.9655-9.5027-3.2442-20.988 4.267-28.473 9.5297-9.4958 24.556-9.4995 34.031-8e-3 8.5736 8.588 9.4522 21.847 2.0954 31.625-2.6254 3.4894-7.434 7.032-11.353 8.3637-3.2874 1.1171-10.847 1.3645-14.083 0.46084zm11.29-11.278c2.6633-1.15 5.6818-4.1317 7.0794-6.9931 3.1053-6.3576 0.2185-14.172-6.4183-17.375-3.1098-1.5008-7.4874-1.4232-10.781 0.19087-3.167 1.5521-6.2032 4.8825-7.2403 7.9418-3.6576 10.79 6.9651 20.724 17.36 16.235zm-46.552-24.516c-10.528-2.5553-18.274-12.38-18.321-23.238-0.03024-6.9037 2.1117-12.183 6.9385-17.101 4.8709-4.9634 10.308-7.2515 17.207-7.2413 9.2961 0.01134 17.198 4.8864 21.328 13.152 3.0616 6.1271 3.5083 12.718 1.279 18.87-4.2176 11.639-16.62 18.426-28.431 15.559zm10.729-11.477c3.2028-1.4938 5.2542-3.4761 6.7961-6.5669 3.2889-6.5928 0.49308-14.651-6.1625-17.762-3.0064-1.4052-7.8651-1.2737-10.903 0.29518-4.9848 2.5739-7.8796 7.1848-7.8335 12.477 0.03863 4.4342 1.8158 7.6153 6.035 10.802 2.6925 2.0337 8.5416 2.3992 12.068 0.75428zm-41.934-19.768c-4.093-1.0158-6.9652-3.1188-14.753-10.801l-7.6342-7.5312 33.415-33.436 7.4925 7.6487c8.6167 8.7965 10.004 10.938 10.283 15.871 0.12605 2.2329-0.04275 3.4144-0.70018 4.903-1.9303 4.3711-5.8679 7.3712-10.19 7.7638l-2.5716 0.23358 0.18811 2.2718c0.29314 3.5406-0.5038 5.6685-3.2258 8.6137-3.5638 3.8557-8.1085 5.5041-12.305 4.4627zm4.475-12.573c2.3573-2.5341 1.8631-4.0961-2.7282-8.6225l-2.9047-2.8637-6.6214 6.5882 2.5387 2.5895c4.5526 4.6439 7.0019 5.2258 9.7156 2.3085zm12.921-14.268c1.653-2.105 0.97715-3.8725-2.9627-7.7483l-2.5854-2.5434-5.9847 6.0412 3.0869 2.9169c1.6978 1.6043 3.5468 2.9901 4.1088 3.0796 1.5325 0.24378 3.3485-0.48711 4.337-1.746zm-46.38 1.8701-3.7379-3.7638 23.825-23.877 7.747 7.7241-11.814 11.84c-6.4979 6.5123-11.92 11.84-12.048 11.84s-1.9157-1.6938-3.9716-3.7638zm26.5-26.544-3.7377-3.7635 6.8328-6.8443 3.8572 3.8636 3.8572 3.8638-3.2943 3.322c-1.8118 1.8271-3.403 3.322-3.5359 3.322-0.13289 0-1.9236-1.6936-3.9793-3.7635z" stroke="#000" stroke-linecap="round" stroke-linejoin="round"/>
</svg>
