<svg xmlns="http://www.w3.org/2000/svg" width="192" height="192" viewBox="0 0 192 192"><path stroke="#000" stroke-linecap="round" stroke-linejoin="round" d="M145.92 174.86c-4.989-1.371-7.68-3.223-14.734-10.135l-6.755-6.619 16.688-16.72 16.688-16.72 5.88 5.86c8.212 8.183 10.481 11.842 11.566 18.645 1.73 10.844-5.988 22.366-17.187 25.661-2.91.856-9.08.87-12.146.027zm10.453-11.17c2.886-1.279 5.413-3.768 6.946-6.841 2.533-5.077 1.538-10.185-2.914-14.952l-2.093-2.242-18.802 18.818.982 1.056c4.671 5.02 10.497 6.547 15.882 4.16zm-40.687-18.027c-5.891-1.645-12.201-6.694-14.958-11.969-4.965-9.503-3.244-20.988 4.267-28.473 9.53-9.496 24.556-9.5 34.031-.008 8.574 8.588 9.452 21.847 2.095 31.625-2.625 3.49-7.434 7.032-11.353 8.364-3.287 1.117-10.847 1.364-14.083.46zm11.29-11.278c2.663-1.15 5.682-4.132 7.08-6.993 3.105-6.358.218-14.172-6.419-17.375-3.11-1.5-7.487-1.423-10.78.19-3.168 1.553-6.204 4.883-7.241 7.943-3.658 10.79 6.965 20.724 17.36 16.235zm-46.552-24.516c-10.528-2.555-18.274-12.38-18.321-23.238-.03-6.904 2.112-12.183 6.939-17.101 4.87-4.963 10.308-7.251 17.207-7.241 9.296.011 17.198 4.886 21.328 13.152 3.061 6.127 3.508 12.718 1.279 18.87-4.218 11.639-16.62 18.426-28.431 15.559zm10.729-11.477c3.203-1.494 5.254-3.476 6.796-6.567 3.289-6.593.493-14.65-6.162-17.762-3.007-1.405-7.865-1.274-10.903.295-4.985 2.574-7.88 7.185-7.834 12.477.039 4.434 1.816 7.616 6.035 10.802 2.693 2.034 8.542 2.4 12.068.755zM49.219 78.624c-4.093-1.016-6.965-3.119-14.753-10.801l-7.634-7.531 33.415-33.436 7.492 7.649c8.617 8.796 10.004 10.938 10.283 15.87.126 2.233-.042 3.415-.7 4.904-1.93 4.37-5.868 7.37-10.19 7.763l-2.571.234.188 2.272c.293 3.54-.504 5.668-3.226 8.613-3.564 3.856-8.109 5.504-12.305 4.463zm4.475-12.573c2.357-2.534 1.863-4.096-2.728-8.622l-2.905-2.864-6.621 6.588 2.538 2.59c4.553 4.643 7.002 5.225 9.716 2.308zm12.921-14.268c1.653-2.105.977-3.872-2.963-7.748l-2.585-2.544-5.985 6.042 3.087 2.916c1.698 1.605 3.547 2.99 4.109 3.08 1.532.244 3.348-.487 4.337-1.746zm-46.38 1.87-3.738-3.764 23.825-23.877 7.747 7.724-11.814 11.84c-6.498 6.513-11.92 11.84-12.048 11.84s-1.916-1.693-3.971-3.763zm26.5-26.544-3.738-3.763L49.83 16.5l3.857 3.864 3.858 3.864-3.295 3.322c-1.812 1.827-3.403 3.322-3.536 3.322s-1.923-1.694-3.979-3.764z"/></svg>