<svg width="192" height="192" viewBox="0 0 192 192" fill="none" xmlns="http://www.w3.org/2000/svg"><path d="M127 68a9 9 0 0 1-9 9 9 9 0 0 1-9-9 9 9 0 0 1 9-9 9 9 0 0 1 9 9zm-44 0a9 9 0 0 1-9 9 9 9 0 0 1-9-9 9 9 0 0 1 9-9 9 9 0 0 1 9 9z" fill="#000"/><path d="m142.1 22-18.45 18.5M49.86 22l18.45 18.5" stroke="#000" stroke-linecap="round" stroke-width="12"/><path d="M145 82v39a49 49 0 0 1-49 49 49 49 0 0 1-49-49V82a49 49 0 0 1 49-49 49 49 0 0 1 49 49zm-98 9h98" stroke="#000" stroke-width="12"/><g stroke="#000" stroke-width="12" style="stroke-width:38.4;stroke-dasharray:none"><path d="M122 56a26 26 0 0 1-26 26 26 26 0 0 1-26-26 26 26 0 0 1 26-26 26 26 0 0 1 26 26Z" style="stroke-width:38.4;stroke-dasharray:none" transform="translate(66 96.313) scale(.3125)"/><path d="M153.6 178.2 112 80m-67.2 98.2L80 80" stroke-linecap="round" style="stroke-width:38.4;stroke-dasharray:none" transform="translate(66 96.313) scale(.3125)"/><path style="fill:none;fill-opacity:0;stroke:#000;stroke-width:38.4;stroke-linecap:round;stroke-linejoin:round;stroke-dasharray:none" d="M60.858 145.436s43.253 12.441 68.184-6.67c24.931-19.112 38.54-42.245 38.54-42.245" transform="translate(66 96.313) scale(.3125)"/></g></svg>