<svg xmlns="http://www.w3.org/2000/svg" viewBox="0 0 192 192"><path d="M166.222 84.696c2.167-.089 4.304.421 5.995 1.43 1.692 1.009 2.823 2.447 3.173 4.037l.11 26.703c0 10.292-3.65 20.405-10.583 29.318-6.932 8.914-16.905 16.317-28.912 21.463-16.125 6.917-35.04 9.379-53.373 6.947-18.334-2.431-34.93-9.603-46.832-20.237-11.901-10.634-18.357-24.059-18.218-37.884v-26.31c-.189-.98.034-1.981.638-2.864.605-.884 1.561-1.608 2.739-2.073 1.178-.466 2.521-.651 3.846-.53" fill="none" stroke="#000" stroke-width="8" stroke-linecap="round" stroke-linejoin="round"/><path d="M134.558 126.201c-.228 4.034-1.999 7.938-5.104 11.254-3.106 3.315-7.419 5.907-12.435 7.47-5.489 1.908-11.476 2.897-17.537 2.897-6.061 0-12.048-.989-17.537-2.897" fill="none" stroke="#000" stroke-width="8" stroke-linecap="round" stroke-linejoin="round"/><path d="m110.053 125.85 18.092 23.808 1.277 9.822-10.344-5.534-16.649-22.23m-10.391-.262L75.51 153.522l-10.353 6.345.855-10.293 18.46-23.887" fill="none" stroke="#000" stroke-width="8" stroke-linecap="round" stroke-linejoin="round"/><path d="M90.813 96.572h12.381v8.023h4.5a8.824 8.824 0 0 1 3.466.72c1.05.462 1.918 1.121 2.514 1.912.597.79.902 1.684.885 2.59v12.564l-12.298 9.466c-.838.65-1.898 1.12-3.067 1.36a8.992 8.992 0 0 1-3.573 0c-1.169-.24-2.229-.71-3.067-1.36l-12.961-9.879v-12.151c-.017-.906.288-1.8.885-2.59.596-.791 1.464-1.45 2.513-1.912a8.826 8.826 0 0 1 3.467-.72h4.354ZM24.805 84.696H166.22c2.166-.041 4.227-.709 5.74-1.861 1.513-1.151 2.362-2.697 2.364-4.305v-7.749c-.166-10.869-5.377-21.37-14.749-29.722l11.064-8.123c2.366-1.819 3.689-4.251 3.689-6.779 0-2.528-1.323-4.96-3.689-6.779-1.591-1.217-3.593-2.094-5.797-2.539a17.042 17.042 0 0 0-6.731.008c-2.201.451-4.2 1.333-5.785 2.553l-11.024 8.123c-29.915-14.138-60.424-15.211-91.901 0l-10.617-8c-1.571-1.243-3.571-2.143-5.782-2.602a16.806 16.806 0 0 0-6.761-.005c-2.212.457-4.214 1.354-5.788 2.595-7.875 5.073-1.201 12.686-.023 13.547l11.022 8.062C21.871 49.368 16.567 59.891 16.5 70.782v7.748c0 1.083.384 2.146 1.113 3.084.729.937 1.777 1.716 3.04 2.257 1.263.541 2.696.826 4.154.825" fill="none" stroke="#000" stroke-width="8" stroke-linecap="round" stroke-linejoin="round"/><path d="M58.928 52.704c-3.134 0-6.143.926-8.359 2.571s-3.462 3.878-3.462 6.205 1.246 4.56 3.462 6.205c2.216 1.645 5.225 2.571 8.359 2.571 3.135 0 6.144-.926 8.36-2.571 2.216-1.645 3.462-3.878 3.462-6.205s-1.246-4.56-3.462-6.205c-2.216-1.645-5.225-2.571-8.36-2.571Zm73.368 0c-3.134 0-6.143.926-8.36 2.571-2.216 1.645-3.462 3.878-3.462 6.205s1.246 4.56 3.462 6.205c2.217 1.645 5.226 2.571 8.36 2.571 3.134 0 6.143-.926 8.359-2.571s3.462-3.878 3.462-6.205-1.246-4.56-3.462-6.205c-2.216-1.645-5.225-2.571-8.359-2.571Z" fill="none" stroke="#000" stroke-width="8" stroke-linecap="round" stroke-linejoin="round"/></svg>