<svg xmlns="http://www.w3.org/2000/svg" viewBox="0 0 192 192"><path d="M24.665 16.5c-4.727 0-8.165 3.868-8.165 8.595v141.81c0 4.727 3.868 8.595 8.595 8.595h141.81c4.727 0 8.595-3.868 8.595-8.595V24.665c0-4.727-3.868-8.165-8.595-8.165Zm104.424 15.041 25.784 19.337-25.784 19.338m4.297 85.946h22.346m-22.346-38.676 11.173-6.016m0 0v44.692m-34.378-22.776c6.016 0 11.173-5.156 11.173-11.172 0-6.017-5.157-11.173-11.173-11.173m0 44.691c6.016 0 11.173-5.156 11.173-11.173 0-6.016-5.157-11.173-11.173-11.173m-18.478 18.479c3.867 3.008 9.024 4.297 13.751 3.867h4.727m-18.478-40.824c3.867-3.008 9.024-4.297 13.751-3.867h4.727m-11.603 22.345h11.603M93.422 50.878h61.451" fill="none" stroke="#000" stroke-width="12" stroke-linecap="round" stroke-linejoin="round"/><path d="M62.481 101.157 36.697 81.389l25.784-19.338m35.668 19.338H36.697" fill="none" stroke="#000" stroke-width="12" stroke-linecap="round" stroke-linejoin="round"/></svg>