<svg
    xmlns="http://www.w3.org/2000/svg"
    viewBox="0 0 192 192"
    id="vector">
    <path
        id="path"
        d="M 24.665 16.5 C 19.938 16.5 16.5 20.368 16.5 25.095 L 16.5 166.905 C 16.5 171.632 20.368 175.5 25.095 175.5 L 166.905 175.5 C 171.632 175.5 175.5 171.632 175.5 166.905 L 175.5 24.665 C 175.5 19.938 171.632 16.5 166.905 16.5 Z M 129.089 31.541 L 154.873 50.878 L 129.089 70.216 M 133.386 156.162 L 155.732 156.162 M 133.386 117.486 L 144.559 111.47 M 144.559 111.47 L 144.559 156.162 M 110.181 133.386 C 116.197 133.386 121.354 128.23 121.354 122.214 C 121.354 116.197 116.197 111.041 110.181 111.041 M 110.181 155.732 C 116.197 155.732 121.354 150.576 121.354 144.559 C 121.354 138.543 116.197 133.386 110.181 133.386 M 91.703 151.865 C 95.57 154.873 100.727 156.162 105.454 155.732 L 110.181 155.732 M 91.703 114.908 C 95.57 111.9 100.727 110.611 105.454 111.041 L 110.181 111.041 M 98.578 133.386 L 110.181 133.386 M 93.422 50.878 L 154.873 50.878"
        fill="none"
        stroke="#000000"
        stroke-width="12"
        stroke-linecap="round"
        stroke-linejoin="round"/>
    <path
        id="path_1"
        d="M 62.481 101.157 L 36.697 81.389 L 62.481 62.051"
        fill="none"
        stroke="#000000"
        stroke-width="12"
        stroke-linecap="round"
        stroke-linejoin="round"/>
    <path
        id="path_2"
        d="M 98.149 81.389 L 36.697 81.389"
        fill="none"
        stroke="#000000"
        stroke-width="12"
        stroke-linecap="round"
        stroke-linejoin="round"/>
</svg>
