<svg
    xmlns="http://www.w3.org/2000/svg"
    viewBox="0 0 192 192"
    id="vector">
    <path
        id="path"
        d="M 16.001 159.053 L 16.001 142.136 L 45.22 142.136 L 45.22 112.916 L 16.001 112.916 L 16.001 45.25 L 45.22 45.25 L 45.22 16.03 L 146.72 16.03 L 146.72 45.134 L 160.946 45.576 L 175.171 46.019 L 175.586 79.467 L 176 112.916 L 160.976 112.913 L 145.951 112.91 L 146.441 127.524 L 146.931 142.137 L 175.94 142.137 L 175.94 175.97 L 142.107 175.97 L 142.107 146.961 L 127.493 146.471 L 112.88 145.981 L 112.883 160.976 L 112.886 175.97 L 79.053 175.97 L 79.053 146.75 L 49.833 146.75 L 49.833 175.97 L 16 175.97 L 16 159.053 Z M 79.054 64.473 L 79.054 49.863 L 49.834 49.863 L 49.834 79.083 L 79.054 79.083 Z M 142.107 64.473 L 142.107 49.863 L 112.887 49.863 L 112.887 79.083 L 142.107 79.083 Z"
        fill="#000000"
        stroke-width="12"/>
</svg>
