<svg xmlns="http://www.w3.org/2000/svg" viewBox="0 0 192 192"><path d="M95.864 170.136c-9.966-5.114-26.347-9.752-34.446-9.752-5.256 0-8.391 1.281-10.881 4.447-1.064 1.352-1.939 1.845-2.421 1.363-.482-.482.69-2.736 3.242-6.233 6.723-9.215 18.042-28.428 17.085-29-.136-.081-1.627-.842-3.311-1.691-5.034-2.534-11.23-8.715-13.624-13.59-1.852-3.771-2.199-5.472-2.199-10.789 0-5.528.317-6.955 2.552-11.495 3.135-6.367 8.409-11.921 18.705-19.693 10.699-8.076 16.243-13.27 19.657-18.415l2.873-4.327 3.923 3.528c2.158 1.94 5.915 4.502 8.349 5.693 13.938 6.819 30.38-2.862 28.098-16.544-1.665-9.99-9.201-16.903-21.989-20.173-17.498-4.476-35.263 1.802-42.446 14.999-1.823 3.35-2.136 4.719-1.824 7.975.496 5.157 4.099 9.016 9.275 9.935l3.516.624-2.518 1.332c-7.504 3.967-14.784-1.057-14.605-10.079.242-12.26 9.391-22.969 23.386-27.372 8.225-2.588 21.418-2.384 29.354.454 17.461 6.244 27.518 22.149 24.608 38.918-1.313 7.565-3.003 10.843-8.905 17.269-7 7.62-9.287 12.043-6.227 12.043 2.533 0 9.306 3.889 12.708 7.297 6.111 6.123 8.263 13.079 7.045 22.775-1.157 9.215-3.679 12.833-19.56 28.056-7.681 7.363-16.016 16.064-18.521 19.336-2.506 3.271-4.773 5.93-5.037 5.909-.265-.022-2.903-1.282-5.862-2.8Zm24.66-22.794c.794-1.55 1.176-4.617 1.169-9.385-.015-9.289-1.66-14.032-6.824-19.682-3.192-3.493-4.789-4.565-8.339-5.597-8.724-2.536-17.991.165-26.46 7.713-3.611 3.219-9.908 11.823-9.908 13.538 0 .268 1.786.487 3.968.487 10.592 0 29.929 6.587 41.279 14.062 2.923 1.925 3.626 1.769 5.115-1.136Zm-18.685-40.462c2.306-.863 6.282-3.254 8.834-5.312 4.588-3.699 11.765-13.177 10.963-14.476-.228-.369-1.545-.065-2.927.675-3.565 1.908-15.263 1.896-20.759-.021-5.093-1.777-12.532-6.541-17.568-11.252-2.115-1.979-4.22-3.366-4.678-3.083-2.242 1.386-3.366 5.486-3.01 10.984.568 8.769 4.643 16.286 11.186 20.636 5.702 3.79 11.245 4.361 17.959 1.849Zm44.765 43.017c-.892-1.076-.944-5.688-.653-57.885.132-23.562.282-26.358 1.458-27.102.953-.603 1.651-.547 2.557.205 1.108.919 1.247 5.599 1.247 42.194 0 36.368-.144 41.303-1.237 42.396-1.509 1.509-2.244 1.551-3.372.192Zm-103.826-.687c-.71-.71-.944-10.95-.944-41.248 0-22.167.215-40.863.478-41.548.619-1.613 3.933-1.613 4.553 0 .262.685.477 19.381.477 41.548 0 40.719-.096 42.192-2.754 42.192-.476 0-1.29-.425-1.81-.944Zm116.661-16.57c-.208-.544-.286-12.672-.172-26.951l.208-25.962h3.935l.22 25.181c.121 13.849.025 25.977-.212 26.951-.47 1.926-3.324 2.486-3.979.781Zm-130.008-3.072c-.729-.73-.974-6.659-.974-23.581 0-19.502.169-22.776 1.236-23.843.68-.68 1.522-1.237 1.871-1.237 2.179 0 2.419 2.777 2.216 25.669-.203 22.878-.251 23.519-1.792 23.739-.87.125-2.021-.211-2.557-.747Zm-12.699-8.04c-.625-.753-.835-5.751-.686-16.328l.214-15.243 1.878-.266c1.033-.146 2.178.208 2.545.787 1.088 1.717.858 30.08-.253 31.191-1.246 1.246-2.589 1.194-3.698-.141Zm155.907.437c-.767-.495-.951-4.313-.787-16.327l.214-15.681H176v16.12c0 13.713-.176 16.152-1.18 16.327-.65.114-1.631-.084-2.181-.439Z"/></svg>