<svg
    xmlns="http://www.w3.org/2000/svg"
    viewBox="0 0 192 192"
    id="vector">
    <path
        id="path"
        d="M 95.864 170.136 C 85.898 165.022 69.517 160.384 61.418 160.384 C 56.162 160.384 53.027 161.665 50.537 164.831 C 49.473 166.183 48.598 166.676 48.116 166.194 C 47.634 165.712 48.806 163.458 51.358 159.961 C 58.081 150.746 69.4 131.533 68.443 130.961 C 68.307 130.88 66.816 130.119 65.132 129.27 C 60.098 126.736 53.902 120.555 51.508 115.68 C 49.656 111.909 49.309 110.208 49.309 104.891 C 49.309 99.363 49.626 97.936 51.861 93.396 C 54.996 87.029 60.27 81.475 70.566 73.703 C 81.265 65.627 86.809 60.433 90.223 55.288 L 93.096 50.961 L 97.019 54.489 C 99.177 56.429 102.934 58.991 105.368 60.182 C 119.306 67.001 135.748 57.32 133.466 43.638 C 131.801 33.648 124.265 26.735 111.477 23.465 C 93.979 18.989 76.214 25.267 69.031 38.464 C 67.208 41.814 66.895 43.183 67.207 46.439 C 67.703 51.596 71.306 55.455 76.482 56.374 L 79.998 56.998 L 77.48 58.33 C 69.976 62.297 62.696 57.273 62.875 48.251 C 63.117 35.991 72.266 25.282 86.261 20.879 C 94.486 18.291 107.679 18.495 115.615 21.333 C 133.076 27.577 143.133 43.482 140.223 60.251 C 138.91 67.816 137.22 71.094 131.318 77.52 C 124.318 85.14 122.031 89.563 125.091 89.563 C 127.624 89.563 134.397 93.452 137.799 96.86 C 143.91 102.983 146.062 109.939 144.844 119.635 C 143.687 128.85 141.165 132.468 125.284 147.691 C 117.603 155.054 109.268 163.755 106.763 167.027 C 104.257 170.298 101.99 172.957 101.726 172.936 C 101.461 172.914 98.823 171.654 95.864 170.136 Z M 120.524 147.342 C 121.318 145.792 121.7 142.725 121.693 137.957 C 121.678 128.668 120.033 123.925 114.869 118.275 C 111.677 114.782 110.08 113.71 106.53 112.678 C 97.806 110.142 88.539 112.843 80.07 120.391 C 76.459 123.61 70.162 132.214 70.162 133.929 C 70.162 134.197 71.948 134.416 74.13 134.416 C 84.722 134.416 104.059 141.003 115.409 148.478 C 118.332 150.403 119.035 150.247 120.524 147.342 Z M 101.839 106.88 C 104.145 106.017 108.121 103.626 110.673 101.568 C 115.261 97.869 122.438 88.391 121.636 87.092 C 121.408 86.723 120.091 87.027 118.709 87.767 C 115.144 89.675 103.446 89.663 97.95 87.746 C 92.857 85.969 85.418 81.205 80.382 76.494 C 78.267 74.515 76.162 73.128 75.704 73.411 C 73.462 74.797 72.338 78.897 72.694 84.395 C 73.262 93.164 77.337 100.681 83.88 105.031 C 89.582 108.821 95.125 109.392 101.839 106.88 Z M 146.604 149.897 C 145.712 148.821 145.66 144.209 145.951 92.012 C 146.083 68.45 146.233 65.654 147.409 64.91 C 148.362 64.307 149.06 64.363 149.966 65.115 C 151.074 66.034 151.213 70.714 151.213 107.309 C 151.213 143.677 151.069 148.612 149.976 149.705 C 148.467 151.214 147.732 151.256 146.604 149.897 Z M 42.778 149.21 C 42.068 148.5 41.834 138.26 41.834 107.962 C 41.834 85.795 42.049 67.099 42.312 66.414 C 42.931 64.801 46.245 64.801 46.865 66.414 C 47.127 67.099 47.342 85.795 47.342 107.962 C 47.342 148.681 47.246 150.154 44.588 150.154 C 44.112 150.154 43.298 149.729 42.778 149.21 Z M 159.439 132.64 C 159.231 132.096 159.153 119.968 159.267 105.689 L 159.475 79.727 L 163.41 79.727 L 163.63 104.908 C 163.751 118.757 163.655 130.885 163.418 131.859 C 162.948 133.785 160.094 134.345 159.439 132.64 Z M 29.431 129.568 C 28.702 128.838 28.457 122.909 28.457 105.987 C 28.457 86.485 28.626 83.211 29.693 82.144 C 30.373 81.464 31.215 80.907 31.564 80.907 C 33.743 80.907 33.983 83.684 33.78 106.576 C 33.577 129.454 33.529 130.095 31.988 130.315 C 31.118 130.44 29.967 130.104 29.431 129.568 Z M 16.732 121.528 C 16.107 120.775 15.897 115.777 16.046 105.2 L 16.26 89.957 L 18.138 89.691 C 19.171 89.545 20.316 89.899 20.683 90.478 C 21.771 92.195 21.541 120.558 20.43 121.669 C 19.184 122.915 17.841 122.863 16.732 121.528 Z M 172.639 121.965 C 171.872 121.47 171.688 117.652 171.852 105.638 L 172.066 89.957 L 176 89.957 L 176 106.077 C 176 119.79 175.824 122.229 174.82 122.404 C 174.17 122.518 173.189 122.32 172.639 121.965 Z"
        fill="#000000"
        stroke-width="12"/>
</svg>
