<svg
    xmlns="http://www.w3.org/2000/svg"
    viewBox="0 0 192 192"
    id="vector">
    <path
        id="path"
        d="M 135.401 110.692 C 128.045 110.683 120.9 113.17 115.145 117.743 C 109.389 122.316 105.359 128.709 103.718 135.866 C 102.077 143.024 102.922 150.53 106.112 157.146 C 109.303 163.762 114.653 169.103 121.282 172.288 C 127.91 175.472 135.43 176.315 142.6 174.678 C 149.771 173.04 156.175 169.017 160.757 163.272 C 165.338 157.527 167.829 150.395 167.82 143.052 C 167.82 137.38 166.324 131.806 163.482 126.893 C 160.641 121.98 156.553 117.9 151.631 115.063 C 146.709 112.227 141.125 110.733 135.442 110.733 Z M 152.631 143.012 C 152.694 143.771 152.694 144.535 152.631 145.294 L 157.49 149.125 C 157.703 149.287 157.85 149.522 157.903 149.784 C 157.955 150.047 157.91 150.32 157.776 150.552 L 153.162 158.703 C 153.032 158.941 152.818 159.122 152.562 159.212 C 152.306 159.303 152.025 159.295 151.774 159.192 L 146.017 156.909 C 144.84 157.819 143.55 158.573 142.179 159.151 L 141.321 165.224 C 141.282 165.497 141.144 165.747 140.934 165.927 C 140.724 166.107 140.455 166.205 140.178 166.202 L 130.828 166.202 C 130.551 166.205 130.283 166.107 130.072 165.927 C 129.862 165.747 129.724 165.497 129.685 165.224 L 128.787 159.151 C 127.42 158.563 126.131 157.811 124.948 156.909 L 119.232 159.192 C 118.975 159.298 118.688 159.306 118.425 159.216 C 118.162 159.126 117.941 158.944 117.803 158.703 L 112.944 150.552 C 112.807 150.314 112.761 150.034 112.813 149.765 C 112.866 149.495 113.014 149.254 113.23 149.084 L 118.089 145.253 C 118.048 144.507 118.048 143.758 118.089 143.012 C 118.048 142.265 118.048 141.517 118.089 140.77 L 113.434 136.898 C 113.218 136.729 113.07 136.487 113.017 136.218 C 112.965 135.949 113.012 135.669 113.149 135.431 L 117.517 127.525 C 117.661 127.29 117.883 127.112 118.144 127.023 C 118.405 126.934 118.689 126.938 118.946 127.036 L 124.663 129.359 C 125.822 128.413 127.115 127.644 128.501 127.076 L 129.358 120.963 C 129.406 120.697 129.548 120.456 129.757 120.285 C 129.967 120.113 130.231 120.021 130.501 120.026 L 139.729 120.026 C 139.998 120.029 140.258 120.124 140.465 120.294 C 140.673 120.464 140.817 120.7 140.872 120.963 L 141.73 127.076 C 143.097 127.678 144.386 128.444 145.568 129.359 L 151.243 127.036 C 151.501 126.938 151.785 126.934 152.046 127.023 C 152.307 127.112 152.528 127.29 152.672 127.525 L 157.286 135.676 C 157.419 135.918 157.459 136.201 157.399 136.471 C 157.339 136.74 157.182 136.979 156.959 137.143 L 152.1 140.974 C 152.269 141.711 152.378 142.461 152.427 143.216 Z"
        fill="none"
        stroke="#000000"
        stroke-width="8"
        stroke-linecap="round"
        stroke-linejoin="round"/>
    <path
        id="path_1"
        d="M 135.197 134.983 C 133.498 134.983 131.843 135.52 130.469 136.516 C 129.095 137.513 128.072 138.918 127.547 140.531 C 127.022 142.143 127.022 143.88 127.547 145.493 C 128.072 147.105 129.095 148.511 130.469 149.507 C 131.843 150.504 133.498 151.041 135.197 151.041 C 136.895 151.041 138.551 150.504 139.925 149.507 C 141.299 148.511 142.322 147.105 142.847 145.493 C 143.372 143.88 143.372 142.143 142.847 140.531 C 142.322 138.918 141.299 137.513 139.925 136.516 C 138.551 135.52 136.895 134.983 135.197 134.983 Z"
        fill="none"
        stroke="#000000"
        stroke-width="8"
        stroke-linecap="round"
        stroke-linejoin="round"/>
    <path
        id="path_2"
        d="M 146.874 112.608 L 146.874 24.168 C 146.874 22.144 146.071 20.2 144.64 18.765 C 143.21 17.329 141.267 16.517 139.239 16.506 L 31.774 16.506 C 29.753 16.528 27.821 17.345 26.399 18.779 C 24.978 20.213 24.18 22.151 24.18 24.168 L 24.18 162.167 C 24.233 164.149 25.054 166.035 26.47 167.425 C 27.886 168.816 29.788 169.605 31.774 169.625 L 116.823 169.625 M 99.879 104.416 L 39.491 104.416 L 71.379 58.607 L 96.163 83.345 L 103.268 76.295 L 120.049 93.086 C 112.548 95.339 105.652 99.254 99.879 104.538 Z M 114.251 69.978 C 111.633 69.996 109.086 69.123 107.032 67.503 C 104.978 65.883 103.537 63.611 102.95 61.065 C 102.362 58.518 102.662 55.846 103.799 53.493 C 104.936 51.139 106.844 49.241 109.206 48.115 C 111.568 46.988 114.246 46.699 116.795 47.294 C 119.344 47.89 121.614 49.336 123.23 51.392 C 124.845 53.448 125.711 55.994 125.683 58.607 C 125.684 61.64 124.481 64.553 122.34 66.705 C 120.199 68.857 117.289 70.078 114.251 70.1 Z"
        fill="none"
        stroke="#000000"
        stroke-width="8"
        stroke-linecap="round"
        stroke-linejoin="round"/>
</svg>
