<svg xmlns="http://www.w3.org/2000/svg" viewBox="0 0 192 192"><path d="M135.401 110.692a32.503 32.503 0 0 0-20.256 7.051 32.4 32.4 0 0 0-11.427 18.123 32.355 32.355 0 0 0 2.394 21.28 32.439 32.439 0 0 0 15.17 15.142 32.527 32.527 0 0 0 21.318 2.39 32.478 32.478 0 0 0 18.157-11.406 32.373 32.373 0 0 0 7.063-20.22 32.273 32.273 0 0 0-4.338-16.159 32.348 32.348 0 0 0-11.851-11.83 32.43 32.43 0 0 0-16.189-4.33Zm17.23 32.32a13.8 13.8 0 0 1 0 2.282l4.859 3.831a1.104 1.104 0 0 1 .286 1.427l-4.614 8.151a1.104 1.104 0 0 1-1.388.489l-5.757-2.283a17.199 17.199 0 0 1-3.838 2.242l-.858 6.073a1.14 1.14 0 0 1-1.143.978h-9.35a1.145 1.145 0 0 1-1.143-.978l-.898-6.073a18.17 18.17 0 0 1-3.839-2.242l-5.716 2.283a1.145 1.145 0 0 1-1.429-.489l-4.859-8.151a1.144 1.144 0 0 1 .286-1.468l4.859-3.831a20.43 20.43 0 0 1 0-2.241 20.449 20.449 0 0 1 0-2.242l-4.655-3.872a1.145 1.145 0 0 1-.417-.68 1.144 1.144 0 0 1 .132-.787l4.368-7.906a1.184 1.184 0 0 1 1.429-.489l5.717 2.323a15.159 15.159 0 0 1 3.838-2.283l.857-6.113a1.139 1.139 0 0 1 1.143-.937h9.228a1.181 1.181 0 0 1 1.143.937l.858 6.113a18.351 18.351 0 0 1 3.838 2.283l5.675-2.323a1.185 1.185 0 0 1 1.429.489l4.614 8.151a1.139 1.139 0 0 1-.327 1.467l-4.859 3.831c.169.737.278 1.487.327 2.242Z" fill="none" stroke="#000" stroke-width="8" stroke-linecap="round" stroke-linejoin="round"/><path d="M135.197 134.983a8.056 8.056 0 0 0-4.728 1.533 8.033 8.033 0 0 0-2.922 4.015 8.013 8.013 0 0 0 2.922 8.976 8.05 8.05 0 0 0 12.378-4.014 8.013 8.013 0 0 0 0-4.962 8.033 8.033 0 0 0-2.922-4.015 8.059 8.059 0 0 0-4.728-1.533Z" fill="none" stroke="#000" stroke-width="8" stroke-linecap="round" stroke-linejoin="round"/><path d="M146.874 112.608v-88.44a7.653 7.653 0 0 0-2.234-5.403 7.682 7.682 0 0 0-5.401-2.259H31.774a7.69 7.69 0 0 0-5.375 2.273 7.66 7.66 0 0 0-2.219 5.389v137.999a7.656 7.656 0 0 0 2.29 5.258 7.68 7.68 0 0 0 5.304 2.2h85.049m-16.944-65.209H39.491l31.888-45.809 24.784 24.738 7.105-7.05 16.781 16.791a52.052 52.052 0 0 0-20.17 11.452Zm14.372-34.438a11.53 11.53 0 0 1-7.219-2.475 11.49 11.49 0 0 1-4.082-6.438 11.474 11.474 0 0 1 .849-7.572 11.502 11.502 0 0 1 5.407-5.378 11.522 11.522 0 0 1 14.024 3.277 11.484 11.484 0 0 1 2.453 7.215 11.48 11.48 0 0 1-3.343 8.098 11.533 11.533 0 0 1-8.089 3.395Z" fill="none" stroke="#000" stroke-width="8" stroke-linecap="round" stroke-linejoin="round"/></svg>