<svg width="24" height="24" fill="none" viewBox="0 0 24 24" xmlns="http://www.w3.org/2000/svg"><path d="M10.825 21.953a45.158 45.158 0 0 0-1.59-.347c-.486-.101-.599-.183-.599-.432 0-.147.086-.26.236-.314.042-.014.25.012.461.058.212.046.39.08.396.074.006-.005.061-.243.123-.528.08-.373.097-.524.059-.536l-.492-.161c-.501-.164-1.243-.508-1.628-.754a1.765 1.765 0 0 0-.297-.167c-.053.002-.586.77-.586.844 0 .037.13.163.29.28.158.118.312.264.34.326.106.232-.153.533-.393.457-.1-.032-1.833-1.274-1.914-1.372a.565.565 0 0 1-.076-.178c-.025-.101-.005-.152.108-.265.077-.076.18-.139.228-.139.049 0 .236.104.417.23.18.127.346.23.368.23.04 0 .544-.68.587-.794.015-.038-.126-.2-.36-.413-.425-.387-.94-.978-1.208-1.384a1.807 1.807 0 0 0-.194-.265c-.016 0-.882.497-.927.533-.008.006.08.173.195.372.116.198.211.396.211.44 0 .043-.048.135-.108.204-.13.152-.362.17-.486.037-.045-.049-.327-.513-.627-1.032-.595-1.03-.63-1.141-.42-1.322.234-.201.403-.116.653.331.092.164.185.31.208.324.056.034.916-.448.918-.515 0-.028-.073-.21-.164-.407a8.65 8.65 0 0 1-.556-1.726c-.07-.367-.093-.42-.175-.418-.158 0-.963.09-.981.109-.01.01.004.187.03.395.039.309.036.402-.019.507-.112.216-.36.253-.524.078-.09-.095-.114-.228-.215-1.163C2.052 12.569 2 12.03 2 11.952c0-.306.405-.463.59-.228.065.083.099.224.123.51l.033.395.237-.028c.131-.016.373-.043.537-.06l.3-.033.033-.806c.023-.571.065-.961.144-1.337.061-.291.098-.543.082-.559-.043-.044-.967-.338-.988-.314-.01.011-.077.197-.15.412-.11.32-.159.403-.265.454a.327.327 0 0 1-.446-.176c-.055-.134-.066-.095.585-2.13.083-.26.2-.375.383-.375.318 0 .401.28.23.776-.05.147-.092.291-.092.32 0 .063.947.367 1.013.325a.103.103 0 0 0 .047-.077c0-.183.676-1.404 1.066-1.925.258-.344.278-.283-.253-.754l-.316-.28-.286.308c-.252.27-.307.309-.453.309-.125 0-.19-.03-.262-.122-.116-.148-.12-.233-.014-.391.129-.194 1.491-1.692 1.565-1.72.23-.088.474.08.474.328 0 .107-.066.212-.283.449-.164.179-.266.326-.242.349.022.022.206.185.407.362l.366.321.321-.293c.177-.161.483-.41.681-.552.335-.241 1.045-.687 1.15-.722.036-.012-.327-.926-.395-.996-.008-.008-.156.05-.33.13-.527.242-.8.176-.8-.191 0-.14.026-.193.122-.256.214-.14 2.06-.936 2.172-.936.134 0 .333.194.333.323 0 .186-.1.283-.464.447-.201.09-.365.185-.365.21 0 .066.372.906.413.931.018.012.142-.02.276-.071.496-.189 1.282-.353 2.087-.437l.265-.027v-1.1h-.417c-.38 0-.426-.01-.53-.113-.125-.125-.137-.197-.061-.363.089-.196.208-.215 1.377-.215s1.288.019 1.378.215c.075.166.063.238-.062.363-.104.104-.15.113-.53.113h-.417v1.1l.265.027c.788.082 1.514.233 2.096.435.198.069.272.078.299.037.069-.109.381-.835.381-.887 0-.03-.165-.13-.367-.222-.366-.167-.462-.259-.462-.443 0-.129.2-.323.332-.323.058 0 .417.136.797.303.38.167.836.366 1.014.442.177.076.36.175.406.22.1.096.116.339.029.444-.14.167-.263.167-.678-.002a3.6 3.6 0 0 0-.404-.15c-.08.104-.429.98-.395.991.107.036.817.482 1.165.732.205.148.513.398.683.555l.31.286.34-.303c.188-.167.37-.33.405-.364.055-.05.02-.109-.218-.374-.33-.366-.37-.54-.162-.703.181-.143.325-.121.518.077.486.5 1.374 1.51 1.433 1.63.06.123.059.154-.001.262-.096.17-.257.244-.408.187-.065-.025-.236-.174-.378-.33l-.259-.285-.398.361c-.227.207-.384.383-.367.412.018.028.133.187.258.353.275.368.681 1.078.886 1.548.083.192.163.36.177.375.041.04.999-.274.998-.328 0-.027-.041-.183-.092-.348-.117-.384-.117-.562.001-.669.123-.11.35-.107.465.008.055.055.229.524.44 1.187.307.97.34 1.11.293 1.225a.328.328 0 0 1-.446.177c-.107-.05-.155-.134-.268-.465-.076-.222-.16-.403-.186-.403-.027 0-.255.07-.508.155-.3.1-.457.177-.453.219.003.035.053.281.109.547.071.336.112.732.132 1.29l.03.807.3.032.536.06.238.03.033-.404c.028-.333.052-.42.14-.51a.334.334 0 0 1 .572.242c0 .075-.051.61-.114 1.192-.1.935-.125 1.068-.215 1.163-.162.173-.412.138-.52-.072-.05-.097-.055-.205-.02-.508.023-.212.035-.393.027-.401-.018-.018-.828-.107-.977-.108-.08 0-.104.057-.175.425a8.68 8.68 0 0 1-.562 1.724c-.089.193-.162.374-.161.402.001.066.862.549.917.514.023-.014.117-.16.209-.323.26-.465.436-.543.679-.3.11.111.133.164.108.261-.035.143-1.062 1.932-1.182 2.062-.123.133-.355.115-.486-.037-.06-.07-.108-.162-.108-.205 0-.043.095-.241.211-.44.116-.198.204-.365.196-.371-.008-.007-.22-.132-.471-.278-.353-.206-.464-.252-.492-.203-.162.286-.713.944-1.183 1.412-.386.383-.557.584-.532.624.146.24.545.769.578.769.023 0 .194-.107.38-.237.266-.185.363-.23.454-.207.24.06.369.319.248.503-.037.057-.294.268-.57.468l-.893.652c-.505.371-.598.396-.787.207-.117-.117-.138-.168-.112-.27.04-.162.117-.244.424-.456.168-.115.244-.197.231-.247-.025-.096-.55-.825-.596-.827-.018 0-.143.069-.276.154-.54.345-1.186.625-2.14.928-.038.012-.022.164.059.536.061.285.117.523.122.528.006.006.184-.028.396-.074.397-.087.478-.081.617.038.107.092.107.385 0 .483-.044.04-.278.115-.518.166-.241.051-.687.147-.991.214-.304.067-.63.133-.725.146-.324.048-.527-.212-.382-.491.062-.12.114-.145.436-.215.202-.043.392-.094.422-.113.042-.026.03-.157-.054-.547l-.11-.513-.324.036c-.363.04-1.526.048-2.05.013l-.345-.023-.114.5c-.088.387-.1.506-.056.533.032.02.22.07.42.113.39.084.447.124.49.342.039.193-.14.38-.36.375a.86.86 0 0 1-.198-.022zm2.619-2.621a7.428 7.428 0 0 0 4.75-3.175 7.308 7.308 0 0 0 1.257-3.861 7.218 7.218 0 0 0-.82-3.729c-1.049-2.034-3.054-3.522-5.317-3.945-.693-.13-2.082-.118-2.743.023-1.356.29-2.505.86-3.52 1.747a8.014 8.014 0 0 0-1.778 2.329c-.736 1.52-.929 3.38-.524 5.055a7.465 7.465 0 0 0 5.683 5.532c.683.146 1.052.179 1.786.158a6.968 6.968 0 0 0 1.226-.134zM8.648 17.98c-.126-.02-.242-.177-.242-.326 0-.14.434-.905.566-.998a.426.426 0 0 1 .206-.069c.138 0 .334.195.334.333 0 .06-.118.308-.262.554-.269.458-.37.543-.602.506zm6.459-.008c-.113-.047-.618-.914-.618-1.06 0-.127.197-.325.323-.325.163 0 .267.083.434.344.235.368.349.606.349.732 0 .228-.27.4-.488.309zm-3.475-.32c-.65-.213-1.032-.726-1.033-1.388-.001-.305.017-.379.155-.635a1.419 1.419 0 0 1 2.195-.411c.078.066.212.25.298.41.138.257.156.33.155.636 0 .574-.272 1.018-.78 1.279-.246.126-.765.184-.99.11zm.74-.755c.466-.314.487-.917.043-1.22-.2-.137-.603-.144-.816-.013-.184.112-.336.4-.336.638 0 .36.357.7.737.7.15 0 .266-.033.373-.105zm-4.366-1.406c-.986-.353-1.29-1.535-.592-2.307a1.425 1.425 0 0 1 1.637-.32c.425.208.677.536.786 1.02.137.615-.247 1.314-.87 1.581-.259.111-.69.123-.96.026zm.752-.685a.936.936 0 0 0 .283-.237c.1-.132.124-.21.124-.424 0-.219-.023-.292-.133-.436-.234-.307-.659-.395-.953-.197-.233.157-.365.38-.365.619a.73.73 0 0 0 1.044.675zm6.488.727c-.227-.06-.617-.29-.745-.442a1.9 1.9 0 0 1-.36-.82c-.075-.521.315-1.189.832-1.425.32-.146.828-.146 1.156 0 .293.131.581.421.719.722.143.314.146.832.007 1.135-.222.484-.693.817-1.2.85-.147.009-.331 0-.409-.02zm.71-.776c.457-.338.44-.925-.035-1.245-.41-.276-1.007.011-1.09.524-.05.32.166.683.487.815.132.054.513-.002.637-.094zm-4.426-1.416a1.421 1.421 0 0 1-.495-2.365c.517-.506 1.413-.506 1.93 0 .306.3.442.626.437 1.049-.006.527-.232.918-.689 1.195-.232.14-.304.16-.637.172-.245.01-.435-.009-.546-.051zm.839-.723a.705.705 0 0 0 .273-.956c-.155-.274-.298-.352-.642-.352s-.486.078-.642.352c-.354.624.375 1.314 1.01.956zm-7.101-.357c-.077-.062-.107-.134-.107-.26 0-.292.114-.345.74-.345.498 0 .533.006.64.113a.397.397 0 0 1 .113.233c0 .065-.05.17-.113.232-.107.107-.142.113-.64.113-.446 0-.543-.013-.633-.086zm12.192-.027a.397.397 0 0 1-.113-.232c0-.066.05-.17.113-.233.107-.107.142-.113.64-.113.625 0 .74.053.74.346 0 .292-.115.345-.74.345-.498 0-.533-.006-.64-.113zm-9.453-1.03c-1.212-.432-1.312-2.06-.161-2.622.22-.108.315-.127.606-.123.534.009.95.243 1.196.673.28.489.287.986.023 1.446-.322.56-1.068.84-1.664.627zm.764-.676a.754.754 0 0 0 .09-1.273c-.209-.149-.617-.156-.809-.014-.464.343-.45.928.028 1.25a.75.75 0 0 0 .692.038zm6.382.697a1.74 1.74 0 0 1-.722-.504 1.935 1.935 0 0 1-.22-.451c-.123-.368-.095-.663.1-1.055.245-.489.672-.75 1.238-.757.29-.004.388.017.607.123.514.252.797.705.797 1.278 0 .567-.274 1.018-.775 1.274-.274.14-.748.183-1.025.092zm.768-.734c.476-.32.492-.907.035-1.245a.797.797 0 0 0-.346-.11c-.765-.064-1.075.968-.412 1.372a.729.729 0 0 0 .723-.017zM11.734 9.12c-.274-.055-.64-.264-.798-.456-.245-.297-.335-.545-.336-.924 0-.572.267-1.014.778-1.28.195-.103.292-.122.623-.123.337-.002.423.015.622.12.513.273.78.712.778 1.283-.001.568-.27 1-.768 1.238-.323.155-.609.2-.899.142zm.57-.73c.39-.178.557-.688.333-1.018-.326-.48-.91-.498-1.25-.039-.24.325-.1.833.287 1.037.244.129.38.133.63.02zM8.944 7.311a1.836 1.836 0 0 1-.263-.38 5.948 5.948 0 0 0-.212-.367c-.233-.34.246-.732.523-.428.158.174.521.833.521.946 0 .141-.197.333-.34.333a.41.41 0 0 1-.23-.104zm5.66-.009c-.063-.062-.114-.159-.114-.215 0-.056.118-.304.261-.552.298-.515.418-.605.65-.485.267.138.26.297-.038.818-.324.565-.518.676-.76.434z" fill="#000"/></svg>