<svg xmlns="http://www.w3.org/2000/svg" id="svg1300" version="1.1" viewBox="0 0 48 48"><defs id="defs1216"><style id="style1214">.a{fill:none;stroke:#000;stroke-linecap:round;stroke-linejoin:round}</style></defs><path id="path1218" d="M7.94 12.85a9.84 9.84 0 0 0 .38 3.79L6 18.35" class="a" style="stroke-width:1.75748031;stroke-miterlimit:4;stroke-dasharray:none"/><path id="path1220" d="M6.3 21.82a16.23 16.23 0 0 1 3.15-1.32" class="a" style="stroke-width:1.75748031;stroke-miterlimit:4;stroke-dasharray:none"/><path id="path1222" d="M5 27.07a24.76 24.76 0 0 1 3.85-2.56" class="a" style="stroke-width:1.75748031;stroke-miterlimit:4;stroke-dasharray:none"/><path id="path1224" d="M5.92 30.26a10.29 10.29 0 0 0 .34 3.79" class="a" style="stroke-width:1.75748031;stroke-miterlimit:4;stroke-dasharray:none"/><path id="path1226" d="M6.61 37a9.33 9.33 0 0 1 1.52-1.24" class="a" style="stroke-width:1.75748031;stroke-miterlimit:4;stroke-dasharray:none"/><path id="path1228" d="M22.53 30.81a12.08 12.08 0 0 0-4.9 1.79l.79 1.64 1.33-.82S19.53 36 20.7 36s1.1-1.36 1.1-1.36.83 1.29 1.68 1.29.79-1.83.79-1.83l1.67 1.33a11.63 11.63 0 0 0 .82-3.19s-1.13-1.43-4.23-1.43Z" class="a" style="stroke-width:1.75748031;stroke-miterlimit:4;stroke-dasharray:none"/><path id="path1230" d="M22.21 14.18a9.14 9.14 0 0 0-3.85-.88S15.65 8.43 12 11.15c-3.19 2.4.07 6 1.24 6.44a10.13 10.13 0 0 0 .19 4.58l-1.14-.06a4 4 0 0 0 .82 2.12c.66.56 2.15 1.64 2.08 2.52a4.92 4.92 0 0 0 .67 3.19c.72 1.08 1.73 2.66 1.73 2.66" class="a" style="stroke-width:1.75748031;stroke-miterlimit:4;stroke-dasharray:none"/><path id="line1232" d="M22.53 30.81v-2.67" class="a" style="stroke-width:1.75748031;stroke-miterlimit:4;stroke-dasharray:none"/><path id="path1234" d="M9.49 29.15a22.11 22.11 0 0 1 10.17-1.67" class="a" style="stroke-width:1.75748031;stroke-miterlimit:4;stroke-dasharray:none"/><path id="path1236" d="M10.18 32.78c1.42-1.35 6-3.94 9.48-5.3" class="a" style="stroke-width:1.75748031;stroke-miterlimit:4;stroke-dasharray:none"/><path id="path1238" d="M18.36 13.3c-1.33.72-4.74 2.52-5.08 4.29" class="a" style="stroke-width:1.75748031;stroke-miterlimit:4;stroke-dasharray:none"/><path id="path1240" d="M19.31 17.14a6.53 6.53 0 0 1 1.54-1.8" class="a" style="stroke-width:1.75748031;stroke-miterlimit:4;stroke-dasharray:none"/><path id="path1242" d="M17.13 25.58a4.67 4.67 0 0 1 .61-1.07c.24-.19 1.43-1 1.43-1l.14-4.43c-.66-.67-3.34-.5-4-.31 0 0 1.63 2 2.15 2.06s1.84 0 1.84 0" class="a" style="stroke-width:1.75748031;stroke-miterlimit:4;stroke-dasharray:none"/><path id="path1244" d="M22.53 25.27a9.32 9.32 0 0 0-2.58.52" class="a" style="stroke-width:1.75748031;stroke-miterlimit:4;stroke-dasharray:none"/><path id="path1246" d="M21 25.49c-.14 1.58.88 2.65 1.54 2.65" class="a" style="stroke-width:1.75748031;stroke-miterlimit:4;stroke-dasharray:none"/><path id="path1248" d="M22.21 14.18a9.19 9.19 0 0 1 3.86-.88s2.71-4.87 6.32-2.15c3.19 2.4-.07 6-1.24 6.44a10.13 10.13 0 0 1-.15 4.58l1.14-.06a4 4 0 0 1-.82 2.12c-.66.56-2.15 1.64-2.09 2.52a4.85 4.85 0 0 1-.66 3.19 26.35 26.35 0 0 1-1.77 2.28" class="a" style="stroke-width:1.75748031;stroke-miterlimit:4;stroke-dasharray:none"/><path id="path1250" d="M34.94 29.15a22.11 22.11 0 0 0-10.17-1.67" class="a" style="stroke-width:1.75748031;stroke-miterlimit:4;stroke-dasharray:none"/><path id="path1252" d="M34.25 32.78c-1.42-1.35-6-3.94-9.48-5.3" class="a" style="stroke-width:1.75748031;stroke-miterlimit:4;stroke-dasharray:none"/><path id="path1254" d="M26.07 13.3c1.32.72 4.74 2.52 5.08 4.29" class="a" style="stroke-width:1.75748031;stroke-miterlimit:4;stroke-dasharray:none"/><path id="path1256" d="M25.12 17.14a6.53 6.53 0 0 0-1.54-1.8" class="a" style="stroke-width:1.75748031;stroke-miterlimit:4;stroke-dasharray:none"/><path id="path1258" d="M27.3 25.58a4.42 4.42 0 0 0-.62-1.07c-.23-.19-1.42-1-1.42-1l-.14-4.43c.66-.67 3.34-.5 4.05-.31 0 0-1.63 2-2.15 2.06s-1.84 0-1.84 0" class="a" style="stroke-width:1.75748031;stroke-miterlimit:4;stroke-dasharray:none"/><path id="path1260" d="M21.9 25.27a9.32 9.32 0 0 1 2.58.52" class="a" style="stroke-width:1.75748031;stroke-miterlimit:4;stroke-dasharray:none"/><path id="path1262" d="M23.44 25.49c.14 1.58-.88 2.65-1.54 2.65" class="a" style="stroke-width:1.75748031;stroke-miterlimit:4;stroke-dasharray:none"/><path id="polyline1264" d="m8.66 10.58.92-1.42 3.63-2.37 1.55-.35 3.7 2.66.85-1.72 3.19.2.28 2.24 2.25-.91 3.78-2.57 3.55 1.97" class="a" style="stroke-width:1.75748031;stroke-miterlimit:4;stroke-dasharray:none"/><path id="line1266" d="m25.92 5.56-.52 3.08" class="a" style="stroke-width:1.75748031;stroke-miterlimit:4;stroke-dasharray:none"/><path id="path1268" d="M34.61 9.3s.85 2.94 1 3.55a6.62 6.62 0 0 1 .24 1.24" class="a" style="stroke-width:1.75748031;stroke-miterlimit:4;stroke-dasharray:none"/><path id="path1270" d="M36.51 16.55a28.56 28.56 0 0 1 3.08 2.94c.71.8.71 1 .71 1" class="a" style="stroke-width:1.75748031;stroke-miterlimit:4;stroke-dasharray:none"/><path id="path1272" d="M36.89 21.46a34.12 34.12 0 0 1 3.92 1.63c.25.28 1.19 1.75 1.19 1.75" class="a" style="stroke-width:1.75748031;stroke-miterlimit:4;stroke-dasharray:none"/><path id="path1274" d="M42 27.48c.19 1.39 1 4.75 1 5.91" class="a" style="stroke-width:1.75748031;stroke-miterlimit:4;stroke-dasharray:none"/><path id="path1276" d="M37.88 27.68A14.13 14.13 0 0 0 39.21 31" class="a" style="stroke-width:1.75748031;stroke-miterlimit:4;stroke-dasharray:none"/><path id="path1278" d="M34 22.9c.19.66.95 2.38 1 2.59" class="a" style="stroke-width:1.75748031;stroke-miterlimit:4;stroke-dasharray:none"/><path id="polyline1280" d="m38.02 33.58.88 1.57.9.4" class="a" style="stroke-width:1.75748031;stroke-miterlimit:4;stroke-dasharray:none"/><path id="path1282" d="M34.45 35.79a12.33 12.33 0 0 0 2.7 1.84" class="a" style="stroke-width:1.75748031;stroke-miterlimit:4;stroke-dasharray:none"/><path id="path1284" d="M31.6 36.71a8.61 8.61 0 0 0 1 2" class="a" style="stroke-width:1.75748031;stroke-miterlimit:4;stroke-dasharray:none"/><path id="path1286" d="M29 37.73a8.36 8.36 0 0 0 .51 3.27" class="a" style="stroke-width:1.75748031;stroke-miterlimit:4;stroke-dasharray:none"/><path id="path1288" d="M25.66 39a12.54 12.54 0 0 0 .34 2.54" class="a" style="stroke-width:1.75748031;stroke-miterlimit:4;stroke-dasharray:none"/><path id="path1290" d="M22.68 39.53c.25.57.18 2.68-.15 2.91" class="a" style="stroke-width:1.75748031;stroke-miterlimit:4;stroke-dasharray:none"/><path id="path1292" d="M19 39.72a7.79 7.79 0 0 0 .66 2.39" class="a" style="stroke-width:1.75748031;stroke-miterlimit:4;stroke-dasharray:none"/><path id="path1294" d="M15.26 37.18c.31.48.92 1.45.71 2.18" class="a" style="stroke-width:1.75748031;stroke-miterlimit:4;stroke-dasharray:none"/><path id="path1296" d="M12 35.55a6.59 6.59 0 0 0 .1 2.72" class="a" style="stroke-width:1.75748031;stroke-miterlimit:4;stroke-dasharray:none"/><path id="path1298" d="M7.21 40.91c.54-.45 2-1.38 2-1.38" class="a" style="stroke-width:1.75748031;stroke-miterlimit:4;stroke-dasharray:none"/></svg>