<svg xmlns="http://www.w3.org/2000/svg" viewBox="0 0 192 192"><path d="M158.311 141.122a17.198 17.198 0 0 0-12.155 5.034 17.194 17.194 0 0 0 0 24.309 17.191 17.191 0 0 0 24.309-24.309 17.194 17.194 0 0 0-12.154-5.034Zm-124.622 0a17.194 17.194 0 0 0-12.154 5.034 17.191 17.191 0 0 0 24.309 24.309 17.194 17.194 0 0 0 0-24.309 17.198 17.198 0 0 0-12.155-5.034Zm62.311 0a17.198 17.198 0 0 0-12.155 5.034 17.194 17.194 0 0 0 0 24.309A17.195 17.195 0 0 0 96 175.5c4.557 0 8.932-1.812 12.155-5.035a17.194 17.194 0 0 0 0-24.309A17.198 17.198 0 0 0 96 141.122ZM158.311 16.5a17.195 17.195 0 0 0-12.155 5.035 17.194 17.194 0 0 0 0 24.309 17.194 17.194 0 0 0 24.309 0A17.191 17.191 0 0 0 158.311 16.5ZM96 16.5a17.198 17.198 0 0 1 12.152 5.036 17.197 17.197 0 0 1 5.033 12.153c0 4.557-1.812 8.931-5.033 12.153A17.193 17.193 0 0 1 96 50.878H33.689a17.193 17.193 0 0 1-12.152-5.036 17.195 17.195 0 0 1-5.033-12.153c0-4.556 1.812-8.931 5.033-12.153A17.198 17.198 0 0 1 33.689 16.5Zm62.311 59.209a17.195 17.195 0 0 0-12.155 5.035 17.194 17.194 0 0 0 0 24.309 17.194 17.194 0 0 0 24.309 0 17.191 17.191 0 0 0-12.154-29.344Zm-62.311 0a17.195 17.195 0 0 0-12.155 5.035 17.194 17.194 0 0 0 0 24.309A17.198 17.198 0 0 0 96 110.087c4.557 0 8.932-1.812 12.155-5.034a17.194 17.194 0 0 0 0-24.309A17.195 17.195 0 0 0 96 75.709Z" fill="none" stroke="#000" stroke-width="12" stroke-linecap="round" stroke-linejoin="round"/></svg>