<svg
    xmlns="http://www.w3.org/2000/svg"
    viewBox="0 0 192 192"
    id="vector">
    <path
        id="path"
        d="M 77.549 129.128 L 111.489 71.083 M 78.958 173.844 L 123.975 96.853 M 96 175.5 C 140.364 175.5 157.137 146.394 157.137 114.748 L 157.137 99.511 C 157.137 76.656 147.191 71.083 120.962 71.083 L 96 71.083 L 71.038 71.083 C 44.809 71.083 34.863 76.656 34.863 99.511 L 34.863 114.748 C 34.863 146.394 51.636 175.5 96 175.5 Z"
        fill="none"
        stroke="#000000"
        stroke-width="12"
        stroke-linecap="round"
        stroke-linejoin="round"/>
    <path
        id="path_1"
        d="M 62.991 71.302 L 62.991 49.318 C 62.991 31.193 77.77 16.5 96 16.5 C 110.133 16.5 122.191 25.331 126.897 37.744 M 129.009 71.302 L 129.009 58.568"
        fill="none"
        stroke="#000000"
        stroke-width="12"
        stroke-linecap="round"
        stroke-linejoin="round"/>
</svg>
