<svg xmlns="http://www.w3.org/2000/svg" viewBox="0 0 192 192"><path d="M91.812 174.114c-6.007-.9-14.987-4.676-20.337-8.552l-2.484-1.799 3.023-5.238c1.663-2.882 7.634-13.307 13.271-23.167 5.636-9.861 11.202-19.394 12.368-21.185 1.166-1.792 6.236-10.502 11.266-19.357 5.03-8.855 11.45-20.019 14.266-24.81 9.933-16.898 10.593-18.677 8.543-22.997-1.441-3.037-4.134-4.325-8.222-3.932-2.693.258-3.561.678-5.017 2.422-.969 1.16-6.478 10.415-12.244 20.567-5.765 10.152-11.113 19.329-11.883 20.393-.771 1.065-2.413 3.823-3.65 6.13-1.237 2.306-2.837 5.21-3.556 6.452-.719 1.242-2.741 4.726-4.493 7.742-1.752 3.017-4.167 7.372-5.365 9.678-1.199 2.307-2.678 4.775-3.288 5.485-.61.709-4.648 7.605-8.973 15.324-4.325 7.718-8.054 14.014-8.287 13.991-.924-.092-6.934-7.755-11.352-14.475C25.691 106.811 16 82.759 16 63.82c0-12.195 3.054-20.002 10.956-28.007 12.288-12.449 34.039-18.069 69.93-18.069 7.281 0 13.371.218 13.532.484.285.47-11.403 21.827-15.464 28.256-1.111 1.759-4.913 8.279-8.449 14.489-12.474 21.904-12.332 21.546-9.808 24.754 1.338 1.701 4.196 2.259 6.683 1.305.565-.217 3.245-4.354 5.955-9.194 2.71-4.84 6.44-11.267 8.29-14.284 1.849-3.016 7.058-12.017 11.574-20.001 4.516-7.985 9.487-16.534 11.047-18.999 1.56-2.465 2.916-4.721 3.013-5.014.222-.664 14.834 2.26 20.493 4.101 2.306.751 6.999 2.793 10.429 4.54 5.108 2.601 7.09 4.074 10.968 8.152 5.561 5.845 7.84 9.8 9.587 16.63 4.495 17.575-3.094 43.725-21.237 73.177-8.629 14.007-12.293 19.154-18.323 25.738-11.811 12.897-19.46 18.318-29.77 21.095-3.622.976-10.719 1.571-13.594 1.141Z"/></svg>