<svg xmlns="http://www.w3.org/2000/svg" viewBox="0 0 192 192"><path fill="none" stroke="#000" stroke-linecap="round" stroke-linejoin="round" stroke-width="12" d="M122.896 53.19a52.427 52.427 0 0 0-30.919 10.097 52.867 52.867 0 0 0-19.11 26.436 53.138 53.138 0 0 0 0 32.676 52.867 52.867 0 0 0 19.11 26.436 52.427 52.427 0 0 0 30.919 10.097 52.492 52.492 0 0 0 37.197-15.485c9.861-9.912 15.407-23.369 15.407-37.386 0-14.017-5.546-27.474-15.407-37.386a52.492 52.492 0 0 0-37.197-15.485ZM29.874 76.787h0c3.545 0 6.949 1.41 9.456 3.917a13.382 13.382 0 0 1 3.917 9.457v55.397c0 3.546-1.41 6.95-3.917 9.457a13.378 13.378 0 0 1-9.456 3.917h0c-3.546 0-6.95-1.41-9.457-3.917a13.379 13.379 0 0 1-3.917-9.457V90.161c0-3.545 1.41-6.949 3.917-9.457a13.379 13.379 0 0 1 9.457-3.917m0-43.719c-2.83-.009-5.59.884-7.883 2.552a13.437 13.437 0 0 0-4.876 6.728 13.508 13.508 0 0 0 0 8.323 13.437 13.437 0 0 0 4.876 6.728 13.327 13.327 0 0 0 7.883 2.553c3.546 0 6.95-1.418 9.457-3.937a13.484 13.484 0 0 0 3.917-9.505c0-3.564-1.41-6.985-3.917-9.505a13.344 13.344 0 0 0-9.457-3.937Z"/></svg>