<svg xmlns="http://www.w3.org/2000/svg" viewBox="0 0 192 192"><path d="M52.798 124.679a13.356 13.356 0 0 1 13.353-13.35 13.36 13.36 0 0 1 9.441 3.91 13.359 13.359 0 0 1 3.912 9.44v21.365m-26.706-34.718v34.718" fill="none" stroke="#000" stroke-width="8" stroke-linecap="round" stroke-linejoin="round"/><path d="M79.503 124.679a13.359 13.359 0 0 1 3.912-9.44 13.36 13.36 0 0 1 9.441-3.91c3.539 0 6.937 1.408 9.441 3.91a13.359 13.359 0 0 1 3.912 9.44v21.365m33.224-6.678a12.926 12.926 0 0 1-11.352 6.676 13.396 13.396 0 0 1-9.431-3.922 13.396 13.396 0 0 1-3.922-9.431v-8.679a13.356 13.356 0 0 1 13.353-13.346 13.355 13.355 0 0 1 13.353 13.346v4.673H114.73" fill="none" stroke="#000" stroke-width="8" stroke-linecap="round" stroke-linejoin="round"/><path d="M53.127 47.734a2.77 2.77 0 0 0-2.774 2.773 2.775 2.775 0 0 0 4.735 1.961c.519-.52.812-1.226.812-1.961a2.774 2.774 0 0 0-2.773-2.773Z"/><path d="M87.456 93.182a16.918 16.918 0 0 0 11.448 2.862h2.864a9.303 9.303 0 0 0 0-18.603h-6.441a9.305 9.305 0 0 1-9.299-9.302c0-2.466.98-4.833 2.723-6.577a9.309 9.309 0 0 1 6.576-2.725h2.862c6.44 0 9.302.715 11.448 2.862" fill="none" stroke="#000" stroke-width="8" stroke-linecap="round" stroke-linejoin="round"/><path d="M53.104 88.889a6.759 6.759 0 0 0 3.485 6.331 6.749 6.749 0 0 0 3.671.824c3.47.351 6.942-.678 9.661-2.862m.718-47.227v42.934a6.767 6.767 0 0 0 .824 3.671 6.76 6.76 0 0 0 6.331 3.484c3.47.351 6.943-.678 9.662-2.862" fill="none" stroke="#000" stroke-width="8" stroke-linecap="round" stroke-miterlimit="8.148"/><path d="M70.639 58.121h9.799" fill="none" stroke="#000" stroke-width="8" stroke-linecap="round" stroke-linejoin="round"/><path d="m53.104 88.889.024-30.767" fill="none" stroke="#000" stroke-width="8" stroke-linecap="round" stroke-miterlimit="8.148"/><path d="M96 16.5a79.529 79.529 0 0 0-56.215 23.285A79.529 79.529 0 0 0 16.5 96a79.529 79.529 0 0 0 23.285 56.215A79.529 79.529 0 0 0 96 175.5a79.529 79.529 0 0 0 56.215-23.285A79.529 79.529 0 0 0 175.5 96a79.529 79.529 0 0 0-23.285-56.215A79.529 79.529 0 0 0 96 16.5Z" fill="none" stroke="#000" stroke-width="8" stroke-linecap="round" stroke-linejoin="round"/></svg>