<svg xmlns="http://www.w3.org/2000/svg" viewBox="0 0 512 512"><path fill="#040404" d="M159.213 419.949c1.925-1.667 4.708-3.815 6.184-4.772 6.005-3.892 42.44-37.88 60.862-56.774 20.907-21.443 48.838-56.342 65.324-81.622 17.024-26.104 18.48-29.521 16.055-37.688-3.937-13.255-8.094-14.801-90.668-33.721-9.209-2.11-16.747-4.181-16.75-4.603-.004-.421 39.122-.646 86.945-.5l86.952.266 4.061 3.965c4.415 4.312 6.021 8.485 6.03 15.67.015 13.212-20.74 39.294-59.495 74.765-34.35 31.439-115.584 96.432-154.798 123.85-4.765 3.332-6.957 4.245-10.14 4.223l-4.062-.026Zm83-145.791c0-47.442.185-54.123 1.5-54.123s1.5 6.542 1.5 52.878c0 45.782-.201 53.045-1.5 54.122-1.33 1.104-1.5-4.882-1.5-52.877Zm13-7.196c0-41.436.105-44.053 1.75-43.736 1.629.313 1.768 3.269 2.011 42.707.257 41.723.041 45.102-2.883 45.102-.49 0-.878-19.457-.878-44.073Zm-29.761 36.862c-1.843-2.222-1.328-89.081.522-87.937.989.612 1.204 10.302 1 45.118-.211 35.834-.503 44.047-1.522 42.819Zm43.761-43.666c0-29.665.196-34.123 1.5-34.123 1.303 0 1.5 4.32 1.5 32.878 0 28.004-.222 33.062-1.5 34.122-1.328 1.103-1.5-2.66-1.5-32.877Zm-57.75 28.728c-1.625-1.626-1.839-76.851-.219-76.851.568 0 1.248.564 1.513 1.254.264.689.363 18.261.218 39.05-.209 30.238-.512 37.547-1.512 36.547Zm-14.229-15.812c-.685-1.28-.958-12.66-.785-32.75.228-26.583.469-30.789 1.764-30.789 1.298 0 1.536 4.423 1.764 32.75.257 31.933-.084 35.758-2.743 30.789Zm85.979-20.347c0-19.504.211-22.692 1.5-22.692 2.205 0 2.175 40.523-.032 43.442-1.305 1.725-1.468-.584-1.468-20.75Zm-98.8 7.108c-.908-.907-1.192-15.952-1.168-61.75.027-51.656.247-60.835 1.5-62.491 1.296-1.713 1.468 5.534 1.468 61.75 0 35.03-.135 63.691-.3 63.691-.165 0-.84-.54-1.5-1.2Zm112.882-15.25c-.06-6.572.214-8.654 1.031-7.837 1.898 1.898 2.225 9.495.571 13.293-1.513 3.476-1.521 3.447-1.602-5.456Zm-126.841-.536c-.94-1.504-1.241-12.881-1.241-46.878 0-38.683.208-45.063 1.5-46.136 1.33-1.103 1.5 4.216 1.5 46.878 0 26.467-.117 48.122-.259 48.122-.143 0-.818-.894-1.5-1.986Zm-14.041-15.214c-.88-.88-1.2-9.239-1.2-31.377 0-25.605.227-30.366 1.5-31.423 1.328-1.102 1.5 2.494 1.5 31.378 0 17.942-.135 32.622-.3 32.622-.165 0-.84-.54-1.5-1.2Zm-14-15c-.828-.828-1.2-5.906-1.2-16.377 0-12.271.287-15.416 1.5-16.423 1.324-1.098 1.5.827 1.5 16.378 0 9.692-.135 17.622-.3 17.622-.165 0-.84-.54-1.5-1.2Zm-13.864-15.367c-.331-.862-.092-2.077.531-2.7.844-.844 1.133-.444 1.133 1.567 0 3.009-.749 3.519-1.664 1.133Zm67.664-40.998c0-32.296.417-37.435 3.035-37.435.602 0 .965 13.363.965 35.5 0 34.834-.038 35.5-2 35.5-1.96 0-2-.666-2-33.565Zm14-8.312c0-36.005.21-42.052 1.5-43.123 1.329-1.103 1.5 3.66 1.5 41.878 0 37.664-.19 43.122-1.5 43.122-1.309 0-1.5-5.319-1.5-41.877Zm14-7.5c0-42.671.204-49.547 1.5-50.623 1.33-1.103 1.5 4.494 1.5 49.378 0 44.331-.186 50.622-1.5 50.622-1.313 0-1.5-6.153-1.5-49.377Zm18 11.255c0-33.773.171-37.98 1.5-36.878 2.263 1.878 2.263 75 0 75-1.307 0-1.5-4.902-1.5-38.122Zm13 7.622c0-18.925.366-30.5.965-30.5 2.563 0 3.035 5.04 3.035 32.435 0 27.899-.047 28.565-2 28.565-1.956 0-2-.666-2-30.5Zm14 7.417c0-18.022.274-22.992 1.25-22.667.94.313 1.317 6.033 1.519 23.083.234 19.725.071 22.667-1.25 22.667-1.315 0-1.519-3.104-1.519-23.083Zm14 6.892c0-14.451.158-15.982 1.468-14.25 2.183 2.886 2.212 30.441.032 30.441-1.271 0-1.5-2.465-1.5-16.191Zm14 8.069c0-7.107.188-7.967 1.5-6.878 1.067.886 1.5 3.229 1.5 8.123 0 5.447-.312 6.877-1.5 6.877-1.21 0-1.5-1.569-1.5-8.122Z"/></svg>