<svg width="192" height="192" viewBox="0 0 192 192" fill="none" xmlns="http://www.w3.org/2000/svg"><path d="M169.002 44.27a13.2 13.268 0 0 1-13.2 13.268A13.2 13.268 0 0 1 142.6 44.27 13.2 13.268 0 0 1 155.8 31 13.2 13.268 0 0 1 169 44.269ZM37.68 119.203c4.853 11.196 13.364 16.815 21.142 25.053m27.973-7.92c20.82-51.265 35.964-60.66 48.575-73.174" style="fill:none;stroke:#000;stroke-width:12;stroke-linecap:round;stroke-linejoin:round;stroke-dasharray:none;stroke-opacity:1"/><path d="M84.756 154.817a8.14 8.181 0 0 1-8.14 8.182 8.14 8.181 0 0 1-8.139-8.182 8.14 8.181 0 0 1 8.14-8.18 8.14 8.181 0 0 1 8.14 8.18zM41.201 96.671A10.101 10.153 0 0 1 31.1 106.825 10.101 10.153 0 0 1 20.998 96.67 10.101 10.153 0 0 1 31.1 86.518a10.101 10.153 0 0 1 10.1 10.153Z" style="fill:none;stroke:#000;stroke-width:8;stroke-linecap:round;stroke-linejoin:round;stroke-dasharray:none;stroke-opacity:1"/></svg>