<svg xmlns="http://www.w3.org/2000/svg" viewBox="0 0 192 192"><path d="M84.218 165.793c-3.298-1.408-9.299-8.464-9.299-10.934 0-1.459-.864-1.255-3.935.932-10.291 7.328-24.146.382-24.146-12.106v-4.315h-6.142c-5.315 0-6.718-.574-10.405-4.262-3.72-3.72-4.262-5.066-4.262-10.581 0-3.476.564-6.668 1.253-7.094 2.207-1.364 1.357-2.788-2.655-4.449-7.341-3.041-10.906-13.849-6.931-21.012 2.265-4.082 8.284-7.742 12.748-7.751 3.685-.008 3.831-.239 5.355-8.47C41.157 46.822 66.57 25.4 95.603 25.339c21.835-.045 44.697 13.841 53.994 32.797l3.355 6.841 4.65-1.241c3.784-1.01 5.564-.795 9.56 1.156 11.375 5.553 11.875 20.514.89 26.661-1.982 1.11-1.869 1.529 1.259 4.657 1.891 1.891 3.775 4.781 4.187 6.422 2.06 8.207-4.035 17.42-12.41 18.759-3.832.613-4.641 1.187-3.937 2.794 3.425 7.817.974 16.648-5.719 20.601-4.027 2.379-10.301 2.743-13.916.808-2.158-1.154-2.425-.865-2.425 2.627 0 7.907-7.069 14.968-14.985 14.968-4.952 0-10.834-2.979-12.675-6.419-1.374-2.568-1.466-2.538-3.738 1.198-4.144 6.815-13.26 10.478-19.475 7.825Zm13.037-8.676c1.144-1.439 1.412-4.046.871-8.488l-.781-6.41 3.987-.798c2.192-.438 5.597-.797 7.566-.797 3.493 0 3.562.131 2.848 5.342-.572 4.176-.199 6.001 1.709 8.358 5.1 6.298 15.428 2.253 15.328-6.004-.044-3.69-1.693-6.22-5.976-9.168l-2.883-1.985 6.185-4.539c3.401-2.497 6.469-4.54 6.817-4.54.348 0 1 1.958 1.449 4.352 2.07 11.032 18.218 10.779 18.532-.291.145-5.103-2.931-8.591-8.496-9.635-2.368-.444-4.306-1.275-4.306-1.846 0-1.693 6.403-12.637 7.393-12.637.501 0 2.162 1.692 3.691 3.76 2.068 2.797 3.795 3.761 6.737 3.761 8.313 0 12.771-9.523 7.109-15.185-2.271-2.271-3.55-2.531-8.928-1.817l-6.278.832.9-7.271c.496-4 1.08-7.458 1.299-7.687.219-.228 1.538.195 2.931.94 10.226 5.473 20.096-5.178 12.155-13.118-3.73-3.73-8.037-3.929-12.308-.569-4.253 3.345-5.474 3.164-6.335-.941-1.005-4.793-9.428-18.743-14.276-23.645-5.407-5.467-18.243-12.383-26.545-14.302-31.72-7.331-64.01 16.595-66.436 49.228-.841 11.313-.151 10.651-9.233 8.859-5.595-1.104-9.713 2.43-9.713 8.337 0 8.645 8.864 11.745 16.122 5.638l3.778-3.179 2.586 5.846c3.719 8.408 3.486 9.131-2.871 8.885-6.878-.266-9.586 1.9-9.586 7.666 0 5.638 3.029 9.039 8.029 9.014 5.149-.025 6.549-1.069 8.862-6.606 1.071-2.561 2.338-4.657 2.817-4.657 1.496 0 10.378 9.207 10.378 10.758 0 .811-1.656 2.16-3.68 2.998-7.196 2.981-7.198 14.698-.002 16.982 6.218 1.974 13.853-5.56 11.893-11.736-.436-1.372-.31-2.792.278-3.156.835-.515 11.536 2.441 13.932 3.849.265.157-.472 1.742-1.639 3.523-3.124 4.768-2.204 12.018 1.782 14.045 3.762 1.913 10.017.914 12.308-1.966Zm3.989-34.885c-17.145-3.019-25.072-12.542-25.072-30.117 0-10.88 1.146-11.474 8.315-4.311 7.354 7.349 19.104 9.446 31.886 5.69 8.139-2.392 14.957-7.223 14.957-10.599 0-1.566.857-2.443 2.384-2.443 1.978 0 2.531 1.266 3.248 7.437 1.76 15.17-6.124 29.532-17.857 32.529-6.629 1.694-14.188 2.461-17.861 1.814Zm14.753-6.113c8.233-3.44 14.519-10.787 16.403-19.174l1.167-5.193-3.626 2.142c-2.54 1.5-3.625 3.131-3.625 5.446 0 8.959-10.619 16.247-19.994 13.722-5.403-1.455-8.235-4.18-10.199-9.814-.803-2.301-2.269-3.999-3.463-4.008-1.139-.008-4.469-1.385-7.399-3.061-4.153-2.374-5.328-2.638-5.328-1.198 0 6.103 8.135 16.369 16.544 20.879 5.068 2.718 13.372 2.828 19.52.259Z"/></svg>