<svg
    xmlns="http://www.w3.org/2000/svg"
    viewBox="0 0 192 192"
    id="vector">
    <path
        id="path"
        d="M 17.339 174.594 C 16.466 172.32 17.466 168.542 22.042 156.84 C 29.795 137.013 46.74 105 57.949 89.004 C 79.484 58.272 100.886 37.991 124.025 26.385 C 137.874 19.438 147.568 16.909 162.589 16.323 C 177.339 15.747 177.653 16.076 169.601 23.679 C 162.329 30.544 155.896 34.466 144.186 39.173 C 138.765 41.352 134.162 43.636 133.958 44.249 C 133.677 45.091 136.357 45.224 144.933 44.793 C 151.673 44.454 156.279 44.573 156.279 45.087 C 156.279 45.563 153.786 48.499 150.739 51.613 C 144.633 57.853 134.45 63.306 123.763 66.056 C 116.322 67.972 113.136 69.422 113.557 70.701 C 113.932 71.841 122.408 72.84 133.085 73.002 C 137.04 73.062 140.541 73.541 140.865 74.065 C 142.047 75.977 129.933 86.696 122.623 90.208 C 116.389 93.202 112.23 94.555 92.941 99.86 C 89.285 100.865 88.033 101.649 88.033 102.932 C 88.033 104.98 94.058 106.388 107.004 107.364 L 115.224 107.984 L 112.613 110.719 C 104.92 118.781 92.283 124.14 73.516 127.299 C 67.78 128.265 61.653 129.672 59.9 130.425 C 55.589 132.278 51.115 137.084 34.447 157.766 C 26.641 167.452 19.728 175.54 19.086 175.74 C 18.443 175.94 17.657 175.424 17.339 174.594 Z"
        fill="none"
        stroke="#000000"
        stroke-width="12"/>
</svg>
