<svg xmlns="http://www.w3.org/2000/svg" viewBox="0 0 192 192"><path fill="none" stroke="#000" stroke-width="12" d="M17.339 174.594c-.873-2.274.127-6.052 4.703-17.754C29.795 137.013 46.74 105 57.949 89.004c21.535-30.732 42.937-51.013 66.076-62.619 13.849-6.947 23.543-9.476 38.564-10.062 14.75-.576 15.064-.247 7.012 7.356-7.272 6.865-13.705 10.787-25.415 15.494-5.421 2.179-10.024 4.463-10.228 5.076-.281.842 2.399.975 10.975.544 6.74-.339 11.346-.22 11.346.294 0 .476-2.493 3.412-5.54 6.526-6.106 6.24-16.289 11.693-26.976 14.443-7.441 1.916-10.627 3.366-10.206 4.645.375 1.14 8.851 2.139 19.528 2.301 3.955.06 7.456.539 7.78 1.063 1.182 1.912-10.932 12.631-18.242 16.143-6.234 2.994-10.393 4.347-29.682 9.652-3.656 1.005-4.908 1.789-4.908 3.072 0 2.048 6.025 3.456 18.971 4.432l8.22.62-2.611 2.735c-7.693 8.062-20.33 13.421-39.097 16.58-5.736.966-11.863 2.373-13.616 3.126-4.311 1.853-8.785 6.659-25.453 27.341-7.806 9.686-14.719 17.774-15.361 17.974-.643.2-1.429-.316-1.747-1.146Z"/></svg>