<svg xmlns="http://www.w3.org/2000/svg" viewBox="0 0 192 192"><path d="M21.06 153.267c-4.663-2.53-6.365-8.73-3.773-13.744 2.75-5.318 3.312-5.39 40.061-5.111l33.38.253 2.593 2.902c4.557 5.103 3.238 12.667-2.75 15.763-3.795 1.963-65.882 1.907-69.511-.063Zm92.053-19.927c-4.713-1.902-4.76-2.276-4.76-37.477 0-32.584.003-32.634 1.999-34.868 4.088-4.575 4.309-4.492 34.433 12.835 15.395 8.855 28.691 16.913 29.546 17.906.855.994 1.555 2.917 1.555 4.275 0 1.358-.7 3.282-1.555 4.275-1.694 1.967-56.835 33.97-58.372 33.878-.518-.031-1.799-.402-2.846-.824Zm-90.585-11.934c-7.153-3.115-8.744-11.666-3.108-16.702l2.768-2.473H89.87l3.021 3.022c3.405 3.404 4.008 7.599 1.728 12.009-2.681 5.183-4.304 5.41-38.383 5.372-23.903-.027-31.592-.307-33.708-1.228ZM19.42 87.319c-3.81-3.405-4.553-9.273-1.641-12.964 3.812-4.831 5.128-5.001 38.651-5.001 33.857 0 35.514.234 38.189 5.407 2.28 4.41 1.677 8.604-1.728 12.009l-3.021 3.021H22.188Zm1.64-30.891c-6.695-3.679-6.587-14.216.182-17.716 3.848-1.99 65.485-2.008 69.329-.02 5.988 3.096 7.307 10.661 2.75 15.764l-2.593 2.902-33.618.203c-28.523.172-33.986.001-36.05-1.133Z"/></svg>