<svg
    xmlns="http://www.w3.org/2000/svg"
    viewBox="0 0 192 192"
    id="vector">
    <path
        id="path"
        d="M 21.06 153.267 C 16.397 150.737 14.695 144.537 17.287 139.523 C 20.037 134.205 20.599 134.133 57.348 134.412 L 90.728 134.665 L 93.321 137.567 C 97.878 142.67 96.559 150.234 90.571 153.33 C 86.776 155.293 24.689 155.237 21.06 153.267 Z M 113.113 133.34 C 108.4 131.438 108.353 131.064 108.353 95.863 C 108.353 63.279 108.356 63.229 110.352 60.995 C 114.44 56.42 114.661 56.503 144.785 73.83 C 160.18 82.685 173.476 90.743 174.331 91.736 C 175.186 92.73 175.886 94.653 175.886 96.011 C 175.886 97.369 175.186 99.293 174.331 100.286 C 172.637 102.253 117.496 134.256 115.959 134.164 C 115.441 134.133 114.16 133.762 113.113 133.34 Z M 22.528 121.406 C 15.375 118.291 13.784 109.74 19.42 104.704 L 22.188 102.231 L 89.87 102.231 L 92.891 105.253 C 96.296 108.657 96.899 112.852 94.619 117.262 C 91.938 122.445 90.315 122.672 56.236 122.634 C 32.333 122.607 24.644 122.327 22.528 121.406 Z M 19.42 87.319 C 15.61 83.914 14.867 78.046 17.779 74.355 C 21.591 69.524 22.907 69.354 56.43 69.354 C 90.287 69.354 91.944 69.588 94.619 74.761 C 96.899 79.171 96.296 83.365 92.891 86.77 L 89.87 89.791 L 22.188 89.791 Z M 21.06 56.428 C 14.365 52.749 14.473 42.212 21.242 38.712 C 25.09 36.722 86.727 36.704 90.571 38.692 C 96.559 41.788 97.878 49.353 93.321 54.456 L 90.728 57.358 L 57.11 57.561 C 28.587 57.733 23.124 57.562 21.06 56.428 Z"
        fill="#000000"
        stroke-width="12"/>
</svg>
