<svg xmlns="http://www.w3.org/2000/svg" viewBox="0 0 192 192"><path fill="none" stroke="#000" stroke-linecap="round" stroke-linejoin="round" stroke-width="8" d="M166.905 16.5H25.095a8.6 8.6 0 0 0-7.444 4.297 8.6 8.6 0 0 0-1.151 4.298v141.81c0 2.279.906 4.467 2.517 6.078a8.599 8.599 0 0 0 6.078 2.517h141.81a8.6 8.6 0 0 0 7.444-4.297 8.6 8.6 0 0 0 1.151-4.298V25.095a8.6 8.6 0 0 0-4.297-7.444 8.6 8.6 0 0 0-4.298-1.151Z"/><path fill="none" stroke="#000" stroke-linecap="round" stroke-linejoin="round" stroke-width="8" d="M16.5 129.734c19.596-12.892 63.428 4.641 64.76 45.766 0 0 6.016-101.803-64.76-101.803"/><path fill="none" stroke="#000" stroke-linecap="round" stroke-linejoin="round" stroke-width="8" d="M104.595 16.5c16.888 65.921 3.223 104.983-15.514 134.548C90.886 109.837 56.551 34.463 43.874 16.5"/><path fill="none" stroke="#000" stroke-linecap="round" stroke-linejoin="round" stroke-width="8" d="M175.5 111.298c-18.779.86-52.298 19.51-68.757 64.202 0-53.759 9.583-80.445 68.757-101.803"/></svg>