<svg xmlns="http://www.w3.org/2000/svg" viewBox="0 0 48 48"><path d="M40.5 5.5h-33a2 2 0 0 0-2 2v33a2 2 0 0 0 2 2h33a2 2 0 0 0 2-2v-33a2 2 0 0 0-2-2Z" fill="none" stroke="#000" stroke-width="2" stroke-linecap="round" stroke-linejoin="round"/><path d="M18.257 17.749a3.64 3.64 0 0 0-3.469 2.511 3.636 3.636 0 0 0 3.469 4.763 3.633 3.633 0 0 0 3.47-2.511 3.64 3.64 0 0 0-1.326-4.072 3.64 3.64 0 0 0-2.144-.691Zm-8.757 0h2.967v9.763a2.77 2.77 0 0 1-.796 1.96 2.768 2.768 0 0 1-1.949.822q-.111.001-.222-.007m14.834-12.538v5.153c0 1.451 2.107 3.94 5.456 1.116" fill="none" stroke="#000" stroke-width="2" stroke-linecap="round" stroke-linejoin="round"/><path d="M29.79 17.749v9.858c0 3.637-5.456 3.063-5.456.479m8.328-10.337v7.557m0-4.686c1.531-2.871 5.838-4.306 5.838-1.052v5.738" fill="none" stroke="#000" stroke-width="2" stroke-linecap="round" stroke-linejoin="round"/></svg>