<svg
    xmlns="http://www.w3.org/2000/svg"
    viewBox="0 0 192 192"
    id="vector">
    <path
        id="path"
        d="M 166.905 16.5 L 25.095 16.5 C 20.348 16.5 16.5 20.348 16.5 25.095 L 16.5 166.905 C 16.5 171.652 20.348 175.5 25.095 175.5 L 166.905 175.5 C 171.652 175.5 175.5 171.652 175.5 166.905 L 175.5 25.095 C 175.5 20.348 171.652 16.5 166.905 16.5 Z M 153.514 76.643 L 119.999 121.051 M 153.514 121.051 L 119.999 76.643"
        fill="none"
        stroke="#000000"
        stroke-width="12"
        stroke-linecap="round"
        stroke-linejoin="round"/>
    <path
        id="path_1"
        d="M 91.576 61.84 L 91.576 112.114 C 91.576 117.141 94.927 120.492 99.955 120.492 L 102.468 120.492 M 83.197 76.084 L 100.793 76.084 M 66.974 74.816 L 66.974 125.09 C 66.974 134.307 59.433 141.847 50.216 141.847 C 46.027 141.847 41.837 140.171 38.486 136.82"
        fill="none"
        stroke="#000000"
        stroke-width="12"
        stroke-linecap="round"
        stroke-linejoin="round"/>
    <path
        id="path_2"
        d="M 66.974 51.484 C 66.119 51.484 65.299 51.824 64.695 52.428 C 64.091 53.032 63.751 53.852 63.751 54.707 C 63.751 55.561 64.091 56.382 64.695 56.986 C 65.299 57.59 66.119 57.93 66.974 57.93 C 67.828 57.93 68.649 57.59 69.253 56.986 C 69.857 56.382 70.197 55.561 70.197 54.707 C 70.197 53.852 69.857 53.032 69.253 52.428 C 68.649 51.824 67.828 51.484 66.974 51.484 Z"
        fill="#000000"
        stroke="#000000"
        stroke-width="12"/>
</svg>
