<svg xmlns="http://www.w3.org/2000/svg" viewBox="0 0 192 192"><path fill="none" stroke="#000" stroke-linecap="round" stroke-linejoin="round" stroke-width="12" d="M166.905 16.5H25.095a8.595 8.595 0 0 0-8.595 8.595v141.81a8.595 8.595 0 0 0 8.595 8.595h141.81a8.595 8.595 0 0 0 8.595-8.595V25.095a8.595 8.595 0 0 0-8.595-8.595Zm-13.391 60.143-33.515 44.408m33.515 0-33.515-44.408"/><path fill="none" stroke="#000" stroke-linecap="round" stroke-linejoin="round" stroke-width="12" d="M91.576 61.84v50.274c0 5.027 3.351 8.378 8.379 8.378h2.513M83.197 76.084h17.596m-33.819-1.268v50.274c0 9.217-7.541 16.757-16.758 16.757-4.189 0-8.379-1.676-11.73-5.027"/><path stroke="#000" stroke-width="12" d="M66.974 51.484a3.224 3.224 0 1 0 0 6.447 3.224 3.224 0 0 0 0-6.447Z"/></svg>