<svg xmlns="http://www.w3.org/2000/svg" viewBox="0 0 192 192"><path d="M63.698 166.248c-4.277-1.385-18.774-8.953-21.753-11.357-5.781-4.662-13.868-12.683-13.868-13.754 0-.581-.307-1.057-.683-1.057-.791 0-5.537-9.468-7.936-15.832-4.585-12.159-4.614-33.267-.066-46.769 2.352-6.982 6.878-15.882 9.024-17.745 1.003-.87 3.441-3.72 5.418-6.332 4.683-6.189 14.231-15.436 15.938-15.436.735 0 3.279-1.242 5.653-2.761 2.373-1.518 4.315-2.592 4.315-2.386 0 .206 1.871-.378 4.156-1.298 10.036-4.037 13.525-4.776 24.594-5.208 7.425-.29 11.219-.148 11.808.442.535.534 2.57.704 5.288.441 3.315-.32 5.508-.022 8.773 1.193 3.714 1.381 3.918 1.551 1.386 1.156-6.215-.969-1.275 2.354 6.041 4.064.82.192 2.885 1.076 4.59 1.964 2.219 1.157 3.498 1.403 4.5.867 1.688-.903 8.022 2.525 8.022 4.341 0 .629.641 1.143 1.423 1.143s2.821 1.432 4.531 3.183c1.709 1.751 3.527 3.022 4.039 2.826.987-.379 6.268 4.935 10.155 10.218 1.281 1.742 2.549 3.345 2.819 3.562 1.516 1.225 5.986 8.732 7.261 12.195.817 2.218 1.777 4.745 2.134 5.616 1.775 4.336 2.251 6.928 1.878 10.232-.336 2.986-.181 3.621.883 3.621 1.505 0 1.722 2.417.34 3.799-.739.739-.739.95 0 .95.523 0 .95.359.95.798 0 .485-.597.426-1.519-.15-1.191-.744-1.781-.731-2.736.061-1.396 1.159-2.869.544-2.869-1.198 0-.653-.278-1.016-.618-.806-.34.211-.527 5.097-.416 10.859.179 9.267.387 10.674 1.805 12.183 1.855 1.975 2.073 4.022.523 4.929-1.242.729-3.675 5.204-3.657 6.729.009.738.229.693.78-.159.582-.901.77-.931.779-.123.006.585-.7 1.249-1.571 1.477-.871.228-1.585.818-1.587 1.311-.002.494-.881 1.966-1.954 3.272-1.531 1.865-1.335 1.202.914-3.091 2.881-5.499 4.052-9.97 2.612-9.97-.427 0-.776.546-.776 1.214 0 1.858-3.893 9.158-6.438 12.073-1.248 1.43-2.27 3.066-2.27 3.637 0 1.167-12.563 13.522-13.151 12.934-.208-.208 1.064-1.521 2.828-2.918 1.763-1.397 2.995-2.882 2.736-3.3-.283-.458-.974-.352-1.738.267-1.005.813-1.142.817-.661.016.335-.557 1.739-1.507 3.12-2.112l2.512-1.101-2.388-.064c-2.409-.065-8.298 3.28-8.298 4.713 0 .42-.556.763-1.235.763-.728 0 .183-1.228 2.218-2.989 8.529-7.382 15.662-17.147 14.674-20.086-.198-.588.295-2.236 1.095-3.665.8-1.428 1.454-3.321 1.454-4.207 0-.887.374-2.309.83-3.161.634-1.185.529-1.851-.447-2.826-1.645-1.645-2.404-.775-3.363 3.854-.551 2.663-.519 3.836.115 4.106.556.237.332.826-.598 1.577-.849.686-1.283 1.724-1.014 2.424.258.674.125 1.226-.297 1.226-1.12 0-.938 2.172.223 2.651.599.248.287.622-.792.95-.979.298-1.781.877-1.781 1.287 0 .411.446.472.99.137.544-.335-.792 1.557-2.969 4.203-2.177 2.647-4.171 4.693-4.432 4.547-.261-.145-.934.595-1.497 1.646-.562 1.05-1.536 2.107-2.165 2.348-.629.242-.022-.977 1.349-2.708 1.668-2.106 2.28-3.525 1.849-4.29-.523-.928-1.234-.67-3.763 1.365-1.715 1.379-4.12 3.46-5.343 4.624-1.224 1.164-2.225 1.94-2.225 1.725 0-.216-.525.133-1.166.775-2.232 2.231-6.743 4.604-8.127 4.276-1.107-.263-.946-.515.783-1.228 1.198-.493 2.177-1.261 2.177-1.707 0-.447.446-.817.99-.824.544-.007 2.236-1.085 3.76-2.396 3.382-2.909 11.683-10.285 13.099-11.64.567-.543 1.566-.782 2.219-.531 1.363.523 4.105-3.089 3.316-4.367-.276-.446-.061-1.619.476-2.608.538-.988 1.033-2.474 1.101-3.301.067-.826.713-1.934 1.434-2.462.721-.527 1.311-1.408 1.311-1.957 0-.804-.237-.803-1.207.002-.664.55-1.464.743-1.78.428-.315-.316-.02-.99.656-1.498 2.004-1.509 2.976-9.294 2.126-17.028-.732-6.664-2.564-12.79-3.824-12.79-.343 0-.611-.623-.597-1.385.038-2.092-.669-4.574-1.842-6.465-.891-1.437-.871-1.826.135-2.539 1.009-.716.986-.778-.157-.412-.906.289-1.537-.139-1.933-1.311-.552-1.637-.655-2.083-.956-4.152-.066-.455-1.99-2.817-4.276-5.248-3.383-3.597-4.111-4.859-3.916-6.78.201-1.983-.178-2.571-2.375-3.686-1.438-.73-4.396-2.384-6.572-3.676-2.177-1.291-4.938-2.737-6.135-3.214-1.236-.491-2.177-1.475-2.177-2.276 0-1.528-2.548-2.766-7.322-3.556-2.44-.404-2.968-.257-2.968.828 0 1.112-.197 1.157-1.248.285-.964-.8-1.382-.818-1.839-.079-.39.631-1.65.79-3.7.467-3.573-.562-4.581-1.13-2.006-1.13.973 0 1.543-.354 1.273-.791-.681-1.101-4.628-.993-5.779.158-.739.739-.95.651-.95-.396 0-.74-.534-1.345-1.187-1.345-1.438 0-1.576 1.293-.198 1.854.544.222-1.148.215-3.76-.016-4.061-.36-5.026-.179-6.652 1.245-1.046.917-2.293 1.661-2.77 1.654-.478-.007-.334-.357.319-.779.653-.422.92-.818.593-.879a49.487 49.487 0 0 0-1.237-.21c-.353-.054-2.402-1.553-4.551-3.33-4.29-3.546-6.016-4.412-7.22-3.622-.436.286-1.566 2.828-2.51 5.648-1.017 3.038-2.57 5.862-3.81 6.927-1.874 1.61-1.639 2.25.698 1.902 1.371-.205-.576 2.084-3.742 4.399-2.231 1.631-3.577 2.191-3.805 1.583-.234-.622-.953-.365-2.125.761-1.644 1.578-1.597 4.037.058 3.014 1.196-.739.841.941-.42 1.988-.636.528-1.395 1.712-1.687 2.632-.292.92-1.022 2.163-1.621 2.763-.6.6-.874 1.44-.61 1.868.264.428-.089 1.407-.785 2.176-2.308 2.55-5.331 11.34-5.858 17.033-1.609 17.372-.074 28.546 4.739 34.487 1.226 1.514 2.229 3.016 2.229 3.337 0 .819 4.552 5.388 5.368 5.388.369 0 3.141 1.66 6.161 3.69 3.02 2.029 7.825 4.968 10.678 6.53 6.574 3.601 12.827 8.524 14.495 11.415 3.264 5.652-.367 10.793-7.639 10.815-.777.002-2.202.501-3.166 1.108-2.18 1.372-9.785 2.178-12.44 1.318Zm93.067-28.882c1.635-1.634 1.389-2.21-.452-1.06-.871.543-1.583 1.259-1.583 1.589 0 .924.788.719 2.035-.529Zm2.714-6.388c.582-1.088.817-2.22.521-2.515-.629-.63-2.833 2.061-2.87 3.503-.042 1.646 1.224 1.113 2.349-.988Zm8.708-9.105c0-.435-.157-.791-.349-.791-.192 0-.569.356-.839.791-.269.436-.112.792.35.792.461 0 .838-.356.838-.792Zm-1.834-2.523c-.253-.631-.44-.444-.478.479-.035.834.152 1.301.415 1.038.263-.263.292-.945.063-1.517Zm-6.874-14.449c0-.627-.318-1.338-.708-1.578-.815-.504-1.798 1.532-1.084 2.246.849.849 1.792.498 1.792-.668Zm-.791-6.049c0-2.221-.307-3.13-.982-2.905-.911.303-1.037 1.131-.722 4.752.247 2.841 1.704 1.262 1.704-1.847Zm-.792-9.038c0-1.919-.36-2.77-1.172-2.77-.645 0-1.395-.888-1.668-1.974-.659-2.629-1.81-1.82-1.288.906.614 3.214 2.29 6.144 2.794 4.884.276-.692.439-.577.48.34.117 2.593.854 1.397.854-1.386Zm12.94-1.385c-.263-1.415-1.182-4.532-2.041-6.926-.859-2.395-1.729-5.07-1.933-5.944-.315-1.356-4.054-3.981-4.721-3.314-.708.708.886 3.632 2.161 3.965.98.256 1.51 1.093 1.51 2.382 0 1.093.388 2.117.861 2.274.474.158 1.192 2.058 1.595 4.222.404 2.164 1.087 4.054 1.519 4.2.431.146.583.592.337.99-.246.398-.079.724.371.724.494 0 .629-1.021.341-2.573Zm-16.287-7.075c-.49-1.467-2.194-1.711-2.194-.313 0 .689.564 1.253 1.254 1.253.689 0 1.112-.423.94-.94Zm-6.331-14.241c-.423-1.27-2.791-2.694-3.425-2.06-.683.684 1.344 2.925 2.681 2.963.58.016.915-.39.744-.903Zm-7.736-10.196c0-.41-.357-.745-.792-.745-.435 0-.792.556-.792 1.234 0 .679.357 1.014.792.745.435-.269.792-.824.792-1.234ZM123.067 45.09a.794.794 0 0 0-.792-.791.793.793 0 0 0-.791.791c0 .436.356.792.791.792a.794.794 0 0 0 .792-.792Zm-4.169 112.306c.537-.541 1.175-.784 1.419-.54s-.195.686-.976.983c-1.128.43-1.219.339-.443-.443Zm12.665-.791c.537-.541 1.176-.784 1.419-.541.244.244-.195.687-.976.984-1.128.429-1.219.338-.443-.443Zm4.961-3.367c0-.165.623-.788 1.385-1.386 1.255-.984 1.283-.956.299.299-1.034 1.319-1.684 1.738-1.684 1.087Zm-17.217-1.761c.762-.895 1.389-1.955 1.394-2.356.009-.684 8.052-6.699 9.853-7.369.453-.168-.039.633-1.095 1.781-1.055 1.148-2.373 2.088-2.929 2.088-.555 0-1.295.479-1.643 1.065-.348.586-2.058 2.27-3.799 3.742-1.742 1.471-2.543 1.943-1.781 1.049Zm36.808-7.373c.98-.941 1.781-2.015 1.781-2.387 0-.372.536-.882 1.19-1.133 1.84-.706-.979 3.295-3.083 4.375-1.585.814-1.579.771.112-.855Zm-59.764-2.834c-.544-.618-.99-1.283-.99-1.479 0-.722 3.146.497 4.029 1.562.727.875.61 1.095-.567 1.071-.816-.016-1.928-.535-2.472-1.154Zm-16.694-.968c-1.413-.684-2.907-1.875-3.319-2.645-.709-1.324-.577-1.333 2.378-.173 2.654 1.043 3.511 1.071 5.639.19 2.773-1.149 7.049-4.491 7.049-5.511 0-.358-1.43-.893-3.177-1.188-3.515-.594-4.739-2.119-4.739-5.903 0-1.897.455-2.619 2.03-3.218 3.011-1.145 5.554-.94 6.778.546.98 1.19.871 1.265-1.123.769-1.495-.373-2.584-.177-3.365.603-1.734 1.735-1.404 2.67 1.139 3.229 3.687.81 6.221 4.606 4.545 6.811-.861 1.133-6.818 5.354-9.836 6.969-1.004.538-2.194.395-3.999-.479Zm21.839.837c.544-.22 1.435-.22 1.979 0 .544.219.099.399-.989.399-1.089 0-1.534-.18-.99-.399Zm8.51-1.475c.435-.16 2.216-.672 3.958-1.138 1.741-.466 3.833-1.357 4.648-1.981 1.366-1.047 1.382-1.234.198-2.419-.707-.706-1.272-1.881-1.258-2.612.021-1.054.36-.928 1.638.608 1.335 1.603 1.74 1.739 2.357.791.409-.63.556-1.946.325-2.926-.473-2.014.768-2.451 1.506-.529.659 1.719.583 6.076-.125 7.147-1.26 1.903-5.787 3.473-9.844 3.412-2.307-.034-3.839-.193-3.403-.353Zm-.295-3.463c-1.648-1.044-.043-5.156 2.138-5.477 1.509-.222 1.719-.751 1.719-4.326 0-3.844.076-3.996 1.355-2.717 1.626 1.626 1.508 8.964-.188 11.663-.575.914-.831.648-1.158-1.201-.244-1.377-.912-2.375-1.589-2.375-1.75 0-1.935 2.732-.271 3.993 1.14.864 1.198 1.105.268 1.115-.653.007-1.676-.296-2.274-.675Zm-12.382-.89c-.276-.446-.269-1.871.016-3.166.316-1.44.196-2.356-.31-2.356-.454 0-1.222-.739-1.706-1.643-.783-1.463-.678-1.615.962-1.385 1.551.217 1.836-.087 1.809-1.93-.037-2.537 1.493-2.477 1.868.073.144.98.825 1.721 1.583 1.723.971.003.712.499-.961 1.837-2.033 1.627-2.23 2.163-1.745 4.746.52 2.771-.354 3.982-1.517 2.101Zm5.355.287c-.545-.22-.949-1.528-.898-2.906.061-1.676.22-1.982.477-.924.213.871.939 2.207 1.614 2.969 1.203 1.356.783 1.658-1.193.861Zm3.596-.466c-.312-.929.593-6.196.919-5.343.083.218.214 1.732.291 3.365.137 2.883-.536 3.983-1.21 1.978Zm41.338-13.014c.007-.352.357-1.175.779-1.828.662-1.023.769-1.002.78.151.006.737-.344 1.559-.78 1.828-.435.269-.786.201-.779-.151Zm-92.155-3.675c-1.931-1.545-2.358-2.555-2.671-6.328-.206-2.485-.046-4.49.359-4.49 1.471 0 5.243-14.013 6.502-24.157.84-6.763 6.05-29.385 8.997-39.068.977-3.209 2.286-6.033 2.909-6.274.688-.267 2.317.897 4.155 2.969 2.577 2.903 3.024 3.948 3.024 7.065-.001 4.017-1.762 9.235-5.376 15.928l-4.27 7.916c-1.056 1.959-2.41 4.809-3.01 6.333-.599 1.523-1.739 3.622-2.532 4.663-1.037 1.36-1.21 2.174-.614 2.891.584.705.556 1.09-.097 1.307-.509.17-1.182 2.003-1.496 4.074-.315 2.071-.308 3.481.014 3.133.322-.348 3.14-3.66 6.262-7.361 6.097-7.225 10.944-11.843 12.451-11.862 1.324-.017 4.209 4.264 4.209 6.245 0 2.133-2.516 4.641-5.323 5.305-1.208.286-3.408 1.423-4.889 2.527-1.481 1.104-3.646 2.007-4.811 2.007-1.494 0-2.496.659-3.402 2.236-1.207 2.104-1.195 2.284.207 3.035.82.438 3.068.797 4.995.797 6.123 0 14.876 6.977 12.855 10.246-1.054 1.707-6.076.997-11.945-1.688-.895-.409-1.963-.679-2.375-.599-.411.079-.926.074-1.143-.013-.218-.086-1.991-.574-3.94-1.083-2.324-.607-3.853-1.55-4.443-2.739-.862-1.74-.918-1.696-1.367 1.072-.587 3.617-.054 6.716 2.076 12.07 1.439 3.616 1.511 4.307.518 4.935-1.841 1.165-3.366.879-5.829-1.092Zm52.96 1.07c-6.116-1.585-14.327-6.523-13.384-8.049 1.063-1.72 3.796-2.032 5.325-.607.832.775 2.866 1.638 4.521 1.917 3.594.608 10.431-.284 9.815-1.28-.239-.386.232-.703 1.046-.703.813 0 2.634-1.128 4.044-2.508 2.457-2.401 2.544-2.695 2.056-6.926-.281-2.43-.974-6.378-1.541-8.772-2.118-8.944-2.096-8.707-.784-8.707 2.28 0 7.355 3.108 9.119 5.586 1.491 2.094 1.647 2.943 1.056 5.757-.538 2.559-1.094 3.358-2.474 3.554-2.094.297-2.198.744-.589 2.522.958 1.058 1.021 1.807.323 3.81-.792 2.271-.66 2.703 1.477 4.839 1.745 1.745 2.246 2.866 1.958 4.375-.39 2.04-1.309 2.495-6.137 3.036-1.306.147-3.754.867-5.44 1.6-3.229 1.405-6.451 1.577-10.391.556Zm60.258-4.676c.164-1.911.326-5.83.36-8.708.034-2.878.229-4.825.434-4.327.204.498 1.044.729 1.867.514 1.273-.333 1.532.122 1.743 3.053.347 4.838-.928 9.38-2.634 9.38-.787 0-1.516.757-1.717 1.781-.192.98-.216.218-.053-1.693Zm6.755-4.837c0-1.089.18-1.534.399-.99.22.544.22 1.435 0 1.979-.219.544-.399.099-.399-.989Zm-36.331-5.078c-2.907-3.344-3.325-4.852-3.74-13.497-.224-4.654-.57-8.725-.77-9.048-.199-.323.687-.434 1.97-.245 1.284.188 2.333.658 2.333 1.044s.511.702 1.134.702c1.667 0 2.265 2.767 1.654 7.654-.496 3.969-.375 4.469 1.503 6.209 2.156 1.999 2.631 4.931 1.223 7.561-1.114 2.082-3.303 1.925-5.307-.38Zm-28.407-.339c-1.174-.981-1.988-3.12-2.698-7.09-1.211-6.779-2.238-6.586-4.314.812-1.194 4.256-1.505 4.723-2.364 3.549-.545-.744-1.681-1.353-2.525-1.353-.845 0-1.966-.431-2.493-.957-.749-.749-1.224-.577-2.182.791-1.539 2.197-4.634 2.264-8.062.174-2.076-1.265-2.572-2.079-2.572-4.212 0-5.366 5.407-7.306 8.084-2.9.928 1.527 5.278 3.937 7.106 3.937.411 0 .572-.623.357-1.385-.215-.762-.632-2.927-.925-4.811l-.534-3.426 2.455 1.269c1.742.901 2.455 1.839 2.455 3.228 0 2.883 1.332 2.388 3.146-1.167 1.536-3.011 1.686-3.095 4.036-2.276 1.342.468 2.828 1.7 3.301 2.739.721 1.582.566 2.2-.963 3.828l-1.823 1.94 2.492 2.838c2.04 2.323 2.342 3.119 1.665 4.384-1.007 1.882-1.482 1.893-3.642.088Zm-19.453-5.032c1.245-1.244 1.205-3.149-.102-4.936-.849-1.162-1.366-1.271-2.679-.568-1.679.899-3.007 4.365-2.183 5.699.658 1.064 3.83.939 4.964-.195Zm25.581-22.465c-.921-1.171-1.675-2.408-1.675-2.749 0-.341-.227-1.213-.505-1.937-.419-1.092-.098-1.253 1.876-.942 3.936.62 6.663 2.847 6.388 5.215-.351 3.026-3.842 3.263-6.084.413Zm14.937-3.803c-3.592-4.287-3.489-4.983.724-4.9 4.948.096 8.177 2.177 7.844 5.056-.22 1.908-.573 2.13-3.423 2.159-2.575.027-3.551-.413-5.145-2.315Zm-5.53-21.86c-.713-.461-.811-.772-.244-.78.518-.006 1.162.344 1.431.78.608.983.334.983-1.187 0Zm-6.372-20.233c-.745-.898-.716-1.137.14-1.128.598.007 1.562.314 2.143.682.858.543.831.755-.14 1.128-.658.252-1.622-.054-2.143-.682Z"/></svg>