<svg xmlns="http://www.w3.org/2000/svg" viewBox="0 0 192 192"><path d="M73.754 22.333c-1.087.537-1.012 1.963.2 3.963.675 1.125.788 1.6.475 2.262-.337.75-2.262 2.563-5.138 4.851-3.262 2.612-5.225 4.037-9.1 6.638-8.226 5.5-16.301 9.963-26.002 14.363-1.788.8-3.625 1.688-4.075 1.95-1.363.8-1.863 1.563-1.488 2.263.112.2.275.238 1 .238 3.65 0 14.626-2.638 24.464-5.888 4.451-1.476 5.413-1.688 5.963-1.313.6.388.613.5.663 10.976l.062 9.838-.425.2c-.462.213-3.1.95-14.726 4.125-16.814 4.601-27.564 7.613-28.652 8.038-.375.15-.975.888-.975 1.213 0 .113.15.488.325.813.263.475.488.687 1.038.975 1.6.85 4.712 1.725 6.575 1.862 1.788.113 2.225.013 11.438-2.637 2.301-.675 8.151-2.276 13.001-3.576 4.851-1.3 9.001-2.425 9.226-2.487.625-.188.663.125.138 1.112-.45.825-10.051 15.914-13.901 21.814-5.876 9.051-9.789 14.151-20.139 26.315-5.738 6.738-7.701 9.263-7.701 9.95 0 .325.45.738.913.851 1.05.25 2.075-.438 7.4-4.963 6.776-5.763 9.463-8.263 18.676-17.402 7.576-7.513 12.576-12.651 15.377-15.788 1.062-1.175 2-2.15 2.087-2.15.225 0 .35 2.187.25 4.362-.45 9.614-1.625 28.265-2.15 33.815-.25 2.663-.612 5.426-.975 7.463-.575 3.113-.625 3.663-.625 6.238-.013 3.176.162 4.276 1.05 6.813 1.538 4.363 4.088 8.038 6.601 9.514.6.35 2.1.925 2.425.925.412 0 1.325-.488 1.775-.95.762-.788 1.062-1.576 1.262-3.313.35-3.163.588-12.476.813-31.49.363-31.365.425-34.44.688-34.878.137-.237.3-.125 1.462.976 1.488 1.387 8.013 7.188 10.788 9.588 3.426 2.962 5.613 4.275 7.676 4.625 2 .35 3.388-.287 4.288-1.975.712-1.325.05-6.826-1.1-9.126-1.338-2.675-3.763-5.688-5.101-6.325-.425-.213-1.1-.325-3.087-.513-6.926-.662-14.139-1.912-14.776-2.562-.3-.3-.363-1.713-.213-5.126.075-1.787.188-4.688.238-6.463.112-3.613.162-3.8 1.087-4.313 1.663-.925 6.688-1.65 15.751-2.287 6.726-.463 9.313-.775 11.539-1.388 2.85-.775 3.712-1.912 3.075-4.075-.513-1.713-2.15-2.863-5.876-4.125-3.037-1.026-5.737-1.413-9.9-1.413h-2.263l-1.763 1.175c-3.762 2.525-6.45 3.613-9.388 3.788-1.825.1-1.8.125-1.712-2.013.037-.9.212-2.988.387-4.638.488-4.625.65-7.675.475-8.525-.337-1.638-1.412-3.376-3.288-5.351-.687-.725-1.237-1.387-1.2-1.475.025-.087 1.613-.812 3.526-1.625a662.77 662.77 0 0 0 9.05-3.913c3.063-1.35 6.113-2.662 6.763-2.912 1.55-.6 1.713-.688 1.963-1.175.25-.488.275-1.813.037-2.901-.337-1.625-1.712-3.55-4.387-6.125-4.113-3.938-6.826-5.776-9.789-6.626-1.287-.362-1.487-.375-2.075-.087Z"/><path d="M157.51 74.362c-.512.125-1.837.575-2.937.987-1.1.413-2.776.975-3.713 1.25-1.95.563-8.388 2.075-16.101 3.763-17.352 3.813-25.652 5.5-26.952 5.5-.65 0-2.013-.675-4.426-2.187a55.07 55.07 0 0 0-2.625-1.538c-.975-.5-1.1-.537-1.687-.462-1.326.162-2.701 1.125-3.251 2.25-.125.275-.262.837-.287 1.25-.05.913.137 1.313 1.525 3.175 1.475 1.988 1.888 2.763 2.313 4.388.525 2.025 2.012 8.826 4.65 21.252 2.475 11.7 3.213 15.051 3.613 16.188 1.275 3.713 4 6.563 6.725 7.063.888.15 1.8.025 2.338-.325.475-.312 1.125-1.475 1.612-2.913.488-1.45.726-1.762 1.626-2.187 1.975-.938 9.188-2.525 14.238-3.138 4.488-.55 10.676-.712 16.289-.437 6.15.3 9.038.375 10.513.262 2.263-.175 2.713-.512 2.713-2-.013-1.438-.838-3.063-2.45-4.838-.538-.575-.975-1.1-.975-1.163 0-.525 8.175-23.351 10.313-28.789.837-2.125 1.112-2.5 3.45-4.538 2.025-1.775 2.3-2.338 1.688-3.538-.363-.7-.838-1.012-6.638-4.337-6.788-3.888-9.389-5.201-10.314-5.176-.175 0-.737.113-1.25.238Zm-4.162 10.013c.462.175.537.312.537 1.012 0 1.413-1.15 8.326-3.825 22.852-1.75 9.526-1.913 10.276-2.175 10.513-.25.225-2.163.613-8.751 1.788-10.251 1.85-17.514 3.038-19.089 3.15-1.588.113-1.5.238-2.4-3.388-2.5-10.113-6.376-27.339-6.226-27.727.088-.225.676-.375 7.151-1.712 6.225-1.3 29.215-5.901 31.44-6.301 1.875-.337 2.812-.387 3.338-.187Z"/></svg>