<svg
    xmlns="http://www.w3.org/2000/svg"
    viewBox="0 0 192 192"
    id="vector">
    <path
        id="path_4"
        d="M 63.698 166.248 C 59.421 164.863 44.924 157.295 41.945 154.891 C 36.164 150.229 28.077 142.208 28.077 141.137 C 28.077 140.556 27.77 140.08 27.394 140.08 C 26.603 140.08 21.857 130.612 19.458 124.248 C 14.873 112.089 14.844 90.981 19.392 77.479 C 21.744 70.497 26.27 61.597 28.416 59.734 C 29.419 58.864 31.857 56.014 33.834 53.402 C 38.517 47.213 48.065 37.966 49.772 37.966 C 50.507 37.966 53.051 36.724 55.425 35.205 C 57.798 33.687 59.74 32.613 59.74 32.819 C 59.74 33.025 61.611 32.441 63.896 31.521 C 73.932 27.484 77.421 26.745 88.49 26.313 C 95.915 26.023 99.709 26.165 100.298 26.755 C 100.833 27.289 102.868 27.459 105.586 27.196 C 108.901 26.876 111.094 27.174 114.359 28.389 C 118.073 29.77 118.277 29.94 115.745 29.545 C 109.53 28.576 114.47 31.899 121.786 33.609 C 122.606 33.801 124.671 34.685 126.376 35.573 C 128.595 36.73 129.874 36.976 130.876 36.44 C 132.564 35.537 138.898 38.965 138.898 40.781 C 138.898 41.41 139.539 41.924 140.321 41.924 C 141.103 41.924 143.142 43.356 144.852 45.107 C 146.561 46.858 148.379 48.129 148.891 47.933 C 149.878 47.554 155.159 52.868 159.046 58.151 C 160.327 59.893 161.595 61.496 161.865 61.713 C 163.381 62.938 167.851 70.445 169.126 73.908 C 169.943 76.126 170.903 78.653 171.26 79.524 C 173.035 83.86 173.511 86.452 173.138 89.756 C 172.802 92.742 172.957 93.377 174.021 93.377 C 175.526 93.377 175.743 95.794 174.361 97.176 C 173.622 97.915 173.622 98.126 174.361 98.126 C 174.884 98.126 175.311 98.485 175.311 98.924 C 175.311 99.409 174.714 99.35 173.792 98.774 C 172.601 98.03 172.011 98.043 171.056 98.835 C 169.66 99.994 168.187 99.379 168.187 97.637 C 168.187 96.984 167.909 96.621 167.569 96.831 C 167.229 97.042 167.042 101.928 167.153 107.69 C 167.332 116.957 167.54 118.364 168.958 119.873 C 170.813 121.848 171.031 123.895 169.481 124.802 C 168.239 125.531 165.806 130.006 165.824 131.531 C 165.833 132.269 166.053 132.224 166.604 131.372 C 167.186 130.471 167.374 130.441 167.383 131.249 C 167.389 131.834 166.683 132.498 165.812 132.726 C 164.941 132.954 164.227 133.544 164.225 134.037 C 164.223 134.531 163.344 136.003 162.271 137.309 C 160.74 139.174 160.936 138.511 163.185 134.218 C 166.066 128.719 167.237 124.248 165.797 124.248 C 165.37 124.248 165.021 124.794 165.021 125.462 C 165.021 127.32 161.128 134.62 158.583 137.535 C 157.335 138.965 156.313 140.601 156.313 141.172 C 156.313 142.339 143.75 154.694 143.162 154.106 C 142.954 153.898 144.226 152.585 145.99 151.188 C 147.753 149.791 148.985 148.306 148.726 147.888 C 148.443 147.43 147.752 147.536 146.988 148.155 C 145.983 148.968 145.846 148.972 146.327 148.171 C 146.662 147.614 148.066 146.664 149.447 146.059 L 151.959 144.958 L 149.571 144.894 C 147.162 144.829 141.273 148.174 141.273 149.607 C 141.273 150.027 140.717 150.37 140.038 150.37 C 139.31 150.37 140.221 149.142 142.256 147.381 C 150.785 139.999 157.918 130.234 156.93 127.295 C 156.732 126.707 157.225 125.059 158.025 123.63 C 158.825 122.202 159.479 120.309 159.479 119.423 C 159.479 118.536 159.853 117.114 160.309 116.262 C 160.943 115.077 160.838 114.411 159.862 113.436 C 158.217 111.791 157.458 112.661 156.499 117.29 C 155.948 119.953 155.98 121.126 156.614 121.396 C 157.17 121.633 156.946 122.222 156.016 122.973 C 155.167 123.659 154.733 124.697 155.002 125.397 C 155.26 126.071 155.127 126.623 154.705 126.623 C 153.585 126.623 153.767 128.795 154.928 129.274 C 155.527 129.522 155.215 129.896 154.136 130.224 C 153.157 130.522 152.355 131.101 152.355 131.511 C 152.355 131.922 152.801 131.983 153.345 131.648 C 153.889 131.313 152.553 133.205 150.376 135.851 C 148.199 138.498 146.205 140.544 145.944 140.398 C 145.683 140.253 145.01 140.993 144.447 142.044 C 143.885 143.094 142.911 144.151 142.282 144.392 C 141.653 144.634 142.26 143.415 143.631 141.684 C 145.299 139.578 145.911 138.159 145.48 137.394 C 144.957 136.466 144.246 136.724 141.717 138.759 C 140.002 140.138 137.597 142.219 136.374 143.383 C 135.15 144.547 134.149 145.323 134.149 145.108 C 134.149 144.892 133.624 145.241 132.983 145.883 C 130.751 148.114 126.24 150.487 124.856 150.159 C 123.749 149.896 123.91 149.644 125.639 148.931 C 126.837 148.438 127.816 147.67 127.816 147.224 C 127.816 146.777 128.262 146.407 128.806 146.4 C 129.35 146.393 131.042 145.315 132.566 144.004 C 135.948 141.095 144.249 133.719 145.665 132.364 C 146.232 131.821 147.231 131.582 147.884 131.833 C 149.247 132.356 151.989 128.744 151.2 127.466 C 150.924 127.02 151.139 125.847 151.676 124.858 C 152.214 123.87 152.709 122.384 152.777 121.557 C 152.844 120.731 153.49 119.623 154.211 119.095 C 154.932 118.568 155.522 117.687 155.522 117.138 C 155.522 116.334 155.285 116.335 154.315 117.14 C 153.651 117.69 152.851 117.883 152.535 117.568 C 152.22 117.252 152.515 116.578 153.191 116.07 C 155.195 114.561 156.167 106.776 155.317 99.042 C 154.585 92.378 152.753 86.252 151.493 86.252 C 151.15 86.252 150.882 85.629 150.896 84.867 C 150.934 82.775 150.227 80.293 149.054 78.402 C 148.163 76.965 148.183 76.576 149.189 75.863 C 150.198 75.147 150.175 75.085 149.032 75.451 C 148.126 75.74 147.495 75.312 147.099 74.14 C 146.547 72.503 146.444 72.057 146.143 69.988 C 146.077 69.533 144.153 67.171 141.867 64.74 C 138.484 61.143 137.756 59.881 137.951 57.96 C 138.152 55.977 137.773 55.389 135.576 54.274 C 134.138 53.544 131.18 51.89 129.004 50.598 C 126.827 49.307 124.066 47.861 122.869 47.384 C 121.633 46.893 120.692 45.909 120.692 45.108 C 120.692 43.58 118.144 42.342 113.37 41.552 C 110.93 41.148 110.402 41.295 110.402 42.38 C 110.402 43.492 110.205 43.537 109.154 42.665 C 108.19 41.865 107.772 41.847 107.315 42.586 C 106.925 43.217 105.665 43.376 103.615 43.053 C 100.042 42.491 99.034 41.923 101.609 41.923 C 102.582 41.923 103.152 41.569 102.882 41.132 C 102.201 40.031 98.254 40.139 97.103 41.29 C 96.364 42.029 96.153 41.941 96.153 40.894 C 96.153 40.154 95.619 39.549 94.966 39.549 C 93.528 39.549 93.39 40.842 94.768 41.403 C 95.312 41.625 93.62 41.618 91.008 41.387 C 86.947 41.027 85.982 41.208 84.356 42.632 C 83.31 43.549 82.063 44.293 81.586 44.286 C 81.108 44.279 81.252 43.929 81.905 43.507 C 82.558 43.085 82.825 42.689 82.498 42.628 C 82.172 42.567 81.615 42.473 81.261 42.418 C 80.908 42.364 78.859 40.865 76.71 39.088 C 72.42 35.542 70.694 34.676 69.49 35.466 C 69.054 35.752 67.924 38.294 66.98 41.114 C 65.963 44.152 64.41 46.976 63.17 48.041 C 61.296 49.651 61.531 50.291 63.868 49.943 C 65.239 49.738 63.292 52.027 60.126 54.342 C 57.895 55.973 56.549 56.533 56.321 55.925 C 56.087 55.303 55.368 55.56 54.196 56.686 C 52.552 58.264 52.599 60.723 54.254 59.7 C 55.45 58.961 55.095 60.641 53.834 61.688 C 53.198 62.216 52.439 63.4 52.147 64.32 C 51.855 65.24 51.125 66.483 50.526 67.083 C 49.926 67.683 49.652 68.523 49.916 68.951 C 50.18 69.379 49.827 70.358 49.131 71.127 C 46.823 73.677 43.8 82.467 43.273 88.16 C 41.664 105.532 43.199 116.706 48.012 122.647 C 49.238 124.161 50.241 125.663 50.241 125.984 C 50.241 126.803 54.793 131.372 55.609 131.372 C 55.978 131.372 58.75 133.032 61.77 135.062 C 64.79 137.091 69.595 140.03 72.448 141.592 C 79.022 145.193 85.275 150.116 86.943 153.007 C 90.207 158.659 86.576 163.8 79.304 163.822 C 78.527 163.824 77.102 164.323 76.138 164.93 C 73.958 166.302 66.353 167.108 63.698 166.248 Z M 156.765 137.366 C 158.4 135.732 158.154 135.156 156.313 136.306 C 155.442 136.849 154.73 137.565 154.73 137.895 C 154.73 138.819 155.518 138.614 156.765 137.366 Z M 159.479 130.978 C 160.061 129.89 160.296 128.758 160 128.463 C 159.371 127.833 157.167 130.524 157.13 131.966 C 157.088 133.612 158.354 133.079 159.479 130.978 Z M 168.187 121.873 C 168.187 121.438 168.03 121.082 167.838 121.082 C 167.646 121.082 167.269 121.438 166.999 121.873 C 166.73 122.309 166.887 122.665 167.349 122.665 C 167.81 122.665 168.187 122.309 168.187 121.873 Z M 166.353 119.35 C 166.1 118.719 165.913 118.906 165.875 119.829 C 165.84 120.663 166.027 121.13 166.29 120.867 C 166.553 120.604 166.582 119.922 166.353 119.35 Z M 159.479 104.901 C 159.479 104.274 159.161 103.563 158.771 103.323 C 157.956 102.819 156.973 104.855 157.687 105.569 C 158.536 106.418 159.479 106.067 159.479 104.901 Z M 158.688 98.852 C 158.688 96.631 158.381 95.722 157.706 95.947 C 156.795 96.25 156.669 97.078 156.984 100.699 C 157.231 103.54 158.688 101.961 158.688 98.852 Z M 157.896 89.814 C 157.896 87.895 157.536 87.044 156.724 87.044 C 156.079 87.044 155.329 86.156 155.056 85.07 C 154.397 82.441 153.246 83.25 153.768 85.976 C 154.382 89.19 156.058 92.12 156.562 90.86 C 156.838 90.168 157.001 90.283 157.042 91.2 C 157.159 93.793 157.896 92.597 157.896 89.814 Z M 170.836 88.429 C 170.573 87.014 169.654 83.897 168.795 81.503 C 167.936 79.108 167.066 76.433 166.862 75.559 C 166.547 74.203 162.808 71.578 162.141 72.245 C 161.433 72.953 163.027 75.877 164.302 76.21 C 165.282 76.466 165.812 77.303 165.812 78.592 C 165.812 79.685 166.2 80.709 166.673 80.866 C 167.147 81.024 167.865 82.924 168.268 85.088 C 168.672 87.252 169.355 89.142 169.787 89.288 C 170.218 89.434 170.37 89.88 170.124 90.278 C 169.878 90.676 170.045 91.002 170.495 91.002 C 170.989 91.002 171.124 89.981 170.836 88.429 Z M 154.549 81.354 C 154.059 79.887 152.355 79.643 152.355 81.041 C 152.355 81.73 152.919 82.294 153.609 82.294 C 154.298 82.294 154.721 81.871 154.549 81.354 Z M 148.218 67.113 C 147.795 65.843 145.427 64.419 144.793 65.053 C 144.11 65.737 146.137 67.978 147.474 68.016 C 148.054 68.032 148.389 67.626 148.218 67.113 Z M 140.482 56.917 C 140.482 56.507 140.125 56.172 139.69 56.172 C 139.255 56.172 138.898 56.728 138.898 57.406 C 138.898 58.085 139.255 58.42 139.69 58.151 C 140.125 57.882 140.482 57.327 140.482 56.917 Z M 123.067 45.09 C 123.067 44.655 122.711 44.299 122.275 44.299 C 121.84 44.299 121.484 44.655 121.484 45.09 C 121.484 45.526 121.84 45.882 122.275 45.882 C 122.711 45.882 123.067 45.526 123.067 45.09 Z M 118.898 157.396 C 119.435 156.855 120.073 156.612 120.317 156.856 C 120.561 157.1 120.122 157.542 119.341 157.839 C 118.213 158.269 118.122 158.178 118.898 157.396 Z M 131.563 156.605 C 132.1 156.064 132.739 155.821 132.982 156.064 C 133.226 156.308 132.787 156.751 132.006 157.048 C 130.878 157.477 130.787 157.386 131.563 156.605 Z M 136.524 153.238 C 136.524 153.073 137.147 152.45 137.909 151.852 C 139.164 150.868 139.192 150.896 138.208 152.151 C 137.174 153.47 136.524 153.889 136.524 153.238 Z M 119.307 151.477 C 120.069 150.582 120.696 149.522 120.701 149.121 C 120.71 148.437 128.753 142.422 130.554 141.752 C 131.007 141.584 130.515 142.385 129.459 143.533 C 128.404 144.681 127.086 145.621 126.53 145.621 C 125.975 145.621 125.235 146.1 124.887 146.686 C 124.539 147.272 122.829 148.956 121.088 150.428 C 119.346 151.899 118.545 152.371 119.307 151.477 Z M 156.115 144.104 C 157.095 143.163 157.896 142.089 157.896 141.717 C 157.896 141.345 158.432 140.835 159.086 140.584 C 160.926 139.878 158.107 143.879 156.003 144.959 C 154.418 145.773 154.424 145.73 156.115 144.104 Z M 96.351 141.27 C 95.807 140.652 95.361 139.987 95.361 139.791 C 95.361 139.069 98.507 140.288 99.39 141.353 C 100.117 142.228 100 142.448 98.823 142.424 C 98.007 142.408 96.895 141.889 96.351 141.27 Z M 79.657 140.302 C 78.244 139.618 76.75 138.427 76.338 137.657 C 75.629 136.333 75.761 136.324 78.716 137.484 C 81.37 138.527 82.227 138.555 84.355 137.674 C 87.128 136.525 91.404 133.183 91.404 132.163 C 91.404 131.805 89.974 131.27 88.227 130.975 C 84.712 130.381 83.488 128.856 83.488 125.072 C 83.488 123.175 83.943 122.453 85.518 121.854 C 88.529 120.709 91.072 120.914 92.296 122.4 C 93.276 123.59 93.167 123.665 91.173 123.169 C 89.678 122.796 88.589 122.992 87.808 123.772 C 86.074 125.507 86.404 126.442 88.947 127.001 C 92.634 127.811 95.168 131.607 93.492 133.812 C 92.631 134.945 86.674 139.166 83.656 140.781 C 82.652 141.319 81.462 141.176 79.657 140.302 Z M 101.496 141.139 C 102.04 140.919 102.931 140.919 103.475 141.139 C 104.019 141.358 103.574 141.538 102.486 141.538 C 101.397 141.538 100.952 141.358 101.496 141.139 Z M 110.006 139.664 C 110.441 139.504 112.222 138.992 113.964 138.526 C 115.705 138.06 117.797 137.169 118.612 136.545 C 119.978 135.498 119.994 135.311 118.81 134.126 C 118.103 133.42 117.538 132.245 117.552 131.514 C 117.573 130.46 117.912 130.586 119.19 132.122 C 120.525 133.725 120.93 133.861 121.547 132.913 C 121.956 132.283 122.103 130.967 121.872 129.987 C 121.399 127.973 122.64 127.536 123.378 129.458 C 124.037 131.177 123.961 135.534 123.253 136.605 C 121.993 138.508 117.466 140.078 113.409 140.017 C 111.102 139.983 109.57 139.824 110.006 139.664 Z M 109.711 136.201 C 108.063 135.157 109.668 131.045 111.849 130.724 C 113.358 130.502 113.568 129.973 113.568 126.398 C 113.568 122.554 113.644 122.402 114.923 123.681 C 116.549 125.307 116.431 132.645 114.735 135.344 C 114.16 136.258 113.904 135.992 113.577 134.143 C 113.333 132.766 112.665 131.768 111.988 131.768 C 110.238 131.768 110.053 134.5 111.717 135.761 C 112.857 136.625 112.915 136.866 111.985 136.876 C 111.332 136.883 110.309 136.58 109.711 136.201 Z M 97.329 135.311 C 97.053 134.865 97.06 133.44 97.345 132.145 C 97.661 130.705 97.541 129.789 97.035 129.789 C 96.581 129.789 95.813 129.05 95.329 128.146 C 94.546 126.683 94.651 126.531 96.291 126.761 C 97.842 126.978 98.127 126.674 98.1 124.831 C 98.063 122.294 99.593 122.354 99.968 124.904 C 100.112 125.884 100.793 126.625 101.551 126.627 C 102.522 126.63 102.263 127.126 100.59 128.464 C 98.557 130.091 98.36 130.627 98.845 133.21 C 99.365 135.981 98.491 137.192 97.328 135.311 Z M 102.684 135.598 C 102.139 135.378 101.735 134.07 101.786 132.692 C 101.847 131.016 102.006 130.71 102.263 131.768 C 102.476 132.639 103.202 133.975 103.877 134.737 C 105.08 136.093 104.66 136.395 102.684 135.598 Z M 106.28 135.132 C 105.968 134.203 106.873 128.936 107.199 129.789 C 107.282 130.007 107.413 131.521 107.49 133.154 C 107.627 136.037 106.954 137.137 106.28 135.132 Z M 147.618 122.118 C 147.625 121.766 147.975 120.943 148.397 120.29 C 149.059 119.267 149.166 119.288 149.177 120.441 C 149.183 121.178 148.833 122 148.397 122.269 C 147.962 122.538 147.611 122.47 147.618 122.118 Z M 55.463 118.443 C 53.532 116.898 53.105 115.888 52.792 112.115 C 52.586 109.63 52.746 107.625 53.151 107.625 C 54.622 107.625 58.394 93.612 59.653 83.468 C 60.493 76.705 65.703 54.083 68.65 44.4 C 69.627 41.191 70.936 38.367 71.559 38.126 C 72.247 37.859 73.876 39.023 75.714 41.095 C 78.291 43.998 78.738 45.043 78.738 48.16 C 78.737 52.177 76.976 57.395 73.362 64.088 C 72.07 66.483 70.148 70.045 69.092 72.004 C 68.036 73.963 66.682 76.813 66.082 78.337 C 65.483 79.86 64.343 81.959 63.55 83 C 62.513 84.36 62.34 85.174 62.936 85.891 C 63.52 86.596 63.492 86.981 62.839 87.198 C 62.33 87.368 61.657 89.201 61.343 91.272 C 61.028 93.343 61.035 94.753 61.357 94.405 C 61.679 94.057 64.497 90.745 67.619 87.044 C 73.716 79.819 78.563 75.201 80.07 75.182 C 81.394 75.165 84.279 79.446 84.279 81.427 C 84.279 83.56 81.763 86.068 78.956 86.732 C 77.748 87.018 75.548 88.155 74.067 89.259 C 72.586 90.363 70.421 91.266 69.256 91.266 C 67.762 91.266 66.76 91.925 65.854 93.502 C 64.647 95.606 64.659 95.786 66.061 96.537 C 66.881 96.975 69.129 97.334 71.056 97.334 C 77.179 97.334 85.932 104.311 83.911 107.58 C 82.857 109.287 77.835 108.577 71.966 105.892 C 71.071 105.483 70.003 105.213 69.591 105.293 C 69.18 105.372 68.665 105.367 68.448 105.28 C 68.23 105.194 66.457 104.706 64.508 104.197 C 62.184 103.59 60.655 102.647 60.065 101.458 C 59.203 99.718 59.147 99.762 58.698 102.53 C 58.111 106.147 58.644 109.246 60.774 114.6 C 62.213 118.216 62.285 118.907 61.292 119.535 C 59.451 120.7 57.926 120.414 55.463 118.443 Z M 108.423 119.513 C 102.307 117.928 94.096 112.99 95.039 111.464 C 96.102 109.744 98.835 109.432 100.364 110.857 C 101.196 111.632 103.23 112.495 104.885 112.774 C 108.479 113.382 115.316 112.49 114.7 111.494 C 114.461 111.108 114.932 110.791 115.746 110.791 C 116.559 110.791 118.38 109.663 119.79 108.283 C 122.247 105.882 122.334 105.588 121.846 101.357 C 121.565 98.927 120.872 94.979 120.305 92.585 C 118.187 83.641 118.209 83.878 119.521 83.878 C 121.801 83.878 126.876 86.986 128.64 89.464 C 130.131 91.558 130.287 92.407 129.696 95.221 C 129.158 97.78 128.602 98.579 127.222 98.775 C 125.128 99.072 125.024 99.519 126.633 101.297 C 127.591 102.355 127.654 103.104 126.956 105.107 C 126.164 107.378 126.296 107.81 128.433 109.946 C 130.178 111.691 130.679 112.812 130.391 114.321 C 130.001 116.361 129.082 116.816 124.254 117.357 C 122.948 117.504 120.5 118.224 118.814 118.957 C 115.585 120.362 112.363 120.534 108.423 119.513 Z M 168.681 114.837 C 168.845 112.926 169.007 109.007 169.041 106.129 C 169.075 103.251 169.27 101.304 169.475 101.802 C 169.679 102.3 170.519 102.531 171.342 102.316 C 172.615 101.983 172.874 102.438 173.085 105.369 C 173.432 110.207 172.157 114.749 170.451 114.749 C 169.664 114.749 168.935 115.506 168.734 116.53 C 168.542 117.51 168.518 116.748 168.681 114.837 Z M 175.436 110 C 175.436 108.911 175.616 108.466 175.835 109.01 C 176.055 109.554 176.055 110.445 175.835 110.989 C 175.616 111.533 175.436 111.088 175.436 110 Z M 139.105 104.922 C 136.198 101.578 135.78 100.07 135.365 91.425 C 135.141 86.771 134.795 82.7 134.595 82.377 C 134.396 82.054 135.282 81.943 136.565 82.132 C 137.849 82.32 138.898 82.79 138.898 83.176 C 138.898 83.562 139.409 83.878 140.032 83.878 C 141.699 83.878 142.297 86.645 141.686 91.532 C 141.19 95.501 141.311 96.001 143.189 97.741 C 145.345 99.74 145.82 102.672 144.412 105.302 C 143.298 107.384 141.109 107.227 139.105 104.922 Z M 110.698 104.583 C 109.524 103.602 108.71 101.463 108 97.493 C 106.789 90.714 105.762 90.907 103.686 98.305 C 102.492 102.561 102.181 103.028 101.322 101.854 C 100.777 101.11 99.641 100.501 98.797 100.501 C 97.952 100.501 96.831 100.07 96.304 99.544 C 95.555 98.795 95.08 98.967 94.122 100.335 C 92.583 102.532 89.488 102.599 86.06 100.509 C 83.984 99.244 83.488 98.43 83.488 96.297 C 83.488 90.931 88.895 88.991 91.572 93.397 C 92.5 94.924 96.85 97.334 98.678 97.334 C 99.089 97.334 99.25 96.711 99.035 95.949 C 98.82 95.187 98.403 93.022 98.11 91.138 L 97.576 87.712 L 100.031 88.981 C 101.773 89.882 102.486 90.82 102.486 92.209 C 102.486 95.092 103.818 94.597 105.632 91.042 C 107.168 88.031 107.318 87.947 109.668 88.766 C 111.01 89.234 112.496 90.466 112.969 91.505 C 113.69 93.087 113.535 93.705 112.006 95.333 L 110.183 97.273 L 112.675 100.111 C 114.715 102.434 115.017 103.23 114.34 104.495 C 113.333 106.377 112.858 106.388 110.698 104.583 Z M 91.245 99.551 C 92.49 98.307 92.45 96.402 91.143 94.615 C 90.294 93.453 89.777 93.344 88.464 94.047 C 86.785 94.946 85.457 98.412 86.281 99.746 C 86.939 100.81 90.111 100.685 91.245 99.551 Z M 116.826 77.086 C 115.905 75.915 115.151 74.678 115.151 74.337 C 115.151 73.996 114.924 73.124 114.646 72.4 C 114.227 71.308 114.548 71.147 116.522 71.458 C 120.458 72.078 123.185 74.305 122.91 76.673 C 122.559 79.699 119.068 79.936 116.826 77.086 Z M 131.763 73.283 C 128.171 68.996 128.274 68.3 132.487 68.383 C 137.435 68.479 140.664 70.56 140.331 73.439 C 140.111 75.347 139.758 75.569 136.908 75.598 C 134.333 75.625 133.357 75.185 131.763 73.283 Z M 126.233 51.423 C 125.52 50.962 125.422 50.651 125.989 50.643 C 126.507 50.637 127.151 50.987 127.42 51.423 C 128.028 52.406 127.754 52.406 126.233 51.423 Z M 119.861 31.19 C 119.116 30.292 119.145 30.053 120.001 30.062 C 120.599 30.069 121.563 30.376 122.144 30.744 C 123.002 31.287 122.975 31.499 122.004 31.872 C 121.346 32.124 120.382 31.818 119.861 31.19 Z"
        fill="#000000"
        stroke-width="12"/>
</svg>
