<svg
    xmlns="http://www.w3.org/2000/svg"
    viewBox="0 0 192 192"
    id="vector">
    <path
        id="path"
        d="M 103.232 174.475 C 103.966 173.037 104.108 172.95 105.726 172.95 L 107.442 172.95 L 106.663 174.475 C 105.93 175.913 105.787 176 104.17 176 L 102.454 176 Z M 56.346 171.104 C 54.225 169.966 53.542 168.155 53.351 163.157 L 53.186 158.842 L 57.857 158.842 L 57.857 162.57 C 57.857 166.705 58.356 167.993 59.955 167.993 C 61.554 167.993 62.052 166.705 62.052 162.57 L 62.052 158.842 L 66.736 158.842 L 66.526 163.22 C 66.281 168.313 65.642 170.027 63.583 171.108 C 61.793 172.048 58.102 172.046 56.346 171.103 Z M 70.059 165.324 L 70.059 158.842 L 74.253 158.842 L 74.253 167.993 L 80.354 167.993 L 80.354 171.806 L 70.059 171.806 Z M 83.023 171.471 C 83.023 171.154 83.628 169.591 84.737 167.04 C 85.011 166.41 85.88 164.301 86.668 162.352 L 88.102 158.808 L 90.413 158.92 L 92.723 159.032 L 94.84 164.37 C 96.003 167.306 97.054 169.88 97.175 170.09 C 98.079 171.659 97.94 171.806 95.558 171.806 C 93.567 171.806 93.219 171.7 93.047 171.043 C 92.874 170.38 92.527 170.281 90.378 170.281 C 88.229 170.281 87.883 170.38 87.709 171.043 C 87.538 171.697 87.189 171.806 85.266 171.806 C 84.033 171.806 83.023 171.655 83.023 171.471 Z M 91.383 166.563 C 91.367 166.406 91.133 165.676 90.864 164.942 L 90.374 163.608 L 89.749 165.084 C 88.957 166.955 88.925 166.849 90.268 166.849 C 90.897 166.849 91.399 166.72 91.383 166.563 Z M 102.212 171.249 C 100.976 170.712 100.08 169.618 99.623 168.088 C 99.378 167.265 99.46 167.23 101.681 167.23 C 103.017 167.23 103.994 167.396 103.994 167.624 C 103.994 168.116 105.546 168.718 106.187 168.474 C 107.328 168.04 106.53 167.232 104.356 166.622 C 100.973 165.673 100.181 164.922 100.181 162.661 C 100.181 161.075 100.344 160.679 101.337 159.844 C 102.689 158.706 104.503 158.29 106.921 158.562 C 108.996 158.796 110.456 159.796 111.129 161.445 L 111.623 162.655 L 109.459 162.655 C 107.999 162.655 107.073 162.454 106.612 162.036 C 106.237 161.696 105.666 161.519 105.343 161.643 C 104.389 162.009 104.674 163.003 105.806 163.258 C 110.632 164.344 111.62 165.042 111.62 167.364 C 111.62 170.358 109.713 171.815 105.824 171.791 C 104.503 171.783 102.878 171.539 102.212 171.249 Z M 115.052 165.324 L 115.052 158.842 L 117.244 158.841 L 119.437 158.841 L 119.324 165.323 L 119.212 171.806 L 115.052 171.806 L 115.052 165.324 Z M 123.059 165.324 L 123.059 158.842 L 124.916 158.842 C 126.756 158.842 126.792 158.865 128.634 161.311 C 129.657 162.668 130.59 163.784 130.707 163.789 C 130.824 163.794 131.738 162.683 132.739 161.32 C 134.551 158.852 134.567 158.842 136.435 158.842 L 138.311 158.842 L 138.311 171.806 L 134.117 171.806 L 134.117 169.391 C 134.117 168.063 134.002 166.861 133.862 166.721 C 133.721 166.58 133.197 167.152 132.696 167.992 C 131.466 170.054 129.98 170.126 128.779 168.183 C 128.325 167.449 127.839 166.849 127.699 166.848 C 127.559 166.848 127.502 167.963 127.572 169.327 L 127.7 171.806 L 123.059 171.806 Z M 99.038 152.345 C 98.304 152.221 97.308 151.905 96.825 151.643 C 96.013 151.203 94.467 149.113 94.463 148.451 C 94.461 147.879 98.692 148.147 99.303 148.758 C 100.048 149.502 101.468 149.328 101.631 148.472 C 101.723 147.992 101.333 147.719 100.11 147.41 C 96.948 146.608 95.656 145.851 95.225 144.546 C 94.784 143.209 95.175 141.647 96.247 140.462 C 97.195 139.415 100.444 138.85 102.436 139.387 C 104.212 139.865 106.282 141.599 106.282 142.607 C 106.282 143.421 102.79 143.437 101.556 142.628 C 101.069 142.309 100.389 142.155 100.044 142.287 C 98.91 142.723 99.392 143.552 101.039 144.002 C 104.659 144.99 105.158 145.21 105.895 146.147 C 107.189 147.792 106.733 150.272 104.918 151.461 C 103.723 152.244 100.925 152.665 99.038 152.346 Z M 47.944 145.878 L 47.944 139.395 L 50.136 139.395 L 52.329 139.394 L 52.199 141.682 C 52.128 142.941 52.23 143.971 52.426 143.971 C 52.621 143.971 53.607 142.941 54.616 141.683 L 56.451 139.395 L 61.353 139.395 L 60.177 140.881 C 59.529 141.698 58.486 142.917 57.857 143.59 C 57.228 144.263 56.714 144.864 56.714 144.925 C 56.714 144.986 57.839 146.684 59.214 148.698 L 61.714 152.359 L 59.118 152.359 L 56.523 152.358 L 55.405 150.547 C 54.79 149.552 54.232 148.665 54.164 148.577 C 53.805 148.108 52.138 150.333 52.138 151.282 C 52.138 152.334 52.088 152.36 50.041 152.36 L 47.944 152.36 Z M 65.048 149.976 C 65.63 148.666 66.843 145.749 67.743 143.494 L 69.38 139.395 L 73.695 139.395 L 76.116 145.401 C 77.448 148.704 78.622 151.621 78.724 151.883 C 78.861 152.232 78.299 152.36 76.626 152.36 C 74.663 152.36 74.314 152.253 74.143 151.597 C 73.969 150.933 73.623 150.834 71.474 150.834 C 69.325 150.834 68.978 150.933 68.805 151.597 C 68.633 152.254 68.285 152.36 66.298 152.36 L 63.99 152.36 Z M 72.728 147.542 C 72.728 146.87 71.807 144.352 71.561 144.352 C 71.248 144.352 70.44 146.455 70.44 147.269 C 70.44 147.587 70.878 147.784 71.584 147.784 C 72.213 147.784 72.728 147.675 72.728 147.542 Z M 83.786 150.777 C 83.786 149.568 83.201 148.08 81.307 144.472 C 79.944 141.874 78.829 139.67 78.829 139.572 C 78.829 139.475 79.868 139.395 81.138 139.395 L 83.447 139.395 L 84.474 141.671 C 85.039 142.922 85.591 143.952 85.699 143.958 C 85.808 143.965 86.463 142.942 87.155 141.683 L 88.413 139.395 L 92.974 139.395 L 90.477 144.26 C 88.558 147.997 87.98 149.498 87.98 150.742 L 87.98 152.36 L 83.786 152.36 Z M 110.095 145.878 L 110.095 139.395 L 120.39 139.395 L 120.39 142.827 L 117.34 142.827 C 114.544 142.827 114.289 142.891 114.289 143.59 C 114.289 144.274 114.544 144.352 116.768 144.352 L 119.246 144.352 L 119.246 147.403 L 116.768 147.403 C 114.544 147.403 114.289 147.481 114.289 148.165 C 114.289 148.864 114.544 148.928 117.34 148.928 L 120.39 148.928 L 120.39 152.36 L 110.095 152.36 Z M 123.822 145.878 L 123.822 139.395 L 127.73 139.404 C 131.982 139.412 134.435 140.139 135.23 141.625 C 136.042 143.143 135.457 147.402 134.437 147.402 C 133.845 147.402 134.11 148.139 135.463 150.255 L 136.809 152.359 L 131.969 152.359 L 131.112 150.834 C 130.416 149.596 130.045 149.309 129.136 149.309 C 128.084 149.309 128.016 149.401 128.016 150.834 L 128.016 152.359 L 123.822 152.359 Z M 130.845 145.265 C 131.176 145.138 131.448 144.641 131.448 144.162 C 131.448 143.197 130.805 142.827 129.129 142.827 C 128.111 142.827 128.016 142.941 128.016 144.162 C 128.016 145.382 128.111 145.496 129.129 145.496 C 129.741 145.496 130.513 145.392 130.845 145.265 Z M 139.646 145.878 L 139.646 139.395 L 141.743 139.395 L 143.84 139.395 L 143.727 145.877 L 143.614 152.36 L 139.646 152.36 L 139.646 145.878 Z M 140.294 137.413 C 140.042 137.161 139.836 136.471 139.836 135.878 C 139.836 134.43 141.412 133.753 142.748 134.628 C 144.388 135.703 143.716 137.87 141.743 137.87 C 141.198 137.87 140.546 137.664 140.294 137.413 Z M 130.187 127.608 C 129.178 127.202 127.76 126.417 127.036 125.865 C 126.311 125.312 116.603 114.618 105.462 102.1 C 82.755 76.586 83.499 77.404 83.233 77.669 C 83.127 77.776 79.848 86.518 75.947 97.095 C 72.046 107.673 68.536 116.842 68.146 117.471 C 63.731 124.6 53.455 125.624 47.732 119.506 C 45.053 116.642 44.321 114.717 44.348 110.608 L 44.37 107.176 L 55.515 77.059 C 61.645 60.495 67.078 46.229 67.589 45.356 C 71.216 39.168 80.927 37.547 86.556 42.19 C 87.928 43.322 98.797 55.376 114.439 73.113 C 118.446 77.657 121.849 81.389 122.001 81.406 C 122.153 81.424 122.325 68.784 122.382 53.318 L 122.487 25.197 L 123.547 23.039 C 124.822 20.444 126.981 18.405 129.877 17.061 C 132.932 15.644 137.213 15.646 140.274 17.066 C 143.01 18.336 145.354 20.676 146.643 23.425 L 147.653 25.578 L 147.653 118.631 L 146.398 121.181 C 145.023 123.972 143.089 125.884 140.269 127.236 C 137.75 128.445 132.723 128.63 130.187 127.608 Z"
        fill="#000000"
        stroke-width="12"/>
</svg>
