<svg xmlns="http://www.w3.org/2000/svg" viewBox="0 0 192 192"><path d="M103.232 174.475c.734-1.438.876-1.525 2.494-1.525h1.716l-.779 1.525c-.733 1.438-.876 1.525-2.493 1.525h-1.716Zm-46.886-3.371c-2.121-1.138-2.804-2.949-2.995-7.947l-.165-4.315h4.671v3.728c0 4.135.499 5.423 2.098 5.423 1.599 0 2.097-1.288 2.097-5.423v-3.728h4.684l-.21 4.378c-.245 5.093-.884 6.807-2.943 7.888-1.79.94-5.481.938-7.237-.005Zm13.713-5.78v-6.482h4.194v9.151h6.101v3.813H70.059Zm12.964 6.147c0-.317.605-1.88 1.714-4.431.274-.63 1.143-2.739 1.931-4.688l1.434-3.544 2.311.112 2.31.112 2.117 5.338c1.163 2.936 2.214 5.51 2.335 5.72.904 1.569.765 1.716-1.617 1.716-1.991 0-2.339-.106-2.511-.763-.173-.663-.52-.762-2.669-.762s-2.495.099-2.669.762c-.171.654-.52.763-2.443.763-1.233 0-2.243-.151-2.243-.335Zm8.36-4.908c-.016-.157-.25-.887-.519-1.621l-.49-1.334-.625 1.476c-.792 1.871-.824 1.765.519 1.765.629 0 1.131-.129 1.115-.286Zm10.829 4.686c-1.236-.537-2.132-1.631-2.589-3.161-.245-.823-.163-.858 2.058-.858 1.336 0 2.313.166 2.313.394 0 .492 1.552 1.094 2.193.85 1.141-.434.343-1.242-1.831-1.852-3.383-.949-4.175-1.7-4.175-3.961 0-1.586.163-1.982 1.156-2.817 1.352-1.138 3.166-1.554 5.584-1.282 2.075.234 3.535 1.234 4.208 2.883l.494 1.21h-2.164c-1.46 0-2.386-.201-2.847-.619-.375-.34-.946-.517-1.269-.393-.954.366-.669 1.36.463 1.615 4.826 1.086 5.814 1.784 5.814 4.106 0 2.994-1.907 4.451-5.796 4.427-1.321-.008-2.946-.252-3.612-.542Zm12.84-5.925v-6.482l2.192-.001h2.193l-.113 6.482-.112 6.483h-4.16v-6.482Zm8.007 0v-6.482h1.857c1.84 0 1.876.023 3.718 2.469 1.023 1.357 1.956 2.473 2.073 2.478.117.005 1.031-1.106 2.032-2.469 1.812-2.468 1.828-2.478 3.696-2.478h1.876v12.964h-4.194v-2.415c0-1.328-.115-2.53-.255-2.67-.141-.141-.665.431-1.166 1.271-1.23 2.062-2.716 2.134-3.917.191-.454-.734-.94-1.334-1.08-1.335-.14 0-.197 1.115-.127 2.479l.128 2.479h-4.641Zm-24.021-12.979c-.734-.124-1.73-.44-2.213-.702-.812-.44-2.358-2.53-2.362-3.192-.002-.572 4.229-.304 4.84.307.745.744 2.165.57 2.328-.286.092-.48-.298-.753-1.521-1.062-3.162-.802-4.454-1.559-4.885-2.864-.441-1.337-.05-2.899 1.022-4.084.948-1.047 4.197-1.612 6.189-1.075 1.776.478 3.846 2.212 3.846 3.22 0 .814-3.492.83-4.726.021-.487-.319-1.167-.473-1.512-.341-1.134.436-.652 1.265.995 1.715 3.62.988 4.119 1.208 4.856 2.145 1.294 1.645.838 4.125-.977 5.314-1.195.783-3.993 1.204-5.88.885Zm-51.094-6.467v-6.483h2.192l2.193-.001-.13 2.288c-.071 1.259.031 2.289.227 2.289.195 0 1.181-1.03 2.19-2.288l1.835-2.288h4.902l-1.176 1.486a53.495 53.495 0 0 1-2.32 2.709c-.629.673-1.143 1.274-1.143 1.335 0 .061 1.125 1.759 2.5 3.773l2.5 3.661h-2.596l-2.595-.001-1.118-1.811c-.615-.995-1.173-1.882-1.241-1.97-.359-.469-2.026 1.756-2.026 2.705 0 1.052-.05 1.078-2.097 1.078h-2.097Zm17.104 4.098c.582-1.31 1.795-4.227 2.695-6.482l1.637-4.099h4.315l2.421 6.006c1.332 3.303 2.506 6.22 2.608 6.482.137.349-.425.477-2.098.477-1.963 0-2.312-.107-2.483-.763-.174-.664-.52-.763-2.669-.763s-2.496.099-2.669.763c-.172.657-.52.763-2.507.763H63.99Zm7.68-2.434c0-.672-.921-3.19-1.167-3.19-.313 0-1.121 2.103-1.121 2.917 0 .318.438.515 1.144.515.629 0 1.144-.109 1.144-.242Zm11.058 3.235c0-1.209-.585-2.697-2.479-6.305-1.363-2.598-2.478-4.802-2.478-4.9 0-.097 1.039-.177 2.309-.177h2.309l1.027 2.276c.565 1.251 1.117 2.281 1.225 2.287.109.007.764-1.016 1.456-2.275l1.258-2.288h4.561l-2.497 4.865c-1.919 3.737-2.497 5.238-2.497 6.482v1.618h-4.194Zm26.309-4.899v-6.483h10.295v3.432h-3.05c-2.796 0-3.051.064-3.051.763 0 .684.255.762 2.479.762h2.478v3.051h-2.478c-2.224 0-2.479.078-2.479.762 0 .699.255.763 3.051.763h3.05v3.432h-10.295Zm13.727 0v-6.483l3.908.009c4.252.008 6.705.735 7.5 2.221.812 1.518.227 5.777-.793 5.777-.592 0-.327.737 1.026 2.853l1.346 2.104h-4.84l-.857-1.525c-.696-1.238-1.067-1.525-1.976-1.525-1.052 0-1.12.092-1.12 1.525v1.525h-4.194Zm7.023-.613c.331-.127.603-.624.603-1.103 0-.965-.643-1.335-2.319-1.335-1.018 0-1.113.114-1.113 1.335 0 1.22.095 1.334 1.113 1.334.612 0 1.384-.104 1.716-.231Zm8.801.613v-6.483h4.194l-.113 6.482-.113 6.483h-3.968v-6.482Zm.648-8.465c-.252-.252-.458-.942-.458-1.535 0-1.448 1.576-2.125 2.912-1.25 1.64 1.075.968 3.242-1.005 3.242-.545 0-1.197-.206-1.449-.457Zm-10.107-9.805c-1.009-.406-2.427-1.191-3.151-1.743-.725-.553-10.433-11.247-21.574-23.765-22.707-25.514-21.963-24.696-22.229-24.431-.106.107-3.385 8.849-7.286 19.426-3.901 10.578-7.411 19.747-7.801 20.376-4.415 7.129-14.691 8.153-20.414 2.035-2.679-2.864-3.411-4.789-3.384-8.898l.022-3.432 11.145-30.117c6.13-16.564 11.563-30.83 12.074-31.703 3.627-6.188 13.338-7.809 18.967-3.166 1.372 1.132 12.241 13.186 27.883 30.923 4.007 4.544 7.41 8.276 7.562 8.293.152.018.324-12.622.381-28.088l.105-28.121 1.06-2.158c1.275-2.595 3.434-4.634 6.33-5.978 3.055-1.417 7.336-1.415 10.397.005 2.736 1.27 5.08 3.61 6.369 6.359l1.01 2.153v93.053l-1.255 2.55c-1.375 2.791-3.309 4.703-6.129 6.055-2.519 1.209-7.546 1.394-10.082.372Z"/></svg>