<svg
    xmlns="http://www.w3.org/2000/svg"
    viewBox="0 0 192 192"
    id="vector">
    <g id="group">
        <path
            id="path_6"
            d="M 59.252 152.187 C 39.872 132.542 35.016 126.804 31.509 119.401 C 21.392 98.043 21.908 73.358 32.907 52.578 C 41.197 36.916 59.252 22.212 76.417 17.144 C 84.944 14.626 86.327 16.502 87.273 31.867 C 88.221 47.255 87.01 50.532 78.933 54.442 C 60.492 63.369 52.718 87.112 62.027 106.071 C 64.946 112.016 68.159 115.824 74.238 120.545 C 85.567 129.342 86.678 131.992 87.457 152.06 C 88.151 169.924 87.407 176 84.529 176 C 83.547 176 72.173 165.284 59.252 152.187 Z M 105.149 173.816 C 104.688 172.615 104.311 169.396 104.311 166.663 C 104.311 162.118 106.024 159.956 124.325 141.399 C 140.872 124.62 145.116 119.463 148.828 111.625 C 153.063 102.684 153.315 101.282 153.268 86.96 C 153.221 72.715 152.942 71.21 148.768 62.642 C 141.291 47.291 123.924 33.002 109.488 30.324 C 104.979 29.488 104.311 28.869 104.311 25.529 C 104.311 23.42 105.473 20.26 106.892 18.508 C 109.34 15.485 109.782 15.414 115.52 17.131 C 140.504 24.608 161.885 47.78 166.434 72.309 C 169.521 88.959 166.981 107.952 159.874 121.352 C 155.983 128.69 110.771 176 107.65 176 C 106.736 176 105.61 175.017 105.149 173.816 Z M 104.793 143.852 C 105.79 132.246 108.249 127.977 118.542 119.984 C 141.439 102.202 138.508 66.73 113.124 54.442 C 106.417 51.195 104.311 47.722 104.311 39.909 C 104.311 35.417 104.531 35.191 108.108 36.009 C 122.442 39.29 136.472 50.711 143.655 64.948 C 147.434 72.439 147.796 74.363 147.796 86.989 C 147.796 107.04 144.441 113.282 121.465 135.967 L 103.989 153.222 Z M 86.987 109.253 C 74.088 103.4 69.983 85.925 78.992 75.217 C 89.22 63.062 105.819 64.29 114.977 77.879 C 121.184 87.09 118.231 99.966 108.211 107.388 C 103.55 110.84 92.604 111.802 86.987 109.253 Z"
            fill="#000000"
            stroke-width="12"/>
    </g>
</svg>
