<svg xmlns="http://www.w3.org/2000/svg" viewBox="0 0 192 192"><path d="M49.438 81.293c0-3.073 1.014-6.057 2.876-8.459 1.861-2.402 4.461-4.082 7.371-4.763a12.823 12.823 0 0 1 8.646 1.014c2.686 1.337 4.853 3.576 6.143 6.348a13.926 13.926 0 0 1 .956 8.908c-.671 2.994-2.31 5.667-4.648 7.576a12.925 12.925 0 0 1-8.223 2.935c-3.482-.012-6.822-1.446-9.281-3.987-2.458-2.541-3.841-5.985-3.84-9.572Zm79.932 13.559c-3.491 0-6.841-1.43-9.309-3.971-2.468-2.542-3.856-5.993-3.856-9.588 0-3.595 1.388-7.046 3.856-9.588 2.468-2.542 5.818-3.971 9.309-3.971 3.49 0 6.841 1.429 9.309 3.971 2.468 2.542 3.855 5.993 3.855 9.588 0 2.38-.608 4.718-1.763 6.779a13.37 13.37 0 0 1-4.819 4.963 12.873 12.873 0 0 1-6.582 1.817Zm-33.405 29.724a10.98 10.98 0 0 1 6.555 2.141 11.513 11.513 0 0 1 4.102 5.685c.754 2.291.789 4.77.1 7.082a11.533 11.533 0 0 1-3.939 5.806l5.317 19.036H83.786l5.275-19.036a11.586 11.586 0 0 1-3.879-5.832 11.904 11.904 0 0 1 .139-7.067 11.554 11.554 0 0 1 4.105-5.666 11.012 11.012 0 0 1 6.539-2.149Z" fill="none" stroke="#000" stroke-width="8" stroke-linecap="round" stroke-linejoin="round"/><path d="M16.676 115.036v51.631a8.77 8.77 0 0 0 1.027 4.396 8.466 8.466 0 0 0 3.056 3.246 8.14 8.14 0 0 0 4.236 1.191h141.939a8.456 8.456 0 0 0 6.065-2.587 8.971 8.971 0 0 0 2.512-6.246v-51.631m-15.223-64.439 11.063-11.306c2.419-2.501 3.777-5.892 3.772-9.422-.005-3.53-1.372-6.917-3.799-9.41-2.426-2.493-5.718-3.893-9.145-3.89-3.427.003-6.716 1.409-9.138 3.907l-10.935 11.483c-13.427-9.971-29.567-15.338-46.12-15.338-16.553 0-32.693 5.367-46.12 15.338l-11.02-11.351c-2.495-2.543-5.84-4.012-9.349-4.107a12.594 12.594 0 0 0-7.228 2.206 13.167 13.167 0 0 0-4.787 5.999 13.616 13.616 0 0 0-.701 7.732 13.367 13.367 0 0 0 3.625 6.808l11.235 11.307c-9.709 13.888-14.918 30.586-14.88 47.7v16.783h158.664V98.253c-.092-17.121-5.387-33.79-15.137-47.656ZM75.081 81.514a13.191 13.191 0 0 1-2.718 8.083 12.534 12.534 0 0 1-7.021 4.57 12.23 12.23 0 0 1-8.255-.939c-2.568-1.267-4.643-3.397-5.883-6.038a13.298 13.298 0 0 1-.94-8.499 12.998 12.998 0 0 1 4.414-7.247 12.34 12.34 0 0 1 7.839-2.827c3.316-.012 6.505 1.329 8.866 3.728 2.361 2.398 3.707 5.665 3.741 9.08Zm54.246 12.896c-3.32 0-6.507-1.359-8.854-3.777-2.348-2.418-3.668-5.7-3.668-9.119 0-3.419 1.32-6.702 3.668-9.12 2.347-2.417 5.534-3.777 8.854-3.777 3.319 0 6.507 1.36 8.854 3.777 2.347 2.418 3.667 5.701 3.667 9.12-.022 3.396-1.346 6.649-3.682 9.046-2.336 2.398-5.499 3.75-8.796 3.762ZM16.676 144.451h59.048m40.481 0h59.091" fill="none" stroke="#000" stroke-width="12" stroke-linecap="round" stroke-linejoin="round"/></svg>