<svg
    xmlns="http://www.w3.org/2000/svg"
    viewBox="0 0 192 192"
    id="vector">
    <path
        id="path"
        d="M 60.657 37.67 C 62.981 37.306 65.355 37.407 67.641 37.966 C 68.151 40.272 68.049 42.671 67.345 44.925 C 65.037 45.5 62.612 45.397 60.361 44.628 C 59.916 42.318 60.017 39.935 60.657 37.67 Z M 69.821 52.845 C 64.056 53.289 54.375 52.438 53.229 50.994 C 51.751 48.663 52.379 31.564 54.116 30.379 C 55.853 29.195 72.999 29.824 74.698 31.304 C 75.636 33.819 75.965 36.521 75.659 39.188 M 97.83 73.571 L 116.676 96.888 C 120.112 101.774 112.131 107.992 107.77 102.736 L 104.075 105.956 C 99.235 109.398 98.089 106.844 95.872 103.92 C 93.655 100.996 90.181 98.517 94.505 95.26 C 93.064 94.853 88.075 91.855 92.916 85.859 L 87.927 78.753 C 84.971 73.423 94.098 68.834 97.978 73.423 Z M 102.967 78.753 C 115.272 68.501 121.221 40.483 86.264 38.485 C 81.35 37.855 87.151 25.235 87.373 23.458 C 52.786 64.17 76.103 79.382 89.96 82.121 M 120.445 151.406 C 120.444 152.798 119.968 154.149 119.097 155.233 C 118.225 156.317 117.009 157.071 115.651 157.368 C 114.293 157.666 112.874 157.49 111.63 156.869 C 110.386 156.249 109.39 155.22 108.809 153.956 C 108.228 152.691 108.096 151.265 108.435 149.915 C 108.773 148.564 109.563 147.37 110.672 146.531 C 111.781 145.691 113.143 145.257 114.533 145.299 C 116.143 145.309 117.685 145.957 118.82 147.1 C 119.955 148.244 120.593 149.793 120.593 151.406 Z M 83.752 151.406 C 83.752 152.789 83.283 154.132 82.422 155.213 C 81.56 156.295 80.358 157.052 79.011 157.359 C 77.665 157.667 76.253 157.508 75.009 156.908 C 73.765 156.308 72.761 155.301 72.161 154.055 C 71.562 152.809 71.403 151.395 71.71 150.047 C 72.018 148.698 72.773 147.493 73.853 146.631 C 74.933 145.769 76.274 145.299 77.655 145.299 C 78.741 145.272 79.816 145.538 80.766 146.067 C 81.716 146.596 82.507 147.37 83.058 148.309 C 83.609 149.247 83.9 150.317 83.899 151.406 Z M 75.327 74.348 C 53.451 80.825 24.296 101.219 26.883 156.661 C 48.5 134.047 70.634 99.109 71.631 98.48 C 54.116 132.382 50.088 141.783 49.756 145.003 C 92.657 94.26 162.053 163.508 148.011 99.923 M 34.827 148.741 C 35.673 152.286 36.912 155.725 38.522 158.993 C 39.946 162.3 41.665 165.471 43.659 168.468 M 148.787 168.468 C 149.563 167.209 150.339 165.951 151.041 164.767 C 157.308 153.317 159.845 140.187 158.296 127.223 C 156.748 114.258 151.189 102.098 142.402 92.453 C 133.616 82.808 122.033 76.152 109.285 73.423 M 148.676 168.542 C 156.836 161.174 163.42 152.226 168.031 142.24 C 172.641 132.253 175.184 121.433 175.503 110.434 C 175.523 96.452 171.864 82.709 164.898 70.593 C 157.931 58.476 147.899 48.409 135.815 41.409 C 123.731 34.409 110.016 30.719 96.057 30.712 C 92.671 30.709 89.288 30.932 85.932 31.379 M 80.352 32.267 C 78.874 32.563 77.433 32.896 75.992 33.266 M 52.379 43.814 C 35.805 54.715 23.885 71.44 18.978 90.682 C 14.071 109.924 16.522 130.326 25.848 147.853"
        fill="none"
        stroke="#000000"
        stroke-width="8"
        stroke-linecap="round"
        stroke-linejoin="round"/>
</svg>
