<svg xmlns="http://www.w3.org/2000/svg" viewBox="0 0 192 192"><path fill="none" stroke="#000" stroke-linecap="round" stroke-linejoin="round" stroke-width="8" d="M60.657 37.67a17.805 17.805 0 0 1 6.984.296c.51 2.306.408 4.705-.296 6.959a12.36 12.36 0 0 1-6.984-.297 15.091 15.091 0 0 1 .296-6.958Zm9.164 15.175c-5.765.444-15.446-.407-16.592-1.851-1.478-2.331-.85-19.43.887-20.615 1.737-1.184 18.883-.555 20.582.925a17.013 17.013 0 0 1 .961 7.884M97.83 73.571l18.846 23.317c3.436 4.886-4.545 11.104-8.906 5.848l-3.695 3.22c-4.84 3.442-5.986.888-8.203-2.036-2.217-2.924-5.691-5.403-1.367-8.66-1.441-.407-6.43-3.405-1.589-9.401l-4.989-7.106c-2.956-5.33 6.171-9.919 10.051-5.33Zm5.137 5.182c12.305-10.252 18.254-38.27-16.703-40.268-4.914-.63.887-13.25 1.109-15.027-34.587 40.712-11.27 55.924 2.587 58.663m30.485 69.285a6.12 6.12 0 0 1-1.348 3.827 6.095 6.095 0 0 1-7.467 1.636 6.104 6.104 0 0 1-3.195-6.954 6.1 6.1 0 0 1 6.098-4.616c1.61.01 3.152.658 4.287 1.801a6.116 6.116 0 0 1 1.773 4.306Zm-36.693 0a6.112 6.112 0 0 1-1.33 3.807 6.093 6.093 0 0 1-10.261-1.158 6.118 6.118 0 0 1 1.692-7.424 6.096 6.096 0 0 1 3.802-1.332 6.087 6.087 0 0 1 5.403 3.01c.551.938.842 2.008.841 3.097Zm-8.425-77.058c-21.876 6.477-51.031 26.871-48.444 82.313C48.5 134.047 70.634 99.109 71.631 98.48c-17.515 33.902-21.543 43.303-21.875 46.523 42.901-50.743 112.297 18.505 98.255-45.08M34.827 148.741a48.863 48.863 0 0 0 3.695 10.252 59.8 59.8 0 0 0 5.137 9.475m105.128 0c.776-1.259 1.552-2.517 2.254-3.701a62.713 62.713 0 0 0 7.255-37.544 62.667 62.667 0 0 0-15.894-34.77 62.506 62.506 0 0 0-33.117-19.03m39.391 95.119a81.43 81.43 0 0 0 19.355-26.302 81.534 81.534 0 0 0 7.472-31.806 79.712 79.712 0 0 0-10.605-39.841 79.55 79.55 0 0 0-29.083-29.184 79.402 79.402 0 0 0-39.758-10.697 76.183 76.183 0 0 0-10.125.667m-5.58.888a82.97 82.97 0 0 0-4.36.999M52.379 43.814a79.672 79.672 0 0 0-33.401 46.868 79.784 79.784 0 0 0 6.87 57.171"/></svg>