<svg
    xmlns="http://www.w3.org/2000/svg"
    viewBox="0 0 192 192"
    id="vector">
    <path
        id="path"
        d="M 147.666 170.821 C 147.398 170.346 147.664 169.37 148.257 168.653 C 149.266 167.433 149.015 167.265 144.412 166.083 C 135.814 163.874 124.301 155.249 120.745 148.352 C 119.753 146.428 118.171 143.524 117.23 141.9 C 115.837 139.496 115.666 138.689 116.311 137.557 C 117.187 136.023 116.543 134.046 114.28 131.313 C 112.921 129.673 101.265 106.536 101.265 105.478 C 101.265 104.245 108.487 97.397 110.887 96.356 C 115.846 94.204 118.836 91.367 119.768 87.931 C 120.253 86.14 122.593 81.799 124.967 78.282 C 129.271 71.906 133.567 64.631 133.567 63.719 C 133.567 63.454 131.624 63.238 129.248 63.238 L 124.929 63.238 L 117.392 73.05 C 110.788 81.65 109.874 83.176 110 85.394 C 110.12 87.507 109.659 88.414 107.208 90.888 C 103.488 94.641 98.847 97.622 93.284 99.832 L 88.919 101.566 L 86.501 100.005 C 83.892 98.32 83.763 98.048 84.763 96.335 C 85.234 95.528 85.066 94.886 84.172 94.079 C 81.061 91.27 74.865 81.615 72.046 75.183 C 70.345 71.302 68.597 67.581 68.161 66.913 C 67.139 65.346 67.883 63.237 69.457 63.241 C 70.13 63.242 72.203 64.089 74.062 65.121 C 75.922 66.154 77.789 66.999 78.212 66.999 C 79.29 66.999 84.083 60.572 84.083 59.127 C 84.083 58.471 84.861 57.611 85.812 57.216 C 87.375 56.565 87.498 56.212 87.105 53.518 C 86.765 51.192 87.001 49.953 88.182 47.862 C 89.013 46.389 90.225 45.185 90.874 45.185 C 92.084 45.185 93.705 41.49 93.705 38.731 C 93.705 36.811 90.557 30.258 88.494 27.884 C 87.595 26.849 86.142 25.032 85.264 23.845 C 84.028 22.171 82.596 21.425 78.893 20.523 C 71.225 18.655 66.827 18.919 63.823 21.427 C 56.453 27.579 54.53 32.053 54.53 43.048 C 54.53 49.239 54.667 49.916 56.276 51.677 C 57.537 53.057 57.895 54.04 57.566 55.216 C 56.75 58.136 55.89 58.74 53.215 58.272 C 51.001 57.884 50.591 58.059 49.915 59.683 C 49.49 60.703 47.246 63.359 44.928 65.585 C 42.61 67.81 39.231 72.17 37.419 75.273 C 30.042 87.904 28.465 98.687 30.819 120.406 C 31.379 125.578 31.841 131.755 31.844 134.134 L 31.85 138.459 L 34.63 138.459 C 37.397 138.459 37.408 138.471 36.99 140.914 C 36.646 142.919 36.892 143.7 38.333 145.182 C 39.303 146.18 40.097 147.438 40.097 147.979 C 40.097 149.051 39.782 149.152 31.085 150.852 C 27.83 151.488 23.654 152.511 21.807 153.124 C 17.832 154.444 16.043 154.55 16.043 153.465 C 16.043 152.173 20.303 150.606 28.555 148.863 C 32.824 147.96 36.447 147.111 36.606 146.975 C 36.765 146.839 36.27 145.968 35.506 145.038 C 34.742 144.109 33.934 142.781 33.711 142.087 C 33.488 141.393 32.437 140.716 31.375 140.582 C 29.562 140.355 29.45 140.133 29.532 136.955 C 29.581 135.093 29.194 129.101 28.673 123.639 C 27.234 108.543 27.417 96.088 29.183 89.01 C 31.579 79.404 37.039 69.42 42.806 64.099 C 44.759 62.298 47.132 59.479 48.08 57.835 C 49.731 54.973 49.918 54.868 52.511 55.347 C 55.61 55.92 55.74 55.676 53.832 52.851 C 50.952 48.588 51.393 35.366 54.648 28.382 C 56.291 24.859 60.768 20.097 64.404 18.007 C 67.489 16.235 72.337 16.342 80.303 18.361 C 84.167 19.34 85.487 20.064 87.009 22.039 C 88.052 23.392 89.678 25.446 90.623 26.604 C 93.482 30.107 95.77 35.803 95.734 39.33 C 95.69 43.608 93.831 47.636 91.643 48.194 C 90.049 48.601 89.91 48.995 89.722 53.673 C 89.537 58.26 89.373 58.753 87.891 59.16 C 86.996 59.406 86.091 60.339 85.88 61.234 C 85.669 62.129 84.286 64.3 82.807 66.059 C 79.841 69.585 78.113 70.003 74.096 68.166 C 72.785 67.566 71.712 67.262 71.712 67.491 C 71.712 67.719 72.941 70.776 74.443 74.285 C 77.077 80.436 82.59 89.078 85.87 92.198 C 86.74 93.026 87.544 94.718 87.657 95.959 C 87.84 97.96 88.097 98.197 89.925 98.049 C 92.763 97.819 100.997 93.247 104.512 89.949 C 107.009 87.605 107.303 87.03 106.618 85.829 C 105.664 84.157 106.436 82.931 116.691 69.828 L 123.602 60.997 L 129.918 60.989 C 133.395 60.984 136.426 61.319 136.66 61.733 C 137.318 62.899 133.303 70.548 127.938 78.351 C 125.262 82.243 122.607 86.951 122.039 88.813 C 120.639 93.403 119.737 94.375 114 97.477 C 111.28 98.948 107.888 101.459 106.462 103.058 L 103.869 105.965 L 109.202 116.758 C 112.135 122.695 115.223 128.398 116.064 129.433 C 118.362 132.262 119.194 134.425 119.027 137.14 C 118.832 140.317 123.058 148.691 126.65 152.242 C 132.767 158.291 142.774 163.983 147.347 164.017 C 150.041 164.037 151.436 165.124 151.436 167.203 C 151.436 168.373 151.85 168.505 154.357 168.134 C 161.155 167.128 167.159 165.366 170.961 163.261 C 173.194 162.025 175.165 161.17 175.341 161.363 C 176.954 163.128 168.822 167.902 161.326 169.591 C 153.681 171.314 148.222 171.806 147.666 170.821 Z M 111.231 165.021 C 110.475 164.831 103.825 162.68 96.454 160.24 C 84.469 156.272 75.833 153.891 68.104 152.421 C 66.686 152.152 65.527 151.497 65.527 150.966 C 65.527 149.193 90.52 129.433 92.763 129.433 C 93.262 129.433 94.11 130.364 94.648 131.503 C 95.186 132.642 96.319 134.25 97.165 135.076 C 98.011 135.903 99.542 138.61 100.566 141.092 C 102.836 146.594 104.078 147.904 105.974 146.794 C 107.145 146.108 107.712 146.492 110.054 149.562 C 115.306 156.449 116.365 159.352 115.265 163.847 C 114.86 165.498 114.064 165.73 111.231 165.021 Z M 112.949 160.08 C 112.949 158.29 112.117 156.52 109.858 153.506 C 107.253 150.031 106.458 149.418 104.8 149.608 C 102.448 149.878 99.797 146.868 98.477 142.428 C 98.012 140.866 96.826 138.54 95.84 137.259 C 94.855 135.978 93.716 134.304 93.309 133.538 C 92.606 132.212 92.415 132.245 89.348 134.212 C 87.576 135.348 82.366 139.392 77.769 143.198 L 69.412 150.119 L 72.452 150.775 C 78.725 152.129 91.631 155.859 101.265 159.103 C 106.746 160.948 111.617 162.474 112.09 162.494 C 112.608 162.516 112.949 161.558 112.949 160.08 Z M 66.214 113.021 C 66.214 108.751 68.12 102.353 69.392 102.353 C 69.977 102.353 71.403 103.526 72.563 104.959 C 73.722 106.393 74.936 107.386 75.26 107.167 C 76.321 106.449 78.668 107.721 78.452 108.897 C 78.173 110.418 69.842 115.893 67.807 115.893 C 66.419 115.893 66.214 115.523 66.214 113.021 Z M 72.852 110.493 C 73.426 109.997 73.16 109.271 71.9 107.892 C 69.863 105.663 68.991 106.43 68.974 110.466 C 68.964 112.788 69.056 112.884 70.509 112.058 C 71.36 111.575 72.414 110.871 72.852 110.493 Z"
        fill="#000000"
        stroke="#000000"
        stroke-width="8"/>
</svg>
