<svg xmlns="http://www.w3.org/2000/svg" viewBox="0 0 192 192"><path d="M147.666 170.821c-.268-.475-.002-1.451.591-2.168 1.009-1.22.758-1.388-3.845-2.57-8.598-2.209-20.111-10.834-23.667-17.731a182.11 182.11 0 0 0-3.515-6.452c-1.393-2.404-1.564-3.211-.919-4.343.876-1.534.232-3.511-2.031-6.244-1.359-1.64-13.015-24.777-13.015-25.835 0-1.233 7.222-8.081 9.622-9.122 4.959-2.152 7.949-4.989 8.881-8.425.485-1.791 2.825-6.132 5.199-9.649 4.304-6.376 8.6-13.651 8.6-14.563 0-.265-1.943-.481-4.319-.481h-4.319l-7.537 9.812c-6.604 8.6-7.518 10.126-7.392 12.344.12 2.113-.341 3.02-2.792 5.494-3.72 3.753-8.361 6.734-13.924 8.944l-4.365 1.734-2.418-1.561c-2.609-1.685-2.738-1.957-1.738-3.67.471-.807.303-1.449-.591-2.256-3.111-2.809-9.307-12.464-12.126-18.896-1.701-3.881-3.449-7.602-3.885-8.27-1.022-1.567-.278-3.676 1.296-3.672.673.001 2.746.848 4.605 1.88 1.86 1.033 3.727 1.878 4.15 1.878 1.078 0 5.871-6.427 5.871-7.872 0-.656.778-1.516 1.729-1.911 1.563-.651 1.686-1.004 1.293-3.698-.34-2.326-.104-3.565 1.077-5.656.831-1.473 2.043-2.677 2.692-2.677 1.21 0 2.831-3.695 2.831-6.454 0-1.92-3.148-8.473-5.211-10.847a80.082 80.082 0 0 1-3.23-4.039c-1.236-1.674-2.668-2.42-6.371-3.322-7.668-1.868-12.066-1.604-15.07.904-7.37 6.152-9.293 10.626-9.293 21.621 0 6.191.137 6.868 1.746 8.629 1.261 1.38 1.619 2.363 1.29 3.539-.816 2.92-1.676 3.524-4.351 3.056-2.214-.388-2.624-.213-3.3 1.411-.425 1.02-2.669 3.676-4.987 5.902-2.318 2.225-5.697 6.585-7.509 9.688-7.377 12.631-8.954 23.414-6.6 45.133.56 5.172 1.022 11.349 1.025 13.728l.006 4.325h2.78c2.767 0 2.778.012 2.36 2.455-.344 2.005-.098 2.786 1.343 4.268.97.998 1.764 2.256 1.764 2.797 0 1.072-.315 1.173-9.012 2.873-3.255.636-7.431 1.659-9.278 2.272-3.975 1.32-5.764 1.426-5.764.341 0-1.292 4.26-2.859 12.512-4.602 4.269-.903 7.892-1.752 8.051-1.888.159-.136-.336-1.007-1.1-1.937-.764-.929-1.572-2.257-1.795-2.951-.223-.694-1.274-1.371-2.336-1.505-1.813-.227-1.925-.449-1.843-3.627.049-1.862-.338-7.854-.859-13.316-1.439-15.096-1.256-27.551.51-34.629 2.396-9.606 7.856-19.59 13.623-24.911 1.953-1.801 4.326-4.62 5.274-6.264 1.651-2.862 1.838-2.967 4.431-2.488 3.099.573 3.229.329 1.321-2.496-2.88-4.263-2.439-17.485.816-24.469 1.643-3.523 6.12-8.285 9.756-10.375 3.085-1.772 7.933-1.665 15.899.354 3.864.979 5.184 1.703 6.706 3.678a255.462 255.462 0 0 0 3.614 4.565c2.859 3.503 5.147 9.199 5.111 12.726-.044 4.278-1.903 8.306-4.091 8.864-1.594.407-1.733.801-1.921 5.479-.185 4.587-.349 5.08-1.831 5.487-.895.246-1.8 1.179-2.011 2.074-.211.895-1.594 3.066-3.073 4.825-2.966 3.526-4.694 3.944-8.711 2.107-1.311-.6-2.384-.904-2.384-.675 0 .228 1.229 3.285 2.731 6.794 2.634 6.151 8.147 14.793 11.427 17.913.87.828 1.674 2.52 1.787 3.761.183 2.001.44 2.238 2.268 2.09 2.838-.23 11.072-4.802 14.587-8.1 2.497-2.344 2.791-2.919 2.106-4.12-.954-1.672-.182-2.898 10.073-16.001l6.911-8.831 6.316-.008c3.477-.005 6.508.33 6.742.744.658 1.166-3.357 8.815-8.722 16.618-2.676 3.892-5.331 8.6-5.899 10.462-1.4 4.59-2.302 5.562-8.039 8.664-2.72 1.471-6.112 3.982-7.538 5.581l-2.593 2.907 5.333 10.793c2.933 5.937 6.021 11.64 6.862 12.675 2.298 2.829 3.13 4.992 2.963 7.707-.195 3.177 4.031 11.551 7.623 15.102 6.117 6.049 16.124 11.741 20.697 11.775 2.694.02 4.089 1.107 4.089 3.186 0 1.17.414 1.302 2.921.931 6.798-1.006 12.802-2.768 16.604-4.873 2.233-1.236 4.204-2.091 4.38-1.898 1.613 1.765-6.519 6.539-14.015 8.228-7.645 1.723-13.104 2.215-13.66 1.23Zm-36.435-5.8c-.756-.19-7.406-2.341-14.777-4.781-11.985-3.968-20.621-6.349-28.35-7.819-1.418-.269-2.577-.924-2.577-1.455 0-1.773 24.993-21.533 27.236-21.533.499 0 1.347.931 1.885 2.07.538 1.139 1.671 2.747 2.517 3.573.846.827 2.377 3.534 3.401 6.016 2.27 5.502 3.512 6.812 5.408 5.702 1.171-.686 1.738-.302 4.08 2.768 5.252 6.887 6.311 9.79 5.211 14.285-.405 1.651-1.201 1.883-4.034 1.174Zm1.718-4.941c0-1.79-.832-3.56-3.091-6.574-2.605-3.475-3.4-4.088-5.058-3.898-2.352.27-5.003-2.74-6.323-7.18-.465-1.562-1.651-3.888-2.637-5.169-.985-1.281-2.124-2.955-2.531-3.721-.703-1.326-.894-1.293-3.961.674-1.772 1.136-6.982 5.18-11.579 8.986l-8.357 6.921 3.04.656c6.273 1.354 19.179 5.084 28.813 8.328 5.481 1.845 10.352 3.371 10.825 3.391.518.022.859-.936.859-2.414Zm-46.735-47.059c0-4.27 1.906-10.668 3.178-10.668.585 0 2.011 1.173 3.171 2.606 1.159 1.434 2.373 2.427 2.697 2.208 1.061-.718 3.408.554 3.192 1.73-.279 1.521-8.61 6.996-10.645 6.996-1.388 0-1.593-.37-1.593-2.872Zm6.638-2.528c.574-.496.308-1.222-.952-2.601-2.037-2.229-2.909-1.462-2.926 2.574-.01 2.322.082 2.418 1.535 1.592.851-.483 1.905-1.187 2.343-1.565Z" stroke="#000" stroke-width="8"/></svg>