<svg width="24" height="24" fill="none" viewBox="0 0 24 24" xmlns="http://www.w3.org/2000/svg"><path d="M2.014 20.679C2.006 20.674 2 17.133 2 12.004c0-8.257.001-8.668.026-8.678.039-.014 3.803-.014 3.826 0 .015.01.018 1.756.015 8.685l-.004 8.672-1.918.002a111.99 111.99 0 0 1-1.931-.006zm10.24-.028a.38.38 0 0 1-.1-.072c-.035-.038-.225-.31-.55-.787l-.227-.334a3349.259 3349.259 0 0 1-2.371-3.461 515.597 515.597 0 0 1-1.047-1.53l-1.02-1.486a42.82 42.82 0 0 1-.428-.632c-.021-.04-.019-.041.302-.232.616-.365 1.24-.817 1.79-1.295.22-.19.854-.823 1.004-1.002l.178-.212c.882-1.054 1.585-2.439 1.945-3.836a12.043 12.043 0 0 0 .336-1.874c.008-.059.02-.208.027-.332.009-.17.017-.228.033-.238.028-.017 3.66-.018 3.687 0 .026.015.024.166-.007.645a14.373 14.373 0 0 1-.742 3.758c-.595 1.73-1.539 3.319-2.823 4.751-.108.121-.275.3-.37.398l-.175.178.087.126a656.134 656.134 0 0 1 1.392 2.03 4371.411 4371.411 0 0 1 2.89 4.221c.445.644.817 1.196.819 1.215 0 .02-.264.023-2.284.026-2.196.003-2.287.002-2.345-.025zm7.265.007a2.125 2.125 0 0 1-1.201-.642 2.101 2.101 0 0 1-.583-1.575 2.12 2.12 0 0 1 1.455-1.928 2.144 2.144 0 0 1 2.164.485c.309.298.5.63.606 1.055.036.146.04.187.04.471.001.351-.01.43-.1.705a2.02 2.02 0 0 1-.514.828 2.11 2.11 0 0 1-1.055.581c-.16.038-.643.05-.812.02z" fill="#000"/></svg>