<svg xmlns="http://www.w3.org/2000/svg" viewBox="0 0 192 192"><path d="M96 16.5a5.99 5.99 0 0 0-4.314 1.941L76.139 33.97v61.535l50.721-50.703-26.546-26.361A5.99 5.99 0 0 0 96 16.5ZM47.223 62.7 18.268 91.778a6.135 6.135 0 0 0-1.771 4.31c0 1.612.637 3.161 1.771 4.309l29.11 29.079Zm100.08 2.523-30.859 31.059 26.545 26.516 4.314 4.309 26.429-26.71a6.134 6.134 0 0 0 1.771-4.309 6.135 6.135 0 0 0-1.771-4.31ZM96 116.509l-19.861 19.877v21.819l15.547 15.529a6.147 6.147 0 0 0 8.628 0l26.546-26.555-4.276-4.271Z" fill="none" stroke="#000" stroke-width="12" stroke-linecap="round" stroke-linejoin="round"/></svg>