<svg xmlns="http://www.w3.org/2000/svg" viewBox="0 0 192 192"><path d="M18.679 154.62c-1.338-.647-2.5-1.415-2.584-1.709-.083-.293.026-4.291.243-8.884.329-6.943 3.003-75.115 3.946-100.586.294-7.942.281-7.922 4.011-6.225l2.17.987-.257 5.466c-.142 3.006-.671 16.055-1.178 28.999a97512.137 97512.137 0 0 1-3.027 77.053c-.145 3.549-.405 6.368-.578 6.263-.173-.104-1.409-.718-2.746-1.364Zm67.611-16.879c-5.44-15.946-5.724-17.065-5.848-23.076-.128-6.193-.034-6.638 4.803-22.596 2.756-9.095 5.135-15.782 5.39-15.152.252.62 1.17 3.686 2.041 6.813l1.583 5.686-3.527 11.777c-1.94 6.477-3.527 12.203-3.527 12.724 0 .52 2.061 6.87 4.58 14.11l4.579 13.164-1.721 6.682c-.946 3.676-1.926 6.67-2.178 6.655-.252-.015-3.03-7.569-6.175-16.787Zm-54.511-7.445c-3.604-12.563-6.535-23.836-6.514-25.052l.114-6.65c.077-4.475.127-4.622 13.745-40.164.492-1.286 1.022-.147 2.4 5.155.972 3.743 1.768 7.225 1.769 7.739 0 .514-2.569 7.643-5.711 15.843-5.604 14.627-5.697 14.969-4.918 18.045.437 1.725 2.609 9.367 4.827 16.983 5.851 20.09 5.691 18.926 3.508 25.472-1.003 3.009-2.014 5.47-2.246 5.47-.232 0-3.37-10.278-6.974-22.841Zm41.783 18.931c-1.34-1.038-2.51-2.134-2.601-2.436-.217-.721 6.453-101.342 6.792-102.469.343-1.139 4.006.721 4.847 2.461.552 1.141.128 9.391-2.668 51.957-1.828 27.831-3.461 51.001-3.629 51.488-.167.488-1.401.038-2.741-1.001Zm52.318-2.077-1.29-4.469.978-25.518c.537-14.034.976-26.336.975-27.337-.001-1.002.709-3.619 1.577-5.816l1.578-3.995 5.975 3.159c3.287 1.737 6.21 3.158 6.497 3.158.375 0 .44-4.665.233-16.701l-.288-16.701h2.962c2.928 0 2.963.049 2.96 4.175-.001 2.297.335 21.153.747 41.904l.748 37.728-1.318 4.267c-1.261 4.083-1.693 4.404-10.036 7.441-11.05 4.023-10.754 4.054-12.298-1.295Zm12.44-18.435 5.146-1.794-.005-4.732c-.003-2.602-.127-7.179-.276-10.171l-.272-5.439-5.231-2.723c-2.877-1.498-5.308-2.466-5.402-2.152-.2.669-1.164 23.065-1.164 27.04 0 1.945.292 2.581 1.029 2.24.566-.261 3.345-1.283 6.175-2.269Zm-20.246 16.122-2.739-4.996-6.403 3.571c-8.047 4.487-7.976 4.491-9.721-.523l-1.452-4.176.438-24.292c.24-13.361.556-27.88.702-32.264l.264-7.971h5.423l-.043 11.767c-.023 6.471-.178 18.087-.343 25.811-.344 16.109-.622 15.302 4.305 12.501a246.323 246.323 0 0 1 4.136-2.306l1.422-.763.317-18.571c.174-10.213.436-21.156.583-24.316l.266-5.746 2.797 1.013c1.539.557 2.815 1.093 2.835 1.191.074.351-.68 35.253-.927 42.928l-.251 7.828 2.057 4.002c1.131 2.201 2.057 4.229 2.057 4.506 0 1.071-2.377 14.557-2.672 15.163-.172.352-1.545-1.608-3.051-4.357Zm-71.784-2.851c-1.362-5.928-1.425-9.811-.664-40.633.459-18.623.601-20.686 1.686-24.51l1.185-4.175H65.09l1.094 3.867c1.063 3.754 1.1 4.737 1.279 33.578l.184 29.712-1.313 3.565c-1.275 3.461-1.569 3.566-10.095 3.619l-8.782.055Zm15.3-32.12V92.405h-4.794c-5.564 0-5.052-1.958-5.463 20.877l-.253 14.044h10.51Zm92.786 31.448-1.21-5.685.602-26.918c.542-24.228.709-27.367 1.668-31.397l1.066-4.478 8.233-.03c7.837-.028 8.291.133 9.44 3.332l1.207 3.362.309 30.366.309 30.366-1.544 3.416c-1.467 3.245-1.978 3.414-10.207 3.384l-8.662-.033Zm15.619-19.832c0-3.214-.133-11.071-.296-17.46l-.296-11.617h-9.471l-.003 7.212c-.002 3.967-.134 11.824-.295 17.461l-.291 10.248h10.652v-5.844Z"/></svg>