<svg
    xmlns="http://www.w3.org/2000/svg"
    viewBox="0 0 192 192"
    id="vector">
    <path
        id="path"
        d="M 18.679 154.62 C 17.341 153.973 16.179 153.205 16.095 152.911 C 16.012 152.618 16.121 148.62 16.338 144.027 C 16.667 137.084 19.341 68.912 20.284 43.441 C 20.578 35.499 20.565 35.519 24.295 37.216 L 26.465 38.203 L 26.208 43.669 C 26.066 46.675 25.537 59.724 25.03 72.668 C 23.223 118.894 22.261 143.365 22.003 149.721 C 21.858 153.27 21.598 156.089 21.425 155.984 C 21.252 155.88 20.016 155.266 18.679 154.62 Z M 86.29 137.741 C 80.85 121.795 80.566 120.676 80.442 114.665 C 80.314 108.472 80.408 108.027 85.245 92.069 C 88.001 82.974 90.38 76.287 90.635 76.917 C 90.887 77.537 91.805 80.603 92.676 83.73 L 94.259 89.416 L 90.732 101.193 C 88.792 107.67 87.205 113.396 87.205 113.917 C 87.205 114.437 89.266 120.787 91.785 128.027 L 96.364 141.191 L 94.643 147.873 C 93.697 151.549 92.717 154.543 92.465 154.528 C 92.213 154.513 89.435 146.959 86.29 137.741 Z M 31.779 130.296 C 28.175 117.733 25.244 106.46 25.265 105.244 C 25.286 104.028 25.337 101.036 25.379 98.594 C 25.456 94.119 25.506 93.972 39.124 58.43 C 39.616 57.144 40.146 58.283 41.524 63.585 C 42.496 67.328 43.292 70.81 43.293 71.324 C 43.293 71.838 40.724 78.967 37.582 87.167 C 31.978 101.794 31.885 102.136 32.664 105.212 C 33.101 106.937 35.273 114.579 37.491 122.195 C 43.342 142.285 43.182 141.121 40.999 147.667 C 39.996 150.676 38.985 153.137 38.753 153.137 C 38.521 153.137 35.383 142.859 31.779 130.296 Z M 73.562 149.227 C 72.222 148.189 71.052 147.093 70.961 146.791 C 70.744 146.07 77.414 45.449 77.753 44.322 C 78.096 43.183 81.759 45.043 82.6 46.783 C 83.152 47.924 82.728 56.174 79.932 98.74 C 78.104 126.571 76.471 149.741 76.303 150.228 C 76.136 150.716 74.902 150.266 73.562 149.227 Z M 125.88 147.15 L 124.59 142.681 L 125.568 117.163 C 126.105 103.129 126.544 90.827 126.543 89.826 C 126.542 88.824 127.252 86.207 128.12 84.01 L 129.698 80.015 L 135.673 83.174 C 138.96 84.911 141.883 86.332 142.17 86.332 C 142.545 86.332 142.61 81.667 142.403 69.631 L 142.115 52.93 L 145.077 52.93 C 148.005 52.93 148.04 52.979 148.037 57.105 C 148.036 59.402 148.372 78.258 148.784 99.009 L 149.532 136.737 L 148.214 141.004 C 146.953 145.087 146.521 145.408 138.178 148.445 C 127.128 152.468 127.424 152.499 125.88 147.15 Z M 138.32 128.715 L 143.466 126.921 L 143.461 122.189 C 143.458 119.587 143.334 115.01 143.185 112.018 L 142.913 106.579 L 137.682 103.856 C 134.805 102.358 132.374 101.39 132.28 101.704 C 132.08 102.373 131.116 124.769 131.116 128.744 C 131.116 130.689 131.408 131.325 132.145 130.984 C 132.711 130.723 135.49 129.701 138.32 128.715 Z M 118.074 144.837 L 115.335 139.841 L 108.932 143.412 C 100.885 147.899 100.956 147.903 99.211 142.889 L 97.759 138.713 L 98.197 114.421 C 98.437 101.06 98.753 86.541 98.899 82.157 L 99.163 74.186 L 104.586 74.186 L 104.543 85.953 C 104.52 92.424 104.365 104.04 104.2 111.764 C 103.856 127.873 103.578 127.066 108.505 124.265 C 109.997 123.416 111.859 122.378 112.641 121.959 L 114.063 121.196 L 114.38 102.625 C 114.554 92.412 114.816 81.469 114.963 78.309 L 115.229 72.563 L 118.026 73.576 C 119.565 74.133 120.841 74.669 120.861 74.767 C 120.935 75.118 120.181 110.02 119.934 117.695 L 119.683 125.523 L 121.74 129.525 C 122.871 131.726 123.797 133.754 123.797 134.031 C 123.797 135.102 121.42 148.588 121.125 149.194 C 120.953 149.546 119.58 147.586 118.074 144.837 Z M 46.29 141.986 C 44.928 136.058 44.865 132.175 45.626 101.353 C 46.085 82.73 46.227 80.667 47.312 76.843 L 48.497 72.668 L 65.09 72.668 L 66.184 76.535 C 67.247 80.289 67.284 81.272 67.463 110.113 L 67.647 139.825 L 66.334 143.39 C 65.059 146.851 64.765 146.956 56.239 147.009 L 47.457 147.064 Z M 61.59 109.866 L 61.59 92.405 L 56.796 92.405 C 51.232 92.405 51.744 90.447 51.333 113.282 L 51.08 127.326 L 61.59 127.326 Z M 154.376 141.314 L 153.166 135.629 L 153.768 108.711 C 154.31 84.483 154.477 81.344 155.436 77.314 L 156.502 72.836 L 164.735 72.806 C 172.572 72.778 173.026 72.939 174.175 76.138 L 175.382 79.5 L 175.691 109.866 L 176 140.232 L 174.456 143.648 C 172.989 146.893 172.478 147.062 164.249 147.032 L 155.587 146.999 Z M 169.995 121.482 C 169.995 118.268 169.862 110.411 169.699 104.022 L 169.403 92.405 L 159.932 92.405 L 159.929 99.617 C 159.927 103.584 159.795 111.441 159.634 117.078 L 159.343 127.326 L 169.995 127.326 L 169.995 121.482 Z"
        fill="#000000"
        stroke-width="12"/>
</svg>
