<svg
    xmlns="http://www.w3.org/2000/svg"
    viewBox="0 0 192 192"
    id="vector">
    <path
        id="path"
        d="M 66.59 38.961 C 65.169 37.52 67.725 16.398 76.09 16.5 C 84.456 16.603 86.569 32.885 88.588 30.677 C 89.562 29.732 90.726 29.002 92.003 28.535 C 93.28 28.068 94.642 27.875 96 27.967 C 97.357 27.875 98.719 28.068 99.996 28.535 C 101.273 29.002 102.437 29.732 103.411 30.677 C 105.429 32.884 107.543 16.603 115.908 16.5 C 124.274 16.398 126.829 37.52 125.409 38.961"
        fill="none"
        stroke="#000000"
        stroke-width="8"
        stroke-linecap="round"
        stroke-linejoin="round"/>
    <path
        id="path_1"
        d="M 66.59 38.961 C 66.59 38.961 4.601 117.99 59.57 169.5 C 59.57 169.5 66.758 175.5 90.83 175.5 C 90.83 175.5 92.089 170.345 95.999 170.345 C 99.908 170.345 101.168 175.5 101.168 175.5 C 125.24 175.5 132.429 169.5 132.429 169.5 C 187.401 117.99 125.41 38.961 125.41 38.961"
        fill="none"
        stroke="#000000"
        stroke-width="8"
        stroke-linecap="round"
        stroke-linejoin="round"/>
    <path
        id="path_2"
        d="M 66.029 106.583 L 73.538 102.751 L 80.536 107.004 M 89.452 95.944 L 96 92.186"
        fill="none"
        stroke="#000000"
        stroke-width="8"
        stroke-linecap="round"
        stroke-linejoin="round"/>
    <path
        id="path_3"
        d="M 134.889 114.968 C 132.929 73.332 99.363 72.296 96 72.296 C 92.636 72.296 59.072 73.332 57.115 114.968 C 55.157 156.605 91.276 158.067 96 158.161 C 100.724 158.256 136.848 156.605 134.889 114.968 Z"
        fill="none"
        stroke="#000000"
        stroke-width="8"
        stroke-linecap="round"
        stroke-linejoin="round"/>
    <path
        id="path_4"
        d="M 125.97 106.583 L 118.06 102.631 L 111.461 107.004 M 102.546 95.944 L 95.997 92.186 M 101.71 57.252 C 103.481 52.564 98.366 53.063 96 53.063 C 93.635 53.063 88.519 52.562 90.291 57.252 C 92.063 61.943 95.023 63.233 96 63.233 C 96.978 63.233 99.938 61.943 101.71 57.252 Z M 80.35 48.246 C 80.343 48.607 80.193 48.952 79.932 49.204 C 79.671 49.456 79.32 49.595 78.956 49.591 C 78.592 49.587 78.244 49.44 77.989 49.182 C 77.734 48.924 77.592 48.575 77.594 48.214 C 77.596 47.852 77.743 47.506 78.001 47.251 C 78.259 46.996 78.608 46.852 78.972 46.852 L 78.972 48.222 Z M 114.404 48.246 C 114.398 48.607 114.248 48.952 113.987 49.204 C 113.726 49.456 113.374 49.595 113.011 49.591 C 112.647 49.587 112.299 49.44 112.044 49.182 C 111.789 48.924 111.647 48.575 111.649 48.214 C 111.651 47.852 111.797 47.506 112.055 47.251 C 112.313 46.996 112.663 46.852 113.026 46.852 L 113.026 48.222 Z"
        fill="none"
        stroke="#000000"
        stroke-width="8"
        stroke-linecap="round"
        stroke-linejoin="round"/>
</svg>
