<svg xmlns="http://www.w3.org/2000/svg" viewBox="0 0 192 192"><path fill="none" stroke="#000" stroke-linecap="round" stroke-linejoin="round" stroke-width="8" d="M66.59 38.961c-1.421-1.441 1.135-22.563 9.5-22.461 8.366.103 10.479 16.385 12.498 14.177a9.677 9.677 0 0 1 3.415-2.142A9.724 9.724 0 0 1 96 27.967a9.722 9.722 0 0 1 3.996.568 9.677 9.677 0 0 1 3.415 2.142c2.018 2.207 4.132-14.074 12.497-14.177 8.366-.102 10.921 21.02 9.501 22.461M66.59 38.961S4.601 117.99 59.57 169.5c0 0 7.188 6 31.26 6 0 0 1.259-5.155 5.169-5.155 3.909 0 5.169 5.155 5.169 5.155 24.072 0 31.261-6 31.261-6 54.972-51.51-7.019-130.539-7.019-130.539"/><path fill="none" stroke="#000" stroke-linecap="round" stroke-linejoin="round" stroke-width="8" d="m66.029 106.583 7.509-3.832 6.998 4.253m8.916-11.06L96 92.186"/><path fill="none" stroke="#000" stroke-linecap="round" stroke-linejoin="round" stroke-width="8" d="M134.889 114.968C132.929 73.332 99.363 72.296 96 72.296c-3.364 0-36.928 1.036-38.885 42.672-1.958 41.637 34.161 43.099 38.885 43.193 4.724.095 40.848-1.556 38.889-43.193Z"/><path fill="none" stroke="#000" stroke-linecap="round" stroke-linejoin="round" stroke-width="8" d="m125.97 106.583-7.91-3.952-6.599 4.373m-8.915-11.06-6.549-3.758m5.713-34.934c1.771-4.688-3.344-4.189-5.71-4.189-2.365 0-7.481-.501-5.709 4.189 1.772 4.691 4.732 5.981 5.709 5.981.978 0 3.938-1.29 5.71-5.981Zm-21.36-9.006a1.37 1.37 0 0 1-.418.958 1.383 1.383 0 0 1-1.943-.022 1.365 1.365 0 0 1 .012-1.931c.258-.255.607-.399.971-.399v1.37Zm34.054 0a1.364 1.364 0 0 1-.417.958 1.385 1.385 0 0 1-1.943-.022 1.368 1.368 0 0 1 .011-1.931c.258-.255.608-.399.971-.399v1.37Z"/></svg>