<?xml version="1.0" encoding="UTF-8" standalone="no"?>
<!-- Created with Inkscape (http://www.inkscape.org/) -->

<svg
   version="1.1"
   id="svg1032"
   width="512"
   height="512"
   viewBox="0 0 512 512"
   sodipodi:docname="Kvaesitso.svg"
   inkscape:version="1.1.2 (b8e25be833, 2022-02-05)"
   xmlns:inkscape="http://www.inkscape.org/namespaces/inkscape"
   xmlns:sodipodi="http://sodipodi.sourceforge.net/DTD/sodipodi-0.dtd"
   xmlns="http://www.w3.org/2000/svg"
   xmlns:svg="http://www.w3.org/2000/svg">
  <defs
     id="defs1036" />
  <sodipodi:namedview
     id="namedview1034"
     pagecolor="#ffffff"
     bordercolor="#666666"
     borderopacity="1.0"
     inkscape:pageshadow="2"
     inkscape:pageopacity="0.0"
     inkscape:pagecheckerboard="0"
     showgrid="false"
     inkscape:zoom="1.1289062"
     inkscape:cx="256"
     inkscape:cy="256"
     inkscape:window-width="1280"
     inkscape:window-height="961"
     inkscape:window-x="-8"
     inkscape:window-y="-8"
     inkscape:window-maximized="1"
     inkscape:current-layer="g1038" />
  <g
     inkscape:groupmode="layer"
     inkscape:label="Image"
     id="g1038">
    <g
       id="g1486"
       transform="translate(-7.4610212e-4)">
      <path
         style="fill:#d1d1d1"
         d="m 97.632623,448.72063 c -1.60822,-1.17595 -1.7247,-3.58053 -1.441129,-29.75 L 96.5,390.5 l 2.939618,-5.98724 c 3.744312,-7.62618 10.446962,-14.32883 18.073142,-18.07314 L 123.5,363.5 h 133.02103 133.02102 l 6.6638,3.28057 c 7.48211,3.68343 14.15897,10.36756 17.9199,17.93939 2.31352,4.65777 2.38203,5.5377 2.6783,34.39928 l 0.30404,29.61923 -2.30404,0.61711 c -1.26723,0.33941 -72.75554,0.62326 -158.86292,0.63077 -125.60226,0.0109 -156.904829,-0.23932 -158.308507,-1.26572 z M 126,334.63261 C 114.27443,332.07478 104.27125,324.07754 99.160407,313.17515 L 96.5,307.5 V 272 c 0,-34.68491 0.05151,-35.6106 2.243252,-40.31716 3.344648,-7.18231 12.176908,-15.90989 19.545148,-19.31351 L 124.5,209.5 254.43109,209.23169 c 143.38253,-0.2961 135.49321,-0.61732 145.79128,5.93613 5.8183,3.70264 9.93819,8.30658 13.52949,15.1191 L 416.5,235.5 v 36.5 36.5 l -2.81838,5.73943 c -5.41053,11.01817 -15.93243,18.76061 -28.23277,20.77484 C 376.25194,336.5203 133.01324,336.16248 126,334.63261 Z m 54.5,-26.75111 c 2.47618,-0.68549 5.7648,-2.87387 8.63257,-5.74442 6.19312,-6.19915 7.17639,-11.03357 6.71568,-33.01882 -0.32168,-15.35012 -0.53903,-16.9993 -2.84825,-21.61161 -1.58233,-3.16044 -4.09042,-6.097 -6.83275,-8 L 181.8345,236.5 161.16725,236.17913 c -22.32348,-0.34659 -26.07843,0.19237 -31.16603,4.4733 C 123.53266,246.09536 123,248.52767 123,272.6223 c 0,21.32398 0.0434,21.77603 2.49115,25.95281 2.51167,4.28584 7.22966,7.91064 12.27289,9.42918 4.15681,1.25163 38.12376,1.15404 42.73596,-0.12279 z m 98.62055,-0.42403 c 5.53339,-1.9523 10.40202,-6.64048 12.44126,-11.98015 1.30978,-3.4296 1.53,-7.82929 1.26237,-25.22036 L 292.5,249.19092 289.35158,244.8476 c -1.73163,-2.38883 -5.06491,-5.35678 -7.40729,-6.59546 C 277.91957,236.12381 276.53739,236 256.80288,236 c -18.69784,0 -21.28061,0.20307 -24.6874,1.94109 -4.97053,2.53577 -9.74202,8.0523 -11.05535,12.78158 -1.49015,5.36599 -1.36121,38.53762 0.16971,43.66131 1.60131,5.35927 8.2599,12.02725 13.35558,13.37441 6.57533,1.73834 39.38357,1.51665 44.53513,-0.30092 z m 96.31594,0.45421 c 5.58128,-1.40539 10.84101,-5.78775 13.47372,-11.22619 1.90603,-3.93735 2.08979,-6.07448 2.08979,-24.30487 0,-19.38885 -0.076,-20.14038 -2.53466,-25.07432 -1.6297,-3.2704 -4.03966,-6.10748 -6.75,-7.94635 L 377.5,236.5 356.09321,236.19362 c -22.34239,-0.31976 -24.54232,-0.0157 -30.34996,4.19414 -1.51622,1.09909 -3.87872,4.24983 -5.25,7.00164 -2.39611,4.80835 -2.49303,5.74564 -2.48767,24.05694 0.003,10.73316 0.48545,20.80041 1.10446,23.05366 1.40224,5.10421 8.3211,11.89245 13.52562,13.27027 5.24595,1.38879 37.42482,1.4951 42.80083,0.14141 z M 83.339748,193.61391 C 70.546651,189.46283 63.111451,176.6462 66.329081,164.2913 69.106622,153.62623 72.222932,150.99559 97.5,137.97828 c 8.8,-4.53186 25,-12.96064 36,-18.73061 C 243.1213,61.746606 233.51173,66.082835 253.12491,65.26805 274.17663,64.393505 278.73145,65.999403 326,90.961709 c 10.175,5.373372 28.4,14.941291 40.5,21.262051 68.74888,35.91279 72.50219,37.99119 75.5453,41.83343 3.4418,4.34563 5.95715,10.82247 5.94912,15.31854 -0.0251,14.07272 -11.39372,25.2146 -25.56248,25.05268 -5.57286,-0.0637 -7.28664,-0.70749 -21,-7.88895 C 393.21937,182.23867 381.775,176.25138 376,173.23437 359.19872,164.45695 325.1125,146.58676 304,135.48734 265.13211,115.05342 265.00829,115 256.51668,115 c -7.48478,0 -7.59731,0.04 -24.26817,8.62982 -9.21168,4.74641 -24.17351,12.55825 -33.24851,17.35965 -9.075,4.80141 -23.25,12.23401 -31.5,16.51689 -8.25,4.28288 -21.975,11.49156 -30.5,16.01928 -39.625936,21.04578 -44.772074,22.97229 -53.660252,20.08827 z M 507.78934,2.8486461 C 507.08021,2.3987348 506.95,2.0168441 507.5,2 c 0.55,-0.016844 0.325,-0.4668441 -0.5,-1 -1.13826,-0.735598 -0.71622,-0.97306731 1.75,-0.98468723 2.49042,-0.0117339 3.25,0.41317008 3.25,1.81802053 0,1.9207446 -2.01696,2.4070937 -4.21066,1.0153128 z"
         id="path1500" />
      <path
         style="fill:#acacac"
         d="M 98.25,448.33772 C 97.292718,447.95145 97,441.42183 97,420.45418 c 0,-25.47515 0.148369,-27.78163 2.13351,-33.16667 2.98837,-8.10648 13.06551,-18.17217 21.19245,-21.16838 l 5.82595,-2.1479 132.17405,0.26439 L 390.5,364.5 l 5,2.45579 c 7.44434,3.65635 15.69255,12.34633 18.55766,19.55158 2.26327,5.69172 2.40063,7.3388 2.73571,32.80212 0.26023,19.77601 0.0391,27.1874 -0.84274,28.25 -1.032,1.24348 -22.75525,1.42971 -158.82307,1.36156 C 170.4324,448.87763 98.9375,448.61513 98.25,448.33772 Z m 28.15709,-114.35727 c -11.02047,-2.2147 -20.62926,-9.62526 -25.62034,-19.7591 L 97.5,307.54798 97.21308,273.41018 C 96.938079,240.6905 97.014298,239.03681 99.047867,233.60161 102.01314,225.6762 110.1083,217.14585 118.21797,213.40094 L 124.5,210.5 H 257 389.5 l 4.72479,2.18262 c 10.28584,4.75154 18.2758,13.95791 21.26768,24.50551 1.36821,4.82349 1.55925,10.44777 1.25678,37 -0.24043,21.10549 -0.75527,32.51 -1.57947,34.98759 -2.04509,6.14768 -8.75264,15.11875 -13.86461,18.54335 -10.94837,7.33451 0.7679,6.76375 -142.30517,6.93242 -70.675,0.0833 -130.34181,-0.21865 -132.59291,-0.67104 z m 54.28521,-25.48171 c 6.02746,-1.78997 12.56065,-8.25099 14.30918,-14.15112 0.74336,-2.50834 1.02858,-11.00996 0.81939,-24.42436 -0.32045,-20.54996 -0.32446,-20.58215 -3.07941,-24.74146 -1.51719,-2.2906 -4.6328,-5.40607 -6.92357,-6.92326 -4.15821,-2.75401 -4.1988,-2.75908 -24.74146,-3.08838 -22.61886,-0.36258 -25.54662,0.0948 -31.35545,4.8983 -7.20805,5.96056 -7.72098,8.09149 -7.72098,32.07598 0,19.52478 0.16833,21.57183 2.10237,25.56702 2.46687,5.09587 7.14415,8.95295 13.11942,10.81882 6.29324,1.96515 36.8215,1.943 43.47051,-0.0315 z m 100.51503,-0.85523 c 4.377,-2.16162 8.33458,-5.92837 10.63552,-10.12273 2.5002,-4.55757 3.02262,-41.96605 0.67202,-48.12101 -2.3845,-6.24373 -5.21148,-9.34971 -10.93601,-12.01529 -4.81067,-2.24006 -6.13494,-2.3643 -25.07886,-2.35275 -22.80217,0.0139 -25.2554,0.61143 -31.65553,7.71028 -5.19553,5.76274 -6.10446,11.00138 -5.68372,32.75799 0.37842,19.56757 1.19373,22.77926 7.20757,28.39203 5.45445,5.0907 11.3289,6.16186 32.13168,5.85899 16.02326,-0.23328 19.58083,-0.56347 22.70733,-2.10751 z m 98.44594,-0.38421 c 5.7187,-3.03094 10.06467,-8.63053 11.41106,-14.70263 0.68625,-3.09493 0.98825,-12.26567 0.77845,-23.63888 L 391.5,250.33557 l -3.01544,-4.87356 c -2.19372,-3.5455 -4.47299,-5.635 -8.36419,-7.66779 C 374.77746,235.00306 374.74945,235 354.5,235 c -20.24945,0 -20.27746,0.003 -25.62037,2.79422 -3.8912,2.03279 -6.17047,4.12229 -8.36419,7.66779 l -3.01544,4.87356 -0.34278,18.58222 c -0.39762,21.55494 0.52784,27.51499 5.07702,32.69621 6.49111,7.39297 10.454,8.325 34.26576,8.05889 17.42345,-0.19471 19.34462,-0.39498 23.15327,-2.41359 z M 82.747969,192.62734 c -5.573844,-2.06946 -10.365625,-6.11878 -13.431556,-11.35039 -3.555138,-6.06639 -3.797636,-15.61351 -0.555541,-21.87163 3.260954,-6.29452 7.5751,-9.41106 26.891239,-19.4262 C 105.46845,134.88949 120.925,126.79719 130,121.99623 c 9.075,-4.80096 22.8,-12.00018 30.5,-15.99827 7.7,-3.99808 21.425,-11.2013 30.5,-16.007146 42.15238,-22.322629 47.83171,-24.440373 65.5,-24.424073 17.46626,0.01611 23.68291,2.094266 53.5,17.884434 15.88572,8.412564 45.51317,23.956045 73,38.298075 37.08107,19.34809 52.88688,27.83257 55.64662,29.87083 6.84805,5.05776 9.94842,16.24938 7.13726,25.7639 -1.7489,5.91927 -9.92293,13.84722 -16.03411,15.55141 -10.24078,2.85578 -0.1703,7.57037 -136.74977,-64.02068 L 265.5,114.5 h -9 -9 l -21,11.12493 c -11.55,6.11871 -31.575,16.64551 -44.5,23.3929 -12.925,6.74738 -31.825,16.6474 -42,22.00005 -45.431749,23.89979 -48.234266,24.95758 -57.252031,21.60946 z M 508,1.5 C 506.94725,0.23151978 507.15988,0 509.37756,0 511.04195,0 512,0.54799024 512,1.5 512,2.325 511.3801,3 510.62244,3 509.86479,3 508.68469,2.325 508,1.5 Z"
         id="path1498" />
      <path
         style="fill:#8f8f8f"
         d="M 97.395297,446.58774 C 97.097234,445.811 96.998857,433.0872 97.176682,418.31261 L 97.5,391.44974 l 3.24993,-6.59745 c 3.85324,-7.82217 10.133,-13.96885 18.07492,-17.69188 L 124.5,364.5 253.90399,364.23163 c 140.42426,-0.29122 136.05528,-0.44513 144.82429,5.10162 5.31115,3.35952 12.06502,10.98253 14.61083,16.49108 2.02925,4.39082 2.17955,6.42714 2.46721,33.42567 L 416.11264,448 H 257.02494 C 120.92913,448 97.858908,447.7959 97.395297,446.58774 Z M 122.0791,332.3645 C 112.39981,328.95953 104.71608,321.95055 100.30226,312.5 L 97.5,306.5 V 272 237.5 l 2.80769,-5.71758 c 5.64482,-11.49512 15.65175,-18.83078 28.3686,-20.79583 4.58964,-0.70921 48.07586,-0.96147 132.82371,-0.77051 l 126,0.28392 5.99263,2.41263 c 7.20843,2.90211 15.91134,11.17582 19.55158,18.58737 l 2.45579,5 v 35.5 35.5 l -2.67018,5.6965 c -3.40067,7.2549 -9.81224,13.66646 -17.38429,17.38429 L 389.5,333.5 258,333.70984 c -116.75648,0.18632 -131.99566,0.0355 -135.9209,-1.34534 z m 59.19823,-23.42463 c 4.77104,-1.32493 10.20181,-6.05452 13.02716,-11.34519 1.96907,-3.68723 2.2213,-5.88582 2.53476,-22.09468 0.3931,-20.32713 -0.50396,-26.35661 -4.80458,-32.29344 -4.92585,-6.79993 -9.75723,-8.37917 -27.35892,-8.94284 -26.23382,-0.84009 -35.02255,1.70534 -40.67575,11.78068 -2.37262,4.22858 -2.51693,5.39607 -2.8323,22.91393 -0.18277,10.15209 -0.052,20.32773 0.29066,22.61254 1.13667,7.57986 7.76892,15.17808 15.1901,17.40251 4.12015,1.23497 40.15854,1.20791 44.62887,-0.0335 z m 98.10665,-0.16971 c 6.09691,-1.82171 12.14634,-8.34672 14.15988,-15.27305 2.41475,-8.30644 1.75941,-40.3907 -0.9293,-45.49711 -2.569,-4.87904 -6.41933,-8.80802 -11.11456,-11.34158 -3.73948,-2.01784 -5.36775,-2.15714 -25,-2.13872 -19.652,0.0184 -21.26474,0.16004 -25.12421,2.20615 -4.65741,2.46913 -9.02885,7.22299 -11.02733,11.99203 -0.98158,2.34239 -1.34846,8.75066 -1.34846,23.55366 0,19.86744 0.0596,20.45529 2.58605,25.52529 2.74172,5.50191 6.3888,8.71147 12.29902,10.82355 4.88668,1.74631 39.77131,1.86115 45.49891,0.14978 z m 99.59804,-0.84711 c 5.86627,-2.66091 7.74029,-4.44917 10.62607,-10.13981 C 391.9002,293.2633 392,292.20839 392,272.50113 c 0,-22.38501 -0.54994,-25.30789 -5.80305,-30.84271 -1.48332,-1.56287 -4.49695,-3.81163 -6.69695,-4.99724 -3.73366,-2.01212 -5.39827,-2.15565 -25,-2.15565 -19.6883,0 -21.25576,0.13668 -25.09468,2.18832 -5.69431,3.04321 -10.044,8.35037 -11.86239,14.47356 -1.84127,6.20023 -2.15,32.90349 -0.47093,40.73273 1.51359,7.0576 5.95024,12.73636 12.2376,15.66371 4.94751,2.30353 6.12631,2.41604 25.1904,2.40442 17.95618,-0.011 20.45802,-0.21995 24.48202,-2.04522 z M 85.717502,192.85495 c -15.394785,-3.40741 -23.163424,-19.54046 -16.16862,-33.5772 1.401885,-2.81322 3.989385,-6.20379 5.75,-7.53461 C 77.059497,150.41232 86.6,145.13622 96.5,140.01847 c 9.9,-5.11775 25.425,-13.23237 34.5,-18.03248 9.075,-4.80011 22.35,-11.77091 29.5,-15.49066 7.15,-3.71975 22.26976,-11.649368 33.59947,-17.621373 29.09225,-15.334827 38.30518,-19.500247 47.10837,-21.299009 14.14989,-2.891255 29.98767,-1.614497 42.88795,3.457397 2.97232,1.168599 14.17921,6.75024 24.90421,12.403645 10.725,5.653405 34.8,18.28874 53.5,28.07853 73.45461,38.45481 75.67923,39.69832 79.14232,44.23874 7.11487,9.32823 6.40969,22.19473 -1.65865,30.26307 -5.05084,5.05084 -10.05189,7.13546 -17.1824,7.16225 -6.15023,0.0231 -3.11233,1.49715 -82.80127,-40.17628 -10.725,-5.60865 -32.1,-16.78538 -47.5,-24.83717 l -28,-14.63962 -7.69122,-0.0128 c -7.3006,-0.0121 -8.18938,0.245 -17.5,5.06229 -9.6461,4.99087 -39.41203,20.54882 -78.80878,41.19149 -43.22727,22.64976 -64.150451,33.02278 -67.5,33.46428 -1.925,0.25374 -5.202124,0.0846 -7.282498,-0.37586 z M 508.55887,1.4681966 C 506.69721,0.06010931 506.72792,0 509.30887,0 511.03432,0 512,0.53825783 512,1.5 c 0,1.8663701 -0.94304,1.8576544 -3.44113,-0.031803 z"
         id="path1496" />
      <path
         style="fill:#6d6d6d"
         d="m 98.411046,446.62879 c -0.290705,-0.75757 -0.389615,-13.92146 -0.2198,-29.25309 0.299279,-27.02021 0.380653,-28.01049 2.651544,-32.26774 3.33243,-6.24734 10.23964,-13.2822 16.38314,-16.68593 L 122.5,365.5 254.94838,365.23553 c 146.85842,-0.29325 136.71704,-0.73239 146.35452,6.3374 6.22761,4.56841 12.04452,13.59496 13.59289,21.09313 0.80387,3.89284 1.10481,13.9857 0.90446,30.33394 L 415.5,447.5 257.2198,447.75309 c -133.679,0.21375 -158.362352,0.039 -158.808754,-1.1243 z M 126.13174,332.9334 c -10.71565,-2.13291 -20.25213,-9.78074 -25.17688,-20.19074 L 98.001578,306.5 98.000789,272.78751 c -7.41e-4,-31.64823 0.125996,-34.05135 2.069811,-39.24666 2.71779,-7.26393 10.13501,-15.31083 17.5926,-19.08608 L 123.5,211.5 h 133 133 l 5.2509,2.37353 c 3.38628,1.53068 7.37192,4.64091 11.22384,8.75862 4.89432,5.23204 6.34834,7.62104 8.05181,13.22935 1.95078,6.42252 2.06023,8.81133 1.77617,38.76607 l -0.30272,31.92181 -3.24993,6.59789 c -3.85321,7.82263 -10.1326,13.9691 -18.07492,17.69232 L 388.5,333.5 l -129,0.15145 c -70.95,0.0833 -130.96572,-0.23983 -133.36826,-0.71805 z m 52.7684,-23.0054 c 6.91458,-1.48292 12.29291,-5.66766 15.46477,-12.03276 C 196.93995,292.72781 197,292.16438 197,273.16968 197,250.25365 196.36178,247.30643 190.02768,240.97232 183.74362,234.68827 180.66219,234 158.81212,234 c -20.79388,0 -25.2925,0.91887 -30.81934,6.295 -6.39161,6.21733 -6.94634,8.78755 -6.97082,32.29772 -0.0209,20.07537 0.0884,21.30149 2.26707,25.42133 2.94998,5.5785 8.39252,9.94167 14.42445,11.56377 5.94982,1.60003 34.23737,1.84053 41.18666,0.35018 z m 102.42031,-1.33817 c 4.5163,-2.22783 9.0654,-6.57335 11.45875,-10.94595 1.48032,-2.70453 1.7208,-6.21835 1.7208,-25.14388 0,-20.6147 -0.13555,-22.25187 -2.15268,-26 -2.76599,-5.13962 -5.74931,-7.87807 -11.34732,-10.41597 -4.03689,-1.83015 -6.53586,-2.04237 -24.28212,-2.06207 -22.52566,-0.025 -24.52485,0.43611 -31.50047,7.26557 C 219.04255,247.33301 218,251.76939 218,272 c 0,19.63928 1.20982,25.15828 6.83749,31.19144 6.31468,6.76967 11.28302,7.88541 33.66251,7.55958 16.22732,-0.23625 19.55752,-0.55164 22.82045,-2.16119 z m 94.51214,0.86724 c 6.12172,-1.81795 11.42837,-6.1664 14.47632,-11.86239 2.0606,-3.85081 2.19109,-5.37989 2.19109,-25.67414 v -21.57945 l -3.02644,-4.89411 c -1.87302,-3.02891 -4.89055,-6.04752 -7.9177,-7.92054 L 376.6646,234.5 355.5823,234.205 334.5,233.90999 329.00619,236.705 c -6.15659,3.13219 -10.59683,8.61204 -12.04788,14.8687 -1.53697,6.62712 -1.17178,37.34448 0.51137,43.01224 2.12342,7.15034 9.21605,13.59953 17.03032,15.48535 6.06978,1.46482 35.82045,1.02271 41.33259,-0.61422 z M 80.104761,190.36491 c -14.555233,-7.25317 -17.336739,-27.41893 -5.19155,-37.63843 1.6505,-1.3888 13.932733,-8.25615 27.293849,-15.26078 C 231.7947,69.528809 228.81514,71.036988 238.5,68.47755 c 10.38565,-2.744637 22.69804,-2.963261 33.3764,-0.592645 10.40185,2.309232 16.59505,5.151806 53.1236,24.382859 30.31322,15.958886 65.24015,34.250316 90.70759,47.504076 11.11417,5.78404 21.64463,11.91407 23.40103,13.6223 C 454.11606,167.99001 443.3605,193 422.0761,193 417.74298,193 405.37526,187.03052 359.5,162.79662 332.92734,148.75945 299.77728,131.42126 280.55753,121.50804 l -16.94246,-8.73864 -8.05754,0.42568 c -8.03334,0.4244 -8.12133,0.45928 -29.30753,11.6153 -25.4052,13.37762 -58.208,30.57731 -74.75,39.19412 -6.6,3.43797 -19.94506,10.4662 -29.65568,15.61828 -9.71062,5.15209 -19.76043,10.26964 -22.332905,11.37233 -6.53235,2.80009 -12.940559,2.592 -19.406654,-0.6302 z M 509,1.5 506.5,0.07087083 509.25,0.03543542 C 511.04353,0.01232474 512,0.52171263 512,1.5 c 0,1.7886135 0.12885,1.7886135 -3,0 z"
         id="path1494" />
      <path
         style="fill:#515151"
         d="m 99.190186,447.1405 c -1.040284,-0.66117 -1.246062,-6.47682 -1,-28.26183 L 98.5,391.4493 l 3.25968,-6.61704 c 3.79389,-7.70143 9.21863,-12.99208 17.12031,-16.69709 L 124.5,365.5 H 257 389.5 l 5.62454,2.76217 c 6.63306,3.25744 14.14069,10.90671 17.19619,17.5206 C 414.39844,390.28016 414.5,391.82823 414.5,419 v 28.5 l -157,0.23648 C 171.15,447.86654 99.910584,447.59835 99.190186,447.1405 Z M 127.87063,332.98253 c -11.09115,-1.87407 -21.24776,-9.44211 -26.44487,-19.70497 L 98.5,307.5 V 273 c 0,-30.88538 0.189441,-34.99092 1.80813,-39.18564 3.68467,-9.54858 12.48711,-17.67915 22.54721,-20.82623 6.20371,-1.9407 9.38861,-1.98785 133.5,-1.97626 137.5947,0.0128 132.56675,-0.17777 142.05976,5.3855 6.07416,3.5597 12.12603,10.76025 14.59908,17.37009 1.98443,5.30384 2.06709,7.1648 1.78335,40.14709 L 414.5,308.5 l -2.78415,5.28415 c -5.41447,10.27634 -14.59884,16.9837 -26.18972,19.12639 -6.90562,1.27657 -250.12437,1.34453 -257.6555,0.072 z m 52.85776,-23.14436 c 3.18613,-0.80227 6.08064,-2.58172 9.35318,-5.75 7.12545,-6.89846 8.19432,-11.63906 7.76016,-34.41754 -0.34315,-18.00354 -0.37391,-18.22115 -3.34403,-23.66466 -2.29801,-4.21167 -4.28146,-6.26341 -8.4977,-8.79028 l -5.5,-3.29624 -22.5763,0.29027 -22.57629,0.29028 -4.22716,2.79956 c -2.32494,1.53977 -5.57239,4.91477 -7.21655,7.5 l -2.98938,4.70044 0.29284,23.5 0.29284,23.5 2.73658,4 c 3.16363,4.62422 8.34303,8.41592 13.00801,9.52283 5.26675,1.2497 38.34532,1.10923 43.4838,-0.18466 z m 101.92488,-1.55915 c 5.04219,-2.69633 10.04355,-8.54168 11.36171,-13.27902 0.53563,-1.925 0.97638,-12.40195 0.97944,-23.28212 0.006,-21.90399 -0.53107,-24.51465 -6.2951,-30.58999 -6.19207,-6.5265 -8.72598,-7.08397 -32.19932,-7.08397 -24.03499,0 -26.45642,0.58241 -32.68757,7.86211 -5.37973,6.285 -6.01253,9.94912 -5.63975,32.65596 0.32468,19.77709 0.34996,19.97653 3.1326,24.7104 3.00374,5.11003 8.6358,9.47032 13.93031,10.78473 1.79543,0.44573 12.26441,0.72773 23.26441,0.62665 18.55542,-0.1705 20.29999,-0.34419 24.15327,-2.40475 z m 98.90147,-0.80546 c 3.02604,-1.87191 6.04691,-4.89227 7.91882,-7.91749 L 392.5,294.665 l 0.32087,-20.5825 c 0.19403,-12.44598 -0.0941,-21.98397 -0.72879,-24.12772 -1.44532,-4.88157 -7.65683,-11.85234 -12.53627,-14.06865 -3.52778,-1.60237 -6.78981,-1.84221 -25.05581,-1.84221 -18.18456,0 -21.53627,0.24424 -25,1.82174 -5.1438,2.34267 -11.07244,8.93233 -12.42788,13.81356 -1.44413,5.20063 -1.39203,41.06684 0.066,45.42156 1.41652,4.23078 5.21918,9.43199 8.43757,11.54075 5.9768,3.91616 9.32177,4.3667 30.5055,4.10892 l 20.58118,-0.25045 4.89239,-3.02644 z M 85.5,192.06493 C 70.587269,188.43445 63.276032,172.45014 70.476732,159.22008 73.932675,152.87038 75.207005,152.01911 103,137.49416 c 45.23928,-23.64258 66.91979,-34.99553 86.1468,-45.110554 46.43552,-24.428998 50.77592,-25.972062 70.69181,-25.131786 15.77129,0.66541 21.03835,2.500853 48.66139,16.957321 58.24092,30.480279 71.55431,37.434489 94,49.100569 33.63918,17.48387 35.4891,18.6179 39.1579,24.00426 10.35546,15.20339 -0.14101,35.01936 -18.54966,35.01936 -6.81855,0 -3.93366,1.43077 -118.10824,-58.57583 -40.68439,-21.38245 -40.41548,-21.26485 -48.5,-21.21005 -7.82742,0.0531 -8.52545,0.35939 -46.5,20.40665 -10.175,5.37151 -29.525,15.51571 -43,22.54266 -13.475,7.02695 -34.175,17.86686 -46,24.08869 -18.65311,9.8145 -27.606043,13.59114 -31.5,13.28774 -0.55,-0.0428 -2.35,-0.40657 -4,-0.80826 z M 509,1.5 506.5,0.07087083 509.25,0.03543542 C 511.04353,0.01232474 512,0.52171263 512,1.5 c 0,1.7886135 0.12885,1.7886135 -3,0 z"
         id="path1492" />
      <path
         style="fill:#303030"
         d="m 99.000789,419.25 7.89e-4,-27.75 2.848462,-6 c 3.38261,-7.12513 10.13109,-13.68638 17.58841,-17.10045 l 5.28875,-2.42127 132.8864,0.26086 L 390.5,366.5 l 4.97392,2.4476 c 6.63895,3.26695 12.54887,9.36033 16.10687,16.60687 L 414.5,391.5 l 0.32056,27.75 0.32056,27.75 H 257.07056 99 Z m 26.961351,-87.16214 c -9.4989,-1.89034 -19.69648,-9.84852 -24.11331,-18.81797 -2.311856,-4.6948 -2.353343,-5.32604 -2.635554,-40.0998 l -0.286723,-35.32991 2.447127,-5.34523 c 5.42776,-11.85579 15.10898,-18.68133 29.12632,-20.5349 5.36562,-0.70952 48.83291,-0.95944 132,-0.75896 l 124,0.29891 5.97474,2.40593 c 7.57312,3.04958 15.62744,10.56645 19.27046,17.98459 L 414.5,237.5 v 34.52103 34.52102 l -3.25968,6.62136 c -3.7937,7.7061 -9.21491,12.99466 -17.12031,16.70142 L 388.5,332.5 259,332.64596 c -71.225,0.0803 -131.09204,-0.17087 -133.03786,-0.5581 z m 54.10636,-21.68414 c 6.9487,-2.04217 11.18265,-5.27343 14.6592,-11.18761 2.75261,-4.68261 2.77458,-4.86278 3.09359,-25.36501 0.30305,-19.47662 0.19579,-20.94064 -1.88935,-25.78768 -2.76611,-6.42999 -9.3935,-12.43861 -15.38306,-13.94679 C 178.10579,233.50145 168.08536,233 158.23532,233 c -20.78673,0 -24.95575,0.95573 -31.13833,7.13831 -6.7384,6.73839 -7.28911,9.4461 -6.91987,34.02314 0.32231,21.45336 0.32766,21.49849 3.03353,25.584 3.56801,5.38725 8.84002,9.30594 14.6099,10.85956 7.16024,1.92799 35.46167,1.79315 42.24795,-0.20129 z m 102.13086,-1.70249 c 6.85861,-3.36805 11.2513,-8.86817 12.85371,-16.09423 0.69912,-3.15269 1.00045,-12.18644 0.78743,-23.607 -0.3786,-20.29848 -1.13343,-23.23124 -7.49892,-29.13584 -6.39121,-5.92846 -8.20006,-6.33715 -29.607,-6.68941 -23.02817,-0.37893 -27.43136,0.52203 -33.83186,6.92253 -6.46793,6.46793 -6.90272,8.48716 -6.90272,32.05696 0,23.14141 0.49456,25.62814 6.30068,31.68108 6.7785,7.06664 11.3177,8.10998 34.19932,7.86075 17.49721,-0.19059 18.1592,-0.27425 23.69936,-2.99484 z m 92.55853,1.95153 c 7.14941,-1.85453 12.47348,-5.82455 15.65817,-11.67587 l 2.68872,-4.94007 -0.30239,-22.93526 -0.30239,-22.93527 -3.03093,-4.30948 c -1.66701,-2.37022 -5.23004,-5.67014 -7.91784,-7.33315 L 376.66431,233.5 356.55968,233.17891 c -18.53024,-0.29595 -20.55126,-0.15399 -25.808,1.81281 -6.93172,2.59349 -12.14073,8.21191 -14.27421,15.3961 -1.77937,5.99178 -2.05596,34.81632 -0.40783,42.50128 0.73933,3.44738 2.31869,6.40655 5.1145,9.58275 7.15478,8.12827 11.19433,9.28766 32.84793,9.4277 10.10102,0.0653 17.34815,-0.37064 20.72582,-1.24679 z M 79.879631,189.20578 c -7.727511,-4.0369 -11.392739,-10.21766 -11.342643,-19.12736 0.04358,-7.75008 2.653312,-13.63629 7.703781,-17.37575 1.792577,-1.32725 13.271731,-7.65332 25.509231,-14.05793 12.2375,-6.40461 32.2625,-16.88286 44.5,-23.285 12.2375,-6.40214 31.25,-16.377836 42.25,-22.168203 47.34019,-24.919735 49.46438,-25.715307 68.5,-25.655262 17.68895,0.0558 22.50335,1.76666 59,20.96647 7.975,4.195412 25.3,13.286485 38.5,20.202395 13.2,6.91591 32.325,16.95981 42.5,22.31979 10.175,5.35998 22.63793,11.81426 27.6954,14.34286 5.05748,2.52859 10.87003,6.06777 12.9168,7.86483 C 452.9679,166.71494 443.44838,192 423.01674,192 417.49097,192 411.07364,189.06972 376,170.53119 366.375,165.4438 348.6,156.10508 336.5,149.77847 324.4,143.45186 303.50368,132.50928 290.06372,125.46162 265.94648,112.81498 265.52748,112.6419 257.9707,112.20445 l -7.65675,-0.44325 -21.40697,10.98968 C 217.13314,128.79521 198.5,138.45929 187.5,144.22662 c -30.40605,15.94197 -63.50524,33.25075 -78.21364,40.90079 -15.802812,8.21925 -20.289145,8.84145 -29.406729,4.07837 z M 509.55887,1.4681966 C 507.66187,0.03337458 507.66755,0 509.80887,0 511.08987,0 512,0.62305226 512,1.5 c 0,1.8095483 -0.007,1.8094602 -2.44113,-0.031803 z"
         id="path1490" />
      <path
         style="fill:#000000"
         d="m 99.211574,418.75 c 0.352888,-25.39855 0.526267,-27.57334 2.551816,-32.00895 3.02604,-6.62651 10.44111,-14.20049 17.11022,-17.47691 L 124.5,366.5 h 132 132 l 5.2509,2.37353 c 3.34151,1.51044 7.35457,4.62236 11.03604,8.55786 8.7787,9.38446 9.21306,11.39682 9.21306,42.68344 V 446 H 256.41648 98.832961 Z m 23.088266,-88.6045 c -9.62595,-3.34014 -16.21238,-9.38707 -20.62299,-18.93374 -2.064572,-4.46874 -2.193513,-6.33647 -2.49992,-36.21176 -0.274005,-26.71611 -0.075,-32.42074 1.31035,-37.56271 2.85737,-10.6056 12.40815,-20.49834 22.85538,-23.6737 C 126.60092,212.77327 155.61426,212.5 257.5,212.5 h 130 l 6.29148,2.90518 c 7.95983,3.67556 15.23841,11.38604 18.18658,19.26573 2.02936,5.42395 2.10659,7.08888 1.8206,39.24666 -0.28542,32.09413 -0.39558,33.79226 -2.4856,38.31699 -2.78692,6.03346 -10.38488,13.62434 -16.81306,16.79737 l -5,2.46807 -131,0.22496 c -124.01292,0.21296 -131.27736,0.12872 -136.20016,-1.57946 z m 63.35343,-20.86648 c 5.57996,-2.9839 10.08641,-8.65486 11.95732,-15.04717 1.21325,-4.14531 1.47235,-9.36714 1.21564,-24.5 -0.36867,-21.73396 -1.01638,-24.05715 -8.62311,-30.92937 C 183.84503,233.05832 180.99223,232.5 158,232.5 h -20.5 l -5.25433,2.91129 c -2.88988,1.6012 -6.40826,4.42416 -7.81862,6.27323 -4.98359,6.53383 -5.60487,10.37976 -5.25142,32.50787 0.27941,17.49257 0.58278,20.79278 2.18853,23.80761 3.49079,6.55403 8.65144,10.87987 15.62937,13.10109 1.37856,0.43882 11.95647,0.7081 23.50647,0.59838 19.57357,-0.18592 21.28211,-0.35033 25.15327,-2.42045 z m 94.59876,1.29423 c 6.03854,-2.15494 10.39377,-6.15144 13.42036,-12.31494 2.81728,-5.73728 2.82761,-5.83135 2.82761,-25.75831 0,-22.73753 -0.56618,-25.44674 -6.71119,-32.11329 -6.52924,-7.08338 -9.9717,-7.88682 -33.78881,-7.886 -20.40383,7.1e-4 -20.52434,0.0135 -25.68799,2.73542 -5.52475,2.91223 -9.29374,7.08256 -11.78107,13.03558 -1.96533,4.70368 -2.20595,40.71165 -0.31482,47.11227 1.50502,5.09384 9.87566,13.76161 14.78388,15.30866 5.25886,1.65757 42.5366,1.56338 47.25203,-0.11939 z m 97.83817,0.0556 c 5.73783,-2.05101 10.61592,-6.39814 13.36092,-11.90663 2.49032,-4.99742 2.54866,-5.59864 2.53911,-26.16859 -0.009,-19.98293 -0.12915,-21.31002 -2.3571,-26.09453 -2.5182,-5.40779 -7.00516,-9.79517 -12.63313,-12.35275 -5.16999,-2.34946 -43.86926,-2.3286 -49.07273,0.0264 -5.64036,2.55278 -10.47374,7.40797 -13.05099,13.1099 C 314.63555,252.20011 314.5,253.61235 314.5,272 c 0,16.1993 0.29708,20.26962 1.75511,24.0468 2.15517,5.58321 9.12693,12.61582 14.35316,14.47842 5.28029,1.88187 42.2813,1.96265 47.48193,0.10366 z M 86.184245,190.83972 C 80.396568,189.82336 75.879314,186.87635 72.389024,181.83986 69.810839,178.11954 69.5,176.83722 69.5,169.92164 c 0,-7.00432 0.288425,-8.15578 3,-11.9767 3.475339,-4.89715 6.546426,-6.76896 37.5,-22.85596 28.56758,-14.84697 73.08633,-38.084731 83.5,-43.585078 40.49825,-21.390576 43.16331,-22.421646 60,-23.213025 20.10333,-0.944922 24.00883,0.575886 86.5,33.683243 9.075,4.80787 27.525,14.48632 41,21.50767 53.47481,27.86384 55.02946,28.7347 58.46782,32.75165 9.3214,10.88996 5.30153,27.78672 -7.92549,33.31332 -4.48714,1.87485 -11.74401,2.08746 -16.0014,0.4688 -1.5947,-0.6063 -12.15629,-5.97045 -23.47019,-11.92033 C 380.75683,172.14536 360.925,161.75059 348,154.99574 335.075,148.2409 316.175,138.32105 306,132.95164 264.70293,111.1589 265.49001,111.5 256.5,111.5 h -8 l -28,14.65237 C 106.93317,185.5818 97.670848,190.3293 94.03822,190.9718 c -1.946021,0.34419 -5.48031,0.28475 -7.853975,-0.13208 z M 509,1 C 507.78704,0.21612578 507.93056,0.02769528 509.75,0.01531277 510.9875,0.00689075 512,0.45 512,1 c 0,1.2529224 -1.06124,1.2529224 -3,0 z"
         id="path1488" />
    </g>
  </g>
</svg>
