<svg width="512" height="512" viewBox="0 0 512 512" xmlns="http://www.w3.org/2000/svg"><path style="fill:#d1d1d1" d="M97.633 448.72c-1.609-1.175-1.725-3.58-1.442-29.75l.309-28.47 2.94-5.987c3.744-7.626 10.447-14.33 18.073-18.073l5.987-2.94h266.042l6.664 3.28c7.482 3.684 14.159 10.368 17.92 17.94 2.313 4.658 2.382 5.538 2.678 34.4l.304 29.618-2.304.618c-1.267.339-72.755.623-158.863.63-125.602.011-156.905-.239-158.308-1.265zM126 334.634c-11.726-2.558-21.729-10.555-26.84-21.458L96.5 307.5V272c0-34.685.052-35.61 2.243-40.317 3.345-7.182 12.177-15.91 19.545-19.314l6.212-2.869 129.931-.268c143.383-.296 135.493-.618 145.791 5.936 5.819 3.702 9.939 8.306 13.53 15.119l2.748 5.213v73l-2.818 5.74c-5.41 11.018-15.933 18.76-28.233 20.774-9.197 1.506-252.436 1.148-259.449-.381Zm54.5-26.751c2.476-.686 5.765-2.874 8.633-5.745 6.193-6.2 7.176-11.033 6.715-33.019-.321-15.35-.539-16.999-2.848-21.611-1.582-3.16-4.09-6.097-6.833-8l-4.333-3.007-20.667-.32c-22.323-.347-26.078.191-31.166 4.472-6.468 5.443-7.001 7.876-7.001 31.97 0 21.324.043 21.776 2.491 25.953 2.512 4.286 7.23 7.91 12.273 9.43 4.157 1.25 38.124 1.153 42.736-.124zm98.62-.425c5.534-1.952 10.403-6.64 12.442-11.98 1.31-3.43 1.53-7.829 1.262-25.22l-.324-21.066-3.148-4.343c-1.732-2.39-5.065-5.357-7.408-6.596-4.024-2.128-5.407-2.252-25.141-2.252-18.698 0-21.28.203-24.688 1.941-4.97 2.536-9.742 8.052-11.055 12.782-1.49 5.366-1.361 38.537.17 43.661 1.601 5.36 8.26 12.027 13.355 13.374 6.576 1.739 39.384 1.517 44.536-.3zm96.316.455c5.582-1.406 10.842-5.788 13.474-11.227 1.906-3.937 2.09-6.074 2.09-24.304 0-19.39-.076-20.14-2.535-25.075-1.63-3.27-4.04-6.107-6.75-7.946l-4.215-2.86-21.407-.306c-22.342-.32-24.542-.016-30.35 4.194-1.516 1.099-3.878 4.25-5.25 7.001-2.396 4.809-2.493 5.746-2.487 24.057.003 10.733.485 20.8 1.104 23.054 1.402 5.104 8.321 11.892 13.526 13.27 5.246 1.39 37.424 1.495 42.8.142zM83.34 193.614c-12.793-4.151-20.229-16.968-17.01-29.323 2.777-10.665 5.893-13.295 31.17-26.313 8.8-4.532 25-12.96 36-18.73 109.621-57.501 100.012-53.165 119.625-53.98 21.052-.874 25.606.731 72.875 25.694 10.175 5.373 28.4 14.941 40.5 21.262 68.749 35.913 72.502 37.99 75.545 41.833 3.442 4.346 5.957 10.823 5.95 15.319-.026 14.072-11.394 25.214-25.563 25.052-5.573-.063-7.287-.707-21-7.889A36144.9 36144.9 0 0 0 376 173.234a40178.183 40178.183 0 0 1-72-37.747C265.132 115.053 265.008 115 256.517 115c-7.485 0-7.598.04-24.268 8.63A4186.773 4186.773 0 0 0 199 140.99a5537.745 5537.745 0 0 1-31.5 16.516 4450.482 4450.482 0 0 0-30.5 16.02c-39.626 21.045-44.772 22.972-53.66 20.088zM507.79 2.849c-.71-.45-.84-.832-.29-.849.55-.017.325-.467-.5-1-1.138-.736-.716-.973 1.75-.985 2.49-.011 3.25.413 3.25 1.818 0 1.921-2.017 2.407-4.21 1.016z"/><path style="fill:#acacac" d="M98.25 448.338c-.957-.387-1.25-6.916-1.25-27.884 0-25.475.148-27.781 2.134-33.166 2.988-8.107 13.065-18.173 21.192-21.169l5.826-2.148 132.174.265 132.174.264 5 2.456c7.444 3.656 15.693 12.346 18.558 19.551 2.263 5.692 2.4 7.34 2.735 32.802.26 19.776.04 27.188-.842 28.25-1.032 1.244-22.756 1.43-158.823 1.362-86.696-.043-158.19-.306-158.878-.583Zm28.157-114.358c-11.02-2.214-20.63-9.625-25.62-19.759l-3.287-6.673-.287-34.138c-.275-32.72-.199-34.373 1.835-39.808 2.965-7.926 11.06-16.456 19.17-20.201l6.282-2.901h265l4.725 2.183c10.286 4.751 18.276 13.958 21.267 24.505 1.369 4.824 1.56 10.448 1.257 37-.24 21.106-.755 32.51-1.58 34.988-2.044 6.147-8.752 15.118-13.864 18.543-10.948 7.335.768 6.764-142.305 6.932-70.675.084-130.342-.218-132.593-.67zm54.285-25.481c6.028-1.79 12.56-8.251 14.31-14.151.743-2.509 1.028-11.01.819-24.425-.32-20.55-.325-20.582-3.08-24.741-1.517-2.29-4.632-5.406-6.923-6.923-4.158-2.754-4.199-2.76-24.742-3.089-22.618-.362-25.546.095-31.355 4.898-7.208 5.961-7.721 8.092-7.721 32.076 0 19.525.168 21.572 2.102 25.567 2.467 5.096 7.145 8.953 13.12 10.82 6.293 1.964 36.821 1.942 43.47-.032zm100.515-.855c4.377-2.162 8.335-5.929 10.636-10.123 2.5-4.558 3.022-41.966.672-48.121-2.385-6.244-5.212-9.35-10.936-12.016-4.81-2.24-6.135-2.364-25.079-2.352-22.802.014-25.255.611-31.656 7.71-5.195 5.763-6.104 11.001-5.683 32.758.378 19.568 1.193 22.78 7.207 28.392 5.455 5.09 11.33 6.162 32.132 5.859 16.023-.233 19.58-.563 22.707-2.107zm98.446-.385c5.719-3.03 10.065-8.63 11.411-14.702.687-3.095.989-12.266.779-23.64l-.343-18.581-3.015-4.874c-2.194-3.545-4.473-5.635-8.365-7.668-5.343-2.79-5.37-2.794-25.62-2.794s-20.277.003-25.62 2.794c-3.892 2.033-6.17 4.123-8.365 7.668l-3.015 4.874-.343 18.582c-.397 21.555.528 27.515 5.077 32.696 6.491 7.393 10.454 8.325 34.266 8.059 17.423-.195 19.345-.395 23.153-2.414zM82.748 192.627c-5.574-2.07-10.366-6.118-13.432-11.35-3.555-6.066-3.797-15.614-.555-21.872 3.26-6.294 7.575-9.41 26.891-19.426A5685.152 5685.152 0 0 0 130 121.996c9.075-4.8 22.8-12 30.5-15.998 7.7-3.998 21.425-11.201 30.5-16.007 42.152-22.323 47.832-24.44 65.5-24.424 17.466.016 23.683 2.094 53.5 17.884 15.886 8.413 45.513 23.956 73 38.298 37.081 19.348 52.887 27.833 55.647 29.871 6.848 5.058 9.948 16.25 7.137 25.764-1.749 5.92-9.923 13.847-16.034 15.551-10.241 2.856-.17 7.57-136.75-64.02L265.5 114.5h-18l-21 11.125a10106.065 10106.065 0 0 1-44.5 23.393 18446.096 18446.096 0 0 0-42 22c-45.432 23.9-48.234 24.957-57.252 21.61zM508 1.5c-1.053-1.268-.84-1.5 1.378-1.5C511.042 0 512 .548 512 1.5c0 .825-.62 1.5-1.378 1.5-.757 0-1.937-.675-2.622-1.5Z"/><path style="fill:#8f8f8f" d="M97.395 446.588c-.298-.777-.396-13.5-.218-28.275l.323-26.863 3.25-6.598c3.853-7.822 10.133-13.969 18.075-17.692l5.675-2.66 129.404-.268c140.424-.292 136.055-.446 144.824 5.101 5.311 3.36 12.065 10.983 14.611 16.491 2.03 4.391 2.18 6.427 2.467 33.426l.307 28.75H257.025c-136.096 0-159.166-.204-159.63-1.412Zm24.684-114.224c-9.68-3.404-17.363-10.413-21.777-19.864l-2.802-6v-69l2.808-5.718c5.645-11.495 15.651-18.83 28.368-20.795 4.59-.71 48.076-.962 132.824-.77l126 .283 5.993 2.413c7.208 2.902 15.911 11.175 19.551 18.587l2.456 5v71l-2.67 5.697c-3.4 7.254-9.812 13.666-17.384 17.384L389.5 333.5l-131.5.21c-116.756.186-131.996.035-135.92-1.345zm59.198-23.424c4.771-1.325 10.202-6.055 13.027-11.345 1.97-3.688 2.222-5.886 2.535-22.095.393-20.327-.504-26.357-4.804-32.293-4.926-6.8-9.758-8.38-27.36-8.943-26.233-.84-35.022 1.705-40.675 11.78-2.373 4.229-2.517 5.396-2.832 22.914-.183 10.152-.052 20.328.29 22.613 1.137 7.58 7.77 15.178 15.19 17.402 4.12 1.235 40.159 1.208 44.63-.033zm98.107-.17c6.097-1.822 12.146-8.347 14.16-15.273 2.415-8.306 1.76-40.39-.93-45.497-2.568-4.879-6.419-8.808-11.114-11.342-3.74-2.017-5.368-2.157-25-2.138-19.652.018-21.265.16-25.124 2.206-4.658 2.469-9.03 7.223-11.028 11.992-.981 2.342-1.348 8.75-1.348 23.554 0 19.867.06 20.455 2.586 25.525 2.742 5.502 6.389 8.711 12.3 10.823 4.886 1.747 39.77 1.862 45.498.15zm99.598-.847c5.866-2.66 7.74-4.45 10.626-10.14 2.292-4.52 2.392-5.575 2.392-25.282 0-22.385-.55-25.308-5.803-30.843-1.483-1.562-4.497-3.811-6.697-4.997-3.734-2.012-5.398-2.155-25-2.155-19.688 0-21.256.136-25.095 2.188-5.694 3.043-10.044 8.35-11.862 14.473-1.841 6.2-2.15 32.904-.471 40.733 1.514 7.058 5.95 12.736 12.238 15.664 4.947 2.303 6.126 2.416 25.19 2.404 17.956-.01 20.458-.22 24.482-2.045zM85.718 192.855c-15.395-3.407-23.164-19.54-16.17-33.577 1.403-2.813 3.99-6.204 5.75-7.535 1.761-1.33 11.302-6.607 21.202-11.725 9.9-5.117 25.425-13.232 34.5-18.032 9.075-4.8 22.35-11.77 29.5-15.49 7.15-3.72 22.27-11.65 33.6-17.622 29.092-15.335 38.305-19.5 47.108-21.3 14.15-2.89 29.988-1.614 42.888 3.458 2.972 1.169 14.179 6.75 24.904 12.404 10.725 5.653 34.8 18.289 53.5 28.079 73.455 38.454 75.68 39.698 79.142 44.238 7.115 9.328 6.41 22.195-1.658 30.263-5.051 5.051-10.052 7.136-17.183 7.163-6.15.023-3.112 1.497-82.801-40.177l-47.5-24.837-28-14.64-7.691-.012c-7.3-.012-8.19.245-17.5 5.062-9.646 4.99-39.412 20.549-78.809 41.191-43.227 22.65-64.15 33.023-67.5 33.465-1.925.254-5.202.084-7.282-.376zM508.558 1.468C506.699.06 506.729 0 509.309 0 511.035 0 512 .538 512 1.5c0 1.866-.943 1.858-3.441-.032z"/><path style="fill:#6d6d6d" d="M98.411 446.629c-.29-.758-.39-13.922-.22-29.253.3-27.02.38-28.01 2.652-32.268 3.332-6.247 10.24-13.282 16.383-16.686l5.274-2.922 132.448-.264c146.859-.294 136.717-.733 146.355 6.337 6.228 4.568 12.044 13.595 13.593 21.093.804 3.893 1.105 13.986.904 30.334l-.3 24.5-158.28.253c-133.68.214-158.363.04-158.809-1.124zm27.72-113.696c-10.715-2.133-20.251-9.78-25.176-20.19l-2.953-6.243L98 272.788c-.001-31.649.126-34.052 2.07-39.247 2.717-7.264 10.135-15.311 17.592-19.086l5.837-2.955h266l5.25 2.374c3.387 1.53 7.373 4.64 11.225 8.758 4.894 5.232 6.348 7.621 8.052 13.23 1.95 6.422 2.06 8.81 1.776 38.766l-.303 31.921-3.25 6.598c-3.853 7.823-10.133 13.97-18.075 17.693l-5.675 2.66-129 .151c-70.95.084-130.966-.24-133.368-.718zm52.77-23.005c6.914-1.483 12.292-5.668 15.464-12.033 2.575-5.167 2.635-5.73 2.635-24.725 0-22.916-.638-25.864-6.972-32.198-6.284-6.284-9.366-6.972-31.216-6.972-20.794 0-25.292.919-30.82 6.295-6.39 6.217-6.946 8.788-6.97 32.298-.02 20.075.088 21.301 2.267 25.421 2.95 5.579 8.393 9.942 14.424 11.564 5.95 1.6 34.238 1.84 41.187.35zm102.42-1.338c4.516-2.228 9.065-6.574 11.458-10.946 1.48-2.705 1.721-6.218 1.721-25.144 0-20.615-.136-22.252-2.153-26-2.766-5.14-5.749-7.878-11.347-10.416-4.037-1.83-6.536-2.042-24.282-2.062-22.526-.025-24.525.436-31.5 7.266C219.042 247.333 218 251.769 218 272c0 19.64 1.21 25.158 6.837 31.191 6.315 6.77 11.284 7.886 33.663 7.56 16.227-.236 19.558-.552 22.82-2.161zm94.512.867c6.121-1.818 11.428-6.166 14.476-11.862 2.06-3.851 2.191-5.38 2.191-25.674v-21.58l-3.026-4.894c-1.873-3.029-4.891-6.048-7.918-7.92l-4.891-3.027-21.083-.295-21.082-.295-5.494 2.795c-6.156 3.132-10.597 8.612-12.048 14.869-1.537 6.627-1.171 37.344.512 43.012 2.123 7.15 9.216 13.6 17.03 15.485 6.07 1.465 35.82 1.023 41.333-.614zM80.105 190.365c-14.555-7.253-17.337-27.419-5.192-37.639 1.65-1.388 13.933-8.256 27.294-15.26C231.795 69.529 228.815 71.037 238.5 68.478c10.386-2.745 22.698-2.964 33.376-.593 10.402 2.31 16.595 5.152 53.124 24.383 30.313 15.959 65.24 34.25 90.708 47.504 11.114 5.784 21.644 11.914 23.4 13.622C454.117 167.99 443.36 193 422.077 193c-4.333 0-16.7-5.97-62.576-30.203-26.573-14.038-59.723-31.376-78.942-41.289l-16.943-8.739-8.057.426c-8.034.424-8.122.46-29.308 11.615-25.405 13.378-58.208 30.578-74.75 39.194a5541.58 5541.58 0 0 0-29.656 15.619c-9.71 5.152-19.76 10.27-22.333 11.372-6.532 2.8-12.94 2.592-19.406-.63zM509 1.5 506.5.07l2.75-.035C511.044.012 512 .522 512 1.5c0 1.789.129 1.789-3 0z"/><path style="fill:#515151" d="M99.19 447.14c-1.04-.66-1.246-6.476-1-28.261l.31-27.43 3.26-6.617c3.794-7.701 9.218-12.992 17.12-16.697l5.62-2.635h265l5.625 2.762c6.633 3.258 14.14 10.907 17.196 17.52 2.077 4.498 2.179 6.046 2.179 33.218v28.5l-157 .236c-86.35.13-157.59-.138-158.31-.596Zm28.68-114.157c-11.09-1.875-21.247-9.443-26.444-19.705L98.5 307.5V273c0-30.885.19-34.99 1.808-39.186 3.685-9.548 12.487-17.679 22.547-20.826 6.204-1.94 9.389-1.988 133.5-1.976 137.595.013 132.567-.178 142.06 5.385 6.074 3.56 12.126 10.76 14.6 17.37 1.984 5.304 2.066 7.165 1.783 40.148L414.5 308.5l-2.784 5.284c-5.415 10.276-14.599 16.984-26.19 19.127-6.905 1.276-250.124 1.344-257.655.072zm52.858-23.145c3.187-.802 6.081-2.582 9.354-5.75 7.125-6.898 8.194-11.639 7.76-34.417-.343-18.004-.374-18.222-3.344-23.665-2.298-4.212-4.282-6.263-8.498-8.79l-5.5-3.297-22.576.29-22.577.291-4.227 2.8c-2.325 1.54-5.572 4.914-7.216 7.5l-2.99 4.7.293 23.5.293 23.5 2.737 4c3.163 4.624 8.343 8.416 13.008 9.523 5.266 1.25 38.345 1.11 43.483-.185zm101.925-1.559c5.042-2.696 10.044-8.542 11.362-13.279.536-1.925.976-12.402.98-23.282.005-21.904-.532-24.515-6.296-30.59-6.192-6.527-8.726-7.084-32.199-7.084-24.035 0-26.456.582-32.688 7.862-5.38 6.285-6.012 9.95-5.64 32.656.325 19.777.35 19.977 3.133 24.71 3.004 5.11 8.636 9.47 13.93 10.785 1.796.446 12.265.728 23.265.627 18.555-.17 20.3-.344 24.153-2.405zm98.902-.805c3.026-1.872 6.047-4.893 7.919-7.918l3.026-4.891.32-20.582c.195-12.446-.093-21.984-.728-24.128-1.445-4.882-7.657-11.853-12.536-14.069-3.528-1.602-6.79-1.842-25.056-1.842-18.185 0-21.536.244-25 1.822-5.144 2.342-11.072 8.932-12.428 13.813-1.444 5.2-1.392 41.067.066 45.422 1.417 4.23 5.22 9.432 8.438 11.54 5.976 3.917 9.321 4.367 30.505 4.11l20.581-.251 4.893-3.026zM85.5 192.064c-14.913-3.63-22.224-19.614-15.023-32.844 3.456-6.35 4.73-7.2 32.523-21.726 45.24-23.642 66.92-34.995 86.147-45.11 46.435-24.43 50.776-25.972 70.692-25.132 15.77.665 21.038 2.5 48.661 16.957 58.24 30.48 71.554 37.435 94 49.1 33.64 17.485 35.49 18.619 39.158 24.005 10.355 15.203-.141 35.02-18.55 35.02-6.818 0-3.933 1.43-118.108-58.577-40.684-21.382-40.415-21.264-48.5-21.21-7.827.054-8.525.36-46.5 20.407a11856.917 11856.917 0 0 1-43 22.543 17203.513 17203.513 0 0 0-46 24.088c-18.653 9.815-27.606 13.592-31.5 13.288-.55-.043-2.35-.406-4-.808zM509 1.5 506.5.07l2.75-.035C511.044.012 512 .522 512 1.5c0 1.789.129 1.789-3 0z"/><path style="fill:#303030" d="m99 419.25.002-27.75 2.848-6c3.383-7.125 10.131-13.686 17.588-17.1l5.29-2.422 132.886.261 132.886.261 4.974 2.448c6.639 3.267 12.549 9.36 16.107 16.606l2.919 5.946.32 27.75.321 27.75H99Zm26.962-87.162c-9.499-1.89-19.696-9.849-24.113-18.818-2.312-4.695-2.354-5.326-2.636-40.1l-.286-35.33 2.447-5.345c5.427-11.856 15.109-18.681 29.126-20.535 5.366-.71 48.833-.96 132-.759l124 .299 5.975 2.406c7.573 3.05 15.627 10.566 19.27 17.985l2.755 5.609v69.042l-3.26 6.621c-3.793 7.707-9.215 12.995-17.12 16.702l-5.62 2.635-129.5.146c-71.225.08-131.092-.17-133.038-.558zm54.107-21.684c6.948-2.042 11.182-5.274 14.659-11.188 2.752-4.683 2.774-4.863 3.093-25.365.303-19.477.196-20.94-1.89-25.788-2.765-6.43-9.393-12.438-15.382-13.946-2.443-.616-12.464-1.117-22.314-1.117-20.786 0-24.955.956-31.138 7.138-6.738 6.739-7.29 9.446-6.92 34.023.322 21.454.328 21.499 3.034 25.584 3.568 5.388 8.84 9.306 14.61 10.86 7.16 1.928 35.461 1.793 42.248-.201zm102.13-1.703c6.859-3.368 11.252-8.868 12.854-16.094.7-3.153 1-12.186.787-23.607-.378-20.298-1.133-23.231-7.498-29.136-6.392-5.928-8.2-6.337-29.607-6.69-23.029-.378-27.432.523-33.832 6.923-6.468 6.468-6.903 8.487-6.903 32.057 0 23.142.495 25.628 6.3 31.681 6.78 7.067 11.318 8.11 34.2 7.861 17.497-.19 18.16-.274 23.7-2.995zm92.559 1.952c7.15-1.855 12.473-5.825 15.658-11.676l2.689-4.94-.303-22.935-.302-22.936-3.03-4.31c-1.668-2.37-5.231-5.67-7.919-7.332l-4.887-3.024-20.104-.321c-18.53-.296-20.552-.154-25.808 1.813-6.932 2.593-12.141 8.212-14.275 15.396-1.779 5.992-2.055 34.816-.407 42.501.739 3.447 2.318 6.407 5.114 9.583 7.155 8.128 11.194 9.288 32.848 9.428 10.101.065 17.348-.371 20.726-1.247zM79.88 189.206c-7.728-4.037-11.393-10.218-11.343-19.128.044-7.75 2.653-13.636 7.704-17.375 1.792-1.328 13.272-7.654 25.509-14.058 12.238-6.405 32.263-16.883 44.5-23.285 12.238-6.402 31.25-16.378 42.25-22.168 47.34-24.92 49.464-25.716 68.5-25.656 17.689.056 22.503 1.767 59 20.967 7.975 4.195 25.3 13.286 38.5 20.202 13.2 6.916 32.325 16.96 42.5 22.32 10.175 5.36 22.638 11.814 27.695 14.343 5.058 2.528 10.87 6.068 12.917 7.865C452.968 166.715 443.448 192 423.017 192c-5.526 0-11.943-2.93-47.017-21.469-9.625-5.087-27.4-14.426-39.5-20.753-12.1-6.326-32.996-17.269-46.436-24.316-24.118-12.647-24.537-12.82-32.093-13.258l-7.657-.443-21.407 10.99a6568.865 6568.865 0 0 0-41.407 21.476c-30.406 15.942-63.505 33.25-78.214 40.9-15.802 8.22-20.289 8.842-29.406 4.079zM509.559 1.468C507.662.033 507.668 0 509.809 0c1.28 0 2.191.623 2.191 1.5 0 1.81-.007 1.81-2.441-.032z"/><path style="fill:#000" d="M99.212 418.75c.352-25.399.526-27.573 2.551-32.009 3.026-6.626 10.441-14.2 17.11-17.477l5.627-2.764h264l5.25 2.374c3.342 1.51 7.355 4.622 11.037 8.557 8.779 9.385 9.213 11.397 9.213 42.684V446H98.833Zm23.088-88.605c-9.626-3.34-16.213-9.387-20.623-18.933-2.065-4.469-2.194-6.337-2.5-36.212-.274-26.716-.075-32.42 1.31-37.563 2.858-10.605 12.408-20.498 22.856-23.673 3.258-.99 32.271-1.264 134.157-1.264h130l6.291 2.905c7.96 3.676 15.239 11.386 18.187 19.266 2.03 5.424 2.107 7.089 1.82 39.247-.285 32.094-.395 33.792-2.485 38.317-2.787 6.033-10.385 13.624-16.813 16.797l-5 2.468-131 .225c-124.013.213-131.277.129-136.2-1.58zm63.353-20.866c5.58-2.984 10.087-8.655 11.958-15.047 1.213-4.145 1.472-9.367 1.215-24.5-.368-21.734-1.016-24.057-8.623-30.93-6.358-5.744-9.21-6.302-32.203-6.302h-20.5l-5.254 2.911c-2.89 1.601-6.409 4.424-7.819 6.274-4.984 6.533-5.605 10.38-5.251 32.507.279 17.493.582 20.793 2.188 23.808 3.49 6.554 8.652 10.88 15.63 13.101 1.378.439 11.956.708 23.506.598 19.574-.185 21.282-.35 25.153-2.42zm94.599 1.294c6.039-2.155 10.394-6.151 13.42-12.315 2.818-5.737 2.828-5.831 2.828-25.758 0-22.738-.566-25.447-6.711-32.113-6.53-7.084-9.972-7.887-33.789-7.886-20.404 0-20.524.013-25.688 2.735-5.525 2.912-9.294 7.083-11.781 13.036-1.965 4.703-2.206 40.711-.315 47.112 1.505 5.094 9.876 13.762 14.784 15.309 5.259 1.657 42.537 1.563 47.252-.12zm97.838.056c5.738-2.051 10.616-6.398 13.361-11.907 2.49-4.997 2.549-5.598 2.54-26.168-.01-19.983-.13-21.31-2.358-26.095-2.518-5.408-7.005-9.795-12.633-12.353-5.17-2.35-43.87-2.328-49.073.027-5.64 2.553-10.473 7.408-13.05 13.11-2.241 4.957-2.377 6.37-2.377 24.757 0 16.2.297 20.27 1.755 24.047 2.155 5.583 9.127 12.616 14.353 14.478 5.28 1.882 42.282 1.963 47.482.104zM86.184 190.839c-5.787-1.016-10.305-3.963-13.795-9-2.578-3.72-2.889-5.002-2.889-11.917 0-7.005.288-8.156 3-11.977 3.475-4.897 6.546-6.769 37.5-22.856 28.568-14.847 73.086-38.085 83.5-43.585 40.498-21.39 43.163-22.422 60-23.213 20.103-.945 24.009.576 86.5 33.683 9.075 4.808 27.525 14.486 41 21.508 53.475 27.864 55.03 28.734 58.468 32.751 9.321 10.89 5.301 27.787-7.926 33.314-4.487 1.875-11.744 2.087-16.001.469-1.595-.607-12.156-5.97-23.47-11.92a23591.945 23591.945 0 0 0-44.071-23.1 14585.63 14585.63 0 0 1-42-22.044c-41.297-21.793-40.51-21.452-49.5-21.452h-8l-28 14.652c-113.567 59.43-122.83 64.177-126.462 64.82-1.946.344-5.48.285-7.854-.132zM509 1c-1.213-.784-1.07-.972.75-.985C510.988.007 512 .45 512 1c0 1.253-1.061 1.253-3 0z"/></svg>