<svg xmlns="http://www.w3.org/2000/svg" viewBox="0 0 192 192"><path d="M28.179 144.77c.022-31.154.026-31.236 1.769-33.714.961-1.366 3.28-3.291 5.153-4.278l3.406-1.794h114.986l3.406 1.794c1.873.987 4.192 2.912 5.153 4.278 1.743 2.478 1.747 2.56 1.769 33.714l.022 31.23h-4.706v-29.909c0-19.801-.282-30.452-.836-31.516-1.19-2.283-3.77-4.157-7.399-5.376-2.95-.99-6.231-1.053-54.902-1.053s-51.952.063-54.902 1.053c-3.629 1.219-6.209 3.093-7.399 5.376-.554 1.064-.836 11.715-.836 31.516V176h-4.706ZM38.89 98.422c-3.636-.806-7.281-3.201-9.059-5.951-1.534-2.374-1.673-3.532-1.661-13.862.012-10.611.115-11.403 1.764-13.5 2.27-2.886 6.659-5.429 10.482-6.074 3.961-.668 107.207-.668 111.168 0 3.823.645 8.212 3.188 10.482 6.074 1.653 2.103 1.751 2.869 1.742 13.636-.009 10.769-.11 11.552-1.811 13.975-1.027 1.463-3.239 3.303-5.143 4.278l-3.341 1.711-56.208.101c-30.914.056-57.2-.119-58.415-.388Zm111.699-2.927c1.466-.357 3.68-1.319 4.919-2.139 3.893-2.576 4.414-4.282 4.414-14.472 0-8.529-.148-9.519-1.765-11.821-.971-1.381-2.761-3.04-3.979-3.686-2.187-1.159-2.924-1.174-58.178-1.174s-55.991.015-58.178 1.174c-1.218.646-3.008 2.305-3.979 3.686-1.617 2.302-1.765 3.292-1.765 11.821 0 10.188.519 11.89 4.414 14.478 1.239.824 3.312 1.766 4.606 2.094 3.431.87 105.922.906 109.491.039ZM43.451 91.942c-1.294-.433-3.235-1.482-4.314-2.331-1.885-1.483-1.97-1.878-2.209-10.199-.238-8.297-.172-8.739 1.598-10.651 2.903-3.136 5.217-3.682 16.509-3.894 8.832-.166 10.409-.049 13.35.986 5.44 1.915 6.046 3.207 6.046 12.866 0 12.897-.94 13.636-17.647 13.862-8.047.109-11.609-.061-13.333-.639Zm22.49-4.001c3.036-1.447 3.784-3.339 3.784-9.565v-5.734l-2.666-1.94-2.667-1.939h-8.6c-7.363 0-8.882.161-10.56 1.121-3.136 1.794-3.925 3.954-3.623 9.925.243 4.801.488 5.572 2.191 6.889 1.055.816 2.996 1.728 4.314 2.027 3.729.845 15.494.327 17.827-.784Zm17.174 3.78c-5.174-1.919-5.906-3.311-6.209-11.813-.239-6.688-.079-7.914 1.338-10.244C80.655 65.7 83.956 64.795 96 64.795s15.345.905 17.756 4.869c1.417 2.33 1.577 3.556 1.338 10.244-.235 6.597-.484 7.808-1.895 9.206-3.025 2.998-5.919 3.604-17.199 3.604-8.159 0-10.733-.199-12.885-.997Zm21.435-3.219c4.506-1.369 5.175-2.652 5.175-9.928 0-6.398-.027-6.497-2.292-8.144-2.272-1.652-2.376-1.667-11.433-1.667s-9.161.015-11.433 1.667c-2.265 1.647-2.292 1.746-2.292 8.144 0 7.212.666 8.532 5.002 9.904 3.238 1.025 13.931 1.04 17.273.024Zm20.502 3.802c-2.574-.475-5.151-1.95-6.347-3.633-.841-1.182-1.136-3.773-1.136-9.952 0-9.659.606-10.951 6.046-12.866 2.941-1.035 4.518-1.152 13.35-.986 10.924.205 13.401.741 16.219 3.51 1.501 1.474 1.64 2.375 1.64 10.649 0 8.849-.042 9.071-1.961 10.584-3.31 2.609-6.083 3.117-16.642 3.044-5.298-.036-10.324-.194-11.169-.35Zm20.377-3.906c3.777-1.304 5.081-3.756 5.081-9.559 0-8.677-2.033-10.071-14.694-10.074-7.76-.002-8.111.053-10.588 1.661-2.541 1.651-2.563 1.71-2.826 7.633-.306 6.894.72 9.105 4.825 10.404 3.54 1.119 14.887 1.079 18.202-.065ZM21.49 55.893C17.402 54.39 16 52.408 16 48.127c0-5.083 1.184-6.121 11.373-9.979 4.529-1.715 16.176-6.151 25.882-9.858 9.706-3.708 21-7.989 25.098-9.515L85.804 16h20.392l6.667 2.48c3.666 1.363 15.49 5.84 26.274 9.947l26.667 10.153C174.775 41.993 176 43.14 176 48.127c0 2.912-.369 4.174-1.569 5.359-2.126 2.1-5.788 3.298-10.081 3.298-3.841 0-4.417-.199-41.291-14.276-24.57-9.379-26.137-9.904-28.326-9.487-1.029.196-10.341 3.591-20.694 7.545C31.724 56.725 31.551 56.785 27.55 56.771c-2.039-.007-4.766-.402-6.06-.878Zm18.334-6.041C91.689 30.046 91.891 29.975 96 29.975c4.109 0 4.311.071 56.176 19.877 5.877 2.244 11.607 4.08 12.733 4.08 1.15 0 3.161-.724 4.59-1.653 2.071-1.345 2.544-2.079 2.544-3.947 0-1.454-.546-2.733-1.491-3.492-1.31-1.053-9.901-4.456-44.748-17.724-23.431-8.922-21.055-8.263-29.804-8.263-8.749 0-6.373-.659-29.804 8.263C31.349 40.384 22.758 43.787 21.448 44.84c-.945.759-1.491 2.038-1.491 3.492 0 1.868.473 2.602 2.544 3.947 1.429.929 3.44 1.653 4.59 1.653 1.126 0 6.856-1.836 12.733-4.08Z"/></svg>