<svg xmlns="http://www.w3.org/2000/svg" viewBox="0 0 192 192"><path fill="none" stroke="#000" stroke-width="8" d="M32.112 114.182c0-5.583 6.439-10.109 14.38-10.109h99.016c7.941 0 14.38 4.526 14.38 10.109V172H32.112Z"/><path fill="none" stroke="#000" stroke-width="6" d="M50.601 67.245h12.325a9.248 9.248 0 0 1 9.245 9.244v3.175a9.248 9.248 0 0 1-9.245 9.244H50.601a9.247 9.247 0 0 1-6.537-2.707 9.247 9.247 0 0 1-2.707-6.537v-3.175c0-2.451.974-4.804 2.707-6.537a9.251 9.251 0 0 1 6.537-2.707m78.473 0h12.325c2.451 0 4.804.975 6.537 2.707a9.247 9.247 0 0 1 2.707 6.537v3.175a9.247 9.247 0 0 1-2.707 6.537 9.247 9.247 0 0 1-6.537 2.707h-12.325a9.247 9.247 0 0 1-9.245-9.244v-3.175a9.248 9.248 0 0 1 9.245-9.244m-39.237 0h12.326a9.248 9.248 0 0 1 9.244 9.244v3.175a9.248 9.248 0 0 1-9.244 9.244H89.837a9.245 9.245 0 0 1-9.244-9.244v-3.175a9.248 9.248 0 0 1 9.244-9.244"/><path fill="none" stroke="#000" stroke-width="6" d="M46.492 60.746h99.016c3.812 0 7.472 1.066 10.168 2.961 2.695 1.895 4.211 4.468 4.211 7.149v14.442c0 2.68-1.516 5.253-4.211 7.148-2.696 1.896-6.356 2.961-10.168 2.961H46.492c-3.812 0-7.472-1.065-10.168-2.961-2.695-1.895-4.212-4.468-4.212-7.148V70.856c0-2.681 1.517-5.254 4.212-7.149 2.696-1.895 6.356-2.961 10.168-2.961"/><path fill="none" stroke="#000" stroke-linecap="round" stroke-linejoin="round" stroke-width="8" d="M96 20c-4.743 0-9.486.794-13.806 2.383l-57.242 21.05c-1.438.529-2.653 1.315-3.522 2.278-.869.963-1.362 2.071-1.43 3.21-.067 1.14.293 2.273 1.045 3.283.752 1.011 1.87 1.865 3.24 2.476s2.945.958 4.566 1.006c1.622.047 3.232-.206 4.67-.735L90.763 33.9c3.289-1.209 7.185-1.209 10.474 0l57.242 21.051c1.438.529 3.048.782 4.67.735 1.621-.048 3.196-.395 4.566-1.006 1.37-.611 2.488-1.465 3.24-2.476.752-1.01 1.112-2.143 1.045-3.283-.068-1.139-.561-2.247-1.43-3.21-.869-.963-2.084-1.749-3.522-2.278l-57.242-21.05C105.486 20.794 100.743 20 96 20Z"/></svg>