<svg
    xmlns="http://www.w3.org/2000/svg"
    viewBox="0 0 192 192"
    id="vector">
    <path
        id="path"
        d="M 29.183 164.462 C 29.332 153.708 29.406 152.788 30.263 150.91 C 31.544 148.104 34.684 144.897 37.508 143.51 L 39.89 142.34 L 151.668 142.34 L 153.891 143.345 C 155.306 143.984 157.005 145.302 158.564 146.968 C 162.281 150.941 162.464 151.793 162.464 165.04 L 162.464 176 L 29.023 176 Z M 38.959 126.947 C 34.883 125.533 32.094 122.972 30.227 118.931 C 29.352 117.039 29.298 116.248 29.168 103.599 C 29.052 92.287 29.136 89.872 29.723 87.694 C 30.933 83.204 34.976 79.015 39.4 77.671 C 40.78 77.252 53.064 77.136 96.202 77.136 L 151.244 77.136 L 153.908 78.366 C 157.278 79.922 160.36 83.187 161.608 86.523 C 162.468 88.82 162.5 89.525 162.379 103.14 C 162.258 116.729 162.212 117.448 161.327 119.364 C 160.147 121.918 156.93 125.132 154.208 126.476 L 152.091 127.521 L 96.626 127.616 C 44.119 127.706 41.043 127.671 38.959 126.947 Z M 65.782 118.112 C 68.145 116.849 70.053 114.448 70.845 111.741 C 71.359 109.986 71.468 107.775 71.36 101.368 C 71.204 92.166 70.929 91.182 67.709 88.272 C 65.017 85.84 63.809 85.604 54.074 85.604 L 45.394 85.604 L 43.17 86.837 C 41.946 87.514 40.456 88.71 39.859 89.493 C 37.749 92.259 37.486 93.888 37.636 103.256 C 37.754 110.663 37.882 112.06 38.562 113.337 C 40.04 116.112 42.225 117.943 45.18 118.884 C 45.763 119.07 50.242 119.183 55.132 119.137 C 63.42 119.059 64.143 118.989 65.782 118.112 Z M 105.835 118.66 C 108.392 117.748 110.236 116.056 111.517 113.446 C 112.711 111.017 112.715 110.977 112.715 102.54 C 112.715 92.913 112.475 91.766 109.873 88.943 C 107.109 85.944 105.651 85.604 95.567 85.604 C 86.928 85.604 86.877 85.61 84.691 86.762 C 82.352 87.995 80.756 89.761 79.703 92.282 C 78.871 94.273 78.769 109.519 79.569 112.229 C 80.207 114.386 83.751 118.056 85.829 118.711 C 88.056 119.413 103.839 119.373 105.835 118.66 Z M 147.26 118.684 C 149.69 117.815 151.755 115.975 152.917 113.642 C 153.971 111.527 153.996 111.272 153.993 102.563 C 153.989 94.102 153.938 93.54 152.994 91.514 C 151.928 89.225 150.028 87.367 147.645 86.284 C 145.456 85.289 129.071 85.298 126.868 86.295 C 124.48 87.376 122.434 89.432 121.343 91.846 C 120.394 93.945 120.336 94.543 120.336 102.328 C 120.336 109.187 120.462 110.911 121.079 112.51 C 121.992 114.874 124.944 117.851 127.156 118.64 C 129.392 119.437 145.058 119.471 147.26 118.684 Z M 23.667 67.965 C 21.217 67.535 19.304 66.287 17.826 64.154 C 16.735 62.579 16.603 62.036 16.603 59.108 C 16.603 56.143 16.725 55.655 17.873 54.037 C 19.345 51.964 20.645 51.171 33.751 44.36 C 45.846 38.074 64.695 28.235 69.105 25.906 C 86.252 16.85 87.38 16.413 94.509 16.078 C 103.02 15.678 104.674 16.322 131.133 30.339 C 134.975 32.375 142.787 36.473 148.492 39.446 C 171.134 51.243 171.792 51.612 173.248 53.313 C 177.194 57.923 175.492 65.078 169.892 67.418 C 167.992 68.212 164.919 68.301 163.117 67.616 C 162.442 67.359 157.97 65.089 153.18 62.569 C 146.963 59.303 140.743 56.042 134.52 52.789 C 128.587 49.687 122.66 46.576 116.737 43.455 C 99.252 34.228 99.585 34.373 95.779 34.373 L 92.392 34.373 L 80.536 40.576 C 32.452 65.739 28.53 67.749 26.992 68.021 C 26.168 68.167 24.672 68.142 23.667 67.965 Z"
        fill="#000000"
        stroke-width="12"/>
</svg>
