<svg
    xmlns="http://www.w3.org/2000/svg"
    viewBox="0 0 192 192"
    id="vector">
    <g id="group">
        <path
            id="path_6"
            d="M 43.645 131.761 L 43.645 93.509 L 69.822 67.335 L 95.998 41.161 L 122.358 67.52 L 148.719 93.878 L 148.719 170.012 L 43.645 170.012 Z M 75.325 153.251 C 75.899 152.954 76.471 152.443 76.597 152.115 C 76.723 151.787 76.826 147.655 76.826 142.934 L 76.826 134.351 L 75.902 133.427 C 74.699 132.224 73.444 132.046 66.135 132.046 C 58.825 132.046 57.57 132.224 56.367 133.427 L 55.443 134.351 L 55.443 143.078 C 55.443 152.19 55.49 152.483 57.102 153.365 C 58.308 154.024 74.02 153.926 75.325 153.251 Z M 58.265 150.904 C 57.743 150.326 57.655 149.225 57.655 143.219 C 57.655 136.895 57.721 136.148 58.329 135.598 C 58.907 135.075 60.008 134.988 66.015 134.988 C 72.338 134.988 73.085 135.054 73.636 135.662 C 74.158 136.24 74.246 137.341 74.246 143.347 C 74.246 149.671 74.18 150.418 73.571 150.968 C 72.994 151.491 71.893 151.578 65.886 151.578 C 59.563 151.578 58.816 151.512 58.265 150.904 Z M 71.112 143.283 L 71.112 138.122 L 60.789 138.122 L 60.685 142.895 C 60.628 145.52 60.666 147.889 60.77 148.159 C 60.917 148.542 62.075 148.627 66.035 148.547 L 71.112 148.445 Z M 105.188 153.251 C 105.762 152.954 106.334 152.443 106.46 152.115 C 106.586 151.787 106.689 147.655 106.689 142.934 L 106.689 134.351 L 105.765 133.427 C 104.562 132.224 103.307 132.046 95.998 132.046 C 88.688 132.046 87.433 132.224 86.23 133.427 L 85.306 134.351 L 85.306 143.078 C 85.306 152.19 85.353 152.483 86.965 153.365 C 88.171 154.024 103.883 153.926 105.188 153.251 Z M 93.309 150.263 C 89.487 149.053 86.944 144.695 87.873 140.946 C 88.723 137.513 90.758 135.48 94.214 134.611 C 99.634 133.249 105.056 138.718 103.737 144.218 C 102.594 148.983 97.887 151.712 93.309 150.263 Z M 97.367 147.528 C 98.27 147.518 100.417 145.222 100.778 143.883 C 101.497 141.212 99.829 138.35 97.096 137.566 C 93.482 136.53 89.848 140.167 90.835 143.833 C 91.449 146.113 94.212 148.106 96.182 147.689 C 96.588 147.603 97.121 147.531 97.367 147.528 Z M 135.843 152.713 L 136.921 151.635 L 136.921 134.631 L 135.845 133.427 L 134.769 132.223 L 116.952 132.223 L 115.876 133.427 L 114.8 134.631 L 114.8 151.635 L 115.878 152.713 L 116.956 153.79 L 134.766 153.79 Z M 119.962 143.099 L 119.962 137.569 L 131.022 137.569 L 131.022 148.629 L 119.962 148.629 Z M 75.325 123.388 C 75.899 123.091 76.471 122.58 76.597 122.252 C 76.723 121.924 76.826 117.792 76.826 113.072 L 76.826 104.488 L 75.902 103.564 C 74.699 102.361 73.444 102.183 66.135 102.183 C 58.825 102.183 57.57 102.361 56.367 103.564 L 55.443 104.488 L 55.443 113.216 C 55.443 122.327 55.49 122.62 57.102 123.502 C 58.308 124.161 74.02 124.063 75.325 123.388 Z M 63.815 120.4 C 59.993 119.19 57.45 114.832 58.378 111.083 C 59.229 107.65 61.264 105.617 64.72 104.748 C 70.14 103.386 75.562 108.855 74.243 114.355 C 73.099 119.12 68.392 121.849 63.815 120.4 Z M 68.577 117.269 C 70.164 116.501 71.665 114.271 71.665 112.683 C 71.665 112.304 71.323 111.288 70.905 110.425 C 70.137 108.838 67.908 107.337 66.319 107.337 C 64.73 107.337 62.501 108.838 61.733 110.425 C 60.785 112.383 60.784 112.981 61.729 114.933 C 62.269 116.049 62.928 116.714 64.034 117.262 C 65.967 118.219 66.613 118.22 68.577 117.269 Z M 105.188 123.388 C 105.762 123.091 106.334 122.58 106.46 122.252 C 106.586 121.924 106.689 117.792 106.689 113.072 L 106.689 104.488 L 105.765 103.564 C 104.562 102.361 103.307 102.183 95.998 102.183 C 88.688 102.183 87.433 102.361 86.23 103.564 L 85.306 104.488 L 85.306 113.216 C 85.306 122.327 85.353 122.62 86.965 123.502 C 88.171 124.161 103.883 124.063 105.188 123.388 Z M 88.705 119.437 C 88.458 119.189 88.262 118.813 88.269 118.6 C 88.277 118.387 89.907 115.392 91.892 111.945 C 96.749 103.51 96.357 103.504 101.277 112.096 C 104.12 117.062 104.869 118.648 104.583 119.101 C 104.268 119.6 103.095 119.702 96.684 119.787 C 91.139 119.86 89.036 119.768 88.705 119.437 Z M 100.393 116.646 C 100.329 116.022 96.891 110.531 96.551 110.507 C 96.218 110.484 92.777 115.982 92.708 116.646 C 92.693 116.798 94.422 116.923 96.551 116.923 C 98.68 116.923 100.409 116.798 100.393 116.646 Z M 135.051 123.388 C 135.625 123.091 136.197 122.58 136.323 122.252 C 136.449 121.924 136.552 117.792 136.552 113.072 L 136.552 104.488 L 135.628 103.564 C 134.425 102.361 133.17 102.183 125.861 102.183 C 118.551 102.183 117.296 102.361 116.093 103.564 L 115.169 104.488 L 115.169 113.216 C 115.169 122.327 115.216 122.62 116.828 123.502 C 118.034 124.161 133.745 124.063 135.051 123.388 Z M 19.954 105.582 L 16 101.616 L 55.813 61.802 C 77.711 39.904 95.797 21.988 96.004 21.988 C 96.212 21.988 114.296 39.905 136.191 61.804 L 176 101.619 L 171.944 105.675 L 167.889 109.731 L 131.943 73.786 L 95.998 37.842 L 60.143 73.696 C 40.423 93.415 24.203 109.549 24.098 109.549 C 23.994 109.549 22.129 107.764 19.954 105.582 Z"
            fill="#000000"
            stroke-width="12"/>
    </g>
</svg>
