<svg xmlns="http://www.w3.org/2000/svg" viewBox="0 0 192 192"><path fill="none" stroke="#000" stroke-linecap="round" stroke-linejoin="round" stroke-width="8" d="M125.115 134.503h19.337a4.3 4.3 0 0 1 4.298 4.297v19.338a4.303 4.303 0 0 1-2.149 3.722 4.3 4.3 0 0 1-2.149.575h-19.337a4.3 4.3 0 0 1-3.722-2.148 4.3 4.3 0 0 1-.576-2.149V138.8a4.3 4.3 0 0 1 2.149-3.722 4.29 4.29 0 0 1 2.149-.575m-39.321 0h19.338a4.304 4.304 0 0 1 4.298 4.297v19.338a4.303 4.303 0 0 1-2.149 3.722 4.3 4.3 0 0 1-2.149.575H85.794a4.303 4.303 0 0 1-3.722-2.148 4.303 4.303 0 0 1-.575-2.149V138.8a4.3 4.3 0 0 1 2.148-3.722 4.3 4.3 0 0 1 2.149-.575m-39.32 0h19.338a4.306 4.306 0 0 1 3.038 1.259 4.306 4.306 0 0 1 1.259 3.038v19.338a4.295 4.295 0 0 1-4.297 4.297H46.474a4.295 4.295 0 0 1-4.297-4.297V138.8c0-.754.198-1.495.576-2.148a4.284 4.284 0 0 1 3.721-2.149m78.641-39.32h19.337a4.3 4.3 0 0 1 3.722 2.148 4.3 4.3 0 0 1 .576 2.149v19.338a4.3 4.3 0 0 1-2.149 3.722 4.3 4.3 0 0 1-2.149.575h-19.337a4.3 4.3 0 0 1-4.298-4.297V99.48a4.3 4.3 0 0 1 4.298-4.297m-39.321 0h19.338c1.139 0 2.233.453 3.039 1.258a4.308 4.308 0 0 1 1.259 3.039v19.338a4.3 4.3 0 0 1-4.298 4.297H85.794a4.3 4.3 0 0 1-3.722-2.148 4.3 4.3 0 0 1-.575-2.149V99.48a4.306 4.306 0 0 1 1.259-3.038 4.306 4.306 0 0 1 3.038-1.259M16.5 94.63 95.589 16.5 175.5 93.808"/><path d="m93.868 102.101-6.456 11.183a2.003 2.003 0 0 0 1.732 3h12.912a2.005 2.005 0 0 0 1.97-1.653 2.004 2.004 0 0 0-.238-1.347l-6.456-11.183a2.004 2.004 0 0 0-3.464 0Z"/><path fill="none" stroke="#000" stroke-linecap="round" stroke-linejoin="round" stroke-width="8" d="M27.066 84.193V175.5H163.25V81.958"/><path fill="none" stroke="#000" stroke-linecap="round" stroke-linejoin="round" stroke-width="8" d="M46.474 95.183h19.338c1.139 0 2.233.453 3.039 1.258a4.303 4.303 0 0 1 1.258 3.039v19.338a4.306 4.306 0 0 1-1.259 3.038 4.306 4.306 0 0 1-3.038 1.259H46.474a4.308 4.308 0 0 1-3.721-2.149 4.287 4.287 0 0 1-.576-2.148V99.48a4.295 4.295 0 0 1 4.297-4.297"/><path d="M56.016 100.5a8.51 8.51 0 0 0-5.01 1.614 8.506 8.506 0 0 0-3.099 4.255A8.501 8.501 0 0 0 62.011 115a8.503 8.503 0 0 0-5.995-14.5Zm-5.414 39.479h11a3.001 3.001 0 0 1 3 3v11a3.001 3.001 0 0 1-3 3h-11a3.001 3.001 0 0 1-3-3v-11a3.001 3.001 0 0 1 3-3m45.114.255a8.507 8.507 0 0 0-8.5 8.5 8.51 8.51 0 0 0 2.49 6.01 8.51 8.51 0 0 0 6.01 2.49 8.51 8.51 0 0 0 6.01-2.49 8.51 8.51 0 0 0 2.49-6.01 8.51 8.51 0 0 0-2.49-6.01 8.51 8.51 0 0 0-6.01-2.49Zm38.443-.799h2.117v1.826h.53c.877 0 1.588.613 1.588 1.369v3.194l-.466.402 1.737 2.592c1.175-.995 1.906-2.373 1.906-3.906h2.117c0 2.209-1.133 4.189-2.933 5.531l3.325 4.966.138 2.026-1.98-1.114-3.251-4.865a9.566 9.566 0 0 1-3.769.758 9.571 9.571 0 0 1-3.77-.758l-3.25 4.865-1.98 1.114.137-2.026 6.152-9.183-.466-.402v-3.194c0-.756.711-1.369 1.588-1.369h.53v-1.826m-1.652 10.433a7.152 7.152 0 0 0 2.711.52 7.17 7.17 0 0 0 2.71-.52l-1.546-2.309h-.01a1.83 1.83 0 0 1-2.309 0h-.01m1.165-4.473c-.585 0-1.059.409-1.059.913s.474.913 1.059.913c.584 0 1.058-.409 1.058-.913s-.474-.913-1.058-.913Z"/></svg>