<svg xmlns="http://www.w3.org/2000/svg" viewBox="0 0 192 192"><path d="M29.183 164.462c.149-10.754.223-11.674 1.08-13.552 1.281-2.806 4.421-6.013 7.245-7.4l2.382-1.17h111.778l2.223 1.005c1.415.639 3.114 1.957 4.673 3.623 3.717 3.973 3.9 4.825 3.9 18.072V176H29.023Zm9.776-37.515c-4.076-1.414-6.865-3.975-8.732-8.016-.875-1.892-.929-2.683-1.059-15.332-.116-11.312-.032-13.727.555-15.905 1.21-4.49 5.253-8.679 9.677-10.023 1.38-.419 13.664-.535 56.802-.535h55.042l2.664 1.23c3.37 1.556 6.452 4.821 7.7 8.157.86 2.297.892 3.002.771 16.617-.121 13.589-.167 14.308-1.052 16.224-1.18 2.554-4.397 5.768-7.119 7.112l-2.117 1.045-55.465.095c-52.507.09-55.583.055-57.667-.669Zm26.823-8.835c2.363-1.263 4.271-3.664 5.063-6.371.514-1.755.623-3.966.515-10.373-.156-9.202-.431-10.186-3.651-13.096-2.692-2.432-3.9-2.668-13.635-2.668h-8.68l-2.224 1.233c-1.224.677-2.714 1.873-3.311 2.656-2.11 2.766-2.373 4.395-2.223 13.763.118 7.407.246 8.804.926 10.081 1.478 2.775 3.663 4.606 6.618 5.547.583.186 5.062.299 9.952.253 8.288-.078 9.011-.148 10.65-1.025Zm40.053.548c2.557-.912 4.401-2.604 5.682-5.214 1.194-2.429 1.198-2.469 1.198-10.906 0-9.627-.24-10.774-2.842-13.597-2.764-2.999-4.222-3.339-14.306-3.339-8.639 0-8.69.006-10.876 1.158-2.339 1.233-3.935 2.999-4.988 5.52-.832 1.991-.934 17.237-.134 19.947.638 2.157 4.182 5.827 6.26 6.482 2.227.702 18.01.662 20.006-.051Zm41.425.024c2.43-.869 4.495-2.709 5.657-5.042 1.054-2.115 1.079-2.37 1.076-11.079-.004-8.461-.055-9.023-.999-11.049-1.066-2.289-2.966-4.147-5.349-5.23-2.189-.995-18.574-.986-20.777.011-2.388 1.081-4.434 3.137-5.525 5.551-.949 2.099-1.007 2.697-1.007 10.482 0 6.859.126 8.583.743 10.182.913 2.364 3.865 5.341 6.077 6.13 2.236.797 17.902.831 20.104.044ZM23.667 67.965c-2.45-.43-4.363-1.678-5.841-3.811-1.091-1.575-1.223-2.118-1.223-5.046 0-2.965.122-3.453 1.27-5.071 1.472-2.073 2.772-2.866 15.878-9.677 12.095-6.286 30.944-16.125 35.354-18.454 17.147-9.056 18.275-9.493 25.404-9.828 8.511-.4 10.165.244 36.624 14.261a3559.374 3559.374 0 0 0 17.359 9.107c22.642 11.797 23.3 12.166 24.756 13.867 3.946 4.61 2.244 11.765-3.356 14.105-1.9.794-4.973.883-6.775.198-.675-.257-5.147-2.527-9.937-5.047-6.217-3.266-12.437-6.527-18.66-9.78a6262.103 6262.103 0 0 1-17.783-9.334c-17.485-9.227-17.152-9.082-20.958-9.082h-3.387l-11.856 6.203C32.452 65.739 28.53 67.749 26.992 68.021c-.824.146-2.32.121-3.325-.056Z"/></svg>