<svg xmlns="http://www.w3.org/2000/svg" viewBox="0 0 192 192"><path d="M53.295 175.5c-5.597-.876-13.949-7.357-16.065-12.467-2.799-6.756-.867-12.221 6.279-17.761l6.045-4.687h24.05l6.73 5.377 6.73 5.376h31.977c28.991 0 32.219.193 34.567 2.07 5.387 4.305 1.123 10.38-7.285 10.38-3.126 0-4.394.701-5.136 2.839-1.026 2.957-6.492 4.741-10.831 3.537-1.306-.362-3.071-1.982-3.921-3.6-2.273-4.324-6.875-3.252-7.534 1.756-.672 5.113-2.723 6.786-8.318 6.786-4.869 0-7.595-3.073-7.595-8.562 0-2.573-.551-2.756-8.27-2.756-7.499 0-8.524.311-10.999 3.341-5.464 6.69-18.41 10.252-30.424 8.371Zm15.835-11.794c8.295-4.72 2.946-14.632-7.897-14.632-4.976 0-11.455 4.801-11.455 8.489 0 3.688 6.479 8.489 11.455 8.489 2.075 0 5.629-1.056 7.897-2.346Zm-20.917-38.4c-3.038-2.197-3.13-3.773-3.13-53.546 0-42.503.38-51.658 2.222-53.479 1.8-1.78 4.129-2.197 12.279-2.197 16.517 0 15.234-4.675 15.234 55.534v52.428l-3.478 1.762c-5.237 2.652-19.183 2.35-23.127-.502Zm85.479 1.093c-5.365-1.162-11.38-5.017-14.42-9.243-1.341-1.863-2.199-6.51-2.199-11.906v-8.851l-14.867-10.707c-11.411-8.219-14.868-11.414-14.868-13.746 0-2.322 3.508-5.601 14.868-13.896l14.867-10.858.006-9.329c.008-13.088 5.366-18.898 19.564-21.214 9.835-1.604 10.505-.177 9.904 21.087l-.521 18.472-10.789 7.86-10.789 7.861 10.003 7.482c5.501 4.116 10.483 8.358 11.07 9.428 1.731 3.156 1.449 34.134-.333 36.541-1.733 2.342-4.324 2.572-11.496 1.019Z"/></svg>