<svg xmlns="http://www.w3.org/2000/svg" viewBox="0 0 192 192"><path d="M37.22 132.604c-6.89-9.173-8.653-43.604-3.288-64.2 2.498-9.593 4.012-11.892 7.829-11.892 3.084 0 5.604 2.713 7.234 7.786 3.34 10.397 1.649 15.98-2.198 7.256-4.015-9.107-7.012-8.722-9.605 1.231-2.558 9.821-2.786 31.144-.47 43.843 1.951 10.693 7.949 12.455 10.006 2.939 1.417-6.551 4.239-8.325 4.239-2.664 0 6.244-3.657 15.959-6.888 18.299-1.748 1.267-4.835.098-6.859-2.598Zm58.584 1.176c-1.273-1.971-2.839-7.348-3.481-11.949-2.307-16.553 2.401-32.774 9.511-32.774 4.077 0 4.984-7.058 2.255-17.537-1.985-7.619-2.711-8.092-6.487-4.222-2.338 2.396-4.251 3.146-4.251 1.667 0-14.107 10.378-17.359 13.775-4.316 1.742 6.689 2.119 13.56 2.119 38.646 0 24.408-.318 30.51-1.589 30.51-1.178 0-1.59-4.746-1.59-18.306V97.193h-4.026c-4.335 0-6.57 5.665-6.57 16.65 0 7.322 2.051 11.826 5.385 11.826 1.118 0 2.032 1.831 2.032 4.068 0 2.238-.437 4.068-.973 4.068-.535 0-1.607.801-2.384 1.78-.776.979-2.452.167-3.726-1.805ZM16 95.055c0-35.081.192-38.998 1.854-37.78 1.543 1.131 1.907 6.655 2.164 32.843l.31 31.483h4.811c7.609 0 5.344 9.91-2.601 11.381L16 134.193Zm46.194 1.965c-1.599-20.456-2.654-38.165-2.345-39.353 1.559-5.985 3.501 4.613 5.289 28.865 1.092 14.813 2.385 26.933 2.873 26.933.488 0 1.408-7.78 2.045-17.289 2.359-35.232 2.7-37.63 5.354-37.63 2.23 0 2.77 3.209 4.367 25.918 1.002 14.255 2.108 27.016 2.457 28.358.995 3.818 2.221-6.208 3.747-30.619 1.259-20.145 3.298-30.474 4.845-24.536.31 1.188-.738 18.805-2.329 39.149-2.698 34.52-3.079 36.989-5.702 36.989-2.591 0-2.961-2.23-4.745-28.635-1.088-16.106-2.437-27.992-3.083-27.165-.632.809-1.901 13.237-2.821 27.618-1.466 22.92-2.004 26.299-4.358 27.369-2.528 1.148-2.858-.97-5.594-35.972Zm51.289-2.159c0-34.897.193-38.804 1.855-37.583 1.579 1.16 1.899 6.935 2.159 38.944.287 35.485.184 37.583-1.855 37.583-2.021 0-2.159-2.473-2.159-38.944Zm8.477 0c0-34.895.193-38.804 1.855-37.59 1.28.935 2.018 6.379 2.384 17.587l.529 16.233 3.622-17.289c1.991-9.509 4.494-17.29 5.562-17.29 2.554 0 2.458 5.085-.275 14.58-4.457 15.487-4.505 20.691-.378 41.389 3.79 19.005 3.81 19.311 1.39 20.712-1.664.963-2.977-1.619-4.069-8.003-.887-5.184-2.671-14.061-3.964-19.728l-2.35-10.303-.034 19.323c-.029 16.568-.335 19.323-2.153 19.323-1.971 0-2.119-2.712-2.119-38.944Zm21.192 0c0-34.897.193-38.804 1.855-37.583 1.579 1.16 1.899 6.935 2.159 38.944.287 35.485.184 37.583-1.855 37.583-2.022 0-2.159-2.473-2.159-38.944Zm7.643 1.361c.259-32.009.579-37.784 2.159-38.944 1.486-1.092 1.854 1.523 1.854 13.174 0 18.268 1.314 18.34 5.44.299 1.791-7.831 3.922-14.239 4.736-14.239 2.077 0 1.863 3.402-1.169 18.668-1.457 7.334-2.649 14.961-2.649 16.949 0 1.988 1.417 10.805 3.149 19.594 3.746 19.01 3.895 22.082 1.067 22.082-1.33 0-3.402-6.868-5.471-18.136-1.831-9.975-3.728-17.189-4.216-16.032s-.887 9.319-.887 18.136c0 13.419-.352 16.032-2.159 16.032-2.038 0-2.142-2.098-1.854-37.583Zm21.192 0c.259-32.009.579-37.784 2.159-38.944 1.661-1.221 1.854 2.686 1.854 37.583 0 36.471-.137 38.944-2.159 38.944-2.038 0-2.142-2.098-1.854-37.583Z"/></svg>