<svg
    xmlns="http://www.w3.org/2000/svg"
    viewBox="0 0 192 192"
    id="vector">
    <path
        id="path"
        d="M 37.22 132.604 C 30.33 123.431 28.567 89 33.932 68.404 C 36.43 58.811 37.944 56.512 41.761 56.512 C 44.845 56.512 47.365 59.225 48.995 64.298 C 52.335 74.695 50.644 80.278 46.797 71.554 C 42.782 62.447 39.785 62.832 37.192 72.785 C 34.634 82.606 34.406 103.929 36.722 116.628 C 38.673 127.321 44.671 129.083 46.728 119.567 C 48.145 113.016 50.967 111.242 50.967 116.903 C 50.967 123.147 47.31 132.862 44.079 135.202 C 42.331 136.469 39.244 135.3 37.22 132.604 Z M 95.804 133.78 C 94.531 131.809 92.965 126.432 92.323 121.831 C 90.016 105.278 94.724 89.057 101.834 89.057 C 105.911 89.057 106.818 81.999 104.089 71.52 C 102.104 63.901 101.378 63.428 97.602 67.298 C 95.264 69.694 93.351 70.444 93.351 68.965 C 93.351 54.858 103.729 51.606 107.126 64.649 C 108.868 71.338 109.245 78.209 109.245 103.295 C 109.245 127.703 108.927 133.805 107.656 133.805 C 106.478 133.805 106.066 129.059 106.066 115.499 L 106.066 97.193 L 102.04 97.193 C 97.705 97.193 95.47 102.858 95.47 113.843 C 95.47 121.165 97.521 125.669 100.855 125.669 C 101.973 125.669 102.887 127.5 102.887 129.737 C 102.887 131.975 102.45 133.805 101.914 133.805 C 101.379 133.805 100.307 134.606 99.53 135.585 C 98.754 136.564 97.078 135.752 95.804 133.78 Z M 16 95.055 C 16 59.974 16.192 56.057 17.854 57.275 C 19.397 58.406 19.761 63.93 20.018 90.118 L 20.328 121.601 L 25.139 121.601 C 32.748 121.601 30.483 131.511 22.538 132.982 L 16 134.193 Z M 62.194 97.02 C 60.595 76.564 59.54 58.855 59.849 57.667 C 61.408 51.682 63.35 62.28 65.138 86.532 C 66.23 101.345 67.523 113.465 68.011 113.465 C 68.499 113.465 69.419 105.685 70.056 96.176 C 72.415 60.944 72.756 58.546 75.41 58.546 C 77.64 58.546 78.18 61.755 79.777 84.464 C 80.779 98.719 81.885 111.48 82.234 112.822 C 83.229 116.64 84.455 106.614 85.981 82.203 C 87.24 62.058 89.279 51.729 90.826 57.667 C 91.136 58.855 90.088 76.472 88.497 96.816 C 85.799 131.336 85.418 133.805 82.795 133.805 C 80.204 133.805 79.834 131.575 78.05 105.17 C 76.962 89.064 75.613 77.178 74.967 78.005 C 74.335 78.814 73.066 91.242 72.146 105.623 C 70.68 128.543 70.142 131.922 67.788 132.992 C 65.26 134.14 64.93 132.022 62.194 97.02 Z M 113.483 94.861 C 113.483 59.964 113.676 56.057 115.338 57.278 C 116.917 58.438 117.237 64.213 117.497 96.222 C 117.784 131.707 117.681 133.805 115.642 133.805 C 113.621 133.805 113.483 131.332 113.483 94.861 Z M 121.96 94.861 C 121.96 59.966 122.153 56.057 123.815 57.271 C 125.095 58.206 125.833 63.65 126.199 74.858 L 126.728 91.091 L 130.35 73.802 C 132.341 64.293 134.844 56.512 135.912 56.512 C 138.466 56.512 138.37 61.597 135.637 71.092 C 131.18 86.579 131.132 91.783 135.259 112.481 C 139.049 131.486 139.069 131.792 136.649 133.193 C 134.985 134.156 133.672 131.574 132.58 125.19 C 131.693 120.006 129.909 111.129 128.616 105.462 L 126.266 95.159 L 126.232 114.482 C 126.203 131.05 125.897 133.805 124.079 133.805 C 122.108 133.805 121.96 131.093 121.96 94.861 Z M 143.152 94.861 C 143.152 59.964 143.345 56.057 145.007 57.278 C 146.586 58.438 146.906 64.213 147.166 96.222 C 147.453 131.707 147.35 133.805 145.311 133.805 C 143.289 133.805 143.152 131.332 143.152 94.861 Z M 150.795 96.222 C 151.054 64.213 151.374 58.438 152.954 57.278 C 154.44 56.186 154.808 58.801 154.808 70.452 C 154.808 88.72 156.122 88.792 160.248 70.751 C 162.039 62.92 164.17 56.512 164.984 56.512 C 167.061 56.512 166.847 59.914 163.815 75.18 C 162.358 82.514 161.166 90.141 161.166 92.129 C 161.166 94.117 162.583 102.934 164.315 111.723 C 168.061 130.733 168.21 133.805 165.382 133.805 C 164.052 133.805 161.98 126.937 159.911 115.669 C 158.08 105.694 156.183 98.48 155.695 99.637 C 155.207 100.794 154.808 108.956 154.808 117.773 C 154.808 131.192 154.456 133.805 152.649 133.805 C 150.611 133.805 150.507 131.707 150.795 96.222 Z M 171.987 96.222 C 172.246 64.213 172.566 58.438 174.146 57.278 C 175.807 56.057 176 59.964 176 94.861 C 176 131.332 175.863 133.805 173.841 133.805 C 171.803 133.805 171.699 131.707 171.987 96.222 Z"
        fill="#000000"
        stroke-width="12"/>
</svg>
