<svg
    xmlns="http://www.w3.org/2000/svg"
    viewBox="0 0 192 192"
    id="vector">
    <path
        id="path"
        d="M 96 16.5 C 96 16.5 33.394 53.404 18.389 106.864 C 3.383 160.324 82.068 175.5 96 175.5 M 19.677 102.356 L 81.493 128.91"
        fill="none"
        stroke="#000000"
        stroke-width="12"
        stroke-linecap="round"
        stroke-linejoin="round"/>
    <path
        id="path_1"
        d="M 96 85.262 L 81.494 105.178 L 81.494 173.57 M 42.577 62.776 L 96 85.259 M 96 16.5 C 96 16.5 158.606 53.404 173.611 106.864 C 188.616 160.324 109.933 175.5 96 175.5 M 172.324 102.356 L 110.508 128.91"
        fill="none"
        stroke="#000000"
        stroke-width="12"
        stroke-linecap="round"
        stroke-linejoin="round"/>
    <path
        id="path_2"
        d="M 96 85.262 L 110.507 105.178 L 110.507 173.57 M 149.424 62.776 L 96 85.259 M 96 85.262 L 96 16.5"
        fill="none"
        stroke="#000000"
        stroke-width="12"
        stroke-linecap="round"
        stroke-linejoin="round"/>
</svg>
