<svg xmlns="http://www.w3.org/2000/svg" viewBox="0 0 192 192"><path fill="none" stroke="#000" stroke-linecap="round" stroke-linejoin="round" stroke-width="12" d="M166.905 16.5H25.095a8.599 8.599 0 0 0-6.078 2.517 8.599 8.599 0 0 0-2.517 6.078v141.81c0 2.279.906 4.467 2.517 6.078a8.599 8.599 0 0 0 6.078 2.517h141.81a8.599 8.599 0 0 0 6.078-2.517 8.599 8.599 0 0 0 2.517-6.078V25.095a8.599 8.599 0 0 0-2.517-6.078 8.599 8.599 0 0 0-6.078-2.517ZM57.238 154.014V37.986"/><path fill="none" stroke="#000" stroke-linecap="round" stroke-linejoin="round" stroke-width="12" d="M57.324 37.986h48.517a28.978 28.978 0 0 1 20.412 8.544 28.978 28.978 0 0 1 8.423 20.463 28.977 28.977 0 0 1-8.423 20.463A28.974 28.974 0 0 1 105.841 96H57.324m0 0h48.517a28.974 28.974 0 0 1 20.412 8.544 28.977 28.977 0 0 1 8.423 20.463 28.971 28.971 0 0 1-14.445 25.105 28.974 28.974 0 0 1-14.476 3.902H57.324"/></svg>