<svg
    xmlns="http://www.w3.org/2000/svg"
    viewBox="0 0 192 192"
    id="vector">
    <path
        id="path"
        d="M 157.037 80.133 L 95.632 19.026 C 94.104 17.496 92.027 16.631 89.859 16.622 L 40.735 16.622 C 38.565 16.622 36.481 17.481 34.946 19.009 C 33.411 20.536 32.548 22.61 32.548 24.77 L 32.548 167.352 C 32.548 169.512 33.411 171.586 34.946 173.114 C 36.481 174.641 38.565 175.5 40.735 175.5 L 151.265 175.5 C 153.435 175.5 155.519 174.641 157.054 173.114 C 158.589 171.586 159.452 169.512 159.452 167.352 L 159.452 85.877 C 159.443 83.72 158.574 81.653 157.037 80.133 Z M 120.112 20.655 L 155.276 55.649 C 155.74 56.063 156.346 56.286 156.969 56.273 C 157.592 56.26 158.187 56.011 158.633 55.578 C 159.079 55.144 159.342 54.558 159.37 53.938 L 159.37 24.648 C 159.37 22.488 158.507 20.414 156.972 18.886 C 155.437 17.359 153.353 16.5 151.183 16.5 L 121.831 16.5 C 121.187 16.509 120.571 16.77 120.118 17.226 C 119.665 17.682 119.411 18.298 119.409 18.939 C 119.408 19.581 119.661 20.197 120.112 20.655 Z"
        fill="none"
        stroke="#000000"
        stroke-width="12"
        stroke-linecap="round"
        stroke-linejoin="round"/>
</svg>
