<svg xmlns="http://www.w3.org/2000/svg" viewBox="0 0 192 192"><path d="M157.037 80.133 95.632 19.026a8.209 8.209 0 0 0-5.773-2.404H40.735a8.21 8.21 0 0 0-5.789 2.387 8.129 8.129 0 0 0-2.398 5.761v142.582c0 2.16.863 4.234 2.398 5.762a8.212 8.212 0 0 0 5.789 2.386h110.53c2.17 0 4.254-.859 5.789-2.386a8.133 8.133 0 0 0 2.398-5.762V85.877a8.128 8.128 0 0 0-2.415-5.744Zm-36.925-59.478 35.164 34.994a2.467 2.467 0 0 0 3.357-.071c.446-.434.709-1.02.737-1.64v-29.29c0-2.16-.863-4.234-2.398-5.762a8.212 8.212 0 0 0-5.789-2.386h-29.352c-.644.009-1.26.27-1.713.726a2.442 2.442 0 0 0-.709 1.713 2.44 2.44 0 0 0 .703 1.716Z" fill="none" stroke="#000" stroke-width="12" stroke-linecap="round" stroke-linejoin="round"/></svg>