<svg xmlns="http://www.w3.org/2000/svg" viewBox="0 0 192 192"><path d="M167.835 75.277a398.696 398.696 0 0 0 1.142-43.103 516.454 516.454 0 0 0-139.39 0 289.017 289.017 0 0 0 .652 43.103m15.819 50.832c10.518 17.667 27.437 34.679 53.204 38.441a74.279 74.279 0 0 0 31.394-12.9 74.58 74.58 0 0 0 22.421-25.541M16.5 82.433v34.924h17.408m7.869-22.696v22.696m13.046-14.395a8.768 8.768 0 0 1 2.557-6.186 8.712 8.712 0 0 1 6.168-2.562c2.312 0 4.532.922 6.168 2.562a8.767 8.767 0 0 1 2.556 6.186v5.685c0 2.32-.921 4.546-2.556 6.186a8.715 8.715 0 0 1-6.168 2.562 8.712 8.712 0 0 1-6.168-2.562 8.766 8.766 0 0 1-2.557-6.186m0 8.71V82.433m27.438 20.529a8.807 8.807 0 0 1 2.567-6.176 8.757 8.757 0 0 1 6.157-2.575m-8.724 0v23.146m33.553-4.334a8.418 8.418 0 0 1-3.099 3.18 8.377 8.377 0 0 1-4.28 1.154 8.712 8.712 0 0 1-6.155-2.548 8.768 8.768 0 0 1-2.57-6.162v-5.685a8.783 8.783 0 0 1 1.441-5.447 8.737 8.737 0 0 1 4.454-3.436 8.704 8.704 0 0 1 5.618 0 8.733 8.733 0 0 1 4.454 3.436 8.77 8.77 0 0 1 1.441 5.447v3.068H99.71m49.657 11.327-11.334-34.924-11.741 34.924m3.913-11.777h15.248M175.5 82.433l-11.334 34.924-11.741-34.924" fill="none" stroke="#000" stroke-width="8" stroke-linecap="round" stroke-linejoin="round"/><path d="M41.777 81.534c-.811 0-1.589.323-2.162.898a3.075 3.075 0 0 0 0 4.337 3.053 3.053 0 0 0 2.162.899 3.064 3.064 0 0 0 2.917-2.118c.2-.617.2-1.282 0-1.899a3.064 3.064 0 0 0-2.917-2.117Z"/></svg>