<svg xmlns="http://www.w3.org/2000/svg" viewBox="0 0 192 192"><path fill="none" stroke="#000" stroke-width="8" d="M88.72 175.788c-3.59-.348-13.882-2.254-14.613-2.706-1.058-.654 1.227-5.203 3.475-6.918 3.327-2.537 3.727-2.591 18.811-2.522 13.229.06 13.855.098 15.48.945.932.485 2.265 1.363 2.963 1.95 1.413 1.189 3.576 5.244 3.25 6.094-.225.585-6.363 2.085-11.255 2.75-4.449.605-13.884.817-18.111.407Zm-34.919-11.721c-7.978-5-14.605-10.85-20.109-17.749-4.092-5.13-7.843-11.038-7.529-11.858.374-.973 4.618-2.004 7.263-1.764 3.415.309 6.076 1.843 8.88 5.118 3.89 4.543 6.318 6.996 10.577 10.688 5.201 4.509 6.252 6.365 6.251 11.039 0 2.409-.219 3.77-.815 5.07l-.815 1.777Zm79.725.31c-.451-1.016-.687-2.668-.691-4.836-.008-4.673 1.041-6.527 6.246-11.039 4.259-3.692 6.686-6.145 10.576-10.688 3.316-3.872 5.56-5.006 9.905-5.005 2.408 0 3.77.219 5.07.815l1.777.814-2.322 3.704c-4.717 7.527-10.112 13.782-16.459 19.08-3.95 3.298-11.934 8.698-12.859 8.698-.307 0-.866-.694-1.243-1.543Zm-42.688-25.655c-10.872-1.294-21.409-7.106-28.288-15.603-3.227-3.987-6.826-10.935-8.097-15.635C51.65 97.12 52.69 86.57 57.474 76.825c4.21-8.575 10.752-15.108 19.357-19.33 9.884-4.849 19.727-5.853 30.468-3.106 7.978 2.04 16.7 7.725 22.114 14.414 3.228 3.987 6.826 10.935 8.097 15.635 2.803 10.364 1.764 20.914-3.021 30.659-4.21 8.575-10.752 15.108-19.357 19.33-8.164 4.005-15.63 5.325-24.294 4.295Zm-71.922-20.814c-.384-.654-1.904-7.772-2.403-11.247-.644-4.491-.66-16.992-.026-20.988 1.066-6.721 2.25-11.595 2.875-11.835.87-.334 4.822 1.816 6.074 3.304.57.678 1.435 1.996 1.92 2.927.847 1.626.885 2.251.945 15.48.069 15.074.013 15.487-2.51 18.796-1.589 2.083-6.309 4.529-6.875 3.563Zm150.446-.948c-2.382-1.376-3.842-3.071-4.991-5.795-.706-1.675-.767-2.991-.718-15.616l.054-13.786 1.206-2.204c.663-1.212 1.858-2.741 2.655-3.398 1.743-1.437 4.851-2.703 5.343-2.177.464.498 1.916 6.939 2.541 11.277.846 5.865.646 17.459-.403 23.457-1.33 7.607-1.81 9.24-2.755 9.367-.438.059-1.758-.447-2.932-1.125ZM28.682 58.784c-3.378-1.108-3.351-.934-.789-5.027 4.971-7.941 10.836-14.585 17.731-20.086 5.13-4.092 11.039-7.843 11.858-7.529.974.374 2.005 4.619 1.765 7.263-.341 3.765-1.798 6.056-6.364 10.015-4.259 3.692-6.687 6.145-10.577 10.688-2.997 3.5-5.519 4.879-9.287 5.08-1.515.08-3.396-.095-4.337-.404Zm127.794.166c-2.775-.847-4.662-2.291-7.955-6.091-3.691-4.256-6.144-6.684-10.686-10.573-3.872-3.316-5.006-5.56-5.006-9.906.001-2.408.219-3.769.815-5.069l.815-1.777 3.704 2.321c7.977 5 14.605 10.849 20.108 17.749 4.078 5.112 7.844 11.038 7.531 11.852-.514 1.34-6.625 2.319-9.326 1.494ZM79.835 27.12c-1.298-.647-2.92-1.855-3.604-2.685-1.478-1.794-2.76-4.905-2.226-5.403.499-.466 6.949-1.919 11.277-2.539 4.491-.645 16.992-.66 20.988-.027 6.72 1.066 11.595 2.25 11.835 2.875.334.87-1.816 4.822-3.304 6.074-.678.571-1.996 1.434-2.928 1.919-1.629.847-2.231.882-15.685.921l-13.992.041Z"/></svg>