<svg
    xmlns="http://www.w3.org/2000/svg"
    viewBox="0 0 192 192"
    id="vector">
    <path
        id="path"
        d="M 88.72 175.788 C 85.13 175.44 74.838 173.534 74.107 173.082 C 73.049 172.428 75.334 167.879 77.582 166.164 C 80.909 163.627 81.309 163.573 96.393 163.642 C 109.622 163.702 110.248 163.74 111.873 164.587 C 112.805 165.072 114.138 165.95 114.836 166.537 C 116.249 167.726 118.412 171.781 118.086 172.631 C 117.861 173.216 111.723 174.716 106.831 175.381 C 102.382 175.986 92.947 176.198 88.72 175.788 Z M 53.801 164.067 C 45.823 159.067 39.196 153.217 33.692 146.318 C 29.6 141.188 25.849 135.28 26.163 134.46 C 26.537 133.487 30.781 132.456 33.426 132.696 C 36.841 133.005 39.502 134.539 42.306 137.814 C 46.196 142.357 48.624 144.81 52.883 148.502 C 58.084 153.011 59.135 154.867 59.134 159.541 C 59.134 161.95 58.915 163.311 58.319 164.611 L 57.504 166.388 Z M 133.526 164.377 C 133.075 163.361 132.839 161.709 132.835 159.541 C 132.827 154.868 133.876 153.014 139.081 148.502 C 143.34 144.81 145.767 142.357 149.657 137.814 C 152.973 133.942 155.217 132.808 159.562 132.809 C 161.97 132.809 163.332 133.028 164.632 133.624 L 166.409 134.438 L 164.087 138.142 C 159.37 145.669 153.975 151.924 147.628 157.222 C 143.678 160.52 135.694 165.92 134.769 165.92 C 134.462 165.92 133.903 165.226 133.526 164.377 Z M 90.838 138.722 C 79.966 137.428 69.429 131.616 62.55 123.119 C 59.323 119.132 55.724 112.184 54.453 107.484 C 51.65 97.12 52.69 86.57 57.474 76.825 C 61.684 68.25 68.226 61.717 76.831 57.495 C 86.715 52.646 96.558 51.642 107.299 54.389 C 115.277 56.429 123.999 62.114 129.413 68.803 C 132.641 72.79 136.239 79.738 137.51 84.438 C 140.313 94.802 139.274 105.352 134.489 115.097 C 130.279 123.672 123.737 130.205 115.132 134.427 C 106.968 138.432 99.502 139.752 90.838 138.722 Z M 18.916 117.908 C 18.532 117.254 17.012 110.136 16.513 106.661 C 15.869 102.17 15.853 89.669 16.487 85.673 C 17.553 78.952 18.737 74.078 19.362 73.838 C 20.232 73.504 24.184 75.654 25.436 77.142 C 26.006 77.82 26.871 79.138 27.356 80.069 C 28.203 81.695 28.241 82.32 28.301 95.549 C 28.37 110.623 28.314 111.036 25.791 114.345 C 24.202 116.428 19.482 118.874 18.916 117.908 Z M 169.362 116.96 C 166.98 115.584 165.52 113.889 164.371 111.165 C 163.665 109.49 163.604 108.174 163.653 95.549 L 163.707 81.763 L 164.913 79.559 C 165.576 78.347 166.771 76.818 167.568 76.161 C 169.311 74.724 172.419 73.458 172.911 73.984 C 173.375 74.482 174.827 80.923 175.452 85.261 C 176.298 91.126 176.098 102.72 175.049 108.718 C 173.719 116.325 173.239 117.958 172.294 118.085 C 171.856 118.144 170.536 117.638 169.362 116.96 Z M 28.682 58.784 C 25.304 57.676 25.331 57.85 27.893 53.757 C 32.864 45.816 38.729 39.172 45.624 33.671 C 50.754 29.579 56.663 25.828 57.482 26.142 C 58.456 26.516 59.487 30.761 59.247 33.405 C 58.906 37.17 57.449 39.461 52.883 43.42 C 48.624 47.112 46.196 49.565 42.306 54.108 C 39.309 57.608 36.787 58.987 33.019 59.188 C 31.504 59.268 29.623 59.093 28.682 58.784 Z M 156.476 58.95 C 153.701 58.103 151.814 56.659 148.521 52.859 C 144.83 48.603 142.377 46.175 137.835 42.286 C 133.963 38.97 132.829 36.726 132.829 32.38 C 132.83 29.972 133.048 28.611 133.644 27.311 L 134.459 25.534 L 138.163 27.855 C 146.14 32.855 152.768 38.704 158.271 45.604 C 162.349 50.716 166.115 56.642 165.802 57.456 C 165.288 58.796 159.177 59.775 156.476 58.95 Z M 79.835 27.12 C 78.537 26.473 76.915 25.265 76.231 24.435 C 74.753 22.641 73.471 19.53 74.005 19.032 C 74.504 18.566 80.954 17.113 85.282 16.493 C 89.773 15.848 102.274 15.833 106.27 16.466 C 112.99 17.532 117.865 18.716 118.105 19.341 C 118.439 20.211 116.289 24.163 114.801 25.415 C 114.123 25.986 112.805 26.849 111.873 27.334 C 110.244 28.181 109.642 28.216 96.188 28.255 L 82.196 28.296 Z"
        fill="none"
        stroke="#000000"
        stroke-width="8"/>
</svg>
