<svg xmlns="http://www.w3.org/2000/svg" viewBox="0 0 192 192"><path d="M27.83 21.432c-5.556 3.302-9.264 9.207-10.302 16.405-1.038 7.198.678 15.115 4.766 21.993C26.383 66.709 32.518 72 39.337 74.529c6.82 2.529 13.78 2.095 19.336-1.207 5.556-3.302 9.265-9.207 10.303-16.405 1.037-7.199-.678-15.115-4.767-21.994-4.088-6.878-10.223-12.169-17.043-14.698-6.82-2.529-13.78-2.095-19.336 1.207Zm75.898-3.616c-5.083 1.411-9.734 3.878-13.283 7.046-3.55 3.169-5.818 6.878-6.478 10.594-.66 3.716.321 7.251 2.802 10.095 2.482 2.845 6.337 4.855 11.012 5.741 4.675.885 9.933.603 15.016-.808s9.734-3.878 13.283-7.046c3.55-3.169 5.818-6.878 6.478-10.594.66-3.716-.321-7.251-2.802-10.095-2.482-2.844-6.338-4.854-11.013-5.74-4.674-.886-9.932-.604-15.015.807Zm-53.85 98.142c-1.198 14.338 4.227 28.653 15.071 39.769 10.844 11.115 26.241 18.142 42.774 19.523 16.534 1.38 32.883-2.997 45.42-12.16 12.538-9.163 20.262-22.38 21.46-36.719 1.198-14.338-4.228-28.654-15.072-39.769-10.844-11.115-26.24-18.142-42.774-19.523-16.533-1.38-32.882 2.997-45.42 12.16-12.537 9.163-20.262 22.38-21.459 36.719Z" fill="none" stroke="#000" stroke-width="12" stroke-linecap="round" stroke-linejoin="round"/></svg>