<svg
    xmlns="http://www.w3.org/2000/svg"
    viewBox="0 0 192 192"
    id="vector">
    <path
        id="path"
        d="M 28.492 175.502 C 27.956 175.18 27.522 174.708 27.253 174.153 C 26.847 173.313 26.84 173.079 26.842 160.134 C 26.846 139.502 27.538 121.449 29.029 103.075 C 30.189 88.787 30.946 83.496 33.012 75.251 C 35.436 65.58 39.37 55.561 43.679 48.084 C 52.826 32.212 65.754 21.751 81.029 17.861 C 92.377 14.972 104.459 15.457 115.519 19.245 C 120.326 20.891 127.159 24.655 131.174 27.869 C 141.27 35.95 148.711 46.571 154.36 60.965 C 157.881 69.936 160.491 80.148 161.576 89.203 C 162.713 98.688 163.828 113.475 164.461 127.449 C 164.978 138.898 165.156 147.34 165.158 160.53 C 165.159 173.09 165.153 173.313 164.744 174.157 C 164.467 174.729 164.049 175.179 163.488 175.507 L 162.647 176 L 143.344 175.999 C 124.206 175.998 124.034 175.995 123.371 175.591 C 121.979 174.742 110.727 166.092 109.943 165.269 C 108.815 164.082 108.174 162.988 107.592 161.255 C 107.102 159.796 107.097 159.703 107.097 153.027 C 107.097 148.342 107.032 146.275 106.884 146.275 C 106.766 146.275 106.075 146.621 105.348 147.044 C 103.15 148.322 100.49 149.597 99.048 150.062 C 97.187 150.663 94.812 150.664 92.952 150.063 C 91.467 149.583 88.319 148.057 86.364 146.869 C 85.683 146.456 85.076 146.168 85.014 146.229 C 84.953 146.291 84.902 149.365 84.902 153.06 C 84.902 159.701 84.896 159.797 84.407 161.255 C 83.826 162.985 83.186 164.079 82.056 165.273 C 81.11 166.272 68.889 175.524 68.138 175.809 C 67.829 175.927 60.273 175.999 48.476 175.998 L 29.317 175.996 L 28.492 175.502 Z M 71.012 164.916 C 76.556 160.762 77.217 160.194 77.558 159.292 C 77.695 158.927 77.766 155.697 77.762 149.978 L 77.756 141.222 L 75.746 139.835 C 71.847 137.145 66.699 133.224 65.526 132.051 C 63.94 130.465 62.877 128.858 61.512 125.98 C 55.726 113.781 52.256 98.524 52.426 86.033 C 52.451 84.234 52.408 82.573 52.332 82.341 C 52.164 81.83 52.783 78.223 53.687 74.44 C 54.889 69.409 57.037 63.479 59.278 59 C 60.356 56.846 62.526 53.088 62.632 53.194 C 62.673 53.235 62.482 53.929 62.208 54.736 C 61.095 58.008 60.009 63.333 59.502 68 C 59.261 70.226 59.156 80.565 59.373 80.782 C 59.433 80.843 61.211 80.67 63.324 80.398 C 77.912 78.525 89.695 77.674 98.605 77.85 L 103.291 77.943 L 103.434 77.096 C 103.679 75.643 103.833 68.847 103.698 65.424 C 103.463 59.479 102.154 51.908 100.565 47.308 C 100.342 46.664 100.195 46.102 100.237 46.06 C 100.336 45.96 101.41 47.897 102.821 50.721 C 105.495 56.072 107.656 62.318 109.073 68.792 C 109.58 71.105 110.466 76.835 110.466 77.796 C 110.466 78.298 110.553 78.503 110.769 78.503 C 111.158 78.503 116.678 79.057 117.629 79.191 L 118.352 79.293 L 118.568 78.053 C 119.37 73.445 119.125 64.372 118.085 60.172 C 117.875 59.325 120.867 65.439 121.672 67.502 C 122.774 70.327 123.807 73.91 124.337 76.743 C 124.943 79.983 124.942 79.979 125.629 80.048 C 125.954 80.08 128.628 80.419 131.57 80.8 C 137.66 81.59 138.31 81.793 139.103 83.146 C 139.564 83.933 139.596 84.164 139.596 86.754 C 139.596 97.911 136.629 111.756 131.839 122.959 C 129.582 128.234 128.469 130.094 126.302 132.205 C 125.116 133.362 119.433 137.657 115.674 140.239 L 114.243 141.222 L 114.237 149.978 C 114.233 155.698 114.304 158.927 114.442 159.292 C 114.783 160.194 115.444 160.762 120.988 164.916 L 126.258 168.866 L 158.038 168.866 L 157.996 161.088 C 157.859 135.645 156.625 110.026 154.646 91.545 C 153.341 79.364 149.745 66.947 144.355 56.011 C 135.013 37.057 121.964 26.415 104.605 23.593 C 100.959 23 93.578 22.852 89.757 23.294 C 77.722 24.688 68.417 29.28 59.919 38.017 C 52.705 45.436 46.897 55.492 42.592 68.017 C 39.81 76.113 38.147 83.616 37.256 92.1 C 35.318 110.548 34.144 135.374 34.003 160.89 L 33.959 168.866 L 65.742 168.866 Z M 97.49 142.905 C 101.002 141.696 108.454 136.941 117.477 130.148 C 122.251 126.555 122.734 125.973 124.65 121.504 C 128.486 112.556 131.145 101.533 131.891 91.489 C 132.024 89.688 132.096 88.179 132.05 88.135 C 131.817 87.913 118.707 86.358 111.952 85.751 C 98.438 84.538 88.674 84.731 72.22 86.54 C 67.11 87.102 60.073 88.017 59.948 88.135 C 59.82 88.258 60.307 94.369 60.641 96.833 C 61.893 106.06 64.667 115.866 68.131 123.301 C 69.431 126.092 70.184 126.887 74.823 130.369 C 83.725 137.05 90.925 141.639 94.513 142.92 C 95.805 143.381 96.11 143.38 97.49 142.905 Z M 94.082 135.697 C 92.186 135.077 90.6 133.576 89.592 131.448 C 89.061 130.328 88.965 129.896 88.965 128.638 C 88.965 127.418 89.044 127.041 89.407 126.533 C 90.243 125.36 90.702 125.27 95.818 125.27 C 100.091 125.27 100.495 125.3 101.286 125.683 C 102.631 126.334 103.034 127.063 103.034 128.841 C 103.034 130.116 102.943 130.516 102.402 131.615 C 101.498 133.452 100.556 134.462 99.057 135.2 C 97.546 135.943 95.47 136.151 94.082 135.697 Z M 69.686 112.438 C 67.616 108.037 66.977 105.769 66.993 102.877 C 67.033 96 70.758 92.005 76.738 92.426 C 81.715 92.777 84.583 96.199 84.85 102.106 C 85.004 105.497 84.274 108.319 82.152 112.54 L 81.331 114.172 L 70.502 114.172 Z M 80.934 106.321 C 81.932 105.363 81.353 103.474 79.982 103.212 C 79.31 103.084 78.261 103.516 77.982 104.036 C 77.708 104.549 77.708 105.564 77.982 106.077 C 78.261 106.598 79.32 107.043 79.948 106.903 C 80.221 106.842 80.664 106.581 80.934 106.321 Z M 75.783 102.879 C 77.92 101.789 78.456 98.904 76.852 97.129 C 75.113 95.204 71.873 95.67 70.815 97.999 C 69.357 101.209 72.672 104.466 75.783 102.879 Z M 109.671 112.141 C 109.138 111.024 108.363 109.129 107.949 107.93 C 107.21 105.79 107.196 105.698 107.204 102.877 C 107.211 100.263 107.26 99.862 107.756 98.44 C 109.091 94.613 111.488 92.692 115.262 92.426 C 120.085 92.086 123.551 94.649 124.622 99.347 C 125.554 103.435 124.992 106.821 122.512 112.042 L 121.501 114.172 L 110.639 114.172 Z M 120.465 106.732 C 121.567 106.209 121.924 104.726 121.148 103.893 C 120.61 103.316 119.876 103.043 119.27 103.195 C 118.606 103.362 117.798 104.377 117.798 105.045 C 117.798 105.899 118.792 106.962 119.65 107.026 C 119.743 107.033 120.11 106.9 120.465 106.732 Z M 115.677 103.005 C 116.535 102.647 117.526 101.484 117.825 100.485 C 118.113 99.523 117.841 98.195 117.182 97.352 C 116.004 95.843 113.851 95.477 112.224 96.509 C 110.853 97.378 110.181 99.135 110.662 100.594 C 110.965 101.509 111.955 102.655 112.741 102.997 C 113.523 103.338 114.873 103.342 115.677 103.005 Z"
        fill="#000000"
        stroke-width="12"/>
</svg>
