<svg xmlns="http://www.w3.org/2000/svg" viewBox="0 0 192 192"><path d="M28.492 175.502a3.223 3.223 0 0 1-1.239-1.349c-.406-.84-.413-1.074-.411-14.019.004-20.632.696-38.685 2.187-57.059 1.16-14.288 1.917-19.579 3.983-27.824 2.424-9.671 6.358-19.69 10.667-27.167 9.147-15.872 22.075-26.333 37.35-30.223 11.348-2.889 23.43-2.404 34.49 1.384 4.807 1.646 11.64 5.41 15.655 8.624 10.096 8.081 17.537 18.702 23.186 33.096 3.521 8.971 6.131 19.183 7.216 28.238 1.137 9.485 2.252 24.272 2.885 38.246.517 11.449.695 19.891.697 33.081.001 12.56-.005 12.783-.414 13.627a3.1 3.1 0 0 1-1.256 1.35l-.841.493-19.303-.001c-19.138-.001-19.31-.004-19.973-.408-1.392-.849-12.644-9.499-13.428-10.322-1.128-1.187-1.769-2.281-2.351-4.014-.49-1.459-.495-1.552-.495-8.228 0-4.685-.065-6.752-.213-6.752-.118 0-.809.346-1.536.769-2.198 1.278-4.858 2.553-6.3 3.018-1.861.601-4.236.602-6.096.001-1.485-.48-4.633-2.006-6.588-3.194-.681-.413-1.288-.701-1.35-.64-.061.062-.112 3.136-.112 6.831 0 6.641-.006 6.737-.495 8.195-.581 1.73-1.221 2.824-2.351 4.018-.946.999-13.167 10.251-13.918 10.536-.309.118-7.865.19-19.662.189l-19.159-.002-.825-.494Zm42.52-10.586c5.544-4.154 6.205-4.722 6.546-5.624.137-.365.208-3.595.204-9.314l-.006-8.756-2.01-1.387c-3.899-2.69-9.047-6.611-10.22-7.784-1.586-1.586-2.649-3.193-4.014-6.071-5.786-12.199-9.256-27.456-9.086-39.947.025-1.799-.018-3.46-.094-3.692-.168-.511.451-4.118 1.355-7.901 1.202-5.031 3.35-10.961 5.591-15.44 1.078-2.154 3.248-5.912 3.354-5.806.041.041-.15.735-.424 1.542-1.113 3.272-2.199 8.597-2.706 13.264-.241 2.226-.346 12.565-.129 12.782.06.061 1.838-.112 3.951-.384 14.588-1.873 26.371-2.724 35.281-2.548l4.686.093.143-.847c.245-1.453.399-8.249.264-11.672-.235-5.945-1.544-13.516-3.133-18.116-.223-.644-.37-1.206-.328-1.248.099-.1 1.173 1.837 2.584 4.661 2.674 5.351 4.835 11.597 6.252 18.071.507 2.313 1.393 8.043 1.393 9.004 0 .502.087.707.303.707.389 0 5.909.554 6.86.688l.723.102.216-1.24c.802-4.608.557-13.681-.483-17.881-.21-.847 2.782 5.267 3.587 7.33 1.102 2.825 2.135 6.408 2.665 9.241.606 3.24.605 3.236 1.292 3.305.325.032 2.999.371 5.941.752 6.09.79 6.74.993 7.533 2.346.461.787.493 1.018.493 3.608 0 11.157-2.967 25.002-7.757 36.205-2.257 5.275-3.37 7.135-5.537 9.246-1.186 1.157-6.869 5.452-10.628 8.034l-1.431.983-.006 8.756c-.004 5.72.067 8.949.205 9.314.341.902 1.002 1.47 6.546 5.624l5.27 3.95h31.78l-.042-7.778c-.137-25.443-1.371-51.062-3.35-69.543-1.305-12.181-4.901-24.598-10.291-35.534-9.342-18.954-22.391-29.596-39.75-32.418-3.646-.593-11.027-.741-14.848-.299-12.035 1.394-21.34 5.986-29.838 14.723-7.214 7.419-13.022 17.475-17.327 30-2.782 8.096-4.445 15.599-5.336 24.083-1.938 18.448-3.112 43.274-3.253 68.79l-.044 7.976h31.783Zm26.478-22.011c3.512-1.209 10.964-5.964 19.987-12.757 4.774-3.593 5.257-4.175 7.173-8.644 3.836-8.948 6.495-19.971 7.241-30.015.133-1.801.205-3.31.159-3.354-.233-.222-13.343-1.777-20.098-2.384-13.514-1.213-23.278-1.02-39.732.789-5.11.562-12.147 1.477-12.272 1.595-.128.123.359 6.234.693 8.698 1.252 9.227 4.026 19.033 7.49 26.468 1.3 2.791 2.053 3.586 6.692 7.068 8.902 6.681 16.102 11.27 19.69 12.551 1.292.461 1.597.46 2.977-.015Zm-3.408-7.208c-1.896-.62-3.482-2.121-4.49-4.249-.531-1.12-.627-1.552-.627-2.81 0-1.22.079-1.597.442-2.105.836-1.173 1.295-1.263 6.411-1.263 4.273 0 4.677.03 5.468.413 1.345.651 1.748 1.38 1.748 3.158 0 1.275-.091 1.675-.632 2.774-.904 1.837-1.846 2.847-3.345 3.585-1.511.743-3.587.951-4.975.497Zm-24.396-23.259c-2.07-4.401-2.709-6.669-2.693-9.561.04-6.877 3.765-10.872 9.745-10.451 4.977.351 7.845 3.773 8.112 9.68.154 3.391-.576 6.213-2.698 10.434l-.821 1.632H70.502Zm11.248-6.117c.998-.958.419-2.847-.952-3.109-.672-.128-1.721.304-2 .824-.274.513-.274 1.528 0 2.041.279.521 1.338.966 1.966.826.273-.061.716-.322.986-.582Zm-5.151-3.442c2.137-1.09 2.673-3.975 1.069-5.75-1.739-1.925-4.979-1.459-6.037.87-1.458 3.21 1.857 6.467 4.968 4.88Zm33.888 9.262a48.893 48.893 0 0 1-1.722-4.211c-.739-2.14-.753-2.232-.745-5.053.007-2.614.056-3.015.552-4.437 1.335-3.827 3.732-5.748 7.506-6.014 4.823-.34 8.289 2.223 9.36 6.921.932 4.088.37 7.474-2.11 12.695l-1.011 2.13h-10.862Zm10.794-5.409c1.102-.523 1.459-2.006.683-2.839-.538-.577-1.272-.85-1.878-.698-.664.167-1.472 1.182-1.472 1.85 0 .854.994 1.917 1.852 1.981.093.007.46-.126.815-.294Zm-4.788-3.727c.858-.358 1.849-1.521 2.148-2.52.288-.962.016-2.29-.643-3.133-1.178-1.509-3.331-1.875-4.958-.843-1.371.869-2.043 2.626-1.562 4.085.303.915 1.293 2.061 2.079 2.403.782.341 2.132.345 2.936.008Z"/></svg>