<svg xmlns="http://www.w3.org/2000/svg" viewBox="0 0 192 192"><path fill="none" stroke="#000" stroke-linecap="round" stroke-linejoin="round" stroke-width="12" d="M166.905 16.5H25.095a8.599 8.599 0 0 0-6.078 2.517 8.599 8.599 0 0 0-2.517 6.078v141.81a8.6 8.6 0 0 0 4.297 7.444 8.6 8.6 0 0 0 4.298 1.151h141.81a8.6 8.6 0 0 0 7.444-4.297 8.6 8.6 0 0 0 1.151-4.298V25.095a8.599 8.599 0 0 0-2.517-6.078 8.599 8.599 0 0 0-6.078-2.517Z"/><path fill="none" stroke="#000" stroke-linecap="round" stroke-linejoin="round" stroke-width="12" d="M96 31.541a64.468 64.468 0 0 0-37.888 12.31 64.473 64.473 0 0 0-23.417 32.23 64.48 64.48 0 0 0 0 39.838 64.473 64.473 0 0 0 23.417 32.23A64.468 64.468 0 0 0 96 160.459a64.482 64.482 0 0 0 45.58-18.879A64.482 64.482 0 0 0 160.459 96a64.482 64.482 0 0 0-18.879-45.58A64.482 64.482 0 0 0 96 31.541Z"/><path fill="none" stroke="#000" stroke-linecap="round" stroke-linejoin="round" stroke-width="12" d="M74.943 62.051a12.9 12.9 0 0 0-9.116 3.776 12.9 12.9 0 0 0-3.776 9.116 12.896 12.896 0 0 0 22.008 9.116 12.896 12.896 0 0 0 0-18.232 12.9 12.9 0 0 0-9.116-3.776Z"/><path fill="none" stroke="#000" stroke-linecap="round" stroke-linejoin="round" stroke-width="12" d="M96 53.027a42.976 42.976 0 0 0-40.87 56.252A42.976 42.976 0 0 0 96 138.973a42.976 42.976 0 0 0 40.87-56.252A42.976 42.976 0 0 0 96 53.027Z"/></svg>