<svg xmlns="http://www.w3.org/2000/svg" viewBox="0 0 192 192"><path fill="none" stroke="#000" stroke-linecap="round" stroke-linejoin="round" stroke-width="12" d="M114.156 52.636c-9.201 0-18.169 2.9-25.613 8.282A43.384 43.384 0 0 0 72.714 82.6a43.157 43.157 0 0 0 0 26.8 43.384 43.384 0 0 0 15.829 21.682 43.725 43.725 0 0 0 25.613 8.282 43.7 43.7 0 0 0 30.812-12.701A43.273 43.273 0 0 0 157.731 96a43.273 43.273 0 0 0-12.763-30.663 43.7 43.7 0 0 0-30.812-12.701Z"/><path fill="none" stroke="#000" stroke-linecap="round" stroke-linejoin="round" stroke-width="12" d="M114.147 175.5c-28.538-.003-54.907-15.156-69.175-39.75a79.164 79.164 0 0 1 0-79.5C59.24 31.656 85.609 16.503 114.147 16.5Z"/></svg>