<svg xmlns="http://www.w3.org/2000/svg" viewBox="0 0 192 192"><path d="M107.16 172.414c-5.906-5.637-12.682-13.507-11.993-13.931.081-.049 1.739-.525 3.685-1.057 4.878-1.333 15.154-6.44 19.683-9.782 5.975-4.408 12.273-10.743 15.572-15.663 5.659-8.439 9.134-16.607 10.805-25.394 1.117-5.874 1.115-18.186-.003-24.036-3.04-15.895-12.096-30.547-24.626-39.844-12.714-9.432-24.851-13.603-40.828-14.028-9.693-.258-16.737 1.086-27.599 5.265-1.521.585-2.779.932-2.796.771a814.89 814.89 0 0 0-.469-3.762c-.806-6.392-.972-14.169-.311-14.579.791-.492 126.475-.476 127.267.015.498.31.558 1.362.313 5.522-.787 13.345-2.837 30.57-4.871 40.911-1.868 9.501-6.778 28.799-7.992 31.409-.339.73-1.612 4.255-2.828 7.832-4.48 13.176-13.519 31.604-21.163 43.143-3.04 4.588-9.663 13.407-13.148 17.504-4.89 5.751-12.776 13.281-13.908 13.281-.708 0-2.245-1.148-4.79-3.577Zm-35.068-16.383c-24.635-2.958-45.206-19.186-52.823-41.673-2.282-6.736-2.943-10.333-3.216-17.501-.695-18.277 5.449-33.592 18.615-46.398 5.514-5.364 9.057-7.954 15.412-11.268 4.632-2.416 13.002-5.145 18.556-6.052 5.621-.917 15.515-.91 21.083.016 19.72 3.28 36.952 15.796 45.975 33.392 2.335 4.554 4.293 10.086 5.481 15.489 1.377 6.263 1.386 18.537.018 24.62-2.782 12.37-8.485 22.702-17.36 31.449-8.964 8.836-20.208 14.726-32.589 17.072-5.489 1.04-14.321 1.434-19.152.854Zm14.029-1.752c20.324-2.222 38.523-14.659 47.918-32.747 2.4-4.621 4.326-10.07 5.582-15.794 1.259-5.734 1.146-17.809-.222-23.802-5.607-24.55-24.888-42.773-49.836-47.099-5.759-.999-15.317-1.005-21.01-.013-26.357 4.594-46.69 25.293-50.46 51.366-.827 5.719-.292 16.579 1.083 21.974 3.001 11.778 8.968 21.88 17.724 30.004 9.549 8.861 21.613 14.452 34.75 16.105 4.226.532 9.639.534 14.471.006Zm-14.633-3.495c-12.468-1.569-24.025-7.196-33.222-16.173-6.808-6.646-11.458-14.005-14.373-22.751-3.862-11.583-3.507-26.608.892-37.764 6.12-15.524 19.185-27.957 35.261-33.555 11.418-3.976 25.315-4.092 37.127-.308 8.384 2.686 15.643 7.033 22.281 13.345 8.713 8.283 14.027 17.75 16.63 29.623 1.013 4.621 1.125 16.853.197 21.464-6.026 29.93-34.184 49.973-64.793 46.119Zm17.674-9.207c18.233-3.873 32.978-17.71 37.622-35.306 1.383-5.239 1.85-13.474 1.064-18.775-1.559-10.517-7.266-21.193-15.159-28.357-19.874-18.038-50.382-17.245-68.931 1.791-9.169 9.41-13.686 20.44-13.686 33.416 0 24.109 17.591 44.013 42.25 47.804 3.622.557 13.027.237 16.84-.573ZM72.35 131.276c-1.248-2.072-1.089-4.166.586-7.729 1.656-3.522 1.928-6.161.753-7.313-.663-.65-.854-.657-1.94-.071-1.523.822-3.025 3.701-3.427 6.568l-.311 2.214-.878-1.36c-.483-.748-1.047-1.36-1.254-1.36-.207 0-.441 1.025-.52 2.277l-.144 2.276-1.186-2.385c-1.043-2.096-1.222-2.266-1.479-1.409-.504 1.681-1.074 1.066-1.074-1.159 0-2.307.012-2.325 5.396-8.521 3.154-3.63 4.11-5.48 3.453-6.683-.569-1.043-2.265-1.144-3.702-.221-.558.358-1.873 1.814-2.923 3.234-1.571 2.126-2.045 2.511-2.683 2.176-.628-.33-1.163.037-2.812 1.93-1.12 1.285-2.037 2.738-2.037 3.23 0 .491.598 1.326 1.327 1.855.792.574 1.327 1.356 1.327 1.939 0 .537.199 1.097.443 1.244.243.148.436.793.428 1.435l-.014 1.167-.908-1.192c-.499-.656-1.239-1.193-1.644-1.194-.406-.001-1.128-.572-1.605-1.27-1.148-1.68-1.604-1.296-1.273 1.073.195 1.395.117 1.933-.281 1.933-.369 0-.491.5-.37 1.517.1.835.049 1.518-.114 1.518-.162 0-.845-.816-1.519-1.814-1.088-1.612-1.168-1.964-.722-3.174.717-1.944.653-2.048-.803-1.31-.718.363-1.701.661-2.186.661-.485 0-1.192.434-1.57.964l-.689.963v-1.158c0-1.41 1.505-3.086 3.483-3.876l1.467-.587-1.851-1.188c-1.018-.654-2.348-1.188-2.954-1.188-2.085 0-.781-1.08 1.591-1.317 1.95-.195 2.548-.074 3.676.741 1.667 1.206 2.145.991 4.959-2.238 1.978-2.27 2.069-2.478 1.398-3.205-.666-.722-.65-.838.222-1.607 1.495-1.32 3.563-4.478 3.41-5.207-.105-.496-1.382.125-5.006 2.436-9.584 6.111-14.12 7.642-16.702 5.638-.672-.521-1.113-1.118-.982-1.326.131-.208 3.965-2.856 8.519-5.884 10.407-6.918 11.045-7.62 5.097-5.602-7.062 2.397-14.44 3.092-17.352 1.635-1.58-.79-2.64-2.032-2.148-2.515.158-.154 3.037-1.049 6.398-1.988 10.798-3.016 12.083-3.426 12.083-3.855 0-.232-1.107-.421-2.459-.421-3.285 0-8.537-.82-10.01-1.563-1.342-.677-2.57-2.203-2.571-3.195 0-.573.986-.644 7.299-.525 5.827.11 7.292.023 7.264-.433-.018-.315-1.589-1.84-3.489-3.39-1.901-1.55-3.777-3.336-4.168-3.969-.777-1.255-.968-4.497-.29-4.908.233-.141 1.676.738 3.207 1.953 3.272 2.595 7.698 5.319 8.313 5.116.244-.081.119-.706-.289-1.444-2.447-4.415-2.555-4.758-2.57-8.167-.014-3.073.085-3.479 1.046-4.242.584-.464 1.277-.774 1.54-.688.262.086.946 1.361 1.52 2.835.903 2.317 1.368 2.89 3.438 4.237 2.808 1.827 2.951 2.015 3.261 4.291.197 1.442.423 1.76 1.343 1.886.608.084 2.041 1.009 3.184 2.056 1.142 1.047 2.804 2.243 3.692 2.659l1.615.754 1.283-1.408c1.062-1.164 1.284-1.791 1.284-3.622 0-1.919-.089-2.143-.664-1.675-.529.431-.797.431-1.327 0-1.027-.836-.79-1.301.664-1.301 1.409 0 1.609-.407.869-1.763-.346-.634-.933-.838-2.404-.838-2.188 0-4.215-.621-4.215-1.29 0-.245.902-.445 2.004-.445 1.398 0 2.083-.202 2.266-.669.401-1.025.071-1.093-2.613-.542-4.05.833-7.188-.417-6.331-2.524.315-.775.368-.767 1.009.158.605.873 1.043.976 4.161.976 3.067 0 3.485-.094 3.485-.785 0-.431-.281-1.16-.624-1.62-.614-.822-.66-.821-2.902.108l-2.279.944.138-.949c.181-1.251 4.039-2.765 8.765-3.44 3.279-.468 3.623-.44 5.447.453 2.379 1.165 5.833 1.281 7.011.235.76-.674.809-.661.809.203 0 .505-.689 1.595-1.532 2.421-1.784 1.749-2.235 3.083-1.599 4.723.494 1.274.953 1.42 2.276.727.705-.37.855-.306.855.366 0 1.046-1.24 2.13-2.654 2.319-.989.133-1.12.377-1.245 2.315-.179 2.791.196 4.692 1.154 5.852.663.802.938.863 2.039.452.701-.261 2.342-1.431 3.648-2.601 1.37-1.228 2.887-2.185 3.586-2.264 1.086-.123 1.214-.312 1.226-1.808.014-1.72.645-2.462 4.587-5.394.864-.643 1.679-1.912 2.299-3.578.528-1.42 1.197-2.582 1.487-2.582.927 0 2.37 1.901 2.675 3.525.38 2.018-.785 6.567-2.232 8.715-1.177 1.748-1.362 2.503-.613 2.503.676 0 5.974-3.439 8.584-5.571 1.212-.99 2.347-1.8 2.523-1.8.176 0 .455.704.62 1.565.452 2.361-.602 3.999-4.856 7.55-2.078 1.735-3.669 3.329-3.535 3.542.135.213 3.427.361 7.317.328 3.889-.032 7.176.044 7.303.169.357.349-1.176 2.677-2.158 3.278-1.248.764-7.041 1.779-10.157 1.779-1.88 0-2.6.152-2.473.525.098.289 4.046 1.606 8.773 2.927 4.726 1.321 8.843 2.559 9.148 2.753.838.531-.041 1.798-1.822 2.627-3.04 1.414-11.542.523-18.114-1.898-2.475-.912-3.328-.939-2.792-.088.139.22 4.04 2.907 8.67 5.97 4.629 3.064 8.417 5.818 8.417 6.122 0 .303-.63.871-1.4 1.261-2.965 1.503-6.828.132-15.837-5.621-2.79-1.781-5.227-3.145-5.416-3.03-.475.287.8 2.606 2.658 4.834 1.425 1.71 1.487 1.9.783 2.405-.694.497-.5.828 2.06 3.53l2.826 2.982 1.42-1.029c1.113-.807 1.873-1.003 3.514-.904 1.982.118 3.2.629 3.2 1.342 0 .176-.513.224-1.14.106-.74-.138-1.588.111-2.415.711-.701.508-1.482.924-1.735.924-.812 0-.492.799.436 1.088.493.153 1.61.92 2.482 1.703 1.254 1.125 1.52 1.626 1.273 2.389l-.312.966-.647-.905c-.356-.498-1.095-.905-1.643-.905s-1.382-.286-1.854-.637c-1.256-.931-1.556-.805-1.069.448.717 1.85.496 2.967-.899 4.541-1.307 1.475-1.326 1.481-1.064.333a2.694 2.694 0 0 0-.431-2.144c-.483-.678-.621-1.513-.45-2.734l.247-1.758-1.251 1.413c-.687.777-1.552 1.411-1.922 1.409-.369-.002-1.03.533-1.468 1.189l-.797 1.192.247-2.168c.205-1.792.517-2.394 1.801-3.469.854-.715 1.553-1.605 1.553-1.977 0-.521-2.099-3.273-4.243-5.564-.088-.094-.467.08-.844.387-.377.306-.747.48-.824.387a118.95 118.95 0 0 1-1.523-2.18c-1.87-2.714-3.851-4.277-5.419-4.277-.99 0-1.346.24-1.553 1.047-.408 1.592.814 3.64 4.686 7.854 3.795 4.131 4.67 5.876 4.192 8.362l-.306 1.598-.542-1.295-.541-1.295-1.281 2.596-1.282 2.596-.236-2.819-.237-2.818-.793 1.423c-.85 1.527-1.638 1.507-1.642-.04-.007-2.941-2.649-7.237-4.451-7.237-2.201 0-2.182 3.467.045 8.205 1.566 3.331 1.632 5.55.227 7.652-.914 1.368-1.38 1.085-1.728-1.048-.151-.929-.56-1.92-.908-2.204-.52-.422-.843-.165-1.794 1.425-1.901 3.18-2.104 3.202-3.989.418-1.515-2.237-1.722-2.393-2.243-1.695-.315.423-.705 1.531-.866 2.463-.16.932-.43 1.695-.6 1.695-.169 0-.675-.611-1.125-1.356Zm7.554-25.419c2.488-3.087 5.013-11.497 5.015-16.706v-1.639l-5.841.121-5.841.121.124 2.385c.287 5.471 2.241 12.092 4.479 15.173 1.103 1.519 1.248 1.557 2.064.545Zm-3.389-10.515v-4.769h2.654c2.064 0 2.654.144 2.654.65 0 .472-.495.65-1.799.65-1.701 0-1.791.065-1.658 1.193.121 1.035.358 1.21 1.798 1.327 2.392.194 2.273 1.383-.138 1.383-1.762 0-1.795.028-1.659 1.409.13 1.323.254 1.417 2.018 1.543 1.28.09 1.88.332 1.88.758 0 .481-.665.626-2.875.626h-2.875Zm-6.192-2.554c0-.535-.424-.923-1.217-1.114-2.27-.548-4.886-2.383-6.535-4.585-.904-1.206-1.569-2.239-1.479-2.295.089-.055.909-.433 1.822-.84.912-.406 1.658-.937 1.658-1.179 0-.657-1.881-.532-2.939.194-1.065.731-1.484.487-1.484-.865 0-1.006-1.547-3.239-2.243-3.239-.858 0-.376 2.576.722 3.855l1.132 1.319-1.09.268c-.6.148-1.542.74-2.094 1.316-.941.981-.951 1.047-.153 1.045.468-.002 1.421-.295 2.118-.651 1.693-.866 1.735-.854 2.689.728 1.504 2.496 3.973 4.816 6.218 5.843 2.682 1.227 2.875 1.24 2.875.2Zm19.737.175c2.114-.866 4.022-2.486 6.072-5.158.936-1.22 1.764-2.282 1.838-2.359.075-.077.742.167 1.483.542 2.953 1.497 3.676.289.785-1.31-1.401-.774-1.546-.987-.984-1.444.839-.682 1.745-3.336 1.352-3.959-.481-.764-2.369 1.282-2.679 2.904-.262 1.367-.323 1.407-1.211.798-.515-.354-1.538-.637-2.275-.629l-1.339.014 1.241 1.07c.683.589 1.529 1.07 1.88 1.07 1.267 0 .591 1.381-1.905 3.893-1.948 1.961-3.034 2.689-4.644 3.109-1.517.397-2.101.765-2.101 1.327 0 .945.445.969 2.487.132ZM77.038 66.508l1.314-1.084h-1.803c-1.811 0-2.031.213-1.535 1.482.353.902.478.877 2.024-.398Zm-4.062-7.09c0-.441-.497-1.72-1.105-2.841-.608-1.121-1.106-2.115-1.106-2.209 0-.093.985.232 2.19.723l2.19.892 1.653-1.336c1.758-1.421 1.751-1.422 4.008.514.939.806 1.04.809 2.875.081a731.22 731.22 0 0 1 2.505-.988c.334-.13.092.523-.543 1.464-.631.934-1.276 2.33-1.433 3.101l-.286 1.402H78.45c-5.032 0-5.474-.065-5.474-.803Z"/></svg>