<svg
    xmlns="http://www.w3.org/2000/svg"
    viewBox="0 0 192 192"
    id="vector">
    <g id="group">
        <path
            id="path"
            d="M 107.16 172.414 C 101.254 166.777 94.478 158.907 95.167 158.483 C 95.248 158.434 96.906 157.958 98.852 157.426 C 103.73 156.093 114.006 150.986 118.535 147.644 C 124.51 143.236 130.808 136.901 134.107 131.981 C 139.766 123.542 143.241 115.374 144.912 106.587 C 146.029 100.713 146.027 88.401 144.909 82.551 C 141.869 66.656 132.813 52.004 120.283 42.707 C 107.569 33.275 95.432 29.104 79.455 28.679 C 69.762 28.421 62.718 29.765 51.856 33.944 C 50.335 34.529 49.077 34.876 49.06 34.715 C 49.042 34.554 48.832 32.861 48.591 30.953 C 47.785 24.561 47.619 16.784 48.28 16.374 C 49.071 15.882 174.755 15.898 175.547 16.389 C 176.045 16.699 176.105 17.751 175.86 21.911 C 175.073 35.256 173.023 52.481 170.989 62.822 C 169.121 72.323 164.211 91.621 162.997 94.231 C 162.658 94.961 161.385 98.486 160.169 102.063 C 155.689 115.239 146.65 133.667 139.006 145.206 C 135.966 149.794 129.343 158.613 125.858 162.71 C 120.968 168.461 113.082 175.991 111.95 175.991 C 111.242 175.991 109.705 174.843 107.16 172.414 Z M 72.092 156.031 C 47.457 153.073 26.886 136.845 19.269 114.358 C 16.987 107.622 16.326 104.025 16.053 96.857 C 15.358 78.58 21.502 63.265 34.668 50.459 C 40.182 45.095 43.725 42.505 50.08 39.191 C 54.712 36.775 63.082 34.046 68.636 33.139 C 74.257 32.222 84.151 32.229 89.719 33.155 C 109.439 36.435 126.671 48.951 135.694 66.547 C 138.029 71.101 139.987 76.633 141.175 82.036 C 142.552 88.299 142.561 100.573 141.193 106.656 C 138.411 119.026 132.708 129.358 123.833 138.105 C 114.869 146.941 103.625 152.831 91.244 155.177 C 85.755 156.217 76.923 156.611 72.092 156.031 Z M 86.121 154.279 C 106.445 152.057 124.644 139.62 134.039 121.532 C 136.439 116.911 138.365 111.462 139.621 105.738 C 140.88 100.004 140.767 87.929 139.399 81.936 C 133.792 57.386 114.511 39.163 89.563 34.837 C 83.804 33.838 74.246 33.832 68.553 34.824 C 42.196 39.418 21.863 60.117 18.093 86.19 C 17.266 91.909 17.801 102.769 19.176 108.164 C 22.177 119.942 28.144 130.044 36.9 138.168 C 46.449 147.029 58.513 152.62 71.65 154.273 C 75.876 154.805 81.289 154.807 86.121 154.279 Z M 71.488 150.784 C 59.02 149.215 47.463 143.588 38.266 134.611 C 31.458 127.965 26.808 120.606 23.893 111.86 C 20.031 100.277 20.386 85.252 24.785 74.096 C 30.905 58.572 43.97 46.139 60.046 40.541 C 71.464 36.565 85.361 36.449 97.173 40.233 C 105.557 42.919 112.816 47.266 119.454 53.578 C 128.167 61.861 133.481 71.328 136.084 83.201 C 137.097 87.822 137.209 100.054 136.281 104.665 C 130.255 134.595 102.097 154.638 71.488 150.784 Z M 89.162 141.577 C 107.395 137.704 122.14 123.867 126.784 106.271 C 128.167 101.032 128.634 92.797 127.848 87.496 C 126.289 76.979 120.582 66.303 112.689 59.139 C 92.815 41.101 62.307 41.894 43.758 60.93 C 34.589 70.34 30.072 81.37 30.072 94.346 C 30.072 118.455 47.663 138.359 72.322 142.15 C 75.944 142.707 85.349 142.387 89.162 141.577 Z M 72.35 131.276 C 71.102 129.204 71.261 127.11 72.936 123.547 C 74.592 120.025 74.864 117.386 73.689 116.234 C 73.026 115.584 72.835 115.577 71.749 116.163 C 70.226 116.985 68.724 119.864 68.322 122.731 L 68.011 124.945 L 67.133 123.585 C 66.65 122.837 66.086 122.225 65.879 122.225 C 65.672 122.225 65.438 123.25 65.359 124.502 L 65.215 126.778 L 64.029 124.393 C 62.986 122.297 62.807 122.127 62.55 122.984 C 62.046 124.665 61.476 124.05 61.476 121.825 C 61.476 119.518 61.488 119.5 66.872 113.304 C 70.026 109.674 70.982 107.824 70.325 106.621 C 69.756 105.578 68.06 105.477 66.623 106.4 C 66.065 106.758 64.75 108.214 63.7 109.634 C 62.129 111.76 61.655 112.145 61.017 111.81 C 60.389 111.48 59.854 111.847 58.205 113.74 C 57.085 115.025 56.168 116.478 56.168 116.97 C 56.168 117.461 56.766 118.296 57.495 118.825 C 58.287 119.399 58.822 120.181 58.822 120.764 C 58.822 121.301 59.021 121.861 59.265 122.008 C 59.508 122.156 59.701 122.801 59.693 123.443 L 59.679 124.61 L 58.771 123.418 C 58.272 122.762 57.532 122.225 57.127 122.224 C 56.721 122.223 55.999 121.652 55.522 120.954 C 54.374 119.274 53.918 119.658 54.249 122.027 C 54.444 123.422 54.366 123.96 53.968 123.96 C 53.599 123.96 53.477 124.46 53.598 125.477 C 53.698 126.312 53.647 126.995 53.484 126.995 C 53.322 126.995 52.639 126.179 51.965 125.181 C 50.877 123.569 50.797 123.217 51.243 122.007 C 51.96 120.063 51.896 119.959 50.44 120.697 C 49.722 121.06 48.739 121.358 48.254 121.358 C 47.769 121.358 47.062 121.792 46.684 122.322 L 45.995 123.285 L 45.995 122.127 C 45.995 120.717 47.5 119.041 49.478 118.251 L 50.945 117.664 L 49.094 116.476 C 48.076 115.822 46.746 115.288 46.14 115.288 C 44.055 115.288 45.359 114.208 47.731 113.971 C 49.681 113.776 50.279 113.897 51.407 114.712 C 53.074 115.918 53.552 115.703 56.366 112.474 C 58.344 110.204 58.435 109.996 57.764 109.269 C 57.098 108.547 57.114 108.431 57.986 107.662 C 59.481 106.342 61.549 103.184 61.396 102.455 C 61.291 101.959 60.014 102.58 56.39 104.891 C 46.806 111.002 42.27 112.533 39.688 110.529 C 39.016 110.008 38.575 109.411 38.706 109.203 C 38.837 108.995 42.671 106.347 47.225 103.319 C 57.632 96.401 58.27 95.699 52.322 97.717 C 45.26 100.114 37.882 100.809 34.97 99.352 C 33.39 98.562 32.33 97.32 32.822 96.837 C 32.98 96.683 35.859 95.788 39.22 94.849 C 50.018 91.833 51.303 91.423 51.303 90.994 C 51.303 90.762 50.196 90.573 48.844 90.573 C 45.559 90.573 40.307 89.753 38.834 89.01 C 37.492 88.333 36.264 86.807 36.263 85.815 C 36.263 85.242 37.249 85.171 43.562 85.29 C 49.389 85.4 50.854 85.313 50.826 84.857 C 50.808 84.542 49.237 83.017 47.337 81.467 C 45.436 79.917 43.56 78.131 43.169 77.498 C 42.392 76.243 42.201 73.001 42.879 72.59 C 43.112 72.449 44.555 73.328 46.086 74.543 C 49.358 77.138 53.784 79.862 54.399 79.659 C 54.643 79.578 54.518 78.953 54.11 78.215 C 51.663 73.8 51.555 73.457 51.54 70.048 C 51.526 66.975 51.625 66.569 52.586 65.806 C 53.17 65.342 53.863 65.032 54.126 65.118 C 54.388 65.204 55.072 66.479 55.646 67.953 C 56.549 70.27 57.014 70.843 59.084 72.19 C 61.892 74.017 62.035 74.205 62.345 76.481 C 62.542 77.923 62.768 78.241 63.688 78.367 C 64.296 78.451 65.729 79.376 66.872 80.423 C 68.014 81.47 69.676 82.666 70.564 83.082 L 72.179 83.836 L 73.462 82.428 C 74.524 81.264 74.746 80.637 74.746 78.806 C 74.746 76.887 74.657 76.663 74.082 77.131 C 73.553 77.562 73.285 77.562 72.755 77.131 C 71.728 76.295 71.965 75.83 73.419 75.83 C 74.828 75.83 75.028 75.423 74.288 74.067 C 73.942 73.433 73.355 73.229 71.884 73.229 C 69.696 73.229 67.669 72.608 67.669 71.939 C 67.669 71.694 68.571 71.494 69.673 71.494 C 71.071 71.494 71.756 71.292 71.939 70.825 C 72.34 69.8 72.01 69.732 69.326 70.283 C 65.276 71.116 62.138 69.866 62.995 67.759 C 63.31 66.984 63.363 66.992 64.004 67.917 C 64.609 68.79 65.047 68.893 68.165 68.893 C 71.232 68.893 71.65 68.799 71.65 68.108 C 71.65 67.677 71.369 66.948 71.026 66.488 C 70.412 65.666 70.366 65.667 68.124 66.596 L 65.845 67.54 L 65.983 66.591 C 66.164 65.34 70.022 63.826 74.748 63.151 C 78.027 62.683 78.371 62.711 80.195 63.604 C 82.574 64.769 86.028 64.885 87.206 63.839 C 87.966 63.165 88.015 63.178 88.015 64.042 C 88.015 64.547 87.326 65.637 86.483 66.463 C 84.699 68.212 84.248 69.546 84.884 71.186 C 85.378 72.46 85.837 72.606 87.16 71.913 C 87.865 71.543 88.015 71.607 88.015 72.279 C 88.015 73.325 86.775 74.409 85.361 74.598 C 84.372 74.731 84.241 74.975 84.116 76.913 C 83.937 79.704 84.312 81.605 85.27 82.765 C 85.933 83.567 86.208 83.628 87.309 83.217 C 88.01 82.956 89.651 81.786 90.957 80.616 C 92.327 79.388 93.844 78.431 94.543 78.352 C 95.629 78.229 95.757 78.04 95.769 76.544 C 95.783 74.824 96.414 74.082 100.356 71.15 C 101.22 70.507 102.035 69.238 102.655 67.572 C 103.183 66.152 103.852 64.99 104.142 64.99 C 105.069 64.99 106.512 66.891 106.817 68.515 C 107.197 70.533 106.032 75.082 104.585 77.23 C 103.408 78.978 103.223 79.733 103.972 79.733 C 104.648 79.733 109.946 76.294 112.556 74.162 C 113.768 73.172 114.903 72.362 115.079 72.362 C 115.255 72.362 115.534 73.066 115.699 73.927 C 116.151 76.288 115.097 77.926 110.843 81.477 C 108.765 83.212 107.174 84.806 107.308 85.019 C 107.443 85.232 110.735 85.38 114.625 85.347 C 118.514 85.315 121.801 85.391 121.928 85.516 C 122.285 85.865 120.752 88.193 119.77 88.794 C 118.522 89.558 112.729 90.573 109.613 90.573 C 107.733 90.573 107.013 90.725 107.14 91.098 C 107.238 91.387 111.186 92.704 115.913 94.025 C 120.639 95.346 124.756 96.584 125.061 96.778 C 125.899 97.309 125.02 98.576 123.239 99.405 C 120.199 100.819 111.697 99.928 105.125 97.507 C 102.65 96.595 101.797 96.568 102.333 97.419 C 102.472 97.639 106.373 100.326 111.003 103.389 C 115.632 106.453 119.42 109.207 119.42 109.511 C 119.42 109.814 118.79 110.382 118.02 110.772 C 115.055 112.275 111.192 110.904 102.183 105.151 C 99.393 103.37 96.956 102.006 96.767 102.121 C 96.292 102.408 97.567 104.727 99.425 106.955 C 100.85 108.665 100.912 108.855 100.208 109.36 C 99.514 109.857 99.708 110.188 102.268 112.89 L 105.094 115.872 L 106.514 114.843 C 107.627 114.036 108.387 113.84 110.028 113.939 C 112.01 114.057 113.228 114.568 113.228 115.281 C 113.228 115.457 112.715 115.505 112.088 115.387 C 111.348 115.249 110.5 115.498 109.673 116.098 C 108.972 116.606 108.191 117.022 107.938 117.022 C 107.126 117.022 107.446 117.821 108.374 118.11 C 108.867 118.263 109.984 119.03 110.856 119.813 C 112.11 120.938 112.376 121.439 112.129 122.202 L 111.817 123.168 L 111.17 122.263 C 110.814 121.765 110.075 121.358 109.527 121.358 C 108.979 121.358 108.145 121.072 107.673 120.721 C 106.417 119.79 106.117 119.916 106.604 121.169 C 107.321 123.019 107.1 124.136 105.705 125.71 C 104.398 127.185 104.379 127.191 104.641 126.043 C 104.808 125.307 104.649 124.512 104.21 123.899 C 103.727 123.221 103.589 122.386 103.76 121.165 L 104.007 119.407 L 102.756 120.82 C 102.069 121.597 101.204 122.231 100.834 122.229 C 100.465 122.227 99.804 122.762 99.366 123.418 L 98.569 124.61 L 98.816 122.442 C 99.021 120.65 99.333 120.048 100.617 118.973 C 101.471 118.258 102.17 117.368 102.17 116.996 C 102.17 116.475 100.071 113.723 97.927 111.432 C 97.839 111.338 97.46 111.512 97.083 111.819 C 96.706 112.125 96.336 112.299 96.259 112.206 C 96.183 112.112 95.497 111.131 94.736 110.026 C 92.866 107.312 90.885 105.749 89.317 105.749 C 88.327 105.749 87.971 105.989 87.764 106.796 C 87.356 108.388 88.578 110.436 92.45 114.65 C 96.245 118.781 97.12 120.526 96.642 123.012 L 96.336 124.61 L 95.794 123.315 L 95.253 122.02 L 93.972 124.616 L 92.69 127.212 L 92.454 124.393 L 92.217 121.575 L 91.424 122.998 C 90.574 124.525 89.786 124.505 89.782 122.958 C 89.775 120.017 87.133 115.721 85.331 115.721 C 83.13 115.721 83.149 119.188 85.376 123.926 C 86.942 127.257 87.008 129.476 85.603 131.578 C 84.689 132.946 84.223 132.663 83.875 130.53 C 83.724 129.601 83.315 128.61 82.967 128.326 C 82.447 127.904 82.124 128.161 81.173 129.751 C 79.272 132.931 79.069 132.953 77.184 130.169 C 75.669 127.932 75.462 127.776 74.941 128.474 C 74.626 128.897 74.236 130.005 74.075 130.937 C 73.915 131.869 73.645 132.632 73.475 132.632 C 73.306 132.632 72.8 132.021 72.35 131.276 Z M 79.904 105.857 C 82.392 102.77 84.917 94.36 84.919 89.151 L 84.919 87.512 L 79.078 87.633 L 73.237 87.754 L 73.361 90.139 C 73.648 95.61 75.602 102.231 77.84 105.312 C 78.943 106.831 79.088 106.869 79.904 105.857 Z M 76.515 95.342 L 76.515 90.573 L 79.169 90.573 C 81.233 90.573 81.823 90.717 81.823 91.223 C 81.823 91.695 81.328 91.873 80.024 91.873 C 78.323 91.873 78.233 91.938 78.366 93.066 C 78.487 94.101 78.724 94.276 80.164 94.393 C 82.556 94.587 82.437 95.776 80.026 95.776 C 78.264 95.776 78.231 95.804 78.367 97.185 C 78.497 98.508 78.621 98.602 80.385 98.728 C 81.665 98.818 82.265 99.06 82.265 99.486 C 82.265 99.967 81.6 100.112 79.39 100.112 L 76.515 100.112 Z M 70.323 92.788 C 70.323 92.253 69.899 91.865 69.106 91.674 C 66.836 91.126 64.22 89.291 62.571 87.089 C 61.667 85.883 61.002 84.85 61.092 84.794 C 61.181 84.739 62.001 84.361 62.914 83.954 C 63.826 83.548 64.572 83.017 64.572 82.775 C 64.572 82.118 62.691 82.243 61.633 82.969 C 60.568 83.7 60.149 83.456 60.149 82.104 C 60.149 81.098 58.602 78.865 57.906 78.865 C 57.048 78.865 57.53 81.441 58.628 82.72 L 59.76 84.039 L 58.67 84.307 C 58.07 84.455 57.128 85.047 56.576 85.623 C 55.635 86.604 55.625 86.67 56.423 86.668 C 56.891 86.666 57.844 86.373 58.541 86.017 C 60.234 85.151 60.276 85.163 61.23 86.745 C 62.734 89.241 65.203 91.561 67.448 92.588 C 70.13 93.815 70.323 93.828 70.323 92.788 Z M 90.06 92.963 C 92.174 92.097 94.082 90.477 96.132 87.805 C 97.068 86.585 97.896 85.523 97.97 85.446 C 98.045 85.369 98.712 85.613 99.453 85.988 C 102.406 87.485 103.129 86.277 100.238 84.678 C 98.837 83.904 98.692 83.691 99.254 83.234 C 100.093 82.552 100.999 79.898 100.606 79.275 C 100.125 78.511 98.237 80.557 97.927 82.179 C 97.665 83.546 97.604 83.586 96.716 82.977 C 96.201 82.623 95.178 82.34 94.441 82.348 L 93.102 82.362 L 94.343 83.432 C 95.026 84.021 95.872 84.502 96.223 84.502 C 97.49 84.502 96.814 85.883 94.318 88.395 C 92.37 90.356 91.284 91.084 89.674 91.504 C 88.157 91.901 87.573 92.269 87.573 92.831 C 87.573 93.776 88.018 93.8 90.06 92.963 Z M 77.038 66.508 L 78.352 65.424 L 76.549 65.424 C 74.738 65.424 74.518 65.637 75.014 66.906 C 75.367 67.808 75.492 67.783 77.038 66.508 Z M 72.976 59.418 C 72.976 58.977 72.479 57.698 71.871 56.577 C 71.263 55.456 70.765 54.462 70.765 54.368 C 70.765 54.275 71.75 54.6 72.955 55.091 L 75.145 55.983 L 76.798 54.647 C 78.556 53.226 78.549 53.225 80.806 55.161 C 81.745 55.967 81.846 55.97 83.681 55.242 C 84.727 54.828 85.854 54.383 86.186 54.254 C 86.52 54.124 86.278 54.777 85.643 55.718 C 85.012 56.652 84.367 58.048 84.21 58.819 L 83.924 60.221 L 78.45 60.221 C 73.418 60.221 72.976 60.156 72.976 59.418 Z"
            fill="#000000"
            stroke-width="12"/>
    </g>
</svg>
