<svg xmlns="http://www.w3.org/2000/svg" viewBox="0 0 192 192"><path fill="none" stroke="#000" stroke-linecap="round" stroke-linejoin="round" stroke-width="12" d="M46.081 74.708c.877-3.262 5.446-11.367 9.978-10.565 5.753 1.019-4.134 40.885-4.134 40.885s23.59-41.235 28.374-40.447c4.248.703-12.24 40.231-7.858 41.284 4.382 1.054 23.609-38.211 27.013-36.843 3.143 1.263-8.694 35.317-2.436 36.981 5.06 1.346 25.206-38.108 25.206-38.108s-16.554 34.978-6.652 39.064c13.101 5.405 30.347-36.427 30.347-36.427s-19.272 46.267-21.494 51.782a28.274 28.274 0 0 0-.36 23.496"/><path fill="none" stroke="#000" stroke-linecap="round" stroke-linejoin="round" stroke-width="12" d="M96 16.5a79.529 79.529 0 0 0-56.215 23.285A79.529 79.529 0 0 0 16.5 96a79.529 79.529 0 0 0 23.285 56.215A79.529 79.529 0 0 0 96 175.5a79.529 79.529 0 0 0 56.215-23.285A79.529 79.529 0 0 0 175.5 96a79.529 79.529 0 0 0-23.285-56.215A79.529 79.529 0 0 0 96 16.5Z"/></svg>