<?xml version="1.0" encoding="UTF-8" standalone="no"?>
<svg
   width="192"
   height="192"
   viewBox="0 0 192 192"
   version="1.1"
   id="svg4"
   sodipodi:docname="massive.svg"
   inkscape:version="1.1.2 (b8e25be833, 2022-02-05)"
   xmlns:inkscape="http://www.inkscape.org/namespaces/inkscape"
   xmlns:sodipodi="http://sodipodi.sourceforge.net/DTD/sodipodi-0.dtd"
   xmlns="http://www.w3.org/2000/svg"
   xmlns:svg="http://www.w3.org/2000/svg">
  <defs
     id="defs8" />
  <sodipodi:namedview
     id="namedview6"
     pagecolor="#ffffff"
     bordercolor="#666666"
     borderopacity="1.0"
     inkscape:pageshadow="2"
     inkscape:pageopacity="0.0"
     inkscape:pagecheckerboard="0"
     showgrid="false"
     inkscape:zoom="3.7447917"
     inkscape:cx="96.133519"
     inkscape:cy="95.866481"
     inkscape:window-width="1280"
     inkscape:window-height="961"
     inkscape:window-x="-8"
     inkscape:window-y="-8"
     inkscape:window-maximized="1"
     inkscape:current-layer="svg4" />
  <path
     style="fill:#000000;fill-opacity:0;stroke:#000000;stroke-width:8;stroke-linecap:round;stroke-linejoin:round;stroke-dasharray:none;paint-order:stroke fill markers"
     d="m 159.84203,138.27304 -12.21093,14.29715 m 9.72976,-37.37876 c 0,0 2.12122,-2.8424 4.30271,-0.98054 l 1.31931,1.12679 c 0,0 1.93449,1.72454 -0.46132,4.52968 l -33.3589,39.05825 c 0,0 -1.69243,2.61289 -3.97441,0.6639 l -1.31931,-1.12679 c 0,0 -2.07121,-1.63222 5.3e-4,-4.05791 z m -8.78575,-24.510445 c 0,0 2.29704,-2.104385 4.3585,-0.343732 l 3.92446,3.351802 c 0,0 2.59381,1.702442 0.54286,4.103804 l -49.69772,58.188551 c 0,0 -2.22129,2.43604 -4.7177,0.3039 l -3.859825,-3.29659 c 0,0 -2.345595,-1.91917 -0.336203,-4.27186 2.010038,-2.35346 49.785628,-58.035875 49.785628,-58.035875 z M 44.260321,39.556933 32.049398,53.854087 M 67.53258,38.470833 c 0,0 2.475571,-2.539755 0.295377,-4.403132 l -1.319304,-1.126792 c 0,0 -2.005171,-1.640248 -4.400985,1.164889 l -33.3589,39.058254 c 0,0 -2.315963,2.080339 -0.03474,4.028683 l 1.319304,1.126792 c 0,0 1.936127,1.790377 4.007866,-0.635318 z m 25.385371,4.67445 c 0,0 1.719139,-2.597965 -0.343082,-4.359268 l -3.923694,-3.351151 c 0,0 -2.087245,-2.29556 -4.138851,0.106563 L 34.81526,93.729213 c 0,0 -2.058569,2.575028 0.437844,4.707166 l 3.859821,3.296601 c 0,0 2.262466,2.01649 4.271858,-0.33621 2.009392,-2.352691 49.533169,-58.251486 49.533168,-58.251487 z M 119.99769,123.36018 64.992202,76.381054 m 7.317115,-6.236031 52.928823,45.205477"
     fill="none"
     id="path2" />
</svg>
