<svg xmlns="http://www.w3.org/2000/svg" width="192" height="192" viewBox="0 0 192 192"><path fill="none" d="m159.842 138.273-12.21 14.297m9.729-37.379s2.121-2.842 4.303-.98l1.319 1.127s1.934 1.724-.461 4.53l-33.36 39.058s-1.692 2.613-3.974.664l-1.32-1.127s-2.07-1.632.001-4.058zm-8.786-24.51s2.297-2.104 4.359-.344l3.924 3.352s2.594 1.702.543 4.104l-49.698 58.188s-2.221 2.436-4.717.304l-3.86-3.296s-2.346-1.92-.337-4.272c2.01-2.354 49.786-58.036 49.786-58.036zM44.26 39.557 32.05 53.854m35.483-15.383s2.475-2.54.295-4.403l-1.32-1.127s-2.005-1.64-4.4 1.165l-33.36 39.058s-2.315 2.08-.034 4.029l1.32 1.127s1.935 1.79 4.007-.636zm25.385 4.674s1.72-2.598-.343-4.359l-3.924-3.351s-2.087-2.296-4.139.106L34.815 93.73s-2.058 2.575.438 4.707l3.86 3.297s2.262 2.016 4.272-.336c2.01-2.353 49.533-58.252 49.533-58.252zm27.08 80.215L64.992 76.381m7.317-6.236 52.93 45.206" style="fill:#000;fill-opacity:0;stroke:#000;stroke-width:8;stroke-linecap:round;stroke-linejoin:round;stroke-dasharray:none;paint-order:stroke fill markers"/></svg>