<svg width="24" height="24" fill="none" viewBox="0 0 24 24" xmlns="http://www.w3.org/2000/svg"><path d="M5.478 10.108c0-2.81 1.55-5.55 4.648-5.55 3.135 0 4.72 2.667 4.72 5.55 0 2.847-1.404 5.55-4.72 5.55-3.243 0-4.648-2.775-4.648-5.55zm-2.883 0c0 4.793 2.738 8.144 7.531 8.144 4.83 0 7.604-3.351 7.604-8.144C17.73 5.459 14.92 2 10.126 2 5.37 2 2.595 5.46 2.595 10.108zM17.045 22v-1.117c.576-.54 2.81-2.415 2.81-3.604 0-.612-.54-.9-1.045-.9-.576 0-1.117.252-1.55.54l-.107-1.117a4.695 4.695 0 0 1 1.982-.469c1.225 0 2.018.649 2.018 1.946 0 1.37-1.406 2.667-2.45 3.676h2.702V22h-4.36z" fill="#000"/></svg>