<svg width="24" height="24" fill="none" viewBox="0 0 24 24" xmlns="http://www.w3.org/2000/svg"><path d="M12.691 8.121c-2.104 0-3.81 1.734-3.81 3.879 0 2.143 1.706 3.879 3.81 3.879 2.109 0 3.817-1.736 3.817-3.879 0-2.145-1.708-3.879-3.817-3.879zm8.05.17-3.058 2.91V8.306h-.837v7.404h.845v-3.526l3.15 3.518H22l-3.61-4.032.024-.023L21.9 8.29zm-13.058.015L2 15.702h1.052l1.42-1.843h3.211v1.85h.837V8.307zm5.008.66c1.646 0 2.988 1.36 2.988 3.034 0 1.673-1.342 3.026-2.988 3.026-1.642 0-2.972-1.353-2.972-3.026 0-1.675 1.33-3.034 2.972-3.034zm.014.438-.614.668a.845.845 0 0 0-.215.56c0 .427.314.775.714.83v1.16l-.623-.36a.84.84 0 0 0-.337-1.084.806.806 0 0 0-.576-.092l-.884.215.27.876a.85.85 0 0 0 .375.46.807.807 0 0 0 1.045-.207l.73.43v.999h-1.867l.177.2h3.587l.169-.2h-1.859v-.999l.73-.43a.815.815 0 0 0 1.052.208.865.865 0 0 0 .377-.461l.269-.876-.884-.215a.802.802 0 0 0-.576.092.836.836 0 0 0-.338 1.076l-.63.368V11.47a.841.841 0 0 0 .523-1.398zm-5.023.277v3.402H5.071zm5.023.038.438.484a.602.602 0 0 1 .177.43.616.616 0 0 1-.615.622.619.619 0 0 1-.537-.922.456.456 0 0 1 .1-.13zm-1.475 1.559a.612.612 0 0 1 .3.085.636.636 0 0 1 .23.852.623.623 0 0 1-.845.238.615.615 0 0 1-.215-.215.632.632 0 0 1-.07-.153l-.183-.63.63-.154c.05-.012.1-.024.153-.023zm2.927 0c.056 0 .11.01.16.023l.63.154-.184.63a.655.655 0 0 1-.284.368.623.623 0 0 1-.844-.238.636.636 0 0 1 .23-.852.595.595 0 0 1 .292-.085z" fill="#000"/></svg>