<svg xmlns="http://www.w3.org/2000/svg" viewBox="0 0 192 192"><path d="M65.433 65.177c1.978 0 3.582-1.162 3.582-2.597v-2.77c0-1.435-1.604-2.598-3.582-2.598-1.978 0-3.582 1.163-3.582 2.598v2.77c0 1.435 1.603 2.597 3.582 2.597Zm61.134 0c1.978 0 3.582-1.162 3.582-2.597v-2.77c0-1.435-1.604-2.598-3.582-2.598-1.978 0-3.582 1.163-3.582 2.598v2.77c0 1.435 1.603 2.597 3.582 2.597Z"/><path d="M168.358 132.445v-23.366c4.437-1.087 7.642-4.131 7.642-7.711 0-4.488-5.035-8.139-11.224-8.139h-16.291c5.17-3.51 8.411-8.497 8.411-14.026V51.498c0-10.599-11.892-19.221-26.508-19.221h-11.701v-6.966c2-.882 3.343-2.472 3.343-4.289 0-2.769-3.107-5.022-6.926-5.022-3.818 0-6.925 2.253-6.925 5.022 0 1.817 1.343 3.407 3.343 4.289v6.966H80.478v-6.966c2-.882 3.343-2.472 3.343-4.289 0-2.769-3.107-5.022-6.925-5.022-3.819 0-6.926 2.253-6.926 5.022 0 1.817 1.343 3.407 3.343 4.289v6.966H61.612c-14.616 0-26.508 8.622-26.508 19.221v27.705c0 5.529 3.241 10.516 8.411 14.026H27.224C21.035 93.229 16 96.88 16 101.368c0 3.58 3.205 6.624 7.642 7.711v23.366c-4.437 1.086-7.642 4.131-7.642 7.711v5.541c0 1.434 1.604 2.597 3.582 2.597 1.978 0 3.582-1.163 3.582-2.597v-5.541c0-1.623 1.821-2.944 4.06-2.944 2.238 0 4.06 1.321 4.06 2.944v5.541c0 1.434 1.603 2.597 3.582 2.597 1.978 0 3.582-1.163 3.582-2.597v-5.541c0-3.58-3.205-6.625-7.642-7.711v-22.939h15.761v25.109c0 4.487 5.035 8.138 11.224 8.138h4.494c.595 1.758 1.777 3.349 3.388 4.658l-.002.018v12.294h-4.059c-10.402 0-18.866 6.137-18.866 13.68 0 1.434 1.604 2.597 3.582 2.597h42.03c1.978 0 3.582-1.163 3.582-2.597V162.32c0-1.434-1.604-2.597-3.582-2.597h-.239v-12.294l-.001-.018c1.611-1.309 2.794-2.901 3.388-4.658h8.988c.594 1.758 1.777 3.349 3.388 4.658l-.002.018v12.294h-.238c-1.978 0-3.582 1.163-3.582 2.597v11.083c0 1.434 1.604 2.597 3.582 2.597h42.03c1.978 0 3.582-1.163 3.582-2.597 0-7.543-8.464-13.68-18.866-13.68h-4.06v-12.294l-.001-.018c1.611-1.309 2.793-2.901 3.388-4.658h4.494c6.189 0 11.224-3.651 11.224-8.138v-25.109h15.761v22.939c-4.437 1.086-7.642 4.131-7.642 7.711v5.541c0 1.434 1.604 2.597 3.582 2.597 1.979 0 3.582-1.163 3.582-2.597v-5.541c0-1.623 1.822-2.944 4.06-2.944 2.239 0 4.06 1.321 4.06 2.944v5.541c0 1.434 1.604 2.597 3.582 2.597 1.978 0 3.582-1.163 3.582-2.597v-5.541c0-3.58-3.205-6.625-7.642-7.711Zm-3.582-28.133c-2.238 0-4.06-1.321-4.06-2.944s1.822-2.944 4.06-2.944c2.239 0 4.06 1.321 4.06 2.944s-1.821 2.944-4.06 2.944ZM42.269 51.498c0-7.734 8.677-14.026 19.343-14.026h68.776c10.666 0 19.343 6.292 19.343 14.026v16.623c0 2.854-7.723 5.733-14.337 7.331-10.47 2.531-24.46 3.925-39.394 3.925-14.934 0-28.925-1.394-39.394-3.925-6.614-1.598-14.337-4.477-14.337-7.331Zm0 27.705v-2.949c2.851 1.434 6.757 2.842 12.071 4.127 11.181 2.702 25.976 4.19 41.66 4.19 15.684 0 30.479-1.488 41.66-4.19 5.315-1.285 9.22-2.693 12.071-4.128v2.95c0 7.734-8.677 14.026-19.343 14.026H61.612c-10.666 0-19.343-6.292-19.343-14.026ZM27.224 98.424c2.238 0 4.06 1.321 4.06 2.944s-1.822 2.944-4.06 2.944c-2.239 0-4.06-1.321-4.06-2.944s1.821-2.944 4.06-2.944Zm10.461 5.888a6.183 6.183 0 0 0 .763-2.944c0-1.038-.272-2.03-.763-2.944h8.882v5.888Zm47.091 66.493H50.471c1.517-3.412 5.938-5.887 11.141-5.887h23.164Zm-11.94-11.082v-9.065c1.292.263 2.653.407 4.06.407a20.36 20.36 0 0 0 4.059-.407v9.065Zm4.06-13.853c-3.055 0-5.704-1.269-7.011-3.117h14.021c-1.307 1.848-3.956 3.117-7.01 3.117Zm64.633 24.935h-34.305v-5.887h23.164c5.203 0 9.624 2.475 11.141 5.887Zm-30.484-11.082v-9.065a20.36 20.36 0 0 0 4.059.407c1.407 0 2.768-.144 4.06-.407v9.065Zm4.059-13.853c-3.054 0-5.703-1.269-7.01-3.117h14.021c-1.307 1.848-3.956 3.117-7.011 3.117Zm23.165-11.255c0 1.623-1.821 2.943-4.06 2.943H57.791c-2.239 0-4.06-1.32-4.06-2.943V97.557c2.491.564 5.138.867 7.881.867h68.776c2.743 0 5.39-.303 7.881-.867Zm7.164-36.191h8.882a6.183 6.183 0 0 0-.763 2.944c0 1.038.272 2.03.763 2.944h-8.882Z"/><path d="M96 107.082c-8.296 0-15.045 4.894-15.045 10.909 0 6.016 6.749 10.909 15.045 10.909s15.045-4.893 15.045-10.909c0-6.015-6.749-10.909-15.045-10.909Zm0 16.624c-4.345 0-7.881-2.564-7.881-5.715 0-3.15 3.535-5.714 7.881-5.714s7.881 2.564 7.881 5.714c0 3.151-3.536 5.715-7.881 5.715Zm-26.746-13.853c-1.979 0-3.582 1.163-3.582 2.597v11.082c0 1.435 1.603 2.598 3.582 2.598 1.978 0 3.582-1.163 3.582-2.598V112.45c0-1.434-1.604-2.597-3.582-2.597Zm53.492 0c-1.978 0-3.582 1.163-3.582 2.597v11.082c0 1.435 1.604 2.598 3.582 2.598 1.979 0 3.582-1.163 3.582-2.598V112.45c0-1.434-1.603-2.597-3.582-2.597Z"/></svg>