<svg
    xmlns="http://www.w3.org/2000/svg"
    viewBox="0 0 192 192"
    id="vector">
    <path
        id="path"
        d="M 44.733 175.5 C 44.733 175.5 40.436 165.229 41.081 161.964 C 41.186 157.074 40.445 152.204 38.889 147.568 C 38.158 145.935 34.592 130.765 34.205 128.574 C 33.818 126.382 32.744 106.7 34.205 104.895 C 36.283 102.357 37.845 99.438 38.803 96.301 C 38.381 92.42 38.973 88.496 40.522 84.913 C 42.499 82.034 66.306 55.476 70.001 54.015 C 73.697 52.554 78.295 51.867 79.584 50.964 C 87.673 48.169 96.071 46.366 104.595 45.593 C 111.986 45.593 132.613 54.617 137.684 72.881 C 142.755 91.144 152.381 96 154.014 99.266 C 155.646 102.532 156.205 131.453 156.205 139.575 C 156.205 147.696 159.256 151.865 158.354 154.744 C 157.451 157.623 151.392 175.5 151.392 175.5"
        fill="none"
        stroke="#000000"
        stroke-width="8"
        stroke-linecap="round"
        stroke-linejoin="round"/>
    <path
        id="path_1"
        d="M 88.952 142.282 C 90.084 146.07 92.573 149.31 95.942 151.379 C 99.31 153.447 103.326 154.202 107.216 153.498 C 117.873 151.478 118.948 146.064 118.604 140.305 C 118.505 137.701 118.261 135.104 117.873 132.527 M 111.169 70.431 C 113.69 69.704 116.365 69.692 118.892 70.398 C 121.419 71.104 123.7 72.499 125.479 74.428 C 130.335 79.842 141.551 93.551 137.039 100.211 C 132.527 106.872 118.776 110.869 112.459 106.7 C 106.142 102.532 96 94.238 97.461 88.824 C 98.922 83.409 107.946 71.634 111.169 70.431 Z M 72.537 86.804 C 77.736 89.812 85.901 93.679 83.71 99.696 C 81.518 105.712 73.439 117.744 68.54 119.377 C 63.641 121.01 54.445 121.01 51.351 116.111 C 48.257 111.212 47.569 97.332 49.761 94.625 C 51.953 91.918 63.727 81.69 72.537 86.804 Z"
        fill="none"
        stroke="#000000"
        stroke-width="8"
        stroke-linecap="round"
        stroke-linejoin="round"/>
    <path
        id="path_2"
        d="M 51.179 93.465 C 54.101 94.152 58.528 95.699 58.098 101.071 C 57.797 104.852 50.234 106.958 48.773 106.786 M 125.479 74.514 C 124.078 74.22 122.618 74.406 121.334 75.039 C 120.05 75.673 119.015 76.72 118.395 78.011 C 117.776 79.302 117.607 80.765 117.916 82.163 C 118.749 83.623 120.053 84.758 121.613 85.382 C 123.174 86.007 124.901 86.084 126.511 85.601 C 127.595 85.147 128.532 84.4 129.215 83.444 C 129.898 82.487 130.301 81.359 130.378 80.186"
        fill="none"
        stroke="#000000"
        stroke-width="8"
        stroke-linecap="round"
        stroke-linejoin="round"/>
    <path
        id="path_3"
        d="M 166.905 175.5 L 25.095 175.5 C 22.816 175.5 20.628 174.594 19.017 172.983 C 17.406 171.372 16.5 169.184 16.5 166.905 L 16.5 25.095 C 16.5 22.816 17.406 20.628 19.017 19.017 C 20.628 17.406 22.816 16.5 25.095 16.5 L 166.905 16.5 C 169.184 16.5 171.372 17.406 172.983 19.017 C 174.594 20.628 175.5 22.816 175.5 25.095 L 175.5 166.905 C 175.5 169.184 174.594 171.372 172.983 172.983 C 171.372 174.594 169.184 175.5 166.905 175.5 Z"
        fill="none"
        stroke="#000000"
        stroke-width="8"
        stroke-linecap="round"
        stroke-linejoin="round"/>
</svg>
