<svg xmlns="http://www.w3.org/2000/svg" viewBox="0 0 192 192"><path fill="none" stroke="#000" stroke-linecap="round" stroke-linejoin="round" stroke-width="8" d="M44.733 175.5s-4.297-10.271-3.652-13.536a42.38 42.38 0 0 0-2.192-14.396c-.731-1.633-4.297-16.803-4.684-18.994-.387-2.192-1.461-21.874 0-23.679a25.17 25.17 0 0 0 4.598-8.594 22.554 22.554 0 0 1 1.719-11.388c1.977-2.879 25.784-29.437 29.479-30.898 3.696-1.461 8.294-2.148 9.583-3.051a105.854 105.854 0 0 1 25.011-5.371c7.391 0 28.018 9.024 33.089 27.288 5.071 18.263 14.697 23.119 16.33 26.385 1.632 3.266 2.191 32.187 2.191 40.309 0 8.121 3.051 12.29 2.149 15.169-.903 2.879-6.962 20.756-6.962 20.756"/><path fill="none" stroke="#000" stroke-linecap="round" stroke-linejoin="round" stroke-width="8" d="M88.952 142.282a16.08 16.08 0 0 0 6.99 9.097 16.08 16.08 0 0 0 11.274 2.119c10.657-2.02 11.732-7.434 11.388-13.193a70.143 70.143 0 0 0-.731-7.778m-6.704-62.096a14.143 14.143 0 0 1 14.31 3.997c4.856 5.414 16.072 19.123 11.56 25.783-4.512 6.661-18.263 10.658-24.58 6.489-6.317-4.168-16.459-12.462-14.998-17.876 1.461-5.415 10.485-17.19 13.708-18.393ZM72.537 86.804c5.199 3.008 13.364 6.875 11.173 12.892-2.192 6.016-10.271 18.048-15.17 19.681-4.899 1.633-14.095 1.633-17.189-3.266-3.094-4.899-3.782-18.779-1.59-21.486 2.192-2.707 13.966-12.935 22.776-7.821Z"/><path fill="none" stroke="#000" stroke-linecap="round" stroke-linejoin="round" stroke-width="8" d="M51.179 93.465c2.922.687 7.349 2.234 6.919 7.606-.301 3.781-7.864 5.887-9.325 5.715m76.706-32.272a6.403 6.403 0 0 0-7.563 7.649 7.438 7.438 0 0 0 8.595 3.438 6.321 6.321 0 0 0 3.867-5.415"/><path fill="none" stroke="#000" stroke-linecap="round" stroke-linejoin="round" stroke-width="8" d="M166.905 175.5H25.095a8.599 8.599 0 0 1-6.078-2.517 8.599 8.599 0 0 1-2.517-6.078V25.095c0-2.279.906-4.467 2.517-6.078a8.599 8.599 0 0 1 6.078-2.517h141.81c2.279 0 4.467.906 6.078 2.517a8.599 8.599 0 0 1 2.517 6.078v141.81a8.599 8.599 0 0 1-2.517 6.078 8.599 8.599 0 0 1-6.078 2.517Z"/></svg>