<svg xmlns="http://www.w3.org/2000/svg" viewBox="0 0 192 192"><path d="M70.817 163.536c-.301-.301-.547-1.686-.547-3.078v-2.531l-3.763-1.288c-12.784-4.377-26.737-14.054-35.107-24.347-7.581-9.324-12.574-19.598-14.815-30.483-.793-3.852-.791-3.948.073-4.579.752-.55 12.447-.645 79.435-.645 70.804 0 78.624.07 79.27.716.894.894.921.489-.392 5.897-5.829 24.017-23.665 43.634-48.124 52.929l-3.853 1.464.123 2.304c.067 1.267-.105 2.728-.382 3.246-.501.935-.7.943-25.938.943-19.173 0-25.567-.135-25.98-.548Zm11.358-26.028c2.681-1.791 3.144-3.353 3.145-10.617.001-6.617.227-7.503 1.916-7.503.451 0 .821-.205.821-.456 0-.266-1.52-.456-3.649-.456-2.006 0-3.648.192-3.648.426 0 .234.564.491 1.254.57l1.254.144v14.911l-1.361 1.084c-2.741 2.184-7.114 1.755-8.513-.835-.32-.591-.637-3.629-.754-7.218-.223-6.843.098-8.17 1.979-8.17.618 0 1.124-.205 1.124-.456 0-.273-1.824-.456-4.561-.456-2.52 0-4.561.191-4.561.426 0 .234.565.491 1.255.57l1.254.144.231 7.323c.256 8.078.548 9.017 3.328 10.712 2.187 1.334 7.393 1.255 9.486-.143Zm15.459.579c0-.25-.491-.456-1.091-.456-1.404 0-1.645-.705-1.645-4.826v-3.383l2.85-.002c3.562-.002 5.49-1.052 6.27-3.413.988-2.996-.098-5.499-3.047-7.018-1.261-.649-12.002-.7-12.002-.057 0 .251.369.456.821.456 1.743 0 1.916.821 1.916 9.122 0 8.3-.173 9.121-1.916 9.121-.452 0-.821.205-.821.456 0 .272 1.748.456 4.333.456 2.584 0 4.332-.184 4.332-.456Zm-2.736-14.138v-4.105h1.398c1.971 0 3.141.75 3.862 2.474 1.203 2.879-.548 5.736-3.515 5.736h-1.745Zm25.981 5.429c2.955-7.103 4.054-9.275 4.879-9.651 1.855-.845 1.165-1.251-2.127-1.251-3.287 0-3.959.357-2.167 1.15.667.296.972.767.87 1.346-.279 1.594-4.781 12.061-5.101 11.862-.664-.409-5.522-12.171-5.284-12.79.138-.361.668-.656 1.178-.656.509 0 .926-.205.926-.456 0-.272-1.748-.456-4.333-.456-2.584 0-4.332.184-4.332.456 0 .251.405.456.901.456 1.231 0 1.676.792 5.971 10.604 2.058 4.703 3.981 8.551 4.273 8.551.292 0 2.248-4.124 4.346-9.165ZM66.916 87.364c1.513-5.83-.067-10.887-5.406-17.302-5.387-6.473-7.272-11.227-7.299-18.412-.022-5.759 1.169-10.652 4.089-16.793 2.578-5.42 3.883-6.684 6.903-6.684 1.771 0 2.38.231 3.385 1.28 1.638 1.709 1.551 2.728-.565 6.609-4.629 8.489-5.601 17.608-2.538 23.809.62 1.254 2.465 3.922 4.1 5.929 6.252 7.672 8.604 15.619 6.777 22.898-.253 1.009-.434 1.045-5.162 1.045h-4.901Zm31.024.897c.208-.815.376-3.124.373-5.131-.005-3.118-.209-4.079-1.406-6.613-.77-1.63-2.409-4.198-3.643-5.706-3.628-4.434-5.154-6.826-6.461-10.119-1.132-2.854-1.229-3.612-1.222-9.487.008-6.004.097-6.643 1.493-10.715 1.599-4.661 4.149-9.595 5.828-11.274 1.529-1.529 4.966-1.469 6.675.116 1.658 1.537 1.592 2.933-.301 6.376-.853 1.552-2.123 4.34-2.823 6.195-1.134 3.011-1.274 3.986-1.299 9.074-.027 5.473.029 5.822 1.404 8.724.788 1.662 2.7 4.532 4.25 6.378 5.234 6.234 7.742 13.084 7.116 19.44-.437 4.438-.154 4.224-5.586 4.224h-4.776Zm30.986 0c.216-.815.393-3.124.394-5.131 0-3.134-.198-4.066-1.408-6.613-.774-1.63-2.773-4.662-4.441-6.736-1.668-2.075-3.033-3.906-3.033-4.069 0-.163-.279-.621-.62-1.017-.341-.396-1.192-2.237-1.889-4.092-1.077-2.861-1.277-4.106-1.318-8.209-.06-5.843.226-7.841 1.797-12.582 1.36-4.1 2.465-6.426 4.385-9.23 1.641-2.396 4.053-3.248 6.408-2.264 3.292 1.376 3.641 3.69 1.166 7.718-.885 1.439-2.198 4.415-2.918 6.613-1.118 3.411-1.306 4.696-1.282 8.784.032 5.629.933 8.448 3.863 12.086 4.498 5.588 5.911 7.716 7.333 11.042 1.408 3.295 1.519 3.917 1.532 8.569.008 2.76-.133 5.376-.314 5.815-.283.69-.988.798-5.187.798h-4.86Zm-8.431-24.635c-.451-.447-.503-.395-.256.255.172.45.427.703.567.562.141-.14 0-.508-.311-.817Z"/></svg>