<svg
    xmlns="http://www.w3.org/2000/svg"
    viewBox="0 0 192 192"
    id="vector">
    <path
        id="path"
        d="M 54 170 L 146 170 C 154.84 170 162 162.84 162 154 L 162 70 C 162 61.16 154.84 54 146 54 L 130 54"
        fill="#00000000"
        stroke="#000000"
        stroke-width="12"/>
    <path
        id="path_1"
        d="M 46 22 L 114 22 C 118.242 22 122.314 23.687 125.314 26.686 C 128.313 29.686 130 33.758 130 38 L 130 154 C 130 158.242 128.313 162.314 125.314 165.314 C 122.314 168.313 118.242 170 114 170 L 46 170 C 41.758 170 37.686 168.313 34.686 165.314 C 31.687 162.314 30 158.242 30 154 L 30 38 C 30 33.758 31.687 29.686 34.686 26.686 C 37.686 23.687 41.758 22 46 22 Z"
        fill="#00000000"
        stroke="#000000"
        stroke-width="12"/>
    <path
        id="path_2"
        d="M 60 76 L 100 116"
        fill="#00000000"
        stroke="#000000"
        stroke-width="12"
        stroke-linecap="round"/>
    <path
        id="path_3"
        d="M 100 76 L 60 116"
        fill="#00000000"
        stroke="#000000"
        stroke-width="12"
        stroke-linecap="round"/>
</svg>
