<svg xmlns="http://www.w3.org/2000/svg" viewBox="0 0 192 192"><path fill="#00000000" stroke="#000" stroke-width="12" d="M54 170h92c8.84 0 16-7.16 16-16V70c0-8.84-7.16-16-16-16h-16"/><path fill="#00000000" stroke="#000" stroke-width="12" d="M46 22h68c4.242 0 8.314 1.687 11.314 4.686 2.999 3 4.686 7.072 4.686 11.314v116c0 4.242-1.687 8.314-4.686 11.314A16.009 16.009 0 0 1 114 170H46a16.009 16.009 0 0 1-11.314-4.686A16.009 16.009 0 0 1 30 154V38c0-4.242 1.687-8.314 4.686-11.314C37.686 23.687 41.758 22 46 22Z"/><path fill="#00000000" stroke="#000" stroke-linecap="round" stroke-width="12" d="m60 76 40 40M100 76l-40 40"/></svg>