<svg width="24" height="24" fill="none" viewBox="0 0 24 24" xmlns="http://www.w3.org/2000/svg"><path d="M11.009 21.949a10.094 10.094 0 0 1-4.568-1.654c-2.54-1.706-4.096-4.344-4.405-7.463-.062-.63-.028-1.835.059-2.062.099-.261.524-.269.616-.012.023.066.024.377.002.692-.22 3.216 1.39 6.459 4.109 8.276 3.882 2.595 9.107 1.912 12.167-1.591 3.697-4.233 2.845-10.753-1.812-13.865-1.686-1.127-3.64-1.659-5.758-1.566l-.66.028-.09-.137a.33.33 0 0 1 .093-.474c.17-.11 1.331-.16 2.071-.086 3.12.308 5.757 1.865 7.463 4.405a9.945 9.945 0 0 1 0 11.116c-2.06 3.067-5.652 4.766-9.288 4.393zm-.886-8.882v-1.434h1.303V14.5h-1.303zM7.88 11.946V9.443h2.188c2.085 0 2.201.005 2.476.108.382.143.816.543 1.003.925l.146.297.032 3.675h-1.304l-.016-1.55c-.014-1.442-.023-1.564-.12-1.729a1.16 1.16 0 0 0-.251-.287c-.14-.103-.22-.11-1.473-.125l-1.326-.015v3.706H7.881zm6.882 0V9.443h1.356v5.005h-1.356zM3.475 7.939c-.6-.195-.909-.909-.63-1.456.103-.202 3.383-3.46 3.561-3.537.092-.04.287-.072.432-.072.757 0 1.258.761.943 1.434-.136.289-3.348 3.486-3.614 3.595a1.155 1.155 0 0 1-.692.036z" fill="#000"/></svg>