<svg xmlns="http://www.w3.org/2000/svg" viewBox="0 0 192 192"><path d="M82.827 175.283c-5.757-.801-15.39-4.011-22.409-7.468-59.224-29.164-59.224-113.646 0-142.814 16.179-7.969 30.469-9.62 77.948-9.01l37.025.475.492 37.868c.611 47.101-.984 60.699-9.042 77.106-15.529 31.615-48.444 48.792-84.014 43.843Zm44.599-30.003c0-2.58-3.328-3.867-19.775-7.651a10586.212 10586.212 0 0 1-39.954-9.288c-20.065-4.712-22.632-4.597-22.712 1.023-.026 1.832 78.824 20.964 81.179 19.697.694-.373 1.262-2.074 1.262-3.781Zm3.21-15.88c-.682-.633-71.675-17.133-78.103-18.152-2.361-.375-3.518.528-3.874 3.025-.458 3.209 1.115 3.931 15.989 7.342 9.073 2.081 27.099 6.254 40.058 9.275 22.7 5.291 23.617 5.375 25.088 2.319.84-1.745 1.219-3.459.842-3.809Zm2.493-10.692c2.059-6.878 9.444-40.806 9.444-43.382 0-5.361-5.646-14.673-10.805-17.819-5.456-3.327-16.959-4.19-21.082-1.581-1.734 1.097-4.054.12-8.053-3.392-4.223-3.708-7.3-4.932-12.396-4.932-3.728 0-10.547-1.233-15.153-2.74-4.607-1.507-8.722-2.394-9.144-1.972-.651.652-14.248 57.311-14.248 59.374 0 .828 11.666 4.219 14.561 4.233 1.097.005 3.926-8.585 6.511-19.766 5.615-24.292 6.295-25.665 12.701-25.665 5.769 0 8.112 4.047 6.945 11.998-.668 4.556-1.122 4.835-6.29 3.865-5.318-.997-5.65-.752-7.367 5.431-2.6 9.365-2.366 10.152 3.369 11.299 4.861.972 5.11 1.381 3.966 6.521-2.157 9.697-1.929 10.143 6.297 12.283l7.876 2.049 1.886-7.862c1.819-7.581 2.083-7.84 7.375-7.222 5.286.617 5.554.357 7.247-7.042 1.973-8.623 1.632-9.441-3.929-9.441-3.134 0-3.927-.908-3.927-4.496 0-5.21 4.299-10.651 8.415-10.651 1.565 0 4.132 1.422 5.705 3.161 2.699 2.982 2.615 4.238-1.496 22.299-2.396 10.526-4.727 20.383-5.18 21.904-.612 2.053.813 3.199 5.543 4.454 9.211 2.444 10.252 2.36 11.229-.908Z"/></svg>