<svg xmlns="http://www.w3.org/2000/svg" viewBox="0 0 192 192"><path d="M72.616 164.683c-5.605-1.989-11.743-5.022-13.64-6.739-3.126-2.829-3.758-2.847-6.741-.195-8.81 7.829-26.473 11.223-32.924 6.326-6.908-5.244-1.407-16.187 8.144-16.202 2.505-.004 7.325-1.695 10.709-3.759l6.155-3.752-3.953-7.749C32.215 116.637 28.8 97.971 29.564 73.567c.623-19.93 1.309-23.821 5.854-33.201 3.742-7.721 6.885-11.448 11.502-13.639 23.013-10.92 40.143 7.288 42.087 44.737 1.082 20.823-3.639 45.253-11.237 58.156-2.921 4.961-5.311 9.313-5.311 9.673 0 2.065 16.431 6.706 23.741 6.706 8.177 0 21.411-4.566 21.411-7.388 0-.723-2.008-5.494-4.462-10.603-16.64-34.64-12.943-88.508 6.905-100.61 13.396-8.167 28.841-2.211 36.969 14.258 3.983 8.07 4.699 12.523 5.286 32.852.605 20.979.161 25.219-4.112 39.285-2.634 8.673-5.516 16.715-6.404 17.873-4.444 5.792-3.94 8.83 2.073 12.496 3.341 2.038 8.272 3.708 10.957 3.711 5.269.008 11.11 5.129 11.11 9.741 0 4.693-6.453 9.081-13.318 9.056-3.54-.013-11.224-2.452-17.075-5.42-9.639-4.889-10.915-5.12-13.574-2.461-9.096 9.096-41.315 12.296-59.35 5.894Zm-8.304-56.781c6.733-19.313 3.768-63.495-4.262-63.495-1.4 0-4.048 2.751-5.886 6.114-2.715 4.969-3.34 10.694-3.34 30.572 0 35.224 6.234 47.615 13.488 26.809Zm73.196 2.822c2.754-5.725 3.394-11.843 3.397-32.453.004-26.383-1.898-34.647-7.713-33.507-5.314 1.041-8.636 14.366-8.822 35.388-.182 20.63 3.152 37.627 7.381 37.627 1.3 0 3.891-3.175 5.757-7.055Z"/></svg>