<svg
    xmlns="http://www.w3.org/2000/svg"
    viewBox="0 0 192 192"
    id="vector">
    <g id="group">
        <path
            id="path_6"
            d="M 72.616 164.683 C 67.011 162.694 60.873 159.661 58.976 157.944 C 55.85 155.115 55.218 155.097 52.235 157.749 C 43.425 165.578 25.762 168.972 19.311 164.075 C 12.403 158.831 17.904 147.888 27.455 147.873 C 29.96 147.869 34.78 146.178 38.164 144.114 L 44.319 140.362 L 40.366 132.613 C 32.215 116.637 28.8 97.971 29.564 73.567 C 30.187 53.637 30.873 49.746 35.418 40.366 C 39.16 32.645 42.303 28.918 46.92 26.727 C 69.933 15.807 87.063 34.015 89.007 71.464 C 90.089 92.287 85.368 116.717 77.77 129.62 C 74.849 134.581 72.459 138.933 72.459 139.293 C 72.459 141.358 88.89 145.999 96.2 145.999 C 104.377 145.999 117.611 141.433 117.611 138.611 C 117.611 137.888 115.603 133.117 113.149 128.008 C 96.509 93.368 100.206 39.5 120.054 27.398 C 133.45 19.231 148.895 25.187 157.023 41.656 C 161.006 49.726 161.722 54.179 162.309 74.508 C 162.914 95.487 162.47 99.727 158.197 113.793 C 155.563 122.466 152.681 130.508 151.793 131.666 C 147.349 137.458 147.853 140.496 153.866 144.162 C 157.207 146.2 162.138 147.87 164.823 147.873 C 170.092 147.881 175.933 153.002 175.933 157.614 C 175.933 162.307 169.48 166.695 162.615 166.67 C 159.075 166.657 151.391 164.218 145.54 161.25 C 135.901 156.361 134.625 156.13 131.966 158.789 C 122.87 167.885 90.651 171.085 72.616 164.683 Z M 64.312 107.902 C 71.045 88.589 68.08 44.407 60.05 44.407 C 58.65 44.407 56.002 47.158 54.164 50.521 C 51.449 55.49 50.824 61.215 50.824 81.093 C 50.824 116.317 57.058 128.708 64.312 107.902 Z M 137.508 110.724 C 140.262 104.999 140.902 98.881 140.905 78.271 C 140.909 51.888 139.007 43.624 133.192 44.764 C 127.878 45.805 124.556 59.13 124.37 80.152 C 124.188 100.782 127.522 117.779 131.751 117.779 C 133.051 117.779 135.642 114.604 137.508 110.724 Z"
            fill="#000000"
            stroke-width="12"/>
    </g>
</svg>
