<svg xmlns="http://www.w3.org/2000/svg" xml:space="preserve" id="svg10" width="192" height="192" fill="none" version="1.1" viewBox="0 0 192 192"><defs id="defs14"><filter id="filter3864" width="1.092" height="1.16" x="-.046" y="-.08"><feGaussianBlur id="feGaussianBlur3866" stdDeviation=".2"/></filter></defs><style id="style313">.s0{fill:#2e3436;filter:url(#filter3864);opacity:.3}.s1{fill:#4e9a06;stroke-linecap:round;stroke:#316004}</style><path id="path455" d="m81.814 50.879 19.508-11.302 26.295 15.117-.045 7.057 42.118 24.23v40.78L95.937 170 22.31 127.462V85.278l24.243-14.024" style="opacity:1;fill:none;stroke:#000;stroke-width:12;stroke-linecap:butt;stroke-linejoin:round;stroke-dasharray:none;stroke-opacity:1"/><path id="path4218" d="m33.08 63.482 25.819 14.765 22.915-13.359V35.71L58.674 22 33.08 36.765Z" style="fill:none;stroke:#000;stroke-width:12;stroke-linecap:butt;stroke-linejoin:round;stroke-dasharray:none;stroke-opacity:1"/><path id="path4220" d="M64.634 74.903v13.89l-5.96 3.516-5.96-3.516V74.71" style="fill:none;stroke:#000;stroke-width:12;stroke-linecap:butt;stroke-linejoin:round;stroke-dasharray:none;stroke-opacity:1"/><path id="path4287" d="m22.436 85.278 49.085 28.475 49.084-27.772-23.49-13.71 30.502-17.577" style="opacity:1;fill:none;stroke:#000;stroke-width:12;stroke-linecap:butt;stroke-linejoin:round;stroke-dasharray:none;stroke-opacity:1"/><path id="path4358" d="M120.605 85.981v7.03l23.14 13.36 25.945-15.117" style="fill:none;stroke:#000;stroke-width:12;stroke-linecap:butt;stroke-linejoin:round;stroke-dasharray:none;stroke-opacity:1"/><path id="path4388" d="M71.52 113.753v14.062l5.61 3.164v7.03l18.933 10.898 42.072-24.96v-7.382l7.013-4.218v-5.273" style="fill:none;stroke:#000;stroke-width:12;stroke-linecap:butt;stroke-linejoin:round;stroke-dasharray:none;stroke-opacity:1"/></svg>