<svg width="192" height="192" viewBox="0 0 192 192" fill="none" xml:space="preserve" xmlns="http://www.w3.org/2000/svg"><path fill="#fff" d="M171.607 53.785H121.87v25.15h15.774V64.818h6.65l8.917 14.169h17.941l-10.532-15.348c5.04-1.765 9.07-5.344 10.986-9.854zm-50.89-22.914c.048 1.249.247 2.494.55 3.646.048.287.15.526.2.816.048.094.048.19.099.333 2.8 8.494 11.097 9.24 20.846 9.24h28.895c.2-.958.28-1.917.3-2.926.088-4.754-.258-7.134-3.432-8.866-3.09-1.85-9.532-2.243-13.817-2.243h-33.645Zm-62.077 6.34-6.65 22.115H50.87l-6.65-22.116c-1.07-3.733-4.65-6.339-8.688-6.339H19.624v48.064h15.9V50.581h1.128l9.102 28.402h11.354l9.099-28.406h1.127v28.406h15.9V30.871H67.387c-4.042 0-7.618 2.606-8.746 6.34zm35.82-6.34v48.112h15.035V30.871Z" style="fill:none;fill-opacity:1;fill-rule:evenodd;stroke:#000;stroke-width:7.99991;stroke-linecap:round;stroke-linejoin:round;stroke-dasharray:none;stroke-opacity:1" transform="translate(.376 11.117)"/><path d="M47.089 130.138v-37.6h14.073c8.487 0 14.074 4.511 14.074 11.924v.108c0 8.11-6.768 12.3-14.772 12.3h-9.132v13.268zm4.243-17.135h9.293c6.231 0 10.313-3.33 10.313-8.272v-.108c0-5.371-4.028-8.164-10.098-8.164h-9.508zm41.74 17.726c-5.156 0-10.367-2.954-10.367-8.648v-.108c0-5.855 4.835-8.97 11.871-8.97 3.546 0 5.497 3.513 8.541-.809-1.64-9.876-9.972-9.55-16.705-6.5l-1.236-3.384c3.062-1.396 6.07-2.31 10.099-2.31 3.921 0 6.93 1.021 8.97 3.062 1.88 1.88 2.847 6.557 2.847 10.102v16.974h-3.975v-4.19c-1.934 2.525-5.156 4.781-10.045 4.781zm.806-1.286c6.565-.918 9.293-5.106 9.293-9.51v-4.677a28.968 28.968 0 0 0-8.165-1.182c-5.21 0-10.101 4.247-10.101 7.738v.108c0 3.491 2.103 8.483 8.973 7.523zm36.96-3.924 8.916-23.152h4.405l-11.656 28.684c-2.364 5.748-5.05 7.843-9.24 7.843-2.309 0-4.028-.484-5.908-1.397l1.397-3.276c1.343.698 2.578 1.02 4.35 1.02 2.472 0 4.03-1.289 5.694-5.21l-12.623-27.664h4.566z" style="fill:none;fill-opacity:1;fill-rule:evenodd;stroke:#000;stroke-width:7.99991;stroke-linecap:round;stroke-linejoin:round;stroke-dasharray:none;stroke-opacity:1" transform="translate(.376 11.117)"/></svg>