<svg xmlns="http://www.w3.org/2000/svg" viewBox="0 0 192 192"><path fill="none" stroke="#000" d="M38.072 171.5c-3.512-1.767-5.151-3.551-4.459-4.854.255-.48 1.48-1.55 2.721-2.377l2.258-1.505 2.046 1.207c2.395 1.413 5.981 1.62 7.757.45 2.605-1.718 2.633-2.121 2.318-32.977l-.141-13.933-3.385 9.045c-1.86 4.974-3.77 10.034-4.242 11.244l-.86 2.2-2.721.145c-1.904.101-2.936-.071-3.436-.575-.393-.395-1.726-3.54-2.964-6.99a666.148 666.148 0 0 0-3.934-10.669l-1.685-4.4-.022 12.801c-.013 7.074-.234 13.364-.496 14.057-.436 1.153-.707 1.254-3.383 1.254-2.379 0-3-.173-3.411-.946-.762-1.433-.685-42.187.08-42.957.802-.807 7.882-.787 8.521.024.448.57 4.172 10.57 8.285 22.245.971 2.756 1.91 5.011 2.086 5.011.316 0 1.138-2.178 6.754-17.909 3.87-10.842 3.185-9.958 7.725-9.958 2.678 0 3.977.204 4.375.687.421.51.53 8.438.423 30.923l-.141 30.235-1.256 2.692c-2.454 5.266-5.932 7.33-12.352 7.33-2.91 0-3.965-.244-6.46-1.5zm27.65-26.056c-.395-.48-.515-6.752-.423-22.367l.126-21.7h22.34l2.3 1.361c7.865 4.654 9.076 16.181 2.363 22.502-2.99 2.815-4.66 3.297-12.554 3.623l-6.436.264v7.546c0 4.267-.218 7.957-.502 8.492-.416.783-1.035.946-3.583.946-2.01 0-3.272-.231-3.631-.667zm20.725-25.03c2.402-1.693 3.2-5.483 1.843-8.753-1.095-2.637-2.748-3.195-9.484-3.195h-5.853v12.712h6.205c4.837 0 6.444-.168 7.289-.763zm17.373 24.61c-.655-.941-.756-3.83-.756-21.662 0-16.149.136-20.763.633-21.447.58-.797 1.471-.858 10.321-.705 9.232.16 9.812.228 12.358 1.434 3.608 1.71 5.36 3.295 7.065 6.393l1.434 2.607v11.733c0 11.345-.037 11.807-1.135 13.934-2.406 4.663-6.284 7.387-11.802 8.288-1.7.278-6.301.507-10.225.509-6.826.003-7.17-.045-7.893-1.083zm19.443-7.53c1.283-.658 2.259-1.675 3.01-3.144 1.063-2.075 1.107-2.59.973-11.55-.13-8.583-.226-9.49-1.143-10.724-2.216-2.984-3.201-3.352-9.474-3.528l-5.795-.164v30.52l5.264-.219c3.976-.165 5.73-.456 7.165-1.19zm20.668 7.97c-.418-.506-.534-6.396-.44-22.387l.126-21.7h28.168l.148 3.166c.12 2.56-.015 3.284-.7 3.789-.62.456-3.434.623-10.468.623h-9.62V120.2h8.481c9.583 0 9.488-.04 9.488 3.91s.094 3.912-9.476 3.912h-8.471l-.132 8.923-.133 8.922-3.202.143c-2.3.102-3.362-.051-3.769-.546zm-122.79-68.29c-3.306-1.34-2.633-7.191.927-8.064.607-.15 25-.21 54.205-.135l53.1.136 1.173 1.372c1.621 1.897 1.532 3.963-.248 5.755l-1.419 1.428-53.34-.03c-29.508-.018-53.811-.224-54.398-.462Zm-.597-25.702c-1.971-1.67-2.11-4.524-.308-6.338l1.193-1.2h149.188l1.192 1.293c1.567 1.703 1.575 4.069.019 5.89l-1.172 1.372-74.307.126-74.305.127zm-.22-25.174c-1.032-.817-1.28-1.425-1.28-3.143 0-1.717.248-2.324 1.28-3.141L21.604 19h149.011l1.193 1.2c.823.829 1.192 1.743 1.192 2.955 0 1.213-.37 2.127-1.192 2.956l-1.193 1.2H21.603Z" style="stroke-width:6;stroke-linecap:round;stroke-linejoin:round;stroke-dasharray:none"/></svg>