<svg xmlns="http://www.w3.org/2000/svg" width="192" height="192"><g style="fill:none;fill-opacity:1;stroke:#000;stroke-width:3;stroke-linejoin:round;stroke-dasharray:none;stroke-opacity:1"><g style="fill:none;fill-opacity:1;stroke:#000;stroke-width:3;stroke-linejoin:round;stroke-dasharray:none;stroke-opacity:1"><path d="M28.295 10.402h5.59v8.384a2.803 2.803 0 0 1-2.795 2.795v0a2.803 2.803 0 0 1-2.795-2.795v-.978" class="n" style="fill:none;fill-opacity:1;stroke:#000;stroke-width:3;stroke-linecap:round;stroke-linejoin:round;stroke-dasharray:none;stroke-opacity:1" transform="matrix(4 0 0 4 .5 .5)"/></g><path d="M14.116 21.581V10.402l5.589 11.179 5.59-11.179v11.179" class="n" style="fill:none;fill-opacity:1;stroke:#000;stroke-width:3;stroke-linecap:round;stroke-linejoin:round;stroke-dasharray:none;stroke-opacity:1" transform="matrix(4 0 0 4 .5 .5)"/></g><g style="fill:none;fill-opacity:1;stroke:#000;stroke-width:3;stroke-linejoin:round;stroke-dasharray:none;stroke-opacity:1"><path d="M21.124 37.599v-11.18h1.817c3.074 0 5.59 2.515 5.59 5.59v0c0 3.074-2.516 5.59-5.59 5.59h-1.817z" class="n" style="fill:none;fill-opacity:1;stroke:#000;stroke-width:3;stroke-linecap:round;stroke-linejoin:round;stroke-dasharray:none;stroke-opacity:1" transform="matrix(4 0 0 4 .5 .5)"/><g style="fill:none;fill-opacity:1;stroke:#000;stroke-width:3;stroke-linejoin:round;stroke-dasharray:none;stroke-opacity:1"><path d="M31.91 26.419h5.59m-5.59 5.59h3.634m-3.634-5.59v11.179" class="n" style="fill:none;fill-opacity:1;stroke:#000;stroke-width:3;stroke-linecap:round;stroke-linejoin:round;stroke-dasharray:none;stroke-opacity:1" transform="matrix(4 0 0 4 .5 .5)"/></g><g style="fill:none;fill-opacity:1;stroke:#000;stroke-width:3;stroke-linejoin:round;stroke-dasharray:none;stroke-opacity:1"><path d="M10.5 37.599v-11.18h3.633a3.757 3.757 0 0 1 3.774 3.773 3.757 3.757 0 0 1-3.774 3.773H10.5" class="n" style="fill:none;fill-opacity:1;stroke:#000;stroke-width:3;stroke-linecap:round;stroke-linejoin:round;stroke-dasharray:none;stroke-opacity:1" transform="matrix(4 0 0 4 .5 .5)"/></g></g><path d="M162.5 22.5h-132a8 8 0 0 0-8 8v132a8 8 0 0 0 8 8h132a8 8 0 0 0 8-8v-132a8 8 0 0 0-8-8z" class="n" style="fill:none;fill-opacity:1;stroke:#000;stroke-width:12;stroke-linecap:round;stroke-linejoin:round;stroke-dasharray:none;stroke-opacity:1"/></svg>