<?xml version="1.0" encoding="UTF-8" standalone="no"?>
<!-- Created with Inkscape (http://www.inkscape.org/) -->

<svg
   version="1.1"
   id="svg741"
   width="400"
   height="400"
   viewBox="0 0 400 400"
   sodipodi:docname="mlmanagerpro.svg"
   inkscape:version="1.1.2 (b8e25be833, 2022-02-05)"
   xmlns:inkscape="http://www.inkscape.org/namespaces/inkscape"
   xmlns:sodipodi="http://sodipodi.sourceforge.net/DTD/sodipodi-0.dtd"
   xmlns="http://www.w3.org/2000/svg"
   xmlns:svg="http://www.w3.org/2000/svg">
  <defs
     id="defs745" />
  <sodipodi:namedview
     id="namedview743"
     pagecolor="#ffffff"
     bordercolor="#666666"
     borderopacity="1.0"
     inkscape:pageshadow="2"
     inkscape:pageopacity="0.0"
     inkscape:pagecheckerboard="0"
     showgrid="false"
     inkscape:zoom="1.445"
     inkscape:cx="200"
     inkscape:cy="200"
     inkscape:window-width="1280"
     inkscape:window-height="961"
     inkscape:window-x="-8"
     inkscape:window-y="-8"
     inkscape:window-maximized="1"
     inkscape:current-layer="g747" />
  <g
     inkscape:groupmode="layer"
     inkscape:label="Image"
     id="g747">
    <g
       id="g885"
       transform="translate(0.27030747,-2.8607769)">
      <path
         style="fill:#cecece;stroke-width:1.33333"
         d="m 57.104132,385.88763 c -4.421481,-1.354 -7.461373,-3.46334 -10.475132,-7.26852 -7.398113,-9.34088 -7.978263,-13.53538 -7.814311,-56.49768 0.217999,-57.12488 1.693151,-115.07924 2.961442,-116.34635 0.610205,-0.60963 7.510205,-1.45617 15.333333,-1.88123 7.823128,-0.42504 13.173869,-0.87504 11.890536,-1 -2.041355,-0.19876 -2.333333,-1.80185 -2.333333,-12.81112 0,-24.04906 7.773313,-47.93581 23.008888,-70.70441 2.960809,-4.42474 11.070165,-13.66223 18.020785,-20.527756 L 120.33384,86.367796 101.50025,67.500549 C 91.14178,57.123564 82.666667,47.720315 82.666667,46.604439 c 0,-2.18781 13.251973,-15.937772 15.360544,-15.937772 0.70218,0 10.947309,9.657297 22.766959,21.460661 l 21.49027,21.46066 12.52444,-4.688295 c 19.59928,-7.336626 31.94584,-9.350689 52.41592,-8.550472 17.86224,0.698271 32.72317,3.974586 47.3576,10.440692 l 5.91573,2.613819 20.75094,-21.378857 C 292.66208,40.266504 302.92049,30.650664 304.04555,30.656343 306.63976,30.669436 320,44.097603 320,46.691912 c 0,1.067765 -8.44977,10.406268 -18.77728,20.752227 -21.04487,21.082488 -20.22129,18.401762 -8.58328,27.938236 23.92107,19.601515 43.36025,60.551635 43.33301,91.284295 -0.0107,12.06961 -0.91261,15.92654 -3.79462,16.22718 -1.1978,0.12494 4.22292,0.57496 12.04604,1 7.82313,0.42506 14.72313,1.27303 15.33333,1.88439 0.61021,0.61137 1.10947,36.91137 1.10947,80.66667 0,74.4233 -0.15744,79.87156 -2.44062,84.46102 -4.18952,8.42143 -10.69348,14.02072 -18.14137,15.61802 -4.54195,0.97406 -50.05971,1.40866 -141.72113,1.35312 C 85.205684,387.80853 62.32432,387.48624 57.104132,385.88763 Z M 145,204.41423 c -1.28333,-0.33536 -3.38333,-0.33536 -4.66667,0 -1.28333,0.33537 -0.23333,0.60977 2.33334,0.60977 2.56666,0 3.61666,-0.2744 2.33333,-0.60977 z m 114.66667,0 c -1.28334,-0.33536 -3.38334,-0.33536 -4.66667,0 -1.28333,0.33537 -0.23333,0.60977 2.33333,0.60977 2.56667,0 3.61667,-0.2744 2.33334,-0.60977 z m -104.2,-38.2809 C 159.29463,162.30537 160,160.65544 160,155.5294 c 0,-11.44721 -5.35439,-16.86273 -16.67239,-16.86273 -5.34252,0 -6.92594,0.665 -10.79428,4.53333 -3.99316,3.99316 -4.53333,5.35948 -4.53333,11.46667 0,6.10718 0.54017,7.4735 4.53333,11.46666 3.99316,3.99316 5.35948,4.53334 11.46667,4.53334 6.10719,0 7.47351,-0.54018 11.46667,-4.53334 z m 114.66666,0 c 3.99316,-3.99316 4.53334,-5.35948 4.53334,-11.46666 0,-6.10719 -0.54018,-7.47351 -4.53334,-11.46667 -3.85557,-3.85557 -5.46018,-4.53333 -10.73288,-4.53333 -6.93609,0 -13.29264,2.72818 -15.36093,6.59281 -0.75507,1.41087 -1.37285,5.66465 -1.37285,9.45287 0,6.05524 0.54788,7.43553 4.53333,11.42098 3.99316,3.99316 5.35948,4.53334 11.46667,4.53334 6.10718,0 7.4735,-0.54018 11.46666,-4.53334 z M 179.20815,46.795761 c -4.21148,-1.912654 -5.96847,-3.753482 -7.69064,-8.05759 -2.13011,-5.32368 -2.11167,-5.850835 0.40348,-11.536744 4.71445,-10.657822 17.2319,-12.575778 25.39128,-3.890518 2.71728,2.892407 4.30516,3.355758 11.50001,3.355758 11.48415,0 15.18772,1.577832 15.18772,6.470405 0,2.128359 -0.9,4.616676 -2,5.529595 -1.1,0.912918 -2,3.065276 -2,4.783014 0,7.004467 -11.16689,7.37876 -12.69408,0.425483 C 206.62453,40.772863 205.74212,40 202.88145,40 c -2.17172,0 -4.25066,1.084587 -5.30017,2.765111 -1.53243,2.453816 -9.09096,6.617026 -11.87179,6.53894 -0.57356,-0.01611 -3.49916,-1.144836 -6.50134,-2.50829 z M 188,33.333333 c 0,-1.466666 -0.86459,-2.666666 -1.92131,-2.666666 -2.35545,0 -3.86141,2.194186 -2.74536,4 C 184.78332,37.012793 188,36.093741 188,33.333333 Z"
         id="path899" />
      <path
         style="fill:#a8a8a8;stroke-width:1.33333"
         d="m 55.240001,384.14009 c -6.772833,-3.07208 -13.426017,-12.69249 -14.713942,-21.27614 -1.458018,-9.71727 0.728662,-153.82932 2.364022,-155.79982 2.150039,-2.59064 313.525079,-2.44369 315.676799,0.14898 1.10243,1.32833 1.41276,23.36184 1.14051,80.97257 -0.335,70.88407 -0.6057,79.56528 -2.59274,83.14765 -3.58236,6.45856 -9.92902,12.08908 -15.5122,13.76184 -3.82401,1.14571 -41.68864,1.55123 -143.06806,1.53223 C 67.37722,386.60287 60.402529,386.48176 55.240001,384.14009 Z M 257.33333,291 c 0,-0.55 -25.8,-1 -57.33333,-1 -31.53333,0 -57.33333,0.45 -57.33333,1 0,0.55 25.8,1 57.33333,1 31.53333,0 57.33333,-0.45 57.33333,-1 z M 68.057721,200.73621 c -2.300742,-2.77222 -0.481613,-23.73825 3.403984,-39.23194 6.043471,-24.09814 19.957818,-46.83164 39.908195,-65.202702 L 121.90209,86.603135 102.95104,67.618219 C 92.527969,57.176516 84,47.718255 84,46.599863 84,44.409679 95.926224,32 98.031083,32 c 0.70005,0 10.933937,9.647807 22.741967,21.439571 l 21.46915,21.439572 8.12469,-3.419638 c 20.39895,-8.585796 43.91479,-12.25753 64.09346,-10.007476 12.72762,1.419214 31.99485,6.32448 38.9317,9.911671 2.09487,1.083299 4.92523,1.969633 6.2897,1.969633 1.43581,0 11.06401,-8.705626 22.8568,-20.666666 C 293.74532,41.3 303.63129,32 304.50737,32 c 2.26294,0 14.56814,12.777365 13.98059,14.517035 -0.26837,0.794637 -8.7338,9.815157 -18.81204,20.045598 -11.11509,11.282944 -18.02227,19.289916 -17.55691,20.352418 0.42195,0.963389 4.31314,4.751616 8.64707,8.418282 8.41904,7.122817 22.14925,23.512607 27.58647,32.930037 9.82561,17.01828 16.31412,40.60394 16.31412,59.30168 0,7.47903 -0.59455,12.49616 -1.6,13.50162 -1.22272,1.22272 -32.46743,1.6 -132.50342,1.6 -112.635885,0 -131.126974,-0.2694 -132.505529,-1.93046 z m 88.859569,-34.54498 c 3.66382,-3.99791 4.41604,-5.86586 4.41604,-10.96592 0,-11.83858 -7.72476,-18.87095 -19.29621,-17.56668 -4.77829,0.53858 -7.39959,1.75512 -10.53264,4.88817 -3.73004,3.73004 -4.17115,5.00309 -4.17115,12.03809 0,6.5461 0.55966,8.46911 3.33334,11.4535 4.59224,4.9411 7.59752,6.01598 15.25062,5.45456 5.55479,-0.4075 7.27427,-1.23624 11,-5.30172 z m 111.0296,3.62805 C 273.06232,166.79752 276,161.27003 276,154.66667 c 0,-10.36196 -6.94668,-17.33334 -17.27193,-17.33334 -11.17318,0 -17.39474,6.47047 -17.39474,18.09066 0,5.45104 0.64219,6.86525 5.17647,11.39954 4.54873,4.54872 5.93857,5.17647 11.46095,5.17647 3.45646,0 7.94572,-0.98132 9.97614,-2.18072 z M 178.35009,45.912816 c -4.00385,-2.172472 -7.68342,-8.196744 -7.68342,-12.579483 0,-4.517169 3.74282,-10.465193 7.95636,-12.644097 6.58034,-3.402829 11.73246,-2.600405 16.97697,2.644097 C 200.08429,27.817631 200.64852,28 210.03809,28 c 7.10535,0 10.34311,0.571676 11.86667,2.095239 2.74461,2.744617 2.64369,4.02297 -0.57143,7.238094 -1.46666,1.466667 -2.66666,4.155236 -2.66666,5.974598 0,2.421032 -0.89835,3.533402 -3.35066,4.148889 C 211.16089,48.499689 208,46.071525 208,41.83674 c 0,-5.096692 -6.60373,-4.299667 -12.4,1.496593 -5.22272,5.222722 -10.83241,6.061574 -17.24991,2.579483 z m 10.74343,-12.265731 c 0.54687,-3.833749 -3.22304,-5.42232 -6.08237,-2.562996 -1.7704,1.770406 -1.82791,2.46183 -0.35256,4.239511 2.3994,2.891103 5.91398,1.975435 6.43493,-1.676515 z"
         id="path897" />
      <path
         style="fill:#8f8f8f;stroke-width:1.33333"
         d="m 55.244411,383.44828 c -2.248908,-0.97937 -6.148908,-4.37999 -8.666667,-7.55691 L 42,370.11516 41.533067,344.72424 c -0.256814,-13.965 -0.03632,-50.73337 0.48998,-81.70751 l 0.956914,-56.3166 157.882919,-4.1e-4 157.88291,-4.1e-4 -0.3729,81.20329 -0.37289,81.20329 -4,5.64244 c -8.13895,11.48087 4.85939,10.59174 -153.9792,10.53282 C 85.6851,385.23875 58.567449,384.89543 55.244411,383.44828 Z M 257.33333,291.33333 c 0.91292,-1.1 1.28639,-2.0066 0.82992,-2.01465 -0.45645,-0.008 -26.62992,-0.0147 -58.16325,-0.0147 -31.53333,0 -57.7068,0.007 -58.16325,0.0147 -0.45647,0.008 -0.0831,0.91465 0.82992,2.01465 1.42693,1.71935 9.4724,2 57.33333,2 47.86093,0 55.9064,-0.28065 57.33333,-2 z M 68.570987,187 c 2.336872,-35.8274 13.112049,-59.46264 38.994883,-85.53488 7.5721,-7.627523 13.76746,-14.520016 13.76746,-15.316656 0,-0.796639 -8.53479,-9.998481 -18.9662,-20.448539 L 83.400921,46.699821 89.983672,40.016577 c 3.620512,-3.675784 7.213065,-6.683244 7.983452,-6.683244 0.770387,0 10.092946,8.739072 20.716786,19.420162 10.62385,10.681088 20.35678,19.99722 21.62876,20.702516 1.68498,0.934312 6.57037,-0.152572 18,-4.004576 31.65438,-10.668134 64.10097,-10.136914 92.1576,1.508817 l 9.80361,4.069275 21.6862,-21.656327 c 24.26861,-24.235175 22.67447,-23.564071 31.84976,-13.408116 3.79153,4.19678 4.63076,5.965969 3.67612,7.749721 -0.68037,1.271286 -9.09304,9.954083 -18.69483,19.295103 -9.60178,9.34102 -17.4578,17.639081 -17.4578,18.440135 0,0.801054 5.88608,7.252498 13.08018,14.336542 C 321.06925,126.03457 333.30213,153.45316 333.32399,187 l 0.009,14.33333 H 200.48471 67.636083 Z m 86.704003,-18.19844 c 11.36909,-8.67163 8.20377,-27.01983 -5.43799,-31.52201 -16.59219,-5.47593 -30.7519,13.66148 -20.62786,27.87937 6.12457,8.60116 17.4837,10.18857 26.06585,3.64264 z m 113.9429,0.86797 c 10.40574,-7.62081 10.13572,-23.45645 -0.519,-30.43769 -12.33602,-8.08288 -29.87374,2.19753 -28.29657,16.58715 1.57097,14.3331 17.62211,22.04828 28.81557,13.85054 z M 175.89744,42.769231 C 167.18051,34.052295 173.19069,20 185.63588,20 c 4.91284,0 6.55199,0.73354 10.31519,4.616179 4.2884,4.424512 4.92146,4.632116 15.24681,5 9.19276,0.327532 10.84081,0.740568 11.23757,2.81636 0.25574,1.337896 -0.533,3.535269 -1.75273,4.883052 -1.92664,2.128918 -2.85659,4.520398 -3.24737,8.351076 -0.0561,0.55 -1.90202,1 -4.10202,1 -3.28502,0 -4,-0.548148 -4,-3.066667 0,-7.450117 -6.86474,-8.273887 -13.33333,-1.6 -3.81379,3.934827 -5.43912,4.666667 -10.36412,4.666667 -4.67808,0 -6.61699,-0.775974 -9.73844,-3.897436 z m 13.43589,-7.435898 c 1.32426,-1.595621 1.32426,-2.404378 0,-4 -3.54665,-4.273462 -9.48101,-1.11598 -7.51782,4 0.4221,1.1 1.91282,2 3.31272,2 1.39989,0 3.29218,-0.9 4.2051,-2 z"
         id="path895" />
      <path
         style="fill:#595959;stroke-width:1.33333"
         d="m 55.285932,382.66644 c -6.566592,-3.24889 -12.189375,-11.5572 -13.433623,-19.84972 -1.199572,-7.99477 0.65795,-153.83367 1.976332,-155.16716 0.553071,-0.55941 22.567883,-0.85941 48.921804,-0.66667 L 140.66667,207.33333 141.33333,250 142,292.66667 h 58 58 L 258.66667,250 259.33333,207.33333 H 308.66667 358 l 0.34423,77.1504 c 0.2266,50.78603 -0.13431,78.92752 -1.05611,82.35084 -0.77019,2.86024 -3.18272,7.23047 -5.3612,9.71162 -8.1264,9.25545 0.51028,8.76066 -152.94064,8.76186 -135.256336,0.001 -138.478759,-0.0581 -143.700348,-2.64161 z m 89.323938,-95.00035 c -0.35814,-0.93328 -0.49187,-19.38994 -0.29718,-41.01481 l 0.35398,-39.31795 H 200 255.33333 V 248 288.66667 l -55.03616,0.34816 c -43.57622,0.27565 -55.17174,-0.005 -55.6873,-1.34874 z M 68.634545,199.94803 C 67.416303,197.97687 69.204737,177.12285 71.545916,166 c 5.070769,-24.09103 18.46628,-47.28579 38.594664,-66.827929 6.88935,-6.688694 12.52585,-12.688694 12.52556,-13.333334 -2.9e-4,-0.644638 -8.40029,-9.166306 -18.66666,-18.937038 C 93.733097,57.130967 85.333333,48.105892 85.333333,46.845976 c 0,-2.375836 10.469039,-13.512643 12.70242,-13.512643 0.697482,0 10.929267,9.647807 22.737297,21.439571 l 21.46915,21.439572 8.12469,-3.419637 c 20.39895,-8.585796 43.91479,-12.257531 64.09346,-10.007476 12.72762,1.419213 31.99485,6.32448 38.9317,9.91167 2.09487,1.083299 4.89591,1.969634 6.22454,1.969634 1.34061,0 11.59872,-9.197403 23.05008,-20.666667 11.34892,-11.366667 21.26673,-20.666667 22.03958,-20.666667 1.75496,0 12.62708,10.965038 12.62708,12.734999 0,0.7154 -8.4,9.684651 -18.66666,19.931668 C 288.4,76.247017 280,85.109087 280,85.693487 c 0,0.5844 5.17585,5.992438 11.50191,12.017862 22.61712,21.542311 32.73981,38.770121 39.13706,66.607361 2.05384,8.93716 2.72582,15.66265 2.43268,24.34796 l -0.40498,12 -131.58396,0.33982 c -90.7106,0.23427 -131.852415,-0.0945 -132.448165,-1.05846 z m 88.944895,-33.05766 c 4.38952,-4.7058 5.08723,-6.30788 5.08723,-11.68136 0,-17.54101 -19.46952,-25.69504 -31.83271,-13.33185 -4.46723,4.46723 -4.83396,5.43255 -4.83396,12.72417 0,6.93891 0.48228,8.39978 4,12.11632 5.32135,5.62212 8.08515,6.68316 15.91277,6.10906 5.69284,-0.41754 7.26495,-1.21747 11.66667,-5.93634 z m 110.89883,3.91244 c 11.92296,-7.86065 11.92296,-24.41164 0,-32.27229 -4.66919,-3.07835 -13.79159,-3.29884 -19.27011,-0.46579 -8.27903,4.28126 -11.94953,17.55052 -7.11723,25.72955 5.33488,9.02967 18.1564,12.43509 26.38734,7.00853 z M 176.53333,42.133333 C 171.41879,37.018785 170.7482,32.530573 174.22036,26.652672 176.81167,22.265951 181.13225,20 186.90531,20 c 2.97353,0 5.3326,1.292984 8.51438,4.666667 4.26415,4.52131 4.71042,4.666666 14.32751,4.666666 11.92047,0 15.11737,2.12991 10.56539,7.039087 -1.51003,1.628503 -2.94808,4.460913 -3.19571,6.294247 C 216.77347,45.209296 215.87907,46 213.34643,46 c -2.64791,0 -3.45907,-0.809975 -4.00583,-4 -0.57688,-3.365723 -1.37327,-4.066361 -5.02232,-4.418499 -3.52733,-0.340393 -5.17311,0.468346 -8.81827,4.333334 -6.18989,6.563196 -12.54873,6.63645 -18.96668,0.218498 z m 13.31694,-6.466666 c 1.87734,-2.981072 -0.31839,-6.830104 -4.22956,-7.414246 -4.25878,-0.636058 -6.53042,4.532396 -3.47566,7.90786 2.72992,3.016528 5.61092,2.831964 7.70522,-0.493614 z"
         id="path893" />
      <path
         style="fill:#303030;stroke-width:1.33333"
         d="m 55.099228,381.85757 c -2.328759,-1.15198 -5.928759,-4.53797 -8,-7.52441 -3.761527,-5.42359 -3.766436,-5.4594 -4.232736,-30.88152 C 42.609729,329.45324 42.830252,293.25 43.356532,263 l 0.956881,-55 H 92.156707 140 v 41.73333 c 0,30.68148 0.42371,42.15704 1.6,43.33334 2.30085,2.30085 114.49915,2.30085 116.8,0 1.17629,-1.1763 1.6,-12.65186 1.6,-43.33334 V 208 h 48.70655 48.70654 l -0.37321,80.54387 -0.37321,80.54386 -4.0948,5.1228 c -8.17215,10.22376 -4.84723,9.83971 -81.9052,9.46062 L 202,383.33333 l -0.69656,-40 c -0.38312,-22 -0.90656,-39.4 -1.16321,-38.66666 -0.25664,0.73333 -0.54319,18.73333 -0.63676,40 l -0.17014,38.66666 -70,0.30939 c -61.357661,0.2712 -70.522747,0.0508 -74.234102,-1.78515 z M 145.33333,248 V 208 H 200 254.66667 v 40 40 H 200 145.33333 Z M 69.966272,186.33333 C 71.226949,167.61791 74.858907,153.75667 82.630703,138 90.819183,121.39854 99.850376,109.403 113.45322,97.060479 119.25395,91.797199 124,87.054563 124,86.521287 124,85.988012 115.6,77.289675 105.33333,67.191649 95.066667,57.093624 86.666667,47.866261 86.666667,46.686399 c 0,-2.287192 9.235336,-12.019732 11.405684,-12.019732 0.711286,0 10.578729,9.3 21.927649,20.666666 C 131.34892,66.7 141.58821,76 142.75399,76 c 1.16577,0 5.67854,-1.446131 10.02837,-3.213623 32.19087,-13.080321 66.40801,-12.63571 102.23997,1.328488 l 6.35567,2.476888 21.67976,-21.64989 21.67976,-21.649892 5.63124,5.737817 c 3.09719,3.155799 5.63124,6.3747 5.63124,7.153113 0,0.778414 -8.1,9.308355 -18,18.955424 -10.71928,10.445418 -18,18.571304 -18,20.089486 0,1.466724 6.1474,8.683608 14.47571,16.994109 C 320.19993,127.89114 332,154.42397 332,186.59655 V 200 H 200.52284 69.045681 Z m 84.584958,-15.35828 c 1.89682,-1.40446 4.79877,-4.53714 6.44877,-6.96149 9.81588,-14.42251 -6.64651,-34.20066 -23.24653,-27.92873 -13.02926,4.92278 -17.44697,20.40318 -8.76652,30.71932 6.75152,8.02372 17.90349,9.8432 25.56428,4.1709 z m 113.73818,0.70208 c 12.74063,-7.16062 13.62044,-23.93585 1.74319,-33.23693 -5.64201,-4.41825 -16.92289,-4.37381 -23.18345,0.0913 -8.23462,5.87308 -10.5798,17.51671 -5.15075,25.57288 6.91004,10.2538 16.8062,13.07208 26.59101,7.57271 z M 179.15211,43.77388 c -5.49247,-2.659497 -7.26308,-10.446661 -3.8681,-17.011852 2.24311,-4.337676 4.42758,-5.428695 10.86948,-5.428695 3.48172,0 5.73814,1.136068 9.26874,4.666667 4.55229,4.552301 4.92697,4.666667 15.28888,4.666667 11.58753,0 13.23862,1.3836 7.95556,6.666666 C 217.2,38.8 216,41.2 216,42.666667 c 0,1.777777 -0.88889,2.666666 -2.66667,2.666666 -1.89372,0 -2.66666,-0.888889 -2.66666,-3.066666 0,-7.65895 -8.313,-8.531451 -15.24444,-1.6 -4.9329,4.932882 -10.35942,5.969224 -16.27012,3.107213 z m 11.54681,-7.834156 C 193.38356,30.923437 187.70059,25.305929 182.66667,28 c -3.51563,1.881508 -3.43099,7.313435 0.15306,9.823809 3.2309,2.263003 6.01619,1.596979 7.87919,-1.884085 z"
         id="path891" />
      <path
         style="fill:#191919;stroke-width:1.33333"
         d="m 56.661736,381.52277 c -3.165349,-1.44186 -6.964436,-4.77689 -9.333333,-8.19326 l -3.99507,-5.76159 -0.3567,-34.78396 C 42.780449,313.65279 43.080449,277.9 43.6433,253.33333 l 1.023367,-44.66666 H 92 139.33333 L 140,251.33333 140.66667,294 H 200 259.33333 L 260,251.33333 l 0.66667,-42.66666 h 48 48 L 357.06137,282 c 0.2171,40.33333 0.0291,76.44205 -0.41781,80.24159 -1.07015,9.09872 -8.47009,17.96664 -16.92485,20.28238 -4.11086,1.12595 -24.08759,1.45992 -71.05204,1.18784 L 203.33333,383.33333 202.98045,343 c -0.30297,-34.62761 -0.63305,-40.33333 -2.33333,-40.33333 -1.08925,0 -2.01947,1.05 -2.06716,2.33333 -0.0477,1.28333 -0.19769,19.43333 -0.33333,40.33333 l -0.24663,38 -68,0.31056 c -63.356575,0.28935 -68.364527,0.14451 -73.338264,-2.12112 z m 89.280934,-95.19138 c -0.35856,-0.9344 -0.49235,-18.79123 -0.29731,-39.68183 L 146,208.66667 h 54 54 V 248 287.33333 l -53.70269,0.3485 c -42.53071,0.27598 -53.83832,-0.005 -54.35464,-1.35044 z M 70.024187,198.7058 c -1.161818,-1.87985 0.493618,-20.44001 2.798205,-31.37247 5.50178,-26.09924 19.268791,-49.48436 40.637268,-69.027837 5.7964,-5.301354 10.53923,-10.53132 10.53962,-11.622145 4e-4,-1.090825 -8.53279,-10.532079 -18.96263,-20.980564 l -18.963354,-18.997245 5.927927,-6.040118 5.927925,-6.040117 21.383472,21.354015 c 11.76091,11.744708 21.89383,21.354014 22.51761,21.354014 0.62376,0 6.61714,-2.048988 13.31861,-4.553305 34.42664,-12.865124 66.01737,-12.098204 99.80833,2.423024 2.72646,1.171655 5.41264,2.130281 5.96934,2.130281 0.55668,0 10.49517,-9.702998 22.08553,-21.562218 l 21.0734,-21.562219 5.29061,5.166149 c 2.90984,2.841382 5.29062,5.786614 5.29062,6.54496 0,0.758347 -8.18051,9.574999 -18.1789,19.59256 -21.13134,21.171866 -21.02173,20.767351 -8.44198,31.154102 C 314.85,118.79819 332.82224,156.37716 331.72616,188 l -0.39283,11.33333 -130.2506,0.3399 C 117.0404,199.89253 70.545511,199.54936 70.024187,198.7058 Z m 83.042023,-25.91245 c 7.13964,-3.71475 10.06242,-8.25919 10.59804,-16.47828 0.87,-13.34979 -6.66701,-21.65416 -19.64345,-21.64342 -18.67637,0.0155 -27.12963,22.83526 -13.14749,35.49198 1.71968,1.55665 4.02669,3.15929 5.12669,3.5614 3.92425,1.43453 13.52587,0.91036 17.06621,-0.93168 z m 119.93558,-3.83958 c 4.42012,-4.42012 4.91721,-5.66657 5.4221,-13.59558 l 0.55584,-8.72934 -5.98109,-5.98109 c -5.70224,-5.70224 -6.33937,-5.98109 -13.66583,-5.98109 -13.74109,0 -20.66614,6.88749 -20.66614,20.55405 0,6.36879 0.57034,8.00275 4.26044,12.20552 5.52541,6.29311 8.11544,7.30171 17.47398,6.80461 6.86376,-0.36457 8.28222,-0.95861 12.6007,-5.27708 z M 179.85073,43.333811 c -5.04994,-2.744599 -7.30425,-8.881878 -5.16206,-14.05358 3.77584,-9.115695 12.31228,-10.545948 19.578,-3.280231 4.53978,4.539783 4.95092,4.666667 15.1213,4.666667 11.26203,0 14.18654,1.58351 9.57216,5.182953 -1.5162,1.182709 -2.95249,3.65038 -3.19176,5.483713 -0.61496,4.711916 -4.25405,4.235752 -5.09501,-0.666666 -0.62185,-3.625136 -1.21815,-4.038499 -6.36289,-4.410803 -5.02851,-0.363891 -6.18768,0.130947 -10.15104,4.333333 -4.85636,5.14924 -8.57267,5.862082 -14.3087,2.744614 z M 190.4,38.4 c 0.88,-0.88 1.6,-3.16 1.6,-5.066667 0,-6.403036 -6.02337,-8.868785 -10.89501,-4.460016 -3.02559,2.738114 -3.09974,5.519184 -0.23167,8.688362 2.52076,2.785416 7.17043,3.194573 9.52668,0.838321 z"
         id="path889" />
      <path
         style="fill:#000000;stroke-width:1.33333"
         d="m 56.198981,380.40471 c -2.457226,-1.2107 -6.057226,-4.60115 -8,-7.53436 -3.439268,-5.19263 -3.544672,-5.96799 -4.001425,-29.43507 -0.258011,-13.25607 -0.03749,-48.85195 0.49004,-79.10195 l 0.959151,-55 h 46.50996 46.509963 v 41.73334 c 0,30.68148 0.4237,42.15704 1.6,43.33333 2.30165,2.30165 117.16501,2.30165 119.46666,0 1.1763,-1.17629 1.6,-12.65185 1.6,-43.33333 V 209.33333 H 308.66667 356 l -0.008,76.33334 c -0.004,47.60638 -0.51619,78.08956 -1.35931,81 -0.74353,2.56666 -2.83637,6.34569 -4.65074,8.39782 -6.7317,7.61444 -6.60384,7.60218 -79.25291,7.60218 h -66.68993 l -0.3529,-40.33334 C 203.34213,303.00652 203.26679,302 200.66667,302 c -2.60012,0 -2.67547,1.00652 -3.01955,40.33333 l -0.35289,40.33334 -68.31378,-0.0304 c -60.766537,-0.0271 -68.807369,-0.27355 -72.781469,-2.2316 z M 146.66667,248 V 209.33333 H 200 253.33333 V 248 286.66667 H 200 146.66667 Z M 71.242665,187 c 2.705164,-35.40508 14.049384,-59.37531 40.395705,-85.35574 8.04385,-7.932143 13.70238,-14.555248 13.45508,-15.748695 -0.23473,-1.132789 -8.81768,-10.40312 -19.07321,-20.600733 l -18.646436,-18.541116 5.256225,-5.382863 5.256226,-5.382864 21.652585,21.509219 c 17.0752,16.962139 22.16085,21.303671 24.05687,20.536909 C 164.21107,69.697141 173.96859,67.029985 190,65.349799 c 19.42925,-2.036302 43.92807,1.539621 60.49924,8.830656 3.94125,1.734084 8.44125,3.15488 10,3.157326 1.91201,0.0031 9.41453,-6.794249 23.05976,-20.892042 l 20.22565,-20.89649 4.67808,3.892042 c 2.57294,2.140624 4.72139,4.83836 4.77434,5.99497 0.0529,1.156611 -6.65374,8.734047 -14.90374,16.838746 -22.5979,22.199908 -21.64418,20.977106 -19.76348,25.339462 0.88182,2.045375 4.91452,6.377451 8.96158,9.626834 8.10353,6.506317 20.40201,20.931887 27.01746,31.690267 9.77132,15.89062 16.09406,38.42144 16.10843,57.40176 l 0.009,12.33334 H 200.50896 70.351261 Z M 155.6836,172.43713 c 5.66457,-4.22921 8.56577,-9.07668 9.2928,-15.52689 2.35381,-20.88293 -23.72932,-31.86929 -37.31893,-15.71896 -8.81216,10.47265 -4.92844,27.31815 7.60976,33.00708 5.39638,2.44848 16.0035,1.53345 20.41637,-1.76123 z m 113.14863,0.81606 c 10.17929,-4.92771 14.16345,-18.89334 8.34392,-29.2478 -7.88286,-14.02565 -30.01123,-14.0498 -37.1582,-0.0405 -9.9306,19.46556 9.11506,38.82459 28.81428,29.28836 z M 177.9394,40.727273 c -6.78121,-6.781205 -1.91876,-18.060606 7.78576,-18.060606 3.45999,0 5.50389,1.088888 8.7596,4.666666 C 198.66003,31.921639 198.90991,32 209.36567,32 215.21455,32 220,32.466656 220,33.037012 c 0,0.570357 -1.2,2.064484 -2.66667,3.320284 -1.46666,1.255799 -2.66666,3.489143 -2.66666,4.962988 0,1.473844 -0.6,2.679716 -1.33334,2.679716 C 212.6,44 212,42.62 212,40.933333 c 0,-4.389554 -2.46651,-6.266666 -8.23433,-6.266666 -4.05576,0 -5.85978,0.907102 -9.28091,4.666666 -5.32185,5.848323 -11.565,6.374306 -16.54536,1.39394 z m 12.72727,-2.060606 C 192.13333,37.2 193.33333,34.8 193.33333,33.333333 c 0,-5.315894 -7.30224,-9.760505 -11.46706,-6.979582 -5.09315,3.400789 -4.84178,10.446105 0.48341,13.548601 3.44605,2.007697 5.35761,1.723691 8.31699,-1.235685 z"
         id="path887" />
    </g>
  </g>
</svg>
