<svg viewBox="0 0 48 48" version="1.1" id="svg6003" xmlns="http://www.w3.org/2000/svg"><defs id="defs5975"><style id="style5973">.a{fill:none;stroke:#000;stroke-linecap:round;stroke-linejoin:round}</style></defs><path class="a" d="M14.5 5.5v17.2l1.9-1.8 2.5 2.4 2.5-2.5 2.5 2.6 2.5-2.5 2.5 2.4 2.5-2.5 2 2V5.5" id="path5977" style="stroke-width:2;stroke-miterlimit:4;stroke-dasharray:none"/><path class="a" d="M34.4 35.6c0-3.3 5.2-3.5 5.2 0" id="path5979" style="stroke-width:2;stroke-miterlimit:4;stroke-dasharray:none"/><path class="a" id="rect5981" style="stroke-width:2;stroke-miterlimit:4;stroke-dasharray:none" d="M34.4 35.6h5.2v4.3h-5.2z"/><path class="a" d="M38.2 40v2.5" id="path5983" style="stroke-width:2;stroke-miterlimit:4;stroke-dasharray:none"/><path class="a" d="M35.7 40v2.5" id="path5985" style="stroke-width:2;stroke-miterlimit:4;stroke-dasharray:none"/><path class="a" d="M32.9 35.2v4" id="path5987" style="stroke-width:2;stroke-miterlimit:4;stroke-dasharray:none"/><path class="a" d="M41.1 35.2v4" id="path5989" style="stroke-width:2;stroke-miterlimit:4;stroke-dasharray:none"/><path class="a" d="M36.1 33.2 35 31.7" id="path5991" style="stroke-width:2;stroke-miterlimit:4;stroke-dasharray:none"/><path class="a" d="m37.9 33.2 1.1-1.5" id="path5993" style="stroke-width:2;stroke-miterlimit:4;stroke-dasharray:none"/><path class="a" id="polyline5995" style="stroke-width:2;stroke-miterlimit:4;stroke-dasharray:none" d="M27.6 9.7v8h4"/><path class="a" id="polyline5997" style="stroke-width:2;stroke-miterlimit:4;stroke-dasharray:none" d="M17.3 17.7v-8l4 8 4-8v8"/><path class="a" d="M37 28.6a8.5 8.5 0 1 0 8.5 8.5h0a8.49 8.49 0 0 0-8.5-8.5Z" id="path5999" style="stroke-width:2;stroke-miterlimit:4;stroke-dasharray:none"/><path class="a" d="M30.5 42.5h-23a2 2 0 0 1-2-2v-33a2 2 0 0 1 2-2h33a2 2 0 0 1 2 2v23.1" id="path6001" style="stroke-width:2;stroke-miterlimit:4;stroke-dasharray:none"/></svg>