<svg width="400" height="400" viewBox="0 0 400 400" xmlns="http://www.w3.org/2000/svg"><path style="fill:#cecece;stroke-width:1.33333" d="M57.104 385.888c-4.421-1.354-7.461-3.464-10.475-7.269-7.398-9.34-7.978-13.535-7.814-56.498.218-57.124 1.693-115.079 2.961-116.346.61-.61 7.51-1.456 15.333-1.881 7.824-.425 13.174-.875 11.891-1-2.041-.199-2.333-1.802-2.333-12.811 0-24.05 7.773-47.936 23.009-70.705 2.96-4.424 11.07-13.662 18.02-20.527l12.638-12.483L101.5 67.5C91.142 57.124 82.667 47.72 82.667 46.604c0-2.187 13.252-15.937 15.36-15.937.702 0 10.948 9.657 22.767 21.46l21.49 21.461L154.81 68.9c19.6-7.337 31.946-9.351 52.416-8.55 17.862.697 32.723 3.974 47.357 10.44l5.916 2.614 20.751-21.38c11.413-11.757 21.671-21.373 22.797-21.368C306.64 30.67 320 44.098 320 46.692c0 1.068-8.45 10.406-18.777 20.752-21.045 21.083-20.222 18.402-8.584 27.938 23.922 19.602 43.36 60.552 43.333 91.285-.01 12.07-.912 15.926-3.794 16.227-1.198.125 4.223.575 12.046 1 7.823.425 14.723 1.273 15.333 1.884.61.612 1.11 36.912 1.11 80.667 0 74.423-.158 79.871-2.441 84.46-4.19 8.422-10.693 14.022-18.141 15.619-4.542.974-50.06 1.409-141.721 1.353-113.158-.068-136.04-.39-141.26-1.99ZM145 204.414c-1.283-.335-3.383-.335-4.667 0-1.283.336-.233.61 2.334.61 2.566 0 3.616-.274 2.333-.61zm114.667 0c-1.284-.335-3.384-.335-4.667 0-1.283.336-.233.61 2.333.61 2.567 0 3.617-.274 2.334-.61zm-104.2-38.28c3.828-3.829 4.533-5.479 4.533-10.605 0-11.447-5.354-16.862-16.672-16.862-5.343 0-6.926.665-10.795 4.533-3.993 3.993-4.533 5.36-4.533 11.467s.54 7.473 4.533 11.466c3.993 3.993 5.36 4.534 11.467 4.534s7.474-.54 11.467-4.534zm114.666 0c3.993-3.994 4.534-5.36 4.534-11.467 0-6.108-.54-7.474-4.534-11.467-3.855-3.856-5.46-4.533-10.733-4.533-6.936 0-13.292 2.728-15.36 6.592-.756 1.411-1.373 5.665-1.373 9.453 0 6.056.548 7.436 4.533 11.421 3.993 3.993 5.36 4.534 11.467 4.534s7.473-.54 11.466-4.534zM179.208 46.795c-4.211-1.913-5.968-3.754-7.69-8.058-2.13-5.324-2.112-5.85.403-11.537 4.714-10.657 17.232-12.575 25.391-3.89 2.718 2.892 4.305 3.356 11.5 3.356 11.484 0 15.188 1.577 15.188 6.47 0 2.128-.9 4.617-2 5.53-1.1.913-2 3.065-2 4.783 0 7.004-11.167 7.378-12.694.425-.681-3.102-1.564-3.875-4.425-3.875-2.171 0-4.25 1.085-5.3 2.765-1.532 2.454-9.09 6.617-11.872 6.54-.573-.017-3.499-1.146-6.5-2.51zM188 33.333c0-1.466-.865-2.666-1.921-2.666-2.356 0-3.862 2.194-2.746 4 1.45 2.346 4.667 1.427 4.667-1.334Z" transform="translate(.27 -2.86)"/><path style="fill:#a8a8a8;stroke-width:1.33333" d="M55.24 384.14c-6.773-3.072-13.426-12.692-14.714-21.276-1.458-9.717.729-153.83 2.364-155.8 2.15-2.59 313.525-2.444 315.677.15 1.102 1.327 1.413 23.36 1.14 80.972-.335 70.884-.605 79.565-2.592 83.147-3.583 6.459-9.93 12.09-15.513 13.762-3.824 1.146-41.688 1.551-143.068 1.532-131.157-.024-138.131-.145-143.294-2.487ZM257.333 291c0-.55-25.8-1-57.333-1-31.533 0-57.333.45-57.333 1s25.8 1 57.333 1c31.533 0 57.333-.45 57.333-1zM68.058 200.736c-2.301-2.772-.482-23.738 3.404-39.232 6.043-24.098 19.958-46.831 39.908-65.202l10.532-9.699-18.951-18.985C92.528 57.177 84 47.718 84 46.6 84 44.41 95.926 32 98.031 32c.7 0 10.934 9.648 22.742 21.44l21.47 21.44 8.124-3.42c20.399-8.586 43.915-12.258 64.093-10.008 12.728 1.42 31.995 6.325 38.932 9.912 2.095 1.083 4.925 1.97 6.29 1.97 1.436 0 11.064-8.706 22.857-20.667C293.745 41.3 303.63 32 304.507 32c2.263 0 14.569 12.777 13.981 14.517-.268.795-8.734 9.815-18.812 20.046-11.115 11.283-18.022 19.29-17.557 20.352.422.963 4.313 4.752 8.647 8.418 8.42 7.123 22.15 23.513 27.587 32.93 9.825 17.019 16.314 40.604 16.314 59.302 0 7.48-.595 12.496-1.6 13.502-1.223 1.222-32.468 1.6-132.504 1.6-112.636 0-131.127-.27-132.505-1.93zm88.86-34.545c3.663-3.998 4.415-5.866 4.415-10.966 0-11.838-7.724-18.87-19.296-17.566-4.778.538-7.4 1.755-10.533 4.888-3.73 3.73-4.17 5.003-4.17 12.038 0 6.546.559 8.469 3.333 11.453 4.592 4.941 7.597 6.016 15.25 5.455 5.555-.408 7.275-1.236 11-5.302zm111.029 3.628c5.115-3.021 8.053-8.549 8.053-15.152 0-10.362-6.947-17.334-17.272-17.334-11.173 0-17.395 6.47-17.395 18.091 0 5.451.643 6.865 5.177 11.4 4.549 4.548 5.938 5.176 11.46 5.176 3.457 0 7.946-.981 9.977-2.18zM178.35 45.913c-4.004-2.173-7.683-8.197-7.683-12.58 0-4.517 3.742-10.465 7.956-12.644 6.58-3.403 11.732-2.6 16.977 2.644 4.484 4.485 5.049 4.667 14.438 4.667 7.105 0 10.343.572 11.867 2.095 2.744 2.745 2.643 4.023-.572 7.238-1.466 1.467-2.666 4.156-2.666 5.975 0 2.421-.899 3.533-3.351 4.149-4.155 1.043-7.316-1.385-7.316-5.62 0-5.097-6.604-4.3-12.4 1.496-5.223 5.223-10.832 6.062-17.25 2.58zm10.744-12.266c.546-3.834-3.224-5.422-6.083-2.563-1.77 1.77-1.828 2.462-.352 4.24 2.399 2.89 5.914 1.975 6.435-1.677z" transform="translate(.27 -2.86)"/><path style="fill:#8f8f8f;stroke-width:1.33333" d="M55.244 383.448c-2.248-.98-6.148-4.38-8.666-7.557L42 370.115l-.467-25.39c-.257-13.966-.036-50.734.49-81.708l.957-56.317h315.766l-.373 81.203-.373 81.203-4 5.642c-8.139 11.481 4.86 10.592-153.98 10.533-114.335-.042-141.453-.386-144.776-1.833Zm202.09-92.115c.912-1.1 1.286-2.006.83-2.014-.457-.008-26.63-.015-58.164-.015-31.533 0-57.707.007-58.163.015-.457.008-.083.914.83 2.014 1.427 1.72 9.472 2 57.333 2 47.86 0 55.906-.28 57.333-2zM68.57 187c2.337-35.827 13.112-59.463 38.995-85.535 7.572-7.627 13.767-14.52 13.767-15.317 0-.796-8.534-9.998-18.966-20.448L83.4 46.7l6.583-6.683c3.62-3.676 7.213-6.684 7.983-6.684.77 0 10.093 8.74 20.717 19.42 10.624 10.682 20.357 19.998 21.629 20.703 1.685.934 6.57-.153 18-4.005 31.654-10.668 64.1-10.136 92.157 1.51l9.804 4.069 21.686-21.657c24.269-24.235 22.675-23.564 31.85-13.408 3.791 4.197 4.63 5.966 3.676 7.75-.68 1.271-9.093 9.954-18.695 19.295-9.602 9.34-17.458 17.639-17.458 18.44 0 .801 5.886 7.253 13.08 14.337 26.656 26.248 38.89 53.666 38.911 87.213l.009 14.333H67.636Zm86.704-18.198c11.37-8.672 8.204-27.02-5.438-31.522-16.592-5.476-30.752 13.661-20.628 27.879 6.125 8.601 17.484 10.188 26.066 3.643zm113.943.868c10.406-7.621 10.136-23.457-.52-30.438-12.335-8.083-29.873 2.197-28.296 16.587 1.571 14.333 17.622 22.048 28.816 13.85zm-93.32-126.9C167.18 34.051 173.19 20 185.635 20c4.913 0 6.552.734 10.315 4.616 4.288 4.425 4.922 4.632 15.247 5 9.193.328 10.84.74 11.237 2.817.256 1.337-.533 3.535-1.752 4.883-1.927 2.129-2.857 4.52-3.248 8.35-.056.55-1.902 1-4.102 1-3.285 0-4-.547-4-3.066 0-7.45-6.864-8.274-13.333-1.6-3.814 3.935-5.44 4.667-10.364 4.667-4.678 0-6.617-.776-9.739-3.898zm13.435-7.437c1.325-1.595 1.325-2.404 0-4-3.546-4.273-9.48-1.116-7.517 4 .422 1.1 1.912 2 3.312 2s3.292-.9 4.205-2z" transform="translate(.27 -2.86)"/><path style="fill:#595959;stroke-width:1.33333" d="M55.286 382.666c-6.567-3.248-12.19-11.557-13.434-19.85-1.2-7.994.658-153.833 1.977-155.166.553-.56 22.568-.86 48.921-.667l47.917.35.666 42.667.667 42.667h116l.667-42.667.666-42.667H358l.344 77.15c.227 50.787-.134 78.928-1.056 82.352-.77 2.86-3.183 7.23-5.361 9.711-8.126 9.256.51 8.76-152.94 8.762-135.257.001-138.48-.058-143.701-2.642zm89.324-95c-.358-.933-.492-19.39-.297-41.015l.354-39.318h110.666v81.334l-55.036.348c-43.576.275-55.172-.005-55.687-1.349zm-75.975-87.718c-1.219-1.971.57-22.825 2.91-33.948 5.072-24.091 18.467-47.286 38.596-66.828 6.889-6.689 12.525-12.689 12.525-13.333 0-.645-8.4-9.167-18.667-18.937-10.266-9.771-18.666-18.796-18.666-20.056 0-2.376 10.47-13.513 12.703-13.513.697 0 10.929 9.648 22.737 21.44l21.47 21.44 8.124-3.42c20.399-8.586 43.915-12.258 64.093-10.008 12.728 1.42 31.995 6.325 38.932 9.912 2.095 1.083 4.896 1.97 6.225 1.97 1.34 0 11.598-9.198 23.05-20.667 11.349-11.367 21.266-20.667 22.04-20.667 1.754 0 12.626 10.965 12.626 12.735 0 .716-8.4 9.685-18.666 19.932C288.4 76.247 280 85.11 280 85.693c0 .585 5.176 5.993 11.502 12.018 22.617 21.543 32.74 38.77 39.137 66.608 2.054 8.937 2.726 15.662 2.433 24.348l-.405 12-131.584.34c-90.71.234-131.853-.095-132.448-1.059zm88.944-33.058c4.39-4.705 5.088-6.308 5.088-11.681 0-17.541-19.47-25.695-31.833-13.332-4.467 4.467-4.834 5.433-4.834 12.724 0 6.94.482 8.4 4 12.117 5.321 5.622 8.085 6.683 15.913 6.109 5.693-.418 7.265-1.218 11.666-5.937zm110.9 3.913c11.922-7.86 11.922-24.412 0-32.272-4.67-3.079-13.792-3.3-19.27-.466-8.28 4.281-11.95 17.55-7.118 25.73 5.335 9.029 18.156 12.434 26.387 7.008zm-91.946-128.67c-5.114-5.114-5.785-9.602-2.313-15.48 2.592-4.387 6.912-6.653 12.685-6.653 2.974 0 5.333 1.293 8.515 4.667 4.264 4.521 4.71 4.666 14.327 4.666 11.92 0 15.118 2.13 10.566 7.04-1.51 1.628-2.948 4.46-3.196 6.294-.344 2.542-1.238 3.333-3.77 3.333-2.648 0-3.46-.81-4.006-4-.577-3.366-1.374-4.066-5.023-4.418-3.527-.34-5.173.468-8.818 4.333-6.19 6.563-12.549 6.636-18.967.218zm13.317-6.466c1.878-2.981-.318-6.83-4.23-7.415-4.258-.636-6.53 4.533-3.475 7.908 2.73 3.017 5.611 2.832 7.705-.493z" transform="translate(.27 -2.86)"/><path style="fill:#303030;stroke-width:1.33333" d="M55.1 381.858c-2.33-1.152-5.93-4.538-8-7.525-3.762-5.423-3.767-5.46-4.234-30.881-.256-13.999-.036-50.202.49-80.452l.957-55H140v41.733c0 30.682.424 42.157 1.6 43.334 2.3 2.3 114.5 2.3 116.8 0 1.176-1.177 1.6-12.652 1.6-43.334V208h97.413l-.373 80.544-.373 80.544-4.095 5.123c-8.172 10.223-4.847 9.84-81.905 9.46L202 383.333l-.697-40c-.383-22-.906-39.4-1.163-38.666-.256.733-.543 18.733-.637 40l-.17 38.666-70 .31c-61.357.27-70.522.05-74.234-1.785zM145.332 248v-40h109.334v80H145.333Zm-75.367-61.667c1.26-18.715 4.893-32.576 12.665-48.333 8.188-16.601 17.22-28.597 30.822-40.94C119.254 91.797 124 87.055 124 86.521c0-.533-8.4-9.231-18.667-19.33-10.266-10.097-18.666-19.325-18.666-20.505 0-2.287 9.235-12.02 11.405-12.02.712 0 10.58 9.3 21.928 20.667C131.349 66.7 141.588 76 142.754 76c1.166 0 5.679-1.446 10.028-3.214 32.191-13.08 66.408-12.635 102.24 1.329l6.356 2.477 21.68-21.65 21.68-21.65 5.63 5.738c3.098 3.156 5.632 6.374 5.632 7.153 0 .778-8.1 9.308-18 18.955-10.72 10.446-18 18.572-18 20.09 0 1.467 6.147 8.683 14.476 16.994C320.2 127.892 332 154.424 332 186.597V200H69.046Zm84.585-15.358c1.897-1.404 4.799-4.537 6.449-6.961 9.816-14.423-6.647-34.201-23.247-27.93-13.029 4.924-17.446 20.404-8.766 30.72 6.751 8.024 17.903 9.843 25.564 4.171zm113.738.702c12.741-7.16 13.62-23.936 1.744-33.237-5.642-4.418-16.923-4.374-23.184.091-8.234 5.874-10.58 17.517-5.15 25.573 6.91 10.254 16.806 13.072 26.59 7.573zM179.152 43.774c-5.492-2.66-7.263-10.447-3.868-17.012 2.243-4.338 4.428-5.429 10.87-5.429 3.481 0 5.738 1.136 9.268 4.667 4.553 4.552 4.927 4.667 15.29 4.667 11.587 0 13.238 1.383 7.955 6.666C217.2 38.8 216 41.2 216 42.667c0 1.777-.889 2.666-2.667 2.666-1.893 0-2.666-.889-2.666-3.066 0-7.66-8.313-8.532-15.245-1.6-4.933 4.933-10.36 5.969-16.27 3.107zM190.7 35.94c2.685-5.017-2.998-10.634-8.032-7.94-3.516 1.882-3.431 7.313.153 9.824 3.23 2.263 6.016 1.597 7.879-1.884z" transform="translate(.27 -2.86)"/><path style="fill:#191919;stroke-width:1.33333" d="M56.662 381.523c-3.166-1.442-6.965-4.777-9.334-8.193l-3.995-5.762-.356-34.784c-.197-19.131.103-54.884.666-79.45l1.024-44.667h94.666l.667 42.666.667 42.667h118.666l.667-42.667.667-42.666h96L357.06 282c.217 40.333.03 76.442-.417 80.242-1.07 9.098-8.47 17.966-16.925 20.282-4.111 1.126-24.088 1.46-71.052 1.188l-65.334-.379L202.98 343c-.303-34.628-.633-40.333-2.333-40.333-1.09 0-2.02 1.05-2.067 2.333-.048 1.283-.198 19.433-.333 40.333l-.247 38-68 .31c-63.357.29-68.365.145-73.338-2.12zm89.28-95.192c-.358-.934-.492-18.79-.297-39.681l.355-37.983h108v78.666l-53.703.349c-42.53.276-53.838-.005-54.354-1.35zm-75.918-87.625c-1.162-1.88.494-20.44 2.798-31.373 5.502-26.099 19.27-49.484 40.638-69.028 5.796-5.3 10.539-10.53 10.54-11.622 0-1.09-8.534-10.532-18.963-20.98L86.073 46.706l5.928-6.04 5.928-6.04 21.384 21.353c11.76 11.745 21.893 21.354 22.517 21.354.624 0 6.617-2.049 13.319-4.553 34.426-12.865 66.017-12.098 99.808 2.423 2.727 1.172 5.413 2.13 5.97 2.13.556 0 10.495-9.703 22.085-21.562l21.073-21.562 5.291 5.166c2.91 2.841 5.29 5.787 5.29 6.545s-8.18 9.575-18.178 19.593c-21.132 21.171-21.022 20.767-8.442 31.154 26.804 22.131 44.776 59.71 43.68 91.333l-.393 11.333-130.25.34c-84.043.22-130.537-.124-131.059-.967Zm83.042-25.913c7.14-3.714 10.063-8.259 10.598-16.478.87-13.35-6.667-21.654-19.643-21.643-18.677.015-27.13 22.835-13.148 35.492 1.72 1.556 4.027 3.159 5.127 3.561 3.924 1.435 13.526.91 17.066-.932zm119.936-3.84c4.42-4.42 4.917-5.666 5.422-13.595l.556-8.73-5.981-5.98c-5.703-5.702-6.34-5.981-13.666-5.981-13.741 0-20.666 6.887-20.666 20.554 0 6.369.57 8.002 4.26 12.205 5.526 6.293 8.116 7.302 17.474 6.805 6.864-.365 8.282-.959 12.6-5.277zM179.85 43.334c-5.05-2.744-7.305-8.881-5.162-14.053C178.465 20.165 187 18.734 194.267 26c4.54 4.54 4.95 4.667 15.121 4.667 11.262 0 14.187 1.583 9.572 5.183-1.516 1.182-2.952 3.65-3.192 5.483-.615 4.712-4.254 4.236-5.095-.666-.621-3.625-1.218-4.039-6.363-4.411-5.028-.364-6.187.13-10.15 4.333-4.857 5.15-8.573 5.862-14.31 2.745zM190.4 38.4c.88-.88 1.6-3.16 1.6-5.067 0-6.403-6.023-8.868-10.895-4.46-3.026 2.738-3.1 5.52-.232 8.689 2.521 2.785 7.17 3.194 9.527.838z" transform="translate(.27 -2.86)"/><path style="fill:#000;stroke-width:1.33333" d="M56.199 380.405c-2.457-1.211-6.057-4.601-8-7.535-3.44-5.192-3.545-5.968-4.001-29.435-.258-13.256-.038-48.852.49-79.102l.959-55h93.02v41.734c0 30.681.423 42.157 1.6 43.333 2.301 2.302 117.165 2.302 119.466 0 1.177-1.176 1.6-12.652 1.6-43.333v-41.734H356l-.008 76.334c-.004 47.606-.516 78.09-1.36 81-.743 2.566-2.836 6.345-4.65 8.397-6.732 7.615-6.604 7.603-79.253 7.603h-66.69l-.353-40.334c-.344-39.326-.42-40.333-3.02-40.333s-2.675 1.007-3.019 40.333l-.353 40.334-68.314-.03c-60.766-.028-68.807-.274-72.781-2.232zM146.667 248v-38.667h106.666v77.334H146.667Zm-75.424-61c2.705-35.405 14.049-59.375 40.395-85.356 8.044-7.932 13.703-14.555 13.455-15.748-.234-1.133-8.817-10.404-19.073-20.601L87.374 46.754l5.256-5.383 5.256-5.383 21.653 21.51c17.075 16.961 22.16 21.303 24.057 20.536C164.21 69.697 173.969 67.03 190 65.35c19.43-2.037 43.928 1.54 60.5 8.83 3.94 1.735 8.44 3.155 10 3.158 1.911.003 9.414-6.794 23.059-20.892l20.226-20.897 4.678 3.892c2.573 2.14 4.721 4.839 4.774 5.995.053 1.157-6.654 8.734-14.904 16.839-22.598 22.2-21.644 20.977-19.763 25.34.882 2.045 4.914 6.377 8.961 9.626 8.104 6.507 20.402 20.932 27.018 31.69 9.771 15.891 16.094 38.422 16.108 57.402l.01 12.334H70.35Zm84.44-14.563c5.665-4.23 8.566-9.077 9.293-15.527 2.354-20.883-23.729-31.87-37.319-15.719-8.812 10.473-4.928 27.318 7.61 33.007 5.397 2.449 16.004 1.534 20.417-1.76zm113.15.816c10.179-4.928 14.163-18.893 8.343-29.248-7.883-14.025-30.011-14.05-37.158-.04-9.93 19.465 9.115 38.824 28.814 29.288zM177.938 40.727c-6.78-6.78-1.918-18.06 7.786-18.06 3.46 0 5.504 1.089 8.76 4.666C198.66 31.922 198.91 32 209.365 32c5.85 0 10.635.467 10.635 1.037 0 .57-1.2 2.064-2.667 3.32-1.466 1.256-2.666 3.49-2.666 4.963 0 1.474-.6 2.68-1.334 2.68-.733 0-1.333-1.38-1.333-3.067 0-4.39-2.467-6.266-8.234-6.266-4.056 0-5.86.907-9.281 4.666-5.322 5.849-11.565 6.375-16.546 1.394zm12.728-2.06c1.466-1.467 2.666-3.867 2.666-5.334 0-5.316-7.302-9.76-11.467-6.98-5.093 3.402-4.842 10.447.484 13.55 3.446 2.007 5.357 1.723 8.317-1.236z" transform="translate(.27 -2.86)"/></svg>