<svg
    xmlns="http://www.w3.org/2000/svg"
    viewBox="0 0 1024 1024"
    id="vector">
    <path
        id="path"
        d="M 960 128.02 L 960 896.02 C 960 931.36 931.38 960.02 896 960.02 C 860.62 960.02 832 931.36 832 896.02 L 832 339.4 L 565.2 739.6 C 541.44 775.22 482.44 775.22 458.7 739.6 L 192 339.4 L 192 896 C 192 931.34 163.38 960 128 960 C 92.62 960 64 931.34 64 896 L 64 128 C 64 99.82 82.44 74.9 109.44 66.74 C 136.38 58.43 165.62 69.02 181.26 92.5 L 512 588.6 L 842.8 92.4 C 858.42 68.94 887.74 58.34 914.62 66.64 C 941.6 74.94 960 99.84 960 128.02 Z"
        fill="#000000"/>
</svg>
