<svg width="192" height="192" viewBox="0 0 50.8 50.8" xmlns="http://www.w3.org/2000/svg"><defs><clipPath id="a"><path d="M194.882 17.69a58.515 58.515 0 0 0-23.235 4.807c-7.21 3.044-13.01 6.73-18.427 12.017-5.32 5.32-9.71 12.114-12.819 19.229-3.045 7.179-4.807 14.293-4.807 22.433s1.764 16.056 4.807 23.235c3.109 7.082 7.5 13.14 12.819 18.427 5.416 5.352 11.217 9.71 18.427 12.82 7.179 3.044 15.095 4.806 23.235 4.806 8.204 0 16.056-1.764 23.234-4.807 7.115-3.108 13.14-7.467 18.428-12.819 5.32-5.288 9.71-11.345 12.819-18.427 3.044-7.179 4.807-15.095 4.807-23.235 0-8.14-1.764-15.254-4.807-22.433-3.109-7.115-7.5-13.909-12.82-19.229-5.287-5.287-11.312-8.973-18.427-12.017a58.306 58.306 0 0 0-23.234-4.808ZM76.306 171.517c-8.14 0-15.255.897-22.433 4.006-7.18 3.076-13.877 7.499-19.229 12.819-5.32 5.32-8.973 12.05-12.018 19.228-3.108 7.115-4.807 14.294-4.807 22.434v129.792h271.603v36.054H17.82v23.234c0 8.173 1.73 16.056 4.807 23.235 3.045 7.179 6.73 13.075 12.018 18.427 5.352 5.288 12.05 9.743 19.229 12.82 7.178 3.108 14.293 4.806 22.433 4.806h237.152c8.14 0 15.255-1.697 22.433-4.807 7.21-3.076 13.94-7.53 19.229-12.819 5.352-5.352 9.71-11.248 12.819-18.427 3.108-7.179 4.006-15.062 4.006-23.235V289.293H100.342V254.04h271.603v-24.035c0-8.14-.864-15.319-4.006-22.434-3.077-7.178-7.467-13.908-12.82-19.228-5.287-5.32-12.017-9.743-19.228-12.82-7.178-3.108-14.293-4.005-22.433-4.005z" style="fill:none;fill-opacity:1;fill-rule:nonzero;stroke:#000;stroke-width:2.91998;stroke-opacity:1" transform="matrix(.09048 0 0 .09074 97.19 -.537)"/></clipPath></defs><g style="display:inline;stroke-width:2.11667;stroke-dasharray:none"><path style="fill:none;stroke:#000;stroke-width:2.11667;stroke-linecap:round;stroke-linejoin:round;stroke-miterlimit:4;stroke-dasharray:none;stroke-opacity:1" d="M26.804 14.27s1.061.943 1.066 3.163c.004 2.22-1.066 3.207-1.066 3.207m4.974-8.182s1.381 2.159 1.384 4.981c.002 2.823-1.384 5.012-1.384 5.012M36.52 10.42s1.933 2.932 1.933 7.02c0 4.09-1.932 7.049-1.932 7.049m4.754-16.033s2.47 3.764 2.47 8.999c0 5.235-2.47 9.014-2.47 9.014" transform="translate(1.78 -3.164)"/></g><path style="fill:#000;fill-opacity:0;stroke:#000;stroke-width:2.11667;stroke-linecap:round;stroke-linejoin:round;stroke-dasharray:none;paint-order:stroke fill markers" d="M5.295 42.56v1.14s-.204 1.808 2.24 1.808H25.27s2.004.089 2.01-2.003l.027-9.17H8.458v-4.918h18.93v-.845s-.075-2.326-2.195-2.326H7.595s-2.3.115-2.3 2.619v8.724h18.78v4.68H5.295" fill="none"/><path style="fill-opacity:0;stroke:#000;stroke-width:2.11667;stroke-linecap:round;stroke-linejoin:round;stroke-dasharray:none;paint-order:stroke fill markers" d="M19.366 19.406a3.062 3.062 0 0 1-3.062 3.062 3.062 3.062 0 0 1-3.062-3.062 3.062 3.062 0 0 1 3.062-3.062 3.062 3.062 0 0 1 3.062 3.062z" fill="none"/></svg>