<svg xmlns="http://www.w3.org/2000/svg" viewBox="0 0 192 192"><path fill="none" stroke="#000" stroke-linecap="round" stroke-linejoin="round" stroke-width="12" d="M37.463 37.348h120.882m-60.42-18.756v78.329M49.639 67.783h96.53m-18.495 29.138H175.5m-89.291 0h23.473v27.547H86.209Zm50.964 0c0 18.044-3.39 46.679 23.891 76.487m14.436-36.339-39.708 19.174m1.799-34.496h14.017m-46.905 27.044c-10.837 10.006-33.808 22.147-48.286 24.617M20.098 96.67h24.353l8.703 8.708 8.368-8.373h7.657c0 21.183.251 40.148-11.046 55.052M16.5 167.17c11.046-12.183 20.921-27.505 20.921-70.375"/></svg>