<svg
    xmlns="http://www.w3.org/2000/svg"
    viewBox="0 0 192 192"
    id="vector">
    <path
        id="path"
        d="M 37.463 37.348 L 158.345 37.348 M 97.925 18.592 L 97.925 96.921 M 49.639 67.783 L 146.169 67.783 M 127.674 96.921 L 175.5 96.921 M 86.209 96.921 L 109.682 96.921 L 109.682 124.468 L 86.209 124.468 Z M 137.173 96.921 C 137.173 114.965 133.783 143.6 161.064 173.408 M 175.5 137.069 L 135.792 156.243 M 137.591 121.747 L 151.608 121.747 M 104.703 148.791 C 93.866 158.797 70.895 170.938 56.417 173.408 M 20.098 96.67 L 44.451 96.67 L 53.154 105.378 L 61.522 97.005 L 69.179 97.005 C 69.179 118.188 69.43 137.153 58.133 152.057 M 16.5 167.17 C 27.546 154.987 37.421 139.665 37.421 96.795"
        fill="none"
        stroke="#000000"
        stroke-width="12"
        stroke-linecap="round"
        stroke-linejoin="round"/>
</svg>
