<svg xmlns="http://www.w3.org/2000/svg" viewBox="0 0 192 192"><path fill="none" stroke="#000" stroke-linecap="round" stroke-linejoin="round" stroke-width="12" d="M96 175.496s63.483-48.975 63.483-95.825c-.002-16.747-6.696-32.825-18.597-44.666-11.9-11.842-28.057-18.501-44.886-18.501-16.829 0-32.986 6.659-44.886 18.501-11.901 11.841-18.595 27.919-18.597 44.666 0 46.85 63.483 95.825 63.483 95.825"/><path d="M68.155 70.739c-.815 0-1.597.323-2.173.896a3.05 3.05 0 0 0 0 4.324 3.083 3.083 0 0 0 4.346 0 3.05 3.05 0 0 0 0-4.324 3.084 3.084 0 0 0-2.173-.896Z"/><path fill="none" stroke="#000" stroke-linecap="round" stroke-linejoin="round" stroke-width="12" d="M115.46 89.155A32.934 32.934 0 0 1 96 95.996a32.934 32.934 0 0 1-19.46-6.841"/><path d="M123.845 70.739c-.814 0-1.597.323-2.173.896a3.05 3.05 0 0 0 0 4.324 3.084 3.084 0 0 0 4.346 0 3.05 3.05 0 0 0 0-4.324 3.083 3.083 0 0 0-2.173-.896Z"/></svg>