<svg
    xmlns="http://www.w3.org/2000/svg"
    viewBox="0 0 192 192"
    id="vector">
    <path
        id="path"
        d="M 96 175.496 C 96 175.496 159.483 126.521 159.483 79.671 C 159.481 62.924 152.787 46.846 140.886 35.005 C 128.986 23.163 112.829 16.504 96 16.504 C 79.171 16.504 63.014 23.163 51.114 35.005 C 39.213 46.846 32.519 62.924 32.517 79.671 C 32.517 126.521 96 175.496 96 175.496"
        fill="none"
        stroke="#000000"
        stroke-width="12"
        stroke-linecap="round"
        stroke-linejoin="round"/>
    <path
        id="path_1"
        d="M 68.155 70.739 C 67.34 70.739 66.558 71.062 65.982 71.635 C 65.406 72.208 65.082 72.987 65.082 73.797 C 65.082 74.608 65.406 75.386 65.982 75.959 C 66.558 76.532 67.34 76.855 68.155 76.855 C 68.969 76.855 69.752 76.532 70.328 75.959 C 70.904 75.386 71.227 74.608 71.227 73.797 C 71.227 72.987 70.904 72.208 70.328 71.635 C 69.752 71.062 68.969 70.739 68.155 70.739 Z"
        fill="#000000"
        stroke-width="12"/>
    <path
        id="path_2"
        d="M 115.46 89.155 C 109.882 93.457 103.056 95.857 96 95.996 C 88.944 95.857 82.118 93.457 76.54 89.155"
        fill="none"
        stroke="#000000"
        stroke-width="12"
        stroke-linecap="round"
        stroke-linejoin="round"/>
    <path
        id="path_3"
        d="M 123.845 70.739 C 123.031 70.739 122.248 71.062 121.672 71.635 C 121.096 72.208 120.773 72.987 120.773 73.797 C 120.773 74.608 121.096 75.386 121.672 75.959 C 122.248 76.532 123.031 76.855 123.845 76.855 C 124.66 76.855 125.442 76.532 126.018 75.959 C 126.594 75.386 126.918 74.608 126.918 73.797 C 126.918 72.987 126.594 72.208 126.018 71.635 C 125.442 71.062 124.66 70.739 123.845 70.739 Z"
        fill="#000000"
        stroke-width="12"/>
</svg>
