<svg xmlns="http://www.w3.org/2000/svg" viewBox="0 0 192 192"><path fill="none" stroke="#000" stroke-linecap="round" stroke-linejoin="round" stroke-width="8" d="M24.647 171.45c-.289-.29-.526-2.245-.526-4.345v-3.818h9.93l17.987-44.859c17.79-44.366 19.102-47.483 19.691-46.756.166.205 5.558 11.392 11.982 24.862 6.424 13.469 11.933 24.765 12.243 25.102.309.338 6.025-10.682 12.702-24.489 6.677-13.806 12.268-25.27 12.423-25.475.571-.75 2.061 2.784 19.722 46.768l17.994 44.817 9.084.03v8.711l-25.868-.208-25.869-.209v-7.899h4.938c2.716 0 4.939-.178 4.939-.395.001-.218-2.551-6.767-5.669-14.555l-5.671-14.159-9.013 18.109c-4.958 9.96-9.145 18.242-9.305 18.403-.159.162-4.391-7.948-9.404-18.02-8.095-16.268-9.203-18.11-9.911-16.489-.438 1.005-3.057 7.425-5.819 14.269l-5.022 12.442h10.048v8.689H50.714c-14.047 0-25.777-.237-26.067-.526zm69.754-77.189c-1.847-4.129-1.434-5.208 1.994-5.208 3.46 0 3.821 1.094 1.712 5.2l-1.982 3.861zM86.71 78.463c-.754-1.656-.606-1.991 1.256-2.849 3.765-1.735 10.82-1.952 14.743-.454 3.842 1.468 4.076 1.817 2.572 3.826-.912 1.219-1.308 1.225-5.185.077-3.826-1.133-4.538-1.131-8.047.017-4.768 1.559-4.324 1.611-5.339-.617zm-6.367-13.535c-1.341-2.945-1.24-3.174 2.032-4.595 5.229-2.273 10.399-3.139 15.859-2.658 5.72.505 15.143 3.379 15.143 4.619 0 .644-1.35 3.678-1.979 4.447-.102.124-2.092-.525-4.422-1.444-6.321-2.492-13.549-2.862-18.875-.966-2.389.85-4.903 1.792-5.586 2.093-.868.382-1.522-.069-2.172-1.496zm33.184-14.353c-2.307-1.09-7.064-2.548-10.572-3.239-7.759-1.529-16.474-.568-23.333 2.572-2.393 1.096-4.653 1.992-5.024 1.992-.712 0-3.084-4.148-3.084-5.393 0-.96 6.561-3.759 12.339-5.264 5.748-1.497 17.382-1.52 23.6-.046 2.607.618 6.791 2.033 9.299 3.146l4.559 2.022-1.613 3.163c-.888 1.739-1.695 3.132-1.795 3.096s-2.069-.958-4.376-2.049zM64.212 31.814l-2.103-4.287 5.825-2.425c10.022-4.173 15.345-5.127 28.461-5.104 9.652.018 12.994.337 18.032 1.726 5.229 1.441 15.538 5.481 15.538 6.089 0 .215-3.295 7.804-3.502 8.067-.076.096-2.62-.836-5.655-2.071-16.211-6.598-35.071-6.479-49.911.316-2.373 1.087-4.374 1.975-4.448 1.975-.075 0-1.081-1.929-2.237-4.286z"/></svg>