<svg xmlns="http://www.w3.org/2000/svg" width="192" height="192" fill="none" viewBox="0 0 192 192"><path fill="#000" stroke="#000" stroke-width="8" d="M77.822 169.74C27.25 156.961 3.87 97.927 32.206 54.56 68.5-.99 153.22 13.145 169.68 77.495c13.948 54.528-37.33 106.021-91.859 92.244Zm34.502-3.243c32.622-7.095 56.137-36.878 56.071-71.018C168.272 31.097 90.52-.986 45.028 44.573c-51.661 51.736-4.324 137.501 67.296 121.925Zm-64.719-36.73c0-1.897 20.146-70.365 25.302-85.992 1.801-5.46 4.386.35 12.88 28.964 4.982 16.777 9.417 30.925 9.856 31.439.44.514 4.972-13.075 10.072-30.197 6.085-20.427 9.878-31.248 11.032-31.472 2.242-.434 29.046 86.925 27.228 88.743-3.224 3.224-6.742.394-8.776-7.059-7.952-29.136-25.182-33.438-35.312-8.815-3.041 7.393-4.422 7.221-8.474-1.059-11.332-23.158-24.608-20.39-33.808 7.048-3.55 10.589-10 16.006-10 8.4Z"/></svg>