<svg xmlns="http://www.w3.org/2000/svg" viewBox="0 0 192 192"><path d="M24.857 16.5a8.575 8.575 0 0 0-8.357 8.571v141.858a8.573 8.573 0 0 0 8.571 8.571h141.858a8.573 8.573 0 0 0 8.571-8.571V24.857a8.575 8.575 0 0 0-8.571-8.357Zm6.643 15 35.229 20.314L31.5 72.129m75.214 0H66.686M41.871 87.214a11.02 11.02 0 0 1 7.543 3.172l8.957 8.914a63.87 63.87 0 0 1 37.415-12.109A63.87 63.87 0 0 1 133.2 99.3l9-8.957a10.493 10.493 0 0 1 10.158-2.727 10.502 10.502 0 0 1 4.713 17.555l-9.128 8.615a64.286 64.286 0 0 1 12.128 37.714v8.571H31.5V151.5a64.296 64.296 0 0 1 12.171-37.586l-9-8.871a10.505 10.505 0 0 1-3.065-7.414c0-2.779 1.103-5.447 3.065-7.415a10.21 10.21 0 0 1 7.2-3Z" fill="none" stroke="#000" stroke-width="8" stroke-linecap="round" stroke-linejoin="round"/><path d="M68.7 126.514a11.792 11.792 0 0 0-10.293 5.893 11.789 11.789 0 0 0-1.578 5.936A11.872 11.872 0 0 0 68.7 150.214a11.874 11.874 0 0 0 7.93-3.711 11.877 11.877 0 0 0 0-16.277 11.875 11.875 0 0 0-7.93-3.712Zm54.171 0a11.874 11.874 0 0 0-10.687 17.039 11.867 11.867 0 0 0 13.359 6.4 11.876 11.876 0 0 0 9.2-11.61 11.79 11.79 0 0 0-11.872-11.829Z" fill="none" stroke="#000" stroke-width="8" stroke-linecap="round" stroke-linejoin="round"/></svg>