<svg
    xmlns="http://www.w3.org/2000/svg"
    viewBox="0 0 24 24"
    id="vector">
    <path
        id="path"
        d="M 7.978 21.997 C 3.599 21.994 3.462 21.994 3.438 21.984 C 3.424 21.979 3.392 21.968 3.365 21.961 C 3.338 21.953 3.31 21.944 3.302 21.94 C 3.243 21.91 3.106 21.844 3.103 21.844 C 3.103 21.844 3.089 21.837 3.076 21.828 C 3.063 21.82 3.043 21.808 3.032 21.803 C 3.021 21.798 3.011 21.791 3.011 21.789 C 3.011 21.786 3.001 21.78 2.993 21.775 C 2.931 21.743 2.663 21.469 2.644 21.418 C 2.644 21.411 2.632 21.395 2.624 21.383 C 2.603 21.352 2.552 21.255 2.552 21.247 C 2.552 21.243 2.552 21.236 2.542 21.232 C 2.521 21.208 2.478 21.086 2.456 20.985 C 2.431 20.872 2.433 21.22 2.431 16.197 L 2.431 11.515 L 6.955 11.515 C 11.441 11.515 11.479 11.515 11.532 11.526 C 11.591 11.538 11.69 11.569 11.735 11.59 C 11.751 11.597 11.766 11.603 11.769 11.603 C 11.781 11.603 11.895 11.664 11.944 11.696 C 12.009 11.739 12.082 11.795 12.097 11.815 C 12.107 11.823 12.13 11.852 12.157 11.879 C 12.253 11.979 12.35 12.098 12.351 12.118 C 12.351 12.125 12.351 12.134 12.361 12.139 C 12.371 12.15 12.414 12.256 12.434 12.315 C 12.456 12.378 12.478 12.458 12.488 12.516 C 12.498 12.558 12.498 12.992 12.498 16.961 C 12.499 19.38 12.498 21.504 12.498 21.68 L 12.498 22 Z M 10.718 19.995 C 10.719 19.801 10.717 19.64 10.718 19.638 C 10.718 19.636 10.049 19.634 9.237 19.633 C 8.046 19.633 7.76 19.635 7.756 19.64 C 7.756 19.646 7.746 20.222 7.746 20.306 C 7.747 20.322 7.746 20.338 7.756 20.343 C 7.766 20.349 7.973 20.35 9.241 20.349 L 10.718 20.347 Z M 3.954 19.123 C 4.03 19.091 4.164 19.036 4.253 19 C 4.342 18.964 4.471 18.911 4.54 18.883 C 4.609 18.854 4.804 18.775 4.972 18.706 C 5.141 18.638 5.34 18.557 5.415 18.526 C 5.49 18.495 5.637 18.435 5.741 18.393 C 5.974 18.298 6.218 18.199 6.362 18.14 C 6.422 18.116 6.523 18.075 6.586 18.049 C 6.71 17.998 6.729 17.989 6.734 17.976 L 6.734 17.612 C 6.734 17.261 6.734 17.257 6.722 17.245 C 6.705 17.227 6.746 17.244 6.124 16.991 C 6.052 16.962 5.919 16.908 5.829 16.871 C 5.739 16.834 5.6 16.778 5.52 16.745 C 5.44 16.713 5.308 16.659 5.227 16.626 C 5.083 16.567 4.861 16.477 4.601 16.371 C 4.53 16.343 4.408 16.293 4.33 16.261 C 4.082 16.16 3.808 16.05 3.803 16.05 C 3.803 16.05 3.793 16.06 3.793 16.071 C 3.793 16.098 3.793 16.911 3.793 16.923 C 3.803 16.936 3.828 16.949 3.902 16.972 C 3.938 16.983 4.145 17.051 4.361 17.123 C 4.769 17.258 5.464 17.487 5.674 17.556 C 5.74 17.578 5.798 17.599 5.805 17.604 C 5.816 17.613 5.816 17.613 5.805 17.619 C 5.795 17.622 5.761 17.635 5.719 17.647 C 5.678 17.659 5.587 17.689 5.517 17.713 C 5.447 17.738 5.035 17.876 4.601 18.02 C 4.099 18.188 3.81 18.287 3.803 18.294 C 3.792 18.304 3.792 18.313 3.79 18.702 C 3.79 19.12 3.79 19.179 3.803 19.179 C 3.803 19.179 3.873 19.154 3.949 19.122 Z M 13.197 17.886 L 13.197 13.775 L 21.578 13.775 L 21.578 17.176 C 21.578 19.684 21.578 20.6 21.568 20.662 C 21.558 20.785 21.524 20.941 21.484 21.045 C 21.431 21.183 21.337 21.346 21.25 21.453 C 21.214 21.497 21.064 21.646 21.021 21.681 C 20.973 21.719 20.952 21.734 20.946 21.734 C 20.946 21.734 20.936 21.739 20.93 21.745 C 20.92 21.751 20.917 21.756 20.914 21.756 C 20.914 21.756 20.903 21.761 20.898 21.767 C 20.888 21.773 20.885 21.778 20.881 21.778 C 20.881 21.778 20.871 21.782 20.868 21.786 C 20.858 21.796 20.777 21.839 20.698 21.876 C 20.586 21.927 20.473 21.961 20.337 21.984 C 20.282 21.994 20.111 21.994 16.739 21.995 L 13.198 21.997 Z M 13.197 12.69 C 13.197 12.402 13.197 12.312 13.187 12.273 C 13.187 12.246 13.177 12.176 13.173 12.117 C 13.163 11.973 13.158 11.924 13.137 11.84 C 13.109 11.732 13.034 11.526 13.017 11.512 C 13.017 11.508 13.007 11.5 13.017 11.493 C 13.017 11.482 13.007 11.466 12.966 11.413 C 12.899 11.331 12.853 11.277 12.787 11.209 C 12.759 11.18 12.736 11.154 12.735 11.151 C 12.735 11.139 12.647 11.072 12.577 11.026 C 12.508 10.98 12.389 10.916 12.363 10.912 C 12.353 10.91 12.333 10.902 12.313 10.892 C 12.293 10.883 12.272 10.875 12.267 10.874 C 12.257 10.873 12.255 10.871 12.252 10.869 C 12.252 10.867 12.223 10.859 12.195 10.851 C 12.166 10.843 12.139 10.835 12.135 10.833 C 12.135 10.832 12.114 10.83 12.099 10.829 C 12.084 10.828 12.066 10.824 12.06 10.821 C 12.05 10.818 12.035 10.815 12.019 10.815 C 11.996 10.815 11.988 10.813 11.988 10.807 C 11.988 10.8 11.453 10.799 7.205 10.799 L 2.422 10.799 L 2.422 10.775 C 2.422 10.762 2.432 10.742 2.434 10.73 C 2.434 10.718 2.445 10.698 2.449 10.686 C 3.33 8.215 4.67 6.785 6.335 5.532 L 4.338 2.578 C 4.08 2.135 4.778 1.775 5.021 2.169 L 7.035 5.114 C 9.774 3.364 14.123 3.244 16.516 5.074 L 18.528 2.167 C 18.816 1.801 19.341 2.095 19.232 2.514 L 17.228 5.548 C 20.584 7.733 21.291 10.412 21.551 13.058 L 13.199 13.058 Z M 7.836 10.62 C 8.102 10.574 8.364 10.418 8.543 10.2 C 8.607 10.123 8.627 10.093 8.669 10.011 C 8.732 9.889 8.772 9.773 8.796 9.637 C 8.806 9.579 8.808 9.378 8.796 9.305 C 8.771 9.106 8.687 8.896 8.568 8.734 C 8.418 8.533 8.189 8.374 7.949 8.307 C 7.827 8.273 7.807 8.27 7.617 8.27 C 7.426 8.269 7.414 8.271 7.303 8.302 C 7.12 8.354 6.974 8.432 6.833 8.553 C 6.646 8.714 6.517 8.929 6.452 9.19 C 6.425 9.3 6.418 9.466 6.435 9.603 C 6.472 9.904 6.609 10.157 6.845 10.359 C 6.921 10.424 6.97 10.456 7.068 10.506 C 7.22 10.583 7.353 10.622 7.484 10.629 C 7.593 10.635 7.777 10.63 7.834 10.62 Z M 16.224 10.618 C 16.346 10.592 16.488 10.537 16.602 10.468 C 16.752 10.38 16.903 10.232 16.999 10.082 C 17.065 9.979 17.128 9.823 17.152 9.7 C 17.169 9.617 17.181 9.469 17.177 9.406 C 17.161 9.168 17.096 8.967 16.972 8.781 C 16.88 8.643 16.74 8.511 16.596 8.427 C 16.497 8.368 16.409 8.332 16.274 8.295 L 16.203 8.275 L 16.012 8.273 C 15.795 8.27 15.78 8.272 15.656 8.307 C 15.487 8.355 15.353 8.427 15.217 8.543 C 14.962 8.758 14.807 9.081 14.796 9.42 C 14.796 9.528 14.796 9.579 14.822 9.701 C 14.844 9.805 14.867 9.874 14.918 9.976 C 14.983 10.11 15.046 10.197 15.15 10.3 C 15.303 10.452 15.501 10.561 15.722 10.613 C 15.787 10.628 15.788 10.629 15.978 10.629 C 16.151 10.629 16.173 10.628 16.224 10.618 Z"
        fill="#000000"
        stroke-width="0.0054706"/>
</svg>
