<svg xmlns="http://www.w3.org/2000/svg" viewBox="0 0 24 24"><path d="M7.978 21.997c-4.379-.003-4.516-.003-4.54-.013a.961.961 0 0 0-.073-.023.633.633 0 0 1-.063-.021 5.772 5.772 0 0 0-.199-.096s-.014-.007-.027-.016a.526.526 0 0 0-.044-.025c-.011-.005-.021-.012-.021-.014 0-.003-.01-.009-.018-.014-.062-.032-.33-.306-.349-.357 0-.007-.012-.023-.02-.035a.992.992 0 0 1-.072-.136c0-.004 0-.011-.01-.015a.9.9 0 0 1-.086-.247c-.025-.113-.023.235-.025-4.788v-4.682h4.524c4.486 0 4.524 0 4.577.011a1.181 1.181 0 0 1 .237.077 1.165 1.165 0 0 1 .328.212c.01.008.033.037.06.064.096.1.193.219.194.239 0 .007 0 .016.01.021.01.011.053.117.073.176.022.063.044.143.054.201.01.042.01.476.01 4.445V22Zm2.74-2.002v-.357c0-.002-.669-.004-1.481-.005-1.191 0-1.477.002-1.481.007 0 .006-.01.582-.01.666.001.016 0 .032.01.037.01.006.217.007 1.485.006l1.477-.002Zm-6.764-.872L4.253 19l.287-.117.432-.177a67.164 67.164 0 0 0 .769-.313l.621-.253.224-.091c.124-.051.143-.06.148-.073v-.364c0-.351 0-.355-.012-.367-.017-.018.024-.001-.598-.254a53.72 53.72 0 0 1-.295-.12l-.309-.126-.293-.119-.626-.255a26.548 26.548 0 0 1-.271-.11 27.436 27.436 0 0 0-.527-.211s-.01.01-.01.021v.852c.01.013.035.026.109.049l.459.151 1.313.433c.066.022.124.043.131.048.011.009.011.009 0 .015-.01.003-.044.016-.086.028a6.196 6.196 0 0 0-.202.066c-.07.025-.482.163-.916.307-.502.168-.791.267-.798.274-.011.01-.011.019-.013.408 0 .418 0 .477.013.477 0 0 .07-.025.146-.057Zm9.243-1.237v-4.111h8.381v3.401c0 2.508 0 3.424-.01 3.486-.01.123-.044.279-.084.383a1.65 1.65 0 0 1-.234.408 3.078 3.078 0 0 1-.229.228.328.328 0 0 1-.075.053s-.01.005-.016.011c-.01.006-.013.011-.016.011 0 0-.011.005-.016.011-.01.006-.013.011-.017.011 0 0-.01.004-.013.008a1.41 1.41 0 0 1-.531.198c-.055.01-.226.01-3.598.011l-3.541.002Zm0-5.196c0-.288 0-.378-.01-.417 0-.027-.01-.097-.014-.156a1.365 1.365 0 0 0-.036-.277 1.783 1.783 0 0 0-.12-.328c0-.004-.01-.012 0-.019 0-.011-.01-.027-.051-.08a2.893 2.893 0 0 0-.179-.204.746.746 0 0 0-.21-.183 1.13 1.13 0 0 0-.264-.134.383.383 0 0 0-.046-.018c-.01-.001-.012-.003-.015-.005 0-.002-.029-.01-.057-.018a.825.825 0 0 1-.06-.018.24.24 0 0 0-.036-.004.137.137 0 0 1-.039-.008.148.148 0 0 0-.041-.006c-.023 0-.031-.002-.031-.008 0-.007-.535-.008-4.783-.008H2.422v-.024c0-.013.01-.033.012-.045 0-.012.011-.032.015-.044.881-2.471 2.221-3.901 3.886-5.154L4.338 2.578c-.258-.443.44-.803.683-.409l2.014 2.945c2.739-1.75 7.088-1.87 9.481-.04l2.012-2.907c.288-.366.813-.072.704.347l-2.004 3.034c3.356 2.185 4.063 4.864 4.323 7.51h-8.352Zm-5.361-2.07a1.208 1.208 0 0 0 .833-.609c.063-.122.103-.238.127-.374.01-.058.012-.259 0-.332a1.266 1.266 0 0 0-.228-.571 1.198 1.198 0 0 0-.619-.427c-.122-.034-.142-.037-.332-.037-.191-.001-.203.001-.314.032a1.188 1.188 0 0 0-.868 1.301 1.152 1.152 0 0 0 .633.903c.152.077.285.116.416.123.109.006.293.001.35-.009Zm8.388-.002c.122-.026.264-.081.378-.15a1.26 1.26 0 0 0 .397-.386c.066-.103.129-.259.153-.382.017-.083.029-.231.025-.294a1.236 1.236 0 0 0-.205-.625 1.2 1.2 0 0 0-.698-.486l-.071-.02-.191-.002c-.217-.003-.232-.001-.356.034a1.11 1.11 0 0 0-.439.236 1.204 1.204 0 0 0-.395 1.158c.022.104.045.173.096.275.065.134.128.221.232.324a1.2 1.2 0 0 0 .572.313c.065.015.066.016.256.016.173 0 .195-.001.246-.011Z"/></svg>