<?xml version="1.0" encoding="UTF-8" standalone="no"?>
<svg
   id="a"
   data-name="vector"
   viewBox="0 0 192 192"
   version="1.1"
   sodipodi:docname="mt_manager.svg"
   inkscape:version="1.2.2 (732a01da63, 2022-12-09)"
   xmlns:inkscape="http://www.inkscape.org/namespaces/inkscape"
   xmlns:sodipodi="http://sodipodi.sourceforge.net/DTD/sodipodi-0.dtd"
   xmlns="http://www.w3.org/2000/svg"
   xmlns:svg="http://www.w3.org/2000/svg">
  <sodipodi:namedview
     id="namedview11"
     pagecolor="#ffffff"
     bordercolor="#000000"
     borderopacity="0.25"
     inkscape:showpageshadow="2"
     inkscape:pageopacity="0.0"
     inkscape:pagecheckerboard="0"
     inkscape:deskcolor="#d1d1d1"
     showgrid="false"
     inkscape:zoom="4.359375"
     inkscape:cx="92.903226"
     inkscape:cy="96.114695"
     inkscape:window-width="1920"
     inkscape:window-height="1017"
     inkscape:window-x="-8"
     inkscape:window-y="-8"
     inkscape:window-maximized="1"
     inkscape:current-layer="a" />
  <defs
     id="defs4">
    <style
       id="style2">
      .b {
        stroke-linejoin: round;
      }

      .b, .c {
        fill: none;
        stroke: #000;
        stroke-linecap: round;
        stroke-width: 12px;
      }
    </style>
  </defs>
  <polyline
     class="b"
     image-rendering="auto"
     points="75.84192 73.08496 71.13992 73.08496 61.19545 96.01777 51.25098 73.08496 46.54898 73.08496"
     id="polyline6" />
  <path
     class="c"
     d="M46.58789,73.10982h-2.85904v58.58372m104.11316-48.33336c.10809-3.45246,.10809-6.90492,.10809-10.35738h-34.30842c0,3.45246-.10809,6.68874,0,9.818m17.04612-9.818v59.44737m-35.06397,24.81361H24.84734c-6.14936,0-8.84733-2.80499-8.84733-8.95435V43.87199c0-6.36554,2.48179-8.84734,8.84733-8.84734,17.2623-.10809,34.5246-.43129,51.7869-.21618,2.4818,0,5.28678,1.51004,7.22812,3.12926,3.45246,2.6969,6.47363,6.04235,9.4948,9.27862,1.83432,1.94241,3.88375,2.58989,6.47363,2.58989,20.28347-.21618,40.56693-.21618,60.84933-.21618h5.71806c6.36554,.10809,9.49481,3.23627,9.60182,9.70991v88.79329c0,6.36554-2.91309,9.17053-9.06244,9.17053H95.62383Zm-16.9175-25.48486v-58.69398h-2.86443"
     id="path8" />
</svg>
