<svg data-name="vector" viewBox="0 0 192 192" xmlns="http://www.w3.org/2000/svg"><path style="fill:none;stroke:#000;stroke-linecap:round;stroke-width:12px;stroke-linejoin:round" d="M75.842 73.085H71.14l-9.945 22.933-9.944-22.933h-4.702"/><path d="M46.588 73.11h-2.86v58.584M147.843 83.36c.108-3.452.108-6.905.108-10.357h-34.308c0 3.452-.108 6.689 0 9.818m17.046-9.818v59.447m-35.064 24.814H24.847c-6.149 0-8.847-2.805-8.847-8.955V43.872c0-6.366 2.482-8.847 8.847-8.847 17.263-.108 34.525-.432 51.787-.217 2.482 0 5.287 1.51 7.228 3.13 3.453 2.697 6.474 6.042 9.495 9.278 1.834 1.943 3.884 2.59 6.474 2.59 20.283-.216 40.567-.216 60.85-.216h5.717c6.366.108 9.495 3.236 9.602 9.71v88.793c0 6.366-2.913 9.17-9.062 9.17H95.624Zm-16.918-25.485V73.085h-2.864" style="fill:none;stroke:#000;stroke-linecap:round;stroke-width:12px"/></svg>