<svg xmlns="http://www.w3.org/2000/svg" viewBox="0 0 192 192"><path d="M80 32H32c-8.8 0-15.92 7.2-15.92 16L16 144c0 8.8 7.2 16 16 16h128c8.8 0 16-7.2 16-16V64c0-8.8-7.2-16-16-16H96ZM48 80h8.914v.212l.293-.212L67.81 94.598 78.412 80l.293.212V80h8.914v56.953a4.457 4.457 0 0 1-8.914 0V94.766l-6.956 9.577a3.962 3.962 0 1 1-7.88-.001l-6.955-9.576v42.187a4.457 4.457 0 0 1-8.914 0Zm68.838 14.857a4.456 4.456 0 0 1-4.457-4.457V80H152v10.4a4.456 4.456 0 1 1-8.914 0v-2.476h-6.934v53.486h-8.914V87.924h-5.943V90.4a4.456 4.456 0 0 1-4.457 4.457Z" fill-rule="evenodd"/></svg>