<svg xmlns="http://www.w3.org/2000/svg" viewBox="0 0 192 192"><path fill="none" stroke="#000" stroke-linecap="round" stroke-linejoin="round" stroke-width="8" d="M96 162.526c-5.808-6.883-11.148-14.316-15.968-22.227A122.4 122.4 0 0 1 96 139.152a122.4 122.4 0 0 1 15.968 1.147c-4.82 7.911-10.16 15.344-15.968 22.227Zm32.459-132.282c2.02-4.191 4.922-7.669 8.413-10.081 3.492-2.413 7.45-3.676 11.475-3.663h23.41v27.825c-.001 5.307-1.261 10.504-3.631 14.979-2.369 4.476-5.752 8.045-9.748 10.288M96 22.674c-15.437-.177-30.597 4.975-43.677 14.843.878-.079 2.183-.173 3.063-.173 4.131.02 8.237.756 12.193 2.186a156.468 156.468 0 0 0-22.618 6.69q1.318-.118 2.637-.119c2.54.034 5.024.915 7.174 2.544C37.013 60.976 23.73 80.893 17.57 104.429c4.704-4.125 10.315-6.496 16.13-6.814-8.196 5.204-16.376 16.407-17.2 27.516 4.94-2.6 10.144-4.404 15.476-5.368-5.191 3.73-9.444 9.086-12.303 15.497 5.581-3.483 11.777-5.301 18.064-5.302 13.002 0 25.091 12.509 32.808 26.387a54.978 54.978 0 0 1 3.238 7.275c.969 3.248 2.693 6.094 4.965 8.199 2.272 2.105 4.999 3.383 7.855 3.681a11.02 11.02 0 0 0 5.124-1.283c1.617-.847 3.071-2.085 4.273-3.637 1.202 1.552 2.657 2.79 4.273 3.636a11.022 11.022 0 0 0 5.124 1.282c2.856-.298 5.583-1.576 7.855-3.681 2.272-2.105 3.996-4.951 4.965-8.199a54.978 54.978 0 0 1 3.238-7.275c7.717-13.879 19.806-26.387 32.808-26.387 6.287.001 12.483 1.819 18.064 5.302-2.859-6.41-7.112-11.767-12.303-15.496 5.332.963 10.536 2.767 15.476 5.367-.824-11.108-9.004-22.311-17.2-27.517 5.815.318 11.427 2.688 16.132 6.814-6.161-23.537-19.444-43.454-37.204-55.785 2.15-1.63 4.634-2.51 7.174-2.544q1.322 0 2.637.119a156.342 156.342 0 0 0-22.618-6.69 36.318 36.318 0 0 1 12.193-2.186c.88 0 2.185.094 3.063.173-13.08-9.867-28.241-15.017-43.677-14.839Zm18.435 2.661c-4.181 21.489-6.287 43.487-6.275 65.557a346.49 346.49 0 0 0 1.523 32.439c4.901 2.912 9.291 6.933 12.929 11.844.023-.196.06-.484.086-.68 3.335-25.492 21.223-47.102 42.305-54.093m-49.944 17.461c-3.141-8.107-1.655-16.943 3.32-19.735 4.974-2.793 11.554 1.517 14.695 9.625 3.141 8.107 1.655 16.943-3.32 19.736-4.975 2.791-11.554-1.518-14.695-9.626Zm2.707-5.713c0-1.674.473-3.298 1.339-4.607.867-1.308 2.078-2.224 3.433-2.596 1.356-.373 2.777-.18 4.03.546 1.252.726 2.264 1.943 2.867 3.451a8.77 8.77 0 0 1 .454 4.849c-.31 1.632-1.07 3.089-2.157 4.132-1.087 1.044-2.437 1.612-3.827 1.612-1.628 0-3.19-.779-4.341-2.164-1.15-1.384-1.798-3.265-1.798-5.223Z"/><path fill="none" stroke="#000" stroke-linecap="round" stroke-linejoin="round" stroke-width="8" d="M33.622 69.592c-3.996-2.243-7.378-5.812-9.748-10.288-2.37-4.475-3.63-9.672-3.631-14.979V16.5h23.41c4.025-.013 7.984 1.25 11.475 3.663 3.491 2.412 6.393 5.89 8.413 10.081M26.997 80.403c21.082 6.991 38.972 28.602 42.305 54.093.027.197.062.484.086.681 3.638-4.912 8.028-8.933 12.929-11.844a346.17 346.17 0 0 0 1.523-32.44c.012-22.07-2.094-44.068-6.275-65.557m-.624 72.527c-3.141 8.108-9.72 12.416-14.695 9.626-4.975-2.792-6.461-11.629-3.32-19.736 3.141-8.108 9.721-12.416 14.695-9.625 4.975 2.79 6.461 11.628 3.32 19.735Zm-2.707-5.713c0 1.958-.648 3.839-1.798 5.223-1.151 1.385-2.713 2.164-4.34 2.164-1.391 0-2.741-.568-3.828-1.612-1.087-1.043-1.847-2.5-2.157-4.132a8.77 8.77 0 0 1 .454-4.849c.604-1.508 1.615-2.725 2.867-3.451 1.253-.726 2.674-.919 4.03-.546 1.355.372 2.566 1.288 3.433 2.596.866 1.309 1.339 2.933 1.339 4.607Z"/></svg>