<svg xmlns="http://www.w3.org/2000/svg" viewBox="0 0 192 192"><path d="M113.93 161.561c-8.646-7.942-17.686-16.192-20.086-18.334-3.826-3.413-4.207-4.086-3.079-5.444.899-1.083 2.817-1.55 6.377-1.55h5.092v-23.756l3.288.617c8.056 1.511 18.174-3.987 22.511-12.231 1.711-3.253 2.126-5.902 2.432-15.521l.368-11.599h13.916c9.561 0 14.271.356 15.052 1.136.836.836 1.136 9.09 1.136 31.246v30.108h4.656c5.491 0 7.652.681 7.652 2.409 0 .692-8.827 9.381-19.616 19.308C140.01 170.482 133.347 176 131.833 176c-1.494 0-7.134-4.549-17.903-14.439ZM29.329 118.13c-3.025-1.203-7.362-5.31-9.08-8.597-2.174-4.162-1.701-11.803 1.018-16.442 2.718-4.638 8.605-7.986 14.041-7.986h3.489V56.881c0-21.766.283-28.611 1.239-29.919 1.043-1.426 7.171-2.429 38.583-6.315 43.066-5.329 44.909-5.437 46.355-2.736.706 1.32.939 13.866.743 40.003-.315 41.981-.209 41.212-6.449 46.463-7.645 6.433-18.774 4.916-24.934-3.4-2.909-3.928-3.267-12.58-.725-17.562 2.527-4.955 8.643-8.725 14.152-8.725h3.941V37.728l-2.13.472c-1.172.26-13.635 1.979-27.695 3.82-14.06 1.842-26.523 3.563-27.694 3.825l-2.131.476v30.328c0 32.863-.008 32.921-5.359 37.984-4.606 4.357-11.638 5.773-17.364 3.497Z"/></svg>