<svg xmlns="http://www.w3.org/2000/svg" viewBox="0 0 192 192"><path d="M25.467 164.531c-1.392-.355-4.298-2.161-5.792-3.6-.856-.824-2.004-2.43-2.55-3.568l-.995-2.07-.106-17.743c-.103-17.194.107-22.109.954-22.392.195-.065.355-.493.355-.952 0-.458.139-.834.308-.834.169 0 .405-.388.524-.862s.455-.863.748-.863c.292 0 .449-.131.35-.293-.18-.291 1.036-1.53 1.693-1.724.19-.056.578-.312.862-.568.285-.257 1.217-.743 2.07-1.081 1.403-.554 3.271-.625 19.322-.734 18.415-.125 20.953.014 23.426 1.279 3.363 1.72 5.795 4.968 6.749 9.017.743 3.151.78 34.539.045 37.301-.762 2.862-1.871 5.043-2.981 5.864-.56.414-1.018.925-1.018 1.136 0 .21-.541.579-1.204.818-.662.24-1.445.677-1.74.972-.295.295-1.112.67-1.815.833-1.319.307-38.02.366-39.205.064Zm18.477-14.398c1.496-.645 3.189-2.453 3.697-3.949.259-.76.399-4.126.399-9.574v-8.402h5.865v-6.555H44.59v16.199l-.885-.337c-4.68-1.779-9.621 2.814-8.642 8.034.261 1.389 2.131 3.608 3.733 4.429 1.437.737 3.645.803 5.148.155Zm47.396-10.657c-2.271-.753-5.238-2.876-6.42-4.593-1.86-2.705-2.332-4.421-2.401-8.736l-.061-3.881 1.508-.954a5048.007 5048.007 0 0 0 17.38-11.048c1.708-1.096 7.685-4.905 13.283-8.463 13.661-8.685 13.614-8.654 14.872-10.086 2.5-2.847 3.618-7.394 2.729-11.099-.235-.981-1.036-2.695-1.78-3.809-1.469-2.199-2.681-3.089-13.751-10.1a7145.104 7145.104 0 0 1-18.286-11.654c-6.926-4.426-13.369-8.525-14.318-9.107l-1.725-1.06.19-4.313c.174-3.952.28-4.486 1.259-6.383 2.617-5.069 7.832-7.704 13.291-6.714 2.616.475 2.362.346 8.721 4.404 8.762 5.592 13.692 8.731 16.315 10.385 1.382.872 3.866 2.458 5.52 3.523a1851.14 1851.14 0 0 0 7.492 4.79c2.467 1.568 5.603 3.568 6.969 4.445 1.366.876 3.927 2.509 5.693 3.627 1.765 1.119 4.839 3.074 6.832 4.345 1.992 1.271 6.495 4.14 10.005 6.376 7.181 4.573 8.939 6.08 10.281 8.809.834 1.697.932 2.282.932 5.521 0 3.002-.129 3.903-.757 5.263-.919 1.989-3.51 4.54-6.409 6.311a256.507 256.507 0 0 0-4.909 3.102 1044.24 1044.24 0 0 1-7.936 5.064c-2.846 1.801-8.28 5.264-12.076 7.696a1674.92 1674.92 0 0 1-8.874 5.658 816.755 816.755 0 0 0-10.102 6.419 821.2 821.2 0 0 1-6.728 4.295 800.308 800.308 0 0 0-6.21 3.962l-5.175 3.353c-1.613 1.044-4.164 2.574-5.669 3.399-2.496 1.37-2.979 1.51-5.52 1.606-1.672.062-3.336-.079-4.165-.353Zm-15.703-18.599c-.01-5.697-1.476-9.768-4.469-12.407-3.651-3.219-4.679-3.378-21.819-3.378H35.603l.094-34.243.095-34.244.921-1.965c1.175-2.507 3.577-4.909 6.084-6.084 1.674-.785 2.426-.921 5.07-.921 3.577 0 5.143.58 9.525 3.532 1.403.945 4.337 2.847 6.519 4.227 2.182 1.38 6.463 4.119 9.514 6.087 3.05 1.967 5.656 3.577 5.79 3.577.134 0 1.287.675 2.562 1.501 2.491 1.612 5.965 3.831 16.809 10.737 3.795 2.417 7.832 5.002 8.97 5.745 1.139.742 5.564 3.57 9.833 6.282 8.451 5.369 9.647 6.475 11.077 10.237.577 1.519.693 2.45.579 4.658-.236 4.592-2.214 7.666-6.823 10.601a5334.646 5334.646 0 0 0-10.526 6.728c-23.147 14.818-35.425 22.521-35.894 22.521-.088 0-.163-1.436-.165-3.191Z"/></svg>