<svg xmlns="http://www.w3.org/2000/svg" viewBox="0 0 192 192"><path d="M89.559 175.818c-15.374-1.377-29.498-6.755-41.637-15.852-7.832-5.87-15.165-13.964-20.253-22.353-6.03-9.943-9.598-20.323-11.172-32.502-.515-3.988-.515-14.214 0-18.202 1.572-12.164 5.024-22.238 11.085-32.352 5.53-9.228 13.962-18.191 22.939-24.382 9.142-6.306 19.618-10.708 30.389-12.77 8.531-1.633 18.266-1.845 26.697-.582 14.173 2.124 27.214 7.795 38.39 16.695 3.441 2.741 9.691 8.996 12.474 12.485 7.908 9.913 13.438 21.722 15.923 34.005 1.219 6.026 1.481 8.856 1.481 16.002 0 5.613-.061 6.952-.447 9.802-2.067 15.256-7.669 28.534-16.966 40.215-2.747 3.451-8.998 9.705-12.465 12.471-11.563 9.225-25.008 14.917-39.99 16.93-3.514.473-13.015.698-16.448.39Zm15.148-3.484c22.826-2.777 42.604-14.864 55.174-33.718 13.169-19.752 16.467-44.595 8.903-67.057-7.742-22.99-25.706-40.875-48.681-48.466-7.396-2.444-14.162-3.613-22.194-3.834-13.919-.384-27.945 3.139-40.015 10.052-8.518 4.878-16.313 11.636-22.397 19.419-8.875 11.352-14.266 24.77-15.903 39.579-.346 3.137-.346 12.265 0 15.402 1.989 17.99 9.654 34.146 22.12 46.616 12.864 12.87 29.453 20.538 48.197 22.281 2.867.266 11.701.103 14.796-.274ZM56.12 140.642c-1.804-.444-3.331-1.282-4.539-2.487-1.03-1.027-1.509-1.84-2.034-3.446-.301-.921-.324-4.189-.277-38.905l.051-37.899.641-1.301c2.345-4.757 8.639-6.473 13.44-3.662.504.295 1.016.632 1.138.749.123.117 2.777 2.143 5.899 4.503 3.122 2.359 5.721 4.346 5.776 4.414.055.069 1.899 1.486 4.099 3.149 2.199 1.664 4.448 3.372 4.998 3.798 2.002 1.547 10.257 7.804 10.476 7.939.126.078.997-.457 1.973-1.213 1.626-1.259 2.966-2.289 10.345-7.959 1.54-1.183 2.998-2.319 3.24-2.524.242-.205 1.772-1.396 3.399-2.647 1.628-1.25 4.444-3.422 6.258-4.825 7.941-6.142 8.362-6.417 10.573-6.927 3.801-.875 7.982.799 9.892 3.962 1.433 2.373 1.33-.773 1.33 40.507 0 33.271-.034 37.318-.317 38.411-.86 3.323-3.496 5.605-7.455 6.456-1.431.308-1.854.324-3.062.117-2.697-.463-3.12-.735-12.96-8.35a1396.165 1396.165 0 0 0-5.899-4.538 509.461 509.461 0 0 1-4.499-3.476c-6.545-5.132-12.478-9.675-12.634-9.675-.099 0-1.728 1.188-3.62 2.641-1.892 1.453-5.45 4.176-7.906 6.051-5.263 4.019-11.874 9.073-17.135 13.099-4.027 3.081-4.991 3.652-6.95 4.114-1.576.372-2.493.355-4.241-.076Z"/></svg>