<svg
    xmlns="http://www.w3.org/2000/svg"
    viewBox="0 0 192 192"
    id="vector">
    <g id="group">
        <path
            id="path_6"
            d="M 89.559 175.818 C 74.185 174.441 60.061 169.063 47.922 159.966 C 40.09 154.096 32.757 146.002 27.669 137.613 C 21.639 127.67 18.071 117.29 16.497 105.111 C 15.982 101.123 15.982 90.897 16.497 86.909 C 18.069 74.745 21.521 64.671 27.582 54.557 C 33.112 45.329 41.544 36.366 50.521 30.175 C 59.663 23.869 70.139 19.467 80.91 17.405 C 89.441 15.772 99.176 15.56 107.607 16.823 C 121.78 18.947 134.821 24.618 145.997 33.518 C 149.438 36.259 155.688 42.514 158.471 46.003 C 166.379 55.916 171.909 67.725 174.394 80.008 C 175.613 86.034 175.875 88.864 175.875 96.01 C 175.875 101.623 175.814 102.962 175.428 105.812 C 173.361 121.068 167.759 134.346 158.462 146.027 C 155.715 149.478 149.464 155.732 145.997 158.498 C 134.434 167.723 120.989 173.415 106.007 175.428 C 102.493 175.901 92.992 176.126 89.559 175.818 Z M 104.707 172.334 C 127.533 169.557 147.311 157.47 159.881 138.616 C 173.05 118.864 176.348 94.021 168.784 71.559 C 161.042 48.569 143.078 30.684 120.103 23.093 C 112.707 20.649 105.941 19.48 97.909 19.259 C 83.99 18.875 69.964 22.398 57.894 29.311 C 49.376 34.189 41.581 40.947 35.497 48.73 C 26.622 60.082 21.231 73.5 19.594 88.309 C 19.248 91.446 19.248 100.574 19.594 103.711 C 21.583 121.701 29.248 137.857 41.714 150.327 C 54.578 163.197 71.167 170.865 89.911 172.608 C 92.778 172.874 101.612 172.711 104.707 172.334 Z M 56.12 140.642 C 54.316 140.198 52.789 139.36 51.581 138.155 C 50.551 137.128 50.072 136.315 49.547 134.709 C 49.246 133.788 49.223 130.52 49.27 95.804 L 49.321 57.905 L 49.962 56.604 C 52.307 51.847 58.601 50.131 63.402 52.942 C 63.906 53.237 64.418 53.574 64.54 53.691 C 64.663 53.808 67.317 55.834 70.439 58.194 C 73.561 60.553 76.16 62.54 76.215 62.608 C 76.27 62.677 78.114 64.094 80.314 65.757 C 82.513 67.421 84.762 69.129 85.312 69.555 C 87.314 71.102 95.569 77.359 95.788 77.494 C 95.914 77.572 96.785 77.037 97.761 76.281 C 99.387 75.022 100.727 73.992 108.106 68.322 C 109.646 67.139 111.104 66.003 111.346 65.798 C 111.588 65.593 113.118 64.402 114.745 63.151 C 116.373 61.901 119.189 59.729 121.003 58.326 C 128.944 52.184 129.365 51.909 131.576 51.399 C 135.377 50.524 139.558 52.198 141.468 55.361 C 142.901 57.734 142.798 54.588 142.798 95.868 C 142.798 129.139 142.764 133.186 142.481 134.279 C 141.621 137.602 138.985 139.884 135.026 140.735 C 133.595 141.043 133.172 141.059 131.964 140.852 C 129.267 140.389 128.844 140.117 119.004 132.502 C 117.079 131.013 114.425 128.971 113.105 127.964 C 111.786 126.958 109.761 125.394 108.606 124.488 C 102.061 119.356 96.128 114.813 95.972 114.813 C 95.873 114.813 94.244 116.001 92.352 117.454 C 90.46 118.907 86.902 121.63 84.446 123.505 C 79.183 127.524 72.572 132.578 67.311 136.604 C 63.284 139.685 62.32 140.256 60.361 140.718 C 58.785 141.09 57.868 141.073 56.12 140.642 Z"
            fill="#000000"
            stroke-width="12"/>
    </g>
</svg>
