<svg
    xmlns="http://www.w3.org/2000/svg"
    viewBox="0 0 192 192"
    id="vector">
    <g id="group">
        <path
            id="path_6"
            d="M 91.272 175.816 C 84.336 175.381 76.474 173.798 69.997 171.531 C 52.09 165.262 37.126 153.088 27.357 136.839 C 13.836 114.349 12.355 86.748 23.382 62.774 C 32.709 42.497 50.184 26.952 71.512 19.96 C 77.216 18.091 82.597 16.98 89.149 16.321 C 91.777 16.056 99.533 16.059 102.376 16.326 C 110.95 17.129 119.249 19.142 126.36 22.142 C 136.304 26.338 144.937 32.112 152.35 39.525 C 166.712 53.886 174.828 72.188 175.871 92.564 C 176.401 102.92 174.436 114.918 170.64 124.497 C 166.371 135.272 160.432 144.406 152.593 152.252 C 138.401 166.457 120.319 174.604 100.254 175.835 C 97.194 176.022 94.472 176.017 91.272 175.816 Z M 103.516 169.216 C 112.384 168.285 120.707 165.865 128.571 161.931 C 131.836 160.297 133.084 159.569 136.507 157.297 C 141.231 154.162 145.093 150.961 148.852 147.064 C 165.848 129.442 172.952 105.206 168.105 81.384 C 164.495 63.645 154.356 47.789 139.629 36.854 C 129.767 29.531 117.524 24.559 105.643 23.053 C 95.598 21.779 85.3 22.536 75.839 25.244 C 57.852 30.394 42.21 42.518 32.562 58.791 C 27.132 67.95 23.79 78.178 22.755 88.806 C 22.271 93.781 22.41 100.699 23.102 105.969 C 25.828 126.755 37.823 145.721 55.671 157.466 C 66.617 164.67 79.52 168.889 92.578 169.534 C 94.87 169.647 101.144 169.465 103.516 169.216 Z M 90.863 159.668 C 78.672 158.66 67.449 154.479 58.086 147.458 C 52.091 142.962 46.484 137.046 42.565 131.082 C 39.195 125.954 37.243 121.929 35.333 116.172 C 30.094 100.383 31.359 82.226 38.721 67.537 C 44.898 55.211 55.498 44.66 67.674 38.718 C 74.908 35.188 83.189 32.93 91.64 32.184 C 93.744 31.999 99.738 32.209 103.52 32.601 C 108.865 33.154 115.633 34.916 120.822 37.105 C 132.225 41.914 142.36 50.341 149.375 60.846 C 158.654 74.742 161.939 92.037 158.538 109.092 C 156.115 121.244 150.132 132.233 140.991 141.321 C 130.638 151.614 118.107 157.671 103.52 159.432 C 100.907 159.748 93.493 159.886 90.863 159.668 Z M 102.675 153.22 C 103.873 153.081 105.122 152.877 105.452 152.768 C 105.985 152.591 106.045 152.516 105.997 152.083 C 105.857 150.825 105.806 125.657 105.939 123.355 C 106.107 120.418 106.291 119.709 107.598 116.96 C 108.644 114.758 109.617 113.282 110.966 111.853 C 113.072 109.622 116.363 107.511 119.236 106.549 C 120.368 106.169 120.887 106.11 124.217 105.974 C 126.261 105.891 133.506 105.771 140.317 105.709 L 152.701 105.595 L 152.854 105.191 C 152.939 104.969 153.082 104.117 153.174 103.297 C 153.398 101.28 153.554 91.58 153.381 90.461 L 153.242 89.563 L 152.101 89.455 C 151.473 89.396 149.939 89.265 148.691 89.163 C 141.059 88.544 134.884 86.646 121.293 80.741 C 108.841 75.331 105.101 74.218 97.445 73.647 C 95.532 73.505 94.797 73.527 92.375 73.8 C 86.415 74.474 83.477 75.428 72.247 80.335 C 57.029 86.984 51.1 88.728 41.627 89.34 C 40.055 89.441 38.732 89.557 38.687 89.598 C 38.642 89.638 38.58 91.63 38.55 94.025 C 38.49 98.696 38.727 103.675 39.065 104.842 L 39.273 105.561 L 49.717 105.674 C 61.954 105.808 71.472 106.068 72.449 106.297 C 73.559 106.557 75.977 107.66 77.511 108.605 C 79.414 109.777 82.068 112.427 83.233 114.317 C 84.221 115.921 85.182 118.174 85.729 120.174 C 86.108 121.557 86.109 121.574 86.17 134.145 C 86.204 141.323 86.161 147.985 86.068 149.65 C 85.954 151.701 85.957 152.602 86.079 152.677 C 86.24 152.777 89.173 153.238 90.455 153.365 C 92.33 153.55 100.688 153.451 102.675 153.22 Z M 93.281 111.614 C 86.529 110.327 81.405 105.105 80.325 98.41 C 80.048 96.692 80.203 93.685 80.655 92.012 C 81.061 90.508 82.015 88.389 82.796 87.254 C 83.591 86.099 85.612 84.041 86.861 83.116 C 88.276 82.067 90.2 81.11 91.843 80.638 C 92.962 80.317 93.524 80.263 95.763 80.263 C 97.976 80.263 98.586 80.32 99.752 80.636 C 105.673 82.243 109.794 86.348 111.392 92.228 C 111.861 93.955 111.897 97.49 111.464 99.358 C 110.088 105.295 105.604 109.954 99.91 111.363 C 98.133 111.802 94.907 111.925 93.281 111.614 Z M 98.456 105.237 C 99.999 104.826 101.399 104.007 102.641 102.786 C 107.95 97.57 105.48 88.635 98.219 86.79 C 97.076 86.5 95.076 86.469 93.852 86.722 C 90.514 87.413 87.406 90.519 86.715 93.856 C 86.46 95.085 86.493 97.245 86.784 98.385 C 87.619 101.664 90.442 104.44 93.757 105.243 C 94.939 105.529 97.369 105.526 98.456 105.237 Z M 80.044 145.515 C 80.104 136.935 79.993 125.031 79.837 123.421 C 79.555 120.498 78.272 117.794 76.166 115.682 C 74.046 113.556 71.784 112.498 68.685 112.182 C 64.849 111.79 40.647 111.809 40.647 112.203 C 40.647 112.284 41.129 113.688 41.718 115.323 C 45.419 125.588 51.655 134.2 60.608 141.41 C 63.877 144.043 68.968 147.105 72.818 148.756 C 74.358 149.416 79.526 151.331 79.799 151.343 C 79.958 151.349 80.013 150.059 80.044 145.515 Z M 114.624 150.502 C 123.401 147.451 130.311 143.082 136.901 136.418 C 143.352 129.895 147.577 123.115 150.545 114.526 C 150.998 113.216 151.368 112.109 151.368 112.066 C 151.368 112.022 144.956 112.015 137.12 112.049 C 121.114 112.119 122.19 112.037 119.442 113.385 C 116.135 115.006 113.607 117.987 112.51 121.559 C 112.189 122.603 112.146 123.266 112.008 129.232 C 111.833 136.8 111.8 149.488 111.953 150.598 C 112.073 151.477 111.791 151.488 114.624 150.502 Z M 152.019 82.992 C 152.007 81.597 149.705 74.804 148.087 71.39 C 142.565 59.739 132.338 49.484 120.799 44.028 C 114.827 41.205 107.699 39.244 101.51 38.724 C 98.852 38.501 92.759 38.5 90.21 38.723 C 84.079 39.26 76.151 41.527 70.497 44.36 C 62.97 48.132 56.069 53.774 50.55 60.668 C 48.067 63.771 44.88 68.981 43.474 72.239 C 42.117 75.38 40.329 80.717 40.061 82.421 L 39.952 83.115 L 40.667 83.114 C 41.793 83.114 45.581 82.642 47.996 82.201 C 53.983 81.107 59.555 79.147 69.307 74.703 C 78.309 70.601 82.106 69.231 87.352 68.193 C 90.6 67.551 92.843 67.391 97.215 67.49 C 101.554 67.588 103.323 67.803 106.867 68.664 C 111.018 69.671 114.406 70.922 123.116 74.66 C 137.868 80.991 140.886 81.913 150.96 83.168 C 151.95 83.291 152.021 83.279 152.019 82.992 Z"
            fill="#000000"
            stroke-width="12"/>
    </g>
</svg>
