<svg xmlns="http://www.w3.org/2000/svg" viewBox="0 0 192 192"><path d="M91.272 175.816c-6.936-.435-14.798-2.018-21.275-4.285-17.907-6.269-32.871-18.443-42.64-34.692-13.521-22.49-15.002-50.091-3.975-74.065 9.327-20.277 26.802-35.822 48.13-42.814 5.704-1.869 11.085-2.98 17.637-3.639 2.628-.265 10.384-.262 13.227.005 8.574.803 16.873 2.816 23.984 5.816 9.944 4.196 18.577 9.97 25.99 17.383 14.362 14.361 22.478 32.663 23.521 53.039.53 10.356-1.435 22.354-5.231 31.933-4.269 10.775-10.208 19.909-18.047 27.755-14.192 14.205-32.274 22.352-52.339 23.583-3.06.187-5.782.182-8.982-.019Zm12.244-6.6c8.868-.931 17.191-3.351 25.055-7.285 3.265-1.634 4.513-2.362 7.936-4.634 4.724-3.135 8.586-6.336 12.345-10.233 16.996-17.622 24.1-41.858 19.253-65.68-3.61-17.739-13.749-33.595-28.476-44.53-9.862-7.323-22.105-12.295-33.986-13.801-10.045-1.274-20.343-.517-29.804 2.191-17.987 5.15-33.629 17.274-43.277 33.547a72.592 72.592 0 0 0-9.807 30.015c-.484 4.975-.345 11.893.347 17.163 2.726 20.786 14.721 39.752 32.569 51.497 10.946 7.204 23.849 11.423 36.907 12.068 2.292.113 8.566-.069 10.938-.318Zm-12.653-9.548c-12.191-1.008-23.414-5.189-32.777-12.21-5.995-4.496-11.602-10.412-15.521-16.376-3.37-5.128-5.322-9.153-7.232-14.91-5.239-15.789-3.974-33.946 3.388-48.635 6.177-12.326 16.777-22.877 28.953-28.819 7.234-3.53 15.515-5.788 23.966-6.534 2.104-.185 8.098.025 11.88.417 5.345.553 12.113 2.315 17.302 4.504 11.403 4.809 21.538 13.236 28.553 23.741 9.279 13.896 12.564 31.191 9.163 48.246-2.423 12.152-8.406 23.141-17.547 32.229-10.353 10.293-22.884 16.35-37.471 18.111-2.613.316-10.027.454-12.657.236Zm11.812-6.448c1.198-.139 2.447-.343 2.777-.452.533-.177.593-.252.545-.685-.14-1.258-.191-26.426-.058-28.728.168-2.937.352-3.646 1.659-6.395 1.046-2.202 2.019-3.678 3.368-5.107 2.106-2.231 5.397-4.342 8.27-5.304 1.132-.38 1.651-.439 4.981-.575 2.044-.083 9.289-.203 16.1-.265l12.384-.114.153-.404c.085-.222.228-1.074.32-1.894.224-2.017.38-11.717.207-12.836l-.139-.898-1.141-.108c-.628-.059-2.162-.19-3.41-.292-7.632-.619-13.807-2.517-27.398-8.422-12.452-5.41-16.192-6.523-23.848-7.094-1.913-.142-2.648-.12-5.07.153-5.96.674-8.898 1.628-20.128 6.535-15.218 6.649-21.147 8.393-30.62 9.005-1.572.101-2.895.217-2.94.258-.045.04-.107 2.032-.137 4.427-.06 4.671.177 9.65.515 10.817l.208.719 10.444.113c12.237.134 21.755.394 22.732.623 1.11.26 3.528 1.363 5.062 2.308 1.903 1.172 4.557 3.822 5.722 5.712.988 1.604 1.949 3.857 2.496 5.857.379 1.383.38 1.4.441 13.971.034 7.178-.009 13.84-.102 15.505-.114 2.051-.111 2.952.011 3.027.161.1 3.094.561 4.376.688 1.875.185 10.233.086 12.22-.145Zm-9.394-41.606c-6.752-1.287-11.876-6.509-12.956-13.204-.277-1.718-.122-4.725.33-6.398.406-1.504 1.36-3.623 2.141-4.758.795-1.155 2.816-3.213 4.065-4.138 1.415-1.049 3.339-2.006 4.982-2.478 1.119-.321 1.681-.375 3.92-.375 2.213 0 2.823.057 3.989.373 5.921 1.607 10.042 5.712 11.64 11.592.469 1.727.505 5.262.072 7.13-1.376 5.937-5.86 10.596-11.554 12.005-1.777.439-5.003.562-6.629.251Zm5.175-6.377c1.543-.411 2.943-1.23 4.185-2.451 5.309-5.216 2.839-14.151-4.422-15.996-1.143-.29-3.143-.321-4.367-.068-3.338.691-6.446 3.797-7.137 7.134-.255 1.229-.222 3.389.069 4.529.835 3.279 3.658 6.055 6.973 6.858 1.182.286 3.612.283 4.699-.006Zm-18.412 40.278c.06-8.58-.051-20.484-.207-22.094-.282-2.923-1.565-5.627-3.671-7.739-2.12-2.126-4.382-3.184-7.481-3.5-3.836-.392-28.038-.373-28.038.021 0 .081.482 1.485 1.071 3.12 3.701 10.265 9.937 18.877 18.89 26.087 3.269 2.633 8.36 5.695 12.21 7.346 1.54.66 6.708 2.575 6.981 2.587.159.006.214-1.284.245-5.828Zm34.58 4.987c8.777-3.051 15.687-7.42 22.277-14.084 6.451-6.523 10.676-13.303 13.644-21.892.453-1.31.823-2.417.823-2.46 0-.044-6.412-.051-14.248-.017-16.006.07-14.93-.012-17.678 1.336-3.307 1.621-5.835 4.602-6.932 8.174-.321 1.044-.364 1.707-.502 7.673-.175 7.568-.208 20.256-.055 21.366.12.879-.162.89 2.671-.096Zm37.395-67.51c-.012-1.395-2.314-8.188-3.932-11.602-5.522-11.651-15.749-21.906-27.288-27.362-5.972-2.823-13.1-4.784-19.289-5.304-2.658-.223-8.751-.224-11.3-.001-6.131.537-14.059 2.804-19.713 5.637-7.527 3.772-14.428 9.414-19.947 16.308-2.483 3.103-5.67 8.313-7.076 11.571-1.357 3.141-3.145 8.478-3.413 10.182l-.109.694.715-.001c1.126 0 4.914-.472 7.329-.913 5.987-1.094 11.559-3.054 21.311-7.498 9.002-4.102 12.799-5.472 18.045-6.51 3.248-.642 5.491-.802 9.863-.703 4.339.098 6.108.313 9.652 1.174 4.151 1.007 7.539 2.258 16.249 5.996 14.752 6.331 17.77 7.253 27.844 8.508.99.123 1.061.111 1.059-.176Z"/></svg>