<svg
    xmlns="http://www.w3.org/2000/svg"
    viewBox="0 0 192 192"
    id="vector">
    <g id="group">
        <path
            id="path_6"
            d="M 75.357 174.418 C 52.366 167.839 33.761 152.034 23.449 130.319 C 17.793 118.409 16.956 114.875 16.257 99.944 C 15.593 85.78 16.084 81.222 19.291 71.765 C 26.547 50.364 41.393 33.113 60.682 23.668 C 73.511 17.386 85.826 15.128 102.483 16.002 C 131.103 17.504 156.422 35.045 169.497 62.428 C 175.834 75.699 176 76.559 176 96.174 C 176 115.79 175.834 116.65 169.497 129.921 C 160.884 147.959 148.189 160.689 130.376 169.148 C 118.414 174.828 115.271 175.549 100.13 176.079 C 89.795 176.442 80.175 175.796 75.357 174.418 Z M 123.285 169.614 C 167.798 152.96 187.549 100.515 165.023 58.783 C 149.879 30.725 115.617 13.702 84.627 18.837 C 42.172 25.872 12.162 66.495 18.987 107.688 C 24.369 140.165 49.237 166.504 80.798 173.156 C 91.926 175.501 112.03 173.825 123.285 169.614 Z M 68.665 158.938 C 51.53 150.456 31.653 126.597 31.616 114.465 C 31.595 107.488 34.396 104.922 42.014 104.942 C 56.289 104.98 78.341 124.002 83.242 140.506 C 89.431 161.347 84.958 167.002 68.665 158.938 Z M 83.789 155.227 C 84.095 152.568 83.064 145.986 81.499 140.6 C 76.549 123.576 54.968 105.826 40.666 107.016 C 32.747 107.674 31.565 112.001 36.078 123.817 C 41.729 138.613 69.44 161.919 79.733 160.532 C 82.105 160.213 83.413 158.502 83.789 155.227 Z M 109.051 160.702 C 106.11 157.723 106.296 151.228 109.644 139.954 C 111.77 132.795 114.759 128.272 122.334 120.749 C 133.416 109.742 142.133 104.926 150.973 104.926 C 158.221 104.926 161.122 107.544 161.122 114.084 C 161.122 122.107 156.638 130.579 146.995 140.776 C 131.85 156.789 114.29 166.011 109.051 160.702 Z M 131.042 152.739 C 147.62 141.356 160.066 123.738 159.036 113.111 C 158.548 108.083 157.879 107.5 152.039 107.015 C 141.468 106.136 126.215 115.691 117.145 128.875 C 111.573 136.973 107.229 153.055 109.215 158.231 C 110.96 162.777 119.583 160.607 131.042 152.739 Z M 88.289 115.552 C 81.935 112.831 77.108 105.043 77.108 97.514 C 77.108 91.955 78.292 89.389 83.059 84.622 C 87.937 79.744 90.334 78.671 96.361 78.671 C 102.388 78.671 104.785 79.744 109.663 84.622 C 117.542 92.501 117.974 102.23 110.801 110.257 C 105.596 116.083 95.224 118.522 88.289 115.552 Z M 104.859 112.934 C 117.076 106.616 116.214 87.495 103.474 82.218 C 91.399 77.217 78.82 85.152 78.897 97.723 C 78.98 111.253 92.636 119.254 104.859 112.934 Z M 90.36 103.926 C 87.096 100.661 86.764 94.219 89.71 91.274 C 95.169 85.815 105.113 90.519 105.113 98.56 C 105.113 102.185 100.27 106.676 96.361 106.676 C 94.573 106.676 91.873 105.439 90.36 103.926 Z M 31.222 84.711 C 29.079 82.569 33.857 68.497 39.568 60.128 C 46.983 49.262 56.432 41.459 69.71 35.235 C 78.49 31.12 81.903 30.538 97.236 30.538 C 112.443 30.538 116.002 31.134 124.366 35.084 C 143.25 44.001 159.958 64.016 161.482 79.547 C 161.967 84.481 161.592 84.831 155.263 85.351 C 151.131 85.69 140.598 83.492 128.013 79.662 C 101.039 71.455 91.413 71.438 63.856 79.547 C 44.427 85.264 33.503 86.992 31.222 84.711 Z M 60.702 78.452 C 72.255 74.795 82.914 72.715 92.86 72.177 C 106.238 71.452 109.809 72.004 128.284 77.647 C 139.585 81.098 151.611 83.922 155.01 83.922 C 160.854 83.922 161.129 83.661 160.075 79.109 C 156.4 63.239 141.231 45.298 124.566 37.114 C 115.829 32.823 112.798 32.288 97.236 32.288 C 81.941 32.288 78.48 32.876 69.8 36.945 C 51.963 45.306 33.408 66.779 33.366 79.109 C 33.352 83.248 34.055 83.922 38.386 83.922 C 41.155 83.922 51.198 81.461 60.702 78.452 Z"
            fill="#000000"
            stroke-width="12"/>
    </g>
</svg>
