<svg xmlns="http://www.w3.org/2000/svg" viewBox="0 0 192 192"><path d="M83.61 174.73c-29.535-7.967-50.003-37.509-51.674-74.585-2.132-47.321 29.547-86.637 67.701-84.022 27.293 1.871 50.062 24.304 58.359 57.497 2.659 10.635 2.921 32.061.524 42.82-3.867 17.361-10.632 30.006-22.356 41.789-9.028 9.074-16.876 13.764-27.589 16.487-6.711 1.706-18.668 1.713-24.965.014Zm26.874-7.862c7.687-2.645 14.707-7 20.562-12.756 4.819-4.738 12.022-14.303 12.022-15.965 0-.383-3.211-3.055-7.136-5.938-8.842-6.495-21.28-15.66-31.417-23.148-4.238-3.131-7.972-5.693-8.298-5.693-.326 0-5.974 3.944-12.551 8.765-6.578 4.82-15.896 11.641-20.707 15.158-4.811 3.517-9.979 7.396-11.483 8.622l-2.735 2.227 3.307 4.944c9.377 14.017 22.351 23.123 36.615 25.699 5.838 1.054 15.709.187 21.821-1.915Zm-39.748-63.011 25.419-18.962 25.495 19.04c14.022 10.472 26.095 19.083 26.828 19.135 1.256.09 3.736-6.864 3.781-10.603.01-.871-6.392-6.224-15.406-12.881a6440.003 6440.003 0 0 1-27.394-20.353c-6.584-4.929-12.528-8.974-13.211-8.988-1.023-.021-51.217 36.373-55.246 40.059-1.015.928-1.038 2.111-.128 6.537 1.32 6.422 1.637 7.055 3.228 6.444.668-.256 12.654-8.999 26.634-19.428ZM51.909 84.128c5.824-4.3 17.772-13.151 26.552-19.67 8.779-6.519 16.457-12.042 17.062-12.274.604-.232 13.687 8.894 29.073 20.28 15.386 11.387 28.312 20.494 28.725 20.239.413-.256.527-2.415.254-4.798-4.366-38.107-28.05-64.904-57.467-65.02-15.535-.061-30.52 7.905-41.079 21.837-5.132 6.772-11.62 20.05-13.632 27.9-1.535 5.992-3.231 19.458-2.538 20.152.556.555.851.36 13.05-8.646Z"/></svg>