<svg
    xmlns="http://www.w3.org/2000/svg"
    viewBox="0 0 192 192"
    id="vector">
    <g id="group">
        <path
            id="path_6"
            d="M 83.61 174.73 C 54.075 166.763 33.607 137.221 31.936 100.145 C 29.804 52.824 61.483 13.508 99.637 16.123 C 126.93 17.994 149.699 40.427 157.996 73.62 C 160.655 84.255 160.917 105.681 158.52 116.44 C 154.653 133.801 147.888 146.446 136.164 158.229 C 127.136 167.303 119.288 171.993 108.575 174.716 C 101.864 176.422 89.907 176.429 83.61 174.73 Z M 110.484 166.868 C 118.171 164.223 125.191 159.868 131.046 154.112 C 135.865 149.374 143.068 139.809 143.068 138.147 C 143.068 137.764 139.857 135.092 135.932 132.209 C 127.09 125.714 114.652 116.549 104.515 109.061 C 100.277 105.93 96.543 103.368 96.217 103.368 C 95.891 103.368 90.243 107.312 83.666 112.133 C 77.088 116.953 67.77 123.774 62.959 127.291 C 58.148 130.808 52.98 134.687 51.476 135.913 L 48.741 138.14 L 52.048 143.084 C 61.425 157.101 74.399 166.207 88.663 168.783 C 94.501 169.837 104.372 168.97 110.484 166.868 Z M 70.736 103.857 L 96.155 84.895 L 121.65 103.935 C 135.672 114.407 147.745 123.018 148.478 123.07 C 149.734 123.16 152.214 116.206 152.259 112.467 C 152.269 111.596 145.867 106.243 136.853 99.586 C 128.37 93.321 116.043 84.162 109.459 79.233 C 102.875 74.304 96.931 70.259 96.248 70.245 C 95.225 70.224 45.031 106.618 41.002 110.304 C 39.987 111.232 39.964 112.415 40.874 116.841 C 42.194 123.263 42.511 123.896 44.102 123.285 C 44.77 123.029 56.756 114.286 70.736 103.857 Z M 51.909 84.128 C 57.733 79.828 69.681 70.977 78.461 64.458 C 87.24 57.939 94.918 52.416 95.523 52.184 C 96.127 51.952 109.21 61.078 124.596 72.464 C 139.982 83.851 152.908 92.958 153.321 92.703 C 153.734 92.447 153.848 90.288 153.575 87.905 C 149.209 49.798 125.525 23.001 96.108 22.885 C 80.573 22.824 65.588 30.79 55.029 44.722 C 49.897 51.494 43.409 64.772 41.397 72.622 C 39.862 78.614 38.166 92.08 38.859 92.774 C 39.415 93.329 39.71 93.134 51.909 84.128 Z"
            fill="#000000"
            stroke-width="12"/>
    </g>
</svg>
