<svg
    xmlns="http://www.w3.org/2000/svg"
    viewBox="0 0 192 192"
    id="vector">
    <path
        id="path"
        d="M 88.583 175.304 C 82.651 174.031 76.125 170.832 71.082 166.725 C 69.708 165.605 68.148 164.334 67.615 163.9 C 66.654 163.116 66.63 163.124 64.029 165.221 C 62.588 166.381 60.162 167.939 58.636 168.683 C 54.06 170.914 51.58 171.292 41.461 171.299 C 32.955 171.305 32.337 171.252 31.537 170.452 C 29.812 168.727 30.774 162.064 33.57 156.366 C 36.45 150.496 42.793 145.195 49.452 143.091 C 50.937 142.622 51.764 142.136 51.683 141.779 C 51.612 141.468 50.904 139.676 50.109 137.798 C 45.085 125.925 42.736 110.5 44.03 97.888 L 44.359 94.687 L 31.136 94.811 C 18.308 94.932 17.886 94.909 17.041 94.064 C 15.254 92.277 16.274 84.745 19.096 78.894 C 23.317 70.144 30.291 64.372 39.482 62.021 C 42.312 61.297 44.219 61.18 53.147 61.18 L 63.523 61.18 L 66.675 59.123 C 68.408 57.991 71.301 56.417 73.104 55.625 C 75.654 54.505 76.317 54.037 76.085 53.52 C 75.922 53.155 75.312 51.512 74.729 49.869 C 73.376 46.053 73.242 39.442 74.432 35.143 C 76.545 27.5 81.861 20.754 88.126 17.763 C 91.375 16.212 91.685 16.148 95.99 16.148 C 100.29 16.148 100.608 16.213 103.831 17.752 C 110.15 20.769 115.421 27.452 117.548 35.143 C 118.737 39.442 118.604 46.053 117.251 49.869 C 116.668 51.512 116.062 53.145 115.905 53.497 C 115.687 53.982 116.415 54.495 118.902 55.612 C 120.709 56.423 123.597 58.008 125.321 59.134 L 128.456 61.18 L 138.832 61.18 C 147.76 61.18 149.668 61.297 152.498 62.021 C 161.524 64.33 168.43 69.968 172.643 78.467 C 175.685 84.603 176.803 92.2 174.938 94.064 C 174.093 94.909 173.672 94.932 160.811 94.811 L 147.556 94.687 L 147.802 96.608 C 149.508 109.89 147.073 126.016 141.418 138.877 C 140.613 140.707 139.955 142.293 139.955 142.401 C 139.955 142.509 140.697 142.717 141.604 142.862 C 144.238 143.283 149.782 146.303 152.597 148.851 C 157.538 153.321 160.748 159.812 161.187 166.218 C 161.388 169.15 161.318 169.577 160.5 170.395 C 159.627 171.268 159.214 171.305 150.519 171.299 C 140.416 171.292 137.761 170.89 133.287 168.687 C 131.825 167.967 129.461 166.437 128.033 165.287 C 126.606 164.137 125.349 163.195 125.241 163.195 C 125.132 163.195 124.035 164.092 122.801 165.187 C 117.323 170.053 109.677 174.001 103.157 175.33 C 99.114 176.154 92.493 176.142 88.583 175.304 Z M 103.46 168.969 C 107.453 167.962 114.171 164.382 117.759 161.349 C 119.52 159.86 120.938 158.347 120.91 157.987 C 120.883 157.626 117.713 152.696 113.867 147.031 L 106.874 136.732 L 95.99 136.737 L 85.105 136.742 L 78.115 147.023 C 74.27 152.678 71.1 157.606 71.072 157.973 C 70.94 159.665 80.36 166.162 85.836 168.156 C 91.002 170.038 97.95 170.358 103.46 168.968 Z M 51.558 164.672 C 54.995 163.862 58.699 161.907 60.722 159.835 L 62.281 158.238 L 60.328 155.722 C 59.253 154.338 57.675 152.074 56.821 150.69 C 55.287 148.205 55.248 148.177 53.651 148.433 C 48.755 149.216 43.185 152.75 40.476 156.793 C 38.955 159.063 37.086 163.426 37.086 164.705 C 37.086 165.595 47.746 165.571 51.558 164.672 Z M 154.894 164.705 C 154.894 163.426 153.025 159.063 151.504 156.793 C 148.795 152.75 143.225 149.216 138.329 148.433 C 136.731 148.177 136.693 148.205 135.159 150.69 C 134.305 152.074 132.727 154.338 131.652 155.722 L 129.698 158.238 L 131.258 159.835 C 133.224 161.848 136.982 163.867 140.225 164.652 C 141.736 165.018 145.142 165.273 148.812 165.294 C 153.881 165.324 154.894 165.226 154.894 164.705 Z M 73.335 143.206 C 76.901 137.963 79.76 133.442 79.688 133.16 C 79.615 132.877 77.26 128.667 74.454 123.804 L 69.352 114.962 L 59.835 114.962 C 54.6 114.962 50.318 115.082 50.318 115.229 C 50.318 115.375 50.79 117.828 51.367 120.68 C 52.783 127.671 55.367 134.99 58.692 141.426 C 61.713 147.272 66.006 153.674 66.523 153.101 C 66.703 152.901 69.768 148.448 73.335 143.206 Z M 128.752 149.223 C 134.15 141.328 138.599 130.622 140.612 120.68 C 141.19 117.828 141.662 115.375 141.662 115.229 C 141.662 115.082 137.381 114.962 132.149 114.962 L 122.636 114.962 L 117.378 124.111 C 114.486 129.143 112.188 133.44 112.272 133.659 C 112.712 134.817 125.632 153.311 125.89 153.152 C 126.057 153.048 127.345 151.28 128.752 149.223 Z M 112.026 121.094 L 117.231 112.072 L 111.913 102.846 L 106.594 93.62 L 85.399 93.62 L 80.072 102.854 L 74.745 112.088 L 77.744 117.26 C 79.394 120.105 81.781 124.212 83.049 126.388 L 85.355 130.343 L 96.088 130.229 L 106.821 130.115 Z M 74.628 99.987 C 77.483 95.037 79.76 90.735 79.687 90.427 C 79.615 90.119 76.483 84.768 72.727 78.537 L 65.897 67.208 L 63.213 69.849 C 54.736 78.19 49.898 90.74 49.893 104.398 L 49.891 108.986 L 69.438 108.986 Z M 142.087 104.398 C 142.082 90.74 137.243 78.19 128.767 69.849 L 126.082 67.208 L 119.253 78.537 C 115.497 84.768 112.364 90.119 112.292 90.427 C 112.22 90.735 114.497 95.037 117.351 99.987 L 122.541 108.986 L 142.089 108.986 L 142.087 104.398 Z M 43.279 88.466 L 45.914 88.007 L 46.668 85.585 C 48.324 80.268 51.872 73.644 55.353 69.371 L 57.236 67.059 L 49.615 67.259 C 41.487 67.474 40.049 67.774 35.066 70.299 C 32.126 71.789 27.837 75.87 25.993 78.933 C 24.416 81.55 22.602 86.357 22.584 87.964 L 22.573 88.925 L 31.608 88.925 C 36.578 88.925 41.829 88.718 43.279 88.466 Z M 169.407 88.116 C 169.407 86.509 167.698 81.827 166.196 79.321 C 163.208 74.333 158.788 70.755 152.863 68.526 C 150.28 67.554 149.208 67.423 142.398 67.251 L 134.811 67.06 L 137.55 70.693 C 140.619 74.761 143.681 80.564 145.124 85.047 L 146.085 88.031 L 148.249 88.427 C 149.439 88.645 154.686 88.846 159.91 88.874 C 168.964 88.922 169.407 88.887 169.407 88.116 Z M 113.666 75.936 C 117.561 69.497 120.747 64.026 120.747 63.779 C 120.747 63.531 119.745 62.821 118.521 62.201 C 105.272 55.487 88.308 55.257 74.757 61.608 C 72.819 62.516 71.233 63.483 71.233 63.757 C 71.233 64.031 74.419 69.518 78.314 75.95 L 85.395 87.644 L 106.586 87.644 Z M 86.813 51.583 C 91.297 50.772 100.312 50.775 105.326 51.588 C 110.032 52.351 109.964 52.391 111.351 48.009 C 115.033 36.379 106.578 22.141 95.99 22.141 C 87.422 22.141 79.77 31.602 79.77 42.197 C 79.77 46.429 81.617 52.233 82.956 52.207 C 83.199 52.202 84.935 51.921 86.813 51.582 Z"
        fill="#000000"
        stroke-width="12"/>
</svg>
