<svg xmlns="http://www.w3.org/2000/svg" viewBox="0 0 192 192"><path d="M96.075 175.09c-.027-1.62-2.763-6.153-6.497-10.762-1.693-2.09-3.078-3.92-3.078-4.066 0-.147 4.703-.267 10.451-.267 5.749 0 10.452.133 10.453.295 0 .433-2.257 2.746-5.181 5.308l-2.565 2.247-2.943-1.866c-1.619-1.027-3.117-2.092-3.33-2.368-.618-.802 1.33-.58 4.007.457 2.711 1.052 4.039 1.212 4.039.489 0-.649-4.045-2.243-7.424-2.926-4.615-.933-4.782-.008-.597 3.304 1.948 1.542 4.198 3.158 4.999 3.593l1.457.79-.999 2.544c-.55 1.399-1.399 2.968-1.886 3.485-.861.913-.887.906-.906-.257Zm-35.949-6.918c-9.251-6.111-16.628-17.318-16.628-25.264 0-1.937.182-2.32 1.105-2.32 1.951 0 8.451 4.111 8.451 5.345 0 .246-1.008.384-2.24.307-2.158-.136-2.246-.081-2.436 1.516-.383 3.237 8.423 14.493 13.378 17.097 1.376.724 1.612.729 2.45.058 1.402-1.126 1.663-4.645.564-7.601-1.014-2.727-2.985-5.198-3.692-4.63-.231.185-.586 2.105-.788 4.267-.213 2.28-.654 4.006-1.051 4.111-.383.102-1.357-1.248-2.218-3.076-2.974-6.311-3.389-10.206-1.086-10.206 2.413 0 9.272 4.397 10.329 6.62.975 2.052.522 8.491-1.025 14.584-.184.725-.686 1.318-1.115 1.318-.428 0-2.228-.957-3.998-2.126Zm67.924-.217c-.629-.816-2.04-7.018-2.138-9.397-.241-5.812-.174-6.015 2.694-8.22 3.5-2.691 8.601-4.826 9.366-3.921 1.009 1.192.085 4.935-2.203 8.929-2.56 4.468-3.251 4.438-3.28-.142-.01-1.582-.289-3.199-.619-3.594-.891-1.068-2.738.903-3.93 4.193-1.397 3.855-.418 7.307 2.072 7.307 1.264 0 7.595-5.337 10.509-8.86 2.855-3.451 4.698-7.244 4.237-8.72-.315-1.005-.586-1.086-2.726-.811-1.471.188-2.376.118-2.376-.186 0-1.3 8.316-5.757 9.576-5.132.859.425.698 3.958-.328 7.196-2.167 6.84-8.287 14.267-15.595 18.927-4.851 3.092-4.776 3.058-5.259 2.431Zm-34.98-9.988c-2.583-.381-3.073-.999-2.051-2.585.891-1.382.968-1.4 5.384-1.269 4.081.12 4.511.228 4.819 1.209.186.593.198 1.371.027 1.729-.501 1.047-4.363 1.479-8.179.916Zm10.138-1.836c-1.149-2.426-.631-2.933 3.927-3.851 1.263-.255 1.595-.055 2.362 1.418 1.148 2.204 1.186 2.078-.869 2.931-2.729 1.132-4.734.948-5.42-.498Zm-19.573.208c-2.387-.552-2.884-1.412-1.908-3.3.822-1.594 1.08-1.646 4.475-.898 3.511.774 3.869 1.127 3.122 3.08-.694 1.814-1.767 2.025-5.689 1.118Zm-9.056-4.115c-3.235-1.095-7.191-3.567-7.191-4.494 0-.771 2.589-2.829 3.559-2.829.961 0 8.983 4.452 8.983 4.986 0 .322-.739 1.136-1.642 1.81-1.568 1.17-1.737 1.194-3.709.527Zm37.588-.627c-.975-.837-1.607-1.737-1.405-1.999.202-.263 2.245-1.452 4.538-2.642 3.64-1.889 4.338-2.093 5.482-1.602.721.31 1.654 1.004 2.074 1.544.656.842.582 1.135-.528 2.082-.71.607-2.888 1.786-4.84 2.621l-3.549 1.517Zm-17.604.728c-.328-.091-2.075-.504-3.882-.916-1.807-.412-3.63-.93-4.052-1.151-2.276-1.194 3.103-4.437 7.413-4.469 8.04-.061 7.96-.077 10.852 2.243 1.766 1.417 2.505 2.336 2.123 2.642-1.17.939-10.552 2.183-12.454 1.651Zm-41.061-9.589c-7.344-4.369-8.042-5.01-7.252-6.661.755-1.578 2.681-.603 8.546 4.326 5.782 4.858 7.81 6.914 6.79 6.881-.258-.009-3.896-2.054-8.084-4.546Zm78.462 2.092c3.256-3.299 12.118-10.476 12.93-10.472.418.002 1.083.572 1.478 1.267.671 1.182.546 1.386-1.929 3.148-2.771 1.973-13.378 8.047-14.053 8.047-.215 0 .493-.896 1.574-1.99Zm-72.41-1.785c-1.932-1.594-3.514-3.226-3.514-3.625 0-.846 4.287-2.746 5.115-2.268.307.178 1.995 1.572 3.75 3.097 3.497 3.04 3.49 3.485-.082 4.967l-1.755.728Zm14.16-1.572c-6.046-4.063-6.434-4.426-5.394-5.036 3.11-1.825 8.414-1.903 11.168-.164 2.012 1.269 4.138 5.392 3.91 7.584-.154 1.486-.418 1.783-1.676 1.88-1.119.086-3.126-.982-8.008-4.264Zm36.307 3.818c-.611-.793-.297-4.652.477-5.859 1.559-2.435 2.973-3.154 6.195-3.154 3.017 0 7 .966 7.694 1.866.746.968-.635 2.122-5.812 4.859-5.293 2.797-7.671 3.433-8.554 2.288Zm15.151-.272c-.903-.449-1.638-1.145-1.634-1.545.013-1.086 5.899-6.238 7.128-6.238 1.37 0 4.212 1.787 4.212 2.649 0 .866-6.23 5.98-7.265 5.964-.439-.007-1.537-.381-2.441-.83Zm-34.258-4.156c-2.666-.931-6.206-3.929-6.206-5.255 0-3.067 4.437-4.902 10.695-4.425 5.608.427 8.376 1.154 10.311 2.707 2.201 1.766 2.133 2.973-.289 5.093-1.536 1.344-2.639 1.819-4.927 2.12-4.334.571-7.487.492-9.584-.24Zm46.203-5.38c-1.232-.41-2.239-.944-2.239-1.187 0-.561 3.217-5.637 4.316-6.81.744-.794 1.085-.824 3.302-.291 1.36.327 2.596.853 2.748 1.17.549 1.148-4.177 7.964-5.47 7.888-.229-.014-1.425-.36-2.657-.77Zm-86.306-.783c-1.28-1.121-4.327-5.725-4.327-6.54 0-.708 3.468-2.028 4.873-1.854 1.41.173 6.306 6.946 5.492 7.597-.281.224-1.482.733-2.669 1.131-2.053.688-2.22.671-3.369-.334Zm13.166-2.124c-1.883-.186-4.539-2.437-9.071-7.688-1.71-1.981-3.626-6.298-3.195-7.199.509-1.065 15.172-.603 18.202.573 2.525.98 5.243 4.16 6.782 7.934.873 2.142.884 2.537.102 3.494-1.435 1.757-8.397 3.325-12.82 2.886Zm55.128-.841c-2.27-.642-4.408-1.394-4.752-1.67-.837-.672.377-4.277 2.349-6.977 2.219-3.038 4.489-3.725 13.119-3.968 8.252-.232 9.073.062 8.385 3.006-.454 1.94-5.659 8.397-7.918 9.823-2.101 1.326-6.009 1.251-11.183-.214Zm-31.747-5.239c-1.953-.682-5.755-3.945-7.228-6.203-.497-.76-.736-1.875-.538-2.507.511-1.635 3.662-4.347 6.721-5.785 2.505-1.178 2.965-1.228 9.325-1.025 8.123.259 10.838 1.098 14.902 4.604 1.56 1.346 2.837 2.643 2.837 2.883 0 .66-2.215 2.895-5.901 5.955l-3.319 2.755-7.485-.019c-4.879-.012-8.121-.241-9.314-.658Zm58.383-1.582c-1.981-.303-2.1-.999-.855-4.977l1.109-3.546 2.706-.142c3.713-.196 4.258.434 3.251 3.76-1.617 5.34-1.903 5.566-6.211 4.905Zm-103.616-1.4c-1.096-1.716-2.529-6.787-2.031-7.186.632-.508 5.074-1.012 5.789-.658.908.451 3.191 7.701 2.578 8.192-.266.213-1.603.53-2.971.706-2.311.296-2.55.221-3.365-1.054Zm84.611-9.5c-5.791-1.034-10.35-3.177-11.91-5.597-.858-1.33-.832-1.58.364-3.561 2.792-4.629 12.003-8.351 20.663-8.351 3.679 0 6.068 1.323 8.12 4.493 2.531 3.911.86 11.326-2.824 12.536-2.93.962-10.333 1.209-14.413.48Zm-89.142-2.295c-.274-.593-.683-2.421-.909-4.062-.552-4.013.091-4.922 3.476-4.922 1.427 0 2.866.269 3.198.599.332.329.794 2.359 1.026 4.51.392 3.626.334 3.95-.79 4.433-.667.286-2.178.521-3.357.521-1.678 0-2.253-.235-2.644-1.079Zm19.044.334c-3.923-.552-4.709-.841-6.322-2.327-4.259-3.922-3.589-9.442 1.568-12.924 2.326-1.571 5.614-1.652 12.191-.303 6.872 1.41 11.27 3.783 13.521 7.295 1.628 2.539 1.437 3.406-1.168 5.294-4.155 3.012-11.567 4.123-19.79 2.965Zm93.539.402c-1.026-.211-1.098-.608-.817-4.553.338-4.754.649-5.153 4.032-5.153 3.537 0 3.804.369 3.43 4.748-.184 2.144-.66 4.214-1.059 4.599-.699.676-3.248.84-5.586.359Zm-60.392-5.442c-4.225-.806-5.518-2.076-7.49-7.363-.977-2.62-1.626-5.099-1.443-5.511 1.064-2.386 8.028-4.782 13.971-4.806 6.246-.025 10.525 1.197 14.206 4.058 3.713 2.885 3.848 3.611 1.434 7.705-1.907 3.235-3.927 4.766-7.168 5.437-3.441.712-10.905.977-13.51.48Zm-50.169-7.023c-2.818-.338-3.137-.784-2.644-3.696.584-3.455 1.612-5.874 2.628-6.187.874-.268 5.087.507 5.837 1.074.246.186-.158 2.267-.896 4.626-1.409 4.504-1.512 4.592-4.925 4.183Zm109.086-1.155c-.291-.623-.939-2.58-1.44-4.35-1.051-3.719-.776-4.136 2.996-4.542 1.594-.171 2.511-.03 3.023.465 1.072 1.036 2.834 7.941 2.16 8.463-.306.237-1.827.58-3.382.763-2.604.306-2.868.243-3.357-.799Zm-131.125-.336c-1.741-2.26-2.136-11.564-.702-16.526 1.724-5.963 7.413-14.348 13.064-19.25l2.761-2.396.024 2.69c.044 5.024-1.725 10.075-2.737 7.812-1.191-2.663-2.879-2.377-5.235.887-2.877 3.986-4.196 8.675-4.223 15.012-.026 6.113.446 7.381 2.749 7.381 1.634 0 6.006-3.409 7.842-6.116 1.584-2.334 2.461-5.69 1.599-6.117-.255-.126-2.646 1.417-5.313 3.431-2.668 2.013-5.003 3.538-5.189 3.388-1.176-.943 5.014-10.71 8.294-13.088 2.311-1.675 2.467-1.716 3.246-.861 2.309 2.533 3.235 8.542 1.754 11.385-1.374 2.638-14.836 12.77-16.967 12.77-.361 0-.797-.181-.967-.402Zm151.259-2.401c-4.547-2.933-10.358-7.575-12.072-9.642-1.709-2.062-.9-9.157 1.365-11.971 1.324-1.644 5.629 1.984 9.022 7.603 2.083 3.45 3.097 6.271 2.255 6.271-.337 0-2.553-1.509-4.924-3.354-4.48-3.485-5.714-4.007-5.714-2.414 0 3.687 6.489 11.039 9.742 11.039 2.479 0 2.984-1.066 3.017-6.369.047-7.412-2.259-14.401-5.764-17.47-1.6-1.401-2.678-1.365-3.521.119-.374.659-.893 1.198-1.154 1.198-.466 0-1.024-1.823-1.358-4.433-.296-2.319-.751-1.886-1.505 1.436-.405 1.78-1.077 3.884-1.494 4.675-.753 1.427-.761 1.416-1.182-1.438-.233-1.581-.986-5.647-1.672-9.035-1.055-5.204-1.12-6.225-.419-6.581.457-.232 1.058-.425 1.337-.429.751-.011 3.973 2.874 3.973 3.557 0 .324 1.105 1.541 2.455 2.705 5.175 4.46 10.247 11.316 12.909 17.45 2.539 5.849 2.476 17.669-.103 19.386-.618.412-1.794-.11-5.193-2.303ZM60.585 91.901c-4.877-.707-9.323-2.312-9.323-3.367 0-.735 7.634-9.958 9.764-11.797 4.331-3.738 12.058 1.067 13.502 8.396.947 4.808-1.441 7.572-6.474 7.494-1.516-.024-4.877-.351-7.469-.726Zm57.75-.284c-.722-.28-1.762-1.269-2.312-2.199-2.784-4.707 3.472-14.478 9.27-14.478 3.861 0 9.668 4.702 12.283 9.945 2 4.01.253 5.327-8.75 6.599-5.768.814-8.64.851-10.491.133ZM43.05 86.932c-1.396-.508-2.538-1.065-2.538-1.237 0-.712 4.363-6.905 5.391-7.652 1.049-.762 1.261-.742 3.684.345 1.414.633 2.545 1.465 2.513 1.848-.073.876-5.449 7.646-6.06 7.631-.248-.005-1.594-.426-2.99-.935Zm100.481-2.624c-3.561-4.466-3.757-5.023-2.136-6.076 2.38-1.546 4.275-1.678 5.578-.387 1.714 1.699 3.9 4.844 4.321 6.218.321 1.047.074 1.33-1.771 2.036-1.179.451-2.541.821-3.027.821-.485 0-1.82-1.176-2.965-2.612Zm-50.87 1.653c-5.751-.226-6.186-.318-7.976-1.677-2.629-1.996-6.501-6.646-6.914-8.303-.483-1.937 1.702-3.183 7.351-4.192 3.493-.623 6.22-.746 12.054-.541 6.638.232 13.238 1.156 14.29 1.999 1.46 1.172-1.73 8.259-4.912 10.912-2.248 1.874-4.538 2.171-13.893 1.802Zm-51.825-7.906c2.602-6.537 6.095-13.041 8.234-15.328.871-.932.916-.933 2.127-.054.68.494 1.41 1.642 1.623 2.551.349 1.491.125 1.871-2.289 3.887-2.567 2.143-7.676 7.083-9.301 8.992-.75.88-.763.878-.394-.048Zm108.953-2.011c-1.107-1.237-3.84-3.909-6.073-5.939-2.233-2.03-4.059-4.091-4.058-4.58.003-1.281 2.293-4.107 3.144-3.88 1.017.272 5.009 6.769 7.36 11.978 1.091 2.417 1.906 4.456 1.811 4.532-.094.076-1.077-.874-2.184-2.111Zm-98.687-.403c-1.226-.668-2.229-1.41-2.229-1.649 0-.602 6.489-6.171 7.892-6.774.905-.388 1.573-.229 3.196.765 1.129.69 2.052 1.545 2.052 1.898 0 .808-7.071 6.976-7.997 6.976-.377 0-1.688-.547-2.914-1.216Zm81.818-2.031c-2.208-1.785-4.015-3.445-4.015-3.687 0-.773 3.171-3.129 4.212-3.129.551 0 1.735.462 2.63 1.027 1.761 1.111 6.298 5.533 6.298 6.138 0 .354-4.237 2.898-4.827 2.898-.155 0-2.089-1.461-4.298-3.247Zm-94.181.287c.03-3.337 2.093-11.973 3.445-14.426 1.727-3.132 3.8-2.98 6.002.442.56.871.195 1.707-2.406 5.511a669.521 669.521 0 0 0-5.063 7.514l-1.997 3.03.019-2.071Zm110.316-5.508c-4.56-6.734-5.024-7.651-4.493-8.873.607-1.396 2.538-2.785 3.871-2.785 1.188 0 2.545 2.587 3.824 7.289.978 3.597 2.364 11.878 1.987 11.878-.058 0-2.393-3.379-5.189-7.509ZM35.577 72.065c-1.526-4.142-2.46-9.657-1.982-11.7.498-2.132 3.393-4.749 4.974-4.496 1.301.208 1.297 1.402-.024 7.81-.543 2.636-1.215 6.193-1.492 7.907l-.505 3.114-.971-2.635Zm29.322-3.268c-.548-.18-1.542-.886-2.211-1.57-1.082-1.109-1.121-1.352-.357-2.227.664-.76 1.773-1.051 4.899-1.286 5.379-.404 7.565.107 7.817 1.825.106.724-.237 1.842-.761 2.484-.847 1.037-1.367 1.163-4.672 1.133-2.045-.019-4.167-.18-4.715-.359Zm51.18-1.021c-1.56-2.421-1.214-3.276 1.571-3.877 3.894-.842 11.852.125 11.852 1.44 0 .235-.905 1.198-2.011 2.139-1.94 1.651-2.163 1.712-6.256 1.712-4.096 0-4.276-.05-5.156-1.414Zm-38.968-.762c-1.006-1.693-1.002-1.771.143-2.443.73-.428 2.214-.641 3.871-.554l2.688.141v4.313l-2.832.146c-2.734.141-2.866.086-3.87-1.603Zm9.979.482c-.325-.684-.59-1.738-.59-2.342 0-1.008.335-1.123 4.113-1.404 5.039-.376 11.189.091 12.041.914.403.39.445 1.184.115 2.208l-.516 1.599-7.287.134-7.287.135Zm19.738.288c-.895-1.342-.76-2.725.351-3.617.928-.744 2.254-.73 5.75.059 1.3.294 1.357 1.996.115 3.419-1.244 1.426-5.298 1.516-6.216.139Zm-32.273-5.826c0-.665 5.167-2.869 9.669-4.125 4.941-1.379 12.72-1.82 17.694-1.004 3.53.579 12.753 4.125 13.111 5.041.172.442-.847.52-4.146.317-15.039-.924-21.146-.932-33.491-.04-1.56.113-2.837.027-2.837-.189Zm.479-5.502c2.693-1.513 9.357-3.649 13.234-4.242 5.3-.81 11.895-.532 16.493.695 3.606.963 10.679 3.764 10.291 4.075-.103.083-2.336-.263-4.963-.768-10.745-2.066-21.898-2.056-31.196.026-5.205 1.165-5.59 1.187-3.859.214Zm-1.337-4.765c-.217-.927-.231-1.897-.031-2.156.679-.882 6.264-.365 6.264.58 0 .836-3.469 3.262-4.665 3.262-.87 0-1.276-.437-1.568-1.686Zm36.865.741c-1.038-.506-2.185-1.367-2.548-1.912-.785-1.176.04-1.566 3.48-1.645 2.175-.051 2.181-.045 2.036 1.838-.192 2.511-.719 2.816-2.968 1.719Zm-27.526-3.464c-2.302-1.847 1.155-5.709 5.935-6.628 5.596-1.078 13.548.15 15.265 2.355.345.444.808 1.466 1.028 2.272.605 2.21-.338 2.522-5.854 1.941-3.431-.361-5.826-.343-8.821.069-5.182.713-6.655.712-7.553-.009Zm-9.675-4.604c0-1.004.34-2.199.756-2.655.666-.731 1.127-.765 3.882-.291 3.405.585 3.418.6 2.491 2.734-.667 1.537-1.901 2.019-5.188 2.03-1.852.006-1.941-.077-1.941-1.818Zm33.826 1.103c-2.745-2.202-1.287-4.221 2.87-3.972 2.118.127 2.406.303 2.873 1.757.285.889.376 1.913.203 2.276-.432.903-4.8.858-5.946-.061Zm-19.94-5.355c-2.323-.19-3.701-1.111-1.663-1.111.482 0 1.817-.755 2.967-1.677 1.882-1.51 2.417-1.677 5.375-1.677 2.931 0 3.501.173 5.291 1.609 1.103.885 2.388 1.718 2.857 1.851.468.133.716.357.552.498-.424.363-12.339.756-15.379.507Zm-12.476-1.83c-.189-.395-.178-1.065.025-1.489.374-.782.923-.774 6.185.084 3.408.556 5.114-1.992 2.571-3.839-1.253-.909-2.706-.582-2.191.493.48 1.004-1.756 1.787-3.259 1.142-2.964-1.273.492-4.419 4.936-4.494 2.405-.04 2.579.045 2.764 1.35.321 2.257-.438 4.468-2.066 6.02-1.381 1.316-1.854 1.452-5.072 1.452-2.604 0-3.641-.192-3.893-.719Zm29.482.12c-1.492-.902-2.822-3.892-2.822-6.344 0-1.833.228-2.265 1.421-2.701 3.118-1.14 8.988 3.112 6.979 5.055-1.378 1.332-4.547.562-3.833-.932.495-1.034-.991-1.33-2.215-.442-1.559 1.133-1.468 2.902.195 3.777 1.205.633 1.66.622 4.169-.102 2.622-.756 2.884-.757 3.806-.018.544.437.827 1.134.628 1.55-.452.945-6.826 1.066-8.328.157Zm-14.92-5.434c-.906-.727-.401-2.011.9-2.29 1.988-.428 6-.349 6.955.136 1.468.745.269 1.958-1.934 1.958-1.119 0-2.809.124-3.756.276-.947.152-1.921.116-2.165-.08Zm-2.27-5.738c-.638-.544-1.16-1.148-1.16-1.341 0-.649 5.054-2.201 7.167-2.201 2.6 0 7.167 1.614 7.167 2.532 0 1.395-1.798 1.902-6.922 1.951-4.419.042-5.246-.083-6.252-.941Z"/></svg>