<svg xmlns="http://www.w3.org/2000/svg" viewBox="0 0 192 192"><path d="M88.583 175.304c-5.932-1.273-12.458-4.472-17.501-8.579l-3.467-2.825c-.961-.784-.985-.776-3.586 1.321-1.441 1.16-3.867 2.718-5.393 3.462-4.576 2.231-7.056 2.609-17.175 2.616-8.506.006-9.124-.047-9.924-.847-1.725-1.725-.763-8.388 2.033-14.086 2.88-5.87 9.223-11.171 15.882-13.275 1.485-.469 2.312-.955 2.231-1.312-.071-.311-.779-2.103-1.574-3.981-5.024-11.873-7.373-27.298-6.079-39.91l.329-3.201-13.223.124c-12.828.121-13.25.098-14.095-.747-1.787-1.787-.767-9.319 2.055-15.17 4.221-8.75 11.195-14.522 20.386-16.873 2.83-.724 4.737-.841 13.665-.841h10.376l3.152-2.057c1.733-1.132 4.626-2.706 6.429-3.498 2.55-1.12 3.213-1.588 2.981-2.105-.163-.365-.773-2.008-1.356-3.651-1.353-3.816-1.487-10.427-.297-14.726 2.113-7.643 7.429-14.389 13.694-17.38 3.249-1.551 3.559-1.615 7.864-1.615 4.3 0 4.618.065 7.841 1.604 6.319 3.017 11.59 9.7 13.717 17.391 1.189 4.299 1.056 10.91-.297 14.726-.583 1.643-1.189 3.276-1.346 3.628-.218.485.51.998 2.997 2.115 1.807.811 4.695 2.396 6.419 3.522l3.135 2.046h10.376c8.928 0 10.836.117 13.666.841 9.026 2.309 15.932 7.947 20.145 16.446 3.042 6.136 4.16 13.733 2.295 15.597-.845.845-1.266.868-14.127.747l-13.255-.124.246 1.921c1.706 13.282-.729 29.408-6.384 42.269-.805 1.83-1.463 3.416-1.463 3.524 0 .108.742.316 1.649.461 2.634.421 8.178 3.441 10.993 5.989 4.941 4.47 8.151 10.961 8.59 17.367.201 2.932.131 3.359-.687 4.177-.873.873-1.286.91-9.981.904-10.103-.007-12.758-.409-17.232-2.612-1.462-.72-3.826-2.25-5.254-3.4-1.427-1.15-2.684-2.092-2.792-2.092-.109 0-1.206.897-2.44 1.992-5.478 4.866-13.124 8.814-19.644 10.143-4.043.824-10.664.812-14.574-.026Zm14.877-6.335c3.993-1.007 10.711-4.587 14.299-7.62 1.761-1.489 3.179-3.002 3.151-3.362-.027-.361-3.197-5.291-7.043-10.956l-6.993-10.299-10.884.005-10.885.005-6.99 10.281c-3.845 5.655-7.015 10.583-7.043 10.95-.132 1.692 9.288 8.189 14.764 10.183 5.166 1.882 12.114 2.202 17.624.812Zm-51.902-4.297c3.437-.81 7.141-2.765 9.164-4.837l1.559-1.597-1.953-2.516c-1.075-1.384-2.653-3.648-3.507-5.032-1.534-2.485-1.573-2.513-3.17-2.257-4.896.783-10.466 4.317-13.175 8.36-1.521 2.27-3.39 6.633-3.39 7.912 0 .89 10.66.866 14.472-.033Zm103.336.033c0-1.279-1.869-5.642-3.39-7.912-2.709-4.043-8.279-7.577-13.175-8.36-1.598-.256-1.636-.228-3.17 2.257-.854 1.384-2.432 3.648-3.507 5.032l-1.954 2.516 1.56 1.597c1.966 2.013 5.724 4.032 8.967 4.817 1.511.366 4.917.621 8.587.642 5.069.03 6.082-.068 6.082-.589Zm-81.559-21.499c3.566-5.243 6.425-9.764 6.353-10.046-.073-.283-2.428-4.493-5.234-9.356l-5.102-8.842h-9.517c-5.235 0-9.517.12-9.517.267 0 .146.472 2.599 1.049 5.451 1.416 6.991 4 14.31 7.325 20.746 3.021 5.846 7.314 12.248 7.831 11.675.18-.2 3.245-4.653 6.812-9.895Zm55.417 6.017c5.398-7.895 9.847-18.601 11.86-28.543.578-2.852 1.05-5.305 1.05-5.451 0-.147-4.281-.267-9.513-.267h-9.513l-5.258 9.149c-2.892 5.032-5.19 9.329-5.106 9.548.44 1.158 13.36 19.652 13.618 19.493.167-.104 1.455-1.872 2.862-3.929Zm-16.726-28.129 5.205-9.022-5.318-9.226-5.319-9.226H85.399l-5.327 9.234-5.327 9.234 2.999 5.172c1.65 2.845 4.037 6.952 5.305 9.128l2.306 3.955 10.733-.114 10.733-.114ZM74.628 99.987c2.855-4.95 5.132-9.252 5.059-9.56-.072-.308-3.204-5.659-6.96-11.89l-6.83-11.329-2.684 2.641c-8.477 8.341-13.315 20.891-13.32 34.549l-.002 4.588h19.547Zm67.459 4.411c-.005-13.658-4.844-26.208-13.32-34.549l-2.685-2.641-6.829 11.329c-3.756 6.231-6.889 11.582-6.961 11.89-.072.308 2.205 4.61 5.059 9.56l5.19 8.999h19.548l-.002-4.588ZM43.279 88.466l2.635-.459.754-2.422c1.656-5.317 5.204-11.941 8.685-16.214l1.883-2.312-7.621.2c-8.128.215-9.566.515-14.549 3.04-2.94 1.49-7.229 5.571-9.073 8.634-1.577 2.617-3.391 7.424-3.409 9.031l-.011.961h9.035c4.97 0 10.221-.207 11.671-.459Zm126.128-.35c0-1.607-1.709-6.289-3.211-8.795-2.988-4.988-7.408-8.566-13.333-10.795-2.583-.972-3.655-1.103-10.465-1.275l-7.587-.191 2.739 3.633c3.069 4.068 6.131 9.871 7.574 14.354l.961 2.984 2.164.396c1.19.218 6.437.419 11.661.447 9.054.048 9.497.013 9.497-.758Zm-55.741-12.18c3.895-6.439 7.081-11.91 7.081-12.157 0-.248-1.002-.958-2.226-1.578-13.249-6.714-30.213-6.944-43.764-.593-1.938.908-3.524 1.875-3.524 2.149s3.186 5.761 7.081 12.193l7.081 11.694h21.191ZM86.813 51.583c4.484-.811 13.499-.808 18.513.005 4.706.763 4.638.803 6.025-3.579 3.682-11.63-4.773-25.868-15.361-25.868-8.568 0-16.22 9.461-16.22 20.056 0 4.232 1.847 10.036 3.186 10.01.243-.005 1.979-.286 3.857-.625Z"/></svg>