<svg xmlns="http://www.w3.org/2000/svg" id="svg6835" version="1.1" viewBox="0 0 48 48"><defs id="defs6805"><style id="style6803">.a{fill:none;stroke:#000;stroke-linecap:round;stroke-linejoin:round}</style></defs><path id="path6807" d="M40 5.5H7a2 2 0 0 0-2 2v33a2 2 0 0 0 2 2h33a2 2 0 0 0 2-2v-33a2 2 0 0 0-2-2Z" class="a" style="stroke-width:2;stroke-miterlimit:4;stroke-dasharray:none"/><path id="polyline6809" d="M15.94 36.32v-9.29l4.65 9.3 4.65-9.29v9.29" class="a" style="stroke-width:2;stroke-miterlimit:4;stroke-dasharray:none"/><path id="line6811" d="m29.89 36.33-2.48-6.16" class="a" style="stroke-width:2;stroke-miterlimit:4;stroke-dasharray:none"/><path id="path6813" d="m32.07 30.17-3 8.37a1.39 1.39 0 0 1-1.31.93h-.39" class="a" style="stroke-width:2;stroke-miterlimit:4;stroke-dasharray:none"/><path id="line6815" d="M5 24h37" class="a" style="stroke-width:2;stroke-miterlimit:4;stroke-dasharray:none"/><path id="line6817" d="M23.46 10.79v7.92" class="a" style="stroke-width:2;stroke-miterlimit:4;stroke-dasharray:none"/><path id="line6819" d="M10 10.79h3.96" class="a" style="stroke-width:2;stroke-miterlimit:4;stroke-dasharray:none"/><path id="line6821" d="M10 14.75h2.57" class="a" style="stroke-width:2;stroke-miterlimit:4;stroke-dasharray:none"/><path id="line6823" d="M10 10.79v7.92" class="a" style="stroke-width:2;stroke-miterlimit:4;stroke-dasharray:none"/><path id="path6825" d="M16.08 18.71v-7.92h2.59a2.66 2.66 0 0 1 0 5.32h-2.59" class="a" style="stroke-width:2;stroke-miterlimit:4;stroke-dasharray:none"/><path id="line6827" d="m18.67 16.11 2.59 2.6" class="a" style="stroke-width:2;stroke-miterlimit:4;stroke-dasharray:none"/><path id="line6829" d="M25.61 10.79h5.24" class="a" style="stroke-width:2;stroke-miterlimit:4;stroke-dasharray:none"/><path id="line6831" d="M28.23 18.71v-7.92" class="a" style="stroke-width:2;stroke-miterlimit:4;stroke-dasharray:none"/><path id="polyline6833" d="M32.76 10.79H38l-5.24 7.92H38" class="a" style="stroke-width:2;stroke-miterlimit:4;stroke-dasharray:none"/></svg>