<svg viewBox="0 0 48 48" version="1.1" id="svg6835" xmlns="http://www.w3.org/2000/svg"><defs id="defs6805"><style id="style6803">.a{fill:none;stroke:#000;stroke-linecap:round;stroke-linejoin:round}</style></defs><path class="a" d="M40 5.5H7a2 2 0 0 0-2 2v33a2 2 0 0 0 2 2h33a2 2 0 0 0 2-2v-33a2 2 0 0 0-2-2Z" id="path6807" style="stroke-width:2;stroke-miterlimit:4;stroke-dasharray:none"/><path class="a" id="polyline6809" style="stroke-width:2;stroke-miterlimit:4;stroke-dasharray:none" d="M15.94 36.32v-9.29l4.65 9.3 4.65-9.29v9.29"/><path class="a" id="line6811" style="stroke-width:2;stroke-miterlimit:4;stroke-dasharray:none" d="m29.89 36.33-2.48-6.16"/><path class="a" d="m32.07 30.17-3 8.37a1.39 1.39 0 0 1-1.31.93h-.39" id="path6813" style="stroke-width:2;stroke-miterlimit:4;stroke-dasharray:none"/><path class="a" id="line6815" style="stroke-width:2;stroke-miterlimit:4;stroke-dasharray:none" d="M5 24h37"/><path class="a" id="line6817" style="stroke-width:2;stroke-miterlimit:4;stroke-dasharray:none" d="M23.46 10.79v7.92"/><path class="a" id="line6819" style="stroke-width:2;stroke-miterlimit:4;stroke-dasharray:none" d="M10 10.79h3.96"/><path class="a" id="line6821" style="stroke-width:2;stroke-miterlimit:4;stroke-dasharray:none" d="M10 14.75h2.57"/><path class="a" id="line6823" style="stroke-width:2;stroke-miterlimit:4;stroke-dasharray:none" d="M10 10.79v7.92"/><path class="a" d="M16.08 18.71v-7.92h2.59a2.66 2.66 0 0 1 0 5.32h-2.59" id="path6825" style="stroke-width:2;stroke-miterlimit:4;stroke-dasharray:none"/><path class="a" id="line6827" style="stroke-width:2;stroke-miterlimit:4;stroke-dasharray:none" d="m18.67 16.11 2.59 2.6"/><path class="a" id="line6829" style="stroke-width:2;stroke-miterlimit:4;stroke-dasharray:none" d="M25.61 10.79h5.24"/><path class="a" id="line6831" style="stroke-width:2;stroke-miterlimit:4;stroke-dasharray:none" d="M28.23 18.71v-7.92"/><path class="a" id="polyline6833" style="stroke-width:2;stroke-miterlimit:4;stroke-dasharray:none" d="M32.76 10.79H38l-5.24 7.92H38"/></svg>