<?xml version="1.0" encoding="UTF-8" standalone="no"?>
<svg
   viewBox="0 0 48 48"
   version="1.1"
   id="svg6835"
   sodipodi:docname="myfritz.svg"
   inkscape:version="1.1.2 (b8e25be833, 2022-02-05)"
   xmlns:inkscape="http://www.inkscape.org/namespaces/inkscape"
   xmlns:sodipodi="http://sodipodi.sourceforge.net/DTD/sodipodi-0.dtd"
   xmlns="http://www.w3.org/2000/svg"
   xmlns:svg="http://www.w3.org/2000/svg">
  <sodipodi:namedview
     id="namedview6837"
     pagecolor="#ffffff"
     bordercolor="#666666"
     borderopacity="1.0"
     inkscape:pageshadow="2"
     inkscape:pageopacity="0.0"
     inkscape:pagecheckerboard="0"
     showgrid="false"
     inkscape:zoom="12.041667"
     inkscape:cx="24"
     inkscape:cy="24"
     inkscape:window-width="1280"
     inkscape:window-height="961"
     inkscape:window-x="-8"
     inkscape:window-y="-8"
     inkscape:window-maximized="1"
     inkscape:current-layer="svg6835" />
  <defs
     id="defs6805">
    <style
       id="style6803">.a{fill:none;stroke:#000;stroke-linecap:round;stroke-linejoin:round;}</style>
  </defs>
  <path
     class="a"
     d="M40,5.5H7a2,2,0,0,0-2,2v33a2,2,0,0,0,2,2H40a2,2,0,0,0,2-2V7.5A2,2,0,0,0,40,5.5Z"
     id="path6807"
     style="stroke-width:2;stroke-miterlimit:4;stroke-dasharray:none" />
  <polyline
     class="a"
     points="15.94 36.32 15.94 27.03 20.59 36.33 25.24 27.04 25.24 36.33"
     id="polyline6809"
     style="stroke-width:2;stroke-miterlimit:4;stroke-dasharray:none" />
  <line
     class="a"
     x1="29.89"
     y1="36.33"
     x2="27.41"
     y2="30.17"
     id="line6811"
     style="stroke-width:2;stroke-miterlimit:4;stroke-dasharray:none" />
  <path
     class="a"
     d="M32.07,30.17l-3,8.37a1.39,1.39,0,0,1-1.31.93h-.39"
     id="path6813"
     style="stroke-width:2;stroke-miterlimit:4;stroke-dasharray:none" />
  <line
     class="a"
     x1="5"
     y1="24"
     x2="42"
     y2="24"
     id="line6815"
     style="stroke-width:2;stroke-miterlimit:4;stroke-dasharray:none" />
  <line
     class="a"
     x1="23.46"
     y1="10.79"
     x2="23.46"
     y2="18.71"
     id="line6817"
     style="stroke-width:2;stroke-miterlimit:4;stroke-dasharray:none" />
  <line
     class="a"
     x1="10"
     y1="10.79"
     x2="13.96"
     y2="10.79"
     id="line6819"
     style="stroke-width:2;stroke-miterlimit:4;stroke-dasharray:none" />
  <line
     class="a"
     x1="10"
     y1="14.75"
     x2="12.57"
     y2="14.75"
     id="line6821"
     style="stroke-width:2;stroke-miterlimit:4;stroke-dasharray:none" />
  <line
     class="a"
     x1="10"
     y1="10.79"
     x2="10"
     y2="18.71"
     id="line6823"
     style="stroke-width:2;stroke-miterlimit:4;stroke-dasharray:none" />
  <path
     class="a"
     d="M16.08,18.71V10.79h2.59a2.66,2.66,0,0,1,0,5.32H16.08"
     id="path6825"
     style="stroke-width:2;stroke-miterlimit:4;stroke-dasharray:none" />
  <line
     class="a"
     x1="18.67"
     y1="16.11"
     x2="21.26"
     y2="18.71"
     id="line6827"
     style="stroke-width:2;stroke-miterlimit:4;stroke-dasharray:none" />
  <line
     class="a"
     x1="25.61"
     y1="10.79"
     x2="30.85"
     y2="10.79"
     id="line6829"
     style="stroke-width:2;stroke-miterlimit:4;stroke-dasharray:none" />
  <line
     class="a"
     x1="28.23"
     y1="18.71"
     x2="28.23"
     y2="10.79"
     id="line6831"
     style="stroke-width:2;stroke-miterlimit:4;stroke-dasharray:none" />
  <polyline
     class="a"
     points="32.76 10.79 38 10.79 32.76 18.71 38 18.71"
     id="polyline6833"
     style="stroke-width:2;stroke-miterlimit:4;stroke-dasharray:none" />
</svg>
