<svg
    xmlns="http://www.w3.org/2000/svg"
    viewBox="0 0 192 192"
    id="vector">
    <path
        id="path"
        d="M 44.503 175.303 C 35.55 172.866 28.143 165.082 27.144 157.061 C 26.622 152.873 26.533 147.177 26.99 147.177 C 27.218 147.177 27.407 146.756 27.409 146.241 C 27.421 144.208 30.228 139.445 33.301 136.244 C 35.494 133.962 37.609 132.378 39.853 131.342 L 43.167 129.811 L 58.395 129.679 C 66.771 129.607 94.223 129.486 119.4 129.412 L 165.176 129.277 L 165.084 135.956 L 164.993 142.635 L 134.269 142.902 C 106.575 143.143 103.38 143.259 101.872 144.085 C 100.302 144.945 97.425 147.892 97.38 148.687 C 97.369 148.885 97.227 149.971 97.063 151.1 C 96.406 155.64 98.358 159.272 102.455 161.133 C 104.467 162.048 106.674 162.115 134.937 162.126 L 165.26 162.138 L 165.26 168.239 C 165.26 171.594 165.114 174.72 164.935 175.185 C 164.642 175.949 158.953 176.027 105.759 175.994 C 61.077 175.967 46.328 175.8 44.503 175.303 Z M 30.61 119.525 L 30.61 114.048 L 90.487 114.048 L 90.337 107.526 C 90.189 101.079 90.172 101 88.852 100.633 C 88.117 100.429 74.704 100.239 59.045 100.209 L 30.574 100.156 L 30.726 94.412 L 30.877 88.668 L 93.126 88.514 C 158.633 88.351 157.682 88.32 161.179 90.717 C 163.915 92.592 164.191 94.134 164.189 107.486 C 164.187 118.609 164.097 119.806 163.146 121.366 C 160.999 124.887 166.027 124.632 95.13 124.826 L 30.61 125.002 Z M 89.254 83.609 C 85.889 82.996 83.591 81.503 80.139 77.689 C 75.048 72.063 72.902 65.738 73.537 58.229 C 74.193 50.47 78.178 43.828 83.842 41.057 C 86.43 39.791 87.187 39.667 91.008 39.889 C 95.879 40.171 95.803 40.319 93.32 35.378 C 92.404 33.556 91.639 32.752 90.584 32.501 C 87.167 31.69 86.02 28.318 88.588 26.635 C 89.897 25.777 91.825 25.945 94.748 27.17 C 95.37 27.431 95.718 26.96 96.181 25.23 C 96.976 22.262 100.16 18.21 102.649 17 C 104.077 16.306 105.928 16.038 109.423 16.022 L 114.232 16 L 114.392 20.004 C 114.535 23.611 114.383 24.343 112.844 27.403 C 110.771 31.531 108.102 33.634 103.819 34.519 L 100.764 35.15 L 101.389 37.597 L 102.014 40.045 L 106.291 39.861 C 111.789 39.624 114.483 40.455 117.753 43.395 C 122.747 47.885 125.501 56.961 124.221 64.715 C 123.443 69.427 120.008 76.424 117.246 78.918 C 112.529 83.181 111.515 83.488 101.141 83.795 C 95.998 83.947 90.649 83.864 89.254 83.609 Z"
        fill="#000000"
        stroke-width="12"/>
</svg>
