<svg xmlns="http://www.w3.org/2000/svg" viewBox="0 0 192 192"><path d="M44.503 175.303c-8.953-2.437-16.36-10.221-17.359-18.242-.522-4.188-.611-9.884-.154-9.884.228 0 .417-.421.419-.936.012-2.033 2.819-6.796 5.892-9.997 2.193-2.282 4.308-3.866 6.552-4.902l3.314-1.531 15.228-.132c8.376-.072 35.828-.193 61.005-.267l45.776-.135-.092 6.679-.091 6.679-30.724.267c-27.694.241-30.889.357-32.397 1.183-1.57.86-4.447 3.807-4.492 4.602-.011.198-.153 1.284-.317 2.413-.657 4.54 1.295 8.172 5.392 10.033 2.012.915 4.219.982 32.482.993l30.323.012v6.101c0 3.355-.146 6.481-.325 6.946-.293.764-5.982.842-59.176.809-44.682-.027-59.431-.194-61.256-.691ZM30.61 119.525v-5.477h59.877l-.15-6.522c-.148-6.447-.165-6.526-1.485-6.893-.735-.204-14.148-.394-29.807-.424l-28.471-.053.152-5.744.151-5.744 62.249-.154c65.507-.163 64.556-.194 68.053 2.203 2.736 1.875 3.012 3.417 3.01 16.769-.002 11.123-.092 12.32-1.043 13.88-2.147 3.521 2.881 3.266-68.016 3.46l-64.52.176Zm58.644-35.916c-3.365-.613-5.663-2.106-9.115-5.92-5.091-5.626-7.237-11.951-6.602-19.46.656-7.759 4.641-14.401 10.305-17.172 2.588-1.266 3.345-1.39 7.166-1.168 4.871.282 4.795.43 2.312-4.511-.916-1.822-1.681-2.626-2.736-2.877-3.417-.811-4.564-4.183-1.996-5.866 1.309-.858 3.237-.69 6.16.535.622.261.97-.21 1.433-1.94.795-2.968 3.979-7.02 6.468-8.23 1.428-.694 3.279-.962 6.774-.978l4.809-.022.16 4.004c.143 3.607-.009 4.339-1.548 7.399-2.073 4.128-4.742 6.231-9.025 7.116l-3.055.631.625 2.447.625 2.448 4.277-.184c5.498-.237 8.192.594 11.462 3.534 4.994 4.49 7.748 13.566 6.468 21.32-.778 4.712-4.213 11.709-6.975 14.203-4.717 4.263-5.731 4.57-16.105 4.877-5.143.152-10.492.069-11.887-.186Z"/></svg>