<svg
    xmlns="http://www.w3.org/2000/svg"
    viewBox="0 0 192 192"
    id="vector">
    <path
        id="path"
        d="M 164.337 161.068 L 98.125 161.068 C 95.016 157.966 95.016 146.624 98.125 143.522 L 164.337 143.522 C 166.895 140.971 166.895 131.642 164.337 129.09 L 31.913 129.09 C 23.688 137.294 23.688 167.296 31.913 175.5 L 164.337 175.5 C 166.895 172.949 166.895 163.619 164.337 161.068 Z M 157.813 143.522 L 157.813 161.068 M 85.85 129.09 C 77.626 137.294 77.626 167.296 85.85 175.5 M 27.415 101.251 L 94.15 101.251 C 96.857 103.951 96.857 113.826 94.15 116.526 L 27.415 116.526 C 25.188 118.747 25.188 126.869 27.415 129.09 L 160.885 129.09 C 168.046 121.948 168.046 95.829 160.885 88.686 L 27.415 88.686 C 25.188 90.907 25.188 99.03 27.415 101.251 Z M 33.094 116.526 L 33.094 101.251 M 104.836 129.09 C 111.997 121.948 111.997 95.829 104.836 88.686 M 100.364 42.257 C 100.364 42.257 104.067 39.506 107.217 39.506 C 120.785 39.506 127.055 47.019 128.729 58.779 C 130.933 74.265 124.652 82.68 115.447 85.942 C 106.763 89.02 89.746 88.101 82.67 84.639 C 74.919 80.848 69.712 71.174 72.84 59.129 C 76.452 45.22 83.629 36.16 100.364 42.257 Z M 88.265 24.832 C 88.265 24.832 93.299 37.942 100.364 42.257"
        fill="none"
        stroke="#000000"
        stroke-width="8"
        stroke-linecap="round"
        stroke-linejoin="round"/>
    <path
        id="path_1"
        d="M 94.746 34.97 C 94.746 34.97 89.873 14.498 112.876 16.66 C 112.876 16.66 122.66 35.911 94.746 34.97 Z"
        fill="none"
        stroke="#000000"
        stroke-width="8"
        stroke-linecap="round"
        stroke-linejoin="round"/>
</svg>
