<svg xmlns="http://www.w3.org/2000/svg" viewBox="0 0 192 192"><path fill="none" stroke="#000" stroke-linecap="round" stroke-linejoin="round" stroke-width="8" d="M164.337 161.068H98.125c-3.109-3.102-3.109-14.444 0-17.546h66.212c2.558-2.551 2.558-11.88 0-14.432H31.913c-8.225 8.204-8.225 38.206 0 46.41h132.424c2.558-2.551 2.558-11.881 0-14.432Zm-6.524-17.546v17.546M85.85 129.09c-8.224 8.204-8.224 38.206 0 46.41m-58.435-74.249H94.15c2.707 2.7 2.707 12.575 0 15.275H27.415c-2.227 2.221-2.227 10.343 0 12.564h133.47c7.161-7.142 7.161-33.261 0-40.404H27.415c-2.227 2.221-2.227 10.344 0 12.565Zm5.679 15.275v-15.275m71.742 27.839c7.161-7.142 7.161-33.261 0-40.404m-4.472-46.429s3.703-2.751 6.853-2.751c13.568 0 19.838 7.513 21.512 19.273 2.204 15.486-4.077 23.901-13.282 27.163-8.684 3.078-25.701 2.159-32.777-1.303-7.751-3.791-12.958-13.465-9.83-25.51 3.612-13.909 10.789-22.969 27.524-16.872ZM88.265 24.832s5.034 13.11 12.099 17.425"/><path fill="none" stroke="#000" stroke-linecap="round" stroke-linejoin="round" stroke-width="8" d="M94.746 34.97s-4.873-20.472 18.13-18.31c0 0 9.784 19.251-18.13 18.31Z"/></svg>