<svg xmlns="http://www.w3.org/2000/svg" viewBox="0 0 192 192"><path d="M22.806 22.806A22.981 22.981 0 0 1 37.929 16.5c17.872 0 32.872 24.924 37.32 58.749 6.88.911 13.811 1.372 20.751 1.378 6.94-.006 13.871-.467 20.751-1.378C121.199 41.424 136.2 16.5 154.071 16.5a22.981 22.981 0 0 1 15.123 6.306 22.98 22.98 0 0 1 6.306 15.122c0 17.873-24.924 32.875-58.749 37.321a156.96 156.96 0 0 0 0 41.502c33.825 4.448 58.749 19.448 58.749 37.32a21.542 21.542 0 0 1-6.306 15.123 21.542 21.542 0 0 1-15.123 6.306c-17.871 0-32.872-24.924-37.32-58.749a156.96 156.96 0 0 0-41.502 0c-4.448 33.825-19.448 58.749-37.32 58.749a22.981 22.981 0 0 1-15.123-6.306 22.981 22.981 0 0 1-6.306-15.123c0-17.872 24.924-32.872 58.749-37.32A159.122 159.122 0 0 0 76.627 96a159.122 159.122 0 0 0-1.378-20.751C41.424 70.801 16.5 55.801 16.5 37.928a22.98 22.98 0 0 1 6.306-15.122Z" fill="none" stroke="#000" stroke-width="12" stroke-linecap="round" stroke-linejoin="round"/></svg>