<svg xmlns="http://www.w3.org/2000/svg" viewBox="0 0 192 192"><path fill-rule="evenodd" d="M59.144 174.869c-15.508-3.987-27.83-14.119-35.779-29.422-5.243-10.094-7.266-18.661-7.266-30.778 0-9.771.301-11.581 3.629-21.872 3.386-10.472 10.377-20.789 19.56-28.865 7.195-6.328 11.133-8.817 20.687-13.072 5.576-2.484 7.843-3.905 7.843-4.917 0-2.182 1.869-2.404 8.03-.951 3.106.733 5.875 1.119 6.152.858.277-.261.024-2.998-.562-6.083-.839-4.414-.846-5.859-.033-6.78 1.518-1.72 2.423-1.493 8.033 2.017 2.797 1.751 5.373 3.185 5.722 3.186.35.002.636-.914.636-2.035 0-3.109 1.783-9.384 3.021-10.633.931-.94 1.728-.594 5.146 2.234l4.044 3.347 1.459-2.673c1.878-3.441 8.262-8.97 12.1-10.477 1.646-.647 4.719-1.419 6.83-1.717 3.164-.446 3.935-.304 4.389.809.397.972-.64 2.331-3.699 4.847-4.145 3.409-7.854 9.177-7.854 12.214 0 .886.772 1.699 1.87 1.97 1.029.252 1.921.384 1.982.292 5.745-8.631 10.842-12.538 17.714-13.577 5.487-.83 6.108 1.091 1.643 5.082-3.487 3.117-7.101 10.002-7.101 13.529 0 3.618 16.882 19.716 24.401 23.269 6.168 2.914 7.248 4.114 9.164 10.179 1.129 3.573 1.164 4.558.225 6.209-1.058 1.857-1.426 1.941-6.904 1.572-5.105-.343-5.716-.237-5.188.903 7.31 15.768 8.754 30.684 4.559 47.082-1.639 6.408-1.65 6.768-.221 7.519 2.633 1.386 9.525 7.807 11.337 10.564 2.146 3.265 1.548 5.876-1.346 5.876-1.107 0-2.221-.317-2.476-.704-.948-1.443-8.197-4.074-12.547-4.554l-4.498-.497.302 3.569c.269 3.175.036 3.743-2.106 5.143-1.476.964-5.162 1.93-9.523 2.493-3.914.506-7.613 1.309-8.221 1.783-.608.475-1.222 2.359-1.363 4.188-.241 3.111-.423 3.326-2.801 3.326-2.468 0-2.551-.123-2.799-4.151-.294-4.787 1.208-7.592 4.748-8.87 3.174-1.146 10.75-2.523 13.881-2.523 2.22 0 2.45-.177 1.551-1.196-.581-.657-1.971-1.195-3.09-1.195-1.369 0-2.363-.68-3.042-2.081-.866-1.787-.78-2.237.615-3.195 2.399-1.649 7.056-2.686 12.087-2.691 2.448-.002 4.452-.306 4.452-.674 0-1.425-7.483-2.916-14.414-2.873-10.508.065-15.724 2.837-31.49 16.73-13.179 11.615-20.046 15.693-30.904 18.352-5.623 1.377-17.065 1.333-22.585-.086Zm19.749-5.158c9.905-1.766 17.913-6.835 35.276-22.33 6.678-5.96 6.903-6.278 6.281-8.872-1.497-6.24-5.212-11.146-19.522-25.784-7.778-7.955-12.735-14.395-15.489-20.122-1.457-3.03-1.834-5.392-1.88-11.763-.051-7.235.166-8.384 2.352-12.438 3.267-6.06 8.191-10.616 14.561-13.475 4.604-2.065 6.268-2.384 12.402-2.374 7.205.013 10.353.726 16.412 3.722 4.8 2.373 6.951 4.766 5.821 6.477-1.12 1.695-8.162 3.99-12.503 4.074-2.797.054-3.819-.444-6.811-3.324-1.936-1.863-4.088-4.231-4.782-5.261-1.176-1.744-1.504-1.812-4.769-.985-8.708 2.204-16.259 9.772-18.108 18.148-2.559 11.591 1.923 20.261 19.914 38.517 9.462 9.601 14.134 15.665 15.99 20.75.733 2.01 1.791 3.503 2.426 3.425.619-.077 3.416-1.054 6.213-2.174 2.798-1.119 6.137-2.043 7.419-2.053 2.95-.024 2.929-.911-.116-5.057-2.858-3.892-5.294-6.004-16.209-14.05-10.85-7.998-13.936-10.77-17.019-15.286-5.687-8.333-7.243-18.769-4.163-27.919 2.124-6.307 3.503-8.062 6.068-7.72 2.118.282 2.23 1.14 1.079 8.288-.415 2.574-.09 3.97 1.577 6.776 2.298 3.868 4.445 5.108 13.679 7.9 7.07 2.138 11.527 4.665 14.011 7.945 1.741 2.299 4.838 3.232 6.267 1.889.319-.301-4.417-5.292-10.526-11.092-9.716-9.226-10.995-10.741-10.215-12.11 1.211-2.129 4.365-2.56 12.388-1.695 5.789.625 20.115 3.424 26.495 5.177 4.781 1.313-.106-5.218-5.897-7.882-3.276-1.507-8.181-5.436-16.849-13.498-6.725-6.254-13.251-11.866-14.502-12.47-2.752-1.329-4.932-.7-4.932 1.422 0 1.915-3.812 4.866-6.285 4.866-4.144 0-8.129-5.039-8.129-10.279 0-1.608-.722-2.893-2.266-4.035-2.7-1.997-3.636-1.17-3.656 3.23-.024 5.308-5.081 7.328-10.038 4.009-1.391-.931-2.761-1.694-3.042-1.694-.282 0-.278 1.884.01 4.185.449 3.601.274 4.396-1.252 5.693-1.438 1.222-2.577 1.418-6.026 1.034-2.338-.261-4.252-.32-4.252-.132s.762 1.516 1.693 2.952c.931 1.435 1.694 2.99 1.695 3.456.007 1.857-3.513 4.335-6.176 4.347-4.305.02-5.497 1.143-2.906 2.739 1.188.732 2.367 1.837 2.62 2.456.828 2.029-1.162 5.78-3.34 6.294-2.508.591-2.594 1.353-.369 3.246 2.228 1.895 2.154 5.019-.173 7.348l-1.87 1.871 2.219 1.934c1.22 1.063 2.467 3.114 2.771 4.557 1.886 8.948 7.549 17.316 16.039 23.701 7.915 5.952 10.877 9.13 10.549 11.315-.274 1.815-.554 1.885-7.572 1.885-5.043 0-7.734.348-8.736 1.13-1.33 1.037-1.22 1.221 1.327 2.228 3.688 1.457 5.643 3.205 7.581 6.774 1.785 3.29 2.116 9.363.655 12.041-5.983 10.972-23.802 14.233-38.575 7.058-3.542-1.72-8.948-6.623-12.78-11.591-1.866-2.419-3.427-3.389-7.218-4.486-2.66-.77-5.018-1.23-5.24-1.022-.565.531 2.62 5.686 7.015 11.356 10.225 13.19 27.019 19.677 43.388 16.758Zm-1.982-13.741c3.662-.905 10.406-5.812 10.407-7.573.001-.328-6.199-.601-13.777-.605-7.578-.006-16.449-.324-19.713-.71l-5.935-.701 2.12 2.182c6.806 7.008 17.075 9.836 26.898 7.407Zm8.679-12.935c2.558-1.486-3.686-5.997-8.3-5.997-4.707 0-5.375-3.229-1.686-8.153 1.668-2.227 5.159-4.053 9.493-4.966l2.443-.515-6.596-5.738c-3.627-3.156-6.92-5.857-7.317-6.003-.397-.147-.722 1.683-.722 4.066 0 2.382-.334 5.371-.743 6.642-.408 1.272-1.221 4.248-1.806 6.615s-1.968 6.396-3.073 8.952c-1.105 2.557-2.009 5.068-2.009 5.58 0 .682 2.597.811 9.716.481 5.343-.247 10.113-.681 10.6-.964Zm-23.819-3.884c3.038-5.819 5.92-16.6 6.979-26.114.893-8.016.833-8.895-1-14.7-1.463-4.633-2.651-6.775-4.756-8.576-3.455-2.956-3.489-3.88-.259-7.058l2.548-2.507-2.76-1.719c-2.066-1.287-5.185-1.965-12.408-2.697-5.306-.538-9.829-.808-10.049-.6-.221.207-.345 5.409-.275 11.559.199 17.586-2.905 30.665-10.686 45.02-1.159 2.138-1.793 4.144-1.41 4.457 2.282 1.862 26.282 7.223 30.796 6.879.7-.054 2.176-1.828 3.28-3.944Zm95.31-7.693c2.765-10.621 3.573-19.479 2.375-26.036-1.723-9.424-2.659-12.212-6.803-20.259-2.574-4.999-2.884-5.284-6.674-6.125-6.505-1.444-10.335-1.898-10.32-1.224.008.349 4.596 4.939 10.195 10.2 8.162 7.669 10.135 9.955 9.948 11.527-.294 2.475-2.339 3.037-11.426 3.141l-6.954.079-2.528-3.454c-1.877-2.566-3.852-4.013-7.674-5.626-2.83-1.194-5.526-1.95-5.991-1.68-.465.27-.845 3.317-.845 6.769v6.278l8.704 6.337c10.193 7.422 14.795 11.907 18.432 17.966 2.607 4.343 3.909 5.255 7.17 5.018 1.154-.084 1.887-.977 2.391-2.911ZM26.795 126.82c5.323-11.624 8.813-27.3 8.792-39.483-.015-8.468-.736-10.366-2.808-7.393-3.835 5.503-6.99 12.388-9.179 20.027-1.262 4.406-1.57 22.813-.463 27.723.785 3.484 1.77 3.249 3.658-.874Zm87.169-37.212c-.791-.438-2.531-1.636-3.868-2.661-2.406-1.846-2.43-1.848-2.43-.189 0 .922.337 2.299.749 3.061.412.761 1.253 2.46 1.869 3.775.616 1.315 1.901 3.231 2.854 4.256l1.735 1.865.264-4.655c.211-3.708-.028-4.817-1.173-5.452ZM64.211 70.344l2.9-1.139-3.462-3.531c-4.602-4.695-4.536-6.312.305-7.458 2.072-.49 4.933-.892 6.359-.892 2.856 0 3.156-.563 1.459-2.745-1.074-1.382-1.344-1.389-5.321-.148-2.304.72-6.8 2.743-9.992 4.497-5.92 3.252-16.163 11.049-15.427 11.741.615.578 16.798 1.603 18.657 1.181.892-.202 2.927-.88 4.522-1.506Zm64.651-8.963c0-1.045-6.937-4.051-10.66-4.619-3.437-.525-3.442-.15-.05 3.518 1.365 1.477 2.555 1.827 6.2 1.827 2.48 0 4.51-.327 4.51-.726Zm-12.065-23.452c-.064-5.157.299-7.246 1.747-10.038 1.005-1.939 1.628-3.714 1.383-3.945-1.003-.942-5.597 4.61-7.176 8.673-1.934 4.975-2.107 7.332-.719 9.811 1.213 2.167 2.37 2.904 3.767 2.4.762-.275 1.056-2.304.998-6.901Zm17.799-2.925c.956-2.63 1.602-4.782 1.436-4.782-.744 0-5.531 5.333-5.991 6.676-.453 1.321.764 2.841 2.303 2.877.284.006 1.297-2.14 2.252-4.771Z"/></svg>