<svg xmlns="http://www.w3.org/2000/svg" viewBox="0 0 192 192"><path d="M94.086 140.908c-7.805-7.903-10.144-11.054-9.196-12.391.699-.987 6.844-8.157 13.656-15.934 11.121-12.696 26.446-33.537 26.446-35.964 0-.515-2.369-3.251-5.265-6.078-2.896-2.828-5.265-5.839-5.265-6.691 0-1.842 13.517-12.354 18.902-14.7 9.35-4.072 15.842-.957 30.956 14.852 6.681 6.988 11.933 13.349 11.671 14.135-.262.787-1.613 2.064-3.001 2.84-1.388.776-3.13 2.037-3.87 2.802-.741.765-3.716 3.105-6.612 5.2-12.834 9.283-37.668 34.581-44.073 44.895-1.073 1.728-2.405 3.141-2.962 3.141-.556 0-1.011.694-1.011 1.542 0 .848-.984 2.629-2.187 3.958-1.203 1.329-2.832 3.698-3.62 5.265-.788 1.566-2.034 3.046-2.768 3.288-.734.241-6.045-4.33-11.801-10.16Zm-51.418 1.646c-3.636-2.042-25.735-24.063-26.661-26.567-.215-.579 4.876-5.207 11.313-10.284 12.778-10.079 24.184-20.182 28.464-25.212 1.504-1.767 3.939-4.433 5.412-5.924 4.138-4.188 15.453-19.056 20.346-26.733 2.422-3.801 5.084-6.911 5.915-6.911.831 0 3.441 2.222 5.801 4.937 2.36 2.714 8.861 9.674 14.447 15.466 14.345 14.875 13.916 14.14 11.273 19.322-8.924 17.493-46.308 57.296-58.876 62.686-5.157 2.211-12.71 1.873-17.434-.78Z"/></svg>