<svg
    xmlns="http://www.w3.org/2000/svg"
    viewBox="0 0 192 192"
    id="vector">
    <g id="group">
        <path
            id="path_6"
            d="M 94.086 140.908 C 86.281 133.005 83.942 129.854 84.89 128.517 C 85.589 127.53 91.734 120.36 98.546 112.583 C 109.667 99.887 124.992 79.046 124.992 76.619 C 124.992 76.104 122.623 73.368 119.727 70.541 C 116.831 67.713 114.462 64.702 114.462 63.85 C 114.462 62.008 127.979 51.496 133.364 49.15 C 142.714 45.078 149.206 48.193 164.32 64.002 C 171.001 70.99 176.253 77.351 175.991 78.137 C 175.729 78.924 174.378 80.201 172.99 80.977 C 171.602 81.753 169.86 83.014 169.12 83.779 C 168.379 84.544 165.404 86.884 162.508 88.979 C 149.674 98.262 124.84 123.56 118.435 133.874 C 117.362 135.602 116.03 137.015 115.473 137.015 C 114.917 137.015 114.462 137.709 114.462 138.557 C 114.462 139.405 113.478 141.186 112.275 142.515 C 111.072 143.844 109.443 146.213 108.655 147.78 C 107.867 149.346 106.621 150.826 105.887 151.068 C 105.153 151.309 99.842 146.738 94.086 140.908 Z M 42.668 142.554 C 39.032 140.512 16.933 118.491 16.007 115.987 C 15.792 115.408 20.883 110.78 27.32 105.703 C 40.098 95.624 51.504 85.521 55.784 80.491 C 57.288 78.724 59.723 76.058 61.196 74.567 C 65.334 70.379 76.649 55.511 81.542 47.834 C 83.964 44.033 86.626 40.923 87.457 40.923 C 88.288 40.923 90.898 43.145 93.258 45.86 C 95.618 48.574 102.119 55.534 107.705 61.326 C 122.05 76.201 121.621 75.466 118.978 80.648 C 110.054 98.141 72.67 137.944 60.102 143.334 C 54.945 145.545 47.392 145.207 42.668 142.554 Z"
            fill="#000000"
            stroke-width="12"/>
    </g>
</svg>
