<svg
    xmlns="http://www.w3.org/2000/svg"
    viewBox="0 0 192 192"
    id="vector">
    <path
        id="path"
        d="M 34.392 169.842 C 27.442 167.649 21.262 162.171 18.079 155.381 L 16.28 151.544 L 16.076 101.169 C 15.892 55.721 15.983 50.377 17.008 46.525 C 19.065 38.797 25.206 32.302 33.552 29.027 C 36.189 27.993 39.211 27.842 57.753 27.825 L 78.941 27.805 L 80.623 29.759 C 81.884 31.224 82.195 32.156 81.866 33.478 C 80.842 37.583 81.281 37.502 58.645 37.734 C 38.752 37.939 37.805 38.007 35.117 39.445 C 31.642 41.303 27.636 45.894 26.713 49.073 C 26.256 50.648 26.087 68.312 26.22 100.546 L 26.423 149.622 L 28.469 152.932 C 29.737 154.982 31.775 157.02 33.825 158.287 L 37.135 160.334 L 86.211 160.537 C 120.699 160.679 136.052 160.517 137.864 159.99 C 141.102 159.048 145.433 155.182 147.275 151.59 C 148.387 149.422 148.771 147.07 149.086 140.501 C 149.431 133.302 149.665 132.031 150.798 131.203 C 152.633 129.863 155.469 130.009 157.356 131.54 C 158.889 132.785 158.95 133.179 158.898 141.514 C 158.851 148.85 158.605 150.802 157.304 154.143 C 154.877 160.375 150.988 164.615 144.807 167.772 L 139.51 170.476 L 88.376 170.609 C 47.428 170.715 36.674 170.562 34.392 169.842 Z M 44.942 126.262 C 43.067 124.744 43.019 121.776 44.72 112.688 C 48.955 90.069 60.155 71.962 76.52 61.278 C 85.517 55.405 98.355 51.087 109.783 50.09 L 115.339 49.605 L 115.339 36.872 C 115.339 24.643 115.398 24.084 116.819 22.76 C 119.361 20.391 121.76 20.967 126.039 24.974 C 128.15 26.95 139.918 37.962 152.191 49.445 C 164.463 60.929 174.91 71.056 175.406 71.952 C 175.902 72.847 176.134 74.273 175.921 75.12 C 175.461 76.953 124.259 125.238 121.774 126.183 C 119.905 126.894 117.195 126.17 116.25 124.708 C 115.935 124.22 115.525 118.039 115.339 110.973 L 115.001 98.126 L 111.282 98.309 C 94.517 99.132 73.588 108.43 55.922 122.902 C 49.795 127.921 47.76 128.544 44.942 126.262 Z M 62.978 105.131 C 79.572 94.701 96.121 88.991 113.017 87.866 C 119.657 87.424 123.611 88.228 124.56 90.214 C 124.862 90.847 125.269 95.381 125.465 100.291 L 125.82 109.217 L 144.637 91.572 C 162.659 74.672 163.401 73.879 162.217 72.765 C 161.537 72.126 153.07 64.196 143.4 55.142 L 125.82 38.681 L 125.482 48.011 C 125.052 59.872 125.338 59.565 114.207 60.112 C 86.323 61.482 66.135 76.928 57.559 103.453 C 55.731 109.104 55.687 109.283 56.104 109.283 C 56.251 109.283 59.345 107.414 62.978 105.131 Z"
        fill="#000000"
        stroke-width="12"/>
</svg>
