<svg xmlns="http://www.w3.org/2000/svg" viewBox="0 0 192 192"><path d="M34.392 169.842c-6.95-2.193-13.13-7.671-16.313-14.461l-1.799-3.837-.204-50.375c-.184-45.448-.093-50.792.932-54.644 2.057-7.728 8.198-14.223 16.544-17.498 2.637-1.034 5.659-1.185 24.201-1.202l21.188-.02 1.682 1.954c1.261 1.465 1.572 2.397 1.243 3.719-1.024 4.105-.585 4.024-23.221 4.256-19.893.205-20.84.273-23.528 1.711-3.475 1.858-7.481 6.449-8.404 9.628-.457 1.575-.626 19.239-.493 51.473l.203 49.076 2.046 3.31c1.268 2.05 3.306 4.088 5.356 5.355l3.31 2.047 49.076.203c34.488.142 49.841-.02 51.653-.547 3.238-.942 7.569-4.808 9.411-8.4 1.112-2.168 1.496-4.52 1.811-11.089.345-7.199.579-8.47 1.712-9.298 1.835-1.34 4.671-1.194 6.558.337 1.533 1.245 1.594 1.639 1.542 9.974-.047 7.336-.293 9.288-1.594 12.629-2.427 6.232-6.316 10.472-12.497 13.629l-5.297 2.704-51.134.133c-40.948.106-51.702-.047-53.984-.767Zm10.55-43.58c-1.875-1.518-1.923-4.486-.222-13.574 4.235-22.619 15.435-40.726 31.8-51.41 8.997-5.873 21.835-10.191 33.263-11.188l5.556-.485V36.872c0-12.229.059-12.788 1.48-14.112 2.542-2.369 4.941-1.793 9.22 2.214l26.152 24.471c12.272 11.484 22.719 21.611 23.215 22.507.496.895.728 2.321.515 3.168-.46 1.833-51.662 50.118-54.147 51.063-1.869.711-4.579-.013-5.524-1.475-.315-.488-.725-6.669-.911-13.735l-.338-12.847-3.719.183c-16.765.823-37.694 10.121-55.36 24.593-6.127 5.019-8.162 5.642-10.98 3.36Zm18.036-21.131c16.594-10.43 33.143-16.14 50.039-17.265 6.64-.442 10.594.362 11.543 2.348.302.633.709 5.167.905 10.077l.355 8.926 18.817-17.645c18.022-16.9 18.764-17.693 17.58-18.807-.68-.639-9.147-8.569-18.817-17.623l-17.58-16.461-.338 9.33c-.43 11.861-.144 11.554-11.275 12.101-27.884 1.37-48.072 16.816-56.648 43.341-1.828 5.651-1.872 5.83-1.455 5.83.147 0 3.241-1.869 6.874-4.152Z"/></svg>