<svg width="24" height="24" xmlns="http://www.w3.org/2000/svg"><path style="fill:#000;stroke-width:.97561" d="M12 2C6.48 2 2 6.48 2 12s4.48 10 10 10 10-4.48 10-10S17.52 2 12 2Zm8.626 5.989A9.48 9.48 0 0 1 21.512 12a9.509 9.509 0 0 1-10.408 9.468c-1.44-.228-1.35-.179 0 0-.07-.024-.104-.067-.152-.17-.196-.418-.311-.905-.444-1.878-.137-1.003-.143-1.032-.474-1.965-.549-1.54-.586-1.733-.65-3.403-.036-.936 0-2.137.068-2.37.04-.127.184-.168.488-.136.489.052 1.025.3 2.289 1.05.944.561 1.27.71 1.566.715.173.003.221-.026.612-.377.766-.691 1.133-.942 2.197-1.502.28-.147.529-.306.554-.354.034-.065.018-.262-.065-.732-.265-1.498-.477-3.109-.478-3.634 0-.286.032-.395.173-.417a.69.69 0 0 1 .182.004c.659.078 2.453.83 3.38 1.416a.82.82 0 0 1 .276.274m-1.665 4.6a.805.805 0 0 0-.484.145c-.42.295-.478.939-.128 1.438.35.5.976.665 1.397.37.42-.295.478-.939.127-1.439h-.002c-.224-.32-.57-.51-.91-.514zm-5.149 4.034a.885.885 0 0 0-.145.011.805.805 0 0 0-.339.135c-.422.295-.479.94-.128 1.441.352.499.977.664 1.397.368.42-.295.478-.94.128-1.439-.225-.32-.573-.513-.913-.516z"/></svg>