<svg xmlns="http://www.w3.org/2000/svg" viewBox="0 0 192 192"><path d="M84.109 175.34c-8.501-1.285-15.974-3.648-23.732-7.503-15.967-7.934-28.323-20.286-36.245-36.234-2.665-5.366-4.257-9.537-5.695-14.927-1.916-7.177-2.205-9.495-2.374-19.028-.138-7.821-.083-9.291.501-13.284 2.472-16.917 9.82-31.795 21.992-44.531C49.632 28.243 64.662 20.205 81.249 17c3.786-.731 5.229-.84 12.825-.967 11.703-.195 17.69.619 26.916 3.662 20.572 6.784 37.04 20.992 46.705 40.293C173.56 71.702 176 82.274 176 95.972c0 13.801-2.438 24.249-8.423 36.1-7.75 15.347-19.949 27.629-35.105 35.347-8.206 4.178-15.857 6.608-25.078 7.966-5.641.831-17.648.807-23.285-.045Zm22.33-24.658c17.505-3.5 32.277-14.934 39.876-30.865 1.777-3.724 3.333-8.406 4.283-12.888.754-3.554.834-4.573.846-10.801.013-7.383-.292-9.879-1.882-15.389-4.735-16.409-16.466-29.596-32.217-36.216-3.98-1.672-10.27-3.35-14.563-3.884-4.472-.557-13.247-.246-17.57.621-22.263 4.469-39.443 21.707-43.988 44.137-.622 3.072-.717 4.477-.717 10.575 0 6.113.094 7.499.723 10.604 4.558 22.51 22.062 39.92 44.299 44.063 4.876.908 4.99.916 11.55.817 4.579-.069 6.722-.247 9.36-.774Zm-16.015-23.038c-.566-.279-1.375-1.097-1.797-1.818-.635-1.083-.768-1.726-.768-3.705v-2.395h16.646l-.142 2.457c-.163 2.809-.792 4.178-2.424 5.278-.971.654-1.379.704-5.765.697-3.713-.006-4.94-.115-5.75-.514Zm-17.255-8.856c-1.241-1.24-.855-2.335 1.773-5.036 2.047-2.104 2.551-2.465 3.438-2.465 1.336 0 2.29.935 2.29 2.245 0 .824-.418 1.412-2.443 3.438-2.026 2.026-2.614 2.444-3.439 2.444-.577 0-1.256-.262-1.619-.626Zm40.575-1.818c-1.948-1.949-2.443-2.631-2.443-3.369 0-1.475.779-2.314 2.151-2.314 1.06 0 1.419.247 3.577 2.465 2.673 2.747 3.005 3.733 1.675 4.982-1.34 1.259-2.266.93-4.96-1.764Zm-26.495-1.854c-.463-1.687-1.142-2.582-3.937-5.188-1.367-1.275-2.953-3.096-3.523-4.047-6.919-11.53-.319-26.182 12.865-28.558 5.957-1.073 11.836.694 16.248 4.885 6.272 5.958 7.813 14.444 4.031 22.203-.911 1.869-1.791 2.993-4.343 5.547-2.507 2.507-3.322 3.542-3.757 4.766l-.555 1.564H87.571Zm19.993-18.68c.635-.767.217-4.111-.755-6.029-1.589-3.136-4.418-5.229-8.095-5.989-2.228-.46-3.344.048-3.344 1.521 0 1.126.427 1.467 2.188 1.746 3.882.614 6.876 3.576 6.876 6.801 0 1.424.764 2.423 1.855 2.423.485 0 1.058-.213 1.275-.473Zm-42.825 1.099c-.798-.799-.827-2.534-.053-3.234.463-.419 1.263-.517 4.207-.517 3.338 0 3.688.056 4.273.684.813.872.809 1.826-.01 2.868-.633.804-.734.824-4.22.824-3.155 0-3.645-.073-4.197-.625Zm54.71-.059c-.811-.871-.817-2.262-.012-3.067.552-.553 1.042-.625 4.219-.625 3.178 0 3.667.072 4.22.625.347.347.625 1.042.625 1.563 0 .521-.278 1.215-.625 1.563-.553.552-1.042.625-4.208.625-3.282 0-3.635-.058-4.219-.684Zm-44.14-19.263c-2.025-2.026-2.443-2.614-2.443-3.438 0-.578.262-1.257.625-1.62.363-.363 1.042-.625 1.619-.625.825 0 1.413.418 3.439 2.444 2.025 2.025 2.443 2.613 2.443 3.438 0 .578-.262 1.256-.625 1.619-.363.364-1.042.625-1.62.625-.824 0-1.412-.417-3.438-2.443Zm36.939 1.818c-.371-.37-.625-1.041-.625-1.648 0-.861.385-1.406 2.429-3.438 2.023-2.011 2.598-2.415 3.438-2.415 1.304 0 2.259.949 2.259 2.245 0 .824-.418 1.412-2.443 3.438-2.026 2.026-2.614 2.443-3.439 2.443-.577 0-1.256-.261-1.619-.625Zm-17.449-7.287c-.614-.653-.679-1.06-.679-4.219 0-3.999.361-4.747 2.295-4.747 1.804 0 2.08.637 2.08 4.792 0 3.231-.071 3.719-.625 4.273-.843.843-2.228.798-3.071-.099Z"/></svg>