<svg xmlns="http://www.w3.org/2000/svg" viewBox="0 0 192 192"><path fill="none" stroke="#000" stroke-linecap="round" stroke-linejoin="round" stroke-width="8" d="M120.035 65.309a13.911 13.911 0 0 1 10.353 9.244m-9.244-21.446c10.354 2.588 17.009 9.614 21.447 19.598m-18.858-32.91c12.572 3.328 24.404 9.984 31.8 30.691M52.737 137.784a13.9 13.9 0 0 1 10.354 9.244m-9.244-21.447c10.353 2.589 17.009 9.614 21.446 19.598M56.435 112.27c12.572 3.328 24.405 9.983 31.8 30.69"/><path fill="none" stroke="#000" stroke-linecap="round" stroke-linejoin="round" stroke-width="8" d="M96 16.5a79.529 79.529 0 0 0-56.215 23.285A79.529 79.529 0 0 0 16.5 96a79.529 79.529 0 0 0 23.285 56.215A79.529 79.529 0 0 0 96 175.5a79.529 79.529 0 0 0 56.215-23.285A79.529 79.529 0 0 0 175.5 96a79.529 79.529 0 0 0-23.285-56.215A79.529 79.529 0 0 0 96 16.5Zm-4.437 58.053h21.077M91.563 96h13.681M91.563 74.553v42.894"/><path fill="none" stroke="#000" stroke-linecap="round" stroke-linejoin="round" stroke-width="8" d="M48.3 96V53.107L76.402 96V53.107m67.298 71.365a14.132 14.132 0 0 1-6.933 12.455 14.13 14.13 0 0 1-7.118 1.966 14.057 14.057 0 0 1-9.936-4.115 14.059 14.059 0 0 1-4.115-9.936v-14.421c0-3.725 1.481-7.302 4.115-9.936a14.055 14.055 0 0 1 23.987 9.936"/></svg>