<svg
    xmlns="http://www.w3.org/2000/svg"
    viewBox="0 0 192 192"
    id="vector">
    <path
        id="path"
        d="M 120.035 65.309 C 122.419 65.808 124.631 66.925 126.448 68.547 C 128.265 70.169 129.624 72.241 130.388 74.553 M 121.144 53.107 C 131.498 55.695 138.153 62.721 142.591 72.705 M 123.733 39.795 C 136.305 43.123 148.137 49.779 155.533 70.486 M 52.737 137.784 C 55.121 138.282 57.333 139.399 59.15 141.021 C 60.967 142.644 62.326 144.715 63.091 147.028 M 53.847 125.581 C 64.2 128.17 70.856 135.195 75.293 145.179 M 56.435 112.27 C 69.007 115.598 80.84 122.253 88.235 142.96"
        fill="none"
        stroke="#000000"
        stroke-width="8"
        stroke-linecap="round"
        stroke-linejoin="round"/>
    <path
        id="path_1"
        d="M 96 16.5 C 74.923 16.5 54.688 24.882 39.785 39.785 C 24.882 54.688 16.5 74.923 16.5 96 C 16.5 117.077 24.882 137.312 39.785 152.215 C 54.688 167.118 74.923 175.5 96 175.5 C 117.077 175.5 137.312 167.118 152.215 152.215 C 167.118 137.312 175.5 117.077 175.5 96 C 175.5 74.923 167.118 54.688 152.215 39.785 C 137.312 24.882 117.077 16.5 96 16.5 Z"
        fill="none"
        stroke="#000000"
        stroke-width="8"
        stroke-linecap="round"
        stroke-linejoin="round"/>
    <path
        id="path_2"
        d="M 91.563 74.553 L 112.64 74.553 M 91.563 96 L 105.244 96 M 91.563 74.553 L 91.563 117.447"
        fill="none"
        stroke="#000000"
        stroke-width="8"
        stroke-linecap="round"
        stroke-linejoin="round"/>
    <path
        id="path_3"
        d="M 48.3 96 L 48.3 53.107 L 76.402 96 L 76.402 53.107"
        fill="none"
        stroke="#000000"
        stroke-width="8"
        stroke-linecap="round"
        stroke-linejoin="round"/>
    <path
        id="path_4"
        d="M 143.7 124.472 C 143.752 126.976 143.138 129.45 141.92 131.638 C 140.701 133.827 138.923 135.652 136.767 136.927 C 134.61 138.202 132.154 138.88 129.649 138.893 C 125.924 138.893 122.347 137.412 119.713 134.778 C 117.079 132.143 115.598 128.567 115.598 124.842 L 115.598 110.421 C 115.598 106.696 117.079 103.119 119.713 100.485 C 122.347 97.851 125.924 96.37 129.649 96.37 C 133.374 96.37 136.95 97.851 139.584 100.485 C 142.219 103.119 143.7 106.696 143.7 110.421"
        fill="none"
        stroke="#000000"
        stroke-width="8"
        stroke-linecap="round"
        stroke-linejoin="round"/>
</svg>
