<svg xmlns="http://www.w3.org/2000/svg" viewBox="0 0 192 192"><path d="M39.932 52.349a3.17 3.17 0 0 0-2.219.901 3.046 3.046 0 0 0-.92 2.176c0 .815.331 1.599.92 2.175a3.17 3.17 0 0 0 2.219.902c.832 0 1.63-.325 2.219-.902.588-.576.919-1.36.919-2.175a3.05 3.05 0 0 0-.919-2.176 3.171 3.171 0 0 0-2.219-.901Zm9.498-18.626a3.17 3.17 0 0 0-2.219.901 3.045 3.045 0 0 0-.919 2.176c0 .816.33 1.599.919 2.176a3.17 3.17 0 0 0 2.219.901c.832 0 1.63-.324 2.219-.901a3.05 3.05 0 0 0 .919-2.176 3.05 3.05 0 0 0-.919-2.176 3.171 3.171 0 0 0-2.219-.901Zm18.619 0c-.831 0-1.63.324-2.219.901a3.05 3.05 0 0 0-.919 2.176c0 .816.331 1.599.919 2.176a3.173 3.173 0 0 0 2.219.901 3.17 3.17 0 0 0 2.219-.901c.589-.577.92-1.36.92-2.176 0-.816-.331-1.599-.92-2.176a3.17 3.17 0 0 0-2.219-.901Zm18.62 0c-.832 0-1.63.324-2.219.901a3.05 3.05 0 0 0-.919 2.176c0 .816.331 1.599.919 2.176a3.171 3.171 0 0 0 2.219.901 3.17 3.17 0 0 0 2.219-.901c.589-.577.919-1.36.919-2.176 0-.816-.33-1.599-.919-2.176a3.17 3.17 0 0 0-2.219-.901ZM77.297 16a3.18 3.18 0 0 0-1.845.588c-.536.382-.935.92-1.14 1.538a3.018 3.018 0 0 0 0 1.902 3.082 3.082 0 0 0 1.14 1.538 3.18 3.18 0 0 0 1.845.588c.832 0 1.63-.325 2.219-.901a3.05 3.05 0 0 0 .919-2.176 3.05 3.05 0 0 0-.919-2.176A3.171 3.171 0 0 0 77.297 16ZM96 16c-.663 0-1.308.206-1.845.588-.536.382-.935.92-1.14 1.538a3.032 3.032 0 0 0 0 1.902 3.082 3.082 0 0 0 1.14 1.538 3.183 3.183 0 0 0 4.064-.313 3.05 3.05 0 0 0 .919-2.176 3.05 3.05 0 0 0-.919-2.176A3.17 3.17 0 0 0 96 16Zm18.703 0a3.18 3.18 0 0 0-1.844.588c-.536.382-.935.92-1.14 1.538a3.018 3.018 0 0 0 0 1.902 3.082 3.082 0 0 0 1.14 1.538 3.18 3.18 0 0 0 1.844.588c.832 0 1.631-.325 2.219-.901.589-.577.92-1.36.92-2.176 0-.816-.331-1.599-.92-2.176a3.17 3.17 0 0 0-2.219-.901Zm-9.372 17.723a3.17 3.17 0 0 0-2.219.901 3.045 3.045 0 0 0-.919 2.176c0 .816.33 1.599.919 2.176a3.17 3.17 0 0 0 2.219.901 3.17 3.17 0 0 0 2.219-.901 3.05 3.05 0 0 0 .919-2.176 3.05 3.05 0 0 0-.919-2.176 3.17 3.17 0 0 0-2.219-.901Zm18.62 0a3.17 3.17 0 0 0-2.219.901 3.046 3.046 0 0 0-.92 2.176c0 .816.331 1.599.92 2.176a3.17 3.17 0 0 0 2.219.901c.832 0 1.63-.324 2.219-.901a3.05 3.05 0 0 0 .919-2.176 3.05 3.05 0 0 0-.919-2.176 3.171 3.171 0 0 0-2.219-.901Zm18.619 0c-.832 0-1.63.324-2.219.901a3.05 3.05 0 0 0-.919 2.176c0 .816.331 1.599.919 2.176a3.171 3.171 0 0 0 2.219.901 3.17 3.17 0 0 0 2.219-.901c.589-.577.919-1.36.919-2.176 0-.816-.33-1.599-.919-2.176a3.17 3.17 0 0 0-2.219-.901ZM58.635 52.349a3.17 3.17 0 0 0-2.219.901 3.05 3.05 0 0 0-.919 2.176c0 .815.331 1.599.919 2.175a3.17 3.17 0 0 0 2.219.902 3.17 3.17 0 0 0 2.219-.902c.588-.576.919-1.36.919-2.175a3.05 3.05 0 0 0-.919-2.176 3.17 3.17 0 0 0-2.219-.901Zm18.662 0a3.17 3.17 0 0 0-2.219.901 3.046 3.046 0 0 0-.92 2.176c0 .815.331 1.599.92 2.175a3.17 3.17 0 0 0 2.219.902c.832 0 1.63-.325 2.219-.902.588-.576.919-1.36.919-2.175a3.05 3.05 0 0 0-.919-2.176 3.171 3.171 0 0 0-2.219-.901Zm18.703 0a3.17 3.17 0 0 0-2.219.901 3.05 3.05 0 0 0-.919 2.176c0 .815.331 1.599.919 2.175a3.17 3.17 0 0 0 2.219.902 3.17 3.17 0 0 0 2.219-.902c.588-.576.919-1.36.919-2.175a3.05 3.05 0 0 0-.919-2.176A3.17 3.17 0 0 0 96 52.349Zm18.703 0c-.832 0-1.63.324-2.219.901a3.05 3.05 0 0 0-.919 2.176c0 .815.331 1.599.919 2.175a3.172 3.172 0 0 0 2.219.902 3.17 3.17 0 0 0 2.219-.902c.589-.576.92-1.36.92-2.175 0-.816-.331-1.599-.92-2.176a3.17 3.17 0 0 0-2.219-.901Zm18.662 0a3.17 3.17 0 0 0-2.219.901 3.05 3.05 0 0 0-.919 2.176c0 .815.331 1.599.919 2.175a3.17 3.17 0 0 0 2.219.902 3.17 3.17 0 0 0 2.219-.902c.588-.576.919-1.36.919-2.175a3.05 3.05 0 0 0-.919-2.176 3.17 3.17 0 0 0-2.219-.901Zm18.703 0c-.832 0-1.63.324-2.219.901a3.05 3.05 0 0 0-.919 2.176c0 .815.331 1.599.919 2.175a3.172 3.172 0 0 0 2.219.902 3.17 3.17 0 0 0 2.219-.902c.589-.576.92-1.36.92-2.175 0-.816-.331-1.599-.92-2.176a3.17 3.17 0 0 0-2.219-.901Zm0 81.148c-.832 0-1.63.325-2.219.902a3.047 3.047 0 0 0-.919 2.175c0 .816.331 1.599.919 2.176a3.171 3.171 0 0 0 2.219.901 3.17 3.17 0 0 0 2.219-.901c.589-.577.92-1.36.92-2.176 0-.815-.331-1.599-.92-2.175a3.17 3.17 0 0 0-2.219-.902Zm-9.498 18.626c-.832 0-1.63.324-2.219.901a3.05 3.05 0 0 0-.919 2.176c0 .816.331 1.599.919 2.176a3.171 3.171 0 0 0 2.219.901 3.17 3.17 0 0 0 2.219-.901c.589-.577.919-1.36.919-2.176 0-.816-.33-1.599-.919-2.176a3.17 3.17 0 0 0-2.219-.901Zm-18.619 0a3.17 3.17 0 0 0-2.219.901 3.046 3.046 0 0 0-.92 2.176c0 .816.331 1.599.92 2.176a3.17 3.17 0 0 0 2.219.901c.832 0 1.63-.324 2.219-.901a3.05 3.05 0 0 0 .919-2.176 3.05 3.05 0 0 0-.919-2.176 3.171 3.171 0 0 0-2.219-.901Zm-18.62 0a3.17 3.17 0 0 0-2.219.901 3.045 3.045 0 0 0-.919 2.176c0 .816.33 1.599.919 2.176a3.17 3.17 0 0 0 2.219.901 3.17 3.17 0 0 0 2.219-.901 3.05 3.05 0 0 0 .919-2.176 3.05 3.05 0 0 0-.919-2.176 3.17 3.17 0 0 0-2.219-.901Zm9.372 17.723c-.832 0-1.63.325-2.219.901a3.05 3.05 0 0 0-.919 2.176c0 .816.331 1.599.919 2.176a3.171 3.171 0 0 0 2.219.901 3.17 3.17 0 0 0 2.219-.901c.589-.577.92-1.36.92-2.176 0-.816-.331-1.599-.92-2.176a3.174 3.174 0 0 0-2.219-.901Zm-18.703 0c-.832 0-1.631.325-2.219.901a3.05 3.05 0 0 0-.919 2.176c0 .816.331 1.599.919 2.176A3.17 3.17 0 0 0 96 176a3.17 3.17 0 0 0 2.219-.901 3.05 3.05 0 0 0 .919-2.176 3.05 3.05 0 0 0-.919-2.176 3.174 3.174 0 0 0-2.219-.901Zm-18.703 0c-.832 0-1.631.325-2.219.901a3.046 3.046 0 0 0-.92 2.176c0 .816.331 1.599.92 2.176a3.17 3.17 0 0 0 2.219.901c.832 0 1.63-.324 2.219-.901a3.05 3.05 0 0 0 .919-2.176 3.05 3.05 0 0 0-.919-2.176 3.176 3.176 0 0 0-2.219-.901Zm9.372-17.723c-.832 0-1.63.324-2.219.901a3.05 3.05 0 0 0-.919 2.176c0 .816.331 1.599.919 2.176a3.171 3.171 0 0 0 2.219.901 3.17 3.17 0 0 0 2.219-.901c.589-.577.919-1.36.919-2.176 0-.816-.33-1.599-.919-2.176a3.17 3.17 0 0 0-2.219-.901Zm-18.62 0c-.831 0-1.63.324-2.219.901a3.05 3.05 0 0 0-.919 2.176c0 .816.331 1.599.919 2.176a3.173 3.173 0 0 0 2.219.901 3.17 3.17 0 0 0 2.219-.901c.589-.577.92-1.36.92-2.176 0-.816-.331-1.599-.92-2.176a3.17 3.17 0 0 0-2.219-.901Zm-18.619 0a3.17 3.17 0 0 0-2.219.901 3.045 3.045 0 0 0-.919 2.176c0 .816.33 1.599.919 2.176a3.17 3.17 0 0 0 2.219.901c.832 0 1.63-.324 2.219-.901a3.05 3.05 0 0 0 .919-2.176 3.05 3.05 0 0 0-.919-2.176 3.171 3.171 0 0 0-2.219-.901Zm83.935-18.626a3.17 3.17 0 0 0-2.219.902 3.047 3.047 0 0 0-.919 2.175c0 .816.331 1.599.919 2.176a3.17 3.17 0 0 0 2.219.901 3.17 3.17 0 0 0 2.219-.901 3.05 3.05 0 0 0 .919-2.176c0-.815-.331-1.599-.919-2.175a3.17 3.17 0 0 0-2.219-.902Zm-18.662 0c-.832 0-1.63.325-2.219.902a3.047 3.047 0 0 0-.919 2.175c0 .816.331 1.599.919 2.176a3.171 3.171 0 0 0 2.219.901 3.17 3.17 0 0 0 2.219-.901c.589-.577.92-1.36.92-2.176 0-.815-.331-1.599-.92-2.175a3.17 3.17 0 0 0-2.219-.902Zm-18.703 0a3.17 3.17 0 0 0-2.219.902 3.047 3.047 0 0 0-.919 2.175c0 .816.331 1.599.919 2.176a3.17 3.17 0 0 0 2.219.901 3.17 3.17 0 0 0 2.219-.901 3.05 3.05 0 0 0 .919-2.176c0-.815-.331-1.599-.919-2.175a3.17 3.17 0 0 0-2.219-.902Zm-18.703 0a3.17 3.17 0 0 0-2.219.902 3.044 3.044 0 0 0-.92 2.175c0 .816.331 1.599.92 2.176a3.17 3.17 0 0 0 2.219.901c.832 0 1.63-.324 2.219-.901a3.05 3.05 0 0 0 .919-2.176c0-.815-.331-1.599-.919-2.175a3.172 3.172 0 0 0-2.219-.902Zm-18.662 0a3.17 3.17 0 0 0-2.219.902 3.047 3.047 0 0 0-.919 2.175c0 .816.331 1.599.919 2.176a3.17 3.17 0 0 0 2.219.901 3.17 3.17 0 0 0 2.219-.901 3.05 3.05 0 0 0 .919-2.176c0-.815-.331-1.599-.919-2.175a3.17 3.17 0 0 0-2.219-.902Zm-18.703 0a3.17 3.17 0 0 0-2.219.902 3.044 3.044 0 0 0-.92 2.175c0 .816.331 1.599.92 2.176a3.17 3.17 0 0 0 2.219.901c.832 0 1.63-.324 2.219-.901a3.05 3.05 0 0 0 .919-2.176c0-.815-.331-1.599-.919-2.175a3.172 3.172 0 0 0-2.219-.902Z"/><path fill="none" stroke="#000" stroke-linecap="round" stroke-linejoin="round" stroke-width="12" d="M16.5 98.256c7.532-6.359 14.645-10.461 21.8-10.461 13.18 0 14.812 14.318 27.155 14.318 9.247 0 14.519-22.441 23.097-22.441 9.917 0 11.13 32.82 21.716 32.82 7.574 0 14.185-22.81 23.641-22.81 8.034 0 11.548 11.733 24.896 11.733A34.955 34.955 0 0 0 175.5 96"/></svg>