<svg
    xmlns="http://www.w3.org/2000/svg"
    viewBox="0 0 192 192"
    id="vector">
    <g id="group">
        <path
            id="path_6"
            d="M 57.565 175.761 C 54.092 174.844 52.374 173.342 35.481 156.458 C 16.12 137.107 16.052 137.02 16.027 131.685 C 15.999 125.646 14.137 127.858 46.917 95.002 C 63.057 78.824 76.768 65.321 77.385 64.994 C 78.002 64.667 79.274 64.4 80.21 64.4 C 84.207 64.4 86.976 67.779 86.254 71.775 C 86.005 73.15 82.627 76.677 57.02 102.301 L 28.068 131.273 L 44.373 147.571 L 60.678 163.869 L 68.957 155.602 L 77.236 147.334 L 79.529 147.144 C 83.137 146.845 85.413 148.61 86.214 152.328 C 86.762 154.872 85.42 156.691 76.415 165.617 C 70.002 171.973 67.454 174.225 65.9 174.912 C 63.699 175.885 59.611 176.302 57.565 175.761 Z M 127.787 175.573 C 126.873 175.272 125.658 174.785 125.086 174.492 C 123.696 173.778 65.776 116.004 65.016 114.573 C 64.105 112.857 64.262 110.028 65.356 108.426 C 67.111 105.855 70.103 104.921 72.848 106.086 C 73.638 106.421 85.892 118.368 102.764 135.251 L 131.342 163.849 L 147.638 147.561 L 163.933 131.273 L 155.981 123.276 C 151.607 118.878 147.821 114.871 147.569 114.372 C 146.833 112.92 147.022 110.027 147.953 108.502 C 149.11 106.603 151.98 105.358 154.304 105.744 C 155.877 106.005 156.886 106.868 164.892 114.807 C 175.125 124.954 175.987 126.218 175.987 131.062 C 175.987 136.702 176.482 136.065 156.533 156.07 C 136.982 175.676 136.988 175.671 131.943 175.972 C 130.567 176.054 128.704 175.875 127.787 175.573 Z M 132.545 145.267 C 128.775 144.198 124.99 140.879 123.298 137.157 C 122.049 134.41 122.053 128.952 123.306 126.195 C 124.549 123.461 127.67 120.276 130.436 118.918 C 132.432 117.939 133.29 117.771 136.305 117.771 C 139.321 117.771 140.179 117.939 142.174 118.918 C 144.941 120.276 148.062 123.461 149.305 126.195 C 150.562 128.961 150.562 134.409 149.305 137.175 C 148.087 139.855 144.956 143.087 142.339 144.367 C 139.701 145.657 135.335 146.058 132.545 145.267 Z M 108.592 126.719 C 106.272 125.305 105.244 122.935 105.747 120.157 C 105.995 118.781 109.373 115.254 134.98 89.63 L 163.933 60.658 L 147.628 44.36 L 131.323 28.062 L 123.322 36.011 C 118.922 40.383 114.913 44.167 114.414 44.419 C 112.962 45.155 110.068 44.966 108.541 44.036 C 106.642 42.878 105.396 40.01 105.782 37.686 C 106.043 36.115 106.907 35.106 114.849 27.104 C 125.108 16.767 126.242 16.005 131.319 16.026 C 136.865 16.049 136.452 15.724 156.533 35.862 C 176.376 55.759 175.987 55.264 175.987 60.662 C 175.987 66.226 177.577 64.361 145.084 96.929 C 128.943 113.107 115.232 126.611 114.615 126.938 C 113.018 127.783 110.168 127.68 108.592 126.719 Z M 36.997 86.107 C 36.343 85.986 32.676 82.657 27.109 77.132 C 16.68 66.782 16.005 65.767 16.025 60.454 C 16.046 54.876 15.789 55.207 35.297 35.677 C 54.86 16.091 54.909 16.052 60.266 16.027 C 66.307 15.999 64.095 14.138 96.964 46.903 C 113.149 63.037 126.658 76.742 126.985 77.359 C 127.312 77.976 127.58 79.246 127.58 80.183 C 127.58 84.178 124.199 86.945 120.201 86.223 C 118.826 85.975 115.297 82.598 89.662 57.002 L 60.678 28.062 L 44.373 44.36 L 28.068 60.659 L 36.02 68.655 C 40.393 73.054 44.179 77.061 44.432 77.56 C 44.684 78.059 44.891 79.251 44.891 80.21 C 44.891 84.231 41.309 86.907 36.997 86.107 Z"
            fill="#000000"
            stroke-width="12"/>
    </g>
</svg>
