<svg xmlns="http://www.w3.org/2000/svg" viewBox="0 0 192 192"><path fill="none" stroke="#000" stroke-linecap="round" stroke-linejoin="round" stroke-width="12" d="m165.425 116.764-90.19-90.189c-13.437-13.437-35.223-13.437-48.66 0-13.437 13.437-13.437 35.223 0 48.66l90.189 90.19c13.438 13.437 35.224 13.437 48.661 0 13.437-13.437 13.437-35.223 0-48.661Z"/><path fill="none" stroke="#000" stroke-linecap="round" stroke-linejoin="round" stroke-width="12" d="m144.661 96 20.764-20.765c13.437-13.437 13.437-35.223 0-48.66-13.437-13.437-35.223-13.437-48.661 0l-20.83 20.831M47.339 96l-20.764 20.764c-13.437 13.438-13.437 35.224 0 48.661 13.437 13.437 35.223 13.437 48.66 0l20.699-20.698m44.524-20.819a17.189 17.189 0 1 0 0 34.379c4.557 0 8.932-1.812 12.155-5.034a17.2 17.2 0 0 0 5.035-12.155c0-4.558-1.813-8.933-5.035-12.155a17.195 17.195 0 0 0-12.155-5.035Z"/></svg>