<svg
    xmlns="http://www.w3.org/2000/svg"
    viewBox="0 0 192 192"
    id="vector">
    <path
        id="path"
        d="M 165.425 116.764 L 75.235 26.575 C 61.798 13.138 40.012 13.138 26.575 26.575 C 13.138 40.012 13.138 61.798 26.575 75.235 L 116.764 165.425 C 130.202 178.862 151.988 178.862 165.425 165.425 C 178.862 151.988 178.862 130.202 165.425 116.764 Z"
        fill="none"
        stroke="#000000"
        stroke-width="12"
        stroke-linecap="round"
        stroke-linejoin="round"/>
    <path
        id="path_1"
        d="M 144.661 96 L 165.425 75.235 C 178.862 61.798 178.862 40.012 165.425 26.575 C 151.988 13.138 130.202 13.138 116.764 26.575 L 95.934 47.406 M 47.339 96 L 26.575 116.764 C 13.138 130.202 13.138 151.988 26.575 165.425 C 40.012 178.862 61.798 178.862 75.235 165.425 L 95.934 144.727 M 140.458 123.908 C 136.821 123.896 133.272 125.039 130.326 127.171 C 127.379 129.304 125.184 132.317 124.058 135.775 C 122.932 139.234 122.932 142.962 124.058 146.42 C 125.184 149.878 127.379 152.892 130.326 155.024 C 133.272 157.156 136.821 158.299 140.458 158.287 C 145.015 158.287 149.39 156.475 152.613 153.253 C 155.835 150.03 157.648 145.655 157.648 141.098 C 157.648 136.54 155.835 132.165 152.613 128.943 C 149.39 125.72 145.015 123.908 140.458 123.908 Z"
        fill="none"
        stroke="#000000"
        stroke-width="12"
        stroke-linecap="round"
        stroke-linejoin="round"/>
</svg>
