<svg xmlns="http://www.w3.org/2000/svg" viewBox="0 0 192 192"><path d="M57.565 175.761c-3.473-.917-5.191-2.419-22.084-19.303-19.361-19.351-19.429-19.438-19.454-24.773-.028-6.039-1.89-3.827 30.89-36.683 16.14-16.178 29.851-29.681 30.468-30.008.617-.327 1.889-.594 2.825-.594 3.997 0 6.766 3.379 6.044 7.375-.249 1.375-3.627 4.902-29.234 30.526l-28.952 28.972 16.305 16.298 16.305 16.298 8.279-8.267 8.279-8.268 2.293-.19c3.608-.299 5.884 1.466 6.685 5.184.548 2.544-.794 4.363-9.799 13.289-6.413 6.356-8.961 8.608-10.515 9.295-2.201.973-6.289 1.39-8.335.849Zm70.222-.188c-.914-.301-2.129-.788-2.701-1.081-1.39-.714-59.31-58.488-60.07-59.919-.911-1.716-.754-4.545.34-6.147 1.755-2.571 4.747-3.505 7.492-2.34.79.335 13.044 12.282 29.916 29.165l28.578 28.598 16.296-16.288 16.295-16.288-7.952-7.997c-4.374-4.398-8.16-8.405-8.412-8.904-.736-1.452-.547-4.345.384-5.87 1.157-1.899 4.027-3.144 6.351-2.758 1.573.261 2.582 1.124 10.588 9.063 10.233 10.147 11.095 11.411 11.095 16.255 0 5.64.495 5.003-19.454 25.008-19.551 19.606-19.545 19.601-24.59 19.902-1.376.082-3.239-.097-4.156-.399Zm4.758-30.306c-3.77-1.069-7.555-4.388-9.247-8.11-1.249-2.747-1.245-8.205.008-10.962 1.243-2.734 4.364-5.919 7.13-7.277 1.996-.979 2.854-1.147 5.869-1.147 3.016 0 3.874.168 5.869 1.147 2.767 1.358 5.888 4.543 7.131 7.277 1.257 2.766 1.257 8.214 0 10.98-1.218 2.68-4.349 5.912-6.966 7.192-2.638 1.29-7.004 1.691-9.794.9Zm-23.953-18.548c-2.32-1.414-3.348-3.784-2.845-6.562.248-1.376 3.626-4.903 29.233-30.527l28.953-28.972-16.305-16.298-16.305-16.298-8.001 7.949c-4.4 4.372-8.409 8.156-8.908 8.408-1.452.736-4.346.547-5.873-.383-1.899-1.158-3.145-4.026-2.759-6.35.261-1.571 1.125-2.58 9.067-10.582 10.259-10.337 11.393-11.099 16.47-11.078 5.546.023 5.133-.302 25.214 19.836 19.843 19.897 19.454 19.402 19.454 24.8 0 5.564 1.59 3.699-30.903 36.267-16.141 16.178-29.852 29.682-30.469 30.009-1.597.845-4.447.742-6.023-.219ZM36.997 86.107c-.654-.121-4.321-3.45-9.888-8.975-10.429-10.35-11.104-11.365-11.084-16.678.021-5.578-.236-5.247 19.272-24.777 19.563-19.586 19.612-19.625 24.969-19.65 6.041-.028 3.829-1.889 36.698 30.876 16.185 16.134 29.694 29.839 30.021 30.456.327.617.595 1.887.595 2.824 0 3.995-3.381 6.762-7.379 6.04-1.375-.248-4.904-3.625-30.539-29.221l-28.984-28.94L44.373 44.36 28.068 60.659l7.952 7.996c4.373 4.399 8.159 8.406 8.412 8.905.252.499.459 1.691.459 2.65 0 4.021-3.582 6.697-7.894 5.897Z"/></svg>