<svg xmlns="http://www.w3.org/2000/svg" viewBox="0 0 192 192"><path fill="none" stroke="#000" stroke-linecap="round" stroke-linejoin="round" stroke-width="12" d="m160.652 115.338-83.99-83.99c-12.514-12.515-32.8-12.515-45.314 0-12.515 12.514-12.515 32.8 0 45.314l83.99 83.99c12.514 12.515 32.8 12.515 45.314 0 12.515-12.514 12.515-32.8 0-45.314Z"/><path fill="none" stroke="#000" stroke-width="12" d="m141.315 96 19.337-19.338c12.515-12.514 12.515-32.8 0-45.314-12.514-12.515-32.8-12.515-45.314 0L95.94 50.745M50.685 96l-19.337 19.338c-12.515 12.514-12.515 32.8 0 45.314 12.514 12.515 32.8 12.515 45.314 0l19.278-19.273"/><path fill="none" stroke="#000" stroke-linecap="round" stroke-linejoin="round" stroke-width="12" d="M137.401 121.989a16.017 16.017 0 0 0-16.008 16.008 16.01 16.01 0 0 0 27.329 11.318 16.02 16.02 0 0 0 4.687-11.318 16.02 16.02 0 0 0-4.687-11.318 16.015 16.015 0 0 0-11.321-4.69Z"/></svg>