<svg xmlns="http://www.w3.org/2000/svg" viewBox="0 0 192 192"><path d="m172.828 75.465-30.296-22.864-16.43 4.387V39.946L95.922 16.5 65.937 39.791v17.041l-16.624-4.231-30.296 22.864 8.778 20.613-8.778 20.612 30.296 22.864 16.469-4.386v17.041L95.767 175.5l30.024-23.291v-17.041l16.741 4.386 30.451-22.864-8.894-20.612ZM112.08 96.078a18.79 18.79 0 0 1 0 2.096l4.545 3.571a1.051 1.051 0 0 1 .233 1.359l-4.312 7.453a1.006 1.006 0 0 1-1.281.466l-5.36-2.135a17.131 17.131 0 0 1-3.652 2.096l-.815 5.706a1.05 1.05 0 0 1-1.049.893h-8.778a1.05 1.05 0 0 1-1.049-.893l-.815-5.706a17.842 17.842 0 0 1-3.652-2.096l-5.36 2.135a1.084 1.084 0 0 1-1.32-.466l-4.312-7.453a1.132 1.132 0 0 1-.098-.726c.05-.246.18-.469.37-.633l4.545-3.571a14.233 14.233 0 0 1 0-4.193l-4.545-3.571a1.132 1.132 0 0 1-.37-.632 1.13 1.13 0 0 1 .098-.726l4.312-7.454a1.05 1.05 0 0 1 1.32-.465l5.36 2.173c1.11-.88 2.34-1.599 3.652-2.135l.815-5.706a1.05 1.05 0 0 1 1.049-.893h8.623a1.046 1.046 0 0 1 1.048.893l.816 5.706a16.39 16.39 0 0 1 3.651 2.135l5.36-2.173a1.087 1.087 0 0 1 1.321.465l4.311 7.454a1.083 1.083 0 0 1-.272 1.358l-4.544 3.571c.09.696.142 1.396.155 2.097Zm-46.143-39.09v78.18m60.01-78.18v78.18" fill="none" stroke="#000" stroke-width="8" stroke-linecap="round" stroke-linejoin="round"/></svg>