<svg xmlns="http://www.w3.org/2000/svg" viewBox="0 0 192 192"><path d="m121.521 95.782-47.953 35.002V60.783Zm18.881-65.726a5.26 5.26 0 0 0-3.243 5.006v6.116a5.056 5.056 0 0 0 4.781 5.308h10.927a4.581 4.581 0 0 0 3.683-1.965 79.497 79.497 0 0 0-16.148-14.466Zm-88.685.043a79.497 79.497 0 0 0-16.248 14.444 4.578 4.578 0 0 0 3.669 1.943h10.927a5.057 5.057 0 0 0 4.78-5.308v-6.116a5.282 5.282 0 0 0-3.127-4.961ZM39.136 58.698a5.052 5.052 0 0 0-4.774 5.308v6.11a5.05 5.05 0 0 0 4.774 5.308h10.927a5.053 5.053 0 0 0 4.782-5.308v-6.11a5.056 5.056 0 0 0-4.781-5.308Zm102.806 0a5.055 5.055 0 0 0-4.781 5.308v6.11a5.055 5.055 0 0 0 4.781 5.308h10.928a5.052 5.052 0 0 0 4.773-5.308v-6.11a5.048 5.048 0 0 0-4.774-5.308ZM39.136 87.637a5.052 5.052 0 0 0-4.774 5.308v6.11a5.052 5.052 0 0 0 4.774 5.308h10.927a5.058 5.058 0 0 0 4.781-5.308v-6.11a5.055 5.055 0 0 0-4.781-5.308Zm102.806 0a5.055 5.055 0 0 0-4.781 5.308v6.11a5.053 5.053 0 0 0 4.781 5.308h10.928a5.05 5.05 0 0 0 4.774-5.308v-6.11a5.048 5.048 0 0 0-4.774-5.308ZM39.136 116.576a5.05 5.05 0 0 0-4.774 5.308v6.109a5.05 5.05 0 0 0 4.774 5.308h10.927a5.053 5.053 0 0 0 4.781-5.308v-6.109a5.053 5.053 0 0 0-4.781-5.308Zm102.806 0a5.054 5.054 0 0 0-4.781 5.308v6.109a5.054 5.054 0 0 0 4.781 5.308h10.928a5.049 5.049 0 0 0 4.774-5.308v-6.109a5.049 5.049 0 0 0-4.774-5.308ZM39.136 145.514a4.587 4.587 0 0 0-3.669 1.943 79.507 79.507 0 0 0 16.25 14.444 5.28 5.28 0 0 0 3.127-4.961v-6.118a5.056 5.056 0 0 0-4.781-5.308Zm102.806 0a5.055 5.055 0 0 0-4.781 5.308v6.118a5.28 5.28 0 0 0 3.128 4.961 79.502 79.502 0 0 0 16.249-14.444 4.578 4.578 0 0 0-3.669-1.943Z" fill="none" stroke="#000" stroke-width="8" stroke-linecap="round" stroke-linejoin="round"/><path d="M96 16.5a79.529 79.529 0 0 0-56.215 23.285A79.529 79.529 0 0 0 16.5 96a79.529 79.529 0 0 0 23.285 56.215A79.529 79.529 0 0 0 96 175.5a79.529 79.529 0 0 0 56.215-23.285A79.529 79.529 0 0 0 175.5 96a79.529 79.529 0 0 0-23.285-56.215A79.529 79.529 0 0 0 96 16.5Z" fill="none" stroke="#000" stroke-width="8" stroke-linecap="round" stroke-linejoin="round"/><path d="m73.984 109.397 16.759-22.419 6.173 25.033 12.104-24.627" fill="none" stroke="#000" stroke-width="8" stroke-linecap="round" stroke-linejoin="round"/></svg>