<svg
    xmlns="http://www.w3.org/2000/svg"
    viewBox="0 0 192 192"
    id="vector">
    <path
        id="path"
        d="M 172.838 75.423 L 142.426 52.552 L 125.977 56.954 L 125.977 39.937 L 96.002 16.5 L 66.023 39.937 L 66.023 56.953 L 49.58 52.552 L 19.162 75.423 L 27.917 96 L 19.162 116.58 L 49.58 139.446 L 66.023 135.042 L 66.023 152.057 L 96.002 175.5 L 125.977 152.057 L 125.977 135.04 L 142.426 139.446 L 172.838 116.575 L 164.082 96 Z M 80.907 90.842 L 80.907 116.24 L 111.09 116.24 L 111.09 90.842 M 117.341 97.09 L 95.999 75.76 L 74.656 97.09 M 66.023 56.953 L 66.023 135.042 M 125.977 56.954 L 125.977 135.042"
        fill="none"
        stroke="#000000"
        stroke-width="8"
        stroke-linecap="round"
        stroke-linejoin="round"/>
</svg>
