<svg xmlns="http://www.w3.org/2000/svg" viewBox="0 0 192 192"><path d="M17.404 156.988c.624-2.674 1.342-27.992 1.597-56.262.255-28.269.744-53.112 1.088-55.205.829-5.053 5.821-10.796 11.707-13.469 4.435-2.015 9.112-2.17 65.627-2.17 68.474 0 67.082-.167 73.988 8.884l3.407 4.466.354 44.403c.195 24.422.036 46.143-.353 48.269-.881 4.808-6.987 11.917-12.056 14.035-3.01 1.258-14.79 1.598-55.553 1.604l-51.733.007-19.604 5.149-19.604 5.15 1.135-4.862Zm26.257-15.479 9.453-2.936 52.285-.018c50.698-.017 52.358-.089 54.649-2.381 2.277-2.276 2.363-3.938 2.363-45.407 0-46.477.088-45.817-6.286-47.389-1.416-.35-29.072-.484-61.456-.297-56.714.325-58.942.422-60.557 2.632-1.383 1.891-1.676 10.741-1.676 50.513 0 26.521.398 48.219.886 48.219.487 0 5.14-1.321 10.339-2.936Zm57.307-26.603v-5.908h40.175v11.816h-40.175Zm-49.627-6.323c0-3.857.594-6.927 1.451-7.491.797-.526 5.981-3.397 11.52-6.38 5.539-2.984 10.014-5.908 9.945-6.499-.124-1.068-16.889-10.648-20.848-11.914-1.664-.533-2.068-2.037-2.068-7.705V61.55l12.702 6.744c6.987 3.71 15.494 8.309 18.906 10.222l6.203 3.478v12.61l-10.339 5.573a4268.596 4268.596 0 0 0-18.905 10.258l-8.567 4.684Z"/></svg>