<svg xmlns="http://www.w3.org/2000/svg" viewBox="0 0 48 48"><path d="M22.812 14.803v15.766a2.441 2.441 0 0 0 1.224 2.308c.401.229.859.34 1.321.32h.764m-6.44 0v-8.671a5.192 5.192 0 0 0-5.091-5.256 5.192 5.192 0 0 0-5.09 5.256v8.671m0-8.671v-5.255" fill="none" stroke="#000" stroke-width="3" stroke-linecap="round" stroke-linejoin="round"/><path d="m22.812 19.023 5.507.004 5.091 13.927 5.09-13.927" fill="none" stroke="#000" stroke-width="3" stroke-linecap="round" stroke-linejoin="round"/><path d="M5.5 19.6v20.9a2 2 0 0 0 2 2h33a2 2 0 0 0 2-2v-33a2 2 0 0 0-2-2h-33a2 2 0 0 0-2 2v12.1" fill="none" stroke="#000" stroke-width="3" stroke-linecap="round" stroke-linejoin="round"/></svg>