<svg xmlns="http://www.w3.org/2000/svg" viewBox="0 0 192 192"><path d="M44.204 170.161c-17.217-6.152-19.655-28.359-5.068-46.16 1.812-2.211 3.294-4.465 3.294-5.009 0-.545-1.864-2.083-4.143-3.418-2.278-1.335-6.52-5.055-9.425-8.265-19.061-21.064-16.311-49.381 5.424-55.835 12.626-3.75 27.335.679 39.609 11.927 3.321 3.042 6.222 5.205 6.447 4.805.224-.399.678-1.858 1.009-3.241.33-1.384 1.638-3.749 2.907-5.257 2.206-2.622 2.251-2.929 1.023-7.006-2.848-9.465-8.173-17.102-14.151-20.296-1.553-.83-5.364-1.978-8.469-2.55-5.164-.953-5.672-1.264-5.949-3.644-.46-3.948 1.278-5.311 6.77-5.31 13.014.002 25.716 11.952 30.755 28.934.652 2.2 1.526 4 1.942 4 .416 0 1.237-1.789 1.826-3.976 2.919-10.84 10.926-21.694 19.034-25.803 7.681-3.892 17.814-4.186 18.766-.543.762 2.914-.9 5.856-3.31 5.856-4.294 0-12.03 2.939-15.306 5.815-4.123 3.62-7.682 9.602-9.815 16.495-1.633 5.278-1.632 5.286.61 8.591 1.235 1.819 2.492 4.291 2.793 5.493.302 1.203.976 2.186 1.498 2.186.521 0 3.356-2.223 6.298-4.94 15.322-14.148 35.877-17.038 47.911-6.738 7.424 6.355 10.663 16.522 8.702 27.314-1.094 6.02-7.01 19.012-9.006 19.778-.682.261-2.952-.399-5.047-1.467-2.094-1.068-6.792-2.454-10.441-3.08-12.702-2.178-25.099 1.769-34.891 11.109-12.251 11.685-16.248 29.018-10.336 44.82 1.111 2.968 1.725 5.874 1.364 6.457-.36.583-2.553 1.899-4.874 2.926-5.851 2.588-11.417 1.695-16.165-2.595l-3.543-3.2-6.533 4.603c-10.816 7.62-22.748 10.355-31.51 7.224Zm86.234-20.319-7.459-7.503 2.234-2.377c1.229-1.308 2.705-2.378 3.282-2.378.576 0 3.129 2.114 5.674 4.697l4.628 4.698 10.639-10.497 10.64-10.497 2.341 2.199c1.288 1.21 2.341 2.661 2.341 3.225 0 1.291-24.622 25.935-25.911 25.935-.523 0-4.307-3.376-8.409-7.502Z"/></svg>