<svg
    xmlns="http://www.w3.org/2000/svg"
    viewBox="0 0 192 192"
    id="vector">
    <g id="group">
        <path
            id="path_6"
            d="M 44.204 170.161 C 26.987 164.009 24.549 141.802 39.136 124.001 C 40.948 121.79 42.43 119.536 42.43 118.992 C 42.43 118.447 40.566 116.909 38.287 115.574 C 36.009 114.239 31.767 110.519 28.862 107.309 C 9.801 86.245 12.551 57.928 34.286 51.474 C 46.912 47.724 61.621 52.153 73.895 63.401 C 77.216 66.443 80.117 68.606 80.342 68.206 C 80.566 67.807 81.02 66.348 81.351 64.965 C 81.681 63.581 82.989 61.216 84.258 59.708 C 86.464 57.086 86.509 56.779 85.281 52.702 C 82.433 43.237 77.108 35.6 71.13 32.406 C 69.577 31.576 65.766 30.428 62.661 29.856 C 57.497 28.903 56.989 28.592 56.712 26.212 C 56.252 22.264 57.99 20.901 63.482 20.902 C 76.496 20.904 89.198 32.854 94.237 49.836 C 94.889 52.036 95.763 53.836 96.179 53.836 C 96.595 53.836 97.416 52.047 98.005 49.86 C 100.924 39.02 108.931 28.166 117.039 24.057 C 124.72 20.165 134.853 19.871 135.805 23.514 C 136.567 26.428 134.905 29.37 132.495 29.37 C 128.201 29.37 120.465 32.309 117.189 35.185 C 113.066 38.805 109.507 44.787 107.374 51.68 C 105.741 56.958 105.742 56.966 107.984 60.271 C 109.219 62.09 110.476 64.562 110.777 65.764 C 111.079 66.967 111.753 67.95 112.275 67.95 C 112.796 67.95 115.631 65.727 118.573 63.01 C 133.895 48.862 154.45 45.972 166.484 56.272 C 173.908 62.627 177.147 72.794 175.186 83.586 C 174.092 89.606 168.176 102.598 166.18 103.364 C 165.498 103.625 163.228 102.965 161.133 101.897 C 159.039 100.829 154.341 99.443 150.692 98.817 C 137.99 96.639 125.593 100.586 115.801 109.926 C 103.55 121.611 99.553 138.944 105.465 154.746 C 106.576 157.714 107.19 160.62 106.829 161.203 C 106.469 161.786 104.276 163.102 101.955 164.129 C 96.104 166.717 90.538 165.824 85.79 161.534 L 82.247 158.334 L 75.714 162.937 C 64.898 170.557 52.966 173.292 44.204 170.161 Z M 130.438 149.842 L 122.979 142.339 L 125.213 139.962 C 126.442 138.654 127.918 137.584 128.495 137.584 C 129.071 137.584 131.624 139.698 134.169 142.281 L 138.797 146.979 L 149.436 136.482 L 160.076 125.985 L 162.417 128.184 C 163.705 129.394 164.758 130.845 164.758 131.409 C 164.758 132.7 140.136 157.344 138.847 157.344 C 138.324 157.344 134.54 153.968 130.438 149.842 Z"
            fill="#000000"
            stroke-width="12"/>
    </g>
</svg>
