<svg xmlns="http://www.w3.org/2000/svg" viewBox="0 0 192 192"><path d="M106.266 59.553a6.11 6.11 0 0 0-3.816 1.371 6.131 6.131 0 0 0-1.623 7.489 6.12 6.12 0 0 0 6.94 3.226 6.124 6.124 0 0 0 4.661-6.077 6.136 6.136 0 0 0-1.85-4.271 6.12 6.12 0 0 0-4.312-1.738Zm-20.323 0a6.116 6.116 0 0 0-4.33 1.758 6.136 6.136 0 0 0-.095 8.651 6.114 6.114 0 0 0 8.636.134 6.138 6.138 0 0 0 1.87-4.289 5.972 5.972 0 0 0-2.964-5.451 5.949 5.949 0 0 0-3.117-.803Z" fill="none" stroke="#000" stroke-width="6" stroke-linecap="round" stroke-linejoin="round"/><path d="M107.654 80.686H84.188a17.126 17.126 0 0 1-11.831-4.896 17.189 17.189 0 0 1-5.145-11.741 13.58 13.58 0 0 1 3.967-9.393 13.535 13.535 0 0 1 9.377-3.973c3.632 0 11.59 1.43 15.181 1.43 3.592 0 11.549-1.43 15.181-1.43a13.582 13.582 0 0 1 9.393 3.97 13.628 13.628 0 0 1 3.993 9.396c.052 2.94-.689 5.84-2.143 8.393a16.345 16.345 0 0 1-6.123 6.118 16.305 16.305 0 0 1-8.384 2.126Z" fill="none" stroke="#000" stroke-width="6" stroke-linecap="round" stroke-linejoin="round"/><path d="M61.417 62.782a62.833 62.833 0 0 0 11.222 35.645 1.755 1.755 0 0 1 0 1.798 6.248 6.248 0 0 1-4.366 2.167 21.195 21.195 0 0 1-11.549-1.799 59.133 59.133 0 0 0-23.833-5.886c-6.162 0-16.323 3.27-16.323 9.769a12.277 12.277 0 0 0 1.469 7.235c9.019 9.77 17.344 10.874 28.158 9.402a65.762 65.762 0 0 0 30.362-11.2 4.533 4.533 0 0 1 3.265-1.431c.326 0 .326.327.326.695a10.663 10.663 0 0 1-3.224 5.069 88.447 88.447 0 0 1-19.874 14.838 30.564 30.564 0 0 0-15.548 16.637 13.462 13.462 0 0 0 3.265 14.838 12.223 12.223 0 0 0 14.079 3.27 37.738 37.738 0 0 0 13.255-8.876 37.829 37.829 0 0 0 8.415-13.565 73.698 73.698 0 0 0 5.427-21.706c.367-1.798.735-4.7 1.102-6.499.367-.736.694-1.839 1.796-1.472a3.32 3.32 0 0 1 1.795 2.903c.498 4.601.25 9.253-.734 13.775a175.968 175.968 0 0 0-5.02 24.24 13.677 13.677 0 0 0 1.36 9.613 13.617 13.617 0 0 0 17.086 6.043 13.268 13.268 0 0 0 7.66-6.408 13.304 13.304 0 0 0 1.032-9.943 79.808 79.808 0 0 0-5.06-15.574 40.44 40.44 0 0 1-3.632-17.127c0-2.167-.367-5.069 2.163-5.396 2.53-.327 3.632 2.494 4.326 4.333 2.203 4.701 3.632 9.77 5.427 14.838a36.816 36.816 0 0 0 7.847 14.117 36.737 36.737 0 0 0 13.129 9.387c10.814 4.333 19.507.368 22.404-9.769a12.284 12.284 0 0 0-.15-8.812 12.257 12.257 0 0 0-6.012-6.435 61.577 61.577 0 0 0-11.182-4.333 47.048 47.048 0 0 1-20.404-11.568c-1.469-1.472-3.265-3.27-2.163-5.069 1.102-1.799 3.591-.736 5.428-.368a162.545 162.545 0 0 0 27.097 7.603c8.651 1.063 16.976 1.063 22.731-6.867a7.323 7.323 0 0 0 1.469-5.437 8.683 8.683 0 0 0-1.796-6.336c-6.529-9.769-15.916-8.665-25.302-6.499-7.59 1.431-15.181 4.088-22.771 5.805a26.902 26.902 0 0 1-5.428 0 60.034 60.034 0 0 0 10.855-31.843v-3.638a34.79 34.79 0 0 0-10.159-24.569A34.674 34.674 0 0 0 96.309 28.2a34.67 34.67 0 0 0-24.528 10.177 34.787 34.787 0 0 0-10.16 24.569Zm55.623-27.551 12.528-12.549M75.17 35.231 62.641 22.682" fill="none" stroke="#000" stroke-width="6" stroke-linecap="round" stroke-linejoin="round"/></svg>