<svg xmlns="http://www.w3.org/2000/svg" viewBox="0 0 192 192"><path d="M96 16.5a79.529 79.529 0 0 0-56.215 23.285A79.529 79.529 0 0 0 16.5 96a79.529 79.529 0 0 0 23.285 56.215A79.529 79.529 0 0 0 96 175.5a79.529 79.529 0 0 0 56.215-23.285A79.529 79.529 0 0 0 175.5 96a79.529 79.529 0 0 0-23.285-56.215A79.529 79.529 0 0 0 96 16.5Z" fill="none" stroke="#000" stroke-width="12" stroke-linecap="round" stroke-linejoin="round"/><path d="M96 57.174a38.843 38.843 0 0 0-27.454 11.372A38.843 38.843 0 0 0 57.174 96a38.843 38.843 0 0 0 11.372 27.454A38.843 38.843 0 0 0 96 134.826a38.843 38.843 0 0 0 27.454-11.372A38.843 38.843 0 0 0 134.826 96a38.843 38.843 0 0 0-11.372-27.454A38.843 38.843 0 0 0 96 57.174Z" fill="none" stroke="#000" stroke-width="12" stroke-linecap="round" stroke-linejoin="round"/></svg>