<svg xmlns="http://www.w3.org/2000/svg" width="192" height="192"><path d="m34.962 170.239.104-5.762 6.99-.189c7.75-.21 8.417-.39 9.31-2.525.727-1.74.368-3.257-1.055-4.454-1.126-.947-1.19-.955-8.284-.955h-7.15v-11.608l7.24-.275c4.31-.164 7.52-.451 7.933-.71.383-.239.97-1.012 1.305-1.72.505-1.063.535-1.537.174-2.744-.756-2.52-1.492-2.752-9.455-2.966l-7.008-.19-.104-5.76-.104-5.762 6.904-.006c7.754-.006 8.415-.17 9.485-2.357.581-1.186.622-1.622.256-2.73-.239-.725-.87-1.661-1.403-2.08-.892-.702-1.522-.761-8.032-.761-3.886 0-7.136-.07-7.222-.157-.087-.086-.071-4.974.034-10.862l.192-10.705 1.198-2.298c1.501-2.878 4.16-5.527 6.892-6.87l2.105-1.033 48.071-.099c47.724-.098 48.077-.093 48.831.662 1.192 1.191 1.011 3.126-.402 4.315l-1.162.978H47.32l-1.844.934c-1.854.94-3.079 2.275-3.78 4.12l-.38.996 49.485-.097 49.484-.097v4.612l-2.89.244c-1.59.134-23.777.244-49.304.244s-46.413.131-46.413.29c0 .924 2.158 3.234 3.797 4.065l1.88.952 46.63-.011 46.629-.012 1.063.915 1.063.914.1 33.657.101 33.658H34.858l.104-5.762zm96.065-7.408c.623-.364 1.515-1.23 1.984-1.925l.851-1.263v-39.068l-.85-1.246c-.468-.685-1.442-1.56-2.166-1.944-1.252-.666-2.91-.7-33.77-.7-32.29 0-32.458.004-33.733.792-2.464 1.522-2.397.892-2.396 22.707.002 18.9.034 19.812.736 20.963.838 1.376 1.918 2.055 3.753 2.361.703.118 15.494.162 32.869.099 29.284-.106 31.672-.163 32.722-.776zm-65.457-3.39c-.374-.238-.454-4.363-.377-19.357l.098-19.054 8.678-.102c6.825-.08 8.58-.003 8.217.359-.314.314-.46 1.983-.46 5.236v4.776l8.216.248c4.52.137 12.407.249 17.526.25 8.316 0 9.393.07 10.09.661 1.277 1.08 1.392 2.465.308 3.725l-.94 1.092-17.6.106-17.6.105v5.147l8.216.248c4.52.137 12.407.249 17.526.25 8.316 0 9.393.07 10.09.661 1.277 1.08 1.392 2.465.308 3.725l-.94 1.092-17.6.106-17.6.105v5.014c0 3.396.145 5.16.452 5.467.353.353-1.389.452-7.839.448-4.561-.003-8.507-.142-8.769-.308zm13.51-19.521v-16.057H67.37v32.114h11.71zM49.8 83.87c-1.653-.439-2.763-1.106-3.202-1.927-.249-.465-.386-7.527-.386-19.826V43.013h-3.76c-4.379 0-5.406-.362-6.314-2.225-.933-1.913-.905-10.538.05-15.532.598-3.13.845-3.74 1.93-4.769 2.515-2.383 13.63-4.402 24.528-4.454l6.8-.033 2.244 1.134c3.908 1.974 3.612-.796 3.612 33.836v30.07l-.857.805c-1.579 1.484-5.036 1.995-14.633 2.167-4.883.087-9.388.024-10.011-.142zm17.043-3.83c1.893-.2 3.72-.47 4.061-.6.568-.218.62-2.706.62-29.31V21.058l-1.765-.78c-1.62-.718-2.28-.766-8.029-.592-6.493.196-14.995 1.32-18.842 2.489-1.917.582-2.204.803-2.6 2.002-1.015 3.078-1.644 11.867-1.017 14.208.223.83.353.85 5.473.85h5.246v20.339c0 11.186.113 20.451.251 20.59.381.38 12.683.289 16.602-.124zm30.372 3.776c0-.232-.17-.317-.378-.189-.208.129-.378.044-.378-.189 0-.232-.17-.317-.377-.189-.208.129-.378.025-.378-.23 0-.254-.115-.347-.255-.207-.339.338-2.046-1.28-1.79-1.696.11-.177.02-.322-.2-.322s-.4-.255-.4-.567c0-.312-.18-.567-.4-.567-.22 0-.295-.17-.167-.378.129-.207.044-.377-.188-.377-.233 0-.318-.17-.19-.378.13-.208.067-.378-.137-.378-.204 0-.567-.595-.807-1.322-.24-.728-.603-1.323-.807-1.323-.204 0-.266-.17-.137-.377.128-.208.066-.378-.138-.378-.204 0-.567-.595-.807-1.323-.24-.727-.603-1.322-.807-1.322-.204 0-.266-.17-.137-.378.128-.208.067-.378-.136-.378s-.66-.765-1.018-1.7c-.357-.935-.776-1.7-.932-1.7-.155 0-.662-.935-1.126-2.078-.464-1.143-.98-2.078-1.146-2.078-.166 0-.595-.765-.952-1.7-.357-.935-.776-1.7-.932-1.7-.155 0-.662-.935-1.126-2.078-.463-1.143-1.003-2.078-1.2-2.078-.195 0-.258-.158-.138-.351.12-.194.07-.443-.109-.554-.266-.164-.348-4.95-.085-4.95.044 0 .142-.338.219-.75.076-.411.318-.808.537-.88.22-.074.399-.366.399-.65 0-.57 2.272-2.443 2.963-2.443.24 0 .437-.18.437-.4 0-.22.17-.295.378-.167.208.129.378.043.378-.189 0-.232.17-.317.377-.189.208.129.378.057.378-.16 0-.215.425-.499.945-.63.52-.13.944-.398.944-.595 0-.198.17-.254.378-.126s.378.043.378-.189c0-.232.17-.317.378-.189.207.129.377.044.377-.189 0-.232.17-.317.378-.189.208.129.378.057.378-.159s.425-.5.945-.63c.519-.13.944-.399.944-.596 0-.198.17-.254.378-.126.208.129.378.044.378-.189 0-.232.17-.317.377-.189.208.129.378.065.378-.142 0-.206.595-.59 1.323-.854.727-.262 1.322-.624 1.322-.802 0-.178.17-.219.378-.09.207.128.377.043.377-.19 0-.232.17-.317.378-.188.208.128.378.056.378-.16s.425-.5.945-.63.944-.398.944-.596c0-.197.17-.254.378-.126.208.129.378.044.378-.188 0-.233.17-.318.378-.19.207.129.377.065.377-.142 0-.206.595-.59 1.323-.853.727-.263 1.322-.624 1.322-.803 0-.178.17-.219.378-.09.208.128.378.043.378-.19 0-.232.17-.317.377-.188.208.128.378.057.378-.16 0-.216.425-.5.945-.63s.944-.398.944-.596c0-.197.17-.254.378-.125.208.128.378.043.378-.19 0-.232.17-.317.378-.188.207.128.377.043.377-.19 0-.231.17-.316.378-.188s.378.057.378-.16c0-.216.425-.499.945-.63.519-.13.944-.398.944-.596 0-.197.17-.254.378-.125.208.128.378.043.378-.19 0-.231.17-.316.377-.188.208.128.378.043.378-.189 0-.232.17-.317.378-.189.208.129.378.044.378-.189 0-.232.158-.324.352-.205.193.12.436.08.54-.089.155-.25 4.586-.346 4.586-.1 0 .041.323.135.718.21.395.073.86.358 1.033.631.173.274.318.352.321.174.006-.325 2.227 1.902 2.24 2.245.002.101.267.445.586.764.32.319.58.823.58 1.12 0 .297.18.54.4.54.22 0 .295.17.167.377-.129.208-.044.378.189.378.232 0 .317.17.189.378-.129.208-.065.378.142.378.206 0 .59.595.854 1.322.263.727.624 1.322.802 1.322.178 0 .22.17.09.378-.128.208-.043.378.19.378.232 0 .317.17.189.378-.129.208-.057.378.159.378s.5.425.63.944c.13.52.399.945.596.945.198 0 .254.17.126.377-.129.208-.044.378.189.378.232 0 .317.17.189.378-.129.208-.044.378.188.378.233 0 .318.17.19.378-.13.207-.057.377.159.377s.5.425.63.945.398.944.596.944c.197 0 .254.17.126.378-.129.208-.044.378.188.378.233 0 .318.17.19.378-.13.208-.065.378.142.378.206 0 .59.595.853 1.322.263.727.624 1.322.803 1.322.178 0 .219.17.09.378-.128.208-.043.378.19.378.232 0 .317.17.188.378-.128.208-.08.378.106.378.365 0 1.392 1.891 1.282 2.36-.036.157.115.284.335.284.22 0 .295.17.166.378-.128.208-.043.378.19.378.231 0 .316.17.188.378-.128.207-.043.377.189.377.232 0 .317.17.189.378-.129.208-.044.378.189.378.232 0 .317.17.189.378-.129.208-.078.378.113.378.294 0 .367 4.73.082 5.289-.053.104-.076.316-.051.472.024.156-.136.283-.356.283-.22 0-.306.153-.19.339.114.186-.056.44-.38.564-.324.124-.497.374-.385.556.113.181-.132.634-.542 1.005-.411.372-.753.522-.76.334-.006-.188-.26-.012-.566.392-.305.403-.555.615-.555.472 0-.144-.346.085-.769.508-.423.423-.933.668-1.133.544-.2-.123-.364-.034-.364.198s-.17.317-.378.189c-.208-.129-.378-.044-.378.189 0 .232-.17.317-.378.189-.208-.129-.378-.025-.378.23 0 .254-.099.363-.22.242s-.552.112-.958.517c-.406.406-.902.637-1.102.513-.2-.123-.364-.035-.364.198 0 .232-.17.317-.378.189-.208-.129-.378-.044-.378.189 0 .232-.152.328-.338.213-.186-.115-.442.063-.57.395-.136.355-.472.511-.815.38-.333-.128-.484-.064-.352.15.208.335-.292.536-1.042.417-.156-.024-.283.136-.283.356 0 .22-.17.295-.378.166-.208-.128-.378-.043-.378.19 0 .232-.17.317-.377.188-.208-.128-.378-.06-.378.154 0 .212-.36.58-.801.815-.646.346-.75.33-.54-.081.145-.28.021-.215-.274.145-.296.36-.649.545-.784.41-.135-.136-.246-.038-.246.217 0 .254-.152.369-.338.254-.186-.115-.443.062-.57.394-.136.356-.472.512-.815.38-.334-.128-.484-.064-.352.15.208.336-.292.537-1.042.418-.156-.024-.283.136-.283.356 0 .22-.17.295-.378.166-.208-.128-.378-.043-.378.19 0 .231-.17.316-.378.188-.207-.128-.377-.06-.377.153s-.36.58-.802.816c-.645.346-.75.33-.538-.081.144-.28.02-.215-.275.145-.296.36-.649.545-.784.41-.135-.136-.246-.038-.246.216 0 .255-.17.358-.378.23-.208-.128-.378-.043-.378.189 0 .232-.17.317-.377.189-.208-.129-.378-.06-.378.153s-.36.58-.801.816c-.646.345-.75.33-.54-.081.145-.28.022-.216-.274.145-.296.36-.648.544-.784.41-.135-.136-.246-.038-.246.216 0 .255-.17.358-.378.23-.207-.129-.377-.025-.377.23 0 .254-.1.363-.22.242-.122-.121-.524.083-.894.453-.525.524-1.367.688-3.809.74-1.724.037-3.277.155-3.451.262-.174.108-.316.005-.316-.227zm8.133-5.418c.41-.278 2.276-1.323 4.146-2.321 1.87-.999 4.675-2.53 6.233-3.402a511.517 511.517 0 0 1 5.479-3.014c10.333-5.584 10.808-5.997 11.072-9.653.165-2.282.132-2.384-2.075-6.416-1.057-1.933-1.832-3.36-5.02-9.257-5.134-9.492-5.838-10.304-9.237-10.655-2.103-.217-3.514.32-9.475 3.605a1403.72 1403.72 0 0 1-9.067 4.963c-11.66 6.307-12.313 6.857-12.584 10.594-.183 2.533-.592 1.573 4.903 11.517a303.938 303.938 0 0 1 1.749 3.211c1.087 2.04 3.3 6.057 4.326 7.852 1.516 2.654 2.975 3.483 6.129 3.483 1.613 0 2.972-.201 3.421-.507zm33.426-27.491c0-.24-.33-.34-.757-.228-.415.109-.66.043-.544-.145.116-.188.022-.343-.21-.343-.233 0-.318-.17-.19-.377.129-.208.025-.378-.23-.378-.254 0-.352-.11-.216-.246.135-.135-.05-.488-.41-.784-.437-.359-.466-.456-.088-.292.378.163.349.066-.089-.293-.36-.296-.544-.649-.409-.784.135-.135.038-.246-.217-.246s-.358-.17-.23-.378c.129-.207.025-.377-.23-.377-.254 0-.363-.1-.242-.22.121-.122-.112-.553-.517-.96-.406-.405-.637-.9-.513-1.101.123-.2.035-.364-.198-.364-.232 0-.317-.17-.189-.378.129-.208.044-.378-.189-.378-.232 0-.317-.17-.188-.377.128-.208.025-.378-.23-.378s-.352-.111-.217-.246c.135-.136-.049-.488-.41-.784-.437-.359-.466-.456-.088-.293.378.164.349.066-.089-.292-.36-.296-.544-.649-.409-.784.135-.135.038-.246-.217-.246s-.358-.17-.23-.378c.129-.207.044-.377-.188-.377-.233 0-.318-.17-.19-.378.13-.208.044-.378-.188-.378-.233 0-.317-.171-.188-.38.13-.21-.03-.483-.353-.607-.324-.124-.494-.378-.38-.564.116-.186.02-.338-.213-.338-.232 0-.326-.156-.209-.346.118-.19 0-.432-.26-.538-.36-.145-.337-.29.092-.593.311-.22.396-.408.188-.418-.207-.009-.076-.192.292-.407.368-.214.57-.549.45-.744-.12-.195-.03-.354.203-.354.232 0 .317-.172.187-.38-.13-.21.03-.483.354-.607.323-.124.494-.378.379-.564-.115-.186-.019-.338.213-.338.233 0 .317-.172.188-.38-.13-.21.03-.483.353-.607.324-.124.494-.378.38-.564-.116-.186-.02-.338.213-.338.232 0 .316-.172.187-.38-.13-.21.03-.483.353-.607.324-.124.506-.36.404-.525-.101-.164.08-.4.404-.524s.483-.397.354-.606c-.13-.21-.046-.38.187-.38.232 0 .328-.153.213-.339-.115-.186.056-.44.38-.564.323-.124.482-.397.353-.606-.13-.21-.045-.38.187-.38.233 0 .329-.153.214-.34-.115-.185.069-.444.41-.575.34-.13.523-.332.406-.449-.203-.202 1.225-1.842 1.615-1.854.104-.003.359-.102.567-.22.766-.434 4.021-.108 4.366.437.19.3.347.383.35.186.006-.39.933.416.978.85.064.634 1.069 2.342 1.378 2.342.187 0 .234.17.106.378-.129.208-.054.378.166.378s.37.127.332.283c-.11.462 1.313 3.117 1.672 3.117.182 0 .225.17.097.378-.129.207-.088.377.09.377.179 0 .54.595.803 1.323.263.727.647 1.322.853 1.322.207 0 .271.17.143.378-.129.208-.044.378.189.378.232 0 .317.17.188.377-.128.208-.087.378.091.378s.54.595.802 1.323c.263.727.648 1.322.854 1.322.207 0 .27.17.142.378-.128.207-.053.377.167.377s.37.128.334.284c-.11.47.918 2.361 1.282 2.361.187 0 .235.17.106.378-.128.208-.043.378.19.378.232 0 .317.17.188.378-.128.207-.053.377.167.377s.37.128.334.284c-.11.47.918 2.361 1.282 2.361.187 0 .235.17.106.378-.128.208-.043.378.19.378.231 0 .316.17.188.377-.128.208-.07.378.129.378.2 0 .362.595.362 1.322 0 .728-.171 1.323-.38 1.323-.21 0-.315.212-.234.472.19.617-2.099 2.817-2.717 2.611-.262-.087-.385-.009-.272.174.114.185-3.112.375-7.315.43-5.382.07-7.519-.023-7.519-.327zm12.096-5.91c1.152-1.465.851-2.675-1.922-7.722-3.892-7.083-4.024-7.322-4.558-8.27-1.086-1.925-1.944-2.615-3.251-2.615-.705 0-1.58.16-1.945.355-.703.376-3.443 4.573-3.443 5.274 0 .229-.15.416-.334.416-.183 0-.428.297-.543.66-.115.364-.515 1.13-.889 1.704-.586.9-.61 1.153-.169 1.859.281.45.937 1.596 1.458 2.547 2.442 4.464 3.269 5.922 3.606 6.358.26.34 1.89.473 5.768.473h5.405zm4.716 4.817c.376-.416.769-.756.872-.756.104 0-.118.34-.494.756-.377.415-.77.755-.873.755-.104 0 .119-.34.495-.755z" style="fill:#333;fill-opacity:1;stroke-width:.999998"/></svg>