<svg xmlns="http://www.w3.org/2000/svg" viewBox="0 0 192 192"><path d="m66.852 174.408-3.096-1.733 4.869-1.42c7.459-2.175 10.468-8.259 6.059-12.249-1.113-1.007-5.428-3.77-9.589-6.14-10.029-5.711-12.631-9.502-12.065-17.584.368-5.256.901-6.49 4.318-9.99 2.145-2.196 7.494-6.01 11.889-8.477 10.99-6.168 14.747-9.083 14.747-11.441 0-1.728-.734-1.455-5.24 1.956-12.741 9.643-27.659 9.703-40.218.161-5.928-4.504-8.893-10.069-9.447-17.732-.57-7.88 1.915-13.273 10.192-22.123l6.517-6.966 5.323.657c2.927.361 5.792 1.237 6.366 1.946.574.709 2.063 1.612 3.309 2.008 1.288.409 3.252 2.757 4.552 5.441 2.045 4.225 2.152 5.178 1.013 9.049-1.342 4.561-5.728 10.045-8.033 10.045-1.65 0-1.646.076-.213-4.035 3.216-9.224-7.017-15.518-13.662-8.404-6.262 6.703-6.228 14.238.093 20.293 2.688 2.576 4.118 3.055 10.135 3.395 8.752.494 15.271-1.206 19.027-4.962 6.101-6.1 5.305-12.525-2.717-21.941-7.712-9.052-10.209-15.783-9.622-25.932.734-12.683 7.366-22.796 18.986-28.954 4.623-2.449 6.35-2.755 15.595-2.755 9.363 0 10.943.288 15.891 2.894 21.046 11.086 25.626 35.185 10.196 53.653-4.779 5.72-6.281 11.134-4.718 17.008 2.582 9.705 11.273 16.087 20.493 15.047 6.039-.68 9.752-3.531 11.668-8.959 1.409-3.99 1.386-4.66-.26-7.527-.993-1.731-1.806-3.958-1.806-4.947 0-.99-1.403-2.837-3.116-4.104-1.714-1.267-4.289-4.513-5.721-7.213-1.433-2.7-3.642-6.212-4.91-7.803-1.933-2.426-2.101-3.221-1.037-4.924.697-1.117 1.268-3.384 1.268-5.037s.702-3.588 1.56-4.3c.857-.712 1.559-2.088 1.559-3.057 0-.97 1.504-3.72 3.342-6.111 2.399-3.122 4.099-4.348 6.03-4.348 1.478 0 3.215-.527 3.86-1.171 1.189-1.189 4.793-.672 7.478 1.073 1.18.767.508 2.037-3.346 6.323-8.116 9.027-8.182 17.96-.222 30.238 7.085 10.928 8.802 15.166 8.817 21.759.011 4.461-.669 6.908-3.09 11.129-3.528 6.151-8.535 9.56-18.062 12.293-9.88 2.836-21.192.027-28.459-7.067-3.99-3.894-4.419-4.086-4.419-1.98 0 3.712 2.649 6.831 12.443 14.652 11.664 9.314 15.628 15.041 15.628 22.578 0 4.693-.483 6.054-3.28 9.24-6.244 7.111-15.139 9.333-28.95 7.232-8.312-1.265-13.515-8.243-13.515-18.124 0-7.404 3.752-11.552 11.086-12.257 5.618-.54 9.707.896 9.707 3.407 0 1.037-1.121 1.523-3.511 1.523-1.932 0-4.09.697-4.797 1.548-1.978 2.383-.399 8.086 3.191 11.526 2.613 2.503 4.062 3.041 8.195 3.041 6.668 0 9.398-2.401 9.398-8.262 0-3.704-.613-4.888-4.418-8.528-2.431-2.325-7.122-5.986-10.426-8.135-4.781-3.109-10.082-8.412-13.994-14-.176-.251-1.051.586-1.944 1.861-3.511 5.012-13.077 11.47-19.213 12.969-11.657 2.848-10.626 15.258 1.268 15.258 3.491 0 5.347.534 6.318 1.819.755 1.001 2.302 2.333 3.437 2.961 4.73 2.616 4.526 18.376-.268 20.757-1.283.638-3.188 1.934-4.235 2.881-2.861 2.589-10.468 3.163-14.204 1.071ZM99.183 68.375c10.482-4.974 12.243-19.227 3.414-27.634-6.788-6.464-15.697-6.577-22.658-.288C71.364 48.2 72.17 61 81.638 67.434c4.619 3.139 12.07 3.539 17.545.941ZM86.116 57.13c-2.63-3.169 1.52-7.319 4.689-4.689 2.222 1.844 1.472 5.595-1.194 5.976-1.193.17-2.766-.409-3.495-1.287Z"/></svg>