<svg
    xmlns="http://www.w3.org/2000/svg"
    viewBox="0 0 192 192"
    id="vector">
    <path
        id="path"
        d="M 100.301 42.801 C 99.151 42.83 98.056 43.312 97.253 44.144 C 96.45 44.976 96 46.093 96 47.255 L 96 125.422 C 96 126.583 96.45 127.7 97.253 128.532 C 98.056 129.364 99.151 129.846 100.301 129.876 L 162.653 129.876 C 163.428 129.876 164.188 129.67 164.859 129.279 C 165.53 128.888 166.087 128.326 166.474 127.649 C 166.861 126.971 167.065 126.203 167.065 125.422 L 167.065 47.143 C 167.036 45.981 166.558 44.876 165.734 44.065 C 164.91 43.254 163.804 42.8 162.653 42.8 L 158.242 42.8 L 158.242 98.075 L 149.727 89.367 L 141.169 98.075 L 141.169 42.801 Z M 115.317 87.34 L 134.331 87.34 M 115.317 113.352 L 156.808 113.352 M 115.317 100.322 L 156.808 100.322 M 115.317 76.202 L 134.331 76.202 M 115.317 65.067 L 134.331 65.067 M 115.317 53.934 L 134.331 53.934"
        fill="none"
        stroke="#000000"
        stroke-width="8"
        stroke-linecap="round"
        stroke-linejoin="round"/>
    <path
        id="path_1"
        d="M 29.165 42.801 C 28.419 42.801 27.685 42.999 27.039 43.376 C 26.392 43.753 25.855 44.295 25.482 44.948 C 25.109 45.6 24.912 46.341 24.912 47.094 L 24.912 125.423 C 24.912 126.584 25.362 127.701 26.166 128.533 C 26.969 129.364 28.064 129.847 29.214 129.876 L 91.638 129.876 C 92.412 129.876 93.173 129.67 93.844 129.279 C 94.514 128.888 95.071 128.326 95.458 127.649 C 95.845 126.971 96.049 126.203 96.049 125.422 L 96.049 47.143 C 96.02 45.982 95.543 44.877 94.719 44.066 C 93.895 43.255 92.788 42.801 91.638 42.801 Z M 42.096 87.34 L 84.638 87.34 M 42.096 113.352 L 83.587 113.352 M 42.096 100.322 L 83.587 100.322 M 65.624 76.202 L 84.638 76.202 M 65.624 65.067 L 84.638 65.067 M 65.624 53.934 L 84.638 53.934"
        fill="none"
        stroke="#000000"
        stroke-width="8"
        stroke-linecap="round"
        stroke-linejoin="round"/>
    <path
        id="path_2"
        d="M 35.694 51.652 C 35.694 51.652 34.289 52.317 34.29 53.106 L 34.29 78.623 C 34.289 79.002 34.436 79.367 34.699 79.638 C 34.961 79.91 35.318 80.067 35.694 80.077 L 55.353 80.077 C 55.735 80.077 56.101 79.923 56.371 79.651 C 56.641 79.378 56.793 79.008 56.793 78.623 L 56.793 53.07 C 56.784 52.691 56.628 52.33 56.359 52.065 C 56.09 51.8 55.729 51.652 55.353 51.652 Z"
        fill="none"
        stroke="#000000"
        stroke-width="8"
        stroke-linecap="round"
        stroke-linejoin="round"/>
    <path
        id="path_3"
        d="M 24.456 58.187 L 16.5 58.187 L 16.5 134.087 C 16.699 135.965 17.621 137.692 19.066 138.892 C 20.512 140.092 22.368 140.673 24.232 140.508 L 89.923 140.508 L 96 149.2 L 102.055 140.508 L 167.961 140.508 C 169.796 140.63 171.608 140.029 173.014 138.832 C 174.419 137.635 175.311 135.933 175.5 134.086 L 175.5 58.186 L 167.396 58.186"
        fill="none"
        stroke="#000000"
        stroke-width="8"
        stroke-linecap="round"
        stroke-linejoin="round"/>
</svg>
