<svg xmlns="http://www.w3.org/2000/svg" viewBox="0 0 192 192"><path d="M96.513 54.718c-2.587 0-5.07.892-6.9 2.478-1.829 1.587-2.857 3.741-2.857 5.985 0 2.243 1.028 4.398 2.857 5.984 1.83 1.587 4.313 2.479 6.9 2.479 2.586 0 5.07-.892 6.899-2.479 1.829-1.586 2.858-3.741 2.858-5.984 0-2.244-1.029-4.398-2.858-5.985-1.829-1.586-4.313-2.478-6.899-2.478Zm-2.07 16.732-18.241 72.88m22.381-72.881 18.241 72.881m2.111-61.7c5.079-4.405 8.284-10.179 9.089-16.37.804-6.19-.84-12.438-4.661-17.713-3.821-5.275-9.598-9.27-16.377-11.328a36.32 36.32 0 0 0-20.946 0c-6.779 2.058-12.556 6.053-16.377 11.328-3.821 5.275-5.465 11.523-4.661 17.713.804 6.191 4.01 11.965 9.089 16.37m60.577 13.646c10.114-8.774 15.802-20.686 15.802-33.094 0-12.408-5.689-24.32-15.804-33.093-10.115-8.774-23.849-13.708-38.153-13.708-14.305 0-28.038 4.934-38.154 13.708-10.115 8.773-15.803 20.685-15.804 33.093 0 12.408 5.688 24.32 15.803 33.094M89.091 92.9h14.843m-19.211 17.262h23.58m-28.919 21.533h34.258m61.858 40.93-57.239 3.026-54.984-7.118-46.777 6.052 26.875-51.253 33.034-3.206 35.161 3.206 37.874-1.601Z" fill="none" stroke="#000" stroke-width="8" stroke-linecap="round" stroke-linejoin="round"/></svg>