<?xml version="1.0" encoding="UTF-8" standalone="no"?>
<svg
   viewBox="0 0 48 48"
   version="1.1"
   id="svg7642"
   sodipodi:docname="opencvmanager.svg"
   inkscape:version="1.1.2 (b8e25be833, 2022-02-05)"
   xmlns:inkscape="http://www.inkscape.org/namespaces/inkscape"
   xmlns:sodipodi="http://sodipodi.sourceforge.net/DTD/sodipodi-0.dtd"
   xmlns="http://www.w3.org/2000/svg"
   xmlns:svg="http://www.w3.org/2000/svg">
  <sodipodi:namedview
     id="namedview7644"
     pagecolor="#ffffff"
     bordercolor="#666666"
     borderopacity="1.0"
     inkscape:pageshadow="2"
     inkscape:pageopacity="0.0"
     inkscape:pagecheckerboard="0"
     showgrid="false"
     inkscape:zoom="12.041667"
     inkscape:cx="24"
     inkscape:cy="24"
     inkscape:window-width="1280"
     inkscape:window-height="961"
     inkscape:window-x="-8"
     inkscape:window-y="-8"
     inkscape:window-maximized="1"
     inkscape:current-layer="svg7642" />
  <defs
     id="defs7616">
    <style
       id="style7614">.a{fill:none;stroke:#000;stroke-linecap:round;stroke-linejoin:round;}</style>
  </defs>
  <path
     class="a"
     d="M19.14,22.2a8.93,8.93,0,1,1,9.7.06"
     id="path7618"
     style="stroke-width:2;stroke-miterlimit:4;stroke-dasharray:none" />
  <path
     class="a"
     d="M22.36,33.28a8.93,8.93,0,1,1-4.71-7.88"
     id="path7620"
     style="stroke-width:2;stroke-miterlimit:4;stroke-dasharray:none" />
  <path
     class="a"
     d="M39.41,25.77a8.93,8.93,0,1,1-9.59-.06"
     id="path7622"
     style="stroke-width:2;stroke-miterlimit:4;stroke-dasharray:none" />
  <path
     class="a"
     d="M21.72,18.05A4.2,4.2,0,1,1,26.44,18"
     id="path7624"
     style="stroke-width:2;stroke-miterlimit:4;stroke-dasharray:none" />
  <path
     class="a"
     d="M17.63,33.28a4.2,4.2,0,1,1-2.22-3.7"
     id="path7626"
     style="stroke-width:2;stroke-miterlimit:4;stroke-dasharray:none" />
  <path
     class="a"
     d="M37,29.93a4.15,4.15,0,1,1-4.84-.06"
     id="path7628"
     style="stroke-width:2;stroke-miterlimit:4;stroke-dasharray:none" />
  <path
     class="a"
     d="M21.72,18.05,19.14,22.2"
     id="path7630"
     style="stroke-width:2;stroke-miterlimit:4;stroke-dasharray:none" />
  <path
     class="a"
     d="M17.65,25.4l-2.24,4.18"
     id="path7632"
     style="stroke-width:2;stroke-miterlimit:4;stroke-dasharray:none" />
  <path
     class="a"
     d="M28.84,22.26,26.44,18"
     id="path7634"
     style="stroke-width:2;stroke-miterlimit:4;stroke-dasharray:none" />
  <path
     class="a"
     d="M29.82,25.71l2.37,4.16"
     id="path7636"
     style="stroke-width:2;stroke-miterlimit:4;stroke-dasharray:none" />
  <path
     class="a"
     d="M37,29.93l2.38-4.16"
     id="path7638"
     style="stroke-width:2;stroke-miterlimit:4;stroke-dasharray:none" />
  <path
     class="a"
     d="M22.31,33.28H17.68"
     id="path7640"
     style="stroke-width:2;stroke-miterlimit:4;stroke-dasharray:none" />
</svg>
