<svg xmlns="http://www.w3.org/2000/svg" viewBox="0 0 192 192"><path d="M80.632 174.849c-19.425-4.396-37.412-19.813-45.524-39.023-5.616-13.299-6.627-30.55-2.552-43.541 1.911-6.09 7.211-16.942 10.082-20.64l1.635-2.106 5.85 5.791 5.849 5.79-2.472 3.898c-8.379 13.209-9.047 33.315-1.596 48.075 5.593 11.079 16.753 20.615 28.71 24.53 8.182 2.68 22.252 2.894 29.442.449 12.101-4.116 21.507-11.259 27.626-20.978 4.763-7.567 6.975-14.188 7.514-22.488.663-10.218-.849-17.894-5.206-26.434l-3.616-7.085 5.69-5.646 5.689-5.646 2.133 2.821c5.533 7.317 10.099 19.299 11.572 30.363 4.008 30.117-15.637 60.759-45.084 70.32-5.648 1.835-8.648 2.236-18.533 2.482-8.232.204-13.429-.077-17.209-.932Zm8.891-55.358c-6.742-5.026-5.89-14.911 1.6-18.55 4.703-2.285 8.963-1.525 12.766 2.277 2.389 2.39 2.798 3.387 2.798 6.832 0 4.508-2.413 8.907-5.711 10.41-3.265 1.487-8.783 1.02-11.453-.969ZM75.209 90.293l-5.698-5.742 2.916-2.559c7.245-6.362 19.8-9.768 29.413-7.981 5.673 1.055 13.829 4.739 17.904 8.086l2.527 2.076-5.859 5.936c-5.838 5.915-5.865 5.93-7.593 4.307-6.061-5.694-20.079-5.472-26.591.421-1.167 1.056-1.991.522-7.019-4.544ZM54.485 69.569c-5.271-5.319-5.362-5.486-3.88-7.124 2.14-2.364 14.563-10.571 18.594-12.282 16.037-6.81 35.603-7.142 51.201-.87 6.415 2.58 13.255 6.776 18.135 11.127l3.955 3.525-5.587 5.638-5.586 5.638-4.523-3.381c-10.576-7.906-23.278-11.837-34.772-10.759-9.976.934-20.993 5.475-27.812 11.462-1.549 1.36-3.156 2.472-3.571 2.472-.416 0-3.185-2.451-6.154-5.446ZM34.258 49.341l-5.407-5.455 2.062-2.21c3.804-4.079 15.294-12.221 22.016-15.601 8.862-4.456 19.739-7.997 28.381-9.24 10.185-1.465 28.997-.632 37.893 1.677 14.133 3.669 29.182 11.687 39.979 21.3l4.056 3.612-5.909 5.833-5.91 5.832-3.808-3.511c-15.428-14.22-40.615-21.826-62.065-18.74-14.562 2.094-27.384 7.654-39.069 16.939-3.474 2.761-6.428 5.02-6.564 5.02-.136 0-2.681-2.455-5.655-5.456Z"/></svg>