<?xml version="1.0" encoding="UTF-8" standalone="no"?>
<svg
   viewBox="0 0 48 48"
   version="1.1"
   id="svg2097"
   sodipodi:docname="opennotescanner.svg"
   inkscape:version="1.1.2 (b8e25be833, 2022-02-05)"
   xmlns:inkscape="http://www.inkscape.org/namespaces/inkscape"
   xmlns:sodipodi="http://sodipodi.sourceforge.net/DTD/sodipodi-0.dtd"
   xmlns="http://www.w3.org/2000/svg"
   xmlns:svg="http://www.w3.org/2000/svg">
  <sodipodi:namedview
     id="namedview2099"
     pagecolor="#ffffff"
     bordercolor="#666666"
     borderopacity="1.0"
     inkscape:pageshadow="2"
     inkscape:pageopacity="0.0"
     inkscape:pagecheckerboard="0"
     showgrid="false"
     inkscape:zoom="12.041667"
     inkscape:cx="24"
     inkscape:cy="24"
     inkscape:window-width="1280"
     inkscape:window-height="961"
     inkscape:window-x="-8"
     inkscape:window-y="-8"
     inkscape:window-maximized="1"
     inkscape:current-layer="svg2097" />
  <defs
     id="defs2075">
    <style
       id="style2073">.a{fill:none;stroke:#000;stroke-linecap:round;stroke-linejoin:round;}</style>
  </defs>
  <path
     class="a"
     d="M8.4,33.75v7.8a2,2,0,0,0,1.95,2h7.8"
     id="path2077"
     style="stroke-width:2.51338583;stroke-miterlimit:4;stroke-dasharray:none" />
  <path
     class="a"
     d="M29.85,43.5h7.8a2,2,0,0,0,2-2v-7.8"
     id="path2079"
     style="stroke-width:2.51338583;stroke-miterlimit:4;stroke-dasharray:none" />
  <path
     class="a"
     d="M18.15,4.5h-7.8a2,2,0,0,0-1.95,2v7.8"
     id="path2081"
     style="stroke-width:2.51338583;stroke-miterlimit:4;stroke-dasharray:none" />
  <path
     class="a"
     d="M39.6,14.25V6.45a2,2,0,0,0-2-1.95h-7.8"
     id="path2083"
     style="stroke-width:2.51338583;stroke-miterlimit:4;stroke-dasharray:none" />
  <line
     class="a"
     x1="15.22"
     y1="12.7"
     x2="32.77"
     y2="12.7"
     id="line2085"
     style="stroke-width:2.51338583;stroke-miterlimit:4;stroke-dasharray:none" />
  <line
     class="a"
     x1="32.77"
     y1="20.23"
     x2="15.22"
     y2="20.23"
     id="line2087"
     style="stroke-width:2.51338583;stroke-miterlimit:4;stroke-dasharray:none" />
  <line
     class="a"
     x1="15.22"
     y1="27.77"
     x2="24.97"
     y2="27.77"
     id="line2089"
     style="stroke-width:2.51338583;stroke-miterlimit:4;stroke-dasharray:none" />
  <line
     class="a"
     x1="15.22"
     y1="35.3"
     x2="21.07"
     y2="35.3"
     id="line2091"
     style="stroke-width:2.51338583;stroke-miterlimit:4;stroke-dasharray:none" />
  <path
     class="a"
     d="M26,32.84V35.3H28.4a1,1,0,0,0,.68-.29l8.1-8.11-2.85-2.84-8.1,8.1A1,1,0,0,0,26,32.84Z"
     id="path2093"
     style="stroke-width:2.51338583;stroke-miterlimit:4;stroke-dasharray:none" />
  <path
     class="a"
     d="M39.37,24.7a.74.74,0,0,0,0-1.06h0l-1.72-1.78a.77.77,0,0,0-1.06,0l-2.26,2.21,2.85,2.84Z"
     id="path2095"
     style="stroke-width:2.51338583;stroke-miterlimit:4;stroke-dasharray:none" />
</svg>
