<svg
    xmlns="http://www.w3.org/2000/svg"
    viewBox="0 0 192 192"
    id="vector">
    <path
        id="path"
        d="M 80.632 174.849 C 61.207 170.453 43.22 155.036 35.108 135.826 C 29.492 122.527 28.481 105.276 32.556 92.285 C 34.467 86.195 39.767 75.343 42.638 71.645 L 44.273 69.539 L 50.123 75.33 L 55.972 81.12 L 53.5 85.018 C 45.121 98.227 44.453 118.333 51.904 133.093 C 57.497 144.172 68.657 153.708 80.614 157.623 C 88.796 160.303 102.866 160.517 110.056 158.072 C 122.157 153.956 131.563 146.813 137.682 137.094 C 142.445 129.527 144.657 122.906 145.196 114.606 C 145.859 104.388 144.347 96.712 139.99 88.172 L 136.374 81.087 L 142.064 75.441 L 147.753 69.795 L 149.886 72.616 C 155.419 79.933 159.985 91.915 161.458 102.979 C 165.466 133.096 145.821 163.738 116.374 173.299 C 110.726 175.134 107.726 175.535 97.841 175.781 C 89.609 175.985 84.412 175.704 80.632 174.849 Z M 89.523 119.491 C 82.781 114.465 83.633 104.58 91.123 100.941 C 95.826 98.656 100.086 99.416 103.889 103.218 C 106.278 105.608 106.687 106.605 106.687 110.05 C 106.687 114.558 104.274 118.957 100.976 120.46 C 97.711 121.947 92.193 121.48 89.523 119.491 Z M 75.209 90.293 L 69.511 84.551 L 72.427 81.992 C 79.672 75.63 92.227 72.224 101.84 74.011 C 107.513 75.066 115.669 78.75 119.744 82.097 L 122.271 84.173 L 116.412 90.109 C 110.574 96.024 110.547 96.039 108.819 94.416 C 102.758 88.722 88.74 88.944 82.228 94.837 C 81.061 95.893 80.237 95.359 75.209 90.293 Z M 54.485 69.569 C 49.214 64.25 49.123 64.083 50.605 62.445 C 52.745 60.081 65.168 51.874 69.199 50.163 C 85.236 43.353 104.802 43.021 120.4 49.293 C 126.815 51.873 133.655 56.069 138.535 60.42 L 142.49 63.945 L 136.903 69.583 L 131.317 75.221 L 126.794 71.84 C 116.218 63.934 103.516 60.003 92.022 61.081 C 82.046 62.015 71.029 66.556 64.21 72.543 C 62.661 73.903 61.054 75.015 60.639 75.015 C 60.223 75.015 57.454 72.564 54.485 69.569 Z M 34.258 49.341 L 28.851 43.886 L 30.913 41.676 C 34.717 37.597 46.207 29.455 52.929 26.075 C 61.791 21.619 72.668 18.078 81.31 16.835 C 91.495 15.37 110.307 16.203 119.203 18.512 C 133.336 22.181 148.385 30.199 159.182 39.812 L 163.238 43.424 L 157.329 49.257 L 151.419 55.089 L 147.611 51.578 C 132.183 37.358 106.996 29.752 85.546 32.838 C 70.984 34.932 58.162 40.492 46.477 49.777 C 43.003 52.538 40.049 54.797 39.913 54.797 C 39.777 54.797 37.232 52.342 34.258 49.341 Z"
        fill="#000000"
        stroke-width="12"/>
</svg>
