<svg xmlns="http://www.w3.org/2000/svg" viewBox="0 0 192 192"><path fill="none" stroke="#000" stroke-linecap="round" stroke-linejoin="round" stroke-width="8" d="M166.905 175.5H25.095a8.622 8.622 0 0 1-8.595-8.595V25.095a8.622 8.622 0 0 1 8.595-8.595h141.81a8.622 8.622 0 0 1 8.595 8.595v141.81a8.622 8.622 0 0 1-8.595 8.595Z"/><path fill="none" stroke="#000" stroke-linecap="round" stroke-linejoin="round" stroke-width="8" d="M133.717 114.564V77.436l24.594 37.128V77.436M34.424 110.495a10.383 10.383 0 0 0 9.103 4.067h5.496a9.279 9.279 0 0 0 8.025-4.645 9.27 9.27 0 0 0 1.236-4.637A9.269 9.269 0 0 0 49.023 96H42.95a9.275 9.275 0 0 1-8.024-4.645 9.271 9.271 0 0 1-1.237-4.637 9.275 9.275 0 0 1 4.627-8.035 9.265 9.265 0 0 1 4.634-1.247h5.497a10.384 10.384 0 0 1 9.102 4.067m34.632 20.61v.152a12.305 12.305 0 0 1-6.147 10.651 12.3 12.3 0 0 1-16.799-4.5 12.305 12.305 0 0 1-1.647-6.149V89.735a12.298 12.298 0 1 1 24.595 0v.153m7.766 24.564 12.321-37.014m11.81 37.124-11.81-37.124m7.859 24.705h-16.083"/></svg>