<svg viewBox="0 0 48 48" version="1.1" id="svg7642" xmlns="http://www.w3.org/2000/svg"><defs id="defs7616"><style id="style7614">.a{fill:none;stroke:#000;stroke-linecap:round;stroke-linejoin:round}</style></defs><path class="a" d="M19.14 22.2a8.93 8.93 0 1 1 9.7.06" id="path7618" style="stroke-width:2;stroke-miterlimit:4;stroke-dasharray:none"/><path class="a" d="M22.36 33.28a8.93 8.93 0 1 1-4.71-7.88" id="path7620" style="stroke-width:2;stroke-miterlimit:4;stroke-dasharray:none"/><path class="a" d="M39.41 25.77a8.93 8.93 0 1 1-9.59-.06" id="path7622" style="stroke-width:2;stroke-miterlimit:4;stroke-dasharray:none"/><path class="a" d="M21.72 18.05a4.2 4.2 0 1 1 4.72-.05" id="path7624" style="stroke-width:2;stroke-miterlimit:4;stroke-dasharray:none"/><path class="a" d="M17.63 33.28a4.2 4.2 0 1 1-2.22-3.7" id="path7626" style="stroke-width:2;stroke-miterlimit:4;stroke-dasharray:none"/><path class="a" d="M37 29.93a4.15 4.15 0 1 1-4.84-.06" id="path7628" style="stroke-width:2;stroke-miterlimit:4;stroke-dasharray:none"/><path class="a" d="m21.72 18.05-2.58 4.15" id="path7630" style="stroke-width:2;stroke-miterlimit:4;stroke-dasharray:none"/><path class="a" d="m17.65 25.4-2.24 4.18" id="path7632" style="stroke-width:2;stroke-miterlimit:4;stroke-dasharray:none"/><path class="a" d="M28.84 22.26 26.44 18" id="path7634" style="stroke-width:2;stroke-miterlimit:4;stroke-dasharray:none"/><path class="a" d="m29.82 25.71 2.37 4.16" id="path7636" style="stroke-width:2;stroke-miterlimit:4;stroke-dasharray:none"/><path class="a" d="m37 29.93 2.38-4.16" id="path7638" style="stroke-width:2;stroke-miterlimit:4;stroke-dasharray:none"/><path class="a" d="M22.31 33.28h-4.63" id="path7640" style="stroke-width:2;stroke-miterlimit:4;stroke-dasharray:none"/></svg>