<svg
    xmlns="http://www.w3.org/2000/svg"
    viewBox="0 0 192 192"
    id="vector">
    <path
        id="path"
        d="M 96.513 54.718 C 93.926 54.718 91.443 55.61 89.613 57.196 C 87.784 58.783 86.756 60.937 86.756 63.181 C 86.756 65.424 87.784 67.579 89.613 69.165 C 91.443 70.752 93.926 71.644 96.513 71.644 C 99.099 71.644 101.583 70.752 103.412 69.165 C 105.241 67.579 106.27 65.424 106.27 63.181 C 106.27 60.937 105.241 58.783 103.412 57.196 C 101.583 55.61 99.099 54.718 96.513 54.718 Z M 94.443 71.45 L 76.202 144.33 M 98.583 71.449 L 116.824 144.33 M 118.935 82.63 C 124.014 78.225 127.219 72.451 128.024 66.26 C 128.828 60.07 127.184 53.822 123.363 48.547 C 119.542 43.272 113.765 39.277 106.986 37.219 C 100.207 35.162 92.819 35.162 86.04 37.219 C 79.261 39.277 73.484 43.272 69.663 48.547 C 65.842 53.822 64.198 60.07 65.002 66.26 C 65.806 72.451 69.012 78.225 74.091 82.63 M 134.668 96.276 C 144.782 87.502 150.47 75.59 150.47 63.182 C 150.47 50.774 144.781 38.862 134.666 30.089 C 124.551 21.315 110.817 16.381 96.513 16.381 C 82.208 16.381 68.475 21.315 58.359 30.089 C 48.244 38.862 42.556 50.774 42.555 63.182 C 42.555 75.59 48.243 87.502 58.358 96.276 M 89.091 92.9 L 103.934 92.9 M 84.723 110.162 L 108.303 110.162 M 79.384 131.695 L 113.642 131.695"
        fill="none"
        stroke="#000000"
        stroke-width="8"
        stroke-linecap="round"
        stroke-linejoin="round"/>
    <path
        id="path_1"
        d="M 175.5 172.625 L 118.261 175.651 L 63.277 168.533 L 16.5 174.585 L 43.375 123.332 L 76.409 120.126 L 111.57 123.332 L 149.444 121.731 Z"
        fill="none"
        stroke="#000000"
        stroke-width="8"
        stroke-linecap="round"
        stroke-linejoin="round"/>
</svg>
