<svg xmlns="http://www.w3.org/2000/svg" viewBox="0 0 192 192"><path fill="none" stroke="#000" stroke-linecap="round" stroke-linejoin="round" stroke-width="8" d="M100.301 42.801a4.392 4.392 0 0 0-3.048 1.343A4.482 4.482 0 0 0 96 47.255v78.167c0 1.161.45 2.278 1.253 3.11a4.397 4.397 0 0 0 3.048 1.344h62.352c.775 0 1.535-.206 2.206-.597a4.43 4.43 0 0 0 1.615-1.63 4.494 4.494 0 0 0 .591-2.227V47.143a4.477 4.477 0 0 0-1.331-3.078 4.393 4.393 0 0 0-3.081-1.265h-4.411v55.275l-8.515-8.708-8.558 8.708V42.801Zm15.016 44.539h19.014m-19.014 26.012h41.491m-41.491-13.03h41.491m-41.491-24.12h19.014m-19.014-11.135h19.014m-19.014-11.133h19.014"/><path fill="none" stroke="#000" stroke-linecap="round" stroke-linejoin="round" stroke-width="8" d="M29.165 42.801c-.746 0-1.48.198-2.126.575a4.269 4.269 0 0 0-1.557 1.572 4.325 4.325 0 0 0-.57 2.146v78.329c0 1.161.45 2.278 1.254 3.11a4.396 4.396 0 0 0 3.048 1.343h62.424c.774 0 1.535-.206 2.206-.597a4.435 4.435 0 0 0 1.614-1.63 4.494 4.494 0 0 0 .591-2.227V47.143a4.475 4.475 0 0 0-1.33-3.077 4.394 4.394 0 0 0-3.081-1.265ZM42.096 87.34h42.542m-42.542 26.012h41.491m-41.491-13.03h41.491m-17.963-24.12h19.014M65.624 65.067h19.014M65.624 53.934h19.014"/><path fill="none" stroke="#000" stroke-linecap="round" stroke-linejoin="round" stroke-width="8" d="M35.694 51.652s-1.405.665-1.404 1.454v25.517c-.001.379.146.744.409 1.015.262.272.619.429.995.439h19.659c.382 0 .748-.154 1.018-.426.27-.273.422-.643.422-1.028V53.07a1.46 1.46 0 0 0-.434-1.005 1.433 1.433 0 0 0-1.006-.413Z"/><path fill="none" stroke="#000" stroke-linecap="round" stroke-linejoin="round" stroke-width="8" d="M24.456 58.187H16.5v75.9a7.239 7.239 0 0 0 2.566 4.805 7.109 7.109 0 0 0 5.166 1.616h65.691L96 149.2l6.055-8.692h65.906a7.071 7.071 0 0 0 5.053-1.676 7.198 7.198 0 0 0 2.486-4.746v-75.9h-8.104"/></svg>