<svg viewBox="0 0 48 48" version="1.1" id="svg2097" xmlns="http://www.w3.org/2000/svg"><defs id="defs2075"><style id="style2073">.a{fill:none;stroke:#000;stroke-linecap:round;stroke-linejoin:round}</style></defs><path class="a" d="M8.4 33.75v7.8a2 2 0 0 0 1.95 2h7.8" id="path2077" style="stroke-width:2.51338583;stroke-miterlimit:4;stroke-dasharray:none"/><path class="a" d="M29.85 43.5h7.8a2 2 0 0 0 2-2v-7.8" id="path2079" style="stroke-width:2.51338583;stroke-miterlimit:4;stroke-dasharray:none"/><path class="a" d="M18.15 4.5h-7.8a2 2 0 0 0-1.95 2v7.8" id="path2081" style="stroke-width:2.51338583;stroke-miterlimit:4;stroke-dasharray:none"/><path class="a" d="M39.6 14.25v-7.8a2 2 0 0 0-2-1.95h-7.8" id="path2083" style="stroke-width:2.51338583;stroke-miterlimit:4;stroke-dasharray:none"/><path class="a" id="line2085" style="stroke-width:2.51338583;stroke-miterlimit:4;stroke-dasharray:none" d="M15.22 12.7h17.55"/><path class="a" id="line2087" style="stroke-width:2.51338583;stroke-miterlimit:4;stroke-dasharray:none" d="M32.77 20.23H15.22"/><path class="a" id="line2089" style="stroke-width:2.51338583;stroke-miterlimit:4;stroke-dasharray:none" d="M15.22 27.77h9.75"/><path class="a" id="line2091" style="stroke-width:2.51338583;stroke-miterlimit:4;stroke-dasharray:none" d="M15.22 35.3h5.85"/><path class="a" d="M26 32.84v2.46h2.4a1 1 0 0 0 .68-.29l8.1-8.11-2.85-2.84-8.1 8.1a1 1 0 0 0-.23.68Z" id="path2093" style="stroke-width:2.51338583;stroke-miterlimit:4;stroke-dasharray:none"/><path class="a" d="M39.37 24.7a.74.74 0 0 0 0-1.06h0l-1.72-1.78a.77.77 0 0 0-1.06 0l-2.26 2.21 2.85 2.84Z" id="path2095" style="stroke-width:2.51338583;stroke-miterlimit:4;stroke-dasharray:none"/></svg>