<svg xmlns="http://www.w3.org/2000/svg" id="svg7642" version="1.1" viewBox="0 0 48 48"><defs id="defs7616"><style id="style7614">.a{fill:none;stroke:#000;stroke-linecap:round;stroke-linejoin:round}</style></defs><path id="path7618" d="M19.14 22.2a8.93 8.93 0 1 1 9.7.06" class="a" style="stroke-width:2;stroke-miterlimit:4;stroke-dasharray:none"/><path id="path7620" d="M22.36 33.28a8.93 8.93 0 1 1-4.71-7.88" class="a" style="stroke-width:2;stroke-miterlimit:4;stroke-dasharray:none"/><path id="path7622" d="M39.41 25.77a8.93 8.93 0 1 1-9.59-.06" class="a" style="stroke-width:2;stroke-miterlimit:4;stroke-dasharray:none"/><path id="path7624" d="M21.72 18.05a4.2 4.2 0 1 1 4.72-.05" class="a" style="stroke-width:2;stroke-miterlimit:4;stroke-dasharray:none"/><path id="path7626" d="M17.63 33.28a4.2 4.2 0 1 1-2.22-3.7" class="a" style="stroke-width:2;stroke-miterlimit:4;stroke-dasharray:none"/><path id="path7628" d="M37 29.93a4.15 4.15 0 1 1-4.84-.06" class="a" style="stroke-width:2;stroke-miterlimit:4;stroke-dasharray:none"/><path id="path7630" d="m21.72 18.05-2.58 4.15" class="a" style="stroke-width:2;stroke-miterlimit:4;stroke-dasharray:none"/><path id="path7632" d="m17.65 25.4-2.24 4.18" class="a" style="stroke-width:2;stroke-miterlimit:4;stroke-dasharray:none"/><path id="path7634" d="M28.84 22.26 26.44 18" class="a" style="stroke-width:2;stroke-miterlimit:4;stroke-dasharray:none"/><path id="path7636" d="m29.82 25.71 2.37 4.16" class="a" style="stroke-width:2;stroke-miterlimit:4;stroke-dasharray:none"/><path id="path7638" d="m37 29.93 2.38-4.16" class="a" style="stroke-width:2;stroke-miterlimit:4;stroke-dasharray:none"/><path id="path7640" d="M22.31 33.28h-4.63" class="a" style="stroke-width:2;stroke-miterlimit:4;stroke-dasharray:none"/></svg>