<svg xmlns="http://www.w3.org/2000/svg" viewBox="0 0 192 192"><path d="M159.5 61.346h-36.871a8.233 8.233 0 0 1-4.097-1.092 8.177 8.177 0 0 1-2.999-2.985 8.125 8.125 0 0 1-1.098-4.077V16.5H40.694a8.228 8.228 0 0 0-4.097 1.092 8.17 8.17 0 0 0-2.999 2.985 8.125 8.125 0 0 0-1.098 4.077v142.692c0 1.431.379 2.838 1.098 4.077a8.17 8.17 0 0 0 2.999 2.985 8.228 8.228 0 0 0 4.097 1.092h110.612c2.173 0 4.258-.86 5.794-2.388a8.138 8.138 0 0 0 2.4-5.766ZM114.435 16.5 159.5 61.346" fill="none" stroke="#000" stroke-width="8" stroke-linecap="round" stroke-linejoin="round"/><path d="M85.332 120.059V87.846h5.26a16.285 16.285 0 0 1 11.431 4.731 16.124 16.124 0 0 1 4.754 11.375 16.12 16.12 0 0 1-4.754 11.376 16.285 16.285 0 0 1-11.431 4.731ZM55.558 109.59a10.638 10.638 0 0 0 1.973 6.38 10.72 10.72 0 0 0 5.395 3.965c2.179.714 4.53.714 6.708 0a10.723 10.723 0 0 0 5.396-3.965 10.638 10.638 0 0 0 1.973-6.38V98.718a10.783 10.783 0 0 0-1.45-5.445 10.858 10.858 0 0 0-4.003-3.984 10.92 10.92 0 0 0-5.472-1.443 10.588 10.588 0 0 0-5.374 1.475 10.521 10.521 0 0 0-3.868 3.997 10.449 10.449 0 0 0-1.278 5.4Zm59.439 10.469V87.846h10.52a10.961 10.961 0 0 1 6.456 2.053 10.875 10.875 0 0 1 3.998 5.446 10.83 10.83 0 0 1 0 6.745 10.881 10.881 0 0 1-3.998 5.447 10.961 10.961 0 0 1-6.456 2.053h-10.52m11.289-.026 10.156 10.495" fill="none" stroke="#000" stroke-width="8" stroke-linecap="round" stroke-linejoin="round"/></svg>