<svg xmlns="http://www.w3.org/2000/svg" viewBox="0 0 192 192"><path fill="none" stroke="#000" stroke-linecap="round" stroke-linejoin="round" stroke-width="6" d="M44.979 17.741a28.64 28.64 0 0 1 24.954 14.912 12.218 12.218 0 0 0 14.479 5.719 68.911 68.911 0 0 1 21.42-3.437 69.652 69.652 0 0 1 67.905 54.158 69.667 69.667 0 0 1-37.68 78.266 69.654 69.654 0 0 1-45.717 5.154 69.66 69.66 0 0 1-54.153-67.914 69.005 69.005 0 0 1 2.645-18.683 12.22 12.22 0 0 0-6.323-14.239 28.398 28.398 0 0 1-15.261-31.94 28.395 28.395 0 0 1 27.731-21.996Zm9.927 66.098h11.507"/><path fill="none" stroke="#000" stroke-linecap="round" stroke-linejoin="round" stroke-width="6" d="M60.708 80.639V99.61a2.415 2.415 0 0 1-2.636 2.621 4.403 4.403 0 0 1-4.482-4.297c0-5.433 6.482-8.873 12.205-8.873a7.556 7.556 0 0 1 7.953 6.735c.062 3.507-2.793 6.285-7.666 7.19m5.281-20.541a24.432 24.432 0 0 1 4.036 5.189m5.794.548h20.334M86.13 81.986v12.472m10.271-12.472v9.502a10.961 10.961 0 0 1-8.765 10.755M127.007 82.2a30.11 30.11 0 0 1-17.529 11.841m10.795-4.772v13.268m17.645-18.325h16.029a1.678 1.678 0 0 1 1.679 1.676v2.385a13.317 13.317 0 0 1-12.806 13.352m-84.638 6.958a13.434 13.434 0 0 1-1.441 5.977 13.434 13.434 0 0 1-3.95 4.711m4.146-4.54h17.102m-7.003.071c0 7.751-2.442 12.106-7.829 14.345m22.423-10.662h19.509m8.801-1.175a14.485 14.485 0 0 0 6.363-6.85 1.666 1.666 0 0 1 1.466-.914h8.398a1.542 1.542 0 0 1 1.188.547 1.682 1.682 0 0 1 .42 1.418 21.338 21.338 0 0 1-16.007 17.441m4.451-12.644a27.212 27.212 0 0 1 7.211 4.88m31.316-12.349a30.102 30.102 0 0 1-17.529 11.841m10.791-4.77v13.268"/></svg>