<svg width="24" height="24" fill="none" viewBox="0 0 24 24" xmlns="http://www.w3.org/2000/svg"><path d="m20.11 11.565-.018.218c-.127 1.56-.635 2.04-1.261 2.04-.563 0-.962-.38-.88-1.396l.018-.227c.127-1.551.635-2.041 1.261-2.041.553 0 .962.39.88 1.406m-14.06 0-.018.218c-.127 1.56-.635 2.04-1.261 2.04-.563 0-.962-.38-.88-1.396l.018-.227c.127-1.551.635-2.041 1.261-2.041.553 0 .962.39.88 1.406m13.362-2.939c-.997 0-1.807.307-2.38.943.082-.22.125-.49.13-.807H13.67c-.762 0-1.198.336-1.497 1.197l.154-1.197H8.8c-.646 0-1.09.309-1.25.914-.437-.7-1.214-1.05-2.197-1.05-1.869 0-3.085 1.08-3.302 3.383l-.027.29c-.19 2.06.889 3.076 2.567 3.076 1.868 0 3.084-1.089 3.302-3.393l.027-.29c.049-.528.013-.987-.095-1.379h1.582l-.453 3.883c-.09.77.326 1.125 1.025 1.125.426 0 .571-.028.735-.055l.562-4.953h1.842l-.454 3.883c-.09.77.327 1.125 1.025 1.125.426 0 .572-.027.735-.055l.562-4.953h.907c.314 0 .568-.073.763-.217-.285.504-.472 1.14-.545 1.914l-.027.29c-.19 2.06.889 3.075 2.567 3.075 1.869 0 3.084-1.088 3.302-3.393l.027-.29c.19-2.05-.889-3.066-2.567-3.066" fill="#000"/></svg>