<svg
    xmlns="http://www.w3.org/2000/svg"
    viewBox="0 0 6 6"
    id="vector">
    <path
        id="path"
        d="M 4.891 3.083 L 4.888 3.129 C 4.861 3.459 4.753 3.561 4.621 3.561 C 4.502 3.561 4.417 3.48 4.435 3.265 L 4.438 3.217 C 4.465 2.889 4.573 2.785 4.705 2.785 C 4.822 2.785 4.909 2.868 4.892 3.083 M 1.915 3.083 L 1.912 3.129 C 1.885 3.459 1.777 3.561 1.645 3.561 C 1.526 3.561 1.441 3.48 1.458 3.265 L 1.462 3.217 C 1.489 2.889 1.597 2.785 1.729 2.785 C 1.846 2.785 1.933 2.868 1.915 3.083 M 4.744 2.461 C 4.533 2.461 4.361 2.526 4.24 2.66 C 4.257 2.614 4.266 2.557 4.267 2.49 L 3.528 2.49 C 3.367 2.49 3.275 2.561 3.211 2.743 L 3.244 2.49 L 2.497 2.49 C 2.36 2.49 2.267 2.555 2.233 2.683 C 2.14 2.535 1.976 2.461 1.768 2.461 C 1.372 2.461 1.115 2.689 1.069 3.177 L 1.063 3.238 C 1.023 3.674 1.251 3.889 1.606 3.889 C 2.002 3.889 2.259 3.659 2.305 3.171 L 2.311 3.11 C 2.321 2.998 2.314 2.901 2.291 2.818 L 2.626 2.818 L 2.53 3.64 C 2.511 3.803 2.599 3.878 2.747 3.878 C 2.837 3.878 2.868 3.872 2.902 3.866 L 3.021 2.818 L 3.411 2.818 L 3.315 3.64 C 3.296 3.803 3.384 3.878 3.532 3.878 C 3.622 3.878 3.653 3.872 3.688 3.866 L 3.807 2.818 L 3.999 2.818 C 4.065 2.818 4.119 2.802 4.16 2.772 C 4.1 2.878 4.06 3.013 4.045 3.177 L 4.039 3.238 C 3.999 3.674 4.227 3.889 4.582 3.889 C 4.978 3.889 5.235 3.659 5.281 3.171 L 5.287 3.11 C 5.327 2.676 5.099 2.461 4.744 2.461"
        fill="#000000"
        stroke="#00000000"
        stroke-width="0.00812615"/>
</svg>
