<svg xmlns="http://www.w3.org/2000/svg" viewBox="0 0 192 192"><path d="m157.637 92.707-.139 1.647c-.965 11.799-4.825 15.436-9.582 15.436-4.275 0-7.309-2.882-6.688-10.565l.138-1.716c.965-11.732 4.825-15.436 9.582-15.436 4.207 0 7.309 2.951 6.689 10.634m-106.864 0-.139 1.647c-.964 11.799-4.825 15.436-9.582 15.436-4.275 0-7.308-2.882-6.688-10.565l.137-1.716c.966-11.732 4.827-15.436 9.585-15.436 4.205 0 7.307 2.951 6.687 10.634m101.554-22.228c-7.573 0-13.734 2.323-18.087 7.133.62-1.67.947-3.706.989-6.104h-26.543c-5.791 0-9.101 2.538-11.376 9.056l1.173-9.056h-26.82c-4.91 0-8.281 2.336-9.499 6.911-3.324-5.3-9.229-7.94-16.7-7.94-14.202 0-23.441 8.164-25.096 25.589l-.207 2.196c-1.447 15.574 6.757 23.257 19.511 23.257 14.203 0 23.442-8.232 25.097-25.659l.207-2.194c.373-3.996.1-7.469-.722-10.429h12.028l-3.447 29.364c-.69 5.831 2.482 8.507 7.79 8.507 3.241 0 4.344-.206 5.585-.412l4.275-37.459h13.996l-3.448 29.364c-.689 5.831 2.482 8.507 7.791 8.507 3.24 0 4.344-.206 5.585-.412l4.273-37.459h6.896c2.385 0 4.311-.551 5.798-1.642-2.171 3.806-3.587 8.613-4.144 14.471l-.207 2.196c-1.447 15.574 6.756 23.257 19.511 23.257 14.204 0 23.441-8.232 25.096-25.659l.207-2.194c1.448-15.506-6.756-23.189-19.512-23.189"/></svg>