<svg xmlns="http://www.w3.org/2000/svg" viewBox="0 0 6 6"><path stroke="#00000000" stroke-width=".008" d="m4.891 3.083-.003.046c-.027.33-.135.432-.267.432-.119 0-.204-.081-.186-.296l.003-.048c.027-.328.135-.432.267-.432.117 0 .204.083.187.298m-2.977 0-.003.046c-.027.33-.135.432-.267.432-.119 0-.204-.081-.187-.296l.004-.048c.027-.328.135-.432.267-.432.117 0 .204.083.186.298m2.829-.622c-.211 0-.383.065-.504.199a.518.518 0 0 0 .027-.17h-.739c-.161 0-.253.071-.317.253l.033-.253h-.747c-.137 0-.23.065-.264.193-.093-.148-.257-.222-.465-.222-.396 0-.653.228-.699.716l-.006.061c-.04.436.188.651.543.651.396 0 .653-.23.699-.718l.006-.061a.82.82 0 0 0-.02-.292h.335l-.096.822c-.019.163.069.238.217.238.09 0 .121-.006.155-.012l.119-1.048h.39l-.096.822c-.019.163.069.238.217.238.09 0 .121-.006.156-.012l.119-1.048h.192c.066 0 .12-.016.161-.046-.06.106-.1.241-.115.405l-.006.061c-.04.436.188.651.543.651.396 0 .653-.23.699-.718l.006-.061c.04-.434-.188-.649-.543-.649"/></svg>