<svg xmlns="http://www.w3.org/2000/svg" viewBox="0 0 192 192"><path d="m78.88 160.118-14.952-14.994-8.182-.656c-15.596-1.252-28.672-10.163-35.733-24.351-3.207-6.444-3.81-9.281-3.864-18.184-.055-9.332.565-12.143 5.386-24.392 2.997-7.615 6.2-16.199 7.117-19.077 2.594-8.141 2.114-25.136-.96-33.995-1.448-4.169-2.439-7.581-2.203-7.581.236 0 3.761 2.131 7.833 4.736 42.113 26.94 82.902 26.968 124.923.088 4.147-2.653 7.795-4.824 8.107-4.824.311 0-.342 2.174-1.453 4.831-6.226 14.903-4.943 31.293 4.226 53.986 7.232 17.897 8.319 25.376 5.299 36.478-5.153 18.947-22.294 32.603-40.925 32.603-5.114 0-6.151.767-20.506 15.163-8.316 8.34-16.03 15.163-17.141 15.163-1.112 0-8.749-6.747-16.972-14.994Zm24.928-13.429c6.769-6.88 7.047-7.414 4.57-8.775-1.451-.797-4.862-3.755-7.582-6.574l-4.944-5.125-4.945 5.125c-2.719 2.819-6.131 5.777-7.581 6.574-2.477 1.361-2.199 1.895 4.569 8.775 3.964 4.03 7.545 7.327 7.957 7.327.412 0 3.992-3.297 7.956-7.327Zm-37.623-17.885c18.325-5.086 27.055-25.019 18.099-41.329-9.39-17.101-33.518-19.844-46.318-5.266-11.072 12.611-8.295 33.115 5.775 42.634 7.393 5.002 14.3 6.221 22.444 3.961Zm-13.422-11.133c-9.033-4.594-10.582-17.118-2.914-23.57 5.508-4.634 9.796-5.471 15.092-2.946 9.667 4.61 12.21 16.243 5.104 23.349-4.912 4.912-11.483 6.116-17.282 3.167Zm92.047 9.225c5.093-2.633 11.798-9.726 13.861-14.662 3.836-9.183 1.41-23.437-5.196-30.519-8.751-9.381-24.431-11.623-35.567-5.086-21.61 12.686-17.275 44.922 7.013 52.158 5.341 1.591 14.916.681 19.889-1.891Zm-17.973-8.42c-12.065-4.991-12.111-21.581-.074-27.321 5.296-2.525 9.583-1.688 15.091 2.946 12.139 10.215-.328 30.451-15.017 24.375Z"/></svg>