<svg xmlns="http://www.w3.org/2000/svg" viewBox="0 0 192 192"><path d="M96 58.695a36.766 36.766 0 0 0-21.734 7.124 37.298 37.298 0 0 0-13.433 18.653 37.621 37.621 0 0 0 0 23.056 37.298 37.298 0 0 0 13.433 18.653A36.766 36.766 0 0 0 96 133.305a36.766 36.766 0 0 0 21.734-7.124 37.298 37.298 0 0 0 13.433-18.653 37.621 37.621 0 0 0 0-23.056 37.298 37.298 0 0 0-13.433-18.653A36.766 36.766 0 0 0 96 58.695Z" fill="none" stroke="#000" stroke-width="12" stroke-linecap="round" stroke-linejoin="round"/><path d="M96 77.347a18.411 18.411 0 0 0-13.073 5.464A18.741 18.741 0 0 0 77.512 96c0 4.945 1.949 9.693 5.415 13.189A18.411 18.411 0 0 0 96 114.653c4.902 0 9.607-1.967 13.073-5.464A18.741 18.741 0 0 0 114.488 96c0-4.945-1.949-9.693-5.415-13.189A18.411 18.411 0 0 0 96 77.347Z" fill="none" stroke="#000" stroke-width="12" stroke-linecap="round" stroke-linejoin="round"/><path d="M96 43.773c-21.077 0-41.312 5.506-56.215 15.297C24.882 68.86 16.5 82.154 16.5 96s8.382 27.14 23.285 36.93c14.903 9.791 35.138 15.297 56.215 15.297 21.077 0 41.312-5.506 56.215-15.297C167.118 123.14 175.5 109.846 175.5 96s-8.382-27.14-23.285-36.93C137.312 49.279 117.077 43.773 96 43.773Z" fill="none" stroke="#000" stroke-width="12" stroke-linecap="round" stroke-linejoin="round"/></svg>