<svg xmlns="http://www.w3.org/2000/svg" viewBox="0 0 192 192"><path fill="none" stroke="#000" stroke-linecap="round" stroke-linejoin="round" stroke-width="8" d="m30.013 94.8 94.807 22.84a6.034 6.034 0 0 0 2.882.1c.994-.199 1.822-.629 2.485-1.291l31.801-26.614c-1.723-3.045-4.108-5.495-7.155-7.348-3.048-1.854-6.427-2.781-10.137-2.781H49.295c-4.638 0-8.745 1.423-12.323 4.27-3.577 2.847-5.896 6.455-6.956 10.824h-.003Z"/><path fill="none" stroke="#000" stroke-linecap="round" stroke-linejoin="round" stroke-width="8" d="M30.013 94.8V66.971c0-11.614 9.367-21.03 20.921-21.03h90.132c11.554 0 20.921 9.416 20.921 21.03v22.864"/><path fill="none" stroke="#000" stroke-linecap="round" stroke-linejoin="round" stroke-width="8" d="M48.564 32.443h94.872c17.697 0 32.064 14.442 32.064 32.23v62.919c0 17.642-14.249 31.965-31.8 31.965H48.3c-17.551 0-31.8-14.323-31.8-31.965V64.673c0-17.788 14.368-32.23 32.064-32.23Z"/></svg>