<svg
    xmlns="http://www.w3.org/2000/svg"
    viewBox="0 0 192 192"
    id="vector">
    <path
        id="path"
        d="M 30.013 94.8 L 124.82 117.64 C 125.747 117.905 126.708 117.939 127.702 117.74 C 128.696 117.541 129.524 117.111 130.187 116.449 L 161.988 89.835 C 160.265 86.79 157.88 84.34 154.833 82.487 C 151.785 80.633 148.406 79.706 144.696 79.706 L 49.295 79.706 C 44.657 79.706 40.55 81.129 36.972 83.976 C 33.395 86.823 31.076 90.431 30.016 94.8 L 30.013 94.8 Z"
        fill="none"
        stroke="#000000"
        stroke-width="8"
        stroke-linecap="round"
        stroke-linejoin="round"/>
    <path
        id="path_1"
        d="M 30.013 94.8 L 30.013 66.971 C 30.013 55.357 39.38 45.941 50.934 45.941 L 141.066 45.941 C 152.62 45.941 161.987 55.357 161.987 66.971 L 161.987 89.835"
        fill="none"
        stroke="#000000"
        stroke-width="8"
        stroke-linecap="round"
        stroke-linejoin="round"/>
    <path
        id="path_2"
        d="M 48.564 32.443 L 143.436 32.443 C 161.133 32.443 175.5 46.885 175.5 64.673 L 175.5 127.592 C 175.5 145.234 161.251 159.557 143.7 159.557 L 48.3 159.557 C 30.749 159.557 16.5 145.234 16.5 127.592 L 16.5 64.673 C 16.5 46.885 30.868 32.443 48.564 32.443 Z"
        fill="none"
        stroke="#000000"
        stroke-width="8"
        stroke-linecap="round"
        stroke-linejoin="round"/>
</svg>
