<svg xmlns="http://www.w3.org/2000/svg" viewBox="0 0 192 192"><path d="M43.5 117.438c0-47.022.437-60.238 2.217-67.072C51.808 26.981 68.546 15.8 97.158 16.003c24.86.176 40.285 9.278 47.834 28.226 3.117 7.824 3.508 11.211 3.508 30.417 0 19.217-.39 22.59-3.515 30.434-7.132 17.906-21.537 27.94-40.24 28.031-11.839.058-19.656-2.916-27.336-10.399l-5.589-5.447v24.225c0 25.157-1.274 31.474-6.774 33.584-1.327.509-6.718.926-11.979.926H43.5Zm64.837-12.782c2.569-1.428 5.986-5.529 8.03-9.636 5.07-10.191 5.24-31.51.331-41.65-4.396-9.081-10.768-13.006-21.114-13.006-9.515 0-16.268 3.98-20.139 11.867-3.735 7.611-4.585 27.293-1.619 37.497 4.857 16.705 19.736 23.141 34.511 14.928Z"/></svg>