<svg xmlns="http://www.w3.org/2000/svg" viewBox="0 0 192 192"><path d="M36.912 167.11c-10.795-4.8-19.938-9.026-20.32-9.392-.55-.529-.665-6.245-.554-27.861l.14-27.195 19.238-8.544 19.238-8.545.008-25.241c.005-13.882.216-25.58.47-25.992C55.674 33.464 94.75 16 96.172 16c1.018 0 39.539 16.89 40.682 17.839.52.43.672 6.343.672 26.154v25.596l19.238 8.506L176 102.6v55.335l-20.438 9.032L135.124 176l-19.484-8.58-19.483-8.58-18.734 8.28c-10.304 4.554-19.217 8.378-19.81 8.498-.594.121-9.87-3.69-20.701-8.508zm17.742-20.802v-22.97l-3.026-1.377c-1.665-.757-3.213-1.377-3.44-1.377-.227 0-.59 4.864-.806 10.808-.35 9.605-.502 10.867-1.365 11.342-1.58.87-2.573.075-5.466-4.374-1.507-2.32-2.83-4.328-2.94-4.46-.111-.135-1.292.301-2.625.967-5.418 2.708-5.624 2.292-5.624-11.38V112.22l-4.065-1.905c-2.236-1.048-4.174-1.905-4.305-1.905-.132 0-.235 10.396-.23 23.102l.01 23.103 16.538 7.294c9.096 4.012 16.718 7.311 16.94 7.332.222.022.404-10.298.404-22.934zm22.371 15.587 16.643-7.386.14-23.049c.077-12.677.038-23.049-.087-23.049-.126 0-7.817 3.343-17.092 7.43l-16.863 7.43-.14 23.004c-.078 12.654.061 23.005.308 23.005s7.938-3.323 17.091-7.385zm55.528-15.623-.14-23.008-3.633-1.593-3.632-1.593v22.111l-1.33.623c-1.719.805-2.337.276-5.746-4.918-1.453-2.217-2.766-4.029-2.918-4.029-.15 0-1.222.498-2.383 1.107-2.68 1.407-4.642 1.42-5.362.036-.331-.635-.557-5.56-.557-12.114v-11.043l-2.018-.846a349.219 349.219 0 0 1-4.036-1.727l-2.018-.882v46.236l16.547 7.304c9.1 4.017 16.731 7.312 16.957 7.324.226.011.346-10.333.269-22.988zm22.864 15.388 16.01-7.03v-23.093c0-21.763-.055-23.07-.943-22.725-.517.201-8.084 3.534-16.816 7.406l-15.874 7.04-.14 23.072c-.134 21.83-.09 23.054.806 22.716.521-.196 8.152-3.52 16.957-7.386zm-12.403-1.897c-.744-.765-.824-2.065-.19-3.09.24-.392 4.48-2.452 9.421-4.58 7.424-3.194 9.172-3.76 10.077-3.262.81.445 1.052 1.049.93 2.31-.16 1.654-.453 1.832-9.002 5.497-9.219 3.952-10.174 4.218-11.236 3.125zm-.102-10.673c-.37-.457-.52-1.417-.338-2.159.262-1.076 1.435-1.818 6.028-3.816 3.136-1.364 6.167-2.355 6.735-2.202 1.337.36 1.944 2.755.955 3.772-.973 1-10.46 5.228-11.733 5.228-.54 0-1.282-.37-1.647-.823zm-99.828-34.531c.297-.3 8.167-3.905 17.49-8.011l16.95-7.465-3.767-1.75c-3.237-1.504-3.993-1.667-5.38-1.156-.889.326-8.88 3.8-17.759 7.719l-16.144 7.125-.147 9.21c-.081 5.064-.008 9.207.161 9.207.17 0 1.035-.386 1.924-.858 2.035-1.083 3.43-.637 4.643 1.483.947 1.655.954 1.618 1.222-6.648.148-4.571.511-8.557.807-8.856zm77.802.163c.302-.375 8.044-3.984 17.204-8.02 9.16-4.034 16.655-7.502 16.655-7.706 0-.203-1.66-1.057-3.688-1.896l-3.686-1.526-17.838 7.863-17.839 7.863v9.128c0 8.479.068 9.1.943 8.725 4.146-1.78 3.92-1.794 5.718.385l1.68 2.037.15-8.086c.082-4.453.397-8.391.7-8.767zm-47.843-2.746c8.643-3.822 15.943-7.093 16.223-7.271.278-.177-.842-.907-2.491-1.622l-2.997-1.3-15.701 6.917c-8.635 3.805-15.957 7.082-16.27 7.28-.475.302 3.856 2.751 5.126 2.899.217.025 7.466-3.081 16.11-6.903zm78.069-.095c8.804-3.887 16.008-7.22 16.008-7.408.001-.188-1.233-.87-2.743-1.514l-2.743-1.172-16.08 7.047c-8.845 3.875-16.085 7.203-16.09 7.393-.009.28 4.373 2.454 5.37 2.665.148.031 7.473-3.123 16.278-7.01zM45.142 100.86a6891.06 6891.06 0 0 1 16.49-7.251l1.864-.806-3.133-1.36-3.134-1.358-16.086 7.082c-8.847 3.894-16.08 7.209-16.075 7.365.008.217 4.362 2.465 5.274 2.724.097.027 6.755-2.851 14.8-6.396zm79.017-.507c8.683-3.823 15.982-7.148 16.22-7.39.237-.24-.83-.995-2.373-1.677l-2.806-1.242-16.057 7.062c-8.832 3.883-16.058 7.224-16.058 7.42 0 .199 1.15.88 2.556 1.515 1.406.634 2.595 1.179 2.645 1.209.048.03 7.191-3.073 15.873-6.897zM93.936 77.676V54.688l-3.547-1.637c-1.951-.9-3.646-1.636-3.766-1.636-.122 0-.22 4.825-.22 10.722 0 11.536-.168 12.252-2.795 11.87-.858-.125-2.16-1.568-4.22-4.68l-2.978-4.499-2.403 1.292c-2.86 1.538-3.922 1.638-5.054.472-.714-.733-.846-2.627-.846-12.09V43.278l-3.836-1.743c-2.11-.958-4.047-1.742-4.305-1.742-.259 0-.47 10.252-.47 22.865v22.864l16.818 7.503c9.248 4.126 16.997 7.532 17.22 7.57.221.037.402-10.276.402-22.92zm26.234 13.472 12.512-5.572v-22.95c0-21.62-.055-22.93-.942-22.603-.518.192-8.141 3.517-16.94 7.392l-15.998 7.043-.011 23.082-.011 23.081 4.44-1.95c2.441-1.074 10.07-4.46 16.95-7.523zM82.246 45.475c.362-.286 7.924-3.7 16.803-7.587 8.879-3.887 16.334-7.249 16.566-7.47.233-.22-1.227-1.152-3.244-2.068l-3.666-1.665-17.743 7.82-17.742 7.822-.149 9.27-.147 9.267 1.6-.851c2.676-1.422 4.104-1.105 5.512 1.224l1.255 2.075.148-8.659c.103-6.025.348-8.817.807-9.178zm30.174-2.549c8.485-3.755 15.565-6.971 15.735-7.147.312-.32-4.314-2.625-5.267-2.625-.533 0-28.771 12.33-31.104 13.58l-1.345.723 2.422 1.137c1.331.625 2.806 1.142 3.278 1.149.47.006 7.798-3.061 16.281-6.817zM85.94 31.184c8.676-3.823 15.86-7.04 15.967-7.147.273-.281-4.727-2.504-5.633-2.504-.416 0-7.918 3.173-16.674 7.05L63.682 35.63l2.617 1.245c1.438.684 2.897 1.247 3.241 1.25.345.005 7.725-3.12 16.4-6.942z" style="fill:#000;stroke:none;stroke-opacity:1;stroke-width:1;stroke-dasharray:none;stroke-linejoin:round;fill-opacity:1"/></svg>