<svg xmlns="http://www.w3.org/2000/svg" viewBox="0 0 192 192"><path d="M49.689 175.549c0-.215 1.21-3.227 2.69-6.694 2.063-4.837 3.816-7.196 7.533-10.137 10.17-8.049 21.996-24.056 27.556-37.298.873-2.08 1.825-3.787 2.114-3.792.29-.006 2.402 1.9 4.693 4.235l4.166 4.245-3.97 7.896c-8.465 16.837-17.149 27.915-26.983 34.424-7.151 4.733-17.799 8.993-17.799 7.121Zm-15.667-29.986c7.097-15.85 10.025-28.69 12.248-53.703 1.645-18.503 3.57-28.43 7.825-40.338 7.431-20.802 18.067-30.82 36.767-34.633 13.622-2.777 24.624 1.106 35.988 12.7 7.67 7.825 11.195 14.419 14.324 26.792 2.58 10.203 2.191 22.866-.956 31.105-6.568 17.197-28.493 30.414-43.489 26.215-3.066-.858-6.338-2.959-10.249-6.58-3.161-2.926-5.842-5.151-5.959-4.944-.118.206-1.952 3.874-4.077 8.151-5.916 11.905-12.46 21.037-20.369 28.423-5.766 5.385-8.735 7.325-15 9.801-4.296 1.697-8.253 3.086-8.792 3.086-.539 0 .243-2.733 1.739-6.075Zm72.69-67.896c10.962-6.775 10.962-22.187 0-28.962-4.494-2.778-12.351-2.778-16.845 0-10.777 6.661-11.028 21.444-.487 28.607 4.655 3.163 12.528 3.324 17.332.355Zm4.593 53.08c-2.674-1.332-6.15-3.8-7.724-5.484l-2.861-3.062 2.43.675c5.561 1.546 9.845 1.712 14.74.573 16.431-3.823 30.009-17.625 32.989-33.533 2.073-11.066-.709-28.607-6.044-38.106-3.213-5.72-1.469-5.871 2.773-.24 8.423 11.179 12.898 24.473 12.879 38.258-.017 13.063-4.401 23.549-13.213 31.602-7.777 7.108-18.506 11.654-27.652 11.716-1.9.014-5.643-1.066-8.317-2.399Z"/></svg>