<svg xmlns="http://www.w3.org/2000/svg" viewBox="0 0 192 192"><path fill="none" stroke="#000" stroke-linecap="round" stroke-linejoin="round" stroke-width="8" d="M39.214 16.5a22.722 22.722 0 0 0-16.061 6.653A22.722 22.722 0 0 0 16.5 39.214a22.726 22.726 0 0 0 6.653 16.062 22.72 22.72 0 0 0 32.123 0 22.72 22.72 0 0 0 0-32.123A22.726 22.726 0 0 0 39.214 16.5Zm113.572 0a22.724 22.724 0 0 0-16.062 6.653 22.72 22.72 0 0 0 0 32.123 22.72 22.72 0 0 0 32.123 0 22.726 22.726 0 0 0 6.653-16.062 22.722 22.722 0 0 0-6.653-16.061 22.722 22.722 0 0 0-16.061-6.653ZM96 16.5a22.722 22.722 0 0 0-16.061 6.653 22.722 22.722 0 0 0-6.653 16.061 22.726 22.726 0 0 0 6.653 16.062A22.72 22.72 0 0 0 96 61.928a22.72 22.72 0 0 0 16.061-6.652A22.717 22.717 0 0 0 96 16.5ZM39.214 73.286a22.722 22.722 0 0 0-16.061 6.653A22.722 22.722 0 0 0 16.5 96a22.722 22.722 0 0 0 6.653 16.061 22.722 22.722 0 0 0 16.061 6.653 22.726 22.726 0 0 0 16.062-6.653A22.72 22.72 0 0 0 61.928 96a22.72 22.72 0 0 0-6.652-16.061 22.726 22.726 0 0 0-16.062-6.653Zm0 56.786a22.717 22.717 0 0 0-21.602 15.695 22.718 22.718 0 0 0 8.251 25.395 22.717 22.717 0 0 0 26.702 0 22.718 22.718 0 0 0 0-36.752 22.717 22.717 0 0 0-13.351-4.338ZM96 73.286a22.722 22.722 0 0 0-16.061 6.653A22.722 22.722 0 0 0 73.286 96a22.722 22.722 0 0 0 6.653 16.061A22.722 22.722 0 0 0 96 118.714 22.717 22.717 0 0 0 118.714 96 22.717 22.717 0 0 0 96 73.286Zm0 56.786a22.717 22.717 0 0 0-21.603 15.695 22.718 22.718 0 0 0 8.252 25.395 22.717 22.717 0 0 0 26.702 0 22.718 22.718 0 0 0 0-36.752A22.717 22.717 0 0 0 96 130.072Zm56.786-56.786a22.724 22.724 0 0 0-16.062 6.653A22.72 22.72 0 0 0 130.072 96a22.72 22.72 0 0 0 6.652 16.061 22.724 22.724 0 0 0 16.062 6.653 22.722 22.722 0 0 0 16.061-6.653A22.722 22.722 0 0 0 175.5 96a22.722 22.722 0 0 0-6.653-16.061 22.722 22.722 0 0 0-16.061-6.653Zm0 56.786a22.717 22.717 0 0 0-21.603 15.695 22.718 22.718 0 0 0 8.252 25.395 22.717 22.717 0 0 0 26.702 0 22.718 22.718 0 0 0 8.251-25.395 22.713 22.713 0 0 0-21.602-15.695Z"/><path fill="none" stroke="#000" stroke-linecap="round" stroke-linejoin="round" stroke-width="8" d="M152.786 30.62a8.6 8.6 0 0 0-6.078 2.517 8.598 8.598 0 0 0 0 12.155 8.6 8.6 0 0 0 6.078 2.517 8.598 8.598 0 0 0 8.199-5.934 8.596 8.596 0 0 0-8.199-11.255Zm0 56.785a8.596 8.596 0 0 0 0 17.19A8.599 8.599 0 0 0 161.38 96a8.596 8.596 0 0 0-8.594-8.595Zm-56.786 0A8.597 8.597 0 0 0 87.405 96 8.597 8.597 0 0 0 96 104.595 8.597 8.597 0 0 0 104.595 96 8.597 8.597 0 0 0 96 87.405Zm56.786 56.786a8.6 8.6 0 0 0-6.078 2.517 8.598 8.598 0 0 0 0 12.155 8.598 8.598 0 0 0 12.155 0 8.598 8.598 0 0 0 0-12.155 8.598 8.598 0 0 0-6.077-2.517Z"/></svg>