<svg xmlns="http://www.w3.org/2000/svg" viewBox="0 0 192 192"><path d="M41.455 165.091v-10.909h54.047l4.672-6.127c5.046-6.616 12.171-12.05 18.734-14.287 2.266-.772 10.312-1.404 17.879-1.404h13.758v21.818H98.151l-9.257 9.478C77.761 175.058 75.216 176 55.556 176H41.455ZM18.424 91.827V79.169l6.362.049c9.801.076 14.136 3.272 14.206 10.473.053 5.506-4.504 9.945-10.21 9.945-3.489 0-4.297.456-4.297 2.425 0 1.777-.808 2.424-3.03 2.424h-3.031Zm13.206.084c2.025-2.439.311-5.608-3.032-5.608-2.231 0-2.901.653-2.901 2.828 0 4.569 3.203 6.07 5.933 2.78Zm35.279 11.363c0-.755.536-2.374 1.191-3.597.894-1.672.292-4.205-2.425-10.197-4.399-9.702-4.436-10.45-.525-10.45 2.455 0 3.554 1.037 5.348 5.044l2.258 5.043 1.511-5.043c1.312-4.379 1.965-5.044 4.955-5.044 1.895 0 3.428.409 3.407.909-.02.5-2.078 6.091-4.573 12.425-4.056 10.296-4.886 11.555-7.842 11.898-1.878.218-3.305-.209-3.305-.988Zm100.606-1.213c0-1.919-.821-2.433-3.939-2.463-6.762-.066-11.052-5.566-9.732-12.475.997-5.216 5.475-7.92 13.118-7.92h6.614v25.282h-3.031c-2.222 0-3.03-.647-3.03-2.424Zm-1.225-10.288c2.16-2.602.561-5.717-2.696-5.252-3.107.443-4.409 4.427-1.956 5.982 2.273 1.44 2.938 1.336 4.652-.73Zm-123.535 4.67c-3.123-3.97-3.235-10.192-.25-13.877 1.848-2.283 3.732-2.888 10.303-3.306l8.04-.512v20.888h-7.79c-6.973 0-8.055-.335-10.303-3.193Zm9.425-3.94c2.453-1.555 1.151-5.539-1.955-5.982-3.258-.465-4.857 2.65-2.697 5.252 1.714 2.066 2.379 2.17 4.652.73Zm32.942 4.74c-3.328-3.328-4.177-7.729-2.261-11.716 3.146-6.545 10.086-8.091 16.169-3.601 3.351 2.473.821 4.891-5.172 4.944-3.758.032-4.59.502-4.913 2.772-.446 3.144 2.611 4.901 5.032 2.892 1.159-.963 2.309-.804 4.304.593 2.587 1.812 2.619 2.02.638 4.208-2.847 3.146-10.611 3.094-13.797-.092Zm19.453-.541c-3.995-4.252-3.777-11.256.462-14.903 6.924-5.955 16.418-1.402 16.418 7.874 0 9.137-10.71 13.596-16.88 7.029Zm9.594-4.929c2.16-2.602.561-5.717-2.697-5.252-3.106.443-4.408 4.427-1.955 5.982 2.272 1.44 2.938 1.336 4.652-.73Zm9.71-2.37V79.169l6.129.048c8.995.069 12.03 3.091 12.916 12.857l.685 7.562h-3.741c-3.659 0-3.749-.14-4.108-6.363-.313-5.434-.72-6.364-2.79-6.364-2.07 0-2.478.93-2.791 6.364-.336 5.844-.609 6.363-3.333 6.363-2.914 0-2.967-.184-2.967-10.233Zm21.818-.07c0-10.181.036-10.303 3.03-10.303 2.995 0 3.031.122 3.031 10.303 0 10.182-.036 10.303-3.031 10.303-2.994 0-3.03-.121-3.03-10.303Zm-.521-13.548c-.988-2.575 2.135-5.81 4.669-4.837 1.052.403 1.913 2.114 1.913 3.802 0 2.428-.606 3.068-2.901 3.068-1.597 0-3.251-.914-3.681-2.033Zm-87.358-11.91c-10.27-3.633-17.454-15.769-15.813-26.713C43.719 25.729 54.89 16 66.303 16c9.821 0 20.991 7.809 23.081 16.135.45 1.792 1.091 3.259 1.425 3.259.334 0 5.5-3.592 11.48-7.981 5.981-4.39 12.872-8.816 15.314-9.836 6.449-2.695 16.327-1.416 22.573 2.922 14.707 10.212 13.382 33.839-2.358 42.06-3.417 1.784-7.063 2.525-12.351 2.51-6.365-.019-8.295-.577-12.727-3.682-2.93-2.052-6.593-6.178-8.341-9.393l-3.117-5.734-10.217 7.44C74.501 65.763 68.417 67.625 57.818 63.875Zm15.059-15.862c2.766-2.327 3.729-4.163 3.729-7.107 0-5.16-4.997-10.361-9.955-10.361-4.604 0-10.651 5.85-10.651 10.303 0 4.14 6.053 10.304 10.117 10.304 1.667 0 4.709-1.413 6.76-3.139Zm60.148.163c6.216-6.216 1.944-17.631-6.599-17.631-5.565 0-10.305 4.74-10.305 10.303 0 8.958 10.655 13.577 16.904 7.328Z" fill="#333"/></svg>