<svg xmlns="http://www.w3.org/2000/svg" viewBox="0 0 192 192"><path fill="none" stroke="#000" stroke-linecap="round" stroke-linejoin="round" stroke-width="8" d="M60.089 48.997a70.227 70.227 0 0 0-4.858 3.193l-9.397-9.515c-4.478-4.475-11.746-4.481-16.233-.016a.12.12 0 0 1-.016.016c-4.441 4.452-4.441 11.646 0 16.097l9.756 9.586a69.413 69.413 0 0 0-13.235 40.635v14.652h139.415v-14.652c.048-14.6-4.226-28.844-12.761-40.706l9.792-9.658c4.457-4.44 4.461-11.641.01-16.087l-.01-.009c-4.432-4.465-11.654-4.502-16.131-.082a3.17 3.17 0 0 0-.082.082l-9.757 9.657a69.834 69.834 0 0 0-5.468-3.554m-64.66 57.648c-6.242.017-11.317-5.016-11.335-11.241-.018-6.226 5.03-11.287 11.272-11.304 6.243-.018 11.318 5.015 11.336 11.241v.063c0 6.208-5.047 11.241-11.273 11.241h-.063.063Zm58.477.452c-6.243.052-11.346-4.953-11.398-11.178-.052-6.226 4.967-11.315 11.21-11.367 6.242-.052 11.345 4.954 11.397 11.179v.125c0 6.208-5.047 11.241-11.272 11.241h.063Zm-98.825 17.285v43.964c0 4.15 3.374 7.515 7.536 7.515h124.342c4.145 0 7.536-3.382 7.536-7.515v-44.34"/><path fill="none" stroke="#000" stroke-linecap="round" stroke-linejoin="round" stroke-width="8" d="m66.423 123.645 29.39 29.685 29.024-29.685M95.459 39.638v-6.315m-5.376 5.043-8.506-3.676m13.882 13.007c18.725 0 44.88-5.655 44.88-11.687 0-6.032-18.996-19.51-44.88-19.51-25.884 0-44.881 13.478-44.881 19.51 0 6.032 26.156 11.687 44.881 11.687Z"/><path fill="none" stroke="#000" stroke-linecap="round" stroke-linejoin="round" stroke-width="8" d="M131.502 42.213v5.484c0 3.346-17.815 11.498-36.043 11.498-18.229 0-36.044-8.152-36.044-11.498v-5.484m41.419-3.847 8.506-3.676m-21.877 88.955 5.389 7.934m10.553 13.713-4.998-13.713h-5.555l-4.997 13.713m15.942-21.647-5.39 7.934"/><path d="M66.423 141.057a3.227 3.227 0 0 0-3.074 2.227 3.213 3.213 0 0 0 1.174 3.603 3.24 3.24 0 0 0 3.8 0 3.213 3.213 0 0 0 0-5.215 3.24 3.24 0 0 0-1.9-.615Zm0 14.217c-.857 0-1.679.34-2.285.944a3.218 3.218 0 0 0 0 4.558 3.238 3.238 0 0 0 4.57 0 3.22 3.22 0 0 0 0-4.558 3.238 3.238 0 0 0-2.285-.944Zm58.414-14.217a3.227 3.227 0 0 0-3.074 2.227 3.213 3.213 0 0 0 1.174 3.603 3.238 3.238 0 0 0 4.974-1.611c.21-.648.21-1.345 0-1.992a3.227 3.227 0 0 0-3.074-2.227Zm0 14.217c-.857 0-1.68.34-2.285.944a3.218 3.218 0 0 0 0 4.558 3.236 3.236 0 0 0 4.57 0 3.22 3.22 0 0 0 0-4.558 3.238 3.238 0 0 0-2.285-.944Z"/><path fill="none" stroke="#000" stroke-linecap="round" stroke-linejoin="round" stroke-width="8" d="M144.047 135.941h5.074m-123.015 7.217c10.806 0 19.567-8.736 19.567-19.513"/></svg>