<svg xmlns="http://www.w3.org/2000/svg" viewBox="0 0 192 192"><path d="M169.023 26.835c-.353-1.765-1.765-3.177-3.177-3.177-21.533-6.708-54.01 7.413-81.191 34.594-10.943 10.943-20.121 23.651-26.828 36.006-1.059 1.765-.706 4.236 1.059 6.001l33.535 33.535c1.412 1.412 3.883 1.765 6.001 1.059 12.708-6.354 24.71-15.532 36.007-26.828 26.828-27.534 40.948-60.01 34.594-81.19ZM121.72 91.787c-6.001 6.001-15.179 6.001-21.18 0-6.001-6.001-6.001-15.179 0-21.18l14.12-14.12c6.001-6.001 15.18-6.001 21.181 0 6.001 6.001 6.001 15.179 0 21.18Zm-37.771 46.949-30.358-30.358-12.355 7.413c-1.412.706-2.118 2.118-2.471 3.883-.353 1.765.706 2.824 1.765 3.883l28.24 28.24c1.059 1.059 2.471 1.765 4.236 1.412 1.765-.353 3.177-1.059 3.883-2.471Zm-34.594-49.42c6.707-13.061 16.591-26.475 28.24-38.124C58.18 56.487 40.177 67.43 25.704 81.903l-2.824 2.824c-1.412 1.412-1.765 3.177-1.059 5.295 0 .706.706 1.412 1.059 1.765.706.706 1.765 1.059 2.824 1.412l22.239 2.471c0-2.118.353-4.589 1.412-6.354Zm92.134 25.063c-12.002 12.002-25.417 21.886-38.478 28.593-1.765 1.059-4.236 1.412-6.354 1.412l2.471 21.533c.353 1.059.706 2.118 1.412 2.824.353.353 1.059 1.059 1.765 1.059 1.765.353 3.883.353 5.295-1.059l2.824-2.824c14.473-13.767 25.417-31.77 31.065-51.538Z"/></svg>