<svg width="24" height="24" fill="none" viewBox="0 0 24 24" xmlns="http://www.w3.org/2000/svg"><path d="M3.916 22a.864.864 0 0 1-.208-.033 1.021 1.021 0 0 1-.667-.545 1.641 1.641 0 0 1-.17-.601c-.02-6.11-.013-9.515-.01-17.56.02-.325.104-.597.25-.809a.924.924 0 0 1 .126-.15c.17-.17.353-.26.604-.295.059-.01.25-.01.316 0 .173.024.33.07.507.146.056.024.166.079.203.101l.175.1.286.159.194.108.195.109.41.228.195.11.57.317.749.418c.176.1.368.206.426.238l.265.148.303.169.284.158a22.129 22.129 0 0 0 .386.216l.141.077H5.755v12.148c.02.157.086.29.198.403.104.103.238.17.394.198 2.14.014 3.32.01 5.982.01-2.595 1.448-4.867 2.716-7.44 4.15-.275.154-.52.24-.76.265-.052.002-.208.016-.214.017zm2.757-4.703a.67.67 0 0 1-.346-.1.61.61 0 0 1-.17-.175.883.883 0 0 1-.113-.275V7.412h12.981c-.004 2.146.01 4.302-.01 6.444-2.192 1.182-4.414 2.437-6.209 3.44-2.044.001-4.089.002-6.133.001zm2.55-3.192a.816.816 0 0 0 .26-.088.89.89 0 0 0 .346-.31.88.88 0 0 0 .108-.25.74.74 0 0 0 .023-.225.683.683 0 0 0-.05-.267l-.016-.045.047-.046c.505-.49.968-.926 1.469-1.4a.96.96 0 0 0 .641.015c.026-.01.05-.015.052-.017.19.17.397.376.596.567l.02.018-.013.033a.844.844 0 0 0 .37 1.038c.168.096.34.137.532.128a.928.928 0 0 0 .636-.304.833.833 0 0 0 .15-.893c.513-.495 1.031-.991 1.511-1.45l.013.01c.04.015.113.037.151.044a.777.777 0 0 0 .183.017c.093 0 .141-.01.22-.025a.886.886 0 0 0 .439-.248.832.832 0 0 0 .046-1.139.869.869 0 0 0-.4-.266.894.894 0 0 0-.307-.05.87.87 0 0 0-.298.05.9.9 0 0 0-.55.512.89.89 0 0 0 0 .61l.012.03-1.51 1.446-.05-.017a.848.848 0 0 0-.324-.05.739.739 0 0 0-.276.05.267.267 0 0 1-.052.015c-.204-.19-.431-.414-.61-.587l.01-.024a.834.834 0 0 0-.1-.8.926.926 0 0 0-.308-.269.94.94 0 0 0-.489-.103.923.923 0 0 0-.5.174c-.053.038-.165.149-.198.196a.93.93 0 0 0-.152.385.827.827 0 0 0 .051.418l.01.023-.024.023c-.426.406-.958.917-1.451 1.39l-.04.035-.034-.013a.936.936 0 0 0-.89.146.849.849 0 0 0-.323.581c-.01.083 0 .193.017.276.012.049.048.15.065.185a.92.92 0 0 0 .344.361c.1.06.184.091.291.11a.851.851 0 0 0 .2.015c.07 0 .1 0 .15-.012zm10.051-3.81s1.016.56 1.105.613c.32.192.553.431.67.686a.95.95 0 0 1 .07.594c-.063.297-.273.58-.603.813-.466.287-.732.425-1.247.712.005-1.14.006-2.279.005-3.419zM6.044 5.07h12.973v2.09H6.037c.006-.697.006-1.393.006-2.09z" fill="#000"/></svg>