<svg xmlns="http://www.w3.org/2000/svg" viewBox="0 0 48 48"><path fill="none" stroke="#000" stroke-linecap="round" stroke-linejoin="round" stroke-width="2" d="M34.42 14.987a2.244 2.244 0 0 1-2.235-2.235v-1.453a2.243 2.243 0 0 1 2.235-2.235 2.244 2.244 0 0 1 2.235 2.235v1.453a2.247 2.247 0 0 1-.656 1.579 2.247 2.247 0 0 1-1.579.656ZM21.34 9.064v3.688a2.24 2.24 0 0 0 2.235 2.235 2.244 2.244 0 0 0 2.235-2.235V9.064m0 3.688v2.235m3.539-7.823v7.823M28.12 9.064h2.347M18.189 6.047v7.823a1.06 1.06 0 0 0 .263.764 1.062 1.062 0 0 0 .854.354h.335m-8.273-2.236a2.24 2.24 0 0 0 2.235 2.235 2.243 2.243 0 0 0 2.235-2.235v-1.453a2.24 2.24 0 0 0-2.235-2.235 2.244 2.244 0 0 0-2.235 2.235m0-2.235v8.941m17.421 9.952v6.117a1.706 1.706 0 0 0 1.706 1.706"/><path fill="none" stroke="#000" stroke-linecap="round" stroke-linejoin="round" stroke-width="2" d="M27.559 29.857h5.242l2.235 5.923 2.235-5.923"/><path fill="none" stroke="#000" stroke-linecap="round" stroke-linejoin="round" stroke-width="2" d="M32.415 21.784a10.086 10.086 0 0 0-5.944 18.255 10.085 10.085 0 0 0 5.944 1.914c2.674 0 5.241-1.063 7.131-2.953a10.085 10.085 0 0 0-7.131-17.216Z"/><path fill="none" stroke="#000" stroke-linecap="round" stroke-linejoin="round" stroke-width="2" d="M22.331 31.869a10.08 10.08 0 0 1 7.281-9.682 10.09 10.09 0 0 0-12.222 6.026 10.09 10.09 0 0 0 4.939 12.701 10.089 10.089 0 0 0 7.283.636 10.085 10.085 0 0 1-7.281-9.681Z"/><path fill="none" stroke="#000" stroke-linecap="round" stroke-linejoin="round" stroke-width="2" d="M11.129 31.869a10.08 10.08 0 0 1 7.281-9.682 10.09 10.09 0 0 0-12.222 6.026 10.09 10.09 0 0 0 4.939 12.701 10.089 10.089 0 0 0 7.283.636 10.085 10.085 0 0 1-7.281-9.681Z"/><path fill="none" stroke="#000" stroke-linecap="round" stroke-linejoin="round" stroke-width="2" d="M16.724 31.869a10.087 10.087 0 0 1 7.282-9.682 10.089 10.089 0 0 0-12.222 6.026 10.09 10.09 0 0 0 4.939 12.701 10.089 10.089 0 0 0 7.283.636 10.081 10.081 0 0 1-7.282-9.681Z"/></svg>