<svg xmlns="http://www.w3.org/2000/svg" viewBox="0 0 192 192"><path d="m32.24 61.835 6.472 88.714L95.447 175.5l56.858-24.951 7.455-88.714H32.281m9.053 7.38h8.193M68.124 69.215h65.051" fill="none" stroke="#000" stroke-width="6" stroke-linecap="round" stroke-linejoin="round"/><path d="M142.473 69.215h8.193l-.778 8.113M148.003 97.06l-2.826 29.598M144.235 136.525l-.779 8.113-7.414 3.424M125.187 153.036l-16.263 7.42M103.517 162.943l-7.456 3.425-7.455-3.384M77.71 157.969l-16.386-7.461M55.835 148.022l-7.414-3.384-.779-8.113M45.799 116.792l-2.786-29.598M42.112 77.328l-.778-8.113m19.13-7.38L72.466 16.5l37.359 9.662-9.094 35.673m-31.255-33.96 16.385 4.443M65.257 43.815l16.18 4.444M63.29 51.725l10.979 2.894m-6.882-18.631 10.568 2.813M61.119 59.43l8.521 2.405m40.062 0 4.383-10.885 9.545 4.077-1.557 7.053m-6.431-10.722 2.909-7.787 6.431 2.242-2.991 8.154" fill="none" stroke="#000" stroke-width="6" stroke-linecap="round" stroke-linejoin="round"/><path d="M118.551 43.571c-.492-7.379.45-22.056 12.575-25.766 5.53 9.988.82 20.71-6.144 28.008m18.843 8.399-3.809 7.623m-10.815 0 5.53-12.23m-1.147-1.387 14.051-13.902-1.844 19.651a12.338 12.338 0 0 1-7.014-1.032 12.265 12.265 0 0 1-5.275-4.717" fill="none" stroke="#000" stroke-width="6" stroke-linecap="round" stroke-linejoin="round"/></svg>