<svg xmlns="http://www.w3.org/2000/svg" viewBox="0 0 192 192"><path fill="none" stroke="#000" stroke-linecap="round" stroke-linejoin="round" stroke-width="12" d="M96.057 83.045a12.936 12.936 0 0 0-12.303 8.942 12.94 12.94 0 0 0 12.303 16.94 12.937 12.937 0 0 0 12.303-16.94 12.937 12.937 0 0 0-12.303-8.942Zm31.417 12.941a31.42 31.42 0 0 0-31.417-31.428m-8.554 1.179a31.429 31.429 0 0 0-22.73 33.139 31.426 31.426 0 0 0 28.419 28.407 31.42 31.42 0 0 0 33.11-22.763M64.64 169.025V95.986m81.315 0a49.93 49.93 0 0 0-6.685-24.957 49.896 49.896 0 0 0-43.213-24.958"/><path fill="none" stroke="#000" stroke-linecap="round" stroke-linejoin="round" stroke-width="12" d="M96.057 16.491a79.48 79.48 0 0 0-55.013 22.08 79.533 79.533 0 0 0-24.432 54.024 79.539 79.539 0 0 0 19.74 55.911 79.485 79.485 0 0 0 52.931 26.69 79.474 79.474 0 0 0 56.672-17.381v17.666h29.569V95.986a79.513 79.513 0 0 0-10.647-39.747 79.477 79.477 0 0 0-29.087-29.097 79.445 79.445 0 0 0-39.733-10.651Z"/></svg>