<svg xmlns="http://www.w3.org/2000/svg" width="512" height="512" viewBox="0 0 512 512"><path d="M113.05 359.137c-4.155-4.734-13.968-20.766-18.866-30.825-6.01-12.344-10.729-25.989-14.402-41.652-2.154-9.188-2.29-11.16-2.359-34.268-.04-13.485.259-24.85.665-25.257.405-.407 44.652-.967 98.325-1.246 110.737-.574 103.815-.104 111.47-7.582 6.775-6.62 8.24-9.981 8.252-18.941.013-9.208-1.989-13.437-9.102-19.229l-4.684-3.813-73.71-.002c-40.541-.001-82.952-.264-94.247-.583l-20.536-.581 3.16-6.286c6.557-13.043 14.176-23.145 29.035-38.5 22.047-22.785 41.86-35.38 70.469-44.798 17.822-5.868 28.602-7.761 47.162-8.285 32.353-.913 57.43 4.077 83.502 16.617 22.193 10.674 44.856 28.91 61.672 49.627 5.346 6.585 14.01 19.7 13.528 20.479-.247.4.177 4.336.942 8.747 1.862 10.738 1.846 30.974-.033 40.786-8.832 46.118-40.419 82.287-85.887 98.344-18.169 6.416-16.119 6.262-96.111 7.19-39.707.461-74.934 1.206-78.284 1.656-5.212.7-6.808 1.376-11.072 4.689-5.799 4.505-8.127 8.68-13.76 24.672-3.471 9.852-3.842 10.506-5.128 9.04z" style="fill:#000;stroke:#000;stroke-width:6.69749;stroke-miterlimit:4;stroke-dasharray:none"/><path d="M240.128 437.927c-33.706-4.99-62.752-17.476-87-37.398-3.85-3.163-10.988-9.843-15.862-14.845-10.147-10.413-9.805-7.889-3.485-25.695 4.99-14.063 8.417-18.876 16.317-22.918l5.884-3.01 76.573-.536 88.412-3.704s30.382-11.325 42.263-19.304c9.988-6.707 27.515-24.17 34.091-33.964 17.392-25.904 24.911-55.263 21.366-83.427-.673-5.353-.995-9.962-.715-10.243.925-.925 8.368 15.979 11.967 27.178 4.619 14.373 6.7 25.839 7.607 41.905 1.88 33.323-3.119 61.01-15.945 88.308-13.245 28.187-36.032 54.03-63.26 71.744-16.112 10.482-37.488 19.236-57.929 23.723-7.602 1.668-13.63 2.091-33.284 2.334-13.2.163-25.35.096-27-.148z" style="fill:#000"/></svg>