<?xml version="1.0" encoding="UTF-8" standalone="no"?>
<!-- Created with Inkscape (http://www.inkscape.org/) -->

<svg
   version="1.1"
   id="svg2519"
   width="512"
   height="512"
   viewBox="0 0 512 512"
   sodipodi:docname="polarflow.svg"
   inkscape:version="1.1.2 (b8e25be833, 2022-02-05)"
   xmlns:inkscape="http://www.inkscape.org/namespaces/inkscape"
   xmlns:sodipodi="http://sodipodi.sourceforge.net/DTD/sodipodi-0.dtd"
   xmlns="http://www.w3.org/2000/svg"
   xmlns:svg="http://www.w3.org/2000/svg">
  <defs
     id="defs2523" />
  <sodipodi:namedview
     id="namedview2521"
     pagecolor="#ffffff"
     bordercolor="#666666"
     borderopacity="1.0"
     inkscape:pageshadow="2"
     inkscape:pageopacity="0.0"
     inkscape:pagecheckerboard="0"
     showgrid="false"
     inkscape:zoom="1.1289062"
     inkscape:cx="256.00001"
     inkscape:cy="256.00001"
     inkscape:window-width="1280"
     inkscape:window-height="961"
     inkscape:window-x="-8"
     inkscape:window-y="-8"
     inkscape:window-maximized="1"
     inkscape:current-layer="g2525" />
  <g
     inkscape:groupmode="layer"
     inkscape:label="Image"
     id="g2525">
    <path
       style="fill:#000000;stroke:#000000;stroke-width:6.69749;stroke-miterlimit:4;stroke-dasharray:none"
       d="m 113.05067,359.13709 c -4.15587,-4.73368 -13.968354,-20.76571 -18.866484,-30.82482 -6.01107,-12.34473 -10.728774,-25.98923 -14.401761,-41.65266 -2.154481,-9.18778 -2.290243,-11.15973 -2.359176,-34.26728 -0.04023,-13.48518 0.258775,-24.8511 0.664451,-25.25761 0.405677,-0.40651 44.65205,-0.96698 98.32525,-1.2455 110.73726,-0.57463 103.81535,-0.10379 111.46981,-7.58231 6.77525,-6.61952 8.23992,-9.98124 8.25256,-18.94137 0.013,-9.2071 -1.98911,-13.43657 -9.10214,-19.22833 l -4.6837,-3.8137 -73.71076,-0.002 c -40.54092,-8.9e-4 -82.95191,-0.26346 -94.24664,-0.58298 l -20.535884,-0.58096 3.15986,-6.28531 c 6.556974,-13.04276 14.175854,-23.14553 29.034954,-38.50115 22.04712,-22.78382 41.86036,-35.379273 70.46855,-44.797481 17.82227,-5.867345 28.60243,-7.761059 47.16195,-8.284816 32.35325,-0.913022 57.43096,4.077385 83.50284,16.616871 22.19307,10.673926 44.85593,28.910546 61.67206,49.627046 5.3456,6.58546 14.00899,19.70039 13.52795,20.47908 -0.24707,0.39996 0.17669,4.33633 0.94168,8.74749 1.86213,10.73766 1.84554,30.97337 -0.0334,40.78572 -8.83123,46.11807 -40.41859,82.28667 -85.88713,98.34364 -18.16811,6.41597 -16.11845,6.26262 -96.11073,7.19084 -39.70657,0.46073 -74.93425,1.20579 -78.28372,1.65565 -5.21173,0.69998 -6.80843,1.37612 -11.07218,4.68855 -5.79882,4.50501 -8.12703,8.67937 -13.76061,24.67197 -3.47074,9.85273 -3.84135,10.50622 -5.12756,9.04119 z"
       id="path3386" />
    <path
       style="fill:#000000"
       d="m 240.12795,437.92674 c -33.70569,-4.99062 -62.75172,-17.47623 -87,-37.39748 -3.85,-3.16298 -10.9879,-9.8434 -15.862,-14.84538 -10.14705,-10.41328 -9.80458,-7.88853 -3.48541,-25.69519 4.99035,-14.0622 8.41789,-18.87608 16.31757,-22.91756 l 5.88424,-3.01039 76.5728,-0.53605 88.41158,-3.70372 v 0 c 0,0 30.38229,-11.32469 42.2635,-19.30386 9.98739,-6.70731 27.51468,-24.16943 34.09107,-33.96431 17.3922,-25.90394 24.91109,-55.26257 21.36603,-83.42685 -0.67379,-5.35307 -0.99569,-9.96223 -0.71533,-10.2426 0.92503,-0.92503 8.36815,15.97855 11.96697,27.17739 4.61903,14.37357 6.70041,25.83928 7.60704,41.90486 1.88054,33.32332 -3.1189,61.01119 -15.9454,88.3087 -13.24425,28.18655 -36.03178,54.03048 -63.2591,71.74377 -16.1124,10.48225 -37.48874,19.23605 -57.92912,23.72248 -7.60284,1.66874 -13.63132,2.09149 -33.28444,2.33411 -13.2,0.16295 -25.35,0.0964 -27,-0.14792 z"
       id="path2647"
       sodipodi:nodetypes="csssscccsssssssssssc" />
  </g>
</svg>
