<svg xmlns="http://www.w3.org/2000/svg" viewBox="0 0 192 192"><path fill="none" stroke="#000" stroke-linecap="round" stroke-linejoin="round" stroke-width="8" d="M167.346 32.5H24.654a8.125 8.125 0 0 0-4.077 1.098 8.17 8.17 0 0 0-2.985 2.999 8.228 8.228 0 0 0-1.092 4.097v110.612c0 1.439.377 2.852 1.092 4.097a8.17 8.17 0 0 0 2.985 2.999 8.125 8.125 0 0 0 4.077 1.098h48.713v-11.946h-9.183v-12.451H40.779V56.898h110.444v78.207h-23.407v12.451h-9.184V159.5h48.714a8.138 8.138 0 0 0 5.766-2.4 8.218 8.218 0 0 0 2.388-5.794V40.694c0-2.173-.86-4.258-2.388-5.794a8.138 8.138 0 0 0-5.766-2.4Zm-93.979 127h45.265M96 74.865V56.898m-9.059 17.967V56.898m18.118 17.967V56.898m18.089 17.967V56.898M68.752 74.865V56.898m45.365 17.967V56.898M77.883 74.865V56.898"/><path fill="none" stroke="#000" stroke-linecap="round" stroke-linejoin="round" stroke-width="8" d="M59.764 56.896v17.969h72.472V56.896"/></svg>