<svg xmlns="http://www.w3.org/2000/svg" width="192" height="192" viewBox="0 0 192 192"><path d="M52.049 169.316c-4.34-1.76-8.28-6.858-9.594-12.419-1.046-4.423-.788-8.316.944-14.226.86-2.94 1.63-5.635 1.71-5.99.08-.355-1.497-2.2-3.504-4.1-21.936-20.773-25.911-60.733-8.734-87.79 7.3-11.499 17.794-19.215 29.662-21.81 5.977-1.308 61.183-1.308 67.16 0 14.709 3.216 26.902 14.004 34.167 30.229 4.153 9.274 6.15 19.244 6.14 30.64-.015 16.077-4.745 30.663-13.678 42.181-6.63 8.55-13.87 13.89-22.973 16.944-3.517 1.18-4.936 1.257-27.238 1.46-27.112.247-25.609.545-23.595-4.679 3.86-10.011 13.276-18.056 23.49-20.07 1.805-.355 6.955-.646 11.445-.646 6.667 0 8.817-.212 11.726-1.159 7.69-2.503 14.562-9.65 17.95-18.667 2.452-6.53 2.983-10.02 2.69-17.695-.28-7.379-1.31-11.708-4.083-17.168-3.943-7.763-9.966-13.26-17.058-15.57-3.32-1.08-5.147-1.144-32.563-1.144-27.416 0-29.244.064-32.564 1.145-7.092 2.308-13.115 7.806-17.058 15.57-2.773 5.46-3.802 9.788-4.083 17.167-.293 7.686.238 11.165 2.708 17.74 2.24 5.962 7.208 12.625 11.626 15.593 3.216 2.16 8.939 4.188 11.815 4.188 1.162 0 2.236.368 2.664.913.394.501.717.963.717 1.025 0 .062-3.448 11.08-7.663 24.485-7.59 24.142-7.674 24.373-9.008 24.492-.74.066-2.189-.222-3.218-.64zm15.555-74.597c-5.197-3.062-7.094-10.286-4.447-16.936 3.611-9.071 13.586-9.02 17.152.088 1.311 3.349 1.496 5.848.687 9.286-1.629 6.918-8.193 10.625-13.392 7.562zm41.737-11.38v-7.257h20.982v14.513H109.34Z" style="fill:none;fill-opacity:1;stroke:#000;stroke-width:12;stroke-linecap:round;stroke-linejoin:round;stroke-dasharray:none;stroke-opacity:1"/></svg>