<?xml version="1.0" encoding="UTF-8" standalone="no"?>
<!-- Created with Inkscape (http://www.inkscape.org/) -->

<svg
   width="192px"
   height="192px"
   viewBox="0 0 192 192"
   version="1.1"
   id="SVGRoot"
   sodipodi:docname="Zeichnung.svg"
   inkscape:version="1.2.2 (732a01da63, 2022-12-09)"
   xmlns:inkscape="http://www.inkscape.org/namespaces/inkscape"
   xmlns:sodipodi="http://sodipodi.sourceforge.net/DTD/sodipodi-0.dtd"
   xmlns="http://www.w3.org/2000/svg"
   xmlns:svg="http://www.w3.org/2000/svg">
  <sodipodi:namedview
     id="namedview3493"
     pagecolor="#ffffff"
     bordercolor="#666666"
     borderopacity="1.0"
     inkscape:showpageshadow="2"
     inkscape:pageopacity="0.0"
     inkscape:pagecheckerboard="0"
     inkscape:deskcolor="#d1d1d1"
     inkscape:document-units="px"
     showgrid="false"
     inkscape:zoom="3.7291667"
     inkscape:cx="93.050279"
     inkscape:cy="96"
     inkscape:current-layer="layer1" />
  <defs
     id="defs3488" />
  <g
     inkscape:label="Ebene 1"
     inkscape:groupmode="layer"
     id="layer1">
    <path
       style="fill:none;fill-opacity:1;stroke:#000000;stroke-width:12;stroke-linecap:round;stroke-linejoin:round;stroke-dasharray:none;stroke-opacity:1"
       d="m 52.048681,169.31571 c -4.340526,-1.76002 -8.278847,-6.85795 -9.593796,-12.41866 -1.045921,-4.42305 -0.787725,-8.31558 0.943661,-14.2261 0.861068,-2.93943 1.630787,-5.63479 1.710511,-5.98967 0.07965,-0.3551 -1.497122,-2.20029 -3.504105,-4.10084 -21.935643,-20.77252 -25.911031,-60.732576 -8.733671,-87.790075 7.299399,-11.49792 17.7942,-19.214707 29.661442,-21.81 5.97705,-1.307157 61.182837,-1.307157 67.159877,0 14.70892,3.216746 26.90219,14.004757 34.1671,30.229281 4.15298,9.274787 6.15087,19.244355 6.14026,30.640507 -0.0151,16.076836 -4.74461,30.662697 -13.67793,42.181257 -6.63017,8.54889 -13.87045,13.88893 -22.97296,16.9437 -3.51755,1.18043 -4.93581,1.25645 -27.23817,1.45957 -27.111497,0.24694 -25.608939,0.54487 -23.594745,-4.67869 3.860295,-10.01136 13.275996,-18.05553 23.490715,-20.06905 1.80416,-0.35548 6.95411,-0.6466 11.44434,-0.6466 6.66712,0 8.81717,-0.21253 11.72588,-1.15936 7.68953,-2.50295 14.56226,-9.65066 17.94907,-18.667227 2.45257,-6.529321 2.98357,-10.020507 2.69136,-17.694512 -0.28085,-7.378926 -1.31069,-11.707767 -4.08357,-17.167915 -3.9427,-7.763567 -9.96558,-13.260928 -17.05782,-15.569451 -3.31954,-1.080518 -5.14754,-1.14477 -32.563469,-1.14477 -27.415959,0 -29.243905,0.06429 -32.563461,1.14477 -7.092238,2.308523 -13.115114,7.805884 -17.057813,15.569451 -2.772928,5.460148 -3.802579,9.788989 -4.083575,17.167915 -0.292546,7.685576 0.238567,11.164548 2.708191,17.738834 2.240077,5.963005 7.207898,12.626085 11.626145,15.593575 3.215485,2.15964 8.938717,4.18869 11.814924,4.18869 1.161882,0 2.236114,0.36797 2.663836,0.91223 0.394239,0.50173 0.716758,0.9631 0.716758,1.02523 0,0.062 -3.447974,11.0805 -7.662195,24.48525 -7.589756,24.14177 -7.674954,24.37345 -9.008589,24.49197 -0.740539,0.0658 -2.188702,-0.22199 -3.218201,-0.63931 z M 67.604426,94.719196 c -5.196951,-3.062262 -7.09405,-10.286579 -4.447277,-16.935782 3.611046,-9.071632 13.585681,-9.020691 17.151995,0.08736 1.311251,3.348842 1.496065,5.84808 0.686673,9.286197 -1.628674,6.918386 -8.192892,10.62517 -13.391391,7.562038 z M 109.3405,83.338712 v -7.256399 h 10.49099 10.49102 v 7.256399 7.256424 H 119.83149 109.3405 Z"
       id="path2332" />
  </g>
</svg>
