<svg xmlns="http://www.w3.org/2000/svg" viewBox="0 0 192 192"><path fill="none" stroke="#000" stroke-linecap="round" stroke-linejoin="round" stroke-width="12" d="M41.622 116.41V71.507h15.087a15.085 15.085 0 0 1 10.158 4.685 15.12 15.12 0 0 1 0 20.797 15.085 15.085 0 0 1-10.158 4.685H41.622"/><path fill="none" stroke="#000" stroke-linecap="round" stroke-linejoin="round" stroke-width="12" d="M16.504 63.343v65.314a8.169 8.169 0 0 0 4.078 7.07 8.141 8.141 0 0 0 4.077 1.094H89.9a8.155 8.155 0 0 0 8.155-8.164V63.343a8.157 8.157 0 0 0-8.155-8.164H24.659a8.153 8.153 0 0 0-5.766 2.391 8.173 8.173 0 0 0-2.389 5.773Zm20.102 73.478a75.463 75.463 0 0 0 43.687 32.056 75.38 75.38 0 0 0 53.885-5.518 75.508 75.508 0 0 0 36.299-40.246 75.616 75.616 0 0 0 0-54.226 75.508 75.508 0 0 0-36.299-40.246 75.38 75.38 0 0 0-53.885-5.518 75.463 75.463 0 0 0-43.687 32.056"/></svg>