<svg width="204.8" height="204.8" viewBox="0 0 204.8 204.8" xmlns="http://www.w3.org/2000/svg"><path style="fill:#d0d0d0;stroke-width:1.06667" d="M158.076 198.752c-3.484-.73-4.711-4.902-4.286-14.567.288-6.569.762-8.57 2.222-9.386 1.02-.571 1.855-1.932 1.855-3.024 0-1.655-1.199-1.181-7.2 2.847-15.162 10.177-29.672 14.544-48.267 14.527-15.205-.015-23.557-1.971-37.867-8.87-30.568-14.74-48.914-43.968-48.882-77.879.023-23.938 8.61-44.784 25.269-61.346C57.966 24.11 78.49 15.63 102.4 15.651c40.954.04 74.38 26.616 84.958 67.549 2.455 9.5 2.402 29.002-.107 38.933-2.302 9.114-8.851 23.49-13.906 30.526-2.06 2.867-3.745 5.44-3.745 5.717 0 .277 1.352.234 3.003-.097 6.945-1.389 18.01 5.011 17.086 9.882-.542 2.856-5.568 3.084-9.838.445-1.963-1.213-4.319-2.206-5.234-2.206-2.299 0-5.017 2.93-5.017 5.41 0 1.904.853 2.057 11.52 2.057 7.538 0 11.962.442 12.8 1.28 1.545 1.544 1.74 19.806.237 22.186-.818 1.296-4.111 1.632-17.317 1.767-8.969.092-17.413-.064-18.764-.348zm18.318-11.285c.976-3.643.846-4-1.46-4-2.157 0-2.67 1.627-1.487 4.712.92 2.397 2.197 2.089 2.947-.712zm-56.51-16.77c12.819-3.28 22.286-8.767 32.166-18.647 37.82-37.82 22.294-99.92-29.383-117.519-8.38-2.854-32.153-2.854-40.534 0-23.026 7.843-39.76 24.576-47.602 47.602-2.854 8.38-2.854 32.153 0 40.534 8.196 24.065 26.772 41.903 49.966 47.98 10.512 2.754 24.733 2.774 35.386.05zm-40.519-33.209c-1.905-2.106-2.032-4.288-2.032-35.088s.127-32.982 2.032-35.088c4.07-4.498 7.571-3.266 33.516 11.792C144.06 97.199 144 97.154 144 102.4c0 5.245.06 5.2-31.12 23.296-25.944 15.058-29.444 16.29-33.515 11.792zm28.194-27.577c6.55-3.789 11.908-7.169 11.908-7.511 0-.526-22.062-13.702-24.708-14.756-.49-.195-.892 6.445-.892 14.756s.401 14.951.892 14.756c.491-.196 6.251-3.456 12.8-7.245z" transform="translate(-3.03 -4.99)"/><path style="fill:#aeaeae;stroke-width:1.06667" d="M156.343 196.724c-1.254-1.254-1.676-3.9-1.676-10.502 0-7.47.327-9.121 2.133-10.755 1.824-1.651 3.082-6.934 1.651-6.934-.265 0-3.583 2.168-7.374 4.818-8.165 5.708-16.023 9.324-27.177 12.508-11.723 3.346-31.409 3.304-43.367-.093-35.12-9.977-59.225-37.896-63.763-73.85-4.842-38.36 19.262-77.061 56.354-90.482 47.57-17.213 98.563 9.541 112.642 59.1 3.397 11.957 3.44 31.643.093 43.366-3.15 11.037-6.79 18.998-12.283 26.86-6.792 9.721-6.639 9.192-2.46 8.514 7.827-1.27 17.684 3.349 17.684 8.287 0 2.857-5.563 2.722-9.557-.231-3.777-2.793-8.115-2.042-9.82 1.698-2.37 5.204-.957 5.905 11.903 5.905 11.678 0 11.804.027 12.834 2.736 1.659 4.364 1.278 15.65-.62 18.36-1.598 2.28-2.305 2.371-18.59 2.371-13.97 0-17.224-.293-18.607-1.676zm20.697-8.926c1.503-3.628.78-5.398-2.203-5.398-2.703 0-3.475 2.084-2.107 5.683 1.404 3.692 2.698 3.607 4.31-.285zm-53.307-17.135c12.28-4.117 19.232-8.478 28.842-18.088 13.888-13.887 19.947-27.322 20.945-46.442.708-13.542-1.255-23.198-7.234-35.59-3.614-7.49-6.16-10.926-13.631-18.398-7.47-7.47-10.91-10.018-18.392-13.628C113.216 28.362 91.14 28.37 70.4 38.54 57.586 44.825 44.825 57.586 38.541 70.4c-10.17 20.74-10.179 42.816-.024 63.863 3.61 7.483 6.159 10.922 13.628 18.392 7.483 7.482 10.905 10.016 18.435 13.649 5.085 2.454 12.285 5.152 16 5.997 9.689 2.203 28.123 1.39 37.153-1.638zm-43.248-33.548-2.618-2.618V70.303l2.618-2.618c1.44-1.44 3.522-2.618 4.626-2.618 1.104 0 14.206 7.119 29.115 15.82 29.338 17.122 31.665 19.097 28.707 24.36-1.78 3.165-54.294 34.486-57.822 34.486-1.104 0-3.186-1.178-4.626-2.618zm27.136-26.29c7.102-4.165 12.912-7.957 12.912-8.425 0-.928-25.225-16-26.778-16-.525 0-.955 7.2-.955 16s.43 16 .955 16c.525 0 6.765-3.409 13.866-7.574z" transform="translate(-3.03 -4.99)"/><path style="fill:#8e8e8e;stroke-width:1.06667" d="M156.444 196.622c-.39-.39-.71-5.206-.71-10.7 0-7.707.35-10.124 1.534-10.578 1.522-.584 3.419-6.48 2.41-7.488-.289-.29-3.815 1.74-7.835 4.507-29.024 19.983-66.625 20.773-95.947 2.017-24.335-15.568-38.814-42.419-38.814-71.98 0-24.12 8.845-45.2 25.798-61.48 16.697-16.032 36.187-23.838 59.52-23.838 23.333 0 42.823 7.806 59.52 23.839 30.648 29.43 34.68 78.061 9.327 112.5-2.666 3.622-4.848 6.704-4.85 6.849 0 .145 3.325.105 7.39-.088 7.138-.339 7.53-.225 11.372 3.295 6.048 5.543 2.78 8.401-4.477 3.917-4.53-2.8-8.683-2.318-11.39 1.323-3.893 5.238-2.205 6.216 10.728 6.216 7.564 0 11.995.442 12.833 1.28 1.335 1.335 1.823 16.332.633 19.433-.555 1.446-3.204 1.687-18.489 1.687-9.813 0-18.161-.32-18.553-.71zm21.268-9.642c.496-2.645.27-4.021-.771-4.68-1.953-1.237-2.342-1.204-4.519.388-1.71 1.25-1.725 1.657-.203 5.3 2.022 4.84 4.48 4.39 5.493-1.008zM120 172.18c24.785-5.902 46.012-27.248 52.416-52.713 2.267-9.013 2.263-25.147-.009-34.134-6.53-25.84-27.1-46.41-52.94-52.94-9.007-2.277-25.127-2.277-34.134 0-20.052 5.066-38.12 19.348-46.75 36.954-5.864 11.96-7.943 20.613-7.943 33.053 0 19.596 6.881 36.483 20.431 50.142C69.74 171.36 94.188 178.325 120 172.18Zm-39.301-35.464c-1.562-1.725-1.766-5.71-1.766-34.501 0-30.18.142-32.68 1.951-34.316 1.073-.971 3.085-1.766 4.473-1.766 2.558 0 50.77 27.338 55.176 31.288 1.345 1.205 2.4 3.395 2.4 4.979s-1.055 3.774-2.4 4.98c-4.62 4.141-52.654 31.287-55.362 31.287-1.489 0-3.501-.878-4.472-1.951zm26.946-25.359c7.675-4.46 13.955-8.49 13.955-8.957 0-1.308-27.794-17.155-28.895-16.474-1.105.682-1.351 31.739-.26 32.83.978.978-.219 1.561 15.2-7.399z" transform="translate(-3.03 -4.99)"/><path style="fill:#6f6f6f;stroke-width:1.06667" d="M157.013 196.053c-.782-.782-1.28-4.595-1.28-9.798 0-6.837.395-8.952 2.002-10.72 1.1-1.21 2.338-4.085 2.75-6.387l.748-4.185-2.483 1.815c-21.605 15.798-34.264 20.375-56.35 20.375-23.993 0-43.787-8.053-60.243-24.51-16.457-16.456-24.51-36.25-24.51-60.243 0-23.993 8.053-43.787 24.51-60.243 16.456-16.457 36.25-24.51 60.243-24.51 23.993 0 43.787 8.053 60.243 24.51 16.457 16.456 24.51 36.25 24.51 60.243 0 22.036-4.657 34.937-20.3 56.237l-1.74 2.37 6.777-.573c5.3-.449 7.572-.152 10.43 1.363 4.7 2.49 6.555 5.351 4.36 6.72-1.105.688-2.945.193-6.057-1.63-5.597-3.281-7.259-3.281-10.538-.002-2.963 2.963-3.462 7.497-.931 8.468.928.356 6.637.647 12.686.647 12.679 0 12.293-.323 12.293 10.29 0 11.353.534 11.043-19.024 11.043-11.657 0-17.208-.392-18.096-1.28zm20.777-7.735c1.443-3.025 1.512-3.977.386-5.333-1.533-1.847-4.072-2.107-6.37-.653-1.275.807-1.312 1.685-.224 5.317 1.606 5.36 3.856 5.602 6.208.669zm-60.678-15.08c21.949-4.524 40.541-19.06 50.356-39.371 12.026-24.884 9.037-53.61-7.903-75.964-12.725-16.792-35.652-28.036-57.165-28.036-21.513 0-44.44 11.244-57.165 28.036-28.085 37.062-15.789 89.492 25.698 109.572 14.71 7.12 30.214 9.054 46.179 5.763zm-35.94-36.6c-2.174-2.173-2.239-3.163-2.239-34.238s.065-32.065 2.238-34.238c1.438-1.438 3.136-2.066 4.752-1.757 4.583.876 55.083 31.034 56.255 33.595.753 1.646.753 3.154 0 4.8-1.172 2.56-51.672 32.719-56.255 33.595-1.616.309-3.314-.32-4.752-1.757zm26.75-24.943c7.23-4.275 13.145-8.457 13.145-9.295 0-1.605-25.197-17.067-27.812-17.067-1.254 0-1.522 3-1.522 17.067 0 14.068.268 17.067 1.522 17.067.837 0 7.437-3.498 14.666-7.772z" transform="translate(-3.03 -4.99)"/><path style="fill:#505050;stroke-width:1.06667" d="M159.736 196.57c-2.036-.309-3.133-1.249-3.592-3.08-1.09-4.341.114-15.118 1.92-17.183.916-1.049 1.993-3.734 2.394-5.966.912-5.087 3.546-7.767 9.102-9.263 5.568-1.5 11.101-.439 15.052 2.886 5.086 4.279 1.233 6.595-4.054 2.436-5.071-3.989-11.546-1.635-13.526 4.916-1.113 3.68 1.448 4.59 13.831 4.913l11.67.304v9.552c0 9.28-.076 9.573-2.666 10.294-2.845.791-25.233.933-30.131.19zm18.362-7.686c1.941-4.685 1.093-6.964-2.73-7.338-4.793-.47-6.185 1.73-4.161 6.572 2.018 4.83 5.068 5.17 6.891.766zm-85.886-2.297c-28.44-3.359-54.448-22.124-66.572-48.034-10.451-22.334-10.482-49.905-.082-72.131C39.646 36.315 68.784 17.926 102.4 17.926c47.707 0 84.433 36.744 84.433 84.474 0 20.125-5.346 35.848-17.909 52.667-16.527 22.127-47.722 34.945-76.712 31.52zm27.255-13.305c19.67-4.597 38.924-19.847 47.744-37.815 5.645-11.5 7.69-20.297 7.69-33.067s-2.045-21.566-7.69-33.067c-6.284-12.801-18.943-25.46-31.744-31.744-11.5-5.645-20.297-7.69-33.067-7.69s-21.566 2.045-33.067 7.69c-12.801 6.284-25.46 18.943-31.744 31.744-2.448 4.987-5.18 12.187-6.07 16-2.078 8.888-2.078 25.246 0 34.134 4.595 19.664 19.838 38.913 37.814 47.751 4.987 2.452 11.947 5.151 15.467 5.998 8.54 2.054 26.015 2.087 34.667.066zM80.93 135.838c-2.084-2.508-2.67-61.497-.65-65.438 2.783-5.428 5.777-4.395 32.786 11.312C126.853 89.73 138.973 97.019 140 97.91c1.027.891 1.867 2.912 1.867 4.49 0 1.578-.84 3.599-1.867 4.49-4.701 4.081-52.202 30.71-54.78 30.71-1.554 0-3.484-.793-4.29-1.762zm27.024-23.654c7.798-4.591 14.178-8.994 14.178-9.784 0-1.353-27.186-18.133-29.378-18.133-.611 0-1.022 7.282-1.022 18.133 0 10.851.41 18.133 1.022 18.133.563 0 7.403-3.757 15.2-8.349z" transform="translate(-3.03 -4.99)"/><path style="fill:#2e2e2e;stroke-width:1.06667" d="M157.511 195.556c-.391-.392-.711-4.516-.711-9.166 0-6.838.408-8.972 2.133-11.166 1.174-1.491 2.134-3.39 2.134-4.22 0-8.297 13.516-13.07 22.133-7.816 1.907 1.163 3.467 2.521 3.467 3.019 0 2.16-1.634 2.05-6.37-.426-4.061-2.124-5.602-2.438-7.822-1.594-3.485 1.326-6.346 5.607-5.89 8.818.332 2.346.892 2.495 11.89 3.176 6.348.394 12.228.978 13.067 1.3 1.12.43 1.525 2.555 1.525 7.998 0 11.508 1.206 10.788-18.07 10.788-9.226 0-17.095-.32-17.486-.711zm21.15-7.01 2.13-3.963-2.373-2.372c-1.974-1.975-2.866-2.199-5.318-1.336-3.634 1.278-4.056 3.133-1.893 8.31 2.1 5.027 4.523 4.82 7.455-.64zm-93.328-3.527c-21.717-4.63-41.005-17.797-53.309-36.39C9.716 114.916 14.684 70.18 43.873 41.965 81.999 5.11 143.469 11.883 172.776 56.171c32.803 49.572 4.855 116.737-53.598 128.811-9.843 2.033-24.407 2.05-33.845.037zm38.957-12.666c11.63-3.688 20.845-9.345 29.782-18.281 8.855-8.856 14.507-18.011 18.398-29.805 2.438-7.389 2.816-10.323 2.816-21.867s-.378-14.478-2.816-21.867c-3.891-11.794-9.543-20.95-18.398-29.805-8.856-8.855-18.011-14.507-29.805-18.398-7.389-2.438-10.323-2.816-21.867-2.816s-14.478.378-21.867 2.816c-11.794 3.891-20.95 9.543-29.805 18.398-8.855 8.856-14.507 18.011-18.398 29.805-2.438 7.389-2.816 10.323-2.816 21.867s.378 14.478 2.816 21.867c3.897 11.812 9.55 20.96 18.417 29.805 11.126 11.097 24.435 18.164 39.24 20.836 9.113 1.644 24.731.48 34.303-2.555zm-42.522-36.337C80.201 134.448 80 130.634 80 102.4s.2-32.048 1.768-33.616c1.014-1.013 2.815-1.568 4.219-1.3 4.194.802 54.743 30.88 55.406 32.97.34 1.07.34 2.822 0 3.893-.663 2.088-51.212 32.167-55.406 32.969-1.404.268-3.205-.287-4.219-1.3zm27.493-24.05c7.96-4.712 14.472-9.017 14.472-9.566 0-1.516-28.86-18.278-30.82-17.902-1.469.282-1.755 2.677-2.009 16.804-.162 9.061-.057 17.095.234 17.853.953 2.484 3.469 1.486 18.123-7.19z" transform="translate(-3.03 -4.99)"/><path style="fill:#030303;stroke-width:1.06667" d="M157.867 186.133c0-5.356.438-9.066 1.07-9.066.59 0 1.663-2.213 2.387-4.918 1.836-6.867 5.822-10.016 12.677-10.016 5.3 0 11.599 2.332 11.599 4.294 0 1.56-1.302 1.226-4.267-1.094-5.491-4.295-14.002-1.332-15.479 5.39-1.2 5.461.427 6.24 13.715 6.576l11.898.301.31 8.8.31 8.8h-34.22zm18.813 7.184c1.68-1.085 4.31-7.88 3.859-9.968-.565-2.614-5.092-4.291-8.295-3.074-3.535 1.344-4.262 3.52-2.587 7.744 2.342 5.906 4.067 7.207 7.023 5.298zm-94.547-9.896c-4.4-1.134-12.56-4.305-18.133-7.047-8.642-4.252-11.639-6.491-20.36-15.213-8.726-8.725-10.96-11.716-15.211-20.361-6.734-13.692-9.229-24.075-9.229-38.4s2.495-24.708 9.229-38.4c4.25-8.645 6.485-11.636 15.21-20.36C52.364 34.913 55.355 32.68 64 28.428c13.692-6.734 24.075-9.229 38.4-9.229s24.708 2.495 38.4 9.229c8.645 4.25 11.636 6.485 20.36 15.21 8.726 8.725 10.96 11.716 15.211 20.361 6.734 13.692 9.229 24.075 9.229 38.4s-2.495 24.708-9.229 38.4c-4.25 8.645-6.485 11.636-15.21 20.36-8.725 8.726-11.716 10.96-20.361 15.211-5.573 2.741-13.93 5.939-18.57 7.106-11.28 2.838-28.962 2.813-40.097-.056zm28.654-7.466c47.998-6.018 77.525-53.901 61.06-99.017-8.54-23.4-28.21-41.002-52.183-46.694-9.195-2.184-25.394-2.17-34.663.031-26.386 6.263-48.471 28.39-54.757 54.861-2.17 9.136-2.17 25.392 0 34.528 4.523 19.048 17.508 36.583 34.46 46.536 10.01 5.877 19.42 8.673 36.124 10.732.602.074 5.083-.365 9.959-.977zm-28.44-40.702c-.938-.938-1.28-9.737-1.28-32.936 0-33.717.15-34.706 5.16-33.866 3.676.617 53.489 30.149 54.113 32.082.332 1.027.33 2.707-.003 3.734-.686 2.11-51.937 32.266-54.836 32.266-1.03 0-2.45-.576-3.154-1.28zm25.155-21.336c7.331-4.225 14.342-8.545 15.58-9.6l2.251-1.917-2.25-1.917c-3.57-3.04-28.737-17.283-30.539-17.283-2.415 0-2.915 3.291-2.915 19.2 0 15.909.5 19.2 2.915 19.2.896 0 7.627-3.457 14.958-7.683z" transform="translate(-3.03 -4.99)"/></svg>