<svg xmlns="http://www.w3.org/2000/svg" viewBox="0 0 192 192"><path d="M27.047 174.277c-1.355-1.355-1.653-2.022-1.653-3.694 0-1.123.373-2.673.83-3.445 1.695-2.871 1.779-2.88 26.405-2.88 19.788 0 22.668.095 24.144.795 2.037.967 3.092 2.861 3.092 5.552 0 1.647-.305 2.323-1.654 3.672l-1.653 1.653H28.701Zm-.041-20.687c-1.736-1.066-2.437-2.128-2.589-3.922-.225-2.65.07-3.567 1.658-5.156l1.653-1.653h23.418c25.805 0 25.489-.035 27.062 3.005 1.148 2.221.646 5.039-1.234 6.92l-1.504 1.504-23.458.128c-22.56.122-23.516.091-25.006-.826Zm-.931-22.598c-1.405-1.405-1.654-1.993-1.654-3.908 0-1.305.349-2.787.829-3.519 1.665-2.541 2.182-2.592 26.562-2.592h22.559l1.646 1.109c2.797 1.886 3.617 4.8 2.148 7.64-1.566 3.03-.599 2.924-26.665 2.924H27.728Zm.931-20.686c-1.736-1.067-2.437-2.129-2.589-3.923-.225-2.65.07-3.567 1.658-5.155l1.653-1.654h23.418c25.805 0 25.489-.035 27.062 3.006 1.148 2.221.646 5.038-1.234 6.919l-1.504 1.504-23.458.128c-22.56.122-23.516.091-25.006-.825Zm63.348-.006c-2.646-1.744-3.458-4.946-1.981-7.803 1.567-3.029.6-2.923 26.665-2.923h23.772l1.653 1.653c1.35 1.35 1.654 2.025 1.654 3.672 0 1.11-.332 2.66-.738 3.445-1.509 2.919-1.358 2.902-26.595 2.899-21.92-.003-23.071-.048-24.43-.943ZM28.613 89.344c-5.287-1.583-5.918-8.915-.947-10.992 1.263-.528 6.197-.664 24.146-.664h22.559l1.646 1.109c3.02 2.036 3.718 5.275 1.764 8.182-.635.944-1.834 1.901-2.797 2.233-2.004.69-44.106.81-46.371.132Zm88.964.148c-2.633-.668-4.641-3.209-4.641-5.871 0-1.716 1.781-4.481 3.419-5.31.91-.461 6.749-.609 24.06-.614 22.076-.005 22.913.029 24.468.977 1.967 1.199 3.19 3.873 2.744 5.995-.429 2.037-2.438 4.1-4.569 4.692-1.743.484-43.617.605-45.481.131Zm-1.765-21.667c-3.021-2.035-3.719-5.275-1.764-8.181 1.932-2.87 2.429-2.92 27.312-2.765 25.282.158 24.293.006 25.802 3.959 1.043 2.729.227 5.393-2.137 6.984l-1.653 1.112h-45.915Zm-88.806-.804c-1.736-1.067-2.437-2.129-2.589-3.923-.225-2.65.07-3.567 1.658-5.155l1.653-1.654h23.418c25.805 0 25.489-.035 27.062 3.006 1.148 2.221.646 5.039-1.234 6.919l-1.504 1.504-23.458.128c-22.56.122-23.516.091-25.006-.825Zm0-18.968c-1.736-1.066-2.437-2.129-2.589-3.922-.225-2.65.07-3.567 1.658-5.156l1.653-1.653h23.418c25.805 0 25.489-.035 27.062 3.005 1.148 2.221.646 5.039-1.234 6.919l-1.504 1.505-23.458.127c-22.56.123-23.516.091-25.006-.825Zm89.578.477c-2.956-1.223-4.444-5.34-2.963-8.203 1.672-3.234 1.424-3.204 26.878-3.227 22.429-.021 22.972.001 24.317.983.756.552 1.778 1.814 2.27 2.804.798 1.605.824 2.021.243 3.845-.435 1.364-1.201 2.413-2.304 3.153l-1.653 1.109-22.907-.031c-12.6-.017-23.346-.212-23.881-.433ZM27.006 27.14c-1.736-1.066-2.437-2.128-2.589-3.922-.225-2.65.07-3.567 1.658-5.156l1.653-1.653h47.657l1.482 1.385c2.632 2.458 2.649 6.123.042 8.621l-1.485 1.423-23.434.127c-22.538.123-23.494.091-24.984-.825Zm63.777.187c-3.333-1.645-4.212-6.294-1.719-9.087l1.417-1.588 6.972-.256c14.352-.526 38.277-.529 40.227-.003 5.134 1.382 6.072 8.192 1.5 10.893-1.196.706-3.9.794-24.13.784-19.295-.009-23.011-.123-24.267-.743Z"/></svg>