<svg xmlns="http://www.w3.org/2000/svg" viewBox="0 0 192 192"><path fill="none" stroke="#000" stroke-linecap="round" stroke-linejoin="round" stroke-width="12" d="M96 16.5a79.529 79.529 0 0 0-56.215 23.285A79.529 79.529 0 0 0 16.5 96a79.529 79.529 0 0 0 23.285 56.215A79.529 79.529 0 0 0 96 175.5a79.529 79.529 0 0 0 56.215-23.285A79.529 79.529 0 0 0 175.5 96a79.529 79.529 0 0 0-23.285-56.215A79.529 79.529 0 0 0 96 16.5Z"/><path fill="none" stroke="#000" stroke-linecap="round" stroke-linejoin="round" stroke-width="12" d="M96 38.686a57.335 57.335 0 0 0-40.527 16.787A57.335 57.335 0 0 0 38.686 96a57.335 57.335 0 0 0 16.787 40.527A57.335 57.335 0 0 0 96 153.314a57.335 57.335 0 0 0 40.527-16.787A57.335 57.335 0 0 0 153.314 96a57.335 57.335 0 0 0-16.787-40.527A57.335 57.335 0 0 0 96 38.686ZM48.34 64.159h95.318M38.686 96h114.628M48.338 127.841h95.322m-15.819-79.5v95.32M96 38.686v114.628M64.159 49.093v94.568"/></svg>