<svg
    xmlns="http://www.w3.org/2000/svg"
    viewBox="0 0 400 400"
    id="vector">
    <g id="group">
        <path
            id="path"
            d="M 73.131 280.42 C 73.37 274.772 74.025 248.818 74.586 222.745 C 76.082 153.335 77.037 134.744 79.484 127.423 C 81.15 122.439 84.493 116.927 88.3 112.884 C 92.651 108.263 94.612 108.125 101.623 111.948 C 107.693 115.257 126.962 127.721 150.69 143.685 C 190.547 170.501 193.634 173.319 194.462 183.633 L 194.803 187.881 L 190.047 192.183 C 184.433 197.263 171.505 203.985 132.549 222.079 C 110.958 232.108 108.139 233.6 107.821 235.165 C 107.624 236.137 106.979 247.813 106.387 261.113 C 105.788 274.573 105.003 285.665 104.616 286.131 C 104.233 286.592 103.232 287.138 102.392 287.343 C 100.934 287.7 87.547 289.249 77.438 290.23 L 72.697 290.69 Z M 115.192 202.64 C 123.571 198.986 153.001 184.257 155.131 182.65 L 156.781 181.405 L 152.005 178.633 C 146.221 175.274 119.686 161.067 111.763 157.086 L 106.053 154.218 L 106.053 179.369 C 106.053 193.203 106.261 204.729 106.515 204.983 C 107.361 205.829 108.714 205.464 115.192 202.64 Z M 215.739 292.762 C 211.68 290.927 206.246 284.841 205.101 280.849 C 203.811 276.349 207.907 272.354 228.556 257.975 C 234.471 253.856 245.867 245.922 253.881 240.343 C 261.894 234.764 269.2 229.402 270.115 228.428 C 271.644 226.8 271.698 226.522 270.77 225.012 C 270.215 224.108 261.903 214.656 252.298 204.008 C 230.544 179.888 225.461 174.003 224.085 171.342 C 223.103 169.444 223.101 169.02 224.061 167.004 C 225.369 164.256 232.745 156.432 236.786 153.504 C 238.594 152.195 241.045 151.16 243.001 150.88 C 244.778 150.626 246.854 149.865 247.615 149.189 C 253.814 143.688 314.934 109.013 322.006 106.985 C 323.298 106.614 324.847 106.615 325.827 106.988 C 328.116 107.858 332.962 112.357 334.21 114.77 C 335.137 116.561 335.134 116.953 334.182 118.405 C 332.486 120.994 303.148 141.729 276.467 159.196 L 265.181 166.584 L 279.927 181.76 C 315.02 217.875 322.01 225.326 322.01 226.62 C 322.01 229.417 302.883 245.032 285.324 256.571 C 267.868 268.042 228.831 289.78 220.251 292.807 C 218.231 293.52 217.397 293.512 215.739 292.762 Z"
            fill="#000000"
            stroke-width="2"/>
    </g>
</svg>
