<svg xmlns="http://www.w3.org/2000/svg" viewBox="0 0 400 400"><path d="M73.131 280.42c.239-5.648.894-31.602 1.455-57.675 1.496-69.41 2.451-88.001 4.898-95.322 1.666-4.984 5.009-10.496 8.816-14.539 4.351-4.621 6.312-4.759 13.323-.936 6.07 3.309 25.339 15.773 49.067 31.737 39.857 26.816 42.944 29.634 43.772 39.948l.341 4.248-4.756 4.302c-5.614 5.08-18.542 11.802-57.498 29.896-21.591 10.029-24.41 11.521-24.728 13.086-.197.972-.842 12.648-1.434 25.948-.599 13.46-1.384 24.552-1.771 25.018-.383.461-1.384 1.007-2.224 1.212-1.458.357-14.845 1.906-24.954 2.887l-4.741.46Zm42.061-77.78c8.379-3.654 37.809-18.383 39.939-19.99l1.65-1.245-4.776-2.772c-5.784-3.359-32.319-17.566-40.242-21.547l-5.71-2.868v25.151c0 13.834.208 25.36.462 25.614.846.846 2.199.481 8.677-2.343Zm100.547 90.122c-4.059-1.835-9.493-7.921-10.638-11.913-1.29-4.5 2.806-8.495 23.455-22.874l25.325-17.632c8.013-5.579 15.319-10.941 16.234-11.915 1.529-1.628 1.583-1.906.655-3.416-.555-.904-8.867-10.356-18.472-21.004-21.754-24.12-26.837-30.005-28.213-32.666-.982-1.898-.984-2.322-.024-4.338 1.308-2.748 8.684-10.572 12.725-13.5 1.808-1.309 4.259-2.344 6.215-2.624 1.777-.254 3.853-1.015 4.614-1.691 6.199-5.501 67.319-40.176 74.391-42.204 1.292-.371 2.841-.37 3.821.003 2.289.87 7.135 5.369 8.383 7.782.927 1.791.924 2.183-.028 3.635-1.696 2.589-31.034 23.324-57.715 40.791l-11.286 7.388 14.746 15.176c35.093 36.115 42.083 43.566 42.083 44.86 0 2.797-19.127 18.412-36.686 29.951-17.456 11.471-56.493 33.209-65.073 36.236-2.02.713-2.854.705-4.512-.045Z"/></svg>