<?xml version="1.0" encoding="UTF-8" standalone="no"?>
<!-- Created with Inkscape (http://www.inkscape.org/) -->

<svg
   version="1.1"
   id="svg9"
   width="163.84"
   height="163.84"
   viewBox="0 0 163.84 163.84"
   sodipodi:docname="pujieblack.svg"
   inkscape:version="1.1.2 (b8e25be833, 2022-02-05)"
   xmlns:inkscape="http://www.inkscape.org/namespaces/inkscape"
   xmlns:sodipodi="http://sodipodi.sourceforge.net/DTD/sodipodi-0.dtd"
   xmlns="http://www.w3.org/2000/svg"
   xmlns:svg="http://www.w3.org/2000/svg">
  <defs
     id="defs13" />
  <sodipodi:namedview
     id="namedview11"
     pagecolor="#ffffff"
     bordercolor="#666666"
     borderopacity="1.0"
     inkscape:pageshadow="2"
     inkscape:pageopacity="0.0"
     inkscape:pagecheckerboard="0"
     showgrid="false"
     inkscape:zoom="3.5278321"
     inkscape:cx="81.919998"
     inkscape:cy="81.919998"
     inkscape:window-width="1280"
     inkscape:window-height="961"
     inkscape:window-x="-8"
     inkscape:window-y="-8"
     inkscape:window-maximized="1"
     inkscape:current-layer="g15" />
  <g
     inkscape:groupmode="layer"
     inkscape:label="Image"
     id="g15">
    <g
       id="g135"
       transform="translate(-9.1927837,-3.1999598)">
      <path
         style="fill:#d0d0d0;stroke-width:0.32"
         d="M 88.853334,157.22667 C 88.383962,156.7573 88.682611,156.16 89.386666,156.16 c 0.90942,0 1.184393,0.23884 0.957049,0.83129 -0.177869,0.46352 -1.114342,0.61142 -1.490381,0.23538 z m -20.466502,-0.6265 c -0.557254,-0.55726 -0.197818,-1.11934 0.653168,-1.02142 0.523888,0.0603 0.88,0.29549 0.88,0.58125 0,0.50313 -1.142266,0.83107 -1.533168,0.44017 z M 78.88,151.14486 c -13.313536,-0.65269 -27.563293,-5.64585 -37.446064,-13.12122 -1.355104,-1.025 -2.7864,-2.07964 -3.180656,-2.34364 -0.711792,-0.47662 -4.160723,-3.66617 -6.166557,-5.70278 C 31.511025,129.39268 31.04,128.66466 31.04,128.35939 c 0,-0.70401 0.921418,-1.89202 3.529194,-4.55029 4.311872,-4.39536 4.911596,-5.13426 4.43479,-5.46399 -0.325558,-0.22514 -0.266352,-0.25759 0.221978,-0.12166 0.523318,0.14567 1.096742,-0.27821 2.677219,-1.97904 1.106192,-1.19042 3.254512,-3.46372 4.774038,-5.05177 1.51953,-1.58805 4.274781,-4.53705 6.122781,-6.55334 1.848,-2.01628 5.242083,-5.61297 7.54241,-7.992634 C 62.642736,94.266998 65.659446,91.096 67.046208,89.6 75.849616,80.103136 79.220186,76.866861 80.580269,76.605171 c 2.070336,-0.398345 3.564371,0.0465 5.048669,1.503229 1.473808,1.446435 1.895756,2.542374 1.783369,4.631994 -0.06681,1.242153 0.0048,1.348832 1.599107,2.3819 0.917978,0.594829 2.829943,1.961341 4.248816,3.036695 2.691895,2.040169 9.31674,6.794361 13.49637,9.685405 1.33933,0.926416 3.26595,2.316216 4.28137,3.088456 3.12907,2.37967 2.99384,2.36926 4.34441,0.33454 1.50822,-2.272225 3.4275,-7.161832 4.3324,-11.037342 1.00719,-4.31359 1.01313,-12.244934 0.0125,-16.647325 C 118.86379,69.78401 117.60531,66.519754 115.72437,63.2 112.67787,57.823094 110.2338,54.909008 106.08,51.700941 102.23315,48.729936 99.303216,47.059702 95.2,45.498714 93.405088,44.815872 87.844669,43.52585 86.683677,43.522918 84.709299,43.517926 82.098883,42.898371 81.68,42.335334 c -0.256566,-0.34486 -0.4,-1.668419 -0.4,-3.69104 0,-2.968937 0.04864,-3.202028 0.831638,-3.985024 0.810055,-0.810054 0.907648,-0.826342 3.76,-0.627478 3.974935,0.27713 8.010576,1.181453 12.387853,2.77592 15.019609,5.471053 26.176329,17.783616 30.197799,33.326317 1.0605,4.098761 1.46271,7.326278 1.46271,11.73752 0,9.077683 -2.0456,16.490643 -6.86912,24.892701 l -1.12765,1.96426 0.79838,0.52312 c 0.53393,0.34984 0.79839,0.81748 0.79839,1.41175 0,2.07432 -1.61156,2.17942 -4.10702,0.26786 -1.77816,-1.36209 -7.23105,-5.36802 -8.57426,-6.29903 -0.37471,-0.25972 -2.86319,-2.05621 -5.52996,-3.99221 C 102.642,98.704 99.118752,96.184 97.479331,95.04 95.83991,93.896 93.86439,92.483507 93.089283,91.901126 88.854291,88.719142 85.936973,86.72 85.528554,86.72 c -0.635556,0 -3.651482,3.162525 -30.008554,31.4672 -4.224,4.53612 -7.723328,8.36967 -7.776282,8.519 -0.220057,0.62051 11.355056,7.3738 12.638669,7.3738 0.163571,0 0.870151,0.27672 1.570176,0.61494 1.722352,0.83215 6.348528,2.12842 10.047437,2.81533 4.319398,0.80213 15.503197,0.78372 20,-0.0329 2.990352,-0.54307 8.04719,-1.97946 10.24,-2.90866 6.00954,-2.54654 8.25218,-3.77246 12.8,-6.99701 3.08734,-2.18902 8.3047,-7.10111 10.81011,-10.17761 5.06418,-6.21851 9.22898,-14.7301 11.09464,-22.67405 1.29356,-5.508013 1.65337,-14.46977 0.8295,-20.660346 C 135.49969,56.968614 125.18418,41.725894 109.92,32.900813 102.71289,28.733975 95.278723,26.484329 85.936381,25.64315 83.032006,25.381642 82.68625,25.279175 81.994486,24.47495 81.256611,23.61712 81.23895,23.460406 81.338106,18.650237 81.459466,12.762775 81.436486,12.8 84.949555,12.8 c 4.748125,0 11.855168,1.249749 17.597155,3.0944 10.92521,3.509792 19.19425,8.42737 27.30457,16.237958 7.44783,7.172573 13.07775,15.571514 16.53506,24.667642 6.30705,16.593776 6.39847,33.42257 0.26938,49.58834 -2.22362,5.86492 -5.08418,11.2668 -8.22479,15.53166 -3.34781,4.54625 -8.91948,10.63374 -11.71093,12.79513 -0.792,0.61323 -1.584,1.28771 -1.76,1.49884 -0.176,0.21112 -2.14759,1.60593 -4.38132,3.09957 -8.02823,5.36828 -17.23943,9.08703 -27.057045,10.92345 -2.283513,0.42714 -11.127379,1.19245 -12.241635,1.05934 -0.264,-0.0316 -1.344,-0.0997 -2.4,-0.15147 z m 43.52721,-5.85319 c -0.27403,-0.44339 0.99654,-1.61167 1.75279,-1.61167 0.77012,0 0.80146,0.26708 0.14186,1.2088 -0.51125,0.72989 -1.55533,0.95191 -1.89465,0.40287 z"
         id="path149" />
      <path
         style="fill:#adadad;stroke-width:0.32"
         d="m 89.12,156.8 c -0.108774,-0.176 0.02672,-0.32 0.301114,-0.32 0.274387,0 0.498886,0.144 0.498886,0.32 0,0.176 -0.135501,0.32 -0.301114,0.32 -0.165612,0 -0.390112,-0.144 -0.498886,-0.32 z M 68.8,156.16 c 0,-0.176 0.144,-0.32 0.32,-0.32 0.176,0 0.32,0.144 0.32,0.32 0,0.176 -0.144,0.32 -0.32,0.32 -0.176,0 -0.32,-0.144 -0.32,-0.32 z m 9.76,-5.33514 c -16.749104,-0.82112 -32.525501,-7.70507 -44.72,-19.51334 -1.364,-1.3208 -2.48,-2.66608 -2.48,-2.98951 0,-0.60689 1.767699,-2.56717 11.688666,-12.96201 3.191555,-3.344 6.799241,-7.16271 8.017081,-8.48601 3.519053,-3.82381 5.310381,-5.74197 6.837603,-7.321699 C 58.686192,98.742531 61.917942,95.344 65.085021,92 73.423318,83.195894 77.119962,79.369286 78.474784,78.139485 c 2.256314,-2.048106 4.942157,-1.975139 7.058067,0.191747 1.37153,1.404573 1.897504,2.87609 1.628755,4.556755 -0.185939,1.162787 -0.169545,1.183088 2.325568,2.880138 1.382055,0.94 3.376826,2.373225 4.432826,3.184944 1.872227,1.439126 7.86881,5.747302 12.92655,9.286931 1.38317,0.968 3.56181,2.51135 4.84143,3.42966 1.27962,0.91832 2.45098,1.59279 2.60302,1.49882 0.46164,-0.28531 2.57001,-3.725546 2.91677,-4.759322 0.1788,-0.533036 0.42912,-1.113158 0.55627,-1.289158 0.37897,-0.52457 1.82214,-5.252118 2.44214,-8 0.85464,-3.787837 0.76575,-11.100672 -0.18626,-15.32232 C 116.13913,56.588397 102.44971,44.656486 84.717075,43.027168 81.728394,42.75256 81.6,42.569658 81.6,38.586739 c 0,-2.778525 0.09061,-3.369545 0.585197,-3.817142 0.740019,-0.669709 3.048256,-0.688672 6.934803,-0.05697 4.567386,0.742365 5.586003,1.005168 9.293072,2.397607 12.840418,4.823081 22.605138,14.312128 27.824418,27.038883 2.33715,5.698944 3.36251,11.103197 3.36251,17.722429 0,8.937651 -1.67393,15.414672 -6.07274,23.497534 l -1.87704,3.44907 0.77489,0.50773 c 1.38793,0.9094 0.77339,3.33418 -0.70455,2.77995 -0.33031,-0.12386 -1.47075,-0.88235 -2.53432,-1.68552 -1.06357,-0.80317 -3.13947,-2.32431 -4.61312,-3.38031 -1.47364,-1.056 -3.55545,-2.57203 -4.62624,-3.36895 -1.07078,-0.79692 -3.07582,-2.23692 -4.45563,-3.2 -1.37981,-0.963082 -3.19322,-2.276544 -4.0298,-2.918813 -0.83658,-0.642269 -2.515639,-1.845469 -3.731248,-2.673776 C 96.514589,94.050154 94.656,92.734941 93.6,91.95577 87.684838,87.591251 85.949331,86.4 85.505942,86.4 c -0.517782,0 -4.034844,3.608954 -15.602211,16.00985 -17.750013,19.02905 -22.390307,24.04336 -22.477709,24.28944 -0.231494,0.65174 6.784365,4.9717 11.133978,6.85565 1.144,0.49551 2.512,1.0937 3.04,1.32932 1.66456,0.74282 7.564579,2.36551 10.56,2.90434 4.376838,0.78733 12.338554,0.94048 16.995488,0.32692 C 112.86658,134.99157 131.86093,117.73353 137.26917,94.4 137.98854,91.296294 138.56,85.77135 138.56,81.92 c 0,-20.311616 -10.51551,-38.641184 -28.15345,-49.074221 -4.0876,-2.417859 -10.06719,-4.815659 -14.923977,-5.984471 -3.118938,-0.750589 -8.676119,-1.567335 -10.719418,-1.575446 -1.002781,-0.004 -1.747497,-0.218757 -2.32,-0.669088 L 81.6,23.953549 V 19.039631 C 81.6,13.041162 81.55377,13.12 85.071251,13.12 c 10.256419,0 24.369749,4.418494 33.821249,10.588502 8.22336,5.368266 15.407,12.453303 20.68149,20.3976 10.49749,15.811047 13.92878,36.146192 9.23583,54.734999 -4.91315,19.461009 -18.38533,36.045759 -36.49505,44.926759 -6.18158,3.03144 -12.30977,5.0623 -18.55477,6.14898 -2.701155,0.47003 -10.947747,1.17035 -12.48,1.05984 -0.44,-0.0317 -1.664,-0.10005 -2.72,-0.15182 z m 44.32,-5.99062 c 0,-0.45472 0.92162,-0.97929 1.2114,-0.6895 0.20427,0.20427 -0.55887,1.13526 -0.93058,1.13526 -0.15445,0 -0.28082,-0.2006 -0.28082,-0.44576 z"
         id="path147" />
      <path
         style="fill:#939393;stroke-width:0.32"
         d="m 77.92,150.52095 c -13.80215,-0.79235 -26.381984,-5.38482 -37.50207,-13.69073 -3.728077,-2.78461 -8.612472,-7.29082 -8.906358,-8.21677 -0.132439,-0.41728 0.08808,-0.96936 0.662812,-1.65939 0.862963,-1.03608 9.021472,-9.65105 15.676941,-16.55406 1.951421,-2.024 5.626262,-5.912 8.166313,-8.64 2.540055,-2.728 5.051197,-5.392 5.58032,-5.92 0.529124,-0.528 3.794266,-3.99145 7.255876,-7.696554 8.834092,-9.455504 10.439401,-10.926233 12.216982,-11.192796 1.677165,-0.251508 2.567226,-0.02733 3.92415,0.988428 1.350052,1.010599 2.091943,2.684381 1.997607,4.506804 -0.06459,1.247814 0.04881,1.585094 0.705229,2.097539 1.2947,1.010723 9.55152,7.01768 12.459178,9.064233 1.49434,1.051792 3.15034,2.228756 3.68,2.615476 0.52966,0.386723 1.97067,1.394723 3.20225,2.24 1.23158,0.84528 3.22646,2.29287 4.43307,3.21687 1.20661,0.924 2.39053,1.68 2.63094,1.68 1.09423,0 4.66929,-7.4336 5.751,-11.958013 1.07423,-4.49311 1.4851,-9.145693 1.10582,-12.521987 -0.69925,-6.224534 -2.23989,-11.182512 -4.97638,-16.014547 -2.21657,-3.913965 -3.92232,-6.114823 -7.06236,-9.112275 C 102.08696,47.229178 95.053338,44.095766 84,42.650966 L 82.08,42.4 81.988746,38.917635 c -0.114183,-4.357171 0.08589,-4.68384 2.757244,-4.501961 5.41313,0.368553 9.588381,1.289344 14.586756,3.216883 13.929374,5.371645 24.812534,17.593129 28.609294,32.127443 0.92647,3.546605 1.06001,4.507702 1.33394,9.6 0.54985,10.221654 -1.3314,17.91161 -6.76075,27.63582 l -1.04733,1.87581 0.86605,0.63088 c 0.96119,0.70017 1.11642,1.57134 0.38776,2.17608 -0.73334,0.60861 -1.30372,0.31753 -5.44171,-2.77694 -2.112,-1.57939 -4.73961,-3.50838 -5.83914,-4.28664 C 107.89387,102.10442 96.185066,93.709741 95.36,93.08577 c -0.44,-0.332759 -1.562442,-1.145184 -2.494314,-1.805392 -0.931872,-0.660208 -2.681612,-1.94368 -3.88831,-2.85216 -3.69559,-2.782276 -3.263066,-2.789181 -6.07769,0.097 C 81.550851,89.908349 73.411264,98.6 64.811712,107.84 c -8.599552,9.24 -16.066717,17.2621 -16.593696,17.82689 -1.14137,1.22325 -1.031245,1.43701 1.693677,3.28747 6.192521,4.20526 15.60415,7.98978 22.248307,8.9463 1.408,0.2027 3.360669,0.50597 4.339264,0.67394 6.309418,1.08297 16.991338,-0.35216 25.100736,-3.37232 8.08907,-3.01259 13.7874,-6.72994 20.34214,-13.27034 4.96356,-4.9527 8.15435,-9.25965 10.79557,-14.57194 9.21254,-18.529258 7.91825,-39.784707 -3.45537,-56.745594 C 122.06316,39.848822 111.37301,31.672197 99.36,27.727567 96.339418,26.73572 90.782512,25.6265 86.913158,25.24304 84.415581,24.995525 82.84111,24.689012 82.48,24.380005 c -0.489514,-0.41888 -0.56,-1.115993 -0.56,-5.538342 0,-4.580458 0.05557,-5.088888 0.587344,-5.373483 1.064019,-0.569446 11.328067,0.466496 15.892656,1.604032 3.29131,0.820224 9.61373,3.089167 12.8,4.593569 8.66077,4.089193 17.06153,10.42644 22.66824,17.100149 13.47004,16.033481 18.69669,34.069075 16.05299,55.39407 -1.90766,15.38786 -10.80877,31.52007 -23.20123,42.0495 -10.08678,8.57038 -24.26353,14.8448 -36.16,16.00388 -2.136205,0.20813 -10.729718,0.41724 -12.64,0.30757 z M 123.2,144.64 c 0,-0.176 0.1525,-0.32 0.33889,-0.32 0.18638,0 0.24988,0.144 0.14111,0.32 -0.10877,0.176 -0.26127,0.32 -0.33889,0.32 -0.0776,0 -0.14111,-0.144 -0.14111,-0.32 z"
         id="path145" />
      <path
         style="fill:#6b6b6b;stroke-width:0.32"
         d="M 78.72,150.52311 C 71.98616,150.11798 65.783792,148.95888 59.908067,147.00754 53.144973,144.7615 43.804144,139.59607 38.4,135.1137 c -2.976944,-2.46918 -6.72,-6.27051 -6.72,-6.82462 0,-0.54304 2.432048,-3.23104 12.32,-13.61655 3.168,-3.32741 7.632,-8.05369 9.92,-10.50282 2.288,-2.44915 4.455072,-4.749252 4.815715,-5.111352 C 59.096358,98.696262 62.038058,95.592 65.272822,92.16 78.133872,78.514765 79.204835,77.480998 80.874784,77.099942 c 3.345622,-0.76342 6.520954,2.322692 5.965283,5.797668 -0.158995,0.994297 -0.06972,1.26568 0.565568,1.719206 0.414899,0.296195 2.338365,1.678963 4.274365,3.072819 10.68483,7.692714 12.88087,9.266346 15.16984,10.870365 1.38136,0.968 3.55114,2.50615 4.82173,3.41811 1.2706,0.91196 2.47629,1.59338 2.67931,1.51427 0.67703,-0.26382 2.96414,-4.415289 4.12768,-7.49238 1.96268,-5.190493 2.62177,-8.754634 2.60372,-14.08 -0.0116,-3.432982 -0.18793,-5.444291 -0.67771,-7.73184 C 117.56568,60.928915 108.88078,50.578688 96.16,45.294691 94.08864,44.434285 87.712429,42.957517 85.143802,42.743277 c -1.306909,-0.109005 -2.566909,-0.356467 -2.8,-0.549917 -0.563821,-0.46793 -0.597991,-6.691171 -0.0398,-7.24936 0.2112,-0.2112 1.114979,-0.384 2.008394,-0.384 1.900387,0 6.625158,0.551712 8.007606,0.935053 13.213798,3.664041 22.361618,9.973369 29.033948,20.024947 4.05473,6.108278 6.59198,12.734765 7.59664,19.84 0.64977,4.595341 0.28725,13.681466 -0.68944,17.28 -1.49601,5.511926 -2.76852,8.65627 -5.47254,13.52258 l -1.46838,2.64258 0.97558,0.91176 c 0.84324,0.78808 0.9258,1.00477 0.60863,1.59742 -0.51016,0.95323 -0.97889,0.86606 -2.76573,-0.51434 -1.47849,-1.14219 -6.42556,-4.74427 -13.41871,-9.77048 -1.76,-1.264976 -3.80072,-2.734106 -4.53493,-3.264736 -0.73422,-0.53063 -2.390214,-1.715206 -3.680002,-2.632387 -2.453063,-1.744403 -4.908477,-3.518323 -9.666071,-6.98329 C 87.276442,87.011098 85.76368,86.08 85.477302,86.08 c -0.556828,0 -5.379088,5.034698 -25.439292,26.56 -6.97088,7.48 -12.675159,13.83936 -12.67617,14.13191 -0.0057,1.64466 11.523392,7.7981 18.39816,9.81968 19.534691,5.74434 40.77439,0.57028 55.4414,-13.50572 12.02917,-11.54445 18.17766,-26.622532 17.59184,-43.140875 -0.55016,-15.512681 -6.47589,-28.603613 -17.838,-39.407094 -4.93197,-4.689485 -9.83477,-7.996141 -15.78183,-10.643938 -6.021941,-2.681135 -11.051074,-3.98628 -18.190949,-4.720859 -2.259808,-0.232498 -4.280157,-0.602214 -4.56,-0.834462 C 82.006234,23.993203 81.92,23.088103 81.92,19.064818 c 0,-3.350859 0.119069,-4.975885 0.384,-5.240818 0.521152,-0.521152 4.698362,-0.483018 8.939635,0.08161 16.519825,2.199239 32.163045,10.760447 42.988815,23.526879 10.54022,12.42968 16.20752,27.865363 16.27512,44.32751 0.0252,6.150816 -0.44756,10.437866 -1.76381,15.992669 -5.9504,25.111642 -25.14637,44.459562 -50.482278,50.881882 -5.511812,1.39718 -14.028349,2.22024 -19.541482,1.88856 z"
         id="path143" />
      <path
         style="fill:#515151;stroke-width:0.32"
         d="m 79.2,150.50896 c -16.749773,-0.8995 -32.260499,-7.40374 -44,-18.4509 -3.324884,-3.1288 -3.651634,-3.55967 -3.247322,-4.28214 0.16856,-0.3012 1.295725,-1.562 2.504807,-2.80178 1.209081,-1.23978 3.490774,-3.62284 5.070425,-5.2957 7.56482,-8.01118 13.30122,-14.11369 15.184512,-16.15364 1.139834,-1.23464 4.021882,-4.2608 6.404557,-6.7248 2.382672,-2.464 7.354083,-7.683642 11.047578,-11.599206 3.753321,-3.978989 7.19416,-7.347383 7.800745,-7.636509 1.785175,-0.850899 3.696199,-0.45337 5.239472,1.089901 1.193242,1.193241 1.298525,1.445817 1.494672,3.585769 0.148391,1.618906 0.363498,2.387443 0.724823,2.589651 0.494992,0.277012 2.662054,1.829639 12.216454,8.752682 2.442397,1.769741 6.079297,4.369712 8.081997,5.777712 2.0027,1.408 4.21249,2.9729 4.91065,3.47755 0.69816,0.50465 1.47957,0.83689 1.73646,0.73831 1.4388,-0.55212 4.68627,-7.769041 6.00087,-13.33586 0.93734,-3.969286 1.00443,-12.171942 0.13217,-16.16 -1.2894,-5.895258 -3.69211,-11.134592 -7.42683,-16.194893 -4.62901,-6.272029 -11.55649,-11.079965 -19.556152,-13.572723 -2.388522,-0.744282 -4.572685,-1.175718 -8.686886,-1.715917 -1.302048,-0.17096 -2.487623,-0.50103 -2.635101,-0.733629 -0.147456,-0.23256 -0.270307,-1.650796 -0.273002,-3.151635 -0.0077,-4.310528 0.514551,-4.630665 6.235101,-3.821795 13.97872,1.97655 26.5661,10.110618 33.8273,21.859485 4.88012,7.896205 7.2927,16.276262 7.2927,25.331107 0,8.329923 -1.83982,15.298499 -6.0782,23.02208 -1.05699,1.92614 -1.9218,3.61482 -1.9218,3.75262 0,0.1378 0.36723,0.49116 0.81605,0.78525 0.93488,0.61255 0.96378,1.80873 0.0479,1.98333 -0.31681,0.0604 -1.32481,-0.45563 -2.24,-1.14674 -0.91518,-0.6911 -3.23201,-2.39505 -5.14849,-3.78655 -1.91649,-1.39149 -4.29249,-3.11722 -5.28,-3.83494 -4.87243,-3.541271 -12.162747,-8.764391 -13.186286,-9.447268 -1.303703,-0.869788 -4.232948,-3.007312 -7.388487,-5.391513 -3.615177,-2.731485 -3.117805,-2.857773 -7.875561,1.999718 -2.275508,2.323207 -6.857056,7.170755 -10.181216,10.772333 -3.32416,3.60157 -8.352048,9.00157 -11.173082,12 C 50.864208,122.14874 47.04,126.35477 47.04,126.6803 c 0,1.29289 7.903709,5.98328 14.26409,8.46491 13.09662,5.10991 28.827744,5.01213 41.90639,-0.26046 8.31509,-3.35218 16.98179,-9.57566 22.18234,-15.92893 7.58788,-9.26976 11.70723,-18.70078 13.19097,-30.199942 C 139.06929,84.993165 138.8053,75.35121 138.11188,71.52 134.79117,53.172678 121.96407,37.022531 104.82984,29.615763 98.865709,27.037593 94.216656,25.845534 87.368579,25.13854 81.650243,24.54818 81.840355,24.777185 81.97743,18.644386 c 0.0816,-3.650784 0.200704,-4.650875 0.58257,-4.891777 1.206029,-0.760825 8.322045,-0.08774 14.918294,1.411086 21.989486,4.996532 40.893396,21.667041 48.704686,42.950481 4.09303,11.152259 5.22483,21.828221 3.60936,34.045824 -1.13315,8.56992 -5.49922,19.83645 -10.68693,27.57738 -3.59597,5.36578 -8.67116,11.09026 -13.18541,14.87226 -5.45623,4.5712 -14.69927,9.7632 -21.58341,12.12383 -7.9261,2.71793 -17.645521,4.17777 -25.13659,3.77549 z"
         id="path141" />
      <path
         style="fill:#2d2d2d;stroke-width:0.32"
         d="m 78.56,150.19896 c -9.956438,-0.58655 -18.062029,-2.6846 -26.706125,-6.91263 -6.945232,-3.39708 -13.525475,-8.05006 -18.381408,-12.99776 l -1.887536,-1.9232 0.880979,-1.06269 c 0.484538,-0.58447 3.214055,-3.51068 6.065597,-6.50268 2.851539,-2.992 7.899904,-8.32 11.218589,-11.84 3.318682,-3.52 8.350256,-8.848 11.181274,-11.84 2.831017,-2.992 6.360768,-6.736 7.843891,-8.32 4.746624,-5.069485 10.405718,-10.765114 11.034185,-11.10543 1.084804,-0.587418 3.62889,-0.4405 4.572576,0.26406 1.655882,1.236295 2.159764,2.235511 2.123437,4.210855 -0.03523,1.915875 0.378618,2.742985 1.654541,3.306742 0.352,0.15553 2.08,1.360352 3.84,2.677383 3.4724,2.598444 10.83581,7.915507 14.8546,10.72639 1.38397,0.968 3.45766,2.444 4.6082,3.28 1.15053,0.836 2.374,1.52 2.7188,1.52 1.35247,0 4.72823,-6.890528 6.1248,-12.501802 C 123.68653,77.59712 119.36836,63.033715 109.06206,53.255763 102.57227,47.098662 94.482259,43.501216 84.48,42.324666 L 82.4,42.08 v -3.52 -3.52 l 1.44,-0.104189 c 2.031405,-0.146976 6.983427,0.480122 9.843261,1.246503 11.265939,3.019049 20.789159,9.661664 26.985139,18.822611 5.79381,8.566336 8.22232,16.439213 8.27052,26.81192 0.0404,8.699789 -1.24611,14.1368 -5.15863,21.800835 -1.37516,2.69372 -2.50029,5.06431 -2.50029,5.26798 0,0.20366 0.36899,0.66452 0.81996,1.02412 0.56134,0.44759 0.75241,0.82988 0.60577,1.21202 -0.31603,0.82357 -0.83966,0.69265 -2.56702,-0.6418 -1.61833,-1.25022 -7.74148,-5.69879 -13.67309,-9.93371 -1.8999,-1.35646 -4.9959,-3.582492 -6.879998,-4.946738 C 97.70153,94.235306 95.152,92.394403 93.92,91.508659 92.688,90.622915 90.401549,88.96712 88.838995,87.829107 87.276442,86.691098 85.758093,85.76 85.46489,85.76 c -0.610042,0 -2.936602,2.423184 -23.503847,24.48 -8.205709,8.8 -14.919824,16.24941 -14.920256,16.55426 -0.0019,1.3398 8.632618,6.41267 14.820963,8.70746 15.219168,5.64364 31.36985,4.77914 45.81825,-2.45254 11.69549,-5.85379 22.39168,-17.33856 27.05458,-29.04918 3.45754,-8.683421 4.67101,-15.30641 4.37905,-23.900355 C 138.87061,72.946224 137.71068,67.101696 135.37707,61.27233 132.03504,52.92391 127.88252,46.836131 121.13704,40.39584 113.67595,33.272314 105.76094,28.902065 95.52,26.251468 92.881866,25.568657 86.590371,24.64 84.602573,24.64 82.273274,24.64 82.24,24.561242 82.24,19.047627 c 0,-3.277444 0.119475,-5.003696 0.356448,-5.150152 0.552035,-0.341178 5.215174,-0.160306 8.797712,0.341242 19.16063,2.682447 36.13181,13.173637 46.94684,29.021459 9.68259,14.188381 13.50304,30.644326 11.24127,48.419824 -1.74851,13.74166 -8.54413,27.57967 -18.67332,38.02468 -10.44063,10.76615 -25.60715,18.3212 -40.18895,20.0197 -3.410227,0.39723 -9.463059,0.63346 -12.16,0.47458 z"
         id="path139" />
      <path
         style="fill:#010101;stroke-width:0.32"
         d="M 77.92,149.88423 C 61.499552,148.91358 46.475104,142.40059 34.741037,131.16644 l -2.876091,-2.75355 0.903976,-1.08645 c 0.780508,-0.93805 10.850732,-11.60293 20.212864,-21.40644 1.59672,-1.672 3.963379,-4.192 5.259241,-5.6 1.295863,-1.408 3.525475,-3.784 4.954695,-5.28 1.429222,-1.496 3.882793,-4.088 5.45238,-5.76 6.836999,-7.283094 10.891498,-11.209642 11.928231,-11.551792 3.097597,-1.022301 6.284845,1.793171 5.679971,5.017434 -0.176349,0.940009 -0.07415,1.226736 0.688298,1.931001 0.889792,0.821898 7.982048,6.049469 11.908048,8.777203 1.128956,0.784384 2.78496,1.961562 3.68,2.615949 0.89504,0.654391 2.63535,1.881229 3.86735,2.726311 1.232,0.845084 3.34759,2.372794 4.70131,3.394904 1.64548,1.24242 2.69735,1.82369 3.17344,1.75369 0.91345,-0.1343 3.02421,-3.48686 4.42141,-7.022604 2.05335,-5.196214 3.48783,-13.095715 3.08098,-16.966579 -0.94135,-8.956154 -3.39317,-15.501725 -8.27726,-22.097645 C 109.9787,53.10255 104.5938,48.714163 99.04,46.073891 95.03295,44.168944 88.250826,42.24 85.560118,42.24 85.010054,42.24 84.11,42.15 83.56,42.04 l -1,-0.2 v -3.285763 c 0,-2.452186 0.108854,-3.327536 0.429082,-3.450419 0.614476,-0.235796 7.646512,0.595184 10.265945,1.213136 10.960403,2.585673 21.564273,10.012451 27.646353,19.363046 4.95625,7.619738 7.26401,14.711962 7.70531,23.68 0.50053,10.171619 -1.25688,17.617389 -6.27979,26.60612 -0.7518,1.34537 -1.3669,2.67405 -1.3669,2.95263 0,0.27857 0.36,0.74238 0.8,1.03068 0.85132,0.5578 1.08037,1.41057 0.37887,1.41057 -0.23162,0 -2.21162,-1.32822 -4.4,-2.9516 -2.18838,-1.62339 -4.7141,-3.45939 -5.6127,-4.08 -0.89861,-0.62062 -3.81575,-2.7124 -6.48253,-4.6484 -2.66679,-1.936 -5.969541,-4.312 -7.339461,-5.28 -2.972374,-2.100314 -5.712409,-4.091853 -9.191843,-6.680899 -3.933494,-2.926909 -3.483194,-3.038842 -8.32159,2.068486 -14.917498,15.746653 -34.06698,36.537653 -34.068701,36.989113 -0.0045,1.17248 5.757648,4.91366 11.580598,7.51895 13.401325,5.996 27.272816,6.79116 41.057357,2.35355 9.02346,-2.9049 15.4536,-6.76949 22.35162,-13.4336 7.48245,-7.22874 12.0607,-14.64571 15.21908,-24.6556 5.36677,-17.008954 2.32917,-35.203837 -8.38746,-50.24 C 126.0794,44.863078 118.72763,37.53279 115.25375,35.06936 107.09391,29.282976 97.106067,25.573195 87.019613,24.582366 L 82.72,24.16 82.631366,19.224633 c -0.04875,-2.714452 0.0233,-5.047299 0.160106,-5.184104 0.136803,-0.136805 2.192688,-0.105582 4.56863,0.06939 26.326118,1.938686 49.124428,19.071195 58.342228,43.843109 3.94908,10.612746 5.03569,20.378365 3.69936,33.246976 -0.64658,6.226448 -3.67874,16.108146 -6.56398,21.391736 -0.6392,1.17054 -1.59538,2.92026 -2.12484,3.88826 -5.00773,9.1555 -14.95788,19.01532 -24.71287,24.48852 -7.98263,4.47879 -16.862749,7.5011 -24.8,8.44058 -3.174947,0.3758 -10.516733,0.63847 -13.28,0.47513 z"
         id="path137" />
    </g>
  </g>
</svg>
