<svg
    xmlns="http://www.w3.org/2000/svg"
    viewBox="0 0 192 192"
    id="vector">
    <path
        id="path"
        d="M 78.405 175.941 C 56.156 174.8 35.797 167.137 19.897 153.917 L 16 150.677 L 17.225 149.398 C 18.282 148.295 31.927 135.747 44.614 124.211 C 47.008 122.03 49.383 119.834 51.74 117.622 C 53.959 115.536 56.197 113.465 58.454 111.409 C 60.39 109.649 63.715 106.599 65.841 104.631 C 75.105 96.062 80.6 91.441 82.004 91.038 C 86.201 89.836 90.52 93.148 89.7 96.943 C 89.462 98.049 89.6 98.386 90.634 99.214 C 91.84 100.182 101.449 106.333 106.769 109.543 C 108.443 110.554 110.105 111.58 111.755 112.621 C 113.487 113.708 115.234 114.778 116.995 115.828 C 118.665 116.823 121.532 118.621 123.365 119.823 C 125.595 121.284 127.021 121.969 127.666 121.887 C 128.903 121.728 131.763 117.784 133.656 113.623 C 136.44 107.509 138.383 98.214 137.831 93.66 C 136.556 83.121 133.234 75.419 126.616 67.658 C 121.845 62.063 114.548 56.899 107.022 53.793 C 101.593 51.551 92.402 49.281 88.757 49.281 C 88.012 49.281 86.792 49.175 86.047 49.046 L 84.692 48.811 L 84.692 44.944 C 84.692 42.059 84.84 41.029 85.275 40.885 C 86.107 40.607 95.635 41.585 99.184 42.312 C 114.035 45.355 128.403 54.093 136.644 65.095 C 143.361 74.062 146.487 82.406 147.086 92.959 C 147.763 104.928 145.383 113.688 138.576 124.265 C 137.557 125.848 136.724 127.411 136.724 127.74 C 136.724 128.067 137.212 128.613 137.808 128.952 C 138.961 129.608 139.272 130.612 138.322 130.612 C 138.007 130.612 135.324 129.049 132.36 127.138 C 129.394 125.229 125.972 123.068 124.754 122.338 C 123.537 121.608 119.583 119.147 115.971 116.868 C 112.667 114.784 109.352 112.713 106.025 110.656 C 101.835 108.082 97.683 105.462 93.57 102.796 C 88.241 99.35 88.85 99.219 82.295 105.229 C 62.081 123.757 36.134 148.221 36.131 148.752 C 36.126 150.131 43.933 154.533 51.822 157.6 C 69.982 164.655 88.777 165.589 107.456 160.368 C 119.682 156.95 128.396 152.402 137.743 144.562 C 147.881 136.055 154.084 127.329 158.365 115.551 C 165.636 95.537 161.521 74.128 146.999 56.435 C 143.66 52.368 133.7 43.743 128.991 40.845 C 117.934 34.035 104.402 29.67 90.735 28.504 L 84.909 28.007 L 84.788 22.2 C 84.723 19.006 84.821 16.261 85.005 16.101 C 85.191 15.939 87.976 15.976 91.197 16.182 C 126.868 18.463 157.761 38.622 170.25 67.77 C 175.602 80.258 177.073 91.748 175.263 106.89 C 174.387 114.216 170.278 125.844 166.369 132.061 L 163.49 136.636 C 156.704 147.41 143.221 159.011 130.003 165.452 C 119.186 170.721 107.154 174.276 96.399 175.383 C 92.097 175.825 82.149 176.134 78.405 175.941 Z"
        fill="#000000"
        stroke-width="12"/>
</svg>
