<svg xmlns="http://www.w3.org/2000/svg" viewBox="0 0 192 192"><path d="M78.405 175.941c-22.249-1.141-42.608-8.804-58.508-22.024L16 150.677l1.225-1.279c1.057-1.103 14.702-13.651 27.389-25.187a655.773 655.773 0 0 0 7.126-6.589 583.202 583.202 0 0 1 6.714-6.213c1.936-1.76 5.261-4.81 7.387-6.778 9.264-8.569 14.759-13.19 16.163-13.593 4.197-1.202 8.516 2.11 7.696 5.905-.238 1.106-.1 1.443.934 2.271 1.206.968 10.815 7.119 16.135 10.329a300.121 300.121 0 0 1 4.986 3.078 269.422 269.422 0 0 0 5.24 3.207c1.67.995 4.537 2.793 6.37 3.995 2.23 1.461 3.656 2.146 4.301 2.064 1.237-.159 4.097-4.103 5.99-8.264 2.784-6.114 4.727-15.409 4.175-19.963-1.275-10.539-4.597-18.241-11.215-26.002-4.771-5.595-12.068-10.759-19.594-13.865-5.429-2.242-14.62-4.512-18.265-4.512-.745 0-1.965-.106-2.71-.235l-1.355-.235v-3.867c0-2.885.148-3.915.583-4.059.832-.278 10.36.7 13.909 1.427 14.851 3.043 29.219 11.781 37.46 22.783 6.717 8.967 9.843 17.311 10.442 27.864.677 11.969-1.703 20.729-8.51 31.306-1.019 1.583-1.852 3.146-1.852 3.475 0 .327.488.873 1.084 1.212 1.153.656 1.464 1.66.514 1.66-.315 0-2.998-1.563-5.962-3.474-2.966-1.909-6.388-4.07-7.606-4.8-1.217-.73-5.171-3.191-8.783-5.47a1306.495 1306.495 0 0 0-9.946-6.212 608.132 608.132 0 0 1-12.455-7.86c-5.329-3.446-4.72-3.577-11.275 2.433-20.214 18.528-46.161 42.992-46.164 43.523-.005 1.379 7.802 5.781 15.691 8.848 18.16 7.055 36.955 7.989 55.634 2.768 12.226-3.418 20.94-7.966 30.287-15.806 10.138-8.507 16.341-17.233 20.622-29.011 7.271-20.014 3.156-41.423-11.366-59.116-3.339-4.067-13.299-12.692-18.008-15.59-11.057-6.81-24.589-11.175-38.256-12.341l-5.826-.497-.121-5.807c-.065-3.194.033-5.939.217-6.099.186-.162 2.971-.125 6.192.081 35.671 2.281 66.564 22.44 79.053 51.588 5.352 12.488 6.823 23.978 5.013 39.12-.876 7.326-4.985 18.954-8.894 25.171l-2.879 4.575c-6.786 10.774-20.269 22.375-33.487 28.816-10.817 5.269-22.849 8.824-33.604 9.931-4.302.442-14.25.751-17.994.558Z"/></svg>