<svg width="163.84" height="163.84" viewBox="0 0 163.84 163.84" xmlns="http://www.w3.org/2000/svg"><path style="fill:#d0d0d0;stroke-width:.32" d="M88.853 157.227c-.469-.47-.17-1.067.534-1.067.91 0 1.184.239.957.831-.178.464-1.115.612-1.49.236zm-20.466-.627c-.557-.557-.198-1.12.653-1.021.524.06.88.295.88.581 0 .503-1.142.831-1.533.44zm10.493-5.455c-13.314-.653-27.563-5.646-37.446-13.121-1.355-1.025-2.786-2.08-3.18-2.344-.713-.477-4.161-3.666-6.167-5.703-.576-.584-1.047-1.312-1.047-1.618 0-.704.921-1.892 3.53-4.55 4.311-4.395 4.91-5.134 4.434-5.464-.326-.225-.266-.257.222-.122.523.146 1.097-.278 2.677-1.979a587.595 587.595 0 0 1 4.774-5.051 511.2 511.2 0 0 0 6.123-6.554 505.133 505.133 0 0 1 7.542-7.992c2.3-2.38 5.317-5.551 6.704-7.047C75.85 80.103 79.22 76.867 80.58 76.605c2.07-.398 3.565.047 5.049 1.503 1.474 1.447 1.896 2.543 1.783 4.632-.067 1.243.005 1.35 1.6 2.382.917.595 2.83 1.962 4.248 3.037 2.692 2.04 9.317 6.794 13.497 9.685a143.76 143.76 0 0 1 4.281 3.089c3.129 2.38 2.994 2.37 4.344.334 1.509-2.272 3.428-7.161 4.333-11.037 1.007-4.314 1.013-12.245.012-16.647-.863-3.799-2.122-7.063-4.003-10.383-3.046-5.377-5.49-8.291-9.644-11.5-3.847-2.97-6.777-4.64-10.88-6.201-1.795-.683-7.355-1.973-8.516-1.976-1.975-.005-4.585-.625-5.004-1.188-.257-.345-.4-1.668-.4-3.69 0-2.97.049-3.203.832-3.986.81-.81.907-.826 3.76-.627 3.975.277 8.01 1.181 12.387 2.776 15.02 5.47 26.177 17.783 30.198 33.326 1.06 4.099 1.463 7.326 1.463 11.738 0 9.077-2.046 16.49-6.87 24.892l-1.127 1.965.799.523c.534.35.798.817.798 1.411 0 2.075-1.612 2.18-4.107.268-1.778-1.362-7.231-5.368-8.574-6.299-.375-.26-2.863-2.056-5.53-3.992a657.168 657.168 0 0 0-7.83-5.6c-1.64-1.144-3.615-2.556-4.39-3.139-4.235-3.182-7.152-5.181-7.56-5.181-.636 0-3.652 3.163-30.009 31.467-4.224 4.536-7.723 8.37-7.776 8.52-.22.62 11.355 7.373 12.638 7.373.164 0 .87.277 1.57.615 1.723.832 6.35 2.128 10.048 2.815 4.32.802 15.503.784 20-.033 2.99-.543 8.047-1.98 10.24-2.908 6.01-2.547 8.252-3.773 12.8-6.997 3.087-2.19 8.305-7.101 10.81-10.178 5.064-6.218 9.23-14.73 11.095-22.674 1.293-5.508 1.653-14.47.83-20.66-2.275-17.091-12.59-32.334-27.855-41.16-7.207-4.166-14.641-6.416-23.984-7.257-2.904-.261-3.25-.364-3.942-1.168-.737-.858-.755-1.015-.656-5.825.121-5.887.098-5.85 3.612-5.85 4.748 0 11.855 1.25 17.597 3.094 10.925 3.51 19.194 8.428 27.304 16.238 7.448 7.173 13.078 15.572 16.535 24.668 6.307 16.594 6.399 33.423.27 49.588-2.224 5.865-5.084 11.267-8.225 15.532-3.348 4.546-8.92 10.634-11.711 12.795-.792.613-1.584 1.288-1.76 1.499-.176.211-2.148 1.606-4.381 3.1-8.029 5.368-17.24 9.087-27.057 10.923-2.284.427-11.128 1.192-12.242 1.06-.264-.032-1.344-.1-2.4-.152zm43.527-5.853c-.274-.444.997-1.612 1.753-1.612.77 0 .801.267.142 1.209-.511.73-1.555.952-1.895.403z" transform="translate(-9.193 -3.2)"/><path style="fill:#adadad;stroke-width:.32" d="M89.12 156.8c-.109-.176.027-.32.301-.32.275 0 .499.144.499.32 0 .176-.136.32-.301.32-.166 0-.39-.144-.499-.32zm-20.32-.64a.32.32 0 0 1 .32-.32.32.32 0 0 1 .32.32.32.32 0 0 1-.32.32.32.32 0 0 1-.32-.32zm9.76-5.335c-16.75-.821-32.526-7.705-44.72-19.513-1.364-1.321-2.48-2.667-2.48-2.99 0-.607 1.768-2.567 11.689-12.962 3.191-3.344 6.799-7.163 8.017-8.486 3.519-3.824 5.31-5.742 6.837-7.322.783-.81 4.015-4.208 7.182-7.552 8.338-8.804 12.035-12.63 13.39-13.86 2.256-2.049 4.942-1.976 7.058.191 1.371 1.405 1.897 2.876 1.629 4.557-.186 1.163-.17 1.183 2.325 2.88 1.382.94 3.377 2.373 4.433 3.185 1.872 1.44 7.869 5.747 12.927 9.287 1.383.968 3.561 2.511 4.841 3.43 1.28.918 2.451 1.592 2.603 1.498.462-.285 2.57-3.725 2.917-4.759.179-.533.429-1.113.556-1.289.379-.525 1.822-5.252 2.442-8 .855-3.788.766-11.1-.186-15.322-3.88-17.21-17.57-29.142-35.303-30.77-2.989-.275-3.117-.458-3.117-4.441 0-2.779.09-3.37.585-3.817.74-.67 3.048-.69 6.935-.057 4.567.742 5.586 1.005 9.293 2.397 12.84 4.823 22.605 14.312 27.824 27.04 2.338 5.698 3.363 11.102 3.363 17.722 0 8.937-1.674 15.414-6.073 23.497l-1.877 3.45.775.507c1.388.91.773 3.334-.704 2.78-.33-.124-1.471-.883-2.535-1.686a282.476 282.476 0 0 0-4.613-3.38 392.361 392.361 0 0 1-4.626-3.369 220.898 220.898 0 0 0-4.456-3.2 139.015 139.015 0 0 1-4.03-2.919 100.526 100.526 0 0 0-3.73-2.674 163.744 163.744 0 0 1-4.131-2.922c-5.915-4.365-7.65-5.556-8.094-5.556-.518 0-4.035 3.609-15.602 16.01-17.75 19.029-22.39 24.043-22.478 24.29-.231.651 6.784 4.971 11.134 6.855 1.144.495 2.512 1.094 3.04 1.33 1.665.742 7.565 2.365 10.56 2.904 4.377.787 12.339.94 16.995.327 23.712-3.124 42.706-20.382 48.114-43.716.72-3.104 1.291-8.629 1.291-12.48 0-20.312-10.516-38.641-28.153-49.074-4.088-2.418-10.068-4.816-14.924-5.985-3.12-.75-8.677-1.567-10.72-1.575-1.003-.004-1.747-.219-2.32-.67l-.843-.662V19.04c0-5.999-.046-5.92 3.471-5.92 10.257 0 24.37 4.418 33.822 10.589 8.223 5.368 15.407 12.453 20.681 20.397 10.497 15.811 13.929 36.146 9.236 54.735-4.913 19.461-18.386 36.046-36.495 44.927-6.182 3.031-12.31 5.062-18.555 6.149-2.701.47-10.948 1.17-12.48 1.06-.44-.032-1.664-.1-2.72-.152zm44.32-5.99c0-.455.922-.98 1.211-.69.205.204-.558 1.135-.93 1.135-.155 0-.281-.2-.281-.446z" transform="translate(-9.193 -3.2)"/><path style="fill:#939393;stroke-width:.32" d="M77.92 150.52c-13.802-.791-26.382-5.384-37.502-13.69-3.728-2.784-8.613-7.29-8.906-8.217-.133-.417.088-.969.662-1.659.863-1.036 9.022-9.651 15.677-16.554a841.584 841.584 0 0 0 8.167-8.64c2.54-2.728 5.05-5.392 5.58-5.92.53-.528 3.794-3.991 7.256-7.697 8.834-9.455 10.44-10.926 12.217-11.192 1.677-.252 2.567-.028 3.924.988 1.35 1.01 2.092 2.684 1.998 4.507-.065 1.248.048 1.585.705 2.097 1.295 1.011 9.551 7.018 12.459 9.065a390.22 390.22 0 0 1 3.68 2.615c.53.387 1.97 1.395 3.202 2.24 1.232.845 3.227 2.293 4.433 3.217 1.207.924 2.39 1.68 2.631 1.68 1.094 0 4.67-7.434 5.751-11.958 1.074-4.493 1.485-9.146 1.106-12.522-.7-6.225-2.24-11.183-4.976-16.015-2.217-3.914-3.923-6.114-7.063-9.112C102.087 47.23 95.053 44.096 84 42.651l-1.92-.251-.091-3.482c-.114-4.358.086-4.684 2.757-4.502 5.413.368 9.588 1.289 14.587 3.217 13.93 5.371 24.812 17.593 28.609 32.127.927 3.547 1.06 4.508 1.334 9.6.55 10.222-1.331 17.912-6.76 27.636l-1.048 1.876.866.63c.961.7 1.116 1.572.388 2.177-.734.608-1.304.317-5.442-2.777a368.354 368.354 0 0 0-5.84-4.287c-3.546-2.51-15.255-10.905-16.08-11.53-.44-.332-1.562-1.144-2.494-1.805a205.26 205.26 0 0 1-3.889-2.852c-3.695-2.782-3.263-2.789-6.077.097-1.35 1.383-9.489 10.075-18.088 19.315l-16.594 17.827c-1.141 1.223-1.031 1.437 1.694 3.287 6.192 4.206 15.604 7.99 22.248 8.947 1.408.202 3.36.506 4.34.674 6.309 1.083 16.99-.353 25.1-3.373 8.09-3.012 13.787-6.73 20.342-13.27 4.964-4.953 8.154-9.26 10.796-14.572 9.212-18.53 7.918-39.785-3.456-56.746-7.219-10.765-17.909-18.942-29.922-22.886-3.02-.992-8.577-2.102-12.447-2.485-2.497-.247-4.072-.554-4.433-.863-.49-.419-.56-1.116-.56-5.538 0-4.58.056-5.09.587-5.374 1.064-.57 11.328.467 15.893 1.604 3.291.82 9.614 3.09 12.8 4.594 8.66 4.089 17.062 10.426 22.668 17.1 13.47 16.033 18.697 34.069 16.053 55.394-1.907 15.388-10.809 31.52-23.201 42.05-10.087 8.57-24.264 14.844-36.16 16.003-2.136.209-10.73.418-12.64.308zm45.28-5.88c0-.176.152-.32.339-.32.186 0 .25.144.141.32-.109.176-.261.32-.339.32-.077 0-.141-.144-.141-.32z" transform="translate(-9.193 -3.2)"/><path style="fill:#6b6b6b;stroke-width:.32" d="M78.72 150.523c-6.734-.405-12.936-1.564-18.812-3.515-6.763-2.246-16.104-7.412-21.508-11.894-2.977-2.47-6.72-6.27-6.72-6.825 0-.543 2.432-3.231 12.32-13.616 3.168-3.328 7.632-8.054 9.92-10.503 2.288-2.45 4.455-4.75 4.816-5.112.36-.362 3.302-3.466 6.537-6.898 12.86-13.645 13.932-14.679 15.602-15.06 3.345-.763 6.52 2.323 5.965 5.798-.159.994-.07 1.265.566 1.719.415.296 2.338 1.679 4.274 3.073 10.685 7.692 12.88 9.266 15.17 10.87a634.65 634.65 0 0 1 4.822 3.418c1.27.912 2.476 1.593 2.679 1.514.677-.263 2.964-4.415 4.128-7.492 1.962-5.19 2.621-8.755 2.603-14.08-.011-3.433-.188-5.444-.677-7.732-2.84-13.26-11.524-23.61-24.245-28.893-2.071-.86-8.448-2.337-11.016-2.552-1.307-.109-2.567-.356-2.8-.55-.564-.468-.598-6.69-.04-7.249.211-.211 1.115-.384 2.008-.384 1.9 0 6.626.552 8.008.935 13.214 3.664 22.362 9.973 29.034 20.025 4.055 6.108 6.592 12.735 7.597 19.84.65 4.595.287 13.681-.69 17.28-1.496 5.512-2.768 8.656-5.472 13.523l-1.469 2.642.976.912c.843.788.926 1.005.608 1.597-.51.954-.978.866-2.765-.514-1.479-1.142-6.426-4.744-13.419-9.77-1.76-1.265-3.8-2.735-4.535-3.265-.734-.53-2.39-1.715-3.68-2.633-2.453-1.744-4.908-3.518-9.666-6.983-1.563-1.138-3.075-2.069-3.362-2.069-.557 0-5.379 5.035-25.439 26.56-6.97 7.48-12.675 13.84-12.676 14.132-.006 1.645 11.523 7.798 18.398 9.82 19.535 5.744 40.774.57 55.441-13.506 12.03-11.545 18.178-26.623 17.592-43.141-.55-15.513-6.476-28.604-17.838-39.407-4.932-4.69-9.835-7.996-15.782-10.644-6.022-2.681-11.05-3.986-18.19-4.72-2.26-.233-4.28-.603-4.56-.835-.417-.346-.503-1.25-.503-5.274 0-3.351.12-4.976.384-5.241.521-.521 4.698-.483 8.94.082 16.52 2.199 32.163 10.76 42.988 23.526 10.54 12.43 16.208 27.866 16.276 44.328.025 6.15-.448 10.438-1.764 15.993-5.95 25.111-25.147 44.46-50.483 50.882-5.511 1.397-14.028 2.22-19.541 1.888z" transform="translate(-9.193 -3.2)"/><path style="fill:#515151;stroke-width:.32" d="M79.2 150.509c-16.75-.9-32.26-7.404-44-18.45-3.325-3.13-3.652-3.56-3.247-4.283.168-.301 1.295-1.562 2.504-2.802 1.21-1.24 3.491-3.623 5.07-5.296 7.566-8.01 13.302-14.113 15.185-16.153 1.14-1.235 4.022-4.261 6.405-6.725 2.383-2.464 7.354-7.684 11.048-11.6 3.753-3.978 7.194-7.347 7.8-7.636 1.785-.85 3.697-.453 5.24 1.09 1.193 1.193 1.298 1.446 1.494 3.586.149 1.619.364 2.387.725 2.59.495.277 2.662 1.83 12.217 8.752 2.442 1.77 6.079 4.37 8.082 5.778a693.906 693.906 0 0 1 4.91 3.478c.699.504 1.48.836 1.737.738 1.439-.552 4.686-7.77 6-13.336.938-3.97 1.005-12.172.133-16.16-1.29-5.895-3.692-11.135-7.427-16.195-4.629-6.272-11.556-11.08-19.556-13.573-2.389-.744-4.573-1.175-8.687-1.716-1.302-.17-2.488-.5-2.635-.733-.148-.233-.27-1.651-.273-3.152-.008-4.31.514-4.63 6.235-3.822 13.979 1.977 26.566 10.111 33.827 21.86 4.88 7.896 7.293 16.276 7.293 25.331 0 8.33-1.84 15.298-6.078 23.022-1.057 1.926-1.922 3.615-1.922 3.753 0 .138.367.49.816.785.935.613.964 1.809.048 1.983-.317.06-1.325-.455-2.24-1.146a459.514 459.514 0 0 0-5.149-3.787l-5.28-3.835c-4.872-3.541-12.162-8.764-13.186-9.447-1.304-.87-4.233-3.008-7.388-5.392-3.615-2.731-3.118-2.858-7.876 2-2.275 2.323-6.857 7.17-10.181 10.772a2092.078 2092.078 0 0 1-11.173 12c-8.807 9.36-12.631 13.567-12.631 13.892 0 1.293 7.904 5.984 14.264 8.465 13.097 5.11 28.828 5.012 41.906-.26 8.316-3.352 16.982-9.576 22.183-15.93 7.588-9.269 11.707-18.7 13.19-30.2.486-3.762.222-13.404-.471-17.235-3.32-18.347-16.148-34.497-33.282-41.904-5.964-2.578-10.613-3.77-17.461-4.477-5.719-.59-5.529-.362-5.392-6.495.082-3.65.201-4.65.583-4.891 1.206-.761 8.322-.088 14.918 1.41 21.99 4.997 40.894 21.668 48.705 42.951 4.093 11.152 5.225 21.828 3.61 34.046-1.134 8.57-5.5 19.836-10.688 27.577-3.596 5.366-8.67 11.09-13.185 14.873-5.456 4.57-14.7 9.763-21.583 12.123-7.927 2.718-17.646 4.178-25.137 3.776z" transform="translate(-9.193 -3.2)"/><path style="fill:#2d2d2d;stroke-width:.32" d="M78.56 150.199c-9.956-.587-18.062-2.685-26.706-6.913-6.945-3.397-13.526-8.05-18.382-12.997l-1.887-1.924.88-1.062c.485-.585 3.215-3.511 6.067-6.503 2.851-2.992 7.9-8.32 11.218-11.84 3.319-3.52 8.35-8.848 11.181-11.84a2878.84 2878.84 0 0 0 7.844-8.32c4.747-5.07 10.406-10.765 11.034-11.105 1.085-.588 3.63-.44 4.573.264 1.656 1.236 2.16 2.235 2.123 4.21-.035 1.916.38 2.743 1.655 3.307.352.156 2.08 1.36 3.84 2.678 3.472 2.598 10.836 7.915 14.855 10.726 1.384.968 3.457 2.444 4.608 3.28 1.15.836 2.374 1.52 2.719 1.52 1.352 0 4.728-6.89 6.124-12.502 3.38-13.58-.938-28.144-11.244-37.922-6.49-6.157-14.58-9.755-24.582-10.931l-2.08-.245v-7.04l1.44-.104c2.031-.147 6.983.48 9.843 1.246 11.266 3.02 20.79 9.662 26.985 18.823 5.794 8.566 8.223 16.44 8.27 26.812.041 8.7-1.245 14.137-5.158 21.8-1.375 2.694-2.5 5.065-2.5 5.269 0 .203.369.664.82 1.024.561.447.752.83.606 1.212-.316.823-.84.692-2.567-.642-1.619-1.25-7.742-5.699-13.673-9.934-1.9-1.356-4.996-3.582-6.88-4.946a2602.967 2602.967 0 0 0-5.666-4.091c-1.232-.886-3.518-2.542-5.081-3.68-1.563-1.138-3.08-2.069-3.374-2.069-.61 0-2.937 2.423-23.504 24.48-8.206 8.8-14.92 16.25-14.92 16.554-.002 1.34 8.632 6.413 14.82 8.708 15.22 5.643 31.37 4.779 45.819-2.453 11.695-5.854 22.392-17.338 27.055-29.049 3.457-8.683 4.67-15.306 4.379-23.9-.243-7.154-1.403-12.998-3.737-18.828-3.342-8.348-7.494-14.436-14.24-20.876-7.461-7.124-15.376-11.494-25.617-14.145-2.638-.682-8.93-1.611-10.917-1.611-2.33 0-2.363-.079-2.363-5.592 0-3.278.12-5.004.356-5.15.552-.342 5.216-.16 8.798.34 19.16 2.683 36.132 13.174 46.947 29.022 9.683 14.189 13.503 30.645 11.241 48.42-1.748 13.742-8.544 27.58-18.673 38.025-10.44 10.766-25.607 18.32-40.189 20.02-3.41.397-9.463.633-12.16.474z" transform="translate(-9.193 -3.2)"/><path style="fill:#010101;stroke-width:.32" d="M77.92 149.884c-16.42-.97-31.445-7.483-43.179-18.718l-2.876-2.753.904-1.087c.78-.938 10.85-11.602 20.213-21.406a509.208 509.208 0 0 0 5.259-5.6 471.84 471.84 0 0 1 4.955-5.28c1.429-1.496 3.883-4.088 5.452-5.76 6.837-7.283 10.892-11.21 11.928-11.552 3.098-1.022 6.285 1.793 5.68 5.018-.176.94-.074 1.226.689 1.93.89.823 7.982 6.05 11.908 8.778a222.83 222.83 0 0 1 3.68 2.616 195.33 195.33 0 0 0 3.867 2.726c1.232.845 3.348 2.373 4.701 3.395 1.646 1.242 2.698 1.824 3.174 1.754.913-.135 3.024-3.487 4.421-7.023 2.054-5.196 3.488-13.096 3.081-16.966-.941-8.957-3.393-15.502-8.277-22.098-3.521-4.755-8.906-9.144-14.46-11.784-4.007-1.905-10.79-3.834-13.48-3.834-.55 0-1.45-.09-2-.2l-1-.2v-3.286c0-2.452.109-3.327.43-3.45.614-.236 7.646.595 10.265 1.213 10.96 2.586 21.564 10.012 27.646 19.363 4.957 7.62 7.264 14.712 7.706 23.68.5 10.172-1.257 17.617-6.28 26.606-.752 1.345-1.367 2.674-1.367 2.953 0 .278.36.742.8 1.03.851.558 1.08 1.411.379 1.411-.232 0-2.212-1.328-4.4-2.952-2.189-1.623-4.714-3.459-5.613-4.08-.898-.62-3.816-2.712-6.482-4.648a940.899 940.899 0 0 0-7.34-5.28 441.806 441.806 0 0 1-9.192-6.68c-3.933-2.928-3.483-3.04-8.321 2.068-14.918 15.746-34.067 36.537-34.069 36.989-.004 1.172 5.758 4.913 11.58 7.519 13.402 5.996 27.273 6.79 41.058 2.353 9.023-2.905 15.454-6.77 22.352-13.433 7.482-7.23 12.06-14.646 15.219-24.656 5.366-17.009 2.329-35.204-8.388-50.24-2.464-3.457-9.815-10.787-13.29-13.25-8.16-5.787-18.147-9.497-28.233-10.488l-4.3-.422-.089-4.935c-.048-2.715.024-5.048.16-5.184.137-.137 2.193-.106 4.57.069 26.325 1.939 49.124 19.071 58.341 43.843 3.95 10.613 5.036 20.378 3.7 33.247-.647 6.226-3.679 16.108-6.564 21.392l-2.125 3.888c-5.008 9.156-14.958 19.015-24.713 24.489-7.983 4.478-16.863 7.5-24.8 8.44-3.175.376-10.517.639-13.28.475z" transform="translate(-9.193 -3.2)"/></svg>