<svg xmlns="http://www.w3.org/2000/svg" viewBox="0 0 192 192"><path d="M24.868 16.5h142.264a8.375 8.375 0 0 1 7.247 4.184 8.375 8.375 0 0 1 1.121 4.184v142.264a8.375 8.375 0 0 1-4.184 7.247 8.375 8.375 0 0 1-4.184 1.121H24.868a8.375 8.375 0 0 1-7.247-4.184 8.375 8.375 0 0 1-1.121-4.184V24.868a8.371 8.371 0 0 1 8.368-8.368" fill="none" stroke="#000" stroke-width="12" stroke-linecap="round" stroke-linejoin="round"/><path d="M130.227 34.074h25.482v25.482h-25.482ZM83.28 83.238h25.482v25.482H83.28Zm46.947 50.085h25.482v25.482h-25.482Zm0-86.487H49.011m0 99.207V46.836m81.216 99.207H49.011M96 83.238V46.836m59.709 0H175.5m-32.511 71.884V73.28" fill="none" stroke="#000" stroke-width="12" stroke-linecap="round" stroke-linejoin="round"/></svg>