<svg xmlns="http://www.w3.org/2000/svg" viewBox="0 0 192 192"><path d="M113.225 173.592a1432.275 1432.275 0 0 0-10.65-6.136L96 163.704v-24.541l4.353-2.489c2.393-1.37 12.02-6.887 21.392-12.26l17.039-9.771.095-24.83.096-24.831-21.49-12.297-21.489-12.297-21.485 12.296-21.486 12.297.096 24.832.095 24.831 16.875 9.668c9.281 5.318 17.324 9.964 17.873 10.325l.998.657v12.07c0 10.898-.057 12.048-.591 11.843-.325-.124-10.535-5.922-22.689-12.882a16437.673 16437.673 0 0 0-28.302-16.183l-6.205-3.527V52.843l32.182-18.421C81.057 24.29 95.746 16 96 16c.254 0 14.943 8.29 32.643 18.422l32.182 18.421v73.738l-21.393 12.236-21.392 12.235-.097 12.486c-.054 6.867-.221 12.475-.371 12.462-.15-.013-2.106-1.097-4.347-2.408Z"/></svg>