<?xml version="1.0" encoding="UTF-8" standalone="no"?>
<svg
   id="Layer_2"
   data-name="Layer 2"
   viewBox="0 0 48 48"
   version="1.1"
   sodipodi:docname="qr.svg"
   inkscape:version="1.1.2 (b8e25be833, 2022-02-05)"
   xmlns:inkscape="http://www.inkscape.org/namespaces/inkscape"
   xmlns:sodipodi="http://sodipodi.sourceforge.net/DTD/sodipodi-0.dtd"
   xmlns="http://www.w3.org/2000/svg"
   xmlns:svg="http://www.w3.org/2000/svg">
  <sodipodi:namedview
     id="namedview2305"
     pagecolor="#ffffff"
     bordercolor="#666666"
     borderopacity="1.0"
     inkscape:pageshadow="2"
     inkscape:pageopacity="0.0"
     inkscape:pagecheckerboard="0"
     showgrid="false"
     inkscape:zoom="12.041667"
     inkscape:cx="24"
     inkscape:cy="24"
     inkscape:window-width="1280"
     inkscape:window-height="961"
     inkscape:window-x="-8"
     inkscape:window-y="-8"
     inkscape:window-maximized="1"
     inkscape:current-layer="Layer_2" />
  <defs
     id="defs2284">
    <style
       id="style2282">.cls-1{fill:none;stroke:#000;stroke-linecap:round;stroke-linejoin:round;}</style>
  </defs>
  <path
     class="cls-1"
     d="M13.78,5.5H5.5v8.28"
     id="path2286"
     style="stroke-width:2.13543307;stroke-miterlimit:4;stroke-dasharray:none" />
  <path
     class="cls-1"
     d="M42.5,13.78V5.5H34.22"
     id="path2288"
     style="stroke-width:2.13543307;stroke-miterlimit:4;stroke-dasharray:none" />
  <path
     class="cls-1"
     d="M34.22,42.5H42.5V34.22"
     id="path2290"
     style="stroke-width:2.13543307;stroke-miterlimit:4;stroke-dasharray:none" />
  <path
     class="cls-1"
     d="M10.55,26.41v11h11v-11h-11Zm3.22,3.22h4.6v4.6h-4.6Z"
     id="path2292"
     style="stroke-width:2.13543307;stroke-miterlimit:4;stroke-dasharray:none" />
  <path
     class="cls-1"
     d="M10.55,10.55v11h11v-11h-11Zm3.22,3.22h4.6v4.6h-4.6Z"
     id="path2294"
     style="stroke-width:2.13543307;stroke-miterlimit:4;stroke-dasharray:none" />
  <path
     class="cls-1"
     d="M26.41,10.55v11h11v-11h-11Zm3.22,3.22h4.6v4.6h-4.6Z"
     id="path2296"
     style="stroke-width:2.13543307;stroke-miterlimit:4;stroke-dasharray:none" />
  <path
     class="cls-1"
     d="M31.93,37.45a5.79,5.79,0,0,0,3.47-2.1,8.37,8.37,0,0,0,2.05-5.72V26.41h-11v3.22h0a8.39,8.39,0,0,0,2.05,5.72A5.79,5.79,0,0,0,31.93,37.45Z"
     id="path2298"
     style="stroke-width:2.13543307;stroke-miterlimit:4;stroke-dasharray:none" />
  <path
     class="cls-1"
     d="M31.93,34.23a5.82,5.82,0,0,1-1.08-.86,5.4,5.4,0,0,1-1.22-3.74h4.6A5.4,5.4,0,0,1,33,33.37a5.82,5.82,0,0,1-1.08.86Z"
     id="path2300"
     style="stroke-width:2.13543307;stroke-miterlimit:4;stroke-dasharray:none" />
  <path
     class="cls-1"
     d="M5.5,34.22V42.5h8.28"
     id="path2302"
     style="stroke-width:2.13543307;stroke-miterlimit:4;stroke-dasharray:none" />
</svg>
