<svg xmlns="http://www.w3.org/2000/svg" id="Layer_2" data-name="Layer 2" version="1.1" viewBox="0 0 48 48"><defs id="defs2284"><style id="style2282">.cls-1{fill:none;stroke:#000;stroke-linecap:round;stroke-linejoin:round}</style></defs><path id="path2286" d="M13.78 5.5H5.5v8.28" class="cls-1" style="stroke-width:2.13543307;stroke-miterlimit:4;stroke-dasharray:none"/><path id="path2288" d="M42.5 13.78V5.5h-8.28" class="cls-1" style="stroke-width:2.13543307;stroke-miterlimit:4;stroke-dasharray:none"/><path id="path2290" d="M34.22 42.5h8.28v-8.28" class="cls-1" style="stroke-width:2.13543307;stroke-miterlimit:4;stroke-dasharray:none"/><path id="path2292" d="M10.55 26.41v11h11v-11h-11Zm3.22 3.22h4.6v4.6h-4.6Z" class="cls-1" style="stroke-width:2.13543307;stroke-miterlimit:4;stroke-dasharray:none"/><path id="path2294" d="M10.55 10.55v11h11v-11h-11Zm3.22 3.22h4.6v4.6h-4.6Z" class="cls-1" style="stroke-width:2.13543307;stroke-miterlimit:4;stroke-dasharray:none"/><path id="path2296" d="M26.41 10.55v11h11v-11h-11Zm3.22 3.22h4.6v4.6h-4.6Z" class="cls-1" style="stroke-width:2.13543307;stroke-miterlimit:4;stroke-dasharray:none"/><path id="path2298" d="M31.93 37.45a5.79 5.79 0 0 0 3.47-2.1 8.37 8.37 0 0 0 2.05-5.72v-3.22h-11v3.22h0a8.39 8.39 0 0 0 2.05 5.72 5.79 5.79 0 0 0 3.43 2.1Z" class="cls-1" style="stroke-width:2.13543307;stroke-miterlimit:4;stroke-dasharray:none"/><path id="path2300" d="M31.93 34.23a5.82 5.82 0 0 1-1.08-.86 5.4 5.4 0 0 1-1.22-3.74h4.6A5.4 5.4 0 0 1 33 33.37a5.82 5.82 0 0 1-1.08.86Z" class="cls-1" style="stroke-width:2.13543307;stroke-miterlimit:4;stroke-dasharray:none"/><path id="path2302" d="M5.5 34.22v8.28h8.28" class="cls-1" style="stroke-width:2.13543307;stroke-miterlimit:4;stroke-dasharray:none"/></svg>