<svg xmlns="http://www.w3.org/2000/svg" viewBox="0 0 192 192"><path d="M79.278 174.357c-30.658-6.109-55.173-30.73-61.851-62.117-2.372-11.15-1.406-29.848 2.103-40.684C30.372 38.069 60.749 16 96 16c18.334 0 34.267 5.356 48.893 16.436 12.794 9.692 22.513 23.48 27.577 39.12 3.509 10.836 4.475 29.534 2.103 40.684-9.275 43.592-51.181 70.908-95.295 62.117Zm32.704-13.986c4.404-1.126 11.244-3.749 15.2-5.828 6.914-3.633 20.74-15.104 20.74-17.208 0-1.513-29.45-37.121-30.483-36.857-.489.125-11.576 12.815-24.639 28.201-18.263 21.51-23.399 28.17-22.232 28.823.834.467 4.912 1.739 9.061 2.826 10.007 2.622 22.207 2.638 32.353.043Zm-37.396-31.662c9.493-11.115 17.26-20.414 17.26-20.664 0-1.314-18.525-30.243-19.313-30.16-.511.054-8.337 11.878-17.392 26.274l-16.463 26.175 2.807 4.051c3.15 4.546 13.367 14.534 14.867 14.534.536 0 8.741-9.094 18.234-20.21Zm85.371-13.521c2.264-7.432 3.02-22.675 1.544-31.151-2.498-14.343-10.214-27.716-22.1-38.305-24.197-21.553-63.137-21.498-87.031.124-16.412 14.853-23.87 32.961-22.533 54.713 1.035 16.841.5 17.125 16.908-8.972C63.377 65.146 65.18 63.318 73.941 64.021c7.184.577 8.82 2.219 19.234 19.309l8.453 13.873 3.033-3.781c5.534-6.898 13.502-8.8 20.075-4.792 1.812 1.104 9.517 9.529 17.123 18.722 15.395 18.605 14.884 18.384 18.098 7.836ZM117.881 75.5c-5.186-2.719-7.862-6.889-7.862-12.251 0-8.196 7.951-14.999 15.807-13.525 4.91.921 10.296 6.307 11.217 11.217 1.947 10.374-9.931 19.399-19.162 14.559Z"/></svg>