<svg
    xmlns="http://www.w3.org/2000/svg"
    viewBox="0 0 192 192"
    id="vector">
    <path
        id="path"
        d="M 79.278 174.357 C 48.62 168.248 24.105 143.627 17.427 112.24 C 15.055 101.09 16.021 82.392 19.53 71.556 C 30.372 38.069 60.749 16 96 16 C 114.334 16 130.267 21.356 144.893 32.436 C 157.687 42.128 167.406 55.916 172.47 71.556 C 175.979 82.392 176.945 101.09 174.573 112.24 C 165.298 155.832 123.392 183.148 79.278 174.357 Z M 111.982 160.371 C 116.386 159.245 123.226 156.622 127.182 154.543 C 134.096 150.91 147.922 139.439 147.922 137.335 C 147.922 135.822 118.472 100.214 117.439 100.478 C 116.95 100.603 105.863 113.293 92.8 128.679 C 74.537 150.189 69.401 156.849 70.568 157.502 C 71.402 157.969 75.48 159.241 79.629 160.328 C 89.636 162.95 101.836 162.966 111.982 160.371 Z M 74.586 128.709 C 84.079 117.594 91.846 108.295 91.846 108.045 C 91.846 106.731 73.321 77.802 72.533 77.885 C 72.022 77.939 64.196 89.763 55.141 104.159 L 38.678 130.334 L 41.485 134.385 C 44.635 138.931 54.852 148.919 56.352 148.919 C 56.888 148.919 65.093 139.825 74.586 128.709 Z M 159.957 115.188 C 162.221 107.756 162.977 92.513 161.501 84.037 C 159.003 69.694 151.287 56.321 139.401 45.732 C 115.204 24.179 76.264 24.234 52.37 45.856 C 35.958 60.709 28.5 78.817 29.837 100.569 C 30.872 117.41 30.337 117.694 46.745 91.597 C 63.377 65.146 65.18 63.318 73.941 64.021 C 81.125 64.598 82.761 66.24 93.175 83.33 L 101.628 97.203 L 104.661 93.422 C 110.195 86.524 118.163 84.622 124.736 88.63 C 126.548 89.734 134.253 98.159 141.859 107.352 C 157.254 125.957 156.743 125.736 159.957 115.188 Z M 117.881 75.5 C 112.695 72.781 110.019 68.611 110.019 63.249 C 110.019 55.053 117.97 48.25 125.826 49.724 C 130.736 50.645 136.122 56.031 137.043 60.941 C 138.99 71.315 127.112 80.34 117.881 75.5 Z"
        fill="#000000"
        stroke-width="12"/>
</svg>
