<svg xmlns="http://www.w3.org/2000/svg" viewBox="0 0 192 192"><path fill="none" stroke="#000" stroke-linecap="round" stroke-linejoin="round" stroke-width="8" d="M130.213 150.712c-10.165 5.53-21.821 8.672-34.213 8.672-39.535 0-71.585-31.986-71.585-71.442C24.415 48.485 56.465 16.5 96 16.5s71.585 31.986 71.585 71.442c0 16.792-5.805 32.231-15.521 44.427"/><path fill="none" stroke="#000" stroke-linecap="round" stroke-linejoin="round" stroke-width="8" d="M113.434 129.663A45.224 45.224 0 0 1 96 133.134c-25.008 0-45.281-20.233-45.281-45.192 0-24.958 20.273-45.191 45.281-45.191s45.281 20.233 45.281 45.191a44.917 44.917 0 0 1-6.993 24.138M96 85.45c7.491 7.642 34.275 37.299 60.597 74.599"/><path fill="none" stroke="#000" stroke-linecap="round" stroke-linejoin="round" stroke-width="6" d="M107.072 97.486c46.198 15.192 57.683 57.08 57.683 78.014-10.655-13.624-59.43-24.11-57.683-78.014Zm16.563 34.734c-2.248 2.824-2.765 6.354-2.007 9.906m22.567-14.06c2.663 0 4.734.56 6.029 1.443m-22.427-18.639c1.491-.144 2.753-.124 4.956 0m-21.853 3.406c-.666.374-2.124 2.215-2.124 2.215m46.198 27.442c1.54.249 3.72 1.713 3.72 1.713m-22.379 3.391c-.541 2.617.824 7.09.824 7.09m11.19 2.537c-.389 1.662.132 4.908.132 4.908"/></svg>