<svg
    xmlns="http://www.w3.org/2000/svg"
    viewBox="0 0 192 192"
    id="vector">
    <g id="group">
        <path
            id="path"
            d="M 96 16 C 55.995 16 23.273 48.723 23.273 88.727 C 23.273 128.732 55.995 161.455 96 161.455 C 108.557 161.455 120.397 158.229 130.732 152.568 C 129.484 151.48 128.035 150.062 126.705 148.463 C 125.231 146.691 123.253 144.349 122.041 141.469 C 121.319 139.755 121.674 138.054 121.934 136.638 C 121.724 137.044 121.453 137.507 121.304 137.825 C 121.167 138.117 121.08 138.357 120.833 138.678 C 120.71 138.838 120.536 139.07 120.109 139.216 C 119.681 139.361 119.08 139.203 118.807 138.994 C 117.052 137.648 116.038 136.541 114.002 133.839 C 113.423 133.07 112.808 132.147 112.241 131.236 C 107.206 133.14 101.735 134.182 96 134.182 C 70.735 134.182 50.545 113.993 50.545 88.727 C 50.545 63.462 70.735 43.273 96 43.273 C 121.265 43.273 141.455 63.462 141.455 88.727 C 141.455 97.269 139.14 105.226 135.109 112.023 C 137.872 114.023 140.979 117.627 143.388 120.196 C 145.021 121.936 146.425 123.799 147.362 125.217 C 147.83 125.926 148.174 126.507 148.401 126.982 C 148.514 127.22 148.617 127.357 148.663 127.801 C 148.675 127.911 148.689 128.05 148.637 128.269 C 148.585 128.488 148.42 128.832 148.099 129.049 C 147.777 129.266 147.411 129.287 147.193 129.257 C 147.095 129.243 147.017 129.222 146.95 129.2 C 146.723 129.164 146.508 129.218 146.268 129.189 C 147.074 129.59 147.884 129.906 148.676 130.471 C 149.947 131.377 151.125 132.38 151.911 133.168 C 152.214 133.472 152.495 133.766 152.765 134.056 C 162.741 121.602 168.727 105.832 168.727 88.727 C 168.727 48.723 136.005 16 96 16 Z M 133.775 114.148 C 132.392 116.21 130.836 118.143 129.141 119.944 C 129.939 120.85 130.716 121.74 131.455 122.605 C 134.866 126.599 138.704 131.067 141.89 135.281 C 143.52 137.437 144.799 139.245 146.167 141.265 C 147.916 139.593 149.581 137.833 151.158 135.997 C 150.845 135.656 150.507 135.304 150.137 134.933 C 149.493 134.286 148.377 133.325 147.225 132.504 C 146.073 131.683 144.821 131.001 144.164 130.826 C 144.108 130.811 143.432 130.648 142.829 130.478 C 142.527 130.393 142.231 130.303 141.964 130.203 C 141.831 130.153 141.708 130.109 141.542 130.015 C 141.458 129.967 141.367 129.913 141.218 129.766 C 141.144 129.693 141.053 129.595 140.965 129.418 C 140.92 129.329 140.85 129.091 140.849 129.088 C 140.848 129.085 140.843 128.661 140.843 128.658 L 140.843 128.653 C 140.973 127.808 141.551 127.429 142.029 127.176 C 142.507 126.923 143.032 126.767 143.62 126.659 C 144.128 126.566 144.769 126.716 145.346 126.712 C 145.312 126.66 145.307 126.645 145.271 126.592 C 144.414 125.294 143.072 123.519 141.56 121.908 C 139.15 119.338 136.038 115.851 133.775 114.149 Z M 127.351 121.739 C 48.269 41.549 87.81 81.644 127.351 121.739 Z M 125.521 123.386 C 122.251 126.168 118.577 128.489 114.594 130.258 C 115.071 131.012 115.566 131.753 116 132.33 C 117.584 134.433 118.371 135.13 119.429 136.041 C 119.676 135.522 119.89 135.015 120.361 134.288 C 121.024 133.266 121.799 132.307 122.476 131.591 C 122.814 131.234 123.12 130.94 123.422 130.705 C 123.573 130.588 123.709 130.483 123.951 130.377 C 124.072 130.324 124.222 130.261 124.489 130.249 C 124.756 130.237 125.231 130.35 125.53 130.679 C 125.9 131.086 125.869 131.397 125.87 131.572 C 125.871 131.746 125.851 131.849 125.831 131.946 C 125.792 132.141 125.737 132.296 125.677 132.47 C 125.557 132.818 125.4 133.218 125.226 133.651 C 124.877 134.518 124.473 135.541 124.335 136.108 C 124.079 137.157 123.909 139.463 124.347 140.503 C 125.366 142.924 127.145 145.083 128.622 146.858 C 129.919 148.416 131.395 149.849 132.589 150.872 C 132.758 151.017 132.9 151.131 133.042 151.243 C 133.29 151.095 133.539 150.949 133.786 150.798 C 133.843 150.515 133.913 150.22 134.011 149.899 C 134.248 149.129 134.622 148.382 135.173 147.77 C 135.319 147.607 135.623 147.361 136.078 147.335 C 136.533 147.309 136.908 147.553 137.078 147.724 C 137.417 148.066 137.412 148.227 137.461 148.381 C 137.462 148.383 137.462 148.384 137.463 148.387 C 139.151 147.208 140.789 145.961 142.369 144.648 C 140.619 142.266 139.022 140.114 136.884 137.618 C 134.05 134.308 131.668 131.18 128.992 127.78 C 127.825 126.297 126.672 124.838 125.521 123.387 Z M 147.541 126.78 C 147.538 126.779 147.53 126.788 147.527 126.787 C 147.536 126.789 147.545 126.785 147.554 126.787 C 147.546 126.786 147.55 126.781 147.542 126.78 Z"
            fill="#000000"
            stroke-width="12"/>
        <path
            id="path_1"
            d="M 96.274 85.091 C 96.267 85.092 96.263 85.097 96.261 85.103 L 96 86.33 C 96 86.33 98.087 89.453 98.974 90.652 C 99.178 90.927 99.562 91.465 100.015 92.111 C 99.825 92.29 99.696 92.528 99.529 92.73 C 99.44 92.839 99.34 92.949 99.246 93.063 C 99.027 93.133 98.791 93.204 98.59 93.313 C 98.579 93.318 98.476 93.373 98.477 93.393 C 98.477 93.406 98.553 93.368 98.616 93.358 C 98.738 93.339 98.857 93.335 98.98 93.326 C 99.006 93.324 99.033 93.322 99.059 93.319 C 99.054 93.328 99.048 93.336 99.043 93.344 C 98.976 93.458 98.945 93.589 98.877 93.704 C 98.822 93.795 98.75 93.874 98.693 93.962 C 98.505 94.254 98.334 94.581 98.202 94.901 C 98.127 95.081 97.949 95.565 98.094 95.76 C 98.133 95.811 98.234 95.457 98.262 95.39 C 98.338 95.208 98.417 95.022 98.51 94.848 C 98.851 94.21 98.708 94.515 98.92 94.094 C 99.063 93.811 99.174 93.564 99.346 93.299 C 99.48 93.29 99.615 93.28 99.749 93.272 C 100.064 93.251 100.504 93.17 100.809 93.302 L 100.369 92.746 C 100.115 92.817 99.86 92.882 99.606 92.955 C 99.766 92.768 99.94 92.592 100.092 92.401 C 100.113 92.376 100.134 92.345 100.155 92.313 C 100.385 92.642 100.628 92.99 100.89 93.372 C 100.641 93.509 100.359 93.697 100.321 93.908 C 100.285 94.106 100.406 94.277 100.327 94.479 C 100.207 94.794 99.988 95.07 99.915 95.404 C 99.862 95.654 99.936 95.906 99.841 96.148 C 99.631 96.683 99.181 96.828 98.882 97.264 C 98.76 97.442 98.69 97.632 98.673 97.848 C 98.663 97.977 98.697 98.08 98.636 98.202 L 98.908 98.135 C 99.165 97.501 99.67 97.005 100.064 96.457 C 100.186 96.287 100.324 96.113 100.39 95.911 C 100.488 95.611 100.332 95.357 100.332 95.058 C 100.332 94.8 100.612 94.562 100.733 94.353 C 100.812 94.219 100.864 94.066 100.97 93.948 C 101.031 93.881 101.094 93.819 101.156 93.755 C 101.369 94.067 101.589 94.394 101.81 94.723 C 100.98 96.279 100.07 97.792 99.817 99.574 C 99.757 99.995 99.802 100.391 99.82 100.814 C 99.821 100.832 99.856 101.075 99.858 101.072 C 99.951 100.935 99.984 100.565 100.031 100.415 C 100.224 99.806 100.629 98.551 101.033 98.053 C 101.639 96.644 101.749 96.244 102.256 95.394 C 102.61 95.928 102.958 96.465 103.292 96.992 C 103.111 97.291 102.873 97.688 102.608 97.851 C 102.42 97.965 102.174 97.939 101.967 97.999 C 101.859 98.031 101.759 98.087 101.655 98.128 C 101.542 98.171 101.396 98.211 101.315 98.31 C 101.307 98.32 101.272 98.4 101.239 98.441 C 101.292 98.426 101.383 98.405 101.47 98.384 C 101.687 98.332 101.901 98.328 102.125 98.301 C 102.699 98.231 103.11 97.749 103.525 97.359 C 103.711 97.657 103.896 97.954 104.064 98.236 C 104.116 98.321 104.165 98.41 104.215 98.497 C 104.139 98.552 104.083 98.611 104.015 98.706 C 103.827 98.971 103.691 99.269 103.499 99.534 C 102.869 100.398 101.862 100.985 100.935 101.463 C 100.675 101.596 100.423 101.687 100.191 101.863 C 100.062 101.96 99.928 102.07 99.945 102.087 C 99.997 102.142 100.088 102.133 100.161 102.151 C 100.88 102.317 101.551 101.781 102.13 101.45 C 102.96 100.976 103.992 100.724 104.375 99.726 C 104.454 99.519 104.501 99.308 104.549 99.097 C 104.695 99.371 104.834 99.654 104.972 99.937 C 104.429 100.325 103.947 100.855 103.56 101.358 C 103.035 102.04 102.489 102.775 102.165 103.583 C 102.075 103.81 101.959 104.096 101.958 104.348 C 101.958 104.383 101.98 104.45 101.996 104.498 C 102.005 104.261 102.553 103.428 102.611 103.339 C 102.95 102.832 103.355 102.173 103.915 101.897 L 105.199 100.412 C 105.349 100.735 105.493 101.055 105.628 101.373 C 105.052 101.613 104.656 102.147 104.243 102.602 C 103.646 103.258 103.062 103.942 102.722 104.776 C 102.471 105.393 102.33 106.042 102.157 106.682 C 102.099 106.899 101.682 108.194 101.741 108.356 C 101.755 108.394 101.781 108.284 101.794 108.246 C 101.833 108.148 101.856 108.046 101.891 107.948 C 102.012 107.616 102.827 105.314 103.048 105.044 C 103.871 103.438 104.035 103.337 104.715 102.494 C 104.774 102.427 104.831 102.359 104.895 102.297 C 105.101 102.098 105.384 101.836 105.644 101.699 C 105.677 101.682 105.713 101.674 105.75 101.668 C 105.823 101.844 105.9 102.024 105.967 102.194 C 105.115 103.32 103.942 105.613 103.703 106.713 C 103.665 106.889 103.485 107.897 103.687 108.078 C 103.756 108.137 103.812 107.946 103.843 107.863 C 103.979 107.519 104.091 107.164 104.247 106.829 C 104.723 105.81 105.287 104.819 105.954 103.914 C 106.094 103.725 106.252 103.55 106.399 103.367 C 106.566 103.848 106.704 104.278 106.788 104.597 L 106.725 104.565 C 106.114 104.95 105.677 105.601 105.528 106.313 C 105.371 106.607 105.155 106.9 104.982 107.188 C 104.731 107.605 104.537 107.999 104.276 108.407 C 103.817 109.126 103.491 109.501 102.723 110.356 C 102.713 110.366 102.646 110.488 102.583 110.595 C 102.701 110.535 102.817 110.472 102.935 110.413 C 103.35 110.208 103.687 109.87 103.961 109.5 C 104.142 109.256 104.259 108.959 104.423 108.702 C 104.888 107.971 105.377 107.239 105.784 106.474 C 105.943 106.174 106.065 105.489 106.243 105.321 C 106.473 105.106 106.605 105.016 106.855 104.91 C 106.863 104.948 106.878 105.007 106.883 105.039 C 106.941 105.434 106.985 105.816 107.022 106.191 C 106.992 106.281 106.978 106.332 106.926 106.421 C 106.772 106.686 106.553 106.908 106.408 107.178 C 105.879 108.164 105.55 109.267 105.162 110.313 C 104.913 110.986 104.572 111.652 104.5 112.376 C 104.485 112.514 104.462 112.776 104.513 112.923 C 104.61 113.197 104.807 113.595 104.813 113.952 C 104.845 113.845 104.872 113.738 104.901 113.629 C 105.048 113.046 105.133 112.446 105.276 111.861 C 105.572 110.658 106.077 110.213 106.854 109.3 C 106.953 109.184 107.05 109.063 107.145 108.939 C 107.127 112.552 106.485 114.869 107.746 115.89 C 108.756 115.269 108.926 115.149 109.882 114.747 C 111.274 114.161 111.612 114.118 111.937 114.05 C 112.017 114.448 110.752 115.428 109.764 116.838 C 108.454 118.706 108.167 118.864 108.472 119.674 C 108.917 120.859 110.319 124.881 111.515 127.414 C 112.042 128.527 113.692 131.349 114.999 133.084 C 117.016 135.763 117.88 136.711 119.564 138.002 C 119.942 138.292 120.19 136.848 121.408 134.97 C 122.633 133.082 124.396 131.29 124.603 131.517 C 124.782 131.714 123.482 134.336 123.122 135.81 C 122.824 137.036 122.529 139.409 123.192 140.985 C 124.308 143.636 126.189 145.886 127.664 147.66 C 130.37 150.912 133.71 153.524 134.279 153.581 C 134.695 153.622 134.727 151.82 135.206 150.263 C 135.394 149.653 135.719 149.034 136.101 148.609 C 136.357 148.325 136.485 150.326 136.562 150.765 C 136.701 151.554 136.834 152.338 137.039 153.113 C 138.18 157.416 142.322 160.812 145.7 163.199 C 146.31 163.629 146.527 162.393 147.086 160.903 C 147.56 159.642 148.261 158.554 148.429 158.349 C 148.517 158.241 148.464 161.225 148.507 162.233 C 148.542 163.063 148.911 164.302 149.148 164.688 C 151.036 167.762 157.812 168.755 159.12 169.343 C 160.234 169.844 161.573 170.606 162.721 172.523 C 163.361 173.59 163.268 176.226 163.67 175.985 C 163.781 175.918 163.87 175.757 163.938 175.533 C 164.234 174.564 164.178 172.416 164.176 171.686 C 164.153 163.218 161.264 152.69 156.241 146.379 C 155.563 145.527 154.681 144.883 153.79 144.314 C 153.685 144.247 154.036 144.323 154.159 144.335 C 154.981 144.423 155.748 144.37 157.47 145.342 C 158.004 145.643 157.317 143.44 157.016 142.838 C 155.138 139.08 154.024 137.059 151.021 134.047 C 149.591 132.612 146.434 130.134 144.487 129.616 C 144.204 129.541 142.049 129.032 142.077 128.842 C 142.204 128.016 144.922 127.406 147.314 127.998 C 147.955 128.322 145.618 124.404 142.474 121.052 C 139.939 118.35 136.63 114.565 134.065 112.815 C 133.547 112.461 132.093 112.805 130.517 112.782 C 128.832 112.759 127.009 112.376 126.154 112.183 C 125.714 112.083 127.028 110.813 128.801 110.577 C 130.313 110.325 131.142 110.278 131.037 110.161 C 127.255 105.964 122.377 103.247 114.497 100.119 C 114.415 100.086 114.354 100.06 114.276 100.029 C 114.343 99.899 114.456 99.81 114.599 99.725 C 114.539 99.743 114.48 99.763 114.422 99.785 C 114.301 99.831 114.188 99.886 114.079 99.949 C 113.926 99.887 113.772 99.826 113.631 99.768 C 113.672 99.659 113.712 99.55 113.753 99.442 C 114.198 99.469 114.643 99.479 115.094 99.465 C 114.949 99.527 114.81 99.605 114.676 99.68 C 114.649 99.694 114.624 99.709 114.599 99.724 C 114.93 99.62 115.281 99.562 115.623 99.523 C 115.733 99.511 115.951 99.568 116.052 99.533 C 116.104 99.514 115.99 99.432 115.915 99.386 C 116.309 99.285 116.708 99.081 117.087 99.105 C 117.742 99.145 118.171 99.662 118.703 99.958 C 119.1 100.179 120.634 100.331 121.061 100.091 C 121.105 100.066 120.963 100.064 120.915 100.05 C 120.706 99.991 120.498 99.928 120.295 99.853 C 119.721 99.642 119.175 99.417 118.657 99.089 C 117.511 98.363 116.267 97.978 114.902 98.112 C 114.512 98.151 114.134 98.287 113.745 98.338 C 113.204 98.409 112.657 98.444 112.11 98.451 C 112.102 98.45 112.096 98.449 112.087 98.448 C 111.933 98.433 111.772 98.429 111.618 98.449 C 111.355 98.445 111.092 98.434 110.829 98.418 C 110.269 98.092 109.609 97.668 108.855 97.174 C 109.116 96.999 109.42 96.872 109.768 96.806 C 110.83 96.607 112.033 97.101 113.296 97.012 C 114.29 96.942 114.646 96.322 115.823 96.451 C 116.195 96.492 116.539 96.66 116.892 96.771 C 117.336 96.91 117.72 96.875 118.159 96.771 C 118.237 96.752 118.292 96.746 118.333 96.745 C 118.349 96.703 118.375 96.656 118.364 96.626 C 118.342 96.565 118.239 96.658 118.174 96.663 C 118.007 96.675 117.839 96.686 117.672 96.677 C 117.201 96.65 116.676 96.434 116.249 96.245 C 115.825 96.058 115.268 95.911 114.805 95.924 C 114.026 95.946 113.868 96 113.218 96.185 C 112.305 96.445 111.502 96.031 111.057 96.055 C 109.606 96.135 109.871 95.803 108.437 96.466 C 108.245 96.555 108.083 96.563 107.965 96.592 C 107.791 96.478 107.688 96.41 107.496 96.286 C 107.394 96.22 107.3 96.154 107.202 96.088 C 107.602 95.932 107.894 95.671 108.452 95.389 C 109.271 94.975 110.37 95.066 111.26 94.873 C 111.696 94.779 112.378 94.53 112.907 94.446 C 112.713 94.425 112.518 94.402 112.318 94.363 C 111.456 94.196 111.772 94.398 110.996 94.536 C 110.395 94.643 109.686 94.536 108.893 94.697 C 108.071 94.864 107.192 95.198 106.461 95.575 C 106.209 95.394 105.967 95.213 105.735 95.034 C 105.887 94.961 105.988 94.844 106.095 94.697 C 106.099 94.691 106.224 94.523 106.247 94.484 C 106.324 94.351 106.487 94.13 106.53 93.969 C 106.54 93.931 106.456 93.996 106.424 94.018 C 106.177 94.19 106.234 94.155 106.281 94.125 C 106.251 94.146 106.194 94.185 106.071 94.269 C 106.018 94.305 105.68 94.529 105.352 94.734 C 105.165 94.584 104.985 94.433 104.81 94.284 C 104.817 94.283 104.825 94.284 104.832 94.283 C 105.845 94.126 107.757 92.956 108.477 92.198 C 108.662 92.002 109.081 91.828 108.99 91.573 C 108.98 91.545 108.308 91.834 107.812 92.045 C 106.49 92.607 105.017 93.344 103.571 93.06 L 103.902 93.006 C 104.134 92.865 104.247 92.608 104.42 92.405 C 104.51 92.299 104.613 92.186 104.714 92.083 C 104.394 92.241 104.131 92.453 103.822 92.626 C 103.723 92.681 103.619 92.724 103.517 92.774 C 103.551 92.527 103.57 92.696 104.092 91.991 C 104.282 91.734 104.429 91.519 104.395 91.181 C 104.395 91.174 104.393 91.167 104.392 91.161 C 104.672 91.179 104.957 91.202 105.246 91.203 C 105.393 91.275 105.731 91.405 105.873 91.55 C 105.918 91.597 105.805 91.559 105.835 91.688 C 105.843 91.724 105.923 91.747 105.947 91.716 C 106.013 91.627 105.754 91.128 105.73 91.096 C 105.679 91.029 105.613 90.974 105.546 90.923 C 104.86 90.762 103.923 90.816 103.074 90.943 C 103.107 90.92 103.138 90.901 103.17 90.886 C 102.986 90.886 102.774 90.862 102.69 90.884 C 102.545 90.922 102.401 90.992 102.276 91.074 C 102.266 91.081 102.257 91.088 102.247 91.094 C 102.156 91.113 102.067 91.133 101.983 91.153 L 101.912 91.327 C 101.805 91.199 101.696 91.07 101.593 90.944 C 101.721 90.93 101.845 90.915 101.858 90.912 C 102.246 90.8 102.507 90.453 102.875 90.3 C 103.027 90.237 103.156 90.263 103.31 90.232 C 103.446 90.204 103.584 90.112 103.71 90.056 C 103.773 90.027 103.89 90.007 103.937 89.949 C 103.947 89.937 103.905 89.94 103.889 89.938 C 103.81 89.931 103.73 89.922 103.65 89.917 C 103.363 89.901 103.082 89.973 102.816 90.074 C 102.709 90.115 102.604 90.161 102.504 90.218 C 102.298 90.336 102.166 90.536 101.909 90.555 C 101.806 90.563 101.705 90.533 101.603 90.533 C 101.507 90.534 101.405 90.56 101.326 90.611 C 100.939 90.121 100.579 89.646 100.237 89.203 C 98.97 87.558 96.471 85.053 96.274 85.092 Z M 103.17 90.885 C 103.3 90.885 103.417 90.872 103.462 90.822 C 103.465 90.818 103.333 90.825 103.326 90.826 C 103.269 90.843 103.218 90.861 103.17 90.885 Z M 104.714 92.083 C 104.722 92.079 104.73 92.075 104.738 92.071 C 104.833 92.025 105.203 91.918 105.2 91.772 C 105.197 91.639 104.962 91.829 104.714 92.083 Z M 112.907 94.446 C 113.144 94.472 113.38 94.495 113.621 94.537 C 113.759 94.562 113.357 94.418 113.216 94.418 C 113.123 94.418 113.019 94.428 112.907 94.446 Z M 118.333 96.744 C 118.326 96.761 118.322 96.777 118.322 96.791 C 118.323 96.912 118.537 96.74 118.333 96.744 Z M 104.814 113.952 C 104.783 114.056 104.75 114.159 104.711 114.261 C 104.69 114.31 104.623 114.43 104.623 114.448 C 104.625 114.448 104.63 114.448 104.635 114.442 C 104.771 114.304 104.817 114.134 104.814 113.952 Z M 102.584 110.595 C 102.576 110.599 102.567 110.603 102.559 110.607 C 102.524 110.624 102.464 110.761 102.481 110.759 C 102.488 110.758 102.534 110.68 102.584 110.595 Z M 101.996 104.498 C 101.995 104.517 101.998 104.532 102.005 104.543 C 102.022 104.57 102.011 104.542 101.996 104.498 Z M 103.782 91.137 C 103.944 91.135 104.11 91.142 104.277 91.152 C 104.223 91.297 104.157 91.443 104.095 91.571 C 103.963 91.845 103.568 92.406 103.173 92.741 C 102.92 92.479 102.688 92.223 102.462 91.967 C 102.488 91.899 102.512 91.831 102.542 91.765 C 102.606 91.624 102.676 91.464 102.76 91.316 C 102.864 91.277 102.99 91.241 103.154 91.204 C 103.359 91.157 103.568 91.139 103.782 91.137 Z M 101.238 98.441 C 101.207 98.45 101.189 98.456 101.195 98.461 C 101.206 98.471 101.222 98.461 101.238 98.441 Z M 111.2 103.75 C 114.179 105.72 117.598 108.841 120.641 112.284 C 123.924 115.999 127.525 119.93 130.504 123.417 C 133.916 127.411 137.741 131.871 140.892 136.039 C 143.608 139.631 145.284 142.133 148.177 146.556 C 151.095 151.019 154.102 155.543 156.335 160.404 C 156.512 160.79 157.771 163.377 157.719 163.88 C 157.716 163.913 157.706 163.937 157.69 163.951 C 157.647 163.988 155.65 160.83 155.528 160.653 C 152.89 156.817 150.234 152.968 147.385 149.268 C 143.484 144.205 141.476 141.056 137.836 136.805 C 135.03 133.528 132.658 130.415 129.975 127.005 C 126.357 122.409 122.87 117.999 119.143 113.521 C 115.794 109.495 113.241 106.568 111.2 103.75 Z"
            fill="#000000"
            stroke-width="12"/>
    </g>
</svg>
