<svg xmlns="http://www.w3.org/2000/svg" xml:space="preserve" width="192" height="192" viewBox="0 0 50.8 50.8"><g style="stroke-width:3.36073289;stroke-dasharray:none"><path d="M32.152 41.842a18.265 18.265 0 0 1-6.752 1.294A18.265 18.265 0 0 1 7.135 24.87 18.265 18.265 0 0 1 25.4 6.606 18.265 18.265 0 0 1 43.665 24.87v0a18.265 18.265 0 0 1-1.87 8.05" style="fill:none;fill-opacity:1;stroke:#000;stroke-width:3.36073289;stroke-linecap:round;stroke-linejoin:round;stroke-dasharray:none;stroke-opacity:1;paint-order:stroke fill markers" transform="matrix(.94473 0 0 .94473 1.404 -.13)"/><path fill="none" stroke="#000" stroke-linecap="round" stroke-linejoin="round" stroke-width="3.175" d="M43.273 47.443s4.556-21.984-17.428-26.54m17.428 26.54s-21.983-4.556-17.428-26.54m15.249 23.222-13.942-21.23m6.972 10.614 7.694 1.595m-10.745-6.24-1.821 8.795" style="stroke-width:3.36073289;stroke-dasharray:none" transform="matrix(.94473 0 0 .94473 1.404 -.13)"/></g></svg>