<svg xmlns="http://www.w3.org/2000/svg" viewBox="0 0 192 192"><path d="M96 16c-40.005 0-72.727 32.723-72.727 72.727 0 40.005 32.722 72.728 72.727 72.728a72.104 72.104 0 0 0 34.732-8.887 36.771 36.771 0 0 1-4.027-4.105c-1.474-1.772-3.452-4.114-4.664-6.994-.722-1.714-.367-3.415-.107-4.831-.21.406-.481.869-.63 1.187-.137.292-.224.532-.471.853-.123.16-.297.392-.724.538-.428.145-1.029-.013-1.302-.222-1.755-1.346-2.769-2.453-4.805-5.155a36.773 36.773 0 0 1-1.761-2.603A45.809 45.809 0 0 1 96 134.182c-25.265 0-45.455-20.189-45.455-45.455 0-25.265 20.19-45.454 45.455-45.454 25.265 0 45.455 20.189 45.455 45.454 0 8.542-2.315 16.499-6.346 23.296 2.763 2 5.87 5.604 8.279 8.173a39.324 39.324 0 0 1 3.974 5.021c.468.709.812 1.29 1.039 1.765.113.238.216.375.262.819.012.11.026.249-.026.468a1.368 1.368 0 0 1-.538.78 1.345 1.345 0 0 1-.906.208 1.39 1.39 0 0 1-.243-.057c-.227-.036-.442.018-.682-.011.806.401 1.616.717 2.408 1.282 1.271.906 2.449 1.909 3.235 2.697.303.304.584.598.854.888 9.976-12.454 15.962-28.224 15.962-45.329C168.727 48.723 136.005 16 96 16Zm37.775 98.148a45.213 45.213 0 0 1-4.634 5.796c.798.906 1.575 1.796 2.314 2.661 3.411 3.994 7.249 8.462 10.435 12.676a134.437 134.437 0 0 1 4.277 5.984 73.908 73.908 0 0 0 4.991-5.268 35.577 35.577 0 0 0-1.021-1.064c-.644-.647-1.76-1.608-2.912-2.429-1.152-.821-2.404-1.503-3.061-1.678-.056-.015-.732-.178-1.335-.348a11.028 11.028 0 0 1-.865-.275c-.133-.05-.256-.094-.422-.188a1.379 1.379 0 0 1-.324-.249 1.216 1.216 0 0 1-.253-.348c-.045-.089-.115-.327-.116-.33a61.652 61.652 0 0 1-.006-.43v-.005c.13-.845.708-1.224 1.186-1.477.478-.253 1.003-.409 1.591-.517.508-.093 1.149.057 1.726.053-.034-.052-.039-.067-.075-.12a37.123 37.123 0 0 0-3.711-4.684c-2.41-2.57-5.522-6.057-7.785-7.759Zm-6.424 7.591c-79.082-80.19-39.541-40.095 0 0Zm-1.83 1.647a45.128 45.128 0 0 1-10.927 6.872c.477.754.972 1.495 1.406 2.072 1.584 2.103 2.371 2.8 3.429 3.711.247-.519.461-1.026.932-1.753a19.58 19.58 0 0 1 2.115-2.697c.338-.357.644-.651.946-.886.151-.117.287-.222.529-.328.121-.053.271-.116.538-.128.267-.012.742.101 1.041.43.37.407.339.718.34.893.001.174-.019.277-.039.374-.039.195-.094.35-.154.524-.12.348-.277.748-.451 1.181-.349.867-.753 1.89-.891 2.457-.256 1.049-.426 3.355.012 4.395 1.019 2.421 2.798 4.58 4.275 6.355a34.99 34.99 0 0 0 3.967 4.014c.169.145.311.259.453.371.248-.148.497-.294.744-.445.057-.283.127-.578.225-.899.237-.77.611-1.517 1.162-2.129.146-.163.45-.409.905-.435.455-.026.83.218 1 .389.339.342.334.503.383.657l.002.006a73.753 73.753 0 0 0 4.906-3.739c-1.75-2.382-3.347-4.534-5.485-7.03-2.834-3.31-5.216-6.438-7.892-9.838-1.167-1.483-2.32-2.942-3.471-4.393Zm22.02 3.394c-.003-.001-.011.008-.014.007.009.002.018-.002.027 0-.008-.001-.004-.006-.012-.007Z"/><path d="M96.274 85.091c-.007.001-.011.006-.013.012L96 86.33s2.087 3.123 2.974 4.322c.204.275.588.813 1.041 1.459-.19.179-.319.417-.486.619-.089.109-.189.219-.283.333-.219.07-.455.141-.656.25-.011.005-.114.06-.113.08 0 .013.076-.025.139-.035.122-.019.241-.023.364-.032l.079-.007-.016.025c-.067.114-.098.245-.166.36-.055.091-.127.17-.184.258a5.99 5.99 0 0 0-.491.939c-.075.18-.253.664-.108.859.039.051.14-.303.168-.37.076-.182.155-.368.248-.542.341-.638.198-.333.41-.754.143-.283.254-.53.426-.795l.403-.027c.315-.021.755-.102 1.06.03l-.44-.556c-.254.071-.509.136-.763.209.16-.187.334-.363.486-.554a.957.957 0 0 0 .063-.088c.23.329.473.677.735 1.059-.249.137-.531.325-.569.536-.036.198.085.369.006.571-.12.315-.339.591-.412.925-.053.25.021.502-.074.744-.21.535-.66.68-.959 1.116a1.17 1.17 0 0 0-.209.584c-.01.129.024.232-.037.354l.272-.067c.257-.634.762-1.13 1.156-1.678.122-.17.26-.344.326-.546.098-.3-.058-.554-.058-.853 0-.258.28-.496.401-.705.079-.134.131-.287.237-.405.061-.067.124-.129.186-.193.213.312.433.639.654.968-.83 1.556-1.74 3.069-1.993 4.851-.06.421-.015.817.003 1.24.001.018.036.261.038.258.093-.137.126-.507.173-.657.193-.609.598-1.864 1.002-2.362.606-1.409.716-1.809 1.223-2.659.354.534.702 1.071 1.036 1.598-.181.299-.419.696-.684.859-.188.114-.434.088-.641.148-.108.032-.208.088-.312.129-.113.043-.259.083-.34.182-.008.01-.043.09-.076.131.053-.015.144-.036.231-.057.217-.052.431-.056.655-.083.574-.07.985-.552 1.4-.942.186.298.371.595.539.877.052.085.101.174.151.261a.838.838 0 0 0-.2.209c-.188.265-.324.563-.516.828-.63.864-1.637 1.451-2.564 1.929-.26.133-.512.224-.744.4-.129.097-.263.207-.246.224.052.055.143.046.216.064.719.166 1.39-.37 1.969-.701.83-.474 1.862-.726 2.245-1.724.079-.207.126-.418.174-.629.146.274.285.557.423.84-.543.388-1.025.918-1.412 1.421-.525.682-1.071 1.417-1.395 2.225-.09.227-.206.513-.207.765 0 .035.022.102.038.15.009-.237.557-1.07.615-1.159.339-.507.744-1.166 1.304-1.442l1.284-1.485c.15.323.294.643.429.961-.576.24-.972.774-1.385 1.229-.597.656-1.181 1.34-1.521 2.174-.251.617-.392 1.266-.565 1.906-.058.217-.475 1.512-.416 1.674.014.038.04-.072.053-.11.039-.098.062-.2.097-.298.121-.332.936-2.634 1.157-2.904.823-1.606.987-1.707 1.667-2.55.059-.067.116-.135.18-.197.206-.199.489-.461.749-.598a.35.35 0 0 1 .106-.031c.073.176.15.356.217.526-.852 1.126-2.025 3.419-2.264 4.519-.038.176-.218 1.184-.016 1.365.069.059.125-.132.156-.215.136-.344.248-.699.404-1.034a17.143 17.143 0 0 1 1.707-2.915c.14-.189.298-.364.445-.547.167.481.305.911.389 1.23l-.063-.032a2.75 2.75 0 0 0-1.197 1.748c-.157.294-.373.587-.546.875-.251.417-.445.811-.706 1.219-.459.719-.785 1.094-1.553 1.949-.01.01-.077.132-.14.239.118-.06.234-.123.352-.182.415-.205.752-.543 1.026-.913.181-.244.298-.541.462-.798.465-.731.954-1.463 1.361-2.228.159-.3.281-.985.459-1.153.23-.215.362-.305.612-.411.008.038.023.097.028.129.058.395.102.777.139 1.152-.03.09-.044.141-.096.23-.154.265-.373.487-.518.757-.529.986-.858 2.089-1.246 3.135-.249.673-.59 1.339-.662 2.063-.015.138-.038.4.013.547.097.274.294.672.3 1.029.032-.107.059-.214.088-.323.147-.583.232-1.183.375-1.768.296-1.203.801-1.648 1.578-2.561.099-.116.196-.237.291-.361-.018 3.613-.66 5.93.601 6.951 1.01-.621 1.18-.741 2.136-1.143 1.392-.586 1.73-.629 2.055-.697.08.398-1.185 1.378-2.173 2.788-1.31 1.868-1.597 2.026-1.292 2.836.445 1.185 1.847 5.207 3.043 7.74.527 1.113 2.177 3.935 3.484 5.67 2.017 2.679 2.881 3.627 4.565 4.918.378.29.626-1.154 1.844-3.032 1.225-1.888 2.988-3.68 3.195-3.453.179.197-1.121 2.819-1.481 4.293-.298 1.226-.593 3.599.07 5.175 1.116 2.651 2.997 4.901 4.472 6.675 2.706 3.252 6.046 5.864 6.615 5.921.416.041.448-1.761.927-3.318.188-.61.513-1.229.895-1.654.256-.284.384 1.717.461 2.156.139.789.272 1.573.477 2.348 1.141 4.303 5.283 7.699 8.661 10.086.61.43.827-.806 1.386-2.296.474-1.261 1.175-2.349 1.343-2.554.088-.108.035 2.876.078 3.884.035.83.404 2.069.641 2.455 1.888 3.074 8.664 4.067 9.972 4.655 1.114.501 2.453 1.263 3.601 3.18.64 1.067.547 3.703.949 3.462.111-.067.2-.228.268-.452.296-.969.24-3.117.238-3.847-.023-8.468-2.912-18.996-7.935-25.307-.678-.852-1.56-1.496-2.451-2.065-.105-.067.246.009.369.021.822.088 1.589.035 3.311 1.007.534.301-.153-1.902-.454-2.504-1.878-3.758-2.992-5.779-5.995-8.791-1.43-1.435-4.587-3.913-6.534-4.431-.283-.075-2.438-.584-2.41-.774.127-.826 2.845-1.436 5.237-.844.641.324-1.696-3.594-4.84-6.946-2.535-2.702-5.844-6.487-8.409-8.237-.518-.354-1.972-.01-3.548-.033-1.685-.023-3.508-.406-4.363-.599-.44-.1.874-1.37 2.647-1.606 1.512-.252 2.341-.299 2.236-.416-3.782-4.197-8.66-6.914-16.54-10.042l-.221-.09c.067-.13.18-.219.323-.304a2.353 2.353 0 0 0-.52.224l-.448-.181.122-.326c.445.027.89.037 1.341.023-.145.062-.284.14-.418.215a1.41 1.41 0 0 0-.077.044 5.52 5.52 0 0 1 1.024-.201c.11-.012.328.045.429.01.052-.019-.062-.101-.137-.147.394-.101.793-.305 1.172-.281.655.04 1.084.557 1.616.853.397.221 1.931.373 2.358.133.044-.025-.098-.027-.146-.041a8.27 8.27 0 0 1-.62-.197c-.574-.211-1.12-.436-1.638-.764-1.146-.726-2.39-1.111-3.755-.977-.39.039-.768.175-1.157.226-.541.071-1.088.106-1.635.113l-.023-.003a2.101 2.101 0 0 0-.469.001 17.335 17.335 0 0 1-.789-.031c-.56-.326-1.22-.75-1.974-1.244a2.44 2.44 0 0 1 .913-.368c1.062-.199 2.265.295 3.528.206.994-.07 1.35-.69 2.527-.561.372.041.716.209 1.069.32.444.139.828.104 1.267 0a.815.815 0 0 1 .174-.026c.016-.042.042-.089.031-.119-.022-.061-.125.032-.19.037a4.009 4.009 0 0 1-.502.014c-.471-.027-.996-.243-1.423-.432-.424-.187-.981-.334-1.444-.321-.779.022-.937.076-1.587.261-.913.26-1.716-.154-2.161-.13-1.451.08-1.186-.252-2.62.411-.192.089-.354.097-.472.126-.174-.114-.277-.182-.469-.306-.102-.066-.196-.132-.294-.198.4-.156.692-.417 1.25-.699.819-.414 1.918-.323 2.808-.516.436-.094 1.118-.343 1.647-.427a6.945 6.945 0 0 1-.589-.083c-.862-.167-.546.035-1.322.173-.601.107-1.31 0-2.103.161-.822.167-1.701.501-2.432.878a26.406 26.406 0 0 1-.726-.541c.152-.073.253-.19.36-.337.004-.006.129-.174.152-.213.077-.133.24-.354.283-.515.01-.038-.074.027-.106.049-.247.172-.19.137-.143.107l-.21.144c-.053.036-.391.26-.719.465-.187-.15-.367-.301-.542-.45l.022-.001c1.013-.157 2.925-1.327 3.645-2.085.185-.196.604-.37.513-.625-.01-.028-.682.261-1.178.472-1.322.562-2.795 1.299-4.241 1.015l.331-.054c.232-.141.345-.398.518-.601.09-.106.193-.219.294-.322-.32.158-.583.37-.892.543-.099.055-.203.098-.305.148.034-.247.053-.078.575-.783.19-.257.337-.472.303-.81 0-.007-.002-.014-.003-.02.28.018.565.041.854.042.147.072.485.202.627.347.045.047-.068.009-.038.138.008.036.088.059.112.028.066-.089-.193-.588-.217-.62a.944.944 0 0 0-.184-.173c-.686-.161-1.623-.107-2.472.02a.653.653 0 0 1 .096-.057c-.184 0-.396-.024-.48-.002a1.44 1.44 0 0 0-.414.19l-.029.02c-.091.019-.18.039-.264.059l-.071.174c-.107-.128-.216-.257-.319-.383.128-.014.252-.029.265-.032.388-.112.649-.459 1.017-.612.152-.063.281-.037.435-.068.136-.028.274-.12.4-.176.063-.029.18-.049.227-.107.01-.012-.032-.009-.048-.011-.079-.007-.159-.016-.239-.021-.287-.016-.568.056-.834.157a2.257 2.257 0 0 0-.312.144c-.206.118-.338.318-.595.337-.103.008-.204-.022-.306-.022a.533.533 0 0 0-.277.078c-.387-.49-.747-.965-1.089-1.408-1.267-1.645-3.766-4.15-3.963-4.111Zm6.896 5.794c.13 0 .247-.013.292-.063a1.309 1.309 0 0 0-.136.004.954.954 0 0 0-.156.059Zm1.544 1.198.024-.012c.095-.046.465-.153.462-.299-.003-.133-.238.057-.486.311Zm8.193 2.363c.237.026.473.049.714.091.138.025-.264-.119-.405-.119-.093 0-.197.01-.309.028Zm5.426 2.298a.127.127 0 0 0-.011.047c.001.121.215-.051.011-.047Zm-13.519 17.208a4.303 4.303 0 0 1-.103.309c-.021.049-.088.169-.088.187.002 0 .007 0 .012-.006a.65.65 0 0 0 .179-.49Zm-2.23-3.357-.025.012c-.035.017-.095.154-.078.152.007-.001.053-.079.103-.164Zm-.588-6.097a.076.076 0 0 0 .009.045c.017.027.006-.001-.009-.045Zm1.786-13.361c.162-.002.328.005.495.015a4.93 4.93 0 0 1-.182.419 4.365 4.365 0 0 1-.922 1.17 23.264 23.264 0 0 1-.711-.774c.026-.068.05-.136.08-.202.064-.141.134-.301.218-.449a3.021 3.021 0 0 1 1.022-.179Zm-2.544 7.304c-.031.009-.049.015-.043.02.011.01.027 0 .043-.02Zm9.962 5.309c2.979 1.97 6.398 5.091 9.441 8.534 3.283 3.715 6.884 7.646 9.863 11.133 3.412 3.994 7.237 8.454 10.388 12.622 2.716 3.592 4.392 6.094 7.285 10.517 2.918 4.463 5.925 8.987 8.158 13.848.177.386 1.436 2.973 1.384 3.476-.003.033-.013.057-.029.071-.043.037-2.04-3.121-2.162-3.298-2.638-3.836-5.294-7.685-8.143-11.385-3.901-5.063-5.909-8.212-9.549-12.463-2.806-3.277-5.178-6.39-7.861-9.8-3.618-4.596-7.105-9.006-10.832-13.484-3.349-4.026-5.902-6.953-7.943-9.771Z"/></svg>