<svg
    xmlns="http://www.w3.org/2000/svg"
    viewBox="0 0 192 192"
    id="vector">
    <path
        id="path"
        d="M 130.213 150.712 C 120.048 156.242 108.392 159.384 96 159.384 C 56.465 159.384 24.415 127.398 24.415 87.942 C 24.415 48.485 56.465 16.5 96 16.5 C 135.535 16.5 167.585 48.486 167.585 87.942 C 167.585 104.734 161.78 120.173 152.064 132.369"
        fill="none"
        stroke="#000000"
        stroke-width="8"
        stroke-linecap="round"
        stroke-linejoin="round"/>
    <path
        id="path_1"
        d="M 113.434 129.663 C 108.068 131.899 102.178 133.134 96 133.134 C 70.992 133.134 50.719 112.901 50.719 87.942 C 50.719 62.984 70.992 42.751 96 42.751 C 121.008 42.751 141.281 62.984 141.281 87.942 C 141.281 96.818 138.717 105.097 134.288 112.08 M 96 85.45 C 103.491 93.092 130.275 122.749 156.597 160.049"
        fill="none"
        stroke="#000000"
        stroke-width="8"
        stroke-linecap="round"
        stroke-linejoin="round"/>
    <path
        id="path_2"
        d="M 107.072 97.486 C 153.27 112.678 164.755 154.566 164.755 175.5 C 154.1 161.876 105.325 151.39 107.072 97.486 Z M 123.635 132.22 C 121.387 135.044 120.87 138.574 121.628 142.126 M 144.195 128.066 C 146.858 128.066 148.929 128.626 150.224 129.509 M 127.797 110.87 C 129.288 110.726 130.55 110.746 132.753 110.87 M 110.9 114.276 C 110.234 114.65 108.776 116.491 108.776 116.491 M 154.974 143.933 C 156.514 144.182 158.694 145.646 158.694 145.646 M 136.315 149.037 C 135.774 151.654 137.139 156.127 137.139 156.127 M 148.329 158.664 C 147.94 160.326 148.461 163.572 148.461 163.572"
        fill="none"
        stroke="#000000"
        stroke-width="6"
        stroke-linecap="round"
        stroke-linejoin="round"/>
</svg>
