<svg
    xmlns="http://www.w3.org/2000/svg"
    viewBox="0 0 192 192"
    id="vector">
    <path
        id="path"
        d="M 109.183 63.397 C 115.842 63.397 121.241 55.27 121.241 45.244 L 109.183 45.244 L 109.183 16.5 L 135.408 16.5 L 135.408 45.244 C 135.408 61.954 123.667 75.5 109.183 75.5 Z M 149.275 63.397 C 155.934 63.397 161.332 55.27 161.332 45.244 L 149.275 45.244 L 149.275 16.5 L 175.5 16.5 L 175.5 45.244 C 175.5 61.954 163.759 75.5 149.275 75.5 Z M 82.817 128.603 C 76.158 128.603 70.759 136.73 70.759 146.756 L 82.817 146.756 L 82.817 175.5 L 56.592 175.5 L 56.592 146.756 C 56.592 130.046 68.333 116.5 82.817 116.5 Z M 42.725 128.603 C 36.066 128.603 30.668 136.73 30.668 146.756 L 42.725 146.756 L 42.725 175.5 L 16.5 175.5 L 16.5 146.756 C 16.5 130.046 28.241 116.5 42.725 116.5 Z"
        fill="none"
        stroke="#000000"
        stroke-width="12"
        stroke-linecap="round"
        stroke-linejoin="round"/>
</svg>
