<svg xmlns="http://www.w3.org/2000/svg" viewBox="0 0 192 192"><path fill="none" stroke="#000" stroke-linecap="round" stroke-linejoin="round" stroke-width="12" d="M109.183 63.397c6.659 0 12.058-8.127 12.058-18.153h-12.058V16.5h26.225v28.744c0 16.71-11.741 30.256-26.225 30.256Zm40.092 0c6.659 0 12.057-8.127 12.057-18.153h-12.057V16.5H175.5v28.744c0 16.71-11.741 30.256-26.225 30.256Zm-66.458 65.206c-6.659 0-12.058 8.127-12.058 18.153h12.058V175.5H56.592v-28.744c0-16.71 11.741-30.256 26.225-30.256Zm-40.092 0c-6.659 0-12.057 8.127-12.057 18.153h12.057V175.5H16.5v-28.744c0-16.71 11.741-30.256 26.225-30.256Z"/></svg>