<svg xmlns="http://www.w3.org/2000/svg" viewBox="0 0 192 192"><g fill="none" stroke="#000"><g stroke-width="8"><path stroke-linejoin="round" d="M151.14 169.35H55.808c-3.297 0-6.46-1.307-8.792-3.636a12.405 12.405 0 0 1 0-17.558 12.444 12.444 0 0 1 8.792-3.636h95.332c-8.66 7.027-7.941 17.17 0 24.83zM37.42 65.1a14.365 14.365 0 0 1 6.173-14.382S53.88 69.203 62.107 77.424c0 0-16.46 14.382-22.633-2.052z"/><path stroke-linejoin="round" d="M89.263 72.99s-7.737 13.063-13.642 24.002c-9.823 18.225-25.85 19.464-44.37 3.034a34.781 34.781 0 0 1-11.252-18.898s7.137 6.562 15.364 6.562a24.424 24.424 0 0 1-4.114-30.816s10.777 15.392 21.697 20.862a13.174 13.174 0 0 0 8.646.55c5.324-1.67 13.19-17.278 27.671-5.295zm-7.2 41.181a5.53 5.53 0 0 1 9.433-3.9 5.51 5.51 0 0 1 0 7.801 5.532 5.532 0 0 1-7.814 0 5.514 5.514 0 0 1-1.619-3.901"/><path d="M137.33 125.21a2.763 2.763 0 0 1 5.526 0 2.763 2.763 0 0 1-5.526 0"/></g><path stroke-linecap="round" stroke-width="6" d="M156.67 21.651v3.904m0 11.709v3.903m-9.765-9.758h3.91m11.728 0h3.91m-31.88 121.39H90.361m19.333 8.281h24.87m-80.129-8.28h27.633m-5.527 8.28h16.58m2.763-113.12V34.165M84.831 47.96l-5.526-5.517m27.629 5.517 6.908-6.897m38.137 24.038a14.365 14.365 0 0 0-6.173-14.382s-10.287 18.486-18.514 26.707c0 0 16.463 14.382 22.633-2.053z"/><path stroke-width="8" d="M100.13 72.99s7.737 13.063 13.642 24.002c9.823 18.225 25.85 19.464 44.37 3.034a34.79 34.79 0 0 0 11.252-18.896s-7.137 6.559-15.367 6.559a24.425 24.425 0 0 0 4.114-30.816s-10.79 15.392-21.697 20.862a13.165 13.165 0 0 1-8.645.552c-5.323-1.672-13.186-17.28-27.67-5.297z"/></g></svg>