<?xml version="1.0" encoding="UTF-8"?>
<svg id="vector" version="1.1" viewBox="0 0 192 192" xmlns="http://www.w3.org/2000/svg">
 <g fill="none" stroke="#000">
  <g stroke-width="8">
   <path d="m151.14 169.35h-95.332c-3.297 0-6.4605-1.3074-8.7924-3.6358-2.3329-2.3284-3.642-5.488-3.642-8.779 0-3.292 1.3092-6.4506 3.642-8.779 2.3318-2.3284 5.4954-3.6358 8.7924-3.6358h95.332c-8.6599 7.0263-7.9412 17.169 0 24.83zm-113.72-104.25c-0.47232-2.7368-0.14067-5.5506 0.95594-8.1027 1.0946-2.5521 2.9068-4.7348 5.2171-6.2792 0 0 10.287 18.485 18.514 26.706 0 0-16.46 14.382-22.633-2.0524z" stroke-linejoin="round"/>
   <path d="m89.263 72.99s-7.7368 13.063-13.642 24.002c-9.8233 18.225-25.85 19.464-44.37 3.0344-5.6976-4.9185-9.6467-11.552-11.252-18.898 0 0 7.1372 6.5614 15.364 6.5614-4.1585-3.8625-6.8446-9.0519-7.5931-14.671-0.75161-5.6204 0.48054-11.331 3.4788-16.145 0 0 10.777 15.392 21.697 20.862 2.7354 1.1524 5.7859 1.3484 8.6466 0.55106 5.3239-1.6716 13.189-17.279 27.671-5.2961zm-7.1998 41.181c0-1.4623 0.58321-2.8661 1.6192-3.9005 1.036-1.0354 2.4427-1.6172 3.9069-1.6172 1.4642 0 2.8709 0.58183 3.9069 1.6172 1.0371 1.0344 1.6192 2.4382 1.6192 3.9005 0 1.4623-0.58321 2.8661-1.6192 3.9015-1.036 1.0344-2.4427 1.6162-3.9069 1.6162-1.4642 0-2.8709-0.58184-3.9069-1.6162-1.0371-1.0354-1.6192-2.4392-1.6192-3.9015" stroke-linejoin="round"/>
   <path d="m137.33 125.21c0-0.73064 0.28955-1.4346 0.8091-1.9508 0.5175-0.51822 1.2219-0.80863 1.954-0.80863 0.73209 0 1.4365 0.29041 1.954 0.80863 0.51853 0.51617 0.8091 1.2191 0.8091 1.9508 0 0.73064-0.29057 1.4346-0.8091 1.9508-0.5175 0.51822-1.2219 0.80863-1.954 0.80863-0.7321 0-1.4375-0.29041-1.954-0.80863-0.51955-0.51616-0.8091-1.2201-0.8091-1.9508"/>
  </g>
  <path d="m156.67 21.651v3.9036m0 11.709v3.9036m-9.7647-9.758h3.91m11.728 0h3.91m-31.88 121.39h-44.212m19.333 8.2813h24.869m-80.128-8.2813h27.633m-5.5272 8.2813h16.58m2.7631-113.12v-13.795m-11.053 13.795-5.5262-5.5178m27.629 5.5178 6.9082-6.897m38.137 24.038c0.47232-2.7368 0.14067-5.5506-0.95594-8.1027-1.0946-2.5521-2.9068-4.7348-5.2171-6.2792 0 0-10.287 18.485-18.514 26.706 0 0 16.463 14.382 22.633-2.0524z" stroke-linecap="round" stroke-width="6"/>
  <path d="m100.13 72.99s7.7368 13.063 13.642 24.002c9.8233 18.225 25.85 19.464 44.37 3.0344 5.6946-4.9185 9.6467-11.549 11.252-18.896 0 0-7.1372 6.5583-15.367 6.5583 4.1585-3.8625 6.8446-9.0519 7.5931-14.671 0.75161-5.6194-0.48054-11.331-3.4788-16.145 0 0-10.79 15.392-21.697 20.862-2.7354 1.1534-5.786 1.3494-8.6455 0.55208-5.3229-1.6716-13.186-17.279-27.67-5.2971z" stroke-width="8"/>
 </g>
</svg>
