<svg xmlns="http://www.w3.org/2000/svg" viewBox="0 0 192 192"><path d="M53.651 175.561c-9.152-1.527-16.799-8.931-18.742-18.146-.792-3.756-.797-6.069-.019-9.74 1.718-8.106 8.627-15.4 16.56-17.483 2.938-.771 5.394-.809 52.191-.809h49.109l.887 1.127c.768.977.887 1.724.887 5.592 0 4.998-.143 5.406-2.976 8.522-4.443 4.886-3.997 11.253 1.221 17.438l1.755 2.08-.007 4.34c-.003 2.387-.124 4.781-.268 5.32-.62 2.315 1.247 2.234-50.527 2.18-26.316-.028-48.849-.217-50.072-.421Zm95.309-6.591v-1.498h-45.929c-31.026 0-46.753-.15-48.468-.462-4.471-.813-8.425-4.105-10.538-8.773-1.451-3.206-1.357-8.106.222-11.521 1.537-3.328 4.139-5.998 7.348-7.539l2.568-1.234 36.416-.001c20.028 0 41.357-.127 47.398-.283l10.983-.282v-2.88l-47.398.129c-52.621.144-48.894-.066-53.727 3.025-4.646 2.972-7.602 8.051-7.924 13.616-.322 5.562 1.036 9.56 4.51 13.273 2.22 2.374 3.92 3.513 7.342 4.921l2.4.987 47.399.01 47.398.01Zm-4.447-9.108c-2.263-4.467-2.441-9.567-.499-14.333l1.006-2.47-45 .116-45.001.117-1.907 1.07c-2.955 1.658-4.451 4.12-4.651 7.652-.185 3.272.605 5.375 2.774 7.383 2.859 2.648-.517 2.476 49.05 2.495l45.265.017Zm-68.457-1.304c-.96-1.061-.892-2.885.148-3.925.801-.801 1.427-.856 9.786-.856 8.386 0 8.998.054 10.057.887 1.276 1.004 1.44 2.328.462 3.726-.655.934-.834.951-10.206.951-8.697 0-9.601-.069-10.247-.783Zm32.993.248c-.385-.294-.825-1.055-.978-1.69-.216-.896-.034-1.401.813-2.247l1.091-1.092h12.887c8.265 0 13.191.163 13.735.454 1.737.93 1.857 3.682.208 4.782-.259.173-6.452.318-13.763.321-9.984.005-13.467-.126-13.993-.528Zm-54.672-8.453c-.471-.47-.856-1.337-.856-1.926 0-.588.385-1.455.856-1.925.822-.823 1.427-.856 15.36-.856 13.36 0 14.579.061 15.461.774 1.162.942 1.253 2.778.195 3.948-.73.805-1.388.841-15.461.841-14.128 0-14.732-.033-15.555-.856Zm35.876.568c-.932-.247-1.615-2.241-1.175-3.431.19-.513.728-1.138 1.197-1.388 1.18-.632 45.142-.634 46.322-.002 1.737.929 1.857 3.681.208 4.782-.493.329-45.31.367-46.552.039Zm49.034-27.43c-2.076-1.386-1.386-4.497 1.049-4.731 1.76-.169 3.06.89 3.06 2.491 0 1.943-2.507 3.31-4.109 2.24Zm-53.454-5.619c-3.252-1.506-4.921-4.075-4.921-7.576 0-2.648.86-4.45 2.996-6.279 4.088-3.499 10.207-2.086 12.462 2.879 2.061 4.537-.411 10.04-5.093 11.34-2.252.626-3.483.543-5.444-.364Zm4.923-5.824c.294-.354.534-1.123.534-1.71 0-1.476-.846-2.354-2.269-2.354-1.465 0-2.546.999-2.546 2.354 0 .554.303 1.311.673 1.681.853.853 2.91.87 3.608.029Zm-38.059-1.933c-7.268-1.535-14.105-5.372-21.649-12.151-5.182-4.656-9.079-10.872-10.871-17.339-.877-3.164-.746-4.395.561-5.268.934-.624 2.783-.307 3.969.679 1.284 1.069 4.684 3.273 5.047 3.273.119 0-.196-1.011-.7-2.246-2.08-5.098-2.64-11.75-1.424-16.907.753-3.191 3.309-8.448 4.292-8.825 1.544-.592 2.711-.232 3.999 1.234l1.318 1.502 1.116-2.201c1.351-2.666 4.464-6.084 6.193-6.8 1.73-.717 2.925.118 4.731 3.305 5.382 9.496 14.089 21.951 15.346 21.951.186 0 1.663-1.057 3.283-2.35 1.621-1.292 4.102-2.977 5.514-3.745 2.413-1.31 2.827-1.395 6.848-1.395 3.807.001 4.545.131 6.686 1.183 3.882 1.907 6.367 4.005 6.367 5.377 0 .688-1.346 3.455-3.269 6.721-1.798 3.052-5.191 9.017-7.54 13.254-6.333 11.423-9.195 15.048-14.193 17.977-4.37 2.561-11.025 3.741-15.624 2.771Zm11.389-7.07c5.054-2.466 7.168-5.173 15.361-19.67 3.858-6.826 7.018-12.63 7.022-12.897.011-.816-3.062-2.017-5.662-2.213-3.2-.241-5.665.941-10.595 5.081-4.665 3.918-6.25 4.658-10.007 4.67-4.811.015-8.024-1.329-13.317-5.574-2.512-2.014-8.363-7.84-11.445-11.396l-1.548-1.786-.431 1.236c-.237.681-.556 2.544-.709 4.141-.537 5.613 1.518 11.74 5.443 16.224 2.286 2.613 2.464 3.378 1.169 5.024-.673.855-1.27 1.128-2.469 1.128-1.406 0-6.153-1.117-8.374-1.97-.745-.286-.726-.152.214 1.523 2.341 4.173 9.44 10.708 15.277 14.063 8.157 4.688 13.978 5.389 20.071 2.416Zm-6.285-31.258c0-.135-.834-1.339-1.853-2.675-2.57-3.366-7.172-10.18-9.334-13.819-1.68-2.829-1.85-2.987-2.417-2.245-.905 1.182-1.671 3.143-1.993 5.104l-.287 1.74 4.645 4.466c5.087 4.893 11.239 8.959 11.239 7.429Zm74.04 38.482c-4.838-.749-9.202-2.965-12.786-6.493-2.964-2.918-4.946-5.818-8.819-12.911-1.607-2.943-4.914-8.776-7.349-12.962-2.436-4.187-4.428-8.002-4.428-8.477 0-1.252 2.316-3.196 5.969-5.011 2.693-1.337 3.71-1.606 6.557-1.736 2.464-.113 3.907.047 5.372.594 2.181.815 6.546 3.617 9.317 5.981l1.75 1.494 2.796-3.53c3.083-3.892 8.924-12.687 12.099-18.22 2.079-3.622 3.323-4.65 4.987-4.122 1.402.445 4.821 4.174 6.186 6.747l1.319 2.486 1.162-1.523c1.932-2.532 4.288-1.989 5.99 1.381 3.434 6.798 3.973 14.648 1.476 21.491-1.49 4.082-1.484 4.025-.312 3.418.564-.291 2.007-1.276 3.205-2.188 2.651-2.017 4.5-2.211 5.566-.585.653.996.652 1.278-.016 3.936-2.075 8.261-7.232 15.408-15.867 21.989-8.395 6.398-17.043 9.346-24.174 8.241Zm7.006-5.919c5.832-1.235 13.423-5.817 19.262-11.625 2.436-2.423 6.088-7.308 5.731-7.665-.096-.097-1.255.203-2.574.667-3.648 1.282-6.908 1.556-8.228.692-1.687-1.106-1.477-3.116.568-5.444 3.56-4.054 5.625-9.354 5.625-14.439 0-2.879-.74-6.913-1.268-6.913-.187 0-1.019.818-1.847 1.818-5.039 6.083-12.365 12.529-16.972 14.933-2.274 1.187-3.321 1.463-6.007 1.586-4.744.216-6.074-.298-10.93-4.227-5.405-4.373-7.633-5.551-10.494-5.551-2.071 0-6.407 1.437-6.407 2.122 0 .168 1.562 3.082 3.471 6.474l6.479 11.519c4.015 7.141 5.868 9.806 8.325 11.972 2.467 2.175 4.74 3.403 7.618 4.116 2.861.709 4.166.703 7.648-.035Zm-1.963-33.352c2.936-1.507 4.541-2.793 9.008-7.211l3.994-3.95-.241-1.821c-.234-1.768-1.599-4.962-2.307-5.399-.192-.119-.999.879-1.792 2.217-1.769 2.985-7.043 10.904-9.673 14.525-1.068 1.471-1.732 2.675-1.475 2.675.257 0 1.375-.466 2.486-1.036ZM81.755 44.391c-1.836-1.787-3.455-3.716-3.599-4.289-.487-1.941 1.473-3.875 3.258-3.214.393.146 2.271 1.756 4.172 3.578 3.724 3.567 4.139 4.568 2.585 6.237-1.557 1.671-2.774 1.232-6.416-2.312Zm13.453 2.347c-.74-.817-.815-1.633-.815-8.811 0-7.797.014-7.922 1.01-8.729 1.296-1.049 2.408-1.037 3.484.038.795.796.856 1.427.856 8.964 0 7.892-.026 8.124-.952 8.773-1.312.919-2.616.834-3.583-.235Zm10.954.045c-1.713-1.713-1.185-2.866 3.376-7.373 4.575-4.521 5.384-4.877 7.129-3.132 1.745 1.745 1.39 2.554-3.131 7.129-4.507 4.561-5.661 5.089-7.374 3.376Zm49.007-6.843c-1.845-2.039-1.009-7.813 1.212-8.371 1.363-.342 2.781.426 3.299 1.787.889 2.34.322 6.194-1.048 7.108-.894.597-2.694.325-3.463-.524Zm-9.361-9.451c-1.355-1.066-1.466-2.626-.272-3.821.693-.693 1.427-.856 3.852-.856s3.159.163 3.852.856c1.136 1.137 1.082 2.634-.135 3.778-1.39 1.305-5.66 1.331-7.297.043Zm15.21-.103c-1.161-1.236-1.188-2.604-.075-3.718.693-.692 1.427-.856 3.852-.856s3.159.164 3.852.856c1.136 1.137 1.083 2.634-.135 3.778-.807.758-1.505.93-3.777.93-2.36 0-2.929-.152-3.717-.99Zm-5.893-5.904c-.639-.706-.815-1.55-.813-3.891.003-2.622.127-3.091 1.011-3.806 2.193-1.776 4.335-.428 4.658 2.933.245 2.554-.053 4.053-.995 4.995-.952.952-2.897.836-3.861-.231Z"/></svg>