<svg width="682.667" height="682.667" viewBox="0 0 682.667 682.667" xmlns="http://www.w3.org/2000/svg"><path style="fill:#d1d1d1;stroke-width:1.33333" d="M323.558 550.52c-35.535-2.96-74.666-17.307-103.936-38.104-13.055-9.277-37.78-33.506-47.21-46.266-28.346-38.349-43.583-87.567-41.325-133.483 1.03-20.927 3.8-36.028 10.246-55.835 11.213-34.453 25.065-56.765 51.9-83.6 31.903-31.904 63.84-49.216 108.435-58.78 18.39-3.943 56.875-4.314 74.999-.722 48.012 9.516 85.02 29.712 117.675 64.215 21.292 22.499 35.785 46.77 45.62 76.399 15.27 46.001 15.297 87.906.088 133.875-17.933 54.202-62.306 102.66-114.684 125.242-32.296 13.923-67.883 19.886-101.808 17.06zM312 528.908c0-.235-3.26-5.383-7.246-11.44-13.034-19.812-19.878-43.876-19.174-67.418l.42-14.055-3.333.106c-1.834.058-9.634 1.41-17.334 3.003l-14 2.897.428 3.95c.779 7.18 12.3 37.061 22.22 57.631 10.804 22.402 8.66 20.352 25.352 24.242 5.371 1.251 12.667 1.876 12.667 1.084zm-65.836-34.577c-3.757-8.986-8.93-23.076-11.497-31.313-2.567-8.237-5.267-14.963-6-14.947-3.436.075-34.667 13.022-34.667 14.372 0 2.147 16.909 19.222 27.559 27.83 6.873 5.556 29.539 20.395 31.151 20.395.157 0-2.789-7.352-6.546-16.337zm137.676 4.833c6.345-3.162 6.947-3.836 6.173-6.918-2.28-9.087-9.53-14.044-19.496-13.33l-5.85.418-.401 7.702c-.366 7.023-.052 8.05 3.564 11.667 4.863 4.863 7.051 4.926 16.01.461zm40.53-35.473c-8.996-16.528-31.874-29.075-52.885-29.005-10.504.035-10.873.39-10.375 9.971l.444 8.526 6.588-.78c15.107-1.79 32.928 7.228 41.485 20.994l4 6.436 7.172-4.762 7.172-4.762zm32.32-12.562c2.92-1.947 5.533-3.72 5.805-3.94.852-.69-6.062-11.707-11.401-18.168-12.45-15.065-37.006-29.619-56.704-33.606-9.193-1.861-34.419-2.936-35.834-1.528-.306.304-.347 3.966-.091 8.137l.464 7.585 6.903-.863c14.243-1.78 38.454 4.441 52.694 13.54 9.517 6.08 20.145 16.257 26.279 25.163 2.734 3.97 5.333 7.219 5.774 7.219.441 0 3.191-1.593 6.111-3.54zM208.668 432.62c8.066-2.796 14.864-5.228 15.107-5.404.242-.176-.777-6.522-2.264-14.102-3.856-19.654-5.415-31.148-6.392-47.121L214.26 352h-63.908l.947 10.103c2.152 22.96 10.254 49.103 21.661 69.897 6.956 12.68 6.21 12.217 14.114 8.746 3.809-1.673 13.525-5.329 21.592-8.125zm44-12.818c2.933-.834 13.015-2.817 22.404-4.407l17.07-2.89 4.314-9.92c5.383-12.377 14.659-26.829 25.837-40.253L330.897 352h-94.989l.673 6.333c.37 3.484 1.023 10.834 1.45 16.334 1.547 19.951 6.332 46.675 8.354 46.659.521-.004 3.348-.69 6.282-1.523zm199.053-46.328c5.659-2.888 8.384-5.682 11.453-11.742 1.783-3.522 2.16-9.05 2.16-31.667 0-30.717.279-31.663 9.84-33.457 7.057-1.324 13.943 1.657 21.319 9.23l6.607 6.782-.767-10.136c-1.514-20.017-11.044-29.934-32.011-33.31-13.724-2.21-12.985-3.798-13.008 27.915-.01 15.167-.579 28.46-1.26 29.538-1.037 1.638-1.981 1.693-5.741.333-9.864-3.567-23.215-.866-29.151 5.897-8.957 10.205-8.447 28.347 1.03 36.642 7.8 6.827 20.572 8.546 29.529 3.975zm-236.65-59.142c.837-15.459 3.419-34.927 6.724-50.696 1.039-4.955 1.51-9.22 1.047-9.477-.462-.258-5.941-2.147-12.174-4.198-6.234-2.051-15.466-5.431-20.517-7.512-5.05-2.08-9.66-3.783-10.244-3.783-2.096 0-18.589 35.585-21.92 47.293-3.457 12.149-7.304 33.038-7.314 39.707l-.005 3.666h63.592zm115.597-13.466v-28.466l-15-.902c-21.17-1.273-56.298-6.8-69.164-10.884-1.846-.586-2.558 1.227-4.325 11.008-2.246 12.435-4.17 28.685-5.53 46.71l-.831 11h94.85zm33.262 14.444c7.46-10.793 19.414-34.828 20.801-41.825.84-4.236.7-4.468-2.25-3.762-1.731.413-9.297 1.172-16.813 1.686l-13.667.934v28.701c0 33.078-.59 32.374 11.929 14.266zm-33.262-114.828v-50.184l-10.312.934c-10.741.974-25.875 3.805-33.404 6.25-3.83 1.243-5.312 3.278-11.758 16.13-8.963 17.872-17.773 39.244-22.31 54.12l-3.374 11.066 3.579 1.363c6.557 2.496 42.025 7.934 58.912 9.033 9.167.597 17.117 1.172 17.667 1.278.55.107 1-22.39 1-49.99zm55.666 46.692c2.564-.7 3-1.719 2.992-6.997-.013-10.54-3.673-31.13-7.386-41.554-4.278-12.01-15.004-32.923-21.347-41.624-8.653-11.868-8.592-12.176-8.592 43.205v49.538l15.667-.875c8.616-.48 17.016-1.243 18.666-1.693zm-151.2-32.842c3.467-10.45 8.38-23.75 10.919-29.555 2.538-5.806 4.338-10.833 4-11.17-1-1-20.278 11.498-30.818 19.977-9.444 7.597-25.9 24.42-25.9 26.477 0 .556 1.65 1.628 3.666 2.382 20.01 7.488 29.226 10.767 30.414 10.823.778.036 4.251-8.484 7.719-18.934zm-115.8 230.07c-16.31-2.163-31.208-9.81-43.834-22.501-11.1-11.158-17.24-20.835-22.212-35.015-8.618-24.57-8.88-47.187-.825-71.233 2.643-7.89 6.985-17.752 9.647-21.915 5.67-8.863 17.909-22.042 23.92-25.757 3.468-2.143 5.213-5.213 9.865-17.349 23.892-62.335 69.716-117.794 124.347-150.491 39.938-23.904 94.532-36.616 138.426-32.233 38.152 3.81 78.204 17.43 108.247 36.808 51.605 33.286 96.198 89.676 117.917 149.113 3.449 9.438 4.593 11.08 11.337 16.284 19.162 14.784 31.853 38.126 35.946 66.113 2.936 20.079-1.598 44.853-11.74 64.152-5.563 10.59-20.166 26.832-29.515 32.83-15.925 10.22-52.192 16.44-52.192 8.953 0-.982 2.041-6.22 4.536-11.64 20.518-44.566 22.992-108.499 6.12-158.104-5.686-16.718-5.63-16.903 5.572-18.052l3.562-.366-8.344-16.671c-29.512-58.97-68.637-98.965-121.446-124.144-16.368-7.804-29.068-12.1-47.334-16.01-11.897-2.546-18.106-3-41.333-3.023-23.446-.023-29.325.403-41.333 2.99-19.602 4.225-34.711 9.52-52.248 18.313-51.523 25.832-88.986 64.929-117.309 122.426L121.17 254l6.026.722c3.314.397 6.461 1.157 6.994 1.69.532.532-1.243 7.708-3.945 15.945s-5.772 19.176-6.822 24.31c-9.057 44.284-4.156 96.039 12.64 133.474 4.452 9.922 4.87 13.215 1.828 14.383-2.208.847-11.726.785-18.558-.12z" transform="translate(1.529 32.204)"/><path style="fill:#acacac;stroke-width:1.33333" d="M322.224 549.32c-35.963-3.401-72.069-16.782-101.854-37.749-13.432-9.454-38.223-33.657-47.037-45.919-29.26-40.709-43.041-85.492-40.926-132.985.985-22.12 3.733-37.413 10.207-56.807 10.927-32.734 25.724-56.376 51.295-81.959 19.637-19.646 35.454-30.997 58.128-41.716 27.807-13.145 50.075-18.552 81.296-19.74 48.247-1.836 93.335 12.014 132 40.547 14.33 10.574 37.947 34.974 47.693 49.272 27.416 40.223 40.53 88.825 36.402 134.912-2.675 29.871-8.53 50.83-21.464 76.824C498.28 493.665 441.201 536.175 376 547.179c-15.11 2.55-39.276 3.512-53.776 2.14zm-8.05-19.653c-.358-.55-3.989-6.051-8.068-12.224-13.574-20.538-19.44-40.714-19.44-66.863 0-14.272-.24-15.912-2.333-15.9-3.245.02-33.762 6.305-34.58 7.122-2.065 2.066 17.866 53.266 28.625 73.531l4.955 9.334 11.334 2.919c11.416 2.94 20.71 3.932 19.507 2.08zm-59.945-19.334c-10.281-23.71-14.76-35.045-18.838-47.666-2.724-8.434-5.137-15.52-5.362-15.746-.942-.949-38.029 13.724-38.029 15.045 0 2.08 18.792 20.943 29.414 29.525 8.955 7.236 29.843 20.509 32.275 20.509.695 0 .938-.75.54-1.667zm132.114-11.22c5.044-2.876 5.58-3.638 4.806-6.842-2.12-8.771-9.758-14.938-18.504-14.938-7.877 0-9.978 1.863-9.978 8.846 0 11.562 6.134 18.614 14.666 16.858 1.834-.377 5.888-2.143 9.01-3.923zm39.421-35.31c-4.766-8.756-15.805-18.732-26.24-23.712-9.859-4.705-24.792-7.47-33.384-6.182l-6.14.921v19.53l8.43-.677c16.473-1.322 31.936 6.615 40.73 20.909l4.2 6.823 8.027-5.452 8.028-5.451zm31.786-11.942c3.547-2.276 6.45-4.583 6.45-5.127 0-2.566-11.201-17.87-17.916-24.479-20.224-19.903-48.11-30.889-76.1-29.978l-11.984.39-.397 9.138-.398 9.138 7.916-.918c9.881-1.147 26.132 1.22 37.36 5.444 16.574 6.233 35.409 21.634 43.245 35.36 1.617 2.833 3.488 5.155 4.157 5.16.67.006 4.12-1.852 7.667-4.128zm-271.15-9.714c1.98-1.02 11.4-4.674 20.933-8.122 9.534-3.448 17.494-6.425 17.69-6.615.197-.19-.572-4.763-1.707-10.16-3.468-16.487-6.06-35.829-6.912-51.583l-.812-15H149.02l.947 10.103c2.135 22.784 10.787 51.186 21.698 71.23 7.27 13.356 7.796 13.718 14.735 10.147zm66.74-21.412c4.14-1.063 13.527-2.892 20.86-4.066 7.333-1.173 14.588-2.39 16.122-2.706 1.957-.403 3.902-3.197 6.53-9.378 5.033-11.844 16.098-29.23 26.666-41.9 4.775-5.725 8.682-10.771 8.682-11.214 0-.442-21.92-.804-48.713-.804h-48.712l.673 6.333c.37 3.483 1.02 10.833 1.445 16.333 1.29 16.707 6.797 49.334 8.327 49.334.327 0 3.982-.87 8.12-1.932zm197.218-45.465c6.589-2.753 10.81-6.815 13.789-13.27 2.137-4.632 2.465-8.952 2.49-32.837.033-30.949-.155-30.352 9.964-31.493 7.48-.843 15.92 3.726 21.897 11.853 5.049 6.866 6.252 5.046 5.065-7.663-1.841-19.721-12.233-30.429-32.733-33.73-4.144-.668-9.164-.902-11.156-.521l-3.623.692-.359 28.85-.359 28.849-3.333-.352c-1.833-.193-6.113-.713-9.511-1.154-19.805-2.575-34.917 17.802-27.092 36.53 5.647 13.517 21.371 19.924 34.961 14.246zM216.011 321c.013-11.324 1.847-28.81 4.79-45.667 1.153-6.6 2.413-14.178 2.801-16.84l.706-4.84-9.154-2.989c-5.035-1.644-15.1-5.4-22.368-8.347-15.38-6.236-13.272-7.266-22.764 11.114-10.024 19.408-17.885 46.038-20.142 68.236l-.915 9H216l.01-9.667zm115.681-20-.359-29.667-14.666-.93c-18.854-1.197-42.567-4.509-59.45-8.304-7.331-1.647-13.546-2.644-13.81-2.214-1.949 3.162-8.74 57.283-8.74 69.642 0 .627 21.911 1.14 48.692 1.14h48.692zm29.99 19.32c9.067-12.183 19.825-32.505 22.984-43.419 1.236-4.27 2.042-7.925 1.79-8.12-.25-.195-8.406.264-18.123 1.02l-17.666 1.374v29.746c0 22.915.382 29.743 1.666 29.732.917-.008 5.124-4.657 9.348-10.333zM332 199.737v-50.771l-10.333.924c-10.746.961-30.341 4.857-36.631 7.283-2.777 1.071-5.23 4.586-10.42 14.929-12.437 24.783-26.533 62.717-24.893 66.99 1.26 3.282 38.333 9.855 64.277 11.396 8.8.523 16.45.742 17 .486.55-.255 1-23.312 1-51.237zm53.667 48.774c4.933-.848 5-.942 4.992-7.019-.032-25.256-10.278-56.214-27.08-81.825-5.202-7.928-7.494-10.334-9.846-10.334h-3.066v101.741l15-.85c8.25-.47 17.25-1.24 20-1.713zm-150.275-32.24c3.193-9.704 8.293-23.316 11.333-30.247 3.04-6.931 5.31-13.253 5.045-14.047-.62-1.858-21.72 11.376-33.486 21.003-9.51 7.78-26.284 25.149-26.284 27.215 0 1.368 1.866 2.176 21.333 9.244 7.7 2.795 14.507 4.946 15.127 4.78.62-.167 3.739-8.243 6.932-17.948zM114.667 442.514c-23.888-3.824-48.45-25.72-59.478-53.023-8.839-21.883-9.62-50.794-1.983-73.419 2.338-6.927 6.365-16.074 8.95-20.328 5.752-9.47 16.384-21.274 23.713-26.33 4.762-3.285 6.05-5.357 10.018-16.114 6.502-17.627 20.564-44.853 32.361-62.657C203.571 76.97 332.317 37.513 444.667 93.668c61.247 30.613 114.19 92 140.029 162.366 3.278 8.925 4.423 10.543 10.37 14.643 12.543 8.647 24.875 26.175 30.918 43.944 12.379 36.394 4.444 77.364-20.12 103.896-15.07 16.276-30.355 23.64-52.024 25.064-15.081.99-15.516.486-10.02-11.644 2.145-4.732 5.734-14.604 7.977-21.937 13.794-45.11 13.356-92.212-1.273-136.897-2.322-7.093-3.859-13.843-3.415-15 .55-1.434 2.517-2.103 6.183-2.103 3.954 0 5.375-.544 5.375-2.056 0-2.906-14.564-31.675-22.57-44.584-10.424-16.806-20.86-30.123-35.41-45.18-35.27-36.504-73.863-58.356-120.687-68.338-20.408-4.35-59.82-4.366-80-.031C224.983 111.923 164.938 161.499 127.783 238c-4.274 8.8-7.773 16.45-7.777 17-.003.55 2.713 1 6.036 1 3.979 0 6.289.644 6.766 1.886.398 1.038-1.147 7.334-3.433 13.993-17.29 50.354-15.57 105.509 4.88 156.468 2.577 6.424 4.344 12.574 3.924 13.667-.87 2.265-11.123 2.484-23.512.5z" transform="translate(1.529 32.204)"/><path style="fill:#929292;stroke-width:1.33333" d="M319.844 548.029c-42.56-4.128-82.888-21.684-117.226-51.033-24.161-20.651-46.702-54.603-58.466-88.064-6.741-19.176-9.528-35.204-10.363-59.599-1.656-48.426 8.97-86.037 35.6-126 28.682-43.043 79.205-76.54 130.766-86.698 15.353-3.025 50.866-4.089 67.37-2.018 46.431 5.827 89.193 26.994 122.475 60.625 27.626 27.917 49.006 69.333 56.143 108.758 3.2 17.68 3.17 55.844-.06 74-4.915 27.64-15.746 54.269-31.99 78.647-16.843 25.278-31.625 40.042-57.446 57.374-24.195 16.24-51.545 27.395-77.98 31.804-15.774 2.63-43.652 3.675-58.823 2.204zM316 531.397c0-.331-2.613-4.381-5.806-9-9.208-13.317-12.409-19.532-17.028-33.064-3.949-11.567-4.39-14.517-5.078-34L287.333 434l-5.363.39c-2.95.214-11.35 1.725-18.667 3.358L250 440.717l.278 4.844c.427 7.431 11.508 36.833 22.37 59.354 9.512 19.723 9.898 20.283 14.892 21.625 17.273 4.64 28.46 6.55 28.46 4.857zm-68.429-38.375c-4.016-9.729-9.313-23.914-11.77-31.523-2.457-7.61-5.275-14.146-6.262-14.525-2.042-.786-34.637 11.102-37.251 13.586-1.375 1.305.597 3.978 10 13.555 6.442 6.561 16.023 15.406 21.293 19.655 10.994 8.865 30.195 20.234 30.851 18.267.243-.73-2.844-9.286-6.86-19.015zm135.762 8.493c7.125-3.24 9.1-5.838 8.057-10.592-1.004-4.57-7.8-11.493-13.33-13.579-5.797-2.186-13.918-.447-15.649 3.351-2.305 5.06-.098 15.157 4.267 19.522 4.449 4.448 8.958 4.8 16.655 1.298zm38.688-25.037c4.022-2.67 7.312-5.394 7.312-6.053 0-6.766-18.31-25.912-29.822-31.182-13.717-6.28-33.043-8.574-39.356-4.672-1.085.67-1.488 4.042-1.22 10.215l.398 9.214 12.667.774c6.967.425 14.383 1.486 16.48 2.356 7.455 3.093 15.069 9.722 19.426 16.912 2.431 4.01 4.956 7.291 5.61 7.291.656 0 4.482-2.185 8.505-4.855zm35.646-23.857c3.483-2.556 6.33-5.391 6.328-6.3-.007-2.397-4.769-9.843-11.13-17.406-13.368-15.894-33.974-28.953-54.198-34.35-12.148-3.24-33.832-4.762-39-2.735-3.43 1.344-3.667 1.952-3.667 9.392 0 4.375.643 8.351 1.43 8.837.785.486 8.135 1.03 16.333 1.21 12.154.268 16.871.999 25.57 3.964 19.545 6.662 37.104 20.656 46.44 37.012 1.592 2.787 3.494 5.058 4.227 5.045.733-.012 4.183-2.114 7.667-4.67zm-256.334-15.273c9.9-3.736 19.426-7.39 21.17-8.119 3.538-1.48 3.549-.794-.369-23.229-2.864-16.409-4.777-34.266-4.79-44.733-.007-5-.695-9.418-1.61-10.334-2.526-2.525-64.202-2.25-66.315.297-3.35 4.037 4.352 41.599 12.679 61.832 4.492 10.917 12.587 26.778 15.667 30.697 1.593 2.028.203 2.406 23.568-6.41zm69.802-19.204c10.892-1.918 20.385-3.847 21.097-4.287.712-.44 3.286-5.17 5.719-10.509 5.533-12.142 16.18-28.822 26.29-41.192 4.265-5.22 7.556-10.09 7.313-10.823-.603-1.818-94.237-2.517-96.037-.717-2.428 2.429.464 34.668 5.267 58.717 2.77 13.874 2.696 13.733 6.898 12.965 2.008-.367 12.562-2.237 23.453-4.154zm176.198-40.969c3.3-.913 7.692-3.835 11.516-7.659 3.825-3.824 6.746-8.217 7.66-11.516.842-3.042 1.48-16.342 1.484-30.953.008-28.96-.212-28.38 10.762-28.38 6.78 0 12.78 3.464 19.199 11.083 3.923 4.658 4.936 5.252 6.11 3.583 1.578-2.242.787-13.81-1.496-21.873-.87-3.075-4.236-8.126-8.223-12.342-5.527-5.844-8.305-7.616-15.354-9.793-9.647-2.98-20.306-3.476-22.724-1.058-1.142 1.142-1.6 9.54-1.6 29.333 0 16.073-.518 27.733-1.232 27.733-.677 0-4.127-.666-7.667-1.48-8.597-1.977-16.297.159-23.263 6.452-8.884 8.025-11.9 16.897-9.18 27 2.776 10.308 15.96 21.103 26.008 21.296 1.467.028 5.067-.614 8-1.426zm-231.6-46.775c.96-.96 1.605-5.629 1.611-11.667.014-11.8 1.82-28.99 4.91-46.733 3.542-20.328 4.777-18.09-13.587-24.63-8.8-3.134-18.904-6.823-22.453-8.2l-6.452-2.5-2.7 3.332c-3.492 4.31-12.564 22.366-16.532 32.902-7.329 19.464-14.001 53.717-11.136 57.17 2.136 2.573 63.789 2.876 66.34.326zm116 0c1.142-1.142 1.6-9.52 1.6-29.238 0-32.306.178-31.829-11.863-31.829-16.146 0-47.826-4.292-74.998-10.162-3.338-.721-3.61-.384-5.034 6.253-4.995 23.294-8.874 62.042-6.497 64.906 1.957 2.36 94.436 2.426 96.792.07zm31.037-10.733c9.424-12.487 22.091-37.462 23.405-46.146l.879-5.812-17.194.967c-9.456.532-17.943 1.57-18.86 2.309-1.239.997-1.667 8.602-1.667 29.623 0 15.554.4 28.68.89 29.17 2.223 2.224 4.811.138 12.547-10.111zm-30.246-69.776c.445-1.16.81-23.887.81-50.503 0-40.957-.302-48.645-1.961-50.022-3.72-3.087-43.887 4.282-49.136 9.014-7.789 7.022-36.571 76.765-33.639 81.51 1.008 1.63 20.667 6.102 38.069 8.659 20.203 2.968 20.863 3.032 33.524 3.251 9.402.163 11.673-.188 12.333-1.909zm44.143.662c6.6-.792 12.86-2.272 13.911-3.289 1.63-1.576 1.67-3.93.272-15.952-2.9-24.956-12.22-50.309-26.253-71.418-6.823-10.263-10.316-13.007-13.349-10.49-1.6 1.328-1.915 9.617-1.915 50.493 0 36.258.414 49.317 1.6 50.503 1.98 1.98 10.102 2.028 25.734.153zM236.369 215.91c3.423-10.316 8.716-24.44 11.763-31.387 3.046-6.947 5.165-13.003 4.709-13.46-3.807-3.807-48.805 31.24-59.633 46.446l-2.756 3.87 5.107 2.177c10.679 4.55 29.22 10.98 31.848 11.044 2.353.057 3.618-2.58 8.962-18.69zM112.737 441.25c-11.533-1.93-25.704-9.97-36.07-20.467-10.89-11.026-17.97-22.548-23.01-37.45-3.384-10.008-3.605-12.106-3.572-34 .035-23.05.089-23.479 4.44-35.333 5.149-14.032 16.67-32.141 24.382-38.324 12.488-10.012 14.029-12.07 19.13-25.552 14.661-38.744 45.807-85.78 74.221-112.088 54.28-50.255 121.48-74.135 189.904-67.484 47.265 4.594 89.953 22.519 130.39 54.75 35.83 28.56 68.84 74.676 88.306 123.365 6.828 17.078 7.048 17.421 14.972 23.333 13.304 9.925 23.98 25.897 30.301 45.333 3.354 10.314 3.694 13.192 3.777 32 .08 18.097-.296 21.91-3.03 30.667-6.668 21.353-18.887 39.144-34.06 49.59-12.153 8.367-22.414 11.737-38.68 12.702l-13.194.784.756-3.205c.416-1.762 2.87-8.304 5.456-14.538 19.747-47.617 20.748-104.956 2.733-156.565-1.772-5.078-3.222-9.728-3.222-10.334 0-.605 2.719-1.1 6.042-1.1 3.98 0 6.288-.645 6.766-1.888.807-2.103-13.25-30.985-22.118-45.446-13.778-22.467-40.806-52.709-63.357-70.892-24.523-19.772-53.856-34.198-85.01-41.805-38.5-9.401-69.828-8.442-111.114 3.403-13.75 3.945-42.54 17.494-55.954 26.333-29.26 19.282-61.985 53.495-80.516 84.174-9.645 15.968-21.866 41.664-20.951 44.05.529 1.377 2.519 2.07 5.948 2.07 2.834 0 5.482.33 5.885.733.403.403-1.237 6.553-3.645 13.666-9.05 26.743-13.575 57.57-12.074 82.268 1.524 25.066 9.048 57.164 18.161 77.475 2.165 4.825 3.937 9.318 3.937 9.983 0 1.46-16.759 1.326-25.93-.209z" transform="translate(1.529 32.204)"/><path style="fill:#6b6b6b;stroke-width:1.33333" d="M322.224 547.986c-35.963-3.4-72.069-16.782-101.854-37.748-13.436-9.457-36.906-32.356-45.703-44.59-29.25-40.676-43.042-85.488-40.927-132.981.985-22.12 3.733-37.413 10.207-56.807 10.821-32.416 25.77-56.417 50.631-81.29 18.93-18.94 35.058-30.462 57.46-41.052 27.806-13.145 50.074-18.552 81.295-19.74 48.25-1.836 93.35 12.019 132 40.55 14.267 10.53 36.593 33.619 46.36 47.941 27.41 40.198 40.53 88.819 36.402 134.907-2.675 29.871-8.53 50.83-21.464 76.824-29.44 59.173-85.598 100.87-150.631 111.846-15.11 2.55-39.276 3.512-53.776 2.14zm-5.918-15.403c.413-.413-3.055-6.443-7.706-13.4-14.764-22.082-20.6-41.707-20.6-69.27 0-16.309-.049-16.58-3-16.566-5.077.024-34.613 6.4-35.98 7.766-1.586 1.586 8.479 31.836 17.06 51.273 9.4 21.295 15.548 32.104 19.259 33.863 1.836.87 9.036 2.778 16 4.239 15.13 3.174 14.04 3.022 14.967 2.095zM256 512.443c0-.49-3.227-8.44-7.172-17.666-3.945-9.228-9.389-23.677-12.098-32.11-2.71-8.434-5.41-15.83-6-16.438-1.544-1.59-39.312 12.857-39.766 15.21-.455 2.363 17.598 21.001 30.215 31.196C235.997 504.607 256 515.986 256 512.443zm130.333-11.99c5.664-3.23 6.216-4.115 5.698-9.12-.394-3.8-6.16-10.987-10.7-13.334-4.43-2.29-11.596-2.593-16.578-.699-3.057 1.163-3.42 2.026-3.42 8.132 0 8.815 3.29 15.723 8.562 17.977 4.894 2.093 8.825 1.386 16.438-2.956zm36.018-23.822c4.039-2.72 6.982-5.701 6.982-7.072 0-7.53-16.42-24.412-30.091-30.936-10.241-4.888-26.743-7.651-34.575-5.79l-5.334 1.267v21.233l8.881-.462c17.076-.89 32.867 7.145 39.826 20.264 1.809 3.409 4.198 6.198 5.309 6.198 1.11 0 5.162-2.116 9.002-4.702zm35.08-23.36c3.483-2.235 6.651-4.895 7.041-5.912 1.061-2.764-8.598-16.855-17.694-25.81-20.372-20.059-47.002-30.912-75.722-30.862-6.447.01-12.502.515-13.455 1.12-1.217.771-1.614 3.843-1.333 10.312l.399 9.214 8.496-.4c11.231-.528 26.831 1.925 37.318 5.87 16.806 6.32 33.975 20.4 42.394 34.765 1.858 3.17 4.019 5.765 4.802 5.765.782 0 4.272-1.828 7.754-4.063zM186.4 443.48c1.98-1.02 11.4-4.668 20.933-8.107 9.534-3.44 17.793-6.694 18.354-7.234.561-.54-.125-6.642-1.524-13.56-3.492-17.261-5.519-32.622-6.59-49.94l-.906-14.64h-68l.363 9.993c.77 21.197 10.022 51.524 22.679 74.34 6.485 11.692 7.96 12.611 14.69 9.147zm66.74-21.413c4.14-1.063 13.527-2.892 20.86-4.065 7.333-1.173 14.695-2.418 16.36-2.767 2.273-.476 4.31-3.413 8.193-11.818 6.483-14.034 15.312-27.763 26.475-41.167 5.482-6.584 8.207-10.883 7.406-11.684-.768-.768-20.42-1.13-49.85-.917L234 350l.404 10c.725 17.962 6.676 59.02 9.129 62.989.82 1.328.864 1.324 9.608-.921zm197.236-45.472c6.574-2.746 12.07-8.06 15.096-14.596 2.15-4.643 2.473-8.92 2.499-33.033l.029-27.7 3.42-1.3c8.941-3.4 19.841.976 26.55 10.657 2.08 3.002 4.439 5.232 5.24 4.956 2.393-.826 1.67-19.56-1.028-26.624-3.195-8.364-13.08-17.158-22.684-20.179-7.764-2.442-20.44-3.334-23.193-1.632-1.213.75-1.638 8.468-1.638 29.756v28.743l-3-.92c-6.39-1.962-15.571-2.296-20.293-.738-10.832 3.575-19.287 15.11-19.345 26.39-.1 19.657 20.439 33.7 38.347 26.22zm-232.81-61.537c.95-17.183 2.558-30.024 6.007-47.99 1.154-6.013 1.765-11.8 1.358-12.86-.407-1.06-4.833-3.264-9.835-4.897-5.003-1.634-14.97-5.351-22.147-8.262-9.577-3.882-13.508-4.913-14.765-3.87-2.692 2.235-14.882 26.475-18.686 37.156-6.759 18.983-13.016 50.45-11.05 55.574.727 1.894 4.628 2.096 34.519 1.78l33.7-.357zm115.1-14.392V270l-15.333-.936c-19.928-1.216-32.542-2.883-55.038-7.27-11.149-2.174-18.839-3.1-19.558-2.355-2.966 3.07-10.852 67.806-8.687 71.309.493.797 19.372 1.152 49.705.935l48.912-.35zM362.473 321c13.414-17.935 28.23-49.747 24.661-52.95-.623-.56-9.233-.35-19.133.466L350 270l-.36 29.302c-.198 16.116-.067 30.066.291 31 1.404 3.659 4.645 1.255 12.541-9.302zm-29.456-120.815-.35-51.518-10.297.314c-10.8.33-31.922 4.38-38.088 7.305-5.981 2.837-22.933 38.077-32.135 66.802-5.39 16.83-5.35 17.774.854 19.558 16.48 4.739 72.425 11.555 78.682 9.586 1.324-.416 1.608-11.504 1.334-52.047zm53.65 49.4c4.11-.892 4.721-1.564 5.117-5.632.845-8.687-2.645-29.942-7.144-43.515-5.41-16.323-10.508-26.773-20.253-41.514-6.437-9.736-7.75-11.026-10.854-10.666l-3.532.409-.35 49.995c-.192 27.497-.026 50.839.37 51.87.589 1.535 3.544 1.71 16.35.97 8.596-.497 17.73-1.36 20.297-1.917zm-156.434-15.252c.581-.916 3.568-9.27 6.637-18.563 3.07-9.293 8.37-23.302 11.78-31.132 3.408-7.83 5.86-14.574 5.447-14.987-1.216-1.215-7.233 1.988-21.43 11.405-13.892 9.217-42 35.52-42 39.304 0 1.125 1.65 2.669 3.667 3.43 11.442 4.318 33.134 12.082 33.922 12.141.506.038 1.396-.681 1.977-1.598zM114.667 441.181c-11.83-1.894-27.604-10.46-37.452-20.338-19.896-19.957-28.84-44.669-27.57-76.176.538-13.382 1.34-18.061 4.895-28.595 6.676-19.78 16.99-34.697 31.345-45.337 6.204-4.598 7.17-6.08 11.335-17.403 2.505-6.807 8.528-20.252 13.385-29.877C179.062 87.796 321.032 33.205 444.667 95c59.958 29.969 108.54 85.42 136.59 155.906 6.02 15.13 6.424 15.74 14.137 21.428 12.54 9.247 23.304 24.783 29.219 42.173 12.264 36.058 4.555 77.159-19.369 103.268-14.3 15.607-29.974 23.064-51.438 24.474-8.068.53-12.473.342-12.473-.531 0-.743 1.737-5.183 3.86-9.868 20.943-46.216 23.596-108.192 6.782-158.38-5.329-15.905-5.3-16.138 2.025-16.138 8.07 0 7.925-1.595-1.926-21.292-15.216-30.427-28.898-49.991-50.716-72.526-36.092-37.277-74.222-58.958-121.358-69.006-20.408-4.35-59.82-4.366-80-.032-75.563 16.23-136.834 67.155-174.138 144.733-4.069 8.461-7.017 16-6.551 16.754.465.753 3.511 1.37 6.768 1.37 3.517 0 5.921.612 5.921 1.508 0 .83-1.826 6.826-4.057 13.325-17.311 50.417-14.973 111.486 6.091 159.116 4.835 10.933 4.65 11.411-4.367 11.228-4.217-.086-10.967-.684-15-1.33z" transform="translate(1.529 32.204)"/><path style="fill:#515151;stroke-width:1.33333" d="M324.418 547.724c-14.198-1.092-39.503-6.503-53.032-11.34-14.5-5.183-39.777-18.523-51.33-27.089-40.616-30.115-68.758-71.843-79.948-118.543-7.024-29.316-8.297-48.927-4.855-74.781 4.435-33.304 15.46-62.816 33.862-90.638 9.233-13.96 34.374-40.096 49.476-51.434 22.11-16.601 53.123-30.147 84.076-36.722 20.401-4.335 54.609-4.394 75.674-.13 35.242 7.131 65.367 20.719 90.37 40.76 12.965 10.392 32.841 30.951 41.068 42.48 27.518 38.564 42.361 91.161 38.235 135.494-2.71 29.128-8.954 51.709-21.26 76.886-10.006 20.471-21.347 36.318-38.087 53.22-28.146 28.418-57.994 45.888-94.667 55.408-24.842 6.449-45.054 8.316-69.582 6.43zm-7.085-15.72c0-.732-2.743-5.056-6.096-9.61-7.89-10.719-15.786-27.124-19.476-40.466-2.357-8.523-2.946-14.31-3.012-29.595l-.082-19-4-.012c-5.324-.016-32.98 5.225-35.373 6.703-1.574.973-1.616 2.174-.254 7.265 3.6 13.464 14.354 41.085 22.986 59.044 10.271 21.37 9.065 20.32 27.974 24.38 13.172 2.828 17.333 3.138 17.333 1.291zM256 512.444c0-1.224-3.24-9.787-7.2-19.031-3.959-9.244-9.414-23.844-12.123-32.444-3.326-10.56-5.556-15.636-6.869-15.636-1.07 0-10.314 3.117-20.543 6.927-14.7 5.475-18.598 7.443-18.598 9.39 0 6.746 30.72 33.959 53.173 47.102 11.264 6.594 12.16 6.866 12.16 3.691zm130.92-11.786c6.876-4.551 7.452-6.614 3.779-13.54-3.966-7.474-9.846-11.118-17.944-11.118-9.842 0-11.423 1.437-11.417 10.38.011 17.105 11.565 23.553 25.581 14.278zm35.32-23.481c4.635-3.02 8.427-6.265 8.427-7.213 0-.947-2.55-5.516-5.667-10.153-8.999-13.39-24.745-23.706-40.688-26.659-8.548-1.583-23.704-1.04-25.426.911-.616.699-.85 5.98-.518 11.738l.604 10.468 7.282-.91c17.37-2.17 34.735 7.078 43.35 23.087 1.25 2.322 2.708 4.22 3.241 4.22.533 0 4.76-2.47 9.395-5.49zm34.853-23.263c3.88-2.614 7.39-5.62 7.796-6.68 1.014-2.641-8.928-17.559-17.245-25.876-13.553-13.552-34.25-24.84-52.733-28.756-9.32-1.976-35.808-2.606-38.43-.915-1.014.655-1.289 4.154-.827 10.55l.69 9.571 12.828-.112c25.352-.22 44.68 7.515 62.325 24.941 5.956 5.883 12.118 13.246 13.693 16.363 1.575 3.117 3.31 5.667 3.855 5.667.545 0 4.166-2.139 8.048-4.753zM194.202 440.87c7.956-3.188 18.515-7.137 23.465-8.775 10.239-3.39 10.052-2.917 6.958-17.624-3.349-15.922-6.006-35.54-6.878-50.793l-.821-14.345h-69.32l.859 11.167c1.634 21.26 7.698 43.356 17.61 64.167 4.388 9.213 12 22 13.098 22 .31 0 7.073-2.609 15.029-5.797zm61.606-18.795c4.139-1.059 13.225-2.868 20.192-4.02 6.967-1.153 13.921-2.374 15.455-2.714 1.94-.43 3.928-3.302 6.537-9.439 5.503-12.948 14.88-27.916 25.75-41.106 5.275-6.401 9.591-12.499 9.591-13.55 0-1.627-7.467-1.913-50-1.913-27.5 0-50 .513-50 1.14 0 12.413 4.98 53.543 8.136 67.194 1.675 7.246 2.387 7.465 14.339 4.408zm200.366-48.115c3.091-2.178 7.017-6.604 8.724-9.836 2.947-5.582 3.102-7.207 3.102-32.421 0-14.654.581-27.63 1.297-28.969.714-1.333 3.415-2.82 6.003-3.306 6.894-1.294 14.94 2.767 21.862 11.034 3.165 3.78 6.299 6.538 6.963 6.127 1.91-1.18 1.407-18.107-.753-25.347-2.535-8.497-8.062-15.075-16.54-19.69-7.511-4.088-21.154-6.826-27.806-5.58l-4.307.806-.36 28.26-.359 28.26-12.213.017c-11.403.017-12.59.283-17.897 4.018-8.557 6.02-12.209 13.861-11.619 24.943.583 10.94 5.233 18.497 14.396 23.39 5.01 2.677 7.476 3.127 14.942 2.73 7.31-.39 9.97-1.2 14.565-4.436zm-238.445-57.627c.832-16.22 3.36-35.322 6.903-52.167 1.126-5.354 1.738-10.234 1.36-10.845-.377-.611-5.63-2.75-11.673-4.753-6.042-2.003-15.767-5.65-21.612-8.105-5.844-2.454-11.35-4.463-12.236-4.463-4.38 0-16.672 23.453-23.72 45.255-4.84 14.973-8.736 35.053-8.746 45.078L148 332H216.927zM333.025 301l-.358-31-14.667-.993c-19.29-1.307-40.46-4.352-59.163-8.51-8.42-1.872-15.671-2.863-16.306-2.228-2.557 2.557-9.198 53.573-9.198 70.664V332h100.049zm26.02 25.333C373.807 307.971 388 280.174 388 269.62c0-3.157-.266-3.262-6.333-2.482-3.484.448-12.184 1.214-19.334 1.702l-13 .888v31.136c0 29.889.104 31.137 2.578 31.137 1.428 0 4.608-2.526 7.133-5.667zm-26.03-126.2.35-52.535-11.78.837c-13.422.952-28.092 3.789-36.036 6.968-4.883 1.953-6.085 3.458-12.026 15.05-3.63 7.084-9.025 18.72-11.987 25.856-5.186 12.493-14.87 40.905-14.87 43.63 0 4.211 63.73 14.068 83.334 12.888 2.613-.157 2.674-1.226 3.016-52.694zm55.318 49.69c3.48-.76 3.667-1.19 3.667-8.433 0-27.297-10.21-58.007-27.825-83.696-5.241-7.644-6.853-9.091-10.516-9.445l-4.326-.418v104.58l17.667-.894c9.717-.492 19.317-1.254 21.333-1.695zm-151.63-31.973c3.122-9.616 8.442-23.833 11.82-31.592 5.839-13.408 7.236-18.258 5.26-18.258-3.297 0-30.06 18.001-41.855 28.154-10.842 9.331-22.995 23.454-21.82 25.356.945 1.527 2.903 2.358 21.892 9.29 7.7 2.812 15.13 4.982 16.512 4.823 1.979-.228 3.72-4.005 8.19-17.773zM122 441.832c-1.467-.289-5.967-1.192-10-2.007-20.226-4.086-40.598-21.12-51.352-42.936-14.969-30.365-14.82-64.547.415-95.556 3.633-7.394 7.696-12.783 15.592-20.683 5.873-5.876 11.932-11.638 13.465-12.804 1.532-1.166 5.085-8.059 7.896-15.317 18.926-48.875 50.295-93 89.317-125.639 48.126-40.25 112.479-61.711 169-56.358 33.233 3.148 58.61 10.47 89 25.681 25.364 12.694 43.766 26.2 66.01 48.444 30.823 30.825 53.078 65.053 69.988 107.646 5.274 13.283 6.186 14.685 12.806 19.684 15.137 11.428 27.06 30.148 32.705 51.346 4.06 15.25 4.062 37.347.003 52.509-8.396 31.364-29.856 55.66-55.924 63.316-9.733 2.858-26.29 4.276-27.477 2.354-.507-.82 1.176-6.745 3.739-13.167 11.706-29.34 15.802-51.622 15.747-85.678-.044-27.519-2.887-46.53-10.253-68.545-2.62-7.83-4.408-14.811-3.975-15.513.434-.701 3.454-1.276 6.71-1.276 4.26 0 5.922-.537 5.922-1.916 0-1.054-4.157-10.222-9.238-20.373-26.336-52.62-61.14-90.303-108.382-117.348C409.351 98.024 372.58 89.43 330 91.116c-40.1 1.59-74.87 13.051-110 36.258-39.859 26.332-71.273 63.22-94.212 110.626-8.664 17.906-8.82 19.326-2.121 19.354 8.515.035 8.604.545 3.022 17.325-7.983 23.993-9.92 37.54-9.916 69.321.004 22.764.493 29.786 2.926 42.004 2.878 14.447 9.295 35.136 14.822 47.783 1.552 3.55 2.484 7 2.071 7.667-.735 1.19-9.337 1.413-14.592.378z" transform="translate(1.529 32.204)"/><path style="fill:#2c2c2c;stroke-width:1.33333" d="M322.224 546.653c-48.235-4.561-93.134-25.555-126.888-59.33-33.584-33.605-53.857-75.703-59.408-123.362-1.927-16.536-1.018-43.37 2.052-60.628 4.616-25.943 16.645-55.05 32.812-79.396 11.467-17.269 36.33-42.006 53.912-53.638 34.19-22.621 68.24-33.65 108.63-35.188 48.25-1.836 93.366 12.024 132 40.552 14.197 10.484 35.234 32.263 45.025 46.613 27.403 40.164 40.53 88.81 36.403 134.9-2.675 29.861-8.527 50.815-21.458 76.824-29.137 58.604-84.487 99.573-149.304 110.512-15.11 2.55-39.276 3.512-53.776 2.141zm-4.301-13.195c.41-.664-3.122-6.994-7.85-14.066-14.917-22.31-20.74-41.83-20.74-69.521 0-14.153-.323-16.746-2.179-17.458-3.083-1.183-36.429 5.624-38.706 7.9-1.625 1.626-1.399 3.437 1.64 13.12 5.428 17.304 14.784 40.308 23.363 57.447 8.796 17.572 7.51 16.632 28.96 21.155 13.81 2.913 14.55 2.98 15.512 1.423zm-60.59-20.348c0-.856-3.227-9.106-7.172-18.333-3.944-9.228-9.385-23.677-12.091-32.11-2.706-8.434-5.698-16.132-6.649-17.107-1.435-1.47-4.885-.594-20.242 5.144-19.158 7.158-21.846 8.536-21.846 11.195 0 2.244 20.45 22.862 31.652 31.913 11.156 9.013 30.402 20.855 33.894 20.855 1.35 0 2.454-.7 2.454-1.557zm129.74-11.747c5.417-3.436 6.26-4.57 6.26-8.427 0-5.346-7.071-14.342-13.302-16.923-4.661-1.93-15.028-1.172-18.03 1.32-2.711 2.25-2.61 13.647.173 19.512 4.548 9.584 14.16 11.328 24.898 4.518zm35.809-23.696c5.3-3.415 7.765-5.869 7.773-7.74.034-7.864-17.252-25.879-31.234-32.552-10.449-4.987-25.654-7.562-34.807-5.895L358 432.685l-.392 10.45c-.227 6.057.208 11.173 1.034 12.169 1.005 1.21 3.899 1.518 9.821 1.043 16.386-1.315 30.968 5.96 38.423 19.17 2.22 3.932 4.98 7.15 6.135 7.15 1.154 0 5.592-2.25 9.86-5zm35.47-23.702c8.508-5.73 8.778-7.999 2.131-17.87-19.235-28.562-53.944-46.762-89.181-46.762-15.8 0-16.635.597-16.635 11.884 0 11.392 1.22 12.656 11.037 11.429 28.364-3.544 65.401 15.439 78.575 40.271 1.677 3.162 3.959 5.75 5.07 5.75 1.11 0 5.162-2.116 9.002-4.702zM186.4 444.813c1.98-1.019 11.4-4.663 20.933-8.099 9.534-3.435 18.1-6.988 19.035-7.895 1.378-1.337 1.307-3.522-.375-11.517-3.436-16.336-6.046-35.76-6.891-51.29-.44-8.073-1.39-15.429-2.114-16.345-.988-1.253-9.506-1.667-34.321-1.667-27.49 0-33.28.33-34.642 1.97-1.17 1.41-1.36 4.711-.666 11.614 2.432 24.221 12.3 54.677 24.436 75.416 6.045 10.331 7.844 11.293 14.605 7.813zm69.828-22.056c6.108-1.416 15.905-3.261 21.772-4.099 15.66-2.237 15.982-2.46 21.857-15.178 6.504-14.077 15.326-27.805 26.46-41.176 7.14-8.574 8.346-10.702 6.992-12.333-1.388-1.673-8.949-1.971-49.976-1.971-37.136 0-48.662.388-49.728 1.673-3.228 3.89 4.954 68.681 9.344 73.994 1.683 2.037.115 2.144 13.28-.91zm194.148-44.825c6.555-2.733 13.366-9.34 16.424-15.932 2.15-4.632 2.479-8.875 2.504-32.286.028-25.267.19-27.04 2.608-28.334 7.294-3.903 18.558.595 25.42 10.152 4.749 6.611 7.561 7.353 8.822 2.328 1.269-5.054-.334-19.257-2.896-25.659-5.09-12.72-21.825-22.852-38.387-23.24-11.771-.275-11.538-.91-11.538 31.345 0 26.128-.154 27.915-2.333 27.009-4.628-1.926-14.792-2.257-19.685-.642-6.589 2.174-15.133 10.013-18.16 16.66-10.303 22.622 14.317 48.153 37.221 38.6zm-233.31-46.199c.94-.94 1.605-5.48 1.612-11 .013-11.32 1.901-28.885 4.952-46.066 1.237-6.967 2.277-14.98 2.31-17.807l.06-5.14-16-5.63c-8.8-3.096-19.164-7.013-23.032-8.704-6.553-2.866-7.197-2.926-9.457-.88-4.148 3.754-15.852 27.627-20.7 42.226-7.614 22.92-11.955 48.812-8.819 52.592 1.404 1.69 6.881 2.01 34.571 2.01 23.814 0 33.346-.443 34.504-1.6zm116 0c2.269-2.268 2.269-59.865 0-62.133-.88-.88-4.975-1.6-9.101-1.6-12.411 0-35.542-2.67-54.632-6.307-26.12-4.975-27.591-5.087-28.51-2.154-4.333 13.82-9.964 68.813-7.366 71.943 2.095 2.524 97.097 2.764 99.61.251zm30.205-10.066c9.984-13.264 20.737-33.28 24.076-44.815 3.27-11.299 2.832-11.526-18.68-9.676-9.534.82-18.084 1.976-19 2.57-2.337 1.511-2.399 59.655-.067 61.987 2.996 2.996 4.885 1.605 13.67-10.066zm-28.922-120.49c.308-45.53.105-51.693-1.753-53.236-4.23-3.51-45.79 3.784-51.647 9.064-7.392 6.666-34.282 70.693-34.282 81.63 0 3.577 2.802 4.799 18.198 7.936 21.687 4.42 40.24 6.544 55.135 6.313l14-.217zm44.31 50.745c6.19-.776 12.025-2.05 12.965-2.83 3.854-3.199.255-32.278-6.324-51.092-8.003-22.888-25.237-51.333-31.1-51.333-1.65 0-3.72.72-4.6 1.6-2.296 2.296-2.296 101.17 0 103.466 1.98 1.981 14.137 2.06 29.059.189zm-148.428-15.625c.86-.547 4.262-9.192 7.559-19.21 3.297-10.019 8.743-24.528 12.102-32.243 3.36-7.715 6.108-14.661 6.108-15.436 0-3.042-5.44-1.085-16.784 6.036-6.521 4.094-15.92 10.769-20.886 14.832-11.177 9.144-28.997 27.93-28.997 30.57 0 2.202 3.907 4.041 24 11.295 15.89 5.737 14.825 5.475 16.898 4.156zm-115.564 203.55c-11.47-1.836-27.462-10.4-36.705-19.658-19.306-19.335-28.246-44.363-26.977-75.522 1.313-32.243 13.69-56.528 38.47-75.476 3.567-2.728 5.525-6.14 9.099-15.855 6.48-17.616 20.534-44.843 32.361-62.693C204.846 79.07 333.035 40.538 444.667 96.335c60.712 30.345 111.729 89.75 137.505 160.114 3.57 9.742 4.374 10.839 11.916 16.225 34.795 24.853 45.462 83.134 23.087 126.141-13.34 25.643-34.868 40.104-62.633 42.075-6.532.463-11.875.536-11.875.16 0-.374 1.737-4.514 3.86-9.199 20.942-46.216 23.596-108.192 6.781-158.38-2.186-6.525-3.975-12.491-3.975-13.258 0-.766 2.55-1.578 5.667-1.803 8.113-.587 7.925-3.338-1.513-22.21-15.458-30.91-28.96-50.156-51.458-73.35C465.124 124.805 427.44 103.288 380 93.176c-20.408-4.35-59.82-4.366-80-.032-75.46 16.208-137.51 67.685-175.037 145.213-8.865 18.315-8.813 20.31.534 20.31 2.843 0 5.17.378 5.17.841 0 .463-1.826 6.16-4.058 12.66-17.31 50.416-14.972 111.485 6.092 159.115 1.814 4.103 3.299 8.043 3.299 8.755 0 1.546-11.108 1.447-21.333-.19z" transform="translate(1.529 32.204)"/><path style="fill:#010101;stroke-width:1.33333" d="M320.89 545.25c-14.704-1.304-35.738-5.753-48.115-10.179-14.226-5.086-39.172-18.18-52.332-27.471-45.248-31.942-76.573-85.532-83.18-142.306-1.957-16.806-1.006-46.3 2.04-63.294 6.88-38.372 27.452-76.922 56.614-106.083 28.569-28.57 63.673-47.675 103.165-56.148 18.736-4.02 60.356-4.333 80.251-.603 52.652 9.871 100.689 40.828 130.204 83.908 27.522 40.17 40.089 87.3 35.931 134.753-2.527 28.844-7.358 47.06-18.954 71.469-20.639 43.445-53.773 76.58-97.218 97.218-23.773 11.293-42.742 16.422-69.496 18.79-16.748 1.483-21.664 1.476-38.91-.053zm-2.999-10.06c1.16-.444 2.109-1.29 2.109-1.877s-3.838-6.807-8.528-13.823c-15.764-23.578-20.805-40.43-20.805-69.552 0-21.429.827-20.712-19.383-16.79-23.182 4.498-24.617 5.05-24.617 9.47 0 8.306 17.627 54 29.044 75.288 5.616 10.47 6.423 10.92 27.622 15.38 6.6 1.389 12.101 2.567 12.225 2.62.123.051 1.173-.27 2.333-.715zm-59.224-21.172c0-1.09-3.544-10.266-7.875-20.391-4.33-10.125-10.086-25.433-12.79-34.018-4.662-14.802-5.1-15.607-8.459-15.573-1.949.02-11.943 3.208-22.21 7.085-14.538 5.491-18.752 7.628-19.053 9.662-.262 1.775 3.371 6.454 11.334 14.595 14.516 14.841 27.535 25.43 41.824 34.019 11.104 6.673 17.229 8.316 17.229 4.621zm129.81-12.263c8.24-5.792 8.243-11.332.009-20.446-7.684-8.504-20.752-10.377-27.228-3.901-5.49 5.49-1.075 23.594 6.741 27.643 5.065 2.623 14.132 1.163 20.477-3.296zm35.097-23.245c6.103-3.977 8.426-6.294 8.426-8.406 0-7.823-18.162-27.148-31.398-33.41-10.127-4.79-24.93-7.793-33.166-6.725-10.966 1.421-11.439 1.99-11.416 13.745.011 5.657.576 11.164 1.255 12.238.942 1.488 3.598 1.863 11.186 1.58 5.474-.203 12.295.261 15.158 1.032 8.236 2.218 17.388 9.053 21.306 15.914 6.681 11.699 6.831 11.731 18.649 4.032zm35.198-23.552c4.57-3.189 7.39-6.174 7.67-8.12 1.01-7.042-19.376-30.462-35.988-41.342-20.492-13.423-57.235-21.5-72.922-16.032-4.194 1.462-4.199 1.473-4.199 11.238 0 12.899 1.335 14.31 12.454 13.177 10.332-1.054 27.213 1.443 37.248 5.509 10.4 4.213 25.155 14.2 31.062 21.023 2.662 3.074 6.636 8.739 8.832 12.589 2.405 4.218 4.911 7 6.304 7 1.271 0 5.564-2.269 9.54-5.042zm-263.237-12.754c7.956-3.188 18.463-7.12 23.35-8.737 4.886-1.618 9.182-3.717 9.546-4.667.364-.949-.205-5.863-1.265-10.919-3.44-16.414-5.95-35.543-6.776-51.662-.56-10.925-1.389-16.36-2.695-17.666-1.524-1.525-8.237-1.886-35.028-1.886-39.448 0-38.104-.485-36.693 13.226 1.34 13.015 5.754 32.456 10.303 45.365 7.35 20.861 19.07 42.742 22.896 42.742 1.044 0 8.407-2.608 16.362-5.796zM254 424.125c2.933-.752 12.533-2.543 21.333-3.98 8.8-1.439 16.954-2.986 18.12-3.44 1.165-.454 4.111-5.36 6.547-10.903 5.69-12.95 16.338-29.876 26.583-42.262 8.123-9.82 9.887-14.563 5.975-16.064-1.16-.445-23.618-.81-49.905-.81-40.4 0-48.1.306-49.767 1.972-2.23 2.229-2.033 7.917 1.22 35.362 2.566 21.64 6.438 40.017 8.737 41.46 1.003.63 2.724.895 3.824.589 1.1-.306 4.4-1.172 7.333-1.924zm195.499-44.849c3.209-1.131 8.154-4.281 10.99-7 8.84-8.476 9.431-10.933 10.178-42.276l.666-28 5.681-.41c7.467-.54 14.547 3.456 19.704 11.12 2.172 3.229 4.655 6.154 5.518 6.5 3.222 1.296 5.098-3.565 5.05-13.086-.065-13.128-3.227-21.524-10.972-29.131-8.39-8.242-17.088-11.96-29.729-12.71-15.058-.891-14.585-1.906-14.585 31.288 0 25.547-.156 27.318-2.333 26.44-5.357-2.16-12.368-2.214-18.598-.145-11.474 3.811-21.736 17.376-21.736 28.73 0 14.832 15.234 30.307 30.166 30.643 2.291.052 6.791-.831 10-1.963zm-231.594-46.705c1.538-1.538 2.098-4.815 2.106-12.333.013-12.059 1.826-29.275 4.941-46.905 1.23-6.966 2.27-14.753 2.31-17.303.068-4.443-.236-4.743-7.262-7.171-4.033-1.394-14.023-5.157-22.2-8.363-8.177-3.206-16.084-5.83-17.57-5.83-9.919 0-30.414 52.25-34.294 87.427-1.427 12.94-2.5 12.574 36.73 12.574 28.353 0 33.446-.303 35.239-2.096zm116 0c1.777-1.777 2.095-6.53 2.095-31.333 0-26.607-.22-29.459-2.452-31.69-1.998-1.998-5.514-2.62-19-3.361-19.738-1.085-29.208-2.335-53.587-7.073-12.132-2.357-18.82-3.121-19.693-2.25-2.711 2.712-7.631 34.2-9.895 63.331-.647 8.317-.399 10.589 1.346 12.333 1.884 1.884 7.909 2.139 50.614 2.139 42.292 0 48.744-.268 50.572-2.096zm23.75-2.238c6.585-7.029 16.885-22.262 22.313-33 5.779-11.43 10.96-27.1 9.886-29.899-1.09-2.843-2.927-3.104-13.854-1.97-5.5.57-13.407 1.075-17.571 1.12-12.009.131-11.762-.584-11.762 34.083 0 25.321.315 30.125 2.095 31.904 2.986 2.986 4.314 2.652 8.894-2.238zm-23.035-78.245c.88-1.647 1.38-20.66 1.38-52.572 0-58.808.986-55.011-13.91-53.563-20.102 1.954-38.76 7.046-43.09 11.757-7.95 8.654-33.667 71.452-33.667 82.214 0 2.028 1.606 3.116 6.93 4.697 16.56 4.918 49.47 9.711 68.023 9.908 11.522.122 13.106-.147 14.334-2.441zm42.748 1.194c6.214-.761 12.347-1.701 13.629-2.089 3.613-1.092 4.229-6.512 2.464-21.693-2.772-23.851-12.314-49.464-26.206-70.342-9.203-13.83-13.602-16.62-18.493-11.73-1.831 1.832-2.095 8.462-2.095 52.572s.264 50.74 2.095 52.571c2.5 2.5 12.062 2.738 28.606.711zM239.235 216c3.843-11.367 9.487-26.244 12.543-33.06 6.444-14.375 6.727-16.273 2.425-16.273-3.856 0-23.715 12.329-35.848 22.255-12.538 10.258-30.58 29.592-30.072 32.227.51 2.654 4.402 4.576 22.384 11.06 21.435 7.73 20.247 8.404 28.568-16.209zM113.516 438.5c-15.048-2.5-34.357-15.622-44.404-30.174-6.56-9.503-12.942-24.42-15.25-35.643-3.327-16.19-2.096-41.872 2.686-56.016 6.404-18.942 17.884-35.057 32.953-46.257 3.906-2.902 5.8-6.094 9.894-16.666 11.873-30.662 32.89-66.346 53.706-91.19 37.932-45.268 91.989-77.509 145.217-86.608 68.469-11.706 132.928 5.012 189.624 49.179 37.921 29.54 71.222 76.044 92.091 128.602 5.537 13.944 5.962 14.567 13.576 19.908 9.15 6.418 17.758 17.305 24.355 30.801 7.463 15.267 9.293 24.257 9.27 45.564-.022 22.204-1.886 30.35-10.978 47.975-13.858 26.863-37.553 41.982-65.85 42.017l-6.26.008 3.094-7c1.701-3.85 5.017-13 7.368-20.333 14.919-46.533 14.76-94.024-.47-139.488L549.726 260h4.362c6.358 0 8.58-1.224 8.58-4.726 0-4.577-17.108-37.945-27.156-52.965-12.538-18.742-22.258-30.17-41.087-48.309-32.52-31.326-63.868-49.135-104.617-59.435-39.405-9.96-76.982-8.24-117.947 5.397-61.148 20.355-115.495 70.757-147.405 136.705-9.538 19.71-9.36 23.333 1.143 23.333 3.255 0 3.897.456 3.284 2.333-12.416 37.999-14.743 50.895-14.736 81.667.005 18.847.588 26.282 3.032 38.667 2.912 14.754 10.668 41.076 14.144 48 .92 1.833 2.09 4.683 2.599 6.333.883 2.863.601 2.993-6.164 2.844-3.9-.086-10.308-.69-14.24-1.344z" transform="translate(1.529 32.204)"/></svg>