<?xml version="1.0" encoding="UTF-8" standalone="no"?>
<!-- Created with Inkscape (http://www.inkscape.org/) -->

<svg
   version="1.1"
   id="svg5619"
   width="682.66669"
   height="682.66669"
   viewBox="0 0 682.66669 682.66669"
   sodipodi:docname="radiodroid.svg"
   inkscape:version="1.1.2 (b8e25be833, 2022-02-05)"
   xmlns:inkscape="http://www.inkscape.org/namespaces/inkscape"
   xmlns:sodipodi="http://sodipodi.sourceforge.net/DTD/sodipodi-0.dtd"
   xmlns="http://www.w3.org/2000/svg"
   xmlns:svg="http://www.w3.org/2000/svg">
  <defs
     id="defs5623" />
  <sodipodi:namedview
     id="namedview5621"
     pagecolor="#ffffff"
     bordercolor="#666666"
     borderopacity="1.0"
     inkscape:pageshadow="2"
     inkscape:pageopacity="0.0"
     inkscape:pagecheckerboard="0"
     showgrid="false"
     inkscape:zoom="1.040039"
     inkscape:cx="200.47325"
     inkscape:cy="341.33334"
     inkscape:window-width="1280"
     inkscape:window-height="961"
     inkscape:window-x="-8"
     inkscape:window-y="-8"
     inkscape:window-maximized="1"
     inkscape:current-layer="g5625" />
  <g
     inkscape:groupmode="layer"
     inkscape:label="Image"
     id="g5625">
    <g
       id="g5745"
       transform="translate(1.5285274,32.203755)">
      <path
         style="fill:#d1d1d1;stroke-width:1.33333"
         d="m 323.55758,550.52063 c -35.53452,-2.9608 -74.66585,-17.30717 -103.93559,-38.10499 -13.05501,-9.27633 -37.77905,-33.50542 -47.21024,-46.26516 -28.34533,-38.34921 -43.58258,-87.56736 -41.32471,-133.4838 1.02906,-20.92716 3.80016,-36.02771 10.24619,-55.83426 11.21275,-34.45319 25.06436,-56.76579 51.89888,-83.60031 31.90374,-31.90373 63.84157,-49.21613 108.43586,-58.77933 18.39055,-3.94384 56.87538,-4.31465 74.99871,-0.72264 48.01236,9.51596 85.02082,29.71144 117.67514,64.21525 21.29266,22.49864 35.78541,46.76907 45.62019,76.39831 15.26913,46.00139 15.29665,87.90625 0.0879,133.87541 -17.93241,54.20153 -62.30605,102.66019 -114.68368,125.24141 -32.29608,13.92361 -67.88274,19.88687 -101.80863,17.06011 z m -11.55757,-21.61404 c 0,-0.23472 -3.26071,-5.38296 -7.24603,-11.44053 -13.03397,-19.81131 -19.87788,-43.87475 -19.17412,-67.41698 l 0.42015,-14.05469 -3.33333,0.10546 c -1.83334,0.058 -9.63334,1.40926 -17.33334,3.00282 l -14,2.89737 0.42816,3.94963 c 0.77832,7.17983 12.29934,37.06181 22.21986,57.63153 10.80402,22.40164 8.6601,20.35163 25.35198,24.24144 5.37079,1.25159 12.66667,1.87595 12.66667,1.08398 z M 246.1643,494.3296 c -3.75703,-8.9854 -8.93096,-23.07609 -11.49763,-31.31266 -2.56666,-8.23656 -5.26666,-14.96255 -6,-14.94662 -3.43593,0.0747 -34.66666,13.02207 -34.66666,14.3719 0,2.14658 16.90869,19.22154 27.55901,27.83001 6.87317,5.55547 29.53894,20.39445 31.15143,20.39445 0.15665,0 -2.78912,-7.35168 -6.54615,-16.33708 z m 137.67579,4.83372 c 6.3452,-3.16194 6.94679,-3.83618 6.17314,-6.91868 -2.28062,-9.08672 -9.53078,-14.04393 -19.49612,-13.33026 l -5.85043,0.41897 -0.40092,7.70165 c -0.3656,7.02334 -0.0517,8.05086 3.56411,11.66667 4.86309,4.86309 7.05108,4.92619 16.01022,0.46165 z m 40.52898,-35.47368 c -8.99526,-16.52725 -31.87267,-29.07451 -52.88438,-29.00476 -10.50346,0.0349 -10.87294,0.39 -10.37426,9.97111 l 0.44373,8.52557 6.58755,-0.7802 c 15.10762,-1.78928 32.92784,7.22911 41.48488,20.99451 l 4.00089,6.43609 7.17192,-4.76189 7.17192,-4.76188 z m 32.32144,-12.56184 c 2.92023,-1.94638 5.5324,-3.71929 5.80483,-3.93977 0.85178,-0.68939 -6.06268,-11.70744 -11.40178,-18.16847 -12.44885,-15.06484 -37.00563,-29.61853 -56.704,-33.60591 -9.19213,-1.86068 -34.41819,-2.93609 -35.83399,-1.52764 -0.30556,0.30398 -0.34645,3.96572 -0.0909,8.13723 l 0.46468,7.58455 6.90261,-0.86243 c 14.24336,-1.77959 38.45424,4.44111 52.69387,13.53907 9.51696,6.08056 20.1454,16.25781 26.27879,25.16321 2.73456,3.97047 5.33293,7.21904 5.77413,7.21904 0.44122,0 3.19148,-1.59249 6.11172,-3.53888 z M 208.66667,432.62087 c 8.06667,-2.79622 14.8648,-5.22794 15.10696,-5.40384 0.24216,-0.1759 -0.77642,-6.52168 -2.2635,-14.10175 -3.8559,-19.65449 -5.41516,-31.14848 -6.3925,-47.12165 l -0.8562,-13.99362 h -31.95402 -31.95404 l 0.94676,10.10334 c 2.15144,22.959 10.25338,49.1027 21.66102,69.89666 6.95588,12.67927 6.20972,12.2169 14.11374,8.74595 3.80881,-1.6726 13.52512,-5.32888 21.59178,-8.12509 z m 44.00001,-12.81794 c 2.93333,-0.83353 13.01514,-2.8165 22.40404,-4.40657 l 17.07072,-2.89105 4.31374,-9.91932 c 5.38263,-12.37714 14.65878,-26.82894 25.83688,-40.25264 l 8.60472,-10.33334 h -47.4943 -47.49433 l 0.67316,6.33334 c 0.37024,3.48333 1.02231,10.83333 1.44904,16.33333 1.548,19.95163 6.33286,46.67508 8.35438,46.65923 0.52173,-0.004 3.34861,-0.68943 6.28195,-1.52298 z m 199.05312,-46.3277 c 5.65874,-2.88811 8.38414,-5.68242 11.45276,-11.74234 1.78363,-3.5223 2.16079,-9.04964 2.16079,-31.66667 0,-30.71766 0.2782,-31.66369 9.83872,-33.45726 7.05808,-1.3241 13.94389,1.65678 21.31989,9.22945 l 6.6066,6.78275 -0.76661,-10.13632 c -1.51387,-20.0169 -11.04388,-29.93372 -32.01105,-33.31039 -13.7241,-2.2102 -12.98448,-3.79741 -13.00796,27.91541 -0.0107,15.16724 -0.57847,28.4592 -1.26051,29.53767 -1.03599,1.63812 -1.98088,1.69299 -5.74092,0.33333 -9.86392,-3.56684 -23.21446,-0.866 -29.15071,5.89727 -8.95709,10.20494 -8.4468,28.34643 1.03067,36.64167 7.80009,6.82711 20.57192,8.54659 29.52833,3.97543 z M 215.07023,314.33334 c 0.83632,-15.45917 3.41842,-34.9276 6.72386,-50.69654 1.03864,-4.95492 1.50986,-9.21968 1.04717,-9.47723 -0.46269,-0.25755 -5.94125,-2.14641 -12.17459,-4.19747 -6.23333,-2.05106 -15.46585,-5.4316 -20.51672,-7.51232 -5.05085,-2.08071 -9.66066,-3.78311 -10.24401,-3.78311 -2.09564,0 -18.58889,35.58483 -21.92016,47.29358 -3.45637,12.14851 -7.30399,33.03728 -7.31375,39.70643 l -0.005,3.66666 h 31.79604 31.79603 z m 115.59645,-13.46621 v -28.46621 l -15,-0.90187 c -21.17055,-1.27287 -56.29772,-6.80083 -69.16343,-10.88424 -1.84616,-0.58595 -2.55868,1.22752 -4.32528,11.00851 -2.24598,12.43513 -4.17004,28.68468 -5.53082,46.71002 l -0.83041,11 h 47.42498 47.42496 z m 33.26233,14.44345 c 7.46067,-10.79224 19.41411,-34.82724 20.80103,-41.82502 0.83948,-4.2356 0.70044,-4.46798 -2.25097,-3.76206 -1.73015,0.41383 -9.29572,1.17262 -16.81239,1.68622 l -13.66667,0.93381 v 28.70156 c 0,33.07812 -0.58912,32.3736 11.929,14.26549 z M 330.66668,200.48277 v -50.18391 l -10.31122,0.93437 c -10.74158,0.97338 -25.87537,3.80471 -33.40425,6.2495 -3.8294,1.24348 -5.31245,3.27798 -11.75799,16.12998 -8.9635,17.87274 -17.77329,39.24388 -22.30989,54.12028 l -3.37471,11.06632 3.57903,1.36231 c 6.55764,2.49607 42.02584,7.93471 58.91236,9.03354 9.16667,0.59648 17.11667,1.17158 17.66667,1.27801 0.55,0.1064 1,-22.38926 1,-49.9904 z m 55.66667,46.69188 c 2.56325,-0.69976 2.99885,-1.71837 2.99213,-6.99682 -0.0133,-10.53948 -3.67359,-31.13 -7.3866,-41.5536 -4.27815,-12.01016 -15.00372,-32.92356 -21.34724,-41.62422 -8.65279,-11.86803 -8.59163,-12.17562 -8.59163,43.2049 v 49.53823 l 15.66667,-0.87474 c 8.61667,-0.48112 17.01667,-1.2433 18.66667,-1.69375 z M 235.13262,214.33334 c 3.46728,-10.45 8.38083,-23.75004 10.91902,-29.55564 2.53817,-5.8056 4.33825,-10.83227 4.00016,-11.17035 -0.99892,-0.99892 -20.27734,11.49839 -30.81791,19.97784 -9.44356,7.59696 -25.90055,24.42035 -25.90055,26.47722 0,0.55553 1.65,1.62745 3.66667,2.38202 20.01,7.48715 29.22572,10.76639 30.41424,10.82234 0.77782,0.0367 4.2511,-8.48343 7.71837,-18.93343 z M 119.33334,444.40327 C 103.02219,442.2399 88.124651,434.59245 75.499133,421.9016 64.398565,410.7436 58.259671,401.06668 53.286579,386.88732 c -8.617369,-24.56999 -8.879047,-47.1871 -0.824164,-71.23363 2.643079,-7.89048 6.98418,-17.752 9.646894,-21.91449 5.669529,-8.8629 17.90869,-22.04211 23.920202,-25.75743 3.467155,-2.14281 5.212868,-5.21303 9.864246,-17.34835 C 119.78644,188.29801 165.61045,132.83921 220.24082,100.14156 260.17856,76.237831 314.7729,63.525556 358.66668,67.909153 c 38.15216,3.810193 78.20389,17.429146 108.24763,36.807887 51.60515,33.28623 96.19742,89.67597 117.91668,149.11308 3.44866,9.43761 4.59259,11.08072 11.33676,16.28384 19.16259,14.78389 31.85362,38.12581 35.94594,66.11336 2.93588,20.07859 -1.59742,44.85296 -11.73874,64.15191 -5.56433,10.58896 -20.16666,26.83129 -29.5155,32.83042 -15.92506,10.21909 -52.19276,16.44015 -52.19276,8.95274 0,-0.98275 2.04154,-6.22132 4.53677,-11.64127 20.51707,-44.56561 22.99175,-108.49802 6.11981,-158.10298 -5.68642,-16.71858 -5.62961,-16.90268 5.57166,-18.05252 l 3.56157,-0.36561 -8.34329,-16.67147 c -29.51177,-58.96996 -68.63705,-98.9641 -121.44653,-124.14346 -16.36735,-7.80389 -29.06723,-12.09931 -47.33333,-16.009343 -11.89694,-2.546651 -18.10598,-3.000848 -41.33334,-3.023571 -23.44563,-0.02293 -29.3246,0.402416 -41.33333,2.990531 -19.60196,4.224603 -34.71102,9.520253 -52.24758,18.312543 -51.52311,25.83207 -88.98571,64.92879 -117.30871,122.42567 l -7.94028,16.1191 6.02558,0.72173 c 3.31406,0.39696 6.46131,1.1575 6.9939,1.69008 0.53259,0.53258 -1.24259,7.7078 -3.94484,15.94492 -2.70225,8.23714 -5.77214,19.1766 -6.82198,24.30994 -9.05683,44.28458 -4.15544,96.03936 12.64058,133.47452 4.45169,9.92199 4.87017,13.21528 1.8276,14.38283 -2.20779,0.84721 -11.72644,0.78527 -18.55761,-0.1208 z"
         id="path5759" />
      <path
         style="fill:#acacac;stroke-width:1.33333"
         d="M 322.22425,549.3197 C 286.26126,545.91886 250.15528,532.53756 220.3697,511.57122 206.93798,502.11651 182.14651,477.91398 173.33334,465.65223 144.07356,424.9432 130.29156,380.16047 132.4067,332.66668 c 0.98512,-22.12034 3.73292,-37.41304 10.20706,-56.80683 10.9273,-32.73358 25.7245,-56.37632 51.29526,-81.95884 19.63657,-19.64562 35.4538,-30.99687 58.12839,-41.71595 27.80648,-13.1451 50.07489,-18.55232 81.29593,-19.7403 48.24685,-1.83582 93.33426,12.01382 132.00001,40.54686 14.32901,10.57396 37.94679,34.97412 47.69228,49.27217 27.41591,40.22313 40.52988,88.82505 36.4026,134.91226 -2.67508,29.87116 -8.5307,50.82991 -21.46373,76.82396 -29.68542,59.66469 -86.7638,102.17505 -151.96449,113.17886 -15.1092,2.54995 -39.27567,3.51203 -53.77576,2.14083 z m -8.05056,-19.65302 c -0.35771,-0.55 -3.98833,-6.05069 -8.06807,-12.22376 -13.57312,-20.53756 -19.43894,-40.71401 -19.43894,-66.86341 0,-14.27152 -0.24067,-15.91139 -2.33334,-15.89883 -3.24509,0.0195 -33.76253,6.3041 -34.57958,7.12115 -2.06611,2.06609 17.86504,53.26612 28.62433,73.53152 l 4.95525,9.33333 11.33334,2.91919 c 11.41641,2.9406 20.711,3.93205 19.50701,2.08081 z m -59.94441,-19.33333 c -10.2814,-23.71063 -14.76095,-35.04557 -18.83782,-47.66667 -2.72412,-8.43333 -5.13708,-15.51878 -5.36211,-15.74545 -0.94221,-0.94907 -38.02934,13.72328 -38.02934,15.04511 0,2.07976 18.79225,20.94292 29.41357,29.52456 8.95564,7.23582 29.84384,20.50912 32.27523,20.50912 0.69475,0 0.93796,-0.75 0.54047,-1.66667 z M 386.3432,499.11364 c 5.04429,-2.87698 5.57951,-3.63905 4.80556,-6.84226 -2.11935,-8.77155 -9.75768,-14.93803 -18.50352,-14.93803 -7.87713,0 -9.97856,1.86279 -9.97856,8.8454 0,11.56265 6.13479,18.61423 14.66667,16.85845 1.83333,-0.37728 5.88776,-2.14288 9.00985,-3.92356 z m 39.42108,-35.3103 c -4.76579,-8.75632 -15.80537,-18.7322 -26.24115,-23.71275 -9.85812,-4.70484 -24.79082,-7.46976 -33.38345,-6.18122 l -6.13967,0.92071 v 9.76476 9.76476 l 8.42963,-0.67664 c 16.47327,-1.32232 31.93612,6.61544 40.73105,20.90903 l 4.19839,6.82324 8.02815,-5.4518 8.02814,-5.45181 z m 31.78567,-11.94232 c 3.54753,-2.27644 6.45007,-4.58342 6.45007,-5.12662 0,-2.56633 -11.20107,-17.87069 -17.9161,-24.47927 -20.22412,-19.90357 -48.11053,-30.88892 -76.10028,-29.97832 l -11.98363,0.38987 -0.39741,9.13835 -0.3974,9.13836 7.91587,-0.91874 c 9.88114,-1.14682 26.13209,1.22124 37.36013,5.44408 16.57385,6.23338 35.40839,21.63386 43.24498,35.36022 1.61728,2.83279 3.48797,5.15515 4.1571,5.1608 0.66914,0.005 4.11914,-1.85228 7.66667,-4.12873 z m -271.1504,-9.7142 c 1.98026,-1.01927 11.40046,-4.6743 20.93379,-8.12227 9.53333,-3.44799 17.49389,-6.4246 17.69013,-6.61472 0.19626,-0.19011 -0.57228,-4.76239 -1.70782,-10.16062 -3.46796,-16.4861 -6.05978,-35.82794 -6.91208,-51.58253 l -0.8115,-15 h -33.28601 -33.28603 l 0.94676,10.10333 c 2.13502,22.78375 10.78687,51.18619 21.69784,71.23 7.27019,13.35559 7.79658,13.71807 14.73492,10.14681 z m 66.74134,-21.41214 c 4.13917,-1.0626 13.52579,-2.89193 20.85912,-4.0652 7.33333,-1.17327 14.58801,-2.39137 16.12151,-2.70691 1.95757,-0.4028 3.9029,-3.19654 6.53006,-9.37804 5.03342,-11.84314 16.09886,-29.22961 26.66675,-41.89985 4.77492,-5.72484 8.68168,-10.77087 8.68168,-11.2134 0,-0.44253 -21.92067,-0.8046 -48.71259,-0.8046 h -48.7126 l 0.67316,6.33333 c 0.37024,3.48334 1.02061,10.83334 1.44527,16.33334 1.28994,16.70665 6.79666,49.33333 8.32648,49.33333 0.32744,0 3.98197,-0.8694 8.12116,-1.932 z m 197.21709,-45.46497 c 6.58861,-2.7529 10.80964,-6.81506 13.78865,-13.2697 2.13759,-4.63153 2.46535,-8.95242 2.49077,-32.83675 0.0329,-30.94924 -0.15586,-30.35242 9.96316,-31.49298 7.47999,-0.84311 15.9204,3.7257 21.89731,11.85304 5.04899,6.86554 6.25212,5.04528 5.06536,-7.66346 -1.84157,-19.72108 -12.23289,-30.42886 -32.73349,-33.73038 -4.14362,-0.66731 -9.1639,-0.90168 -11.15619,-0.52084 l -3.62236,0.69246 -0.35892,28.84946 -0.35892,28.84945 -3.33333,-0.35163 c -1.83334,-0.19338 -6.11339,-0.713 -9.51123,-1.15469 -19.80524,-2.57453 -34.91707,17.80246 -27.0918,36.53095 5.6475,13.5164 21.37136,19.92317 34.96099,14.24507 z m -234.34704,-54.2697 c 0.0133,-11.32381 1.84696,-28.80921 4.79023,-45.66667 1.15234,-6.6 2.41284,-14.178 2.8011,-16.84001 l 0.70594,-4.84001 -9.15411,-2.98898 c -5.03475,-1.64393 -15.10051,-5.40022 -22.36833,-8.34732 -15.37952,-6.23636 -13.27128,-7.26564 -22.76391,11.11382 -10.02399,19.40829 -17.8844,46.03785 -20.14161,68.23584 l -0.91516,9 h 33.51746 33.51746 l 0.0107,-9.66667 z m 115.68124,-20 -0.35884,-29.66667 -14.66666,-0.93068 c -18.85383,-1.19638 -42.56718,-4.50838 -59.45026,-8.30332 -7.33089,-1.64781 -13.54555,-2.64426 -13.81033,-2.21434 -1.94772,3.16245 -8.73942,57.28349 -8.73942,69.64197 0,0.62684 21.91149,1.13971 48.69218,1.13971 h 48.69217 z m 29.98902,19.31975 c 9.06787,-12.18278 19.82583,-32.5049 22.9846,-43.41862 1.23617,-4.27105 2.04208,-7.92509 1.79089,-8.1201 -0.25117,-0.19502 -8.40668,0.26381 -18.12334,1.01961 l -17.66667,1.37419 v 29.74592 c 0,22.91509 0.38273,29.7428 1.66667,29.73233 0.91666,-0.008 5.1232,-4.65748 9.34785,-10.33333 z M 332.00001,199.73741 v -50.77188 l -10.33333,0.92433 c -10.74599,0.96125 -30.34098,4.85731 -36.63118,7.28333 -2.77628,1.07078 -5.22948,4.58548 -10.41992,14.92863 -12.43696,24.78353 -26.53242,62.71708 -24.89254,66.99052 1.25912,3.28123 38.33334,9.85434 64.27697,11.39604 8.8,0.52294 16.45,0.74158 17,0.48586 0.55,-0.25572 1,-23.3123 1,-51.23683 z m 53.66667,48.77388 c 4.93351,-0.84876 4.99989,-0.94209 4.99213,-7.01907 -0.0323,-25.25643 -10.27788,-56.21447 -27.08037,-81.82555 -5.20125,-7.92797 -7.49308,-10.33333 -9.84555,-10.33333 h -3.06621 v 50.87063 50.87064 l 15,-0.85156 c 8.25,-0.46836 17.25,-1.23865 20,-1.71176 z M 235.39179,216.27113 c 3.19323,-9.70456 8.293,-23.31576 11.33286,-30.24711 3.03985,-6.93133 5.31027,-13.25264 5.04537,-14.04732 -0.61934,-1.85801 -21.71924,11.37628 -33.48643,21.00339 -9.50945,7.77997 -26.28358,25.14869 -26.28358,27.21522 0,1.36727 1.86565,2.17562 21.33333,9.24328 7.7,2.79547 14.50684,4.94643 15.12631,4.77994 0.61946,-0.1665 3.73893,-8.24283 6.93214,-17.9474 z M 114.66667,442.51426 c -23.887652,-3.82427 -48.449749,-25.72094 -59.477652,-53.02329 -8.838796,-21.88265 -9.619535,-50.79349 -1.982674,-73.41868 2.338097,-6.92692 6.365121,-16.07448 8.948943,-20.32791 5.75243,-9.46952 16.384382,-21.27478 23.714104,-26.33114 4.761304,-3.28455 6.049524,-5.35666 10.017574,-16.11335 C 102.38926,235.6733 116.45132,208.44714 128.24844,190.64343 203.57071,76.970343 332.3165,37.512467 444.66668,93.667906 c 61.24747,30.613024 114.18979,92.000444 140.02925,162.366014 3.2776,8.92549 4.42316,10.54306 10.3703,14.64321 12.54254,8.6472 24.87448,26.17445 30.91815,43.94356 12.37834,36.39382 4.44375,77.36422 -20.12129,103.89674 -15.06896,16.27586 -30.35415,23.63987 -52.02283,25.06324 -15.08165,0.99067 -15.51593,0.48599 -10.0194,-11.64371 2.14429,-4.73199 5.73348,-14.60361 7.97597,-21.93695 13.79452,-45.1103 13.35666,-92.21223 -1.27262,-136.89655 -2.32223,-7.09309 -3.859,-13.84309 -3.41506,-15 0.55043,-1.43438 2.51691,-2.10345 6.18236,-2.10345 3.954,0 5.37518,-0.54357 5.37518,-2.05589 0,-2.90658 -14.5638,-31.67527 -22.57038,-44.58453 -10.42313,-16.80556 -20.86003,-30.1225 -35.40915,-45.18026 -35.27018,-36.50327 -73.86281,-58.35568 -120.68715,-68.337015 -20.40832,-4.350349 -59.82053,-4.365992 -80,-0.03175 C 224.9831,111.92305 164.9377,161.49909 127.78326,238.00001 c -4.27392,8.8 -7.77357,16.45 -7.77701,17 -0.003,0.55 2.71258,1 6.0356,1 3.97896,0 6.28901,0.64411 6.76576,1.88648 0.39815,1.03757 -1.14651,7.33401 -3.43258,13.99209 -17.2894,50.35467 -15.56942,105.50903 4.87944,156.46839 2.57788,6.42416 4.34404,12.57417 3.9248,13.66667 -0.86944,2.26574 -11.12335,2.48406 -23.5126,0.50062 z"
         id="path5757" />
      <path
         style="fill:#929292;stroke-width:1.33333"
         d="m 319.8436,548.02874 c -42.55991,-4.12755 -82.8871,-21.68355 -117.22523,-51.03275 -24.16156,-20.65115 -46.70204,-54.60267 -58.46587,-88.06398 -6.74163,-19.17605 -9.52852,-35.20366 -10.36303,-59.59866 -1.65658,-48.42638 8.96976,-86.03695 35.59955,-126.00001 28.68208,-43.04291 79.20536,-76.54019 130.76572,-86.69856 15.3534,-3.02491 50.86617,-4.0883 67.37025,-2.01731 46.43126,5.82633 89.19276,26.99322 122.47503,60.62495 27.62645,27.91655 49.00595,69.3321 56.14275,108.75759 3.20046,17.68023 3.17006,55.84378 -0.0589,74 -4.91576,27.64047 -15.74715,54.26894 -31.99037,78.64685 -16.84311,25.27822 -31.62551,40.04198 -57.44658,57.37413 -24.19467,16.24045 -51.54493,27.39522 -77.98017,31.80407 -15.77326,2.63065 -43.65149,3.67505 -58.82309,2.20368 z m -3.84359,-16.63151 c 0,-0.33153 -2.61276,-4.38153 -5.80615,-9 -9.20772,-13.3168 -12.40874,-19.53241 -17.02781,-33.06388 -3.94872,-11.56767 -4.38932,-14.5176 -5.07828,-34 l -0.75443,-21.33334 -5.3637,0.3894 c -2.95004,0.21416 -11.35004,1.72539 -18.66667,3.35826 l -13.30296,2.96887 0.27837,4.84484 c 0.42698,7.43081 11.50807,36.83218 22.36964,59.35313 9.51226,19.7232 9.89811,20.28351 14.89196,21.62505 17.2726,4.6401 28.46003,6.5496 28.46003,4.85767 z m -68.42877,-38.37537 c -4.01671,-9.72868 -9.31343,-23.9141 -11.7705,-31.52315 -2.45707,-7.60905 -5.27493,-14.14532 -6.26192,-14.52505 -2.04165,-0.78548 -34.6364,11.10234 -37.25088,13.58601 -1.37459,1.30579 0.59665,3.97793 10,13.55563 6.44164,6.56108 16.02335,15.4055 21.29268,19.65429 10.99437,8.86503 30.19579,20.23456 30.8514,18.26772 0.24328,-0.72983 -2.84408,-9.28679 -6.86078,-19.01545 z m 135.76211,8.49352 c 7.12489,-3.24106 9.10044,-5.83844 8.05633,-10.59224 -1.00375,-4.56998 -7.80009,-11.49336 -13.32984,-13.579 -5.79695,-2.1864 -13.91816,-0.44719 -15.64888,3.35133 -2.30508,5.05911 -0.0979,15.15607 4.26736,19.52132 4.44859,4.44859 8.95744,4.80013 16.65503,1.29859 z m 38.68717,-25.03747 c 4.02205,-2.67049 7.31283,-5.3944 7.31283,-6.05312 0,-6.76591 -18.31083,-25.91147 -29.82192,-31.18143 -13.71703,-6.27985 -33.04324,-8.57424 -39.35663,-4.67235 -1.08517,0.67068 -1.488,4.04186 -1.22059,10.21503 l 0.39914,9.21398 12.66666,0.77361 c 6.96667,0.42549 14.38304,1.48587 16.48083,2.35641 7.45393,3.09322 15.0682,9.7222 19.42565,16.91196 2.43046,4.01024 4.95502,7.29135 5.61012,7.29135 0.6551,0 4.48187,-2.18495 8.50391,-4.85544 z m 35.64616,-23.85724 c 3.48334,-2.55561 6.3311,-5.39073 6.32835,-6.30028 -0.007,-2.39619 -4.76903,-9.84284 -11.13004,-17.40548 -13.36839,-15.89376 -33.97386,-28.95295 -54.19831,-34.34944 -12.14732,-3.24127 -33.83129,-4.76235 -39,-2.73578 -3.4296,1.3447 -3.66667,1.95195 -3.66667,9.39196 0,4.37488 0.64314,8.35179 1.42919,8.8376 0.78605,0.4858 8.13605,1.03052 16.33333,1.21047 12.15464,0.26683 16.87192,0.99791 25.57082,3.96296 19.54449,6.66184 37.10373,20.65625 46.44033,37.01216 1.59115,2.78739 3.493,5.05772 4.22634,5.04519 0.73333,-0.012 4.18333,-2.11375 7.66666,-4.66936 z m -256.33334,-15.2726 c 9.9,-3.7358 19.42608,-7.3892 21.16907,-8.11866 3.53836,-1.48084 3.54924,-0.79413 -0.36791,-23.2294 -2.86492,-16.40869 -4.77711,-34.26565 -4.79023,-44.73333 -0.007,-5.00041 -0.69482,-9.41723 -1.61093,-10.33333 -2.52564,-2.52564 -64.20109,-2.24952 -66.31443,0.29689 -3.34981,4.03628 4.35248,41.59859 12.67887,61.83191 4.49235,10.9165 12.58755,26.77795 15.66693,30.69723 1.59314,2.02765 0.20306,2.4058 23.56863,-6.41131 z m 69.80206,-19.20454 c 10.89113,-1.91774 20.38468,-3.8469 21.09678,-4.28701 0.7121,-0.44009 3.28554,-5.16873 5.71876,-10.50809 5.53335,-12.14214 16.17915,-28.8228 26.28948,-41.19244 4.26587,-5.21912 7.55706,-10.08931 7.31378,-10.82264 -0.60318,-1.81814 -94.23689,-2.51731 -96.03706,-0.71714 -2.42843,2.42843 0.46337,34.66764 5.26684,58.71714 2.77093,13.87321 2.69587,13.73216 6.89806,12.96425 2.00821,-0.36699 12.56222,-2.23632 23.45336,-4.15407 z m 176.19795,-40.96818 c 3.29896,-0.91327 7.69172,-3.83486 11.51611,-7.65923 3.82437,-3.82439 6.74596,-8.21715 7.65922,-11.51611 0.84202,-3.04157 1.47966,-16.34229 1.4839,-30.95309 0.008,-28.95963 -0.21131,-28.38024 10.7624,-28.38024 6.77994,0 12.78074,3.46417 19.1986,11.08302 3.92361,4.65787 4.93677,5.25204 6.11064,3.58364 1.57773,-2.24238 0.78644,-13.81065 -1.49615,-21.87298 -0.87081,-3.07582 -4.23564,-8.12634 -8.22267,-12.34204 -5.52774,-5.84476 -8.30553,-7.61659 -15.35414,-9.79368 -9.64691,-2.97963 -20.30664,-3.4759 -22.72458,-1.05796 -1.14188,1.14188 -1.6,9.54074 -1.6,29.33333 0,16.07299 -0.51782,27.73333 -1.23161,27.73333 -0.67739,0 -4.12739,-0.66598 -7.66667,-1.47998 -8.59707,-1.97723 -16.29784,0.15837 -23.2636,6.45152 -8.88339,8.02561 -11.89941,16.89759 -9.17891,27.00079 2.7754,10.30704 15.95987,21.10256 26.00746,21.29505 1.46667,0.0281 5.06667,-0.61332 8,-1.42537 z M 215.73334,330.40001 c 0.95964,-0.95964 1.60437,-5.62892 1.61093,-11.66667 0.0133,-11.79988 1.81894,-28.99036 4.91002,-46.73333 3.54141,-20.32795 4.77641,-18.08931 -13.58762,-24.62961 -8.8,-3.1341 -18.90358,-6.82386 -22.45242,-8.19946 l -6.45243,-2.50108 -2.69925,3.33175 c -3.49267,4.31107 -12.56487,22.36655 -16.53224,32.90248 -7.32923,19.46375 -14.00143,53.71677 -11.1361,57.16929 2.13574,2.5734 63.78878,2.87696 66.33911,0.32663 z m 116,0 c 1.14154,-1.14153 1.6,-9.51957 1.6,-29.23809 0,-32.3064 0.17811,-31.82858 -11.86366,-31.82858 -16.14559,0 -47.82563,-4.29274 -74.99818,-10.16249 -3.33797,-0.72107 -3.60976,-0.3834 -5.03305,6.25319 -4.99567,23.29397 -8.87476,62.04202 -6.4978,64.90609 1.95782,2.35904 94.43676,2.42581 96.79269,0.0699 z M 362.77,319.66668 c 9.42413,-12.4866 22.09127,-37.46135 23.40485,-46.14543 l 0.87916,-5.81209 -17.19366,0.96701 c -9.45652,0.53185 -17.94367,1.57077 -18.86034,2.30869 -1.23878,0.99722 -1.66666,8.60235 -1.66666,29.62286 0,15.55465 0.4,28.68118 0.88889,29.17006 2.22389,2.2239 4.81217,0.13824 12.54776,-10.1111 z m -30.24598,-69.77572 c 0.44514,-1.15998 0.80932,-23.88651 0.80932,-50.50341 0,-40.95696 -0.30129,-48.64441 -1.96046,-50.02141 -3.71952,-3.08692 -43.88676,4.28169 -49.1358,9.01389 -7.78858,7.02166 -36.57123,76.76454 -33.6387,81.50948 1.00811,1.63115 20.6666,6.10277 38.0683,8.65919 20.20372,2.96807 20.86333,3.03206 33.52401,3.25154 9.40228,0.16298 11.67303,-0.18854 12.33333,-1.90928 z m 44.14266,0.66169 c 6.6,-0.79192 12.86016,-2.27183 13.91147,-3.28867 1.6294,-1.57598 1.66956,-3.92991 0.2721,-15.95184 -2.90098,-24.95661 -12.22076,-50.30907 -26.25373,-71.41767 -6.82289,-10.2631 -10.31524,-13.0077 -13.3484,-10.4904 -1.60045,1.32826 -1.91477,9.6169 -1.91477,50.49252 0,36.25822 0.41372,49.31714 1.6,50.50342 1.98006,1.98007 10.10166,2.02824 25.73333,0.15264 z m -140.29719,-34.6428 c 3.42261,-10.31624 8.71553,-24.44035 11.76205,-31.3869 3.04652,-6.94653 5.16576,-13.00342 4.70943,-13.45976 -3.80735,-3.80736 -48.80514,31.23988 -59.63283,46.44598 l -2.75609,3.87057 5.10732,2.17647 c 10.6783,4.55056 29.219,10.98004 31.84724,11.04389 2.35324,0.0572 3.6182,-2.58063 8.96288,-18.69025 z M 112.73736,441.24948 c -11.53355,-1.92962 -25.70425,-9.96991 -36.070691,-20.46603 -10.890553,-11.02681 -17.96929,-22.54837 -23.008979,-37.4501 -3.38489,-10.0087 -3.605248,-12.10599 -3.572339,-34 0.03465,-23.05009 0.08853,-23.47901 4.438778,-35.33334 5.149545,-14.0324 16.670948,-32.14112 24.382942,-38.3238 C 91.395422,265.66436 92.93583,263.60686 98.037643,250.12393 112.69813,211.37958 143.84367,164.34357 172.2581,138.03616 226.53799,87.781304 293.73876,63.900664 362.16151,70.551584 c 47.26562,4.594376 89.95377,22.519037 130.39091,54.750856 35.83029,28.55979 68.84032,74.67529 88.30557,123.36424 6.82767,17.07824 7.04802,17.42164 14.97239,23.33333 13.30391,9.92492 23.97959,25.89701 30.30063,45.33333 3.35432,10.3141 3.69404,13.19196 3.7774,32.00001 0.0803,18.09702 -0.29663,21.91004 -3.03087,30.66666 -6.66736,21.35274 -18.88701,39.1442 -34.05963,49.58983 -12.1533,8.36699 -22.4143,11.73679 -38.6791,12.70258 l -13.19455,0.78348 0.7558,-3.20462 c 0.41569,-1.76253 2.87079,-8.3046 5.45576,-14.53793 19.74711,-47.6176 20.7482,-104.95634 2.73352,-156.56578 -1.77245,-5.07784 -3.22265,-9.72784 -3.22265,-10.33333 0,-0.6055 2.71882,-1.1009 6.04184,-1.1009 3.98098,0 6.28896,-0.64393 6.76628,-1.88782 0.80684,-2.1026 -13.2497,-30.98467 -22.11775,-45.44551 -13.7776,-22.46663 -40.8056,-52.709 -63.35704,-70.8919 -24.52292,-19.77247 -53.8563,-34.19764 -85.01007,-41.805116 -38.50023,-9.40141 -69.82754,-8.442072 -111.11425,3.402656 -13.75044,3.94486 -42.53964,17.49403 -55.9534,26.33357 -29.25936,19.28163 -61.98549,53.49452 -80.5163,84.17415 -9.64475,15.96788 -21.86644,41.66356 -20.95109,44.04893 0.52885,1.37815 2.51871,2.07104 5.94769,2.07104 2.83413,0 5.48256,0.3296 5.88541,0.73246 0.40285,0.40285 -1.23745,6.55285 -3.64511,13.66666 -9.05081,26.7421 -13.57514,57.57018 -12.07357,82.26755 1.52398,25.06604 9.04806,57.16419 18.16069,77.47452 2.16516,4.82574 3.93665,9.31814 3.93665,9.98311 0,1.46074 -16.75833,1.3262 -25.92931,-0.20816 z"
         id="path5755" />
      <path
         style="fill:#6b6b6b;stroke-width:1.33333"
         d="M 322.22425,547.98637 C 286.26126,544.58553 250.15528,531.20423 220.3697,510.23788 206.93446,500.7807 183.46449,477.8824 174.66667,465.6481 145.41644,424.97249 131.62491,380.16017 133.74003,332.66668 c 0.98512,-22.12034 3.73292,-37.41304 10.20707,-56.80683 10.82136,-32.41622 25.7702,-56.41711 50.63099,-81.28978 18.93058,-18.93965 35.05776,-30.46166 57.45932,-41.05168 27.80648,-13.14509 50.07489,-18.55232 81.29593,-19.74031 48.24875,-1.83588 93.34942,12.0186 132.00001,40.54911 14.26715,10.53152 36.59271,33.61932 46.35895,47.94178 27.4104,40.19807 40.52997,88.81887 36.4026,134.90708 -2.67508,29.87116 -8.53071,50.82991 -21.46374,76.82396 -29.44058,59.17259 -85.59768,100.86994 -150.63115,111.84553 -15.1092,2.54995 -39.27567,3.51203 -53.77576,2.14083 z m -5.91803,-15.40367 c 0.41287,-0.41287 -3.0551,-6.44288 -7.70658,-13.40003 -14.76362,-22.08173 -20.59963,-41.70633 -20.59963,-69.26983 0,-16.30881 -0.0489,-16.57927 -3,-16.56549 -5.07692,0.0237 -34.61275,6.39875 -35.97995,7.76595 -1.58586,1.58586 8.47875,31.83546 17.05924,51.27222 9.4012,21.29586 15.54868,32.10486 19.25938,33.86338 1.83626,0.87022 9.03626,2.77761 16,4.23866 15.13076,3.17456 14.0407,3.02198 14.96754,2.09514 z m -60.30621,-20.13946 c 0,-0.48957 -3.22737,-8.43957 -7.17195,-17.66666 -3.94456,-9.22711 -9.38879,-23.67656 -12.09827,-32.1099 -2.70948,-8.43333 -5.40924,-15.83045 -5.99945,-16.43805 -1.5442,-1.58968 -39.31276,12.85692 -39.76604,15.21065 -0.45503,2.36272 17.59751,21.00119 30.21484,31.19552 14.81825,11.97262 34.82087,23.35143 34.82087,19.80844 z m 130.33334,-11.99049 c 5.66336,-3.22993 6.21606,-4.1146 5.69737,-9.1194 -0.39392,-3.80096 -6.16023,-10.98708 -10.70008,-13.33473 -4.42944,-2.29056 -11.59524,-2.59239 -16.57716,-0.69827 -3.05708,1.16229 -3.42013,2.02551 -3.42013,8.13183 0,8.8144 3.29025,15.72322 8.56128,17.97685 4.89441,2.09261 8.82557,1.38565 16.43872,-2.95628 z m 36.0178,-23.82149 c 4.03878,-2.71988 6.9822,-5.70127 6.9822,-7.0723 0,-7.52976 -16.42116,-24.41169 -30.09167,-30.93603 -10.24091,-4.88753 -26.74283,-7.65102 -34.575,-5.79009 l -5.33333,1.26721 v 10.61665 10.61665 l 8.88086,-0.46257 c 17.07584,-0.88943 32.86662,7.14501 39.82608,20.26374 1.80867,3.40936 4.19752,6.19883 5.30856,6.19883 1.11106,0 5.16208,-2.11595 9.0023,-4.70209 z m 35.08031,-23.36087 c 3.48237,-2.23463 6.65068,-4.89453 7.0407,-5.91092 1.06094,-2.76476 -8.59844,-16.85508 -17.69389,-25.81042 -20.37258,-20.05872 -47.00183,-30.91197 -75.72204,-30.86196 -6.44759,0.0107 -12.5025,0.51495 -13.45535,1.11936 -1.21647,0.77163 -1.61359,3.84324 -1.33333,10.31292 l 0.39913,9.21398 8.49591,-0.39995 c 11.23144,-0.52871 26.83168,1.92456 37.31861,5.86867 16.80591,6.32065 33.97473,20.40041 42.39347,34.76591 1.85831,3.17094 4.0192,5.76537 4.80197,5.76537 0.78279,0 4.27246,-1.82833 7.75482,-4.06296 z m -271.03191,-9.79024 c 1.98026,-1.01927 11.40046,-4.66707 20.93379,-8.10622 9.53333,-3.43914 17.79255,-6.69441 18.35379,-7.23392 0.56125,-0.5395 -0.12467,-6.6417 -1.5243,-13.56045 -3.49177,-17.26103 -5.51886,-32.62169 -6.59037,-49.93969 l -0.90579,-14.63986 h -34 -34 l 0.36318,9.99283 c 0.77037,21.1976 10.02185,51.52377 22.67872,74.34051 6.48569,11.69187 7.96136,12.61063 14.69098,9.1468 z m 66.74134,-21.41214 c 4.13917,-1.0626 13.52579,-2.89193 20.85912,-4.0652 7.33333,-1.17326 14.695,-2.41822 16.35924,-2.76657 2.27393,-0.47597 4.31011,-3.413 8.19335,-11.81825 6.48388,-14.03434 15.3127,-27.76268 26.47508,-41.16731 5.48241,-6.58369 8.2073,-10.88236 7.4061,-11.68356 -0.76786,-0.76787 -20.41986,-1.12949 -49.85066,-0.91733 l -48.58311,0.35022 0.4039,10 c 0.72547,17.96162 6.6759,59.02036 9.12864,62.989 0.8207,1.32791 0.86437,1.32372 9.60834,-0.921 z m 197.23529,-45.47206 c 6.57356,-2.74594 12.07021,-8.0605 15.09602,-14.59594 2.14951,-4.64272 2.47304,-8.92013 2.49854,-33.033 l 0.0293,-27.69967 3.42013,-1.30033 c 8.94103,-3.39937 19.84113,0.97567 26.54997,10.65652 2.08062,3.00235 4.43851,5.23269 5.23975,4.95635 2.39319,-0.82539 1.66961,-19.55898 -1.02831,-26.62338 -3.19436,-8.36432 -13.0802,-17.15898 -22.68324,-20.1795 -7.76477,-2.44232 -20.43946,-3.33412 -23.19368,-1.63192 -1.21309,0.74973 -1.63796,8.46788 -1.63796,29.7558 v 28.74348 l -3,-0.921 c -6.38993,-1.96171 -15.57084,-2.29511 -20.29225,-0.73691 -10.83242,3.57503 -19.28727,15.10873 -19.34514,26.38972 -0.1008,19.6566 20.43862,33.70048 38.34689,26.21978 z M 217.56653,315.0587 c 0.95006,-17.18288 2.55706,-30.02322 6.0061,-47.99033 1.15416,-6.0124 1.76559,-11.79913 1.35872,-12.85941 -0.40686,-1.06028 -4.83286,-3.26408 -9.83554,-4.89735 -5.0027,-1.63327 -14.96895,-5.35079 -22.14724,-8.26116 -9.57611,-3.88255 -13.50766,-4.91296 -14.76475,-3.86966 -2.69165,2.23387 -14.88209,26.47413 -18.68537,37.15518 -6.75948,18.98324 -13.01687,50.45056 -11.05099,55.57356 0.72716,1.89495 4.62864,2.09613 34.51951,1.78011 l 33.6997,-0.3563 z m 115.10015,-14.39202 v -30.66667 l -15.33334,-0.93597 c -19.92865,-1.21648 -32.54188,-2.88259 -55.03869,-7.27019 -11.14815,-2.17425 -18.83835,-3.10029 -19.55802,-2.35515 -2.96572,3.07071 -10.85138,67.80622 -8.68642,71.3092 0.49244,0.79678 19.37227,1.15196 49.70525,0.93511 l 48.91122,-0.34967 z m 29.8054,20.33333 c 13.41424,-17.93535 28.22997,-49.74659 24.66129,-52.95092 -0.62334,-0.55972 -9.23336,-0.34973 -19.13336,0.46663 l -18,1.48429 -0.36017,29.30179 c -0.19811,16.11598 -0.0669,30.06598 0.29148,31 1.40417,3.6592 4.64459,1.2557 12.54076,-9.30179 z m -29.45655,-120.81528 -0.34885,-51.51806 -10.29814,0.31416 c -10.80048,0.32948 -31.92182,4.38034 -38.08741,7.30478 -5.9812,2.83698 -22.93349,38.07774 -32.13489,66.80262 -5.39118,16.83012 -5.34999,17.77359 0.85377,19.55767 16.47929,4.73911 72.42461,11.55518 78.68219,9.5862 1.32385,-0.41656 1.60788,-11.50369 1.33333,-52.04737 z m 53.65115,49.40057 c 4.10945,-0.89185 4.72032,-1.56437 5.11597,-5.63237 0.84488,-8.68672 -2.64434,-29.9423 -7.14321,-43.51491 -5.41064,-16.32331 -10.50872,-26.77263 -20.25392,-41.51356 -6.43651,-9.73608 -7.74915,-11.02609 -10.85376,-10.66667 l -3.53175,0.40888 -0.34989,49.99527 c -0.19244,27.49739 -0.0263,50.83874 0.36937,51.86963 0.58926,1.53556 3.54463,1.71097 16.3499,0.97044 8.59684,-0.49715 17.73062,-1.35967 20.29729,-1.91671 z M 230.23217,234.33334 c 0.5809,-0.91667 3.56748,-9.27007 6.63681,-18.56311 3.06935,-9.29305 8.37002,-23.3025 11.77927,-31.13212 3.40925,-7.82962 5.86063,-14.57368 5.44749,-14.98681 -1.21526,-1.21527 -7.23308,1.98757 -21.42907,11.40513 -13.89274,9.21638 -42,35.51932 -42,39.30386 0,1.12504 1.65,2.66828 3.66667,3.42944 11.44156,4.31844 33.13324,12.0825 33.92131,12.14141 0.50672,0.0379 1.3966,-0.68113 1.97752,-1.5978 z M 114.66667,441.18092 C 102.83653,439.28699 87.062667,430.721 77.214591,420.8426 57.318873,400.8856 48.375056,376.17424 49.644136,344.66668 c 0.539,-13.38183 1.340086,-18.0609 4.895542,-28.59439 6.676733,-19.78069 16.989608,-34.69704 31.345141,-45.33701 6.204548,-4.59867 7.169478,-6.0801 11.335479,-17.40302 2.504496,-6.80705 8.527812,-20.25197 13.385152,-29.8776 C 179.06231,87.795994 321.03222,33.205634 444.66668,95.001239 c 59.95842,29.968721 108.53947,85.419901 136.5899,155.905881 6.02092,15.12954 6.42417,15.74076 14.13724,21.4281 12.53987,9.24647 23.30432,24.78322 29.21887,42.17267 12.26427,36.05844 4.55564,77.15871 -19.36855,103.26775 -14.30107,15.60708 -29.97368,23.06399 -51.43833,24.47395 -8.06824,0.52999 -12.47246,0.34257 -12.47246,-0.53072 0,-0.74251 1.7369,-5.183 3.85978,-9.86776 20.94246,-46.21586 23.59632,-108.19214 6.7819,-158.37982 -5.32869,-15.90509 -5.29948,-16.13795 2.02499,-16.13795 8.06943,0 7.92512,-1.59578 -1.92561,-21.29269 -15.21679,-30.42654 -28.8981,-49.99112 -50.71641,-72.52568 -36.092,-37.27683 -74.22228,-58.95828 -121.35799,-69.005988 -20.40832,-4.35035 -59.82053,-4.365992 -80,-0.03175 -75.56303,16.229788 -136.8343,67.154738 -174.13834,144.733188 -4.06851,8.46098 -7.01636,15.99994 -6.55079,16.75326 0.46558,0.75332 3.51109,1.36966 6.76781,1.36966 3.51685,0 5.92131,0.61252 5.92131,1.50842 0,0.82962 -1.82583,6.82608 -4.0574,13.32542 -17.31061,50.41646 -14.9726,111.48571 6.09171,159.11585 4.83508,10.93299 4.64909,11.41111 -4.36764,11.22779 -4.21667,-0.0857 -10.96667,-0.68419 -15,-1.3299 z"
         id="path5753" />
      <path
         style="fill:#515151;stroke-width:1.33333"
         d="m 324.41784,547.72439 c -14.19828,-1.09226 -39.50318,-6.50316 -53.0314,-11.33958 -14.50031,-5.18397 -39.77779,-18.52425 -51.32959,-27.08938 -40.61647,-30.11527 -68.75876,-71.84331 -79.9485,-118.54374 -7.02423,-29.31568 -8.29742,-48.92668 -4.85497,-74.78107 4.43433,-33.30386 15.45955,-62.81522 33.8614,-90.63728 9.23343,-13.96017 34.37457,-40.09661 49.47609,-51.43479 22.11067,-16.60058 53.12358,-30.14617 84.07581,-36.72196 20.40129,-4.33425 54.60925,-4.39316 75.67387,-0.13027 35.2427,7.13207 65.36773,20.71957 90.3706,40.76045 12.96511,10.3921 32.84089,30.95157 41.06753,42.48016 27.51853,38.56376 42.36133,91.16121 38.23578,135.49363 -2.71064,29.12811 -8.95471,51.70903 -21.26052,76.88616 -10.00579,20.47142 -21.34663,36.31842 -38.08726,53.22087 -28.1458,28.41788 -57.9932,45.88721 -94.66667,55.40732 -24.84242,6.44888 -45.05396,8.31646 -69.58217,6.42952 z m -7.0845,-15.72063 c 0,-0.73128 -2.74321,-5.05598 -6.09602,-9.61046 -7.89015,-10.71799 -15.7863,-27.12355 -19.47631,-40.46526 -2.35733,-8.52324 -2.94629,-14.30953 -3.01229,-29.59469 l -0.082,-19 -4,-0.012 c -5.3235,-0.0163 -32.98038,5.22469 -35.37243,6.70305 -1.57397,0.97278 -1.61604,2.17391 -0.25439,7.26498 3.60094,13.46349 14.35386,41.08448 22.98592,59.04384 10.27132,21.3699 9.06531,20.31889 27.97423,24.37914 13.17179,2.82835 17.33333,3.13846 17.33333,1.29163 z m -61.33333,-19.56052 c 0,-1.2229 -3.2396,-9.78665 -7.19912,-19.03056 -3.95952,-9.2439 -9.41518,-23.84336 -12.1237,-32.44322 -3.32585,-10.56 -5.55581,-15.63611 -6.869,-15.63611 -1.06942,0 -10.31377,3.11699 -20.54297,6.92664 -14.70027,5.4748 -18.59855,7.44305 -18.59855,9.39045 0,6.74538 30.72107,33.9584 53.17322,47.10138 11.26413,6.59377 12.16012,6.86576 12.16012,3.69142 z M 386.9194,500.65771 c 6.87691,-4.55093 7.45281,-6.61412 3.77917,-13.539 -3.96542,-7.47492 -9.84584,-11.11869 -17.9436,-11.11869 -9.8422,0 -11.42249,1.43682 -11.41664,10.38024 0.0107,17.10478 11.56466,23.55306 25.58107,14.27745 z m 35.32099,-23.48097 c 4.63446,-3.01947 8.42629,-6.26506 8.42629,-7.2124 0,-0.94736 -2.55,-5.51654 -5.66667,-10.15374 -8.99892,-13.38925 -24.74486,-23.70571 -40.6882,-26.65819 -8.54776,-1.58292 -23.70393,-1.04014 -25.4256,0.91056 -0.61666,0.69871 -0.8497,5.98094 -0.51785,11.73829 l 0.60337,10.4679 7.28235,-0.90986 c 17.36931,-2.17015 34.73461,7.07805 43.35059,23.08712 1.24922,2.32114 2.7074,4.22026 3.24037,4.22026 0.53299,0 4.76089,-2.47048 9.39535,-5.48994 z m 34.85219,-23.2625 c 3.88132,-2.61384 7.38984,-5.6199 7.79669,-6.68014 1.01359,-2.64136 -8.92851,-17.55905 -17.24532,-25.87587 -13.55258,-13.55256 -34.2499,-24.83938 -52.7328,-28.75663 -9.31959,-1.97519 -35.8084,-2.60553 -38.42947,-0.91451 -1.01469,0.65467 -1.28925,4.15415 -0.82771,10.55023 l 0.69062,9.57064 12.8277,-0.11147 c 25.35152,-0.22028 44.68055,7.51472 62.32428,24.94066 5.95646,5.88291 12.11865,13.2462 13.69378,16.36287 1.57512,3.11666 3.30968,5.66666 3.85456,5.66666 0.54489,0 4.16633,-2.1386 8.04767,-4.75244 z m -262.89057,-13.044 c 7.95556,-3.18804 18.51466,-7.13696 23.46466,-8.77537 10.23887,-3.38899 10.05251,-2.91704 6.95883,-17.62391 -3.34923,-15.92169 -6.00615,-35.54009 -6.87883,-50.79252 l -0.82077,-14.34509 h -34.65965 -34.65964 l 0.85829,11.16621 c 1.63416,21.25975 7.69837,43.35672 17.6098,64.16712 4.38811,9.21344 12.00073,22 13.09793,22 0.31059,0 7.0738,-2.6084 15.02938,-5.79644 z m 61.60555,-18.79543 c 4.13917,-1.05886 13.22578,-2.86797 20.19245,-4.02024 6.96667,-1.15228 13.92135,-2.37344 15.45484,-2.7137 1.93992,-0.43044 3.92863,-3.30204 6.53677,-9.43876 5.50294,-12.9479 14.87964,-27.91652 25.75011,-41.10648 5.27539,-6.40103 9.59161,-12.49866 9.59161,-13.55026 0,-1.62648 -7.46697,-1.91202 -50,-1.91202 -27.5,0 -50,0.51286 -50,1.1397 0,12.41274 4.97969,53.54271 8.13528,67.19363 1.67517,7.24673 2.38707,7.46559 14.33894,4.40813 z m 200.36596,-48.11513 c 3.09198,-2.17781 7.01783,-6.60404 8.72414,-9.83604 2.94692,-5.58196 3.10236,-7.20632 3.10236,-32.421 0,-14.65372 0.58109,-27.63039 1.2972,-28.96846 0.71346,-1.3331 3.41488,-2.82112 6.00313,-3.30668 6.89411,-1.29334 14.94048,2.76794 21.86136,11.03416 3.16549,3.78084 6.29909,6.53827 6.96355,6.12762 1.90961,-1.1802 1.40634,-18.10743 -0.75362,-25.34727 -2.53494,-8.49677 -8.06118,-15.07544 -16.5404,-19.69041 -7.51033,-4.08764 -21.15362,-6.82584 -27.80486,-5.58043 l -4.30699,0.80645 -0.35968,28.25986 -0.35969,28.25986 -12.21268,0.018 c -11.40322,0.0168 -12.5895,0.28312 -17.89765,4.018 -8.55657,6.02051 -12.20862,13.86068 -11.61852,24.94254 0.58258,10.94059 5.23288,18.49677 14.39551,23.39095 5.00964,2.67588 7.47605,3.12628 14.94254,2.72869 7.30929,-0.38921 9.96929,-1.19937 14.5643,-4.43584 z M 217.72935,316.33334 c 0.8315,-16.22021 3.35898,-35.32248 6.90246,-52.16757 1.1261,-5.35333 1.73838,-10.23344 1.36062,-10.84468 -0.37776,-0.61123 -5.6306,-2.75001 -11.67296,-4.75287 -6.04237,-2.00284 -15.76792,-5.65003 -21.61232,-8.10487 -5.8444,-2.45484 -11.35085,-4.46334 -12.23656,-4.46334 -4.37913,0 -16.67164,23.45293 -23.71984,45.25516 -4.84034,14.97269 -8.73589,35.05236 -8.74538,45.07817 l -0.005,5.66667 h 34.4631 34.46312 z m 115.29523,-15.33333 -0.3579,-31 -14.66667,-0.99336 c -19.28957,-1.30645 -40.45948,-4.35128 -59.16317,-8.50935 -8.42024,-1.87192 -15.67123,-2.86289 -16.30567,-2.22845 -2.55748,2.55748 -9.19783,53.57343 -9.19783,70.66435 v 3.06681 h 50.02458 50.02457 z m 26.01973,25.33333 c 14.76361,-18.36205 28.9557,-46.15928 28.9557,-56.71384 0,-3.15786 -0.26612,-3.26217 -6.33333,-2.48241 -3.48333,0.44768 -12.18333,1.21353 -19.33333,1.70191 l -13,0.88794 v 31.13654 c 0,29.88818 0.10333,31.13653 2.5774,31.13653 1.42865,0 4.60808,-2.52563 7.13356,-5.66667 z m -26.02865,-126.20077 0.349,-52.5341 -11.77978,0.83615 c -13.42192,0.95272 -28.09143,3.78927 -36.03598,6.96804 -4.88244,1.95356 -6.0848,3.45835 -12.02582,15.05063 -3.63055,7.08402 -9.02488,18.71912 -11.9874,25.85574 -5.18614,12.49327 -14.869,40.90504 -14.869,43.62908 0,4.21219 63.72981,14.06923 83.33333,12.8891 2.61255,-0.15728 2.67375,-1.22669 3.01565,-52.69464 z m 55.31769,49.68993 c 3.47981,-0.75926 3.66666,-1.189 3.66666,-8.43259 0,-27.29694 -10.20952,-58.00652 -27.82514,-83.69622 -5.24123,-7.64352 -6.85288,-9.09106 -10.51571,-9.44483 l -4.32581,-0.41781 v 52.2901 52.29011 l 17.66666,-0.89436 c 9.71667,-0.49189 19.31667,-1.25437 21.33334,-1.6944 z M 236.7027,217.84957 c 3.12279,-9.61607 8.44219,-23.8324 11.8209,-31.59186 5.83821,-13.4079 7.23548,-18.2577 5.26022,-18.2577 -3.29748,0 -30.05992,18.00144 -41.85565,28.1537 -10.84192,9.33136 -22.9947,23.45394 -21.81924,25.35586 0.94369,1.52693 2.9022,2.35818 21.89108,9.29133 7.7,2.8114 15.1306,4.98132 16.51244,4.82204 1.97858,-0.22807 3.7189,-4.00467 8.19025,-17.77337 z M 122,441.83223 c -1.46666,-0.28883 -5.96666,-1.19189 -10,-2.00684 C 91.773618,435.7386 71.402169,418.70592 60.647725,396.88943 45.67907,366.524 45.827595,332.34181 61.062929,301.33334 c 3.633095,-7.39444 7.695647,-12.78366 15.591844,-20.68356 5.87321,-5.87596 11.932389,-11.63774 13.464841,-12.80396 1.532452,-1.16621 5.085697,-8.05861 7.8961,-15.31644 18.925876,-48.8758 50.295036,-93.00133 89.317626,-125.63895 48.12548,-40.25106 112.47871,-61.711506 169.00001,-56.357944 33.23294,3.147746 58.60877,10.469831 89,25.680563 25.36331,12.694271 43.76561,26.199711 66.009,48.443981 30.82396,30.82518 53.07828,65.05331 69.98855,107.64549 5.27404,13.28381 6.18617,14.68582 12.8064,19.68414 15.1368,11.42839 27.06057,30.14872 32.70491,51.34668 4.06048,15.24964 4.06184,37.34703 0.003,52.50818 -8.39621,31.36451 -29.85646,55.66133 -55.92425,63.3162 -9.73289,2.85808 -26.28933,4.27666 -27.47741,2.3543 -0.50631,-0.81922 1.17624,-6.74455 3.73897,-13.16741 11.70693,-29.33901 15.80248,-51.62193 15.74797,-85.67793 -0.044,-27.51854 -2.88796,-46.53039 -10.2534,-68.54487 -2.61974,-7.83013 -4.4083,-14.81076 -3.9746,-15.51253 0.43372,-0.70176 3.45318,-1.27594 6.7099,-1.27594 4.25952,0 5.9213,-0.5378 5.9213,-1.91628 0,-1.05396 -4.1568,-10.22165 -9.23733,-20.37267 C 525.7598,182.42417 490.95596,144.74107 443.71424,117.6964 409.35052,98.024046 372.57912,89.429127 330.00001,91.116919 c -40.10085,1.589556 -74.87063,13.050101 -110,36.257351 -39.85903,26.33178 -71.27334,63.2191 -94.21207,110.62574 -8.66433,17.90627 -8.81999,19.3264 -2.12127,19.35375 8.51565,0.0348 8.60475,0.54564 3.02191,17.32546 -7.98266,23.99274 -9.92023,37.53908 -9.91513,69.32079 0.004,22.76374 0.49282,29.78592 2.92598,42.0036 2.87714,14.447 9.2949,35.13687 14.82189,47.78352 1.55128,3.54958 2.48319,6.99958 2.07091,7.66667 -0.73561,1.19026 -9.33687,1.41331 -14.59223,0.37843 z"
         id="path5751" />
      <path
         style="fill:#2c2c2c;stroke-width:1.33333"
         d="m 322.22425,546.65303 c -48.23492,-4.56133 -93.13382,-25.5552 -126.8883,-59.33053 -33.58348,-33.60422 -53.85691,-75.70206 -59.40835,-123.36165 -1.92613,-16.53597 -1.01768,-43.36972 2.05254,-60.62751 4.61542,-25.94344 16.64443,-55.05089 32.81144,-79.39627 11.4678,-17.26897 36.33133,-42.00602 53.91249,-53.63825 34.18951,-22.6208 68.24022,-33.65058 108.62927,-35.1874 48.25093,-1.83597 93.36661,12.024 132.00001,40.55165 14.19731,10.48356 35.23501,32.26292 45.02561,46.61288 27.40297,40.16425 40.5301,88.81054 36.40261,134.9001 -2.67416,29.86094 -8.52702,50.81531 -21.45803,76.82396 -29.13702,58.60445 -84.48624,99.57309 -149.30353,110.5122 -15.1092,2.54994 -39.27567,3.51202 -53.77576,2.14082 z m -4.30147,-13.19473 c 0.41076,-0.6646 -3.1218,-6.99462 -7.85012,-14.0667 -14.91617,-22.30989 -20.73932,-41.82977 -20.73932,-69.5206 0,-14.15251 -0.3237,-16.74556 -2.17936,-17.45764 -3.0825,-1.18288 -36.4289,5.62349 -38.70566,7.90026 -1.62548,1.62546 -1.39927,3.43638 1.63874,13.11941 5.42899,17.30375 14.7852,40.30831 23.3644,57.44715 8.79578,17.57148 7.50891,16.63141 28.95875,21.1548 13.81125,2.91254 14.55028,2.98034 15.51257,1.42332 z m -60.58944,-20.34839 c 0,-0.85624 -3.22737,-9.10624 -7.17194,-18.33333 -3.94456,-9.22711 -9.38574,-23.67656 -12.0915,-32.1099 -2.70576,-8.43333 -5.69776,-16.13128 -6.64889,-17.10656 -1.43454,-1.47093 -4.88531,-0.59402 -20.24184,5.1438 -19.1581,7.15824 -21.84583,8.53566 -21.84583,11.19552 0,2.24323 20.45028,22.86155 31.65215,31.91223 11.15537,9.01315 30.40104,20.85501 33.894,20.85501 1.34963,0 2.45385,-0.70054 2.45385,-1.55677 z m 129.73897,-11.7472 c 5.41814,-3.43608 6.26104,-4.57052 6.26104,-8.42667 0,-5.34592 -7.0713,-14.3422 -13.30188,-16.923 -4.66152,-1.93086 -15.0283,-1.17209 -18.03072,1.31971 -2.71079,2.24973 -2.60967,13.64768 0.17308,19.51191 4.54786,9.58392 14.16009,11.32814 24.89848,4.51805 z m 35.8094,-23.69603 c 5.30074,-3.41469 7.76534,-5.86841 7.7733,-7.73896 0.0335,-7.86434 -17.252,-25.87953 -31.23398,-32.55253 -10.44886,-4.98678 -25.65414,-7.56192 -34.80731,-5.89492 l -6.61371,1.20449 -0.39169,10.4507 c -0.22701,6.05673 0.20756,11.17274 1.0336,12.16805 1.00539,1.21141 3.89883,1.51881 9.82132,1.04341 16.38605,-1.3153 30.96732,5.95939 38.42252,19.16928 2.21951,3.93276 4.98021,7.15048 6.13489,7.15048 1.15468,0 5.59216,-2.25 9.86106,-5 z m 35.46944,-23.70209 c 8.50839,-5.72988 8.77909,-7.9986 2.13215,-17.86875 -19.23554,-28.56312 -53.94381,-46.76249 -89.18139,-46.76249 -15.80055,0 -16.63523,0.59626 -16.63523,11.88365 0,11.39169 1.22049,12.65551 11.03724,11.42899 28.36388,-3.54384 65.40104,15.43852 78.5748,40.27129 1.67752,3.16218 3.9591,5.7494 5.07014,5.7494 1.11105,0 5.16208,-2.11594 9.00229,-4.70209 z m -271.9516,-9.15111 c 1.98026,-1.01926 11.40046,-4.66396 20.93379,-8.09933 9.53333,-3.43536 18.09887,-6.98838 19.03451,-7.89559 1.37849,-1.33659 1.30745,-3.52115 -0.37451,-11.51689 -3.43627,-16.33547 -6.04617,-35.75931 -6.89164,-51.2899 -0.43948,-8.07313 -1.39061,-15.42842 -2.11364,-16.34509 -0.98833,-1.25305 -9.50593,-1.66667 -34.32139,-1.66667 -27.48917,0 -33.28012,0.32932 -34.64174,1.96998 -1.1702,1.41 -1.35963,4.71126 -0.66642,11.61396 2.43247,24.22152 12.30044,54.67669 24.43603,75.41606 6.0452,10.33107 7.84405,11.29343 14.60501,7.81347 z m 69.82851,-22.05599 c 6.10791,-1.41672 15.90528,-3.26146 21.77195,-4.09942 15.6598,-2.23678 15.98163,-2.46026 21.85744,-15.17843 6.5034,-14.0766 15.32517,-27.80508 26.45877,-41.17527 7.13998,-8.57429 8.34663,-10.7024 6.99308,-12.33333 -1.38832,-1.67283 -8.94933,-1.97103 -49.97596,-1.97103 -37.13657,0 -48.66187,0.38764 -49.72827,1.67258 -3.22842,3.89002 4.95351,68.68144 9.34407,73.99409 1.68335,2.03688 0.1144,2.14431 13.27892,-0.90919 z m 194.14812,-44.82505 c 6.55448,-2.7338 13.36588,-9.34131 16.42404,-15.93243 2.14937,-4.63246 2.47841,-8.8753 2.50385,-32.28643 0.0275,-25.26681 0.19063,-27.03944 2.60829,-28.33333 7.29352,-3.90337 18.55722,0.59483 25.4205,10.15177 4.74776,6.61115 7.56017,7.3533 8.82148,2.32784 1.26854,-5.05433 -0.33446,-19.25658 -2.89611,-25.65878 -5.08951,-12.71995 -21.8252,-22.85167 -38.38713,-23.23944 -11.7714,-0.2756 -11.53775,-0.91038 -11.53775,31.34428 0,26.12797 -0.1544,27.91516 -2.33333,27.00864 -4.62826,-1.92555 -14.79153,-2.25683 -19.68551,-0.64167 -6.58847,2.1744 -15.13284,10.01311 -18.16028,16.66045 -10.30263,22.62155 14.31728,48.15234 37.22195,38.5991 z m -233.30951,-46.1991 c 0.93942,-0.93941 1.60452,-5.4809 1.61094,-11 0.0133,-11.31989 1.90161,-28.88534 4.95256,-46.06666 1.2371,-6.96667 2.2764,-14.97946 2.30956,-17.80622 l 0.0603,-5.13953 -16,-5.63017 c -8.8,-3.09659 -19.1643,-7.01385 -23.0318,-8.70501 -6.55304,-2.86546 -7.19692,-2.92538 -9.45697,-0.88008 -4.14807,3.75395 -15.85197,27.62761 -20.70111,42.22615 -7.61321,22.91991 -11.9546,48.81266 -8.81801,52.59202 1.40351,1.6911 6.88112,2.0095 34.57115,2.0095 23.81377,0 33.34541,-0.442 34.50341,-1.6 z m 116.00001,0 c 2.26824,-2.26824 2.26824,-59.86509 0,-62.13333 -0.88,-0.88 -4.9758,-1.6 -9.10176,-1.6 -12.41112,0 -35.54174,-2.6702 -54.63158,-6.30665 -26.12084,-4.97583 -27.5914,-5.08694 -28.51087,-2.1543 -4.33293,13.82002 -9.96329,68.8131 -7.36573,71.94296 2.09509,2.52444 97.09714,2.76412 99.60994,0.25132 z m 30.20415,-10.06666 c 9.98406,-13.26344 20.73702,-33.27888 24.07594,-44.81474 3.27032,-11.29886 2.8319,-11.52596 -18.68009,-9.67593 -9.53333,0.81987 -18.08333,1.97608 -19,2.56936 -2.33619,1.51201 -2.39872,59.65592 -0.0667,61.98797 2.99587,2.99587 4.88527,1.60459 13.67082,-10.06666 z M 334.34884,201.17613 c 0.30844,-45.52922 0.10546,-51.69251 -1.75302,-53.23492 -4.22981,-3.51045 -45.78933,3.78344 -51.64642,9.06417 -7.3929,6.6654 -34.28272,70.69255 -34.28272,81.63032 0,3.57608 2.80214,4.79799 18.19796,7.93546 21.6874,4.41961 40.24033,6.54384 55.13537,6.31273 l 14,-0.21721 z m 44.31021,50.74587 c 6.19066,-0.77626 12.02491,-2.04972 12.96502,-2.82994 3.85413,-3.19864 0.2548,-32.27831 -6.32392,-51.09205 -8.00354,-22.88843 -25.23718,-51.33334 -31.10084,-51.33334 -1.64962,0 -3.7193,0.72 -4.5993,1.6 -2.29618,2.29619 -2.29618,101.17049 0,103.46667 1.98086,1.98086 14.13655,2.05978 29.05904,0.18866 z M 230.23127,236.29731 c 0.86054,-0.54736 4.26194,-9.19213 7.55868,-19.21062 3.29675,-10.0185 8.74269,-24.5278 12.10207,-32.24291 3.35939,-7.71511 6.10799,-14.66115 6.10799,-15.43563 0,-3.04193 -5.44076,-1.08524 -16.78356,6.03599 -6.52142,4.09428 -15.9204,10.76843 -20.88662,14.83144 -11.17664,9.14396 -28.99649,27.93067 -28.99649,30.56976 0,2.20283 3.90713,4.04177 24,11.29587 15.88984,5.73669 14.82483,5.47474 16.89793,4.1561 z M 114.66667,439.84759 C 103.19613,438.01123 87.204704,429.44668 77.961525,420.18936 58.655693,400.85401 49.715595,375.82588 50.984674,344.66668 c 1.31321,-32.24278 13.691231,-56.52758 38.470122,-75.47566 3.567315,-2.72788 5.524911,-6.13914 9.098835,-15.85544 6.479579,-17.61581 20.533909,-44.84249 32.361479,-62.69215 C 204.84609,79.070015 333.0352,40.538353 444.66668,96.334573 c 60.71188,30.345317 111.72926,89.750887 137.50565,160.114087 3.56909,9.74275 4.37413,10.83895 11.9159,16.22579 34.79478,24.85272 45.46155,83.1336 23.08675,126.14079 -13.34061,25.64235 -34.86823,40.1037 -62.63348,42.07452 -6.53115,0.4636 -11.87481,0.53604 -11.87481,0.161 0,-0.37505 1.73689,-4.51489 3.85977,-9.19965 20.94247,-46.21586 23.59632,-108.19214 6.78191,-158.37982 -2.18626,-6.52555 -3.97502,-12.49163 -3.97502,-13.25796 0,-0.76633 2.55,-1.57783 5.66667,-1.80332 8.11281,-0.58699 7.92539,-3.33843 -1.513,-22.21083 -15.45776,-30.90836 -28.96034,-50.15488 -51.4585,-73.34876 -36.90453,-38.04571 -74.58856,-59.56221 -122.02851,-69.674771 -20.40832,-4.35035 -59.82053,-4.365993 -80,-0.03175 -75.46087,16.207841 -137.51091,67.685321 -175.03703,145.212871 -8.86507,18.31489 -8.81265,20.30991 0.53362,20.30991 2.84354,0 5.17007,0.37878 5.17007,0.84174 0,0.46296 -1.82583,6.15942 -4.0574,12.65876 -17.31062,50.41646 -14.9726,111.48571 6.09171,159.11585 1.81446,4.10282 3.29902,8.04259 3.29902,8.755 0,1.5458 -11.10755,1.44664 -21.33333,-0.19044 z"
         id="path5749" />
      <path
         style="fill:#010101;stroke-width:1.33333"
         d="m 320.89092,545.2505 c -14.70475,-1.30415 -35.73883,-5.75399 -48.11595,-10.17912 -14.22583,-5.0861 -39.17148,-18.18124 -52.33168,-27.47138 -45.24818,-31.94185 -76.57294,-85.53207 -83.18117,-142.30581 -1.95618,-16.80627 -1.00476,-46.30038 2.04174,-63.29418 6.87906,-38.37233 27.45163,-76.92188 56.61295,-106.0832 28.56914,-28.56915 63.67303,-47.67444 103.16532,-56.14777 18.73633,-4.02 60.35604,-4.33256 80.25122,-0.60269 52.65174,9.87095 100.68845,40.82738 130.20407,83.90778 27.52123,40.16941 40.08823,87.30024 35.93056,134.75262 -2.52721,28.84377 -7.35833,47.06033 -18.95394,71.4692 -20.63894,43.4452 -53.77289,76.57915 -97.21809,97.21809 -23.7728,11.29345 -42.74168,16.42225 -69.49622,18.79037 -16.74738,1.48236 -21.66341,1.47554 -38.90881,-0.0539 z m -2.99996,-10.0598 c 1.15998,-0.44512 2.10905,-1.28988 2.10905,-1.87724 0,-0.58735 -3.8376,-6.80775 -8.52799,-13.82311 -15.76413,-23.57817 -20.80534,-40.43093 -20.80534,-69.55209 0,-21.42923 0.82716,-20.71266 -19.38234,-16.79101 -23.18202,4.49848 -24.61766,5.05079 -24.61766,9.47059 0,8.30664 17.6276,54.00004 29.04474,75.28836 5.61542,10.47046 6.42299,10.92011 27.62192,15.37992 6.6,1.38851 12.10094,2.56716 12.22428,2.61923 0.12334,0.0521 1.17336,-0.26952 2.33334,-0.71465 z m -59.22428,-21.17247 c 0,-1.08999 -3.54348,-10.26604 -7.8744,-20.39124 -4.33092,-10.1252 -10.08658,-25.43339 -12.79037,-34.01821 -4.6617,-14.8015 -5.09918,-15.60691 -8.45893,-15.57296 -1.94864,0.0197 -11.94297,3.20818 -22.20964,7.08556 -14.53883,5.49082 -18.75212,7.6274 -19.05311,9.66184 -0.26254,1.77461 3.37096,6.45362 11.33334,14.59437 14.5162,14.84139 27.53516,25.43056 41.82493,34.01896 11.10396,6.67368 17.22818,8.31657 17.22818,4.62168 z m 129.8102,-12.26321 c 8.24041,-5.79159 8.243,-11.33216 0.009,-20.44563 -7.68358,-8.50481 -20.75165,-10.37745 -27.22744,-3.90167 -5.49048,5.49048 -1.0756,23.59455 6.74104,27.64296 5.06455,2.62306 14.13199,1.16368 20.47687,-3.29566 z m 35.09684,-23.24495 c 6.1036,-3.97664 8.42629,-6.29364 8.42629,-8.40563 0,-7.82304 -18.16177,-27.14884 -31.39836,-33.41076 -10.12656,-4.79063 -24.93038,-7.79232 -33.1656,-6.72483 -10.96628,1.42152 -11.43894,1.99063 -11.41562,13.74474 0.0107,5.65753 0.57592,11.16471 1.25488,12.23816 0.94125,1.48819 3.59806,1.86371 11.18606,1.58112 5.4734,-0.20384 12.29422,0.26017 15.15736,1.03115 8.23674,2.21792 17.3878,9.05301 21.30603,15.91385 6.68133,11.69904 6.83159,11.73152 18.64896,4.0322 z m 35.19858,-23.55219 c 4.57056,-3.18848 7.39017,-6.17396 7.66961,-8.1208 1.01067,-7.04122 -19.37623,-30.46067 -35.98827,-41.34149 -20.49184,-13.4221 -57.23497,-21.5001 -72.92133,-16.0318 -4.19475,1.46229 -4.19896,1.47356 -4.19896,11.23809 0,12.89876 1.33441,14.31072 12.4534,13.17707 10.33256,-1.05348 27.21276,1.44306 37.24804,5.5089 10.39974,4.21351 25.15496,14.19974 31.0624,21.02282 2.66158,3.07415 6.63583,8.73935 8.83165,12.58935 2.40548,4.21761 4.91124,7 6.30406,7 1.27142,0 5.56414,-2.26896 9.5394,-5.04214 z m -263.23696,-12.7543 c 7.95556,-3.18804 18.4626,-7.11965 23.34896,-8.73687 4.88635,-1.61724 9.18232,-3.7171 9.54659,-4.66636 0.36426,-0.94927 -0.2049,-5.86298 -1.2648,-10.91935 -3.44071,-16.41423 -5.94966,-35.54347 -6.7758,-51.66171 -0.56002,-10.92568 -1.38908,-16.36093 -2.6948,-17.66666 -1.52456,-1.52455 -8.23706,-1.88595 -35.02882,-1.88595 -39.44769,0 -38.1036,-0.48449 -36.69261,13.22633 1.33941,13.01538 5.75443,32.45588 10.30251,45.36478 7.34998,20.86162 19.07094,42.74223 22.89606,42.74223 1.04392,0 8.40714,-2.6084 16.36271,-5.79644 z m 58.46467,-18.07839 c 2.93333,-0.75178 12.53333,-2.54324 21.33333,-3.98104 8.8,-1.43779 16.95351,-2.98556 18.11891,-3.43951 1.1654,-0.45395 4.11185,-5.36028 6.54767,-10.90295 5.691,-12.94974 16.3376,-29.87584 26.58286,-42.26174 8.12335,-9.82063 9.88711,-14.56267 5.97484,-16.06395 -1.15997,-0.44513 -23.61712,-0.80932 -49.90476,-0.80932 -40.39907,0 -48.1008,0.30508 -49.76711,1.9714 -2.22896,2.22896 -2.0326,7.91651 1.22083,35.36193 2.56517,21.6394 6.43779,40.01694 8.73685,41.46078 1.00279,0.62976 2.72325,0.89442 3.82325,0.58814 1.1,-0.30628 4.4,-1.17196 7.33333,-1.92374 z m 195.49903,-44.849 c 3.20887,-1.13144 8.15414,-4.28144 10.98948,-7 8.84032,-8.47619 9.43191,-10.93339 10.17816,-42.27618 l 0.66667,-28 5.68083,-0.41069 c 7.46689,-0.53982 14.54713,3.45636 19.7035,11.12092 2.17195,3.22842 4.65514,6.15369 5.51819,6.50057 3.22187,1.29495 5.0978,-3.56592 5.05041,-13.08656 -0.0653,-13.12829 -3.22756,-21.52391 -10.97238,-29.13139 -8.39079,-8.24197 -17.08826,-11.96017 -29.72859,-12.70904 -15.05812,-0.89212 -14.58529,-1.9064 -14.58529,31.28742 0,25.54637 -0.15632,27.31772 -2.33334,26.44005 -5.35654,-2.15953 -12.36768,-2.21419 -18.59745,-0.14499 -11.47394,3.81103 -21.73588,17.37528 -21.73588,28.7305 0,14.83097 15.23402,30.30584 30.16569,30.6426 2.29114,0.0517 6.79114,-0.83177 10,-1.96321 z M 217.90477,332.57144 c 1.53865,-1.53864 2.09814,-4.81495 2.10617,-12.33334 0.0133,-12.05862 1.82649,-29.27498 4.94104,-46.90476 1.23077,-6.96666 2.27007,-14.75325 2.30956,-17.30352 0.0688,-4.44238 -0.23575,-4.74312 -7.26153,-7.17094 -4.03334,-1.39375 -14.0235,-5.15717 -22.20036,-8.36315 -8.17686,-3.20598 -16.08331,-5.82906 -17.5699,-5.82906 -9.91846,0 -30.41409,52.25014 -34.29387,87.42639 -1.42729,12.94075 -2.49978,12.57362 36.73079,12.57362 28.3521,0 33.44572,-0.30287 35.2381,-2.09524 z m 116,0 c 1.77736,-1.77736 2.09524,-6.53103 2.09524,-31.33334 0,-26.60701 -0.22065,-29.45874 -2.45199,-31.69008 -1.99829,-1.99829 -5.51384,-2.62026 -19,-3.36145 -19.73821,-1.08479 -29.20825,-2.33461 -53.5867,-7.0722 -12.13248,-2.35776 -18.82062,-3.12172 -19.6929,-2.24944 -2.71148,2.71148 -7.63164,34.19973 -9.89556,63.33011 -0.64636,8.31697 -0.39841,10.58893 1.34599,12.33333 1.88376,1.88377 7.90878,2.13831 50.61449,2.13831 42.29148,0 48.74351,-0.26732 50.57143,-2.09524 z m 23.75092,-2.2381 c 6.58406,-7.02922 16.8839,-22.26264 22.31242,-33 5.77841,-11.4294 10.96004,-27.1005 9.88612,-29.89912 -1.09104,-2.84321 -2.9268,-3.10428 -13.85422,-1.97022 -5.5,0.5708 -13.40714,1.0749 -17.57142,1.12025 -12.00851,0.13073 -11.76191,-0.58384 -11.76191,34.08243 0,25.32178 0.31543,30.12496 2.09524,31.90476 2.98579,2.98578 4.31372,2.65161 8.89377,-2.2381 z m -23.03592,-78.24568 c 0.88104,-1.64624 1.38024,-20.66019 1.38024,-52.57143 0,-58.80784 0.98588,-55.01157 -13.91019,-53.56328 -20.10217,1.95447 -38.76074,7.04555 -43.08981,11.75727 -7.95055,8.65331 -33.66667,71.45168 -33.66667,82.21348 0,2.02812 1.60555,3.11647 6.93018,4.69771 16.5595,4.91764 49.46904,9.71108 68.02292,9.90788 11.52172,0.12213 13.1056,-0.1476 14.33333,-2.44163 z m 42.74855,1.19467 c 6.21411,-0.76139 12.34696,-1.70137 13.6286,-2.08887 3.61328,-1.09244 4.229,-6.51246 2.46439,-21.69309 -2.77256,-23.85182 -12.3147,-49.46451 -26.20643,-70.3425 -9.20251,-13.83052 -13.60159,-16.62067 -18.49296,-11.72929 -1.83097,1.83096 -2.09524,8.46176 -2.09524,52.57143 0,44.10967 0.26427,50.74047 2.09524,52.57143 2.50044,2.50044 12.06175,2.73805 28.6064,0.71089 z M 239.23533,216.00001 c 3.8428,-11.36667 9.48691,-26.24359 12.54247,-33.05982 6.44401,-14.3751 6.72698,-16.27352 2.42566,-16.27352 -3.85636,0 -23.71584,12.32891 -35.84851,22.25503 -12.53826,10.25795 -30.57984,29.59252 -30.07237,32.2276 0.51097,2.65321 4.40225,4.57596 22.38409,11.06033 21.43488,7.72958 20.24764,8.4032 28.56866,-16.20962 z M 113.51646,438.50016 C 98.467862,435.99961 79.158624,422.87821 69.11194,408.32553 62.551686,398.82296 56.169761,383.90597 53.862862,372.68265 c -3.327639,-16.18933 -2.096547,-41.87184 2.685128,-56.01597 6.403543,-18.9416 17.88417,-35.05687 32.953442,-46.2565 3.905273,-2.90244 5.799777,-6.09384 9.893806,-16.66666 11.872882,-30.66174 32.889102,-66.34594 53.706012,-91.18939 37.93138,-45.26836 91.98879,-77.508716 145.21629,-86.608413 68.46922,-11.705395 132.9289,5.012179 189.62494,49.179103 37.92094,29.54088 71.22166,76.04439 92.09097,128.60243 5.53661,13.9436 5.96132,14.5664 13.57578,19.90764 9.14908,6.41771 17.7577,17.30477 24.35518,30.80128 7.46309,15.26727 9.29221,24.25732 9.27044,45.56384 -0.0227,22.20352 -1.88707,30.35027 -10.97903,47.97486 -13.85771,26.86286 -37.553,41.98252 -65.84909,42.01743 l -6.25996,0.008 3.09305,-7.00001 c 1.70117,-3.85 5.01675,-13 7.36795,-20.33333 14.91918,-46.53277 14.75954,-94.02422 -0.46891,-139.48818 l -4.41421,-13.17877 h 4.36197 c 6.358,0 8.58007,-1.22384 8.58007,-4.7256 0,-4.57701 -17.10806,-37.94504 -27.15565,-52.96511 C 522.97347,183.56697 513.25339,172.13837 494.42376,154.00001 461.90407,122.67417 430.5556,104.86451 389.80683,94.56517 350.40221,84.605562 312.82514,86.324834 271.85985,99.961623 210.71175,120.317 156.36493,170.71877 124.45461,236.66667 c -9.53758,19.71098 -9.36009,23.33334 1.14329,23.33334 3.25533,0 3.89739,0.45619 3.28402,2.33333 -12.41629,37.99843 -14.74334,50.89512 -14.73575,81.66667 0.005,18.84695 0.58758,26.28154 3.03178,38.66667 2.91181,14.75464 10.66789,41.07605 14.14406,48 0.92043,1.83333 2.08994,4.68333 2.59893,6.33333 0.88312,2.86285 0.60129,2.99289 -6.16442,2.84414 -3.89942,-0.0857 -10.30744,-0.69052 -14.24006,-1.34399 z"
         id="path5747" />
    </g>
  </g>
</svg>
