<svg xmlns="http://www.w3.org/2000/svg" viewBox="0 0 192 192"><path d="M106.858 27.15a68.562 68.562 0 0 1 48.525 20.172A68.98 68.98 0 0 1 175.482 96a68.98 68.98 0 0 1-20.099 48.678 68.562 68.562 0 0 1-48.525 20.172m0-22.977a45.648 45.648 0 0 0 26.889-8.756 45.876 45.876 0 0 0 16.62-22.939 46.014 46.014 0 0 0 0-28.356 45.876 45.876 0 0 0-16.62-22.939 45.648 45.648 0 0 0-26.889-8.756M79.263 28.581c3.138-.45 4.728 2.902 4.728 10.057v114.601c0 11.489-4.076 13.124-12.229 5.07l-50.707-50.82A16.754 16.754 0 0 1 16.498 96c0-4.272 1.631-8.385 4.557-11.489l50.789-50.942a15.854 15.854 0 0 1 7.419-4.988Zm27.636 43.174a24.145 24.145 0 0 1 17.042 7.128A24.292 24.292 0 0 1 130.994 96a24.292 24.292 0 0 1-7.053 17.117 24.145 24.145 0 0 1-17.042 7.128" fill="none" stroke="#000" stroke-width="12" stroke-linecap="round" stroke-linejoin="round"/></svg>