<svg xmlns="http://www.w3.org/2000/svg" viewBox="0 0 192 192"><path d="M95.19 127.034V66.585M64.966 96.81h60.449m-30.225 0c-18.54 18.54-32.484 26.355-32.484 44.895a32.679 32.679 0 0 0 42.967 32.126 32.676 32.676 0 0 0 22.346-32.126m-20.494 31.297a14.868 14.868 0 0 0 2.383-10.199 14.868 14.868 0 0 0-14.737-12.928 14.872 14.872 0 0 0-9.802 3.69 14.867 14.867 0 0 0-2.552 19.437M95.19 96.81c18.541-18.541 32.485-26.356 32.485-44.896a32.68 32.68 0 0 0-43.179-33.641 32.68 32.68 0 0 0-21.943 33.641m20.302-31.297a14.868 14.868 0 0 0 2.553 19.437 14.865 14.865 0 0 0 24.538-9.238 14.869 14.869 0 0 0-2.383-10.199M95.19 96.81C76.65 78.269 68.835 64.325 50.295 64.325a32.683 32.683 0 0 0-32.126 22.347 32.676 32.676 0 0 0 32.126 42.967m-31.297-20.494a14.867 14.867 0 0 0 19.437-2.553 14.87 14.87 0 0 0 3.69-9.801 14.864 14.864 0 0 0-23.127-12.354M95.19 96.81c18.541 18.54 26.356 32.484 44.896 32.484a32.68 32.68 0 0 0 33.641-21.944 32.675 32.675 0 0 0-33.641-43.178m31.297 20.303a14.869 14.869 0 0 0-10.199-2.383 14.868 14.868 0 0 0-12.928 14.737c0 3.606 1.312 7.091 3.69 9.802a14.867 14.867 0 0 0 19.437 2.552" fill="none" stroke="#000" stroke-width="12" stroke-linecap="round" stroke-linejoin="round"/></svg>