<svg xmlns="http://www.w3.org/2000/svg" viewBox="0 0 192 192"><path fill="none" stroke="#000" stroke-width="8" d="M64.633 171.587c-31.571-.213-31.907-.224-34.336-1.13-4.036-1.506-6.369-3.249-8.286-6.19l-1.796-2.754V30.22l1.177-1.924c1.758-2.872 5.145-5.406 9.043-6.765l3.405-1.188 69.08-.112 69.08-.112v9.072h-67.881c-75.418 0-70.362-.193-71.988 2.745-1.039 1.877-.568 3.419 1.501 4.913l1.647 1.19 56.779-.144c31.229-.079 61.991-.012 68.361.149l11.581.292v133.653l-37.742-.093c-20.758-.051-52.089-.19-69.625-.309Zm49.051-76.215V76.78l-8.562-6.51c-4.709-3.581-8.814-6.511-9.122-6.511-.309 0-4.427 2.915-9.152 6.477l-8.59 6.476v37.253h35.426Z"/><path fill="none" d="M34.682 171.128c-6.196-.917-10.914-3.825-13.237-8.159l-1.23-2.296-.169-63.786c-.125-47.149-.005-64.377.461-66.05 1.249-4.482 6.064-8.472 11.656-9.659 2.296-.488 14.43-.637 71.302-.874L172 20.017v9.174H35.093L33.24 30.59c-2.087 1.576-2.405 3.186-1.026 5.199 1.786 2.607-2.651 2.456 71.905 2.456H172v133.333l-67.445-.045c-37.095-.025-68.538-.207-69.873-.405Zm79.002-75.789V76.713l-8.992-6.781-8.993-6.781-8.72 6.575-8.721 6.575v37.664h35.426Z"/><path fill="none" stroke="#000" stroke-width="8" d="m96.115 158.512-.144-13.066-2.997-.206-2.998-.205-.145-11.009-.145-11.008H78.258v-8.547l17.713-.304 17.713-.304V76.301l-8.993-6.781-8.992-6.78V46.912l-31.475-.115-31.474-.116-3.115-1.155c-3.82-1.416-7.104-4.146-8.585-7.133-1.261-2.545-1.369-4.117-.496-7.227 1.213-4.32 4.476-7.446 9.743-9.336l2.998-1.075 69.353-.111 69.352-.11v8.657H34.741l-1.677 1.266c-1.378 1.041-1.677 1.598-1.677 3.128 0 1.568.292 2.082 1.853 3.26l1.853 1.4H172v133.333H96.259Z"/><path fill="none" stroke="#000" stroke-width="8" d="M90.249 134.143v-11.125H78.258v-8.642h35.426v8.642h-11.427l-.145 11.008-.146 11.009-5.859.116-5.858.117Zm5.813-87.119c-.2-.151-.363-2.188-.363-4.527v-4.252H172v9.053h-37.787c-20.783 0-37.951-.123-38.151-.274Zm-.363-22.154v-4.321H172v8.642H95.699Z"/></svg>