<svg xmlns="http://www.w3.org/2000/svg" viewBox="0 0 192 192"><path d="M33.446 136.335a3.786 3.786 0 0 1 3.787-3.786h7.5a3.786 3.786 0 0 1 3.786 3.786v7.673a3.786 3.786 0 0 1-3.786 3.787h-7.5a3.786 3.786 0 0 1-3.787-3.787Zm15.827 27.443a3.787 3.787 0 0 1 3.787-3.787h85.88a3.787 3.787 0 0 1 3.787 3.787v8.436A3.786 3.786 0 0 1 138.94 176H53.06a3.786 3.786 0 0 1-3.787-3.786Zm15.845-31.229a3.786 3.786 0 0 0-3.786 3.786v7.673a3.786 3.786 0 0 0 3.786 3.787h7.5a3.786 3.786 0 0 0 3.787-3.787v-7.673a3.786 3.786 0 0 0-3.787-3.786Zm50.477 3.786a3.786 3.786 0 0 1 3.786-3.786h7.501a3.787 3.787 0 0 1 3.787 3.786v7.673a3.787 3.787 0 0 1-3.787 3.787h-7.501a3.786 3.786 0 0 1-3.786-3.787Zm31.672-3.786a3.787 3.787 0 0 0-3.787 3.786v7.673a3.787 3.787 0 0 0 3.787 3.787h7.5a3.786 3.786 0 0 0 3.787-3.787v-7.673a3.786 3.786 0 0 0-3.787-3.786ZM33.446 108.858a3.786 3.786 0 0 1 3.787-3.786h7.5a3.786 3.786 0 0 1 3.786 3.786v7.674a3.786 3.786 0 0 1-3.786 3.786h-7.5a3.786 3.786 0 0 1-3.787-3.786Zm113.821-3.786a3.787 3.787 0 0 0-3.787 3.786v7.674a3.787 3.787 0 0 0 3.787 3.786h7.5a3.786 3.786 0 0 0 3.787-3.786v-7.674a3.786 3.786 0 0 0-3.787-3.786Z"/><path fill-rule="evenodd" d="M140.168 102.514a19.741 19.741 0 0 0 7.08-15.146V16H72.841c-15.515 0-28.093 12.577-28.093 28.092v43.364a19.741 19.741 0 0 0 6.969 15.052l40.488 34.354a5.314 5.314 0 0 0 6.847.025ZM59.933 79.018v10.547h35.758l36.371-.067v-10.48Zm72.129-15.185V31.185h-6.833v18.222a7.593 7.593 0 0 1-15.185 0V31.185h-6.834V36.5a7.592 7.592 0 1 1-15.184 0v-5.315H72.841c-7.129 0-12.908 5.779-12.908 12.907v19.741Z"/></svg>