<svg xmlns="http://www.w3.org/2000/svg" viewBox="0 0 192 192"><path fill="none" stroke="#000" stroke-linecap="round" stroke-linejoin="round" stroke-width="8" d="M44.922 49.517h32.836M44.697 63.598h32.881M44.697 77.452h32.881M44.697 91.668h32.881M27.22 31.06v113.183h50.087c8.063 0 19.324 7.897 19.324 7.897L96.27 37.152a24.8 24.8 0 0 0-17.341-7.13Zm99.769 113.183h-11.035c-8.063 0-19.323 7.897-19.323 7.897l.405-114.988a24.8 24.8 0 0 1 17.251-7.13h12.612m13.918.406 25.224.406v113.409h-25.224"/><path fill="none" stroke="#000" stroke-linecap="round" stroke-linejoin="round" stroke-width="8" d="M140.817 155.705H175.5V36.836h-7.162m-141.929.406H16.5v118.373h68.284a46.709 46.709 0 0 0 11.396 2.618 42.15 42.15 0 0 0 10.72-2.528h20.089m0-132.814v146.218l6.712-4.739 7.116 4.513V23.297Z"/></svg>