<svg xmlns="http://www.w3.org/2000/svg" viewBox="0 0 192 192"><path d="M96 45.271a51.649 51.649 0 0 0-30.137 9.688c-8.758 6.296-15.28 15.178-18.626 25.365a50.23 50.23 0 0 0 0 31.352c3.346 10.187 9.868 19.069 18.626 25.365A51.649 51.649 0 0 0 96 146.729a51.649 51.649 0 0 0 30.137-9.688c8.758-6.296 15.28-15.178 18.626-25.365a50.23 50.23 0 0 0 0-31.352c-3.346-10.187-9.868-19.069-18.626-25.365A51.649 51.649 0 0 0 96 45.271ZM45.519 87.113 64.26 16.5M45.519 87.113 44.728 96m101.753 8.887L127.74 175.5" fill="none" stroke="#000" stroke-width="12" stroke-linecap="round" stroke-linejoin="round"/></svg>