<svg xmlns="http://www.w3.org/2000/svg" viewBox="0 0 192 192"><path d="M93.171 174.154c-2.191-1.015-7.551-5.446-11.912-9.846l-7.93-8-3.271 3.146-3.271 3.146v-27.061h26.021l-2.105 2.933c-1.158 1.614-2.582 3.227-3.164 3.584-.603.37 4.822 6.496 12.618 14.246 8.793 8.742 13.409 14.025 12.929 14.796-1.219 1.957-8.697 4.902-12.448 4.902-1.917 0-5.277-.831-7.467-1.846Zm20.704-19.075-9.163-9.167 8.665-9.174c4.766-5.046 9.002-9.158 9.413-9.138.41.019.746 2.036.746 4.481v4.446h39.089l-.593 3.628c-.784 4.791-5.212 10.168-10.639 12.919-3.81 1.932-5.915 2.223-16.066 2.223h-11.682l-.303 4.475-.304 4.475Zm-65.506 5.492c-9.083-4.751-11.399-9.864-11.428-25.225l-.022-11.554-4.537-.301-4.537-.301 8.603-9.139c4.731-5.026 9.116-9.138 9.744-9.138 1.259 0 18.604 16.79 18.604 18.009 0 .419-2.016.762-4.48.762h-4.48v38.528l-2.24-.039c-1.232-.022-3.585-.743-5.227-1.602Zm88.11-50.418V96.622l3.505 3.371 3.505 3.371 13.838-13.705 13.838-13.705 2.042 3.333c2.732 4.457 3.528 10.487 2.086 15.799-.914 3.367-3.083 6.285-9.545 12.837-4.599 4.664-8.362 8.871-8.362 9.349 0 .479 1.204 2.117 2.676 3.641l2.675 2.771h-26.258ZM18.055 111.93c-2.255-4.387-2.749-12.95-1.008-17.493.569-1.486 4.825-6.544 9.457-11.242l8.422-8.54-2.986-2.838c-1.642-1.562-2.985-3.2-2.985-3.642 0-.442 6.272-.803 13.938-.803h13.938v29.037l-3.458-3.326-3.458-3.325-5.751 5.313c-3.163 2.923-9.246 8.667-13.517 12.765-4.271 4.097-8.391 7.589-9.157 7.76-.795.176-2.267-1.394-3.435-3.666Zm118.424-33.196-9.419-9.386h9.419V30.039l3.424.766c5.091 1.14 10.123 4.589 12.704 8.708 2.028 3.235 2.33 5.151 2.636 16.695l.345 13.039 4.413.298 4.414.297-9.258 9.139-9.258 9.138ZM68.778 61.046v-4.832l-10.484.672c-5.767.37-14.551.369-19.52-.004l-9.035-.677.563-3.446c.853-5.211 4.933-10.566 9.853-12.929 3.714-1.784 6.166-2.096 16.493-2.096h12.13v-10.36L78.479 37l9.701 9.626-9.701 9.625-9.701 9.626Zm30.18-8.3c1.471-1.524 2.675-3.197 2.675-3.718 0-.522-6.015-6.905-13.368-14.186-13.284-13.155-13.354-13.248-11.2-14.894C79.882 17.796 85.251 16 88.871 16c5.26 0 10.199 2.973 18.471 11.117l8.197 8.072 3.501-3.367 3.501-3.367v27.062H96.283Z"/></svg>