<svg xmlns="http://www.w3.org/2000/svg" viewBox="0 0 192 192"><path fill="none" stroke="#000" stroke-linecap="round" stroke-linejoin="round" stroke-width="8" d="M65.985 141.806V48.969l46.163 92.837 46.163-92.837v92.837M33.689 109.338a21.74 21.74 0 0 1 7.168-14.878 21.737 21.737 0 0 1 15.557-5.541m-22.725.002v54.11"/><path fill="none" stroke="#000" stroke-linecap="round" stroke-linejoin="round" stroke-width="8" d="M166.905 16.5H25.095a8.6 8.6 0 0 0-7.444 4.297 8.6 8.6 0 0 0-1.151 4.298v141.81a8.6 8.6 0 0 0 4.297 7.444 8.6 8.6 0 0 0 4.298 1.151h141.81a8.599 8.599 0 0 0 6.078-2.517 8.599 8.599 0 0 0 2.517-6.078V25.095a8.599 8.599 0 0 0-2.517-6.078 8.599 8.599 0 0 0-6.078-2.517Z"/></svg>