<svg
    xmlns="http://www.w3.org/2000/svg"
    viewBox="0 0 192 192"
    id="vector">
    <path
        id="path"
        d="M 52.827 155.228 C 51.213 153.614 51.493 152.556 54.501 148.907 L 57.247 145.574 L 69.518 145.574 C 77.869 145.574 82.13 145.232 82.86 144.502 C 84.273 143.089 84.273 131.97 82.86 130.558 C 82.067 129.764 73.683 129.485 50.682 129.485 C 20.767 129.485 19.507 129.417 17.788 127.697 C 16.049 125.959 16 124.718 16 82.558 C 16 40.398 16.049 39.157 17.788 37.418 C 19.546 35.66 20.758 35.631 91.307 35.644 C 130.76 35.651 163.482 35.953 164.023 36.314 C 166.753 38.137 167.061 41.238 167.061 66.856 L 167.061 92.837 L 170.126 92.837 C 176.074 92.837 176 92.438 176 124.569 C 176 149.67 175.814 153.677 174.595 154.896 C 173.43 156.061 170.641 156.301 158.258 156.301 C 138.297 156.301 139.352 157.128 139.352 141.484 L 139.352 129.451 L 119.464 129.691 L 99.575 129.932 L 99.312 137.005 C 99.123 142.06 99.378 144.288 100.206 144.813 C 100.842 145.217 106.865 145.553 113.589 145.561 L 125.814 145.574 L 128.561 148.907 C 131.755 152.781 131.962 154.1 129.578 155.375 C 126.962 156.776 54.235 156.636 52.827 155.228 Z M 159.459 152.732 C 159.761 152.245 159.678 151.257 159.276 150.538 C 158.295 148.786 155.892 150.281 156.624 152.188 C 157.242 153.799 158.635 154.067 159.459 152.732 Z M 170.637 122.781 L 170.637 98.2 L 145.609 98.2 L 145.609 147.362 L 170.637 147.362 Z M 139.352 109.667 C 139.352 92.393 139.042 92.837 151.124 92.837 L 159.938 92.837 L 159.701 67.586 L 159.464 42.334 L 23.598 42.334 L 23.365 81.664 C 23.236 103.295 23.324 121.496 23.56 122.111 C 23.897 122.989 36.349 123.228 81.67 123.228 L 139.352 123.228 Z M 79.642 99.809 C 77.95 98.117 78.147 66.591 79.859 65.17 C 80.898 64.308 82.933 65.088 90.362 69.2 C 101.153 75.173 109.167 80.185 109.995 81.478 C 111.367 83.619 110.048 84.567 88.771 96.744 C 80.62 101.409 81.086 101.252 79.642 99.809 Z"
        fill="#000000"
        stroke-width="12"/>
</svg>
