<svg xmlns="http://www.w3.org/2000/svg" viewBox="0 0 192 192"><path d="M52.827 155.228c-1.614-1.614-1.334-2.672 1.674-6.321l2.746-3.333h12.271c8.351 0 12.612-.342 13.342-1.072 1.413-1.413 1.413-12.532 0-13.944-.793-.794-9.177-1.073-32.178-1.073-29.915 0-31.175-.068-32.894-1.788C16.049 125.959 16 124.718 16 82.558c0-42.16.049-43.401 1.788-45.14 1.758-1.758 2.97-1.787 73.519-1.774 39.453.007 72.175.309 72.716.67 2.73 1.823 3.038 4.924 3.038 30.542v25.981h3.065c5.948 0 5.874-.399 5.874 31.732 0 25.101-.186 29.108-1.405 30.327-1.165 1.165-3.954 1.405-16.337 1.405-19.961 0-18.906.827-18.906-14.817v-12.033l-19.888.24-19.889.241-.263 7.073c-.189 5.055.066 7.283.894 7.808.636.404 6.659.74 13.383.748l12.225.013 2.747 3.333c3.194 3.874 3.401 5.193 1.017 6.468-2.616 1.401-75.343 1.261-76.751-.147Zm106.632-2.496c.302-.487.219-1.475-.183-2.194-.981-1.752-3.384-.257-2.652 1.65.618 1.611 2.011 1.879 2.835.544Zm11.178-29.951V98.2h-25.028v49.162h25.028Zm-31.285-13.114c0-17.274-.31-16.83 11.772-16.83h8.814l-.237-25.251-.237-25.252H23.598l-.233 39.33c-.129 21.631-.041 39.832.195 40.447.337.878 12.789 1.117 58.11 1.117h57.682Zm-59.71-9.858c-1.692-1.692-1.495-33.218.217-34.639 1.039-.862 3.074-.082 10.503 4.03 10.791 5.973 18.805 10.985 19.633 12.278 1.372 2.141.053 3.089-21.224 15.266-8.151 4.665-7.685 4.508-9.129 3.065Z"/></svg>