<svg xmlns="http://www.w3.org/2000/svg" viewBox="0 0 192 192"><path d="M111.55 143.82c.6-1.204 2.12-2.619 3.379-3.145 3.094-1.294 4.768-7.288 6.632-23.749 6.331-55.902 7.035-59.692 12.021-64.8 3.419-3.501 9.42-6.441 11.63-5.697 1.051.354.331 1.545-2.18 3.605-4.141 3.397-6.464 9.792-7.5 20.641l-.633 6.636h3.888c4.333 0 4.392 2.215.097 3.645-3.658 1.219-4.506 4.241-6.769 24.119-3.054 26.835-5.878 34.467-14.293 38.628-6.075 3.005-7.727 3.036-6.272.117Zm-60.055-25.418c-5.878-.884-7.881-4.698-7.697-14.657.165-8.87 2.642-18.039 5.954-22.034 5.265-6.351 21.646-7.584 25.409-1.913 2.157 3.251 2.328 11.124.344 15.84-1.908 4.538-6.854 6.634-15.675 6.645-6.383.008-7.266.352-7.266 2.833 0 1.553.567 4.114 1.259 5.691 1.056 2.406 2.553 2.857 9.307 2.806 6.509-.05 7.953.355 7.548 2.115-.287 1.244-1.808 2.177-3.552 2.177-1.678 0-4.902.259-7.165.575-2.264.317-6.073.281-8.466-.078Zm14.536-24.03c4.856-6.361 2.384-15.084-3.801-13.413-4.077 1.103-5.334 2.964-7.291 10.794l-1.462 5.855h5.042c3.682 0 5.709-.873 7.512-3.236Zm-50.029 20.583c0-4.801 2.888-28.717 3.817-31.607.471-1.466 2.339-3.48 4.152-4.476 3.613-1.986 20.547-2.986 21.577-1.275 1.654 2.75-1.156 4.398-7.502 4.398-8.909 0-9.935 1.913-11.612 21.652l-1.212 14.258h-4.61c-3.895 0-4.61-.457-4.61-2.95Zm65.996-3.686c.336-3.649 1.277-12.783 2.092-20.297l1.481-13.661h26.857l2.026 4.289c2.152 4.558 2.154 4.195-.142 26.547l-1.003 9.758h-4.701c-4.415 0-4.666-.213-4.142-3.513.308-1.932 1.059-8.922 1.671-15.533 1.416-15.309.801-16.864-6.67-16.864H94.1l-1.679 16.003c-.923 8.802-1.876 16.882-2.118 17.955-.263 1.166-2.147 1.952-4.678 1.952h-4.238Zm61.48 2.342c-1.661-3.505-1.93-5.565-1.468-11.219.729-8.921 3.189-17.068 6.294-20.844 3.265-3.97 15.157-6.814 20.497-4.902 7.575 2.711 9.409 14.176 3.452 21.583-2.062 2.565-4.352 3.295-11.903 3.801-8.01.535-9.349 1.003-9.349 3.268 0 1.453.567 3.932 1.259 5.509 1.058 2.411 2.556 2.857 9.408 2.805 6.867-.053 7.978.28 7.064 2.115-.816 1.638-3.83 2.178-12.153 2.178-10.955 0-11.087-.044-13.101-4.294Zm20.99-19.239c4.95-6.484 1.942-15.293-4.531-13.27-3.718 1.161-5.905 4.927-6.698 11.534l-.597 4.972h4.678c3.313 0 5.399-.944 7.148-3.236Z"/></svg>