<svg xmlns="http://www.w3.org/2000/svg" viewBox="0 0 192 192"><path d="M42.929 173.494c-6.45-3.129-12.512-9.401-15.838-16.389-2.547-5.351-2.72-7.005-2.73-26.065-.011-19.797.073-20.524 3.068-26.642 3.377-6.896 8.107-11.621 15.519-15.502 3.807-1.994 6.749-2.526 13.964-2.526 10.129 0 11.153.394 28.005 10.787 5.335 3.29 11.242 6.866 13.127 7.946 1.885 1.08 5.963 3.578 9.063 5.55l5.635 3.586 3.505-2.127c20.445-12.406 20.072-12.107 20.072-16.097 0-3.576-1.571-5.131-10.283-10.177-3.456-2.002-15.024-9.02-25.707-15.595-33.133-20.394-40.143-24.537-41.517-24.537-.731 0-2.357 1.029-3.614 2.285-1.968 1.969-2.288 3.829-2.31 13.425l-.025 11.14-8.194 2.622c-4.506 1.443-10.666 4.399-13.688 6.57-3.022 2.171-5.75 3.947-6.063 3.947-1.245 0-.528-43.859.79-48.256 1.796-5.996 10.181-15.166 17.047-18.646C47.142 16.57 50.013 16 56.82 16c9.905 0 10.945.392 26.942 10.154 30.085 18.359 52.726 32.197 61.126 37.358 11.603 7.13 15.65 10.775 18.642 16.794 9.121 18.35 3.229 35.327-16.227 46.763-2.899 1.704-5.271 3.513-5.271 4.021s3.614 3.155 8.032 5.881c8.804 5.432 11.391 9.049 11.391 15.924 0 7.258-6.947 13.922-14.511 13.92-1.819 0-7.386-2.521-12.91-5.844l-15.189-9.14c-3.013-1.813-5.889-3.296-6.392-3.296-.504 0-4.209 2.135-8.234 4.744-10.527 6.824-29.46 18.158-34.398 20.593-6.074 2.994-20.353 2.793-26.892-.378Zm29.064-34.344c6.488-3.905 11.633-7.59 11.433-8.188-.625-1.875-21.817-14.338-24.45-14.379-4.415-.069-6.063 4.027-6.063 15.068 0 8.506.347 10.376 2.285 12.314 1.257 1.257 2.896 2.285 3.643 2.285.746 0 6.665-3.195 13.152-7.1Z"/></svg>