<svg xmlns="http://www.w3.org/2000/svg" viewBox="0 0 192 192"><path d="M62.325 44.9h12.72l10.314 18.05h21.282l10.314-18.05h12.72l-10.314 18.05h16.063l7.053 26.704h16.756l-6.564-24.726h12.883l6.605 24.726 3.343 12.734h-29.68l5.382 20.192h-20.385l13.984 24.52H126.21l-13.902-24.643H79.692l-13.984 24.519H47.362l13.984-24.519H40.962l5.218-20.069H16.5l3.343-12.611 6.605-24.725h12.883l-6.564 24.725h16.756l7.053-26.704h16.063L62.325 45.024Zm3.628 27.446v18.173h17.816V72.346Zm42.155 0v18.173h17.939V72.346Z" fill="none" stroke="#000" stroke-width="8" stroke-linecap="round" stroke-linejoin="round"/></svg>