<svg
    xmlns="http://www.w3.org/2000/svg"
    viewBox="0 0 192 192"
    id="vector">
    <path
        id="path"
        d="M 62.325 44.9 L 75.045 44.9 L 85.359 62.95 L 106.641 62.95 L 116.955 44.9 L 129.675 44.9 L 119.361 62.95 L 135.424 62.95 L 142.477 89.654 L 159.233 89.654 L 152.669 64.928 L 165.552 64.928 L 172.157 89.654 L 175.5 102.388 L 145.82 102.388 L 151.202 122.58 L 130.817 122.58 L 144.801 147.1 L 126.21 147.1 L 112.308 122.457 L 79.692 122.457 L 65.708 146.976 L 47.362 146.976 L 61.346 122.457 L 40.962 122.457 L 46.18 102.388 L 16.5 102.388 L 19.843 89.777 L 26.448 65.052 L 39.331 65.052 L 32.767 89.777 L 49.523 89.777 L 56.576 63.073 L 72.639 63.073 L 62.325 45.024 Z M 65.953 72.346 L 65.953 90.519 L 83.769 90.519 L 83.769 72.346 Z M 108.108 72.346 L 108.108 90.519 L 126.047 90.519 L 126.047 72.346 Z"
        fill="none"
        stroke="#000000"
        stroke-width="8"
        stroke-linecap="round"
        stroke-linejoin="round"/>
</svg>
