<svg xmlns="http://www.w3.org/2000/svg" viewBox="0 0 192 192"><path d="M62.028 160.024c-6.411-5.043-9.358-11.84-9.358-21.581v-8.561l-10.689 5.978c-11.731 6.56-16.669 7.31-22.277 3.382C16.049 136.682 16 136.114 16 96s.049-40.682 3.704-43.242c5.608-3.928 10.546-3.178 22.277 3.382l10.689 5.978v-8.561c0-16.143 8.106-25.062 22.777-25.062 8.546 0 11.12 1.225 51.659 24.585C174.11 80.165 176 81.825 176 96s-1.89 15.835-48.894 42.92c-40.539 23.36-43.113 24.585-51.659 24.585-6.596 0-10.173-.927-13.419-3.481Zm13.692-46.375c27.388-15.764 27.395-19.53.073-35.256-10.251-5.901-19.273-10.979-20.048-11.284-.775-.306-1.409 12.695-1.409 28.891 0 16.196.634 29.197 1.409 28.891.775-.305 9.764-5.364 19.975-11.242Z"/></svg>