<svg xmlns="http://www.w3.org/2000/svg" viewBox="0 0 192 192"><path d="M89.757 163.715c-11.912-3.142-22.941-9.357-31.599-17.804-4.466-4.357-7.772-8.484-7.348-9.171.424-.687 6.357-4.459 13.183-8.383 6.826-3.924 13.149-7.612 14.05-8.195 1.276-.826.876-2.531-1.809-7.707-6.039-11.639-5.067-27.008 2.301-36.374 1.435-1.825 2.402-3.47 2.147-3.655-.255-.185-6.207-3.58-13.228-7.544-19.896-11.233-18.982-9.502-9.772-18.515 14.352-14.043 35.823-21.808 54.965-19.879 58.189 5.867 84.086 74.806 44.045 117.251-17.305 18.344-43.495 26.16-66.935 19.976Zm28.659-35.714c8.24-2.808 17.279-11.847 20.087-20.087 5.509-16.167-.603-33.254-14.791-41.357-8.558-4.888-17.552-5.988-26.855-3.284-6.406 1.862-16.356 8.581-14.73 9.946.35.293 5.629 3.518 11.731 7.166 9.609 5.744 11.288 7.271 12.523 11.396 2.511 8.378-.323 12.528-13.909 20.368-6.389 3.688-11.617 6.924-11.617 7.191 0 1.004 10.96 7.915 14.624 9.221 5.777 2.059 15.982 1.81 22.937-.56ZM27.445 145.85C15.996 141.92 16 141.936 16 96.444c0-43.198.417-45.887 7.706-49.656 5.152-2.664 9.723-1.818 18.231 3.376 3.57 2.179 6.719 4.169 6.998 4.423.279.253-1.244 3.761-3.385 7.795-6.045 11.394-8.42 21.067-8.359 34.04.06 12.683 1.936 20.301 7.917 32.15 2.175 4.309 3.955 8.096 3.955 8.414 0 1.06-13.304 8.191-16.531 8.86-1.749.362-4.038.364-5.087.004Z"/></svg>