<svg xmlns="http://www.w3.org/2000/svg" viewBox="0 0 192 192"><path fill="none" stroke="#000" stroke-linecap="round" stroke-linejoin="round" stroke-width="8" d="M69.755 113.901h17.901M69.755 78.099h17.901M69.755 96h11.636M69.755 78.099v35.802m72.519 0h17.901m-17.901-35.802h17.901M142.274 96h11.636m-11.636-17.901v35.802m-106.721 0V78.099h11.636a12.083 12.083 0 1 1 .01 24.166H35.553m12.487-.029 11.232 11.665m73.293-35.804-8.951 35.806-8.952-35.806-8.947 35.806-8.951-35.806"/><path fill="none" stroke="#000" stroke-linecap="round" stroke-linejoin="round" stroke-width="8" d="M166.905 16.5H25.095a8.599 8.599 0 0 0-6.078 2.517 8.599 8.599 0 0 0-2.517 6.078v141.81c0 2.279.906 4.467 2.517 6.078a8.599 8.599 0 0 0 6.078 2.517h141.81a8.599 8.599 0 0 0 6.078-2.517 8.599 8.599 0 0 0 2.517-6.078V25.095a8.599 8.599 0 0 0-2.517-6.078 8.599 8.599 0 0 0-6.078-2.517Z"/></svg>