<svg
    xmlns="http://www.w3.org/2000/svg"
    viewBox="0 0 192 192"
    id="vector">
    <path
        id="path"
        d="M 69.755 113.901 L 87.656 113.901 M 69.755 78.099 L 87.656 78.099 M 69.755 96 L 81.391 96 M 69.755 78.099 L 69.755 113.901 M 142.274 113.901 L 160.175 113.901 M 142.274 78.099 L 160.175 78.099 M 142.274 96 L 153.91 96 M 142.274 78.099 L 142.274 113.901 M 35.553 113.901 L 35.553 78.099 L 47.189 78.099 C 49.75 78.082 52.252 78.881 54.33 80.378 C 56.408 81.875 57.957 83.995 58.752 86.43 C 59.548 88.864 59.549 91.49 58.755 93.925 C 57.962 96.36 56.415 98.481 54.338 99.98 C 52.261 101.479 49.76 102.28 47.199 102.265 L 35.553 102.265 M 48.04 102.236 L 59.272 113.901"
        fill="none"
        stroke="#000000"
        stroke-width="8"
        stroke-linecap="round"
        stroke-linejoin="round"/>
    <path
        id="path_1"
        d="M 132.565 78.097 L 123.614 113.903 L 114.662 78.097 L 105.715 113.903 L 96.764 78.097"
        fill="none"
        stroke="#000000"
        stroke-width="8"
        stroke-linecap="round"
        stroke-linejoin="round"/>
    <path
        id="path_2"
        d="M 166.905 16.5 L 25.095 16.5 C 22.816 16.5 20.628 17.406 19.017 19.017 C 17.406 20.628 16.5 22.816 16.5 25.095 L 16.5 166.905 C 16.5 169.184 17.406 171.372 19.017 172.983 C 20.628 174.594 22.816 175.5 25.095 175.5 L 166.905 175.5 C 169.184 175.5 171.372 174.594 172.983 172.983 C 174.594 171.372 175.5 169.184 175.5 166.905 L 175.5 25.095 C 175.5 22.816 174.594 20.628 172.983 19.017 C 171.372 17.406 169.184 16.5 166.905 16.5 Z"
        fill="none"
        stroke="#000000"
        stroke-width="8"
        stroke-linecap="round"
        stroke-linejoin="round"/>
</svg>
