<svg xmlns="http://www.w3.org/2000/svg" width="192" height="192" viewBox="0 0 192 192"><path d="M163.784 172H28.216A8.24 8.24 0 0 1 20 163.784V28.216A8.24 8.24 0 0 1 28.216 20h135.568A8.24 8.24 0 0 1 172 28.216v135.568a8.24 8.24 0 0 1-8.216 8.216z" class="a" style="fill:none;stroke:#000;stroke-width:8;stroke-linecap:round;stroke-linejoin:round;stroke-dasharray:none;stroke-opacity:1"/><path d="M30.27 110.545V83.004h9.017a9.25 9.25 0 0 1 0 18.5H30.27m9.017-.001 9.015 9.035m6.893-27.534v27.541m18.246-27.541v27.541M55.195 96.723h18.246" class="a" style="fill:none;stroke:#000;stroke-width:6;stroke-linecap:round;stroke-linejoin:round;stroke-dasharray:none;stroke-opacity:1"/><path d="m24.545 20.836-2.221 6.705-2.221-6.705" class="a" style="fill:none;stroke:#000;stroke-width:1.46052628;stroke-linecap:round;stroke-linejoin:round;stroke-dasharray:none;stroke-opacity:1" transform="translate(-2.595 -2.595) scale(4.1081)"/><rect width="13.771" height="18.246" x="100.558" y="92.299" class="a" rx="6.885" style="fill:none;stroke:#000;stroke-width:6;stroke-linecap:round;stroke-linejoin:round;stroke-dasharray:none;stroke-opacity:1"/><circle cx="121.509" cy="83.865" r="3.081" class="b" style="fill:none;stroke:#000;stroke-width:2;stroke-dasharray:none;stroke-opacity:1"/><path d="M121.509 92.299v18.246m39.317-3.475a6.883 6.883 0 0 1-5.983 3.475v0a6.886 6.886 0 0 1-6.885-6.885v-4.475a6.886 6.886 0 0 1 6.885-6.886v0a6.886 6.886 0 0 1 6.887 6.886v2.238h-13.771m-6.465 5.654a6.882 6.882 0 0 1-5.978 3.468v0a6.886 6.886 0 0 1-6.886-6.885v-4.475a6.886 6.886 0 0 1 6.886-6.886v0a6.882 6.882 0 0 1 5.971 3.456" class="a" style="fill:none;stroke:#000;stroke-width:6;stroke-linecap:round;stroke-linejoin:round;stroke-dasharray:none;stroke-opacity:1"/></svg>