<?xml version="1.0" encoding="UTF-8" standalone="no"?>
<!-- Created with Inkscape (http://www.inkscape.org/) -->

<svg
   width="192px"
   height="192px"
   viewBox="0 0 192 192"
   version="1.1"
   id="SVGRoot"
   sodipodi:docname="rhvoice.svg"
   inkscape:version="1.2.2 (732a01da63, 2022-12-09)"
   xmlns:inkscape="http://www.inkscape.org/namespaces/inkscape"
   xmlns:sodipodi="http://sodipodi.sourceforge.net/DTD/sodipodi-0.dtd"
   xmlns="http://www.w3.org/2000/svg"
   xmlns:svg="http://www.w3.org/2000/svg">
  <sodipodi:namedview
     id="namedview286"
     pagecolor="#ffffff"
     bordercolor="#666666"
     borderopacity="1.0"
     inkscape:showpageshadow="2"
     inkscape:pageopacity="0.0"
     inkscape:pagecheckerboard="0"
     inkscape:deskcolor="#d1d1d1"
     inkscape:document-units="px"
     showgrid="false"
     inkscape:current-layer="layer1"
     inkscape:zoom="0.25"
     inkscape:cx="362.5"
     inkscape:cy="362.5" />
  <defs
     id="defs281" />
  <g
     inkscape:label="Ebene 1"
     inkscape:groupmode="layer"
     id="layer1">
    <path
       class="a"
       d="M 163.78378,172.00001 H 28.216217 a 8.240454,8.240454 0 0 1 -8.216216,-8.21622 V 28.216208 a 8.240454,8.240454 0 0 1 8.216216,-8.216216 H 163.78378 A 8.240454,8.240454 0 0 1 172,28.216208 V 163.78379 a 8.240454,8.240454 0 0 1 -8.21622,8.21622 z"
       id="path6"
       style="fill:none;stroke:#000000;stroke-width:8;stroke-linecap:round;stroke-linejoin:round;stroke-dasharray:none;stroke-opacity:1" />
    <path
       class="a"
       d="M 30.270271,110.54516 V 83.003991 h 9.016476 a 9.2498161,9.2498161 0 0 1 0,18.499229 h -9.016476"
       id="path8"
       style="fill:none;stroke:#000000;stroke-width:6;stroke-linecap:round;stroke-linejoin:round;stroke-dasharray:none;stroke-opacity:1" />
    <line
       class="a"
       x1="39.286728"
       y1="101.50321"
       x2="48.302395"
       y2="110.53816"
       id="line10"
       style="fill:none;stroke:#000000;stroke-width:6;stroke-linecap:round;stroke-linejoin:round;stroke-dasharray:none;stroke-opacity:1" />
    <line
       class="a"
       x1="55.194561"
       y1="83.003975"
       x2="55.194561"
       y2="110.54515"
       id="line12"
       style="fill:none;stroke:#000000;stroke-width:6;stroke-linecap:round;stroke-linejoin:round;stroke-dasharray:none;stroke-opacity:1" />
    <line
       class="a"
       x1="73.440742"
       y1="83.003975"
       x2="73.440742"
       y2="110.54515"
       id="line14"
       style="fill:none;stroke:#000000;stroke-width:6;stroke-linecap:round;stroke-linejoin:round;stroke-dasharray:none;stroke-opacity:1" />
    <line
       class="a"
       x1="55.194561"
       y1="96.722603"
       x2="73.440742"
       y2="96.722603"
       id="line16"
       style="fill:none;stroke:#000000;stroke-width:6;stroke-linecap:round;stroke-linejoin:round;stroke-dasharray:none;stroke-opacity:1" />
    <polyline
       class="a"
       points="24.545 20.836 22.324 27.541 20.103 20.836"
       id="polyline18"
       style="fill:none;stroke:#000000;stroke-width:1.46052628;stroke-linecap:round;stroke-linejoin:round;stroke-dasharray:none;stroke-opacity:1"
       transform="matrix(4.1081082,0,0,4.1081082,-2.5945975,-2.594603)" />
    <rect
       class="a"
       x="100.55754"
       y="92.298996"
       width="13.770789"
       height="18.246162"
       rx="6.8851891"
       id="rect20"
       style="fill:none;stroke:#000000;stroke-width:6;stroke-linecap:round;stroke-linejoin:round;stroke-dasharray:none;stroke-opacity:1" />
    <circle
       class="b"
       cx="121.50928"
       cy="83.864632"
       r="3.0810809"
       id="circle22"
       style="fill:none;stroke:#000000;stroke-width:2;stroke-dasharray:none;stroke-opacity:1" />
    <line
       class="a"
       x1="121.50928"
       y1="92.298996"
       x2="121.50928"
       y2="110.54515"
       id="line24"
       style="fill:none;stroke:#000000;stroke-width:6;stroke-linecap:round;stroke-linejoin:round;stroke-dasharray:none;stroke-opacity:1" />
    <path
       class="a"
       d="m 160.82594,107.07053 a 6.8831351,6.8831351 0 0 1 -5.98263,3.47463 v 0 a 6.8855999,6.8855999 0 0 1 -6.8856,-6.88519 v -4.475377 a 6.8855999,6.8855999 0 0 1 6.8856,-6.885599 v 0 a 6.8855999,6.8855999 0 0 1 6.88642,6.885599 v 2.238107 h -13.77079"
       id="path26"
       style="fill:none;stroke:#000000;stroke-width:6;stroke-linecap:round;stroke-linejoin:round;stroke-dasharray:none;stroke-opacity:1" />
    <path
       class="a"
       d="m 141.49442,107.0771 a 6.8823135,6.8823135 0 0 1 -5.97853,3.46806 v 0 a 6.8855999,6.8855999 0 0 1 -6.8856,-6.88519 v -4.475377 a 6.8855999,6.8855999 0 0 1 6.8856,-6.885599 v 0 a 6.8819027,6.8819027 0 0 1 5.97155,3.456157"
       id="path28"
       style="fill:none;stroke:#000000;stroke-width:6;stroke-linecap:round;stroke-linejoin:round;stroke-dasharray:none;stroke-opacity:1" />
  </g>
</svg>
