<svg xmlns="http://www.w3.org/2000/svg" viewBox="0 0 192 192"><path d="M51.157 144.912c-9.343-2.513-19.981-10.089-25.935-18.471-12.028-16.933-12.326-43.05-.682-59.687 5.108-7.299 10.762-12.126 19.401-16.567 6.358-3.268 7.897-3.58 17.679-3.583 11.859-.003 18.293 1.796 25.957 7.257l4.529 3.227-4.225 6.036c-2.324 3.32-5.278 9.136-6.564 12.924l-2.339 6.887-2.786-2.786c-4.298-4.296-7.554-5.687-13.445-5.741-7.122-.066-13.635 3.589-17.466 9.803-2.413 3.915-2.947 6.064-2.947 11.851 0 5.788.534 7.937 2.947 11.852 3.797 6.159 9.733 9.428 17.117 9.428 6.793 0 11.849-2.613 16.185-8.364 2.589-3.434 3.254-5.715 4.115-14.127 1.77-17.292 7.328-29.075 17.951-38.053 10.698-9.043 28.095-13.519 35.151-9.045 6.278 3.982 8.44 12.059 5.089 19.015-2.009 4.171-5.838 6.356-12.954 7.39-10.758 1.564-17.683 9.117-18.422 20.094-.884 13.113 7.581 23.09 19.589 23.09 6.496 0 11.093-2.196 15.259-7.29 7.448-9.106 6.771-21.951-1.594-30.274l-2.755-2.741 2.727-3.14c1.5-1.727 3.269-4.271 3.93-5.653 1.48-3.092 1.567-11.837.158-15.817-1.329-3.752-.738-3.696 6.22.587 32.218 19.835 30.088 70.934-3.675 88.147-16.199 8.259-34.953 5.833-49.606-6.416l-3.86-3.227-5.357 4.423c-7.821 6.457-15.452 9.277-26.25 9.699-5.01.196-10.923-.131-13.142-.728Z"/></svg>