<svg xmlns="http://www.w3.org/2000/svg" viewBox="0 0 192 192"><path d="M16 96V31.444h28.926l2.204 7.045c4.349 13.9 5.458 32.643 2.881 48.697-.766 4.768-2.198 9.439-3.184 10.378-1.721 1.641-2.539 6.505-1.093 6.505.769 0 2.632 10.694 6.678 38.33l2.659 18.157H41.624l-3.378-22.864-3.379-22.863h-6.828v45.727H16Zm23.015-24.208v-9.415l-5.842-.781-5.842-.781v21.953l5.842-.781 5.842-.781Zm32.06 39.674-.193-49.089-5.488-.785-5.488-.786V31.444h33.283v29.353l-5.134.79-5.134.79-.193 49.089-.193 49.09H71.268ZM101.687 96V31.444h12.039v88.604l9.029.752 9.029.753.208 19.501.208 19.502h-30.513ZM159.484 111.569v-9h-18v-13h18V71.474l6.046-.043 6.454.638.289 8.75.289 8.75h17.922v13h-18v18h-13Z"/></svg>