<svg
    xmlns="http://www.w3.org/2000/svg"
    viewBox="0 0 192 192"
    id="vector">
    <g id="group">
        <path
            id="path_6"
            d="M 16 96 L 16 31.444 L 44.926 31.444 L 47.13 38.489 C 51.479 52.389 52.588 71.132 50.011 87.186 C 49.245 91.954 47.813 96.625 46.827 97.564 C 45.106 99.205 44.288 104.069 45.734 104.069 C 46.503 104.069 48.366 114.763 52.412 142.399 L 55.071 160.556 L 41.624 160.556 L 38.246 137.692 L 34.867 114.829 L 28.039 114.829 L 28.039 160.556 L 16 160.556 Z M 39.015 71.792 L 39.015 62.377 L 33.173 61.596 L 27.331 60.815 L 27.331 82.768 L 33.173 81.987 L 39.015 81.206 Z M 71.075 111.466 L 70.882 62.377 L 65.394 61.592 L 59.906 60.806 L 59.906 31.444 L 93.189 31.444 L 93.189 60.797 L 88.055 61.587 L 82.921 62.377 L 82.728 111.466 L 82.535 160.556 L 71.268 160.556 Z M 101.687 96 L 101.687 31.444 L 113.726 31.444 L 113.726 120.048 L 122.755 120.8 L 131.784 121.553 L 131.992 141.054 L 132.2 160.556 L 101.687 160.556 Z"
            fill="#000000"
            stroke-width="12"/>
    </g>
    <path
        id="path_13"
        d="M 159.484 111.569 L 159.484 102.569 L 141.484 102.569 L 141.484 89.569 L 159.484 89.569 L 159.484 71.474 L 165.53 71.431 L 171.984 72.069 L 172.273 80.819 L 172.562 89.569 L 190.484 89.569 L 190.484 102.569 L 172.484 102.569 L 172.484 120.569 L 159.484 120.569 Z"
        fill="#000000"
        stroke-width="12"/>
</svg>
