<svg
    xmlns="http://www.w3.org/2000/svg"
    viewBox="0 0 192 192"
    id="vector">
    <g id="group">
        <path
            id="path_6"
            d="M 165.702 111.517 L 165.702 102.034 L 158.669 102.034 L 158.669 89.966 L 165.702 89.966 L 165.702 80.483 C 165.702 71.096 165.717 71 167.209 71 C 168.699 71 168.716 71.104 168.716 80.407 L 168.716 89.814 L 172.358 90.321 L 176 90.828 L 176 101.172 L 172.358 101.679 L 168.716 102.186 L 168.716 111.593 C 168.716 120.896 168.699 121 167.209 121 C 165.717 121 165.702 120.904 165.702 111.517 Z M 16 96 L 16 72.724 L 23.809 72.724 C 31.431 72.724 31.648 72.826 32.852 76.956 C 34.529 82.714 34.529 92.045 32.852 97.803 C 32.174 100.13 31.213 102.059 30.717 102.089 C 30.091 102.127 30.661 104.752 32.578 110.655 L 35.341 119.166 L 33.247 119.221 C 31.481 119.267 30.738 118.061 28.504 111.517 C 25.929 103.971 25.762 103.759 22.435 103.759 L 19.014 103.759 L 19.014 111.517 C 19.014 118.989 18.958 119.276 17.507 119.276 L 16 119.276 Z M 30.417 91.226 C 31.105 88.863 31.182 87.505 30.757 85.192 C 30.301 82.705 29.275 82.125 24.612 81.719 L 19.014 81.232 L 19.014 87.035 C 19.014 90.227 19.184 93.422 19.391 94.135 C 19.598 94.848 21.964 95.171 24.649 94.854 C 28.492 94.399 29.718 93.628 30.417 91.226 Z M 75.278 100.31 L 75.278 81.345 L 71.259 81.345 C 67.307 81.345 67.24 81.273 67.24 77.034 L 67.24 72.724 L 86.832 72.724 L 86.832 77.034 C 86.832 81.294 86.782 81.345 82.562 81.345 L 78.292 81.345 L 78.292 119.276 L 75.278 119.276 Z M 119.485 96 L 119.485 72.724 L 122.499 72.724 L 122.499 110.655 L 136.565 110.655 L 136.565 119.276 L 119.485 119.276 Z"
            fill="#000000"
            stroke-width="12"/>
    </g>
</svg>
