<svg width="192" height="192" viewBox="0 0 50.8 50.8" xmlns="http://www.w3.org/2000/svg"><g style="display:inline;stroke-width:2.11667;stroke-dasharray:none"><path style="fill:#000;fill-opacity:0;stroke:#000;stroke-width:2.11667;stroke-linecap:round;stroke-linejoin:round;stroke-dasharray:none;paint-order:stroke fill markers" d="M45.508 9.503V5.292h-4.242M45.508 13.298v6.055h-13.04" fill="none"/><path style="fill:#000;fill-opacity:0;stroke:#000;stroke-width:2.11667;stroke-linecap:round;stroke-linejoin:round;stroke-dasharray:none;paint-order:stroke fill markers" d="m31.2 15.538 4.776-4.87 2.086 2.078 6.672-6.715" fill="none"/></g><path style="fill:#000;fill-opacity:0;stroke:#000;stroke-width:2.11667;stroke-linecap:round;stroke-linejoin:round;stroke-dasharray:none;paint-order:stroke fill markers" d="M5.295 42.56v1.14s-.204 1.808 2.24 1.808H25.27s2.004.089 2.01-2.003l.027-9.17H8.458v-4.918h18.93v-.845s-.075-2.326-2.195-2.326H7.595s-2.3.115-2.3 2.619v8.724h18.78v4.68H5.295" fill="none"/><path style="fill-opacity:0;stroke:#000;stroke-width:2.11667;stroke-linecap:round;stroke-linejoin:round;stroke-dasharray:none;paint-order:stroke fill markers" d="M19.366 19.406a3.062 3.062 0 0 1-3.062 3.062 3.062 3.062 0 0 1-3.062-3.062 3.062 3.062 0 0 1 3.062-3.062 3.062 3.062 0 0 1 3.062 3.062z" fill="none"/></svg>