<svg width="192" height="192" viewBox="0 0 50.8 50.8" xmlns="http://www.w3.org/2000/svg"><g style="display:inline;stroke-width:2.32143;stroke-dasharray:none"><g style="stroke-width:2.32143;stroke-miterlimit:4;stroke-dasharray:none"><path style="fill:none;stroke:#000;stroke-width:5.61112;stroke-linecap:round;stroke-linejoin:round;stroke-miterlimit:4;stroke-dasharray:none;stroke-opacity:1" d="M101.876 59.807V33.41" transform="matrix(.36628 0 0 .3885 -11.575 -7.636)"/><path style="fill:none;stroke:#000;stroke-width:5.61112;stroke-linecap:round;stroke-linejoin:round;stroke-miterlimit:4;stroke-dasharray:none;stroke-opacity:1" d="M111.686 33.41H94.213" transform="matrix(.36628 0 0 .3885 -11.968 -7.636)"/><path style="fill:none;stroke:#000;stroke-width:5.61112;stroke-linecap:round;stroke-linejoin:round;stroke-miterlimit:4;stroke-dasharray:none;stroke-opacity:1" d="m113.676 59.86 8.953-26.396 8.92 26.396" transform="matrix(.36628 0 0 .3885 -11.652 -7.657)"/><path style="fill:none;stroke:#000;stroke-width:5.61112;stroke-linecap:round;stroke-linejoin:round;stroke-miterlimit:4;stroke-dasharray:none;stroke-opacity:1" d="M115.846 52.724h13.117m11.737 7.083V33.41l15.24 26.396V33.41" transform="matrix(.36628 0 0 .3885 -11.575 -7.636)"/></g></g><path style="fill:#000;fill-opacity:0;stroke:#000;stroke-width:2.11667;stroke-linecap:round;stroke-linejoin:round;stroke-dasharray:none;paint-order:stroke fill markers" d="M5.295 42.56v1.14s-.204 1.808 2.24 1.808H25.27s2.004.089 2.01-2.003l.027-9.17H8.458v-4.918h18.93v-.845s-.075-2.326-2.195-2.326H7.595s-2.3.115-2.3 2.619v8.724h18.78v4.68H5.295" fill="none"/><path style="fill-opacity:0;stroke:#000;stroke-width:2.11667;stroke-linecap:round;stroke-linejoin:round;stroke-dasharray:none;paint-order:stroke fill markers" d="M19.366 19.406a3.062 3.062 0 0 1-3.062 3.062 3.062 3.062 0 0 1-3.062-3.062 3.062 3.062 0 0 1 3.062-3.062 3.062 3.062 0 0 1 3.062 3.062z" fill="none"/></svg>