<svg xmlns="http://www.w3.org/2000/svg" viewBox="0 0 192 192"><path d="M166.905 16.5H25.095a8.599 8.599 0 0 0-6.078 2.517 8.599 8.599 0 0 0-2.517 6.078v141.81c0 2.279.906 4.467 2.517 6.078a8.599 8.599 0 0 0 6.078 2.517h141.81a8.599 8.599 0 0 0 6.078-2.517 8.599 8.599 0 0 0 2.517-6.078V25.095a8.599 8.599 0 0 0-2.517-6.078 8.599 8.599 0 0 0-6.078-2.517Z" fill="none" stroke="#000" stroke-width="12" stroke-linecap="round" stroke-linejoin="round"/><path d="M71.408 175.5s60.896-34.735 61.43-57.068c.296-12.38-4.422-18.07-12.907-20.643m-47.695-4.833C63.357 89.394 60.289 82.35 61.22 71.277c1.452-17.244 52.114-44.107 60.171-54.777" fill="none" stroke="#000" stroke-width="8"/><path d="m118.526 99.223-14.502 8.373-25.667 14.818a3.719 3.719 0 0 1-4.712-.831 3.722 3.722 0 0 1-.87-2.392V72.809a3.722 3.722 0 0 1 5.582-3.223l14.502 8.372 25.667 14.819a3.722 3.722 0 0 1 0 6.446Z" fill="none" stroke="#000" stroke-width="8" stroke-linecap="round" stroke-linejoin="round"/></svg>