<svg xmlns="http://www.w3.org/2000/svg" viewBox="0 0 192 192"><path d="M40.288 175.365c-5.255-1.102-7.532-9.692-3.778-14.252 2.167-2.633 9.949-3.683 10.739-1.449.286.807-.45 1.346-1.837 1.346-4.237 0-6.479 1.988-6.479 5.744 0 5.646 1.199 6.099 16.15 6.099 9.115 0 13.989-.424 14.857-1.292.846-.845 1.292-5.311 1.292-12.92 0-10.91.133-11.628 2.154-11.628 2.028 0 2.153.718 2.153 12.309 0 11.285.176 12.365 2.113 12.98 1.162.369 3.1.142 4.306-.504 1.945-1.041 2.194-2.219 2.194-10.367 0-8.174.209-9.153 1.885-8.832 1.577.301 1.934 1.776 2.194 9.061.384 10.777-1.168 13.409-7.847 13.308-2.369-.036-5.518-.026-6.998.022-20.746.674-31.113.791-33.098.375Zm56.784-.79c0-1.25 1.033-1.722 3.769-1.722h3.768V162.15c0-5.887.386-10.942.859-11.234 2.364-1.461 3.38 1.639 3.673 11.207.29 9.456.478 10.215 2.601 10.518 4.617.659 5.787-2.253 5.787-14.4 0-9.974.21-11.228 1.884-11.23 1.683-.002 1.847 1.05 1.535 9.835-.409 11.512.162 14.555 2.892 15.421 4.607 1.463 5.532-.175 5.532-9.791 0-7.324.332-9.198 1.724-9.732.948-.364 2.07-.1 2.494.585.571.924 1.642.943 4.144.07 2.005-.698 9.061-1.031 17.389-.82 15.895.404 17.095.949 18.069 8.215.974 7.263-.393 11.818-4.129 13.749-2.713 1.403-6.003 1.597-19.062 1.124-19.45-.705-19.762-.714-24.397-.714-7.072 0-8.62.058-18.573.701-8.678.561-9.959.422-9.959-1.079Zm70.845-3.014c.71-.711 1.292-4.005 1.292-7.321s-.582-6.611-1.292-7.322c-.875-.874-5.893-1.292-15.534-1.292-14.103 0-14.263.028-16.473 2.837-2.506 3.186-3.064 10.973-.939 13.098.882.883 6.101 1.292 16.473 1.292s15.59-.409 16.473-1.292ZM52.963 151.589c.019-.444.678-1.655 1.465-2.692 1.5-1.976 7.115-2.64 7.115-.841 0 .574-.727.764-1.615.423-.889-.341-1.615-.083-1.615.572 0 .656.726 1.192 1.615 1.192.888 0 1.615.485 1.615 1.077s-1.938 1.077-4.307 1.077c-2.369 0-4.291-.364-4.273-.808Zm27.959-3.499c0-.592.727-1.077 1.615-1.077.889 0 1.615.485 1.615 1.077s-.726 1.077-1.615 1.077c-.888 0-1.615-.485-1.615-1.077Zm6.46 0c0-.592.727-1.077 1.615-1.077.889 0 1.615.485 1.615 1.077s-.726 1.077-1.615 1.077c-.888 0-1.615-.485-1.615-1.077Zm-49.389-7.344c-5.095-7.156-5.588-19.689-1.135-28.887 1.97-4.069 2.117-5.212 1.011-7.88-1.757-4.241-.504-9.066 3.357-12.926 2.679-2.68 3.007-3.552 2.026-5.386-1.549-2.893-2.635-14.972-1.758-19.545.617-3.221 1.302-3.819 6.118-5.341 5.178-1.638 5.472-1.622 6.521.336 1.489 2.783 1.444 16.539-.073 22.172-1.178 4.375-1.093 4.711 1.963 7.767 3.726 3.726 4.975 8.122 3.448 12.138-.879 2.311-.582 3.823 1.567 7.993 1.458 2.828 2.949 7.351 3.312 10.052.834 6.208-1.197 16.192-4.025 19.787-2.018 2.566-2.794 2.757-11.169 2.757-8.644 0-9.086-.12-11.163-3.037Zm40.738-.462c-9.038-14.639-6.055-36.534 6.716-49.305 5.215-5.215 15.295-11.124 22.568-13.23 3.936-1.14 4.595-1.812 5.812-5.934.755-2.557 2.235-5.602 3.289-6.767 1.341-1.481 1.831-3.513 1.631-6.762-.275-4.464 1.639-8.172 4.217-8.172 1.931 0 4.396 5.297 4.06 8.724-.256 2.599.388 4.273 2.51 6.536 1.57 1.672 3.268 4.792 3.774 6.932.838 3.544 1.506 4.103 7.495 6.271 14.239 5.156 24.689 13.836 30.197 25.084 2.746 5.608 3.041 7.299 3.047 17.512.005 9.601-.379 12.157-2.548 16.958l-2.556 5.652H80.891ZM31.168 58.555c-3.847-1.058-13.769-8.718-13.769-10.63 0-.511 1.499-.407 3.331.232 1.832.638 6.106.909 9.499.602 13.744-1.247 22.753-9.989 26.399-25.618.849-3.643 1.763-6.841 2.03-7.108.267-.267 1.483 1.129 2.703 3.102 10.228 16.55-1.161 38.719-20.61 40.117-3.073.221-7.385-.093-9.583-.697Z"/></svg>