<svg xmlns="http://www.w3.org/2000/svg" xml:space="preserve" width="192" height="192" viewBox="0 0 192 192"><path d="M147.912 175.249c-10.103-2.768-17.476-12.942-20.022-27.628-.982-5.663-1.05-17.987-.137-24.545 1.683-12.086 6.457-21.934 13.006-26.83 3.49-2.61 6.76-3.669 11.325-3.669 7.265 0 11.587 2.426 16.053 9.01 4.885 7.201 6.799 15.113 7.181 29.692l.226 8.616h-17.61c-9.686 0-17.71.148-17.834.33-.408.601.89 7.414 1.97 10.342.585 1.588 1.846 3.902 2.801 5.143 5.715 7.422 16.518 5.928 21.602-2.987l1.034-1.812 3.367 4.547c1.852 2.5 3.367 4.92 3.367 5.375 0 .456-1.234 2.618-2.743 4.805-5.834 8.455-14.667 12.054-23.586 9.61zm14.686-51.857c-.459-5.344-1.4-8.587-3.352-11.556-2.106-3.203-3.717-4.062-7.626-4.067-5.875-.007-9.366 5.292-11.257 17.084l-.257 1.606h22.756zM34.795 174.625c-5.307-1.899-10.865-7.699-13.951-14.558-3.574-7.943-5.573-21.675-4.597-31.567 1.18-11.965 3.38-19.302 7.723-25.75 4.713-7 10.2-10.173 17.594-10.173 7.685 0 12.91 3.053 17.876 10.448 3.449 5.134 5.325 10.24 6.667 18.142 1.146 6.75 1.17 18.691.051 25.578-2.415 14.862-8.757 24.717-17.967 27.922-3.05 1.061-10.377 1.038-13.396-.042zm11.798-15.511c3.079-2.14 5.401-6.515 6.756-12.724.826-3.786 1.152-16.083.547-20.622-1.134-8.505-3.575-14.043-7.327-16.62-2.66-1.828-7.114-1.904-9.715-.167-5.041 3.367-7.426 10.502-7.803 23.342-.183 6.244-.09 8.048.628 12.243 1.613 9.41 4.702 14.542 9.5 15.782 2.46.635 5.438.14 7.414-1.234zm27.66 14.517c-.104-.402-.143-18.474-.086-40.162l.102-39.431 6.038-.161 6.038-.162v2.571c0 1.414.105 3.345.233 4.29l.233 1.72 1.234-1.701c7.076-9.752 18.607-11.126 25.766-3.07 1.82 2.048 3.296 5.317 4.548 10.074l1.044 3.964.119 31.399.12 31.4h-12.674l-.116-29.063-.117-29.063-.994-2.621c-1.245-3.28-3.434-5.142-6.624-5.634-4.33-.667-8.574 1.962-11.002 6.818l-.978 1.956v57.606H80.79c-4.714 0-6.396-.188-6.537-.73zM24.242 69.2c-3.798-1.175-6.935-5.439-7.45-10.13l-.234-2.127h2.751c2.71 0 2.761.029 3.319 1.857.864 2.834 2.407 4.21 4.723 4.21 2.383 0 4.094-1.591 4.286-3.986.177-2.194-.843-3.662-3.257-4.688-1.11-.472-3.061-1.306-4.336-1.853-5.32-2.284-7.702-7.484-6.17-13.465 2.162-8.44 12.478-10.515 17.253-3.47 1.102 1.627 1.752 3.185 1.938 4.646.154 1.21.213 2.298.13 2.419-.08.12-1.394.287-2.917.37-2.567.14-2.779.059-2.894-1.103-.218-2.189-2.28-4.215-4.291-4.215-1.442 0-2.003.327-2.94 1.708-2.288 3.377-1.005 5.674 4.239 7.586 4.317 1.573 7.4 4.027 8.33 6.63 1.062 2.97.907 7.417-.357 10.235-1.958 4.364-7.478 6.812-12.123 5.376zm23.302.048c-3.8-1.131-6.727-5.977-6.727-11.137 0-2.103.92-5.44 2.002-7.257 1.714-2.88 3.88-3.97 8.684-4.371l4.157-.347-.034-2.49c-.062-4.477-2.755-6.93-5.917-5.39-1.06.516-1.601 1.24-2.01 2.686l-.562 1.981h-2.766c-2.754 0-2.766-.007-2.765-1.606.005-5.19 4.902-10.077 10.095-10.077 4.19 0 7.506 2.436 9.008 6.62.8 2.225.897 3.565 1.134 15.578.142 7.23.324 13.624.404 14.211.128.948-.176 1.079-2.722 1.168-2.82.1-2.873.075-3.26-1.565l-.394-1.666-1.183 1.468c-.982 1.22-4.466 2.92-5.481 2.674a67.772 67.772 0 0 1-1.663-.48zm4.724-7.036c.744-.315 1.856-1.284 2.472-2.154.976-1.38 1.118-2.013 1.118-4.977v-3.395h-2.586c-2.945 0-4.937 1.013-5.874 2.989-1.57 3.304.092 7.897 2.92 8.073.328.02 1.205-.22 1.95-.536zm20.021 6.73c-1.916-1.03-3.187-3.075-3.74-6.012-.227-1.204-.413-7.25-.415-13.435l-.002-11.245h-3.96v-6.426h3.96v-8.762h5.94v8.762h4.354v6.426h-4.355v11.057c0 12.65.056 12.894 2.998 12.894h1.753v3.178c0 1.748-.133 3.3-.297 3.447-.91.822-4.79.894-6.236.116zm17.62.304c-3.41-1.02-6.107-4.255-7.577-9.09-1.266-4.165-1.505-12.53-.499-17.445 1.04-5.08 3.801-9.232 7.062-10.619 6.637-2.823 12.75 2.016 13.891 10.997l.276 2.17h-5.57l-.438-1.958c-1.334-5.963-7.002-6.837-9.02-1.39-1.014 2.737-1.015 14.665 0 16.948 2.272 5.118 7.327 4.755 8.974-.643.557-1.826.611-1.857 3.298-1.857h2.731l-.268 1.898c-1.11 7.85-6.877 12.779-12.86 10.989zm50.815-.035c-3.528-1.082-6.526-4.386-8.146-8.976-.647-1.834-.892-3.768-1.018-8.031-.284-9.563 1.529-15.4 5.874-18.92 1.928-1.562 2.53-1.752 5.529-1.745 2.705.006 3.688.26 5.01 1.297 3.397 2.666 5.172 7.605 5.567 15.49l.226 4.528h-16.45l.226 2.05c.81 7.365 7.091 10.155 11.118 4.938l1.332-1.725 1.663 2.188 1.663 2.188-1.317 1.99c-2.549 3.85-7.444 5.903-11.277 4.728zm6.99-23.683c0-2.425-1.42-5.868-2.758-6.686-1.53-.936-4.168-.45-5.247.965-.834 1.093-2.265 5.156-2.28 6.475-.006.547 1.28.73 5.138.73h5.147zm-41.43 22.806c-.083-.32-.105-12.15-.048-26.287l.103-25.704 2.87-.171L112.08 16v9.664c0 6.054.148 9.665.396 9.665.218 0 .396-.24.396-.532 0-.293.926-1.213 2.058-2.045 4.017-2.953 8.74-1.557 10.883 3.217l1.115 2.484.123 15.233.123 15.233H121.78l-.198-13.436c-.221-14.979-.332-15.632-2.833-16.742-2.008-.892-4.047-.182-5.459 1.902l-1.196 1.764-.106 13.17-.107 13.17-2.723.085c-1.506.048-2.79-.174-2.875-.498zm51.471 0c-.083-.32-.105-12.15-.048-26.287l.103-25.704H163.353V68.746l-2.723.086c-1.507.048-2.79-.174-2.875-.498zM170.138 68c-2.182-2.532-.714-8.136 2.132-8.136 1.714 0 2.739.948 3.352 3.101 1.304 4.574-2.708 8.257-5.484 5.035zm-.072-28.848c-1.202-1.773-1.262-4.29-.15-6.373 1.104-2.072 3.789-2.193 4.99-.225 1.196 1.961 1.375 3.246.714 5.131-1.131 3.228-3.87 3.952-5.554 1.467z" style="fill:#000;fill-opacity:1;stroke:none;stroke-width:6;stroke-linecap:round;stroke-linejoin:round;stroke-dasharray:none;stroke-opacity:1"/></svg>