<?xml version="1.0" encoding="UTF-8" standalone="no"?>
<!-- Created with Inkscape (http://www.inkscape.org/) -->

<svg
   width="192px"
   height="192px"
   viewBox="0 0 192 192"
   version="1.1"
   id="SVGRoot"
   sodipodi:docname="satchel_one.svg"
   xml:space="preserve"
   inkscape:version="1.2.2 (732a01da63, 2022-12-09)"
   xmlns:inkscape="http://www.inkscape.org/namespaces/inkscape"
   xmlns:sodipodi="http://sodipodi.sourceforge.net/DTD/sodipodi-0.dtd"
   xmlns="http://www.w3.org/2000/svg"
   xmlns:svg="http://www.w3.org/2000/svg"><sodipodi:namedview
     id="namedview3493"
     pagecolor="#ffffff"
     bordercolor="#666666"
     borderopacity="1.0"
     inkscape:showpageshadow="2"
     inkscape:pageopacity="0.0"
     inkscape:pagecheckerboard="0"
     inkscape:deskcolor="#d1d1d1"
     inkscape:document-units="px"
     showgrid="false"
     inkscape:zoom="3.7291667"
     inkscape:cx="93.050279"
     inkscape:cy="96"
     inkscape:current-layer="layer1" /><defs
     id="defs3488" /><g
     inkscape:label="Ebene 1"
     inkscape:groupmode="layer"
     id="layer1"><path
       style="fill:#000000;fill-opacity:1;stroke:none;stroke-width:6;stroke-linecap:round;stroke-linejoin:round;stroke-dasharray:none;stroke-opacity:1"
       d="m 147.91211,175.2489 c -10.10358,-2.76798 -17.4765,-12.94152 -20.02226,-27.62773 -0.98174,-5.66358 -1.05046,-17.98691 -0.13688,-24.54554 1.68345,-12.08553 6.45739,-21.93327 13.00636,-26.82968 3.4896,-2.609024 6.76031,-3.66856 11.3246,-3.66856 7.265,0 11.58694,2.425643 16.05345,9.00989 4.88492,7.20096 6.79837,15.11269 7.18086,29.69135 l 0.22606,8.61649 h -17.61043 c -9.68573,0 -17.71077,0.14806 -17.83342,0.32903 -0.40814,0.6022 0.88866,7.41481 1.96884,10.34304 0.58573,1.58784 1.84654,3.90201 2.80176,5.14261 5.71476,7.42191 16.51828,5.9284 21.60241,-2.98639 l 1.03359,-1.81235 3.36722,4.54687 c 1.85196,2.50078 3.36722,4.91965 3.36722,5.37528 0,0.45562 -1.23466,2.61782 -2.74369,4.80492 -5.83354,8.45471 -14.66691,12.05417 -23.58569,9.61077 z m 14.68597,-51.85656 c -0.4591,-5.34451 -1.39961,-8.58686 -3.35219,-11.55629 -2.10615,-3.20301 -3.71714,-4.06214 -7.62621,-4.06698 -5.87429,-0.007 -9.36573,5.2916 -11.25647,17.08369 l -0.25758,1.60647 h 11.37795 11.37794 z M 34.79464,174.62467 c -5.306634,-1.89854 -10.865077,-7.69872 -13.950613,-14.55737 -3.573693,-7.94375 -5.57345,-21.67501 -4.597351,-31.56757 1.180511,-11.96426 3.381163,-19.30174 7.723069,-25.75052 4.71299,-6.999939 10.199325,-10.17182 17.593955,-10.17182 7.685668,0 12.909684,3.053101 17.876552,10.44774 3.448541,5.13415 5.325081,10.24061 6.666802,18.14175 1.146156,6.74952 1.16993,18.69152 0.05091,25.57815 -2.414962,14.8622 -8.75648,24.71729 -17.96723,27.92212 -3.049602,1.06109 -10.376416,1.03785 -13.396101,-0.0426 z m 11.798821,-15.51104 c 3.078061,-2.14 5.400517,-6.5143 6.755256,-12.7234 0.82614,-3.78642 1.152431,-16.08353 0.547195,-20.62248 -1.134083,-8.50505 -3.575227,-14.04243 -7.326905,-16.62003 -2.659817,-1.82743 -7.114029,-1.90368 -9.715379,-0.1663 -5.04077,3.36661 -7.425945,10.50165 -7.80271,23.34112 -0.183254,6.24495 -0.0907,8.04846 0.628349,12.24377 1.612646,9.40907 4.702011,14.54157 9.499138,15.78137 2.46005,0.63578 5.438578,0.14007 7.415056,-1.23405 z m 27.659618,14.51729 c -0.104002,-0.40161 -0.142946,-18.47437 -0.08655,-40.16166 l 0.102557,-39.431447 6.037934,-0.161265 6.037944,-0.161256 v 2.570959 c 0,1.414026 0.104874,3.344696 0.233065,4.290399 l 0.233075,1.71943 1.234321,-1.70122 c 7.07565,-9.752105 18.607055,-11.125933 25.765825,-3.069704 1.81974,2.047881 3.2957,5.317254 4.54776,10.073584 l 1.04352,3.96418 0.11945,31.3991 0.11942,31.3991 h -6.33672 -6.33674 l -0.11628,-29.06243 -0.11629,-29.06243 -0.9948,-2.62141 c -1.24466,-3.27985 -3.43356,-5.14141 -6.623962,-5.63342 -4.33049,-0.66781 -8.573251,1.96138 -11.001523,6.81753 l -0.978261,1.95637 v 28.80289 28.8029 h -6.347319 c -4.713048,0 -6.39599,-0.18801 -6.53639,-0.7302 z M 24.241966,69.199588 C 20.443715,68.025424 17.30748,63.761255 16.791455,59.069527 l -0.233884,-2.126476 h 2.751865 c 2.709247,0 2.760635,0.02874 3.318229,1.856848 0.864593,2.834588 2.407451,4.20953 4.723635,4.20953 2.382769,0 4.093418,-1.590611 4.285928,-3.985175 0.176373,-2.193836 -0.843652,-3.661953 -3.257359,-4.688287 -1.110117,-0.472032 -3.061324,-1.306039 -4.336015,-1.853348 -5.319043,-2.283804 -7.701446,-7.483164 -6.169695,-13.46475 2.161396,-8.440384 12.477588,-10.515074 17.25271,-3.469692 1.102412,1.626538 1.752284,3.184407 1.938138,4.646087 0.153784,1.209464 0.212686,2.297761 0.130895,2.418439 -0.08178,0.120671 -1.394898,0.287213 -2.91802,0.370088 -2.567236,0.139681 -2.778416,0.05921 -2.894062,-1.102965 -0.217774,-2.188473 -2.280656,-4.214367 -4.291319,-4.214367 -1.441413,0 -2.00284,0.326182 -2.9391,1.707573 -2.288786,3.376951 -1.005423,5.673718 4.238544,7.585494 4.317068,1.573857 7.399315,4.027241 8.329649,6.63016 1.061928,2.971098 0.90691,7.417457 -0.356829,10.235005 -1.957326,4.363922 -7.477563,6.81189 -12.122799,5.375897 z m 23.301783,0.04828 c -3.799918,-1.131286 -6.726402,-5.976474 -6.726402,-11.136473 0,-2.103296 0.920486,-5.440436 2.001876,-7.257635 1.713887,-2.880061 3.878865,-3.969764 8.683828,-4.370832 l 4.15727,-0.347008 -0.03453,-2.489887 c -0.06208,-4.477117 -2.754729,-6.930103 -5.916934,-5.390308 -1.059247,0.515787 -1.600995,1.239626 -2.010767,2.68663 l -0.560904,1.980633 h -2.766198 c -2.754076,0 -2.766192,-0.0069 -2.764718,-1.606466 0.0048,-5.18864 4.901708,-10.076924 10.094743,-10.076924 4.190234,0 7.505786,2.436893 9.008437,6.6211 0.798722,2.224079 0.896252,3.564771 1.13318,15.577341 0.142587,7.229098 0.324326,13.624093 0.403873,14.211101 0.128456,0.947938 -0.175912,1.078582 -2.721856,1.16834 -2.820492,0.09942 -2.872802,0.07431 -3.259986,-1.56534 l -0.3935,-1.666385 -1.182672,1.468281 c -0.982569,1.219857 -4.466792,2.919259 -5.481526,2.673569 -0.152602,-0.03692 -0.90105,-0.252829 -1.663215,-0.479737 z m 4.723976,-7.035779 c 0.744332,-0.314967 1.85671,-1.284215 2.471947,-2.153892 0.976328,-1.380094 1.118613,-2.013141 1.118613,-4.976942 V 51.685532 H 53.27202 c -2.944964,0 -4.936558,1.013381 -5.874492,2.989119 -1.568717,3.304465 0.09278,7.89755 2.920345,8.07307 0.32808,0.02039 1.205513,-0.22067 1.949852,-0.535632 z m 20.021671,6.730228 c -1.915923,-1.030954 -3.187853,-3.075348 -3.740699,-6.012493 -0.226686,-1.204319 -0.41315,-7.25004 -0.414361,-13.434934 l -0.0022,-11.245263 h -1.979687 -1.979651 v -3.212933 -3.212931 h 1.979651 1.979653 V 27.442492 23.06122 h 2.969477 2.969477 v 4.381272 4.381271 h 2.177616 2.177615 v 3.212931 3.212933 h -2.177615 -2.177616 v 11.057492 c 0,12.65063 0.05642,12.893457 2.99776,12.893457 h 1.753401 v 3.178454 c 0,1.74815 -0.133625,3.299144 -0.296947,3.446641 -0.91045,0.822265 -4.789709,0.894825 -6.235901,0.11664 z m 17.618902,0.303657 c -3.410002,-1.01987 -6.10672,-4.255461 -7.576111,-9.08999 C 81.0663,55.991001 80.827156,47.626582 81.83343,42.711112 c 1.040044,-5.080464 3.800977,-9.232034 7.061976,-10.618986 6.636619,-2.822654 12.748854,2.016296 13.890754,10.99709 l 0.27597,2.170446 h -2.78487 -2.784882 L 97.054253,43.30097 c -1.333812,-5.96298 -7.00252,-6.836791 -9.01992,-1.390393 -1.014088,2.737734 -1.014929,14.665856 -0.001,16.94858 2.272567,5.11737 7.327783,4.754928 8.974368,-0.643429 0.557009,-1.826166 0.611484,-1.856845 3.297899,-1.856845 h 2.73151 l -0.26824,1.89855 c -1.10913,7.850169 -6.876598,12.778176 -12.860386,10.988537 z m 50.815212,-0.03534 c -3.52801,-1.0817 -6.52594,-4.385319 -8.1455,-8.97608 -0.6469,-1.833683 -0.8921,-3.767332 -1.01841,-8.030805 -0.28327,-9.563164 1.52891,-15.399566 5.87444,-18.919532 1.9283,-1.561959 2.52947,-1.751749 5.52895,-1.745498 2.70513,0.0058 3.68803,0.260177 5.00981,1.297429 3.39717,2.665862 5.17194,7.604449 5.56678,15.490433 l 0.22668,4.527314 h -8.22496 -8.22495 l 0.22549,2.050142 c 0.8101,7.365425 7.0913,10.155086 11.11851,4.938049 l 1.33173,-1.725187 1.66286,2.187896 1.66286,2.187897 -1.31709,1.990036 c -2.54867,3.850911 -7.44391,5.903214 -11.2772,4.727906 z m 6.99064,-23.682154 c 0,-2.425823 -1.42021,-5.868836 -2.75811,-6.686491 -1.53087,-0.935589 -4.16819,-0.450758 -5.24715,0.964604 -0.83383,1.093832 -2.26454,5.156691 -2.28023,6.475372 -0.006,0.547378 1.28003,0.730212 5.1384,0.730212 h 5.14709 z m -41.42969,22.805877 c -0.0833,-0.321294 -0.10514,-12.150726 -0.0483,-26.287627 l 0.10329,-25.703457 2.87049,-0.171635 2.87051,-0.171635 v 9.664388 c 0,6.05348 0.14793,9.664388 0.39593,9.664388 0.21776,0 0.39594,-0.239362 0.39594,-0.531915 0,-0.292558 0.92582,-1.212625 2.05738,-2.044593 4.01707,-2.953508 8.74043,-1.557513 10.88314,3.216531 l 1.115,2.484244 0.12294,15.23274 0.12293,15.232738 h -2.69648 -2.69649 l -0.19816,-13.435897 c -0.22093,-14.978287 -0.33151,-15.632007 -2.8321,-16.742035 -2.00861,-0.891629 -4.04746,-0.181326 -5.45946,1.901975 l -1.19583,1.76436 -0.10635,13.169692 -0.10637,13.169693 -2.72319,0.08611 c -1.50676,0.04768 -2.7909,-0.174837 -2.87479,-0.498062 z m 51.47095,0 c -0.0833,-0.321294 -0.10512,-12.150726 -0.0483,-26.287627 l 0.10329,-25.703457 h 2.77151 2.77151 v 26.201204 26.201205 l -2.72318,0.08643 c -1.50698,0.04784 -2.7909,-0.174475 -2.87481,-0.497747 z m 12.38221,-0.334484 c -2.182,-2.53237 -0.71342,-8.135973 2.13225,-8.135973 1.71442,0 2.73881,0.947633 3.3526,3.101425 1.30345,4.573847 -2.70866,8.256552 -5.48485,5.034548 z m -0.0713,-28.84744 c -1.20222,-1.773784 -1.26193,-4.290293 -0.15124,-6.373633 1.10444,-2.071623 3.78983,-2.192606 4.99034,-0.224824 1.19654,1.961267 1.37561,3.246376 0.71501,5.13117 -1.13143,3.228202 -3.87024,3.951742 -5.55411,1.467287 z"
       id="path6412" /></g></svg>
