<svg xmlns="http://www.w3.org/2000/svg" viewBox="0 0 24 24"><path d="M14.495 21.967c-.114-.024-.344-.131-.756-.35a49.271 49.271 0 0 0-.431-.228c-.124-.064-.281-.148-.35-.184-.069-.038-.223-.118-.342-.18l-.341-.18a64.039 64.039 0 0 1-.683-.359c-.069-.038-.223-.117-.342-.179-.32-.168-.509-.268-.62-.329-.054-.028-.143-.078-.197-.108-.914-.498-1.614-1.002-2.191-1.575-.977-.972-1.368-1.714-1.521-2.885a5.842 5.842 0 0 1-.001-1.219c.066-.448.196-.864.392-1.258.135-.271.172-.335.336-.577.557-.825 1.137-1.357 2.115-1.936.267-.159.646-.368.868-.479a.857.857 0 0 0 .189-.114l.048-.191A1.717 1.717 0 0 1 12.34 8.32c.49-.001.885.164 1.231.513.362.365.528.787.506 1.286a1.727 1.727 0 0 1-1.306 1.612 2.031 2.031 0 0 1-.788.019 2.253 2.253 0 0 1-.567-.235l-.103-.066-.246.129c-.506.264-1.068.614-1.341.833-.501.402-.981 1.049-1.166 1.569-.156.44-.17 1.044-.033 1.603.125.523.386.93.948 1.481.501.49 1.011.849 1.915 1.344.123.068.329.177.907.481l.342.179.336.177a65.924 65.924 0 0 0 .674.356c.062.033.116.06.119.06.003 0-.019-.087-.048-.193a4.812 4.812 0 0 1-.153-1.003c-.009-.262-.009-.302.029-.414a.904.904 0 0 1 .414-.522c.038-.023.145-.064.238-.096a7.262 7.262 0 0 0 2.183-1.2c.233-.186.692-.631.886-.857.958-1.118 1.511-2.401 1.675-3.881.033-.278.033-1.172 0-1.437-.193-1.666-.88-3.098-2.043-4.256a7 7 0 0 0-3.93-1.969 7.203 7.203 0 0 0-2.223.028 7.046 7.046 0 0 0-5.05 3.701 6.963 6.963 0 0 0-.778 3.099c-.01.598.05 1.177.179 1.716.092.382.096.402.097.512.003.37-.262.716-.634.829a.695.695 0 0 1-.291.028.646.646 0 0 1-.316-.081c-.295-.143-.419-.32-.528-.756a11.683 11.683 0 0 1-.146-.712c-.004-.038-.019-.117-.023-.171-.105-.625-.118-1.463-.034-2.21.193-1.725.873-3.307 2.013-4.68.204-.245.824-.864 1.077-1.072a8.823 8.823 0 0 1 2.883-1.609 9.073 9.073 0 0 1 1.896-.4c.133-.009.301-.028.373-.037.169-.024.783-.024.967 0 .078.009.243.028.366.037a8.781 8.781 0 0 1 2.569.651 8.833 8.833 0 0 1 3.797 3.091 8.742 8.742 0 0 1 1.531 4.246c.004.088.014.184.018.214.024.118.029.8.01.988l-.038.404c-.033.35-.068.578-.134.899-.024.114-.047.226-.051.251a.952.952 0 0 1-.038.134.316.316 0 0 0-.019.097c.005.005.002.019-.009.029-.014.014-.059.18-.065.226a.052.052 0 0 1-.014.028.351.351 0 0 0-.024.081c-.019.079-.019.075-.033.111-.009.019-.014.043-.019.054a.296.296 0 0 1-.014.051l-.091.242a8.778 8.778 0 0 1-4.759 4.983c-.047.019-.085.048-.085.062 0 .033.098.381.153.543.063.188.142.395.216.566.206.474.224.535.224.787a1.22 1.22 0 0 1-1.473 1.179Zm-.52-7.864a.366.366 0 0 1-.117-.076c-.068-.068-.872-1.463-.891-1.544a.35.35 0 0 1 .095-.312 3.55 3.55 0 0 1 .391-.248c.276-.16.347-.194.424-.2.193-.019.269.042.459.373.765 1.325.745 1.284.698 1.428-.038.118-.118.181-.481.388-.375.215-.442.237-.578.191Zm-3.293-5.73c-.108-.028-.184-.116-.343-.392-.532-.921-.649-1.127-.671-1.18a.36.36 0 0 1 .094-.385c.078-.071.687-.415.765-.432a.349.349 0 0 1 .292.081c.033.033.105.129.156.218l.289.503c.462.802.451.78.459.88a.34.34 0 0 1-.116.281 5.37 5.37 0 0 1-.383.236c-.348.198-.42.224-.542.19Z"/></svg>