<svg
    xmlns="http://www.w3.org/2000/svg"
    viewBox="0 0 24 24"
    id="vector">
    <path
        id="path"
        d="M 14.495 21.967 C 14.381 21.943 14.151 21.836 13.739 21.617 C 13.626 21.556 13.432 21.454 13.308 21.389 C 13.184 21.325 13.027 21.241 12.958 21.205 C 12.889 21.167 12.735 21.087 12.616 21.025 C 12.498 20.963 12.344 20.881 12.275 20.845 C 12.205 20.807 12.052 20.727 11.933 20.666 C 11.815 20.604 11.661 20.523 11.592 20.486 C 11.523 20.448 11.369 20.369 11.25 20.307 C 10.93 20.139 10.741 20.039 10.63 19.978 C 10.576 19.95 10.487 19.9 10.433 19.87 C 9.519 19.372 8.819 18.868 8.242 18.295 C 7.265 17.323 6.874 16.581 6.721 15.41 C 6.678 15.086 6.678 14.478 6.72 14.191 C 6.786 13.743 6.916 13.327 7.112 12.933 C 7.247 12.662 7.284 12.598 7.448 12.356 C 8.005 11.531 8.585 10.999 9.563 10.42 C 9.83 10.261 10.209 10.052 10.431 9.941 C 10.531 9.89 10.617 9.839 10.62 9.827 C 10.623 9.817 10.644 9.729 10.668 9.636 C 10.778 9.153 11.111 8.733 11.564 8.502 C 11.812 8.376 12.049 8.321 12.34 8.32 C 12.83 8.319 13.225 8.484 13.571 8.833 C 13.933 9.198 14.099 9.62 14.077 10.119 C 14.044 10.893 13.528 11.53 12.771 11.731 C 12.557 11.788 12.196 11.796 11.983 11.75 C 11.819 11.712 11.552 11.602 11.416 11.515 L 11.313 11.449 L 11.067 11.578 C 10.561 11.842 9.999 12.192 9.726 12.411 C 9.225 12.813 8.745 13.46 8.56 13.98 C 8.404 14.42 8.39 15.024 8.527 15.583 C 8.652 16.106 8.913 16.513 9.475 17.064 C 9.976 17.554 10.486 17.913 11.39 18.408 C 11.513 18.476 11.719 18.585 12.297 18.889 C 12.391 18.939 12.545 19.019 12.639 19.068 C 12.733 19.118 12.884 19.198 12.975 19.245 C 13.067 19.294 13.23 19.38 13.339 19.437 C 13.448 19.494 13.588 19.568 13.649 19.601 C 13.711 19.634 13.765 19.661 13.768 19.661 C 13.771 19.661 13.749 19.574 13.72 19.468 C 13.634 19.142 13.579 18.78 13.567 18.465 C 13.558 18.203 13.558 18.163 13.596 18.051 C 13.662 17.831 13.814 17.64 14.01 17.529 C 14.048 17.506 14.155 17.465 14.248 17.433 C 15.031 17.166 15.778 16.756 16.431 16.233 C 16.664 16.047 17.123 15.602 17.317 15.376 C 18.275 14.258 18.828 12.975 18.992 11.495 C 19.025 11.217 19.025 10.323 18.992 10.058 C 18.799 8.392 18.112 6.96 16.949 5.802 C 15.883 4.74 14.51 4.052 13.019 3.833 C 12.297 3.727 11.509 3.737 10.796 3.861 C 8.627 4.238 6.768 5.6 5.746 7.562 C 5.253 8.508 4.987 9.569 4.968 10.661 C 4.958 11.259 5.018 11.838 5.147 12.377 C 5.239 12.759 5.243 12.779 5.244 12.889 C 5.247 13.259 4.982 13.605 4.61 13.718 C 4.509 13.746 4.455 13.756 4.319 13.746 C 4.171 13.737 4.137 13.728 4.003 13.665 C 3.708 13.522 3.584 13.345 3.475 12.909 C 3.437 12.764 3.341 12.29 3.329 12.197 C 3.325 12.159 3.31 12.08 3.306 12.026 C 3.201 11.401 3.188 10.563 3.272 9.816 C 3.465 8.091 4.145 6.509 5.285 5.136 C 5.489 4.891 6.109 4.272 6.362 4.064 C 7.247 3.332 8.165 2.82 9.245 2.455 C 9.809 2.265 10.58 2.103 11.141 2.055 C 11.274 2.046 11.442 2.027 11.514 2.018 C 11.683 1.994 12.297 1.994 12.481 2.018 C 12.559 2.027 12.724 2.046 12.847 2.055 C 13.692 2.131 14.593 2.359 15.416 2.706 C 16.935 3.348 18.271 4.435 19.213 5.797 C 19.994 6.927 20.507 8.226 20.688 9.538 C 20.726 9.815 20.73 9.861 20.744 10.043 C 20.748 10.131 20.758 10.227 20.762 10.257 C 20.786 10.375 20.791 11.057 20.772 11.245 C 20.762 11.354 20.744 11.536 20.734 11.649 C 20.701 11.999 20.666 12.227 20.6 12.548 C 20.576 12.662 20.553 12.774 20.549 12.799 C 20.544 12.823 20.53 12.884 20.511 12.933 C 20.497 12.982 20.488 13.026 20.492 13.03 C 20.497 13.035 20.494 13.049 20.483 13.059 C 20.469 13.073 20.424 13.239 20.418 13.285 C 20.418 13.29 20.413 13.304 20.404 13.313 C 20.399 13.323 20.385 13.361 20.38 13.394 C 20.361 13.473 20.361 13.469 20.347 13.505 C 20.338 13.524 20.333 13.548 20.328 13.559 C 20.326 13.573 20.319 13.597 20.314 13.61 C 20.309 13.624 20.267 13.734 20.223 13.852 C 19.471 15.889 17.913 17.625 15.963 18.601 C 15.725 18.719 15.673 18.744 15.464 18.835 C 15.417 18.854 15.379 18.883 15.379 18.897 C 15.379 18.93 15.477 19.278 15.532 19.44 C 15.595 19.628 15.674 19.835 15.748 20.006 C 15.954 20.48 15.972 20.541 15.972 20.793 C 15.972 21.556 15.249 22.135 14.499 21.972 Z M 13.975 14.103 C 13.942 14.094 13.889 14.056 13.858 14.027 C 13.79 13.959 12.986 12.564 12.967 12.483 C 12.944 12.374 12.982 12.25 13.062 12.171 C 13.095 12.138 13.27 12.029 13.453 11.923 C 13.729 11.763 13.8 11.729 13.877 11.723 C 14.07 11.704 14.146 11.765 14.336 12.096 C 15.101 13.421 15.081 13.38 15.034 13.524 C 14.996 13.642 14.916 13.705 14.553 13.912 C 14.178 14.127 14.111 14.149 13.975 14.103 Z M 10.682 8.373 C 10.574 8.345 10.498 8.257 10.339 7.981 C 9.807 7.06 9.69 6.854 9.668 6.801 C 9.616 6.677 9.658 6.512 9.762 6.416 C 9.84 6.345 10.449 6.001 10.527 5.984 C 10.622 5.965 10.741 5.993 10.819 6.065 C 10.852 6.098 10.924 6.194 10.975 6.283 C 11.026 6.372 11.156 6.598 11.264 6.786 C 11.726 7.588 11.715 7.566 11.723 7.666 C 11.732 7.772 11.69 7.869 11.607 7.947 C 11.579 7.97 11.407 8.078 11.224 8.183 C 10.876 8.381 10.804 8.407 10.682 8.373 Z"
        fill="#000000"
        stroke-width="0.017966"/>
</svg>
