<svg xmlns="http://www.w3.org/2000/svg" viewBox="0 0 48 48"><path fill="none" stroke="#000" stroke-linecap="round" stroke-linejoin="round" stroke-width="2" d="M17.19 6.43h.17a.909.909 0 0 1 .53.32L34.61 28a.913.913 0 0 1-.34 1.38A17.766 17.766 0 0 1 28 30.66a14.008 14.008 0 0 1-11.65-5.48 14.007 14.007 0 0 1-2.62-12.61 17.917 17.917 0 0 1 2.73-5.79.908.908 0 0 1 .72-.35Zm16.17 2a2.7 2.7 0 1 1 .398 5.384 2.7 2.7 0 0 1-.398-5.384ZM18.93 32.1h8.34c.103-.015.207-.015.31 0a1.665 1.665 0 0 1 1.24 1l2.28 5.61a1.69 1.69 0 0 1-1.56 2.31H16.66a1.69 1.69 0 0 1-1.016-.347 1.686 1.686 0 0 1-.534-1.963l2.27-5.61a1.657 1.657 0 0 1 1.55-1Zm.19-26.17 10 3.57m4.92 6.28 1.17 10.51"/></svg>