<svg xmlns="http://www.w3.org/2000/svg" viewBox="0 0 192 192"><path fill="none" stroke="#000" stroke-linecap="round" stroke-linejoin="round" stroke-width="8" d="m116.15 131.988 50.802-.291c4.729-.027 8.548-3.875 8.548-8.612V31.172c0-4.757-3.849-8.612-8.597-8.612H25.643c-4.729 0-8.57 3.824-8.598 8.561l-.545 91.924c-.028 4.753 3.793 8.63 8.537 8.663l40.036.281v37.451l51.076-37.451Z"/><path fill="none" stroke="#000" stroke-linecap="round" stroke-linejoin="round" stroke-width="8" d="M34.908 36.361h7.759a4.291 4.291 0 0 1 3.722 2.152c.377.655.576 1.397.576 2.153v10.7a4.314 4.314 0 0 1-1.259 3.044 4.297 4.297 0 0 1-3.039 1.261h-7.759a4.297 4.297 0 0 1-4.297-4.305v-10.7c0-.756.198-1.498.575-2.153a4.294 4.294 0 0 1 3.722-2.152m28.594 0h7.759a4.294 4.294 0 0 1 3.722 2.152c.377.655.575 1.397.575 2.153v10.7a4.297 4.297 0 0 1-4.297 4.305h-7.759a4.297 4.297 0 0 1-3.039-1.261 4.314 4.314 0 0 1-1.259-3.044v-10.7c0-1.141.454-2.237 1.259-3.044a4.297 4.297 0 0 1 3.039-1.261m28.593 0h7.759a4.305 4.305 0 0 1 4.298 4.305v10.7a4.31 4.31 0 0 1-1.259 3.044 4.295 4.295 0 0 1-3.039 1.261h-7.759a4.297 4.297 0 0 1-4.297-4.305v-10.7a4.305 4.305 0 0 1 4.297-4.305m28.593 0h7.76c1.139 0 2.233.454 3.038 1.261a4.31 4.31 0 0 1 1.259 3.044v10.7a4.31 4.31 0 0 1-1.259 3.044 4.293 4.293 0 0 1-3.038 1.261h-7.76a4.293 4.293 0 0 1-3.038-1.261 4.31 4.31 0 0 1-1.259-3.044v-10.7a4.305 4.305 0 0 1 4.297-4.305m28.594 0h7.759a4.305 4.305 0 0 1 4.298 4.305v10.7a4.31 4.31 0 0 1-1.259 3.044 4.295 4.295 0 0 1-3.039 1.261h-7.759a4.293 4.293 0 0 1-3.038-1.261 4.31 4.31 0 0 1-1.259-3.044v-10.7a4.297 4.297 0 0 1 4.297-4.305M34.908 95.62h7.759a4.3 4.3 0 0 1 4.298 4.304v10.701a4.3 4.3 0 0 1-4.298 4.304h-7.759a4.3 4.3 0 0 1-4.297-4.304V99.924a4.3 4.3 0 0 1 4.297-4.304m28.594 0h64.946a4.3 4.3 0 0 1 4.297 4.304v10.701a4.3 4.3 0 0 1-4.297 4.304H63.502a4.3 4.3 0 0 1-4.298-4.304V99.924a4.3 4.3 0 0 1 4.298-4.304m85.78 0h7.759a4.299 4.299 0 0 1 4.298 4.304v10.701a4.299 4.299 0 0 1-4.298 4.304h-7.759a4.296 4.296 0 0 1-4.297-4.304V99.924a4.296 4.296 0 0 1 4.297-4.304M49.205 65.99h7.759a4.297 4.297 0 0 1 4.297 4.305v10.7a4.305 4.305 0 0 1-4.297 4.305h-7.759a4.305 4.305 0 0 1-4.298-4.305v-10.7a4.31 4.31 0 0 1 1.259-3.044 4.295 4.295 0 0 1 3.039-1.261m28.593 0h7.76c1.139 0 2.233.454 3.038 1.261a4.31 4.31 0 0 1 1.259 3.044v10.7a4.297 4.297 0 0 1-4.297 4.305h-7.76a4.305 4.305 0 0 1-4.297-4.305v-10.7a4.31 4.31 0 0 1 1.259-3.044 4.293 4.293 0 0 1 3.038-1.261m28.594 0h7.759a4.297 4.297 0 0 1 4.297 4.305v10.7c0 .756-.198 1.498-.575 2.153a4.294 4.294 0 0 1-3.722 2.152h-7.759a4.291 4.291 0 0 1-3.722-2.152 4.314 4.314 0 0 1-.575-2.153v-10.7a4.297 4.297 0 0 1 4.297-4.305m28.594 0h7.759c1.139 0 2.233.454 3.038 1.261a4.31 4.31 0 0 1 1.259 3.044v10.7a4.297 4.297 0 0 1-4.297 4.305h-7.759a4.305 4.305 0 0 1-4.298-4.305v-10.7a4.31 4.31 0 0 1 1.259-3.044 4.294 4.294 0 0 1 3.039-1.261"/></svg>