<svg xmlns="http://www.w3.org/2000/svg" viewBox="0 0 192 192"><path fill="none" stroke="#000" stroke-width="8" d="M63.548 154.615c-.013-8.462-.119-15.146-.237-14.852-.19.475-.473.413-2.536-.555-9.039-4.242-15.64-12.504-18.2-22.778-.918-3.685-.844-11.946.141-15.625 2.656-9.927 8.759-17.547 17.452-21.79l3.375-1.648.018-3.348c.033-6.195 1.534-10.218 5.18-13.889 3.022-3.041 5.741-4.261 9.544-4.279l1.635-.008-.593-2.163c-3.322-12.129-10.204-21.354-18.468-24.755-2.11-.868-1.993-.928 2.894-1.482 12.242-1.388 25.779 4.563 33.703 14.815 2.145 2.776 2.324 2.667 1.73-1.061-.661-4.143-2.285-8.093-4.519-10.983-.942-1.221-.945-1.233-.187-1.002 1.837.562 6.142 2.799 8.329 4.329 3.011 2.106 7.216 6.562 9.141 9.687 1.88 3.051 3.417 6.618 4.286 9.945l.678 2.597 2.783.361c7.005.909 12.995 4.001 18.382 9.489 4.292 4.373 7.504 9.804 9.659 16.332 2.447 7.411 2.301 4.488 2.421 48.587l.108 39.461H63.57Zm25.237-26.811c8.599-2.034 15.269-6.372 17.781-11.562.456-.942.914-2.143 1.018-2.669.165-.836.075-1.001-.716-1.314-4.043-1.599-12.158-2.055-17.301-.972-6.61 1.392-12.203 4.558-17.148 9.707-1.891 1.969-4.752 5.769-4.752 6.312 0 .133.319.344.709.471 4.069 1.316 14.902 1.33 20.409.027Zm22.017-47.498c.717-.479 1.694-1.469 2.172-2.201.759-1.16.869-1.639.869-3.767s-.11-2.607-.869-3.767c-.478-.731-1.461-1.725-2.183-2.209-1.147-.768-1.621-.88-3.724-.88-2.104 0-2.577.112-3.724.88-1.979 1.325-3.003 3.101-3.152 5.467-.194 3.09 1.141 5.503 3.803 6.871 1.933.993 5.002.816 6.808-.394Z"/><path fill="none" stroke="#000" stroke-width="8" d="M63.57 153.811c0-18.25-.016-18.106 2.541-23.628 1.112-2.402 1.307-2.648 1.947-2.466 2.089.596 7.167 1.145 10.601 1.147 11.734.006 21.944-4.055 26.729-10.631 1.839-2.527 2.624-5.211 2.624-8.97 0-15.158-9.731-28.308-24.057-32.508-5.897-1.729-12.118-1.746-17.908-.05l-2.477.726v-3.157c0-1.763.226-4.172.512-5.453 1.717-7.685 7.611-12.978 14.453-12.978h1.381l-.756-2.79c-3.094-11.421-10.219-20.831-18.283-24.147-1.589-.653-1.685-.744-.971-.926 4.022-1.021 11.302-.819 16.392.455C84.263 30.429 92 35.434 97.124 41.907c2.52 3.183 2.753 3.084 2.058-.873-.749-4.259-2.278-7.925-4.515-10.82-.942-1.22-.944-1.233-.187-.999.422.13 1.782.707 3.024 1.281 8.976 4.155 15.873 12.398 18.595 22.223l.857 3.093 1.753.197c3.244.362 7.742 1.662 10.474 3.026 3.504 1.749 6.118 3.748 9.341 7.145 5.383 5.672 8.896 12.71 10.845 21.728.679 3.144.686 3.507.793 42.632l.108 39.46h-86.7Zm47.232-73.505c.717-.479 1.694-1.469 2.172-2.201.759-1.16.869-1.639.869-3.767s-.11-2.607-.869-3.767c-.478-.731-1.461-1.725-2.183-2.209-1.147-.768-1.621-.88-3.724-.88-2.104 0-2.577.112-3.724.88-1.979 1.325-3.003 3.101-3.152 5.467-.194 3.09 1.141 5.503 3.803 6.871 1.933.993 5.002.816 6.808-.394Z"/></svg>