<svg xmlns="http://www.w3.org/2000/svg" viewBox="0 0 192 192"><path d="m145.029 167.194-9.275-8.994-4.892 1.359c-11.017 3.059-19.314.747-27.462-7.654l-6.043-6.23h-9.531c-10.289 0-14.616-2.258-14.616-7.628 0-2.648 4.149-7.628 6.356-7.628.791 0 1.272-7.204 1.272-19.07V92.28h-3.814c-2.098 0-3.814.572-3.814 1.271 0 2.207-4.979 6.357-7.628 6.357-4.647 0-7.628-4.472-7.628-11.442 0-4.662.678-7.035 2.542-8.9 2.374-2.373 4.238-2.542 27.97-2.542 23.731 0 25.596.169 27.969 2.542 1.864 1.865 2.542 4.238 2.542 8.9 0 6.97-2.981 11.442-7.627 11.442-2.649 0-7.628-4.15-7.628-6.357 0-.699-1.717-1.271-3.814-1.271h-3.814l.055 18.752c.052 17.489.174 18.421 1.807 13.841 4.867-13.653 21.359-20.948 34.729-15.363 13.063 5.457 19.941 20.433 15.385 33.502-1.388 3.98-1.216 4.282 7.628 13.403 9.613 9.914 10.766 12.968 6.505 17.229-4.257 4.257-7.316 3.108-17.174-6.45Zm-14.512-25.235c2.537-2.536 3.716-4.989 3.716-7.726 0-5.469-5.972-11.442-11.442-11.442-5.469 0-11.441 5.973-11.441 11.442 0 2.737 1.179 5.19 3.716 7.726 2.536 2.536 4.989 3.716 7.725 3.716 2.737 0 5.19-1.18 7.726-3.716Zm-89.053 24.587c-5.81-2.52-8.692-5.242-11.615-10.967-2.259-4.427-2.407-8.323-2.407-63.299 0-54.977.148-58.873 2.407-63.3C35.932 17.062 39.765 16 76.679 16h30.249l21.281 21.308 21.28 21.309v20.009c0 18.315-.215 20.226-2.542 22.553-1.399 1.398-3.687 2.542-5.086 2.542-1.398 0-3.686-1.144-5.085-2.542-2.248-2.248-2.543-4.238-2.543-17.163v-14.62h-13.47c-21.463 0-24.669-3.207-24.669-24.669V31.256H71.938c-22.46 0-24.333.178-26.697 2.543-2.466 2.465-2.543 4.237-2.543 58.481 0 54.243.077 56.015 2.543 58.481 2.343 2.343 4.237 2.542 24.155 2.542 19.917 0 21.812.2 24.155 2.543 1.398 1.398 2.543 3.687 2.543 5.085 0 1.399-1.145 3.687-2.543 5.085-2.356 2.356-4.201 2.539-25.109 2.493-17.204-.038-23.614-.504-26.978-1.963Zm81.327-112.777c0-.204-2.574-2.898-5.721-5.986l-5.72-5.615V54.14h5.72c3.147 0 5.721-.167 5.721-.371Z"/></svg>