<svg xmlns="http://www.w3.org/2000/svg" viewBox="0 0 192 192"><path d="m32.458 130.623.404-71.51h-8.073v90.99c11.094-2.865 22.227-4.688 33.438-4.766 10.351-.065 20.703 1.38 31.08 4.896-6.445-5.222-13.633-9.063-21.302-11.563-9.661-3.151-20.104-4.192-30.807-3.281a4.401 4.401 0 0 1-4.74-4.01 3.673 3.673 0 0 1 0-.756Zm118.464-75.247a5.292 5.292 0 0 1-.052-.664c0-.221.013-.443.052-.664V39.569c-10.156-.964-20.625.156-29.766 3.62-8.541 3.242-15.911 8.567-20.703 16.197v82.474c7.448-4.974 15.065-9.062 22.891-11.849 8.919-3.177 18.086-4.687 27.578-3.932Zm8.789-5.052h11.901A4.39 4.39 0 0 1 176 54.712v101.12a4.39 4.39 0 0 1-5.807 4.153c-12.24-3.502-24.401-5.833-36.446-5.911-11.744-.078-23.476 1.992-35.26 7.187a4.425 4.425 0 0 1-2.5.73 4.485 4.485 0 0 1-2.5-.73c-11.771-5.208-23.516-7.265-35.26-7.187-12.045.078-24.193 2.409-36.446 5.911a4.246 4.246 0 0 1-1.419.235c-2.396.013-4.362-1.953-4.362-4.375V54.712a4.39 4.39 0 0 1 4.388-4.388h12.513l.078-14.662a4.382 4.382 0 0 1 3.49-4.27c11.549-2.409 25.586-1.81 37.89 2.903 8.503 3.255 16.224 8.451 21.862 15.951 5.69-6.992 13.295-12.018 21.849-15.261 11.693-4.44 25.183-5.507 37.878-3.645 2.187.312 3.75 2.2 3.75 4.335v14.649Zm-55 99.245c9.7-3.047 19.388-4.297 29.075-4.245 11.211.065 22.344 1.901 33.438 4.766V59.113h-7.513v71.901a4.39 4.39 0 0 1-5.404 4.271c-9.609-1.511-18.919-.261-28.008 2.982-7.317 2.617-14.505 6.523-21.588 11.302Zm-13.034-8.555V59.256c-4.596-8.112-12.031-13.541-20.43-16.758-9.518-3.645-20.208-4.466-29.531-3.138l-.495 86.993c10.17-.365 20.118.924 29.48 3.984a75.137 75.137 0 0 1 20.976 10.677Z"/></svg>