<svg
    xmlns="http://www.w3.org/2000/svg"
    viewBox="0 0 192 192"
    id="vector">
    <path
        id="path"
        d="M 32.458 130.623 L 32.862 59.113 L 24.789 59.113 L 24.789 150.103 C 35.883 147.238 47.016 145.415 58.227 145.337 C 68.578 145.272 78.93 146.717 89.307 150.233 C 82.862 145.011 75.674 141.17 68.005 138.67 C 58.344 135.519 47.901 134.478 37.198 135.389 C 34.776 135.584 32.667 133.787 32.458 131.379 C 32.432 131.118 32.432 130.871 32.458 130.623 Z M 150.922 55.376 C 150.896 55.168 150.87 54.946 150.87 54.712 C 150.87 54.491 150.883 54.269 150.922 54.048 L 150.922 39.569 C 140.766 38.605 130.297 39.725 121.156 43.189 C 112.615 46.431 105.245 51.756 100.453 59.386 L 100.453 141.86 C 107.901 136.886 115.518 132.798 123.344 130.011 C 132.263 126.834 141.43 125.324 150.922 126.079 Z M 159.711 50.324 L 171.612 50.324 C 174.034 50.324 176 52.29 176 54.712 L 176 155.832 C 176 158.254 174.034 160.22 171.612 160.22 C 171.117 160.22 170.635 160.142 170.193 159.985 C 157.953 156.483 145.792 154.152 133.747 154.074 C 122.003 153.996 110.271 156.066 98.487 161.261 C 97.758 161.743 96.885 162.004 95.987 161.991 C 95.102 162.004 94.229 161.743 93.487 161.261 C 81.716 156.053 69.971 153.996 58.227 154.074 C 46.182 154.152 34.034 156.483 21.781 159.985 C 21.339 160.142 20.857 160.22 20.362 160.22 C 17.966 160.233 16 158.267 16 155.845 L 16 54.712 C 16 52.29 17.966 50.324 20.388 50.324 L 32.901 50.324 L 32.979 35.662 C 32.992 33.553 34.477 31.808 36.469 31.392 C 48.018 28.983 62.055 29.582 74.359 34.295 C 82.862 37.55 90.583 42.746 96.221 50.246 C 101.911 43.254 109.516 38.228 118.07 34.985 C 129.763 30.545 143.253 29.478 155.948 31.34 C 158.135 31.652 159.698 33.54 159.698 35.675 L 159.698 50.324 Z M 104.711 149.569 C 114.411 146.522 124.099 145.272 133.786 145.324 C 144.997 145.389 156.13 147.225 167.224 150.09 L 167.224 59.113 L 159.711 59.113 L 159.711 131.014 C 159.711 133.436 157.745 135.402 155.323 135.402 C 154.971 135.402 154.633 135.363 154.307 135.285 C 144.698 133.774 135.388 135.024 126.299 138.267 C 118.982 140.884 111.794 144.79 104.711 149.569 Z M 91.677 141.014 L 91.677 59.256 C 87.081 51.144 79.646 45.715 71.247 42.498 C 61.729 38.853 51.039 38.032 41.716 39.36 L 41.221 126.353 C 51.391 125.988 61.339 127.277 70.701 130.337 C 78.148 132.759 85.206 136.314 91.677 141.014 Z"
        fill="#000000"
        stroke-width="12"/>
</svg>
