<svg version="1.1" id="Layer_1" x="0" y="0" viewBox="0 0 48 48" style="enable-background:new 0 0 48 48" xml:space="preserve" xmlns="http://www.w3.org/2000/svg"><style type="text/css" id="style4787">.st0{fill:none;stroke:#000;stroke-linecap:round;stroke-linejoin:round}</style><g id="g4797" style="stroke-width:2;stroke-miterlimit:4;stroke-dasharray:none"><path class="st0" d="M38.3 28.6c0 2-1.6 3.6-3.6 3.6h0c-.2 0-.5 0-.7-.1.1.3.1.5.1.8 0 2-1.6 3.6-3.6 3.6-1 0-2-.4-2.6-1.1-.5 1.9-2.4 3.1-4.3 2.7-1.3-.3-2.3-1.3-2.7-2.7-1.3 1.5-3.6 1.6-5 .3-1-.9-1.4-2.3-1.1-3.6-.2 0-.5.1-.7.1-2 0-3.6-1.6-3.6-3.6h0v-.1H5.9v11.7c0 1.1.8 2 1.9 2 0 0 0 0 0 0H41c1.1 0 2-.9 2-2V28.4h-4.6c-.1.1-.1.1-.1.2z" id="path4789" style="stroke-width:2;stroke-miterlimit:4;stroke-dasharray:none"/><path class="st0" d="m14.6 5.9 3.7 5.6-5.9 1.4-3.6 4.8-3.7-5.6 5.9-1.4 3.6-4.8z" id="path4791" style="stroke-width:2;stroke-miterlimit:4;stroke-dasharray:none"/><path class="st0" d="M7.9 16.3c-1.3 2.6-2 5.4-2 8.3v3.8m6.7-19.8L11 7c-.6-.6-1.4-.9-2.2-.9-1.7 0-3 1.3-3 3 0 .8.3 1.6.9 2.2l.4.3m35.8 16.8v-3.8c0-3.9-1.3-7.7-3.5-10.8l2.6-2.6c1.2-1.2 1.2-3.1 0-4.3-1.2-1.2-3.1-1.2-4.3 0h0l-2.6 2.6c-5.6-4-12.9-4.6-19-1.5m3.4 12.8c0 1.6-1.3 2.9-2.9 2.9-1.6 0-2.9-1.3-2.9-2.9 0-1.6 1.3-2.9 2.9-2.9h0c1.6 0 2.9 1.3 2.9 2.9h0zm12.6 3c-1.6 0-2.9-1.3-2.9-2.9s1.3-2.9 2.9-2.9c1.6 0 2.9 1.3 2.9 2.9v0h0c.1 1.5-1.2 2.8-2.9 2.9h0z" id="path4793" style="stroke-width:2;stroke-miterlimit:4;stroke-dasharray:none"/><path class="st0" id="line4795" style="stroke-width:2;stroke-miterlimit:4;stroke-dasharray:none" d="M10.5 28.5h27.8"/></g></svg>