<svg xmlns="http://www.w3.org/2000/svg" viewBox="0 0 48 48"><path d="M29.658 36.338a3.597 3.597 0 0 1-2.138-1.108 3.596 3.596 0 0 1-3.5 2.757 3.602 3.602 0 0 1-3.5-2.757 3.576 3.576 0 0 1-4.351.815A3.567 3.567 0 0 1 14.37 32a3.6 3.6 0 0 1-4.3-3.52v-.14H5.51V40a1.938 1.938 0 0 0 1.879 1.999L7.45 42h25.163M7.501 16.179A18.416 18.416 0 0 0 5.53 24.51v3.8h28.542M12.224 8.474 10.68 6.93A3.222 3.222 0 0 0 8.5 6a3 3 0 0 0-2.12 5.15l.356.348M42.53 28.795V24.51A18.57 18.57 0 0 0 39 13.72l2.58-2.56a3.018 3.018 0 0 0-.012-4.258A3.014 3.014 0 0 0 37.31 6.9l-2.55 2.6a18.398 18.398 0 0 0-19.039-1.502M19.13 20.72a2.931 2.931 0 1 1-2.94-2.92h.01a2.932 2.932 0 0 1 2.94 2.9Zm12.65 2.92a2.924 2.924 0 0 1-2.065-.855 2.924 2.924 0 0 1 0-4.13 2.924 2.924 0 0 1 4.13 0c.547.548.855 1.291.855 2.065a2.92 2.92 0 0 1-2.91 2.9Z" fill="none" stroke="#000" stroke-width="2" stroke-linecap="round" stroke-linejoin="round"/><path d="m14.267 5.76 3.656 5.628-5.906 1.362-3.646 4.842-3.656-5.628 5.906-1.362Zm23.628 21.614a8.26 8.26 0 0 0-4.872 1.57 8.263 8.263 0 0 0 0 13.394 8.26 8.26 0 0 0 4.872 1.57 8.263 8.263 0 0 0 7.887-5.707 8.264 8.264 0 0 0-3.014-9.257 8.263 8.263 0 0 0-4.873-1.57Z" fill="none" stroke="#000" stroke-width="2" stroke-linecap="round" stroke-linejoin="round"/><path d="M39.401 32.005a2.13 2.13 0 1 1-.001 4.262 2.13 2.13 0 0 1 .001-4.262Zm-1.506 3.636-3.24 3.241m.815-.816.998.999" fill="none" stroke="#000" stroke-width="2" stroke-linecap="round" stroke-linejoin="round"/></svg>