<svg
    xmlns="http://www.w3.org/2000/svg"
    viewBox="0 0 48 48"
    id="vector">
    <path
        id="path"
        d="M 29.658 36.338 C 28.839 36.225 28.084 35.834 27.52 35.23 C 27.331 36.016 26.883 36.715 26.248 37.215 C 25.613 37.715 24.828 37.987 24.02 37.987 C 23.212 37.987 22.427 37.715 21.792 37.215 C 21.157 36.715 20.709 36.016 20.52 35.23 C 19.992 35.835 19.275 36.245 18.486 36.393 C 17.697 36.541 16.88 36.418 16.169 36.045 C 15.458 35.672 14.893 35.069 14.567 34.335 C 14.24 33.601 14.171 32.778 14.37 32 C 14.14 32.049 13.905 32.072 13.67 32.07 C 12.717 32.07 11.803 31.692 11.128 31.019 C 10.453 30.346 10.073 29.433 10.07 28.48 L 10.07 28.34 L 5.51 28.34 L 5.51 40 C 5.499 40.34 5.579 40.678 5.74 40.978 C 5.901 41.278 6.138 41.53 6.428 41.709 C 6.717 41.889 7.049 41.989 7.389 41.999 Q 7.42 42 7.45 42 L 32.613 42 M 7.501 16.179 C 6.199 18.763 5.523 21.617 5.53 24.51 L 5.53 28.31 L 34.072 28.31 M 12.224 8.474 L 10.68 6.93 C 10.098 6.354 9.318 6.022 8.5 6 C 7.901 5.994 7.314 6.168 6.814 6.5 C 6.315 6.831 5.926 7.304 5.698 7.858 C 5.47 8.412 5.413 9.022 5.534 9.608 C 5.656 10.195 5.951 10.732 6.38 11.15 L 6.736 11.498 M 42.53 28.795 L 42.53 24.51 C 42.509 20.634 41.274 16.86 39 13.72 L 41.58 11.16 C 42.142 10.593 42.456 9.826 42.454 9.028 C 42.452 8.231 42.133 7.465 41.568 6.902 C 41.003 6.338 40.237 6.021 39.439 6.021 C 38.642 6.021 37.875 6.337 37.31 6.9 L 34.76 9.5 C 32.028 7.531 28.808 6.349 25.451 6.084 C 22.094 5.819 18.727 6.481 15.721 7.998 M 19.13 20.72 C 19.133 21.497 18.826 22.244 18.279 22.795 C 17.731 23.346 16.987 23.657 16.21 23.66 C 15.433 23.663 14.686 23.356 14.135 22.809 C 13.584 22.261 13.273 21.517 13.27 20.74 C 13.267 19.963 13.574 19.216 14.121 18.665 C 14.669 18.114 15.413 17.803 16.19 17.8 L 16.2 17.8 C 16.973 17.797 17.717 18.101 18.268 18.644 C 18.818 19.187 19.132 19.927 19.14 20.7 Z M 31.78 23.64 C 31.006 23.64 30.263 23.332 29.715 22.785 C 29.168 22.237 28.86 21.494 28.86 20.72 C 28.86 19.946 29.168 19.203 29.715 18.655 C 30.263 18.108 31.006 17.8 31.78 17.8 C 32.554 17.8 33.297 18.108 33.845 18.655 C 34.392 19.203 34.7 19.946 34.7 20.72 C 34.695 21.489 34.386 22.226 33.841 22.768 C 33.297 23.311 32.559 23.617 31.79 23.62 Z"
        fill="none"
        stroke="#000000"
        stroke-width="2"
        stroke-linecap="round"
        stroke-linejoin="round"/>
    <path
        id="path_1"
        d="M 14.267 5.76 L 17.923 11.388 L 12.017 12.75 L 8.371 17.592 L 4.715 11.964 L 10.621 10.602 Z M 37.895 27.374 C 36.146 27.368 34.44 27.918 33.023 28.944 C 31.605 29.969 30.55 31.418 30.008 33.081 C 29.467 34.745 29.467 36.537 30.008 38.201 C 30.55 39.864 31.605 41.313 33.023 42.338 C 34.44 43.364 36.146 43.914 37.895 43.908 C 39.644 43.914 41.351 43.364 42.768 42.338 C 44.185 41.313 45.241 39.864 45.782 38.201 C 46.324 36.537 46.324 34.745 45.782 33.081 C 45.241 31.418 44.185 29.969 42.768 28.944 C 41.351 27.918 39.644 27.368 37.895 27.374 Z"
        fill="none"
        stroke="#000000"
        stroke-width="2"
        stroke-linecap="round"
        stroke-linejoin="round"/>
    <path
        id="path_2"
        d="M 39.401 32.005 C 39.966 32.005 40.508 32.23 40.907 32.629 C 41.307 33.028 41.531 33.57 41.531 34.135 C 41.531 34.7 41.307 35.242 40.907 35.641 C 40.508 36.04 39.966 36.265 39.401 36.265 C 38.837 36.265 38.294 36.04 37.895 35.641 C 37.496 35.242 37.271 34.7 37.271 34.135 C 37.271 33.761 37.37 33.394 37.557 33.07 C 37.743 32.746 38.012 32.477 38.336 32.29 C 38.66 32.103 39.027 32.005 39.401 32.005 Z M 37.895 35.641 L 34.655 38.882 M 35.47 38.066 L 36.468 39.065"
        fill="none"
        stroke="#000000"
        stroke-width="2"
        stroke-linecap="round"
        stroke-linejoin="round"/>
</svg>
