<svg width="24" height="24" fill="none" viewBox="0 0 24 24" xmlns="http://www.w3.org/2000/svg"><path d="M6.817 18.641a5.539 5.539 0 0 1-4.651-4.067c-.16-.604-.213-1.59-.121-2.226.267-1.858 1.555-3.511 3.313-4.254.768-.324 1.192-.402 2.156-.4.748.003.911.02 1.351.138.275.074.698.227.94.34.442.207 1.125.648 1.295.835.128.141.161.128.232-.093.105-.33.5-1.053.769-1.41 1.142-1.516 3.096-2.372 4.94-2.164 2.346.264 4.207 1.847 4.793 4.077.16.604.213 1.59.121 2.225-.267 1.858-1.555 3.512-3.313 4.254-.769.325-1.192.403-2.156.4-.748-.003-.911-.02-1.351-.137a6.86 6.86 0 0 1-.94-.34c-.442-.207-1.126-.648-1.295-.835-.128-.141-.161-.128-.232.092-.034.107-.163.391-.287.632-.839 1.63-2.443 2.727-4.3 2.94a4.42 4.42 0 0 1-1.264-.007zm1.434-3.036a2.59 2.59 0 0 0 1.528-1.315c.36-.732.35-1.56-.029-2.308-.196-.388-.745-.915-1.153-1.109-1.704-.807-3.662.436-3.662 2.326 0 .823.54 1.752 1.264 2.177.58.34 1.397.43 2.052.229zm9.086-2.37c1.322-.455 2.054-1.979 1.572-3.268-.254-.677-.84-1.286-1.478-1.533-.448-.173-1.186-.198-1.657-.055-.67.204-1.241.69-1.553 1.322-.36.732-.35 1.56.029 2.308.303.598 1.08 1.186 1.747 1.321.36.074.975.03 1.34-.096z" fill="#000"/></svg>