<svg xmlns="http://www.w3.org/2000/svg" viewBox="0 0 192 192"><path d="M91.396 49.779v92.442M57.881 70.771h67.031v27.806M51.068 98.578h89.864c0 20.256-5.524 31.673-13.995 31.673h-14.548m10.128-75.5a65.66 65.66 0 0 1 18.047 13.258" fill="none" stroke="#000" stroke-width="8" stroke-linecap="round" stroke-linejoin="round"/><path d="M96 16.5a79.529 79.529 0 0 0-56.215 23.285A79.529 79.529 0 0 0 16.5 96a79.529 79.529 0 0 0 23.285 56.215A79.529 79.529 0 0 0 96 175.5a79.529 79.529 0 0 0 56.215-23.285A79.529 79.529 0 0 0 175.5 96a79.529 79.529 0 0 0-23.285-56.215A79.529 79.529 0 0 0 96 16.5Z" fill="none" stroke="#000" stroke-width="8" stroke-linecap="round" stroke-linejoin="round"/></svg>