<svg
    xmlns="http://www.w3.org/2000/svg"
    viewBox="0 0 192 192"
    id="vector">
    <path
        id="path"
        d="M 89.762 116.478 C 79.224 106.091 70.584 93.673 64.29 79.867 C 70.483 73.034 76.272 66.501 78.628 64.223 C 80.013 62.471 80.954 60.363 81.36 58.104 C 81.766 55.846 81.623 53.512 80.946 51.33 C 79.033 42.379 77.553 33.327 76.511 24.211 C 76.293 21.945 75.246 19.862 73.603 18.425 C 71.959 16.988 69.85 16.311 67.744 16.546 Q 67.533 16.569 67.324 16.604 L 33.296 16.604 C 31.892 16.74 30.576 17.406 29.582 18.483 C 28.589 19.559 27.979 20.98 27.862 22.492 C 27.306 39.004 29.822 55.471 35.261 70.923 M 100.435 155.895 C 108.423 160.452 140.176 177.642 169.852 175.278 C 171.271 175.171 172.609 174.525 173.626 173.454 C 174.643 172.383 175.273 170.957 175.403 169.433 L 175.403 132.859 C 175.732 130.608 175.216 128.306 173.969 126.464 C 172.722 124.621 170.845 123.386 168.752 123.032 C 168.613 123.009 168.473 122.989 168.334 122.974 C 159.876 121.85 151.477 120.257 143.171 118.202 C 141.144 117.473 138.975 117.319 136.876 117.756 C 134.777 118.193 132.818 119.205 131.189 120.695 C 129.072 123.017 122.962 129.505 116.611 136.21 Q 113.395 134.509 110.298 132.603 M 39.892 83.58 C 42.693 90.51 45.173 95.547 46.277 97.703 L 46.277 97.961 L 46.756 98.95 C 53.862 112.212 62.786 124.246 73.227 134.645"
        fill="none"
        stroke="#000000"
        stroke-width="12"
        stroke-linecap="round"
        stroke-linejoin="round"/>
    <path
        id="path_1"
        d="M 47.576 100.455 C 41.446 101.991 36.931 102.119 35.164 99.481 C 28.219 89.115 49.727 79.472 45.022 69.828 C 41.93 63.489 7.831 84.052 18.585 105.991 C 27.295 123.761 45.813 126.584 63.511 123.966"
        fill="none"
        stroke="#000000"
        stroke-width="12"
        stroke-linecap="round"
        stroke-linejoin="round"/>
    <path
        id="path_2"
        d="M 89.763 116.477 C 81.316 129.375 52.638 147.855 52.19 175.5 L 103.72 175.5 C 84.676 156.616 131.949 113.462 118.283 95.984 C 109.705 85.014 89.983 85.62 70.948 92.516"
        fill="none"
        stroke="#000000"
        stroke-width="12"
        stroke-linecap="round"
        stroke-linejoin="round"/>
</svg>
