<svg xmlns="http://www.w3.org/2000/svg" viewBox="0 0 192 192"><path d="M89.762 116.478C79.224 106.091 70.584 93.673 64.29 79.867c6.193-6.833 11.982-13.366 14.338-15.644a13.806 13.806 0 0 0 2.732-6.119 14.346 14.346 0 0 0-.414-6.774 284.188 284.188 0 0 1-4.435-27.119c-.218-2.266-1.265-4.349-2.908-5.786-1.644-1.437-3.753-2.114-5.859-1.879q-.211.023-.42.058H33.296c-1.404.136-2.72.802-3.714 1.879-.993 1.076-1.603 2.497-1.72 4.009-.556 16.512 1.96 32.979 7.399 48.431m65.174 84.972c7.988 4.557 39.741 21.747 69.417 19.383 1.419-.107 2.757-.753 3.774-1.824 1.017-1.071 1.647-2.497 1.777-4.021v-36.574c.329-2.251-.187-4.553-1.434-6.395-1.247-1.843-3.124-3.078-5.217-3.432a7.493 7.493 0 0 0-.418-.058 232.038 232.038 0 0 1-25.163-4.772 11.583 11.583 0 0 0-6.295-.446c-2.099.437-4.058 1.449-5.687 2.939-2.117 2.322-8.227 8.81-14.578 15.515q-3.216-1.701-6.313-3.607M39.892 83.58c2.801 6.93 5.281 11.967 6.385 14.123v.258l.479.989c7.106 13.262 16.03 25.296 26.471 35.695" fill="none" stroke="#000" stroke-width="12" stroke-linecap="round" stroke-linejoin="round"/><path d="M47.576 100.455c-6.13 1.536-10.645 1.664-12.412-.974-6.945-10.366 14.563-20.009 9.858-29.653-3.092-6.339-37.191 14.224-26.437 36.163 8.71 17.77 27.228 20.593 44.926 17.975" fill="none" stroke="#000" stroke-width="12" stroke-linecap="round" stroke-linejoin="round"/><path d="M89.763 116.477c-8.447 12.898-37.125 31.378-37.573 59.023h51.53c-19.044-18.884 28.229-62.038 14.563-79.516-8.578-10.97-28.3-10.364-47.335-3.468" fill="none" stroke="#000" stroke-width="12" stroke-linecap="round" stroke-linejoin="round"/></svg>