<svg xmlns="http://www.w3.org/2000/svg" viewBox="0 0 192 192"><path fill="none" stroke="#000" stroke-linecap="round" stroke-linejoin="round" stroke-width="12" d="m141.766 141.189 33.734 14.146V24.067a7.566 7.566 0 0 0-7.563-7.567H57.883a7.563 7.563 0 0 0-7.563 7.567v26.099"/><path fill="none" stroke="#000" stroke-linecap="round" stroke-linejoin="round" stroke-width="12" d="M16.5 36.321v129.892a9.286 9.286 0 0 0 9.239 9.287h106.788a9.286 9.286 0 0 0 9.239-9.287V59.41a9.197 9.197 0 0 0-4.61-8.019 9.192 9.192 0 0 0-4.629-1.225H49.503Zm62.311 40.847a19.451 19.451 0 0 1 11.822 4.079 19.476 19.476 0 0 1 6.903 10.433 19.48 19.48 0 0 1-9.142 21.862l4.555 32.592H65.274l4.298-32.549a19.481 19.481 0 0 1-2.494-32.205 19.456 19.456 0 0 1 11.733-4.212Z"/></svg>