<svg xmlns="http://www.w3.org/2000/svg" viewBox="0 0 192 192"><path d="M133.678 18.025a5.088 5.088 0 0 1 2.308-1.344 5.162 5.162 0 0 1 2.686 0 5.088 5.088 0 0 1 2.308 1.344l32.945 32.199a4.933 4.933 0 0 1 1.396 2.267c.246.866.246 1.78 0 2.646a4.933 4.933 0 0 1-1.396 2.267l-21.993 21.494-40.29-39.378ZM111.686 39.52l40.29 39.249-7.345 7.18-40.247-39.379Zm32.945 46.558-79.174 77.38-48.956 12.037 10.953-53.736 76.93-75.103m-76.93 75.146 38.003 41.613m43.15-95.35L49.49 125.843m72.18-45.01-59.116 57.821" fill="none" stroke="#000" stroke-width="12" stroke-linecap="round" stroke-linejoin="round"/></svg>