<svg
    xmlns="http://www.w3.org/2000/svg"
    viewBox="0 0 192 192"
    id="vector">
    <path
        id="path"
        d="M 71.316 36.253 C 69.098 36.253 66.919 36.84 64.998 37.956 C 63.078 39.072 61.482 40.678 60.373 42.611 C 59.265 44.544 58.681 46.737 58.681 48.969 L 58.681 53.071 L 57.009 54.794 C 46.559 65.68 33.441 73.605 18.98 77.766 L 17.023 78.381 L 17.023 80.432 C 15.322 95.844 17.787 111.436 24.156 125.556 C 31.372 139.434 43.532 150.075 58.191 155.337 L 59.292 155.747 L 60.393 155.337 C 75.069 150.087 87.246 139.445 94.468 125.556 L 162.864 125.556 C 166.208 125.534 169.411 124.187 171.775 121.807 C 174.14 119.428 175.479 116.204 175.5 112.839 L 175.5 48.969 C 175.489 45.601 174.154 42.371 171.787 39.989 C 169.421 37.608 166.211 36.263 162.864 36.253 Z M 101.724 90.729 C 101.724 89.867 101.479 81.294 101.438 80.432 L 101.438 78.381 L 99.441 77.766 C 84.029 72.963 70.028 64.41 58.681 52.866 M 94.387 125.351 C 99.403 114.518 101.912 102.679 101.724 90.729 M 82.648 91.631 L 55.746 119.197 L 39.686 104.184 M 164.617 48.969 L 117.09 78.34 M 117.09 78.34 L 69.564 48.969"
        fill="none"
        stroke="#000000"
        stroke-width="12"
        stroke-linecap="round"
        stroke-linejoin="round"/>
</svg>
