<svg xmlns="http://www.w3.org/2000/svg" viewBox="0 0 192 192"><path d="M96 16.5c-21.069 0-41.297 7.757-56.199 21.551C24.898 51.845 16.512 70.575 16.5 90.088v45.376c.007 7.752 2.689 15.302 7.654 21.542 4.964 6.24 11.955 10.85 19.946 13.153.001 1.416.608 2.775 1.69 3.777 1.081 1.001 2.548 1.564 4.077 1.564H61.4a6.092 6.092 0 0 0 2.893-.703 5.533 5.533 0 0 0 2.115-1.959 4.997 4.997 0 0 0 .759-2.679v-69.308a5 5 0 0 0-.759-2.679 5.523 5.523 0 0 0-2.115-1.958 6.068 6.068 0 0 0-2.893-.703H49.867a6.13 6.13 0 0 0-2.883.715 5.572 5.572 0 0 0-2.111 1.955 5.043 5.043 0 0 0-.773 2.67c-5.444 1.567-10.45 4.225-14.658 7.787v-18.55c-.025-10.731 3.012-21.281 8.804-30.577l7.219 4.811a5.903 5.903 0 0 0 3.07.911 5.928 5.928 0 0 0 3.102-.81 5.31 5.31 0 0 0 2.104-2.262c6.397-8.342 15.515-14.571 26.011-17.768a55.655 55.655 0 0 1 32.32 0c10.496 3.197 19.614 9.426 26.011 17.768a5.31 5.31 0 0 0 2.104 2.262 5.928 5.928 0 0 0 3.102.81 5.906 5.906 0 0 0 3.07-.911l7.219-4.811c5.792 9.296 8.829 19.846 8.804 30.577v18.469c-4.209-3.562-9.214-6.221-14.659-7.787 0-.938-.266-1.859-.772-2.67a5.564 5.564 0 0 0-2.111-1.955 6.12 6.12 0 0 0-2.883-.716H130.6a6.092 6.092 0 0 0-2.893.703 5.533 5.533 0 0 0-2.115 1.959 4.997 4.997 0 0 0-.759 2.679v69.308a5 5 0 0 0 .759 2.679 5.53 5.53 0 0 0 2.115 1.958c.88.468 1.878.711 2.893.703h11.533a6.13 6.13 0 0 0 2.883-.715 5.572 5.572 0 0 0 2.111-1.955 5.043 5.043 0 0 0 .773-2.67c7.991-2.303 14.982-6.913 19.946-13.154 4.965-6.24 7.647-13.79 7.654-21.541V90.088c-.012-19.513-8.398-38.243-23.301-52.037C137.297 24.257 117.069 16.5 96 16.5Zm-51.9 84.27v69.389m103.8-69.389v69.389" fill="none" stroke="#000" stroke-width="12" stroke-linecap="round" stroke-linejoin="round"/><path d="M45.641 49.808c6.247-6.701 13.977-12.082 22.666-15.774C76.995 30.341 86.44 28.421 96 28.405c9.56.016 19.005 1.936 27.693 5.629 8.689 3.692 16.419 9.073 22.666 15.774" fill="none" stroke="#000" stroke-width="8" stroke-linecap="round" stroke-linejoin="round"/></svg>