<svg xmlns="http://www.w3.org/2000/svg" viewBox="0 0 192 192"><path fill="none" stroke="#000" stroke-linecap="round" stroke-linejoin="round" stroke-width="12" d="M71.316 36.253c-2.218 0-4.397.587-6.318 1.703a12.684 12.684 0 0 0-4.625 4.655 12.788 12.788 0 0 0-1.692 6.358v4.102l-1.672 1.723A85.498 85.498 0 0 1 18.98 77.766l-1.957.615v2.051a86.655 86.655 0 0 0 7.133 45.124c7.216 13.878 19.376 24.519 34.035 29.781l1.101.41 1.101-.41c14.676-5.25 26.853-15.892 34.075-29.781h68.396a12.68 12.68 0 0 0 8.911-3.749 12.838 12.838 0 0 0 3.725-8.968v-63.87a12.803 12.803 0 0 0-3.713-8.98 12.638 12.638 0 0 0-8.923-3.736Zm30.408 54.476c0-.862-.245-9.435-.286-10.297v-2.051l-1.997-.615a98.083 98.083 0 0 1-40.76-24.9m35.706 72.485a79.44 79.44 0 0 0 7.337-34.622m-19.076.902-26.902 27.566-16.06-15.013m124.931-55.215L117.09 78.34m0 0L69.564 48.969"/></svg>