<svg xmlns="http://www.w3.org/2000/svg" viewBox="0 0 192 192"><path d="M75.655 174.027c-4.152-1.022-10.008-3.024-13.012-4.448-3.005-1.424-4.732-2.393-3.839-2.154.893.24 3.821.71 6.506 1.045 2.686.334 7.203 1.108 10.04 1.718 17.015 3.661 42.047-8.595 52.277-25.594 6.335-10.528 8.455-17.875 8.548-29.625.103-13.023-2.545-22.051-9.53-32.495-8.376-12.523-19.165-19.014-31.427-18.908-3.854.033-8.028.476-9.274.985-1.663.678-.191.917 5.523.897 6.773-.024 8.64.391 14.279 3.17 7.542 3.716 12.434 8.425 17.479 16.822 5.927 9.867 7.822 17.727 7.311 30.319-.524 12.876-2.695 19.65-9.494 29.623-5.188 7.609-11.773 13.321-20.347 17.649-6.338 3.2-16.33 6.047-20.637 5.882-2.134-.082-1.717-.331 1.646-.983 7.284-1.412 18.313-7.437 24.165-13.202 18.683-18.406 19.747-47.237 2.451-66.474-8.003-8.901-20.877-15.326-30.709-15.326-3.617 0-3.915-.213-3.915-2.793 0-4.675 2.892-14.236 6.163-20.372 8.661-16.25 28.652-26.03 47.01-22.998 10.721 1.77 17.195 5.345 26.436 14.594 32.13 32.161 28.896 87.561-6.812 116.679-12.26 9.998-33.106 18.15-45.68 17.865l-5.595-.127 6.118-.798c24.702-3.224 45.49-18.134 56.333-40.407 5.6-11.501 7.477-19.893 7.409-33.115-.047-8.904-.567-12.718-2.721-19.935-7.294-24.442-25.119-42.248-44.3-44.253-6.91-.722-18.263 1.05-21.039 3.284-1.688 1.358-1.663 1.411.407.843 5.844-1.603 13.319-2.203 18.308-1.468 11.919 1.754 19.867 6.4 28.058 16.402 17.515 21.387 21.062 52.245 8.878 77.241-7.318 15.014-19.575 27.093-34.597 34.095-7.365 3.433-17.678 6.322-22.663 6.348-1.617.008-2.549.44-2.193 1.016 1.005 1.627-9.256 1.041-17.561-1.002Zm30.073-3.921c19.313-6.03 36.079-22.915 42.324-42.624 1.838-5.802 2.21-9.245 2.162-20.02-.05-11.42-.379-13.912-2.682-20.355-7.224-20.211-21.38-33.88-37.436-36.149-6.578-.93-14.1-.031-19.857 2.375-5.297 2.213-3.924 2.932 1.845.966 6.976-2.377 17.556-1.561 25.155 1.941 15.531 7.155 28.528 30.719 28.528 51.722 0 7.463-2.722 19.66-5.921 26.527-9.134 19.61-26.494 32.524-49.689 36.965l-7.952 1.522 8.508-.419c4.68-.231 11.436-1.333 15.015-2.451Zm-45.943-5.671c-18.817-5.06-36.471-26.876-41.642-51.459-1.886-8.965-1.91-25.453-.05-34.228 4.982-23.507 20.738-43.438 43.262-54.725 14.99-7.512 34.439-9.905 51.575-6.346 5.338 1.109 12.095 3.122 15.015 4.474l5.31 2.458-5.005-.443c-2.753-.244-6.311-.858-7.907-1.366-4.57-1.453-17.724-1.079-23.693.674-18.013 5.291-32.14 19.367-38.582 38.443-2.803 8.299-2.588 24.328.449 33.533 4.477 13.568 14.103 25.255 25.014 30.37 4.72 2.212 7.072 2.66 13.903 2.648 4.523-.008 8.666-.458 9.207-1.001.646-.648-1.834-1-7.222-1.026-10.334-.05-15.906-2.522-23.87-10.591-15.805-16.015-19.435-42.712-8.615-63.349 3.906-7.45 15.35-19.124 22.453-22.905 6.262-3.333 19.139-6.763 24.759-6.596 3.599.108 3.367.226-1.912.981-18.527 2.648-35.721 18.699-39.649 37.012-1.623 7.571-.634 21.271 2.036 28.194 6.084 15.776 21.353 27.751 38.703 30.352l4.67.701-.537 5.915c-.343 3.786-1.78 8.536-3.993 13.195-9.63 20.278-32.249 30.848-53.679 25.085Zm29.996-11.018c7.504-2.198 8.413-3.497 1.272-1.817-7.57 1.782-10.946 1.751-19.421-.177-12.992-2.955-24.394-13.22-32.397-29.166-5.518-10.995-7.032-17.928-7.058-32.312-.018-10.359.382-13.805 2.322-20.02 4.051-12.974 8.707-20.619 18.645-30.616 7.618-7.663 10.537-9.834 18.55-13.794 6.402-3.165 12.617-5.344 19.019-6.67l9.509-1.969-7.507.418c-15.959.89-31.571 8.183-44.094 20.599C37.467 48.952 31.332 60.186 28.22 75.25c-5.043 24.417 3.041 50.719 20.732 67.45 11.559 10.933 26.606 14.882 40.829 10.717Zm10.191-13.974c2.615-.901 4.755-1.995 4.755-2.429 0-.434-1.908-.132-4.24.671-5.045 1.738-14.709 1.95-20.284.443-10.517-2.841-20.865-12.458-27.385-25.451-4.589-9.145-6.525-17.736-6.477-28.738.081-18.175 5.722-31.554 18.79-44.567 11.262-11.213 18.327-14.597 40.597-19.444 3.894-.847 3.414-.916-3.548-.51-16.808.981-30.315 7.054-42.003 18.884-21.299 21.558-24.975 54.421-8.974 80.231 4.649 7.5 13.016 16.128 18.277 18.849 9.081 4.696 20.593 5.474 30.492 2.061Z"/></svg>