<svg
    xmlns="http://www.w3.org/2000/svg"
    viewBox="0 0 192 192"
    id="vector">
    <path
        id="path"
        d="M 75.655 174.027 C 71.503 173.005 65.647 171.003 62.643 169.579 C 59.638 168.155 57.911 167.186 58.804 167.425 C 59.697 167.665 62.625 168.135 65.31 168.47 C 67.996 168.804 72.513 169.578 75.35 170.188 C 92.365 173.849 117.397 161.593 127.627 144.594 C 133.962 134.066 136.082 126.719 136.175 114.969 C 136.278 101.946 133.63 92.918 126.645 82.474 C 118.269 69.951 107.48 63.46 95.218 63.566 C 91.364 63.599 87.19 64.042 85.944 64.551 C 84.281 65.229 85.753 65.468 91.467 65.448 C 98.24 65.424 100.107 65.839 105.746 68.618 C 113.288 72.334 118.18 77.043 123.225 85.44 C 129.152 95.307 131.047 103.167 130.536 115.759 C 130.012 128.635 127.841 135.409 121.042 145.382 C 115.854 152.991 109.269 158.703 100.695 163.031 C 94.357 166.231 84.365 169.078 80.058 168.913 C 77.924 168.831 78.341 168.582 81.704 167.93 C 88.988 166.518 100.017 160.493 105.869 154.728 C 124.552 136.322 125.616 107.491 108.32 88.254 C 100.317 79.353 87.443 72.928 77.611 72.928 C 73.994 72.928 73.696 72.715 73.696 70.135 C 73.696 65.46 76.588 55.899 79.859 49.763 C 88.52 33.513 108.511 23.733 126.869 26.765 C 137.59 28.535 144.064 32.11 153.305 41.359 C 185.435 73.52 182.201 128.92 146.493 158.038 C 134.233 168.036 113.387 176.188 100.813 175.903 L 95.218 175.776 L 101.336 174.978 C 126.038 171.754 146.826 156.844 157.669 134.571 C 163.269 123.07 165.146 114.678 165.078 101.456 C 165.031 92.552 164.511 88.738 162.357 81.521 C 155.063 57.079 137.238 39.273 118.057 37.268 C 111.147 36.546 99.794 38.318 97.018 40.552 C 95.33 41.91 95.355 41.963 97.425 41.395 C 103.269 39.792 110.744 39.192 115.733 39.927 C 127.652 41.681 135.6 46.327 143.791 56.329 C 161.306 77.716 164.853 108.574 152.669 133.57 C 145.351 148.584 133.094 160.663 118.072 167.665 C 110.707 171.098 100.394 173.987 95.409 174.013 C 93.792 174.021 92.86 174.453 93.216 175.029 C 94.221 176.656 83.96 176.07 75.655 174.027 Z M 105.728 170.106 C 125.041 164.076 141.807 147.191 148.052 127.482 C 149.89 121.68 150.262 118.237 150.214 107.462 C 150.164 96.042 149.835 93.55 147.532 87.107 C 140.308 66.896 126.152 53.227 110.096 50.958 C 103.518 50.028 95.996 50.927 90.239 53.333 C 84.942 55.546 86.315 56.265 92.084 54.299 C 99.06 51.922 109.64 52.738 117.239 56.24 C 132.77 63.395 145.767 86.959 145.767 107.962 C 145.767 115.425 143.045 127.622 139.846 134.489 C 130.712 154.099 113.352 167.013 90.157 171.454 L 82.205 172.976 L 90.713 172.557 C 95.393 172.326 102.149 171.224 105.728 170.106 Z M 59.785 164.435 C 40.968 159.375 23.314 137.559 18.143 112.976 C 16.257 104.011 16.233 87.523 18.093 78.748 C 23.075 55.241 38.831 35.31 61.355 24.023 C 76.345 16.511 95.794 14.118 112.93 17.677 C 118.268 18.786 125.025 20.799 127.945 22.151 L 133.255 24.609 L 128.25 24.166 C 125.497 23.922 121.939 23.308 120.343 22.8 C 115.773 21.347 102.619 21.721 96.65 23.474 C 78.637 28.765 64.51 42.841 58.068 61.917 C 55.265 70.216 55.48 86.245 58.517 95.45 C 62.994 109.018 72.62 120.705 83.531 125.82 C 88.251 128.032 90.603 128.48 97.434 128.468 C 101.957 128.46 106.1 128.01 106.641 127.467 C 107.287 126.819 104.807 126.467 99.419 126.441 C 89.085 126.391 83.513 123.919 75.549 115.85 C 59.744 99.835 56.114 73.138 66.934 52.501 C 70.84 45.051 82.284 33.377 89.387 29.596 C 95.649 26.263 108.526 22.833 114.146 23 C 117.745 23.108 117.513 23.226 112.234 23.981 C 93.707 26.629 76.513 42.68 72.585 60.993 C 70.962 68.564 71.951 82.264 74.621 89.187 C 80.705 104.963 95.974 116.938 113.324 119.539 L 117.994 120.24 L 117.457 126.155 C 117.114 129.941 115.677 134.691 113.464 139.35 C 103.834 159.628 81.215 170.198 59.785 164.435 Z M 89.781 153.417 C 97.285 151.219 98.194 149.92 91.053 151.6 C 83.483 153.382 80.107 153.351 71.632 151.423 C 58.64 148.468 47.238 138.203 39.235 122.257 C 33.717 111.262 32.203 104.329 32.177 89.945 C 32.159 79.586 32.559 76.14 34.499 69.925 C 38.55 56.951 43.206 49.306 53.144 39.309 C 60.762 31.646 63.681 29.475 71.694 25.515 C 78.096 22.35 84.311 20.171 90.713 18.845 L 100.222 16.876 L 92.715 17.294 C 76.756 18.184 61.144 25.477 48.621 37.893 C 37.467 48.952 31.332 60.186 28.22 75.25 C 23.177 99.667 31.261 125.969 48.952 142.7 C 60.511 153.633 75.558 157.582 89.781 153.417 Z M 99.972 139.443 C 102.587 138.542 104.727 137.448 104.727 137.014 C 104.727 136.58 102.819 136.882 100.487 137.685 C 95.442 139.423 85.778 139.635 80.203 138.128 C 69.686 135.287 59.338 125.67 52.818 112.677 C 48.229 103.532 46.293 94.941 46.341 83.939 C 46.422 65.764 52.063 52.385 65.131 39.372 C 76.393 28.159 83.458 24.775 105.728 19.928 C 109.622 19.081 109.142 19.012 102.18 19.418 C 85.372 20.399 71.865 26.472 60.177 38.302 C 38.878 59.86 35.202 92.723 51.203 118.533 C 55.852 126.033 64.219 134.661 69.48 137.382 C 78.561 142.078 90.073 142.856 99.972 139.443 Z"
        fill="#000000"
        stroke-width="12"/>
</svg>
