<svg xmlns="http://www.w3.org/2000/svg" viewBox="0 0 192 192"><path fill="#222" d="M75.44 16c-3.142 0-5.381 2.61-5.381 9.027v113.069c0 2.516.999 3.587 2.263 3.587h7.888c3.154 0 5.385-2.622 5.385-9.042V19.587c0-2.529-1.006-3.587-2.262-3.587ZM34.325 54.548C22.308 54.548 16 66.166 16 80.976c0 13.164 4.856 21.181 14.553 24.789l15.48 5.777c3.147 1.182 4.125 2.66 4.125 5.337 0 2.055-.979 3.697-3.819 3.697H22.336c-3.848 0-5.395 3.721-5.395 8.956v8.368c0 2.096.622 3.783 2.13 3.783h26.332c14.221 0 19.962-11.637 19.962-25.385 0-14.221-4.925-22.232-14.558-25.832l-15.484-5.793c-3.147-1.173-4.121-2.652-4.121-5.337 0-2.047.976-3.681 3.82-3.681h23.033c3.838 0 5.391-3.733 5.391-8.98v-8.344c0-2.1-.625-3.783-2.131-3.783Zm77.366 0c-2.371 0-3.635 1.058-5.051 3.587L86.546 94.14l18.024 43.83c1.042 2.529 1.911 3.713 3.486 3.713h10.738c1.607 0 2.54-1.071 2.54-3.328 0-1.384-.403-2.283-.936-3.556L104.57 95.702 116.588 74.1l23.725 58.541-10.489 37.001c-.289 1.087-.626 2.137-.626 3.187 0 2.137.94 3.171 2.221 3.171h9.515c1.94 0 2.777-1.118 3.495-3.721l30.941-111.35c.306-1.095.63-2.132.63-3.194 0-2.134-.93-3.187-2.215-3.187h-9.591c-1.92 0-2.792 1.129-3.49 3.736l-13.533 50.134-18.876-49.616c-1.165-3.076-2.394-4.254-5.192-4.254Z"/></svg>