<svg xmlns="http://www.w3.org/2000/svg" viewBox="0 0 192 192"><path d="M18.427 157.913 16 155.825V59.526l2.427-2.087c2.363-2.033 2.816-2.088 17.437-2.088h15.01l.293-9.59c.283-9.274.372-9.659 2.719-11.675L56.313 32h79.374l2.427 2.086c2.347 2.016 2.436 2.401 2.719 11.675l.293 9.59h15.01c14.621 0 15.074.055 17.437 2.088L176 59.526v96.299l-2.427 2.088-2.426 2.087H20.853Zm104.258-47.578c2.921-1.51 4.45-4.667 4.45-9.187V97.73h41.514v-8.649h-41.514V84.77c0-3.54-.451-4.815-2.524-7.135l-2.523-2.824H69.912l-2.523 2.824c-2.073 2.32-2.524 3.595-2.524 7.135v4.311H23.351v8.649h41.514l.03 3.675c.037 4.331 1.525 7.368 4.389 8.956 3.115 1.726 50.057 1.704 53.401-.026ZM73.514 93.838v-9.946h44.972v19.892H73.514Zm59.675-46.703v-8.216H58.811v16.432h74.378Z"/></svg>