<svg xmlns="http://www.w3.org/2000/svg" viewBox="0 0 192 192"><path d="M70.606 174.92c-11.163-2.004-17.554-3.802-22.512-6.331-4.628-2.361-4.652-.995.317-18.037l2.196-7.53 5.641 2.859c8.79 4.454 24.383 7.496 35.007 6.829 17.467-1.097 26.231-8.066 26.231-20.859 0-11.617-6.176-17.463-27.2-25.751-29.403-11.591-40.223-21.577-43.163-39.835-3.441-21.368 10.356-40.335 34.645-47.626 8.438-2.533 25.552-3.427 35.718-1.866 8.749 1.343 21.906 5.231 22.845 6.75.609.986-4.785 20.2-6.063 21.597-.447.488-3.276-.083-6.287-1.27-3.01-1.186-9.37-2.786-14.131-3.554-22.194-3.58-37.663 3.767-37.663 17.887 0 9.44 6.799 15.838 24.344 22.906 15.263 6.148 27.977 12.904 33.311 17.7 22.097 19.866 16.159 57.247-11.11 69.937-3.806 1.772-9.934 4.018-13.618 4.992-9.28 2.454-28.242 3.045-38.508 1.202Z"/></svg>