<svg
    xmlns="http://www.w3.org/2000/svg"
    viewBox="0 0 192 192"
    id="vector">
    <path
        id="path"
        d="M 18.427 157.913 L 16 155.825 L 16 59.526 L 18.427 57.439 C 20.79 55.406 21.243 55.351 35.864 55.351 L 50.874 55.351 L 51.167 45.761 C 51.45 36.487 51.539 36.102 53.886 34.086 L 56.313 32 L 135.687 32 L 138.114 34.086 C 140.461 36.102 140.55 36.487 140.833 45.761 L 141.126 55.351 L 156.136 55.351 C 170.757 55.351 171.21 55.406 173.573 57.439 L 176 59.526 L 176 155.825 L 173.573 157.913 L 171.147 160 L 20.853 160 Z M 122.685 110.335 C 125.606 108.825 127.135 105.668 127.135 101.148 L 127.135 97.73 L 168.649 97.73 L 168.649 89.081 L 127.135 89.081 L 127.135 84.77 C 127.135 81.23 126.684 79.955 124.611 77.635 L 122.088 74.811 L 69.912 74.811 L 67.389 77.635 C 65.316 79.955 64.865 81.23 64.865 84.77 L 64.865 89.081 L 23.351 89.081 L 23.351 97.73 L 64.865 97.73 L 64.895 101.405 C 64.932 105.736 66.42 108.773 69.284 110.361 C 72.399 112.087 119.341 112.065 122.685 110.335 Z M 73.514 93.838 L 73.514 83.892 L 118.486 83.892 L 118.486 103.784 L 73.514 103.784 Z M 133.189 47.135 L 133.189 38.919 L 58.811 38.919 L 58.811 55.351 L 133.189 55.351 Z"
        fill="#000000"
        stroke-width="12"/>
</svg>
