<svg xmlns="http://www.w3.org/2000/svg" viewBox="0 0 192 192"><path d="M80.419 175.601c-39.021-3.293-57.33-19.72-63.105-56.616-1.757-11.224-1.751-34.776.011-46.129 4.931-31.77 20.633-49.279 49.015-54.655 15.496-2.935 43.864-2.935 59.36 0 28.564 5.411 43.997 22.806 49.096 55.336 1.605 10.24 1.605 34.526 0 44.766-5.403 34.472-21.027 50.94-53.239 56.116-8.859 1.424-30.805 2.054-41.138 1.182Zm29.727-22.764c36.386-9.123 55.005-49.47 38.347-83.094-7.09-14.31-19.779-25.064-35.376-29.98-8.164-2.574-22.332-2.966-30.803-.852-20.084 5.012-35.712 19.481-42.316 39.178-1.858 5.542-2.035 7.094-2.035 17.831 0 10.737.177 12.289 2.035 17.831 2.246 6.7 6.51 14.432 10.954 19.866 7.048 8.617 19.208 16.229 30.63 19.174 7.923 2.043 20.52 2.063 28.564.046Zm-20.029-27.329c-4.735-.994-11.957-5.086-15.092-8.552-1.502-1.66-3.789-5.276-5.082-8.035-2.059-4.393-2.349-5.821-2.334-11.475.021-7.193 1.282-11.172 5.386-16.986 8.851-12.539 27.251-15.299 40.068-6.011 7.451 5.399 11.341 13.303 11.367 23.097.016 6.05-.2 6.997-2.794 12.238-3.294 6.654-7.149 10.442-13.744 13.506-5.202 2.416-12.496 3.327-17.775 2.218Zm10.54-20.7c5.312-3.57 5.312-11.171 0-14.74-6.324-4.25-14.515-.091-14.515 7.37 0 7.477 8.177 11.629 14.515 7.37Z"/></svg>