<svg xmlns="http://www.w3.org/2000/svg" viewBox="0 0 192 192"><path d="M66.322 147.02c-2.416-1.766-2.508-2.489-.835-6.527 1.034-2.498 4.332-6.756 7.327-9.462 7.209-6.513 8.603-8.806 4.574-7.528-1.699.54-4.399.566-5.998.058-5.513-1.75-2.799-21.81 2.951-21.81 1.176 0 1.89.981 1.587 2.181-1.523 6.022-1.859 15.994-.539 15.994 2.219 0 4.382-3.166 5.47-8.005 1.933-8.594 2.398-9.443 5.169-9.443 1.546 0 2.809.163 2.808.363-.001.2-.906 5.107-2.012 10.905-2.192 11.496-2.017 11.778 5.994 9.63l3.254-.872-2.89-4.058c-5.598-7.862-2.584-17.302 4.922-15.418 2.215.556 4.144.085 5.286-1.291 2.097-2.527 6.274-2.796 10.262-.662 1.985 1.062 2.812 3.053 2.812 6.768 0 4.235-1.118 6.327-5.724 10.708-4.908 4.669-5.34 5.546-3.031 6.15 1.482.388 4.221-.057 6.087-.987 2.743-1.368 3.597-3.321 4.455-10.189.584-4.673 1.809-9.397 2.724-10.499 3.439-4.144 4.442-1.97 3.433 7.449-.676 6.312-.501 9.451.525 9.451 2.326 0 3.741-2.889 5.345-10.905.969-4.847 2.181-7.27 3.635-7.27 1.756 0 2.089 1.769 1.708 9.087-.528 10.134.379 10.905 7.155 6.081 3.377-2.405 4.223-2.572 4.223-.833 0 5.769-14.953 11.154-16.898 6.086-.668-1.743-1.357-1.608-3.904.765-1.701 1.585-4.096 2.763-5.322 2.62-1.226-.144-3.375.166-4.774.689-5.976 2.232-7.309 2.275-11.84.382-2.624-1.097-5.695-1.501-6.825-.899-1.13.602-4.463 1.526-7.406 2.054-4.875.875-5.568 1.613-7.789 8.3-1.737 5.228-3.752 8.14-7.008 10.126-5.458 3.328-5.468 3.329-8.911.811Zm9.75-9.572c4.312-8.631.002-7.467-5.209 1.407-2.642 4.498-2.642 4.599 0 4.106 1.489-.279 3.833-2.759 5.209-5.513Zm31.78-21.772c4.686-4.687 5.428-8.957 2.042-11.767-1.807-1.5-2.731-1.359-5.089.774-1.584 1.434-2.881 3.613-2.881 4.841 0 1.782-.398 1.688-1.97-.462-2.321-3.173-6.754-2.099-6.754 1.637 0 3.07 5.58 9.227 8.363 9.227 1.121 0 3.952-1.913 6.289-4.25Zm-54.368 9.123c-.519-.518-.557-2.481-.085-4.362.95-3.784-.219-4.163-6.031-1.954-2.963 1.127-3.678 1.043-3.089-.363.421-1.006 1.845-5.307 3.164-9.559 2.186-7.042 5.333-10.642 7.452-8.523.455.456-.227 3.924-1.517 7.709-2.826 8.295-2.807 7.817-.321 7.817 1.113 0 2.434-1.636 2.936-3.635.502-1.999 1.82-3.635 2.929-3.635 1.334 0 1.747 1.035 1.218 3.057-.468 1.791.04 3.588 1.227 4.339 1.648 1.044 1.58 1.288-.363 1.306-3.102.029-4.672 4.189-2.547 6.749 1.309 1.577 1.059 1.997-1.187 1.997-1.564 0-3.268-.424-3.786-.943ZM24.992 92.546c-5.204-1.549-9.434-7.917-8.289-12.479.519-2.071 1.982-3.762 3.253-3.762 1.543 0 2.005.792 1.393 2.386-3.517 9.164 13.013 14.317 20.255 6.315 4.248-4.694 1.775-8.854-9.061-15.244-9.099-5.366-9.897-6.235-10.312-11.237-.397-4.791.111-5.764 4.362-8.356 7.271-4.433 18.249-3.43 21.874 1.999 1.877 2.812 1.189 10.632-1.104 12.534-3.165 2.628-4.37.637-2.327-3.846 1.46-3.203 1.342-4.275-.716-6.549-3.43-3.791-12.362-3.637-15.901.273-3.603 3.982-1.834 6.67 8.077 12.274 10.121 5.723 14.126 11.01 12.275 16.207-2.655 7.454-14.599 12.218-23.779 9.485Zm30.404-4.608c-3.822-3.822-3.773-11.596.105-16.526 3.684-4.683 10.187-5.08 16.832-1.028 4.348 2.651 4.832 2.669 9.643.358 4.327-2.079 5.167-3.31 5.767-8.452 1.118-9.593 5.473-17.164 10.183-17.706 3.877-.446 3.997-.247 3.959 6.543-.025 4.452-1.614 10.696-4.362 17.139-5.357 12.562-5.654 17.156-1.065 16.501 1.984-.283 3.994-2.17 5.14-4.827 4.122-9.558 5.646-11.651 8.816-12.107 3.934-.566 7.505 2.045 7.505 5.489 0 2.771-5.792 8.799-8.455 8.799-2.556 0-2.088 2.457.67 3.516 1.317.505 4.935-.406 8.042-2.026 6.742-3.514 8.467-3.669 8.467-.763 0 2.816 2.048 2.789 4.41-.058 1.41-1.699 1.486-3.45.314-7.268-1.906-6.212.377-8.382 3.902-3.708l2.411 3.196 2.704-2.987c1.487-1.643 3.584-2.988 4.659-2.988 3.223 0 2.212 3.86-1.679 6.41-4.043 2.649-4.527 4.927-1.818 8.554 1.548 2.072 2.357 2.161 5.449.6 1.998-1.008 3.698-2.796 3.778-3.973.08-1.177.245-3.285.366-4.684.723-8.299 12.834-11.019 20.467-4.596 5.444 4.581 6.025 7.845.642 3.611-4.991-3.926-6.094-3.801-5.254.595 1.06 5.546-.769 10.652-4.751 13.261-3.346 2.193-3.888 2.186-7.364-.091-3.508-2.299-4.084-2.301-8.855-.037-4.885 2.318-5.238 2.296-8.244-.508-3.101-2.892-3.183-2.894-6.563-.138-3.656 2.981-6.028 2.573-6.028-1.035 0-1.219-.491-1.964-1.091-1.655-10.558 5.434-12.589 5.838-17.112 3.403-4.027-2.169-4.882-2.189-8.704-.207-3.792 1.968-4.498 1.964-6.709-.037-2.224-2.013-2.91-2.008-6.873.041-2.421 1.252-5.43 1.881-6.687 1.399-2.792-1.071-4.337-6.603-3.158-11.302.666-2.653.023-4.033-2.716-5.828-3.576-2.343-3.586-2.336-2.716 2.013 1.147 5.734-1.693 12.32-6.197 14.372-4.631 2.11-4.421 2.144-7.83-1.265Zm8.64-3.534c2.425-2.923 1.402-13.188-1.314-13.188-3.253 0-6.474 6.857-5.341 11.37 1.072 4.273 3.962 5.063 6.655 1.818Zm21.843-.733c1.809-3.379 2.005-11.728.276-11.728-3.796 0-8.313 9.622-5.888 12.544 2.268 2.733 3.834 2.505 5.612-.816Zm76.881-.891c2.324-5.102 2.112-8.674-.651-10.967-1.99-1.651-2.65-1.515-4.425.912-3.138 4.29-3.957 9.173-1.945 11.596 2.643 3.185 5.115 2.642 7.021-1.541Zm-50.096-5.79c2.086-2.086 1.796-6.501-.426-6.501-1.919 0-4.498 3.501-4.498 6.107 0 3.203 1.958 3.36 4.924.394ZM96.57 64.182c2.721-8.633 3.183-15.503 1.043-15.503-2.353 0-4.029 4.645-5.116 14.177-1.279 11.218.747 11.877 4.073 1.326Z"/></svg>