<svg
    xmlns="http://www.w3.org/2000/svg"
    viewBox="0 0 192 192"
    id="vector">
    <g id="group">
        <path
            id="path_6"
            d="M 66.322 147.02 C 63.906 145.254 63.814 144.531 65.487 140.493 C 66.521 137.995 69.819 133.737 72.814 131.031 C 80.023 124.518 81.417 122.225 77.388 123.503 C 75.689 124.043 72.989 124.069 71.39 123.561 C 65.877 121.811 68.591 101.751 74.341 101.751 C 75.517 101.751 76.231 102.732 75.928 103.932 C 74.405 109.954 74.069 119.926 75.389 119.926 C 77.608 119.926 79.771 116.76 80.859 111.921 C 82.792 103.327 83.257 102.478 86.028 102.478 C 87.574 102.478 88.837 102.641 88.836 102.841 C 88.835 103.041 87.93 107.948 86.824 113.746 C 84.632 125.242 84.807 125.524 92.818 123.376 L 96.072 122.504 L 93.182 118.446 C 87.584 110.584 90.598 101.144 98.104 103.028 C 100.319 103.584 102.248 103.113 103.39 101.737 C 105.487 99.21 109.664 98.941 113.652 101.075 C 115.637 102.137 116.464 104.128 116.464 107.843 C 116.464 112.078 115.346 114.17 110.74 118.551 C 105.832 123.22 105.4 124.097 107.709 124.701 C 109.191 125.089 111.93 124.644 113.796 123.714 C 116.539 122.346 117.393 120.393 118.251 113.525 C 118.835 108.852 120.06 104.128 120.975 103.026 C 124.414 98.882 125.417 101.056 124.408 110.475 C 123.732 116.787 123.907 119.926 124.933 119.926 C 127.259 119.926 128.674 117.037 130.278 109.021 C 131.247 104.174 132.459 101.751 133.913 101.751 C 135.669 101.751 136.002 103.52 135.621 110.838 C 135.093 120.972 136 121.743 142.776 116.919 C 146.153 114.514 146.999 114.347 146.999 116.086 C 146.999 121.855 132.046 127.24 130.101 122.172 C 129.433 120.429 128.744 120.564 126.197 122.937 C 124.496 124.522 122.101 125.7 120.875 125.557 C 119.649 125.413 117.5 125.723 116.101 126.246 C 110.125 128.478 108.792 128.521 104.261 126.628 C 101.637 125.531 98.566 125.127 97.436 125.729 C 96.306 126.331 92.973 127.255 90.03 127.783 C 85.155 128.658 84.462 129.396 82.241 136.083 C 80.504 141.311 78.489 144.223 75.233 146.209 C 69.775 149.537 69.765 149.538 66.322 147.02 Z M 76.072 137.448 C 80.384 128.817 76.074 129.981 70.863 138.855 C 68.221 143.353 68.221 143.454 70.863 142.961 C 72.352 142.682 74.696 140.202 76.072 137.448 Z M 107.852 115.676 C 112.538 110.989 113.28 106.719 109.894 103.909 C 108.087 102.409 107.163 102.55 104.805 104.683 C 103.221 106.117 101.924 108.296 101.924 109.524 C 101.924 111.306 101.526 111.212 99.954 109.062 C 97.633 105.889 93.2 106.963 93.2 110.699 C 93.2 113.769 98.78 119.926 101.563 119.926 C 102.684 119.926 105.515 118.013 107.852 115.676 Z M 53.484 124.799 C 52.965 124.281 52.927 122.318 53.399 120.437 C 54.349 116.653 53.18 116.274 47.368 118.483 C 44.405 119.61 43.69 119.526 44.279 118.12 C 44.7 117.114 46.124 112.813 47.443 108.561 C 49.629 101.519 52.776 97.919 54.895 100.038 C 55.35 100.494 54.668 103.962 53.378 107.747 C 50.552 116.042 50.571 115.564 53.057 115.564 C 54.17 115.564 55.491 113.928 55.993 111.929 C 56.495 109.93 57.813 108.294 58.922 108.294 C 60.256 108.294 60.669 109.329 60.14 111.351 C 59.672 113.142 60.18 114.939 61.367 115.69 C 63.015 116.734 62.947 116.978 61.004 116.996 C 57.902 117.025 56.332 121.185 58.457 123.745 C 59.766 125.322 59.516 125.742 57.27 125.742 C 55.706 125.742 54.002 125.318 53.484 124.799 Z M 24.992 92.546 C 19.788 90.997 15.558 84.629 16.703 80.067 C 17.222 77.996 18.685 76.305 19.956 76.305 C 21.499 76.305 21.961 77.097 21.349 78.691 C 17.832 87.855 34.362 93.008 41.604 85.006 C 45.852 80.312 43.379 76.152 32.543 69.762 C 23.444 64.396 22.646 63.527 22.231 58.525 C 21.834 53.734 22.342 52.761 26.593 50.169 C 33.864 45.736 44.842 46.739 48.467 52.168 C 50.344 54.98 49.656 62.8 47.363 64.702 C 44.198 67.33 42.993 65.339 45.036 60.856 C 46.496 57.653 46.378 56.581 44.32 54.307 C 40.89 50.516 31.958 50.67 28.419 54.58 C 24.816 58.562 26.585 61.25 36.496 66.854 C 46.617 72.577 50.622 77.864 48.771 83.061 C 46.116 90.515 34.172 95.279 24.992 92.546 Z M 55.396 87.938 C 51.574 84.116 51.623 76.342 55.501 71.412 C 59.185 66.729 65.688 66.332 72.333 70.384 C 76.681 73.035 77.165 73.053 81.976 70.742 C 86.303 68.663 87.143 67.432 87.743 62.29 C 88.861 52.697 93.216 45.126 97.926 44.584 C 101.803 44.138 101.923 44.337 101.885 51.127 C 101.86 55.579 100.271 61.823 97.523 68.266 C 92.166 80.828 91.869 85.422 96.458 84.767 C 98.442 84.484 100.452 82.597 101.598 79.94 C 105.72 70.382 107.244 68.289 110.414 67.833 C 114.348 67.267 117.919 69.878 117.919 73.322 C 117.919 76.093 112.127 82.121 109.464 82.121 C 106.908 82.121 107.376 84.578 110.134 85.637 C 111.451 86.142 115.069 85.231 118.176 83.611 C 124.918 80.097 126.643 79.942 126.643 82.848 C 126.643 85.664 128.691 85.637 131.053 82.79 C 132.463 81.091 132.539 79.34 131.367 75.522 C 129.461 69.31 131.744 67.14 135.269 71.814 L 137.68 75.01 L 140.384 72.023 C 141.871 70.38 143.968 69.035 145.043 69.035 C 148.266 69.035 147.255 72.895 143.364 75.445 C 139.321 78.094 138.837 80.372 141.546 83.999 C 143.094 86.071 143.903 86.16 146.995 84.599 C 148.993 83.591 150.693 81.803 150.773 80.626 C 150.853 79.449 151.018 77.341 151.139 75.942 C 151.862 67.643 163.973 64.923 171.606 71.346 C 177.05 75.927 177.631 79.191 172.248 74.957 C 167.257 71.031 166.154 71.156 166.994 75.552 C 168.054 81.098 166.225 86.204 162.243 88.813 C 158.897 91.006 158.355 90.999 154.879 88.722 C 151.371 86.423 150.795 86.421 146.024 88.685 C 141.139 91.003 140.786 90.981 137.78 88.177 C 134.679 85.285 134.597 85.283 131.217 88.039 C 127.561 91.02 125.189 90.612 125.189 87.004 C 125.189 85.785 124.698 85.04 124.098 85.349 C 113.54 90.783 111.509 91.187 106.986 88.752 C 102.959 86.583 102.104 86.563 98.282 88.545 C 94.49 90.513 93.784 90.509 91.573 88.508 C 89.349 86.495 88.663 86.5 84.7 88.549 C 82.279 89.801 79.27 90.43 78.013 89.948 C 75.221 88.877 73.676 83.345 74.855 78.646 C 75.521 75.993 74.878 74.613 72.139 72.818 C 68.563 70.475 68.553 70.482 69.423 74.831 C 70.57 80.565 67.73 87.151 63.226 89.203 C 58.595 91.313 58.805 91.347 55.396 87.938 Z M 64.036 84.404 C 66.461 81.481 65.438 71.216 62.722 71.216 C 59.469 71.216 56.248 78.073 57.381 82.586 C 58.453 86.859 61.343 87.649 64.036 84.404 Z M 85.879 83.671 C 87.688 80.292 87.884 71.943 86.155 71.943 C 82.359 71.943 77.842 81.565 80.267 84.487 C 82.535 87.22 84.101 86.992 85.879 83.671 Z M 162.76 82.78 C 165.084 77.678 164.872 74.106 162.109 71.813 C 160.119 70.162 159.459 70.298 157.684 72.725 C 154.546 77.015 153.727 81.898 155.739 84.321 C 158.382 87.506 160.854 86.963 162.76 82.78 Z M 112.664 76.99 C 114.75 74.904 114.46 70.489 112.238 70.489 C 110.319 70.489 107.74 73.99 107.74 76.596 C 107.74 79.799 109.698 79.956 112.664 76.99 Z M 96.57 64.182 C 99.291 55.549 99.753 48.679 97.613 48.679 C 95.26 48.679 93.584 53.324 92.497 62.856 C 91.218 74.074 93.244 74.733 96.57 64.182 Z"
            fill="#000000"
            stroke-width="12"/>
    </g>
</svg>
