<svg xmlns="http://www.w3.org/2000/svg" viewBox="0 0 192 192"><path d="M58.711 172.333c24.525-11.855 63.504-11.176 83.802 1.459 3.15 1.961 3.586 2.666 1.183 1.912-12.531-3.929-44.299-5.681-64.571-3.562-11.8 1.234-23.241 2.758-25.424 3.387s.071-.809 5.01-3.196Zm56.618-19.156c10.912-37.386 11.167-52.377 1.044-61.537-6.672-6.039-20.287-5.177-27.189 1.72-5.247 5.244-5.532 6.478-5.532 23.944 0 10.128.692 22.006 1.537 26.395 2.948 15.304-2.043 2.137-11.28-29.755-5.058-17.463-9.589-32.143-10.069-32.623-.481-.48-1.942-.213-3.247.594-1.577.974-2.016 4.897-1.308 11.673 1.079 10.319.894 10.096-3.767-4.532-.705-2.214-1.67-2.052-4.83.808-3.897 3.526-3.949 3.403-3.915-9.206.043-15.752 4.341-36.744 9.62-46.988 4.68-9.08 11.473-16.685 14.866-16.642 1.574.02 1.696.542.352 1.497-11.084 7.871-14.144 24.426-6.561 35.493 5.685 8.296 20.559 18.327 32.513 21.924 11.253 3.387 28.21 4.532 34.314 2.318 5.895-2.138 7.897 4.472 4.645 15.344-5.999 20.056-20.554 63.065-21.342 63.065-.479 0-.411-1.571.149-3.492Zm23.365-83.54c2.649-3.422 5.218-5.864 5.709-5.426.49.437-1.677 3.237-4.817 6.222l-5.708 5.426Z"/></svg>