<svg
    xmlns="http://www.w3.org/2000/svg"
    viewBox="0 0 192 192"
    id="vector">
    <path
        id="path"
        d="M 58.711 172.333 C 83.236 160.478 122.215 161.157 142.513 173.792 C 145.663 175.753 146.099 176.458 143.696 175.704 C 131.165 171.775 99.397 170.023 79.125 172.142 C 67.325 173.376 55.884 174.9 53.701 175.529 C 51.518 176.158 53.772 174.72 58.711 172.333 Z M 115.329 153.177 C 126.241 115.791 126.496 100.8 116.373 91.64 C 109.701 85.601 96.086 86.463 89.184 93.36 C 83.937 98.604 83.652 99.838 83.652 117.304 C 83.652 127.432 84.344 139.31 85.189 143.699 C 88.137 159.003 83.146 145.836 73.909 113.944 C 68.851 96.481 64.32 81.801 63.84 81.321 C 63.359 80.841 61.898 81.108 60.593 81.915 C 59.016 82.889 58.577 86.812 59.285 93.588 C 60.364 103.907 60.179 103.684 55.518 89.056 C 54.813 86.842 53.848 87.004 50.688 89.864 C 46.791 93.39 46.739 93.267 46.773 80.658 C 46.816 64.906 51.114 43.914 56.393 33.67 C 61.073 24.59 67.866 16.985 71.259 17.028 C 72.833 17.048 72.955 17.57 71.611 18.525 C 60.527 26.396 57.467 42.951 65.05 54.018 C 70.735 62.314 85.609 72.345 97.563 75.942 C 108.816 79.329 125.773 80.474 131.877 78.26 C 137.772 76.122 139.774 82.732 136.522 93.604 C 130.523 113.66 115.968 156.669 115.18 156.669 C 114.701 156.669 114.769 155.098 115.329 153.177 Z M 138.694 69.637 C 141.343 66.215 143.912 63.773 144.403 64.211 C 144.893 64.648 142.726 67.448 139.586 70.433 L 133.878 75.859 Z"
        fill="#000000"
        stroke-width="12"/>
</svg>
