<svg xmlns="http://www.w3.org/2000/svg" width="192" height="192" viewBox="0 0 192 192"><path d="M58 148.714c0-.813 3.99-2.94 9.75-5.198 19.244-7.542 34.349-16.495 41.787-24.768 5.74-6.385 5.868-10.035.463-13.2-3.11-1.82-5.727-2.108-23.5-2.582-18.943-.507-20.302-.675-25.724-3.183-21.444-9.922-5.837-31.096 34.51-46.82C107.72 48.12 128.851 42 133.151 42c4.635 0 .468 2.798-11.224 7.535-23.961 9.707-40.51 21.231-43.339 30.177-2.118 6.703 5.468 9.283 27.344 9.3 16.479.012 23.382 1.152 29.293 4.834 4.316 2.69 6.018 5.65 5.953 10.357-.152 10.974-16.703 23.975-44.2 34.718-11.847 4.629-26.933 9.141-35.228 10.538-2.823.476-3.75.291-3.75-.745Z" style="fill:#d0d0d0" transform="translate(-.162 .146)"/><path d="M64.177 146.968c.213-.639 4.919-3.072 10.457-5.408 25.245-10.648 43.958-26.424 39.694-33.465-.531-.877-2.721-2.467-4.866-3.532-3.312-1.645-6.92-2.028-23.931-2.54-18.144-.544-20.478-.818-24.774-2.898-17.412-8.431-8.48-24.716 21.743-39.644 11.724-5.79 34.802-13.888 42.892-15.049 6.36-.912 5.467.601-2.125 3.6-10.518 4.154-26.952 12.955-33.628 18.01C81.919 71.884 78 77.161 78 81.711c0 2.811.57 3.54 4.25 5.43 3.743 1.921 5.741 2.169 16.75 2.075 24.674-.21 36.958 2.96 40.512 10.45 1.453 3.062 1.535 4.231.534 7.574-3.48 11.614-24.615 25.097-55.046 35.118-15.303 5.04-21.417 6.393-20.823 4.61z" style="fill:#b1b1b1" transform="translate(-.162 .146)"/><path d="M68.5 145.242c.55-.558 4.709-2.605 9.242-4.549 9.732-4.172 21.886-11.377 28.458-16.868 9.566-7.993 11.413-15.41 4.8-19.27-3.085-1.802-5.87-2.12-23.5-2.681-22.086-.704-27.125-1.785-31.992-6.866-9.46-9.874 4.352-25.525 33.736-38.23 12.31-5.324 29.1-10.784 33.063-10.753 2.573.02.645 1.257-9.92 6.37-15.525 7.512-23.192 12.535-29.596 19.39-7.332 7.85-7.5 11.701-.685 15.714 2.958 1.742 5.898 2.08 22.894 2.628 19.343.624 22.71 1.12 28.748 4.243 10.233 5.292 7.646 16.895-6.056 27.157-7.928 5.938-27.223 15.36-40.692 19.873-11.122 3.726-20.256 5.622-18.5 3.842z" style="fill:#909090" transform="translate(-.162 .146)"/><path d="M82 139.283c13.578-6.872 19.766-10.909 26.328-17.173 7.88-7.522 9.444-12.102 5.422-15.87-4.075-3.817-7.693-4.49-26.25-4.886-20.515-.438-26.696-1.704-31.43-6.439-8.943-8.942 1.78-22.623 27.43-34.996 10.325-4.98 32.473-12.901 36-12.874 1.1.008-4.075 3.152-11.5 6.986C86.827 64.963 76.556 74.28 77.202 81.966c.263 3.122.864 3.814 5.145 5.937 4.405 2.183 6.004 2.391 17.5 2.272 22.522-.232 33.53 2.34 38.443 8.985 5.238 7.086-4.03 19.452-21.79 29.072-12.582 6.815-33.336 14.834-42 16.228-3.205.515-1.713-.514 7.5-5.177z" style="fill:#707070" transform="translate(-.162 .146)"/><path d="M77 142.923c.825-.537 6.578-3.848 12.785-7.358 12.808-7.243 19.134-12.09 23.319-17.867 3.32-4.583 3.797-9.573 1.144-11.973-3.737-3.382-7.885-4.112-27.248-4.793-21.174-.744-25.45-1.576-30.28-5.891-2.554-2.282-3.175-3.61-3.175-6.796 0-8.64 9.546-17.626 28.955-27.257 11.497-5.705 33.131-13.69 34.198-12.623.28.28-3.699 2.624-8.844 5.207-12.275 6.163-19.2 10.958-25.558 17.695-6.028 6.389-7.236 9.65-4.897 13.22 3.373 5.147 6.531 5.89 28.101 6.611 12.174.407 21.51 1.185 23.86 1.987 10.678 3.646 12.684 11.846 5.14 21.011-5.895 7.161-19.725 15.575-36.5 22.205-11.616 4.59-23.765 8.422-21 6.622z" style="fill:#4e4e4e" transform="translate(-.162 .146)"/><path d="M82.207 140.703c.94-.662 5.647-3.453 10.461-6.203 9.638-5.505 21.405-15.848 23.337-20.511 1.924-4.647-.235-8.758-5.932-11.291-3.923-1.745-7.062-2.076-22.073-2.333-20.024-.343-25.837-1.405-30.608-5.594-5.75-5.048-4.483-11.542 3.778-19.38 6.06-5.749 12.493-9.89 23.152-14.901 9.377-4.41 26.666-10.835 27.34-10.162.205.206-2.447 1.864-5.894 3.685C91.69 61.45 80.505 70.19 77.413 76.17c-1.937 3.744-1.772 8.196.374 10.138 4.225 3.824 9.25 4.903 22.485 4.828 21.978-.124 33.115 2.296 37.162 8.074 5.455 7.789-5.17 20.278-26.135 30.718-11.971 5.962-33.66 13.996-29.092 10.776z" style="fill:#2f2f2f" transform="translate(-.162 .146)"/><path d="M88 138.64c0-.182 3.712-2.603 8.25-5.38 4.551-2.784 11.052-7.97 14.5-11.567 5.583-5.825 6.25-6.956 6.25-10.606 0-4.462-2.081-7.318-6.79-9.318-1.503-.639-11.392-1.456-22.21-1.837-21.15-.743-25.453-1.578-30.255-5.869-2.482-2.217-3.127-3.57-3.047-6.388C54.95 78.764 69.97 66.695 92 57.699c13.35-5.45 14.152-5.324 4.5.71-10.925 6.83-20.115 16.024-21.062 21.068-.472 2.52-.178 4.27 1.028 6.11 3.165 4.831 7.348 5.785 28.534 6.504 21.364.725 25.87 1.625 30.296 6.052 2.56 2.559 2.883 3.487 2.42 6.943-1.064 7.928-10.445 16.197-28.216 24.87-9.24 4.508-21.5 9.46-21.5 8.685z" style="fill:#030303" transform="translate(-.162 .146)"/></svg>