<?xml version="1.0" encoding="UTF-8" standalone="no"?>
<!-- Created with Inkscape (http://www.inkscape.org/) -->

<svg
   version="1.1"
   id="svg824"
   width="192"
   height="192"
   viewBox="0 0 192 192"
   sodipodi:docname="soulbrowser.svg"
   inkscape:version="1.1.2 (b8e25be833, 2022-02-05)"
   xmlns:inkscape="http://www.inkscape.org/namespaces/inkscape"
   xmlns:sodipodi="http://sodipodi.sourceforge.net/DTD/sodipodi-0.dtd"
   xmlns="http://www.w3.org/2000/svg"
   xmlns:svg="http://www.w3.org/2000/svg">
  <defs
     id="defs828" />
  <sodipodi:namedview
     id="namedview826"
     pagecolor="#ffffff"
     bordercolor="#666666"
     borderopacity="1.0"
     inkscape:pageshadow="2"
     inkscape:pageopacity="0.0"
     inkscape:pagecheckerboard="0"
     showgrid="false"
     inkscape:zoom="3.0104167"
     inkscape:cx="96"
     inkscape:cy="96"
     inkscape:window-width="1280"
     inkscape:window-height="961"
     inkscape:window-x="-8"
     inkscape:window-y="-8"
     inkscape:window-maximized="1"
     inkscape:current-layer="g830" />
  <g
     inkscape:groupmode="layer"
     inkscape:label="Image"
     id="g830">
    <g
       id="g950"
       transform="translate(-0.16249478,0.14611654)">
      <path
         style="fill:#d0d0d0"
         d="m 58,148.7141 c 0,-0.81329 3.989429,-2.94013 9.75,-5.19791 19.243837,-7.54235 34.34883,-16.49553 41.78666,-24.76818 5.74056,-6.38489 5.86871,-10.03549 0.46334,-13.19938 -3.11021,-1.82047 -5.72739,-2.10816 -23.5,-2.58311 C 67.556509,102.45926 66.197641,102.29114 60.776256,99.782859 39.331643,89.861206 54.939221,68.686673 95.28643,52.963498 107.71899,48.118571 128.85061,42 133.15091,42 c 4.63544,0 0.46778,2.797661 -11.22421,7.534575 C 97.965906,59.242093 81.41639,70.766 78.588487,79.712227 c -2.118715,6.702673 5.467917,9.282965 27.343013,9.299642 16.47918,0.01256 23.3821,1.151728 29.29323,4.834156 4.31663,2.689116 6.01801,5.649033 5.95304,10.356625 -0.15146,10.97414 -16.70312,23.97528 -44.199334,34.71807 C 85.130995,143.54952 70.044953,148.06246 61.75,149.45919 58.92702,149.93453 58,149.75034 58,148.7141 Z"
         id="path964" />
      <path
         style="fill:#b1b1b1"
         d="m 64.177207,146.96838 c 0.212968,-0.6389 4.918461,-3.07283 10.456651,-5.40873 25.245519,-10.64807 43.958542,-26.42408 39.694492,-33.46443 -0.53139,-0.87737 -2.72131,-2.46691 -4.8665,-3.53232 -3.31232,-1.64507 -6.9201,-2.02785 -23.931087,-2.53911 C 67.387079,101.4785 65.053165,101.20542 60.75698,99.125066 43.345165,90.693712 52.276388,74.409494 82.5,59.481214 c 11.724492,-5.791052 34.80181,-13.887777 42.89239,-15.048883 6.35998,-0.912743 5.46622,0.600895 -2.12535,3.599423 C 112.74855,52.186356 96.314927,60.987385 89.638725,66.041401 81.918986,71.885395 78,77.161928 78,81.711811 c 0,2.811687 0.570394,3.540395 4.25,5.429594 3.742894,1.921691 5.741488,2.169386 16.75,2.0759 24.67442,-0.209539 36.95755,2.958775 40.51225,10.449744 1.4528,3.061561 1.53519,4.231231 0.53355,7.574441 -3.47942,11.61323 -24.61486,25.097 -55.0458,35.11753 -15.302977,5.03908 -21.417184,6.39253 -20.822793,4.60936 z"
         id="path962" />
      <path
         style="fill:#909090"
         d="m 68.5,145.24153 c 0.55,-0.55781 4.708847,-2.60442 9.241882,-4.54804 9.731663,-4.17262 21.886309,-11.37738 28.458368,-16.86893 9.56541,-7.99277 11.41289,-15.41011 4.79975,-19.2703 -3.08529,-1.80093 -5.86977,-2.11852 -23.5,-2.68035 -22.085839,-0.70382 -27.124723,-1.78522 -31.992305,-6.865878 -9.459532,-9.873624 4.352118,-25.525467 33.736063,-38.230883 12.310072,-5.322792 29.100402,-10.783105 33.063582,-10.752472 2.57221,0.01988 0.64435,1.257731 -9.92021,6.369616 -15.525237,7.512213 -23.192283,12.535642 -29.596396,19.391484 -7.331485,7.848629 -7.499428,11.700185 -0.685161,15.713295 2.95849,1.742336 5.89876,2.079819 22.894427,2.627807 19.34321,0.623679 22.71033,1.120608 28.74772,4.24266 10.2336,5.292004 7.64631,16.895851 -6.05523,27.157271 -7.92845,5.93781 -27.22375,15.36107 -40.69249,19.87303 -11.122083,3.72584 -20.255963,5.62257 -18.5,3.84169 z"
         id="path960" />
      <path
         style="fill:#707070"
         d="m 82,139.28279 c 13.577867,-6.87193 19.76642,-10.90852 26.32846,-17.17316 7.87891,-7.52184 9.44344,-12.10117 5.42154,-15.8687 -4.07535,-3.81761 -7.69295,-4.4911 -26.25,-4.887 C 66.985059,100.91626 60.803876,99.65003 56.069066,94.91522 47.126548,85.972702 57.850146,72.291529 83.5,59.918817 c 10.324977,-4.980456 32.47309,-12.900968 36,-12.874166 1.1,0.0084 -4.075,3.152016 -11.5,6.985903 -21.173221,10.93276 -31.444465,20.249355 -30.79751,27.935071 0.262794,3.121958 0.86313,3.814774 5.144828,5.937372 4.40443,2.18344 6.00336,2.391064 17.5,2.272402 22.521682,-0.232457 33.529812,2.340367 38.442252,8.984728 5.23855,7.085453 -4.03033,19.451953 -21.78957,29.071533 -12.58163,6.81504 -33.335569,14.83391 -42,16.22788 -3.204641,0.51558 -1.713344,-0.51376 7.5,-5.17675 z"
         id="path958" />
      <path
         style="fill:#4e4e4e"
         d="m 77,142.92318 c 0.825,-0.53694 6.578399,-3.84813 12.785332,-7.35821 12.807818,-7.24293 19.133498,-12.08978 23.318568,-17.8671 3.31993,-4.58303 3.79679,-9.57278 1.14427,-11.97328 -3.73715,-3.38208 -7.8853,-4.11162 -27.24817,-4.79218 -21.17374,-0.7442 -25.450815,-1.576406 -30.280574,-5.891795 -2.553451,-2.281508 -3.173971,-3.610078 -3.173971,-6.795652 0,-8.640488 9.545453,-17.626212 28.954545,-27.256697 11.497469,-5.704862 33.13121,-13.690393 34.19822,-12.623381 0.28067,0.280672 -3.69911,2.62377 -8.84395,5.206885 -12.275142,6.163077 -19.200446,10.957977 -25.557884,17.69561 -6.027936,6.388425 -7.236064,9.649544 -4.897205,13.219095 3.372599,5.147237 6.530817,5.890314 28.100819,6.611669 12.17389,0.407125 21.51044,1.184606 23.85999,1.986891 10.67848,3.646298 12.68446,11.846235 5.14001,21.011065 -5.89483,7.16091 -19.72546,15.57466 -36.5,22.20448 -11.615636,4.59087 -23.765465,8.42246 -21,6.6226 z"
         id="path956" />
      <path
         style="fill:#2f2f2f"
         d="m 82.207495,140.70328 c 0.939123,-0.6618 5.646501,-3.45328 10.460842,-6.20328 9.637313,-5.50493 21.404553,-15.84755 23.336203,-20.51097 1.92494,-4.64721 -0.23472,-8.75838 -5.93159,-11.29146 C 106.15034,100.95341 103.01125,100.62166 88,100.36484 67.975513,100.02225 62.162845,98.959889 57.391572,94.770656 51.64295,89.723298 52.909078,83.229151 61.169795,75.391631 67.229713,69.642163 73.662897,65.501354 84.321786,60.489528 93.699088,56.080307 110.9881,49.654763 111.66181,50.328475 c 0.20562,0.205624 -2.44667,1.863736 -5.89397,3.684692 -14.077704,7.436199 -25.262888,16.175897 -28.355161,22.155694 -1.936279,3.744349 -1.772093,8.195899 0.373919,10.138013 4.225771,3.82427 9.249975,4.9032 22.484912,4.828553 21.97846,-0.12396 33.11524,2.295553 37.16241,8.073691 5.45523,7.788432 -5.17084,20.277922 -26.13514,30.718242 -11.971093,5.96167 -33.66026,13.99571 -29.091285,10.77592 z"
         id="path954" />
      <path
         style="fill:#030303"
         d="m 88,138.6406 c 0,-0.18223 3.7125,-2.60317 8.25,-5.37987 4.5512,-2.78509 11.05212,-7.97152 14.5,-11.56809 5.58349,-5.82428 6.25,-6.95533 6.25,-10.60609 0,-4.46142 -2.08126,-7.31746 -6.78993,-9.31759 C 108.70662,101.13033 98.817885,100.31264 88,99.932415 66.850178,99.18905 62.547361,98.354374 57.744963,94.063432 55.262848,91.845663 54.617979,90.493555 54.697886,87.674573 54.950469,78.763879 69.9701,66.69446 92,57.699479 c 13.35062,-5.451162 14.15165,-5.324856 4.5,0.709563 -10.925241,6.830698 -20.115357,16.023713 -21.061744,21.068388 -0.472641,2.519397 -0.178216,4.270496 1.027406,6.110508 3.164882,4.830221 7.348773,5.783731 28.534338,6.502991 21.36426,0.725326 25.87014,1.625362 30.29639,6.051616 2.55911,2.559115 2.88247,3.487265 2.41894,6.943165 -1.06346,7.92868 -10.44464,16.19738 -28.21533,24.86937 -9.23965,4.5089 -21.5,9.46181 -21.5,8.68552 z"
         id="path952" />
    </g>
  </g>
</svg>
