<svg xmlns="http://www.w3.org/2000/svg" viewBox="0 0 192 192"><path d="M34.182 16C24.184 16 16 24.184 16 34.182v123.636C16 167.816 24.184 176 34.182 176h123.636c9.998 0 18.182-8.184 18.182-18.182V34.182C176 24.184 167.816 16 157.818 16Zm0 7.273h123.636a10.856 10.856 0 0 1 10.909 10.909v123.636a10.856 10.856 0 0 1-10.909 10.909H34.182a10.856 10.856 0 0 1-10.909-10.909V34.182a10.856 10.856 0 0 1 10.909-10.909Zm0 10.909v10.909h7.273V34.182Zm14.545 0v18.182H56V34.182Zm14.546 0v7.273h7.272v-7.273Zm14.545 0v14.545h7.273V34.182Zm14.546 0v7.273h7.272v-7.273Zm14.545 0v10.909h7.273V34.182Zm14.546 0v7.273h7.272v-7.273Zm14.545 0v10.909h7.273V34.182Zm14.545 0v18.182h7.273V34.182ZM63.273 48.727V56h7.272v-7.273Zm29.091 0V56h7.272v-7.273Zm-58.182 3.637v7.272h7.273v-7.272Zm72.727 0v7.272h7.273v-7.272Zm14.546 0v7.272h7.272v-7.272Zm14.545 0v7.272h7.273v-7.272ZM77.818 56v7.273h7.273V56Zm-29.091 3.636v7.273H56v-7.273Zm101.818 0v7.273h7.273v-7.273Zm-58.181 3.637v7.272h7.272v-7.272Zm-58.182 3.636v7.273h7.273v-7.273Zm29.091 0v7.273h7.272v-7.273Zm43.636 0v7.273h7.273v-7.273Zm29.091 0v7.273h7.273v-7.273Zm-58.182 3.636v7.273h7.273v-7.273Zm-29.091 3.637v7.273H56v-7.273Zm101.818 0v7.273h7.273v-7.273Zm-58.181 3.636v7.273h7.272v-7.273Zm29.091 0v7.273h7.272v-7.273ZM136 81.455v7.272h7.273v-7.272ZM34.182 85.091v7.273h7.273v-7.273Zm29.091 0v7.273h7.272v-7.273Zm14.545 0v7.273h7.273v-7.273Zm29.091 0v7.273h7.273v-7.273Zm43.636 3.636V96h7.273v-7.273ZM48.727 92.364v7.272H56v-7.272Zm43.637 0v7.272h7.272v-7.272Zm-14.546 7.272v7.273h7.273v-7.273Zm58.182 0v7.273h7.273v-7.273Zm-101.818 3.637v7.272h7.273v-7.272Zm29.091 0v7.272h7.272v-7.272Zm43.636 0v7.272h7.273v-7.272Zm43.636 3.636v7.273h7.273v-7.273Zm-58.181 3.636v7.273h7.272v-7.273Zm-43.637 3.637v7.273H56v-7.273Zm29.091 3.636v7.273h7.273v-7.273ZM136 121.455v7.272h7.273v-7.272Zm-101.818 3.636v7.273h7.273v-7.273Zm29.091 0v7.273h7.272v-7.273Zm43.636 0v7.273h7.273v-7.273Zm-14.545 3.636V136h7.272v-7.273Zm58.181 0V136h7.273v-7.273ZM136 143.273v7.272h7.273v-7.272Zm-101.818 3.636v7.273h7.273v-7.273Zm58.182 0v7.273h7.272v-7.273Zm-29.091 3.636v7.273h7.272v-7.273Zm87.272 0v7.273h7.273v-7.273Z"/></svg>