<svg xmlns="http://www.w3.org/2000/svg" viewBox="0 0 192 192"><path d="m96 16.5 74.204 42.779v116.159H21.796V59.343Z" fill="none" stroke="#000" stroke-width="8" stroke-linecap="round" stroke-linejoin="round"/><path d="M23.147 167.978a19.069 19.069 0 0 0 7.404 5.865 19.103 19.103 0 0 0 9.315 1.595H49.96a17.048 17.048 0 0 0 8.512-2.287 17.011 17.011 0 0 0 6.226-6.23 16.977 16.977 0 0 0 2.272-8.505 16.995 16.995 0 0 0-4.974-12.028 17.048 17.048 0 0 0-12.036-4.993H38.806a17.041 17.041 0 0 1-8.511-2.287 17.007 17.007 0 0 1-8.499-14.735 16.985 16.985 0 0 1 2.273-8.504 17.022 17.022 0 0 1 14.737-8.518h10.095a19.092 19.092 0 0 1 16.719 7.46m104.584-55.532L65.62 114.811M21.796 59.343l148.408 78.803" fill="none" stroke="#000" stroke-width="8" stroke-linecap="round" stroke-linejoin="round"/></svg>