<svg xmlns="http://www.w3.org/2000/svg" viewBox="0 0 192 192"><path d="M55.157 174.678c-12.579-2.527-27.923-10.764-36.475-19.58L16 152.333l8.479-14.271c8.055-13.555 10.496-16.123 12.188-12.821 1.143 2.23 13.342 9.302 20.563 11.92 8.137 2.95 23.091 3.073 28.722.236 8.705-4.386 8.287-14.449-.8-19.237-2.745-1.447-12.135-4.315-20.867-6.374C30.24 103.757 18.277 90.03 19.86 60.809c1.143-21.105 12.152-35.791 32.006-42.701 10.643-3.704 33.691-2.34 44.449 2.632 8.968 4.144 17.318 9.73 20.007 13.385 1.669 2.267 1.159 3.573-6.26 16.041l-8.077 13.573-9.536-5.714c-8.678-5.2-10.507-5.759-20.32-6.212-8.698-.402-11.562-.002-14.811 2.066-5.1 3.247-6.524 6.079-5.509 10.955 1.069 5.136 7.795 8.661 23.345 12.234 16.075 3.693 25.226 7.519 33.453 13.987 11.202 8.807 15.708 18.972 15.852 35.76.215 25.084-12.128 41.169-36.342 47.355-8.716 2.227-23.283 2.451-32.96.508Zm95.778.146c-5.049-1.115-9.495-4.671-13.08-10.461-3.464-5.593-3.464-21.672 0-27.265 5.466-8.828 13.787-12.767 22.17-10.496 9.762 2.644 15.975 11.871 15.975 23.723 0 8.142-1.1 11.818-5.145 17.2-4.812 6.404-12.018 9.043-19.92 7.299Z"/></svg>