<svg
    xmlns="http://www.w3.org/2000/svg"
    viewBox="0 0 192 192"
    id="vector">
    <g id="group">
        <path
            id="path_6"
            d="M 55.157 174.678 C 42.578 172.151 27.234 163.914 18.682 155.098 L 16 152.333 L 24.479 138.062 C 32.534 124.507 34.975 121.939 36.667 125.241 C 37.81 127.471 50.009 134.543 57.23 137.161 C 65.367 140.111 80.321 140.234 85.952 137.397 C 94.657 133.011 94.239 122.948 85.152 118.16 C 82.407 116.713 73.017 113.845 64.285 111.786 C 30.24 103.757 18.277 90.03 19.86 60.809 C 21.003 39.704 32.012 25.018 51.866 18.108 C 62.509 14.404 85.557 15.768 96.315 20.74 C 105.283 24.884 113.633 30.47 116.322 34.125 C 117.991 36.392 117.481 37.698 110.062 50.166 L 101.985 63.739 L 92.449 58.025 C 83.771 52.825 81.942 52.266 72.129 51.813 C 63.431 51.411 60.567 51.811 57.318 53.879 C 52.218 57.126 50.794 59.958 51.809 64.834 C 52.878 69.97 59.604 73.495 75.154 77.068 C 91.229 80.761 100.38 84.587 108.607 91.055 C 119.809 99.862 124.315 110.027 124.459 126.815 C 124.674 151.899 112.331 167.984 88.117 174.17 C 79.401 176.397 64.834 176.621 55.157 174.678 Z M 150.935 174.824 C 145.886 173.709 141.44 170.153 137.855 164.363 C 134.391 158.77 134.391 142.691 137.855 137.098 C 143.321 128.27 151.642 124.331 160.025 126.602 C 169.787 129.246 176 138.473 176 150.325 C 176 158.467 174.9 162.143 170.855 167.525 C 166.043 173.929 158.837 176.568 150.935 174.824 Z"
            fill="#000000"
            stroke-width="12"/>
    </g>
</svg>
