<?xml version="1.0" encoding="UTF-8" standalone="no"?>
<svg
   viewBox="0 0 48 48"
   version="1.1"
   id="svg2499"
   sodipodi:docname="spotiflyer.svg"
   inkscape:version="1.1.2 (b8e25be833, 2022-02-05)"
   xmlns:inkscape="http://www.inkscape.org/namespaces/inkscape"
   xmlns:sodipodi="http://sodipodi.sourceforge.net/DTD/sodipodi-0.dtd"
   xmlns="http://www.w3.org/2000/svg"
   xmlns:svg="http://www.w3.org/2000/svg">
  <sodipodi:namedview
     id="namedview2501"
     pagecolor="#ffffff"
     bordercolor="#666666"
     borderopacity="1.0"
     inkscape:pageshadow="2"
     inkscape:pageopacity="0.0"
     inkscape:pagecheckerboard="0"
     showgrid="false"
     inkscape:zoom="12.041667"
     inkscape:cx="24"
     inkscape:cy="24"
     inkscape:window-width="1280"
     inkscape:window-height="961"
     inkscape:window-x="-8"
     inkscape:window-y="-8"
     inkscape:window-maximized="1"
     inkscape:current-layer="svg2499" />
  <defs
     id="defs2489">
    <style
       id="style2487">.a{fill:none;stroke:#000;stroke-linecap:round;stroke-linejoin:round;}</style>
  </defs>
  <path
     class="a"
     d="M43.5949,32.861A21.4834,21.4834,0,1,0,32.8642,43.5935M31.8228,29.8023a35.9132,35.9132,0,0,0-14.4194-14.06c-1.3779-.7329-1.4464-2.9025-.9382-4.0459a2.5434,2.5434,0,0,1,2.14-1.4375,3.2616,3.2616,0,0,1,.5081-.001,4.5172,4.5172,0,0,1,1.7494.5394,37.378,37.378,0,0,1,16.33,16.34,4.5993,4.5993,0,0,1,.5276,1.5681M15.185,19.0257a1.8766,1.8766,0,0,1,.9968.2248A32.1087,32.1087,0,0,1,28.75,31.8182a1.8477,1.8477,0,0,1-.84,2.58,2.0746,2.0746,0,0,1-2.6875-.6255A28.1805,28.1805,0,0,0,14.2273,22.7784a2.0746,2.0746,0,0,1-.6255-2.6875A1.7672,1.7672,0,0,1,15.185,19.0257Zm-2.9318,7.4859a1.4619,1.4619,0,0,1,.7525.215,24.0813,24.0813,0,0,1,8.2677,8.2677,1.3234,1.3234,0,0,1-.45,1.9057,1.6657,1.6657,0,0,1-2.0621-.3909,21.218,21.218,0,0,0-7.2709-7.2709A1.6783,1.6783,0,0,1,11.1,27.1761,1.23,1.23,0,0,1,12.2532,26.5116Z"
     id="path2491"
     style="stroke-width:2.13543307;stroke-miterlimit:4;stroke-dasharray:none" />
  <path
     class="a"
     d="M36.5535,28.6069A7.9466,7.9466,0,1,0,44.5,36.5535v-.0094a7.9372,7.9372,0,0,0-7.9371-7.9372Z"
     id="path2493"
     style="stroke-width:2.13543307;stroke-miterlimit:4;stroke-dasharray:none" />
  <path
     class="a"
     d="M33.2689,32.6274c2.8965.9438,3.991,3.2321,3.8481,8.3427"
     id="path2495"
     style="stroke-width:2.13543307;stroke-miterlimit:4;stroke-dasharray:none" />
  <polyline
     class="a"
     points="40.529 37.725 37.103 40.98 33.678 37.725"
     id="polyline2497"
     style="stroke-width:2.13543307;stroke-miterlimit:4;stroke-dasharray:none" />
</svg>
