<svg xmlns="http://www.w3.org/2000/svg" viewBox="0 0 192 192"><path d="M16.001 170.545c0-1.488.033-1.542 1.328-2.162.73-.349 2.008-.803 2.84-1.009 1.707-.422 1.666-.149.587-3.93l-.638-2.238 1.926-.22a27.394 27.394 0 0 0 13.253-5.295c1.903-1.431 1.953-1.506 1.961-2.926.018-3.524 1.689-7.209 5.602-12.357 1.453-1.911 3.392-4.46 4.31-5.663.917-1.203 2.175-3.206 2.795-4.451 1.096-2.2 1.122-2.336.94-4.844-.103-1.419-.546-3.951-.984-5.626-.438-1.676-1.141-4.374-1.562-5.995-1.757-6.761-1.705-12.76.156-18.371 1.96-5.907 5.863-11.915 9.73-14.976 1.408-1.114 1.363-.915-.28 1.243-2.629 3.453-5.174 8.729-6.405 13.278-.579 2.137-.69 3.349-.678 7.399.014 5.233.09 5.639 2.736 14.639 2.9 9.864 2.31 13.038-3.983 21.413-4.186 5.571-5.393 7.381-6.553 9.829-.914 1.93-.988 2.332-.988 5.368 0 3.854.501 5.59 3.13 10.835.923 1.84 1.612 3.45 1.533 3.578-.079.127-1.204 1.086-2.501 2.129l-2.358 1.897-12.949-.009-12.948-.009Zm39.168.215c-5.346-8.464-6.683-11.321-7.326-15.654-.679-4.577.829-8.138 6.797-16.049 4.853-6.434 6.097-8.87 6.297-12.323.186-3.214-.235-5.242-2.442-11.751-2.614-7.71-2.957-9.412-2.947-14.612.011-5.277.701-8.475 2.773-12.849 2.19-4.623 4.598-7.836 7.969-10.632 1.105-.917 2.069-1.607 2.142-1.534.073.074-.495.951-1.263 1.95-3.206 4.171-5.653 9.178-6.689 13.69-.421 1.831-.571 3.712-.562 7.031.015 5.321.238 6.343 3.165 14.498 2.391 6.662 2.86 8.503 3.11 12.22.333 4.932-.839 7.944-5.371 13.809-4.174 5.401-6.344 8.795-7.018 10.979-1.516 4.909-.315 9.233 4.751 17.101a322.593 322.593 0 0 1 2.718 4.282l.715 1.172h-5.981Zm10.743-2.813c-4.603-7.215-5.853-10.275-5.903-14.452-.051-4.269 1.23-7.045 6.222-13.476 8.083-10.414 8.46-14.539 2.593-28.392-3.222-7.606-3.792-9.906-3.796-15.318-.006-8.388 3.183-15.616 9.566-21.679 2.224-2.112 2.967-2.597 2.967-1.934 0 .161-.887 1.603-1.971 3.203-3.724 5.499-5.505 11.382-5.522 18.243-.012 4.839.702 7.384 4.684 16.697 3.71 8.677 4.199 10.437 4.207 15.156.011 5.82-.903 7.948-6.703 15.625-3.305 4.374-4.036 5.628-4.816 8.26-1.439 4.852-.047 9.219 5.707 17.912l2.843 4.296h-7.437Zm13.887-.642c-4.548-6.903-5.985-10.261-5.976-13.967.009-3.891 1.018-6.141 5.318-11.859 3.645-4.847 4.48-6.359 5.317-9.631.988-3.863 1.319-4.005 6.353-2.728 1.781.452 3.969.781 5.187.781 1.219 0 3.407-.329 5.187-.781 1.694-.429 3.465-.781 3.934-.781 1.226 0 1.968.977 2.366 3.114.51 2.746 1.919 5.421 4.962 9.419 1.49 1.958 3.127 4.237 3.638 5.064 1.985 3.217 2.591 7.263 1.636 10.93-.676 2.592-2.334 5.723-5.707 10.769l-2.976 4.453H82.95Zm39.148.33c5.065-7.681 6.327-10.892 6.024-15.325-.228-3.343-1.462-5.806-5.773-11.523-3.713-4.924-5.098-7.436-5.844-10.601-1.232-5.228-.319-9.617 4.123-19.815 3.906-8.967 4.662-12.113 4.353-18.116-.324-6.289-1.972-11.261-5.424-16.356-1.951-2.881-2.246-3.496-1.677-3.496.455 0 3.134 2.404 4.839 4.343 5.025 5.714 7.485 12.222 7.453 19.719-.021 5.037-.78 8.01-3.979 15.593-5.735 13.596-5.313 17.761 2.839 28.031 4.827 6.08 6.207 9.084 6.16 13.406-.046 4.293-1.324 7.371-6.127 14.765l-2.487 3.828h-7.417Zm11.265 4.147c.104-.169 1.635-2.607 3.401-5.418 3.73-5.937 4.898-8.706 5.119-12.139.282-4.371-1.008-7.225-6.346-14.032-5.354-6.829-6.476-9.307-6.497-14.354-.017-3.98.545-6.35 3.399-14.328 2.17-6.068 2.959-9.671 2.959-13.502 0-7.377-2.243-13.813-7.06-20.252-.947-1.265-1.673-2.35-1.613-2.41.256-.256 3.758 2.813 5.441 4.769 4.801 5.581 7.607 12.987 7.607 20.078 0 4.115-.801 8.013-2.963 14.415-2.252 6.668-2.813 9.35-2.595 12.399.207 2.896 1.658 5.881 4.913 10.11 10.516 13.662 10.83 17.171 2.746 30.665l-2.569 4.288-3.066.008c-1.923.005-2.994-.106-2.876-.298Zm17.4-1.758c-1.42-1.137-2.539-2.156-2.486-2.267.053-.11.745-1.466 1.538-3.013 2.647-5.163 3.198-7.035 3.22-10.937.019-3.399.005-3.467-1.259-6.094-.785-1.63-2.807-4.682-5.236-7.902-4.194-5.561-5.539-7.854-6.315-10.767-.791-2.969-.194-7.189 2.05-14.499 2.835-9.234 2.913-15.694.276-22.869-1.362-3.707-3.044-6.689-6.528-11.572l-.468-.657.938.663c2.522 1.782 6.148 6.454 8.207 10.574 3.648 7.301 4.352 14.92 2.141 23.184l-1.572 5.877c-1.083 4.05-1.344 7.366-.72 9.147.704 2.009 2.177 4.279 5.76 8.877 5.632 7.227 7.568 10.976 7.582 14.68l.007 1.768 2.11 1.555c3.804 2.804 7.807 4.456 12.334 5.09l2.678.374-.745 2.692c-.409 1.48-.746 2.785-.748 2.9-.002.114.721.364 1.606.554.886.19 2.152.649 2.813 1.02 1.133.637 1.202.762 1.202 2.173v1.497l-12.901.009-12.901.009-2.582-2.066ZM16.001 156.971v-3.008h1.406c1.323 0 1.407.051 1.417.86.006.472.2 1.738.43 2.812l.419 1.953h-.86c-.472 0-1.299.088-1.836.195l-.976.196Zm157.73 2.702c-1.332-.139-1.321-.09-.757-3.366l.377-2.187 1.323-.097 1.322-.096v2.987c0 2.656-.06 2.981-.547 2.934-.3-.029-1.074-.108-1.718-.175Zm-157.73-17.428v-3.281h1.875v6.562h-1.875Zm158.12 0v-3.281h1.875v6.562h-1.875Zm-158.12-15.708c0-4.283-.12-4.123 3.067-4.131 1.439-.004 1.64.069 1.495.543-.458 1.497-1.104 4.257-1.295 5.528-.191 1.275-.3 1.425-1.037 1.429a7.287 7.287 0 0 0-1.527.192c-.701.188-.703.175-.703-3.561Zm157.919 3.453c-.899-.113-1.001-.243-1.194-1.531-.188-1.255-.836-4.02-1.292-5.51-.146-.479.067-.547 1.703-.547 2.968 0 2.859-.156 2.859 4.095 0 4.092.187 3.778-2.076 3.493Zm-81.933-6.961c-5.013-1.803-9.991-6.76-13.184-13.127-3.625-7.229-4.171-15.938-1-15.937.469 0 1.592.281 2.496.625 2.067.786 2.733.781 5.76-.035l2.447-.661 1.737.879c1.459.738 1.781.806 2.018.426.803-1.289.78-7.513-.033-9.188-.676-1.392-2.885-2.899-5.347-3.646-1.813-.551-2.704-.64-5.057-.503-1.571.091-3.454.384-4.184.651-1.234.452-1.328.449-1.325-.046.005-.893 1.4-3.579 2.602-5.011 2.596-3.091 6.36-5.436 10.689-6.66 3.524-.997 9.259-.997 12.781-.001 3.632 1.027 7.087 2.94 9.345 5.174 1.929 1.909 3.953 5.179 3.953 6.386 0 .631-.029.634-1.328.135-.919-.353-2.386-.517-4.765-.533-4.025-.027-5.736.448-8.125 2.255-1.931 1.461-2.395 2.875-2.43 7.409-.024 3.024.684 6.719 1.286 6.719.508 0 1.651-1.338 2.274-2.663.795-1.691 1.481-1.938 3.354-1.204 2.163.848 5.174.774 6.826-.169 1.235-.704 1.355-.718 2.082-.241 1.163.762 1.566 2.403 1.352 5.504-.681 9.864-8.192 20.72-16.265 23.51-2.179.753-5.793.731-7.959-.048Zm7.006-7.935c1.566-.73 4.974-4.132 4.974-4.967 0-.413-.048-.413-5.937-.06-2.364.141-4.838.09-6.691-.139-1.957-.242-3.045-.259-3.252-.051-.208.207.28.986 1.459 2.33 3.074 3.5 6.126 4.433 9.447 2.887Zm.024-9.63c2.585-.974 2.874-1.473 1.278-2.209-.746-.345-1.989-.454-4.691-.414-3.191.047-3.756.135-4.286.667-.795.797-.528 1.13 1.556 1.937 2.227.864 3.889.869 6.143.019Zm-83.016 5.555v-4.181l.959-.334c1.798-.627 6.1-1.063 8.232-.835 1.151.123 2.05.331 1.997.461-.052.13-.928 1.998-1.945 4.149l-1.851 3.912-2.837.173c-1.56.095-3.223.322-3.696.504l-.859.331Zm159.058 3.816c-.43-.162-2.07-.374-3.644-.471l-2.862-.176-.869-2.065a53.703 53.703 0 0 0-1.94-4.033c-.589-1.082-.973-2.066-.853-2.187.672-.671 9.405.003 10.724.829.3.187.378 1.275.313 4.324l-.088 4.075ZM16.001 82.41V64.538l1.244.986c2.406 1.905 5.549 6.132 6.922 9.308.77 1.781 1.822 5.047 1.834 5.696.025 1.311.48 1.292 3.462-.143 4.4-2.117 7.127-2.746 12.006-2.768 3.899-.017 6.029.314 8.804 1.369l.822.312-1.376.993c-5.058 3.652-12.09 10.612-16.025 15.861a3544.987 3544.987 0 0 1-2.501 3.336c-.023.03-.884-.143-1.914-.386-3.57-.839-9.265-.408-12.732.963-.517.205-.546-.76-.546-17.655Zm157.652 17.111c-2.602-.875-8.043-1.099-10.781-.443-2 .478-2.039.475-2.5-.194-3.653-5.298-12.179-14.247-16.835-17.67-2.56-1.882-2.599-1.929-1.803-2.232 6.451-2.452 14.374-1.859 21.253 1.592 1.353.678 2.51 1.183 2.571 1.121.062-.061.474-1.36.916-2.886 1.482-5.114 4.836-10.498 8.235-13.217l1.287-1.031v17.827c0 9.805-.105 17.813-.234 17.796-.129-.018-1.078-.316-2.109-.663ZM76.781 88.858c-.932-2.23.391-3.378 3.88-3.367 2.732.008 5.284.943 6.569 2.407.858.977 1.202 1.692.815 1.692-.077 0-.951-.211-1.94-.469-2.549-.664-5.577-.595-7.25.163-.749.34-1.424.619-1.5.619-.076 0-.334-.47-.574-1.045Zm36.404.382c-1.357-.728-4.559-.786-6.747-.122-.843.256-1.569.467-1.612.469-.043.002-.078-.422-.078-.941 0-2.392 6.654-4.218 9.674-2.657 1.176.609 1.469 1.671.812 2.942-.57 1.103-.567 1.103-2.049.309ZM59.831 72.95c-.169-.215-1.045-1.861-1.947-3.659-1.976-3.94-4.732-8.402-7.577-12.269-1.158-1.574-2.042-2.926-1.964-3.003.26-.261 4.976.606 7.656 1.407a33.642 33.642 0 0 1 9.148 4.303c1.164.783 2.172 1.424 2.238 1.424.067 0-.297-1.09-.81-2.422-1.248-3.245-4.505-9.703-6.302-12.499-1.71-2.66-1.811-2.604 2.924-1.639 6.956 1.418 12.994 4.297 17.493 8.342.871.783 1.665 1.341 1.766 1.24.229-.228 4.48-11.412 4.48-11.784 0-.15-2.183-2.202-4.851-4.56-2.668-2.358-4.742-4.382-4.609-4.499.133-.117 3.054-.386 6.491-.598 3.851-.238 6.383-.525 6.595-.749.189-.199 1.455-2.996 2.812-6.216 1.358-3.219 2.541-5.856 2.63-5.859.089-.003 1.335 2.738 2.768 6.09 1.433 3.353 2.696 6.15 2.807 6.216.11.066 3.013.297 6.45.512 3.438.216 6.361.489 6.495.607.135.119-1.939 2.145-4.609 4.503s-4.854 4.414-4.854 4.568c0 .325 4.327 11.616 4.528 11.818.074.074.847-.506 1.718-1.289 4.499-4.045 10.536-6.924 17.493-8.342 4.769-.972 4.636-1.076 2.697 2.108-2.711 4.45-6.749 12.922-6.749 14.16 0 .173.86-.268 1.911-.982 2.728-1.853 6.265-3.546 9.338-4.469 2.681-.806 6.919-1.586 7.523-1.384.18.06-.377 1.04-1.239 2.179-2.717 3.589-5.607 8.205-7.895 12.611-1.216 2.343-2.407 4.335-2.646 4.426-.239.092-2.108-.556-4.154-1.44-6.543-2.827-11.849-4.419-19.002-5.703-3.526-.633-4.996-.716-12.586-.716-7.589 0-9.059.083-12.585.716-7.16 1.285-13.125 3.087-19.347 5.846-3.405 1.51-3.769 1.596-4.235 1.005ZM89.28 57.727c3.738-.423 10.865-.374 14.466.1 2.829.372 3.19.356 3.19-.143 0-.394-10.428-8.227-10.938-8.216-.528.012-10.937 7.824-10.937 8.209 0 .441.412.674.915.519.27-.083 1.757-.294 3.304-.469Z"/></svg>