<svg
    xmlns="http://www.w3.org/2000/svg"
    viewBox="0 0 192 192"
    id="vector">
    <path
        id="path"
        d="M 16.001 170.545 C 16.001 169.057 16.034 169.003 17.329 168.383 C 18.059 168.034 19.337 167.58 20.169 167.374 C 21.876 166.952 21.835 167.225 20.756 163.444 L 20.118 161.206 L 22.044 160.986 C 26.807 160.441 31.442 158.589 35.297 155.691 C 37.2 154.26 37.25 154.185 37.258 152.765 C 37.276 149.241 38.947 145.556 42.86 140.408 C 44.313 138.497 46.252 135.948 47.17 134.745 C 48.087 133.542 49.345 131.539 49.965 130.294 C 51.061 128.094 51.087 127.958 50.905 125.45 C 50.802 124.031 50.359 121.499 49.921 119.824 C 49.483 118.148 48.78 115.45 48.359 113.829 C 46.602 107.068 46.654 101.069 48.515 95.458 C 50.475 89.551 54.378 83.543 58.245 80.482 C 59.653 79.368 59.608 79.567 57.965 81.725 C 55.336 85.178 52.791 90.454 51.56 95.003 C 50.981 97.14 50.87 98.352 50.882 102.402 C 50.896 107.635 50.972 108.041 53.618 117.041 C 56.518 126.905 55.928 130.079 49.635 138.454 C 45.449 144.025 44.242 145.835 43.082 148.283 C 42.168 150.213 42.094 150.615 42.094 153.651 C 42.094 157.505 42.595 159.241 45.224 164.486 C 46.147 166.326 46.836 167.936 46.757 168.064 C 46.678 168.191 45.553 169.15 44.256 170.193 L 41.898 172.09 L 28.949 172.081 L 16.001 172.072 Z M 55.169 170.76 C 49.823 162.296 48.486 159.439 47.843 155.106 C 47.164 150.529 48.672 146.968 54.64 139.057 C 59.493 132.623 60.737 130.187 60.937 126.734 C 61.123 123.52 60.702 121.492 58.495 114.983 C 55.881 107.273 55.538 105.571 55.548 100.371 C 55.559 95.094 56.249 91.896 58.321 87.522 C 60.511 82.899 62.919 79.686 66.29 76.89 C 67.395 75.973 68.359 75.283 68.432 75.356 C 68.505 75.43 67.937 76.307 67.169 77.306 C 63.963 81.477 61.516 86.484 60.48 90.996 C 60.059 92.827 59.909 94.708 59.918 98.027 C 59.933 103.348 60.156 104.37 63.083 112.525 C 65.474 119.187 65.943 121.028 66.193 124.745 C 66.526 129.677 65.354 132.689 60.822 138.554 C 56.648 143.955 54.478 147.349 53.804 149.533 C 52.288 154.442 53.489 158.766 58.555 166.634 C 59.656 168.345 60.879 170.271 61.273 170.916 L 61.988 172.088 L 56.007 172.088 Z M 65.912 167.947 C 61.309 160.732 60.059 157.672 60.009 153.495 C 59.958 149.226 61.239 146.45 66.231 140.019 C 74.314 129.605 74.691 125.48 68.824 111.627 C 65.602 104.021 65.032 101.721 65.028 96.309 C 65.022 87.921 68.211 80.693 74.594 74.63 C 76.818 72.518 77.561 72.033 77.561 72.696 C 77.561 72.857 76.674 74.299 75.59 75.899 C 71.866 81.398 70.085 87.281 70.068 94.142 C 70.056 98.981 70.77 101.526 74.752 110.839 C 78.462 119.516 78.951 121.276 78.959 125.995 C 78.97 131.815 78.056 133.943 72.256 141.62 C 68.951 145.994 68.22 147.248 67.44 149.88 C 66.001 154.732 67.393 159.099 73.147 167.792 L 75.99 172.088 L 68.553 172.088 Z M 79.799 167.305 C 75.251 160.402 73.814 157.044 73.823 153.338 C 73.832 149.447 74.841 147.197 79.141 141.479 C 82.786 136.632 83.621 135.12 84.458 131.848 C 85.446 127.985 85.777 127.843 90.811 129.12 C 92.592 129.572 94.78 129.901 95.998 129.901 C 97.217 129.901 99.405 129.572 101.185 129.12 C 102.879 128.691 104.65 128.339 105.119 128.339 C 106.345 128.339 107.087 129.316 107.485 131.453 C 107.995 134.199 109.404 136.874 112.447 140.872 C 113.937 142.83 115.574 145.109 116.085 145.936 C 118.07 149.153 118.676 153.199 117.721 156.866 C 117.045 159.458 115.387 162.589 112.014 167.635 L 109.038 172.088 L 82.95 172.088 Z M 118.947 167.635 C 124.012 159.954 125.274 156.743 124.971 152.31 C 124.743 148.967 123.509 146.504 119.198 140.787 C 115.485 135.863 114.1 133.351 113.354 130.186 C 112.122 124.958 113.035 120.569 117.477 110.371 C 121.383 101.404 122.139 98.258 121.83 92.255 C 121.506 85.966 119.858 80.994 116.406 75.899 C 114.455 73.018 114.16 72.403 114.729 72.403 C 115.184 72.403 117.863 74.807 119.568 76.746 C 124.593 82.46 127.053 88.968 127.021 96.465 C 127 101.502 126.241 104.475 123.042 112.058 C 117.307 125.654 117.729 129.819 125.881 140.089 C 130.708 146.169 132.088 149.173 132.041 153.495 C 131.995 157.788 130.717 160.866 125.914 168.26 L 123.427 172.088 L 116.01 172.088 Z M 130.212 171.782 C 130.316 171.613 131.847 169.175 133.613 166.364 C 137.343 160.427 138.511 157.658 138.732 154.225 C 139.014 149.854 137.724 147 132.386 140.193 C 127.032 133.364 125.91 130.886 125.889 125.839 C 125.872 121.859 126.434 119.489 129.288 111.511 C 131.458 105.443 132.247 101.84 132.247 98.009 C 132.247 90.632 130.004 84.196 125.187 77.757 C 124.24 76.492 123.514 75.407 123.574 75.347 C 123.83 75.091 127.332 78.16 129.015 80.116 C 133.816 85.697 136.622 93.103 136.622 100.194 C 136.622 104.309 135.821 108.207 133.659 114.609 C 131.407 121.277 130.846 123.959 131.064 127.008 C 131.271 129.904 132.722 132.889 135.977 137.118 C 146.493 150.78 146.807 154.289 138.723 167.783 L 136.154 172.071 L 133.088 172.079 C 131.165 172.084 130.094 171.973 130.212 171.781 Z M 147.612 170.024 C 146.192 168.887 145.073 167.868 145.126 167.757 C 145.179 167.647 145.871 166.291 146.664 164.744 C 149.311 159.581 149.862 157.709 149.884 153.807 C 149.903 150.408 149.889 150.34 148.625 147.713 C 147.84 146.083 145.818 143.031 143.389 139.811 C 139.195 134.25 137.85 131.957 137.074 129.044 C 136.283 126.075 136.88 121.855 139.124 114.545 C 141.959 105.311 142.037 98.851 139.4 91.676 C 138.038 87.969 136.356 84.987 132.872 80.104 L 132.404 79.447 L 133.342 80.11 C 135.864 81.892 139.49 86.564 141.549 90.684 C 145.197 97.985 145.901 105.604 143.69 113.868 C 143.285 115.382 142.577 118.027 142.118 119.745 C 141.035 123.795 140.774 127.111 141.398 128.892 C 142.102 130.901 143.575 133.171 147.158 137.769 C 152.79 144.996 154.726 148.745 154.74 152.449 L 154.747 154.217 L 156.857 155.772 C 160.661 158.576 164.664 160.228 169.191 160.862 L 171.869 161.236 L 171.124 163.928 C 170.715 165.408 170.378 166.713 170.376 166.828 C 170.374 166.942 171.097 167.192 171.982 167.382 C 172.868 167.572 174.134 168.031 174.795 168.402 C 175.928 169.039 175.997 169.164 175.997 170.575 L 175.997 172.072 L 163.096 172.081 L 150.195 172.09 L 147.613 170.024 Z M 16.001 156.971 L 16.001 153.963 L 17.407 153.963 C 18.73 153.963 18.814 154.014 18.824 154.823 C 18.83 155.295 19.024 156.561 19.254 157.635 L 19.673 159.588 L 18.813 159.588 C 18.341 159.588 17.514 159.676 16.977 159.783 L 16.001 159.979 Z M 173.731 159.673 C 172.399 159.534 172.41 159.583 172.974 156.307 L 173.351 154.12 L 174.674 154.023 L 175.996 153.927 L 175.996 156.914 C 175.996 159.57 175.936 159.895 175.449 159.848 C 175.149 159.819 174.375 159.74 173.731 159.673 Z M 16.001 142.245 L 16.001 138.964 L 17.876 138.964 L 17.876 145.526 L 16.001 145.526 Z M 174.121 142.245 L 174.121 138.964 L 175.996 138.964 L 175.996 145.526 L 174.121 145.526 Z M 16.001 126.537 C 16.001 122.254 15.881 122.414 19.068 122.406 C 20.507 122.402 20.708 122.475 20.563 122.949 C 20.105 124.446 19.459 127.206 19.268 128.477 C 19.077 129.752 18.968 129.902 18.231 129.906 C 17.778 129.908 17.09 129.995 16.704 130.098 C 16.003 130.286 16.001 130.273 16.001 126.537 Z M 173.92 129.99 C 173.021 129.877 172.919 129.747 172.726 128.459 C 172.538 127.204 171.89 124.439 171.434 122.949 C 171.288 122.47 171.501 122.402 173.137 122.402 C 176.105 122.402 175.996 122.246 175.996 126.497 C 175.996 130.589 176.183 130.275 173.92 129.99 Z M 91.987 123.029 C 86.974 121.226 81.996 116.269 78.803 109.902 C 75.178 102.673 74.632 93.964 77.803 93.965 C 78.272 93.965 79.395 94.246 80.299 94.59 C 82.366 95.376 83.032 95.371 86.059 94.555 L 88.506 93.894 L 90.243 94.773 C 91.702 95.511 92.024 95.579 92.261 95.199 C 93.064 93.91 93.041 87.686 92.228 86.011 C 91.552 84.619 89.343 83.112 86.881 82.365 C 85.068 81.814 84.177 81.725 81.824 81.862 C 80.253 81.953 78.37 82.246 77.64 82.513 C 76.406 82.965 76.312 82.962 76.315 82.467 C 76.32 81.574 77.715 78.888 78.917 77.456 C 81.513 74.365 85.277 72.02 89.606 70.796 C 93.13 69.799 98.865 69.799 102.387 70.795 C 106.019 71.822 109.474 73.735 111.732 75.969 C 113.661 77.878 115.685 81.148 115.685 82.355 C 115.685 82.986 115.656 82.989 114.357 82.49 C 113.438 82.137 111.971 81.973 109.592 81.957 C 105.567 81.93 103.856 82.405 101.467 84.212 C 99.536 85.673 99.072 87.087 99.037 91.621 C 99.013 94.645 99.721 98.34 100.323 98.34 C 100.831 98.34 101.974 97.002 102.597 95.677 C 103.392 93.986 104.078 93.739 105.951 94.473 C 108.114 95.321 111.125 95.247 112.777 94.304 C 114.012 93.6 114.132 93.586 114.859 94.063 C 116.022 94.825 116.425 96.466 116.211 99.567 C 115.53 109.431 108.019 120.287 99.946 123.077 C 97.767 123.83 94.153 123.808 91.987 123.029 Z M 98.993 115.094 C 100.559 114.364 103.967 110.962 103.967 110.127 C 103.967 109.714 103.919 109.714 98.03 110.067 C 95.666 110.208 93.192 110.157 91.339 109.928 C 89.382 109.686 88.294 109.669 88.087 109.877 C 87.879 110.084 88.367 110.863 89.546 112.207 C 92.62 115.707 95.672 116.64 98.993 115.094 Z M 99.017 105.464 C 101.602 104.49 101.891 103.991 100.295 103.255 C 99.549 102.91 98.306 102.801 95.604 102.841 C 92.413 102.888 91.848 102.976 91.318 103.508 C 90.523 104.305 90.79 104.638 92.874 105.445 C 95.101 106.309 96.763 106.314 99.017 105.464 Z M 16.001 111.019 L 16.001 106.838 L 16.96 106.504 C 18.758 105.877 23.06 105.441 25.192 105.669 C 26.343 105.792 27.242 106 27.189 106.13 C 27.137 106.26 26.261 108.128 25.244 110.279 L 23.393 114.191 L 20.556 114.364 C 18.996 114.459 17.333 114.686 16.86 114.868 L 16.001 115.199 Z M 175.059 114.835 C 174.629 114.673 172.989 114.461 171.415 114.364 L 168.553 114.188 L 167.684 112.123 C 167.207 110.988 166.334 109.173 165.744 108.09 C 165.155 107.008 164.771 106.024 164.891 105.903 C 165.563 105.232 174.296 105.906 175.615 106.732 C 175.915 106.919 175.993 108.007 175.928 111.056 L 175.84 115.131 Z M 16.001 82.41 L 16.001 64.538 L 17.245 65.524 C 19.651 67.429 22.794 71.656 24.167 74.832 C 24.937 76.613 25.989 79.879 26.001 80.528 C 26.026 81.839 26.481 81.82 29.463 80.385 C 33.863 78.268 36.59 77.639 41.469 77.617 C 45.368 77.6 47.498 77.931 50.273 78.986 L 51.095 79.298 L 49.719 80.291 C 44.661 83.943 37.629 90.903 33.694 96.152 C 32.342 97.957 31.216 99.458 31.193 99.488 C 31.17 99.518 30.309 99.345 29.279 99.102 C 25.709 98.263 20.014 98.694 16.547 100.065 C 16.03 100.27 16.001 99.305 16.001 82.41 Z M 173.653 99.521 C 171.051 98.646 165.61 98.422 162.872 99.078 C 160.872 99.556 160.833 99.553 160.372 98.884 C 156.719 93.586 148.193 84.637 143.537 81.214 C 140.977 79.332 140.938 79.285 141.734 78.982 C 148.185 76.53 156.108 77.123 162.987 80.574 C 164.34 81.252 165.497 81.757 165.558 81.695 C 165.62 81.634 166.032 80.335 166.474 78.809 C 167.956 73.695 171.31 68.311 174.709 65.592 L 175.996 64.561 L 175.996 82.388 C 175.996 92.193 175.891 100.201 175.762 100.184 C 175.633 100.166 174.684 99.868 173.653 99.521 Z M 76.781 88.858 C 75.849 86.628 77.172 85.48 80.661 85.491 C 83.393 85.499 85.945 86.434 87.23 87.898 C 88.088 88.875 88.432 89.59 88.045 89.59 C 87.968 89.59 87.094 89.379 86.105 89.121 C 83.556 88.457 80.528 88.526 78.855 89.284 C 78.106 89.624 77.431 89.903 77.355 89.903 C 77.279 89.903 77.021 89.433 76.781 88.858 Z M 113.185 89.24 C 111.828 88.512 108.626 88.454 106.438 89.118 C 105.595 89.374 104.869 89.585 104.826 89.587 C 104.783 89.589 104.748 89.165 104.748 88.646 C 104.748 86.254 111.402 84.428 114.422 85.989 C 115.598 86.598 115.891 87.66 115.234 88.931 C 114.664 90.034 114.667 90.034 113.185 89.24 Z M 59.831 72.95 C 59.662 72.735 58.786 71.089 57.884 69.291 C 55.908 65.351 53.152 60.889 50.307 57.022 C 49.149 55.448 48.265 54.096 48.343 54.019 C 48.603 53.758 53.319 54.625 55.999 55.426 C 59.28 56.407 62.375 57.862 65.147 59.729 C 66.311 60.512 67.319 61.153 67.385 61.153 C 67.452 61.153 67.088 60.063 66.575 58.731 C 65.327 55.486 62.07 49.028 60.273 46.232 C 58.563 43.572 58.462 43.628 63.197 44.593 C 70.153 46.011 76.191 48.89 80.69 52.935 C 81.561 53.718 82.355 54.276 82.456 54.175 C 82.685 53.947 86.936 42.763 86.936 42.391 C 86.936 42.241 84.753 40.189 82.085 37.831 C 79.417 35.473 77.343 33.449 77.476 33.332 C 77.609 33.215 80.53 32.946 83.967 32.734 C 87.818 32.496 90.35 32.209 90.562 31.985 C 90.751 31.786 92.017 28.989 93.374 25.769 C 94.732 22.55 95.915 19.913 96.004 19.91 C 96.093 19.907 97.339 22.648 98.772 26 C 100.205 29.353 101.468 32.15 101.579 32.216 C 101.689 32.282 104.592 32.513 108.029 32.728 C 111.467 32.944 114.39 33.217 114.524 33.335 C 114.659 33.454 112.585 35.48 109.915 37.838 C 107.245 40.196 105.061 42.252 105.061 42.406 C 105.061 42.731 109.388 54.022 109.589 54.224 C 109.663 54.298 110.436 53.718 111.307 52.935 C 115.806 48.89 121.843 46.011 128.8 44.593 C 133.569 43.621 133.436 43.517 131.497 46.701 C 128.786 51.151 124.748 59.623 124.748 60.861 C 124.748 61.034 125.608 60.593 126.659 59.879 C 129.387 58.026 132.924 56.333 135.997 55.41 C 138.678 54.604 142.916 53.824 143.52 54.026 C 143.7 54.086 143.143 55.066 142.281 56.205 C 139.564 59.794 136.674 64.41 134.386 68.816 C 133.17 71.159 131.979 73.151 131.74 73.242 C 131.501 73.334 129.632 72.686 127.586 71.802 C 121.043 68.975 115.737 67.383 108.584 66.099 C 105.058 65.466 103.588 65.383 95.998 65.383 C 88.409 65.383 86.939 65.466 83.413 66.099 C 76.253 67.384 70.288 69.186 64.066 71.945 C 60.661 73.455 60.297 73.541 59.831 72.95 Z M 89.28 57.727 C 93.018 57.304 100.145 57.353 103.746 57.827 C 106.575 58.199 106.936 58.183 106.936 57.684 C 106.936 57.29 96.508 49.457 95.998 49.468 C 95.47 49.48 85.061 57.292 85.061 57.677 C 85.061 58.118 85.473 58.351 85.976 58.196 C 86.246 58.113 87.733 57.902 89.28 57.727 Z"
        fill="#000000"
        stroke-width="12"/>
</svg>
