<svg xmlns="http://www.w3.org/2000/svg" width="24" height="24" fill="none" viewBox="0 0 24 24"><path fill="#000" d="M2.49 21.931c-.012-.034.109-.44.27-.901l.494-1.43c.11-.323.235-.676.275-.784.041-.108.184-.514.317-.903s.302-.874.373-1.08a1926.813 1926.813 0 0 0 1.88-5.395c.165-.475.325-.93.357-1.012.067-.173.068-.185.023-.185-.02 0-.65.38-1.402.844-1.271.784-1.522.922-1.44.794a91.39 91.39 0 0 1 1.423-1.462l1.96-1.991.569-.579-.194-.186-1.746-1.698c-.853-.83-2.024-1.967-2.6-2.525C2.403 2.813 2 2.394 2 2.348c0-.081.041-.095.102-.035.04.04.413.175 2.115.766 1.168.405 3.342 1.163 6.083 2.119l3.385 1.178c.107.036.04-.09-.598-1.12-.167-.269-.411-.666-.543-.882a36.846 36.846 0 0 0-.39-.627c-.083-.13-.132-.241-.11-.249.024-.008.973.905 2.111 2.027l2.07 2.041.157-.144c.087-.08.52-.518.963-.976 2.744-2.837 4.246-4.36 4.315-4.38.129-.033.133-.05-.273 1.11a1446.932 1446.932 0 0 0-1.197 3.435 4241.667 4241.667 0 0 0-1.177 3.375l-1.085 3.113c-.107.31-.19.578-.183.597.007.02.135-.041.286-.134l.942-.581c1.45-.894 1.645-1.01 1.662-.994.022.023-.393.454-2.406 2.502-.864.88-1.571 1.616-1.571 1.634 0 .02.309.331.687.693a478.15 478.15 0 0 1 2.217 2.154c.841.821 1.721 1.68 1.955 1.906.469.454.535.54.453.593-.067.042.018.068-1.486-.456a1147.035 1147.035 0 0 0-3.1-1.08 1757.884 1757.884 0 0 0-3.375-1.176c-.443-.155-1.202-.42-1.688-.588a348.09 348.09 0 0 1-1.39-.487c-.28-.099-.516-.172-.525-.162-.01.01.043.12.119.245.312.517.789 1.295.872 1.423.218.338.728 1.173.728 1.194 0 .087-.229-.122-1.404-1.282-3.008-2.965-2.754-2.727-2.819-2.64-.032.044-.945.988-2.028 2.1-3.262 3.343-3.357 3.438-3.383 3.37zm15.326-3.572c0-.055-.073-.174-.569-.936-.218-.335-.463-.719-.544-.853s-.166-.256-.189-.27c-.023-.014-.282.215-.577.51-.476.475-.681.635-.622.485.244-.616.656-1.716.656-1.752 0-.017-.084-.033-.186-.036-.103-.003-.646-.04-1.207-.084l-1.805-.137c-1.282-.096-1.84-.145-1.913-.165-.16-.045-.04.086.402.437.259.206.47.39.47.408 0 .02-.241.131-.537.25-.296.118-.544.232-.55.253-.008.022.115.07.272.107.157.037.4.1.541.138.323.09.565.154 2.296.612 1.42.376 2.992.796 3.65.976.421.114.412.113.412.057zM6.643 17.063a79.772 79.772 0 0 0 1.1-.712l.112-.077-.561-.563c-.309-.309-.55-.573-.537-.586.014-.014.39.11.835.276.446.165.836.291.866.28.035-.014.057-.08.058-.17.001-.082.017-.325.036-.541.019-.216.062-.764.097-1.217.15-1.97.221-2.835.242-2.973.014-.09.007-.147-.018-.147-.022 0-.21.212-.416.471s-.39.471-.409.471c-.019 0-.13-.243-.246-.54-.117-.296-.23-.536-.25-.532-.021.004-.052.056-.068.117a614.776 614.776 0 0 0-.768 2.898l-.773 2.904c-.185.698-.225.844-.276 1.018-.062.21-.068.257-.035.257a30 30 0 0 0 1.01-.634zm3.442-1.054c.172-.086.313-.173.313-.192 0-.051-.937-.836-.98-.82-.085.029-.787.752-.759.78.046.044.96.383 1.043.387.039.002.21-.068.383-.155zm5.944-.617c.127-.318.334-.934.334-.993 0-.09-.263-.654-.322-.69-.024-.015-.08.024-.125.086-.045.063-.22.278-.39.479-.168.2-.3.381-.294.401.02.055.709.785.741.785.016 0 .041-.03.056-.068zm-5.047-1.07c.359-.02 1.268-.067 2.021-.102.753-.035 1.415-.077 1.472-.092.056-.015.103-.053.103-.083 0-.28-.224-4.488-.24-4.506-.012-.014-2.027.074-3.783.165l-.883.047.01.45c.004.249.026.805.047 1.237l.08 1.609c.022.453.05.934.062 1.07l.023.244h.217c.12 0 .512-.017.87-.038zm5.745-.932a1311.379 1311.379 0 0 0 1.42-5.327c.524-1.972.487-1.807.4-1.774a79.137 79.137 0 0 0-2.021 1.294l-.171.117.522.523c.287.288.512.534.499.547-.021.021-.784-.244-1.302-.453-.29-.117-.33-.107-.353.09-.02.173-.105 1.288-.202 2.658-.03.442-.074.999-.095 1.236-.076.844-.085 1.048-.048 1.034.02-.008.193-.217.382-.465.356-.467.412-.526.452-.479.035.04.295.705.352.901.05.172.13.22.165.098zM8.631 9.77l.397-.472-.381-.393c-.225-.231-.396-.378-.417-.358-.029.029-.303.735-.369.948-.021.07.283.746.336.746.02 0 .216-.212.434-.472zm6.59-1.175c.22-.203.393-.387.386-.407-.012-.037-.548-.255-.97-.395l-.216-.072-.344.164c-.189.09-.343.179-.343.198 0 .04 1.028.9 1.065.89.013-.005.203-.174.422-.378zm-1.881.145c0-.027-.213-.215-.47-.417s-.47-.381-.47-.398c0-.03.259-.137.853-.353.135-.049.245-.105.245-.124 0-.045-.147-.1-.51-.19a41.805 41.805 0 0 1-.745-.192 880.463 880.463 0 0 0-2.963-.789c-.47-.126-.63-.169-1.55-.41a48.164 48.164 0 0 1-1.094-.299c-.29-.089-.32-.091-.32-.03 0 .025.175.312.387.638s.525.81.693 1.076l.306.484.578-.577c.318-.317.588-.56.601-.538.022.035-.124.465-.436 1.285a8.93 8.93 0 0 0-.143.394c-.022.077.005.082.89.146a269 269 0 0 1 1.638.125l1.53.121c.442.035.812.071.82.08.039.038.161.013.16-.032z"/></svg>