<svg
    xmlns="http://www.w3.org/2000/svg"
    viewBox="0 0 192 192"
    id="vector">
    <g id="group">
        <path
            id="path_6"
            d="M 20.096 174.664 C 17.824 173.4 16 169.481 16 165.861 C 16 160.546 27.25 148.163 76.634 99.114 L 137.268 38.891 L 104.196 37.687 C 74.299 36.597 70.807 36.008 67.836 31.551 C 65.035 27.35 65.103 25.834 68.291 21.31 C 71.934 16.139 73.297 16 120.207 16 C 160.769 16 168.983 16.598 172.19 19.787 C 175.398 22.975 176 31.139 176 71.457 C 176 118.083 175.86 119.438 170.658 123.059 C 166.105 126.229 164.583 126.296 160.355 123.509 C 155.814 120.516 155.337 117.413 154.716 86.883 L 154.038 53.527 L 92.898 113.964 C 59.271 147.204 30.055 174.972 27.975 175.671 C 25.894 176.37 22.349 175.917 20.096 174.664 Z"
            fill="#000000"
            stroke-width="12"/>
    </g>
</svg>
