<svg xmlns="http://www.w3.org/2000/svg" viewBox="0 0 192 192"><path d="M20.096 174.664C17.824 173.4 16 169.481 16 165.861c0-5.315 11.25-17.698 60.634-66.747l60.634-60.223-33.072-1.204c-29.897-1.09-33.389-1.679-36.36-6.136-2.801-4.201-2.733-5.717.455-10.241 3.643-5.171 5.006-5.31 51.916-5.31 40.562 0 48.776.598 51.983 3.787 3.208 3.188 3.81 11.352 3.81 51.67 0 46.626-.14 47.981-5.342 51.602-4.553 3.17-6.075 3.237-10.303.45-4.541-2.993-5.018-6.096-5.639-36.626l-.678-33.356-61.14 60.437c-33.627 33.24-62.843 61.008-64.923 61.707-2.081.699-5.626.246-7.879-1.007Z"/></svg>