<svg xmlns="http://www.w3.org/2000/svg" width="24" height="24" fill="none" viewBox="0 0 24 24"><path fill="#000" d="M3.95 21.884c-.054-.146.088-1.52.164-1.597.03-.03.202.017.382.103.314.15.324.17.246.517-.048.211-.044.431.009.53.069.13.031.214-.164.368-.286.224-.571.26-.638.079zM14.44 4.973a52.377 52.377 0 0 0-1.527-.871c-.526-.277-.525-.27-.036-1.088.736-1.228 2.23-1.364 3.093-.281.22.275.298.489.332.9.04.48.004.618-.319 1.255-.2.394-.39.715-.422.713-.033-.001-.537-.284-1.12-.628zm1.206-1.106c.298-.298.288-.699-.025-1.037-.269-.29-.69-.281-.992.02-.29.29-.302.62-.037.956a.726.726 0 0 0 1.054.062zm-9.865 14.71c-.426-.426-.4-.67.177-1.69.777-1.374.639-1.289 1.51-.923.41.171.768.335.797.364.07.07-1.177 2.22-1.375 2.372-.273.21-.838.148-1.109-.123zm1.954-4.756c0-.017.178-.336.395-.708l.395-.676.226.212c.275.258.954.354 1.409.199.29-.1.44-.314 1.386-1.983.893-1.576 1.1-1.877 1.302-1.902.211-.027.242-.08.248-.417.003-.212.078-.516.165-.675.31-.564.297-.557.682-.374.194.093.352.2.352.237 0 .037-.666 1.234-1.481 2.66-1.329 2.322-1.354 2.529-1.593 2.557-.146.017-.469.05-.526-.008-.198-.197-.352-.102-.633.39l-.281.492-1.023.014c-.563.007-1.023 0-1.023-.018zm.064-1.74c-.04-.124.012-.256.162-.517.13-.227.705-1.216 1.276-2.198a300.98 300.98 0 0 0 1.475-2.556c.239-.425.45-.792.47-.816.047-.06.702.299.702.385 0 .215-.522.961-.672.961-.258 0-.414.246-.351.551.045.221-.159.643-1.136 2.344-1.176 2.047-1.2 2.202-1.482 2.13-.267-.07-.395-.127-.444-.284zm-.534 7.265c-.113-.144-.205-.349-.205-.455 0-.146 1.113-2.243 1.31-2.47.078-.088.76.276.732.39-.032.127-1.412 2.596-1.537 2.742-.038.044-.187-.064-.3-.207zm-2.86-1.493c-.067-.045.491-.928 1.393-2.506 2.027-3.548 1.819-3.232 2.013-3.058a.87.87 0 0 0 .378.18c.205.032.199.055-.185.725-.313.546-.476.727-.773.861-.502.227-.846.65-.846 1.04 0 .171.05.361.11.422.157.157-1.03 2.23-1.345 2.35-.272.104-.605.082-.746-.014zm5.614-3.924c-.2-.052-.178-.143.177-.705.243-.385.262-.395.436-.237a.438.438 0 0 0 .429.103l.246-.062-.266.483c-.275.498-.445.568-1.022.418zm-5.23 7.468a1.298 1.298 0 0 1 .021-.532l.08-.302.314.246c.346.272.34.322-.074.617l-.283.202zm11.723-2.89c-.722-.493-1.153-.646-1.83-.65-.807-.006-3.235-.257-3.642-.377-.172-.05-.671-.27-1.11-.487a50.867 50.867 0 0 0-2.098-.948l-1.303-.554-.03-.363c-.025-.298.023-.415.268-.66.188-.188.36-.28.464-.247.357.11 2.722 1.166 3.591 1.602 1.068.536 1.543.64 3.57.781 2.04.142 2.012.135 2.844.678l.737.482-.22.263c-.12.145-.352.379-.515.52l-.295.256zM4.84 15.349c-.106-.106-.193-.234-.193-.284 0-.05.244-.43.543-.844.298-.414.907-1.498 1.353-2.408.447-.91.865-1.7.93-1.754.066-.054.409-.137.763-.185l.643-.086-.134.26c-.074.142-.746 1.317-1.494 2.611-1.634 2.829-1.936 3.165-2.411 2.69zm8.998-1.82c-.019-.49-.498-1.308-1.056-1.807l-.443-.395.409-.688c.347-.585.435-.675.581-.596.43.23 1.12 1.358 1.347 2.203.146.541.008.97-.439 1.362a3.621 3.621 0 0 1-.36.294c-.013 0-.03-.168-.039-.372zm3.37 3.65c-.78-.52-.75-.513-2.977-.666-1.91-.132-2.314-.224-3.41-.778a33.109 33.109 0 0 0-1.833-.844 24.01 24.01 0 0 1-1.302-.58c-.346-.18-.366-.209-.193-.28.36-.15 2.368-.084 3.174.104 1.06.248 2.702.156 3.237-.182.995-.628 1.128-1.32.502-2.613-.235-.485-.52-.901-.777-1.133l-.406-.366.554-.954c.442-.76.585-.937.705-.872.272.148 1.572 1.484 2.146 2.204.31.39.863 1.13 1.23 1.647.568.802.778 1.013 1.434 1.444l.77.505-.143.454-.216.695c-.223.72-1.457 2.707-1.673 2.693-.065-.004-.434-.219-.822-.477zM4.65 14.583c0-1.08 1.109-4.203 1.974-5.554.47-.737 1.221-1.06 3.107-1.339l.403-.06-.602 1.038-.602 1.037-.684.08c-.847.1-.928.18-1.516 1.493a25.961 25.961 0 0 1-.75 1.543c-.316.572-1.231 1.949-1.295 1.949-.02 0-.036-.084-.036-.187zm4.546-1.833a1.414 1.414 0 0 1-.446-.24c-.164-.148-.117-.252 1.019-2.216.655-1.134 1.228-2.1 1.273-2.145.069-.07.851.31 1.42.687.1.067-.108.494-.951 1.952-.594 1.027-1.146 1.886-1.227 1.91-.371.107-.839.13-1.088.052zm2.933-4.957-.68-.392.292-.508c.182-.316.332-.48.394-.432.056.042.393.235.749.43l.646.355-.256.47c-.141.258-.303.469-.36.468-.058 0-.41-.176-.785-.391zm-.518-1.725c-.622-.36-.785-.642-.566-.978.136-.207.647-.418.647-.268 0 .033.24.188.531.345.292.158.53.303.53.324 0 .02-.108.123-.24.227-.14.11-.242.29-.242.424 0 .293-.03.29-.66-.074zm2.378.082c-1.117-.643-1.277-.85-.993-1.284.085-.13.216-.26.292-.29.183-.07 2.236 1.09 2.416 1.365.248.38-.048.84-.522.812-.089-.005-.625-.276-1.192-.603zM5.291 20.716l-.37-.317.122-.617c.137-.698.46-1.131.743-.995.09.043.393.08.671.08.409.002.507.034.507.164 0 .089.11.291.243.45l.243.29-.315.215a3.2 3.2 0 0 0-.412.323c-.132.148-.942.732-1.008.727-.03-.001-.22-.146-.424-.32zM13.54 7.158c-1.272-.721-1.333-.78-1.18-1.15.228-.55.424-.532 1.596.15 1.058.614 1.306.815 1.306 1.057 0 .183-.358.512-.555.51-.093 0-.618-.256-1.167-.567zm-1.35-2.055c-.725-.42-.879-.979-.337-1.226.21-.096.33-.063.913.252.369.2.614.38.546.4a.666.666 0 0 0-.463.608c0 .15-.033.272-.072.269-.04-.003-.304-.14-.587-.303zm-7.807 15.14c-.363-.115-.369-.157-.207-1.417L4.282 18l.57-.008c.462-.006.568.022.568.149 0 .086.064.246.14.357.13.184.122.21-.092.307-.216.098-.436.624-.548 1.312-.038.23-.14.255-.537.128zm7.514-11.791c-.844-.496-1.024-.66-.946-.864.092-.239.273-.187 1.216.353.702.402.877.545.855.7-.045.312-.361.26-1.125-.19zm1.041 3.446-.234-.265.266.234c.248.218.31.297.233.297-.017 0-.136-.12-.265-.266zm1.701-8.15c-.308-.44-.04-1.04.466-1.04.537 0 .882.7.546 1.105-.196.236-.83.196-1.012-.064z"/></svg>