<svg xmlns="http://www.w3.org/2000/svg" viewBox="0 0 192 192"><path d="M27.31 128.112c-9.998-.844-9.75-.628-9.75-8.453v-7.094l3.961.669c6.649 1.122 21.446 1.813 24.658 1.152 3.925-.809 5.231-4.764 2.642-8.006-1.315-1.647-4.694-3.102-10.798-4.649C21.102 97.442 15.971 92.819 16 81.889c.022-8.526 3.113-13.068 11.084-16.288 4.962-2.005 7.468-2.298 19.117-2.234 7.374.04 14.986.401 16.917.801l3.511.728-.609 6.983c-.335 3.842-.862 7.192-1.171 7.446-.309.253-3.05-.235-6.092-1.085-3.479-.973-8.638-1.435-13.917-1.247-8.039.286-8.404.408-8.76 2.923-.519 3.674 2.235 5.502 11.814 7.843 9.169 2.24 15.122 5.157 18.764 9.191 3.128 3.465 4.183 14.761 1.893 20.245-3.873 9.271-17.62 12.91-41.241 10.917Zm53.993-2.092c-4.245-2.738-5.242-6.501-5.242-19.793V93.792h-3.047c-2.911 0-3.047-.267-3.047-6s.136-6 3.047-6c2.912 0 3.047-.267 3.047-6v-6h19.5v12h13.407v12H95.561v10.531c0 11.927.52 12.569 8.718 10.774l4.689-1.027v13.722l-12.493-.022c-9.961-.018-13.035-.373-15.172-1.75Zm32.54-30.186V63.792l9.445.008 9.446.008 2.559 3.742c1.408 2.058 6.618 9.512 11.578 16.564l9.019 12.822.334-16.572.335-16.572H176v64h-19.21l-9.121-12.75c-5.016-7.013-10.154-14.242-11.418-16.065l-2.299-3.315-.609 15.815-.609 15.815-9.446.292-9.445.292Z"/></svg>