<svg xmlns="http://www.w3.org/2000/svg" viewBox="0 0 192 192"><path stroke="#000" stroke-width="2" d="M82.185 175.234c-30.475-5.782-53.119-25.903-63.027-56.004-4.17-12.669-4.196-34.066-.056-46.425 9.251-27.617 26.241-44.598 53.743-53.712 12.441-4.124 33.895-4.124 46.337 0 27.358 9.067 44.707 26.392 53.694 53.623 4.138 12.535 4.149 33.961.024 46.406-8.942 26.98-26.518 44.702-53.028 53.468-9.139 3.021-28.528 4.381-37.687 2.644Zm30.626-4.446c9.215-1.952 24.688-8.808 24.688-10.938 0-.707-1.621-3.347-3.603-5.867-6.059-7.702-11.765-18.715-10.2-19.683.77-.475 1.537-.666 1.705-.424.168.242 2.623 4.4 5.454 9.24 2.832 4.84 6.502 10.064 8.155 11.608l3.007 2.807 5.805-5.321c6.613-6.062 8.956-11.876 11.222-27.842 1.567-11.037 1.347-11.97-5.789-24.604-3.64-6.446-4.067-11.528-1.208-14.387 3.544-3.544 7.374-2.306 14.305 4.624l6.601 6.601-.87-8.623c-1.671-16.565-9.271-32.83-20.917-44.769-6.84-7.012-9.895-9.048-9.895-6.594 0 2.076-7.524 5.299-12.369 5.299-6.011 0-11.569 1.87-13.636 4.587-1.937 2.545-.475 6.384 5.317 13.971 3.515 4.603 4.386 6.797 4.091 10.302-.359 4.271-.851 4.688-11.912 10.112-6.346 3.112-12.711 6.735-14.143 8.052-6.692 6.152.387 21.101 12.855 27.149 6.926 3.359 11.821 9.717 10.378 13.479-.646 1.684-1.469 1.033-3.948-3.125-2.212-3.709-4.829-6.003-8.911-7.808-6.686-2.958-9.539-5.894-13.733-14.133-6.196-12.173-2.558-18.67 14.594-26.061 13.254-5.713 14.151-7.052 9.342-13.953-7.327-10.512-8.084-11.935-8.09-15.204-.013-6.146 3.427-8.537 14.883-10.346 9.883-1.561 13.302-3.349 12.334-6.45-.741-2.376-16.614-9.445-25.372-11.3-26.195-5.549-51.569 1.668-70.238 19.976l-8.929 8.756 14.793 1.52c20.384 2.093 23.196 2.745 25.4 5.892 1.057 1.509 1.922 4.626 1.922 6.927 0 4.704-3.109 11.6-5.23 11.6-2.956 0-25.003 11.269-25.725 13.149-1.089 2.839 1.919 9.343 5.365 11.601 1.617 1.059 7.245 2.409 12.508 2.999 5.263.59 10.359 1.729 11.325 2.531 4.111 3.411.651 12.771-8.327 22.521-9.783 10.626-11.481 14.027-11.702 23.449l-.2 8.545 8.248 4.149c14.803 7.448 33.384 9.644 50.65 5.986Zm-38.078-19.041c-1.433-1.822-2.606-4.669-2.606-6.326 0-6.95 6.686-16.762 11.421-16.762 4.064 0 8.694 5.56 8.694 10.441 0 13.129-10.923 21.019-17.509 12.647Zm12.062-5.169c1.429-3.42 1.67-5.915.879-9.114-1.435-5.804-5.039-5.858-8.897-.133-4.842 7.186-3.342 13.957 3.095 13.957 2.226 0 3.441-1.162 4.923-4.71Zm-36.312 3.767c-.163-7.459 2.406-12.549 11.261-22.315 7.897-8.708 10.696-13.501 10.145-17.371-.351-2.465-1.367-2.822-10.03-3.527-11.37-.924-15.816-3.489-19.251-11.107-3.577-7.932-1.539-10.486 14.433-18.086 7.261-3.455 13.616-6.892 14.124-7.638.508-.746.932-3.507.943-6.135.017-4.22-.463-4.98-4.107-6.503-2.27-.948-11.527-2.126-20.572-2.618l-16.446-.894-3.153 6.768c-6.589 14.144-7.857 19.804-7.857 35.054 0 16.088 1.492 22.117 9.114 36.812 4.232 8.16 17.429 23.532 20.202 23.532.76 0 1.268-2.546 1.194-5.972Zm114.899-21.404c2.833-6.286 5.731-16.133 6.558-22.282.633-4.713.249-5.49-6.111-12.366-4.497-4.863-7.557-7.181-9.072-6.873-3.727.759-2.712 8.575 2.086 16.051 4.022 6.269 4.088 6.603 3.576 18.301-.287 6.554-.212 11.901.166 11.883.377-.018 1.636-2.139 2.797-4.714Z"/></svg>