<svg
    xmlns="http://www.w3.org/2000/svg"
    viewBox="0 0 192 192"
    id="vector">
    <path
        id="path"
        d="M 82.185 175.234 C 51.71 169.452 29.066 149.331 19.158 119.23 C 14.988 106.561 14.962 85.164 19.102 72.805 C 28.353 45.188 45.343 28.207 72.845 19.093 C 85.286 14.969 106.74 14.969 119.182 19.093 C 146.54 28.16 163.889 45.485 172.876 72.716 C 177.014 85.251 177.025 106.677 172.9 119.122 C 163.958 146.102 146.382 163.824 119.872 172.59 C 110.733 175.611 91.344 176.971 82.185 175.234 Z M 112.811 170.788 C 122.026 168.836 137.499 161.98 137.499 159.85 C 137.499 159.143 135.878 156.503 133.896 153.983 C 127.837 146.281 122.131 135.268 123.696 134.3 C 124.466 133.825 125.233 133.634 125.401 133.876 C 125.569 134.118 128.024 138.276 130.855 143.116 C 133.687 147.956 137.357 153.18 139.01 154.724 L 142.017 157.531 L 147.822 152.21 C 154.435 146.148 156.778 140.334 159.044 124.368 C 160.611 113.331 160.391 112.398 153.255 99.764 C 149.615 93.318 149.188 88.236 152.047 85.377 C 155.591 81.833 159.421 83.071 166.352 90.001 L 172.953 96.602 L 172.083 87.979 C 170.412 71.414 162.812 55.149 151.166 43.21 C 144.326 36.198 141.271 34.162 141.271 36.616 C 141.271 38.692 133.747 41.915 128.902 41.915 C 122.891 41.915 117.333 43.785 115.266 46.502 C 113.329 49.047 114.791 52.886 120.583 60.473 C 124.098 65.076 124.969 67.27 124.674 70.775 C 124.315 75.046 123.823 75.463 112.762 80.887 C 106.416 83.999 100.051 87.622 98.619 88.939 C 91.927 95.091 99.006 110.04 111.474 116.088 C 118.4 119.447 123.295 125.805 121.852 129.567 C 121.206 131.251 120.383 130.6 117.904 126.442 C 115.692 122.733 113.075 120.439 108.993 118.634 C 102.307 115.676 99.454 112.74 95.26 104.501 C 89.064 92.328 92.702 85.831 109.854 78.44 C 123.108 72.727 124.005 71.388 119.196 64.487 C 111.869 53.975 111.112 52.552 111.106 49.283 C 111.093 43.137 114.533 40.746 125.989 38.937 C 135.872 37.376 139.291 35.588 138.323 32.487 C 137.582 30.111 121.709 23.042 112.951 21.187 C 86.756 15.638 61.382 22.855 42.713 41.163 L 33.784 49.919 L 48.577 51.439 C 68.961 53.532 71.773 54.184 73.977 57.331 C 75.034 58.84 75.899 61.957 75.899 64.258 C 75.899 68.962 72.79 75.858 70.669 75.858 C 67.713 75.858 45.666 87.127 44.944 89.007 C 43.855 91.846 46.863 98.35 50.309 100.608 C 51.926 101.667 57.554 103.017 62.817 103.607 C 68.08 104.197 73.176 105.336 74.142 106.138 C 78.253 109.549 74.793 118.909 65.815 128.659 C 56.032 139.285 54.334 142.686 54.113 152.108 L 53.913 160.653 L 62.161 164.802 C 76.964 172.25 95.545 174.446 112.811 170.788 Z M 74.733 151.747 C 73.3 149.925 72.127 147.078 72.127 145.421 C 72.127 138.471 78.813 128.659 83.548 128.659 C 87.612 128.659 92.242 134.219 92.242 139.1 C 92.242 152.229 81.319 160.119 74.733 151.747 Z M 86.795 146.578 C 88.224 143.158 88.465 140.663 87.674 137.464 C 86.239 131.66 82.635 131.606 78.777 137.331 C 73.935 144.517 75.435 151.288 81.872 151.288 C 84.098 151.288 85.313 150.126 86.795 146.578 Z M 50.483 150.345 C 50.32 142.886 52.889 137.796 61.744 128.03 C 69.641 119.322 72.44 114.529 71.889 110.659 C 71.538 108.194 70.522 107.837 61.859 107.132 C 50.489 106.208 46.043 103.643 42.608 96.025 C 39.031 88.093 41.069 85.539 57.041 77.939 C 64.302 74.484 70.657 71.047 71.165 70.301 C 71.673 69.555 72.097 66.794 72.108 64.166 C 72.125 59.946 71.645 59.186 68.001 57.663 C 65.731 56.715 56.474 55.537 47.429 55.045 L 30.983 54.151 L 27.83 60.919 C 21.241 75.063 19.973 80.723 19.973 95.973 C 19.973 112.061 21.465 118.09 29.087 132.785 C 33.319 140.945 46.516 156.317 49.289 156.317 C 50.049 156.317 50.557 153.771 50.483 150.345 Z M 165.382 128.941 C 168.215 122.655 171.113 112.808 171.94 106.659 C 172.573 101.946 172.189 101.169 165.829 94.293 C 161.332 89.43 158.272 87.112 156.757 87.42 C 153.03 88.179 154.045 95.995 158.843 103.471 C 162.865 109.74 162.931 110.074 162.419 121.772 C 162.132 128.326 162.207 133.673 162.585 133.655 C 162.962 133.637 164.221 131.516 165.382 128.941 Z"
        fill="#000000"
        stroke="#000000"
        stroke-width="2"/>
</svg>
