<svg width="24" height="24" fill="none" viewBox="0 0 24 24" xmlns="http://www.w3.org/2000/svg"><path d="M9.86 21.825c-.381-.082-.997-.26-1.368-.399l-.725-.268c-.028-.01-.438.116-.912.28-3.495 1.214-5.478-.756-4.302-4.274.324-.97.37-.993.695-.353.134.264.454.764.71 1.111.362.49.467.719.467 1.016 0 .491.143.626.662.626 2.625 0 9.28-5.28 12.295-9.755 2.258-3.35 2.87-5.403 1.611-5.403-.296 0-.52-.106-1.018-.48a10.343 10.343 0 0 0-1.12-.733c-.623-.327-.618-.338.305-.657 3.554-1.229 5.577.821 4.3 4.358l-.333.922.213.54c.622 1.574.849 4.204.486 5.65l-.139.556-.826.068c-1.12.093-1.96.345-2.647.792-.747.488-2.042 1.828-2.042 2.115 0 .294.44.714.748.714.296 0 .67.426.67.764 0 .323.476.68.798.6 1.007-.253-1.61 1.375-2.992 1.86-1.503.527-3.979.684-5.537.35zm-.495-1.155c.238-.103.694-.388 1.013-.633.64-.493 1.08-.675 1.636-.675.93 0 1.64-.704 1.673-1.66l.019-.535 2.621-2.768c1.442-1.522 3.02-3.154 3.505-3.627.987-.96 1.194-1.296 1.274-2.076.104-.998-.033-.985-.611.06-1.283 2.315-2.37 3.604-6.31 7.48-2.245 2.207-4.213 3.723-5.684 4.38-.237.105-.43.234-.43.286 0 .133.77-.005 1.294-.232zm1.39-5.444c-1.47-.108-1.847-.508-2.127-2.26-.08-.493-1.19-1.692-1.92-2.074-1.918-1-4.302.374-4.492 2.59-.09 1.037-.208.223-.216-1.476-.02-4.6 2.907-8.503 7.286-9.716.843-.234 2.366-.396 1.927-.206-.843.366-1.32 1.076-1.32 1.968 0 .806.217 1.146 1.596 2.501l1.208 1.188h.509c.413 0 .58-.057.893-.306.7-.555 1.368-.536 1.977.058.886.863 1.238 2.257.712 2.816-.277.294-.413.331-.413.113 0-.264-.615-.857-1.012-.975-1.53-.458-2.64 1.405-1.51 2.533.296.295.464.369.983.432.386.046-2.566 2.915-2.976 2.89-.162-.008-.66-.043-1.106-.076zm-5.028-5.62c.932-.781.411-2.169-.814-2.169-.443 0-.553.045-.853.344-1.097 1.095.48 2.823 1.667 1.826z" fill="#000"/></svg>