<svg xmlns="http://www.w3.org/2000/svg" viewBox="0 0 192 192"><path fill="none" stroke="#000" stroke-linecap="round" stroke-linejoin="round" stroke-width="12" d="M96 16.5a79.529 79.529 0 0 0-56.215 23.285A79.529 79.529 0 0 0 16.5 96a79.529 79.529 0 0 0 23.285 56.215A79.529 79.529 0 0 0 96 175.5a79.529 79.529 0 0 0 56.215-23.285A79.529 79.529 0 0 0 175.5 96a79.529 79.529 0 0 0-23.285-56.215A79.529 79.529 0 0 0 96 16.5Z"/><path fill="none" stroke="#000" stroke-linecap="round" stroke-linejoin="round" stroke-width="12" d="M103.199 81.061a16.783 16.783 0 0 1 7.765 7.737l39.572-10.394a57.435 57.435 0 0 0-14.025-22.912 57.435 57.435 0 0 0-22.912-14.025Zm-22.138 7.74a16.783 16.783 0 0 1 7.737-7.765l-10.396-39.57a57.422 57.422 0 0 0-36.936 36.936Zm29.879 14.398a16.777 16.777 0 0 1-7.736 7.765l10.394 39.572a57.422 57.422 0 0 0 36.936-36.937Zm-22.144 7.764a16.777 16.777 0 0 1-7.736-7.765l-39.594 10.4a57.422 57.422 0 0 0 36.936 36.936Z"/><path fill="none" stroke="#000" stroke-linecap="round" stroke-linejoin="round" stroke-width="12" d="M96 79.36a16.641 16.641 0 0 0-9.78 30.102 16.641 16.641 0 0 0 19.56 0 16.643 16.643 0 0 0 6.045-18.604A16.643 16.643 0 0 0 96 79.36Z"/></svg>