<svg
    xmlns="http://www.w3.org/2000/svg"
    viewBox="0 0 192 192"
    id="vector">
    <g id="group">
        <path
            id="path_2"
            d="M 16 101.487 L 16 26.974 L 28.571 26.974 L 28.571 161.995 L 45.429 162.972 C 54.7 163.51 64.857 164.64 68 165.483 C 74.898 167.334 86.857 173.283 86.857 174.863 C 86.857 175.489 70.914 176 51.429 176 L 16 176 Z M 106.725 173.757 C 111.96 168.536 125.04 164.925 144.571 163.308 L 164 161.7 L 164 27.727 L 170 27.272 L 176 26.817 L 176 176 L 140.286 175.952 C 109.109 175.91 104.845 175.631 106.725 173.757 Z M 84.892 167.664 C 74.335 161.166 61.286 157.936 45.588 157.936 L 33.143 157.936 L 33.143 16.437 L 44.537 16.437 C 60.926 16.437 79.258 20.296 86.286 25.225 L 92 29.232 L 92.571 101.111 C 92.886 140.645 93.143 172.935 93.143 172.866 C 93.143 172.798 89.43 170.457 84.892 167.664 Z M 99.429 102.034 L 99.429 30.709 L 102 28.557 C 111.581 20.536 126.77 16.462 147.143 16.446 L 158.857 16.437 L 158.857 157.936 L 146.571 157.937 C 139.814 157.937 130.396 158.917 125.643 160.115 C 117.699 162.117 104.284 168.514 100.857 171.933 C 99.719 173.068 99.429 158.85 99.429 102.034 Z"
            fill="#000000"
            stroke-width="12"/>
    </g>
</svg>
