<svg xmlns="http://www.w3.org/2000/svg" viewBox="0 0 192 192"><path d="M16 101.487V26.974h12.571v135.021l16.858.977c9.271.538 19.428 1.668 22.571 2.511 6.898 1.851 18.857 7.8 18.857 9.38 0 .626-15.943 1.137-35.428 1.137H16Zm90.725 72.27c5.235-5.221 18.315-8.832 37.846-10.449L164 161.7V27.727l6-.455 6-.455V176l-35.714-.048c-31.177-.042-35.441-.321-33.561-2.195Zm-21.833-6.093c-10.557-6.498-23.606-9.728-39.304-9.728H33.143V16.437h11.394c16.389 0 34.721 3.859 41.749 8.788L92 29.232l.571 71.879.572 71.755c0-.068-3.713-2.409-8.251-5.202Zm14.537-65.63V30.709L102 28.557c9.581-8.021 24.77-12.095 45.143-12.111l11.714-.009v141.499l-12.286.001c-6.757 0-16.175.98-20.928 2.178-7.944 2.002-21.359 8.399-24.786 11.818-1.138 1.135-1.428-13.083-1.428-69.899Z"/></svg>