<svg width="24" height="24" fill="none" viewBox="0 0 24 24" xmlns="http://www.w3.org/2000/svg"><path d="M16.265 2.002 16.195 2H11.56c-3.034.163-4.31 1.92-4.652 2.857-1.33 3.974-2.157 9.121-2.755 12.837l-.034.216-.194 1.766c-.012.279.014.58.09.874.372 1.077 1.496 1.985 3.972 1.08v.002a176.382 176.382 0 0 0 7.959-3.698c1.626-.938 4.009-3.094 4.131-5.817a113.03 113.03 0 0 0-.227-6.198l-.001.001v-.014c-.012-.17-.023-.365-.036-.569a48.203 48.203 0 0 0-.076-1.132 3.925 3.925 0 0 0-.156-.603c-.397-.882-1.174-1.308-1.994-1.512-.374-.064-.834-.076-1.322-.088zm-.177 4.111a.415.415 0 0 0-.415-.415 4.77 4.77 0 0 0-4.77 4.771v1.57a2.564 2.564 0 0 1-2.565 2.564.427.427 0 0 0-.427.428v1.299c0 .229.186.415.415.415a4.77 4.77 0 0 0 4.77-4.771v-1.57a2.564 2.564 0 0 1 2.565-2.565.427.427 0 0 0 .427-.427z" clip-rule="evenodd" fill="#000" fill-rule="evenodd"/></svg>