<svg xmlns="http://www.w3.org/2000/svg" viewBox="0 0 192 192"><path fill="none" stroke="#000" stroke-linecap="round" stroke-linejoin="round" stroke-width="8" d="M24.51 24.44v142.917a8.136 8.136 0 0 0 2.318 5.687 8.17 8.17 0 0 0 5.639 2.456h9.711v-159h-9.711a8.17 8.17 0 0 0-5.569 2.383 8.136 8.136 0 0 0-2.388 5.557Zm59.249 99.064a27.71 27.71 0 0 1-17.25-6.022 27.604 27.604 0 0 1-9.722-15.441 27.553 27.553 0 0 1 2.046-18.121 27.637 27.637 0 0 1 12.922-12.894 27.727 27.727 0 0 1 18.16-2.042 27.68 27.68 0 0 1 15.473 9.702 27.576 27.576 0 0 1 6.036 17.212 27.628 27.628 0 0 1-8.115 19.509 27.741 27.741 0 0 1-19.55 8.097Z"/><path fill="none" stroke="#000" stroke-linecap="round" stroke-linejoin="round" stroke-width="8" d="m96 82.706-16.322 7.777a3.055 3.055 0 0 0-1.346 1.343l-7.753 16.287a.731.731 0 0 0 .652 1.039.703.703 0 0 0 .286-.061l16.322-7.777a3.387 3.387 0 0 0 1.51-1.507l7.794-16.287a.775.775 0 0 0-.449-.936.695.695 0 0 0-.694.122Z"/><path d="M83.759 98.952a3.06 3.06 0 0 1-2.984-2.374 3.055 3.055 0 0 1 3.665-3.657 3.061 3.061 0 0 1 2.379 2.977 3.095 3.095 0 0 1-3.06 3.054Zm50.108 0a3.063 3.063 0 0 1-3.085-2.286 3.047 3.047 0 0 1 1.586-3.493 3.067 3.067 0 0 1 3.757.808c.439.543.679 1.22.68 1.917 0 .81-.323 1.587-.897 2.16a3.064 3.064 0 0 1-2.164.894Z"/><path fill="none" stroke="#000" stroke-linecap="round" stroke-linejoin="round" stroke-width="8" d="M151.821 116.257h4.652a11.073 11.073 0 0 0 7.778-3.232 11.03 11.03 0 0 0 3.239-7.762V86.452a11.028 11.028 0 0 0-3.267-7.709 11.07 11.07 0 0 0-7.75-3.203h-4.652v-51.1a8.137 8.137 0 0 0-2.461-5.627 8.171 8.171 0 0 0-5.7-2.313H42.178v158.796h101.686a8.171 8.171 0 0 0 5.771-2.385 8.135 8.135 0 0 0 2.39-5.758Z"/><path fill="none" stroke="#000" stroke-linecap="round" stroke-linejoin="round" stroke-width="8" d="M133.867 108.113a12.261 12.261 0 0 1-8.656-3.577 12.207 12.207 0 0 1-3.586-8.638c0-3.238 1.291-6.347 3.586-8.637a12.258 12.258 0 0 1 8.656-3.578h17.954v24.43Z"/></svg>