<svg xmlns="http://www.w3.org/2000/svg" viewBox="0 0 192 192"><path fill="none" stroke="#000" stroke-width="12" d="M89.056 175.568c-5.456-1.348-10.415-3.582-14.316-6.449-4.607-3.386-31.802-41.752-33.938-47.878-.768-2.205-1.102-6.629-.741-9.831 2.331-20.686 31.024-30.54 51.195-17.582l4.763 3.06 4.703-3.192c6.502-4.412 13.869-6.154 22.972-5.432 17.77 1.411 30.783 15.331 28.033 29.989-.48 2.557-3.884 9.036-7.566 14.398-24.688 35.958-24.018 35.13-31.408 38.858-6.866 3.464-18.228 5.41-23.697 4.059Zm-8.081-99.921c-8.16-4.067-13.81-10.657-16.305-19.019-2.385-7.997-2.371-11.66.073-18.834 9.041-26.535 46.501-29.456 59.092-4.609 8.47 16.715 1.004 36.487-16.546 43.819-7.443 3.11-18.492 2.54-26.314-1.357Z"/></svg>