<svg
    xmlns="http://www.w3.org/2000/svg"
    viewBox="0 0 192 192"
    id="vector">
    <path
        id="path"
        d="M 81.476 35.122 L 96.029 35.122 C 115.717 35.778 130.188 37.664 142.988 42.872 C 155.788 48.079 171.522 60.216 174.498 72.927 C 177.474 85.639 172.908 100.605 172.46 108.191 C 169.892 91.297 168.873 89.452 162.473 80.472 C 154.902 70.543 145.241 62.421 134.183 56.69 C 122.665 51.006 110.453 46.87 97.863 44.389 C 83.066 41.519 59.464 38.156 49.436 36.926 C 55.306 36.434 67.454 35.368 81.476 35.122 Z M 24.652 44.84 C 29.447 44.872 34.237 45.159 39.001 45.701 C 63.459 48.12 89.996 52.057 112.375 61.61 C 125.938 67.257 138.214 75.629 148.45 86.213 C 160.394 97.571 164.103 113.357 163.329 129.595 C 163.156 132.799 162.706 135.982 161.984 139.108 C 158.682 126.232 150.285 114.505 141.602 104.418 C 127.188 88.64 109.285 76.489 89.344 68.95 C 66.916 58.505 43.456 50.464 19.353 44.963 Z M 119.019 102.778 C 123.859 106.727 128.126 111.336 131.697 116.473 C 123.918 121.153 115.647 124.949 107.035 127.791 C 92.768 133.326 71.367 136.237 55.51 138.041 C 42.54 139.369 29.47 139.369 16.5 138.041 C 28.332 136.368 40.032 133.86 51.515 130.538 C 66.878 126.273 81.986 121.126 96.763 115.12 C 104.742 112.125 112.241 107.966 119.019 102.778 Z M 139.89 129.308 C 143.22 133.52 145.134 138.691 145.352 144.069 C 128.044 152.323 109.15 156.676 89.996 156.821 C 75.356 157.206 60.73 155.634 46.501 152.147 C 61.272 151.746 75.996 150.307 90.567 147.841 C 103.509 145.727 116.075 141.721 127.865 135.95 C 131.989 133.956 136.004 131.738 139.89 129.308 Z"
        fill="none"
        stroke="#000000"
        stroke-width="8"
        stroke-linecap="round"
        stroke-linejoin="round"/>
</svg>
