<svg xmlns="http://www.w3.org/2000/svg" viewBox="0 0 192 192"><path d="M78.857 176q-7.428 0-13.577-3.096-6.137-3.104-8.423-8.304l-10.571-25q-13.715-7.6-22-19Q16 109.2 16 96q0-13.2 8.286-24.6 8.285-11.4 22-19l10.571-25q2.286-5.2 8.423-8.304Q71.429 16 78.857 16h34.286q7.428 0 13.577 3.096 6.137 3.104 8.423 8.304l10.571 25q13.715 7.6 22 19Q176 82.8 176 96q0 13.2-8.286 24.6-8.285 11.4-22 19l-10.571 25q-2.286 5.2-8.423 8.304Q120.571 176 113.143 176ZM96 136q23.714 0 40.434-11.704Q153.143 112.6 153.143 96t-16.709-28.304Q119.714 56 96 56T55.577 67.696Q38.857 79.4 38.857 96q0 16.6 16.72 28.296Q72.286 136 96 136ZM74.286 42Q85.429 39.8 96 39.8q10.571 0 21.714 2.2l-4.571-10H78.857Zm4.571 118h34.286l4.571-10q-11.143 2.2-21.714 2.2-10.571 0-21.714-2.2ZM74.286 32h43.428-43.428Zm4.571 128h-4.571 43.428-4.571z" style="stroke-width:9.56184"/></svg>