<svg width="512" height="512" viewBox="0 0 512 512" xmlns="http://www.w3.org/2000/svg"><path style="fill:#d0d0d0" d="M91.645 458.416c-25.376-6.143-43.506-31.968-39.694-56.54.577-3.715 2.225-10.045 3.663-14.066 5.484-15.33 22.238-47.437 37.12-71.137 8.934-14.228 12.477-14.048 21.933 1.118 18.368 29.46 34.721 62.236 38.861 77.89 3.09 11.685 1.414 26.024-4.298 36.744-4.318 8.106-14.5 17.681-23.23 21.846-11.842 5.649-22.72 6.961-34.355 4.145zm26.809-16.853c7.226-3.196 14.49-10.126 18.117-17.282 2.358-4.653 2.996-7.35 3.273-13.824.418-9.758-1.907-17.49-10.958-36.457-7.472-15.657-24.04-44.988-25.417-44.995-1.935-.01-19.782 31.94-28.435 50.905-2.863 6.275-6.165 15.123-7.338 19.66-1.937 7.492-2.014 8.828-.837 14.527 1.74 8.423 4.993 14.458 10.809 20.05 5.376 5.17 11.415 8.542 17.676 9.872 6.504 1.381 16.941.272 23.11-2.456zM274 441.461c-3.025-.845-7.845-2.953-10.71-4.685-3.394-2.053-29.554-27.565-75.07-73.213-67.946-68.144-69.948-70.261-73.116-77.31-5.565-12.38-5.362-25.486.59-38.077 2.324-4.917 15.134-18.16 95.745-98.976 51.183-51.316 94.491-94.195 96.24-95.287 3.734-2.336 7.603-1.776 9.844 1.424 3.208 4.58 2.143 6.341-13.139 21.746-8.038 8.103-14.35 15.164-14.024 15.69.325.527 2.455 1.207 4.733 1.513 2.278.305 7.127 2.016 10.775 3.801 5.73 2.805 10.487 7.064 34.988 31.33 15.596 15.446 47.35 47.433 70.567 71.083 46.146 47.01 46.367 47.287 48.674 61.258 1.47 8.898.13 17.239-4.214 26.242-2.844 5.894-9.394 12.776-70.26 73.815-36.918 37.024-69.714 69.28-72.88 71.681-3.166 2.401-8.341 5.344-11.5 6.54-7.537 2.852-19.83 3.495-27.243 1.425zm22.712-15.588c5.482-2.014 9.426-5.755 74.58-70.75 76.654-76.466 74.22-73.624 74.195-86.623-.024-13.202 2.547-10.172-73.612-86.765-76.176-76.611-72.148-73.176-85.875-73.214-5.902-.017-8.566.492-12.5 2.387-6.83 3.29-139.818 135.636-144.156 143.461-2.504 4.518-2.843 6.147-2.832 13.631.01 6.94.44 9.326 2.347 13 3.044 5.866 136.834 140.199 142.641 143.22 8.456 4.4 16.333 4.916 25.212 1.653zm-15.39-98.062c-3.434-1.66-4.799-6.001-2.973-9.458.828-1.57 14.044-15.34 29.37-30.603 24.016-23.918 28.276-27.75 30.85-27.75 4.722 0 7.431 2.49 7.431 6.83 0 3.537-1.402 5.114-29.29 32.943-19.158 19.118-29.966 29.204-31.25 29.16-1.078-.038-2.94-.542-4.139-1.122zm-26-26c-2.988-1.444-4.674-5.78-3.452-8.877.528-1.339 13.73-15.147 29.336-30.684 26.496-26.38 28.61-28.25 31.93-28.25 4.422 0 6.864 2.503 6.864 7.038 0 3.09-2.386 5.775-27.75 31.244-24.972 25.074-31.389 30.867-33.95 30.65-.44-.037-1.78-.541-2.979-1.12zM228.4 275.235c-1.97-1.315-3.583-5.37-3.016-7.578.305-1.186 13.584-15.17 29.508-31.074 25.33-25.297 29.338-28.916 32.018-28.916 4.3 0 7.09 2.841 7.09 7.219 0 3.351-1.804 5.38-28.77 32.345-26.725 26.726-29.016 28.768-32.25 28.754-1.914-.008-3.975-.346-4.58-.75z" transform="translate(-.057 -.166)"/><path style="fill:#b0b0b0" d="M91.634 457.414c-19.429-4.703-35.638-22.202-38.642-41.716-1.765-11.47.61-21.902 9.489-41.656 9.759-21.713 32.897-61.795 37.74-65.377 5.4-3.993 7.828-1.177 25.291 29.335 15.502 27.086 25.653 49.823 27.932 62.566 6.168 34.49-27.24 65.215-61.81 56.848zm27.964-15.46c17.652-8.425 25.295-26.583 19.437-46.18-3.965-13.265-32.069-67.329-35.593-68.47-1.86-.602-22.536 36.624-30.472 54.864-6.915 15.894-8.724 24.106-7.078 32.121 2.552 12.43 9.53 21.85 20.177 27.246 10.602 5.372 22.829 5.525 33.529.418zm156.156-1.038c-2.06-.486-6.56-2.257-10-3.936-5.584-2.725-13.735-10.575-76.069-73.266-66.155-66.533-70.008-70.604-73.5-77.662-3.551-7.178-3.685-7.835-3.685-18.123 0-10.504.064-10.797 4-18.371 3.802-7.316 8.654-12.35 97.969-101.63 51.683-51.663 94.824-94.204 95.87-94.536 2.683-.851 7.091 2.715 7.487 6.057.282 2.38-1.743 4.837-14.937 18.13-8.395 8.459-15.033 15.61-14.75 15.893.282.283 2.954.973 5.937 1.535 12.777 2.405 11.077.906 87.128 76.87 65.779 65.703 70.918 71.083 73.774 77.221 4.196 9.022 5.483 16.945 4.147 25.527-2.251 14.459-.21 12.103-76.6 88.388-43.517 43.457-71.538 70.692-74.804 72.705-8.95 5.515-21.775 7.6-31.967 5.198zm20.958-14.033c5.49-2.007 9.359-5.679 75.075-71.25 74.336-74.171 73.723-73.478 74.887-84.766.681-6.612-1.405-14.188-5.537-20.102-1.639-2.346-33.503-34.696-70.808-71.89C295.224 103.995 299.365 107.5 286 107.5c-13.376 0-9.017-3.707-86.279 73.38-50.785 50.67-70.377 70.845-71.978 74.12-1.44 2.946-2.328 6.946-2.572 11.58-.716 13.618-4.102 9.563 71.742 85.92 37.149 37.4 69.201 69.247 71.227 70.772 7.978 6.003 18.424 7.323 28.572 3.611zm-16.257-101.338c-1.35-1.35-2.455-3.244-2.455-4.21 0-.967 13.136-14.92 29.227-31.046C331.12 266.346 336.947 261 339.156 261c3.584 0 5.844 2.428 5.844 6.28 0 2.769-3.191 6.34-27.25 30.501C292.694 322.943 287.046 328 284.004 328c-.602 0-2.2-1.105-3.55-2.455zm-25.938-25.937c-1.385-1.385-2.517-3.01-2.517-3.612 0-3.056 5.064-8.706 30.247-33.746C306.305 238.328 310.03 235 312.755 235c3.928 0 6.245 2.29 6.245 6.172 0 2.542-2.136 5.207-13.25 16.53-20.085 20.464-43.977 42.937-46.483 43.722-1.654.518-2.887.047-4.75-1.816zm-27.104-27.1c-.942-1.437-1.39-3.45-1.06-4.75.316-1.242 13.32-14.97 28.9-30.508 26.809-26.735 28.525-28.25 32.002-28.25 2.61 0 3.975.56 4.71 1.934 2.577 4.817 1.775 5.84-27.721 35.322C238.477 272.012 235.152 275 232.267 275c-2.33 0-3.673-.69-4.854-2.493z" transform="translate(-.057 -.166)"/><path style="fill:#909090" d="M90.105 456.417c-17.206-4.626-32.559-20.834-36.158-38.17-2.775-13.368.322-25.762 12.93-51.747 10.4-21.43 29.405-54.486 32.917-57.25 2.418-1.903 5.628-1.499 7.935 1 5.201 5.634 27.92 46.072 36.096 64.25 9.355 20.798 11.581 31.877 8.79 43.75-4.445 18.914-18.344 33.4-36.746 38.297-6.8 1.81-18.775 1.75-25.764-.13zm30.026-14.158c12.614-6.215 20.816-18.248 21.611-31.704.477-8.061-1.661-15.71-8.856-31.69-6.66-14.79-26.517-50.901-28.75-52.28-1.394-.862-3.427 2.032-12.214 17.39C81.897 361.494 71 383.98 67.543 394.276c-6.006 17.892-.735 35.149 13.794 45.155 7.575 5.217 12.545 6.567 23.19 6.297 7.898-.2 9.847-.634 15.604-3.47zm153.369-2.661c-10.332-3.276-12.167-4.953-83.124-75.942-64.117-64.146-70.39-70.713-73.223-76.656-5.98-12.547-5.998-25.303-.055-38 2.83-6.049 9.613-13.043 97.69-100.75C283.1 80.225 310.052 54 311.647 54c2.987 0 5.353 2.568 5.353 5.81 0 2.104-3.193 5.865-15.127 17.818-8.32 8.333-14.856 15.591-14.523 16.13.333.538 2.825 1.273 5.538 1.633 2.714.36 8.011 2.2 11.773 4.088 6.26 3.143 12.823 9.437 77.417 74.228 66.158 66.359 70.753 71.193 73.37 77.184 5.315 12.172 4.495 27.123-2.144 39.096-2.821 5.088-136.883 139.215-144.205 144.275-8.906 6.156-25.276 8.61-35.599 5.336zm24.867-12.777c4.433-1.843 14.51-11.485 73.918-70.727C449.125 279.468 447 281.949 447 268.878c0-4.457-.733-8.799-2.127-12.59-2.014-5.482-5.758-9.43-70.75-74.587-77.1-77.298-74.256-74.877-87.99-74.877-13.876 0-10.376-2.962-87.422 73.98-76.565 76.46-74.1 73.582-74.172 86.637-.077 14.003-4.121 9.208 72.836 86.359 38.019 38.115 70.678 70.27 72.576 71.455 8.124 5.076 18.586 5.652 28.416 1.566zm-17.712-101.65c-3.721-4.112-2.718-5.448 25.095-33.404 14.713-14.788 28.206-27.793 29.985-28.9 3.667-2.28 6.689-1.812 8.351 1.294.596 1.114.837 2.996.536 4.182-.302 1.186-13.296 14.87-28.876 30.407-29.77 29.689-31.176 30.748-35.091 26.421zm-26-26c-3.806-4.205-2.899-5.389 27.114-35.402 20.497-20.497 29.41-28.769 31-28.769 2.875 0 6.231 3.364 6.231 6.246 0 1.61-8.15 10.383-28.802 31-30.257 30.207-31.63 31.248-35.543 26.925zm-26-26c-3.776-4.172-2.84-5.403 26.595-34.917 15.537-15.58 29.22-28.574 30.407-28.876 5.043-1.282 8.497 3.54 5.961 8.322-.816 1.54-11.077 12.27-22.801 23.843-36.045 35.58-36.36 35.83-40.162 31.628z" transform="translate(-.057 -.166)"/><path style="fill:#6e6e6e" d="M93.317 456.497c-20.91-4.545-36.29-20.95-39.211-41.825-1.718-12.277 1.739-24.64 13.79-49.318 10.977-22.477 29.942-54.662 33.254-56.434 1.06-.567 2.798-.754 3.864-.415 4.94 1.567 36.622 59.18 43.99 79.995 7.36 20.79 4.212 38.512-9.464 53.283-6.581 7.109-16.505 12.678-26.283 14.75-8.163 1.73-11.846 1.723-19.94-.036zM117 444.552c14.197-4.962 25.049-20.229 25.27-35.552.153-10.457-6.324-27.43-20.2-52.942-12.507-22.992-17.067-30.205-18.877-29.857-3.922.756-30.766 51.567-36.288 68.687-3.595 11.146-3.581 17.768.057 27.359 2.504 6.601 10.167 15.572 16.445 19.252 9.353 5.48 23.076 6.728 33.593 3.053zm158.25-5.031c-2.886-.814-7.161-2.432-9.5-3.597-2.893-1.44-26.804-24.68-74.873-72.77-77.066-77.099-74.732-74.42-77.155-88.567-.838-4.89-.838-8.283 0-13.174 2.454-14.327-1.984-9.373 99.658-111.231C264.596 98.857 307.625 56.28 309 55.569c2.82-1.46 4.915-1.076 6.75 1.237 2.684 3.384 1.19 5.546-14.25 20.616-8.525 8.32-15.5 15.632-15.5 16.246 0 .615 2.768 1.606 6.152 2.202 3.383.596 9.12 2.444 12.75 4.107 6.185 2.835 10.967 7.416 76.328 73.11 61.425 61.738 70.095 70.828 72.8 76.322 5.876 11.937 5.862 24.773-.043 37.478-2.86 6.154-7.915 11.453-72.78 76.309-67.72 67.71-69.922 69.798-77.257 73.266-9.16 4.331-20.063 5.493-28.7 3.059zm24.25-12.496c7.423-3.607 142.164-138.3 145.578-145.525 1.857-3.93 2.369-6.712 2.392-13 .052-14.018 3.056-10.445-73.707-87.71-77.148-77.654-73.14-74.262-87.763-74.262-7.4 0-9.211.37-14 2.858-4.377 2.273-19.45 16.773-73.797 70.986-75.633 75.446-73.373 72.818-74.033 86.128-.267 5.374.165 8.393 1.857 13 2.12 5.769 4.908 8.704 72.339 76.143 64.477 64.486 70.578 70.313 75.634 72.248 7.589 2.905 18.505 2.534 25.5-.866zm-17.25-101.124c-1.71-.636-2.25-1.629-2.25-4.142 0-2.998 2.635-5.935 28.29-31.532 28.915-28.85 31.03-30.507 34.51-27.027 3.537 3.537 1.91 5.607-27.05 34.425-15.537 15.462-28.925 28.337-29.75 28.612-.825.275-2.513.124-3.75-.336zM254.1 297.75c-.46-1.238-.612-2.925-.337-3.75.275-.825 13.15-14.213 28.612-29.75 28.818-28.96 30.888-30.587 34.425-27.05 3.53 3.53 1.901 5.612-27.056 34.557C264.239 297.249 261.168 300 258.21 300c-2.482 0-3.478-.545-4.112-2.25zm-25.648-26.183c-1.165-1.778-1.323-2.922-.586-4.25.555-1 13.564-14.341 28.91-29.649 24.825-24.763 28.211-27.795 30.712-27.5 3.403.402 5.02 2.685 4.196 5.927-.337 1.327-13.083 14.843-28.438 30.155-29.828 29.744-31.227 30.762-34.794 25.317z" transform="translate(-.057 -.166)"/><path style="fill:#4e4e4e" d="M91.335 455.577c-17.609-4.27-32.137-19.243-36.355-37.468-3.624-15.66 4.252-38.296 27.513-79.071 13.874-24.322 17.453-29.474 20.736-29.852 2.398-.277 3.26.51 7.115 6.5 14.422 22.403 34.297 60.841 39.051 75.527 3.476 10.737 4.084 17.81 2.268 26.413-2.034 9.64-5.771 16.618-12.842 23.982-12.376 12.888-30.256 18.148-47.486 13.97zm22.914-9.723c14.8-3.282 27.482-18.977 28.53-35.306.386-6.02-.015-8.46-2.725-16.555-3.763-11.243-15.016-34.49-25.234-52.128-9.6-16.57-10.153-17.335-12.022-16.618-3.864 1.483-30.579 52.016-35.908 67.922-2.653 7.92-3.03 10.313-2.715 17.263.811 17.878 13.06 32.097 31.076 36.073 6.326 1.397 10.394 1.257 18.998-.65zm157.975-7.769c-2.903-1.075-6.728-2.862-8.5-3.97-4.221-2.64-139.922-138.466-143.285-143.418-4.867-7.165-6.623-14.162-6.2-24.697.694-17.292-6.571-8.892 100.138-115.783 51.768-51.855 95.141-94.543 96.386-94.861 2.928-.75 5.237 1.211 5.237 4.446 0 1.962-3.633 6.216-15.617 18.284-8.589 8.65-15.352 16.155-15.029 16.678.323.522 3.054 1.205 6.07 1.516 3.015.311 8.316 1.803 11.78 3.315 5.856 2.558 11.036 7.47 74.162 70.328 37.326 37.167 69.842 70.219 72.257 73.448 9.449 12.628 11.007 28.932 4.096 42.849-3.41 6.866-7.616 11.267-73.918 77.358-66.068 65.858-70.692 70.251-76.801 72.95-8.705 3.844-22.693 4.552-30.776 1.557zm27.483-10.903c7.744-3.99 141.92-137.536 145.363-144.682 1.793-3.721 2.503-7.127 2.775-13.315.659-14.98 4.181-10.769-75.551-90.319-65.834-65.683-70.096-69.732-75.112-71.353-6.852-2.215-18.993-1.744-24.682.958-3.598 1.71-56.063 52.833-124.765 121.576-22.033 22.047-24.164 25.394-24.164 37.953 0 14.537-3.071 10.876 73.233 87.322 37.734 37.805 69.656 68.985 72.125 70.45 9.878 5.86 21.138 6.377 30.778 1.41zm-18.672-103.116c-.57-1.064-1.035-2.508-1.035-3.21 0-1.379 54.322-56.345 57.317-57.996 2.452-1.352 6.683 1.423 6.683 4.384 0 3.05-56.553 58.656-59.715 58.715-1.218.022-2.68-.83-3.25-1.893zm-25.464-25.637c-.864-.865-1.571-2.338-1.571-3.273 0-2.128 57.008-59.156 59.135-59.156 2.333 0 5.134 3.576 4.462 5.695C316.724 244.443 260.68 300 258.78 300c-.901 0-2.345-.707-3.21-1.571zm-25.821-25.51c-.981-.57-1.752-2.205-1.753-3.719-.003-2.207 5.168-7.856 28.334-30.95 18.294-18.237 29.05-28.25 30.348-28.25 2.714 0 5.647 3.397 4.918 5.695-.83 2.614-56.874 58.311-58.637 58.275-.803-.017-2.248-.49-3.21-1.05z" transform="translate(-.057 -.166)"/><path style="fill:#2e2e2e" d="M93.902 455.497c-9.195-1.832-18.27-6.706-24.976-13.411-13.5-13.5-17.406-31.585-10.97-50.797 5.364-16.009 16.808-38.712 33.311-66.08 8.868-14.709 10.991-16.945 14.115-14.871 5.576 3.702 37.389 62.687 43.234 80.162 6.725 20.103 2.873 37.968-11.228 52.068-6.666 6.666-17.188 11.852-27.08 13.346-8.392 1.267-7.891 1.28-16.406-.417zm26.461-11.432c16.052-7.66 25.625-24.994 22.766-41.223-2.069-11.746-15.835-41.283-31.503-67.592-6.558-11.012-8.25-12.612-10.487-9.918-2.575 3.104-18.502 31.797-25.077 45.18-14.263 29.03-16.015 40.105-8.69 54.927 4.04 8.172 9.893 14.126 17.874 18.18 6.895 3.502 11.25 4.35 20.36 3.964 6.596-.28 9.346-.935 14.757-3.518zm157.537-5.078c-2.53-.428-7.255-2.01-10.5-3.515-5.243-2.433-13.665-10.54-75.68-72.855-65.823-66.14-69.991-70.538-73.49-77.543-3.505-7.02-3.708-7.951-3.702-17 .006-8.867.264-10.11 3.49-16.844 3.346-6.987 7.144-10.932 97.442-101.25C280.13 85.297 310.072 56 311.51 56c2.429 0 4.49 1.77 4.49 3.854 0 .8-7.28 8.82-16.176 17.824-11.114 11.247-15.853 16.693-15.144 17.402.567.567 3.792 1.421 7.167 1.898 13.825 1.955 11.26-.263 85.966 74.32 37.572 37.511 69.803 70.227 71.625 72.702 5.66 7.69 7.817 15.313 7.412 26.182-.635 16.998 3.328 12.24-77.056 92.52-75.864 75.764-73.633 73.802-86.754 76.29-5.936 1.126-8.456 1.125-15.14-.006zm22.1-11.2c4.556-2.248 17.458-14.698 75.134-72.5 66.807-66.954 69.723-70.03 71.848-75.787 1.753-4.747 2.124-7.473 1.78-13.055-.824-13.319.839-11.392-76.044-88.127-65.658-65.532-69.516-69.194-75.006-71.201a34.238 34.238 0 0 0-23.424.005c-5.485 2.01-9.446 5.767-75.647 71.75C119.933 257.32 123 253.707 123.004 268c.004 13.726-2.567 10.655 71.996 85.979 36.575 36.948 68.6 68.728 71.165 70.623 6.93 5.116 11.153 6.388 20.335 6.126 6.38-.182 9.114-.778 13.5-2.941zm-18.333-103.454c-2.444-2.444.689-6.201 27.59-33.09C324.796 275.71 338.241 263 339.133 263c2.392 0 4.171 2.652 3.515 5.237-.316 1.245-12.873 14.525-27.904 29.513-21.411 21.35-27.88 27.25-29.87 27.25-1.398 0-2.842-.3-3.208-.667zm-26.306-26.835c-.317-.826-.316-2.54.002-3.808.748-2.982 55.232-56.69 57.509-56.69 2.312 0 4.122 1.937 4.157 4.45.019 1.382-9.17 11.098-28.181 29.8-28.245 27.786-31.821 30.589-33.487 26.248zm-25.694-25.165c-.367-.366-.667-1.84-.667-3.273 0-3.892 54.366-58.06 58.272-58.06 2.065 0 2.842.606 3.344 2.608.596 2.375-1.884 5.148-27.724 31-27.02 27.032-30.78 30.17-33.225 27.725z" transform="translate(-.057 -.166)"/><path style="fill:#060606" d="M95 454.864c-24.212-3.97-42.737-28.97-38.965-52.586 2.415-15.113 14.943-41.762 36.23-77.067 8.338-13.828 10.367-16.005 12.975-13.922 3.353 2.678 22.116 35.11 31.895 55.13 13.23 27.087 16.198 40.058 12.388 54.132-4.67 17.258-20.68 31.552-38.523 34.397-7.358 1.174-8.364 1.168-16-.084zm23-8.724c11.471-4.434 20.888-14.351 24.538-25.844 2.649-8.34 2.344-17.134-.927-26.796-5.548-16.383-33.295-68.674-37.245-70.19-2.234-.857-4.421 1.839-11.914 14.69-15.26 26.17-27.144 51.86-29.477 63.72-3.892 19.783 9.234 39.852 30.025 45.908 6.285 1.83 18.258 1.118 25-1.488zm157.184-8.702c-2.923-.787-7.198-2.54-9.5-3.897-2.301-1.356-35.721-34.095-74.267-72.754-65.664-65.855-70.266-70.697-72.98-76.787-2.538-5.692-2.898-7.681-2.898-16 0-8.315.36-10.31 2.894-16 2.733-6.136 8.162-11.778 96.981-100.782 79.728-79.895 94.466-94.24 96.577-94 5.48.62 3.598 3.553-13.036 20.297-10.002 10.068-16.023 16.865-15.697 17.716.32.834 3.371 1.82 7.706 2.492 14.709 2.276 11.638-.379 88.652 76.649 76.507 76.52 73.918 73.546 76.398 87.787 1.429 8.206.167 15.944-3.97 24.341-2.568 5.212-12.128 15.152-72.75 75.647-46.857 46.759-71.18 70.34-74.013 71.755-9.827 4.908-20.388 6.148-30.097 3.536zm24.955-8.779c4.296-2.151 19.1-16.341 74.515-71.422 78.31-77.838 74.846-73.73 74.846-88.758 0-15.184 3.148-11.441-76.206-90.605-78.244-78.055-72.668-73.396-87.794-73.35-6.044.02-9.162.556-12.752 2.195-3.716 1.697-19.58 16.832-72.82 69.476-37.438 37.018-69.097 68.655-70.354 70.305-5.8 7.614-7.069 11.474-7.066 21.5.002 8.49.305 10.085 2.853 15 2.27 4.38 16.524 19.211 69.995 72.832 36.93 37.032 68.946 68.59 71.15 70.13 6.557 4.58 12.052 6.104 20.633 5.722 5.816-.26 8.917-.98 13-3.025zM283.25 324.285c-3.886-1.404-.542-5.506 26.607-32.642 28.461-28.448 31.159-30.534 31.982-24.73.283 1.987-4.34 6.967-27.375 29.49-15.243 14.903-28.22 27.375-28.84 27.715-.618.34-1.687.415-2.374.167zm-27.678-27.96c-.913-2.378 55.041-58.515 57.918-58.107 5.35.759 2.87 3.908-25.133 31.925-27.761 27.775-31.14 30.472-32.785 26.183zm-25.961-25.897c-.332-.865-.19-2.328.316-3.25.506-.923 13.064-13.752 27.906-28.51 21.932-21.806 27.422-26.769 29.316-26.5 5.732.816 3.588 3.582-24.792 31.975-27.616 27.63-31.144 30.46-32.746 26.285z" transform="translate(-.057 -.166)"/></svg>