<svg xmlns="http://www.w3.org/2000/svg" viewBox="0 0 192 192"><path d="M81.476 35.122h14.553c19.688.656 34.159 2.542 46.959 7.75 12.8 5.207 28.534 17.344 31.51 30.055 2.976 12.712-1.59 27.678-2.038 35.264-2.568-16.894-3.587-18.739-9.987-27.719a84.454 84.454 0 0 0-28.29-23.782 145.751 145.751 0 0 0-36.32-12.301c-14.797-2.87-38.399-6.233-48.427-7.463 5.87-.492 18.018-1.558 32.04-1.804ZM24.652 44.84c4.795.032 9.585.319 14.349.861 24.458 2.419 50.995 6.356 73.374 15.909a107.876 107.876 0 0 1 36.075 24.603c11.944 11.358 15.653 27.144 14.879 43.382a55.592 55.592 0 0 1-1.345 9.513c-3.302-12.876-11.699-24.603-20.382-34.69A135.882 135.882 0 0 0 89.344 68.95a350.539 350.539 0 0 0-69.991-23.987Zm94.367 57.938a67.113 67.113 0 0 1 12.678 13.695 122.007 122.007 0 0 1-24.662 11.318c-14.267 5.535-35.668 8.446-51.525 10.25a191.484 191.484 0 0 1-39.01 0 253.916 253.916 0 0 0 35.015-7.503 414.996 414.996 0 0 0 45.248-15.418 86.813 86.813 0 0 0 22.256-12.342Zm20.871 26.53a25.47 25.47 0 0 1 5.462 14.761 130.898 130.898 0 0 1-55.356 12.752 164.553 164.553 0 0 1-43.495-4.674 315.357 315.357 0 0 0 44.066-4.306 133.955 133.955 0 0 0 37.298-11.891 126.734 126.734 0 0 0 12.025-6.642Z" fill="none" stroke="#000" stroke-width="8" stroke-linecap="round" stroke-linejoin="round"/></svg>