<?xml version="1.0" encoding="UTF-8" standalone="no"?>
<!-- Created with Inkscape (http://www.inkscape.org/) -->

<svg
   version="1.1"
   id="svg3339"
   width="512"
   height="512"
   viewBox="0 0 512 512"
   sodipodi:docname="swift_installer.svg"
   inkscape:version="1.1.2 (b8e25be833, 2022-02-05)"
   xmlns:inkscape="http://www.inkscape.org/namespaces/inkscape"
   xmlns:sodipodi="http://sodipodi.sourceforge.net/DTD/sodipodi-0.dtd"
   xmlns="http://www.w3.org/2000/svg"
   xmlns:svg="http://www.w3.org/2000/svg">
  <defs
     id="defs3343" />
  <sodipodi:namedview
     id="namedview3341"
     pagecolor="#ffffff"
     bordercolor="#666666"
     borderopacity="1.0"
     inkscape:pageshadow="2"
     inkscape:pageopacity="0.0"
     inkscape:pagecheckerboard="0"
     showgrid="false"
     inkscape:zoom="1.1289062"
     inkscape:cx="256"
     inkscape:cy="256"
     inkscape:window-width="1280"
     inkscape:window-height="961"
     inkscape:window-x="-8"
     inkscape:window-y="-8"
     inkscape:window-maximized="1"
     inkscape:current-layer="g3345" />
  <g
     inkscape:groupmode="layer"
     inkscape:label="Image"
     id="g3345">
    <g
       id="g3465"
       transform="translate(-0.05725967,-0.16565561)">
      <path
         style="fill:#d0d0d0"
         d="m 91.644946,458.41601 c -25.375537,-6.14279 -43.50617,-31.96777 -39.693785,-56.53918 0.576517,-3.71575 2.225005,-10.04561 3.663306,-14.06636 5.48373,-15.32971 22.237415,-47.43772 37.119067,-71.13775 8.933996,-14.22799 12.477096,-14.04731 21.933136,1.11847 18.36847,29.45969 34.72178,62.2361 38.86155,77.88894 3.09068,11.6861 1.4136,26.02482 -4.29775,36.74501 -4.31869,8.10618 -14.50058,17.68109 -23.23047,21.84563 -11.84193,5.64911 -22.72042,6.9617 -34.355054,4.14524 z m 26.808614,-16.85305 c 7.22661,-3.19595 14.49119,-10.12569 18.11745,-17.28237 2.35755,-4.65281 2.99613,-7.34982 3.27312,-13.82387 0.41747,-9.75759 -1.90678,-17.49019 -10.95808,-36.45672 -7.47203,-15.65723 -24.04045,-44.98751 -25.41709,-44.99465 -1.93535,-0.01 -19.781799,31.93922 -28.434608,50.90449 -2.863126,6.27542 -6.165484,15.12266 -7.338572,19.66054 -1.936712,7.49183 -2.013657,8.82796 -0.836566,14.52687 1.739661,8.42261 4.993135,14.45777 10.808347,20.04937 5.376695,5.16995 11.415872,8.54287 17.676185,9.87227 6.504164,1.38118 16.941514,0.27198 23.109814,-2.45593 z M 274,441.46126 c -3.025,-0.84477 -7.8445,-2.95331 -10.71,-4.68564 -3.3945,-2.05215 -29.55356,-27.56417 -75.06948,-73.21267 -67.94653,-68.14444 -69.94867,-70.26138 -73.11684,-77.30943 -5.5649,-12.37988 -5.36178,-25.4863 0.59008,-38.07717 2.32428,-4.91688 15.13451,-18.15953 95.74476,-98.97669 51.18382,-51.315188 94.49161,-94.194385 96.23955,-95.287106 3.73541,-2.335182 7.60406,-1.775543 9.84526,1.424216 3.20757,4.579452 2.14293,6.341537 -13.13906,21.746426 -8.03866,8.103298 -14.34963,15.163842 -14.02438,15.690098 0.32524,0.526255 2.45524,1.206828 4.73333,1.512384 2.27809,0.305556 7.12656,2.016305 10.77438,3.801665 5.73076,2.804817 10.48726,7.063887 34.98848,31.329387 15.59584,15.4458 47.35086,47.43327 70.56671,71.08327 46.1463,47.00926 46.36708,47.28711 48.67428,61.25777 1.46953,8.89832 0.13013,17.23909 -4.21411,26.24223 -2.84401,5.89401 -9.39427,12.77577 -70.25969,73.81544 -36.9178,37.02349 -69.71391,69.27983 -72.88025,71.68076 -3.16633,2.40093 -8.34133,5.34344 -11.5,6.53892 -7.53688,2.85254 -19.83075,3.49611 -27.24302,1.42614 z m 22.71249,-15.58796 c 5.48144,-2.01423 9.4255,-5.75578 74.57922,-70.75 76.6543,-76.46664 74.2194,-73.62389 74.19533,-86.6233 -0.0245,-13.20244 2.54656,-10.17204 -73.61202,-86.76502 C 295.69858,105.12405 299.727,108.55855 286,108.52069 c -5.90161,-0.0163 -8.56559,0.49246 -12.5,2.38714 -6.83074,3.28946 -139.81843,135.63628 -144.15582,143.46113 -2.50429,4.51786 -2.84275,6.14683 -2.83218,13.63104 0.01,6.94015 0.44055,9.3258 2.34731,13 3.04413,5.86586 136.83339,140.19889 142.64069,143.22044 8.45563,4.39949 16.33263,4.91588 25.21249,1.65286 z m -15.39131,-98.06203 c -3.43328,-1.65986 -4.79781,-6.00154 -2.97268,-9.45858 0.82833,-1.56898 14.04481,-15.34019 29.36995,-30.60269 24.01626,-23.91811 28.27625,-27.75 30.85021,-27.75 4.72271,0 7.43134,2.48921 7.43134,6.82935 0,3.53808 -1.40191,5.11489 -29.28913,32.94329 -19.15846,19.11805 -29.96737,29.20395 -31.25,29.15968 -1.07848,-0.0372 -2.94134,-0.5417 -4.13969,-1.12105 z m -26,-26 c -2.98724,-1.44421 -4.67305,-5.78066 -3.45113,-8.8774 0.52821,-1.33863 13.72924,-15.14637 29.33563,-30.68387 26.49671,-26.37975 28.61057,-28.25 31.9298,-28.25 4.42271,0 6.86452,2.50336 6.86452,7.03757 0,3.08952 -2.38558,5.77546 -27.75,31.24398 -24.97189,25.07438 -31.38873,30.86758 -33.95034,30.65077 -0.43981,-0.0372 -1.78013,-0.5417 -2.97848,-1.12105 z M 228.3997,275.23469 c -1.96903,-1.31476 -3.58282,-5.37014 -3.01551,-7.57783 0.30484,-1.18627 13.5835,-15.16936 29.50813,-31.07353 25.32992,-25.29737 29.33738,-28.91666 32.01787,-28.91666 4.29911,0 7.08981,2.84159 7.08981,7.21909 0,3.35151 -1.80436,5.38014 -28.76923,32.34501 -26.72616,26.72616 -29.01642,28.76814 -32.25,28.75392 -1.91442,-0.008 -3.9759,-0.34592 -4.58107,-0.75 z"
         id="path3479" />
      <path
         style="fill:#b0b0b0"
         d="m 91.634076,457.41354 c -19.42903,-4.70275 -35.638228,-22.20124 -38.642071,-41.7157 -1.765498,-11.46956 0.610935,-21.90179 9.489039,-41.65566 9.758601,-21.71299 32.896918,-61.79555 37.740066,-65.3772 5.39989,-3.99338 7.82831,-1.17664 25.29095,29.33502 15.50228,27.08642 25.65253,49.82253 27.93175,62.56591 6.16866,34.48976 -27.23896,65.2154 -61.809734,56.84763 z m 27.963704,-15.46021 c 17.65233,-8.42468 25.29505,-26.58202 19.43749,-46.17903 -3.96489,-13.26493 -32.06898,-67.32889 -35.59288,-68.47018 -1.86037,-0.60252 -22.53616,36.62357 -30.471893,54.86365 -6.915161,15.89431 -8.724984,24.10649 -7.07896,32.12119 2.552635,12.42912 9.52975,21.8504 20.17761,27.24608 10.601841,5.37236 22.828703,5.5249 33.528633,0.41829 z m 156.15637,-1.03729 c -2.06022,-0.48569 -6.56022,-2.25669 -10,-3.93556 -5.58403,-2.72543 -13.73465,-10.57577 -76.06901,-73.26649 -66.15525,-66.53346 -70.00803,-70.60441 -73.5,-77.66213 -3.55153,-7.1781 -3.68514,-7.83515 -3.68514,-18.12261 0,-10.50403 0.0639,-10.79737 4,-18.37156 3.8019,-7.31589 8.65388,-12.34917 97.96886,-101.62947 51.68287,-51.662802 94.82445,-94.203924 95.87017,-94.535824 2.68271,-0.85146 7.09098,2.714828 7.4871,6.057068 0.28191,2.378664 -1.74295,4.836342 -14.93745,18.130319 -8.39497,8.458257 -15.03241,15.609824 -14.74986,15.892371 0.28255,0.282547 2.9544,0.973193 5.93745,1.534769 12.77664,2.405275 11.07713,0.905859 87.12804,76.869707 65.77869,65.70339 70.91811,71.08304 73.77324,77.22161 4.19631,9.02212 5.48356,16.94469 4.1475,25.52645 -2.25109,14.45919 -0.20913,12.10297 -76.59987,88.38849 -43.51714,43.4572 -71.53853,70.69218 -74.80392,72.70455 -8.9496,5.51542 -21.77505,7.60102 -31.96711,5.19831 z m 20.95834,-14.03258 c 5.48926,-2.00747 9.35804,-5.67918 75.07401,-71.25 74.33602,-74.17182 73.72333,-73.4783 74.88726,-84.76664 0.68169,-6.61137 -1.40525,-14.18822 -5.53677,-20.10184 -1.63884,-2.34574 -33.5026,-34.69634 -70.80835,-71.89022 C 295.22444,103.99577 299.36465,107.5 286,107.5 c -13.37575,0 -9.01745,-3.70671 -86.27857,73.37945 -50.78497,50.66996 -70.37737,70.84544 -71.97842,74.12055 -1.43996,2.94558 -2.32846,6.94578 -2.57217,11.58045 -0.71609,13.61799 -4.10206,9.56289 71.74192,85.91955 37.14889,37.4 69.20129,69.24738 71.22756,70.77196 7.97816,6.00281 18.42321,7.32306 28.57217,3.6115 z M 280.45455,325.54545 c -1.35,-1.35 -2.45455,-3.24489 -2.45455,-4.21086 0,-0.96697 13.13594,-14.92004 29.22736,-31.04546 C 331.12035,266.34564 336.94772,261 339.15593,261 c 3.58448,0 5.84407,2.42796 5.84407,6.27953 0,2.76936 -3.19111,6.34123 -27.25,30.50146 C 292.69366,322.94287 287.04632,328 284.00421,328 c -0.60232,0 -2.19966,-1.10455 -3.54966,-2.45455 z m -25.9379,-25.93789 C 253.13249,298.2234 252,296.59811 252,295.99579 c 0,-3.05596 5.06434,-8.70613 30.24687,-33.74579 24.05836,-23.92186 27.7844,-27.25 30.50788,-27.25 3.92813,0 6.24525,2.29013 6.24525,6.17249 0,2.54115 -2.13631,5.20624 -13.25,16.52962 -20.08454,20.46348 -43.97721,42.93694 -46.48335,43.72226 -1.65329,0.51807 -2.887,0.0462 -4.75,-1.81681 z m -27.10383,-27.10027 c -0.94133,-1.43666 -1.3903,-3.44904 -1.05974,-4.75 0.31545,-1.24151 13.32077,-14.96979 28.9007,-30.50729 26.80777,-26.73476 28.52423,-28.25 32.0015,-28.25 2.60927,0 3.97442,0.56068 4.70954,1.93426 2.57766,4.81641 1.77492,5.83926 -27.72118,35.32221 C 238.47667,272.01195 235.15249,275 232.2667,275 c -2.32931,0 -3.6726,-0.68985 -4.85388,-2.49271 z"
         id="path3477" />
      <path
         style="fill:#909090"
         d="M 90.104631,456.41748 C 72.898935,451.79061 57.546429,435.58306 53.947366,418.24646 51.172218,404.87865 54.269072,392.4852 66.877686,366.5 c 10.398515,-21.43039 29.403869,-54.48563 32.916308,-57.25 2.418316,-1.90327 5.627696,-1.49879 7.934586,1 5.20157,5.63428 27.91996,46.07185 36.09654,64.25 9.35498,20.79795 11.58101,31.87713 8.79026,43.75002 -4.44575,18.9139 -18.34486,33.39949 -36.7468,38.29734 -6.80047,1.81001 -18.774653,1.74965 -25.763949,-0.12988 z m 30.026699,-14.15876 c 12.61361,-6.21466 20.81588,-18.24771 21.61093,-31.70402 0.47626,-8.06085 -1.66159,-15.71022 -8.85644,-31.68898 -6.66003,-14.79102 -26.51703,-50.90173 -28.749,-52.28116 -1.39434,-0.86175 -3.42752,2.03285 -12.214462,17.38952 -10.025832,17.52185 -20.922635,40.00569 -24.379229,50.3027 -6.006351,17.89261 -0.734884,35.14906 13.794013,45.1555 7.574974,5.21708 12.544684,6.56652 23.189188,6.2966 7.89886,-0.20029 9.84808,-0.63375 15.605,-3.47016 z M 273.5,439.59785 C 263.16779,436.32163 261.33255,434.64497 190.37554,363.65602 126.25856,299.51018 119.98569,292.94315 117.15313,287 c -5.97979,-12.54656 -5.99845,-25.3031 -0.0556,-38 2.83115,-6.04875 9.61318,-13.04316 97.69069,-100.75 C 283.10034,80.225388 310.05158,54 311.64685,54 314.63425,54 317,56.567521 317,59.809701 c 0,2.103887 -3.19331,5.86515 -15.12741,17.817908 -8.32008,8.333086 -14.85518,15.59155 -14.52245,16.12992 0.33274,0.53837 2.82495,1.273346 5.53827,1.63328 2.71331,0.359933 8.01091,2.199785 11.77244,4.088558 6.25931,3.142983 12.82294,9.436153 77.41733,74.227383 66.15767,66.35926 70.75301,71.19355 73.36948,77.18452 5.31572,12.1715 4.49583,27.12253 -2.14398,39.09605 -2.82116,5.08739 -136.88283,139.21429 -144.20448,144.27466 -8.90633,6.15561 -25.27605,8.60923 -35.5992,5.33587 z m 24.86685,-12.77673 c 4.43334,-1.84301 14.51081,-11.48546 73.91847,-70.72753 C 449.12543,279.46767 447,281.94872 447,268.87779 c 0,-4.45695 -0.73336,-8.79849 -2.1267,-12.59028 -2.01414,-5.4812 -5.7587,-9.42881 -70.75,-74.5864 -77.10114,-77.29842 -74.25634,-74.87758 -87.99107,-74.87758 -13.87493,0 -10.37571,-2.96121 -87.42139,73.98031 -76.56441,76.4609 -74.09975,73.58202 -74.17186,86.63761 -0.0773,14.00224 -4.12136,9.20737 72.83554,86.35853 38.01901,38.11498 70.67823,70.26996 72.57604,71.45551 8.12488,5.07554 18.58671,5.65195 28.41629,1.56563 z M 280.65499,325.17126 c -3.72138,-4.11208 -2.71788,-5.44784 25.09501,-33.40387 14.7125,-14.78822 28.20568,-27.7931 29.98485,-28.89973 3.66705,-2.28088 6.68888,-1.81294 8.35124,1.29321 0.59619,1.11397 0.83722,2.996 0.53563,4.18227 -0.30159,1.18627 -13.29557,14.86936 -28.8755,30.40686 -29.7699,29.68882 -31.17601,30.74753 -35.09123,26.42126 z m -26,-26 c -3.80553,-4.20506 -2.89863,-5.38916 27.11424,-35.40203 20.49691,-20.4969 29.41067,-28.76923 31,-28.76923 2.87457,0 6.23077,3.36436 6.23077,6.24593 0,1.61035 -8.15058,10.38308 -28.80152,31 -30.25699,30.20714 -31.63132,31.24823 -35.54349,26.92533 z m -26,-26 c -3.77622,-4.17267 -2.83928,-5.4028 26.59501,-34.91748 15.5375,-15.57993 29.22059,-28.57391 30.40686,-28.8755 5.04264,-1.28201 8.49702,3.54002 5.96148,8.32174 -0.81659,1.53999 -11.07727,12.26918 -22.80152,23.84264 -36.04483,35.58125 -36.36006,35.82951 -40.16183,31.6286 z"
         id="path3475" />
      <path
         style="fill:#6e6e6e"
         d="m 93.317169,456.49701 c -20.91023,-4.54537 -36.289603,-20.94987 -39.211184,-41.82486 -1.718311,-12.2775 1.738669,-24.64066 13.790239,-49.3179 10.977102,-22.47712 29.942054,-54.66215 33.253976,-56.43463 1.05894,-0.56673 2.79778,-0.75352 3.86408,-0.41509 4.93955,1.56776 36.62124,59.18096 43.98976,79.99547 7.35959,20.78925 4.21178,38.51193 -9.46388,53.28328 -6.58129,7.10858 -16.50566,12.67818 -26.28289,14.75006 -8.16279,1.72978 -11.84627,1.72306 -19.940101,-0.0363 z M 117,444.55158 c 14.19662,-4.9614 25.04873,-20.22836 25.2709,-35.55158 0.15162,-10.45731 -6.32458,-27.42929 -20.20169,-52.942 -12.50608,-22.99208 -17.06649,-30.20517 -18.87656,-29.85658 -3.921774,0.75526 -30.765536,51.56652 -36.287409,68.68668 -3.594916,11.14577 -3.581296,17.7683 0.05626,27.35856 2.504044,6.60179 10.167043,15.57229 16.445851,19.25192 9.353024,5.48123 23.075808,6.7284 33.592648,3.053 z m 158.25067,-5.0306 c -2.88713,-0.81381 -7.16213,-2.43236 -9.5,-3.59678 -2.89318,-1.44101 -26.80494,-24.68105 -74.87404,-72.77067 -77.06524,-77.09816 -74.73115,-74.41883 -77.15456,-88.5666 -0.83773,-4.8906 -0.83773,-8.28326 0,-13.17386 2.45413,-14.32712 -1.98435,-9.37319 99.65767,-111.23134 C 264.59588,98.856687 307.625,56.280929 309,55.568939 c 2.81975,-1.460098 4.9154,-1.075981 6.75,1.237224 2.68363,3.383728 1.18909,5.545881 -14.25,20.615422 -8.525,8.320948 -15.5,15.632034 -15.5,16.246857 0,0.614822 2.76829,1.605485 6.15176,2.201471 3.38347,0.595987 9.12097,2.444374 12.75,4.107527 6.1848,2.83444 10.96744,7.41539 76.32783,73.10906 61.42505,61.73826 70.09531,70.82803 72.80043,76.32292 5.8764,11.93667 5.86162,24.77243 -0.0432,37.47764 -2.85993,6.15366 -7.91459,11.4534 -72.78012,76.30892 -67.72005,67.70962 -69.9219,69.79773 -77.25631,73.26585 -9.1603,4.3315 -20.06294,5.49363 -28.69975,3.05915 z M 299.5,427.02536 C 306.92309,423.41765 441.66448,288.72497 445.07798,281.5 c 1.85684,-3.93015 2.36869,-6.71176 2.39216,-13 0.0523,-14.01823 3.0555,-10.44451 -73.70723,-87.71001 C 296.61457,103.13636 300.62289,106.52806 286,106.52806 c -7.40044,0 -9.21148,0.36965 -14,2.85753 -4.37661,2.27387 -19.44982,16.77297 -73.79674,70.98597 -75.6332,75.44683 -73.37365,72.81814 -74.03351,86.12844 -0.26643,5.37427 0.16493,8.39348 1.85735,13 2.11941,5.76874 4.90764,8.70359 72.33864,76.14299 64.47773,64.48575 70.57785,70.31277 75.63426,72.24813 7.58904,2.90473 18.50451,2.53413 25.5,-0.86576 z M 282.25,325.90082 c -1.71089,-0.63597 -2.25,-1.62842 -2.25,-4.14201 0,-2.99779 2.63462,-5.93431 28.29047,-31.53222 28.91491,-28.84963 31.03002,-30.5061 34.50953,-27.02659 3.53651,3.53651 1.90954,5.60708 -27.05,34.42529 -15.5375,15.46167 -28.925,28.33708 -29.75,28.61202 -0.825,0.27494 -2.5125,0.12352 -3.75,-0.33649 z M 254.09918,297.75 c -0.46001,-1.2375 -0.61143,-2.925 -0.33649,-3.75 0.27494,-0.825 13.15035,-14.2125 28.61202,-29.75 28.81821,-28.95954 30.88878,-30.58651 34.42529,-27.05 3.53088,3.53088 1.90133,5.61215 -27.05647,34.55658 C 264.23912,297.24922 261.16802,300 258.21131,300 c -2.4826,0 -3.47827,-0.54479 -4.11213,-2.25 z m -25.6472,-26.18294 c -1.16492,-1.7779 -1.32262,-2.92217 -0.5857,-4.25 0.55464,-0.99938 13.564,-14.34146 28.90969,-29.64906 24.82492,-24.76328 28.21114,-27.79539 30.71178,-27.5 3.40315,0.402 5.01937,2.68488 4.19633,5.92722 -0.33683,1.32693 -13.08323,14.84262 -28.43842,30.15478 -29.82775,29.74415 -31.2262,30.76171 -34.79368,25.31706 z"
         id="path3473" />
      <path
         style="fill:#4e4e4e"
         d="m 91.335372,455.57738 c -17.609031,-4.27057 -32.137246,-19.24387 -36.354967,-37.46872 -3.624156,-15.66005 4.251802,-38.29572 27.512199,-79.07062 13.874642,-24.32191 17.453521,-29.47423 20.735936,-29.85239 2.39801,-0.27627 3.25996,0.51114 7.11529,6.5 14.42248,22.4038 34.29696,60.84183 39.05138,75.52689 3.47626,10.73721 4.08351,17.80973 2.26786,26.41355 -2.03421,9.63954 -5.77135,16.61838 -12.84224,23.98199 -12.37542,12.88771 -30.25597,18.14782 -47.485458,13.9693 z m 22.913488,-9.72321 c 14.79922,-3.28186 27.4818,-18.97678 28.52975,-35.30607 0.38639,-6.02078 -0.015,-8.46019 -2.72412,-16.5547 -3.76304,-11.24359 -15.01633,-34.49001 -25.2347,-52.12843 -9.59941,-16.57 -10.15278,-17.3349 -12.0219,-16.61766 -3.863881,1.48272 -30.578821,52.01542 -35.907916,67.92171 -2.653178,7.9192 -3.029573,10.31284 -2.714493,17.26252 0.81056,17.87841 13.059206,32.0971 31.075674,36.07383 6.325725,1.39627 10.393645,1.25682 18.997705,-0.6512 z m 157.97467,-7.76888 c -2.90206,-1.07519 -6.72706,-2.86184 -8.5,-3.97034 -4.2209,-2.63905 -139.9217,-138.46591 -143.28492,-143.41804 -4.86618,-7.16512 -6.62265,-14.16196 -6.19984,-24.69691 0.694,-17.29224 -6.57111,-8.89212 100.13831,-115.78282 51.76761,-51.855554 95.14126,-94.543304 96.38591,-94.861669 2.9277,-0.748873 5.23701,1.211792 5.23701,4.446368 0,1.962109 -3.6332,6.215924 -15.61668,18.284262 -8.58917,8.65 -15.35236,16.154936 -15.02931,16.677637 0.32304,0.522701 3.05448,1.204995 6.06986,1.516209 3.01538,0.311215 8.31607,1.803168 11.77932,3.315452 5.85703,2.557571 11.03669,7.469371 74.16238,70.327081 37.32606,37.16762 69.84211,70.2193 72.25788,73.4482 9.44807,12.62818 11.0063,28.93274 4.09507,42.84881 -3.41005,6.86628 -7.61523,11.26724 -73.91713,77.35854 -66.06802,65.85815 -70.6928,70.25095 -76.80139,72.94904 -8.7049,3.84485 -22.69295,4.55305 -30.77647,1.55818 z m 27.48299,-10.90287 C 307.45069,423.1926 441.62605,289.64579 445.0699,282.5 c 1.79343,-3.72125 2.50318,-7.12656 2.77519,-13.31499 0.65844,-14.98002 4.1811,-10.76881 -75.55146,-90.319 -65.83389,-65.68332 -70.09532,-69.73151 -75.11122,-71.35282 -6.85273,-2.21503 -18.99329,-1.74374 -24.68241,0.95816 -3.59815,1.70885 -56.06295,52.8326 -124.76487,121.57577 -22.0336,22.04683 -24.16439,25.39348 -24.16439,37.95288 0,14.5373 -3.07082,10.87571 73.23334,87.32208 37.73437,37.80469 69.65631,68.98523 72.12527,70.45013 9.8773,5.86046 21.13785,6.37641 30.77717,1.41021 z M 281.03518,324.06574 C 280.46583,323.0019 280,321.55792 280,320.85691 c 0,-1.37948 54.32214,-56.3464 57.31706,-57.99738 2.452,-1.35169 6.68294,1.42396 6.68294,4.38426 0,3.04974 -56.55319,58.65597 -59.71482,58.71492 -1.21815,0.0227 -2.68065,-0.82913 -3.25,-1.89297 z M 255.57143,298.42857 C 254.70714,297.56429 254,296.09143 254,295.15555 254,293.0278 311.0078,236 313.1348,236 c 2.33282,0 5.13453,3.57604 4.46196,5.69514 C 316.7245,244.44338 260.68103,300 258.78096,300 c -0.90096,0 -2.34525,-0.70714 -3.20953,-1.57143 z M 229.75,272.9199 c -0.98112,-0.57145 -1.75151,-2.20569 -1.75344,-3.71959 -0.003,-2.20747 5.1686,-7.85632 28.33437,-30.95031 18.29394,-18.23725 29.05045,-28.25 30.34845,-28.25 2.71375,0 5.6468,3.39695 4.91738,5.69514 -0.8295,2.61351 -56.8739,58.31119 -58.63723,58.27445 -0.80274,-0.0167 -2.24703,-0.48908 -3.20953,-1.04969 z"
         id="path3471" />
      <path
         style="fill:#2e2e2e"
         d="M 93.902005,455.49716 C 84.707396,453.66478 75.631113,448.79111 68.925718,442.08572 55.425304,428.5853 51.520087,410.50064 57.956611,391.2889 c 5.363342,-16.00851 16.807679,-38.71168 33.31036,-66.0808 8.868259,-14.70769 10.991399,-16.94447 14.114989,-14.87048 5.57635,3.70255 37.38864,62.68711 43.23419,80.16238 6.72469,20.10346 2.87236,37.96801 -11.22809,52.06846 -6.66601,6.66601 -17.18801,11.85147 -27.07961,13.3454 -8.3921,1.26746 -7.89186,1.28016 -16.406445,-0.4167 z m 26.461015,-11.43178 c 16.05213,-7.66098 25.62468,-24.9942 22.76604,-41.22297 -2.06907,-11.7463 -15.83539,-41.28293 -31.50321,-67.59241 -6.55763,-11.0116 -8.25028,-12.61238 -10.48678,-9.91757 -2.575547,3.10334 -18.501993,31.7968 -25.077421,45.18006 -14.26235,29.02881 -16.014536,40.10479 -8.689211,54.92658 4.038754,8.17187 9.892666,14.12612 17.873485,18.17987 6.89486,3.50214 11.250231,4.35008 20.360467,3.96391 6.59592,-0.27958 9.34553,-0.935 14.75663,-3.51747 z m 157.53722,-5.07861 c -2.52987,-0.4279 -7.25487,-2.00965 -10.5,-3.515 -5.24369,-2.43245 -13.6651,-10.53938 -75.68056,-72.85439 -65.82304,-66.14099 -69.99064,-70.53852 -73.48913,-77.54352 -3.50546,-7.01898 -3.70845,-7.95108 -3.70229,-17 0.006,-8.86733 0.26352,-10.11037 3.48913,-16.84382 3.34689,-6.98665 7.14418,-10.93229 97.4429,-101.25 C 280.12949,85.297243 310.07202,56 311.51029,56 313.93857,56 316,57.769616 316,59.854163 c 0,0.799789 -7.27921,8.820577 -16.17603,17.823973 -11.11394,11.247083 -15.85321,16.692623 -15.14446,17.401369 0.56735,0.567358 3.7928,1.42186 7.16766,1.898893 13.82521,1.954181 11.25957,-0.263897 85.96579,74.320262 37.57213,37.51073 69.80332,70.22634 71.62486,72.70134 5.65946,7.68973 7.81758,15.31326 7.41191,26.18237 -0.63442,16.9979 3.32834,12.23992 -77.05615,92.5193 -75.86308,75.76389 -73.63258,73.8024 -86.75323,76.29068 -5.93676,1.12588 -8.45601,1.12495 -15.14011,-0.006 z M 300,427.78646 c 4.5555,-2.24755 17.45803,-14.69783 75.13354,-72.5 66.80713,-66.95385 69.72344,-70.03 71.84862,-75.78646 1.75263,-4.74735 2.12408,-7.47285 1.77918,-13.05473 -0.82298,-13.31919 0.8395,-11.39252 -76.04338,-88.12744 -65.65793,-65.53157 -69.51562,-69.19361 -75.00547,-71.20129 -7.52565,-2.75219 -15.90816,-2.75043 -23.42498,0.005 -5.48449,2.01038 -9.44516,5.76706 -75.64609,71.75 -78.70838,78.4492 -75.64195,74.83583 -75.63751,89.12854 0.004,13.7259 -2.56735,10.65484 71.99609,85.97895 36.575,36.94812 68.59942,68.72838 71.16538,70.62278 6.93002,5.11632 11.15236,6.38844 20.33462,6.12649 6.37933,-0.18199 9.11421,-0.77794 13.5,-2.94176 z M 281.66667,324.33333 c -2.44399,-2.44398 0.68894,-6.20147 27.5898,-33.08991 C 324.79752,275.70954 338.24242,263 339.13402,263 c 2.39161,0 4.17118,2.65168 3.51462,5.23701 -0.31608,1.24465 -12.87268,14.52549 -27.90356,29.51299 -21.41141,21.34962 -27.87916,27.25 -29.87031,27.25 -1.39779,0 -2.84144,-0.3 -3.2081,-0.66667 z m -26.3059,-26.83557 c -0.31706,-0.82623 -0.31612,-2.53952 0.002,-3.80731 C 256.11148,290.70765 310.59463,237 312.87186,237 c 2.31205,0 4.1217,1.93734 4.15669,4.45 0.0192,1.3816 -9.16903,11.09787 -28.18061,29.8 -28.24542,27.78566 -31.82144,30.5886 -33.48717,26.24776 z m -25.6941,-25.16443 C 229.3,271.96667 229,270.49345 229,269.05951 229,265.16763 283.36598,211 287.27212,211 c 2.0648,0 2.84186,0.60597 3.34433,2.60796 0.596,2.37464 -1.88447,5.14818 -27.72437,31 -27.01958,27.03207 -30.78043,30.17036 -33.22541,27.72537 z"
         id="path3469" />
      <path
         style="fill:#060606"
         d="m 95,454.86446 c -24.212214,-3.96965 -42.73718,-28.97065 -38.964608,-52.58601 2.414436,-15.11376 14.942316,-41.76282 36.230013,-77.06777 8.337835,-13.82802 10.366785,-16.00512 12.974625,-13.92193 3.35325,2.67863 22.11635,35.11116 31.89473,55.1309 13.23001,27.08644 16.19852,40.05713 12.38873,54.13162 -4.6714,17.25757 -20.68021,31.5516 -38.52349,34.39707 -7.35768,1.17333 -8.36404,1.16805 -16,-0.0839 z m 23,-8.72447 c 11.47146,-4.43371 20.88785,-14.35124 24.53832,-25.84425 C 145.187,411.95677 144.8825,403.16188 141.61061,393.5 136.06276,377.11726 108.3158,324.82589 104.36644,323.31037 102.13153,322.45276 99.944738,325.14883 92.451677,338 77.192366,364.17087 65.308495,389.86062 62.975298,401.72003 59.083325,421.50255 72.20923,441.57196 93,447.62758 c 6.28492,1.83058 18.25818,1.11813 25,-1.48759 z m 157.18439,-8.7021 c -2.92358,-0.78676 -7.19858,-2.54031 -9.5,-3.89676 -2.30141,-1.35646 -35.72183,-34.09562 -74.26758,-72.75371 C 125.75307,294.93233 121.1509,290.09011 118.43614,284 c -2.53717,-5.6917 -2.89748,-7.68136 -2.89748,-16 0,-8.31501 0.36106,-10.31078 2.89463,-16 2.73257,-6.13609 8.16212,-11.77848 96.98067,-100.78226 79.728,-79.894278 94.46625,-94.239184 96.57749,-93.999999 5.48018,0.620856 3.59705,3.552788 -13.03658,20.297291 -10.00171,10.068369 -16.0232,16.864512 -15.69652,17.715833 0.32015,0.834296 3.37104,1.820913 7.70532,2.491797 14.70938,2.2768 11.63853,-0.378279 88.65192,76.649058 76.50706,76.52091 73.91847,73.54642 76.39847,87.78759 1.42889,8.20533 0.1666,15.94336 -3.97067,24.34069 -2.56768,5.21156 -12.12751,15.15216 -72.74976,75.64745 -46.8563,46.75816 -71.18035,70.34001 -74.01313,71.75476 -9.82626,4.90746 -20.38795,6.14825 -30.09611,3.53568 z m 24.95428,-8.77883 c 4.29615,-2.1512 19.10063,-16.34112 74.5151,-71.42181 78.30997,-77.8383 74.84623,-73.73073 74.84623,-88.75828 0,-15.18399 3.14784,-11.44141 -76.20637,-90.60453 C 295.05022,99.819445 300.62628,104.47813 285.5,104.52455 c -6.0438,0.0185 -9.16193,0.55518 -12.75179,2.19456 -3.71663,1.69728 -19.58023,16.83216 -72.82059,69.47545 -37.43785,37.01799 -69.09711,68.65544 -70.35393,70.30544 -5.79953,7.61386 -7.06828,11.47427 -7.06612,21.5 0.002,8.49036 0.30505,10.08453 2.85313,15 2.2705,4.37999 16.52423,19.21133 69.9952,72.83165 36.92925,37.03241 68.94652,68.59079 71.14949,70.12974 6.55733,4.58084 12.05256,6.10493 20.63328,5.7226 5.81669,-0.25917 8.91747,-0.98068 13,-3.02493 z M 283.25,324.28504 c -3.88563,-1.40413 -0.54228,-5.50582 26.60741,-32.64252 28.46085,-28.44723 31.15845,-30.53316 31.98208,-24.73016 0.28217,1.98806 -4.34002,6.96729 -27.37518,29.48978 -15.24307,14.90382 -28.22084,27.37613 -28.83949,27.71623 -0.61865,0.34011 -1.68732,0.41511 -2.37482,0.16667 z m -27.67842,-27.95909 c -0.91275,-2.3786 55.04144,-58.5164 57.9182,-58.10826 5.35013,0.75907 2.87113,3.90806 -25.1323,31.9249 -27.76177,27.77506 -31.13986,30.47286 -32.7859,26.18336 z m -25.96101,-25.89839 c -0.33187,-0.86485 -0.18936,-2.32735 0.31669,-3.25 0.50605,-0.92266 13.06363,-13.7517 27.90574,-28.50899 21.93151,-21.80618 27.42212,-26.76936 29.31611,-26.5 5.73221,0.81522 3.58741,3.58139 -24.79163,31.97402 -27.61652,27.62973 -31.14427,30.46136 -32.74691,26.28497 z"
         id="path3467" />
    </g>
  </g>
</svg>
