<svg xmlns="http://www.w3.org/2000/svg" viewBox="0 0 192 192"><path d="m44.919 90.262 52.652-52.793a14.856 14.856 0 0 1 6.673-3.861 14.797 14.797 0 0 1 7.7.008 14.863 14.863 0 0 1 6.664 3.876L171.146 90.4a14.989 14.989 0 0 1 4.346 10.574 14.992 14.992 0 0 1-4.369 10.565l-52.652 52.793a14.846 14.846 0 0 1-10.523 4.367 14.848 14.848 0 0 1-10.514-4.39l-52.538-52.908a14.989 14.989 0 0 1-4.346-10.574 14.988 14.988 0 0 1 4.369-10.565m52.652-52.793L118.484 16.5m-21.486 95.452 22.045-22.104m-11.537 32.686 22.045-22.104m-43.06.941 22.045-22.104M52.51 157.408c0-9.992-18.005-38.139-18.005-38.139S16.5 147.416 16.5 157.408a18.157 18.157 0 0 0 3.418 10.664 18.016 18.016 0 0 0 9.012 6.596 17.927 17.927 0 0 0 11.149 0 18.007 18.007 0 0 0 9.012-6.596 18.158 18.158 0 0 0 3.419-10.664Z" fill="none" stroke="#000" stroke-width="12" stroke-linecap="round" stroke-linejoin="round"/></svg>