<?xml version="1.0" encoding="UTF-8"?>
<svg id="vector" version="1.1" viewBox="0 0 192 192" xmlns="http://www.w3.org/2000/svg">
 <path id="path" d="m27.363 171.1c-3.2739-1.78-3.1979-2.154 4.5479-22.295l4.6069-11.981-1.727-2.591c-12.205-18.298-15.478-42.423-8.6108-63.453 3.7209-11.393 9.0378-20.004 17.95-29.071 14.259-14.506 31.468-21.707 51.875-21.707 20.408 0 37.617 7.201 51.876 21.707 11.605 11.807 18.304 24.964 20.643 40.545 5.8679 39.092-18.976 74.925-57.874 83.476-6.5178 1.433-22.858 1.411-29.509-0.04-8.4798-1.85-17.19-5.257-23.293-9.113l-2.5779-1.629-12.711 8.535c-6.9898 4.694-12.91 8.524-13.153 8.511-0.244-0.016-1.163-0.416-2.042-0.894zm85.159-28.871 5.2929-0.689 0.39399-2.107c0.21799-1.158 0.019-4.478-0.43799-7.377l-0.83398-5.271-6.0679 0.18999c-7.1728 0.225-9.4988-0.68399-11.497-4.495-1.148-2.191-1.259-3.624-1.432-18.628-0.109-9.446-0.41699-16.113-0.73498-15.916-0.30099 0.186-2.8099 0.861-5.5759 1.5-2.7659 0.638-6.2579 1.451-7.7598 1.805-1.501 0.353-3.3439 0.783-4.0949 0.953-1.361 0.31-1.365 0.35-1.36 12.594 7e-3 20.509 1.338 26.82 6.6658 31.637 4.3479 3.931 9.5138 5.834 17.902 6.595 2.026 0.183 2.107 0.177 9.5398-0.791zm2.6339-60.799c0.54898-1.732 0.54898-10.165 0-11.897-0.41099-1.294-0.69898-1.337-8.8638-1.337h-8.4388l-0.166-10.777c-0.165-10.688-0.177-10.777-1.517-10.777-1.047 0-4.2389 3.692-14.176 16.393-7.0548 9.016-12.96 16.734-13.125 17.152-0.164 0.417-0.141 1.169 0.051 1.67 0.30199 0.787 3.4349 0.91 23.079 0.91h22.73l0.42399-1.337z" fill="none" stroke="#000" stroke-linecap="round" stroke-linejoin="round" stroke-width="8"/>
</svg>
