<svg xmlns="http://www.w3.org/2000/svg" viewBox="0 0 192 192"><path fill="none" stroke="#000" stroke-linecap="round" stroke-linejoin="round" stroke-width="8" d="M27.363 171.1c-3.274-1.78-3.198-2.154 4.548-22.295l4.607-11.981-1.727-2.591C22.586 115.935 19.313 91.81 26.18 70.78c3.72-11.393 9.038-20.004 17.95-29.071 14.259-14.506 31.468-21.707 51.875-21.707 20.408 0 37.617 7.201 51.876 21.707 11.605 11.807 18.304 24.964 20.643 40.545 5.868 39.092-18.976 74.925-57.874 83.476-6.518 1.433-22.858 1.411-29.509-.04-8.48-1.85-17.19-5.257-23.293-9.113l-2.578-1.629-12.71 8.535c-6.99 4.694-12.91 8.524-13.154 8.511-.244-.016-1.163-.416-2.042-.894zm85.159-28.871 5.293-.689.394-2.107c.218-1.158.019-4.478-.438-7.377l-.834-5.271-6.068.19c-7.173.225-9.499-.684-11.497-4.495-1.148-2.191-1.259-3.624-1.432-18.628-.109-9.446-.417-16.113-.735-15.916-.3.186-2.81.861-5.576 1.5-2.766.638-6.258 1.451-7.76 1.805-1.5.353-3.344.783-4.095.953-1.36.31-1.365.35-1.36 12.594.007 20.509 1.338 26.82 6.666 31.637 4.348 3.931 9.514 5.834 17.902 6.595 2.026.183 2.107.177 9.54-.791zm2.634-60.799c.549-1.732.549-10.165 0-11.897-.411-1.294-.7-1.337-8.864-1.337h-8.439l-.166-10.777c-.165-10.688-.177-10.777-1.517-10.777-1.047 0-4.239 3.692-14.176 16.393-7.054 9.016-12.96 16.734-13.125 17.152-.164.417-.14 1.169.051 1.67.302.787 3.435.91 23.08.91h22.73l.423-1.337z"/></svg>