<svg width="24" height="24" fill="none" viewBox="0 0 24 24" xmlns="http://www.w3.org/2000/svg"><path d="M3.176 21.919a1.33 1.33 0 0 1-.854-.469 1.382 1.382 0 0 1-.304-.723c-.024-.19-.024-9.253 0-9.521.046-.524.17-1.012.388-1.523.125-.294.139-.32.294-.563.412-.645.826-1.08 1.421-1.494.087-.06.222-.157.299-.215.077-.057.254-.183.393-.278.139-.096.314-.22.388-.274.075-.055.221-.16.326-.231.244-.167.674-.471 1.043-.737.16-.115.37-.264.469-.332l.39-.272.375-.264c.09-.064.285-.2.43-.306l.795-.562a267.194 267.194 0 0 0 1.532-1.084 483.048 483.048 0 0 1 1.032-.733c.357-.255.381-.272.404-.272.028 0 .081.034.236.15.068.051.195.14.281.198.087.057.258.177.381.265s.281.198.351.245c.07.047.238.165.373.262a137.572 137.572 0 0 0 .899.644c.077.056.29.206.472.333a126.442 126.442 0 0 1 1.126.795 1292.585 1292.585 0 0 1 .943.666c.073.05.349.245.613.433.994.706 1.17.83 1.576 1.108.098.067.25.176.337.24.086.065.22.163.298.217.402.28.852.7 1.084 1.01.16.212.392.563.477.72.175.317.365.847.449 1.241.107.509.099.095.104 5.315.006 5.184.012 4.86-.087 5.132-.074.205-.155.33-.322.498-.115.116-.19.175-.278.22a1.477 1.477 0 0 1-.49.16c-.09.012-.866.017-2.353.014l-2.219-.005-.016-8.726-.038-.124c-.104-.334-.306-.587-.715-.893-.14-.104-.49-.375-1.2-.929a241.006 241.006 0 0 0-1.514-1.171c-.4-.309-.534-.416-.685-.55a.776.776 0 0 0-.126-.1c-.016 0-.677.497-.979.736-.104.083-.235.184-.29.224a393.179 393.179 0 0 1-2.25 1.737c-.44.34-.566.472-.688.722-.156.32-.14-.191-.145 4.71-.003 3.13-.01 4.334-.023 4.35-.015.018-.394.022-2.157.02a122.3 122.3 0 0 1-2.245-.014z" fill="#000"/></svg>