<svg xmlns="http://www.w3.org/2000/svg" viewBox="0 0 192 192"><path d="M36.538 133.416C23.568 127.864 16 114.018 16 95.842c0-24.703 16.504-43.566 34.202-39.09 6.639 1.679 16.083 10.816 19.365 18.736 12.839 30.977-8.512 68.422-33.029 57.928Zm15.455-26.926c3.904-5.847 4.574-9.567 2.895-16.06-1.63-6.303-8.678-11.557-12.84-9.571-5.018 2.394-8.508 8.409-8.508 14.662 0 12.981 12.248 20.262 18.453 10.969Zm33.678 23.677c-4.35-3.181-8.822-7.662-9.937-9.956-1.817-3.738-1.798-4.644.183-8.719 2.718-5.592 5.694-5.712 13.58-.547l6.108 4.001 6.107-4.001c7.436-4.87 10.332-5.017 13.247-.674 3.033 4.519 2.806 8.064-.803 12.527-3.492 4.318-16.274 13.274-18.844 13.202-.952-.027-5.291-2.652-9.641-5.833Zm55.133 4.219c-23.377-7.898-31.026-45.476-13.651-67.068 12.542-15.585 28.325-15.034 40.153 1.402 14.565 20.239 10.33 50.125-8.962 63.251-4.024 2.737-12.949 3.966-17.54 2.415Zm13.553-28.268c8.504-11.465-.118-29.729-11.507-24.376-4.928 2.316-6.769 6.38-6.769 14.947 0 12.43 11.608 18.419 18.276 9.429Z"/></svg>