<svg
    xmlns="http://www.w3.org/2000/svg"
    viewBox="0 0 192 192"
    id="vector">
    <g id="group">
        <path
            id="path"
            d="M 36.538 133.416 C 23.568 127.864 16 114.018 16 95.842 C 16 71.139 32.504 52.276 50.202 56.752 C 56.841 58.431 66.285 67.568 69.567 75.488 C 82.406 106.465 61.055 143.91 36.538 133.416 Z M 51.993 106.49 C 55.897 100.643 56.567 96.923 54.888 90.43 C 53.258 84.127 46.21 78.873 42.048 80.859 C 37.03 83.253 33.54 89.268 33.54 95.521 C 33.54 108.502 45.788 115.783 51.993 106.49 Z M 85.671 130.167 C 81.321 126.986 76.849 122.505 75.734 120.211 C 73.917 116.473 73.936 115.567 75.917 111.492 C 78.635 105.9 81.611 105.78 89.497 110.945 L 95.605 114.946 L 101.712 110.945 C 109.148 106.075 112.044 105.928 114.959 110.271 C 117.992 114.79 117.765 118.335 114.156 122.798 C 110.664 127.116 97.882 136.072 95.312 136 C 94.36 135.973 90.021 133.348 85.671 130.167 Z M 140.804 134.386 C 117.427 126.488 109.778 88.91 127.153 67.318 C 139.695 51.733 155.478 52.284 167.306 68.72 C 181.871 88.959 177.636 118.845 158.344 131.971 C 154.32 134.708 145.395 135.937 140.804 134.386 Z M 154.357 106.118 C 162.861 94.653 154.239 76.389 142.85 81.742 C 137.922 84.058 136.081 88.122 136.081 96.689 C 136.081 109.119 147.689 115.108 154.357 106.118 Z"
            fill="#000000"
            stroke-width="12"/>
    </g>
</svg>
