<svg xmlns="http://www.w3.org/2000/svg" viewBox="0 0 192 192"><path d="M166.905 16.5H25.095a8.599 8.599 0 0 0-6.078 2.517 8.599 8.599 0 0 0-2.517 6.078v141.81a8.6 8.6 0 0 0 4.297 7.444 8.6 8.6 0 0 0 4.298 1.151h141.81a8.6 8.6 0 0 0 7.444-4.297 8.6 8.6 0 0 0 1.151-4.298V25.095a8.6 8.6 0 0 0-4.297-7.444 8.6 8.6 0 0 0-4.298-1.151Z" fill="none" stroke="#000" stroke-width="12" stroke-linecap="round" stroke-linejoin="round"/><path d="M74.78 61.075c-3.611 0-7.078 1.319-9.631 3.663-2.553 2.345-3.989 5.528-3.989 8.843 0 3.316 1.436 6.499 3.989 8.844 2.553 2.344 6.02 3.662 9.631 3.662 3.611 0 7.078-1.318 9.632-3.662 2.553-2.345 3.989-5.528 3.989-8.844 0-3.315-1.436-6.498-3.989-8.843-2.554-2.344-6.021-3.663-9.632-3.663Zm30.993 19.129V68.386a50.726 50.726 0 0 1 26.57.665v11.732a48.994 48.994 0 0 0-26.57-.581Zm28.903 27.128v8.063a55.195 55.195 0 0 1-38.798 15.526 55.197 55.197 0 0 1-38.554-16.122v-8.059s40.983 28.641 77.352.593Z" fill="none" stroke="#000" stroke-width="12" stroke-linecap="round" stroke-linejoin="round"/></svg>