<svg
    xmlns="http://www.w3.org/2000/svg"
    viewBox="0 0 192 192"
    id="vector">
    <path
        id="path"
        d="M 166.905 16.5 L 25.095 16.5 C 22.816 16.5 20.628 17.406 19.017 19.017 C 17.406 20.628 16.5 22.816 16.5 25.095 L 16.5 166.905 C 16.5 168.414 16.897 169.896 17.651 171.203 C 18.406 172.509 19.491 173.594 20.797 174.349 C 22.104 175.103 23.586 175.5 25.095 175.5 L 166.905 175.5 C 168.414 175.5 169.896 175.103 171.203 174.349 C 172.509 173.594 173.594 172.509 174.349 171.203 C 175.103 169.896 175.5 168.414 175.5 166.905 L 175.5 25.095 C 175.5 23.586 175.103 22.104 174.349 20.797 C 173.594 19.491 172.509 18.406 171.203 17.651 C 169.896 16.897 168.414 16.5 166.905 16.5 Z"
        fill="none"
        stroke="#000000"
        stroke-width="12"
        stroke-linecap="round"
        stroke-linejoin="round"/>
    <path
        id="path_1"
        d="M 74.78 61.075 C 71.169 61.075 67.702 62.394 65.149 64.738 C 62.596 67.083 61.16 70.266 61.16 73.581 C 61.16 76.897 62.596 80.08 65.149 82.425 C 67.702 84.769 71.169 86.087 74.78 86.087 C 78.391 86.087 81.858 84.769 84.412 82.425 C 86.965 80.08 88.401 76.897 88.401 73.581 C 88.401 70.266 86.965 67.083 84.412 64.738 C 81.858 62.394 78.391 61.075 74.78 61.075 Z M 105.773 80.204 L 105.773 68.386 C 114.531 66.242 123.704 66.472 132.343 69.051 L 132.343 80.783 C 123.71 78.145 114.513 77.944 105.773 80.202 Z M 134.676 107.332 L 134.676 115.395 C 124.283 125.453 110.341 131.033 95.878 130.921 C 81.416 130.81 67.561 125.016 57.324 114.799 L 57.324 106.74 C 57.324 106.74 98.307 135.381 134.676 107.333 Z"
        fill="none"
        stroke="#000000"
        stroke-width="12"
        stroke-linecap="round"
        stroke-linejoin="round"/>
</svg>
