<svg xmlns="http://www.w3.org/2000/svg" viewBox="0 0 192 192"><path d="M29.267 144.759c-4.801-1.322-7.974-3.957-10.012-8.315-4.517-9.663-4.26-72.642.332-81.278 4.092-7.695 6.502-8.502 27.01-9.043 21.748-.575 30.622.816 34.08 5.342 5.272 6.9 5.429 8.19 5.429 44.585 0 28.83-.223 34.208-1.558 37.6-2.738 6.956-5.786 9.883-11.709 11.242-6.732 1.545-37.822 1.45-43.572-.133Zm41.307-13.492c2.385-1.14 3.799-3.025 5.123-6.826 1.598-4.59 1.828-8.162 1.828-28.391 0-36.259-.373-36.791-25.779-36.791-17.147 0-20.841 1.062-23.916 6.874-1.845 3.486-1.971 5.4-1.971 29.917 0 24.517.126 26.431 1.971 29.917 3.075 5.813 6.769 6.874 23.916 6.874 9.567 0 16.798-.605 18.828-1.574Zm-24.482-16.591c-5.59-2.548-11.418-8.332-10.165-10.088.248-.349 1.803.311 3.454 1.466 6.439 4.501 18.403 4.384 24.788-.243 2.582-1.872 2.778-1.856 2.486.2-.798 5.61-14.551 11.405-20.563 8.665Zm-6.359-26.101c-.653-.369-1.605-1.763-2.115-3.099-2.174-5.693 3.101-11.001 7.195-7.241 5.105 4.688.719 13.614-5.08 10.34Zm20.721-2.733c-4.152-.407-4.942-.895-4.942-3.054 0-2.235.674-2.569 5.177-2.569 4.895 0 5.178.179 5.178 3.298 0 1.814-.106 3.188-.236 3.054-.129-.134-2.459-.462-5.177-.729Zm56.458 45.901c-4.234-3.725-4.918-7.143-4.918-24.565V92.092h-3.295c-3.277 0-3.295-.031-3.295-5.937 0-5.69.115-5.936 2.769-5.936 3.331 0 4.09-1.475 4.738-9.208l.495-5.909 4.942-1.535 4.942-1.535v18.187h8.472v11.873h-8.472v14.371c0 15.234.598 17.141 4.79 15.276 1.363-.606 1.911.334 2.754 4.721.579 3.012.804 5.826.5 6.251-.304.426-2.979.993-5.946 1.259-4.229.38-6.058-.1-8.476-2.227Zm27.602-23.432c-3.522-13.637-6.606-25.536-6.854-26.443-.329-1.204 1.042-1.649 5.08-1.649h5.531l3.817 17.48c2.099 9.615 4.166 17.481 4.593 17.481.427 0 2.373-7.62 4.326-16.933 1.952-9.313 3.747-17.211 3.99-17.551.243-.34 2.754-.438 5.582-.218l5.14.4-6.764 25.726-6.765 25.727-5.636.386-5.636.387Z"/><path d="M150.592 132.064c.001-.579 1.547-4.615 3.434-8.968 4.162-9.6 14.439-38.933 14.445-41.228.003-1.035 1.365-1.649 3.659-1.649h3.654l-6.838 26.056-6.838 26.056-5.759.392c-3.168.216-5.758-.08-5.757-.659Z"/></svg>