<svg xmlns="http://www.w3.org/2000/svg" viewBox="0 0 256 256"><path d="M113.604 205.579c-26.56-5.78-47.323-32.968-50.038-65.522-.777-9.318.977-24.698 3.803-33.335 6.863-20.982 21.106-40.694 36.081-49.937 10.482-6.47 16.087-8.047 26.783-7.536 7.911.378 9.701.856 17.277 4.61 7.258 3.596 9.844 5.649 18.314 14.535 11.688 12.263 17.177 21.301 22.51 37.06 7.127 21.065 7.223 34.78.385 55.216-6.541 19.547-17.169 32.599-33.133 40.689-10.318 5.228-28.807 7.087-41.982 4.22Zm25.082-14.879c14.131-3.78 25.088-13.384 32.105-28.139 5.593-11.76 6.699-16.734 6.673-30-.017-9.226-.464-12.371-2.766-19.5-4.53-14.027-9.693-22.984-18.964-32.897-7.96-8.51-14.082-12.879-21.076-15.039-6-1.853-6.729-1.88-11.635-.423-14.481 4.301-31.65 22.978-38.94 42.359-2.763 7.346-5.901 22.263-5.877 27.93.029 6.46 4.255 22.145 8.071 29.956 5.855 11.981 19.424 23.151 31.608 26.019 5.747 1.352 15.204 1.231 20.801-.266Zm-12-12.32c-4.857-1.297-7.272-6.041-5.389-10.587 1.258-3.035 4.306-4.732 8.504-4.732 3.982 0 8.514-2.783 13.987-8.588 5.498-5.832 8.893-6.855 13.062-3.935 5.2 3.643 2.828 12.28-5.35 19.479-6.54 5.756-18.935 9.934-24.814 8.363Z" fill="#020202"/></svg>