<svg
    xmlns="http://www.w3.org/2000/svg"
    viewBox="0 0 192 192"
    id="vector">
    <g id="group">
        <path
            id="path_6"
            d="M 22.523 170.432 C 14.314 162.619 13.767 148.238 21.372 140.157 C 26.241 134.983 26.362 134.08 26.362 102.701 C 26.362 85.016 26.898 68.965 27.554 67.031 C 28.211 65.097 41.009 54.693 55.996 43.911 C 70.983 33.128 85.387 22.437 88.005 20.153 C 90.623 17.869 93.828 16 95.127 16 C 96.426 16 108.559 24.224 122.09 34.276 C 142.782 49.649 147.617 52.344 152.516 51.235 C 159.69 49.613 170.997 54.674 173.899 60.809 C 177.522 68.466 176.383 78.421 171.066 85.568 C 166.184 92.13 166.076 93.082 166.076 129.576 C 166.076 150.091 165.531 168.484 164.865 170.448 C 163.809 173.558 157.82 174.018 118.36 174.018 C 85.793 174.018 72.393 173.257 70.671 171.309 C 69.011 169.432 68.276 157.682 68.276 133.013 C 68.276 100.139 68.57 97.247 72.137 95.089 C 78.227 91.402 119.18 92.068 121.991 95.9 C 123.512 97.972 124.107 107.42 123.732 123.553 L 123.164 148.058 L 116.677 148.766 L 110.19 149.473 L 110.19 108.554 L 82.247 108.554 L 82.247 158.216 L 152.105 158.216 L 152.105 124.508 C 152.105 92.775 151.87 90.715 148.111 89.365 C 143.232 87.614 140.261 81.719 139.598 72.478 C 139.153 66.273 136.747 63.838 117.395 50.018 L 95.692 34.517 L 73.501 50.427 C 61.296 59.178 48.841 68.287 45.822 70.669 L 40.333 75 L 40.333 104.498 C 40.333 132.934 40.51 134.181 45.242 139.142 C 54.99 149.359 54.307 164.558 43.772 171.822 C 35.151 177.768 29.869 177.422 22.523 170.432 Z M 40.185 158.528 C 42.742 153.126 38.541 146.113 33.429 147.248 C 28.696 148.3 25.387 154.347 26.979 159.038 C 28.694 164.093 37.717 163.744 40.185 158.528 Z M 163.933 75.004 C 166.489 69.602 162.289 62.589 157.176 63.724 C 152.443 64.776 149.135 70.823 150.726 75.514 C 152.441 80.569 161.465 80.22 163.933 75.004 Z"
            fill="#000000"
            stroke-width="12"/>
    </g>
</svg>
