<svg xmlns="http://www.w3.org/2000/svg" viewBox="0 0 192 192"><path d="M22.523 170.432c-8.209-7.813-8.756-22.194-1.151-30.275 4.869-5.174 4.99-6.077 4.99-37.456 0-17.685.536-33.736 1.192-35.67.657-1.934 13.455-12.338 28.442-23.12 14.987-10.783 29.391-21.474 32.009-23.758C90.623 17.869 93.828 16 95.127 16c1.299 0 13.432 8.224 26.963 18.276 20.692 15.373 25.527 18.068 30.426 16.959 7.174-1.622 18.481 3.439 21.383 9.574 3.623 7.657 2.484 17.612-2.833 24.759-4.882 6.562-4.99 7.514-4.99 44.008 0 20.515-.545 38.908-1.211 40.872-1.056 3.11-7.045 3.57-46.505 3.57-32.567 0-45.967-.761-47.689-2.709-1.66-1.877-2.395-13.627-2.395-38.296 0-32.874.294-35.766 3.861-37.924 6.09-3.687 47.043-3.021 49.854.811 1.521 2.072 2.116 11.52 1.741 27.653l-.568 24.505-6.487.708-6.487.707v-40.919H82.247v49.662h69.858v-33.708c0-31.733-.235-33.793-3.994-35.143-4.879-1.751-7.85-7.646-8.513-16.887-.445-6.205-2.851-8.64-22.203-22.46L95.692 34.517l-22.191 15.91c-12.205 8.751-24.66 17.86-27.679 20.242L40.333 75v29.498c0 28.436.177 29.683 4.909 34.644 9.748 10.217 9.065 25.416-1.47 32.68-8.621 5.946-13.903 5.6-21.249-1.39Zm17.662-11.904c2.557-5.402-1.644-12.415-6.756-11.28-4.733 1.052-8.042 7.099-6.45 11.79 1.715 5.055 10.738 4.706 13.206-.51Zm123.748-83.524c2.556-5.402-1.644-12.415-6.757-11.28-4.733 1.052-8.041 7.099-6.45 11.79 1.715 5.055 10.739 4.706 13.207-.51Z"/></svg>