<svg xmlns="http://www.w3.org/2000/svg" viewBox="0 0 192 192"><path d="M86.403 175.611c-14.444-1.868-28.404-7.686-40.666-16.947-4.326-3.267-11.24-10.199-13.908-13.944-1.139-1.598-2.496-3.331-3.016-3.851-1.387-1.387-6.201-11.516-7.904-16.628-3.263-9.798-4.051-15.124-4.051-27.39 0-12.279.793-17.634 4.058-27.389 1.438-4.298 4.854-11.696 7.977-17.277 5.338-9.541 14.525-18.518 25.649-25.065 32.543-19.153 73.854-13.097 99.366 14.567 22.087 23.949 27.494 58.976 13.622 88.242-11.846 24.992-35.054 41.887-62.52 45.512-5.067.669-14.11.752-18.607.17Zm19.785-7.378c30.311-4.737 54.169-27.435 60.227-57.3 4.558-22.467-1.678-45.616-16.943-62.902-12.259-13.882-29.618-22.397-49.11-24.089-14.488-1.258-31.768 3.103-44.105 11.132l-2.95 1.92 25.072.116c16.413.076 25.049.262 25.006.538-.036.231-.479 3.265-.984 6.742-.504 3.476-1.024 6.605-1.155 6.952-.131.348-.198 1.041-.15 1.54.048.5-.105 1.027-.34 1.173-.236.145-.317.555-.18.911.136.356.043 1.061-.207 1.567-.251.505-.516 1.299-.589 1.762-.131.831-.5.844-25.515.951l-25.382.109v23.169h45.413l.184 1.255c.101.689.041 1.4-.134 1.58-.175.179-.535 2.317-.799 4.75-.265 2.434-.764 5.657-1.109 7.163a201.164 201.164 0 0 0-1.066 4.959l-.438 2.22-21.078-.113-21.079-.113.214 7.796c.239 8.694.677 10.619 2.951 12.965.916.944 2.222 1.644 4.136 2.214 2.625.781 4.114.833 24.032.839 11.679.003 21.473.158 21.764.343.576.366.277 4.129-.359 4.522-.19.117-.238.491-.107.831.13.34.091.95-.088 1.356-.178.406-.372 1.212-.431 1.791a34.91 34.91 0 0 1-.339 2.318c-.128.695-.571 3.16-.984 5.477-.413 2.318-.904 4.451-1.091 4.741-.266.412-6.018.53-26.336.544l-25.995.017 1.896 1.718c5.654 5.121 15.752 10.856 23.808 13.519 11.58 3.829 22.823 4.817 34.34 3.017Z"/></svg>