<svg
    xmlns="http://www.w3.org/2000/svg"
    viewBox="0 0 192 192"
    id="vector">
    <path
        id="path"
        d="M 118.214 175.5 C 129.085 173.775 148.174 175.322 155.897 152.744 M 155.057 72.189 C 151.257 63.044 144.092 59.305 130.637 58.541 C 106.347 57.16 50.965 64.858 30.744 70.702 C 16.511 74.818 16.498 91.771 16.498 91.771 M 34.467 92.747 L 37.07 142.458 M 51.089 141.715 L 48.491 92.004 L 64.671 91.144 C 69.136 90.981 73.491 92.56 76.787 95.539 C 80.083 98.518 82.062 102.663 82.292 107.069 C 82.523 111.476 80.986 115.8 78.018 119.098 C 75.049 122.396 70.882 124.41 66.423 124.701 L 50.244 125.56 M 95.498 89.51 L 128.476 87.761 M 114.898 138.333 L 112.295 88.621"
        fill="none"
        stroke="#000000"
        stroke-width="8"
        stroke-linecap="round"
        stroke-linejoin="round"/>
    <path
        id="path_1"
        d="M 175.498 85.278 L 161.918 135.849 L 142.515 87.027"
        fill="none"
        stroke="#000000"
        stroke-width="8"
        stroke-linecap="round"
        stroke-linejoin="round"/>
    <path
        id="path_2"
        d="M 80.072 61.797 L 59.698 27.138 M 87.774 60.642 L 95.689 28.795 M 56.9 16.5 C 55.375 16.5 53.911 17.099 52.833 18.163 C 51.755 19.228 51.149 20.674 51.149 22.179 C 51.149 23.685 51.755 25.131 52.833 26.195 C 53.911 27.26 55.375 27.859 56.9 27.859 C 58.424 27.859 59.888 27.26 60.966 26.195 C 62.044 25.131 62.651 23.685 62.651 22.179 C 62.651 20.674 62.044 19.228 60.966 18.163 C 59.888 17.099 58.424 16.5 56.9 16.5 Z M 97.489 17.721 C 95.965 17.721 94.501 18.32 93.423 19.384 C 92.345 20.449 91.738 21.895 91.738 23.4 C 91.738 24.906 92.345 26.351 93.423 27.416 C 94.501 28.481 95.965 29.08 97.489 29.08 C 99.014 29.08 100.478 28.481 101.556 27.416 C 102.634 26.351 103.24 24.906 103.24 23.4 C 103.24 21.895 102.634 20.449 101.556 19.384 C 100.478 18.32 99.014 17.721 97.489 17.721 Z"
        fill="none"
        stroke="#000000"
        stroke-width="8"
        stroke-linecap="round"
        stroke-linejoin="round"/>
</svg>
