<svg xmlns="http://www.w3.org/2000/svg" viewBox="0 0 192 192"><path d="M118.214 175.5c10.871-1.725 29.96-.178 37.683-22.756m-.84-80.555c-3.8-9.145-10.965-12.884-24.42-13.648-24.29-1.381-79.672 6.317-99.893 12.161-14.233 4.116-14.246 21.069-14.246 21.069m17.969.976 2.603 49.711m14.019-.743-2.598-49.711 16.18-.86a17.146 17.146 0 0 1 12.116 4.395 16.725 16.725 0 0 1 5.505 11.53 16.68 16.68 0 0 1-4.274 12.029 17.102 17.102 0 0 1-11.595 5.603l-16.179.859m45.254-36.05 32.978-1.749m-13.578 50.572-2.603-49.712M175.498 85.278l-13.58 50.571-19.403-48.822M80.072 61.797 59.698 27.138m28.076 33.504 7.915-31.847M56.9 16.5a5.793 5.793 0 0 0-4.067 1.663 5.648 5.648 0 0 0-1.684 4.016c0 1.506.606 2.952 1.684 4.016a5.79 5.79 0 0 0 4.067 1.664 5.789 5.789 0 0 0 4.066-1.664 5.645 5.645 0 0 0 1.685-4.016 5.649 5.649 0 0 0-1.685-4.016A5.792 5.792 0 0 0 56.9 16.5Zm40.589 1.221a5.792 5.792 0 0 0-4.066 1.663 5.649 5.649 0 0 0-1.685 4.016c0 1.506.607 2.951 1.685 4.016a5.789 5.789 0 0 0 4.066 1.664 5.79 5.79 0 0 0 4.067-1.664 5.646 5.646 0 0 0 1.684-4.016 5.648 5.648 0 0 0-1.684-4.016 5.793 5.793 0 0 0-4.067-1.663Z" fill="none" stroke="#000" stroke-width="8" stroke-linecap="round" stroke-linejoin="round"/></svg>