<svg xmlns="http://www.w3.org/2000/svg" viewBox="0 0 192 192"><path d="M84.193 173.114c-2.21-2.564-2.567-4.137-3.204-14.08-.693-10.838-.795-11.212-3.188-11.799-1.359-.333-4.651-2.596-7.315-5.03-6.1-5.57-7.983-10.653-7.983-21.544v-8.125h23.876l-.188-2.59c-.151-2.082.366-2.74 2.64-3.353 2.568-.693 2.961-.454 4.264 2.59l1.435 3.353h34.973v7.146c0 13.294-4.854 22.512-13.965 26.523-2.219.977-4.061 2.479-4.091 3.337-.031.858-.407 6.134-.835 11.724-.72 9.397-.983 10.336-3.5 12.449-2.41 2.024-3.733 2.285-11.576 2.285-8.583 0-8.932-.089-11.343-2.886Zm18.671-5.657c.273-.94.785-8.519 1.139-16.843.353-8.323.866-15.902 1.138-16.842.448-1.543-.442-1.708-9.172-1.708H86.3l.576 6.59c.317 3.625.864 11.643 1.215 17.819.351 6.175.838 11.557 1.084 11.96.245.403 3.314.732 6.819.732 5.215 0 6.464-.31 6.87-1.708Zm-23.361-31.374c0-2.971-.433-3.902-2-4.302-1.457-.372-2-1.332-2-3.532v-3.02h13v-5.858h-19v3.668c0 5.681 1.669 10.062 5.179 13.599 1.767 1.78 3.575 3.236 4.017 3.236.442 0 .804-1.706.804-3.791Zm36.385 1.752c3.649-2.802 5.46-6.581 6.234-13.01l.656-5.454H109.14c-14.265 0-14.673.135-13.03 4.314.497 1.264 2.401 1.544 10.5 1.544h9.893v3.02c0 2.2-.544 3.16-2 3.532-1.1.28-2.006 1.228-2.014 2.105-.008.877-.285 2.583-.617 3.792-.752 2.742.582 2.795 4.016.157Zm-17.369-33.37c-3.127-1.958-5.122-2.231-19.5-2.669l-16.016-.488v-6.835h16c14.657 0 16.359.185 20.281 2.197 5.22 2.679 6.21 2.708 10.412.307 2.323-1.329 5.388-1.931 10.307-2.027 10.157-.198 9.664-.367 9.313 3.185l-.313 3.173-7.502.488c-5.621.366-8.292 1.039-10.654 2.685-3.978 2.772-7.881 2.767-12.328-.016ZM63.183 86.513c-1.233-1.204-.708-12.584.81-17.576.82-2.695 2.846-6.727 4.504-8.961 2.729-3.679 9.446-9.257 12.243-10.167.677-.221.241-1.505-1.123-3.307l-2.231-2.946-12.67 1.801c-6.969.99-13.243 1.586-13.942 1.324-1.338-.501-1.813-6.366-.521-6.437.412-.023 6.373-.812 13.245-1.754 9.238-1.266 12.544-2.082 12.683-3.132.897-6.765 1.817-9.225 4.613-12.333 10.063-11.191 27.422-8.618 33.217 4.923 1.482 3.464 1.844 3.705 4.797 3.196 8.549-1.476 20.904-2.706 22.22-2.213 1.543.578 2.057 5.029.677 5.862-.439.265-6.551 1.235-13.581 2.154-12.196 1.596-12.825 1.79-13.709 4.214-.509 1.398-1.659 3.809-2.555 5.357-1.485 2.568-1.489 2.893-.04 3.684 5.977 3.267 10.48 7.825 13.575 13.741 3.003 5.744 3.404 7.415 3.5 14.603l.108 8.116-32.57.258c-17.914.141-32.876-.042-33.25-.407Zm58.569-10.333c-.451-5.724-3.264-11.25-7.809-15.341-6.589-5.93-8.666-6.436-13.524-3.298-3.896 2.518-4.098 2.545-7.212.972-1.762-.89-3.955-2.145-4.873-2.789-2.295-1.611-10.289 3.239-14.019 8.505-2.954 4.17-5.485 11.99-4.606 14.228.447 1.137 4.964 1.332 26.416 1.14l25.878-.23Zm-15.803-2.784c-1.031-1.628 1.287-3.494 2.667-2.148 1.154 1.127.431 3.21-1.113 3.21-.485 0-1.185-.478-1.554-1.062Zm5.212-4.479c-.362-.354-.658-1.229-.658-1.945 0-1.454 2.578-1.782 3.43-.436.68 1.075-1.868 3.264-2.772 2.381Zm-7.485-2.914c.421-2.136 3.327-2.439 3.327-.346 0 .798-.829 1.607-1.841 1.798-1.336.251-1.744-.147-1.486-1.452Zm-3.002-17.828c8.452-7.264 9.889-15.492 3.752-21.484-10.507-10.259-26.471 2.902-18.858 15.547 1.908 3.169 8.653 9.716 10.044 9.749.335.008 2.613-1.707 5.062-3.812Zm-8.949-8.433c-4.117-2.816-2.243-10.955 2.599-11.289 4.978-.343 8.179 2.054 8.179 6.125 0 5.528-6.024 8.414-10.778 5.164Z"/></svg>