<svg width="24" height="24" fill="none" viewBox="0 0 24 24" xmlns="http://www.w3.org/2000/svg"><path d="M11.822 21.971c-.343-.1-.553-.474-.446-.796.093-.284.3-.417.85-.55.272-.065.494-.132.494-.148 0-.017-.505-.155-1.124-.306-1.774-.436-2.162-.592-2.39-.962-.14-.226-.138-.605.004-.835.124-.2.435-.396.767-.484.126-.033.935-.148 1.798-.255.862-.107 1.578-.204 1.59-.216.01-.011-1.202-.295-2.695-.63-1.493-.335-2.834-.663-2.981-.73-.314-.14-.483-.308-.552-.548-.098-.344.118-.732.492-.88.095-.038.692-.078 1.55-.105 5.312-.163 9.107-.938 10.45-2.134.511-.456.606-.812.479-1.794-.453-3.497-3.28-6.52-6.75-7.216-.7-.14-2.188-.126-2.912.029-1.124.24-2.054.626-2.972 1.234A8.161 8.161 0 0 0 3.85 10.96c-.016.301-.052.623-.08.715-.15.492-.914.531-1.17.06-.05-.091-.062-.3-.043-.796.113-3.05 1.809-5.918 4.48-7.577a9.768 9.768 0 0 1 3.096-1.222c.596-.127.748-.139 1.838-.14 1.346 0 1.751.06 2.874.435 3.639 1.21 6.454 4.863 6.596 8.557.025.646.014.83-.06 1.086-.5 1.73-2.97 2.852-7.549 3.43-.455.057-1.066.12-1.36.14-.292.02-.513.053-.49.074.022.02.855.217 1.85.438.995.22 1.926.446 2.068.502.536.209.75.473.75.924 0 .246-.019.285-.22.488a1.16 1.16 0 0 1-.505.306c-.156.048-1.069.184-2.028.303-.96.12-1.744.229-1.745.244 0 .015.406.128.902.25 1.296.321 1.744.558 1.919 1.016.175.458-.021.903-.51 1.154-.13.067-.697.236-1.26.375-1.264.314-1.2.302-1.38.25z" fill="#000"/></svg>