<svg xmlns="http://www.w3.org/2000/svg" viewBox="0 0 192 192"><path d="m31.657 168.893-.235-7.106-3.249-.406c-2.572-.322-3.249-.745-3.249-2.031 0-1.505.619-1.641 8.462-1.857 5.911-.163 8.642.06 9.062.738 1.088 1.761-.156 3.056-3.177 3.308l-2.976.248-.235 7.106c-.228 6.914-.288 7.107-2.202 7.107-1.913 0-1.973-.193-2.201-7.107Zm17.594 5.965c-3.448-1.502-5.24-4.595-5.24-9.044 0-3.035.439-4.185 2.314-6.06 3.071-3.072 7.201-3.817 11.043-1.994 7.133 3.384 7.07 13.507-.104 16.929-3.287 1.567-4.734 1.598-8.013.169Zm6.618-4.353c2.102-1.403 2.869-4.21 1.777-6.5-1.467-3.076-6.371-3.587-8.279-.864-1.628 2.325-1.636 3.89-.031 6.181 1.26 1.798 4.683 2.418 6.533 1.183Zm11.452 4.982c-.849-.85-.688-12.065.208-14.421 1.471-3.867 7.357-5.618 11.388-3.386 1.723.954 2.351.939 4.363-.101 3.283-1.698 7.254-.781 9.819 2.267 1.845 2.193 2.079 3.191 2.079 8.859 0 6.613-.532 7.751-3.224 6.897-1.374-.436-1.616-1.387-1.82-7.159-.234-6.628-.245-6.657-2.518-6.918-3.761-.431-4.621.987-4.621 7.623 0 6.181-.558 7.3-3.223 6.454-1.375-.436-1.617-1.387-1.821-7.159l-.235-6.656-2.332-.267c-3.397-.388-4.119.844-4.571 7.809-.311 4.78-.702 6.306-1.664 6.488-.692.132-1.514-.017-1.828-.33Zm35.979-6.797v-7.309h-3.249c-2.924 0-3.248-.203-3.248-2.031v-2.03h17.868v2.03c0 1.828-.325 2.031-3.249 2.031h-3.249V176H103.3Zm18.087 6.106c-3.009-1.308-5.897-5.529-5.901-8.625-.007-4.472 5.216-9.639 9.743-9.639s9.749 5.167 9.743 9.639c-.005 3.177-2.929 7.343-6.08 8.66-3.406 1.423-4.16 1.419-7.505-.035Zm7.23-5.013c1.849-1.674 1.916-4.955.141-6.917-2.789-3.082-8.402-.913-8.402 3.247 0 4.344 5.041 6.584 8.261 3.67Zm10.183 5.71c-.317-.317-.576-3.202-.576-6.412 0-4.73.351-6.358 1.855-8.595 2.401-3.574 6.549-4.767 10.215-2.938 2.314 1.154 2.785 1.154 5.098 0 3.686-1.839 7.813-.637 10.247 2.984 1.629 2.424 1.854 3.639 1.652 8.934-.227 5.933-.299 6.128-2.265 6.128-1.963 0-2.039-.202-2.273-6.055-.262-6.575-1.004-8.158-3.819-8.158-2.814 0-3.556 1.583-3.818 8.158-.234 5.853-.31 6.055-2.273 6.055-1.962 0-2.038-.202-2.272-6.055-.263-6.575-1.004-8.158-3.819-8.158s-3.556 1.583-3.819 8.158c-.215 5.382-.426 6.081-1.9 6.292-.912.131-1.917-.022-2.233-.338ZM22.399 134.97l-2.045-2.045.292-25.772c.262-23.05.455-26.158 1.83-29.427 1.794-4.265 3.923-7.639 6.792-10.762l2.052-2.233h-3.654c-4.696 0-7.209-2.147-7.209-6.16 0-1.981.641-3.488 2.104-4.951 2.011-2.011 2.401-2.085 8.897-1.68l6.794.424 3.784-11.482c4.457-13.521 6.468-17.34 10.654-20.231C59.515 15.937 58.929 16 95.99 16s36.475-.063 43.3 4.651c4.186 2.891 6.198 6.71 10.654 20.231l3.785 11.482 6.793-.424c6.496-.405 6.887-.331 8.898 1.68 4.508 4.508 1.765 11.111-4.615 11.111-3.588 0-3.592-.121.179 5.083 5.922 8.172 6.009 8.679 6.342 37.339l.3 25.772-2.045 2.045c-1.977 1.977-2.399 2.045-12.677 2.045-10.206 0-10.712-.08-12.626-1.993-1.45-1.45-1.993-2.877-1.993-5.232 0-1.78-.274-3.385-.609-3.565-.335-.18-4.447.152-9.137.738-4.691.586-17.483 1.306-28.427 1.6-18.517.496-28.222.061-52.381-2.351-1.365-.136-1.691.462-2.08 3.809-.737 6.354-2.083 6.994-14.701 6.994-10.143 0-10.576-.07-12.551-2.045Zm100.943-17.123c1.261-.938 2.408-2.479 2.549-3.424.253-1.696.125-1.711-9.34-1.137-12.497.758-29.045.74-41.403-.046-9.562-.608-9.865-.577-9.462.963.682 2.61 3.367 4.439 7.41 5.049 2.095.315 13.741.512 25.881.437 21.042-.129 22.18-.215 24.365-1.842ZM43.941 97.66c6.75-3.49 5.943-14.181-1.298-17.206-6.41-2.679-13.252 2.049-13.252 9.158 0 3.134.428 4.135 2.762 6.469 2.253 2.253 3.382 2.762 6.132 2.762 1.853 0 4.399-.532 5.656-1.183Zm114.251-.156c4.66-3.053 5.8-9.864 2.34-13.976-4.049-4.812-10.726-5.071-14.946-.579-3.688 3.925-2.789 11.449 1.748 14.626 2.369 1.66 8.276 1.621 10.858-.071ZM147.723 59.33c.581-1.513-7.336-26.067-9.717-30.139-.851-1.456-3.101-3.557-5-4.67l-3.453-2.023H62.105l-3.159 2.106c-1.737 1.158-3.783 2.894-4.546 3.858-1.937 2.447-10.742 29.305-10.13 30.901.454 1.182 5.392 1.307 51.72 1.307 46.855 0 51.263-.114 51.733-1.34Z"/></svg>