<svg xmlns="http://www.w3.org/2000/svg" viewBox="0 0 192 192"><path fill="none" stroke="#000" stroke-linecap="round" stroke-linejoin="round" stroke-width="8" d="M145.78 89.395c9.743 6.116 15.597 13.984 15.597 22.627 0 19.284-29.27 34.899-65.5 34.899-36.229 0-65.377-15.615-65.377-34.899S59.77 77.124 96 77.124c5.477-.015 10.949.353 16.375 1.101"/><path fill="none" stroke="#000" stroke-linecap="round" stroke-linejoin="round" stroke-width="8" d="M161.5 112.022h-131v28.539c0 19.284 29.27 34.898 65.5 34.898 36.23 0 65.5-15.614 65.5-34.898ZM96 146.921V77.124"/><path fill="none" stroke="#000" stroke-linecap="round" stroke-linejoin="round" stroke-width="8" d="m119.785 99.343-70.003 37.385V164.9"/><path fill="none" stroke="#000" stroke-linecap="round" stroke-linejoin="round" stroke-width="8" d="m49.782 87.357 92.477 49.371V164.9M96 143.782V175.5m32.914-108.813a17.694 17.694 0 0 0-10.371 3.356 17.577 17.577 0 0 0-6.41 8.786 17.506 17.506 0 0 0 0 10.859 17.577 17.577 0 0 0 6.41 8.786 17.694 17.694 0 0 0 10.371 3.356c3.725 0 7.357-1.175 10.371-3.356a17.575 17.575 0 0 0 6.409-8.786 17.506 17.506 0 0 0 0-10.859 17.575 17.575 0 0 0-6.409-8.786 17.696 17.696 0 0 0-10.371-3.356Zm-22.639-11.415-20.1-25.807m-18.954-7.787 19.404 24.95m18.586 23.687L91.743 52.866M88.959 16.5l16.825 21.648m6.509 9.01 5.609 7.217"/></svg>