<?xml version="1.0" encoding="UTF-8" standalone="no"?>
<!-- Created with Inkscape (http://www.inkscape.org/) -->

<svg
   version="1.1"
   id="svg3078"
   width="512"
   height="512"
   viewBox="0 0 512 512"
   sodipodi:docname="trackercontrol.svg"
   inkscape:version="1.1.2 (b8e25be833, 2022-02-05)"
   xmlns:inkscape="http://www.inkscape.org/namespaces/inkscape"
   xmlns:sodipodi="http://sodipodi.sourceforge.net/DTD/sodipodi-0.dtd"
   xmlns="http://www.w3.org/2000/svg"
   xmlns:svg="http://www.w3.org/2000/svg">
  <defs
     id="defs3082" />
  <sodipodi:namedview
     id="namedview3080"
     pagecolor="#ffffff"
     bordercolor="#666666"
     borderopacity="1.0"
     inkscape:pageshadow="2"
     inkscape:pageopacity="0.0"
     inkscape:pagecheckerboard="0"
     showgrid="false"
     inkscape:zoom="1.1289062"
     inkscape:cx="256"
     inkscape:cy="256"
     inkscape:window-width="1280"
     inkscape:window-height="961"
     inkscape:window-x="-8"
     inkscape:window-y="-8"
     inkscape:window-maximized="1"
     inkscape:current-layer="g3084" />
  <g
     inkscape:groupmode="layer"
     inkscape:label="Image"
     id="g3084">
    <g
       id="g3204"
       transform="translate(-0.24226811,-0.21474069)">
      <path
         style="fill:#d0d0d0"
         d="m 216.14833,459.85487 c -2.08532,-0.60024 -6.95728,-4.43888 -12.89472,-10.15981 -10.6328,-10.24506 -13.8622,-15.63747 -12.78946,-21.35565 0.35657,-1.9007 4.89719,-17.26705 10.09025,-34.14744 l 9.44194,-30.69163 -30.81837,-30.81837 -30.81837,-30.81837 -31.03488,9.5682 C 100.25554,316.69431 84.635173,321 82.612802,321 76.533262,321 72.960077,318.71529 62.863189,308.37199 52.584147,297.8421 50.534516,293.98313 51.936285,287.79924 c 0.709661,-3.13065 51.772145,-91.84255 56.643855,-98.40851 4.0504,-5.45904 7.85754,-6.51659 26.79734,-7.4438 26.60058,-1.30226 55.25998,-2.87988 64.76741,-3.56525 l 8.64489,-0.6232 11.35511,-13.10741 c 15.7248,-18.15142 40.4124,-43.30986 52.32463,-53.32256 16.43882,-13.817481 33.31426,-25.284173 52.19898,-35.468684 11.86037,-6.39629 18.76772,-9.088797 35.59272,-13.874161 25.32626,-7.203288 46.17445,-10.242156 71.23878,-10.383883 17.37024,-0.09822 18.13564,-0.01746 21.87704,2.308292 2.57181,1.598708 4.55421,3.940941 5.88852,6.957353 1.85051,4.183393 1.95714,5.831063 1.33252,20.589927 -1.57976,37.327506 -10.0069,74.241396 -23.06721,101.042646 -8.98646,18.44124 -21.08803,37.23541 -35.4011,54.97916 -11.47141,14.22098 -44.86281,46.83366 -63.35293,61.87546 -5.65603,4.60122 -5.41304,3.46751 -6.78278,31.64538 -3.51318,72.27217 -2.86118,68.28546 -12.15805,74.34096 -11.3418,7.38746 -92.18136,53.8977 -95.16902,54.75455 -3.66851,1.05211 -4.06654,1.04087 -8.51866,-0.24064 z m 52.06086,-41.3764 45.49903,-26.52152 0.63438,-10.22848 c 0.34891,-5.62566 1.10165,-19.22847 1.67276,-30.22847 2.28157,-43.94504 2.80939,-52.07027 3.49201,-53.75583 0.3911,-0.9657 7.52443,-7.70327 15.85186,-14.97238 44.68854,-39.00913 68.61752,-67.29675 86.70737,-102.50107 9.51163,-18.51037 16.78889,-42.36983 20.82294,-68.27072 1.56447,-10.04471 3.31972,-33.876533 2.94607,-40 L 445.5,66.5 l -8,-0.334352 c -9.95257,-0.415957 -31.44548,1.387297 -46.08394,3.866439 -37.49792,6.350581 -64.35028,18.247343 -97.91606,43.381063 -14.27472,10.68876 -43.78523,39.71016 -63.80567,62.74813 -9.91299,11.4071 -14.36841,15.8163 -16.40214,16.23196 -2.62782,0.5371 -42.01154,2.81096 -70.79219,4.08727 -7.15,0.31707 -15.07611,0.82245 -17.61358,1.12307 l -4.61357,0.54657 -26.0766,44.67492 c -14.342129,24.57121 -26.391459,45.50099 -26.77629,46.51061 -0.536082,1.40643 1.022447,3.56939 6.665146,9.25 4.050661,4.07788 8.057961,7.41432 8.905111,7.41432 0.84715,0 16.084338,-4.5 33.860413,-10 17.77608,-5.5 33.27972,-10 34.45254,-10 2.60888,0 73.26313,70.13585 74.12878,73.5849 0.34692,1.38224 -3.30747,14.94841 -9.43282,35.01739 C 210.49961,412.62083 206,428.28275 206,429.40655 206,431.85637 218.70938,445 221.07826,445 c 0.89755,0 22.10646,-11.93469 47.13093,-26.52153 z M 362.5,174.6582 c -10.93242,-3.63148 -18.68307,-10.44783 -23.2684,-20.4635 -3.49114,-7.62566 -3.58652,-18.06183 -0.24368,-26.66371 2.78098,-7.15608 10.14581,-14.97024 17.51208,-18.58047 4.29295,-2.10399 6.4141,-2.45052 15,-2.45052 8.43645,0 10.72488,0.36065 14.63612,2.3066 7.72938,3.84558 12.50421,8.68672 16.4579,16.68645 3.56523,7.21377 3.6397,7.60094 3.21107,16.69599 -0.51555,10.93931 -2.97047,16.72772 -9.9709,23.51021 -8.57026,8.30344 -23.34964,12.27557 -33.33419,8.95895 z m 14.82078,-14.73032 c 16.34994,-4.54012 19.13089,-28.93998 4.18158,-36.6889 -8.62814,-4.47237 -17.4981,-3.29587 -23.97382,3.17985 -10.60523,10.60522 -6.84045,28.14362 7.10872,33.11636 4.72201,1.68335 7.70319,1.77564 12.68352,0.39269 z"
         id="path3218" />
      <path
         style="fill:#b0b0b0"
         d="m 217.08637,459.30236 c -3.55625,-0.71364 -23.76001,-20.78346 -25.14416,-24.97746 -1.46665,-4.444 -2.1619,-1.65121 11.50397,-46.2107 5.17452,-16.87227 7.20347,-24.88315 6.58511,-26 -1.35254,-2.44291 -60.46462,-61.11466 -61.56979,-61.11114 -0.52882,0.002 -5.9115,1.54135 -11.9615,3.42149 -55.467589,17.23748 -54.610712,17.04034 -60.963301,14.02584 -1.796058,-0.85228 -7.324824,-5.68978 -12.286147,-10.75 -9.898103,-10.0954 -11.843413,-13.96935 -10.130286,-20.17379 1.110479,-4.02182 53.928094,-94.86402 57.195374,-98.37161 4.30484,-4.62145 7.1753,-5.3322 25.09559,-6.21382 30.97286,-1.52378 55.95461,-2.89237 64.89777,-3.55534 l 8.809,-0.65303 10.13884,-11.6164 c 41.76659,-47.85335 71.38474,-72.864181 108.36257,-91.506004 28.78225,-14.510143 65.66636,-22.692943 103.54932,-22.972587 17.41179,-0.128531 18.8552,0.001 21.43821,1.92398 6.64965,4.950454 6.91165,5.918568 6.70467,24.775075 C 458.90915,116.00234 450.0926,154.87464 435.57319,184 c -19.25781,38.63037 -42.5438,66.55522 -90.79296,108.88002 -9.33594,8.18961 -11.82363,10.92544 -12.2304,13.45036 -0.28085,1.74329 -0.98095,12.84462 -1.55577,24.66962 -2.99812,61.67639 -3.04725,62.31963 -5.07902,66.5 -1.06926,2.2 -2.95007,4.71488 -4.17957,5.58863 -1.22951,0.87375 -23.17214,13.77194 -48.76141,28.66265 -45.36406,26.39792 -50.07104,28.71832 -55.88769,27.55108 z m 50.6486,-39.37871 c 24.62077,-14.34199 45.27791,-26.60449 45.90476,-27.25 1.14478,-1.17886 2.25886,-16.84891 4.38473,-61.67365 1.50499,-31.73336 1.6551,-32.84995 4.82888,-35.92014 1.4668,-1.41892 8.96235,-8.04543 16.65678,-14.72556 18.51904,-16.07782 48.08372,-46.30903 57.85364,-59.15793 C 427.60792,181.42079 441.60813,144.25628 446.0332,92 c 0.62875,-7.425 0.991,-16.425 0.80499,-20 L 446.5,65.5 437,65.174953 c -17.64122,-0.603603 -46.24931,2.997193 -66.86027,8.415458 -16.69761,4.389516 -29.07613,9.13449 -41.28045,15.823762 -34.29107,18.795167 -59.8736,40.682377 -97.11358,83.085827 -8.21145,9.35 -15.90805,17.52164 -17.10357,18.15921 -1.29021,0.68807 -14.76659,1.81891 -33.15789,2.78237 -55.55458,2.91034 -60.65966,3.29936 -61.99051,4.72384 C 116.92316,200.91684 66,289.17962 66,290.88365 c 0,2.32913 14.239911,16.1168 16.64342,16.11484 C 83.664539,306.99765 99.125,302.49833 117,297 c 17.875,-5.49833 33.38509,-9.99765 34.46688,-9.99849 2.36127,-0.002 70.88455,68.01849 72.53469,72.00227 0.93401,2.2549 -0.34242,7.2857 -8.95616,35.2991 C 209.52043,412.27107 205,427.98046 205,429.21264 205,431.92959 218.58644,446 221.20994,446 c 0.968,0 21.90426,-11.73436 46.52503,-26.07635 z m 94.55107,-246.31406 c -13.53415,-4.42355 -21.8073,-13.83817 -24.36006,-27.72107 -1.49801,-8.14676 0.54108,-17.06793 5.58591,-24.4388 6.57975,-9.61349 15.90729,-14.4256 27.98811,-14.43916 6.77361,-0.008 8.91979,0.43295 14,2.87384 7.33553,3.52451 13.54465,9.80062 16.9329,17.1156 5.19581,11.21737 2.81691,26.89038 -5.51889,36.36035 -8.08976,9.19045 -23.71636,13.81564 -34.62797,10.24924 z m 18.9102,-14.1767 c 6.36438,-3.22494 9.83027,-8.05601 11.20067,-15.61253 1.7936,-9.89008 -5.97469,-21.32011 -16.1488,-23.76084 -7.1339,-1.7114 -14.36207,0.39431 -19.38457,5.6471 -5.13798,5.37357 -6.22123,7.96163 -6.23044,14.88558 -0.0171,12.83253 10.05872,22.19893 22.56314,20.97459 2.58293,-0.25291 6.18293,-1.21316 8,-2.1339 z"
         id="path3216" />
      <path
         style="fill:#909090"
         d="m 212.94578,456.14131 c -5.59017,-3.59454 -18.55578,-16.98534 -19.91984,-20.57308 -0.56427,-1.48413 -1.02292,-3.90663 -1.01923,-5.38333 0.004,-1.47669 4.27868,-16.61999 9.5,-33.65177 C 206.72802,379.50135 211,364.87363 211,364.02708 211,361.80825 149.88534,301 147.65533,301 c -1.00803,0 -15.9892,4.33983 -33.29151,9.64407 -38.396611,11.77096 -35.056802,11.97034 -50.035211,-2.98699 -10.516667,-10.50187 -12.457157,-14.02445 -10.976185,-19.92511 0.484437,-1.93016 50.788206,-88.94356 56.038356,-96.93286 3.22942,-4.9143 8.61499,-6.52331 24.10922,-7.20294 26.91715,-1.18067 72.01805,-3.69324 74.11981,-4.12921 1.1659,-0.24184 7.6909,-6.85357 14.5,-14.69272 C 261.3423,119.61836 292.63856,93.618554 330.5,74.735895 356.90838,61.565229 397.35059,53.061518 433.78984,53.017329 456.55739,52.989719 459,55.196665 459,75.795175 c 0,27.193075 -5.15873,57.653645 -14.52003,85.735905 -7.00726,21.02054 -23.75308,50.26597 -41.49543,72.46892 -10.42434,13.04511 -36.75646,39.47988 -56.11961,56.33837 l -14.63507,12.742 -0.62886,8.20981 c -0.34588,4.5154 -1.08407,17.20982 -1.64043,28.20982 -2.61189,51.64079 -2.82902,54.42052 -4.53117,58.00753 -0.92178,1.94252 -2.85799,4.35355 -4.30269,5.35785 -2.49951,1.73756 -39.86761,23.53567 -78.53962,45.81487 -20.31823,11.70547 -22.27464,12.19792 -29.64131,7.46106 z m 41.46778,-27.7976 c 58.76266,-34.16686 60.53592,-35.2607 61.01215,-37.63559 0.24354,-1.21447 0.97088,-13.23312 1.61631,-26.70812 0.64543,-13.475 1.71897,-33.9009 2.38565,-45.3909 l 1.21213,-20.8909 3.47949,-3.1091 c 1.91371,-1.71 10.23118,-9.04693 18.48325,-16.30427 20.84567,-18.33287 45.21138,-43.52267 56.07785,-57.97449 26.36137,-35.05923 39.78539,-67.25637 46.23612,-110.89608 1.49115,-10.087683 3.21648,-39.056185 2.49691,-41.923188 -0.86382,-3.441731 -5.85156,-3.941755 -25.55952,-2.562354 -53.47581,3.742887 -87.96654,16.286728 -128.83591,46.855992 -14.35566,10.73767 -41.29127,37.0776 -61.75618,60.39043 -8.54342,9.73232 -16.25986,17.98003 -17.14765,18.32824 -1.61893,0.63498 -14.9251,1.49133 -53.11416,3.41829 -32.78362,1.65421 -39.87804,2.24325 -41.38354,3.43598 -1.54205,1.22168 -53.676208,90.11034 -54.310683,92.59962 -0.229207,0.89927 3.099778,4.98478 8.13062,9.97834 l 8.518738,8.4556 32.964205,-10.2056 C 133.04965,292.59252 149.15576,288 150.71068,288 c 2.38374,0 8.35265,5.5336 38.05823,35.28267 C 214.76218,349.31399 224,359.17209 224,360.87937 c 0,1.27271 -4.5,17.03282 -10,35.02245 -5.5,17.98963 -10,33.34866 -10,34.13118 0,1.86815 15.03041,16.967 16.8901,16.967 0.79036,0 15.87591,-8.39533 33.52346,-18.65629 z M 359.302,171.8974 c -7.02851,-2.70212 -14.5605,-9.68732 -18.00164,-16.69479 -2.40141,-4.89019 -2.80036,-6.91567 -2.80036,-14.21742 0,-7.61068 0.35038,-9.22718 3.29979,-15.22384 5.84842,-11.89087 16.09566,-18.16717 29.70021,-18.191 9.69068,-0.017 16.97716,2.90681 23.5,9.42965 6.66349,6.66349 9.46032,13.77496 9.43884,24 -0.0224,10.67132 -3.03966,17.65759 -10.53729,24.39861 -9.29185,8.35416 -23.05123,10.93857 -34.59955,6.49879 z m 24.54021,-13.28805 c 9.13961,-6.33375 11.91195,-20.33804 5.84198,-29.51038 -7.44206,-11.24572 -22.51505,-13.45444 -32.42694,-4.75169 -9.4691,8.31398 -9.66991,23.71892 -0.42249,32.4103 4.40622,4.14129 8.04172,5.29257 15.76806,4.99343 5.92806,-0.22953 7.78697,-0.74914 11.23939,-3.14166 z"
         id="path3214" />
      <path
         style="fill:#6f6f6f"
         d="m 216.58091,457.51581 c -5.0819,-1.81071 -20.13939,-16.54949 -22.73546,-22.25422 -2.31964,-5.09729 -2.93912,-2.28722 9.38657,-42.57893 l 9.12145,-29.81733 -31.42078,-31.43267 C 163.65126,314.1447 148.90632,300 148.16617,300 c -0.74016,0 -14.46784,4.11664 -30.50595,9.14808 -16.03812,5.03145 -31.223199,9.35654 -33.744617,9.61132 -6.314867,0.63809 -8.729821,-0.86257 -20.165603,-12.53094 -14.470035,-14.76434 -15.971987,-9.11512 17.883721,-67.26519 15.198546,-26.1048 28.361049,-48.31288 29.249999,-49.35129 3.15374,-3.68396 7.80534,-4.65846 26.91483,-5.63864 45.13603,-2.31514 57.16193,-2.97893 64.32186,-3.55037 l 7.6204,-0.60819 11.3796,-13.13876 C 235.80759,149.71833 262.14524,122.74056 273,113.53552 290.78974,98.449478 307.14248,87.51268 328.5,76.416829 355.20191,62.544414 394.35097,53.925077 432,53.629527 458.78652,53.41925 460.24934,55.346078 458.09364,88 454.80248,137.85347 442.76128,174.99931 417.65569,212.74686 399.39024,240.20991 384.60013,255.89093 336.30301,299 l -5.04156,4.5 -0.64547,13.5 c -1.19503,24.99388 -2.71764,53.41232 -3.54944,66.24801 -0.73833,11.39321 -1.09299,13.09361 -3.33722,16 -1.75866,2.27755 -16.59246,11.42827 -49.50492,30.53873 -25.8466,15.00771 -48.50523,27.72021 -50.35251,28.25 -1.84728,0.52979 -3.36166,0.94351 -3.36529,0.91937 -0.004,-0.0241 -1.77019,-0.67228 -3.92569,-1.4403 z m 42.47813,-31.31296 c 20.59253,-11.98843 41.60247,-24.23084 46.68875,-27.20536 5.08629,-2.97451 9.45801,-6.1033 9.71493,-6.95285 0.50537,-1.67105 1.84376,-23.20195 3.51488,-56.54464 0.57888,-11.55 1.31223,-24.72571 1.62967,-29.27935 l 0.57716,-8.27935 15.65778,-13.66874 c 18.46716,-16.12124 47.29936,-44.663 55.83502,-55.27256 32.66596,-40.6028 48.31904,-78.38854 53.85367,-130 1.97377,-18.405837 1.95037,-32.355692 -0.0571,-34.021727 -1.16567,-0.967418 -5.59476,-1.125262 -18.75,-0.668214 -36.60974,1.27192 -70.10772,9.09086 -95.72382,22.343402 -15.59293,8.067035 -37.38507,22.593219 -50.5,33.662259 -12.46416,10.51978 -34.7879,33.30719 -52.75416,53.84988 -9.95179,11.37892 -14.4595,15.81599 -16.47334,16.21516 -1.52488,0.30226 -16.7225,1.26074 -33.7725,2.12997 -48.48432,2.47177 -58.58319,3.16984 -59.48724,4.11196 -2.01485,2.09972 -53.402833,91.10851 -53.819307,93.22008 -0.369761,1.87473 1.108393,3.92251 7.398775,10.25 C 77.92848,305.46051 81.20189,308 82.784651,308 c 1.282364,0 16.904271,-4.5 34.715349,-10 17.81108,-5.5 32.95752,-10 33.65876,-10 1.36757,0 70.31161,68.29692 71.96528,71.2898 0.74769,1.35319 -1.48351,9.8911 -9.14648,35 -5.57448,18.26561 -10.36805,34.03812 -10.65238,35.05002 -0.37382,1.33037 1.81182,4.16861 7.89321,10.25 4.6256,4.6256 8.85782,8.41018 9.40493,8.41018 0.54712,0 17.84319,-9.80872 38.43572,-21.79715 z M 362.99431,172.57652 c -6.06773,-1.67615 -8.48822,-3.06884 -13.72809,-7.89878 -8.22139,-7.57821 -12.09251,-18.79384 -10.14967,-29.4062 4.84121,-26.44412 36.51295,-36.59856 55.36171,-17.7498 6.76499,6.76499 9.52206,13.64706 9.52095,23.76577 -9.9e-4,9.08761 -3.57322,17.26189 -10.20418,23.35009 -5.43397,4.98918 -7.66663,6.24189 -14.2489,7.99482 -6.07912,1.61894 -10.54339,1.60386 -16.55182,-0.0559 z M 378.5,161.89457 c 2.582,-0.70636 5.65042,-2.79549 8.65563,-5.8932 19.90971,-20.5225 -9.83337,-50.87137 -31.00295,-31.6344 -8.72349,7.92711 -9.08714,22.1374 -0.79856,31.20517 6.14777,6.72569 13.91565,8.84754 23.14588,6.32243 z"
         id="path3212" />
      <path
         style="fill:#4f4f4f"
         d="m 214.5,456.1244 c -4.85917,-3.02584 -20.30268,-19.49004 -21.04097,-22.4316 -0.97426,-3.88177 -0.43231,-6.06385 9.54371,-38.42611 C 207.95123,379.21375 212,365.04641 212,363.78372 212,360.35312 151.45553,300 148.01405,300 c -1.36072,0 -15.08304,3.88685 -30.49405,8.63745 -15.411,4.7506 -29.595,9.00807 -31.52,9.46105 -6.450729,1.51794 -10.07973,-0.3791 -20.840177,-10.8941 -10.677092,-10.43354 -12.495615,-13.93379 -10.384902,-19.98858 1.557404,-4.46758 54.199589,-94.39934 57.061629,-97.48177 1.41251,-1.52127 4.16463,-3.17391 6.11582,-3.67253 1.9512,-0.49862 13.89763,-1.39657 26.54763,-1.99545 48.33449,-2.28827 62.08083,-3.18525 64.5,-4.20878 1.375,-0.58174 7.9,-7.31185 14.5,-14.95578 16.97656,-19.66178 42.09324,-44.89839 55,-55.26263 24.46585,-19.646277 52.073,-35.594304 73.5,-42.459289 26.30214,-8.42693 48.08322,-12.085805 76.5,-12.850787 19.8533,-0.534452 20.02557,-0.520908 23.48543,1.846413 5.35338,3.66291 5.98442,5.803832 5.99075,20.324783 0.0162,37.15185 -10.10015,80.87974 -25.52979,110.35248 -8.02467,15.3282 -20.32707,34.00052 -31.72237,48.14752 -9.34473,11.60126 -42.75597,44.73511 -58.48556,58 -5.54365,4.675 -10.36809,9.17209 -10.72098,9.99353 -0.35289,0.82144 -1.28001,13.64644 -2.06028,28.5 -3.47488,66.14955 -3.39301,65.44577 -8.10482,69.67311 -1.01881,0.91406 -23.20178,14.07549 -49.29549,29.24764 C 221.2,459.98494 220.90862,460.1151 214.5,456.1244 Z m 9.81574,-9.26437 c 13.56162,-7.07785 90.15512,-52.6768 91.13513,-54.25612 0.92586,-1.49207 1.94022,-15.04511 3.48799,-46.60391 1.20035,-24.475 2.6463,-45.625 3.21323,-47 0.56693,-1.375 7.33419,-7.9 15.03837,-14.5 19.3067,-16.53961 46.81871,-43.89114 56.83151,-56.5 16.45468,-20.72095 32.82287,-48.53016 39.42583,-66.98365 3.98849,-11.14675 9.22331,-31.88727 11.61433,-46.01635 2.48435,-14.68053 3.90089,-48.436977 2.10784,-50.230034 -1.62376,-1.623758 -28.59096,-1.169075 -43.31086,0.730248 -27.57874,3.558511 -52.53904,10.690631 -71.82486,20.52313 C 318.49115,92.928031 297.6775,106.47487 285,116.63621 c -11.49014,9.20963 -37.52249,35.34713 -54.64308,54.86379 -7.71962,8.8 -14.70397,16.55205 -15.52079,17.22679 -1.47212,1.21605 -10.98651,1.95789 -54.33613,4.23662 -41.06418,2.15859 -40.22734,2.07782 -42.01708,4.05546 C 115.71682,200.07538 64,289.33107 64,291.04845 64,293.09542 80.242233,309 82.332651,309 c 1.428986,0 9.944197,-2.5763 50.167349,-15.17824 7.15,-2.2401 14.73328,-4.30679 16.85174,-4.59265 l 3.85174,-0.51974 34.89826,34.93833 C 212.05447,347.62793 223,359.25245 223,360.71082 c 0,1.16864 -4.5,16.86852 -10,34.88863 -5.5,18.02011 -10,33.68083 -10,34.80161 0,2.44411 15.05527,17.59894 17.48332,17.59894 0.90649,0 2.63108,-0.51299 3.83242,-1.13997 z M 361.35255,171.62806 c -8.2425,-2.69586 -14.6457,-8.51702 -19.42439,-17.65874 -3.27176,-6.25894 -3.40413,-19.34281 -0.2645,-26.14499 3.05549,-6.61988 9.61084,-13.32055 16.19483,-16.55386 4.77959,-2.34719 6.86377,-2.76298 13.64151,-2.72143 9.36199,0.0574 14.9358,2.13956 21.42774,8.00464 17.09049,15.44024 13.19304,43.46397 -7.43354,53.44913 -5.94263,2.87678 -17.86179,3.67919 -24.14165,1.62525 z m 16.48004,-9.17099 c 20.19812,-5.99819 21.93601,-33.73917 2.66741,-42.57823 -14.42995,-6.61944 -31.5,4.49571 -31.5,20.5112 0,10.54945 5.4591,18.34964 15.19605,21.71272 6.5297,2.25531 7.17842,2.27217 13.63654,0.35431 z"
         id="path3210" />
      <path
         style="fill:#2e2e2e"
         d="m 204.8,446.2 c -13.99273,-13.99273 -13.87372,-9.42726 -1.32168,-50.7 2.00722,-6.6 5.0034,-16.38015 6.65816,-21.73366 1.65477,-5.35351 2.75438,-10.53486 2.44357,-11.51411 -0.98075,-3.09007 -61.96899,-63.25252 -64.11734,-63.24917 -1.07949,0.002 -6.91271,1.54139 -12.96271,3.42158 -37.982021,11.80386 -44.421893,13.77113 -48.233104,14.73439 -7.550853,1.90843 -10.556528,0.59268 -20.464154,-8.9583 -4.946891,-4.76882 -9.626236,-9.89251 -10.398545,-11.38599 -3.36545,-6.50807 -3.050531,-7.20125 25.746655,-56.67212 14.932968,-25.65344 28.598768,-48.15092 30.368448,-49.9944 2.96247,-3.08602 3.88218,-3.41638 11.59915,-4.16641 4.60985,-0.44804 19.40655,-1.32775 32.88155,-1.95491 32.01329,-1.48998 51.8481,-2.81499 53.0247,-3.54217 0.52047,-0.32167 5.54414,-5.84982 11.16371,-12.28479 41.70799,-47.75982 70.4161,-71.91816 108.31159,-91.145961 16.89123,-8.570446 42.15362,-16.062027 66,-19.572354 14.76884,-2.17406 38.20196,-3.446585 47.86421,-2.599245 7.20022,0.631429 8.10787,0.962357 10.75,3.919416 L 457,62.031553 456.997,77.765777 c -0.005,27.876513 -4.7812,56.074953 -14.17035,83.660793 -7.65017,22.47663 -22.81833,48.71767 -41.993,72.64824 -10.09234,12.59554 -32.77263,35.32658 -54.03922,54.16015 -8.63797,7.64973 -15.93513,14.6638 -16.21591,15.58682 -0.48744,1.60238 -1.4272,18.12817 -3.59273,63.17822 -1.25658,26.14096 -1.57523,28.35841 -4.58985,31.94108 -1.44425,1.7164 -22.27989,14.47607 -49.81208,30.50475 C 214.31567,463.36849 220.45182,461.85182 204.8,446.2 Z m 63.05782,-23.80959 c 25.1032,-14.63528 46.3732,-27.25391 47.26667,-28.0414 1.84811,-1.62891 2.37305,-6.56052 3.86915,-36.34901 2.42923,-48.36779 3.054,-58.26005 3.75635,-59.47574 0.4125,-0.71401 8.17501,-7.81688 17.25001,-15.78414 41.38892,-36.33682 63.69809,-62.33251 81.95555,-95.49842 13.21255,-24.0015 21.52119,-51.98385 25.51999,-85.94777 C 449.32792,85.560674 449.49989,65.899892 447.8,64.2 444.82057,61.220574 408.32304,63.374408 385.21334,67.893435 354.20783,73.956463 335.27778,81.700293 308,99.479567 282.70609,115.96578 260.68842,136.22514 229.7289,171.5 c -9.9291,11.31309 -15.80823,17.22297 -17.5746,17.66653 -2.58152,0.64825 -21.03013,1.72724 -67.1543,3.92762 -12.71313,0.60649 -23.57647,1.58127 -24.97481,2.24101 -1.7697,0.83497 -10.08749,14.21235 -29.194112,46.95248 C 76.135461,267.46929 63.818473,288.99658 63.459992,290.12605 62.476639,293.22433 78.422833,309 82.537948,309 c 1.600158,0 17.640822,-4.52542 35.645922,-10.05648 24.75869,-7.60574 33.17271,-9.81554 34.52633,-9.06778 0.98439,0.54379 16.9773,16.22204 35.5398,34.84056 28.47711,28.56304 33.75,34.29591 33.75,36.69413 0,1.56326 -4.5,17.46474 -10,35.33663 -5.5,17.87189 -10,32.99363 -10,33.60386 0,1.61433 17.20637,18.64908 18.83697,18.64908 0.75827,0 21.91765,-11.97432 47.02085,-26.60959 z M 365.34375,172.00572 C 356.02192,170.05575 348.08143,164.18601 343.4464,155.81885 340.76455,150.97757 340.5,149.64702 340.5,141 c 0,-10.98869 1.93911,-16.20382 8.44344,-22.70815 5.98674,-5.98674 12.26819,-8.68437 21.24182,-9.12251 6.66771,-0.32555 8.45515,-0.0237 13.5,2.27998 11.79815,5.38744 18.34033,14.83587 19.07632,27.55068 0.7848,13.55804 -5.29204,24.22226 -17.05355,29.92723 -6.85326,3.3242 -14.01445,4.40677 -20.36428,3.07849 z m 16.34665,-10.44187 c 8.72811,-4.06375 14.21293,-13.95668 12.92944,-23.32074 -1.96129,-14.30921 -15.95068,-23.93025 -29.34334,-20.18053 -6.19969,1.7358 -14.63332,9.78505 -16.17462,15.43742 -5.4896,20.1319 13.85153,36.78766 32.58852,28.06385 z"
         id="path3208" />
      <path
         style="fill:#060606"
         d="m 217.46343,455.91179 c -4.16503,-1.17735 -22.42488,-19.79925 -22.57412,-23.02171 -0.23038,-4.97446 0.53038,-7.94618 9.7487,-38.08094 5.20302,-17.00869 9.21641,-31.69247 8.91864,-32.63064 C 212.66695,359.37528 150.59084,298 148.64532,298 c -0.97969,0 -15.74802,4.3279 -32.81849,9.61756 -24.263947,7.51871 -31.879366,9.5046 -34.896114,9.09997 -3.072267,-0.41207 -5.611249,-2.11775 -12.455517,-8.36756 -4.728154,-4.31748 -9.469318,-9.25309 -10.535921,-10.968 -4.151696,-6.67524 -4.034244,-6.94277 24.676619,-56.20982 14.638743,-25.11968 27.732963,-47.1626 29.098263,-48.98426 1.36531,-1.82166 3.61102,-3.74122 4.99047,-4.26569 1.37946,-0.52447 15.39774,-1.62868 31.15174,-2.4538 53.1333,-2.78287 61.03196,-3.3064 62.44215,-4.13869 0.7732,-0.45634 6.68799,-6.90471 13.14398,-14.32971 16.68649,-19.19103 44.1564,-46.75073 56.51378,-56.6985 C 300.1295,94.061922 328.05708,77.177141 345,70.976602 c 21.14462,-7.738221 47.45461,-13.096861 73.82073,-15.035308 27.03703,-1.987773 33.64859,-0.754462 36.91721,6.886487 1.38374,3.234716 1.43501,5.94093 0.43041,22.714853 -3.43064,57.281406 -17.58539,96.756396 -50.54381,140.957366 -9.9792,13.38324 -44.25896,48.3845 -63.12454,64.45315 -6.05,5.15306 -11.50344,10.30916 -12.11877,11.45802 -0.66332,1.23848 -2.00433,19.5939 -3.2941,45.08883 -1.19643,23.65 -2.4116,44.21637 -2.70037,45.70304 -0.28877,1.48667 -1.40063,3.81617 -2.47079,5.17665 -2.18114,2.77287 -95.00514,57.09208 -98.91597,57.88414 -1.375,0.27848 -3.86646,0.12006 -5.53657,-0.35204 z m 51.38999,-33.09112 c 24.55562,-14.28839 45.65711,-26.96405 46.89219,-28.16812 2.186,-2.13111 2.3104,-3.41 4.68591,-48.17208 1.34216,-25.29056 2.72718,-46.65731 3.07781,-47.48166 0.35064,-0.82434 5.06539,-5.23285 10.47723,-9.79667 63.07275,-53.18948 94.60453,-97.64482 107.97026,-152.22278 5.15052,-21.03174 8.01605,-43.225714 8.03463,-62.22936 C 450.00355,62.350008 449.56089,61.992181 434.25,62.0258 398.69009,62.10388 359.70179,70.556993 333,83.977966 296.45099,102.34839 268.95476,125.36772 228.6803,171.31246 c -7.53398,8.5947 -14.48164,16.03347 -15.43923,16.53059 -1.63572,0.84917 -13.36813,1.60846 -70.00524,4.5305 -22.67838,1.17003 -23.32367,1.26227 -25.6269,3.66335 C 113.42722,200.39626 63,288.04741 63,290.95657 63,294.8571 78.555985,310 82.562922,310 c 1.54401,0 17.332061,-4.5 35.084558,-10 17.75249,-5.5 32.82706,-10 33.49904,-10 1.461,0 63.8601,61.84852 67.88671,67.28771 l 2.80403,3.78772 -1.79616,6.21228 c -0.98789,3.41676 -5.67627,18.86043 -10.41863,34.31926 C 204.88011,417.0658 201,430.21987 201,430.83822 c 0,1.58113 12.87827,15.09108 16.49665,17.30581 1.64816,1.0088 3.8322,1.56899 4.85342,1.24486 1.02122,-0.32412 21.94773,-12.27982 46.50335,-26.56822 z m 95.88105,-251.8545 c -14.18052,-3.54507 -23.74997,-15.32401 -23.85774,-29.36627 -0.0756,-9.85004 2.38538,-16.02201 9.04327,-22.6799 7.06091,-7.06091 13.02797,-9.29507 23.40561,-8.76342 12.0715,0.61842 21.19062,6.91744 26.21157,18.10561 2.3994,5.34659 2.64964,6.91512 2.25362,14.12611 -0.50907,9.26961 -2.66403,14.41827 -8.46109,20.21533 -6.92067,6.92066 -19.568,10.61931 -28.59524,8.36254 z M 381,162.91909 c 14.17668,-6.41728 18.78119,-21.62936 10.62042,-35.08705 -6.58819,-10.8644 -20.20448,-14.44885 -31.51084,-8.29516 -6.19511,3.3718 -9.4829,7.26765 -11.75106,13.92433 -5.13017,15.05622 6.94845,31.49487 23.14148,31.49487 2.89084,0 6.89825,-0.85927 9.5,-2.03699 z"
         id="path3206" />
    </g>
  </g>
</svg>
