<svg width="512" height="512" viewBox="0 0 512 512" xmlns="http://www.w3.org/2000/svg"><path style="fill:#d0d0d0" d="M216.148 459.855c-2.085-.6-6.957-4.439-12.894-10.16-10.633-10.245-13.863-15.637-12.79-21.356.357-1.9 4.897-17.267 10.09-34.147l9.442-30.692-30.818-30.818-30.818-30.818-31.035 9.568c-17.07 5.262-32.69 9.568-34.712 9.568-6.08 0-9.653-2.285-19.75-12.628-10.279-10.53-12.328-14.389-10.927-20.573.71-3.13 51.772-91.842 56.644-98.408 4.05-5.46 7.858-6.517 26.797-7.444 26.601-1.302 55.26-2.88 64.768-3.565l8.645-.624 11.355-13.107c15.725-18.151 40.412-43.31 52.325-53.322 16.438-13.818 33.314-25.285 52.198-35.47 11.86-6.395 18.768-9.088 35.593-13.873 25.326-7.204 46.175-10.242 71.239-10.384 17.37-.098 18.136-.018 21.877 2.308 2.572 1.599 4.554 3.941 5.889 6.957 1.85 4.184 1.957 5.831 1.332 20.59-1.58 37.328-10.007 74.242-23.067 101.043-8.987 18.441-21.088 37.235-35.401 54.98-11.472 14.22-44.863 46.833-63.353 61.875-5.656 4.6-5.413 3.467-6.783 31.645-3.513 72.272-2.861 68.285-12.158 74.341-11.342 7.387-92.181 53.898-95.169 54.755-3.669 1.052-4.067 1.04-8.519-.241zm52.061-41.377 45.5-26.521.634-10.229c.349-5.625 1.101-19.228 1.672-30.228 2.282-43.945 2.81-52.07 3.492-53.756.391-.966 7.525-7.703 15.852-14.972 44.689-39.01 68.618-67.297 86.708-102.501 9.511-18.51 16.788-42.37 20.823-68.271 1.564-10.045 3.32-33.877 2.946-40l-.336-5.5-8-.334c-9.953-.416-31.445 1.387-46.084 3.866-37.498 6.35-64.35 18.247-97.916 43.381-14.275 10.689-43.785 39.71-63.806 62.748-9.913 11.407-14.368 15.817-16.402 16.232-2.628.537-42.011 2.811-70.792 4.088-7.15.317-15.076.822-17.614 1.123l-4.613.546-26.077 44.675c-14.342 24.571-26.391 45.501-26.776 46.51-.536 1.407 1.022 3.57 6.665 9.25 4.05 4.079 8.058 7.415 8.905 7.415.847 0 16.085-4.5 33.86-10 17.777-5.5 33.28-10 34.453-10 2.609 0 73.263 70.136 74.129 73.585.347 1.382-3.308 14.948-9.433 35.017-5.5 18.019-9.999 33.68-9.999 34.805 0 2.45 12.71 15.593 15.078 15.593.898 0 22.107-11.935 47.131-26.522zm94.291-243.82c-10.932-3.631-18.683-10.448-23.268-20.463-3.492-7.626-3.587-18.062-.244-26.664 2.78-7.156 10.146-14.97 17.512-18.58 4.293-2.104 6.414-2.451 15-2.451 8.436 0 10.725.36 14.636 2.307 7.73 3.845 12.504 8.686 16.458 16.686 3.565 7.214 3.64 7.601 3.211 16.696-.515 10.94-2.97 16.728-9.97 23.51-8.571 8.304-23.35 12.276-33.335 8.96zm14.82-14.73c16.35-4.54 19.132-28.94 4.182-36.689-8.628-4.472-17.498-3.296-23.973 3.18-10.606 10.605-6.84 28.143 7.108 33.116 4.722 1.684 7.703 1.776 12.684.393z" transform="translate(-.242 -.215)"/><path style="fill:#b0b0b0" d="M217.086 459.302c-3.556-.713-23.76-20.783-25.144-24.977-1.466-4.444-2.162-1.651 11.504-46.21 5.175-16.873 7.204-24.884 6.585-26-1.352-2.444-60.464-61.115-61.57-61.112-.528.002-5.911 1.541-11.961 3.422-55.468 17.237-54.61 17.04-60.963 14.025-1.796-.852-7.325-5.69-12.286-10.75-9.899-10.095-11.844-13.969-10.13-20.173 1.11-4.022 53.927-94.864 57.195-98.372 4.304-4.621 7.175-5.332 25.095-6.214 30.973-1.524 55.955-2.892 64.898-3.555l8.809-.653 10.139-11.617c41.766-47.853 71.385-72.864 108.362-91.506 28.783-14.51 65.667-22.693 103.55-22.972 17.412-.129 18.855 0 21.438 1.924 6.65 4.95 6.912 5.918 6.705 24.775-.403 36.665-9.22 75.538-23.739 104.663-19.258 38.63-42.544 66.555-90.793 108.88-9.336 8.19-11.823 10.925-12.23 13.45-.281 1.744-.981 12.845-1.556 24.67-2.998 61.676-3.047 62.32-5.079 66.5-1.07 2.2-2.95 4.715-4.18 5.589-1.229.873-23.172 13.772-48.76 28.662-45.365 26.398-50.072 28.719-55.889 27.551zm50.649-39.378c24.62-14.342 45.278-26.605 45.905-27.25 1.145-1.18 2.259-16.85 4.384-61.674 1.505-31.733 1.656-32.85 4.83-35.92 1.466-1.42 8.962-8.046 16.656-14.726 18.52-16.078 48.084-46.309 57.854-59.158 30.244-39.775 44.244-76.94 48.67-129.196.628-7.425.99-16.425.804-20l-.338-6.5-9.5-.325c-17.641-.604-46.25 2.997-66.86 8.415-16.698 4.39-29.076 9.135-41.28 15.824-34.292 18.795-59.874 40.683-97.114 83.086-8.212 9.35-15.908 17.522-17.104 18.16-1.29.687-14.766 1.818-33.158 2.782-55.554 2.91-60.66 3.299-61.99 4.723C116.924 200.917 66 289.18 66 290.884c0 2.329 14.24 16.116 16.643 16.114 1.022 0 16.482-4.5 34.357-9.998 17.875-5.498 33.385-9.998 34.467-9.998 2.361-.002 70.884 68.018 72.535 72.002.934 2.255-.343 7.285-8.957 35.299C209.52 412.27 205 427.98 205 429.213 205 431.93 218.586 446 221.21 446c.968 0 21.904-11.734 46.525-26.076zm94.551-246.314c-13.534-4.424-21.807-13.839-24.36-27.721-1.498-8.147.541-17.068 5.586-24.44 6.58-9.613 15.907-14.425 27.988-14.438 6.774-.008 8.92.433 14 2.873 7.336 3.525 13.545 9.801 16.933 17.116 5.196 11.217 2.817 26.89-5.519 36.36-8.09 9.19-23.716 13.816-34.628 10.25zm18.91-14.177c6.365-3.225 9.83-8.056 11.2-15.613 1.795-9.89-5.974-21.32-16.148-23.76-7.134-1.712-14.362.394-19.384 5.647-5.138 5.373-6.222 7.961-6.23 14.885-.018 12.833 10.058 22.2 22.562 20.975 2.583-.253 6.183-1.213 8-2.134z" transform="translate(-.242 -.215)"/><path style="fill:#909090" d="M212.946 456.141c-5.59-3.594-18.556-16.985-19.92-20.573-.564-1.484-1.023-3.906-1.02-5.383.005-1.477 4.28-16.62 9.5-33.652 5.222-17.032 9.494-31.66 9.494-32.506 0-2.219-61.115-63.027-63.345-63.027-1.008 0-15.989 4.34-33.291 9.644-38.397 11.771-35.057 11.97-50.035-2.987-10.517-10.502-12.458-14.024-10.977-19.925.485-1.93 50.789-88.944 56.039-96.933 3.23-4.914 8.615-6.523 24.109-7.203 26.917-1.18 72.018-3.693 74.12-4.129 1.166-.242 7.69-6.854 14.5-14.693 39.222-45.156 70.519-71.155 108.38-90.038 26.408-13.17 66.85-21.674 103.29-21.719 22.767-.027 25.21 2.18 25.21 22.778 0 27.193-5.159 57.654-14.52 85.736-7.007 21.02-23.753 50.266-41.495 72.469-10.425 13.045-36.757 39.48-56.12 56.338L332.23 303.08l-.629 8.21c-.346 4.516-1.084 17.21-1.64 28.21-2.612 51.64-2.83 54.42-4.532 58.008-.921 1.942-2.858 4.353-4.302 5.357-2.5 1.738-39.868 23.536-78.54 45.815-20.318 11.706-22.275 12.198-29.641 7.461zm41.468-27.797c58.762-34.167 60.535-35.261 61.012-37.636.243-1.214.97-13.233 1.616-26.708.645-13.475 1.719-33.9 2.386-45.39l1.212-20.892 3.48-3.109c1.913-1.71 10.23-9.047 18.483-16.304 20.845-18.333 45.21-43.523 56.077-57.975 26.362-35.059 39.786-67.256 46.237-110.896 1.49-10.087 3.216-39.056 2.496-41.923-.863-3.442-5.851-3.942-25.56-2.562-53.475 3.743-87.966 16.286-128.835 46.856-14.356 10.737-41.291 37.077-61.756 60.39-8.544 9.732-16.26 17.98-17.148 18.328-1.619.635-14.925 1.492-53.114 3.419-32.784 1.654-39.878 2.243-41.384 3.436-1.542 1.221-53.676 90.11-54.31 92.6-.23.899 3.1 4.984 8.13 9.978l8.52 8.455 32.963-10.205C133.05 292.593 149.156 288 150.711 288c2.383 0 8.352 5.534 38.058 35.283C214.762 349.314 224 359.173 224 360.879c0 1.273-4.5 17.033-10 35.023-5.5 17.99-10 33.348-10 34.131 0 1.868 15.03 16.967 16.89 16.967.79 0 15.876-8.395 33.524-18.656zm104.888-256.447c-7.029-2.702-14.56-9.687-18.002-16.694-2.401-4.89-2.8-6.916-2.8-14.218 0-7.61.35-9.227 3.3-15.224 5.848-11.89 16.095-18.167 29.7-18.19 9.69-.018 16.977 2.906 23.5 9.429 6.663 6.663 9.46 13.775 9.439 24-.023 10.671-3.04 17.658-10.537 24.399-9.292 8.354-23.052 10.938-34.6 6.498zm24.54-13.288c9.14-6.333 11.912-20.338 5.842-29.51-7.442-11.246-22.515-13.454-32.427-4.752-9.469 8.314-9.67 23.72-.422 32.41 4.406 4.142 8.041 5.293 15.768 4.994 5.928-.23 7.787-.75 11.24-3.142z" transform="translate(-.242 -.215)"/><path style="fill:#6f6f6f" d="M216.58 457.516c-5.081-1.81-20.138-16.55-22.735-22.254-2.32-5.098-2.939-2.288 9.387-42.58l9.121-29.817-31.42-31.432C163.65 314.145 148.906 300 148.166 300c-.74 0-14.468 4.117-30.506 9.148-16.038 5.032-31.223 9.357-33.744 9.611-6.315.638-8.73-.862-20.166-12.53-14.47-14.765-15.972-9.116 17.884-67.266 15.198-26.105 28.36-48.313 29.25-49.351 3.153-3.684 7.805-4.658 26.915-5.639 45.136-2.315 57.161-2.979 64.321-3.55l7.62-.608 11.38-13.139c14.688-16.958 41.025-43.935 51.88-53.14 17.79-15.087 34.142-26.023 55.5-37.12 26.702-13.872 65.851-22.49 103.5-22.786 26.787-.21 28.25 1.716 26.094 34.37-3.292 49.853-15.333 87-40.438 124.747C399.39 240.21 384.6 255.89 336.303 299l-5.042 4.5-.645 13.5c-1.195 24.994-2.718 53.412-3.55 66.248-.738 11.393-1.092 13.094-3.337 16-1.758 2.278-16.592 11.428-49.505 30.539-25.846 15.007-48.505 27.72-50.352 28.25-1.847.53-3.362.943-3.365.92-.004-.025-1.77-.673-3.926-1.441zm42.479-31.313a49094.198 49094.198 0 0 0 46.689-27.206c5.086-2.974 9.458-6.103 9.715-6.952.505-1.671 1.843-23.202 3.515-56.545.578-11.55 1.312-24.726 1.63-29.28l.576-8.279 15.658-13.668c18.467-16.122 47.3-44.663 55.835-55.273 32.666-40.603 48.32-78.389 53.854-130 1.974-18.406 1.95-32.356-.057-34.022-1.166-.967-5.595-1.125-18.75-.668-36.61 1.272-70.108 9.09-95.724 22.343-15.593 8.067-37.385 22.594-50.5 33.663-12.464 10.52-34.788 33.307-52.754 53.85-9.952 11.379-14.46 15.816-16.474 16.215-1.524.302-16.722 1.26-33.772 2.13-48.484 2.471-58.583 3.17-59.487 4.112-2.015 2.1-53.403 91.108-53.82 93.22-.37 1.874 1.109 3.922 7.4 10.25C77.927 305.46 81.201 308 82.784 308c1.282 0 16.904-4.5 34.715-10 17.811-5.5 32.958-10 33.659-10 1.367 0 70.311 68.297 71.965 71.29.748 1.353-1.483 9.89-9.146 35-5.575 18.265-10.368 34.038-10.653 35.05-.374 1.33 1.812 4.168 7.893 10.25 4.626 4.625 8.858 8.41 9.405 8.41.547 0 17.844-9.809 38.436-21.797zm103.935-253.626c-6.067-1.677-8.488-3.07-13.728-7.9-8.221-7.577-12.092-18.793-10.15-29.405 4.842-26.445 36.513-36.599 55.362-17.75 6.765 6.765 9.522 13.647 9.521 23.766 0 9.087-3.573 17.261-10.204 23.35-5.434 4.989-7.667 6.241-14.249 7.994-6.079 1.62-10.543 1.604-16.552-.055zm15.506-10.682c2.582-.707 5.65-2.796 8.656-5.894 19.91-20.522-9.834-50.871-31.003-31.634-8.724 7.927-9.087 22.137-.799 31.205 6.148 6.726 13.916 8.848 23.146 6.323z" transform="translate(-.242 -.215)"/><path style="fill:#4f4f4f" d="M214.5 456.124c-4.86-3.025-20.303-19.49-21.041-22.431-.974-3.882-.432-6.064 9.544-38.426 4.948-16.053 8.997-30.22 8.997-31.483 0-3.43-60.544-63.784-63.986-63.784-1.36 0-15.083 3.887-30.494 8.637-15.411 4.751-29.595 9.009-31.52 9.462-6.45 1.517-10.08-.38-20.84-10.895-10.677-10.433-12.496-13.933-10.385-19.988 1.557-4.468 54.2-94.4 57.062-97.482 1.412-1.521 4.164-3.174 6.115-3.672 1.952-.5 13.898-1.397 26.548-1.996 48.334-2.288 62.08-3.185 64.5-4.209 1.375-.581 7.9-7.312 14.5-14.955 16.977-19.662 42.093-44.899 55-55.263 24.466-19.646 52.073-35.594 73.5-42.46 26.302-8.426 48.083-12.085 76.5-12.85 19.853-.535 20.026-.521 23.485 1.846 5.354 3.663 5.985 5.804 5.991 20.325.016 37.152-10.1 80.88-25.53 110.352-8.024 15.329-20.327 34.001-31.722 48.148-9.345 11.601-42.756 44.735-58.486 58-5.543 4.675-10.368 9.172-10.72 9.994-.353.821-1.28 13.646-2.06 28.5-3.476 66.15-3.394 65.445-8.106 69.673-1.018.914-23.201 14.075-49.295 29.247-50.857 29.57-51.148 29.701-57.557 25.71Zm9.816-9.264c13.561-7.078 90.155-52.677 91.135-54.256.926-1.492 1.94-15.045 3.488-46.604 1.2-24.475 2.646-45.625 3.213-47 .567-1.375 7.334-7.9 15.038-14.5 19.307-16.54 46.82-43.891 56.832-56.5 16.455-20.72 32.823-48.53 39.426-66.984 3.988-11.146 9.223-31.887 11.614-46.016 2.484-14.68 3.901-48.437 2.108-50.23-1.624-1.624-28.591-1.17-43.31.73-27.58 3.559-52.54 10.69-71.826 20.523-13.543 6.905-34.356 20.452-47.034 30.613-11.49 9.21-37.522 35.347-54.643 54.864-7.72 8.8-14.704 16.552-15.52 17.227-1.473 1.216-10.987 1.958-54.337 4.236-41.064 2.159-40.227 2.078-42.017 4.056C115.717 200.075 64 289.33 64 291.049 64 293.094 80.242 309 82.333 309c1.429 0 9.944-2.576 50.167-15.178 7.15-2.24 14.733-4.307 16.852-4.593l3.851-.52 34.899 34.939C212.054 347.628 223 359.252 223 360.71c0 1.168-4.5 16.868-10 34.888s-10 33.681-10 34.802c0 2.444 15.055 17.599 17.483 17.599.907 0 2.631-.513 3.833-1.14zm137.037-275.232c-8.243-2.696-14.646-8.517-19.425-17.659-3.272-6.259-3.404-19.342-.264-26.145 3.055-6.62 9.61-13.32 16.194-16.554 4.78-2.347 6.864-2.763 13.642-2.721 9.362.057 14.936 2.14 21.428 8.005 17.09 15.44 13.193 43.464-7.434 53.449-5.942 2.877-17.862 3.679-24.141 1.625zm16.48-9.17c20.198-6 21.936-33.74 2.667-42.58-14.43-6.619-31.5 4.497-31.5 20.512 0 10.55 5.46 18.35 15.196 21.713 6.53 2.255 7.178 2.272 13.637.354z" transform="translate(-.242 -.215)"/><path style="fill:#2e2e2e" d="M204.8 446.2c-13.993-13.993-13.874-9.427-1.322-50.7 2.008-6.6 5.004-16.38 6.658-21.734 1.655-5.353 2.755-10.535 2.444-11.514-.98-3.09-61.969-63.252-64.117-63.249-1.08.002-6.913 1.541-12.963 3.422-37.982 11.803-44.422 13.77-48.233 14.734-7.551 1.908-10.557.593-20.464-8.958-4.947-4.77-9.626-9.893-10.399-11.386-3.365-6.508-3.05-7.202 25.747-56.672 14.933-25.654 28.599-48.151 30.368-49.995 2.963-3.086 3.882-3.416 11.6-4.166 4.61-.448 19.406-1.328 32.881-1.955 32.013-1.49 51.848-2.815 53.025-3.542.52-.322 5.544-5.85 11.163-12.285 41.708-47.76 70.417-71.918 108.312-91.146 16.891-8.57 42.154-16.062 66-19.572 14.769-2.174 38.202-3.447 47.864-2.6 7.2.632 8.108.963 10.75 3.92l2.886 3.23-.003 15.734c-.005 27.876-4.781 56.075-14.17 83.66-7.65 22.477-22.819 48.718-41.993 72.649-10.093 12.595-32.773 35.326-54.04 54.16-8.638 7.65-15.935 14.664-16.215 15.587-.488 1.602-1.428 18.128-3.593 63.178-1.257 26.141-1.575 28.358-4.59 31.941-1.444 1.716-22.28 14.476-49.812 30.505-58.268 33.922-52.132 32.406-67.784 16.754Zm63.058-23.81c25.103-14.635 46.373-27.254 47.266-28.041 1.849-1.629 2.374-6.56 3.87-36.349 2.429-48.368 3.054-58.26 3.756-59.476.412-.714 8.175-7.817 17.25-15.784 41.389-36.337 63.698-62.332 81.956-95.498 13.212-24.002 21.52-51.984 25.52-85.948C449.328 85.56 449.5 65.9 447.8 64.2c-2.98-2.98-39.477-.826-62.587 3.693C354.208 73.956 335.278 81.7 308 99.48c-25.294 16.486-47.312 36.745-78.271 72.02-9.93 11.313-15.808 17.223-17.575 17.667-2.581.648-21.03 1.727-67.154 3.927-12.713.607-23.576 1.581-24.975 2.241-1.77.835-10.087 14.213-29.194 46.953-14.696 25.181-27.013 46.709-27.371 47.838C62.477 293.224 78.423 309 82.538 309c1.6 0 17.64-4.525 35.646-10.056 24.759-7.606 33.173-9.816 34.526-9.068.985.544 16.977 16.222 35.54 34.84C216.727 353.28 222 359.012 222 361.41c0 1.564-4.5 17.465-10 35.337-5.5 17.872-10 32.994-10 33.604 0 1.614 17.206 18.649 18.837 18.649.758 0 21.918-11.974 47.02-26.61zm97.486-250.384c-9.322-1.95-17.263-7.82-21.898-16.187-2.681-4.841-2.946-6.172-2.946-14.819 0-10.989 1.94-16.204 8.443-22.708 5.987-5.987 12.269-8.685 21.242-9.123 6.668-.325 8.455-.023 13.5 2.28 11.798 5.388 18.34 14.836 19.077 27.551.784 13.558-5.292 24.222-17.054 29.927-6.853 3.324-14.014 4.407-20.364 3.079zm16.346-10.442c8.729-4.064 14.213-13.957 12.93-23.32-1.961-14.31-15.95-23.931-29.343-20.181-6.2 1.735-14.634 9.785-16.175 15.437-5.49 20.132 13.851 36.788 32.588 28.064z" transform="translate(-.242 -.215)"/><path style="fill:#060606" d="M217.463 455.912c-4.165-1.178-22.424-19.8-22.574-23.022-.23-4.974.53-7.946 9.749-38.08 5.203-17.01 9.216-31.693 8.919-32.631-.89-2.804-62.966-64.179-64.912-64.179-.98 0-15.748 4.328-32.818 9.618-24.264 7.518-31.88 9.504-34.896 9.1-3.073-.413-5.612-2.118-12.456-8.368-4.728-4.318-9.47-9.253-10.536-10.968-4.151-6.675-4.034-6.943 24.677-56.21 14.639-25.12 27.733-47.162 29.098-48.984 1.365-1.822 3.611-3.741 4.99-4.266 1.38-.524 15.398-1.628 31.152-2.454 53.134-2.782 61.032-3.306 62.443-4.138.773-.457 6.688-6.905 13.143-14.33 16.687-19.191 44.157-46.75 56.514-56.699C300.13 94.061 328.057 77.177 345 70.977c21.145-7.739 47.455-13.097 73.82-15.036 27.038-1.987 33.65-.754 36.918 6.887 1.384 3.234 1.435 5.94.43 22.715-3.43 57.281-17.585 96.756-50.543 140.957-9.98 13.383-44.26 48.385-63.125 64.453-6.05 5.153-11.503 10.31-12.119 11.458-.663 1.239-2.004 19.594-3.294 45.089-1.196 23.65-2.411 44.216-2.7 45.703-.289 1.487-1.4 3.816-2.471 5.177-2.181 2.773-95.005 57.092-98.916 57.884-1.375.278-3.866.12-5.537-.352zm51.39-33.091c24.556-14.289 45.658-26.964 46.893-28.168 2.186-2.132 2.31-3.41 4.686-48.173 1.342-25.29 2.727-46.657 3.077-47.481.351-.825 5.066-5.233 10.478-9.797 63.072-53.19 94.604-97.645 107.97-152.223 5.15-21.031 8.016-43.225 8.034-62.229.013-12.4-.43-12.758-15.741-12.724-35.56.078-74.548 8.531-101.25 21.952-36.549 18.37-64.045 41.39-104.32 87.334-7.534 8.595-14.481 16.034-15.439 16.531-1.636.85-13.368 1.609-70.005 4.53-22.679 1.17-23.324 1.263-25.627 3.664-4.182 4.36-54.609 92.01-54.609 94.92C63 294.857 78.556 310 82.563 310c1.544 0 17.332-4.5 35.084-10 17.753-5.5 32.828-10 33.5-10 1.46 0 63.86 61.849 67.886 67.288l2.804 3.787-1.796 6.213c-.988 3.416-5.676 18.86-10.419 34.319C204.88 417.066 201 430.22 201 430.838c0 1.581 12.878 15.091 16.497 17.306 1.648 1.009 3.832 1.569 4.853 1.245 1.021-.324 21.948-12.28 46.503-26.568zm95.881-251.855c-14.18-3.545-23.75-15.324-23.857-29.366-.076-9.85 2.385-16.022 9.043-22.68 7.06-7.06 13.028-9.295 23.406-8.763 12.071.618 21.19 6.917 26.211 18.105 2.4 5.347 2.65 6.915 2.254 14.126-.51 9.27-2.664 14.419-8.461 20.216-6.921 6.92-19.568 10.619-28.596 8.362zM381 162.92c14.177-6.417 18.781-21.63 10.62-35.087-6.588-10.864-20.204-14.449-31.51-8.295-6.196 3.372-9.483 7.268-11.751 13.924-5.13 15.056 6.948 31.495 23.141 31.495 2.89 0 6.898-.86 9.5-2.037z" transform="translate(-.242 -.215)"/></svg>