<svg xmlns="http://www.w3.org/2000/svg" viewBox="0 0 192 192"><path d="M18.484 132.058c-2.866-27.653-2.737-53.202.388-76.632l1-7.503h152.252l1.034 7.757c3.042 22.806 3.161 49.102.348 76.378L172.067 146H19.929Zm110.178-17.308c6.362-30.957 7.137-35.168 6.721-36.527-.824-2.69-3.245-1.483-3.837 1.912-.323 1.851-1.532 8.003-2.686 13.672l-2.099 10.308-2.209-12.631c-2.111-12.073-4.147-16.685-5.848-13.251-.433.875.749 8.908 2.628 17.852 2.977 14.173 3.282 17.02 2.376 22.167-1.387 7.878-1.333 8.517.722 8.517 1.263 0 2.462-3.404 4.232-12.019Zm-84.3-4.35c.228-3.208-.26-3.865-2.857-3.846-3.103.023-3.135-.07-3.418-9.936-.276-9.64-.2-9.979 2.381-10.577 3.736-.866 3.775-8.053.048-8.919-2.21-.513-2.62-1.512-2.62-6.391 0-4.469-.378-5.637-1.667-5.141-.933.359-1.812 2.748-1.996 5.43-.182 2.633-.932 5.48-1.667 6.326-1.763 2.028-1.709 6.948.092 8.343 1.033.801 1.428 4.07 1.428 11.808 0 13.491 1.784 18.167 6.619 17.346 2.545-.432 3.45-1.531 3.657-4.443Zm6.869-8.563c0-11.564.269-13.684 1.966-15.518 1.475-1.594 2.326-1.522 3.406.289 1.166 1.954 1.605 1.888 2.306-.347.476-1.519.872-3.38.88-4.136.03-2.884-3.502-4.919-8.082-4.656l-4.762.273-.273 18.745-.272 18.744h2.415c2.355 0 2.416-.338 2.416-13.394Zm23.521 8.727c2.288-3.995 2.443-4.847 1.08-5.917-.876-.688-2.455-.319-3.509.82-3.057 3.303-6.628 2.486-7.757-1.775-.978-3.688-.724-3.846 6.158-3.846h7.177v-5.917c0-8.62-4.503-17.16-9.049-17.16-2.576 0-4.203 1.46-6.264 5.622-8.422 17.003 3.177 43.867 12.164 28.173ZM63.613 91.33c0-.454.674-2.184 1.497-3.846 2.061-4.16 5.486-3.787 7.552.824 1.705 3.803 1.664 3.846-3.662 3.846-2.963 0-5.387-.371-5.387-.824Zm20.003 12.236c0-13.959 1.154-19.104 4.286-19.104 3.132 0 4.286 5.145 4.286 19.104 0 10.383.209 11.665 1.905 11.665 1.737 0 1.905-1.282 1.905-14.511 0-12.864-.267-15.049-2.351-19.258-2.058-4.154-3.041-4.667-7.858-4.102l-5.507.645-.273 18.613c-.258 17.621-.169 18.613 1.667 18.613 1.738 0 1.94-1.213 1.94-11.665Zm27.685 9.674c1.269-1.372 1.842-1.372 1.842 0 0 1.095.87 1.991 1.933 1.991 1.856 0 1.923-.985 1.667-24.496-.234-21.549-.467-24.573-1.933-25.141-1.369-.53-1.667.767-1.667 7.256 0 7.215-.16 7.728-1.842 5.91-4.797-5.182-10.725-.403-12.972 10.458-1.579 7.63-.901 13.839 2.263 20.724 2.603 5.665 7.206 7.083 10.709 3.298Zm-8.091-8.724c-3.365-6.794-.684-20.054 4.055-20.054 2.498 0 5.878 6.388 5.878 11.11 0 10.018-6.502 15.873-9.933 8.944Zm49.079 4.742c8.5-18.37-4.327-43.7-13.63-26.916-6.661 12.016-2.233 32.889 6.978 32.889 3.122 0 4.433-1.178 6.652-5.973Zm-10.191-3.191c-.576-.777-1.584-3.468-2.24-5.98-1.018-3.898-.92-5.307.666-9.616 2.388-6.488 6.182-7.476 8.756-2.28 2.344 4.732 2.488 9.283.48 15.073-1.478 4.259-5.492 5.727-7.662 2.803Zm18.669-15.977c0-22.908-.148-25.084-1.667-24.496-1.466.568-1.698 3.592-1.933 25.141-.256 23.511-.189 24.496 1.667 24.496 1.844 0 1.933-1.159 1.933-25.141Z"/></svg>