<svg xmlns="http://www.w3.org/2000/svg" viewBox="0 0 192 192"><path fill="none" stroke="#000" stroke-linecap="round" stroke-linejoin="round" stroke-width="8" d="M170.552 51.824c-44.459.345-51.811 7.764-61.727 26.057h49.076Zm-47.012 64.195a40.146 40.146 0 0 1-11.011 21.338 39.531 39.531 0 0 1-21.145 11.107 118.395 118.395 0 0 1-16.243 1.722c-6.498.171-58.646.171-58.646.171s19.834-.172 22.57-.172a176.4 176.4 0 0 0 19.323-1.381c13.616-1.159 27.265-15.486 30.771-28.815l3.933-13.459a24.445 24.445 0 0 1 8.321-14.085 24.05 24.05 0 0 1 15.276-5.588l38.346-.942-13.379.329a17.53 17.53 0 0 0-11.17 4.734 17.832 17.832 0 0 0-5.493 10.898Z"/><path fill="none" stroke="#000" stroke-linecap="round" stroke-linejoin="round" stroke-width="8" d="m79.243 89.961-34.538 3.445-23.252 46.599c18.466 0 27.871-1.723 38.642-17.256a320.01 320.01 0 0 0 19.148-32.787Zm96.264-48.318h-72.828c-24.629 0-37.284 8.456-44.98 23.987l-5.984 12.25h33.163c11.636-22.778 28.735-35.71 63.788-36.237Z"/></svg>