<svg
    xmlns="http://www.w3.org/2000/svg"
    viewBox="0 0 192 192"
    id="vector">
    <path
        id="path"
        d="M 170.552 51.824 C 126.093 52.169 118.741 59.588 108.825 77.881 L 157.901 77.881 Z M 123.54 116.019 C 122.126 124.102 118.28 131.553 112.529 137.357 C 106.777 143.16 99.393 147.039 91.384 148.464 C 86.015 149.411 80.588 149.987 75.141 150.186 C 68.643 150.357 16.495 150.357 16.495 150.357 C 16.495 150.357 36.329 150.185 39.065 150.185 C 45.526 150.079 51.976 149.618 58.388 148.804 C 72.004 147.645 85.653 133.318 89.159 119.989 L 93.092 106.53 C 94.172 101.008 97.113 96.03 101.413 92.445 C 105.713 88.861 111.112 86.885 116.689 86.857 L 155.035 85.915 L 141.656 86.244 C 137.496 86.439 133.536 88.117 130.486 90.978 C 127.436 93.84 125.489 97.703 124.993 101.876 Z"
        fill="none"
        stroke="#000000"
        stroke-width="8"
        stroke-linecap="round"
        stroke-linejoin="round"/>
    <path
        id="path_1"
        d="M 79.243 89.961 L 44.705 93.406 L 21.453 140.005 C 39.919 140.005 49.324 138.282 60.095 122.749 C 67.118 112.214 73.512 101.265 79.243 89.962 Z M 175.507 41.643 L 102.679 41.643 C 78.05 41.643 65.395 50.099 57.699 65.63 L 51.715 77.88 L 84.878 77.88 C 96.514 55.102 113.613 42.17 148.666 41.643 Z"
        fill="none"
        stroke="#000000"
        stroke-width="8"
        stroke-linecap="round"
        stroke-linejoin="round"/>
</svg>
