<svg xmlns="http://www.w3.org/2000/svg" viewBox="0 0 192 192"><path fill="none" stroke="#000" stroke-linecap="round" stroke-linejoin="round" stroke-width="12" d="M96 16.5a19.919 19.919 0 0 1 14.073 5.819 19.878 19.878 0 0 1 5.833 14.055v119.25a19.878 19.878 0 0 1-5.833 14.056A19.913 19.913 0 0 1 96 175.499a19.916 19.916 0 0 1-14.073-5.819 19.875 19.875 0 0 1-5.832-14.055V36.376a19.871 19.871 0 0 1 9.954-17.215A19.918 19.918 0 0 1 96 16.5Zm-75.641 3.628a3.63 3.63 0 0 1 1.816-3.14 3.64 3.64 0 0 1 1.816-.485 36.218 36.218 0 0 1 25.573 10.581A36.15 36.15 0 0 1 60.17 52.625v119.25a3.624 3.624 0 0 1-3.632 3.625 36.221 36.221 0 0 1-25.575-10.581 36.148 36.148 0 0 1-10.606-25.543Zm111.472 32.496a36.147 36.147 0 0 1 10.605-25.543A36.221 36.221 0 0 1 168.011 16.5a3.631 3.631 0 0 1 3.145 1.811c.319.552.487 1.177.487 1.814v119.25a36.148 36.148 0 0 1-10.606 25.543 36.217 36.217 0 0 1-25.574 10.581 3.626 3.626 0 0 1-3.632-3.625Z"/></svg>