<svg xmlns="http://www.w3.org/2000/svg" viewBox="0 0 192 192"><path d="M169.614 66.867c1.488-2.134 4.09-6.42 5.472-11.963 1.842-7.392 1.8-18.44-8.86-29.095-10.659-10.653-21.712-10.695-29.107-8.854-5.548 1.381-9.837 3.984-11.971 5.47l-5.079-5.076a2.609 2.609 0 0 0-3.689 0L96.997 36.722a2.605 2.605 0 0 0 0 3.69l4.884 4.882-28.306 28.291-28.308 28.293-4.886-4.884a2.61 2.61 0 0 0-3.689 0l-19.384 19.374a2.608 2.608 0 0 0 0 3.69l5.078 5.075c-1.488 2.134-4.09 6.42-5.472 11.963-1.842 7.392-1.8 18.44 8.86 29.094 7.551 7.547 15.297 9.769 21.803 9.768 2.678 0 5.147-.376 7.304-.913 5.548-1.381 9.837-3.983 11.971-5.47l5.079 5.076c.509.51 1.177.764 1.844.764.668 0 1.335-.255 1.845-.764l19.383-19.373a2.607 2.607 0 0 0 0-3.69l-4.884-4.882 18.883-18.873a2.608 2.608 0 1 0-3.688-3.691l-18.886 18.875-4.885-4.883a2.608 2.608 0 0 0-3.689 0l-5.291 5.287-24.009-23.997 5.288-5.285a2.607 2.607 0 0 0 0-3.691l-4.884-4.881 28.305-28.291 28.308-28.292 4.886 4.883c.51.509 1.177.763 1.845.763a2.6 2.6 0 0 0 1.844-.763l4.886-4.883 7.549 7.545a2.61 2.61 0 0 0 3.689-3.691l-7.548-7.543.87-.869 1.094-1.094 24.01 23.997-.272.272-1.692 1.69-8.386-8.381a2.608 2.608 0 1 0-3.688 3.69l8.384 8.38-4.885 4.881a2.61 2.61 0 0 0 0 3.691l4.884 4.881-28.305 28.292a2.607 2.607 0 0 0 1.844 4.454c.667 0 1.335-.255 1.844-.764l28.308-28.292 4.886 4.883a2.6 2.6 0 0 0 1.845.764c.667 0 1.334-.255 1.844-.764l19.384-19.373a2.607 2.607 0 0 0 0-3.69ZM38.537 102.528l9.77 9.765-5.285 5.283-.003.002-5.654 5.651-.001.001-4.75 4.748-9.771-9.765Zm41.161 41.139 9.77 9.765-15.693 15.685-9.77-9.765Zm-10.825 3.442-1.964 1.963-8.386-8.382a2.608 2.608 0 1 0-3.688 3.69l8.384 8.38-4.749 4.747a2.607 2.607 0 0 0 0 3.69l4.622 4.62c-1.954 1.27-5.301 3.126-9.472 4.164-8.857 2.205-16.985-.312-24.158-7.482-14.01-14.002-6.688-28.523-3.328-33.62l4.636 4.633a2.6 2.6 0 0 0 1.844.763c.668 0 1.335-.254 1.844-.763l4.751-4.749 7.549 7.545a2.61 2.61 0 0 0 3.689-3.69l-7.548-7.543 1.964-1.962Zm53.97-109.312-.001.001-3.245 3.243-7.295 7.292-9.77-9.765 15.693-15.685 9.77 9.765Zm5.534 1.846 5.153-5.15a2.607 2.607 0 0 0 0-3.691l-4.633-4.63c5.102-3.359 19.631-10.674 33.64 3.327 14.013 14.005 6.685 28.529 3.329 33.621l-4.636-4.633a2.61 2.61 0 0 0-3.689 0l-5.155 5.153Zm25.086 49.829-9.77-9.765 4.883-4.881.001-.001 5.654-5.651 5.155-5.152 9.771 9.765Z"/></svg>