<svg xmlns="http://www.w3.org/2000/svg" viewBox="0 0 192 192"><path d="M80.326 174.665c-9.332-1.905-20.953-7.624-28.144-13.851-13.051-11.301-17.691-23.945-17.691-48.211V96.354l-5.301-.861C22.529 94.411 16 87.984 16 82.509c0-5.474 7.373-11.804 13.749-11.804h4.742v-8.804c0-14.623 6.837-22.099 18.229-19.932 7.818 1.487 10.085 5.022 10.997 17.153l.821 10.916 18.701.374c17.344.346 18.992.607 22.728 3.605 3.038 2.438 4.027 4.532 4.027 8.524 0 11.615-3.998 13.516-28.43 13.516H63.768v16.721c0 12.074.662 18.095 2.384 21.664 5.398 11.187 15.513 16.246 32.57 16.291 13.73.036 18.141 1.431 21.312 6.74 3.268 5.473 1.788 10.972-4.108 15.269-4.167 3.036-5.879 3.358-17.221 3.237-6.927-.074-15.198-.665-18.379-1.314Zm54.662-97.622c-.869-.917-2.353-4.176-3.3-7.241-2.065-6.69-8.503-11.782-17.526-13.862-9.691-2.234-11.058-3.135-11.577-7.63-.687-5.946 3.496-7.574 14.417-5.611 15.786 2.838 29.974 16.271 29.974 28.381 0 3.448-.87 5.272-2.981 6.25-3.974 1.842-7.086 1.743-9.007-.287Zm29.181-2.124c-1.638-1.418-3.231-5.33-3.767-9.249-2.35-17.178-20.686-32.765-41.933-35.645-11.932-1.618-13.044-2.036-13.975-5.248-1.655-5.709 1.65-8.777 9.455-8.777 8.304 0 23.2 4.143 31.804 8.847 15.537 8.493 27.859 24.772 29.809 39.384.876 6.558.586 7.899-2.234 10.341-3.974 3.441-5.519 3.499-9.159.347Z"/></svg>