<svg xmlns="http://www.w3.org/2000/svg" viewBox="0 0 192 192"><path fill="none" stroke="#000" stroke-linecap="round" stroke-linejoin="round" stroke-width="8" d="M35.3 147.069c5.996-10.934 9.973-12.92 9.973-12.92m71.124.081c-3.397 4.327-2.888 14.478 1.244 21.554 2.233 3.822 4.399 9.801 5.92 14.49m-26.468-64.563s-7.944-7.594-3.034-12.618c5.892-6.028 11.342 3.347 12.722 5.865"/><path fill="none" stroke="#000" stroke-linecap="round" stroke-linejoin="round" stroke-width="8" d="M76.15 120.059s8.307 19.937.553 23.385c-7.754 3.448-10.184-7.884-10.184-7.884.091 2.823-1.422 8.048-5.486 7.759-4.981-.355-5.781-7.836-5.761-11.67-9.343 18.309-15.105-7.658-8.07-27.092 2.888-11.056 8.177-18.73 8.177-18.73s-6.299-8.55-2.792-11.497c3.507-2.947 4.441 1.48 4.441 1.48s.268-10.362 4.484-10.582c4.215-.22 3.17 4.975 3.17 4.975s2.522-4.082 5.462-2.975c2.94 1.108 1.11 5.688 1.11 5.688s14.357-6.627 28.937.482c14.58 7.108 11.808 24.165 18.874 21.456 7.067-2.709-1.195-11.559-3.855-14.472-2.659-2.913-6.753-12.177.54-19.153l3.459 6.265 5.54-1.135s-5.198 9.019 3.728 12.69c8.925 3.671 15.545 15.281 14.638 26.883-.402 5.142-4.977 10.361-10.242 14.955"/><path fill="none" stroke="#000" stroke-linecap="round" stroke-linejoin="round" stroke-width="8" d="M132.15 109.062s-4.841 12.157-19.769 11.687c-5.9-.186-10.22 3.35-9.493 8.431.791 5.529 6.756 6.329 13.216 5.03 15.242-3.065 18.804-13.967 16.046-25.148Zm-43.314 54.354s4.523 5.991 5.188 11.784m-18.002-2.217c-1.282-4.823-2.809-9.491-6.953-10.688-4.229-1.221-8.112.674-11.21 3.315m55.804-112.966-9.622-10.341 8.559-3.673Zm11.482.362.396-14.12 8.677 3.386-9.073 10.734Zm9.113 7.054 9.923-10.052 4.033 8.395Z"/><path fill="none" stroke="#000" stroke-linecap="round" stroke-linejoin="round" stroke-width="8" d="M96 16.5a79.529 79.529 0 0 0-56.215 23.285A79.529 79.529 0 0 0 16.5 96a79.529 79.529 0 0 0 23.285 56.215A79.529 79.529 0 0 0 96 175.5a79.529 79.529 0 0 0 56.215-23.285A79.529 79.529 0 0 0 175.5 96a79.529 79.529 0 0 0-23.285-56.215A79.529 79.529 0 0 0 96 16.5Z"/></svg>