<svg xmlns="http://www.w3.org/2000/svg" width="192" height="192" viewBox="0 0 192 192"><g fill="none" stroke="#000" stroke-linecap="round" stroke-linejoin="round" stroke-width="12"><path d="M162 22H30a8 8 0 0 0-8 8v132a8 8 0 0 0 8 8h132a8 8 0 0 0 8-8V30a8 8 0 0 0-8-8z" class="a"/><path d="M102.31 144.57c-.164-19.156 4.25-34.986 28.326-33.992 34.344-87.527-105.7-84.19-68.367-.523 11.32-.702 30.085 6.037 26.88 36.586M170 133.92 22 157.214M22 44.16l49.379 9.16m58.041 8.8 40.578 5.926" class="a"/></g></svg>