<svg xmlns="http://www.w3.org/2000/svg" viewBox="0 0 192 192"><path fill="none" stroke="#000" stroke-linecap="round" stroke-linejoin="round" stroke-width="8" d="M133.05 27.799v18.153h21.375a1.778 1.778 0 0 1 1.779 1.815 1.925 1.925 0 0 1-.334 1.074l-42.195 56.384a1.817 1.817 0 0 1-2.557.333 1.609 1.609 0 0 1-.37-.333L68.701 48.878a1.773 1.773 0 0 1 1.37-2.889h21.376V17.945a1.485 1.485 0 0 0-1.519-1.445 79.779 79.779 0 0 0-46.189 19.377 79.768 79.768 0 0 0-25.528 43.095 79.767 79.767 0 0 0 5.201 49.818 79.769 79.769 0 0 0 33.878 36.893 1.522 1.522 0 0 0 1.825-.38c.219-.257.346-.579.361-.917v-18.93H37.989c-.481 0-.943-.191-1.283-.532a1.812 1.812 0 0 1-.532-1.283 2.01 2.01 0 0 1 .37-1.112l42.085-56.457a1.851 1.851 0 0 1 2.593-.296l.334.296 42.047 56.457a1.815 1.815 0 0 1-.371 2.557 1.966 1.966 0 0 1-1.074.37h-21.376v28.562a1.483 1.483 0 0 0 1.482 1.482 79.775 79.775 0 0 0 46.041-19.399 79.78 79.78 0 0 0 25.468-42.982 79.777 79.777 0 0 0-5.097-49.699 79.77 79.77 0 0 0-33.663-36.917 1.516 1.516 0 0 0-1.963.778 1.41 1.41 0 0 0 0 .518Z"/></svg>