<svg xmlns="http://www.w3.org/2000/svg" viewBox="0 0 192 192"><path d="M58.56 154.482c-3.229-.588-9.296-2.965-13.483-5.282-9.399-5.203-19.558-16.92-23.983-27.663C6.287 85.591 26.187 43.03 60.439 37.39L68.876 36l13.294 8.659c7.312 4.762 13.647 8.658 14.077 8.658.431 0 6.56-3.799 13.62-8.442 14.302-9.406 15.835-9.75 27.764-6.232 22.64 6.678 38.338 30.218 38.338 57.489 0 16.167-4.688 29.52-14.354 40.887-8.906 10.473-17.367 15.39-30.422 17.679L123.767 156l-13.849-9.131-13.849-9.132-13.526 9.047c-7.439 4.976-14.558 8.984-15.819 8.906-1.262-.077-4.935-.621-8.164-1.208Zm5.337-25.096c0-16.202.088-16.875 2.507-18.995 1.379-1.209 12.881-8.983 25.56-17.274 13.482-8.817 22.659-15.522 22.104-16.151-.522-.592-11.183-7.781-23.692-15.977-24.163-15.83-25.207-16.234-34.108-13.181-7.499 2.571-11.437 5.215-17.635 11.839-10.371 11.083-14.822 23.629-14.009 39.49 1.189 23.207 18.107 43.843 38.472 46.925.44.067.801-7.438.801-16.676Zm72.916 14.366c13.528-4.721 24.03-16.601 29.157-32.983 1.923-6.146 1.984-22.529.108-29.11-4.933-17.309-19.761-32.524-34.295-35.189l-3.845-.705V79.88l-5.604 3.986c-3.082 2.192-14.61 9.897-25.618 17.122-12.279 8.06-19.498 13.468-18.678 13.994.734.472 11.662 7.679 24.283 16.017 12.622 8.338 23.979 15.165 25.238 15.172 1.259.007 5.423-1.082 9.254-2.419Zm-49.837-11.693c-.282-.317-3.668-2.662-7.526-5.209l-7.015-4.632v20.225l7.526-4.903c4.139-2.697 7.296-5.163 7.015-5.481Zm32.218-77.506-.329-4.795-6.671 4.455c-3.669 2.45-6.671 4.76-6.671 5.134 0 .374 3.002 2.685 6.671 5.135l6.671 4.455.329-4.795c.18-2.637.18-6.952 0-9.589Z"/></svg>