<svg xmlns="http://www.w3.org/2000/svg" viewBox="0 0 192 192"><path d="M96 16.681A79.636 79.636 0 0 0 49.271 31.83a79.34 79.34 0 0 0-28.88 39.659 79.162 79.162 0 0 0 0 49.022 79.34 79.34 0 0 0 28.88 39.659A79.636 79.636 0 0 0 96 175.319a79.621 79.621 0 0 0 56.215-23.232A79.258 79.258 0 0 0 175.5 96a79.258 79.258 0 0 0-23.285-56.087A79.621 79.621 0 0 0 96 16.681Zm-28.196 63.78h72.681m-72.681 22.094h43.753" fill="none" stroke="#000" stroke-width="8" stroke-linecap="round" stroke-linejoin="round"/><path d="M121.2 114.322h9.872a9.892 9.892 0 0 1 6.982 2.885 9.846 9.846 0 0 1 2.891 6.965 9.843 9.843 0 0 1-4.936 8.531 9.888 9.888 0 0 1-13.487-3.605 9.843 9.843 0 0 1-1.322-4.926Zm-62.68-23.22v9.85a9.837 9.837 0 0 1-1.323 4.925 9.866 9.866 0 0 1-8.55 4.925 9.885 9.885 0 0 1-6.981-2.885 9.84 9.84 0 0 1-2.892-6.965 9.841 9.841 0 0 1 2.892-6.965 9.885 9.885 0 0 1 6.981-2.885Z" fill="none" stroke="#000" stroke-width="8" stroke-linecap="round" stroke-linejoin="round"/></svg>