<svg
    xmlns="http://www.w3.org/2000/svg"
    viewBox="0 0 192 192"
    id="vector">
    <path
        id="path"
        d="M 96 16.681 C 79.214 16.681 62.851 21.986 49.271 31.83 C 35.691 41.674 25.578 55.561 20.391 71.489 C 15.204 87.417 15.204 104.583 20.391 120.511 C 25.578 136.439 35.691 150.326 49.271 160.17 C 62.851 170.014 79.214 175.319 96 175.319 C 117.077 175.319 137.312 166.956 152.215 152.087 C 167.118 137.217 175.5 117.029 175.5 96 C 175.5 74.971 167.118 54.783 152.215 39.913 C 137.312 25.044 117.077 16.681 96 16.681 Z M 67.804 80.461 L 140.485 80.461 M 67.804 102.555 L 111.557 102.555"
        fill="none"
        stroke="#000000"
        stroke-width="8"
        stroke-linecap="round"
        stroke-linejoin="round"/>
    <path
        id="path_1"
        d="M 121.2 114.322 L 131.072 114.322 C 133.69 114.322 136.203 115.361 138.054 117.207 C 139.904 119.054 140.945 121.561 140.945 124.172 C 140.945 125.901 140.489 127.6 139.623 129.098 C 138.756 130.595 137.51 131.839 136.009 132.703 C 134.508 133.568 132.805 134.023 131.072 134.023 C 129.34 134.023 127.637 133.568 126.136 132.703 C 124.635 131.839 123.389 130.595 122.522 129.098 C 121.656 127.6 121.2 125.901 121.2 124.172 Z M 58.52 91.102 L 58.52 100.952 C 58.52 102.681 58.063 104.38 57.197 105.877 C 56.33 107.375 55.084 108.618 53.583 109.483 C 52.082 110.347 50.38 110.802 48.647 110.802 C 46.029 110.802 43.517 109.764 41.666 107.917 C 39.815 106.071 38.774 103.564 38.774 100.952 C 38.774 98.341 39.815 95.833 41.666 93.987 C 43.517 92.14 46.029 91.102 48.647 91.102 Z"
        fill="none"
        stroke="#000000"
        stroke-width="8"
        stroke-linecap="round"
        stroke-linejoin="round"/>
</svg>
