<svg xmlns="http://www.w3.org/2000/svg" viewBox="0 0 192 192"><path d="M135.009 175.239c-1.177-.534-3.799-2.832-8.06-7.065l-6.316-6.273 1.44-1.475 1.44-1.475 6.645 6.606c5.866 5.832 6.793 6.606 7.908 6.606.695 0 1.599-.18 2.01-.4 1.108-.593 2.029-2.614 1.732-3.798-.145-.577-3.013-3.797-6.717-7.542l-6.464-6.535 1.46-1.448 1.459-1.447 6.228 6.34c6.282 6.394 7.702 8.377 7.702 10.751 0 2.671-2.602 6.15-5.506 7.361-1.893.79-2.854.75-4.961-.206Zm-113.43-8.806c.004-2.536 1.02-8.222 1.995-11.168 6.438-19.448 26.468-33.979 53.164-38.567l1.748-.301.108-5.316.108-5.316-1.662-.845c-7.707-3.919-13.961-11.14-17.962-20.74-1.177-2.824-2.52-9.206-2.778-13.205-.225-3.47.392-11.85.871-11.85.087 0 2.037.942 4.334 2.094l4.177 2.095-.131 4.218c-.414 13.341 7.861 25.882 19.711 29.872l2.547.857.194 13.45.194 13.45h-3.108c-6.26 0-16.37 2.661-24.86 6.544-9.443 4.319-16.598 9.442-20.565 14.725-2.66 3.543-6.605 10.766-6.22 11.389.134.217 16.187.36 40.432.36h40.209l-.832 1.068c-.458.588-2.482 2.598-4.499 4.467l-3.667 3.399H63.333c-39.508 0-41.755-.036-41.754-.68Zm120.803-9.618-8.336-8.342 3.296-3.346c3.555-3.609 4.92-4.428 7.377-4.428 3.731 0 7.788 4.037 7.758 7.719-.014 1.594-1.301 3.983-3.053 5.664-.88.844-1.6 1.715-1.6 1.934 0 .218 1.313 1.719 2.918 3.333l2.918 2.936-1.471 1.436-1.471 1.437Zm4.584-4.963c1.153-1.175 1.635-1.994 1.635-2.78 0-1.995-2.907-4.877-4.92-4.877-.378 0-1.524.825-2.547 1.833l-1.862 1.833 2.81 2.828c1.545 1.556 2.908 2.828 3.029 2.828s.956-.749 1.855-1.665Zm16.359-5.646c-2.05-1.213-6.721-3.954-10.381-6.09l-6.653-3.884 1.493-1.499 1.494-1.498 8.038 5.325c4.422 2.929 8.125 5.239 8.23 5.134.203-.204-.935-2.055-5.664-9.21-1.623-2.457-3.335-5.092-3.804-5.856l-.852-1.388 1.487-1.452 1.487-1.452 6.11 10.558 6.111 10.559-1.472 1.507c-.81.829-1.568 1.495-1.685 1.479-.116-.016-1.889-1.021-3.939-2.233Zm-31.039-10.013c-9.099-5.871-24.748-11.032-33.449-11.032h-3.065V111.5c0-7.513.102-13.558.227-13.433.124.125 1.174-.099 2.332-.498 12.339-4.245 20.15-15.915 19.944-29.798l-.066-4.514 4.166-2.09c2.291-1.15 4.24-2.016 4.331-1.925.445.445.914 5.227.916 9.339.007 14.873-7.05 27.947-19.138 35.45l-3.195 1.983-.11 4.761c-.07 3.081.043 4.943.323 5.281.238.286 1.249.633 2.246.77 3.657.503 12.55 2.895 16.488 4.434 5.136 2.008 10.454 4.693 14.588 7.364l3.236 2.09-3.422 3.439c-1.882 1.891-3.601 3.434-3.819 3.428-.218-.005-1.358-.63-2.533-1.388ZM40.612 58.982V40.194l25.541-12.097L91.693 16l25.159 11.922c13.838 6.557 25.025 12.042 24.861 12.19-.164.148-11.454 5.539-25.089 11.981L91.833 63.807l-20.998-9.916c-11.549-5.454-21.151-9.916-21.338-9.916-.256 0-.623 31.993-.385 33.504.025.16-1.877.291-4.227.291h-4.273Zm66.91-11.536c8.405-3.978 15.053-7.348 15.053-7.629 0-.277-.161-.503-.357-.503-.197 0-2.426-.982-4.953-2.181a5076.905 5076.905 0 0 0-7.703-3.647c-1.709-.807-5.031-2.38-7.381-3.495-9.131-4.334-10.112-4.781-10.488-4.781-.376 0-1.37.453-10.488 4.781a2513.83 2513.83 0 0 1-7.103 3.359c-1.556.733-3.025 1.211-3.264 1.063-.24-.149-.328-.096-.196.118.303.49-6.605 3.736-7.187 3.376-.253-.156-.324-.092-.173.154.154.248-.299.624-1.105.915-.751.272-1.366.687-1.366.924s1.268 1.01 2.817 1.719c5.382 2.462 12.183 5.68 19.907 9.42 4.273 2.069 8.032 3.71 8.352 3.647.321-.063 7.357-3.321 15.635-7.24Z"/></svg>