<svg xmlns="http://www.w3.org/2000/svg" width="24" height="24" viewBox="0 0 24 24"><path fill="none" d="M0 0h24v24H0z"/><path d="M2.796 17.992a.894.894 0 0 1-.662-.432.947.947 0 0 1-.12-.324c-.022-3.573-.012-7.237-.012-10.333 0-.073 0-.105.012-.15a.896.896 0 0 1 .425-.612.935.935 0 0 1 .325-.12c6.307-.038 12.801-.024 18.432-.01a.897.897 0 0 1 .696.49c.051.1.076.18.096.31.018 3.921.01 7.431.01 10.275 0 .088 0 .115-.013.164a.899.899 0 0 1-.482.644.933.933 0 0 1-.312.096c-6.311.023-12.717.013-18.395.002zm14.05-1.995c.03 0 .067-.012.095-.019.023-.01.074-.023.08-.026 0 0 .014-.01.028-.012a.738.738 0 0 0 .44-.678c0-.084 0-.116-.022-.189a.745.745 0 0 0-.63-.55h-.179a.74.74 0 0 0-.64.644.75.75 0 0 0 .51.8.734.734 0 0 0 .157.032h.16zm2.495 0c.031 0 .068-.012.096-.019.023-.01.074-.023.08-.026 0 0 .014-.01.027-.012a.715.715 0 0 0 .308-.253.76.76 0 0 0 .117-.268.59.59 0 0 0 .015-.157c0-.084 0-.116-.022-.189a.745.745 0 0 0-.63-.55h-.179a.741.741 0 0 0-.64.644.75.75 0 0 0 .51.8.734.734 0 0 0 .157.032h.16zm-4.998-.01c.03 0 .068-.012.096-.019.023-.01.074-.023.08-.026 0 0 .014-.01.028-.012a.717.717 0 0 0 .308-.253.767.767 0 0 0 .117-.268.586.586 0 0 0 .015-.157c0-.084 0-.116-.022-.189a.745.745 0 0 0-.63-.55h-.179a.741.741 0 0 0-.64.644.728.728 0 0 0 .205.61.731.731 0 0 0 .462.222h.16zm-6.2-.017a3.967 3.967 0 0 0 3.297-1.993 3.953 3.953 0 0 0 .526-1.827v-.307a3.953 3.953 0 0 0-.525-1.824 4.006 4.006 0 0 0-1.676-1.58 3.958 3.958 0 0 0-2.027-.41 3.958 3.958 0 0 0-1.73.52 4 4 0 0 0-1.627 1.767 3.944 3.944 0 0 0-.356 1.325 3.958 3.958 0 0 0 .718 2.658 4.008 4.008 0 0 0 1.47 1.258c.5.25 1.05.39 1.612.413h.317zm11.125-2.987a.915.915 0 0 0 .62-.484 1.02 1.02 0 0 0 .086-.227c.018-.072.016-.058.018-.199V9.279c0-.014-.01-.037-.01-.051a.915.915 0 0 0-.484-.62 1.02 1.02 0 0 0-.228-.087c-1.624-.024-3.544-.03-5.039-.003a.915.915 0 0 0-.62.484 1.02 1.02 0 0 0-.087.228c-.018.072-.016.059-.018.188-.004.92 0 1.908.01 2.8a.886.886 0 0 0 .28.52c.144.132.319.217.517.252 1.694.018 3.444.01 4.955-.007zm-4.03-1.217a.658.658 0 0 1-.13-.018.576.576 0 0 1-.468-.447 1.175 1.175 0 0 1-.034-.262v-.933h.494c-.005.336.006.698.01 1.022.02.111.07.184.149.21.026.01.046.01.082.01.037 0 .06-.01.087-.02a.208.208 0 0 0 .102-.119c.01-.019.014-.048.02-.079v-.025l.001-.999h.496v1.029c-.01.091-.028.172-.052.237-.084.231-.259.358-.538.39-.037 0-.056.01-.118.01-.041 0-.085 0-.098-.002zm1.112-1.66c.278-.008.616.009.856.014.28.034.431.15.465.353a.32.32 0 0 1 0 .138.409.409 0 0 1-.116.253.548.548 0 0 1-.24.134c-.011 0-.02.01-.02.01s.012.01.026.012a.41.41 0 0 1 .17.121.727.727 0 0 1 .086.15l.174.45c-.195.002-.344 0-.555.001l-.058-.166a2.473 2.473 0 0 0-.094-.256.274.274 0 0 0-.133-.14c-.014-.01-.047-.011-.065-.011h-.01v.574h-.492c.007-.546.006-1.092.006-1.637zm.651.707a.197.197 0 0 0 .143-.131c.01-.021.01-.022.01-.058 0-.035 0-.038-.01-.056a.152.152 0 0 0-.09-.102.442.442 0 0 0-.168-.02h-.045v.375h.068c.068 0 .07 0 .091-.01zm.941-.707h.492v1.248h.564v.386h-1.056z"/></svg>