<svg xmlns="http://www.w3.org/2000/svg" viewBox="0 0 192 192"><path d="M50.552 154.703c-6.056-.078-11.989-2.844-17.178-8.008-5.188-5.164-9.444-12.538-12.322-21.35-2.99-8.99-4.555-19.087-4.549-29.347.007-10.26 1.585-20.352 4.586-29.331 2.889-8.801 7.154-16.16 12.35-21.304 5.195-5.144 11.131-7.888 17.187-7.943m0 0 36.695-.243m-38.556 117.71 35.22.613m57.463-119c6.056.078 11.989 2.844 17.178 8.008 5.188 5.164 9.444 12.538 12.322 21.35 2.99 8.989 4.555 19.087 4.549 29.347-.007 10.26-1.584 20.352-4.586 29.332-2.889 8.8-7.154 16.159-12.349 21.303-5.196 5.144-11.132 7.888-17.187 7.944m.37-117.097-36.696.242m36.325 116.855-35.219-.614M61.37 94.193h68.216v1.226H61.37Z" fill="none" stroke="#000" stroke-width="12" stroke-linecap="round" stroke-linejoin="round"/></svg>