<svg xmlns="http://www.w3.org/2000/svg" viewBox="0 0 192 192"><path d="M46.819 144.204c-.263-.987-1.5-1.321-2.749-.741-6.588 3.057-10.657-19.559-6.25-34.734 2.758-9.496 5.342-12.255 8.572-9.151 3.102 2.981 4.482 9.627 5.222 25.153.623 13.048-.437 21.269-2.744 21.269-.865 0-1.788-.808-2.051-1.796Zm-2.112-25.392c-.698-1.949-1.18-2.053-2.02-.435-.84 1.618-.885 2.737-.188 4.687.697 1.949 1.18 2.053 2.02.435.84-1.617.885-2.737.188-4.687Zm49.679 24.342c-.56-1.566-1.19-6.996-1.4-12.067-.461-11.147-1.409-11.962-2.001-1.722-.502 8.69-1.763 12.922-3.847 12.922-2.252 0-3.131-5.846-3.131-20.814 0-18.821 1.008-21.884 7.201-21.884 6.23 0 8.773 4.671 9.383 17.233.516 10.608-1.078 24.957-3.043 27.397-1.867 2.318-1.963 2.286-3.162-1.065Zm-71.585-.892c-3.63-3.16-6.801-17.027-6.801-29.74 0-18.37 5.147-20.141 7.996-2.752l.907 5.533 1.722-6.994c1.864-7.566 4.688-10.5 6.587-6.843 3.528 6.794-1.999 36.735-7.611 41.229-.66.528-1.92.334-2.8-.433Zm34.503-1.575c-3.852-9.876-2.848-53.624 1.377-59.997 1.505-2.269 3.637 2.093 4.484 9.175 1.22 10.193 1.021 28.048-.442 39.554-1.914 15.062-3.032 17.387-5.419 11.268Zm13.102.416c-2.786-4.577-3.81-8.082-4.372-14.962-.575-7.034 1.015-16.915 3.634-22.576 3.599-7.779 10.95-3.831 12.295 6.604.757 5.873-2.01 11.697-5.557 11.697-1.54 0-2.8.931-2.8 2.067 0 1.283.987 1.72 2.6 1.151 3.358-1.184 5.401 1.377 5.401 6.77 0 9.674-7.283 15.687-11.201 9.249Zm5.966-28.391c.592-2.221-.913-4.422-1.979-2.894-.895 1.283-.307 4.623.813 4.623.388 0 .913-.778 1.166-1.729Zm30.844 29.857c-3.323-2.284-4.142-8.455-3.734-28.128.53-25.535 3.541-40.213 6.731-32.812.616 1.429 1.313 5.945 1.549 10.035.353 6.105.878 7.896 2.93 10.002 3.408 3.496 4.65 9.792 4.282 21.713-.228 7.412-.795 11.006-2.277 14.445-2.114 4.905-6.242 6.971-9.481 4.745Zm5.594-20.674c0-.787-.492-2.378-1.094-3.537-1.471-2.832-3.339 1.762-1.99 4.893.911 2.112 3.084 1.157 3.084-1.356Zm10.859 19.334c-1.779-4.129-2.298-10.417-1.903-23.074.38-12.195 2.27-19.095 4.981-18.183 2.558.859 3.764 8.405 3.454 21.626l-.276 11.798 3.075-.957c1.691-.526 3.597-1.961 4.234-3.189 1.004-1.933.963-2.889-.309-7.128-.807-2.693-1.883-7.736-2.39-11.207-4.028-27.555 7.921-62.105 22.395-64.754 16.323-2.987 24.701 36.158 14.842 69.351-3.833 12.906-8.887 18.831-18.205 21.342-14.173 3.82-16.224 3.916-20.355.953-2.485-1.783-4.103-2.168-4.272-1.018-.388 2.646-2.519 7.355-3.329 7.355-.377 0-1.251-1.312-1.942-2.915Zm40.096-21.683c4.759-12.204 4.527-38.748-.363-41.596-2.934-1.708-5.856 6.012-6.383 16.864-.386 7.941-.496 8.307-1.329 4.432-.499-2.324-1.717-5.161-2.706-6.305-2.8-3.24-3.193-4.948-.615-2.673 1.861 1.641 2.561 1.493 3.526-.744 3.057-7.093-3.606-19.274-9.358-17.109-5.816 2.19-8.638 16.7-4.924 25.318 1.563 3.626 1.564 3.713.054 3.713-.889 0-1.783 1.73-2.103 4.067-.429 3.139.018 5.258 1.959 9.282 4.453 9.232 12.524 6.647 14.484-4.64.687-3.957.707-3.94.757.624.066 6.099 2.158 12.944 3.957 12.944.778 0 2.148-1.88 3.044-4.177Zm3.098-48.641c2.654-9.396-1.583-19.436-5.615-13.306-2.339 3.556-2.632 9.531-.709 14.462 1.874 4.806 4.791 4.273 6.324-1.156Zm-42.252 22.966c-1.723-2.328-1.854-11.517-.21-14.683 1.627-3.134 4.986-.871 5.624 3.788.581 4.248-1.47 12.934-3.032 12.844-.54-.031-1.612-.908-2.382-1.949Z"/></svg>