<svg xmlns="http://www.w3.org/2000/svg" viewBox="0 0 192 192"><path fill="none" stroke="#000" stroke-linecap="round" stroke-linejoin="round" stroke-width="12" d="m80.508 145.717 94.668-38.023V24.868a8.584 8.584 0 0 0-8.583-8.368H24.763a8.582 8.582 0 0 0-8.368 8.583v76.131l50.08-20.127m-50.08 20.127v65.703a8.587 8.587 0 0 0 8.583 8.583h142.044a8.585 8.585 0 0 0 8.583-8.583v-59.223m-63.598-67.162a10.774 10.774 0 0 1 10.771 10.772 10.774 10.774 0 0 1-10.771 10.772 10.778 10.778 0 0 1-7.617-3.155 10.768 10.768 0 0 1 2.231-16.945 10.768 10.768 0 0 1 5.386-1.444Z"/></svg>