<svg
    xmlns="http://www.w3.org/2000/svg"
    viewBox="0 0 192 192"
    id="vector">
    <path
        id="path"
        d="M 79.778 99.82 C 63.164 80.081 44.784 61.898 24.866 45.495 Q 13.263 36.743 24.09 29.327 L 36.685 21.954 C 40.35 19.2 44.929 17.943 49.487 18.439 C 54.044 18.935 58.246 21.149 61.23 24.628 C 79.175 46.652 94.329 70.807 106.35 96.544 L 104.926 20.878 C 106.353 19.088 108.276 17.757 110.454 17.051 C 112.633 16.346 114.971 16.297 117.177 16.911 C 131.84 26.26 148.717 31.57 166.093 32.303 Q 173.427 32.303 173.125 40.193 L 172.566 68.864 C 172.552 69.945 172.233 71.001 171.644 71.908 C 171.055 72.815 170.221 73.538 169.239 73.991 C 168.257 74.444 167.166 74.611 166.093 74.471 C 149.92 73.96 134.062 69.85 119.679 62.44 L 119.85 103.83 L 119.85 136.769 C 120.154 145.111 117.651 153.319 112.744 160.073 C 107.837 166.828 100.803 171.747 92.773 174.041 C 84.742 176.334 76.17 175.872 68.433 172.729 C 32.457 158.585 39.963 104.477 79.778 99.82 Z"
        fill="none"
        stroke="#000000"
        stroke-width="8"
        stroke-linecap="round"
        stroke-linejoin="round"/>
    <path
        id="path_1"
        d="M 57.951 137.244 Q 66.362 134.657 79.477 150.092 C 92.375 163.802 75.379 172.727 66.148 161.69 Q 52.904 147.677 57.951 137.244 Z"
        fill="none"
        stroke="#000000"
        stroke-width="8"
        stroke-linecap="round"
        stroke-linejoin="round"/>
</svg>
