<svg xmlns="http://www.w3.org/2000/svg" viewBox="0 0 192 192"><path d="M74.416 175.316C61 173.065 49.031 161.094 46.672 147.57c-2.268-13.006.925-24.915 9.023-33.662 10.758-11.619 26.123-14.925 39.898-8.583 1.983.913 3.756 1.51 3.94 1.326.612-.612-2.424-3.977-9.565-10.6C72.849 80.17 46.1 59.019 29.199 47.996c-7.776-5.071-9.74-6.952-10.328-9.893-.937-4.684 1.369-6.976 14.835-14.747 6.991-4.035 9.29-4.724 14.727-4.409 4.475.259 7.842 1.523 10.905 4.094 2.03 1.703 17.08 21.79 21.84 29.148 6.866 10.614 14.586 24.207 19.743 34.762 2.9 5.935 5.445 10.897 5.656 11.028.212.13.303-4.845.202-11.056l-.621-38.221c-.319-19.609-.275-27.276.16-28.212.894-1.92 2.919-3.178 6.227-3.87l2.963-.62 5.312 3.007c14.252 8.07 27.287 12.143 41.994 13.122 7.44.495 8.939.965 9.915 3.106.764 1.678.785 34.999.022 36.424-1.469 2.745-5.33 3.187-15.82 1.812-12.101-1.586-21.649-4.226-31.031-8.58-2.755-1.279-5.204-2.326-5.441-2.326-.237 0-.515 18.656-.618 41.457-.207 46.004-.026 43.586-3.865 51.587-3.498 7.29-11.949 15.245-19.119 17.996-6.289 2.412-14.522 3.04-22.441 1.711Zm7.084-5.366c1.532-.763 3.438-2.244 4.237-3.291 2.074-2.72 2.068-7.66-.014-11.9-3.243-6.603-12.751-15.605-19.629-18.583-1.954-.846-4.002-1.274-6.276-1.309-3.059-.048-3.496.086-4.648 1.422-3.725 4.323-2.817 14.074 2.004 21.509 2.402 3.706 9.848 10.958 12.685 12.357 3.447 1.699 7.98 1.619 11.641-.205Z"/></svg>