<svg xmlns="http://www.w3.org/2000/svg" viewBox="0 0 192 192"><path fill="none" stroke="#000" stroke-linecap="round" stroke-linejoin="round" stroke-width="8" d="M79.778 99.82a424.467 424.467 0 0 0-54.912-54.325q-11.603-8.752-.776-16.168l12.595-7.373a18.049 18.049 0 0 1 24.545 2.674 344.956 344.956 0 0 1 45.12 71.916l-1.424-75.666a11.672 11.672 0 0 1 12.251-3.967 98.733 98.733 0 0 0 48.916 15.392q7.334 0 7.032 7.89l-.559 28.671a5.726 5.726 0 0 1-3.327 5.127 5.74 5.74 0 0 1-3.146.48 108.855 108.855 0 0 1-46.414-12.031l.171 41.39v32.939a37.342 37.342 0 0 1-7.106 23.304 37.378 37.378 0 0 1-44.311 12.656c-35.976-14.144-28.47-68.252 11.345-72.909Z"/><path fill="none" stroke="#000" stroke-linecap="round" stroke-linejoin="round" stroke-width="8" d="M57.951 137.244q8.411-2.587 21.526 12.848c12.898 13.71-4.098 22.635-13.329 11.598q-13.244-14.013-8.197-24.446Z"/></svg>