<?xml version="1.0" encoding="UTF-8" standalone="no"?>
<!-- Created with Inkscape (http://www.inkscape.org/) -->

<svg
   width="192px"
   height="192px"
   viewBox="0 0 192 192"
   version="1.1"
   id="SVGRoot"
   sodipodi:docname="Zeichnung.svg"
   inkscape:version="1.1.2 (b8e25be833, 2022-02-05)"
   xmlns:inkscape="http://www.inkscape.org/namespaces/inkscape"
   xmlns:sodipodi="http://sodipodi.sourceforge.net/DTD/sodipodi-0.dtd"
   xmlns="http://www.w3.org/2000/svg"
   xmlns:svg="http://www.w3.org/2000/svg">
  <sodipodi:namedview
     id="namedview1078"
     pagecolor="#ffffff"
     bordercolor="#666666"
     borderopacity="1.0"
     inkscape:pageshadow="2"
     inkscape:pageopacity="0.0"
     inkscape:pagecheckerboard="0"
     inkscape:document-units="px"
     showgrid="false"
     inkscape:zoom="0.64052329"
     inkscape:cx="396.55076"
     inkscape:cy="560.47923"
     inkscape:window-width="1280"
     inkscape:window-height="961"
     inkscape:window-x="-8"
     inkscape:window-y="-8"
     inkscape:window-maximized="1"
     inkscape:current-layer="layer1" />
  <defs
     id="defs1073" />
  <g
     inkscape:label="Ebene 1"
     inkscape:groupmode="layer"
     id="layer1">
    <path
       class="a"
       d="M 79.777789,99.820094 A 424.64985,424.43429 0 0 0 24.866169,45.494635 q -11.60363,-8.751767 -0.77641,-16.167514 l 12.59573,-7.372802 a 18.046072,18.036911 0 0 1 24.5448,2.673328 345.16034,344.98513 0 0 1 45.119481,71.916597 l -1.42349,-75.666557 a 11.662919,11.656998 0 0 1 12.2507,-3.966403 98.694827,98.644727 0 0 0 48.91646,15.391927 q 7.33315,0 7.03109,7.889861 l -0.55857,28.670959 a 5.7300575,5.7271488 0 0 1 -6.47252,5.606473 108.79805,108.74282 0 0 1 -46.41493,-12.03062 l 0.17187,41.389986 v 32.93883 a 37.369978,37.351008 0 0 1 -51.417561,35.96002 c -35.9757,-14.14351 -28.47025,-68.2521 11.34497,-72.908626 z"
       id="path2375"
       style="fill:#000000;fill-opacity:0;stroke:#000000;stroke-width:1;stroke-linecap:round;stroke-linejoin:round" />
    <path
       class="a"
       d="m 57.950629,137.24368 q 8.41119,-2.58701 21.52639,12.84786 c 12.89779,13.71063 -4.09818,22.63546 -13.32917,11.59816 q -13.2441,-14.01296 -8.19722,-24.44602 z"
       id="path2377"
       style="fill:#000000;fill-opacity:0;stroke:#000000;stroke-width:1;stroke-linecap:round;stroke-linejoin:round" />
  </g>
</svg>
