<svg
    xmlns="http://www.w3.org/2000/svg"
    viewBox="0 0 192 192"
    id="vector">
    <path
        id="path"
        d="M 63.09 174.468 C 54.583 171.329 50.298 166.335 49.419 158.538 C 47.784 144.035 62.9 129.86 80.218 129.658 L 85.723 129.593 L 85.8 86.651 C 85.873 46.039 86.01 43.908 88.329 47.379 C 93.048 54.445 100.682 60.615 113.281 67.548 C 141.375 83.007 149.544 99.502 137.001 115.447 C 133.757 119.571 130.807 120.67 132.113 117.268 C 133.426 113.845 129.926 103.582 125.754 98.623 C 121.301 93.332 108.173 82.614 106.145 82.614 C 105.382 82.614 104.805 96.635 104.8 115.279 C 104.791 150.042 103.874 156.655 97.973 164.474 C 90.828 173.942 74.41 178.645 63.09 174.468 Z M 124.578 168.897 C 124.154 167.793 123.992 157.671 124.218 146.406 L 124.628 125.923 L 128.704 125.455 L 132.78 124.986 L 132.375 147.476 C 131.976 169.554 131.908 169.975 128.659 170.436 C 126.839 170.695 125.002 170.002 124.578 168.897 Z M 137.107 147.21 L 137.107 132.529 L 144.448 132.529 L 144.448 161.892 L 137.107 161.892 Z M 112.149 147.21 L 112.149 135.271 L 116.187 135.735 C 120.191 136.196 120.224 136.29 120.224 147.21 C 120.224 158.131 120.191 158.225 116.187 158.686 L 112.149 159.15 Z M 22.921 114.095 C 20.291 112.252 19.658 110.389 19.658 104.484 C 19.658 97.957 20.118 96.894 23.875 94.738 C 27.887 92.435 28.129 91.707 28.85 79.758 C 29.747 64.881 33.501 54.014 41.695 42.571 C 69.759 3.381 133.517 8.483 155.401 51.67 C 159.898 60.544 163.47 75.635 163.508 85.917 C 163.522 89.752 164.069 92.89 164.724 92.89 C 168.255 92.89 172.342 99.222 172.342 104.692 C 172.342 112.736 168.451 116.38 159.863 116.38 L 153.256 116.38 L 153.256 98.963 C 153.256 71.384 149.2 57.209 137.651 44.425 C 126.706 32.311 113.726 26.825 96.005 26.825 C 75.625 26.825 60.485 34.104 50.088 48.901 C 41.295 61.416 38.744 72.005 38.744 95.981 L 38.744 116.38 L 32.464 116.38 C 29.01 116.38 24.716 115.352 22.921 114.095 Z M 57.829 93.624 L 57.829 70.674 L 61.866 71.138 L 65.904 71.603 L 65.904 115.646 L 61.866 116.111 L 57.829 116.575 Z M 70.241 107.191 C 69.807 106.061 69.645 99.243 69.88 92.04 C 70.301 79.163 70.37 78.943 73.978 78.943 L 77.649 78.943 L 77.649 93.624 C 77.649 107.74 77.521 108.324 74.339 108.776 C 72.493 109.038 70.68 108.337 70.241 107.191 Z M 46.084 93.624 C 46.084 82.858 46.166 82.614 49.754 82.614 C 53.343 82.614 53.425 82.858 53.425 93.624 C 53.425 104.391 53.343 104.635 49.754 104.635 C 46.166 104.635 46.084 104.391 46.084 93.624 Z"
        fill="#000000"
        stroke-width="12"/>
</svg>
