<svg
    xmlns="http://www.w3.org/2000/svg"
    viewBox="0 0 192 192"
    id="vector">
    <path
        id="path"
        d="M 157.62 114.282 L 157.62 91.731 L 165.777 91.731 C 175.261 91.731 175.334 114.282 165.641 114.282 Z M 34.38 91.731 L 34.38 114.282 L 26.223 114.282 C 16.739 114.282 16.666 91.731 26.359 91.731 Z M 157.62 91.731 C 157.62 -8.645 35.629 -8.509 34.38 91.731 M 48.424 79.925 L 48.424 101.118 M 61.475 68.785 L 61.475 111.307 M 73.982 76.911 L 73.982 104.132 M 118.028 134.809 L 118.028 156.002 M 130.672 124.077 L 130.672 167.142 M 142.907 131.795 L 142.907 158.312"
        fill="none"
        stroke="#000000"
        stroke-width="8"
        stroke-linecap="round"
        stroke-linejoin="round"/>
    <path
        id="path_1"
        d="M 104.026 76.911 L 103.346 150.84 C 103.346 159.016 90.884 176.763 73.982 175.429 C 49.876 173.525 41.203 146.424 61.475 133.451 C 70.343 127.775 77.821 127.749 85.809 128.781 L 87.168 40.935 C 95.752 52.019 107.508 59.509 120.203 67.426 C 142.528 81.348 151.367 102.457 133.687 115.789 C 132.663 106.337 133.116 96.373 123.058 90.046 C 116.88 85.578 110.347 80.773 104.026 76.911 Z"
        fill="none"
        stroke="#000000"
        stroke-width="8"
        stroke-linecap="round"
        stroke-linejoin="round"/>
</svg>
