<svg xmlns="http://www.w3.org/2000/svg" viewBox="0 0 192 192"><path fill="none" stroke="#000" stroke-linecap="round" stroke-linejoin="round" stroke-width="8" d="M157.62 114.282V91.731h8.157c9.484 0 9.557 22.551-.136 22.551ZM34.38 91.731v22.551h-8.157c-9.484 0-9.557-22.551.136-22.551Zm123.24 0c0-100.376-121.991-100.24-123.24 0m14.044-11.806v21.193m13.051-32.333v42.522m12.507-34.396v27.221m44.046 30.677v21.193m12.644-31.925v43.065m12.235-35.347v26.517"/><path fill="none" stroke="#000" stroke-linecap="round" stroke-linejoin="round" stroke-width="8" d="m104.026 76.911-.68 73.929c0 8.176-12.462 25.923-29.364 24.589-24.106-1.904-32.779-29.005-12.507-41.978 8.868-5.676 16.346-5.702 24.334-4.67l1.359-87.846c8.584 11.084 20.34 18.574 33.035 26.491 22.325 13.922 31.164 35.031 13.484 48.363-1.024-9.452-.571-19.416-10.629-25.743-6.178-4.468-12.711-9.273-19.032-13.135Z"/></svg>