<svg xmlns="http://www.w3.org/2000/svg" viewBox="0 0 192 192"><path d="M63.09 174.468c-8.507-3.139-12.792-8.133-13.671-15.93-1.635-14.503 13.481-28.678 30.799-28.88l5.505-.065.077-42.942c.073-40.612.21-42.743 2.529-39.272 4.719 7.066 12.353 13.236 24.952 20.169 28.094 15.459 36.263 31.954 23.72 47.899-3.244 4.124-6.194 5.223-4.888 1.821 1.313-3.423-2.187-13.686-6.359-18.645-4.453-5.291-17.581-16.009-19.609-16.009-.763 0-1.34 14.021-1.345 32.665-.009 34.763-.926 41.376-6.827 49.195-7.145 9.468-23.563 14.171-34.883 9.994Zm61.488-5.571c-.424-1.104-.586-11.226-.36-22.491l.41-20.483 4.076-.468 4.076-.469-.405 22.49c-.399 22.078-.467 22.499-3.716 22.96-1.82.259-3.657-.434-4.081-1.539Zm12.529-21.687v-14.681h7.341v29.363h-7.341Zm-24.958 0v-11.939l4.038.464c4.004.461 4.037.555 4.037 11.475 0 10.921-.033 11.015-4.037 11.476l-4.038.464Zm-89.228-33.115c-2.63-1.843-3.263-3.706-3.263-9.611 0-6.527.46-7.59 4.217-9.746 4.012-2.303 4.254-3.031 4.975-14.98.897-14.877 4.651-25.744 12.845-37.187 28.064-39.19 91.822-34.088 113.706 9.099 4.497 8.874 8.069 23.965 8.107 34.247.014 3.835.561 6.973 1.216 6.973 3.531 0 7.618 6.332 7.618 11.802 0 8.044-3.891 11.688-12.479 11.688h-6.607V98.963c0-27.579-4.056-41.754-15.605-54.538-10.945-12.114-23.925-17.6-41.646-17.6-20.38 0-35.52 7.279-45.917 22.076-8.793 12.515-11.344 23.104-11.344 47.08v20.399h-6.28c-3.454 0-7.748-1.028-9.543-2.285Zm34.908-20.471v-22.95l4.037.464 4.038.465v44.043l-4.038.465-4.037.464Zm12.412 13.567c-.434-1.13-.596-7.948-.361-15.151.421-12.877.49-13.097 4.098-13.097h3.671v14.681c0 14.116-.128 14.7-3.31 15.152-1.846.262-3.659-.439-4.098-1.585ZM46.084 93.624c0-10.766.082-11.01 3.67-11.01 3.589 0 3.671.244 3.671 11.01 0 10.767-.082 11.011-3.671 11.011-3.588 0-3.67-.244-3.67-11.011Z"/></svg>