<svg xmlns="http://www.w3.org/2000/svg" viewBox="0 0 192 192"><path fill="none" stroke="#000" stroke-linecap="round" stroke-linejoin="round" stroke-width="12" d="M99.177 128.462c.213-1.556.321-3.123.326-4.693a35.927 35.927 0 0 0-.326-4.693l10.192-8.161a2.327 2.327 0 0 0 .571-3.061l-9.622-16.73a2.407 2.407 0 0 0-2.935-1.021l-11.987 4.775a37.682 37.682 0 0 0-8.154-4.734l-1.631-12.772a2.445 2.445 0 0 0-2.406-2.04H53.717a2.448 2.448 0 0 0-2.365 2.04l-1.794 12.772a36.08 36.08 0 0 0-8.154 4.734l-12.027-4.815a2.364 2.364 0 0 0-2.936 1.02l-9.622 16.73a2.41 2.41 0 0 0 .571 3.061l10.193 8.161a36.311 36.311 0 0 0-.367 4.693c.016 1.584.138 3.166.367 4.734l-10.193 8.161a2.453 2.453 0 0 0-.571 3.101l9.622 16.69a2.408 2.408 0 0 0 2.936 1.061l12.027-4.856a35.28 35.28 0 0 0 8.154 4.734l1.794 12.813a2.446 2.446 0 0 0 2.365 1.999h19.285a2.45 2.45 0 0 0 2.405-1.999l1.794-13.14a34.601 34.601 0 0 0 8.154-4.733l11.987 4.733a2.408 2.408 0 0 0 2.935-1.061l9.663-16.69a2.453 2.453 0 0 0-.571-3.101ZM63.38 140.703a16.871 16.871 0 0 1-10.524-3.685 16.906 16.906 0 0 1-4.684-20.538 16.875 16.875 0 0 1 18.964-9.141 16.883 16.883 0 0 1 9.44 5.937 16.907 16.907 0 0 1 3.683 10.534 16.902 16.902 0 0 1-5.03 11.787 16.875 16.875 0 0 1-11.849 4.862Z"/><path fill="none" stroke="#000" stroke-linecap="round" stroke-linejoin="round" stroke-width="12" d="M106.964 134.378h55.082c3.567 0 6.991-1.419 9.513-3.944a13.473 13.473 0 0 0 3.941-9.522V19.835h-29.11l16.063 23.423h-20.018l-16.064-23.423h-16.105l16.105 23.423h-20.019L90.248 19.835H74.184l16.064 23.423H70.229L54.165 19.835h-9.132a13.45 13.45 0 0 0-9.514 3.944 13.477 13.477 0 0 0-3.941 9.522V90.92"/></svg>