<svg viewBox="0 0 192 192" xmlns="http://www.w3.org/2000/svg"><path d="M85.59 169.325c-29.711-4.614-53.458-25.963-61.35-55.156-2.588-9.57-2.588-26.662 0-36.232 11.158-41.277 53.338-64.896 93.769-52.51a73.433 73.433 0 0 1 26.246 14.45 73.52 73.52 0 0 1 18.303 23.736c5.67 11.702 7.291 18.913 7.291 32.44 0 13.527-1.621 20.738-7.291 32.44-11.829 24.407-35.966 40.104-63.455 41.262-4.645.197-10.725.002-13.512-.431zm24.738-3.828c27.724-5.685 49.872-27.984 55.534-55.914 1.727-8.513 1.291-23.694-.91-31.646-1.772-6.407-6.136-15.878-9.977-21.647-5.625-8.454-21.823-22.578-25.903-22.586-2.168-.004-10.288 5.912-15.616 11.378-5.755 5.905-10.509 13.689-8.71 14.26.613.193 2.511.779 4.22 1.304 4.746 1.454 12.703 6.938 16.141 11.125 18.73 22.804 5.838 56.695-23.405 61.53-14.94 2.47-31.47-5.774-38.742-19.32-6.742-12.558-5.801-31.803 2.38-48.683 9.493-19.584 27.256-31.515 51.509-34.597 5.036-.639 5.045-.646 2.493-1.698-4.878-2.012-15.556-3.729-23.195-3.729-44.634 0-78.567 41.404-69.601 84.929 5.581 27.096 27.781 49.46 54.822 55.23 7.876 1.68 20.938 1.708 28.96.064zm-7.255-35.832c17.87-3.73 30.199-21.655 26.959-39.198-2.478-13.418-11.263-23.23-24.425-27.278-3.576-1.101-4.882-1.925-5.076-3.199-.523-3.446 4.182-10.62 12.134-18.495 4.328-4.288 7.306-7.794 6.618-7.794-.687 0-4.18.603-7.76 1.338-29.345 6.033-47.042 25.879-49.525 55.537-1.591 19.022 8.41 34.026 25.793 38.69 5.619 1.508 9.488 1.61 15.281.4z" stroke="#000" stroke-width="12.302" stroke-linecap="round" stroke-linejoin="round"/></svg>