<svg xmlns="http://www.w3.org/2000/svg" viewBox="0 0 192 192"><path d="M144.086 173.443c-3.151-1.496-6.646-4.469-7.766-6.607-1.932-3.689-1.779-3.913 2.999-4.385 3.265-.322 5.735.408 7.025 2.077 2.412 3.122 11.688 2.62 11.688-.632 0-2.489-2.062-3.591-12.293-6.575-8.17-2.383-11.204-7.102-9.264-14.414 2.325-8.766 19.676-11.283 27.4-3.974 4.505 4.262 4.21 9.243-.548 9.243-2.059 0-5.009-1.399-6.557-3.11-3.046-3.366-5.654-3.842-9.249-1.688-4.022 2.41-.65 6.005 6.699 7.14 16.548 2.556 20.011 17.661 5.376 23.448-7.127 2.817-8.574 2.768-15.51-.523ZM25.739 155.174v-19.438h5.751c3.164 0 5.752.718 5.752 1.595 0 .894 2.253.493 5.13-.915 6.735-3.295 15.058-1.808 19.45 3.475 2.866 3.448 3.358 6.286 3.358 19.38v15.34h-9.86v-12.094c0-13.119-2.574-19.006-8.311-19.006-1.756 0-4.672 1.4-6.48 3.11-2.739 2.592-3.287 5.183-3.287 15.55v12.44H25.739Zm53.466 13.882c-2.066-4.678-4.448-11.87-10.134-30.599-.669-2.204.216-2.721 4.661-2.721h5.486l3.986 14.384 3.987 14.384 3.702-10.885c2.036-5.987 3.74-12.46 3.785-14.384.069-2.9 1.004-3.499 5.459-3.499h5.376l3.993 14.384 3.994 14.384 3.926-12.44a7752.388 7752.388 0 0 1 4.548-14.384c.679-2.123 10.585-2.744 10.585-.663 0 2.194-7.677 25.626-10.438 31.859-2.458 5.549-3.023 5.897-8.83 5.443-6.014-.47-6.303-.772-9.401-9.806l-3.197-9.321-3.282 9.709c-3.265 9.658-3.316 9.71-9.518 9.71-5.596 0-6.486-.569-8.688-5.555ZM35.786 82.932c-3.632-7.988-11.421-27.421-16.731-41.739L16 32.953l9.077.465 9.077.465 7.209 20.833c3.966 11.458 7.894 21.48 8.73 22.271.931.881 4.588-7.344 9.436-21.222l7.917-22.66h8.727c4.8 0 8.728.353 8.728.785 0 1.295-15.843 41.402-19.499 49.364l-3.392 7.387H39.29Zm51.854 6.672c-1.73-1.637-1.277-22.893.671-31.485 3.608-15.918 15.343-25.014 32.271-25.014h8.69V47.1l-6.162.006c-14.901.014-21.241 10.236-19.773 31.879l.791 11.656h-7.696c-4.233 0-8.19-.467-8.792-1.037Zm57.425-3.687c-6.468-5.374-9.219-14.195-9.219-29.563V47.1h16.434v11.317c0 15.151 2.473 18.641 12.723 17.951 7.292-.49 7.485-.382 9.621 5.393 2.109 5.702 2.045 5.941-1.972 7.386-2.284.821-8.146 1.494-13.027 1.494-7.541 0-9.728-.71-14.56-4.724Zm11.578-44.195c-10.734-3.622-19.154-13.539-19.154-22.562 0-2.707 1.057-3.16 7.364-3.16 6.503 0 7.486.459 8.405 3.924 1.364 5.14 6.658 8.516 13.356 8.516 5.368 0 5.387.027 5.387 7.775 0 7.462-.182 7.772-4.52 7.707-2.485-.038-7.362-1.028-10.838-2.2Z"/></svg>