<svg xmlns="http://www.w3.org/2000/svg" viewBox="0 0 192 192"><path d="M102.086 174.534c-8.168-2.255-12.045-9.35-11.285-20.654.513-7.627 1.356-9.791 4.973-12.77 6.032-4.967 14.087-6.17 20.399-3.045 2.846 1.409 5.074 1.811 5.074.916 0-.878 2.194-1.596 4.876-1.596H131v37.349h-4.877c-2.682 0-4.876-.664-4.876-1.476 0-.813-2.537-.463-5.637.778-6.33 2.532-6.179 2.526-13.524.498Zm14.221-7.548c4.899-2.51 6.885-10.294 4.198-16.451-5.776-13.235-24.418-5.382-21.14 8.906 1.699 7.405 9.999 11.102 16.942 7.545ZM20.468 156.06v-18.675h4.877c3.454 0 4.876.751 4.876 2.576 0 2.326.275 2.344 2.845.184 6.256-5.26 16.108-4.516 20.947 1.581 1.411 1.779 2.129 1.99 2.164.637.073-2.858 11.126-6.945 15.766-5.83 8.609 2.069 10.293 5.772 10.293 22.639v15.562h-4.064c-3.986 0-4.063-.23-4.063-12.103 0-13.609-2.544-19.021-8.94-19.021-6.397 0-8.94 5.412-8.94 19.021 0 11.873-.078 12.103-4.064 12.103-3.959 0-4.064-.291-4.088-11.282-.027-12.833-2.439-18.833-7.871-19.578-7.43-1.018-9.985 3.555-9.985 17.874v12.986h-9.753Zm119.786 13.85c6.658-10.939 12.72-14.275 20.646-11.363 1.393.511 5.109 4.363 8.257 8.559l5.725 7.628h-4.681c-3.439 0-5.832-1.444-9.02-5.446-2.387-2.996-4.939-5.447-5.672-5.447-.734 0-3.074 2.446-5.2 5.436-2.869 4.032-5.045 5.439-8.429 5.447l-4.562.011 2.936-4.825Zm4.743-23.653c-3.229-3.772-5.87-7.311-5.87-7.865 0-.554 2.057-1.007 4.571-1.007 3.252 0 5.674 1.429 8.396 4.954l3.825 4.954 4.425-5.074c3.386-3.884 5.475-4.955 8.9-4.565l4.475.509-5.58 7.003c-4.533 5.689-6.678 7.092-11.427 7.476-5.193.42-6.501-.293-11.715-6.385ZM38.505 90.979C35.99 86.48 26.996 64.603 22.074 51.015c-2.48-6.847-5.046-13.711-5.701-15.253-1.084-2.547-.276-2.76 8.869-2.334l10.061.469 7.303 21.398c4.017 11.768 7.889 21.398 8.604 21.398 1.314 0 14.825-38.029 14.79-41.629-.013-1.342 3.006-1.946 9.734-1.946 5.364 0 9.753.669 9.753 1.486 0 2.168-11.685 33.114-17.802 47.146l-5.258 12.061H51.258c-9.138 0-11.458-.515-12.753-2.832Zm47.56.474c-.52-1.297-.64-9.526-.267-18.286.527-12.384 1.456-17.355 4.176-22.345 6.458-11.85 17.183-17.676 32.577-17.695l6.993-.009-.491 8.029-.491 8.028-7.315.618c-5.394.455-8.595 1.829-12.191 5.231-4.829 4.57-4.876 4.779-4.876 21.701v17.087l-8.585-.001c-6.17 0-8.851-.663-9.53-2.358Zm61.246-.508c-8.253-4.238-11.706-11.957-12.683-28.351l-.828-13.913h18.331v10.014c0 16.708 3.456 21.066 14.335 18.078 4.829-1.326 5.463-1.103 6.858 2.41 3.901 9.825 3.732 11.03-1.805 12.878-7.77 2.593-17.893 2.127-24.208-1.116Zm4.007-48.288c-9.598-5.707-15.442-14.362-15.442-22.868 0-3.502.607-3.789 8.018-3.789 6.901 0 8.173.488 9.132 3.501 1.834 5.76 5.792 8.94 12.383 9.949l6.227.954v15.164l-7.721-.006c-4.694-.003-9.632-1.142-12.597-2.905Z"/></svg>