<svg xmlns="http://www.w3.org/2000/svg" viewBox="0 0 416 416"><path fill="#010101" d="M176.352 344.298c-30.329-5.444-56.244-19.017-77.286-40.476-20.056-20.453-32.792-45.344-37.75-73.776-1.881-10.786-1.881-33.48 0-44.265 7.738-44.377 35.846-81.866 76.036-101.416 20.904-10.168 34.166-13.395 58.169-14.156 20.711-.656 31.871.872 49.821 6.822 20.813 6.899 37.059 16.728 53.08 32.117 25.057 24.067 40.076 55.811 42.131 89.047l.605 9.782-12.403-.282-12.403-.282-.235-5c-1.295-27.537-13.321-54.352-33.367-74.398-33.705-33.705-84.925-43.479-128.889-24.594-26.746 11.488-48.851 33.41-60.201 59.702-22.687 52.555-3.042 112.359 46.808 142.5 27.396 16.564 62.574 20.715 94.73 11.179 3.765-1.117 6.977-1.886 7.137-1.71 1.547 1.704 8.604 21.124 7.913 21.778-1.617 1.533-16.707 5.796-26.322 7.436-11.726 1.999-36.412 1.995-47.574-.008Zm144.787-59.437c-6.797-.895-12.172-3.059-14.791-5.952-1.921-2.123-4.543-9.111-3.843-10.243.256-.414 4.488-.753 9.406-.753 7.475 0 8.941.259 8.941 1.577 0 2.819 5.563 7.423 8.968 7.423 3.657 0 8.032-3.824 8.032-7.02 0-5.176-1.657-6.24-16.099-10.334-10.968-3.11-14.498-4.966-16.384-8.613-2.145-4.147-1.912-10.657.521-14.594 3.357-5.433 9.729-7.881 21.536-8.275 11.558-.385 17.006.771 21.516 4.566 2.915 2.453 5.91 7.66 5.91 10.277 0 .702-3.017.971-8.75.782-8.187-.27-8.771-.432-9.067-2.519-.508-3.571-5.076-6.549-9.057-5.903-5.975.97-8.591 5.028-6.164 9.562 1.163 2.173 3.686 3.214 16.038 6.615 14.935 4.113 18 6.855 18 16.102 0 10.98-6.962 16.441-22.5 17.653-3.3.257-8.796.099-12.213-.351Zm-149.845-13.166a11923.8 11923.8 0 0 0-10.526-27.09c-4.142-10.62-5.419-14.945-4.517-15.292.693-.265 5.219-.351 10.059-.191l8.799.291 5.363 18.441c2.949 10.143 5.816 18.896 6.371 19.45 1.908 1.908 3.381-1.288 9.057-19.644l5.642-18.247 7.81-.295c4.296-.162 8.126.063 8.512.5.386.438-3.903 12.72-9.532 27.295l-10.234 26.5-11.026.282-11.027.282Zm80.638 10.369c-1.485-2.776-20.08-51.123-20.08-52.21 0-1.258 18.712-1.216 19.49.044.335.541 2.985 9.204 5.89 19.25 6.998 24.207 7.095 24.209 14.54.265 3.079-9.9 5.957-18.562 6.398-19.25.531-.83 3.505-1.25 8.857-1.25 7.192 0 8.006.188 7.575 1.75-.738 2.67-18.824 49.505-19.888 51.5-.797 1.495-2.451 1.75-11.362 1.75-9.124 0-10.554-.231-11.42-1.849Z"/></svg>