<svg xmlns="http://www.w3.org/2000/svg" viewBox="0 0 192 192"><path fill="none" stroke="#000" stroke-width="12" d="M73.434 173.28c-.625-1.496-1.136-3.034-1.136-3.419 0-.385-.466-1.519-1.037-2.519-.57-1-1.039-2.302-1.041-2.892-.002-.591-.317-1.25-.699-1.466-.382-.216-.694-.975-.694-1.688 0-.712-.428-2.195-.95-3.296-.522-1.1-1.524-3.715-2.225-5.81-.702-2.095-1.524-4.081-1.827-4.412-.304-.332-.552-1.108-.552-1.725s-.432-2.059-.96-3.206c-.527-1.147-1.491-3.657-2.141-5.577-.651-1.921-1.442-4.064-1.76-4.762a20.275 20.275 0 0 1-.923-2.54c-.353-1.298-1.627-4.71-2.609-6.984-.301-.698-1.241-3.27-2.089-5.714-.848-2.445-1.804-4.716-2.125-5.048-.321-.332-.584-1.228-.584-1.991 0-.763-.467-2.206-1.037-3.206-.571-1-1.039-2.302-1.042-2.892-.002-.591-.316-1.251-.698-1.466-.382-.216-.694-.976-.694-1.688s-.428-2.195-.95-3.296c-.523-1.1-1.524-3.715-2.226-5.81-.701-2.095-1.524-4.081-1.827-4.413-.303-.332-.552-1.108-.552-1.724 0-.617-.431-2.06-.959-3.207-.528-1.146-1.491-3.656-2.142-5.577-.65-1.92-1.421-4.063-1.714-4.762-1.363-3.258-2.299-5.848-2.638-7.301-.203-.873-.591-1.873-.86-2.222-.27-.35-1.513-3.635-2.762-7.302s-2.704-7.567-3.234-8.667c-.531-1.101-.964-2.441-.964-2.979 0-.537-.313-1.154-.695-1.37-.381-.216-.694-.975-.694-1.687 0-.713-.427-2.196-.95-3.296-.522-1.101-1.524-3.715-2.225-5.81-.702-2.096-1.524-4.081-1.827-4.413-.304-.332-.552-1.132-.552-1.778 0-.646-.427-1.946-.949-2.889-.521-.943-1.16-2.786-1.42-4.095L16 16h17.485c15.838 0 17.572.105 18.407 1.111.508.611.933 1.602.945 2.201.012.599.462 2.028 1.001 3.174.538 1.147 1.824 4.657 2.858 7.8 1.033 3.143 2.279 6.714 2.769 7.936.49 1.222 1.739 4.794 2.777 7.937 1.038 3.143 2.278 6.714 2.757 7.936.479 1.222 1.407 3.794 2.061 5.714.655 1.921 1.433 4.064 1.729 4.762.296.699 1.081 2.984 1.746 5.08.664 2.095 1.467 4.274 1.785 4.842.318.568.791 2.071 1.051 3.341.26 1.269.75 2.463 1.089 2.655.338.191.617.974.62 1.739.002.765.471 2.209 1.041 3.21.57 1 1.037 2.324 1.037 2.943 0 .618.467 1.943 1.037 2.943.571 1 1.039 2.445 1.042 3.21.002.765.316 1.568.698 1.783.382.216.694.938.694 1.604 0 .666.438 2.149.974 3.295.535 1.147 1.516 3.8 2.18 5.895.663 2.095 1.431 4.381 1.706 5.079.275.699.988 2.842 1.584 4.762a919.788 919.788 0 0 0 2.18 6.899c.603 1.873 1.096 3.928 1.096 4.565 0 .638.313 1.336.694 1.552.382.216.695 1.057.695 1.869 0 .813.443 2.867.984 4.566.746 2.359 1.48 4.721 2.203 7.087.67 2.2 1.479 4.147 1.798 4.327.755.427 3.346-5.109 3.346-7.15 0-.867.321-2.125.713-2.795.393-.671 1-2.437 1.351-3.927 1.571-6.676 2.291-9.098 2.869-9.659.341-.332.621-1.371.621-2.309 0-.938.467-2.523 1.037-3.524.57-1 1.039-2.547 1.041-3.437.002-.891.253-1.891.556-2.223.304-.331 1.119-2.317 1.812-4.412.693-2.095 1.658-4.81 2.145-6.032.486-1.222 1.74-4.794 2.786-7.936 1.046-3.143 2.332-6.615 2.858-7.715.526-1.101.956-2.544.956-3.207 0-.663.248-1.477.552-1.809.303-.331 1.118-2.317 1.811-4.412.693-2.095 1.665-4.81 2.16-6.032.495-1.222 1.439-3.936 2.096-6.032.658-2.095 1.469-4.081 1.801-4.412.333-.332.605-1.228.605-1.991 0-.764.467-2.206 1.037-3.207.571-1 1.039-2.404 1.042-3.12.002-.716.252-1.573.556-1.905.303-.331 1.118-2.317 1.812-4.412.693-2.096 1.658-4.81 2.144-6.032.487-1.222 1.741-4.794 2.787-7.937 1.046-3.142 2.332-6.614 2.858-7.715.525-1.1.955-2.461.955-3.024 0-.563.29-1.52.644-2.126.354-.607.813-1.603 1.02-2.214.344-1.017 1.754-1.111 16.597-1.111 8.922 0 16.395.159 16.608.354.355.325-.242 2.461-1.589 5.678-.292.698-1.063 2.841-1.714 4.762-.65 1.92-1.614 4.43-2.141 5.577-.528 1.146-.96 2.589-.96 3.206s-.248 1.393-.552 1.725c-.303.331-1.115 2.317-1.803 4.412-.689 2.095-1.69 4.748-2.226 5.895-.535 1.147-.973 2.589-.973 3.206s-.248 1.393-.552 1.725c-.303.331-1.125 2.317-1.827 4.412-.701 2.096-1.703 4.71-2.225 5.811-.523 1.1-.95 2.583-.95 3.295 0 .713-.312 1.472-.694 1.688-.382.216-.695.832-.695 1.37 0 .538-.433 1.878-.964 2.978-.53 1.101-1.983 5.001-3.229 8.668-1.246 3.666-2.531 6.938-2.855 7.27-.324.331-.589 1.107-.589 1.724s-.442 2.06-.984 3.206c-.541 1.147-1.521 3.8-2.178 5.895-.657 2.095-1.422 4.095-1.7 4.444-.278.35-.672 1.35-.875 2.223-.339 1.453-1.275 4.043-2.639 7.301-.292.699-1.063 2.842-1.713 4.762-.651 1.921-1.614 4.43-2.142 5.577-.528 1.147-.96 2.59-.96 3.207 0 .616-.248 1.392-.551 1.724-.304.332-1.115 2.318-1.804 4.413-.689 2.095-1.69 4.748-2.225 5.894-.536 1.147-.974 2.59-.974 3.207 0 .616-.248 1.392-.551 1.724-.304.332-1.126 2.318-1.827 4.413-.702 2.095-1.703 4.71-2.226 5.81-.522 1.1-.95 2.543-.95 3.206 0 .663-.248 1.477-.551 1.809-.304.332-1.126 2.318-1.828 4.413-.701 2.095-1.702 4.71-2.225 5.81-.522 1.101-.95 2.401-.95 2.889 0 .489-.39 1.658-.868 2.598l-.867 1.709-21.602.005L74.57 176l-1.136-2.72Z"/></svg>