<?xml version="1.0" encoding="UTF-8" standalone="no"?>
<svg
   viewBox="0 0 192 192"
   id="vector"
   version="1.1"
   sodipodi:docname="waiputv.svg"
   inkscape:version="1.2.2 (732a01da63, 2022-12-09)"
   xmlns:inkscape="http://www.inkscape.org/namespaces/inkscape"
   xmlns:sodipodi="http://sodipodi.sourceforge.net/DTD/sodipodi-0.dtd"
   xmlns="http://www.w3.org/2000/svg"
   xmlns:svg="http://www.w3.org/2000/svg">
  <defs
     id="defs9442" />
  <sodipodi:namedview
     id="namedview9440"
     pagecolor="#ffffff"
     bordercolor="#666666"
     borderopacity="1.0"
     inkscape:showpageshadow="2"
     inkscape:pageopacity="0.0"
     inkscape:pagecheckerboard="0"
     inkscape:deskcolor="#d1d1d1"
     showgrid="false"
     inkscape:zoom="1.2291667"
     inkscape:cx="82.983051"
     inkscape:cy="96"
     inkscape:current-layer="vector" />
  <path
     id="path_4"
     d="m 40.941174,162.44592 c -8.738825,-2.498 -15.85549,-9.922 -18.215702,-19.001 -0.993159,-3.821 -0.955186,-64.190998 0.04381,-68.146998 1.143107,-4.531 3.51403,-8.666 6.962823,-12.141 2.811029,-2.834 5.381558,-4.487 27.044106,-17.388 13.166171,-7.842 25.165867,-14.771 26.664369,-15.398 3.648398,-1.527 11.344406,-1.91 15.596489,-0.776 5.696061,1.52 10.925731,5.058 14.202181,9.609 l 1.87824,2.609 8.92966,-5.327 c 4.91127,-2.93 10.01241,-5.756 11.33565,-6.279 3.38745,-1.339 11.35414,-1.658 15.28101,-0.611 9.1653,2.446 16.19044,9.661 18.66847,19.175 0.9133,3.51 0.87924,64.304998 -0.038,67.836998 -0.94252,3.626 -3.40595,8.399 -5.72234,11.087 -2.52574,2.932 -4.60164,4.374 -16.15831,11.218 -5.05343,2.993 -9.48272,5.629 -9.84298,5.859 -0.36124,0.23 -2.62506,1.566 -5.03103,2.968 -2.40695,1.403 -4.81584,2.825 -5.35527,3.161 -0.53844,0.335 -1.10707,0.589 -1.26287,0.564 -0.15677,-0.025 -0.40408,0.133 -0.55208,0.351 -0.33592,0.497 -11.29572,7.203 -14.36867,8.792 -3.41374,1.765 -6.82554,2.518 -11.410618,2.518 -4.662978,0 -8.265613,-0.812 -11.879933,-2.677 -3.164477,-1.634 -6.945296,-4.69 -7.437007,-6.012 -0.210316,-0.566 -0.693264,-1.151 -1.073001,-1.3 -0.378764,-0.149 -0.689369,-0.548 -0.689369,-0.886 0,-0.339 -0.344685,-0.929 -0.765317,-1.312 -0.705922,-0.642 -1.470265,-0.278 -9.720299,4.631 -11.640406,6.927 -12.373591,7.208 -19.263388,7.398 -3.920056,0.107 -6.134216,-0.04 -7.820639,-0.522 z"
     fill="none"
     stroke="#000000"
     stroke-width="8"
     style="stroke-width:12;stroke-linecap:round;stroke-linejoin:round;stroke-dasharray:none" />
  <path
     id="path_5"
     d="m 92.291383,162.27992 c -4.956058,-1.478 -11.170116,-5.561 -12.045459,-7.915 -0.225895,-0.606 -0.70787,-1.219 -1.073001,-1.362 -0.364159,-0.143 -0.662106,-0.475 -0.662106,-0.736 0,-0.262 -0.300869,-0.816 -0.667948,-1.23 -0.831528,-0.94 -1.184002,-0.658 6.792427,-5.444 21.074444,-12.646 23.718004,-14.341 25.971104,-16.644 2.78572,-2.849 5.0768,-6.583 6.47306,-10.552 l 1.02237,-2.907 0.12366,-30.415998 c 0.0818,-20.043 -0.036,-31.476 -0.34468,-33.523 -0.38753,-2.567 -1.2619,-5.295 -2.89185,-9.026 -0.25608,-0.588 16.13786,-10.506 20.12802,-12.177 3.59387,-1.504 11.32299,-1.878 15.54586,-0.752 9.16627,2.446 16.19141,9.661 18.66944,19.175 0.91331,3.51 0.87924,64.304998 -0.0389,67.836998 -0.94155,3.626 -3.40498,8.399 -5.72137,11.087 -2.52574,2.932 -4.60164,4.374 -16.15831,11.218 -5.05343,2.993 -9.48272,5.629 -9.84298,5.859 -0.36124,0.23 -2.62506,1.566 -5.03103,2.968 -2.40695,1.403 -4.81585,2.825 -5.35527,3.161 -0.53845,0.335 -1.10708,0.589 -1.26287,0.564 -0.15677,-0.025 -0.40506,0.133 -0.55208,0.351 -0.33592,0.497 -11.29572,7.203 -14.36867,8.792 -1.25898,0.651 -3.41667,1.484 -4.7954,1.851 -3.43224,0.914 -10.554753,0.822 -13.913967,-0.179 z"
     fill="none"
     stroke="#000000"
     stroke-width="8"
     style="stroke-width:12;stroke-linecap:round;stroke-linejoin:round;stroke-dasharray:none" />
</svg>
