<svg xmlns="http://www.w3.org/2000/svg" viewBox="0 0 192 192"><path fill="none" stroke="#000" stroke-width="8" d="M40.941 162.446c-8.739-2.498-15.855-9.922-18.216-19.001-.993-3.821-.955-64.191.044-68.147 1.143-4.531 3.514-8.666 6.963-12.141 2.811-2.834 5.382-4.487 27.044-17.388 13.166-7.842 25.166-14.771 26.665-15.398 3.648-1.527 11.344-1.91 15.596-.776 5.696 1.52 10.926 5.058 14.202 9.609l1.878 2.609 8.93-5.327c4.911-2.93 10.013-5.756 11.336-6.28 3.387-1.338 11.354-1.657 15.28-.61 9.166 2.446 16.191 9.66 18.67 19.175.913 3.51.879 64.305-.039 67.837-.942 3.626-3.406 8.399-5.722 11.087-2.526 2.932-4.602 4.374-16.158 11.218-5.054 2.993-9.483 5.629-9.843 5.859-.362.23-2.625 1.566-5.031 2.968-2.407 1.403-4.816 2.825-5.356 3.16-.538.336-1.107.59-1.263.565-.156-.025-.404.133-.552.35-.336.498-11.295 7.204-14.368 8.793-3.414 1.765-6.826 2.518-11.41 2.518-4.664 0-8.267-.812-11.88-2.677-3.165-1.634-6.946-4.69-7.438-6.012-.21-.566-.693-1.151-1.073-1.3-.379-.15-.69-.548-.69-.886 0-.34-.344-.93-.765-1.312-.705-.642-1.47-.278-9.72 4.63-11.64 6.928-12.373 7.209-19.263 7.399-3.92.107-6.134-.04-7.82-.522z" style="stroke-width:12;stroke-linecap:round;stroke-linejoin:round;stroke-dasharray:none"/><path fill="none" stroke="#000" stroke-width="8" d="M92.291 162.28c-4.956-1.478-11.17-5.561-12.045-7.915-.226-.606-.708-1.22-1.073-1.362-.364-.143-.662-.475-.662-.736 0-.262-.301-.816-.668-1.23-.832-.94-1.184-.658 6.792-5.444 21.075-12.646 23.718-14.341 25.971-16.644 2.786-2.85 5.077-6.583 6.473-10.552l1.023-2.907.123-30.416c.082-20.043-.036-31.476-.344-33.523-.388-2.567-1.262-5.295-2.892-9.026-.256-.588 16.138-10.506 20.128-12.177 3.594-1.504 11.323-1.878 15.546-.752 9.166 2.446 16.191 9.66 18.67 19.175.913 3.51.879 64.305-.04 67.837-.941 3.626-3.405 8.399-5.721 11.087-2.526 2.932-4.602 4.374-16.158 11.218-5.054 2.993-9.483 5.629-9.843 5.859-.362.23-2.625 1.566-5.031 2.968-2.407 1.403-4.816 2.825-5.356 3.16-.538.336-1.107.59-1.262.565-.157-.025-.406.133-.553.35-.335.498-11.295 7.204-14.368 8.793-1.26.65-3.417 1.484-4.796 1.85-3.432.915-10.554.823-13.914-.178z" style="stroke-width:12;stroke-linecap:round;stroke-linejoin:round;stroke-dasharray:none"/></svg>