<svg
    xmlns="http://www.w3.org/2000/svg"
    viewBox="0 0 192 192"
    id="vector">
    <path
        id="path"
        d="M 53.331 163.811 C 34.991 159.99 22.245 142.406 17.48 114.356 C 15.49 102.638 15.51 76.472 17.52 61.151 C 18.836 51.122 23.024 28.38 23.68 27.7 C 23.814 27.561 26.674 28.02 30.034 28.721 C 54.416 33.805 65.126 53.107 65.191 92.083 L 65.206 101.175 L 69.482 95.087 C 81.073 78.582 94.253 72.952 106.079 79.454 C 111.632 82.507 118.244 88.946 122.741 95.681 L 126.045 100.629 L 127.029 84.384 C 128.488 60.282 131.665 49.839 140.47 40.205 C 143.244 37.171 146.815 34.46 150.235 32.794 C 156.89 29.551 167.421 26.978 168.289 28.383 C 168.618 28.914 169.544 32.77 170.348 36.951 C 181.039 92.586 176.475 133.512 157.413 152.934 C 144.381 166.213 127.331 168.015 112.885 157.64 C 109.487 155.2 108.977 154.364 108.069 149.749 C 104.003 129.084 90.541 126.413 84.858 145.145 C 84.15 147.478 83.567 150.45 83.562 151.75 C 83.555 153.524 82.553 154.875 79.536 157.179 C 72.314 162.693 61.319 165.476 53.331 163.811 Z"
        fill="#000000"
        stroke-width="12"/>
</svg>
