<svg xmlns="http://www.w3.org/2000/svg" viewBox="0 0 192 192"><path d="M53.331 163.811c-18.34-3.821-31.086-21.405-35.851-49.455-1.99-11.718-1.97-37.884.04-53.205 1.316-10.029 5.504-32.771 6.16-33.451.134-.139 2.994.32 6.354 1.021 24.382 5.084 35.092 24.386 35.157 63.362l.015 9.092 4.276-6.088c11.591-16.505 24.771-22.135 36.597-15.633 5.553 3.053 12.165 9.492 16.662 16.227l3.304 4.948.984-16.245c1.459-24.102 4.636-34.545 13.441-44.179 2.774-3.034 6.345-5.745 9.765-7.411 6.655-3.243 17.186-5.816 18.054-4.411.329.531 1.255 4.387 2.059 8.568 10.691 55.635 6.127 96.561-12.935 115.983-13.032 13.279-30.082 15.081-44.528 4.706-3.398-2.44-3.908-3.276-4.816-7.891-4.066-20.665-17.528-23.336-23.211-4.604-.708 2.333-1.291 5.305-1.296 6.605-.007 1.774-1.009 3.125-4.026 5.429-7.222 5.514-18.217 8.297-26.205 6.632Z"/></svg>