<svg xmlns="http://www.w3.org/2000/svg" viewBox="0 0 192 192"><path fill="none" stroke="#000" stroke-linecap="round" stroke-linejoin="round" stroke-width="8" d="M85.285 65.259a26.67 26.67 0 0 0-18.838 7.792 26.593 26.593 0 0 0-7.803 18.81 26.593 26.593 0 0 0 7.803 18.811 26.67 26.67 0 0 0 37.676 0 26.593 26.593 0 0 0 7.803-18.811 26.593 26.593 0 0 0-7.803-18.81 26.67 26.67 0 0 0-18.838-7.792ZM34.696 16.5a12.789 12.789 0 0 0-9.034 3.737 12.75 12.75 0 0 0-3.742 9.02c0 3.382 1.347 6.629 3.742 9.021a12.792 12.792 0 0 0 18.068 0 12.754 12.754 0 0 0 3.742-9.021 12.75 12.75 0 0 0-3.742-9.02 12.789 12.789 0 0 0-9.034-3.737Zm7.307 127.052a16.014 16.014 0 0 0-11.312 4.679 15.965 15.965 0 0 0-4.685 11.295c0 4.235 1.686 8.301 4.685 11.295a16.014 16.014 0 0 0 22.624 0 15.966 15.966 0 0 0 4.686-11.295c0-4.235-1.687-8.301-4.686-11.295a16.014 16.014 0 0 0-11.312-4.679Zm113.996-71.288a14.093 14.093 0 0 0-9.957 4.118 14.055 14.055 0 0 0-4.125 9.942c0 3.728 1.485 7.307 4.125 9.943a14.093 14.093 0 0 0 19.913 0 14.056 14.056 0 0 0 4.125-9.943c0-3.727-1.485-7.306-4.125-9.942a14.093 14.093 0 0 0-9.956-4.118Z"/><path fill="none" stroke="#000" stroke-linecap="round" stroke-width="8" d="m43.521 40.776 24.186 30.54M111.378 90.084l25.543-1.823M54.225 139.432l14.214-23.882"/></svg>