<?xml version="1.0" standalone="no"?>
<!DOCTYPE svg PUBLIC "-//W3C//DTD SVG 20010904//EN"
 "http://www.w3.org/TR/2001/REC-SVG-20010904/DTD/svg10.dtd">
<svg version="1.0" xmlns="http://www.w3.org/2000/svg"
 width="512.000000pt" height="512.000000pt" viewBox="0 0 512.000000 512.000000"
 preserveAspectRatio="xMidYMid meet">
<metadata>
Created by potrace 1.16, written by Peter Selinger 2001-2019
</metadata>
<g transform="translate(0.000000,512.000000) scale(0.100000,-0.100000)"
fill="#000000" stroke="none">
<path d="M1829 4936 c-49 -34 -62 -66 -99 -251 -17 -88 -34 -170 -37 -182 l-5
-23 872 0 872 0 -5 23 c-3 12 -20 94 -37 182 -37 185 -50 217 -99 251 l-36 24
-695 0 -695 0 -36 -24z"/>
<path d="M1293 4141 c-131 -45 -232 -135 -292 -261 l-36 -75 0 -1245 0 -1245
36 -75 c20 -41 54 -95 75 -119 51 -59 143 -117 224 -142 64 -19 92 -19 1285
-17 l1220 3 78 37 c130 62 227 177 263 313 10 37 14 141 14 408 l0 357 106 0
c121 0 156 14 193 74 20 32 21 48 21 406 0 358 -1 374 -21 406 -37 60 -72 74
-193 74 l-106 0 0 358 c0 266 -4 370 -14 407 -36 136 -132 250 -263 313 l-78
37 -1230 2 c-1155 2 -1233 1 -1282 -16z m1355 -818 c70 -52 66 -27 72 -551 l5
-473 119 121 c128 130 140 137 230 132 39 -3 115 -79 118 -118 3 -59 -4 -90
-28 -125 -13 -19 -136 -146 -272 -281 -340 -337 -318 -334 -570 -86 -233 228
-362 360 -377 383 -14 20 -19 57 -17 109 3 39 79 115 118 118 53 2 89 -3 113
-19 13 -8 72 -65 132 -126 l108 -112 1 450 c0 297 4 464 11 490 13 48 77 112
116 117 46 7 86 -3 121 -29z"/>
<path d="M1693 618 c3 -13 20 -95 37 -183 37 -185 50 -217 99 -251 l36 -24
695 0 695 0 36 24 c49 34 62 66 99 251 17 88 34 170 37 183 l5 22 -872 0 -872
0 5 -22z"/>
</g>
</svg>
