<svg xmlns="http://www.w3.org/2000/svg" width="682.667" height="682.667" version="1.0" viewBox="0 0 512 512"><path d="M182.9 18.4c-4.9 3.4-6.2 6.6-9.9 25.1-1.7 8.8-3.4 17-3.7 18.2l-.5 2.3h174.4l-.5-2.3c-.3-1.2-2-9.4-3.7-18.2-3.7-18.5-5-21.7-9.9-25.1l-3.6-2.4h-139l-3.6 2.4zm-53.6 79.5c-13.1 4.5-23.2 13.5-29.2 26.1l-3.6 7.5v249l3.6 7.5c2 4.1 5.4 9.5 7.5 11.9 5.1 5.9 14.3 11.7 22.4 14.2 6.4 1.9 9.2 1.9 128.5 1.7l122-.3 7.8-3.7c13-6.2 22.7-17.7 26.3-31.3 1-3.7 1.4-14.1 1.4-40.8V304h10.6c12.1 0 15.6-1.4 19.3-7.4 2-3.2 2.1-4.8 2.1-40.6 0-35.8-.1-37.4-2.1-40.6-3.7-6-7.2-7.4-19.3-7.4H416v-35.8c0-26.6-.4-37-1.4-40.7-3.6-13.6-13.2-25-26.3-31.3l-7.8-3.7-123-.2c-115.5-.2-123.3-.1-128.2 1.6zm135.5 81.8c7 5.2 6.6 2.7 7.2 55.1l.5 47.3 11.9-12.1c12.8-13 14-13.7 23-13.2 3.9.3 11.5 7.9 11.8 11.8.3 5.9-.4 9-2.8 12.5-1.3 1.9-13.6 14.6-27.2 28.1-34 33.7-31.8 33.4-57 8.6-23.3-22.8-36.2-36-37.7-38.3-1.4-2-1.9-5.7-1.7-10.9.3-3.9 7.9-11.5 11.8-11.8 5.3-.2 8.9.3 11.3 1.9 1.3.8 7.2 6.5 13.2 12.6l10.8 11.2.1-45c0-29.7.4-46.4 1.1-49 1.3-4.8 7.7-11.2 11.6-11.7 4.6-.7 8.6.3 12.1 2.9zm-95.5 270.5c.3 1.3 2 9.5 3.7 18.3 3.7 18.5 5 21.7 9.9 25.1l3.6 2.4h139l3.6-2.4c4.9-3.4 6.2-6.6 9.9-25.1 1.7-8.8 3.4-17 3.7-18.3l.5-2.2H168.8l.5 2.2z"/></svg>