<svg xmlns="http://www.w3.org/2000/svg" viewBox="0 0 192 192"><path fill="none" stroke="#000" stroke-linecap="round" stroke-linejoin="round" stroke-width="8" d="M175.536 108.397a57.707 57.707 0 0 0-5.412-24.415 58.32 58.32 0 0 0-15.261-19.925 36.075 36.075 0 0 0-6.821-21.237 36.721 36.721 0 0 0-18.073-13.309 37.147 37.147 0 0 0-22.529-.378c-8.772-7.553-19.86-11.98-31.476-12.567-11.616-.587-23.102 2.699-32.606 9.329-9.505 6.629-16.49 16.226-19.828 27.244a50.862 50.862 0 0 0 1.409 33.538 58.19 58.19 0 0 0-7.58 39.772c2.318 13.724 9.494 26.196 20.24 35.177 10.746 8.982 24.378 13.901 38.448 13.874h93.077l-30.484-13.013c10.894-4.361 20.228-11.84 26.8-21.474a57.946 57.946 0 0 0 10.096-32.616Z"/><path fill="none" stroke="#000" stroke-linecap="round" stroke-linejoin="round" stroke-width="8" d="m155.724 90.178-7.896 25.081-7.895-25.081-7.896 25.081-7.896-25.081m-56.181 0-7.896 25.081-7.896-25.081-7.896 25.081-7.896-25.081"/><path d="M107.44 64.53c-.952 0-1.865.374-2.538 1.039a3.531 3.531 0 0 0-1.051 2.51c0 .941.378 1.844 1.051 2.51a3.612 3.612 0 0 0 2.538 1.039 3.61 3.61 0 0 0 2.537-1.039 3.532 3.532 0 0 0 1.052-2.51c0-.941-.379-1.844-1.052-2.51a3.61 3.61 0 0 0-2.537-1.039Zm-22.779 0c-.951 0-1.865.374-2.538 1.039a3.531 3.531 0 0 0-1.051 2.51c0 .941.378 1.844 1.051 2.51a3.613 3.613 0 0 0 2.538 1.039c.952 0 1.865-.374 2.538-1.039a3.531 3.531 0 0 0 1.051-2.51c0-.941-.378-1.844-1.051-2.51a3.612 3.612 0 0 0-2.538-1.039Z"/><path fill="none" stroke="#000" stroke-linecap="round" stroke-linejoin="round" stroke-width="8" d="M96.05 77.401a19.257 19.257 0 0 0-13.535 5.545 18.829 18.829 0 0 0-5.606 13.384 18.83 18.83 0 0 0 5.606 13.385 19.256 19.256 0 0 0 13.535 5.544c5.075 0 9.947-1.995 13.535-5.544a18.826 18.826 0 0 0 5.607-13.385c0-5.018-2.018-9.836-5.607-13.384a19.255 19.255 0 0 0-13.535-5.545Z"/></svg>