<svg
    xmlns="http://www.w3.org/2000/svg"
    viewBox="0 0 192 192"
    id="vector">
    <path
        id="path"
        d="M 175.536 108.397 C 175.54 99.968 173.693 91.637 170.124 83.982 C 166.555 76.327 161.348 69.528 154.863 64.057 C 154.894 56.447 152.507 49.017 148.042 42.82 C 143.576 36.622 137.253 31.966 129.969 29.511 C 122.686 27.056 114.803 26.923 107.44 29.133 C 98.668 21.58 87.58 17.153 75.964 16.566 C 64.348 15.979 52.862 19.265 43.358 25.895 C 33.853 32.524 26.868 42.121 23.53 53.139 C 20.191 64.157 20.687 75.971 24.939 86.677 C 17.728 98.624 15.041 112.726 17.359 126.449 C 19.677 140.173 26.853 152.645 37.599 161.626 C 48.345 170.608 61.977 175.527 76.047 175.5 L 169.124 175.5 L 138.64 162.487 C 149.534 158.126 158.868 150.647 165.44 141.013 C 172.012 131.378 175.528 120.019 175.536 108.397 Z"
        fill="none"
        stroke="#000000"
        stroke-width="8"
        stroke-linecap="round"
        stroke-linejoin="round"/>
    <path
        id="path_1"
        d="M 155.724 90.178 L 147.828 115.259 L 139.933 90.178 L 132.037 115.259 L 124.141 90.178 M 67.96 90.178 L 60.064 115.259 L 52.168 90.178 L 44.272 115.259 L 36.376 90.178"
        fill="none"
        stroke="#000000"
        stroke-width="8"
        stroke-linecap="round"
        stroke-linejoin="round"/>
    <path
        id="path_2"
        d="M 107.44 64.53 C 106.488 64.53 105.575 64.904 104.902 65.569 C 104.229 66.235 103.851 67.138 103.851 68.079 C 103.851 69.02 104.229 69.923 104.902 70.589 C 105.575 71.254 106.488 71.628 107.44 71.628 C 108.391 71.628 109.305 71.254 109.977 70.589 C 110.65 69.923 111.029 69.02 111.029 68.079 C 111.029 67.138 110.65 66.235 109.977 65.569 C 109.305 64.904 108.391 64.53 107.44 64.53 Z M 84.661 64.53 C 83.71 64.53 82.796 64.904 82.123 65.569 C 81.45 66.235 81.072 67.138 81.072 68.079 C 81.072 69.02 81.45 69.923 82.123 70.589 C 82.796 71.254 83.71 71.628 84.661 71.628 C 85.613 71.628 86.526 71.254 87.199 70.589 C 87.872 69.923 88.25 69.02 88.25 68.079 C 88.25 67.138 87.872 66.235 87.199 65.569 C 86.526 64.904 85.613 64.53 84.661 64.53 Z"
        fill="#000000"
        stroke-width="8"/>
    <path
        id="path_3"
        d="M 96.05 77.401 C 90.976 77.401 86.103 79.397 82.515 82.946 C 78.927 86.494 76.909 91.312 76.909 96.33 C 76.909 101.349 78.927 106.167 82.515 109.715 C 86.103 113.264 90.976 115.259 96.05 115.259 C 101.125 115.259 105.997 113.264 109.585 109.715 C 113.174 106.167 115.192 101.349 115.192 96.33 C 115.192 91.312 113.174 86.494 109.585 82.946 C 105.997 79.397 101.125 77.401 96.05 77.401 Z"
        fill="none"
        stroke="#000000"
        stroke-width="8"
        stroke-linecap="round"
        stroke-linejoin="round"/>
</svg>
