<svg xmlns="http://www.w3.org/2000/svg" viewBox="0 0 192 192"><path fill="none" stroke="#000" stroke-linecap="round" stroke-linejoin="round" stroke-width="12" d="M16.5 95.46c9.206-12.653 21.187-22.945 34.988-30.056A97.985 97.985 0 0 1 96 54.5a97.984 97.984 0 0 1 44.5 10.867c13.8 7.096 25.786 17.373 35 30.01M45.038 117.082c5.828-8.252 13.473-15.001 22.322-19.707A63.073 63.073 0 0 1 96 89.983a63.068 63.068 0 0 1 28.72 7.402c8.872 4.721 16.533 11.496 22.364 19.78M71.538 137.5c3.824-5.151 9.126-8.97 15.17-10.927a30.147 30.147 0 0 1 18.584 0c6.044 1.957 11.346 5.776 15.17 10.927"/></svg>