<svg xmlns="http://www.w3.org/2000/svg" viewBox="0 0 192 192"><path d="M20.988 139.596c-1.717-3.298-3.54-9.462-4.051-13.698-1.363-11.292-1.193-71.345.214-75.779 1.553-4.894 3.193-4.527 4.984 1.116 1.177 3.708 1.498 11.677 1.498 37.216 0 36.014.023 36.142 6.559 36.142 4.594 0 5.832-4.291 5.832-20.216 0-19.529 2.19-33.262 6.131-38.45 4.232-5.571 5.698-5.519 9.617.34 3.968 5.932 6.175 20.118 6.175 39.69 0 16.764.672 18.636 6.682 18.636 5.631 0 6.663-5.294 6.663-34.187 0-23.69.125-25.126 2.919-33.569l2.92-8.82 16.845-.952c9.264-.524 18.293-.097 20.063.949 4.601 2.72 7.772 13.771 7.772 27.091 0 25.141-2.674 29.558-19.054 31.47-11.619 1.357-12.89 2.046-13.2 7.148-.188 3.105.236 6.801.943 8.212.707 1.412 7.84 2.587 15.851 2.612 12.598.04 14.647.71 15.165 4.959.329 2.702.16 7.094-.375 9.76-.834 4.154-3.319 4.847-17.389 4.847H87.336l-2.78-9.807c-2.984-10.53-3.454-19.781-1.64-32.319 1.952-13.504 5.203-16.432 18.237-16.432 9.366 0 12.094-.943 13.032-4.505.947-3.594.947-5.415 0-9.009-.97-3.684-4.169-4.504-17.56-4.504-11.464 0-16.716 1.08-17.517 3.603-.701 2.208-1.144 12.998-1.144 27.86 0 35.561-3.326 46.625-14.012 46.603-9.635-.02-13.63-12.289-13.63-41.858 0-16.084-1.616-22.842-4.72-19.738-1.655 1.655-1.953 4.461-1.953 18.415 0 30.469-4.131 43.201-14.012 43.181-3.842-.009-6.48-1.84-8.649-6.007Zm109.175 1.317c-4.008-6.85-5.493-18.978-5.493-44.848 0-26.263 1.507-38.182 5.688-44.994 4.223-6.88 43.078-6.707 44.897.201.908 3.447.978 6.133.253 9.76-.866 4.333-3.793 5.224-21.868 6.653-11.477.907-20.975 1.92-21.106 2.252-.131.331-.238 12.089-.238 26.128s.107 25.797.238 26.128c.131.332 9.629 1.345 21.106 2.252 18.075 1.429 21.002 2.319 21.868 6.653.725 3.627.655 6.312-.253 9.76-1.797 6.823-41.105 6.871-45.092.055Z"/></svg>