<svg
    xmlns="http://www.w3.org/2000/svg"
    viewBox="0 0 192 192"
    id="vector">
    <g id="group">
        <path
            id="path_6"
            d="M 20.988 139.596 C 19.271 136.298 17.448 130.134 16.937 125.898 C 15.574 114.606 15.744 54.553 17.151 50.119 C 18.704 45.225 20.344 45.592 22.135 51.235 C 23.312 54.943 23.633 62.912 23.633 88.451 C 23.633 124.465 23.656 124.593 30.192 124.593 C 34.786 124.593 36.024 120.302 36.024 104.377 C 36.024 84.848 38.214 71.115 42.155 65.927 C 46.387 60.356 47.853 60.408 51.772 66.267 C 55.74 72.199 57.947 86.385 57.947 105.957 C 57.947 122.721 58.619 124.593 64.629 124.593 C 70.26 124.593 71.292 119.299 71.292 90.406 C 71.292 66.716 71.417 65.28 74.211 56.837 L 77.131 48.017 L 93.976 47.065 C 103.24 46.541 112.269 46.968 114.039 48.014 C 118.64 50.734 121.811 61.785 121.811 75.105 C 121.811 100.246 119.137 104.663 102.757 106.575 C 91.138 107.932 89.867 108.621 89.557 113.723 C 89.369 116.828 89.793 120.524 90.5 121.935 C 91.207 123.347 98.34 124.522 106.351 124.547 C 118.949 124.587 120.998 125.257 121.516 129.506 C 121.845 132.208 121.676 136.6 121.141 139.266 C 120.307 143.42 117.822 144.113 103.752 144.113 L 87.336 144.113 L 84.556 134.306 C 81.572 123.776 81.102 114.525 82.916 101.987 C 84.868 88.483 88.119 85.555 101.153 85.555 C 110.519 85.555 113.247 84.612 114.185 81.05 C 115.132 77.456 115.132 75.635 114.185 72.041 C 113.215 68.357 110.016 67.537 96.625 67.537 C 85.161 67.537 79.909 68.617 79.108 71.14 C 78.407 73.348 77.964 84.138 77.964 99 C 77.964 134.561 74.638 145.625 63.952 145.603 C 54.317 145.583 50.322 133.314 50.322 103.745 C 50.322 87.661 48.706 80.903 45.602 84.007 C 43.947 85.662 43.649 88.468 43.649 102.422 C 43.649 132.891 39.518 145.623 29.637 145.603 C 25.795 145.594 23.157 143.763 20.988 139.596 Z M 130.163 140.913 C 126.155 134.063 124.67 121.935 124.67 96.065 C 124.67 69.802 126.177 57.883 130.358 51.071 C 134.581 44.191 173.436 44.364 175.255 51.272 C 176.163 54.719 176.233 57.405 175.508 61.032 C 174.642 65.365 171.715 66.256 153.64 67.685 C 142.163 68.592 132.665 69.605 132.534 69.937 C 132.403 70.268 132.296 82.026 132.296 96.065 C 132.296 110.104 132.403 121.862 132.534 122.193 C 132.665 122.525 142.163 123.538 153.64 124.445 C 171.715 125.874 174.642 126.764 175.508 131.098 C 176.233 134.725 176.163 137.41 175.255 140.858 C 173.458 147.681 134.15 147.729 130.163 140.913 Z"
            fill="#000000"
            stroke-width="12"/>
    </g>
</svg>
