<svg xmlns="http://www.w3.org/2000/svg" viewBox="0 0 24 24"><path d="M9.451 20.681c-.017 0-.017-.013-.017-.611 0-.336 0-.614-.009-.619 0-.006-.08-.045-.169-.088a6.09 6.09 0 0 1-.878-.544 6.308 6.308 0 0 1-1.623-1.792 8.71 8.71 0 0 1-.337-.66 7.497 7.497 0 0 1-.242-.642 6.397 6.397 0 0 1-.241-1.189c0-.05-.012-.144-.019-.21a7.238 7.238 0 0 1 0-.807c.01-.049.014-.137.019-.197 0-.059.014-.143.022-.187.01-.043.024-.143.037-.222.013-.078.029-.165.035-.191.01-.027.021-.089.032-.139.028-.125.127-.477.165-.581.109-.299.176-.461.284-.691.149-.315.337-.644.525-.916.14-.202.295-.405.31-.405l.032 3.44c.094.55.346 1.004.749 1.351.175.152.262.21.472.316.122.062.251.11.423.161.109.031.153.039.311.057.104.012 5.27.013 5.352.001.216-.032.312-.055.459-.109.333-.125.588-.284.841-.524.368-.404.563-.801.649-1.288l.021-3.421c.327.426.632.895.84 1.335.431.924.629 1.855.598 2.812-.01.207-.04.567-.067.72-.01.043-.023.134-.035.203-.179 1.025-.7 2.085-1.434 2.919a6.18 6.18 0 0 1-.976.883 6.169 6.169 0 0 1-.819.509c-.09.044-.172.088-.181.097-.016.016-.016.044-.016.598v.653L12.015 22Zm-.02-6.302a1.62 1.62 0 0 1-.398-.124 1.106 1.106 0 0 1-.252-.176 1.227 1.227 0 0 1-.377-.565V2.891c.076-.233.198-.412.396-.586a1.182 1.182 0 0 1 .783-.296c.171-.011 4.658-.011 4.873-.001.224.011.366.052.566.163.224.123.406.315.517.546.081.168.111.28.129.477l-.011 10.139a1.287 1.287 0 0 1-.195.49 1.07 1.07 0 0 1-.22.248 1.192 1.192 0 0 1-.417.255Zm2.681-.664a.808.808 0 0 0 .133-.053.631.631 0 0 0 .358-.526.705.705 0 0 0-.064-.316.659.659 0 0 0-.184-.227.596.596 0 0 0-.384-.13.474.474 0 0 0-.264.059.598.598 0 0 0-.298.28.542.542 0 0 0-.072.29.578.578 0 0 0 .07.294.429.429 0 0 0 .115.153.861.861 0 0 0 .117.096c.049.029.156.074.201.085.053.012.215.01.272-.004Zm2.538-1.729.01-8.332-5.305.004c-.011.018-.011 8.281 0 8.31l5.297.018Z"/></svg>