<svg xmlns="http://www.w3.org/2000/svg" viewBox="0 0 192 192"><path fill="none" stroke="#000" stroke-width="12" d="M111.846 175.34c-1.48-.356-4.406-1.492-6.503-2.525-3.06-1.506-4.619-2.678-7.895-5.931-4.456-4.423-6.635-7.834-8.491-13.292-3.121-9.174-1.98-19.886 3.027-28.436 2.274-3.884 7.696-9.299 11.576-11.561 5.015-2.924 9.232-4.04 15.462-4.092 6.5-.055 8.944.486 14.557 3.222 3.532 1.721 4.882 2.708 8.073 5.903 4.381 4.386 6.304 7.395 8.153 12.759 3.955 11.475 1.914 23.439-5.599 32.806-4.346 5.42-10.925 9.658-17.341 11.17-3.644.859-11.402.847-15.019-.023Zm-30.978-59.067a4292.07 4292.07 0 0 1-13.875-14.127l-5.38-5.518 1.345-.939c.74-.516 2.918-2.565 4.84-4.552l3.494-3.613 3.487 3.566c1.918 1.962 7.904 8.061 13.303 13.555l9.817 9.988-2.749 2.795c-1.512 1.537-3.432 3.843-4.268 5.124l-1.519 2.33Zm56.319-4.354c-1.11-.741-3.633-1.972-5.606-2.734-1.974-.763-3.659-1.454-3.746-1.537-.12-.115 8.336-24.289 8.658-24.751.037-.054 1.369.3 2.96.786 1.591.485 4.305 1 6.032 1.144 1.727.144 3.37.331 3.652.416.325.098-1.277 5.203-4.373 13.931-2.687 7.578-4.886 13.849-4.886 13.937 0 .415-.842.042-2.691-1.192ZM35.374 98.924c-9.626-2.576-17.045-8.745-21.314-17.723-2.396-5.039-3.354-9.266-3.354-14.801 0-5.765.966-9.829 3.67-15.44 1.922-3.987 2.791-5.212 5.907-8.326 6.253-6.249 12.605-9.108 21.155-9.524 4.11-.2 5.584-.079 8.746.716 11.658 2.929 20.415 11.61 23.835 23.629 1.423 5.003 1.431 12.861.017 17.826-3.172 11.141-10.91 19.458-21.394 22.994-4.972 1.677-12.385 1.955-17.267.649ZM143.018 82.1c-10.15-2.044-18.263-8.566-22.929-18.433-2.323-4.911-3.07-8.397-3.078-14.351-.008-6.13 1.013-10.543 3.677-15.882 1.523-3.053 2.707-4.615 5.949-7.849 6.901-6.883 12.139-9.228 21.315-9.542 6.382-.218 9.337.347 14.576 2.787 8.579 3.995 15.243 12.112 17.775 21.652 1.237 4.659 1.326 11.622.211 16.499-3.968 17.36-20.622 28.516-37.496 25.119ZM76.883 59.658c-.178-1.188-.923-3.79-1.655-5.782-1.993-5.426-1.952-5.192-.927-5.192.499 0 9.05-.605 19.002-1.345 9.952-.74 18.801-1.345 19.665-1.345l1.569.001.074 4.148c.041 2.281.3 5.133.576 6.337.276 1.205.425 2.268.33 2.362-.154.154-23.058 1.967-33.997 2.69l-4.313.286-.324-2.16Z"/></svg>