<svg xmlns="http://www.w3.org/2000/svg" viewBox="0 0 192 192"><path fill="none" stroke="#000" stroke-linecap="round" stroke-linejoin="round" stroke-width="12" d="M82.83 101.786c-1.343 5.326-.156 11.064 3.298 15.941 3.455 4.877 8.9 8.503 15.129 10.075 6.228 1.572 12.742.963 18.096-1.692 5.354-2.654 9.12-7.142 10.463-12.467 1.343-5.326.156-11.064-3.298-15.941-3.455-4.877-8.9-8.504-15.129-10.075-6.228-1.572-12.742-.963-18.096 1.691-5.353 2.655-9.12 7.143-10.463 12.468Z"/><path fill="none" stroke="#000" stroke-linecap="round" stroke-linejoin="round" stroke-width="12" d="m129.816 113.643 22.563-89.714c-3.738 14.823 26.397 7.556 22.828 21.706m-46.632 22.154a45.359 45.359 0 0 0-30.501-5.8A45.366 45.366 0 0 0 70.99 77.171a45.385 45.385 0 0 0-10.975 29.049 45.358 45.358 0 0 0 36.99 45.13 45.356 45.356 0 0 0 50.826-28.655 45.382 45.382 0 0 0 .295-31.052m-14.103-45.51a67.177 67.177 0 0 0-48.135-3.643 67.198 67.198 0 0 0-38.149 29.585 67.223 67.223 0 0 0-8.464 47.535 67.212 67.212 0 0 0 25.592 40.939 67.187 67.187 0 0 0 46.433 13.203 67.194 67.194 0 0 0 43.295-21.352 67.224 67.224 0 0 0 17.802-44.88 67.222 67.222 0 0 0-16.885-45.233m-50.22-44.286A88.776 88.776 0 0 0 60.896 29.9a88.802 88.802 0 0 0-32.5 32.507A88.834 88.834 0 0 0 16.5 106.814"/></svg>