<svg xmlns="http://www.w3.org/2000/svg" viewBox="0 0 192 192"><path d="M156.683 103.764a62.46 62.46 0 0 0 .558-7.764 62.446 62.446 0 0 0-.558-7.764l17.253-13.159a3.87 3.87 0 0 0 1.495-2.357 3.797 3.797 0 0 0-.499-2.728l-16.336-27.6a3.955 3.955 0 0 0-2.159-1.773 4.077 4.077 0 0 0-2.822.065l-20.36 7.997a62.852 62.852 0 0 0-13.787-7.764L116.4 19.839a4.047 4.047 0 0 0-1.387-2.355 4.25 4.25 0 0 0-2.597-.984H79.743a4.052 4.052 0 0 0-2.637.939 3.853 3.853 0 0 0-1.347 2.4l-3.068 21.078a61.611 61.611 0 0 0-13.786 7.764l-20.52-7.997a4.077 4.077 0 0 0-2.822-.065 3.955 3.955 0 0 0-2.159 1.773l-16.336 27.6a3.797 3.797 0 0 0-.499 2.728 3.87 3.87 0 0 0 1.495 2.357l17.213 13.159A63.042 63.042 0 0 0 34.719 96c.025 2.596.211 5.189.558 7.764l-17.213 13.159a3.87 3.87 0 0 0-1.495 2.357 3.797 3.797 0 0 0 .499 2.728l16.336 27.6a3.955 3.955 0 0 0 2.159 1.773 4.077 4.077 0 0 0 2.822-.065l20.36-7.997a62.852 62.852 0 0 0 13.787 7.764l3.068 21.078a3.853 3.853 0 0 0 1.347 2.4 4.05 4.05 0 0 0 2.637.939h32.673a4.052 4.052 0 0 0 2.637-.939 3.853 3.853 0 0 0 1.347-2.4l3.068-21.078a61.611 61.611 0 0 0 13.786-7.764l20.361 7.997c.901.357 1.905.38 2.822.065a3.957 3.957 0 0 0 2.158-1.773l16.337-27.6c.505-.818.682-1.79.499-2.728a3.872 3.872 0 0 0-1.496-2.357Z" fill="none" stroke="#000" stroke-width="12" stroke-linecap="round" stroke-linejoin="round"/><path d="M138.116 102.289c-7.819-10.674-18.042-19.465-29.884-25.698-11.483-6.877-24.433-11.1-37.852-12.344m47.056 53.375c-5.799-7.972-13.407-14.535-22.233-19.176a66.282 66.282 0 0 0-28.13-9.162m31.557 40.449c-3.789-5.231-8.784-9.526-14.583-12.538a42.43 42.43 0 0 0-18.408-5.978" fill="none" stroke="#000" stroke-width="12" stroke-linecap="round" stroke-linejoin="round"/></svg>