<svg
    xmlns="http://www.w3.org/2000/svg"
    viewBox="0 0 192 192"
    id="vector">
    <path
        id="path"
        d="M 156.683 103.764 C 157.03 101.189 157.217 98.596 157.241 96 C 157.217 93.403 157.03 90.811 156.683 88.236 L 173.936 75.077 C 174.715 74.497 175.247 73.658 175.431 72.72 C 175.615 71.782 175.437 70.81 174.932 69.992 L 158.596 42.392 C 158.123 41.564 157.355 40.933 156.437 40.619 C 155.52 40.304 154.516 40.327 153.615 40.684 L 133.255 48.681 C 129.018 45.53 124.385 42.921 119.468 40.917 L 116.4 19.839 C 116.228 18.922 115.738 18.091 115.013 17.484 C 114.288 16.877 113.371 16.529 112.416 16.5 L 79.743 16.5 C 78.777 16.491 77.839 16.825 77.106 17.439 C 76.373 18.053 75.894 18.906 75.759 19.839 L 72.691 40.917 C 67.768 42.909 63.134 45.519 58.905 48.681 L 38.385 40.684 C 37.484 40.327 36.48 40.304 35.563 40.619 C 34.645 40.933 33.877 41.564 33.404 42.392 L 17.068 69.992 C 16.563 70.81 16.385 71.782 16.569 72.72 C 16.753 73.658 17.285 74.497 18.064 75.077 L 35.277 88.236 C 34.931 90.811 34.745 93.404 34.719 96 C 34.744 98.596 34.93 101.189 35.277 103.764 L 18.064 116.923 C 17.285 117.503 16.753 118.342 16.569 119.28 C 16.385 120.218 16.563 121.19 17.068 122.008 L 33.404 149.608 C 33.877 150.436 34.645 151.067 35.563 151.381 C 36.48 151.696 37.484 151.673 38.385 151.316 L 58.745 143.319 C 62.982 146.47 67.615 149.079 72.532 151.083 L 75.6 172.161 C 75.735 173.094 76.214 173.947 76.947 174.561 C 77.68 175.175 78.617 175.509 79.584 175.5 L 112.257 175.5 C 113.223 175.509 114.161 175.175 114.894 174.561 C 115.627 173.947 116.106 173.094 116.241 172.161 L 119.309 151.083 C 124.232 149.091 128.866 146.481 133.095 143.319 L 153.456 151.316 C 154.357 151.673 155.361 151.696 156.278 151.381 C 157.195 151.067 157.963 150.436 158.436 149.608 L 174.773 122.008 C 175.278 121.19 175.455 120.218 175.272 119.28 C 175.088 118.342 174.555 117.503 173.776 116.923 Z"
        fill="none"
        stroke="#000000"
        stroke-width="12"
        stroke-linecap="round"
        stroke-linejoin="round"/>
    <path
        id="path_1"
        d="M 138.116 102.289 C 130.297 91.615 120.074 82.824 108.232 76.591 C 96.749 69.714 83.799 65.491 70.38 64.247 M 117.436 117.622 C 111.637 109.65 104.029 103.087 95.203 98.446 C 86.675 93.324 77.048 90.189 67.073 89.284 M 98.63 129.733 C 94.841 124.502 89.846 120.207 84.047 117.195 C 78.479 113.819 72.172 111.771 65.639 111.217"
        fill="none"
        stroke="#000000"
        stroke-width="12"
        stroke-linecap="round"
        stroke-linejoin="round"/>
</svg>
