<svg width="192" height="192" viewBox="0 0 192 192" fill="none" xml:space="preserve" xmlns="http://www.w3.org/2000/svg"><g style="stroke-width:1.18421;stroke-dasharray:none"><path d="M12 1a9.002 9.002 0 0 0-6.366 15.362c1.63 1.63 5.466 3.988 5.693 6.465.034.37.303.673.673.673.37 0 .64-.303.673-.673.227-2.477 4.06-4.831 5.689-6.46A9.002 9.002 0 0 0 12 1Z" fill="#f43" style="display:inline;fill:none;stroke:#000;stroke-width:1.18421;stroke-dasharray:none;stroke-opacity:1" transform="translate(14.93 13.244) scale(6.75555)"/><path d="M12 13.079a3.079 3.079 0 1 1 0-6.158 3.079 3.079 0 0 1 0 6.158z" fill="#fff" style="display:inline;fill:none;stroke:#000;stroke-width:1.18421;stroke-dasharray:none;stroke-opacity:1" transform="translate(14.93 13.244) scale(6.75555)"/></g></svg>