<svg xmlns="http://www.w3.org/2000/svg" viewBox="0 0 192 192"><path d="M62.178 175.073c-8.943-3.218-11.917-8.506-10.985-19.535.837-9.893 5.148-22.831 13.398-40.208 3.542-7.46 6.44-14.202 6.44-14.98 0-.779-1.77-4.18-3.933-7.558-9.275-14.483-21.539-52.258-21.599-66.528-.023-5.632 3.261-7.614 11.618-7.01 8.01.58 15.597 5.01 18.871 11.021 1.263 2.318 4.077 12.358 6.253 22.311s4.311 18.487 4.745 18.963c.433.477 7.586-10.78 15.895-25.016 8.308-14.235 16.304-26.961 17.768-28.278 3.208-2.886 5.947-2.981 11.592-.403 4.982 2.276 12.935 10.53 13.918 14.445 1.088 4.337-.069 6.972-8.662 19.716-28.714 42.585-42.927 72.003-51.565 106.729-2.692 10.82-3.953 13.399-7.412 15.151-4.438 2.25-11.876 2.786-16.342 1.18Z"/></svg>