<svg xmlns="http://www.w3.org/2000/svg" viewBox="0 0 192 192"><path d="M16 162.07c.021-3.402.768-4.709 2.451-4.287 1.719.432 4.334-1.548 4.334-3.282 0-.841-2.14-11.922-3.065-15.87-.341-1.454-.161-1.529 3.682-1.529h4.041l.43 3.907c.237 2.148.49 4.353.563 4.899.072.546 1.019-1.212 2.104-3.907l1.972-4.899h3.968c2.183 0 3.969.143 3.969.317 0 .551-10.966 20.32-12.361 22.283-1.874 2.638-4.672 3.896-8.666 3.896-3.108 0-3.43-.144-3.422-1.528Zm25.594-8.265c-3.637-3.371-3.259-9.783.838-14.174 2.274-2.438 2.971-2.773 6.368-3.055 5.305-.44 7.19.169 8.237 2.66l.877 2.086.422-2.11c.298-1.492.809-2.11 1.744-2.11.914 0 1.458-.624 1.766-2.025.45-2.049.734-2.196 6.967-3.614 1.72-.391 1.716-.405.904 3.092-.58 2.496-.552 2.547 1.388 2.547 1.815 0 1.943.156 1.533 1.869-.649 2.714-.824 2.887-2.929 2.887-1.781 0-1.941.231-2.364 3.419-.529 3.992-.232 4.74 1.686 4.238 1.298-.339 1.37-.165.929 2.272-.262 1.452-.607 2.869-.767 3.149-.16.28-2.1.51-4.311.51-3.55 0-4.152-.201-5.145-1.717-1.116-1.703-1.089-3.688.132-9.663.393-1.921.27-2.208-.945-2.208-.909 0-1.472.51-1.614 1.461-.328 2.21-3.436 4.124-7.3 4.495-3.651.351-4.296 1.015-2.119 2.18.968.518 2.111.441 4.219-.286 1.591-.548 2.971-.917 3.068-.82.096.096-.012 1.33-.241 2.741-.502 3.089-1.958 3.817-7.64 3.817-3.216 0-4.255-.299-5.703-1.641Zm8.793-11.409c.223-.361.107-.955-.258-1.32-.672-.672-2.887.959-2.887 2.126 0 .728 2.61.06 3.145-.806Zm76.343 9.313v-3.057h36.686v6.114H126.73Zm0-14.267v-3.057h36.686v6.114H126.73ZM41.943 56.8c-1.053-1.053-1.053-4.79 0-5.843.449-.448 1.763-.815 2.922-.815 1.158 0 2.472.367 2.921.815.448.449.815 1.763.815 2.921 0 1.159-.367 2.473-.815 2.922-1.053 1.053-4.79 1.053-5.843 0Zm79.592-3.195c-5.707-3.522-4.07-14.02 2.661-17.075 2.89-1.312 11.666-1.904 12.232-.825.147.28 0 1.781-.327 3.335l-.595 2.825-2.382-.658c-1.888-.522-2.903-.403-4.897.572-2.15 1.05-2.547 1.6-2.727 3.778-.185 2.239.014 2.635 1.643 3.254 1.282.488 2.48.486 3.887-.004 1.119-.39 2.183-.561 2.363-.38.181.18.055 1.634-.28 3.23l-.61 2.901-4.415.183c-3.414.141-4.901-.117-6.553-1.137Zm15.084-.217c-2.226-3.179-.587-9.104 3.148-11.381 1.74-1.061 3.432-1.372 7.474-1.374 2.874-.001 5.402.284 5.618.634.216.35-.145 3.56-.802 7.133l-1.195 6.498h-3.234c-2.063 0-3.234-.296-3.234-.816 0-.634-.182-.634-.816 0-1.435 1.435-5.77 1.003-6.959-.694Zm8.828-5.602c1.168-2.795 1.196-3.079.305-3.079-1.179 0-3.396 2.661-3.396 4.076 0 2.214 2.022 1.562 3.091-.997Zm9.326 6.262c-1.426-1.843-1.377-3.374.374-11.469l1.816-8.403 3.31-.21 3.31-.21-.44 2.248c-.242 1.237-1.008 4.756-1.701 7.821-.694 3.065-1.115 5.719-.936 5.898.703.703 2.231-.479 2.231-1.726 0-2.204 1.946-5.246 4.054-6.336 2.053-1.061 8.527-1.43 9.091-.517.175.282.153 1.375-.049 2.429-.31 1.623-.614 1.854-1.989 1.508-2.021-.507-4.082.543-4.663 2.375-.657 2.071.771 3.383 3.163 2.905 1.935-.388 1.996-.326 1.534 1.557-.628 2.562-1.322 2.957-5.229 2.969-2.66.009-3.566-.32-4.925-1.787l-1.666-1.798V53.1c0 1.698-.184 1.798-3.314 1.798-1.848 0-3.605-.376-3.971-.85ZM26.182 43.008v-3.057h36.686v6.115H26.182Zm15.761-7.948c-1.053-1.053-1.053-4.79 0-5.843.449-.448 1.763-.815 2.922-.815 2.666 0 3.736 1.069 3.736 3.736 0 2.667-1.07 3.737-3.736 3.737-1.159 0-2.473-.367-2.922-.815Z"/></svg>