<svg
    xmlns="http://www.w3.org/2000/svg"
    viewBox="0 0 192 192"
    id="vector">
    <path
        id="path"
        d="M 16 162.07 C 16.021 158.668 16.768 157.361 18.451 157.783 C 20.17 158.215 22.785 156.235 22.785 154.501 C 22.785 153.66 20.645 142.579 19.72 138.631 C 19.379 137.177 19.559 137.102 23.402 137.102 L 27.443 137.102 L 27.873 141.009 C 28.11 143.157 28.363 145.362 28.436 145.908 C 28.508 146.454 29.455 144.696 30.54 142.001 L 32.512 137.102 L 36.48 137.102 C 38.663 137.102 40.449 137.245 40.449 137.419 C 40.449 137.97 29.483 157.739 28.088 159.702 C 26.214 162.34 23.416 163.598 19.422 163.598 C 16.314 163.598 15.992 163.454 16 162.07 Z M 41.594 153.805 C 37.957 150.434 38.335 144.022 42.432 139.631 C 44.706 137.193 45.403 136.858 48.8 136.576 C 54.105 136.136 55.99 136.745 57.037 139.236 L 57.914 141.322 L 58.336 139.212 C 58.634 137.72 59.145 137.102 60.08 137.102 C 60.994 137.102 61.538 136.478 61.846 135.077 C 62.296 133.028 62.58 132.881 68.813 131.463 C 70.533 131.072 70.529 131.058 69.717 134.555 C 69.137 137.051 69.165 137.102 71.105 137.102 C 72.92 137.102 73.048 137.258 72.638 138.971 C 71.989 141.685 71.814 141.858 69.709 141.858 C 67.928 141.858 67.768 142.089 67.345 145.277 C 66.816 149.269 67.113 150.017 69.031 149.515 C 70.329 149.176 70.401 149.35 69.96 151.787 C 69.698 153.239 69.353 154.656 69.193 154.936 C 69.033 155.216 67.093 155.446 64.882 155.446 C 61.332 155.446 60.73 155.245 59.737 153.729 C 58.621 152.026 58.648 150.041 59.869 144.066 C 60.262 142.145 60.139 141.858 58.924 141.858 C 58.015 141.858 57.452 142.368 57.31 143.319 C 56.982 145.529 53.874 147.443 50.01 147.814 C 46.359 148.165 45.714 148.829 47.891 149.994 C 48.859 150.512 50.002 150.435 52.11 149.708 C 53.701 149.16 55.081 148.791 55.178 148.888 C 55.274 148.984 55.166 150.218 54.937 151.629 C 54.435 154.718 52.979 155.446 47.297 155.446 C 44.081 155.446 43.042 155.147 41.594 153.805 Z M 50.387 142.396 C 50.61 142.035 50.494 141.441 50.129 141.076 C 49.457 140.404 47.242 142.035 47.242 143.202 C 47.242 143.93 49.852 143.262 50.387 142.396 Z M 126.73 151.709 L 126.73 148.652 L 163.416 148.652 L 163.416 154.766 L 126.73 154.766 Z M 126.73 137.442 L 126.73 134.385 L 163.416 134.385 L 163.416 140.499 L 126.73 140.499 Z M 41.943 56.8 C 40.89 55.747 40.89 52.01 41.943 50.957 C 42.392 50.509 43.706 50.142 44.865 50.142 C 46.023 50.142 47.337 50.509 47.786 50.957 C 48.234 51.406 48.601 52.72 48.601 53.878 C 48.601 55.037 48.234 56.351 47.786 56.8 C 46.733 57.853 42.996 57.853 41.943 56.8 Z M 121.535 53.605 C 115.828 50.083 117.465 39.585 124.196 36.53 C 127.086 35.218 135.862 34.626 136.428 35.705 C 136.575 35.985 136.428 37.486 136.101 39.04 L 135.506 41.865 L 133.124 41.207 C 131.236 40.685 130.221 40.804 128.227 41.779 C 126.077 42.829 125.68 43.379 125.5 45.557 C 125.315 47.796 125.514 48.192 127.143 48.811 C 128.425 49.299 129.623 49.297 131.03 48.807 C 132.149 48.417 133.213 48.246 133.393 48.427 C 133.574 48.607 133.448 50.061 133.113 51.657 L 132.503 54.558 L 128.088 54.741 C 124.674 54.882 123.187 54.624 121.535 53.604 Z M 136.619 53.388 C 134.393 50.209 136.032 44.284 139.767 42.007 C 141.507 40.946 143.199 40.635 147.241 40.633 C 150.115 40.632 152.643 40.917 152.859 41.267 C 153.075 41.617 152.714 44.827 152.057 48.4 L 150.862 54.898 L 147.628 54.898 C 145.565 54.898 144.394 54.602 144.394 54.082 C 144.394 53.448 144.212 53.448 143.578 54.082 C 142.143 55.517 137.808 55.085 136.619 53.388 Z M 145.447 47.786 C 146.615 44.991 146.643 44.707 145.752 44.707 C 144.573 44.707 142.356 47.368 142.356 48.783 C 142.356 50.997 144.378 50.345 145.447 47.786 Z M 154.773 54.048 C 153.347 52.205 153.396 50.674 155.147 42.579 L 156.963 34.176 L 160.273 33.966 L 163.583 33.756 L 163.143 36.004 C 162.901 37.241 162.135 40.76 161.442 43.825 C 160.748 46.89 160.327 49.544 160.506 49.723 C 161.209 50.426 162.737 49.244 162.737 47.997 C 162.737 45.793 164.683 42.751 166.791 41.661 C 168.844 40.6 175.318 40.231 175.882 41.144 C 176.057 41.426 176.035 42.519 175.833 43.573 C 175.523 45.196 175.219 45.427 173.844 45.081 C 171.823 44.574 169.762 45.624 169.181 47.456 C 168.524 49.527 169.952 50.839 172.344 50.361 C 174.279 49.973 174.34 50.035 173.878 51.918 C 173.25 54.48 172.556 54.875 168.649 54.887 C 165.989 54.896 165.083 54.567 163.724 53.1 L 162.058 51.302 L 162.058 53.1 C 162.058 54.798 161.874 54.898 158.744 54.898 C 156.896 54.898 155.139 54.522 154.773 54.048 Z M 26.182 43.008 L 26.182 39.951 L 62.868 39.951 L 62.868 46.066 L 26.182 46.066 Z M 41.943 35.06 C 40.89 34.007 40.89 30.27 41.943 29.217 C 42.392 28.769 43.706 28.402 44.865 28.402 C 47.531 28.402 48.601 29.471 48.601 32.138 C 48.601 34.805 47.531 35.875 44.865 35.875 C 43.706 35.875 42.392 35.508 41.943 35.06 Z"
        fill="#000000"
        stroke-width="12"/>
</svg>
