<svg xmlns="http://www.w3.org/2000/svg" viewBox="0 0 192 192"><path d="M57.89 132.694v-23.306l3.518.947c1.934.52 4.544.044 5.799-1.059 1.698-1.493 2.823-1.372 4.403.473 1.725 2.016 2.051 5.615 1.747 19.285l-.375 16.806-4.921-.211c-4.576-.195-4.921.161-4.921 5.08 0 4.059-.611 5.291-2.625 5.291-2.486 0-2.625-1.232-2.625-23.306Zm9.187-5.48c0-8.904-.44-11.957-1.641-11.399-1.016.472-1.789 5.103-2.031 12.161-.319 9.294-.016 11.399 1.64 11.399 1.628 0 2.032-2.416 2.032-12.161Zm-44.62 7.866c0-7.534-1.137-16.39-3.202-24.937l-3.203-13.255h3.9c2.318 0 4.149 1.124 4.515 2.771 2.015 9.08 2.279 9.316 3.614 3.233 1.084-4.939 1.982-6.004 5.065-6.004 2.061 0 3.747.782 3.747 1.738 0 .955-1.476 7.498-3.281 14.539-2.034 7.936-3.281 16.755-3.281 23.201 0 10.322-.029 10.398-3.937 10.398h-3.937Zm14.199 7.07c-2.121-6.552-.314-13.036 4.821-17.301 4.67-3.879 6.227-9.488 2.634-9.488-1.083 0-1.969 1.247-1.969 2.771 0 1.724-1.239 2.77-3.281 2.77-3.765 0-4.332-3.798-1.22-8.177 3.284-4.623 8.088-5.501 11.729-2.143 3.081 2.842 3.271 3.971 3.271 19.467V146.5h-7.289c-6.381 0-7.464-.542-8.696-4.35Zm9.423-7.393c0-3.556-.579-6.466-1.287-6.466-1.627 0-3.183 8.375-2.04 10.979 1.732 3.944 3.327 1.78 3.327-4.513Zm32.808-6.466c0-17.24.175-18.472 2.625-18.472s2.625 1.232 2.625 18.472c0 17.241-.175 18.473-2.625 18.473s-2.625-1.232-2.625-18.473Zm10.499-6.465V96.888h3.206c2.828 0 3.255.923 3.634 7.851l.43 7.851 2.413-7.851c1.875-6.101 3.113-7.851 5.551-7.851 3.821 0 3.901 1.739.514 11.084-3.254 8.979-3.274 12.193-.14 22.394 4.564 14.853 4.657 16.398.993 16.398-2.655 0-3.679-1.543-5.516-8.313-1.24-4.572-2.765-8.312-3.389-8.312-.624 0-1.134 3.74-1.134 8.312 0 7.635-.268 8.313-3.281 8.313h-3.281Zm23.622 6.235v-18.704l3.886 1.094c2.138.602 4.239.29 4.671-.692 1.47-3.35 3.254-1.798 3.254 2.831 0 2.54-.548 4.618-1.219 4.618-3.459 0-5.343 6.234-5.343 17.681 0 10.643-.272 11.875-2.624 11.875-2.452 0-2.625-1.232-2.625-18.703Zm16.479 14.597c-1.316-2.645-2.043-8.183-2.043-15.567 0-10.182.386-11.89 3.458-15.291 4.132-4.575 6.773-4.81 10.685-.953 2.163 2.132 2.917 4.731 2.917 10.049 0 6.955-.149 7.19-4.921 7.746-4.469.52-4.921 1.068-4.921 5.961 0 2.963.738 5.734 1.64 6.157.962.452 1.64-.821 1.64-3.078 0-2.874.832-3.849 3.281-3.849 2.549 0 3.281.948 3.281 4.249 0 6.07-2.426 8.682-8.062 8.682-3.589 0-5.463-1.106-6.955-4.106Zm8.455-23.603c0-2.052-.874-3.694-1.968-3.694-1.094 0-1.969 1.642-1.969 3.694 0 2.053.875 3.695 1.969 3.695s1.968-1.642 1.968-3.695Zm11.765 23.892c-1.643-4.321-1.634-24.137.014-30.237 1.362-5.044 4.999-6.244 7.644-2.522 1.225 1.725 1.575.493 1.575-5.541 0-7.044.302-7.759 3.28-7.759h3.281v49.572l-7.264-.091c-5.612-.071-7.552-.85-8.53-3.422Zm9.889-15.605c0-8.597-.438-11.058-1.969-11.058-1.501 0-2.062 2.778-2.362 11.699-.35 10.428-.137 11.629 1.969 11.058 1.961-.532 2.362-2.519 2.362-11.699Zm9.842.949v-18.472H176v36.945h-6.562Zm0-27.708c0-2.709.875-3.695 3.281-3.695s3.281.986 3.281 3.695c0 2.709-.875 3.694-3.281 3.694s-3.281-.985-3.281-3.694ZM53.604 92.027c-2.707-1.996-4.101-5.48-6.241-15.591-2.753-13.016-6.202-20.187-9.707-20.187-3.829 0-6.012 2.374-6.012 6.539 0 5.735 4.584 7.812 7.906 3.58 2.351-2.995 2.51-2.913 3.335 1.717 1.225 6.871-1.614 15.167-6.083 17.773-7.706 4.493-16.244-1.445-19.507-13.566-2.032-7.551-1.742-12.033 1.364-21.063 6.459-18.783 27.275-20.448 36.351-2.909l2.657 5.133 2.86-5.119c6.099-10.914 19.296-15.659 27.284-9.809 6.759 4.95 9.846 11.444 10.469 22.026.699 11.856-1.885 20.184-7.539 24.299-4.831 3.517-8.341 3.543-13.072.1-4.136-3.011-5.343-6.166-5.343-13.965 0-6.008 1.955-8.773 3.137-4.436.995 3.648 5.962 2.776 7.808-1.371 1.803-4.051-.985-8.929-5.105-8.929-3.098 0-8.465 7.726-8.465 12.187 0 1.349-1.205 6.986-2.678 12.527-3.153 11.862-7.489 15.438-13.419 11.064Zm9.709-19.615c3.626-16.285 8.143-23.552 14.64-23.552 6.335 0 11.439 6.049 11.413 13.527-.024 6.936-.931 9.18-4.901 12.123-2.139 1.585-3.676 1.644-5.578.211-3.151-2.374-3.375-1.321-.562 2.639 5.542 7.802 14.998-.778 14.998-13.609 0-5.614-.941-8.926-3.829-13.476-3.333-5.251-4.659-6.033-10.228-6.033-7.343 0-12.649 4.049-15.924 12.154-3.188 7.887-8.294 7.388-11.878-1.161-6.835-16.307-25.536-14.902-28.885 2.171-2.535 12.925 4.145 24.996 12.249 22.133 1.857-.656 3.377-2.065 3.377-3.13 0-1.111-1.146-1.425-2.689-.735-4.591 2.051-9.122-3.659-9.122-11.498 0-8.987 4.181-15.316 10.118-15.316 8.207 0 10.752 4.276 16.763 28.171 3.374 13.412 6.326 12.054 10.038-4.619Z"/></svg>