<svg
    xmlns="http://www.w3.org/2000/svg"
    viewBox="0 0 192 192"
    id="vector">
    <path
        id="path"
        d="M 96 16.5 C 74.923 16.5 54.688 24.882 39.785 39.785 C 24.882 54.688 16.5 74.923 16.5 96 C 16.5 117.077 24.882 137.312 39.785 152.215 C 54.688 167.118 74.923 175.5 96 175.5 C 117.077 175.5 137.312 167.118 152.215 152.215 C 167.118 137.312 175.5 117.077 175.5 96 C 175.5 74.923 167.118 54.688 152.215 39.785 C 137.312 24.882 117.077 16.5 96 16.5 Z"
        fill="none"
        stroke="#000000"
        stroke-width="12"
        stroke-linecap="round"
        stroke-linejoin="round"/>
    <path
        id="path_1"
        d="M 96 77.512 C 91.098 77.512 86.393 79.461 82.927 82.927 C 79.461 86.393 77.512 91.098 77.512 96 C 77.512 100.902 79.461 105.607 82.927 109.073 C 86.393 112.539 91.098 114.488 96 114.488 C 100.902 114.488 105.607 112.539 109.073 109.073 C 112.539 105.607 114.488 100.902 114.488 96 C 114.488 91.098 112.539 86.393 109.073 82.927 C 105.607 79.461 100.902 77.512 96 77.512 Z M 96 114.488 L 96 175.5"
        fill="none"
        stroke="#000000"
        stroke-width="12"
        stroke-linecap="round"
        stroke-linejoin="round"/>
</svg>
