<svg xmlns="http://www.w3.org/2000/svg" viewBox="0 0 192 192"><path d="M96 16.5a79.529 79.529 0 0 0-56.215 23.285A79.529 79.529 0 0 0 16.5 96a79.529 79.529 0 0 0 23.285 56.215A79.529 79.529 0 0 0 96 175.5a79.529 79.529 0 0 0 56.215-23.285A79.529 79.529 0 0 0 175.5 96a79.529 79.529 0 0 0-23.285-56.215A79.529 79.529 0 0 0 96 16.5Z" fill="none" stroke="#000" stroke-width="12" stroke-linecap="round" stroke-linejoin="round"/><path d="M96 77.512a18.493 18.493 0 0 0-13.073 5.415A18.493 18.493 0 0 0 77.512 96c0 4.902 1.949 9.607 5.415 13.073A18.493 18.493 0 0 0 96 114.488c4.902 0 9.607-1.949 13.073-5.415A18.493 18.493 0 0 0 114.488 96c0-4.902-1.949-9.607-5.415-13.073A18.493 18.493 0 0 0 96 77.512Zm0 36.976V175.5" fill="none" stroke="#000" stroke-width="12" stroke-linecap="round" stroke-linejoin="round"/></svg>