<?xml version="1.0" encoding="UTF-8" standalone="no"?>
<svg
   viewBox="0 0 192 192"
   id="vector"
   version="1.1"
   sodipodi:docname="zattoo.svg"
   inkscape:version="1.2.2 (732a01da63, 2022-12-09)"
   xmlns:inkscape="http://www.inkscape.org/namespaces/inkscape"
   xmlns:sodipodi="http://sodipodi.sourceforge.net/DTD/sodipodi-0.dtd"
   xmlns="http://www.w3.org/2000/svg"
   xmlns:svg="http://www.w3.org/2000/svg">
  <defs
     id="defs9933" />
  <sodipodi:namedview
     id="namedview9931"
     pagecolor="#ffffff"
     bordercolor="#666666"
     borderopacity="1.0"
     inkscape:showpageshadow="2"
     inkscape:pageopacity="0.0"
     inkscape:pagecheckerboard="0"
     inkscape:deskcolor="#d1d1d1"
     showgrid="false"
     inkscape:zoom="1.2291667"
     inkscape:cx="82.983051"
     inkscape:cy="96"
     inkscape:current-layer="vector" />
  <path
     id="path"
     d="m 91.37718,169.86261 c -10.228,-0.97262 -17.84,-3.02108 -25.857,-6.95831 -17.039,-8.36713 -28.973,-23.62928 -32.149,-41.11319 -0.85,-4.68107 -0.845,-13.02872 0.011,-17.77502 3.725,-20.659788 19.659,-37.852592 41.545,-44.828436 2.495,-0.795431 4.529,-1.543156 4.522,-1.661936 -0.008,-0.117805 -3.769,-4.757983 -8.358,-10.310425 -4.59,-5.552441 -8.345,-10.399022 -8.345,-10.770938 0,-0.977494 2.759,-3.35892 3.882,-3.353078 0.506,0.0029 1.099,0.120726 1.319,0.261899 0.22,0.141171 4.601,5.353827 9.735,11.583894 l 9.334,11.327836 3.603,-0.127541 c 1.982,-0.07107 3.714,-0.1918 3.848,-0.269687 0.135,-0.07691 6.282,-7.663206 13.661,-16.856913 7.378,-9.194679 13.689,-16.80239 14.023,-16.906565 1.397,-0.434225 4.62,1.930649 4.608,3.381313 -0.004,0.522824 -4.166,5.985693 -11.888,15.605836 -6.535,8.14027 -11.805,14.924316 -11.71,15.07425 0.095,0.149935 0.635,0.273581 1.201,0.273581 2.006,0 8.733,1.465269 12.935,2.817599 21.853,7.032313 37.594,24.081998 41.322,44.759311 0.852,4.72585 0.86,13.08519 0.017,17.77502 -1.334,7.41883 -5.026,16.04688 -9.577,22.38501 -2.88,4.00929 -9.867,10.82449 -14.113,13.76573 -8.343,5.77832 -18.449,9.73892 -28.744,11.26358 -3.493,0.51698 -12.226,0.90448 -14.825,0.65718 z m 29.164,-27.30947 c 3.227,-1.033 5.749,-3.38619 6.901,-6.43745 2.792,-7.39352 3.705,-28.27043 1.842,-42.124755 -0.788,-5.863019 -1.591,-8.001045 -3.948,-10.506118 -1.993,-2.118554 -4.461,-3.246956 -8.174,-3.73765 -3.862,-0.510167 -17.973,-0.192773 -24.54,0.552031 -14.349,1.625912 -29.951,5.076351 -33.974,7.513271 -1.902,1.151769 -4.335,4.041414 -5.107,6.064555 -2.021,5.293463 -2.129,24.258216 -0.19,33.425636 0.959,4.53405 3.318,7.85793 6.82,9.60846 3.171,1.58502 14.706,4.0823 24.27,5.25453 9.57,1.17317 12.82,1.34842 23.474,1.2647 9.477,-0.074 10.299,-0.13144 12.626,-0.87721 z"
     fill="none"
     stroke="#000000"
     stroke-width="8"
     stroke-linecap="round"
     stroke-linejoin="round"
     style="stroke-width:12;stroke-dasharray:none" />
</svg>
