<svg xmlns="http://www.w3.org/2000/svg" viewBox="0 0 192 192"><path fill="none" stroke="#000" stroke-linecap="round" stroke-linejoin="round" stroke-width="8" d="M91.377 169.863c-10.228-.973-17.84-3.021-25.857-6.959-17.039-8.367-28.973-23.629-32.149-41.113-.85-4.681-.845-13.029.011-17.775 3.725-20.66 19.66-37.853 41.545-44.828 2.495-.796 4.53-1.544 4.522-1.662-.008-.118-3.769-4.758-8.358-10.31-4.59-5.553-8.345-10.4-8.345-10.772 0-.977 2.76-3.359 3.882-3.353.506.003 1.1.121 1.32.262.22.141 4.6 5.354 9.734 11.584l9.334 11.328 3.603-.128c1.982-.07 3.714-.191 3.848-.27.135-.076 6.282-7.663 13.661-16.856 7.378-9.195 13.69-16.803 14.023-16.907 1.397-.434 4.62 1.93 4.608 3.382-.004.522-4.166 5.985-11.888 15.605-6.535 8.14-11.805 14.925-11.71 15.075.095.15.635.273 1.201.273 2.006 0 8.733 1.465 12.935 2.818 21.853 7.032 37.594 24.082 41.322 44.76.852 4.725.86 13.084.017 17.774-1.334 7.419-5.026 16.047-9.577 22.385-2.88 4.01-9.867 10.825-14.113 13.766-8.343 5.778-18.449 9.739-28.744 11.263-3.493.517-12.226.905-14.825.658zm29.164-27.31c3.227-1.033 5.75-3.386 6.901-6.437 2.792-7.394 3.705-28.27 1.842-42.125-.788-5.863-1.59-8.001-3.948-10.506-1.993-2.119-4.46-3.247-8.174-3.738-3.862-.51-17.973-.193-24.54.552-14.349 1.626-29.95 5.077-33.974 7.513-1.902 1.152-4.335 4.042-5.107 6.065-2.02 5.293-2.129 24.258-.19 33.426.96 4.534 3.318 7.858 6.82 9.608 3.171 1.585 14.706 4.082 24.27 5.255 9.57 1.173 12.82 1.348 23.474 1.264 9.477-.074 10.3-.131 12.626-.877z" style="stroke-width:12;stroke-dasharray:none"/></svg>