<svg xmlns="http://www.w3.org/2000/svg" viewBox="0 0 192 192"><path d="M92.548 105.673v12.202a7.398 7.398 0 0 0 12.624 5.228 7.4 7.4 0 0 0 2.167-5.228v-12.202m0 12.202v7.396M42.545 95.689v29.582m0-12.203a7.397 7.397 0 0 1 12.624-5.229 7.397 7.397 0 0 1 2.166 5.229v12.203M42.558 65.923h14.79l-14.79 19.598h14.79M81.233 121.573a7.167 7.167 0 0 1-2.636 2.71 7.172 7.172 0 0 1-3.65.988 7.417 7.417 0 0 1-7.395-7.396v-4.807a7.399 7.399 0 0 1 7.395-7.387 7.396 7.396 0 0 1 7.396 7.387v2.589H67.552m52.914-16.27v22.186a3.49 3.49 0 0 0 1.801 3.271 3.501 3.501 0 0 0 1.896.427h1.11m-8.505-19.598h7.765M82.34 73.318a7.399 7.399 0 0 0-7.395-7.387 7.396 7.396 0 0 0-7.396 7.387v4.807a7.4 7.4 0 0 0 2.169 5.225 7.4 7.4 0 0 0 10.453 0 7.4 7.4 0 0 0 2.169-5.225m0 7.396V55.939m14.281 29.582V61.116a5.05 5.05 0 0 1 2.562-4.521 5.059 5.059 0 0 1 2.615-.656 5.756 5.756 0 0 1 5.177 2.219m-14.421 7.765h10.353m45.439 55.65a7.162 7.162 0 0 1-6.286 3.698 7.417 7.417 0 0 1-7.395-7.396v-4.807a7.395 7.395 0 1 1 14.79 0v2.589h-14.79" fill="none" stroke="#000" stroke-width="6" stroke-linecap="round" stroke-linejoin="round"/><path d="M42.545 136.061h14.79" fill="none" stroke="#000" stroke-width="8" stroke-linecap="round"/><path d="M96 16.5a79.529 79.529 0 0 0-56.215 23.285A79.529 79.529 0 0 0 16.5 96a79.529 79.529 0 0 0 23.285 56.215A79.529 79.529 0 0 0 96 175.5a79.529 79.529 0 0 0 56.215-23.285A79.529 79.529 0 0 0 175.5 96a79.529 79.529 0 0 0-23.285-56.215A79.529 79.529 0 0 0 96 16.5Z" fill="none" stroke="#000" stroke-width="8" stroke-linecap="round" stroke-linejoin="round"/></svg>