<svg xmlns="http://www.w3.org/2000/svg" viewBox="0 0 192 192"><path fill="none" stroke="#000" stroke-linecap="round" stroke-linejoin="round" stroke-width="8" d="M166.905 175.5H25.095a8.599 8.599 0 0 1-6.078-2.517 8.599 8.599 0 0 1-2.517-6.078V25.095c0-2.279.906-4.467 2.517-6.078a8.599 8.599 0 0 1 6.078-2.517h141.81c2.279 0 4.467.906 6.078 2.517a8.599 8.599 0 0 1 2.517 6.078v141.81a8.599 8.599 0 0 1-2.517 6.078 8.599 8.599 0 0 1-6.078 2.517Z"/><path fill="none" stroke="#000" stroke-linecap="round" stroke-linejoin="round" stroke-width="8" d="M98.664 58.785h.043a12.209 12.209 0 0 1 12.205 12.205v7.993a12.206 12.206 0 0 1-12.205 12.204h-.043A12.206 12.206 0 0 1 86.46 78.983V70.99a12.209 12.209 0 0 1 12.204-12.205m36.441 0h.043a12.209 12.209 0 0 1 12.205 12.205v7.993a12.206 12.206 0 0 1-12.205 12.204h-.043a12.208 12.208 0 0 1-12.204-12.204V70.99a12.209 12.209 0 0 1 12.204-12.205m0 58.53h.043a12.208 12.208 0 0 1 12.205 12.204v7.993a12.205 12.205 0 0 1-12.205 12.204h-.043a12.207 12.207 0 0 1-12.204-12.204v-7.993a12.207 12.207 0 0 1 12.204-12.204m-32.272 12.247a12.292 12.292 0 0 1 12.247-12.076m-12.247-.171v32.401M44.69 42.284h32.359L44.69 91.144h32.359m13.15 52.384a12.201 12.201 0 0 1-22.819-6.016v-7.95a12.248 12.248 0 0 1 12.204-12.076 12.296 12.296 0 0 1 12.119 12.076v3.953H67.38m-16.287-26.256v36.355a6.152 6.152 0 0 0 3.135 5.315 6.143 6.143 0 0 0 3.096.787h1.848M44.69 117.315h12.806"/></svg>